G04*
G04 #@! TF.GenerationSoftware,Altium Limited,Altium Designer,22.1.2 (22)*
G04*
G04 Layer_Color=8421504*
%FSLAX25Y25*%
%MOIN*%
G70*
G04*
G04 #@! TF.SameCoordinates,AC397A93-C031-4B05-9AA3-ADDC1FD7FCD6*
G04*
G04*
G04 #@! TF.FilePolarity,Positive*
G04*
G01*
G75*
%ADD13C,0.01000*%
%ADD16R,0.08888X0.12992*%
%ADD17R,0.12992X0.08888*%
%ADD18R,0.05118X0.07480*%
%ADD19R,0.05709X0.02362*%
%ADD20O,0.05906X0.02362*%
%ADD21R,0.06102X0.02559*%
%ADD22R,0.05906X0.01772*%
%ADD23C,0.03000*%
%ADD24R,0.05315X0.03543*%
%ADD25R,0.05709X0.06890*%
%ADD26R,0.08661X0.12795*%
%ADD27R,0.03543X0.05315*%
%ADD28R,0.06890X0.05709*%
%ADD29R,0.02559X0.04921*%
%ADD30R,0.17520X0.15354*%
%ADD31R,0.03543X0.03740*%
%ADD32R,0.03740X0.03543*%
%ADD33R,0.11417X0.21260*%
%ADD34R,0.21260X0.11417*%
%ADD35R,0.21260X0.23622*%
%ADD36R,0.20079X0.13780*%
%ADD37R,0.06299X0.08071*%
%ADD38O,0.07874X0.02756*%
%ADD39O,0.02756X0.07874*%
%ADD40R,0.04921X0.02559*%
%ADD41R,0.15354X0.17520*%
%ADD42R,0.03543X0.03150*%
%ADD43R,0.03150X0.03543*%
%ADD44R,0.01457X0.01968*%
%ADD45R,0.11024X0.08898*%
%ADD46R,0.08898X0.11024*%
%ADD47R,0.12795X0.09843*%
%ADD48R,0.09843X0.12795*%
%ADD49R,0.07717X0.13346*%
%ADD50R,0.04803X0.03583*%
%ADD51R,0.03583X0.04803*%
%ADD52R,0.04134X0.05512*%
%ADD53R,0.05512X0.04134*%
%ADD54R,0.05709X0.07087*%
%ADD55R,0.19685X0.19685*%
%ADD56R,0.19685X0.19685*%
%ADD57R,0.07087X0.05709*%
%ADD58R,0.12598X0.16535*%
%ADD59R,0.08588X0.12992*%
%ADD60R,0.08268X0.08268*%
%ADD61R,0.03740X0.01378*%
%ADD62R,0.01378X0.03740*%
%ADD63R,0.08071X0.02598*%
%ADD64R,0.02598X0.08071*%
D13*
X600000D01*
Y149000D01*
X512000D02*
X600000D01*
X512000D02*
Y225000D01*
X600000D01*
Y500000D01*
X0D02*
X600000D01*
X0Y0D02*
Y500000D01*
D16*
X477000Y28000D02*
D03*
X83567Y85500D02*
D03*
D17*
X186000Y29000D02*
D03*
D18*
X452000Y329000D02*
D03*
X430346D02*
D03*
Y341598D02*
D03*
X452000D02*
D03*
D19*
X494272Y486000D02*
D03*
Y481000D02*
D03*
Y476000D02*
D03*
Y471000D02*
D03*
Y466000D02*
D03*
Y461000D02*
D03*
Y456000D02*
D03*
X515728Y486000D02*
D03*
Y481000D02*
D03*
Y476000D02*
D03*
Y471000D02*
D03*
Y466000D02*
D03*
Y461000D02*
D03*
Y456000D02*
D03*
X428784Y355500D02*
D03*
Y360500D02*
D03*
Y365500D02*
D03*
Y370500D02*
D03*
Y375500D02*
D03*
Y380500D02*
D03*
Y385500D02*
D03*
Y390500D02*
D03*
X389216Y355500D02*
D03*
Y360500D02*
D03*
Y365500D02*
D03*
Y370500D02*
D03*
Y375500D02*
D03*
Y380500D02*
D03*
Y385500D02*
D03*
Y390500D02*
D03*
D20*
X474370Y343500D02*
D03*
Y338500D02*
D03*
Y333500D02*
D03*
Y328500D02*
D03*
X495630Y343500D02*
D03*
Y338500D02*
D03*
Y333500D02*
D03*
Y328500D02*
D03*
D21*
X235630Y308500D02*
D03*
Y313500D02*
D03*
Y318500D02*
D03*
Y323500D02*
D03*
X214370Y308500D02*
D03*
Y313500D02*
D03*
Y318500D02*
D03*
Y323500D02*
D03*
D22*
X484417Y412925D02*
D03*
Y415484D02*
D03*
Y418043D02*
D03*
Y420602D02*
D03*
Y423161D02*
D03*
Y425721D02*
D03*
Y428279D02*
D03*
Y430839D02*
D03*
Y433398D02*
D03*
Y435957D02*
D03*
Y438516D02*
D03*
Y441075D02*
D03*
X461583Y412925D02*
D03*
Y415484D02*
D03*
Y418043D02*
D03*
Y420602D02*
D03*
Y423161D02*
D03*
Y425721D02*
D03*
Y428279D02*
D03*
Y430839D02*
D03*
Y433398D02*
D03*
Y435957D02*
D03*
Y438516D02*
D03*
Y441075D02*
D03*
X401417Y303925D02*
D03*
Y306484D02*
D03*
Y309043D02*
D03*
Y311602D02*
D03*
Y314161D02*
D03*
Y316721D02*
D03*
Y319280D02*
D03*
Y321839D02*
D03*
Y324398D02*
D03*
Y326957D02*
D03*
Y329516D02*
D03*
Y332075D02*
D03*
X378583Y303925D02*
D03*
Y306484D02*
D03*
Y309043D02*
D03*
Y311602D02*
D03*
Y314161D02*
D03*
Y316721D02*
D03*
Y319280D02*
D03*
Y321839D02*
D03*
Y324398D02*
D03*
Y326957D02*
D03*
Y329516D02*
D03*
Y332075D02*
D03*
D23*
X243000Y323500D02*
D03*
X241500Y288000D02*
D03*
X300500Y325500D02*
D03*
X206500Y359000D02*
D03*
X190000Y367000D02*
D03*
X94000Y380000D02*
D03*
X102000Y418500D02*
D03*
X156000Y350000D02*
D03*
D24*
X521000Y310126D02*
D03*
Y318000D02*
D03*
X503000Y303000D02*
D03*
Y310874D02*
D03*
X65000Y86000D02*
D03*
Y93874D02*
D03*
X181000Y101000D02*
D03*
Y108874D02*
D03*
X504000Y333000D02*
D03*
Y325126D02*
D03*
X512000Y332874D02*
D03*
Y325000D02*
D03*
X528000Y332874D02*
D03*
Y325000D02*
D03*
X520000Y333000D02*
D03*
Y325126D02*
D03*
X214000Y432126D02*
D03*
Y440000D02*
D03*
X522000Y368874D02*
D03*
Y361000D02*
D03*
X510000Y434937D02*
D03*
Y427063D02*
D03*
X520000Y386874D02*
D03*
Y379000D02*
D03*
X521000Y301874D02*
D03*
Y294000D02*
D03*
X513000Y294063D02*
D03*
Y301937D02*
D03*
X76000Y326000D02*
D03*
Y333874D02*
D03*
X374000Y337063D02*
D03*
Y344937D02*
D03*
X404000Y113063D02*
D03*
Y120937D02*
D03*
X335000Y355000D02*
D03*
Y362874D02*
D03*
X326500Y355063D02*
D03*
Y362937D02*
D03*
X477000Y297874D02*
D03*
Y290000D02*
D03*
X503000Y289063D02*
D03*
Y296937D02*
D03*
X204000Y437874D02*
D03*
Y430000D02*
D03*
Y413063D02*
D03*
Y420937D02*
D03*
X510000Y448937D02*
D03*
Y441063D02*
D03*
X170000Y242000D02*
D03*
Y249874D02*
D03*
Y264063D02*
D03*
Y271937D02*
D03*
X188000Y242063D02*
D03*
Y249937D02*
D03*
Y264063D02*
D03*
Y271937D02*
D03*
X134000Y242126D02*
D03*
Y250000D02*
D03*
Y264063D02*
D03*
Y271937D02*
D03*
X116000Y242000D02*
D03*
Y249874D02*
D03*
Y264126D02*
D03*
Y272000D02*
D03*
X98000Y242000D02*
D03*
Y249874D02*
D03*
Y264126D02*
D03*
Y272000D02*
D03*
X80000Y242000D02*
D03*
Y249874D02*
D03*
Y264063D02*
D03*
Y271937D02*
D03*
X152000Y242000D02*
D03*
Y249874D02*
D03*
Y264063D02*
D03*
Y271937D02*
D03*
X452000Y398000D02*
D03*
Y405874D02*
D03*
X444000Y406000D02*
D03*
Y398126D02*
D03*
X407000Y405937D02*
D03*
Y398063D02*
D03*
X460000Y405937D02*
D03*
Y398063D02*
D03*
X416000Y405874D02*
D03*
Y398000D02*
D03*
X434000Y405874D02*
D03*
Y398000D02*
D03*
X484000Y405937D02*
D03*
Y398063D02*
D03*
X425000Y405874D02*
D03*
Y398000D02*
D03*
X354000Y287189D02*
D03*
Y295063D02*
D03*
X362000D02*
D03*
Y287189D02*
D03*
X370000Y287063D02*
D03*
Y294937D02*
D03*
X396000Y295000D02*
D03*
Y287126D02*
D03*
X235000Y432126D02*
D03*
Y440000D02*
D03*
X380000Y48937D02*
D03*
Y41063D02*
D03*
Y21000D02*
D03*
Y28874D02*
D03*
X412000Y120937D02*
D03*
Y113063D02*
D03*
X428000Y120937D02*
D03*
Y113063D02*
D03*
X436000Y120937D02*
D03*
Y113063D02*
D03*
X420000Y120937D02*
D03*
Y113063D02*
D03*
D25*
X526488Y470000D02*
D03*
X537512D02*
D03*
X526488Y480500D02*
D03*
X537512D02*
D03*
X247024Y369000D02*
D03*
X236000D02*
D03*
X281389Y355505D02*
D03*
X270366D02*
D03*
X190024Y358000D02*
D03*
X179000D02*
D03*
X210024Y370000D02*
D03*
X199000D02*
D03*
X190024Y348000D02*
D03*
X179000D02*
D03*
D26*
X93291Y65000D02*
D03*
X74000D02*
D03*
X453354Y8000D02*
D03*
X472646D02*
D03*
X221646Y25000D02*
D03*
X202354D02*
D03*
X221291Y55000D02*
D03*
X202000D02*
D03*
X221291Y10000D02*
D03*
X202000D02*
D03*
X221291Y40000D02*
D03*
X202000D02*
D03*
X263000Y62000D02*
D03*
X243709D02*
D03*
X274000Y78000D02*
D03*
X254709D02*
D03*
X274000Y108000D02*
D03*
X254709D02*
D03*
X274000Y93000D02*
D03*
X254709D02*
D03*
D27*
X449937Y22000D02*
D03*
X442063D02*
D03*
X186000Y7000D02*
D03*
X178126D02*
D03*
X511000Y350000D02*
D03*
X503126D02*
D03*
X227937Y332000D02*
D03*
X220063D02*
D03*
X242437D02*
D03*
X234563D02*
D03*
X191437Y329000D02*
D03*
X183563D02*
D03*
X531063Y342000D02*
D03*
X538937D02*
D03*
Y351000D02*
D03*
X531063D02*
D03*
X429000Y440000D02*
D03*
X436874D02*
D03*
X428937Y432000D02*
D03*
X436811D02*
D03*
X429063Y424000D02*
D03*
X436937D02*
D03*
X526126Y410000D02*
D03*
X534000D02*
D03*
X321937Y291000D02*
D03*
X314063D02*
D03*
X328000Y299000D02*
D03*
X335874D02*
D03*
X328000Y291000D02*
D03*
X335874D02*
D03*
X314000Y299000D02*
D03*
X321874D02*
D03*
X342874Y308000D02*
D03*
X335000D02*
D03*
X343000Y316000D02*
D03*
X335126D02*
D03*
X342937Y332000D02*
D03*
X335063D02*
D03*
X342874Y324000D02*
D03*
X335000D02*
D03*
X427126Y416000D02*
D03*
X435000D02*
D03*
X196000Y428000D02*
D03*
X188126D02*
D03*
X385126Y339000D02*
D03*
X393000D02*
D03*
X357000Y332000D02*
D03*
X349126D02*
D03*
X356937Y324000D02*
D03*
X349063D02*
D03*
X357000Y308000D02*
D03*
X349126D02*
D03*
X356937Y316000D02*
D03*
X349063D02*
D03*
X358126Y63000D02*
D03*
X366000D02*
D03*
X382000D02*
D03*
X374126D02*
D03*
D28*
X259000Y452024D02*
D03*
Y441000D02*
D03*
X161000Y260000D02*
D03*
Y271024D02*
D03*
X179000Y260000D02*
D03*
Y271024D02*
D03*
X125000Y260000D02*
D03*
Y271024D02*
D03*
X107000Y260000D02*
D03*
Y271024D02*
D03*
X89000Y259976D02*
D03*
Y271000D02*
D03*
X71000Y259976D02*
D03*
Y271000D02*
D03*
X143000Y259976D02*
D03*
Y271000D02*
D03*
X64000Y358488D02*
D03*
Y369512D02*
D03*
X309000Y438512D02*
D03*
Y427488D02*
D03*
D29*
X525500Y442358D02*
D03*
X530500D02*
D03*
X535500D02*
D03*
X520500D02*
D03*
Y420858D02*
D03*
X535500D02*
D03*
X530500D02*
D03*
X525500D02*
D03*
D30*
X528000Y434500D02*
D03*
D31*
X248000Y439000D02*
D03*
X241898D02*
D03*
X227000Y440000D02*
D03*
X220898D02*
D03*
X227000Y433000D02*
D03*
X220898D02*
D03*
X248000Y432000D02*
D03*
X241898D02*
D03*
D32*
X161000Y248000D02*
D03*
Y241898D02*
D03*
X179000Y248102D02*
D03*
Y242000D02*
D03*
X125000Y248000D02*
D03*
Y241898D02*
D03*
X107000Y248000D02*
D03*
Y241898D02*
D03*
X89000Y248000D02*
D03*
Y241898D02*
D03*
X71000Y248102D02*
D03*
Y242000D02*
D03*
X143000Y248000D02*
D03*
Y241898D02*
D03*
D33*
X108488Y30000D02*
D03*
X69512D02*
D03*
D34*
X517000Y18512D02*
D03*
Y57488D02*
D03*
X253000Y48000D02*
D03*
Y9024D02*
D03*
X348000Y47976D02*
D03*
Y9000D02*
D03*
D35*
X272000Y296905D02*
D03*
Y335094D02*
D03*
D36*
X118000Y382059D02*
D03*
Y351941D02*
D03*
D37*
X74224Y364000D02*
D03*
X89776D02*
D03*
D38*
X382811Y406039D02*
D03*
Y418638D02*
D03*
Y427299D02*
D03*
Y435961D02*
D03*
X359189Y406039D02*
D03*
X359189Y418638D02*
D03*
Y427299D02*
D03*
Y435961D02*
D03*
X344811Y406039D02*
D03*
Y418638D02*
D03*
Y427299D02*
D03*
Y435961D02*
D03*
X321189Y406039D02*
D03*
X321189Y418638D02*
D03*
Y427299D02*
D03*
Y435961D02*
D03*
X199378Y271260D02*
D03*
Y258661D02*
D03*
Y250000D02*
D03*
Y241339D02*
D03*
X223000Y271260D02*
D03*
X223000Y258661D02*
D03*
Y250000D02*
D03*
Y241339D02*
D03*
D39*
X144000Y314000D02*
D03*
X156598D02*
D03*
X165260D02*
D03*
X173921D02*
D03*
X144000Y337622D02*
D03*
X156598Y337622D02*
D03*
X165260D02*
D03*
X173921D02*
D03*
X86000Y314000D02*
D03*
X98598D02*
D03*
X107260D02*
D03*
X115921D02*
D03*
X86000Y337622D02*
D03*
X98598Y337622D02*
D03*
X107260D02*
D03*
X115921D02*
D03*
D40*
X417858Y434500D02*
D03*
Y429500D02*
D03*
Y424500D02*
D03*
Y439500D02*
D03*
X396358D02*
D03*
Y424500D02*
D03*
Y429500D02*
D03*
Y434500D02*
D03*
D41*
X410000Y432000D02*
D03*
D42*
X530063Y381000D02*
D03*
X537937Y384740D02*
D03*
Y377260D02*
D03*
X311937Y407000D02*
D03*
X304063Y403260D02*
D03*
Y410740D02*
D03*
X188000Y417000D02*
D03*
X195874Y420740D02*
D03*
Y413260D02*
D03*
X241937Y243000D02*
D03*
X234063Y239260D02*
D03*
Y246740D02*
D03*
X133937Y335000D02*
D03*
X126063Y331260D02*
D03*
Y338740D02*
D03*
D43*
X534000Y402000D02*
D03*
X537740Y394126D02*
D03*
X530260D02*
D03*
X535000Y368937D02*
D03*
X538740Y361063D02*
D03*
X531260D02*
D03*
X64000Y326063D02*
D03*
X60260Y333937D02*
D03*
X67740D02*
D03*
X472000Y405937D02*
D03*
X475740Y398063D02*
D03*
X468260D02*
D03*
X382000Y294937D02*
D03*
X385740Y287063D02*
D03*
X378260D02*
D03*
D44*
X188425Y438150D02*
D03*
X190000Y435000D02*
D03*
X186850D02*
D03*
D45*
X365701Y390000D02*
D03*
X378299D02*
D03*
D46*
X368000Y369299D02*
D03*
Y356701D02*
D03*
X534000Y313598D02*
D03*
Y301000D02*
D03*
X490000Y306299D02*
D03*
Y293701D02*
D03*
D47*
X116000Y107000D02*
D03*
Y80976D02*
D03*
X236000Y107012D02*
D03*
Y80988D02*
D03*
D48*
X467024Y54000D02*
D03*
X441000D02*
D03*
X184988Y76000D02*
D03*
X211012D02*
D03*
D49*
X199500Y292000D02*
D03*
X218595D02*
D03*
D50*
X394000Y412457D02*
D03*
Y399543D02*
D03*
X236000Y259000D02*
D03*
Y271913D02*
D03*
X127000Y310543D02*
D03*
Y323457D02*
D03*
D51*
X345000Y396000D02*
D03*
X332087D02*
D03*
X75457Y315000D02*
D03*
X62543D02*
D03*
D52*
X508520Y494000D02*
D03*
X516000D02*
D03*
X502000D02*
D03*
X494520D02*
D03*
X181260Y51000D02*
D03*
X188740D02*
D03*
X119520Y71000D02*
D03*
X127000D02*
D03*
X119000Y63000D02*
D03*
X126480D02*
D03*
X119000Y55000D02*
D03*
X126480D02*
D03*
X510866Y342000D02*
D03*
X503386D02*
D03*
D53*
X527000Y460480D02*
D03*
Y453000D02*
D03*
X537000Y460480D02*
D03*
Y453000D02*
D03*
X381000Y361480D02*
D03*
Y354000D02*
D03*
X445000Y371260D02*
D03*
Y378740D02*
D03*
Y362740D02*
D03*
Y355260D02*
D03*
X437000Y371000D02*
D03*
Y378480D02*
D03*
Y355000D02*
D03*
Y362480D02*
D03*
X97000Y110740D02*
D03*
Y103260D02*
D03*
X81000Y107740D02*
D03*
Y100260D02*
D03*
X73000Y107740D02*
D03*
Y100260D02*
D03*
X65000Y107740D02*
D03*
Y100260D02*
D03*
X487000Y54740D02*
D03*
Y47260D02*
D03*
X449000Y29260D02*
D03*
Y36740D02*
D03*
X441000Y29260D02*
D03*
Y36740D02*
D03*
X457000Y29260D02*
D03*
Y36740D02*
D03*
X173000Y54740D02*
D03*
Y47260D02*
D03*
X219000Y109480D02*
D03*
Y102000D02*
D03*
X111000Y66740D02*
D03*
Y59260D02*
D03*
X103000Y66480D02*
D03*
Y59000D02*
D03*
X466000Y326260D02*
D03*
Y333740D02*
D03*
X520000Y342000D02*
D03*
Y349480D02*
D03*
X249500Y347760D02*
D03*
Y355240D02*
D03*
X233500Y291260D02*
D03*
Y298740D02*
D03*
X513000Y317740D02*
D03*
Y310260D02*
D03*
X343500Y355260D02*
D03*
Y362740D02*
D03*
X477000Y311480D02*
D03*
Y304000D02*
D03*
D54*
X38976Y27000D02*
D03*
X50000D02*
D03*
X561024Y28000D02*
D03*
X550000D02*
D03*
X298024Y62000D02*
D03*
X287000D02*
D03*
X318000D02*
D03*
X306976D02*
D03*
D55*
X48000Y89000D02*
D03*
X14142D02*
D03*
X163929Y26500D02*
D03*
X130071D02*
D03*
D56*
X410000Y15071D02*
D03*
Y48929D02*
D03*
X154000Y65071D02*
D03*
Y98929D02*
D03*
X276000Y430929D02*
D03*
Y397071D02*
D03*
X174000Y160929D02*
D03*
Y127071D02*
D03*
X76000Y160929D02*
D03*
Y127071D02*
D03*
X27000Y160929D02*
D03*
Y127071D02*
D03*
X174000Y187071D02*
D03*
Y220929D02*
D03*
X223000Y187071D02*
D03*
Y220929D02*
D03*
X125000Y160858D02*
D03*
Y127000D02*
D03*
Y187000D02*
D03*
Y220858D02*
D03*
X76000Y187000D02*
D03*
Y220858D02*
D03*
X27000Y187000D02*
D03*
Y220858D02*
D03*
X223000Y160929D02*
D03*
Y127071D02*
D03*
X160000Y369071D02*
D03*
Y402929D02*
D03*
D57*
X199500Y349012D02*
D03*
Y337988D02*
D03*
X209500Y349012D02*
D03*
Y337988D02*
D03*
X219500Y351512D02*
D03*
Y340488D02*
D03*
X240000Y351512D02*
D03*
Y340488D02*
D03*
X229500Y351512D02*
D03*
Y340488D02*
D03*
X185000Y309488D02*
D03*
Y320512D02*
D03*
X205000Y309488D02*
D03*
Y320512D02*
D03*
X195000Y309488D02*
D03*
Y320512D02*
D03*
D58*
X287000Y200000D02*
D03*
X402354D02*
D03*
D59*
X200000Y101000D02*
D03*
D60*
X320579Y340721D02*
D03*
D61*
X313000Y336882D02*
D03*
Y339441D02*
D03*
Y342000D02*
D03*
Y344559D02*
D03*
X328157D02*
D03*
Y342000D02*
D03*
Y339441D02*
D03*
Y336882D02*
D03*
D62*
X316740Y348299D02*
D03*
X319299D02*
D03*
X321858D02*
D03*
X324400Y348300D02*
D03*
X324417Y333142D02*
D03*
X321858D02*
D03*
X319299D02*
D03*
X316740D02*
D03*
D63*
X486567Y20500D02*
D03*
Y25500D02*
D03*
Y30500D02*
D03*
Y35500D02*
D03*
X467433Y20500D02*
D03*
Y25500D02*
D03*
Y30500D02*
D03*
Y35500D02*
D03*
X209567Y93500D02*
D03*
Y98500D02*
D03*
Y103500D02*
D03*
Y108500D02*
D03*
X190433Y93500D02*
D03*
Y98500D02*
D03*
Y103500D02*
D03*
Y108500D02*
D03*
X74000Y93000D02*
D03*
Y88000D02*
D03*
Y83000D02*
D03*
Y78000D02*
D03*
X93134Y93000D02*
D03*
Y88000D02*
D03*
Y83000D02*
D03*
Y78000D02*
D03*
D64*
X193500Y38567D02*
D03*
X188500D02*
D03*
X183500D02*
D03*
X178500D02*
D03*
X193500Y19433D02*
D03*
X188500D02*
D03*
X183500D02*
D03*
X178500D02*
D03*
M02*
