G04*
G04 #@! TF.GenerationSoftware,Altium Limited,Altium Designer,22.9.1 (49)*
G04*
G04 Layer_Physical_Order=2*
G04 Layer_Color=32768*
%FSLAX25Y25*%
%MOIN*%
G70*
G04*
G04 #@! TF.SameCoordinates,192EAC5F-EDB1-4AE9-8E86-1F7271081D8D*
G04*
G04*
G04 #@! TF.FilePolarity,Negative*
G04*
G01*
G75*
%ADD11C,0.01000*%
%ADD14C,0.00787*%
%ADD18C,0.00394*%
%ADD19C,0.00197*%
%ADD109C,0.08000*%
%ADD112C,0.07000*%
%ADD116C,0.04000*%
%ADD117C,0.08016*%
G04:AMPARAMS|DCode=118|XSize=100.157mil|YSize=100.157mil|CornerRadius=0mil|HoleSize=0mil|Usage=FLASHONLY|Rotation=0.000|XOffset=0mil|YOffset=0mil|HoleType=Round|Shape=Relief|Width=10mil|Gap=10mil|Entries=4|*
%AMTHD118*
7,0,0,0.10016,0.08016,0.01000,45*
%
%ADD118THD118*%
%ADD119C,0.13488*%
%ADD120C,0.15600*%
%ADD121C,0.07937*%
G04:AMPARAMS|DCode=122|XSize=99.37mil|YSize=99.37mil|CornerRadius=0mil|HoleSize=0mil|Usage=FLASHONLY|Rotation=0.000|XOffset=0mil|YOffset=0mil|HoleType=Round|Shape=Relief|Width=10mil|Gap=10mil|Entries=4|*
%AMTHD122*
7,0,0,0.09937,0.07937,0.01000,45*
%
%ADD122THD122*%
%ADD123C,0.16598*%
%ADD124C,0.10300*%
G04:AMPARAMS|DCode=125|XSize=100mil|YSize=100mil|CornerRadius=0mil|HoleSize=0mil|Usage=FLASHONLY|Rotation=0.000|XOffset=0mil|YOffset=0mil|HoleType=Round|Shape=Relief|Width=10mil|Gap=10mil|Entries=4|*
%AMTHD125*
7,0,0,0.10000,0.08000,0.01000,45*
%
%ADD125THD125*%
%ADD126C,0.11795*%
G04:AMPARAMS|DCode=127|XSize=137.953mil|YSize=137.953mil|CornerRadius=0mil|HoleSize=0mil|Usage=FLASHONLY|Rotation=0.000|XOffset=0mil|YOffset=0mil|HoleType=Round|Shape=Relief|Width=10mil|Gap=10mil|Entries=4|*
%AMTHD127*
7,0,0,0.13795,0.11795,0.01000,45*
%
%ADD127THD127*%
%ADD128C,0.16500*%
G04:AMPARAMS|DCode=129|XSize=90mil|YSize=90mil|CornerRadius=0mil|HoleSize=0mil|Usage=FLASHONLY|Rotation=0.000|XOffset=0mil|YOffset=0mil|HoleType=Round|Shape=Relief|Width=10mil|Gap=10mil|Entries=4|*
%AMTHD129*
7,0,0,0.09000,0.07000,0.01000,45*
%
%ADD129THD129*%
%ADD130C,0.05500*%
G04:AMPARAMS|DCode=131|XSize=75mil|YSize=75mil|CornerRadius=0mil|HoleSize=0mil|Usage=FLASHONLY|Rotation=0.000|XOffset=0mil|YOffset=0mil|HoleType=Round|Shape=Relief|Width=10mil|Gap=10mil|Entries=4|*
%AMTHD131*
7,0,0,0.07500,0.05500,0.01000,45*
%
%ADD131THD131*%
D11*
Y500500D02*
X675000D01*
Y39000D02*
Y500500D01*
X0Y39000D02*
X675000D01*
X0D02*
Y500500D01*
D14*
X635858Y430634D02*
X673142D01*
Y472366D01*
X635858D02*
X673142D01*
X635858Y430634D02*
Y472366D01*
X193887Y387032D02*
X210447D01*
Y373646D02*
Y387032D01*
X193887Y373646D02*
X210447D01*
X193887D02*
Y387032D01*
X636819Y69728D02*
Y111461D01*
X674102D01*
Y69728D02*
Y111461D01*
X636819Y69728D02*
X674102D01*
X2898Y174461D02*
X40181D01*
X2898Y144539D02*
Y174461D01*
Y144539D02*
X40181D01*
Y174461D01*
X219887Y396028D02*
Y409413D01*
Y396028D02*
X236447D01*
Y409413D01*
X219887D02*
X236447D01*
X149720Y373807D02*
Y387193D01*
Y373807D02*
X166280D01*
Y387193D01*
X149720D02*
X166280D01*
X2898Y205961D02*
X40181D01*
X2898Y176039D02*
Y205961D01*
Y176039D02*
X40181D01*
Y205961D01*
X2898Y237461D02*
X40181D01*
X2898Y207539D02*
Y237461D01*
Y207539D02*
X40181D01*
Y237461D01*
X2898Y268961D02*
X40181D01*
X2898Y239039D02*
Y268961D01*
Y239039D02*
X40181D01*
Y268961D01*
X2618Y402650D02*
X39902D01*
X2618Y372728D02*
Y402650D01*
Y372728D02*
X39902D01*
Y402650D01*
X635831Y398228D02*
X673114D01*
Y428150D01*
X635831D02*
X673114D01*
X635831Y398228D02*
Y428150D01*
X139789Y43398D02*
Y80681D01*
Y43398D02*
X169711D01*
Y80681D01*
X139789D02*
X169711D01*
X71289Y43398D02*
Y80681D01*
Y43398D02*
X101211D01*
Y80681D01*
X71289D02*
X101211D01*
X174039Y43398D02*
Y80681D01*
Y43398D02*
X203961D01*
Y80681D01*
X174039D02*
X203961D01*
X37039Y79681D02*
X66961D01*
Y42398D02*
Y79681D01*
X37039Y42398D02*
X66961D01*
X37039D02*
Y79681D01*
X105539Y43398D02*
Y80681D01*
Y43398D02*
X135461D01*
Y80681D01*
X105539D02*
X135461D01*
X2898Y300461D02*
X40181D01*
X2898Y270539D02*
Y300461D01*
Y270539D02*
X40181D01*
Y300461D01*
D18*
X218000Y192532D02*
Y196468D01*
X216032Y194500D02*
X219969D01*
X220532Y323000D02*
X224468D01*
X222500Y321031D02*
Y324969D01*
D19*
X245138Y296031D02*
Y349969D01*
X199862Y296031D02*
Y349969D01*
X245138D01*
X199862Y296031D02*
X245138D01*
D109*
X462600Y485800D02*
D03*
X474400D02*
D03*
X356300Y474000D02*
D03*
X344500D02*
D03*
Y485800D02*
D03*
X356300D02*
D03*
X450800D02*
D03*
X368100D02*
D03*
Y474000D02*
D03*
X379900D02*
D03*
X379700Y485800D02*
D03*
X438900D02*
D03*
X403500D02*
D03*
X415300D02*
D03*
X391700D02*
D03*
X427100Y474000D02*
D03*
X391700D02*
D03*
X415300D02*
D03*
X403500D02*
D03*
X486200Y470300D02*
D03*
X332700D02*
D03*
X30000Y408900D02*
D03*
Y467900D02*
D03*
X26300Y456100D02*
D03*
Y444300D02*
D03*
Y420700D02*
D03*
Y432500D02*
D03*
X29700Y306300D02*
D03*
Y365300D02*
D03*
X26000Y353500D02*
D03*
X14200Y341700D02*
D03*
Y329900D02*
D03*
Y318100D02*
D03*
X208000Y474700D02*
D03*
X196200D02*
D03*
Y486500D02*
D03*
X208000D02*
D03*
X219800D02*
D03*
Y474700D02*
D03*
X231600D02*
D03*
X231400Y486500D02*
D03*
X243400Y471000D02*
D03*
X184400D02*
D03*
D112*
X258150Y478138D02*
D03*
X268150D02*
D03*
X278150D02*
D03*
X318150D02*
D03*
D116*
X675000Y39000D02*
Y500000D01*
X0D02*
X675000D01*
X0Y39000D02*
Y500000D01*
Y39000D02*
X675000D01*
D117*
X646528Y433783D02*
D03*
Y469216D02*
D03*
X650228Y445595D02*
D03*
Y457406D02*
D03*
X662039D02*
D03*
X647500Y380500D02*
D03*
Y370500D02*
D03*
X637500Y380500D02*
D03*
Y370500D02*
D03*
X627500Y380500D02*
D03*
Y370500D02*
D03*
X617500Y380500D02*
D03*
Y370500D02*
D03*
X607500Y380500D02*
D03*
Y370500D02*
D03*
X597500Y380500D02*
D03*
Y370500D02*
D03*
X587500Y380500D02*
D03*
Y370500D02*
D03*
X577500Y380500D02*
D03*
Y370500D02*
D03*
X567500Y380500D02*
D03*
Y370500D02*
D03*
X557500Y380500D02*
D03*
Y370500D02*
D03*
X547500Y380500D02*
D03*
Y370500D02*
D03*
X537500Y380500D02*
D03*
Y370500D02*
D03*
X527500Y380500D02*
D03*
Y370500D02*
D03*
X517500Y380500D02*
D03*
Y370500D02*
D03*
X507500Y380500D02*
D03*
Y370500D02*
D03*
X497500Y380500D02*
D03*
Y370500D02*
D03*
X487500Y380500D02*
D03*
Y370500D02*
D03*
X477500Y380500D02*
D03*
Y370500D02*
D03*
X467500Y380500D02*
D03*
Y370500D02*
D03*
X457500Y380500D02*
D03*
Y370500D02*
D03*
X447500Y380500D02*
D03*
Y370500D02*
D03*
X437500Y380500D02*
D03*
Y370500D02*
D03*
X427500Y380500D02*
D03*
Y370500D02*
D03*
X417500Y380500D02*
D03*
Y370500D02*
D03*
X407500Y380500D02*
D03*
Y370500D02*
D03*
X397500Y380500D02*
D03*
Y370500D02*
D03*
X387500Y380500D02*
D03*
Y370500D02*
D03*
X377500Y380500D02*
D03*
Y370500D02*
D03*
X367500Y380500D02*
D03*
Y370500D02*
D03*
X357500Y380500D02*
D03*
Y370500D02*
D03*
X347500Y380500D02*
D03*
Y370500D02*
D03*
X337500Y380500D02*
D03*
Y370500D02*
D03*
X327500Y380500D02*
D03*
Y370500D02*
D03*
X317500Y380500D02*
D03*
Y370500D02*
D03*
X307500Y380500D02*
D03*
Y370500D02*
D03*
X647421Y140500D02*
D03*
Y130500D02*
D03*
X607500Y350500D02*
D03*
Y340500D02*
D03*
X597500Y350500D02*
D03*
Y340500D02*
D03*
X587500D02*
D03*
X577500Y350500D02*
D03*
Y340500D02*
D03*
X567500Y350500D02*
D03*
Y340500D02*
D03*
X557500D02*
D03*
X547500D02*
D03*
X537500Y350500D02*
D03*
Y340500D02*
D03*
X517500Y350500D02*
D03*
Y340500D02*
D03*
X507500Y350500D02*
D03*
Y340500D02*
D03*
X497500Y350500D02*
D03*
Y340500D02*
D03*
X487500Y350500D02*
D03*
Y340500D02*
D03*
X477500Y350500D02*
D03*
Y340500D02*
D03*
X467500Y350500D02*
D03*
X457500D02*
D03*
Y340500D02*
D03*
X447500Y350500D02*
D03*
Y340500D02*
D03*
X437500Y350500D02*
D03*
Y340500D02*
D03*
X427500Y350500D02*
D03*
Y340500D02*
D03*
X417500Y350500D02*
D03*
Y340500D02*
D03*
X407500D02*
D03*
X397500Y350500D02*
D03*
Y340500D02*
D03*
X387500Y350500D02*
D03*
Y340500D02*
D03*
X643500Y170500D02*
D03*
Y160500D02*
D03*
X537500Y170500D02*
D03*
Y160500D02*
D03*
X527500D02*
D03*
X517500D02*
D03*
X507500Y170500D02*
D03*
Y160500D02*
D03*
X497500Y170500D02*
D03*
Y160500D02*
D03*
X487500Y170500D02*
D03*
Y160500D02*
D03*
X477500Y170500D02*
D03*
Y160500D02*
D03*
X467500Y170500D02*
D03*
Y160500D02*
D03*
X457500D02*
D03*
X447500Y170500D02*
D03*
Y160500D02*
D03*
X437500Y170500D02*
D03*
X427500D02*
D03*
Y160500D02*
D03*
X417500Y170500D02*
D03*
Y160500D02*
D03*
X407500D02*
D03*
X397500Y170500D02*
D03*
Y160500D02*
D03*
X387500Y170500D02*
D03*
Y160500D02*
D03*
X297500Y380500D02*
D03*
Y370500D02*
D03*
X633500Y170500D02*
D03*
Y160500D02*
D03*
X623500Y170500D02*
D03*
Y160500D02*
D03*
X613500Y170500D02*
D03*
X603500D02*
D03*
Y160500D02*
D03*
X593500Y170500D02*
D03*
Y160500D02*
D03*
X583500Y170500D02*
D03*
Y160500D02*
D03*
X573500Y170500D02*
D03*
Y160500D02*
D03*
X563500Y170500D02*
D03*
Y160500D02*
D03*
X553500Y170500D02*
D03*
Y160500D02*
D03*
X377500Y350500D02*
D03*
Y340500D02*
D03*
Y170500D02*
D03*
Y160500D02*
D03*
X637421Y140500D02*
D03*
Y130500D02*
D03*
X627421Y140500D02*
D03*
Y130500D02*
D03*
X617421Y140500D02*
D03*
Y130500D02*
D03*
X607421Y140500D02*
D03*
Y130500D02*
D03*
X597421Y140500D02*
D03*
Y130500D02*
D03*
X587421Y140500D02*
D03*
Y130500D02*
D03*
X577421Y140500D02*
D03*
Y130500D02*
D03*
X567421Y140500D02*
D03*
Y130500D02*
D03*
X557421Y140500D02*
D03*
Y130500D02*
D03*
X547421Y140500D02*
D03*
Y130500D02*
D03*
X537421Y140500D02*
D03*
Y130500D02*
D03*
X527421Y140500D02*
D03*
Y130500D02*
D03*
X517421Y140500D02*
D03*
Y130500D02*
D03*
X507421Y140500D02*
D03*
Y130500D02*
D03*
X497421Y140500D02*
D03*
Y130500D02*
D03*
X487421Y140500D02*
D03*
Y130500D02*
D03*
X477421Y140500D02*
D03*
Y130500D02*
D03*
X467421Y140500D02*
D03*
Y130500D02*
D03*
X457421Y140500D02*
D03*
Y130500D02*
D03*
X447421Y140500D02*
D03*
Y130500D02*
D03*
X437421Y140500D02*
D03*
Y130500D02*
D03*
X427421Y140500D02*
D03*
Y130500D02*
D03*
X417421Y140500D02*
D03*
Y130500D02*
D03*
X407421Y140500D02*
D03*
Y130500D02*
D03*
X397421Y140500D02*
D03*
Y130500D02*
D03*
X387421Y140500D02*
D03*
Y130500D02*
D03*
X377421Y140500D02*
D03*
Y130500D02*
D03*
X367421Y140500D02*
D03*
Y130500D02*
D03*
X357421Y140500D02*
D03*
Y130500D02*
D03*
X347421Y140500D02*
D03*
Y130500D02*
D03*
X337421Y140500D02*
D03*
Y130500D02*
D03*
X327421Y140500D02*
D03*
Y130500D02*
D03*
X317421Y140500D02*
D03*
Y130500D02*
D03*
X307421Y140500D02*
D03*
Y130500D02*
D03*
X297421Y140500D02*
D03*
Y130500D02*
D03*
X663000Y96500D02*
D03*
Y84689D02*
D03*
X651189Y96500D02*
D03*
Y84689D02*
D03*
X647488Y108311D02*
D03*
Y72878D02*
D03*
X29512Y147689D02*
D03*
Y171311D02*
D03*
X25811Y159500D02*
D03*
X14000D02*
D03*
X13500Y101189D02*
D03*
Y113000D02*
D03*
Y124811D02*
D03*
X25311Y101189D02*
D03*
X29012Y89378D02*
D03*
Y136622D02*
D03*
X29512Y179189D02*
D03*
Y202811D02*
D03*
X25811Y191000D02*
D03*
X14000D02*
D03*
X29512Y210689D02*
D03*
Y234311D02*
D03*
X25811Y222500D02*
D03*
X14000D02*
D03*
X29512Y242189D02*
D03*
Y265811D02*
D03*
X25811Y254000D02*
D03*
X14000D02*
D03*
X29232Y375878D02*
D03*
Y399500D02*
D03*
X25532Y387689D02*
D03*
X13721D02*
D03*
X646500Y425000D02*
D03*
Y401378D02*
D03*
X662012Y413189D02*
D03*
X166561Y70012D02*
D03*
X142939D02*
D03*
X154750Y54500D02*
D03*
X98061Y70012D02*
D03*
X74439D02*
D03*
X86250Y54500D02*
D03*
X200811Y70012D02*
D03*
X177189D02*
D03*
X189000Y54500D02*
D03*
X52000Y53500D02*
D03*
X40189Y69012D02*
D03*
X63811D02*
D03*
X132311Y70012D02*
D03*
X108689D02*
D03*
X120500Y54500D02*
D03*
X29512Y273689D02*
D03*
Y297311D02*
D03*
X25811Y285500D02*
D03*
X14000D02*
D03*
D118*
X662039Y445595D02*
D03*
X587500Y350500D02*
D03*
X557500D02*
D03*
X547500D02*
D03*
X467500Y340500D02*
D03*
X407500Y350500D02*
D03*
X527500Y170500D02*
D03*
X517500D02*
D03*
X457500D02*
D03*
X437500Y160500D02*
D03*
X407500Y170500D02*
D03*
X613500Y160500D02*
D03*
X25311Y113000D02*
D03*
Y124811D02*
D03*
X650201Y413189D02*
D03*
X154750Y66311D02*
D03*
X86250D02*
D03*
X189000D02*
D03*
X52000Y65311D02*
D03*
X120500Y66311D02*
D03*
D119*
X656134Y465870D02*
D03*
Y437130D02*
D03*
X657094Y76224D02*
D03*
Y104965D02*
D03*
X19906Y151035D02*
D03*
Y167965D02*
D03*
X19406Y92724D02*
D03*
Y133276D02*
D03*
X19906Y182535D02*
D03*
Y199465D02*
D03*
Y214035D02*
D03*
Y230965D02*
D03*
Y245535D02*
D03*
Y262465D02*
D03*
X19626Y379224D02*
D03*
Y396153D02*
D03*
X656106Y421654D02*
D03*
Y404724D02*
D03*
X163215Y60405D02*
D03*
X146285D02*
D03*
X94715D02*
D03*
X77785D02*
D03*
X197465D02*
D03*
X180535D02*
D03*
X43535Y59405D02*
D03*
X60465D02*
D03*
X128965Y60405D02*
D03*
X112035D02*
D03*
X19906Y277035D02*
D03*
Y293965D02*
D03*
D120*
X662500Y487500D02*
D03*
X12500D02*
D03*
X13000Y53000D02*
D03*
X661500D02*
D03*
D121*
X605500Y424000D02*
D03*
Y434000D02*
D03*
X298500Y440000D02*
D03*
Y460000D02*
D03*
X268500Y440000D02*
D03*
X268000Y460000D02*
D03*
X344000Y68000D02*
D03*
Y58000D02*
D03*
X96500Y232000D02*
D03*
Y222000D02*
D03*
X609500Y492000D02*
D03*
Y482000D02*
D03*
X119500Y222000D02*
D03*
Y232000D02*
D03*
X81500Y490000D02*
D03*
Y480000D02*
D03*
X184500Y232000D02*
D03*
Y222000D02*
D03*
X166000Y232000D02*
D03*
Y222000D02*
D03*
X77667Y232000D02*
D03*
Y222000D02*
D03*
X56000Y232000D02*
D03*
Y222000D02*
D03*
X141000Y232000D02*
D03*
Y222000D02*
D03*
X624000Y482000D02*
D03*
Y492000D02*
D03*
X626000Y449500D02*
D03*
Y439500D02*
D03*
D122*
X308500Y440000D02*
D03*
Y460000D02*
D03*
X278500Y440000D02*
D03*
X278000Y460000D02*
D03*
D123*
X362500Y345500D02*
D03*
Y165500D02*
D03*
X657500Y160500D02*
D03*
X457500Y220500D02*
D03*
X662500Y350500D02*
D03*
D124*
X149000Y361000D02*
D03*
X188000D02*
D03*
Y347500D02*
D03*
X149000D02*
D03*
X65000Y444000D02*
D03*
Y483000D02*
D03*
X51500D02*
D03*
Y444000D02*
D03*
D125*
X474400Y474000D02*
D03*
X462600D02*
D03*
X427100Y485800D02*
D03*
X438900Y474000D02*
D03*
X450800D02*
D03*
X14500Y455900D02*
D03*
Y444300D02*
D03*
Y432500D02*
D03*
Y420700D02*
D03*
X14200Y353300D02*
D03*
X26000Y341700D02*
D03*
Y318100D02*
D03*
Y329900D02*
D03*
D126*
X119500Y436500D02*
D03*
Y423980D02*
D03*
D127*
X149000D02*
D03*
Y436500D02*
D03*
D128*
X100799Y488193D02*
D03*
X167701D02*
D03*
D129*
X308150Y478138D02*
D03*
D130*
X213000Y198500D02*
D03*
X565000Y432500D02*
D03*
X562000Y437500D02*
D03*
X583000Y447500D02*
D03*
X590000D02*
D03*
X270000Y394500D02*
D03*
X269500Y410000D02*
D03*
X228000Y361000D02*
D03*
X202500Y393500D02*
D03*
X194500D02*
D03*
X48000Y346500D02*
D03*
X135000Y306500D02*
D03*
X68500Y303500D02*
D03*
X50500Y292500D02*
D03*
X70000Y133500D02*
D03*
X92000Y109000D02*
D03*
X104500Y132000D02*
D03*
X124000Y109000D02*
D03*
X246000Y102500D02*
D03*
X253500Y80000D02*
D03*
X243000Y79500D02*
D03*
X238000Y44000D02*
D03*
X323000Y85000D02*
D03*
X489000Y450000D02*
D03*
X472500Y375500D02*
D03*
X489500Y401000D02*
D03*
X441500Y448500D02*
D03*
X481500Y479500D02*
D03*
X491000Y445000D02*
D03*
X502000Y486500D02*
D03*
X519240Y484740D02*
D03*
X586500Y458500D02*
D03*
X656500Y202000D02*
D03*
X663000D02*
D03*
X40000Y168000D02*
D03*
Y173000D02*
D03*
X66000Y179000D02*
D03*
X181500Y158500D02*
D03*
X45000Y163000D02*
D03*
X34500Y187500D02*
D03*
X651500Y387000D02*
D03*
X542500Y391000D02*
D03*
X573000D02*
D03*
X581500Y439500D02*
D03*
X581000Y424000D02*
D03*
X526000Y435000D02*
D03*
X573000Y434500D02*
D03*
X598000Y447500D02*
D03*
X592083Y439417D02*
D03*
X610000Y462000D02*
D03*
X538000Y431000D02*
D03*
X592500Y431563D02*
D03*
X539500Y452000D02*
D03*
X562000D02*
D03*
X576000Y455000D02*
D03*
X602500Y455500D02*
D03*
X583000Y418500D02*
D03*
Y413000D02*
D03*
X514000Y387000D02*
D03*
X623500Y392000D02*
D03*
X612000Y391500D02*
D03*
X513500Y403500D02*
D03*
X466000Y401000D02*
D03*
X400000Y407500D02*
D03*
X409000Y364000D02*
D03*
X520500Y410000D02*
D03*
X393500Y416000D02*
D03*
X575000Y418673D02*
D03*
X563084Y331500D02*
D03*
X413000Y330500D02*
D03*
X303000Y324750D02*
D03*
X423000Y325000D02*
D03*
X372500Y358500D02*
D03*
X382481Y425000D02*
D03*
X612500Y363000D02*
D03*
X582500Y356500D02*
D03*
X623500Y357500D02*
D03*
X506000Y445000D02*
D03*
X426047Y398047D02*
D03*
X442095Y398095D02*
D03*
X380000Y412500D02*
D03*
X504500Y491500D02*
D03*
X560000Y465500D02*
D03*
X555000Y461500D02*
D03*
X342500Y415500D02*
D03*
X337500Y457500D02*
D03*
X380000D02*
D03*
X586500Y406000D02*
D03*
X406500Y453500D02*
D03*
X400500Y431000D02*
D03*
X374500D02*
D03*
X318500Y468500D02*
D03*
X497000Y495500D02*
D03*
X530000Y407000D02*
D03*
X455500Y444500D02*
D03*
X411500D02*
D03*
X406500Y407000D02*
D03*
X235500Y465500D02*
D03*
X222000Y426500D02*
D03*
X161750Y434750D02*
D03*
X160000Y470000D02*
D03*
X164500Y464500D02*
D03*
X262500Y497000D02*
D03*
X182000Y434500D02*
D03*
X155500Y479500D02*
D03*
X247500Y409500D02*
D03*
X254500Y379000D02*
D03*
X241500Y394000D02*
D03*
X209000Y405500D02*
D03*
X212000Y373500D02*
D03*
Y379000D02*
D03*
X223000Y390000D02*
D03*
X243000Y426500D02*
D03*
X279500Y426000D02*
D03*
X306000Y429500D02*
D03*
X288000Y413000D02*
D03*
X306000Y400500D02*
D03*
X280000Y387000D02*
D03*
X215757Y402500D02*
D03*
X179500Y397000D02*
D03*
X187000Y388500D02*
D03*
X180500Y417000D02*
D03*
X222500Y417500D02*
D03*
X208000Y393000D02*
D03*
X231500Y393500D02*
D03*
X253000Y374000D02*
D03*
X292000Y350000D02*
D03*
X214500D02*
D03*
X248000Y403000D02*
D03*
X298000Y403500D02*
D03*
X431500Y320500D02*
D03*
X190500Y321000D02*
D03*
X288000Y300000D02*
D03*
X216000Y413000D02*
D03*
X161500Y390500D02*
D03*
X189000Y439500D02*
D03*
X182500Y409000D02*
D03*
X179500Y339500D02*
D03*
X198000Y370500D02*
D03*
X270500Y329500D02*
D03*
X278000Y333500D02*
D03*
Y379500D02*
D03*
X270500Y374500D02*
D03*
X170000Y379000D02*
D03*
Y374000D02*
D03*
X572500Y375500D02*
D03*
X153500Y371000D02*
D03*
X164500Y314000D02*
D03*
X332750Y297250D02*
D03*
X190500Y294500D02*
D03*
X141000D02*
D03*
X237500Y309500D02*
D03*
X109000Y310000D02*
D03*
X78500Y310500D02*
D03*
X212000Y300000D02*
D03*
X151000Y261000D02*
D03*
X184750Y208750D02*
D03*
X289500Y243000D02*
D03*
Y139000D02*
D03*
X199294Y198881D02*
D03*
X203000Y260500D02*
D03*
X207000Y141500D02*
D03*
X578500Y243500D02*
D03*
X140500Y241500D02*
D03*
X573000Y81500D02*
D03*
X185500Y240500D02*
D03*
X208000D02*
D03*
X210000Y191500D02*
D03*
X266000Y95500D02*
D03*
X256500Y109000D02*
D03*
X266000Y112000D02*
D03*
X227500Y87500D02*
D03*
X214083Y81500D02*
D03*
X206000Y105500D02*
D03*
X216500D02*
D03*
X204000Y112000D02*
D03*
X372500Y106000D02*
D03*
X244500Y113000D02*
D03*
X543000Y103000D02*
D03*
X210000Y49500D02*
D03*
X413000Y49000D02*
D03*
X265000Y125500D02*
D03*
X260000Y122500D02*
D03*
X252500Y136500D02*
D03*
X623500Y103000D02*
D03*
X512500Y119000D02*
D03*
X468757Y151750D02*
D03*
X492000Y151500D02*
D03*
X442500Y99500D02*
D03*
X503000Y148500D02*
D03*
X187500Y185500D02*
D03*
X190500Y191500D02*
D03*
X196000Y195500D02*
D03*
X229000Y183000D02*
D03*
X231500Y176000D02*
D03*
X183000Y145500D02*
D03*
X92500Y255000D02*
D03*
X172500Y105000D02*
D03*
X347500Y193000D02*
D03*
X482500Y193500D02*
D03*
X421000Y200500D02*
D03*
X338000Y200000D02*
D03*
X52000Y130500D02*
D03*
X137500Y280000D02*
D03*
X153500Y229500D02*
D03*
X108500D02*
D03*
X67000D02*
D03*
X422000Y74500D02*
D03*
X232500Y82000D02*
D03*
X165000Y148500D02*
D03*
X338000Y158000D02*
D03*
X249500Y61500D02*
D03*
X253500Y52000D02*
D03*
X624000Y397500D02*
D03*
X135000Y123500D02*
D03*
X347500Y163000D02*
D03*
X90500Y295500D02*
D03*
X481500Y58500D02*
D03*
X464750Y68250D02*
D03*
X189500Y109000D02*
D03*
X157000D02*
D03*
X52500D02*
D03*
X633500Y52000D02*
D03*
X643500Y46000D02*
D03*
X522000Y154500D02*
D03*
X169500Y179000D02*
D03*
X149500D02*
D03*
X130500Y178500D02*
D03*
X108000Y179000D02*
D03*
X87000D02*
D03*
X322500Y336500D02*
D03*
X283500Y353500D02*
D03*
X244500Y359000D02*
D03*
X233500Y428500D02*
D03*
X164000Y450500D02*
D03*
X221500D02*
D03*
X157000Y459500D02*
D03*
X106500Y347000D02*
D03*
X101000Y474000D02*
D03*
X590000Y494500D02*
D03*
D131*
X222000Y192000D02*
D03*
X144000Y157665D02*
D03*
X42500Y141000D02*
D03*
X86500Y140500D02*
D03*
X575000Y449000D02*
D03*
X614500Y435500D02*
D03*
X535500Y397500D02*
D03*
X528000Y451500D02*
D03*
X548500Y487000D02*
D03*
X479000Y445500D02*
D03*
X248500Y421500D02*
D03*
X366500Y426500D02*
D03*
X252500Y443500D02*
D03*
X198621Y420879D02*
D03*
X198500Y348500D02*
D03*
X174000Y360000D02*
D03*
X151500Y331500D02*
D03*
X256000Y142000D02*
D03*
X340000Y95500D02*
D03*
X295500Y95000D02*
D03*
X86500Y232000D02*
D03*
X175500D02*
D03*
X130000D02*
D03*
X220000Y81500D02*
D03*
X115000Y133500D02*
D03*
M02*
