G04*
G04 #@! TF.GenerationSoftware,Altium Limited,Altium Designer,22.1.2 (22)*
G04*
G04 Layer_Color=16711935*
%FSLAX25Y25*%
%MOIN*%
G70*
G04*
G04 #@! TF.SameCoordinates,AC397A93-C031-4B05-9AA3-ADDC1FD7FCD6*
G04*
G04*
G04 #@! TF.FilePolarity,Negative*
G04*
G01*
G75*
%ADD13C,0.01000*%
%ADD114C,0.07800*%
%ADD115C,0.15600*%
%ADD116C,0.06706*%
%ADD117R,0.06706X0.06706*%
%ADD118C,0.07887*%
%ADD119C,0.10958*%
%ADD120C,0.15800*%
%ADD121C,0.17729*%
%ADD122C,0.08800*%
%ADD123C,0.06800*%
%ADD124C,0.04300*%
%ADD125C,0.05800*%
%ADD126C,0.04800*%
D13*
X600000D01*
Y149000D01*
X512000D02*
X600000D01*
X512000D02*
Y225000D01*
X600000D01*
Y500000D01*
X0D02*
X600000D01*
X0Y0D02*
Y500000D01*
D114*
X49800Y390900D02*
D03*
Y379100D02*
D03*
X38000D02*
D03*
Y390900D02*
D03*
Y414500D02*
D03*
Y402700D02*
D03*
X49800D02*
D03*
Y414500D02*
D03*
X305900Y38000D02*
D03*
X294100D02*
D03*
X305900Y49800D02*
D03*
X294100D02*
D03*
X550200Y50000D02*
D03*
X562000D02*
D03*
X49800Y49000D02*
D03*
X38000D02*
D03*
X49800Y251000D02*
D03*
X38000D02*
D03*
X76000Y450200D02*
D03*
Y462000D02*
D03*
X49800Y458400D02*
D03*
Y446600D02*
D03*
X38000D02*
D03*
Y458400D02*
D03*
Y482000D02*
D03*
Y470200D02*
D03*
X49800D02*
D03*
Y482000D02*
D03*
Y283000D02*
D03*
X38000D02*
D03*
X49800Y315000D02*
D03*
X38000D02*
D03*
X550200Y300000D02*
D03*
X562000D02*
D03*
Y481900D02*
D03*
Y470100D02*
D03*
X550200Y481900D02*
D03*
Y470100D02*
D03*
X49800Y347000D02*
D03*
X38000D02*
D03*
X441000Y451200D02*
D03*
Y463000D02*
D03*
X215400Y450200D02*
D03*
X203600D02*
D03*
Y462000D02*
D03*
X215400D02*
D03*
X239000D02*
D03*
X227200D02*
D03*
Y450200D02*
D03*
X239000D02*
D03*
X407700Y452200D02*
D03*
X395900D02*
D03*
Y464000D02*
D03*
X407700D02*
D03*
X289600Y452200D02*
D03*
X277800D02*
D03*
Y464000D02*
D03*
X289600D02*
D03*
X384100D02*
D03*
X301400D02*
D03*
Y452200D02*
D03*
X313200D02*
D03*
X313000Y464000D02*
D03*
X372200D02*
D03*
X336800D02*
D03*
X348600D02*
D03*
X325000D02*
D03*
X360400D02*
D03*
Y452200D02*
D03*
X325000D02*
D03*
X348600D02*
D03*
X336800D02*
D03*
X372200D02*
D03*
X384100D02*
D03*
X550200Y332100D02*
D03*
Y344000D02*
D03*
Y379400D02*
D03*
Y367600D02*
D03*
Y391200D02*
D03*
Y355800D02*
D03*
X562000D02*
D03*
Y391200D02*
D03*
Y367600D02*
D03*
Y379400D02*
D03*
Y344000D02*
D03*
Y403200D02*
D03*
X550200Y403000D02*
D03*
Y414800D02*
D03*
X562000D02*
D03*
Y332100D02*
D03*
Y426600D02*
D03*
Y438400D02*
D03*
X550200D02*
D03*
Y426600D02*
D03*
D115*
X21000Y387500D02*
D03*
Y406000D02*
D03*
X300000Y21000D02*
D03*
X579000Y50000D02*
D03*
X21000Y49000D02*
D03*
Y251000D02*
D03*
X76000Y479000D02*
D03*
X21000Y455000D02*
D03*
Y473500D02*
D03*
Y283000D02*
D03*
Y315000D02*
D03*
X579000Y300000D02*
D03*
Y476000D02*
D03*
X21000Y347000D02*
D03*
X441000Y480000D02*
D03*
X212000Y479000D02*
D03*
X230500D02*
D03*
X286200Y481000D02*
D03*
X399200D02*
D03*
X579000Y340600D02*
D03*
Y430000D02*
D03*
D116*
X288000Y86000D02*
D03*
Y76000D02*
D03*
X298000Y86000D02*
D03*
Y76000D02*
D03*
X308000Y86000D02*
D03*
Y76000D02*
D03*
X318000Y86000D02*
D03*
Y76000D02*
D03*
X328000Y86000D02*
D03*
Y76000D02*
D03*
X338000Y86000D02*
D03*
Y76000D02*
D03*
X348000Y86000D02*
D03*
Y76000D02*
D03*
X358000Y86000D02*
D03*
Y76000D02*
D03*
X368000Y86000D02*
D03*
Y76000D02*
D03*
X378000Y86000D02*
D03*
Y76000D02*
D03*
X388000Y86000D02*
D03*
Y76000D02*
D03*
X398000Y86000D02*
D03*
Y76000D02*
D03*
X408000Y86000D02*
D03*
Y76000D02*
D03*
X418000Y86000D02*
D03*
Y76000D02*
D03*
X428000Y86000D02*
D03*
Y76000D02*
D03*
X438000Y86000D02*
D03*
Y76000D02*
D03*
X448000Y86000D02*
D03*
Y76000D02*
D03*
X458000Y86000D02*
D03*
Y76000D02*
D03*
X468000Y86000D02*
D03*
Y76000D02*
D03*
X478000Y86000D02*
D03*
Y76000D02*
D03*
X488000Y86000D02*
D03*
Y76000D02*
D03*
X498000Y86000D02*
D03*
Y76000D02*
D03*
X508000Y86000D02*
D03*
Y276000D02*
D03*
X498000Y266000D02*
D03*
Y276000D02*
D03*
X488000Y266000D02*
D03*
Y276000D02*
D03*
X478000Y266000D02*
D03*
Y276000D02*
D03*
X468000Y266000D02*
D03*
Y276000D02*
D03*
X458000Y266000D02*
D03*
Y276000D02*
D03*
X448000Y266000D02*
D03*
Y276000D02*
D03*
X438000Y266000D02*
D03*
Y276000D02*
D03*
X428000Y266000D02*
D03*
Y276000D02*
D03*
X418000Y266000D02*
D03*
Y276000D02*
D03*
X408000Y266000D02*
D03*
Y276000D02*
D03*
X398000Y266000D02*
D03*
Y276000D02*
D03*
X388000Y266000D02*
D03*
Y276000D02*
D03*
X378000Y266000D02*
D03*
Y276000D02*
D03*
X368000Y266000D02*
D03*
Y276000D02*
D03*
X358000Y266000D02*
D03*
Y276000D02*
D03*
X348000Y266000D02*
D03*
Y276000D02*
D03*
X338000Y266000D02*
D03*
Y276000D02*
D03*
X328000Y266000D02*
D03*
Y276000D02*
D03*
X318000Y266000D02*
D03*
Y276000D02*
D03*
X308000Y266000D02*
D03*
Y276000D02*
D03*
X298000Y266000D02*
D03*
Y276000D02*
D03*
X288000Y266000D02*
D03*
Y276000D02*
D03*
D117*
X508000Y76000D02*
D03*
Y266000D02*
D03*
D118*
X537000Y492000D02*
D03*
X527000D02*
D03*
X73000Y347000D02*
D03*
X63000D02*
D03*
X179000Y285000D02*
D03*
Y295000D02*
D03*
X161000Y285000D02*
D03*
Y295000D02*
D03*
X125000Y285000D02*
D03*
Y295000D02*
D03*
X107000Y285000D02*
D03*
Y295000D02*
D03*
X89000Y285000D02*
D03*
Y295000D02*
D03*
X71000Y285000D02*
D03*
Y295000D02*
D03*
X143000Y285000D02*
D03*
Y295000D02*
D03*
X459000Y368000D02*
D03*
Y358000D02*
D03*
X215000Y411000D02*
D03*
X225000D02*
D03*
X465000Y482500D02*
D03*
Y492500D02*
D03*
X237000Y423000D02*
D03*
X247000D02*
D03*
X471000Y368000D02*
D03*
Y358000D02*
D03*
X215000Y423000D02*
D03*
X225000D02*
D03*
X483000Y368000D02*
D03*
Y358000D02*
D03*
X237000Y411000D02*
D03*
X247000D02*
D03*
D119*
X123500Y436000D02*
D03*
X153000Y423480D02*
D03*
X123500D02*
D03*
X153000Y436000D02*
D03*
D120*
X104799Y487693D02*
D03*
X171701D02*
D03*
D121*
X580000Y20000D02*
D03*
X20000Y18000D02*
D03*
X99500Y399500D02*
D03*
X505000Y401000D02*
D03*
D122*
X196000Y395500D02*
D03*
X235000D02*
D03*
Y382000D02*
D03*
X196000D02*
D03*
X79000Y426000D02*
D03*
Y387000D02*
D03*
X65500D02*
D03*
Y426000D02*
D03*
D123*
X212000Y25000D02*
D03*
D124*
X94235Y323235D02*
D03*
X476000Y477000D02*
D03*
X484000Y493500D02*
D03*
X485000Y476000D02*
D03*
X506500Y476500D02*
D03*
X450768Y431000D02*
D03*
Y441000D02*
D03*
X193000Y7250D02*
D03*
X165000Y51000D02*
D03*
X305000Y359250D02*
D03*
X237000D02*
D03*
X262000D02*
D03*
X314000Y362500D02*
D03*
X295500Y368500D02*
D03*
X323000Y324000D02*
D03*
X308000Y322500D02*
D03*
X477000Y43000D02*
D03*
X121000Y11500D02*
D03*
X186500Y58500D02*
D03*
X506952Y470952D02*
D03*
X188500Y293500D02*
D03*
X201500Y329500D02*
D03*
X191500Y336500D02*
D03*
X211000Y330500D02*
D03*
X389000Y205000D02*
D03*
X374500Y203500D02*
D03*
X381000Y219000D02*
D03*
X260000Y270500D02*
D03*
X274000D02*
D03*
X224263Y317263D02*
D03*
X213000Y270500D02*
D03*
X310000Y310000D02*
D03*
X314500Y317500D02*
D03*
X302452Y315548D02*
D03*
X364000Y334000D02*
D03*
X306500Y293500D02*
D03*
X169500Y344000D02*
D03*
X183500Y366500D02*
D03*
X267000Y270500D02*
D03*
X256000Y369000D02*
D03*
X505030Y98680D02*
D03*
X502500Y136500D02*
D03*
X498000Y156000D02*
D03*
X494250Y225509D02*
D03*
X499000Y150000D02*
D03*
X492500Y230500D02*
D03*
X486500Y167500D02*
D03*
X531202Y259298D02*
D03*
X525000Y259500D02*
D03*
X511500Y246000D02*
D03*
X344500Y155000D02*
D03*
X496000Y102000D02*
D03*
X489500D02*
D03*
X519000Y89000D02*
D03*
X495500Y250000D02*
D03*
X428500Y107000D02*
D03*
X412000D02*
D03*
X420000D02*
D03*
X435500D02*
D03*
X449500Y121000D02*
D03*
X514500Y254500D02*
D03*
X483000Y177500D02*
D03*
X478000Y186500D02*
D03*
X473000Y180500D02*
D03*
X467500Y187000D02*
D03*
X463500Y200000D02*
D03*
X573000Y230500D02*
D03*
X562250Y273000D02*
D03*
X565500Y231000D02*
D03*
X591500Y236500D02*
D03*
X587500Y242000D02*
D03*
X581500Y246000D02*
D03*
X578000Y252000D02*
D03*
X335000Y150000D02*
D03*
X536719Y324310D02*
D03*
X537000Y331000D02*
D03*
X369000Y187000D02*
D03*
X359000Y176500D02*
D03*
X364000Y133500D02*
D03*
X354000Y165500D02*
D03*
X329000Y178000D02*
D03*
X334500Y97000D02*
D03*
X319000Y184000D02*
D03*
X451000Y220000D02*
D03*
X402500D02*
D03*
X396532Y124469D02*
D03*
X364000Y97000D02*
D03*
X354000Y96000D02*
D03*
X344547D02*
D03*
X394500Y226000D02*
D03*
X522500Y286500D02*
D03*
X512000D02*
D03*
X459000Y19000D02*
D03*
X428000Y6000D02*
D03*
X431000Y57000D02*
D03*
X483000Y389000D02*
D03*
X510000Y381000D02*
D03*
X482000Y455000D02*
D03*
X504000Y373000D02*
D03*
X269000Y382000D02*
D03*
X412000Y313000D02*
D03*
X179000Y94000D02*
D03*
X508000Y464000D02*
D03*
X392000Y348000D02*
D03*
X365000Y345063D02*
D03*
X381000Y347000D02*
D03*
X504000Y458000D02*
D03*
X508000Y357000D02*
D03*
X486000Y448000D02*
D03*
X493000Y416000D02*
D03*
X414500Y474500D02*
D03*
X414000Y482000D02*
D03*
X373000Y412286D02*
D03*
X430000Y308000D02*
D03*
X465000Y292000D02*
D03*
X468744Y311000D02*
D03*
X411000Y336000D02*
D03*
X417000Y330000D02*
D03*
X502000Y450000D02*
D03*
X481000Y467000D02*
D03*
X470000Y416000D02*
D03*
X505000Y317785D02*
D03*
X454000Y391518D02*
D03*
X453000Y384000D02*
D03*
X445000Y391000D02*
D03*
X476000Y389000D02*
D03*
X465000Y390000D02*
D03*
X488000Y340000D02*
D03*
X481000Y321000D02*
D03*
X389000Y295000D02*
D03*
X387000Y309000D02*
D03*
X445000Y436000D02*
D03*
X444000Y287000D02*
D03*
X418000Y466000D02*
D03*
X419000Y450000D02*
D03*
X420000Y415000D02*
D03*
X399000Y390000D02*
D03*
X408000D02*
D03*
X416000D02*
D03*
X437000Y391000D02*
D03*
X344000Y288000D02*
D03*
X357000Y345000D02*
D03*
X347000Y339000D02*
D03*
X352000Y354000D02*
D03*
X347500Y347260D02*
D03*
X340000Y341000D02*
D03*
X212000Y248000D02*
D03*
X409000Y250000D02*
D03*
X417000Y317839D02*
D03*
X402000Y339000D02*
D03*
X413000Y306000D02*
D03*
X386918Y327000D02*
D03*
X370000Y314000D02*
D03*
X411000Y299000D02*
D03*
X387000Y319000D02*
D03*
X404293Y297000D02*
D03*
X365000Y319000D02*
D03*
X368000Y327000D02*
D03*
X247000Y377000D02*
D03*
X334500Y347063D02*
D03*
X297677Y397071D02*
D03*
X261000Y386000D02*
D03*
X190000Y473000D02*
D03*
X19000Y422000D02*
D03*
X7000Y425000D02*
D03*
X200000Y407000D02*
D03*
X401000Y418000D02*
D03*
X398000Y359000D02*
D03*
X494000Y321000D02*
D03*
X487000Y329000D02*
D03*
X12000Y207000D02*
D03*
X394000Y61000D02*
D03*
X150000Y343000D02*
D03*
X312740Y355882D02*
D03*
X250000Y455000D02*
D03*
X196000Y435000D02*
D03*
X135000Y313000D02*
D03*
X50000Y336000D02*
D03*
X425000Y33000D02*
D03*
X225000Y71000D02*
D03*
X172000Y108000D02*
D03*
X136000Y53000D02*
D03*
X120000Y43000D02*
D03*
X188000Y257000D02*
D03*
X170000D02*
D03*
X152000D02*
D03*
X134000D02*
D03*
X116000D02*
D03*
X98000D02*
D03*
X80000D02*
D03*
X56000Y107000D02*
D03*
X60000Y69000D02*
D03*
X274000Y61000D02*
D03*
D125*
X12500Y140500D02*
D03*
X286000Y110000D02*
D03*
Y99000D02*
D03*
D126*
Y218000D02*
D03*
X440000Y13000D02*
D03*
X252000Y122000D02*
D03*
M02*
