G04*
G04 #@! TF.GenerationSoftware,Altium Limited,Altium Designer,22.9.1 (49)*
G04*
G04 Layer_Physical_Order=4*
G04 Layer_Color=16711680*
%FSLAX25Y25*%
%MOIN*%
G70*
G04*
G04 #@! TF.SameCoordinates,BB633E66-87C8-40FE-9CFB-B2BEEBF4E8C6*
G04*
G04*
G04 #@! TF.FilePolarity,Positive*
G04*
G01*
G75*
%ADD13C,0.01000*%
%ADD16C,0.00197*%
%ADD17C,0.00394*%
%ADD28C,0.03000*%
%ADD122C,0.01500*%
%ADD123C,0.07087*%
%ADD124C,0.05906*%
%ADD125R,0.05906X0.05906*%
%ADD126C,0.07000*%
%ADD127C,0.14800*%
%ADD128C,0.10158*%
%ADD129C,0.06000*%
%ADD130C,0.15000*%
%ADD131C,0.16929*%
%ADD132C,0.08000*%
%ADD146C,0.01000*%
D13*
X545953Y421461D02*
G03*
X547561Y419853I4247J2639D01*
G01*
X585495Y382920D02*
G03*
X585494Y382920I707J-708D01*
G01*
X585509Y382935D02*
G03*
X573130Y395716I-6009J6565D01*
G01*
X585495Y382920D02*
G03*
X585494Y382920I707J-708D01*
G01*
X585509Y382935D02*
G03*
X573130Y395716I-6009J6565D01*
G01*
X573122Y395707D02*
G03*
X573130Y395716I-707J707D01*
G01*
X545953Y421461D02*
G03*
X547561Y419853I4247J2639D01*
G01*
X506000Y456000D02*
X575500D01*
X531500Y468500D02*
X537000Y463000D01*
X538041Y465000D02*
X579000D01*
X575500Y456000D02*
X592000Y439500D01*
X489500Y464000D02*
X508000D01*
X537000Y463000D02*
X574000D01*
X532541Y470500D02*
X538041Y465000D01*
X579000D02*
X596000Y448000D01*
X574000Y463000D02*
X594000Y443000D01*
X504000Y458000D02*
X506000Y456000D01*
X542500Y459500D02*
X561500D01*
X480000Y473500D02*
X489500Y464000D01*
X512500Y470500D02*
X532541D01*
X509404Y468500D02*
X531500D01*
X506952Y470952D02*
X509404Y468500D01*
X506500Y476500D02*
X512500Y470500D01*
X537000Y492000D02*
X577000D01*
X592500Y476500D01*
X318000Y63500D02*
Y76000D01*
Y63500D02*
X365000Y16500D01*
X376500Y8500D02*
X379500Y5500D01*
X503000D01*
X387041Y9500D02*
X388041Y8500D01*
X500500D01*
X512453Y20453D01*
X386500Y9500D02*
X387041D01*
X503000Y5500D02*
X515000Y17500D01*
Y140500D01*
X507383Y148117D02*
Y221383D01*
Y148117D02*
X515000Y140500D01*
X512453Y20453D02*
Y138047D01*
X503500Y147000D02*
X512453Y138047D01*
X425500Y15000D02*
X425750Y14750D01*
X439250D02*
X439500Y14500D01*
X425750Y14750D02*
X439250D01*
X511129Y244129D02*
Y245629D01*
X511500Y246000D01*
X497500Y225642D02*
Y230500D01*
X511129Y244129D01*
X499383Y224696D02*
X527686Y253000D01*
X501383Y223868D02*
X528515Y251000D01*
X503383Y223040D02*
X529343Y249000D01*
X464000Y121000D02*
X499000Y86000D01*
X505383Y222211D02*
X530172Y247000D01*
X529343Y249000D02*
X530803D01*
X529975Y251000D02*
X543200Y264225D01*
X499500Y219328D02*
X501383Y221211D01*
X527686Y253000D02*
X529147D01*
X503383Y220383D02*
Y223040D01*
X495383Y223696D02*
Y226353D01*
X495500Y226470D01*
X503500Y217000D02*
X505383Y218883D01*
X531632Y247000D02*
X555200Y270568D01*
X497383Y225525D02*
X497500Y225642D01*
X495500Y220985D02*
X497383Y222868D01*
X530172Y247000D02*
X531632D01*
X501383Y221211D02*
Y223868D01*
X528515Y251000D02*
X529975D01*
X495500Y226470D02*
Y240500D01*
X501500Y218500D02*
X503383Y220383D01*
X531000Y245000D02*
X537500D01*
X505383Y218883D02*
Y222211D01*
X555200Y270568D02*
Y300271D01*
X545200Y263397D02*
Y302071D01*
X497383Y222868D02*
Y225525D01*
X529147Y253000D02*
X538000Y261853D01*
X530803Y249000D02*
X545200Y263397D01*
X507383Y221383D02*
X531000Y245000D01*
X493500Y221814D02*
X495383Y223696D01*
X538000Y261853D02*
Y316515D01*
X497500Y220157D02*
X499383Y222040D01*
X543200Y264225D02*
Y302899D01*
X499383Y222040D02*
Y224696D01*
X487500Y164257D02*
X489500Y166257D01*
X492500Y226959D02*
Y227500D01*
X495500Y240500D02*
X509500Y254500D01*
X491500Y225959D02*
X492500Y226959D01*
X491500Y165429D02*
Y225959D01*
X489500Y166257D02*
Y231000D01*
X503500Y147000D02*
Y217000D01*
X493500Y164601D02*
Y221814D01*
X497500Y154757D02*
Y220157D01*
X495500Y163772D02*
Y220985D01*
X499500Y144672D02*
Y219328D01*
X501500Y145500D02*
Y218500D01*
X505030Y99221D02*
X505750Y99941D01*
X505030Y98680D02*
Y99221D01*
X505750Y99941D02*
Y141250D01*
X492500Y163601D02*
Y163601D01*
X491500Y111000D02*
X495000Y107500D01*
X491500Y162601D02*
X492500Y163601D01*
Y163601D02*
X493500Y164601D01*
X491500Y111000D02*
Y162601D01*
X496500Y150000D02*
Y153757D01*
X499500Y144672D02*
X502500Y141672D01*
X501500Y145500D02*
X505750Y141250D01*
X496500Y153757D02*
X497500Y154757D01*
X502500Y136500D02*
Y141672D01*
X481500Y179086D02*
Y252000D01*
X483000Y177500D02*
Y177586D01*
X481500Y252000D02*
X487500Y258000D01*
X481500Y179086D02*
X483000Y177586D01*
X486500Y167500D02*
Y245000D01*
X491500Y250000D01*
X474000Y190500D02*
X478000Y186500D01*
X474000Y190500D02*
Y250000D01*
X484000Y260000D01*
X470500Y183000D02*
Y251203D01*
X483453Y264156D01*
X470500Y183000D02*
X473000Y180500D01*
X505931Y316854D02*
X517500Y305285D01*
X505717Y316854D02*
X505931D01*
X438000Y293000D02*
X444000Y287000D01*
X517500Y263000D02*
Y305285D01*
X359000Y86000D02*
Y176500D01*
X133000Y403000D02*
X215868D01*
X132000D02*
X133000D01*
X402500Y92500D02*
X409000Y86000D01*
X319000D02*
Y184000D01*
X369000Y86000D02*
Y187000D01*
X333000Y345000D02*
X335000Y347000D01*
X334630Y347370D02*
X335000Y347000D01*
X429000Y86000D02*
Y106500D01*
Y76000D02*
Y80961D01*
X419000Y76000D02*
Y80500D01*
X397586Y283000D02*
X398000D01*
X387000D02*
X397586D01*
X399000Y29000D02*
Y76000D01*
X547561Y419853D02*
X572000Y395414D01*
X517414Y450000D02*
X545953Y421461D01*
X585201Y382627D02*
X585494Y382920D01*
X585495Y382920D02*
X585509Y382935D01*
X585201Y382213D02*
Y382627D01*
X572000Y395414D02*
X572414D01*
X585201Y381799D02*
Y382213D01*
X572414Y395414D02*
X572829D01*
X495500Y373500D02*
X504500D01*
X545000Y333000D01*
X328000Y63500D02*
Y76000D01*
Y63500D02*
X376000Y15500D01*
X475487Y34815D02*
X503453Y62781D01*
Y89047D01*
X473806Y34815D02*
X475487D01*
X510000Y416000D02*
X555700Y370300D01*
X555200Y300271D02*
X562000Y307071D01*
Y318000D01*
X545000Y304699D02*
Y333000D01*
X555700Y312571D02*
Y370300D01*
X543200Y302899D02*
X545000Y304699D01*
X545200Y302071D02*
X555700Y312571D01*
X489500Y108500D02*
Y163429D01*
X494500Y156000D02*
Y162772D01*
X487500Y104243D02*
Y164257D01*
Y104243D02*
X489500Y102243D01*
Y108500D02*
X496000Y102000D01*
X489500D02*
Y102243D01*
X494500Y162772D02*
X495500Y163772D01*
X489500Y163429D02*
X491500Y165429D01*
X199500Y203500D02*
X223000Y227000D01*
X199500Y149000D02*
Y203500D01*
X596000Y278000D02*
Y448000D01*
X594000Y279000D02*
Y443000D01*
X592000Y280000D02*
Y439500D01*
X585201Y381799D02*
X590000Y377000D01*
X572829Y395414D02*
X573121Y395707D01*
X516000Y444000D02*
X568000Y392000D01*
X517000Y446000D02*
X570000Y393000D01*
X500343Y446000D02*
X517000D01*
X568000Y292000D02*
Y392000D01*
X570000Y291000D02*
Y393000D01*
X502000Y450000D02*
X517414D01*
X497000Y444000D02*
X516000D01*
X481470Y464873D02*
X500343Y446000D01*
X565500Y289500D02*
X568000Y292000D01*
X476000Y465000D02*
X497000Y444000D01*
X578000Y268828D02*
X590000Y280828D01*
Y377000D01*
X570000Y291000D02*
X573000Y288000D01*
X489000Y416000D02*
X493000D01*
X476000Y429000D02*
X489000Y416000D01*
X476000Y448298D02*
X481702Y454000D01*
X476000Y429000D02*
Y448298D01*
Y465000D02*
Y477000D01*
X481000Y467000D02*
X481470Y466530D01*
Y464873D02*
Y466530D01*
X565500Y231000D02*
Y289500D01*
X493000Y416000D02*
X510000D01*
X101500Y200000D02*
X110500D01*
X94000Y192500D02*
X101500Y200000D01*
X302000Y94000D02*
X306297D01*
X313500Y86797D01*
Y84203D02*
Y86797D01*
Y84203D02*
X317156Y80547D01*
X333453D01*
X338000Y76000D01*
X327000Y93500D02*
X332453Y88047D01*
Y85250D02*
Y88047D01*
Y85250D02*
X337156Y80547D01*
X343453D01*
X348000Y76000D01*
X322250Y91750D02*
Y179000D01*
Y91750D02*
X328000Y86000D01*
X329000D01*
X334500Y97000D02*
Y148824D01*
X344547Y96000D02*
Y154953D01*
X344500Y155000D02*
X344547Y154953D01*
X212000Y248000D02*
X227541D01*
X7000Y231672D02*
Y425000D01*
X6500Y49500D02*
Y231172D01*
Y49500D02*
X17250Y38750D01*
X6500Y231172D02*
X7000Y231672D01*
X74000Y231000D02*
X81000Y238000D01*
X60000Y69000D02*
X74000Y83000D01*
Y231000D01*
X195180Y229594D02*
X196586Y231000D01*
X195180Y9262D02*
Y229594D01*
X193330Y7580D02*
X193498D01*
X193000Y7250D02*
X193330Y7580D01*
X193498D02*
X195180Y9262D01*
X196586Y231000D02*
X398000D01*
X292500Y309000D02*
Y335642D01*
X312740Y355882D01*
X295500Y324500D02*
X299500Y328500D01*
X332414D01*
X333000Y329086D01*
Y345000D01*
X480000Y473500D02*
Y480000D01*
X186218Y364000D02*
X312164D01*
X179500Y369750D02*
X246750D01*
X336800Y452200D02*
X337000Y452000D01*
X246750Y369750D02*
X255000Y378000D01*
X312164Y364000D02*
X313664Y362500D01*
X271000Y378000D02*
X275500Y382500D01*
X183500Y366500D02*
X183718D01*
X255000Y378000D02*
X271000D01*
X183718Y366500D02*
X186218Y364000D01*
X313664Y362500D02*
X314000D01*
X169500Y359750D02*
X179500Y369750D01*
X316500Y252500D02*
X323000Y259000D01*
Y278500D02*
X326500Y282000D01*
X323000Y259000D02*
Y278500D01*
X490297Y271000D02*
X493000Y273703D01*
Y279000D02*
X500500Y286500D01*
X493000Y273703D02*
Y279000D01*
X500500Y286500D02*
X512000D01*
X483453Y264156D02*
Y268953D01*
X485500Y271000D02*
X490297D01*
X483453Y268953D02*
X485500Y271000D01*
X476924Y271424D02*
X482751D01*
X483500Y272173D01*
X473453Y267953D02*
X476924Y271424D01*
X483500Y272173D02*
Y287797D01*
X473453Y264156D02*
Y267953D01*
X473000Y271086D02*
Y284500D01*
X465500Y292000D02*
X473000Y284500D01*
X472414Y270500D02*
X473000Y271086D01*
X465500Y270500D02*
X472414D01*
X452500Y261500D02*
Y267000D01*
X456500Y271000D01*
X460297D01*
X451000Y260000D02*
X452500Y261500D01*
X420000Y270500D02*
X423000Y273500D01*
Y278297D01*
X414500Y270500D02*
X420000D01*
X445250Y271000D02*
X450297D01*
X443000Y268750D02*
X445250Y271000D01*
X443000Y261500D02*
Y268750D01*
X413500Y232000D02*
X443000Y261500D01*
X423000Y269000D02*
X424726Y270726D01*
X430024D01*
X423000Y262000D02*
Y269000D01*
X418000Y257000D02*
X423000Y262000D01*
X421000Y280139D02*
X421369Y279771D01*
X421000Y280139D02*
Y326000D01*
X421448Y279850D02*
X423000Y278297D01*
X430024Y270726D02*
X433453Y274156D01*
X413000Y269000D02*
X414500Y270500D01*
X402000Y236000D02*
X413000Y247000D01*
Y269000D01*
X383000Y279000D02*
X387000Y283000D01*
X383000Y273000D02*
Y279000D01*
X380687Y270687D02*
X383000Y273000D01*
X409750Y270453D02*
X413000Y273703D01*
Y284766D02*
X419000Y295686D01*
X413000Y273703D02*
Y284766D01*
X440000Y441000D02*
X450768D01*
X441000Y431000D02*
X450768D01*
X194596Y4000D02*
X202696Y12100D01*
X188904Y6500D02*
X191404Y4000D01*
X194596D01*
X363672Y368500D02*
X405172Y410000D01*
X295500Y368500D02*
X363672D01*
X49500Y6500D02*
X188904D01*
X37750Y18250D02*
X49500Y6500D01*
X478000Y482000D02*
X480000Y480000D01*
X475000Y482000D02*
X478000D01*
X472343Y479343D02*
X475000Y482000D01*
X472343Y473500D02*
Y479343D01*
X469000Y470157D02*
X472343Y473500D01*
X469000Y421000D02*
Y470157D01*
X307586Y457500D02*
X332000D01*
X336800Y452700D01*
Y452200D02*
Y452700D01*
X307000Y447500D02*
Y456914D01*
X307586Y457500D01*
X305500Y446000D02*
X307000Y447500D01*
X285500Y446000D02*
X305500D01*
X275500Y436000D02*
X285500Y446000D01*
X275500Y382500D02*
Y436000D01*
X405172Y410000D02*
X458000D01*
X469000Y421000D01*
X191500Y336500D02*
X205000D01*
X211000Y330500D01*
X374978Y201686D02*
Y203022D01*
X374500Y203500D02*
X374978Y203022D01*
Y201686D02*
X375000Y201664D01*
Y95000D02*
Y201664D01*
X389000Y95000D02*
Y205000D01*
Y95000D02*
X390000Y94000D01*
X295500Y307000D02*
Y324500D01*
X260000Y276500D02*
X292500Y309000D01*
X260000Y270500D02*
Y276500D01*
X267000Y270500D02*
Y278500D01*
X295500Y307000D01*
X339522Y339186D02*
Y340522D01*
X339500Y322000D02*
Y339164D01*
X339522Y340522D02*
X340000Y341000D01*
X339500Y339164D02*
X339522Y339186D01*
X302000Y304500D02*
X322000D01*
X339500Y322000D01*
X274000Y270500D02*
Y276500D01*
X302000Y304500D01*
X279500Y279000D02*
X302500Y302000D01*
X322657D02*
X361720Y341063D01*
X302500Y302000D02*
X322657D01*
X279500Y267000D02*
Y279000D01*
X278164Y265664D02*
X279500Y267000D01*
X206664Y265664D02*
X278164D01*
X201500Y270828D02*
X206664Y265664D01*
X201500Y270828D02*
Y271000D01*
X197000Y275500D02*
X201500Y271000D01*
X168086Y275500D02*
X197000D01*
X167500Y276086D02*
Y336500D01*
Y276086D02*
X168086Y275500D01*
X196000Y273500D02*
X206000Y263500D01*
X158500Y273500D02*
X196000D01*
X195672Y271000D02*
X205172Y261500D01*
X157500Y271000D02*
X195672D01*
X91500Y268500D02*
X195000D01*
X205172Y261500D02*
X292414D01*
X195000Y268500D02*
X204000Y259500D01*
X155000Y349000D02*
X167500Y336500D01*
X154000Y347000D02*
X155957Y345043D01*
Y282911D02*
X157000Y281868D01*
X155957Y282911D02*
Y345043D01*
X73000Y347000D02*
X154000D01*
X303000Y299000D02*
X323500D01*
X281500Y277500D02*
X303000Y299000D01*
X281500Y265500D02*
Y277500D01*
X279500Y263500D02*
X281500Y265500D01*
X206000Y263500D02*
X279500D01*
X292414Y261500D02*
X293000Y262086D01*
Y279000D01*
X157000Y275000D02*
X158500Y273500D01*
X157000Y275000D02*
Y281868D01*
X363500Y339000D02*
X367000D01*
X323500Y299000D02*
X363500Y339000D01*
X364000Y330000D02*
Y334000D01*
X367000Y339000D02*
X379000Y327000D01*
X322500Y288500D02*
X364000Y330000D01*
X302500Y288500D02*
X322500D01*
X293000Y279000D02*
X302500Y288500D01*
X231000Y259500D02*
X232000Y258500D01*
X204000Y259500D02*
X231000D01*
X232000Y258500D02*
X301000D01*
X80000Y257000D02*
X91500Y268500D01*
X150000Y278500D02*
X157500Y271000D01*
X150000Y278500D02*
Y343000D01*
X303000Y282500D02*
X306500Y286000D01*
X323515D01*
X303000Y260500D02*
Y282500D01*
X301000Y258500D02*
X303000Y260500D01*
X229500Y257000D02*
X231000Y255500D01*
X203500Y257000D02*
X229500D01*
X231000Y255500D02*
X308500D01*
X195000Y265500D02*
X203500Y257000D01*
X106500Y265500D02*
X195000D01*
X313000Y278500D02*
X318500Y284000D01*
X313000Y260000D02*
Y278500D01*
X308500Y255500D02*
X313000Y260000D01*
X318500Y284000D02*
X325000D01*
X332500Y277500D02*
X334547Y279547D01*
X328000Y282000D02*
X365000Y319000D01*
X332500Y261000D02*
X332586Y260914D01*
X334547Y279547D02*
Y284547D01*
X332586Y260086D02*
Y260914D01*
X332500Y261000D02*
Y277500D01*
X334547Y284547D02*
X364000Y314000D01*
X326500Y282000D02*
X328000D01*
X322500Y250000D02*
X332586Y260086D01*
X230000Y252500D02*
X316500D01*
X228000Y254500D02*
X230000Y252500D01*
X202500Y254500D02*
X228000D01*
X201500Y252000D02*
X227000D01*
X229000Y250000D01*
X322500D01*
X98000Y257000D02*
X106500Y265500D01*
X138000Y261000D02*
X192500D01*
X116000Y257000D02*
X122000Y263000D01*
X194000D01*
X202500Y254500D01*
X192500Y261000D02*
X201500Y252000D01*
X325000Y284000D02*
X356000Y315000D01*
Y315657D01*
X323515Y286000D02*
X364515Y327000D01*
X368000D01*
X361500Y247000D02*
X372500Y258000D01*
X373000Y244000D02*
X382818Y253818D01*
Y267318D01*
X385953Y270453D01*
X228541Y247000D02*
X361500D01*
X374687Y270687D02*
X380687D01*
X372500Y268500D02*
X374687Y270687D01*
X372500Y258000D02*
Y268500D01*
X389364Y251864D02*
Y256864D01*
X393000Y260500D01*
Y268000D01*
X388750Y270453D02*
X392453Y274156D01*
X385953Y270453D02*
X388750D01*
X201000Y244000D02*
X373000D01*
X396000Y271000D02*
X400500D01*
X403453Y251453D02*
Y269453D01*
X404453Y270453D01*
X393000Y268000D02*
X396000Y271000D01*
X400500D02*
X403000Y273500D01*
X404453Y270453D02*
X409750D01*
X379500Y242000D02*
X389364Y251864D01*
X185000Y242000D02*
X379500D01*
X392000Y240000D02*
X403453Y251453D01*
X400738Y280453D02*
X407500Y287215D01*
Y289843D02*
X415000Y297343D01*
X409500Y289015D02*
X417000Y296515D01*
X407500Y287215D02*
Y289843D01*
X403000Y277500D02*
X409500Y284000D01*
Y289015D01*
X403000Y273500D02*
Y277500D01*
X396156Y280453D02*
X400738D01*
X392453Y276750D02*
X396156Y280453D01*
X392453Y274156D02*
Y276750D01*
X169000Y240000D02*
X392000D01*
X81000Y238000D02*
X395500D01*
X408522Y249522D02*
X409000Y250000D01*
X407022Y249522D02*
X408522D01*
X395500Y238000D02*
X407022Y249522D01*
X134000Y257000D02*
X138000Y261000D01*
X169500Y344000D02*
Y359750D01*
X373000Y93000D02*
X375000Y95000D01*
X368000Y76000D02*
X373000Y81000D01*
Y93000D01*
X381000Y89297D02*
Y219000D01*
X403000Y234000D02*
X418000Y249000D01*
X198757Y236000D02*
X402000D01*
X398000Y231000D02*
X401000Y234000D01*
X403000D01*
X418000Y249000D02*
Y257000D01*
X381000Y89297D02*
X382453Y87844D01*
X378000Y76000D02*
Y80961D01*
X378586Y81547D01*
X379844D01*
X382453Y84156D01*
Y87844D01*
X392414Y94000D02*
X393000Y93414D01*
X390000Y94000D02*
X392414D01*
X393000Y81000D02*
Y93414D01*
X388000Y76000D02*
X393000Y81000D01*
X531202Y259298D02*
X531500Y259596D01*
Y314500D01*
X537500Y320500D01*
X525000Y259500D02*
Y284404D01*
X525750Y285154D01*
X509500Y254500D02*
X514500D01*
X499500Y93000D02*
Y104500D01*
X496500Y107500D02*
X499500Y104500D01*
X495000Y107500D02*
X496500D01*
X499500Y93000D02*
X503453Y89047D01*
X538000Y316515D02*
X543000Y321515D01*
X491500Y250000D02*
X495500D01*
X420000Y107000D02*
X423500Y103500D01*
X412000Y106664D02*
Y107000D01*
X428500D02*
X429000Y106500D01*
X433453Y104953D02*
X435500Y107000D01*
X413500Y95000D02*
Y105164D01*
X412000Y106664D02*
X413500Y105164D01*
X449500Y121000D02*
X464000D01*
X517000Y259672D02*
X519500Y262172D01*
Y283500D02*
X522500Y286500D01*
X519500Y262172D02*
Y283500D01*
X517000Y258000D02*
Y259672D01*
X484000Y260000D02*
X514500D01*
X517500Y263000D01*
X487500Y258000D02*
X517000D01*
X481000Y290297D02*
X483500Y287797D01*
X467500Y187000D02*
Y258203D01*
X473453Y264156D01*
X465000Y292000D02*
X465500D01*
X463500Y268500D02*
X465500Y270500D01*
X463500Y200000D02*
Y268500D01*
X442586Y306414D02*
X463453Y285547D01*
Y274156D02*
Y285547D01*
X460297Y271000D02*
X463453Y274156D01*
X573000Y230500D02*
Y288000D01*
X591500Y236500D02*
Y273500D01*
X596000Y278000D01*
X587500Y272500D02*
X594000Y279000D01*
X587500Y242000D02*
Y272500D01*
X581500Y269500D02*
X592000Y280000D01*
X581500Y246000D02*
Y269500D01*
X578000Y252000D02*
Y268828D01*
X541000Y322500D02*
Y329500D01*
X537500Y320500D02*
X539000D01*
X541000Y322500D01*
X543000Y321515D02*
Y332000D01*
X540000Y335000D02*
X543000Y332000D01*
X512000Y335000D02*
X540000D01*
X525750Y312750D02*
X536719Y323719D01*
Y324310D01*
X525750Y285154D02*
Y312750D01*
X539548Y330952D02*
X541000Y329500D01*
X537000Y331000D02*
X537048Y330952D01*
X539548D01*
X497000Y316000D02*
X512000Y331000D01*
X537000D01*
X481000Y290297D02*
Y321000D01*
X364000Y133500D02*
X364040Y133460D01*
Y123364D02*
Y133460D01*
X354000Y96000D02*
Y165500D01*
X413500Y218500D02*
Y232000D01*
X408000Y213000D02*
X413500Y218500D01*
X408000Y106404D02*
Y213000D01*
Y106404D02*
X409000Y105404D01*
Y92297D02*
Y105404D01*
X396532Y124469D02*
Y214469D01*
X394500Y216500D02*
X396532Y214469D01*
X402500Y92500D02*
Y220000D01*
X413453Y80453D02*
Y87844D01*
X409000Y76000D02*
X413453Y80453D01*
X409000Y92297D02*
X413453Y87844D01*
X413500Y95000D02*
X418633Y89867D01*
Y86367D02*
X419000Y86000D01*
X418633Y86367D02*
Y89867D01*
X433453Y84156D02*
Y104953D01*
X429000Y80961D02*
X429586Y81547D01*
X430844D01*
X433453Y84156D01*
X423500Y84203D02*
Y103500D01*
X420844Y81547D02*
X423500Y84203D01*
X420047Y81547D02*
X420844D01*
X419000Y80500D02*
X420047Y81547D01*
X364000Y97000D02*
Y123324D01*
X364040Y123364D01*
X394500Y216500D02*
Y226000D01*
X65500Y409000D02*
X71500Y415000D01*
X120000D02*
X132000Y403000D01*
X71500Y415000D02*
X120000D01*
X38000Y402700D02*
X44300Y409000D01*
X65500D01*
X202696Y12100D02*
X382100D01*
X37750Y18250D02*
Y33250D01*
X17250Y38750D02*
X32250D01*
X459793Y20803D02*
X473806Y34815D01*
X263000Y122000D02*
X286000Y99000D01*
X252000Y122000D02*
X263000D01*
X491000Y366000D02*
Y395000D01*
X490000Y396000D02*
X491000Y395000D01*
X486485Y382000D02*
X489000Y384515D01*
Y394080D01*
X485080Y398000D02*
X489000Y394080D01*
X484251Y396000D02*
X487000Y393251D01*
X485657Y384000D02*
X487000Y385343D01*
X482702Y389298D02*
Y391298D01*
Y389298D02*
X483000Y389000D01*
X487000Y385343D02*
Y393251D01*
X481000Y384000D02*
X485657D01*
X480000Y394000D02*
X482702Y391298D01*
X491000Y366000D02*
X500000Y357000D01*
X508000D01*
X490000Y396000D02*
Y412000D01*
X492202Y414202D02*
Y414525D01*
X493000Y415324D02*
Y416000D01*
X492202Y414525D02*
X493000Y415324D01*
X490000Y412000D02*
X492202Y414202D01*
X416000Y398000D02*
X485080D01*
X422000Y396000D02*
X484251D01*
X415414Y313000D02*
X417000Y311414D01*
X412000Y313000D02*
X415414D01*
X179000Y216243D02*
X198757Y236000D01*
X179000Y94000D02*
Y216243D01*
X379000Y359000D02*
X387000Y351000D01*
Y343000D02*
Y351000D01*
X379000Y359000D02*
Y369000D01*
X387000Y343000D02*
X391000Y339000D01*
X392000Y341000D02*
Y348000D01*
Y341000D02*
X404293Y328707D01*
X366657Y341063D02*
X372594Y347000D01*
X381000D01*
X361720Y341063D02*
X366657D01*
X391000Y315586D02*
Y339000D01*
X242778Y382000D02*
X269000D01*
X352000Y354000D02*
X388000Y390000D01*
X352000Y353000D02*
Y354000D01*
X388000Y390000D02*
X399000D01*
X404100Y472100D02*
X414000Y482000D01*
X395514Y472100D02*
X404100D01*
X427000Y311000D02*
Y328000D01*
Y311000D02*
X430000Y308000D01*
X483000Y368000D02*
X493000Y358000D01*
X479000Y372000D02*
X483000Y368000D01*
X451000Y220000D02*
Y260000D01*
X440000Y306000D02*
X453453Y292547D01*
X440000Y306000D02*
Y349000D01*
X453453Y274156D02*
Y292547D01*
X450297Y271000D02*
X453453Y274156D01*
X442586Y306414D02*
Y348586D01*
X426000Y329000D02*
X427000Y328000D01*
X426000Y329000D02*
Y329828D01*
X415828Y340000D02*
X426000Y329828D01*
X408370Y340000D02*
X415828D01*
X402000Y339000D02*
X407370D01*
X408370Y340000D01*
X417000Y330000D02*
X421000Y326000D01*
X411000Y336000D02*
X417000D01*
X423000Y307304D02*
X433453Y296851D01*
X423000Y307304D02*
Y330000D01*
X417000Y336000D02*
X423000Y330000D01*
X435453Y288547D02*
Y360453D01*
X443453Y274156D02*
Y280547D01*
X435453Y288547D02*
X443453Y280547D01*
X439844Y270547D02*
X443453Y274156D01*
X433547Y270547D02*
X439844D01*
X442586Y348586D02*
X452000Y358000D01*
X459000D01*
X440000Y349000D02*
X459000Y368000D01*
X493000Y350828D02*
Y358000D01*
Y350828D02*
X494000Y349828D01*
Y321000D02*
Y349828D01*
Y321000D02*
X498000D01*
X512000Y335000D01*
X483000Y358000D02*
X492000Y349000D01*
Y327000D02*
Y349000D01*
X489000Y319000D02*
Y324000D01*
X492000Y327000D01*
Y316000D02*
X497000D01*
X489000Y319000D02*
X492000Y316000D01*
X471000Y367000D02*
Y368000D01*
X465957Y361957D02*
X471000Y367000D01*
X465957Y350043D02*
X487000Y329000D01*
X465957Y350043D02*
Y361957D01*
X445518Y391518D02*
X454000D01*
X445000Y391000D02*
X445518Y391518D01*
X437000Y391000D02*
X444000Y384000D01*
X453000D01*
X479000Y379000D02*
X482000Y382000D01*
X479000Y372000D02*
Y379000D01*
X482000Y382000D02*
X486485D01*
X408000Y390000D02*
X416000Y398000D01*
X477000Y364000D02*
X483000Y358000D01*
X477000Y364000D02*
Y380000D01*
X481000Y384000D01*
X416000Y390000D02*
X422000Y396000D01*
X475000Y394000D02*
X480000D01*
X467000Y386000D02*
X475000Y394000D01*
X435453Y360453D02*
X465000Y390000D01*
X464000Y386000D02*
X467000D01*
X438000Y293000D02*
Y360000D01*
X464000Y386000D01*
X382100Y12100D02*
X399000Y29000D01*
X379000Y457000D02*
X383800Y452200D01*
X374000Y470000D02*
X379000Y465000D01*
Y457000D02*
Y465000D01*
X428000Y444000D02*
X441000Y431000D01*
X428000Y444000D02*
Y489000D01*
X344000Y470000D02*
X374000D01*
X336800Y464000D02*
X338000D01*
X344000Y470000D01*
X383800Y452200D02*
X384100D01*
X429000Y266000D02*
X433547Y270547D01*
X419000Y471000D02*
Y487000D01*
X299000Y490000D02*
X416000D01*
X419000Y487000D01*
X298000Y489000D02*
X299000Y490000D01*
X298000Y474212D02*
Y489000D01*
X418000Y466000D02*
Y470000D01*
X296586Y492000D02*
X425000D01*
X428000Y489000D01*
X427000Y494000D02*
X430000Y491000D01*
Y447000D02*
Y491000D01*
X441000Y436000D02*
X445000D01*
X430000Y447000D02*
X441000Y436000D01*
X432100Y448900D02*
Y492900D01*
Y448900D02*
X440000Y441000D01*
X429000Y496000D02*
X432100Y492900D01*
X409771Y469000D02*
X413000Y465771D01*
X419000Y450000D02*
Y458000D01*
X413000Y464000D02*
Y465771D01*
Y464000D02*
X419000Y458000D01*
X418000Y470000D02*
X419000Y471000D01*
X403900Y470100D02*
X405000Y469000D01*
X394685Y470100D02*
X403900D01*
X405000Y469000D02*
X409771D01*
X246000Y496000D02*
X429000D01*
X244000Y494000D02*
X246000Y496000D01*
X296400Y472612D02*
X298000Y474212D01*
X296400Y457200D02*
Y472612D01*
X296000Y478000D02*
Y491414D01*
X296586Y492000D01*
X289100Y472100D02*
X290100D01*
X284600Y467600D02*
X289100Y472100D01*
X290100D02*
X296000Y478000D01*
X388300Y476485D02*
X394685Y470100D01*
X390300Y477314D02*
X395514Y472100D01*
X388300Y476485D02*
Y484000D01*
X390300Y477314D02*
Y485700D01*
X327000Y486000D02*
X386300D01*
X388300Y484000D01*
X388000Y488000D02*
X390300Y485700D01*
X315000Y488000D02*
X388000D01*
X286614Y494000D02*
X427000D01*
Y391000D02*
X437000D01*
X418000Y382000D02*
X427000Y391000D01*
X392000Y382000D02*
X418000D01*
X379000Y369000D02*
X392000Y382000D01*
X390000Y383000D02*
Y383414D01*
X357459Y345459D02*
Y350459D01*
X390000Y383000D01*
X367000Y362828D02*
Y364000D01*
X353000Y348828D02*
X367000Y362828D01*
X353000Y345000D02*
Y348828D01*
X390000Y383414D02*
X390586Y384000D01*
X410000D02*
X416000Y390000D01*
X390586Y384000D02*
X410000D01*
X357000Y345000D02*
X357459Y345459D01*
X389000Y386000D02*
X404000D01*
X367000Y364000D02*
X389000Y386000D01*
X404000D02*
X408000Y390000D01*
X347000Y339000D02*
X353000Y345000D01*
X379000Y315000D02*
X390414D01*
X391000Y315586D01*
X374000Y310000D02*
X379000Y315000D01*
X363343Y323000D02*
X372630D01*
X376630Y319000D02*
X387000D01*
X372630Y323000D02*
X376630Y319000D01*
X363414Y310586D02*
X367243D01*
X367828Y310000D01*
X374000D01*
X344765Y291937D02*
X363414Y310586D01*
X344000Y288000D02*
X344765Y288765D01*
Y291937D01*
X170000Y257000D02*
X185000Y242000D01*
X152000Y257000D02*
X169000Y240000D01*
X227541Y248000D02*
X228541Y247000D01*
X188000Y257000D02*
X201000Y244000D01*
X433453Y274156D02*
Y296851D01*
X364000Y314000D02*
X370000D01*
X404293Y297000D02*
Y328707D01*
X379000Y327000D02*
X386918D01*
X325000Y464000D02*
Y484000D01*
X327000Y486000D01*
X313000Y464000D02*
Y486000D01*
X315000Y488000D01*
X296400Y457200D02*
X301400Y452200D01*
X288071Y459000D02*
X289871Y457200D01*
X287529Y459000D02*
X288071D01*
X284600Y461929D02*
X287529Y459000D01*
X284600Y461929D02*
Y467600D01*
X289600Y452200D02*
X289871Y452471D01*
Y457200D01*
X277300Y484687D02*
X286614Y494000D01*
X244000Y448000D02*
Y494000D01*
X272800Y468800D02*
X277300Y473300D01*
Y484687D01*
X277529Y452471D02*
X277800Y452200D01*
X277529Y452471D02*
Y457200D01*
X272800Y461929D02*
X277529Y457200D01*
X272800Y461929D02*
Y468800D01*
X215868Y403000D02*
X216161Y402707D01*
X217868Y401000D01*
X246000D02*
X261000Y386000D01*
X241200Y445200D02*
X244000Y448000D01*
X214200Y445200D02*
X241200D01*
X200000Y431000D02*
X214200Y445200D01*
X200000Y407000D02*
Y431000D01*
X190000Y473000D02*
X195309Y467691D01*
X233309D01*
X239000Y462000D01*
X42300Y422000D02*
X49800Y414500D01*
X19000Y422000D02*
X42300D01*
X60622Y384100D02*
X63222Y381500D01*
X38000Y390900D02*
X44800Y384100D01*
X63222Y381500D02*
X147250D01*
X237278Y387500D02*
X242778Y382000D01*
X44800Y384100D02*
X60622D01*
X147250Y381500D02*
X153250Y387500D01*
X237278D01*
X38000Y402700D02*
X38271Y402429D01*
X217868Y401000D02*
X246000D01*
X27000Y356000D02*
X74000D01*
X12100Y370900D02*
X27000Y356000D01*
X12100Y370900D02*
Y458687D01*
X24687Y464600D02*
X30769Y470683D01*
X18014Y464600D02*
X24687D01*
X12100Y458687D02*
X18014Y464600D01*
X32250Y38750D02*
X37750Y33250D01*
X413000Y306000D02*
X415000Y300657D01*
X409972Y296312D02*
X411000Y299000D01*
X419000Y295686D02*
Y312243D01*
X417765Y314566D02*
X419000Y312243D01*
X417765Y314566D02*
Y317073D01*
X415000Y297343D02*
Y300657D01*
X417000Y296515D02*
Y311414D01*
X398586Y283586D02*
X409972Y296312D01*
X398000Y283000D02*
X398586Y283586D01*
X417000Y317839D02*
X417765Y317073D01*
X30769Y474769D02*
X38000Y482000D01*
X30769Y470683D02*
Y474769D01*
X81000Y349000D02*
X155000D01*
X74000Y356000D02*
X81000Y349000D01*
X356000Y315657D02*
X363343Y323000D01*
X0Y0D02*
X600000D01*
Y149000D01*
X512000D02*
X600000D01*
X512000D02*
Y225000D01*
X600000D01*
Y500000D01*
X0D02*
X600000D01*
X0Y0D02*
Y500000D01*
D16*
X116083Y117594D02*
Y179406D01*
X188917Y117594D02*
Y179406D01*
X116083D02*
X188917D01*
X116083Y117594D02*
X188917D01*
D17*
X150532Y148500D02*
X154469D01*
D28*
X508000Y464000D02*
D03*
X506952Y470952D02*
D03*
X506500Y476500D02*
D03*
X592500D02*
D03*
X561500Y459500D02*
D03*
X542500D02*
D03*
X365000Y16500D02*
D03*
X376500Y8500D02*
D03*
X425500Y15000D02*
D03*
X439500Y14500D02*
D03*
X492500Y227500D02*
D03*
X496500Y150000D02*
D03*
X483000Y177500D02*
D03*
X478000Y186500D02*
D03*
X537500Y245000D02*
D03*
X505717Y316854D02*
D03*
X444000Y287000D02*
D03*
X495500Y373500D02*
D03*
X376000Y15500D02*
D03*
X386500Y9500D02*
D03*
X562000Y318000D02*
D03*
X489500Y231000D02*
D03*
X494500Y156000D02*
D03*
X233500Y144500D02*
D03*
X228500Y125000D02*
D03*
X199500Y149000D02*
D03*
X223000Y227000D02*
D03*
X481702Y454000D02*
D03*
X486000Y448000D02*
D03*
X502000Y450000D02*
D03*
X110500Y200000D02*
D03*
X94000Y192500D02*
D03*
X327000Y93500D02*
D03*
X302000Y94000D02*
D03*
X322250Y179000D02*
D03*
X334500Y97000D02*
D03*
X344547Y96000D02*
D03*
X212000Y248000D02*
D03*
X64000Y234000D02*
D03*
X301000Y339000D02*
D03*
X121000Y11500D02*
D03*
X459000Y19000D02*
D03*
X425000Y33000D02*
D03*
X10500Y117500D02*
D03*
X324000Y318000D02*
D03*
X247000Y377000D02*
D03*
X94235Y323235D02*
D03*
X476000Y477000D02*
D03*
X484000Y493500D02*
D03*
X485000Y476000D02*
D03*
X450768Y431000D02*
D03*
Y441000D02*
D03*
X193000Y7250D02*
D03*
X165000Y51000D02*
D03*
X305000Y359250D02*
D03*
X237000D02*
D03*
X262000D02*
D03*
X314000Y362500D02*
D03*
X295500Y368500D02*
D03*
X477000Y43000D02*
D03*
X186500Y58500D02*
D03*
X188500Y293500D02*
D03*
X201500Y329500D02*
D03*
X191500Y336500D02*
D03*
X211000Y330500D02*
D03*
X389000Y205000D02*
D03*
X374500Y203500D02*
D03*
X381000Y219000D02*
D03*
X260000Y270500D02*
D03*
X274000D02*
D03*
X224263Y317263D02*
D03*
X213000Y270500D02*
D03*
X364000Y334000D02*
D03*
X306500Y293500D02*
D03*
X169500Y344000D02*
D03*
X183500Y366500D02*
D03*
X267000Y270500D02*
D03*
X286000Y218000D02*
D03*
X256000Y369000D02*
D03*
X505030Y98680D02*
D03*
X502500Y136500D02*
D03*
X486500Y167500D02*
D03*
X531202Y259298D02*
D03*
X525000Y259500D02*
D03*
X511500Y246000D02*
D03*
X344500Y155000D02*
D03*
X496000Y102000D02*
D03*
X489500D02*
D03*
X495500Y250000D02*
D03*
X428500Y107000D02*
D03*
X412000D02*
D03*
X420000D02*
D03*
X435500D02*
D03*
X449500Y121000D02*
D03*
X514500Y254500D02*
D03*
X473000Y180500D02*
D03*
X467500Y187000D02*
D03*
X463500Y200000D02*
D03*
X573000Y230500D02*
D03*
X565500Y231000D02*
D03*
X591500Y236500D02*
D03*
X587500Y242000D02*
D03*
X581500Y246000D02*
D03*
X578000Y252000D02*
D03*
X335000Y150000D02*
D03*
X536719Y324310D02*
D03*
X537000Y331000D02*
D03*
X369000Y187000D02*
D03*
X359000Y176500D02*
D03*
X364000Y133500D02*
D03*
X354000Y165500D02*
D03*
X319000Y184000D02*
D03*
X451000Y220000D02*
D03*
X402500D02*
D03*
X396532Y124469D02*
D03*
X364000Y97000D02*
D03*
X354000Y96000D02*
D03*
X394500Y226000D02*
D03*
X522500Y286500D02*
D03*
X512000D02*
D03*
X431000Y57000D02*
D03*
X286000Y110000D02*
D03*
Y99000D02*
D03*
X252000Y122000D02*
D03*
X483000Y389000D02*
D03*
X269000Y382000D02*
D03*
X412000Y313000D02*
D03*
X179000Y94000D02*
D03*
X392000Y348000D02*
D03*
X365000Y345063D02*
D03*
X381000Y347000D02*
D03*
X504000Y458000D02*
D03*
X508000Y357000D02*
D03*
X493000Y416000D02*
D03*
X414500Y474500D02*
D03*
X414000Y482000D02*
D03*
X373000Y412286D02*
D03*
X430000Y308000D02*
D03*
X465000Y292000D02*
D03*
X468744Y311000D02*
D03*
X411000Y336000D02*
D03*
X417000Y330000D02*
D03*
X481000Y467000D02*
D03*
X470000Y416000D02*
D03*
X454000Y391518D02*
D03*
X453000Y384000D02*
D03*
X445000Y391000D02*
D03*
X476000Y389000D02*
D03*
X465000Y390000D02*
D03*
X488000Y340000D02*
D03*
X481000Y321000D02*
D03*
X389000Y295000D02*
D03*
X387000Y309000D02*
D03*
X445000Y436000D02*
D03*
X418000Y466000D02*
D03*
X419000Y450000D02*
D03*
X420000Y415000D02*
D03*
X399000Y390000D02*
D03*
X408000D02*
D03*
X416000D02*
D03*
X437000Y391000D02*
D03*
X344000Y288000D02*
D03*
X357000Y345000D02*
D03*
X347000Y339000D02*
D03*
X352000Y354000D02*
D03*
X347500Y347260D02*
D03*
X340000Y341000D02*
D03*
X409000Y250000D02*
D03*
X417000Y317839D02*
D03*
X402000Y339000D02*
D03*
X413000Y306000D02*
D03*
X386918Y327000D02*
D03*
X370000Y314000D02*
D03*
X411000Y299000D02*
D03*
X387000Y319000D02*
D03*
X404293Y297000D02*
D03*
X365000Y319000D02*
D03*
X368000Y327000D02*
D03*
X334500Y347063D02*
D03*
X297677Y397071D02*
D03*
X261000Y386000D02*
D03*
X190000Y473000D02*
D03*
X19000Y422000D02*
D03*
X7000Y425000D02*
D03*
X200000Y407000D02*
D03*
X401000Y418000D02*
D03*
X398000Y359000D02*
D03*
X494000Y321000D02*
D03*
X487000Y329000D02*
D03*
X394000Y61000D02*
D03*
X150000Y343000D02*
D03*
X312740Y355882D02*
D03*
X250000Y455000D02*
D03*
X196000Y435000D02*
D03*
X135000Y313000D02*
D03*
X50000Y336000D02*
D03*
X225000Y71000D02*
D03*
X172000Y108000D02*
D03*
X136000Y53000D02*
D03*
X120000Y43000D02*
D03*
X188000Y257000D02*
D03*
X170000D02*
D03*
X152000D02*
D03*
X134000D02*
D03*
X116000D02*
D03*
X98000D02*
D03*
X80000D02*
D03*
X56000Y107000D02*
D03*
X60000Y69000D02*
D03*
X274000Y61000D02*
D03*
D122*
X460557Y486250D02*
X461800D01*
X458627Y484320D02*
X460557Y486250D01*
X461800D02*
X465000Y483050D01*
X546300Y474000D02*
X550200Y470100D01*
X520464Y474000D02*
X546300D01*
X465000Y482500D02*
Y483050D01*
X458627Y421591D02*
Y484320D01*
X456127Y422627D02*
Y485355D01*
X468750Y486250D02*
X508214D01*
X456127Y485355D02*
X459522Y488750D01*
X461800D01*
X465000Y491950D01*
Y482500D02*
X468750Y486250D01*
X465000Y491950D02*
X465550D01*
X509250Y488750D02*
X521500Y476500D01*
X508214Y486250D02*
X520464Y474000D01*
X521500Y476500D02*
X544800D01*
X550200Y481900D01*
X317850Y447683D02*
Y449961D01*
X316663Y451148D02*
X317850Y449961D01*
X313200Y452200D02*
X314252Y451148D01*
X316663D01*
X455536Y418500D02*
X458627Y421591D01*
X427464Y418500D02*
X455536D01*
X334033Y431500D02*
X414464D01*
X317850Y447683D02*
X334033Y431500D01*
X414464D02*
X427464Y418500D01*
X468750Y488750D02*
X509250D01*
X465550Y491950D02*
X468750Y488750D01*
X323948Y451148D02*
X325000Y452200D01*
X321537Y451148D02*
X323948D01*
X320350Y449961D02*
X321537Y451148D01*
X415500Y434000D02*
X428500Y421000D01*
X454500D02*
X456127Y422627D01*
X428500Y421000D02*
X454500D01*
X320350Y448718D02*
X335068Y434000D01*
X320350Y448718D02*
Y449961D01*
X335068Y434000D02*
X415500D01*
D123*
X465000Y493000D02*
D03*
Y483000D02*
D03*
X161000Y295000D02*
D03*
Y285000D02*
D03*
X225000Y423000D02*
D03*
X63000Y347000D02*
D03*
X237000Y411000D02*
D03*
Y423000D02*
D03*
X215000D02*
D03*
Y411000D02*
D03*
X247000Y423000D02*
D03*
X71000Y295000D02*
D03*
X537000Y492000D02*
D03*
X527000D02*
D03*
X73000Y347000D02*
D03*
X179000Y285000D02*
D03*
Y295000D02*
D03*
X125000Y285000D02*
D03*
Y295000D02*
D03*
X107000Y285000D02*
D03*
Y295000D02*
D03*
X89000Y285000D02*
D03*
Y295000D02*
D03*
X71000Y285000D02*
D03*
X143000D02*
D03*
Y295000D02*
D03*
X459000Y368000D02*
D03*
Y358000D02*
D03*
X225000Y411000D02*
D03*
X471000Y368000D02*
D03*
Y358000D02*
D03*
X483000Y368000D02*
D03*
Y358000D02*
D03*
X247000Y411000D02*
D03*
D124*
X288000Y86000D02*
D03*
Y76000D02*
D03*
X298000Y86000D02*
D03*
Y76000D02*
D03*
X308000Y86000D02*
D03*
Y76000D02*
D03*
X318000Y86000D02*
D03*
Y76000D02*
D03*
X328000Y86000D02*
D03*
Y76000D02*
D03*
X338000Y86000D02*
D03*
Y76000D02*
D03*
X348000Y86000D02*
D03*
Y76000D02*
D03*
X358000Y86000D02*
D03*
Y76000D02*
D03*
X368000Y86000D02*
D03*
Y76000D02*
D03*
X378000Y86000D02*
D03*
Y76000D02*
D03*
X388000Y86000D02*
D03*
Y76000D02*
D03*
X398000Y86000D02*
D03*
Y76000D02*
D03*
X408000Y86000D02*
D03*
Y76000D02*
D03*
X418000Y86000D02*
D03*
Y76000D02*
D03*
X428000Y86000D02*
D03*
Y76000D02*
D03*
X438000Y86000D02*
D03*
Y76000D02*
D03*
X448000Y86000D02*
D03*
Y76000D02*
D03*
X458000Y86000D02*
D03*
Y76000D02*
D03*
X468000Y86000D02*
D03*
Y76000D02*
D03*
X478000Y86000D02*
D03*
Y76000D02*
D03*
X488000Y86000D02*
D03*
Y76000D02*
D03*
X498000Y86000D02*
D03*
Y76000D02*
D03*
X508000Y86000D02*
D03*
Y276000D02*
D03*
X498000Y266000D02*
D03*
Y276000D02*
D03*
X488000Y266000D02*
D03*
Y276000D02*
D03*
X478000Y266000D02*
D03*
Y276000D02*
D03*
X468000Y266000D02*
D03*
Y276000D02*
D03*
X458000Y266000D02*
D03*
Y276000D02*
D03*
X448000Y266000D02*
D03*
Y276000D02*
D03*
X438000Y266000D02*
D03*
Y276000D02*
D03*
X428000Y266000D02*
D03*
Y276000D02*
D03*
X418000Y266000D02*
D03*
Y276000D02*
D03*
X408000Y266000D02*
D03*
Y276000D02*
D03*
X398000Y266000D02*
D03*
Y276000D02*
D03*
X388000Y266000D02*
D03*
Y276000D02*
D03*
X378000Y266000D02*
D03*
Y276000D02*
D03*
X368000Y266000D02*
D03*
Y276000D02*
D03*
X358000Y266000D02*
D03*
Y276000D02*
D03*
X348000Y266000D02*
D03*
Y276000D02*
D03*
X338000Y266000D02*
D03*
Y276000D02*
D03*
X328000Y266000D02*
D03*
Y276000D02*
D03*
X318000Y266000D02*
D03*
Y276000D02*
D03*
X308000Y266000D02*
D03*
Y276000D02*
D03*
X298000Y266000D02*
D03*
Y276000D02*
D03*
X288000Y266000D02*
D03*
Y276000D02*
D03*
D125*
X508000Y76000D02*
D03*
Y266000D02*
D03*
D126*
X38000Y152500D02*
D03*
X49800D02*
D03*
X38000Y186000D02*
D03*
X49800D02*
D03*
X38000Y219000D02*
D03*
X49800D02*
D03*
X562000Y435900D02*
D03*
X38000Y347000D02*
D03*
X562000Y470100D02*
D03*
Y424100D02*
D03*
X550700Y357000D02*
D03*
Y389500D02*
D03*
X441000Y451200D02*
D03*
X360400Y464000D02*
D03*
X550200Y300000D02*
D03*
X49800Y390900D02*
D03*
Y379100D02*
D03*
Y402700D02*
D03*
X38000Y458400D02*
D03*
Y446600D02*
D03*
Y470200D02*
D03*
Y414500D02*
D03*
X562000Y481900D02*
D03*
X441000Y463000D02*
D03*
X38000Y315000D02*
D03*
Y379100D02*
D03*
Y390900D02*
D03*
Y402700D02*
D03*
X49800Y414500D02*
D03*
X38000Y251000D02*
D03*
X49800D02*
D03*
X38000Y283000D02*
D03*
X49800D02*
D03*
Y315000D02*
D03*
Y347000D02*
D03*
X550200Y435900D02*
D03*
Y424100D02*
D03*
X562500Y357000D02*
D03*
Y389500D02*
D03*
X305900Y38000D02*
D03*
X294100D02*
D03*
X305900Y49800D02*
D03*
X294100D02*
D03*
X550200Y50000D02*
D03*
X562000D02*
D03*
X49800Y49000D02*
D03*
X38000D02*
D03*
X76000Y450200D02*
D03*
Y462000D02*
D03*
X49800Y458400D02*
D03*
Y446600D02*
D03*
X38000Y482000D02*
D03*
X49800Y470200D02*
D03*
Y482000D02*
D03*
X562000Y300000D02*
D03*
X550200Y481900D02*
D03*
Y470100D02*
D03*
X215400Y450200D02*
D03*
X203600D02*
D03*
Y462000D02*
D03*
X215400D02*
D03*
X239000D02*
D03*
X227200D02*
D03*
Y450200D02*
D03*
X239000D02*
D03*
X407700Y452200D02*
D03*
X395900D02*
D03*
Y464000D02*
D03*
X407700D02*
D03*
X289600Y452200D02*
D03*
X277800D02*
D03*
Y464000D02*
D03*
X289600D02*
D03*
X384100D02*
D03*
X301400D02*
D03*
Y452200D02*
D03*
X313200D02*
D03*
X313000Y464000D02*
D03*
X372200D02*
D03*
X336800D02*
D03*
X348600D02*
D03*
X325000D02*
D03*
X360400Y452200D02*
D03*
X325000D02*
D03*
X348600D02*
D03*
X336800D02*
D03*
X372200D02*
D03*
X384100D02*
D03*
D127*
X21000Y152500D02*
D03*
Y186000D02*
D03*
Y219000D02*
D03*
Y387500D02*
D03*
Y406000D02*
D03*
Y251000D02*
D03*
Y283000D02*
D03*
Y315000D02*
D03*
Y347000D02*
D03*
X579000Y430000D02*
D03*
X579500Y357000D02*
D03*
Y389500D02*
D03*
X300000Y21000D02*
D03*
X579000Y50000D02*
D03*
X21000Y49000D02*
D03*
X76000Y479000D02*
D03*
X21000Y455000D02*
D03*
Y473500D02*
D03*
X579000Y300000D02*
D03*
Y476000D02*
D03*
X441000Y480000D02*
D03*
X212000Y479000D02*
D03*
X230500D02*
D03*
X286200Y481000D02*
D03*
X399200D02*
D03*
D128*
X153000Y436000D02*
D03*
Y423480D02*
D03*
X123500Y436000D02*
D03*
Y423480D02*
D03*
D129*
X212000Y25000D02*
D03*
D130*
X104799Y487693D02*
D03*
X171701D02*
D03*
D131*
X580000Y20000D02*
D03*
X20000Y18000D02*
D03*
X99500Y399500D02*
D03*
X505000Y404000D02*
D03*
D132*
X196000Y395500D02*
D03*
X235000D02*
D03*
Y382000D02*
D03*
X196000D02*
D03*
X79000Y426000D02*
D03*
Y387000D02*
D03*
X65500D02*
D03*
Y426000D02*
D03*
D146*
X585201Y382213D02*
D03*
X572414Y395414D02*
D03*
M02*
