G04*
G04 #@! TF.GenerationSoftware,Altium Limited,Altium Designer,22.9.1 (49)*
G04*
G04 Layer_Color=8388736*
%FSLAX25Y25*%
%MOIN*%
G70*
G04*
G04 #@! TF.SameCoordinates,192EAC5F-EDB1-4AE9-8E86-1F7271081D8D*
G04*
G04*
G04 #@! TF.FilePolarity,Negative*
G04*
G01*
G75*
%ADD11C,0.01000*%
%ADD14C,0.00787*%
%ADD18C,0.00394*%
%ADD19C,0.00197*%
%ADD32R,0.05926X0.01791*%
G04:AMPARAMS|DCode=33|XSize=59.26mil|YSize=17.91mil|CornerRadius=8.96mil|HoleSize=0mil|Usage=FLASHONLY|Rotation=0.000|XOffset=0mil|YOffset=0mil|HoleType=Round|Shape=RoundedRectangle|*
%AMROUNDEDRECTD33*
21,1,0.05926,0.00000,0,0,0.0*
21,1,0.04135,0.01791,0,0,0.0*
1,1,0.01791,0.02068,0.00000*
1,1,0.01791,-0.02068,0.00000*
1,1,0.01791,-0.02068,0.00000*
1,1,0.01791,0.02068,0.00000*
%
%ADD33ROUNDEDRECTD33*%
%ADD38R,0.09264X0.02449*%
%ADD54R,0.07690X0.06509*%
%ADD55R,0.04343X0.06115*%
%ADD56R,0.09698X0.11824*%
%ADD57R,0.04934X0.06312*%
%ADD58R,0.06115X0.04343*%
%ADD59R,0.04343X0.03950*%
%ADD60R,0.06706X0.03162*%
%ADD61O,0.08674X0.03556*%
%ADD62R,0.04383X0.05603*%
%ADD63R,0.05603X0.04383*%
%ADD64R,0.04343X0.04540*%
%ADD65R,0.13595X0.10642*%
%ADD66C,0.03800*%
%ADD67R,0.07099X0.08871*%
%ADD68R,0.14580X0.20879*%
%ADD69R,0.09055X0.12205*%
%ADD70R,0.06509X0.07887*%
%ADD71O,0.03556X0.08674*%
%ADD72R,0.19304X0.13398*%
%ADD73R,0.15958X0.25997*%
%ADD74R,0.04540X0.04343*%
%ADD75R,0.03202X0.02178*%
%ADD76R,0.02178X0.03202*%
%ADD77R,0.06312X0.04934*%
%ADD78R,0.11824X0.09698*%
%ADD79R,0.06706X0.02572*%
%ADD80R,0.06509X0.03162*%
%ADD81R,0.20485X0.20485*%
%ADD82R,0.07887X0.06509*%
%ADD83R,0.06509X0.07690*%
%ADD84R,0.10642X0.17139*%
%ADD85C,0.04016*%
%ADD86C,0.06181*%
%ADD87R,0.06181X0.06181*%
%ADD88C,0.09488*%
%ADD89C,0.17729*%
%ADD90C,0.07887*%
%ADD91R,0.06824X0.06824*%
%ADD92C,0.06824*%
%ADD93C,0.13398*%
%ADD94C,0.08800*%
%ADD95C,0.06584*%
%ADD96C,0.12057*%
%ADD97C,0.04616*%
%ADD98C,0.07800*%
%ADD99C,0.10958*%
%ADD100C,0.15800*%
%ADD101R,0.06800X0.06800*%
%ADD102R,0.06181X0.06181*%
D11*
Y500500D02*
X675000D01*
Y39000D02*
Y500500D01*
X0Y39000D02*
X675000D01*
X0D02*
Y500500D01*
D14*
X635858Y430634D02*
X673142D01*
Y472366D01*
X635858D02*
X673142D01*
X635858Y430634D02*
Y472366D01*
X193887Y387032D02*
X210447D01*
Y373646D02*
Y387032D01*
X193887Y373646D02*
X210447D01*
X193887D02*
Y387032D01*
X636819Y69728D02*
Y111461D01*
X674102D01*
Y69728D02*
Y111461D01*
X636819Y69728D02*
X674102D01*
X2898Y174461D02*
X40181D01*
X2898Y144539D02*
Y174461D01*
Y144539D02*
X40181D01*
Y174461D01*
X219887Y396028D02*
Y409413D01*
Y396028D02*
X236447D01*
Y409413D01*
X219887D02*
X236447D01*
X149720Y373807D02*
Y387193D01*
Y373807D02*
X166280D01*
Y387193D01*
X149720D02*
X166280D01*
X2898Y205961D02*
X40181D01*
X2898Y176039D02*
Y205961D01*
Y176039D02*
X40181D01*
Y205961D01*
X2898Y237461D02*
X40181D01*
X2898Y207539D02*
Y237461D01*
Y207539D02*
X40181D01*
Y237461D01*
X2898Y268961D02*
X40181D01*
X2898Y239039D02*
Y268961D01*
Y239039D02*
X40181D01*
Y268961D01*
X2618Y402650D02*
X39902D01*
X2618Y372728D02*
Y402650D01*
Y372728D02*
X39902D01*
Y402650D01*
X635831Y398228D02*
X673114D01*
Y428150D01*
X635831D02*
X673114D01*
X635831Y398228D02*
Y428150D01*
X139789Y43398D02*
Y80681D01*
Y43398D02*
X169711D01*
Y80681D01*
X139789D02*
X169711D01*
X71289Y43398D02*
Y80681D01*
Y43398D02*
X101211D01*
Y80681D01*
X71289D02*
X101211D01*
X174039Y43398D02*
Y80681D01*
Y43398D02*
X203961D01*
Y80681D01*
X174039D02*
X203961D01*
X37039Y79681D02*
X66961D01*
Y42398D02*
Y79681D01*
X37039Y42398D02*
X66961D01*
X37039D02*
Y79681D01*
X105539Y43398D02*
Y80681D01*
Y43398D02*
X135461D01*
Y80681D01*
X105539D02*
X135461D01*
X2898Y300461D02*
X40181D01*
X2898Y270539D02*
Y300461D01*
Y270539D02*
X40181D01*
Y300461D01*
D18*
X218000Y192532D02*
Y196468D01*
X216032Y194500D02*
X219969D01*
X220532Y323000D02*
X224468D01*
X222500Y321031D02*
Y324969D01*
D19*
X245138Y296031D02*
Y349969D01*
X199862Y296031D02*
Y349969D01*
X245138D01*
X199862Y296031D02*
X245138D01*
D32*
X197835Y384177D02*
D03*
X223835Y406559D02*
D03*
X153667Y384339D02*
D03*
D33*
X197835Y381618D02*
D03*
Y379059D02*
D03*
Y376500D02*
D03*
X206500D02*
D03*
Y379059D02*
D03*
Y381618D02*
D03*
Y384177D02*
D03*
X232500Y406559D02*
D03*
Y404000D02*
D03*
Y401441D02*
D03*
Y398882D02*
D03*
X223835D02*
D03*
Y401441D02*
D03*
Y404000D02*
D03*
X162333Y384339D02*
D03*
Y381780D02*
D03*
Y379221D02*
D03*
Y376661D02*
D03*
X153667D02*
D03*
Y379221D02*
D03*
Y381780D02*
D03*
D38*
X94750Y328500D02*
D03*
Y333500D02*
D03*
Y338500D02*
D03*
Y343500D02*
D03*
X75250D02*
D03*
Y338500D02*
D03*
Y333500D02*
D03*
Y328500D02*
D03*
D54*
X582000Y467988D02*
D03*
Y479012D02*
D03*
X226500Y455512D02*
D03*
Y444488D02*
D03*
X204500Y443988D02*
D03*
Y455012D02*
D03*
X209000Y411512D02*
D03*
Y400488D02*
D03*
X198000D02*
D03*
Y411512D02*
D03*
X172000Y396988D02*
D03*
Y408012D02*
D03*
X158500Y396988D02*
D03*
Y408012D02*
D03*
X143000Y396988D02*
D03*
Y408012D02*
D03*
X50000Y424512D02*
D03*
Y413488D02*
D03*
X174000Y205512D02*
D03*
Y194488D02*
D03*
X92000Y205512D02*
D03*
Y194488D02*
D03*
X70000Y205512D02*
D03*
Y194488D02*
D03*
X50500D02*
D03*
Y205512D02*
D03*
X134500D02*
D03*
Y194488D02*
D03*
X595000Y479512D02*
D03*
Y468488D02*
D03*
X154000Y205512D02*
D03*
Y194488D02*
D03*
X114000Y205512D02*
D03*
Y194488D02*
D03*
X59000Y364012D02*
D03*
Y352988D02*
D03*
D55*
X627437Y429000D02*
D03*
X619563D02*
D03*
X52437Y124000D02*
D03*
X44563D02*
D03*
X149063D02*
D03*
X156937D02*
D03*
X181563D02*
D03*
X189437D02*
D03*
X181563Y116000D02*
D03*
X189437D02*
D03*
X113000Y124000D02*
D03*
X120874D02*
D03*
X80563Y116000D02*
D03*
X88437D02*
D03*
X44563D02*
D03*
X52437D02*
D03*
X149063D02*
D03*
X156937D02*
D03*
X113063D02*
D03*
X120937D02*
D03*
X80563Y124000D02*
D03*
X88437D02*
D03*
D56*
X624000Y406201D02*
D03*
Y418799D02*
D03*
X73000Y157799D02*
D03*
Y145201D02*
D03*
X328000Y95701D02*
D03*
Y108299D02*
D03*
X309000Y95701D02*
D03*
Y108299D02*
D03*
D57*
X609740Y414000D02*
D03*
X602260D02*
D03*
X519240Y491500D02*
D03*
X511760D02*
D03*
X56740Y337000D02*
D03*
X49260D02*
D03*
X56740Y327000D02*
D03*
X49260D02*
D03*
X57740Y160500D02*
D03*
X50260D02*
D03*
X119260Y139500D02*
D03*
X126740D02*
D03*
X265760Y75500D02*
D03*
X273240D02*
D03*
X265760Y66500D02*
D03*
X273240D02*
D03*
X265760Y56500D02*
D03*
X273240D02*
D03*
X119260Y148000D02*
D03*
X126740D02*
D03*
X345240Y82500D02*
D03*
X337760D02*
D03*
X576260Y489500D02*
D03*
X583740D02*
D03*
X265760Y85000D02*
D03*
X273240D02*
D03*
D58*
X608000Y398063D02*
D03*
Y405937D02*
D03*
X599000Y398126D02*
D03*
Y406000D02*
D03*
X614083Y443961D02*
D03*
Y451835D02*
D03*
X603083Y443961D02*
D03*
Y451835D02*
D03*
X592083D02*
D03*
Y443961D02*
D03*
X581083D02*
D03*
Y451835D02*
D03*
X592083Y427961D02*
D03*
Y435835D02*
D03*
X581083Y427961D02*
D03*
Y435835D02*
D03*
X548000Y444437D02*
D03*
Y436563D02*
D03*
X537500Y443937D02*
D03*
Y436063D02*
D03*
X192500Y456000D02*
D03*
Y448126D02*
D03*
X184000Y448063D02*
D03*
Y455937D02*
D03*
X213000Y429374D02*
D03*
Y421500D02*
D03*
X222000Y421563D02*
D03*
Y429437D02*
D03*
X203500Y422063D02*
D03*
Y429937D02*
D03*
X192500Y421563D02*
D03*
Y429437D02*
D03*
X183500D02*
D03*
Y421563D02*
D03*
X253500Y398563D02*
D03*
Y406437D02*
D03*
X241500Y398563D02*
D03*
Y406437D02*
D03*
X253000Y415063D02*
D03*
Y422937D02*
D03*
X243000Y414563D02*
D03*
Y422437D02*
D03*
X232000Y376563D02*
D03*
Y384437D02*
D03*
X223000Y376563D02*
D03*
Y384437D02*
D03*
X187000Y376063D02*
D03*
Y383937D02*
D03*
X177000Y376063D02*
D03*
Y383937D02*
D03*
X184500Y203437D02*
D03*
Y195563D02*
D03*
Y179437D02*
D03*
Y171563D02*
D03*
X102500Y171063D02*
D03*
Y178937D02*
D03*
X59000Y152937D02*
D03*
Y145063D02*
D03*
X49500D02*
D03*
Y152937D02*
D03*
X85500Y151563D02*
D03*
Y159437D02*
D03*
X161000Y154063D02*
D03*
Y161937D02*
D03*
X152000Y154063D02*
D03*
Y161937D02*
D03*
X144000Y154063D02*
D03*
Y161937D02*
D03*
X136000D02*
D03*
Y154063D02*
D03*
X99500Y139063D02*
D03*
Y146937D02*
D03*
X110000D02*
D03*
Y139063D02*
D03*
X71500Y99437D02*
D03*
Y91563D02*
D03*
X107000D02*
D03*
Y99437D02*
D03*
X206000Y91563D02*
D03*
Y99437D02*
D03*
X253500Y89063D02*
D03*
Y96937D02*
D03*
X243500D02*
D03*
Y89063D02*
D03*
X233000Y96437D02*
D03*
Y88563D02*
D03*
X254000Y67063D02*
D03*
Y74937D02*
D03*
X242667Y67063D02*
D03*
Y74937D02*
D03*
X242500Y59937D02*
D03*
Y52063D02*
D03*
X231000Y51563D02*
D03*
Y59437D02*
D03*
X220000Y51563D02*
D03*
Y59437D02*
D03*
X242000Y381563D02*
D03*
Y389437D02*
D03*
X209000Y366937D02*
D03*
Y359063D02*
D03*
X218000Y366937D02*
D03*
Y359063D02*
D03*
X102500Y195563D02*
D03*
Y203437D02*
D03*
X81000Y170563D02*
D03*
Y178437D02*
D03*
Y195563D02*
D03*
Y203437D02*
D03*
X60000Y178937D02*
D03*
Y171063D02*
D03*
X60500Y203437D02*
D03*
Y195563D02*
D03*
X144000Y171063D02*
D03*
Y178937D02*
D03*
Y195563D02*
D03*
Y203437D02*
D03*
X220000Y67063D02*
D03*
Y74937D02*
D03*
X318500Y450437D02*
D03*
Y442563D02*
D03*
X337500Y442500D02*
D03*
Y450374D02*
D03*
X328000Y442563D02*
D03*
Y450437D02*
D03*
X234000Y422937D02*
D03*
Y415063D02*
D03*
X164000Y171063D02*
D03*
Y178937D02*
D03*
Y195563D02*
D03*
Y203437D02*
D03*
X124500Y170563D02*
D03*
Y178437D02*
D03*
X124000Y195563D02*
D03*
Y203437D02*
D03*
X48000Y364937D02*
D03*
Y357063D02*
D03*
X173500Y91063D02*
D03*
Y98937D02*
D03*
X140500Y91563D02*
D03*
Y99437D02*
D03*
X231333Y74937D02*
D03*
Y67063D02*
D03*
D59*
X564063Y442000D02*
D03*
X571937Y445740D02*
D03*
Y438260D02*
D03*
X144937Y323760D02*
D03*
Y331240D02*
D03*
X137063Y327500D02*
D03*
X171063Y244500D02*
D03*
X178937Y248240D02*
D03*
Y240760D02*
D03*
X126063Y245500D02*
D03*
X133937Y249240D02*
D03*
Y241760D02*
D03*
X91437D02*
D03*
Y249240D02*
D03*
X83563Y245500D02*
D03*
X493937Y449500D02*
D03*
X486063Y445760D02*
D03*
Y453240D02*
D03*
X224937Y92500D02*
D03*
X217063Y88760D02*
D03*
Y96240D02*
D03*
D60*
X568157Y457500D02*
D03*
Y462500D02*
D03*
Y467500D02*
D03*
Y472500D02*
D03*
Y477500D02*
D03*
Y482500D02*
D03*
Y487500D02*
D03*
Y492500D02*
D03*
X527843Y457500D02*
D03*
Y462500D02*
D03*
Y467500D02*
D03*
Y472500D02*
D03*
Y477500D02*
D03*
Y482500D02*
D03*
Y487500D02*
D03*
Y492500D02*
D03*
D61*
X482189Y435461D02*
D03*
Y422862D02*
D03*
Y414201D02*
D03*
Y405539D02*
D03*
X505811Y435461D02*
D03*
X505811Y422862D02*
D03*
Y414201D02*
D03*
Y405539D02*
D03*
X465811D02*
D03*
Y418138D02*
D03*
Y426799D02*
D03*
Y435461D02*
D03*
X442189Y405539D02*
D03*
X442189Y418138D02*
D03*
Y426799D02*
D03*
Y435461D02*
D03*
D62*
X449043Y447500D02*
D03*
X461957D02*
D03*
D63*
X426000Y418043D02*
D03*
Y430957D02*
D03*
X108500Y249957D02*
D03*
Y237043D02*
D03*
X67000Y250457D02*
D03*
Y237543D02*
D03*
X153000Y250457D02*
D03*
Y237543D02*
D03*
X146000Y299543D02*
D03*
Y312457D02*
D03*
D64*
X235449Y456000D02*
D03*
X241551D02*
D03*
X235449Y446500D02*
D03*
X241551D02*
D03*
X211449Y455500D02*
D03*
X217551D02*
D03*
X211449Y446000D02*
D03*
X217551D02*
D03*
D65*
X119000Y339512D02*
D03*
Y313488D02*
D03*
D66*
X81000Y435000D02*
D03*
X35500Y483000D02*
D03*
X66500Y315500D02*
D03*
X213000Y435500D02*
D03*
X79000Y459000D02*
D03*
X213000Y198500D02*
D03*
X222000Y192000D02*
D03*
X565000Y432500D02*
D03*
X562000Y437500D02*
D03*
X583000Y447500D02*
D03*
X590000D02*
D03*
X270000Y394500D02*
D03*
X269500Y410000D02*
D03*
X228000Y361000D02*
D03*
X202500Y393500D02*
D03*
X194500D02*
D03*
X48000Y346500D02*
D03*
X135000Y306500D02*
D03*
X68500Y303500D02*
D03*
X50500Y292500D02*
D03*
X144000Y157665D02*
D03*
X42500Y141000D02*
D03*
X86500Y140500D02*
D03*
X70000Y133500D02*
D03*
X92000Y109000D02*
D03*
X104500Y132000D02*
D03*
X124000Y109000D02*
D03*
X246000Y102500D02*
D03*
X253500Y80000D02*
D03*
X243000Y79500D02*
D03*
X238000Y44000D02*
D03*
X323000Y85000D02*
D03*
X489000Y450000D02*
D03*
X575000Y449000D02*
D03*
X472500Y375500D02*
D03*
X489500Y401000D02*
D03*
X441500Y448500D02*
D03*
X481500Y479500D02*
D03*
X491000Y445000D02*
D03*
X502000Y486500D02*
D03*
X519240Y484740D02*
D03*
X586500Y458500D02*
D03*
X656500Y202000D02*
D03*
X663000D02*
D03*
X40000Y168000D02*
D03*
Y173000D02*
D03*
X66000Y179000D02*
D03*
X181500Y158500D02*
D03*
X45000Y163000D02*
D03*
X34500Y187500D02*
D03*
X651500Y387000D02*
D03*
X542500Y391000D02*
D03*
X573000D02*
D03*
X581500Y439500D02*
D03*
X581000Y424000D02*
D03*
X526000Y435000D02*
D03*
X573000Y434500D02*
D03*
X598000Y447500D02*
D03*
X592083Y439417D02*
D03*
X610000Y462000D02*
D03*
X538000Y431000D02*
D03*
X592500Y431563D02*
D03*
X539500Y452000D02*
D03*
X562000D02*
D03*
X576000Y455000D02*
D03*
X602500Y455500D02*
D03*
X614500Y435500D02*
D03*
X583000Y418500D02*
D03*
Y413000D02*
D03*
X535500Y397500D02*
D03*
X514000Y387000D02*
D03*
X623500Y392000D02*
D03*
X612000Y391500D02*
D03*
X513500Y403500D02*
D03*
X466000Y401000D02*
D03*
X400000Y407500D02*
D03*
X409000Y364000D02*
D03*
X520500Y410000D02*
D03*
X393500Y416000D02*
D03*
X575000Y418673D02*
D03*
X528000Y451500D02*
D03*
X548500Y487000D02*
D03*
X563084Y331500D02*
D03*
X413000Y330500D02*
D03*
X303000Y324750D02*
D03*
X423000Y325000D02*
D03*
X372500Y358500D02*
D03*
X382481Y425000D02*
D03*
X612500Y363000D02*
D03*
X582500Y356500D02*
D03*
X623500Y357500D02*
D03*
X479000Y445500D02*
D03*
X506000Y445000D02*
D03*
X426047Y398047D02*
D03*
X442095Y398095D02*
D03*
X380000Y412500D02*
D03*
X504500Y491500D02*
D03*
X560000Y465500D02*
D03*
X555000Y461500D02*
D03*
X342500Y415500D02*
D03*
X248500Y421500D02*
D03*
X337500Y457500D02*
D03*
X380000D02*
D03*
X586500Y406000D02*
D03*
X406500Y453500D02*
D03*
X400500Y431000D02*
D03*
X374500D02*
D03*
X318500Y468500D02*
D03*
X497000Y495500D02*
D03*
X530000Y407000D02*
D03*
X455500Y444500D02*
D03*
X411500D02*
D03*
X406500Y407000D02*
D03*
X235500Y465500D02*
D03*
X366500Y426500D02*
D03*
X222000D02*
D03*
X252500Y443500D02*
D03*
X161750Y434750D02*
D03*
X160000Y470000D02*
D03*
X164500Y464500D02*
D03*
X262500Y497000D02*
D03*
X182000Y434500D02*
D03*
X155500Y479500D02*
D03*
X247500Y409500D02*
D03*
X254500Y379000D02*
D03*
X241500Y394000D02*
D03*
X209000Y405500D02*
D03*
X212000Y373500D02*
D03*
Y379000D02*
D03*
X223000Y390000D02*
D03*
X243000Y426500D02*
D03*
X279500Y426000D02*
D03*
X306000Y429500D02*
D03*
X288000Y413000D02*
D03*
X306000Y400500D02*
D03*
X280000Y387000D02*
D03*
X215757Y402500D02*
D03*
X179500Y397000D02*
D03*
X187000Y388500D02*
D03*
X180500Y417000D02*
D03*
X198621Y420879D02*
D03*
X222500Y417500D02*
D03*
X208000Y393000D02*
D03*
X231500Y393500D02*
D03*
X253000Y374000D02*
D03*
X292000Y350000D02*
D03*
X214500D02*
D03*
X248000Y403000D02*
D03*
X298000Y403500D02*
D03*
X431500Y320500D02*
D03*
X190500Y321000D02*
D03*
X198500Y348500D02*
D03*
X174000Y360000D02*
D03*
X288000Y300000D02*
D03*
X216000Y413000D02*
D03*
X161500Y390500D02*
D03*
X189000Y439500D02*
D03*
X182500Y409000D02*
D03*
X179500Y339500D02*
D03*
X198000Y370500D02*
D03*
X270500Y329500D02*
D03*
X278000Y333500D02*
D03*
Y379500D02*
D03*
X270500Y374500D02*
D03*
X170000Y379000D02*
D03*
Y374000D02*
D03*
X572500Y375500D02*
D03*
X153500Y371000D02*
D03*
X164500Y314000D02*
D03*
X151500Y331500D02*
D03*
X332750Y297250D02*
D03*
X190500Y294500D02*
D03*
X141000D02*
D03*
X237500Y309500D02*
D03*
X109000Y310000D02*
D03*
X78500Y310500D02*
D03*
X212000Y300000D02*
D03*
X151000Y261000D02*
D03*
X184750Y208750D02*
D03*
X289500Y243000D02*
D03*
Y139000D02*
D03*
X199294Y198881D02*
D03*
X203000Y260500D02*
D03*
X207000Y141500D02*
D03*
X578500Y243500D02*
D03*
X140500Y241500D02*
D03*
X573000Y81500D02*
D03*
X185500Y240500D02*
D03*
X208000D02*
D03*
X210000Y191500D02*
D03*
X256000Y142000D02*
D03*
X266000Y95500D02*
D03*
X256500Y109000D02*
D03*
X266000Y112000D02*
D03*
X227500Y87500D02*
D03*
X214083Y81500D02*
D03*
X206000Y105500D02*
D03*
X216500D02*
D03*
X204000Y112000D02*
D03*
X372500Y106000D02*
D03*
X244500Y113000D02*
D03*
X543000Y103000D02*
D03*
X210000Y49500D02*
D03*
X413000Y49000D02*
D03*
X265000Y125500D02*
D03*
X260000Y122500D02*
D03*
X252500Y136500D02*
D03*
X623500Y103000D02*
D03*
X512500Y119000D02*
D03*
X468757Y151750D02*
D03*
X492000Y151500D02*
D03*
X340000Y95500D02*
D03*
X295500Y95000D02*
D03*
X442500Y99500D02*
D03*
X503000Y148500D02*
D03*
X187500Y185500D02*
D03*
X190500Y191500D02*
D03*
X196000Y195500D02*
D03*
X229000Y183000D02*
D03*
X231500Y176000D02*
D03*
X183000Y145500D02*
D03*
X92500Y255000D02*
D03*
X172500Y105000D02*
D03*
X347500Y193000D02*
D03*
X482500Y193500D02*
D03*
X421000Y200500D02*
D03*
X338000Y200000D02*
D03*
X52000Y130500D02*
D03*
X137500Y280000D02*
D03*
X86500Y232000D02*
D03*
X175500D02*
D03*
X130000D02*
D03*
X153500Y229500D02*
D03*
X108500D02*
D03*
X67000D02*
D03*
X220000Y81500D02*
D03*
X115000Y133500D02*
D03*
X422000Y74500D02*
D03*
X232500Y82000D02*
D03*
X165000Y148500D02*
D03*
X338000Y158000D02*
D03*
X249500Y61500D02*
D03*
X253500Y52000D02*
D03*
X624000Y397500D02*
D03*
X135000Y123500D02*
D03*
X347500Y163000D02*
D03*
X90500Y295500D02*
D03*
X481500Y58500D02*
D03*
X464750Y68250D02*
D03*
X189500Y109000D02*
D03*
X157000D02*
D03*
X52500D02*
D03*
X633500Y52000D02*
D03*
X643500Y46000D02*
D03*
X522000Y154500D02*
D03*
X169500Y179000D02*
D03*
X149500D02*
D03*
X130500Y178500D02*
D03*
X108000Y179000D02*
D03*
X87000D02*
D03*
X322500Y336500D02*
D03*
X283500Y353500D02*
D03*
X244500Y359000D02*
D03*
X233500Y428500D02*
D03*
X164000Y450500D02*
D03*
X221500D02*
D03*
X157000Y459500D02*
D03*
X106500Y347000D02*
D03*
X101000Y474000D02*
D03*
X590000Y494500D02*
D03*
D67*
X61500Y419500D02*
D03*
X77051D02*
D03*
D68*
X51941Y389500D02*
D03*
X82059D02*
D03*
D69*
X85000Y336000D02*
D03*
D70*
X46988Y315500D02*
D03*
X58012D02*
D03*
X46988Y303500D02*
D03*
X58012D02*
D03*
X89512Y317000D02*
D03*
X78488D02*
D03*
D71*
X140961Y287311D02*
D03*
X132299D02*
D03*
X123638D02*
D03*
X111039Y287311D02*
D03*
X140961Y263689D02*
D03*
X132299D02*
D03*
X123638D02*
D03*
X111039D02*
D03*
X160539D02*
D03*
X173138D02*
D03*
X181799D02*
D03*
X190461D02*
D03*
X160539Y287311D02*
D03*
X173138Y287311D02*
D03*
X181799D02*
D03*
X190461D02*
D03*
X61039Y263689D02*
D03*
X73638D02*
D03*
X82299D02*
D03*
X90961D02*
D03*
X61039Y287311D02*
D03*
X73638Y287311D02*
D03*
X82299D02*
D03*
X90961D02*
D03*
X190461Y329311D02*
D03*
X181799D02*
D03*
X173138D02*
D03*
X160539Y329311D02*
D03*
X190461Y305689D02*
D03*
X181799D02*
D03*
X173138D02*
D03*
X160539D02*
D03*
D72*
X223500Y283000D02*
D03*
Y249142D02*
D03*
D73*
X218000Y214382D02*
D03*
Y174618D02*
D03*
D74*
X176000Y172949D02*
D03*
Y179051D02*
D03*
X155000Y171949D02*
D03*
Y178051D02*
D03*
X135500Y171949D02*
D03*
Y178051D02*
D03*
X114000Y171949D02*
D03*
Y178051D02*
D03*
X93000Y171949D02*
D03*
Y178051D02*
D03*
X71500Y171949D02*
D03*
Y178051D02*
D03*
X50000Y172449D02*
D03*
Y178551D02*
D03*
D75*
X118933Y156047D02*
D03*
Y158016D02*
D03*
Y159984D02*
D03*
Y161953D02*
D03*
X128067Y156047D02*
D03*
Y158016D02*
D03*
Y159984D02*
D03*
Y161953D02*
D03*
D76*
X125469Y155417D02*
D03*
X123500D02*
D03*
X121531D02*
D03*
X125469Y162583D02*
D03*
X123500D02*
D03*
X121531D02*
D03*
D77*
X62000Y123740D02*
D03*
Y116260D02*
D03*
X95500D02*
D03*
Y123740D02*
D03*
X128000Y116260D02*
D03*
Y123740D02*
D03*
X164500Y116260D02*
D03*
Y123740D02*
D03*
X196500Y116260D02*
D03*
Y123740D02*
D03*
D78*
X60299Y95500D02*
D03*
X47701D02*
D03*
X95299Y96000D02*
D03*
X82701D02*
D03*
X130299Y95500D02*
D03*
X117701D02*
D03*
X163799D02*
D03*
X151201D02*
D03*
X195799D02*
D03*
X183201D02*
D03*
D79*
X213083Y144075D02*
D03*
Y141516D02*
D03*
Y138957D02*
D03*
Y136398D02*
D03*
Y133839D02*
D03*
Y131280D02*
D03*
Y128720D02*
D03*
Y126161D02*
D03*
Y123602D02*
D03*
Y121043D02*
D03*
Y118484D02*
D03*
Y115925D02*
D03*
X235917Y144075D02*
D03*
Y141516D02*
D03*
Y138957D02*
D03*
Y136398D02*
D03*
Y133839D02*
D03*
Y131280D02*
D03*
Y128720D02*
D03*
Y126161D02*
D03*
Y123602D02*
D03*
Y121043D02*
D03*
Y118484D02*
D03*
Y115925D02*
D03*
X544583Y428575D02*
D03*
Y426016D02*
D03*
Y423457D02*
D03*
Y420898D02*
D03*
Y418339D02*
D03*
Y415779D02*
D03*
Y413221D02*
D03*
Y410661D02*
D03*
Y408102D02*
D03*
Y405543D02*
D03*
Y402984D02*
D03*
Y400425D02*
D03*
X567417Y428575D02*
D03*
Y426016D02*
D03*
Y423457D02*
D03*
Y420898D02*
D03*
Y418339D02*
D03*
Y415779D02*
D03*
Y413221D02*
D03*
Y410661D02*
D03*
Y408102D02*
D03*
Y405543D02*
D03*
Y402984D02*
D03*
Y400425D02*
D03*
D80*
X328783Y50000D02*
D03*
Y55000D02*
D03*
Y60000D02*
D03*
Y65000D02*
D03*
Y70000D02*
D03*
Y75000D02*
D03*
Y80000D02*
D03*
Y85000D02*
D03*
X289216Y50000D02*
D03*
Y55000D02*
D03*
Y60000D02*
D03*
Y65000D02*
D03*
Y70000D02*
D03*
Y75000D02*
D03*
Y80000D02*
D03*
Y85000D02*
D03*
D81*
X366500Y413071D02*
D03*
Y446929D02*
D03*
X111500Y367071D02*
D03*
Y400929D02*
D03*
D82*
X252500Y459512D02*
D03*
Y448488D02*
D03*
D83*
X411512Y420000D02*
D03*
X400488D02*
D03*
D84*
X222500Y339831D02*
D03*
Y306169D02*
D03*
D85*
X646528Y433783D02*
D03*
Y469216D02*
D03*
X647488Y108311D02*
D03*
Y72878D02*
D03*
X29512Y147689D02*
D03*
Y171311D02*
D03*
Y179189D02*
D03*
Y202811D02*
D03*
Y210689D02*
D03*
Y234311D02*
D03*
Y242189D02*
D03*
Y265811D02*
D03*
X29232Y375878D02*
D03*
Y399500D02*
D03*
X646500Y425000D02*
D03*
Y401378D02*
D03*
X166561Y70012D02*
D03*
X142939D02*
D03*
X98061D02*
D03*
X74439D02*
D03*
X200811D02*
D03*
X177189D02*
D03*
X40189Y69012D02*
D03*
X63811D02*
D03*
X132311Y70012D02*
D03*
X108689D02*
D03*
X29512Y273689D02*
D03*
Y297311D02*
D03*
D86*
X650228Y445595D02*
D03*
Y457406D02*
D03*
X662039Y445595D02*
D03*
X663000Y84689D02*
D03*
X651189Y96500D02*
D03*
Y84689D02*
D03*
X25811Y159500D02*
D03*
Y191000D02*
D03*
Y222500D02*
D03*
Y254000D02*
D03*
X25532Y387689D02*
D03*
X650201Y413189D02*
D03*
X154750Y66311D02*
D03*
X86250D02*
D03*
X189000D02*
D03*
X52000Y65311D02*
D03*
X120500Y66311D02*
D03*
X25811Y285500D02*
D03*
D87*
X662039Y457406D02*
D03*
X663000Y96500D02*
D03*
X14000Y159500D02*
D03*
Y191000D02*
D03*
Y222500D02*
D03*
Y254000D02*
D03*
X13721Y387689D02*
D03*
X662012Y413189D02*
D03*
X14000Y285500D02*
D03*
D88*
X656134Y465870D02*
D03*
Y437130D02*
D03*
X657094Y76224D02*
D03*
Y104965D02*
D03*
X19906Y151035D02*
D03*
Y167965D02*
D03*
Y182535D02*
D03*
Y199465D02*
D03*
Y214035D02*
D03*
Y230965D02*
D03*
Y245535D02*
D03*
Y262465D02*
D03*
X19626Y379224D02*
D03*
Y396153D02*
D03*
X656106Y421654D02*
D03*
Y404724D02*
D03*
X163215Y60405D02*
D03*
X146285D02*
D03*
X94715D02*
D03*
X77785D02*
D03*
X197465D02*
D03*
X180535D02*
D03*
X43535Y59405D02*
D03*
X60465D02*
D03*
X128965Y60405D02*
D03*
X112035D02*
D03*
X19906Y277035D02*
D03*
Y293965D02*
D03*
D89*
X662500Y487500D02*
D03*
X12500D02*
D03*
X13000Y53000D02*
D03*
X661500D02*
D03*
D90*
X605500Y424000D02*
D03*
Y434000D02*
D03*
X308500Y440000D02*
D03*
X298500D02*
D03*
X308500Y460000D02*
D03*
X298500D02*
D03*
X278500Y440000D02*
D03*
X268500D02*
D03*
X278000Y460000D02*
D03*
X268000D02*
D03*
X344000Y68000D02*
D03*
Y58000D02*
D03*
X96500Y232000D02*
D03*
Y222000D02*
D03*
X609500Y492000D02*
D03*
Y482000D02*
D03*
X119500Y222000D02*
D03*
Y232000D02*
D03*
X81500Y490000D02*
D03*
Y480000D02*
D03*
X184500Y232000D02*
D03*
Y222000D02*
D03*
X166000Y232000D02*
D03*
Y222000D02*
D03*
X77667Y232000D02*
D03*
Y222000D02*
D03*
X56000Y232000D02*
D03*
Y222000D02*
D03*
X141000Y232000D02*
D03*
Y222000D02*
D03*
X624000Y482000D02*
D03*
Y492000D02*
D03*
X626000Y449500D02*
D03*
Y439500D02*
D03*
D91*
X647500Y380500D02*
D03*
X647421Y140500D02*
D03*
X607500Y350500D02*
D03*
X517500D02*
D03*
X643500Y170500D02*
D03*
X537500D02*
D03*
D92*
X647500Y370500D02*
D03*
X637500Y380500D02*
D03*
Y370500D02*
D03*
X627500Y380500D02*
D03*
Y370500D02*
D03*
X617500Y380500D02*
D03*
Y370500D02*
D03*
X607500Y380500D02*
D03*
Y370500D02*
D03*
X597500Y380500D02*
D03*
Y370500D02*
D03*
X587500Y380500D02*
D03*
Y370500D02*
D03*
X577500Y380500D02*
D03*
Y370500D02*
D03*
X567500Y380500D02*
D03*
Y370500D02*
D03*
X557500Y380500D02*
D03*
Y370500D02*
D03*
X547500Y380500D02*
D03*
Y370500D02*
D03*
X537500Y380500D02*
D03*
Y370500D02*
D03*
X527500Y380500D02*
D03*
Y370500D02*
D03*
X517500Y380500D02*
D03*
Y370500D02*
D03*
X507500Y380500D02*
D03*
Y370500D02*
D03*
X497500Y380500D02*
D03*
Y370500D02*
D03*
X487500Y380500D02*
D03*
Y370500D02*
D03*
X477500Y380500D02*
D03*
Y370500D02*
D03*
X467500Y380500D02*
D03*
Y370500D02*
D03*
X457500Y380500D02*
D03*
Y370500D02*
D03*
X447500Y380500D02*
D03*
Y370500D02*
D03*
X437500Y380500D02*
D03*
Y370500D02*
D03*
X427500Y380500D02*
D03*
Y370500D02*
D03*
X417500Y380500D02*
D03*
Y370500D02*
D03*
X407500Y380500D02*
D03*
Y370500D02*
D03*
X397500Y380500D02*
D03*
Y370500D02*
D03*
X387500Y380500D02*
D03*
Y370500D02*
D03*
X377500Y380500D02*
D03*
Y370500D02*
D03*
X367500Y380500D02*
D03*
Y370500D02*
D03*
X357500Y380500D02*
D03*
Y370500D02*
D03*
X347500Y380500D02*
D03*
Y370500D02*
D03*
X337500Y380500D02*
D03*
Y370500D02*
D03*
X327500Y380500D02*
D03*
Y370500D02*
D03*
X317500Y380500D02*
D03*
Y370500D02*
D03*
X307500Y380500D02*
D03*
Y370500D02*
D03*
X647421Y130500D02*
D03*
X607500Y340500D02*
D03*
X597500Y350500D02*
D03*
Y340500D02*
D03*
X587500Y350500D02*
D03*
Y340500D02*
D03*
X577500Y350500D02*
D03*
Y340500D02*
D03*
X567500Y350500D02*
D03*
Y340500D02*
D03*
X557500Y350500D02*
D03*
Y340500D02*
D03*
X547500Y350500D02*
D03*
Y340500D02*
D03*
X537500Y350500D02*
D03*
Y340500D02*
D03*
X517500D02*
D03*
X507500Y350500D02*
D03*
Y340500D02*
D03*
X497500Y350500D02*
D03*
Y340500D02*
D03*
X487500Y350500D02*
D03*
Y340500D02*
D03*
X477500Y350500D02*
D03*
Y340500D02*
D03*
X467500Y350500D02*
D03*
Y340500D02*
D03*
X457500Y350500D02*
D03*
Y340500D02*
D03*
X447500Y350500D02*
D03*
Y340500D02*
D03*
X437500Y350500D02*
D03*
Y340500D02*
D03*
X427500Y350500D02*
D03*
Y340500D02*
D03*
X417500Y350500D02*
D03*
Y340500D02*
D03*
X407500Y350500D02*
D03*
Y340500D02*
D03*
X397500Y350500D02*
D03*
Y340500D02*
D03*
X387500Y350500D02*
D03*
Y340500D02*
D03*
X643500Y160500D02*
D03*
X537500D02*
D03*
X527500Y170500D02*
D03*
Y160500D02*
D03*
X517500Y170500D02*
D03*
Y160500D02*
D03*
X507500Y170500D02*
D03*
Y160500D02*
D03*
X497500Y170500D02*
D03*
Y160500D02*
D03*
X487500Y170500D02*
D03*
Y160500D02*
D03*
X477500Y170500D02*
D03*
Y160500D02*
D03*
X467500Y170500D02*
D03*
Y160500D02*
D03*
X457500Y170500D02*
D03*
Y160500D02*
D03*
X447500Y170500D02*
D03*
Y160500D02*
D03*
X437500Y170500D02*
D03*
Y160500D02*
D03*
X427500Y170500D02*
D03*
Y160500D02*
D03*
X417500Y170500D02*
D03*
Y160500D02*
D03*
X407500Y170500D02*
D03*
Y160500D02*
D03*
X397500Y170500D02*
D03*
Y160500D02*
D03*
X387500Y170500D02*
D03*
Y160500D02*
D03*
X297500Y380500D02*
D03*
Y370500D02*
D03*
X633500Y170500D02*
D03*
Y160500D02*
D03*
X623500Y170500D02*
D03*
Y160500D02*
D03*
X613500Y170500D02*
D03*
Y160500D02*
D03*
X603500Y170500D02*
D03*
Y160500D02*
D03*
X593500Y170500D02*
D03*
Y160500D02*
D03*
X583500Y170500D02*
D03*
Y160500D02*
D03*
X573500Y170500D02*
D03*
Y160500D02*
D03*
X563500Y170500D02*
D03*
Y160500D02*
D03*
X553500Y170500D02*
D03*
Y160500D02*
D03*
X377500Y350500D02*
D03*
Y340500D02*
D03*
Y170500D02*
D03*
Y160500D02*
D03*
X637421Y140500D02*
D03*
Y130500D02*
D03*
X627421Y140500D02*
D03*
Y130500D02*
D03*
X617421Y140500D02*
D03*
Y130500D02*
D03*
X607421Y140500D02*
D03*
Y130500D02*
D03*
X597421Y140500D02*
D03*
Y130500D02*
D03*
X587421Y140500D02*
D03*
Y130500D02*
D03*
X577421Y140500D02*
D03*
Y130500D02*
D03*
X567421Y140500D02*
D03*
Y130500D02*
D03*
X557421Y140500D02*
D03*
Y130500D02*
D03*
X547421Y140500D02*
D03*
Y130500D02*
D03*
X537421Y140500D02*
D03*
Y130500D02*
D03*
X527421Y140500D02*
D03*
Y130500D02*
D03*
X517421Y140500D02*
D03*
Y130500D02*
D03*
X507421Y140500D02*
D03*
Y130500D02*
D03*
X497421Y140500D02*
D03*
Y130500D02*
D03*
X487421Y140500D02*
D03*
Y130500D02*
D03*
X477421Y140500D02*
D03*
Y130500D02*
D03*
X467421Y140500D02*
D03*
Y130500D02*
D03*
X457421Y140500D02*
D03*
Y130500D02*
D03*
X447421Y140500D02*
D03*
Y130500D02*
D03*
X437421Y140500D02*
D03*
Y130500D02*
D03*
X427421Y140500D02*
D03*
Y130500D02*
D03*
X417421Y140500D02*
D03*
Y130500D02*
D03*
X407421Y140500D02*
D03*
Y130500D02*
D03*
X397421Y140500D02*
D03*
Y130500D02*
D03*
X387421Y140500D02*
D03*
Y130500D02*
D03*
X377421Y140500D02*
D03*
Y130500D02*
D03*
X367421Y140500D02*
D03*
Y130500D02*
D03*
X357421Y140500D02*
D03*
Y130500D02*
D03*
X347421Y140500D02*
D03*
Y130500D02*
D03*
X337421Y140500D02*
D03*
Y130500D02*
D03*
X327421Y140500D02*
D03*
Y130500D02*
D03*
X317421Y140500D02*
D03*
Y130500D02*
D03*
X307421Y140500D02*
D03*
Y130500D02*
D03*
X297421Y140500D02*
D03*
Y130500D02*
D03*
D93*
X362500Y345500D02*
D03*
Y165500D02*
D03*
X657500Y160500D02*
D03*
X457500Y220500D02*
D03*
X662500Y350500D02*
D03*
D94*
X149000Y361000D02*
D03*
X188000D02*
D03*
Y347500D02*
D03*
X149000D02*
D03*
X65000Y444000D02*
D03*
Y483000D02*
D03*
X51500D02*
D03*
Y444000D02*
D03*
D95*
X13500Y101189D02*
D03*
Y113000D02*
D03*
Y124811D02*
D03*
X25311Y101189D02*
D03*
Y113000D02*
D03*
Y124811D02*
D03*
D96*
X19406Y92724D02*
D03*
Y133276D02*
D03*
D97*
X29012Y89378D02*
D03*
Y136622D02*
D03*
D98*
X474400Y474000D02*
D03*
X462600D02*
D03*
Y485800D02*
D03*
X474400D02*
D03*
X356300Y474000D02*
D03*
X344500D02*
D03*
Y485800D02*
D03*
X356300D02*
D03*
X450800D02*
D03*
X368100D02*
D03*
Y474000D02*
D03*
X379900D02*
D03*
X379700Y485800D02*
D03*
X438900D02*
D03*
X403500D02*
D03*
X415300D02*
D03*
X391700D02*
D03*
X427100D02*
D03*
Y474000D02*
D03*
X391700D02*
D03*
X415300D02*
D03*
X403500D02*
D03*
X438900D02*
D03*
X450800D02*
D03*
X486200Y470300D02*
D03*
X332700D02*
D03*
X30000Y408900D02*
D03*
Y467900D02*
D03*
X14500Y455900D02*
D03*
X26300Y456100D02*
D03*
Y444300D02*
D03*
X14500D02*
D03*
Y432500D02*
D03*
Y420700D02*
D03*
X26300D02*
D03*
Y432500D02*
D03*
X29700Y306300D02*
D03*
Y365300D02*
D03*
X14200Y353300D02*
D03*
X26000Y353500D02*
D03*
Y341700D02*
D03*
X14200D02*
D03*
Y329900D02*
D03*
Y318100D02*
D03*
X26000D02*
D03*
Y329900D02*
D03*
X208000Y474700D02*
D03*
X196200D02*
D03*
Y486500D02*
D03*
X208000D02*
D03*
X219800D02*
D03*
Y474700D02*
D03*
X231600D02*
D03*
X231400Y486500D02*
D03*
X243400Y471000D02*
D03*
X184400D02*
D03*
D99*
X119500Y436500D02*
D03*
X149000Y423980D02*
D03*
X119500D02*
D03*
X149000Y436500D02*
D03*
D100*
X100799Y488193D02*
D03*
X167701D02*
D03*
D101*
X258150Y478138D02*
D03*
X268150D02*
D03*
X278150D02*
D03*
X308150D02*
D03*
X318150D02*
D03*
D102*
X154750Y54500D02*
D03*
X86250D02*
D03*
X189000D02*
D03*
X52000Y53500D02*
D03*
X120500Y54500D02*
D03*
M02*
