G04*
G04 #@! TF.GenerationSoftware,Altium Limited,Altium Designer,20.1.14 (287)*
G04*
G04 Layer_Color=8388736*
%FSLAX25Y25*%
%MOIN*%
G70*
G04*
G04 #@! TF.SameCoordinates,5FE179B0-A676-43EF-AE88-1D2B089A4B82*
G04*
G04*
G04 #@! TF.FilePolarity,Negative*
G04*
G01*
G75*
%ADD12C,0.01000*%
%ADD15C,0.00197*%
%ADD16C,0.00394*%
%ADD65R,0.10288X0.13792*%
%ADD66R,0.02257X0.02769*%
%ADD67R,0.06509X0.03162*%
%ADD68R,0.09068X0.09068*%
%ADD69R,0.04540X0.02178*%
%ADD70R,0.02178X0.04540*%
%ADD71R,0.08871X0.03398*%
%ADD72R,0.20485X0.20485*%
%ADD73R,0.13792X0.10288*%
%ADD74R,0.03398X0.08871*%
%ADD75R,0.03359X0.05721*%
%ADD76R,0.18320X0.16154*%
%ADD77R,0.06312X0.04934*%
%ADD78R,0.06509X0.07690*%
%ADD79O,0.08674X0.03556*%
%ADD80R,0.22060X0.24422*%
%ADD81C,0.03800*%
%ADD82R,0.04343X0.06115*%
%ADD83R,0.06902X0.03359*%
%ADD84R,0.05603X0.04383*%
%ADD85R,0.04383X0.05603*%
%ADD86R,0.20485X0.20485*%
%ADD87R,0.06115X0.04343*%
%ADD88R,0.22060X0.12217*%
%ADD89R,0.03950X0.04343*%
%ADD90R,0.06706X0.02572*%
%ADD91R,0.09698X0.11824*%
%ADD92R,0.11824X0.09698*%
%ADD93R,0.04934X0.06312*%
%ADD94R,0.13398X0.17335*%
%ADD95R,0.07690X0.06509*%
%ADD96R,0.04343X0.04540*%
%ADD97R,0.07887X0.06509*%
%ADD98R,0.08517X0.14147*%
%ADD99O,0.03556X0.08674*%
%ADD100R,0.04343X0.03950*%
%ADD101R,0.04540X0.04343*%
%ADD102R,0.09461X0.13595*%
%ADD103R,0.13595X0.10642*%
%ADD104R,0.10642X0.13595*%
%ADD105R,0.06509X0.07887*%
%ADD106R,0.12217X0.22060*%
%ADD107R,0.20879X0.14580*%
%ADD108R,0.07099X0.08871*%
%ADD109R,0.05721X0.03359*%
%ADD110R,0.16154X0.18320*%
%ADD111R,0.05918X0.08280*%
%ADD112O,0.06706X0.03162*%
%ADD113C,0.07887*%
%ADD114C,0.07800*%
%ADD115C,0.06706*%
%ADD116R,0.06706X0.06706*%
%ADD117C,0.10958*%
%ADD118C,0.15800*%
%ADD119C,0.15600*%
%ADD120C,0.17729*%
%ADD121C,0.06800*%
%ADD122C,0.08800*%
%ADD123C,0.04300*%
D12*
X600000D01*
Y149000D01*
X512000D02*
X600000D01*
X512000D02*
Y225000D01*
X600000D01*
Y500000D01*
X0D02*
X600000D01*
X0Y0D02*
Y500000D01*
D15*
X185276Y432539D02*
X191575D01*
X185276Y440610D02*
X191575D01*
X185276Y432539D02*
Y440610D01*
X191575Y432539D02*
Y440610D01*
X193472Y235433D02*
Y277165D01*
X228906Y235433D02*
Y277165D01*
X193472D02*
X228906D01*
X193472Y235433D02*
X228906D01*
X231472Y255417D02*
Y275496D01*
X240528Y255417D02*
Y275496D01*
X231472Y255417D02*
X240528D01*
X231472Y275496D02*
X240528D01*
X58961Y310472D02*
X79039D01*
X58961Y319528D02*
X79039D01*
Y310472D02*
Y319528D01*
X58961Y310472D02*
Y319528D01*
X192020Y278614D02*
X226075D01*
X192020Y305386D02*
X226075D01*
Y278614D02*
Y305386D01*
X192020Y278614D02*
Y305386D01*
X179827Y308095D02*
Y343528D01*
X138094Y308095D02*
Y343528D01*
X179827D01*
X138094Y308095D02*
X179827D01*
X122472Y327039D02*
X131528D01*
X122472Y306961D02*
X131528D01*
Y327039D01*
X122472Y306961D02*
Y327039D01*
X121827Y308095D02*
Y343528D01*
X80094Y308095D02*
Y343528D01*
X121827D01*
X80094Y308095D02*
X121827D01*
X222614Y113488D02*
X249386D01*
X222614Y74610D02*
X249386D01*
X222614D02*
Y113488D01*
X249386Y74610D02*
Y113488D01*
X178512Y62614D02*
Y89386D01*
X217390Y62614D02*
Y89386D01*
X178512Y62614D02*
X217390D01*
X178512Y89386D02*
X217390D01*
X129386Y74598D02*
Y113476D01*
X102614Y74598D02*
Y113476D01*
Y74598D02*
X129386D01*
X102614Y113476D02*
X129386D01*
X473500Y40614D02*
Y67386D01*
X434622Y40614D02*
Y67386D01*
X473500D01*
X434622Y40614D02*
X473500D01*
X388717Y400134D02*
Y441866D01*
X353284Y400134D02*
Y441866D01*
Y400134D02*
X388717D01*
X353284Y441866D02*
X388717D01*
X350716Y400134D02*
Y441866D01*
X315283Y400134D02*
Y441866D01*
Y400134D02*
X350716D01*
X315283Y441866D02*
X350716D01*
X328504Y391472D02*
X348583D01*
X328504Y400528D02*
X348583D01*
Y391472D02*
Y400528D01*
X328504Y391472D02*
Y400528D01*
X398528Y395961D02*
Y416039D01*
X389472Y395961D02*
Y416039D01*
X398528D01*
X389472Y395961D02*
X398528D01*
D16*
X188425Y434606D02*
Y438543D01*
X186457Y436575D02*
X190394D01*
X209221Y256299D02*
X213158D01*
X211189Y254331D02*
Y258268D01*
X234032Y265457D02*
X237968D01*
X236000Y263488D02*
Y267425D01*
X69000Y313032D02*
Y316968D01*
X67032Y315000D02*
X70969D01*
X209047Y290032D02*
Y293969D01*
X207079Y292000D02*
X211016D01*
X156992Y325811D02*
X160929D01*
X158961Y323843D02*
Y327780D01*
X127000Y315032D02*
Y318969D01*
X125031Y317000D02*
X128969D01*
X98992Y325811D02*
X102929D01*
X100961Y323843D02*
Y327780D01*
X236000Y92032D02*
Y95969D01*
X234032Y94000D02*
X237968D01*
X196031Y76000D02*
X199969D01*
X198000Y74032D02*
Y77969D01*
X114032Y93988D02*
X117968D01*
X116000Y92020D02*
Y95957D01*
X452043Y54000D02*
X455980D01*
X454012Y52031D02*
Y55968D01*
X369032Y421000D02*
X372969D01*
X371000Y419031D02*
Y422968D01*
X331031Y421000D02*
X334968D01*
X333000Y419031D02*
Y422968D01*
X338543Y394032D02*
Y397969D01*
X336575Y396000D02*
X340512D01*
X392032Y406000D02*
X395969D01*
X394000Y404032D02*
Y407969D01*
D65*
X200000Y101000D02*
D03*
X477000Y28000D02*
D03*
X83567Y85500D02*
D03*
D66*
X186850Y435000D02*
D03*
X190000D02*
D03*
X188425Y438150D02*
D03*
D67*
X389216Y390500D02*
D03*
Y385500D02*
D03*
Y380500D02*
D03*
Y375500D02*
D03*
Y370500D02*
D03*
Y365500D02*
D03*
Y360500D02*
D03*
Y355500D02*
D03*
X428784Y390500D02*
D03*
Y385500D02*
D03*
Y380500D02*
D03*
Y375500D02*
D03*
Y370500D02*
D03*
Y365500D02*
D03*
Y360500D02*
D03*
Y355500D02*
D03*
X494272Y486000D02*
D03*
Y481000D02*
D03*
Y476000D02*
D03*
Y471000D02*
D03*
Y466000D02*
D03*
Y461000D02*
D03*
Y456000D02*
D03*
X515728Y486000D02*
D03*
Y481000D02*
D03*
Y476000D02*
D03*
Y471000D02*
D03*
Y466000D02*
D03*
Y461000D02*
D03*
Y456000D02*
D03*
D68*
X320579Y340721D02*
D03*
D69*
X313000Y336882D02*
D03*
Y339441D02*
D03*
Y342000D02*
D03*
Y344559D02*
D03*
X328157D02*
D03*
Y342000D02*
D03*
Y339441D02*
D03*
Y336882D02*
D03*
D70*
X316740Y348299D02*
D03*
X319299D02*
D03*
X321858D02*
D03*
X324400Y348300D02*
D03*
X324417Y333142D02*
D03*
X321858D02*
D03*
X319299D02*
D03*
X316740D02*
D03*
D71*
X486567Y20500D02*
D03*
Y25500D02*
D03*
Y30500D02*
D03*
Y35500D02*
D03*
X467433Y20500D02*
D03*
Y25500D02*
D03*
Y30500D02*
D03*
Y35500D02*
D03*
X209567Y93500D02*
D03*
Y98500D02*
D03*
Y103500D02*
D03*
Y108500D02*
D03*
X190433Y93500D02*
D03*
Y98500D02*
D03*
Y103500D02*
D03*
Y108500D02*
D03*
X74000Y93000D02*
D03*
Y88000D02*
D03*
Y83000D02*
D03*
Y78000D02*
D03*
X93134Y93000D02*
D03*
Y88000D02*
D03*
Y83000D02*
D03*
Y78000D02*
D03*
D72*
X130071Y26500D02*
D03*
X163929D02*
D03*
X14142Y89000D02*
D03*
X48000D02*
D03*
D73*
X186000Y29000D02*
D03*
D74*
X193500Y38567D02*
D03*
X188500D02*
D03*
X183500D02*
D03*
X178500D02*
D03*
X193500Y19433D02*
D03*
X188500D02*
D03*
X183500D02*
D03*
X178500D02*
D03*
D75*
X525500Y442358D02*
D03*
X530500D02*
D03*
X535500D02*
D03*
X520500D02*
D03*
Y420858D02*
D03*
X535500D02*
D03*
X530500D02*
D03*
X525500D02*
D03*
D76*
X528000Y434500D02*
D03*
D77*
X527000Y453000D02*
D03*
Y460480D02*
D03*
X537000Y453000D02*
D03*
Y460480D02*
D03*
X173000Y47260D02*
D03*
Y54740D02*
D03*
X445000Y371260D02*
D03*
Y378740D02*
D03*
Y362740D02*
D03*
Y355260D02*
D03*
X343500Y362740D02*
D03*
Y355260D02*
D03*
X477000Y304000D02*
D03*
Y311480D02*
D03*
X381000Y361480D02*
D03*
Y354000D02*
D03*
X437000Y355000D02*
D03*
Y362480D02*
D03*
Y371000D02*
D03*
Y378480D02*
D03*
X520000Y349480D02*
D03*
Y342000D02*
D03*
X513000Y310260D02*
D03*
Y317740D02*
D03*
X233500Y298740D02*
D03*
Y291260D02*
D03*
X249500Y355240D02*
D03*
Y347760D02*
D03*
X103000Y66480D02*
D03*
Y59000D02*
D03*
X111000Y66740D02*
D03*
Y59260D02*
D03*
X219000Y109480D02*
D03*
Y102000D02*
D03*
X487000Y54740D02*
D03*
Y47260D02*
D03*
X97000Y103260D02*
D03*
Y110740D02*
D03*
X81000Y107740D02*
D03*
Y100260D02*
D03*
X73000Y107740D02*
D03*
Y100260D02*
D03*
X65000Y107740D02*
D03*
Y100260D02*
D03*
X449000Y29260D02*
D03*
Y36740D02*
D03*
X441000Y29260D02*
D03*
Y36740D02*
D03*
X457000Y29260D02*
D03*
Y36740D02*
D03*
X466000Y326260D02*
D03*
Y333740D02*
D03*
D78*
X537512Y470000D02*
D03*
X526488D02*
D03*
X537512Y480500D02*
D03*
X526488D02*
D03*
X281389Y355505D02*
D03*
X270366D02*
D03*
X190024Y358000D02*
D03*
X179000D02*
D03*
X210024Y370000D02*
D03*
X199000D02*
D03*
X190024Y348000D02*
D03*
X179000D02*
D03*
X247024Y369000D02*
D03*
X236000D02*
D03*
D79*
X199378Y271260D02*
D03*
Y258661D02*
D03*
Y250000D02*
D03*
Y241339D02*
D03*
X223000Y271260D02*
D03*
X223000Y258661D02*
D03*
Y250000D02*
D03*
Y241339D02*
D03*
X382811Y406039D02*
D03*
Y418638D02*
D03*
Y427299D02*
D03*
Y435961D02*
D03*
X359189Y406039D02*
D03*
X359189Y418638D02*
D03*
Y427299D02*
D03*
Y435961D02*
D03*
X344811Y406039D02*
D03*
Y418638D02*
D03*
Y427299D02*
D03*
Y435961D02*
D03*
X321189Y406039D02*
D03*
X321189Y418638D02*
D03*
Y427299D02*
D03*
Y435961D02*
D03*
D80*
X272000Y296905D02*
D03*
Y335094D02*
D03*
D81*
X241500Y288000D02*
D03*
X206500Y359000D02*
D03*
X300500Y325500D02*
D03*
X243000Y323500D02*
D03*
X190000Y367000D02*
D03*
X94000Y380000D02*
D03*
X102000Y418500D02*
D03*
X156000Y350000D02*
D03*
D82*
X242437Y332000D02*
D03*
X234563D02*
D03*
X227937D02*
D03*
X220063D02*
D03*
X374126Y63000D02*
D03*
X382000D02*
D03*
X358126D02*
D03*
X366000D02*
D03*
X427126Y416000D02*
D03*
X435000D02*
D03*
X429063Y424000D02*
D03*
X436937D02*
D03*
X428937Y432000D02*
D03*
X436811D02*
D03*
X429000Y440000D02*
D03*
X436874D02*
D03*
X526126Y410000D02*
D03*
X534000D02*
D03*
X393000Y339000D02*
D03*
X385126D02*
D03*
X503126Y350000D02*
D03*
X511000D02*
D03*
X356937Y316000D02*
D03*
X349063D02*
D03*
X349126Y308000D02*
D03*
X357000D02*
D03*
X349126Y332000D02*
D03*
X357000D02*
D03*
X349063Y324000D02*
D03*
X356937D02*
D03*
X335000D02*
D03*
X342874D02*
D03*
X335063Y332000D02*
D03*
X342937D02*
D03*
X335126Y316000D02*
D03*
X343000D02*
D03*
X335000Y308000D02*
D03*
X342874D02*
D03*
X335874Y291000D02*
D03*
X328000D02*
D03*
X335874Y299000D02*
D03*
X328000D02*
D03*
X321874D02*
D03*
X314000D02*
D03*
X314063Y291000D02*
D03*
X321937D02*
D03*
X183563Y329000D02*
D03*
X191437D02*
D03*
X196000Y428000D02*
D03*
X188126D02*
D03*
X186000Y7000D02*
D03*
X178126D02*
D03*
X449937Y22000D02*
D03*
X442063D02*
D03*
X538937Y351000D02*
D03*
X531063D02*
D03*
Y342000D02*
D03*
X538937D02*
D03*
D83*
X235630Y308500D02*
D03*
Y313500D02*
D03*
Y318500D02*
D03*
Y323500D02*
D03*
X214370Y308500D02*
D03*
Y313500D02*
D03*
Y318500D02*
D03*
Y323500D02*
D03*
D84*
X236000Y259000D02*
D03*
Y271913D02*
D03*
X127000Y323457D02*
D03*
Y310543D02*
D03*
X394000Y412457D02*
D03*
Y399543D02*
D03*
D85*
X75457Y315000D02*
D03*
X62543D02*
D03*
X345000Y396000D02*
D03*
X332087D02*
D03*
D86*
X410000Y48929D02*
D03*
Y15071D02*
D03*
X160000Y402929D02*
D03*
Y369071D02*
D03*
X27000Y127071D02*
D03*
Y160929D02*
D03*
X76000Y127071D02*
D03*
Y160929D02*
D03*
X125000Y127000D02*
D03*
Y160858D02*
D03*
X174000Y127071D02*
D03*
Y160929D02*
D03*
X76000Y220858D02*
D03*
Y187000D02*
D03*
X27000Y220858D02*
D03*
Y187000D02*
D03*
X276000Y397071D02*
D03*
Y430929D02*
D03*
X174000Y187071D02*
D03*
Y220929D02*
D03*
X125000Y187000D02*
D03*
Y220858D02*
D03*
X223000Y187071D02*
D03*
Y220929D02*
D03*
Y160929D02*
D03*
Y127071D02*
D03*
X154000Y65071D02*
D03*
Y98929D02*
D03*
D87*
X380000Y28874D02*
D03*
Y21000D02*
D03*
Y41063D02*
D03*
Y48937D02*
D03*
X235000Y440000D02*
D03*
Y432126D02*
D03*
X214000D02*
D03*
Y440000D02*
D03*
X374000Y344937D02*
D03*
Y337063D02*
D03*
X510000Y448937D02*
D03*
Y441063D02*
D03*
X520000Y386874D02*
D03*
Y379000D02*
D03*
X510000Y434937D02*
D03*
Y427063D02*
D03*
X484000Y398063D02*
D03*
Y405937D02*
D03*
X335000Y362874D02*
D03*
Y355000D02*
D03*
X404000Y120937D02*
D03*
Y113063D02*
D03*
X326500Y362937D02*
D03*
Y355063D02*
D03*
X460000Y398063D02*
D03*
Y405937D02*
D03*
X503000Y296937D02*
D03*
Y289063D02*
D03*
X477000Y290000D02*
D03*
Y297874D02*
D03*
X503000Y310874D02*
D03*
Y303000D02*
D03*
X528000Y325000D02*
D03*
Y332874D02*
D03*
X520000Y325126D02*
D03*
Y333000D02*
D03*
X512000Y325000D02*
D03*
Y332874D02*
D03*
X504000Y325126D02*
D03*
Y333000D02*
D03*
X513000Y301937D02*
D03*
Y294063D02*
D03*
X521000Y294000D02*
D03*
Y301874D02*
D03*
Y318000D02*
D03*
Y310126D02*
D03*
X396000Y287126D02*
D03*
Y295000D02*
D03*
X354000Y295063D02*
D03*
Y287189D02*
D03*
X370000Y294937D02*
D03*
Y287063D02*
D03*
X362000Y287189D02*
D03*
Y295063D02*
D03*
X204000Y437874D02*
D03*
Y430000D02*
D03*
Y413063D02*
D03*
Y420937D02*
D03*
X98000Y242000D02*
D03*
Y249874D02*
D03*
Y264126D02*
D03*
Y272000D02*
D03*
X170000Y242000D02*
D03*
Y249874D02*
D03*
Y264063D02*
D03*
Y271937D02*
D03*
X134000Y242126D02*
D03*
Y250000D02*
D03*
Y264063D02*
D03*
Y271937D02*
D03*
X152000Y242000D02*
D03*
Y249874D02*
D03*
Y264063D02*
D03*
Y271937D02*
D03*
X188000Y242063D02*
D03*
Y249937D02*
D03*
Y264063D02*
D03*
Y271937D02*
D03*
X116000Y242000D02*
D03*
Y249874D02*
D03*
X80000Y242000D02*
D03*
Y249874D02*
D03*
X116000Y264126D02*
D03*
Y272000D02*
D03*
X80000Y264063D02*
D03*
Y271937D02*
D03*
X181000Y101000D02*
D03*
Y108874D02*
D03*
X412000Y120937D02*
D03*
Y113063D02*
D03*
X428000Y120937D02*
D03*
Y113063D02*
D03*
X436000Y120937D02*
D03*
Y113063D02*
D03*
X420000Y120937D02*
D03*
Y113063D02*
D03*
X65000Y86000D02*
D03*
Y93874D02*
D03*
X522000Y361000D02*
D03*
Y368874D02*
D03*
X76000Y326000D02*
D03*
Y333874D02*
D03*
X452000Y398000D02*
D03*
Y405874D02*
D03*
X444000Y406000D02*
D03*
Y398126D02*
D03*
X407000Y405937D02*
D03*
Y398063D02*
D03*
X416000Y405874D02*
D03*
Y398000D02*
D03*
X434000Y405874D02*
D03*
Y398000D02*
D03*
X425000Y405874D02*
D03*
Y398000D02*
D03*
D88*
X348000Y9000D02*
D03*
Y47976D02*
D03*
X253000Y48000D02*
D03*
Y9024D02*
D03*
X517000Y18512D02*
D03*
Y57488D02*
D03*
D89*
X64000Y326063D02*
D03*
X60260Y333937D02*
D03*
X67740D02*
D03*
X472000Y405937D02*
D03*
X475740Y398063D02*
D03*
X468260D02*
D03*
X382000Y294937D02*
D03*
X385740Y287063D02*
D03*
X378260D02*
D03*
X530260Y394126D02*
D03*
X537740D02*
D03*
X534000Y402000D02*
D03*
X531260Y361063D02*
D03*
X538740D02*
D03*
X535000Y368937D02*
D03*
D90*
X378583Y332075D02*
D03*
Y329516D02*
D03*
Y326957D02*
D03*
Y324398D02*
D03*
Y321839D02*
D03*
Y319280D02*
D03*
Y316721D02*
D03*
Y314161D02*
D03*
Y311602D02*
D03*
Y309043D02*
D03*
Y306484D02*
D03*
Y303925D02*
D03*
X401417Y332075D02*
D03*
Y329516D02*
D03*
Y326957D02*
D03*
Y324398D02*
D03*
Y321839D02*
D03*
Y319280D02*
D03*
Y316721D02*
D03*
Y314161D02*
D03*
Y311602D02*
D03*
Y309043D02*
D03*
Y306484D02*
D03*
Y303925D02*
D03*
X461583Y441075D02*
D03*
Y438516D02*
D03*
Y435957D02*
D03*
Y433398D02*
D03*
Y430839D02*
D03*
Y428279D02*
D03*
Y425721D02*
D03*
Y423161D02*
D03*
Y420602D02*
D03*
Y418043D02*
D03*
Y415484D02*
D03*
Y412925D02*
D03*
X484417Y441075D02*
D03*
Y438516D02*
D03*
Y435957D02*
D03*
Y433398D02*
D03*
Y430839D02*
D03*
Y428279D02*
D03*
Y425721D02*
D03*
Y423161D02*
D03*
Y420602D02*
D03*
Y418043D02*
D03*
Y415484D02*
D03*
Y412925D02*
D03*
D91*
X490000Y306299D02*
D03*
Y293701D02*
D03*
X368000Y356701D02*
D03*
Y369299D02*
D03*
X534000Y301000D02*
D03*
Y313598D02*
D03*
D92*
X378299Y390000D02*
D03*
X365701D02*
D03*
D93*
X503386Y342000D02*
D03*
X510866D02*
D03*
X508520Y494000D02*
D03*
X516000D02*
D03*
X502000D02*
D03*
X494520D02*
D03*
X181260Y51000D02*
D03*
X188740D02*
D03*
X119520Y71000D02*
D03*
X127000D02*
D03*
X119000Y63000D02*
D03*
X126480D02*
D03*
X119000Y55000D02*
D03*
X126480D02*
D03*
D94*
X402354Y200000D02*
D03*
X287000D02*
D03*
D95*
X259000Y441000D02*
D03*
Y452024D02*
D03*
X71000Y259976D02*
D03*
Y271000D02*
D03*
X89000Y259976D02*
D03*
Y271000D02*
D03*
X107000Y260000D02*
D03*
Y271024D02*
D03*
X125000Y260000D02*
D03*
Y271024D02*
D03*
X161000Y260000D02*
D03*
Y271024D02*
D03*
X179000Y260000D02*
D03*
Y271024D02*
D03*
X143000Y259976D02*
D03*
Y271000D02*
D03*
X64000Y358488D02*
D03*
Y369512D02*
D03*
X309000Y427488D02*
D03*
Y438512D02*
D03*
D96*
X241898Y439000D02*
D03*
X248000D02*
D03*
Y432000D02*
D03*
X241898D02*
D03*
X220898Y440000D02*
D03*
X227000D02*
D03*
Y433000D02*
D03*
X220898D02*
D03*
D97*
X240000Y340488D02*
D03*
Y351512D02*
D03*
X229500Y340488D02*
D03*
Y351512D02*
D03*
X219500Y340488D02*
D03*
Y351512D02*
D03*
X195000Y320512D02*
D03*
Y309488D02*
D03*
X185000Y320512D02*
D03*
Y309488D02*
D03*
X199500Y337988D02*
D03*
Y349012D02*
D03*
X205000Y320512D02*
D03*
Y309488D02*
D03*
X209500Y337988D02*
D03*
Y349012D02*
D03*
D98*
X218595Y292000D02*
D03*
X199500D02*
D03*
D99*
X173921Y337622D02*
D03*
X165260D02*
D03*
X156598D02*
D03*
X144000Y337622D02*
D03*
X173921Y314000D02*
D03*
X165260D02*
D03*
X156598D02*
D03*
X144000D02*
D03*
X115921Y337622D02*
D03*
X107260D02*
D03*
X98598D02*
D03*
X86000Y337622D02*
D03*
X115921Y314000D02*
D03*
X107260D02*
D03*
X98598D02*
D03*
X86000D02*
D03*
D100*
X195874Y413260D02*
D03*
Y420740D02*
D03*
X188000Y417000D02*
D03*
X234063Y246740D02*
D03*
Y239260D02*
D03*
X241937Y243000D02*
D03*
X126063Y338740D02*
D03*
Y331260D02*
D03*
X133937Y335000D02*
D03*
X537937Y377260D02*
D03*
Y384740D02*
D03*
X530063Y381000D02*
D03*
X311937Y407000D02*
D03*
X304063Y403260D02*
D03*
Y410740D02*
D03*
D101*
X89000Y241898D02*
D03*
Y248000D02*
D03*
X107000Y241898D02*
D03*
Y248000D02*
D03*
X161000Y241898D02*
D03*
Y248000D02*
D03*
X179000Y242000D02*
D03*
Y248102D02*
D03*
X71000Y242000D02*
D03*
Y248102D02*
D03*
X125000Y241898D02*
D03*
Y248000D02*
D03*
X143000Y241898D02*
D03*
Y248000D02*
D03*
D102*
X263000Y62000D02*
D03*
X243709D02*
D03*
X274000Y93000D02*
D03*
X254709D02*
D03*
X274000Y78000D02*
D03*
X254709D02*
D03*
X274000Y108000D02*
D03*
X254709D02*
D03*
X221291Y40000D02*
D03*
X202000D02*
D03*
X221646Y25000D02*
D03*
X202354D02*
D03*
X221291Y55000D02*
D03*
X202000D02*
D03*
X221291Y10000D02*
D03*
X202000D02*
D03*
X453354Y8000D02*
D03*
X472646D02*
D03*
X74000Y65000D02*
D03*
X93291D02*
D03*
D103*
X236000Y80988D02*
D03*
Y107012D02*
D03*
X116000Y107000D02*
D03*
Y80976D02*
D03*
D104*
X211012Y76000D02*
D03*
X184988D02*
D03*
X441000Y54000D02*
D03*
X467024D02*
D03*
D105*
X298024Y62000D02*
D03*
X287000D02*
D03*
X318000D02*
D03*
X306976D02*
D03*
X50000Y27000D02*
D03*
X38976D02*
D03*
X561024Y28000D02*
D03*
X550000D02*
D03*
D106*
X69512Y30000D02*
D03*
X108488D02*
D03*
D107*
X118000Y382059D02*
D03*
Y351941D02*
D03*
D108*
X89776Y364000D02*
D03*
X74224D02*
D03*
D109*
X396358Y434500D02*
D03*
Y429500D02*
D03*
Y424500D02*
D03*
Y439500D02*
D03*
X417858D02*
D03*
Y424500D02*
D03*
Y429500D02*
D03*
Y434500D02*
D03*
D110*
X410000Y432000D02*
D03*
D111*
X452000Y329000D02*
D03*
X430346D02*
D03*
Y341598D02*
D03*
X452000D02*
D03*
D112*
X474370Y343500D02*
D03*
Y338500D02*
D03*
Y333500D02*
D03*
Y328500D02*
D03*
X495630Y343500D02*
D03*
Y338500D02*
D03*
Y333500D02*
D03*
Y328500D02*
D03*
D113*
X465000Y482500D02*
D03*
Y492500D02*
D03*
X179000Y295000D02*
D03*
Y285000D02*
D03*
X537000Y492000D02*
D03*
X527000D02*
D03*
X237000Y423000D02*
D03*
X247000D02*
D03*
X237000Y411000D02*
D03*
X247000D02*
D03*
X215000Y423000D02*
D03*
X225000D02*
D03*
X215000Y411000D02*
D03*
X225000D02*
D03*
X63000Y347000D02*
D03*
X73000D02*
D03*
X71000Y285000D02*
D03*
Y295000D02*
D03*
X125000Y285000D02*
D03*
Y295000D02*
D03*
X143000Y285000D02*
D03*
Y295000D02*
D03*
X89000Y285000D02*
D03*
Y295000D02*
D03*
X107000Y285000D02*
D03*
Y295000D02*
D03*
X161000Y285000D02*
D03*
Y295000D02*
D03*
X459000Y358000D02*
D03*
Y368000D02*
D03*
X471000Y358000D02*
D03*
Y368000D02*
D03*
X483000Y358000D02*
D03*
Y368000D02*
D03*
D114*
X550200Y470100D02*
D03*
Y481900D02*
D03*
Y50000D02*
D03*
X562000D02*
D03*
X294100Y49800D02*
D03*
X305900D02*
D03*
X294100Y38000D02*
D03*
X305900D02*
D03*
X49800Y390900D02*
D03*
Y379100D02*
D03*
X38000D02*
D03*
Y390900D02*
D03*
Y414500D02*
D03*
Y402700D02*
D03*
X49800D02*
D03*
Y414500D02*
D03*
X38000Y251000D02*
D03*
X49800D02*
D03*
X407700Y452200D02*
D03*
X395900D02*
D03*
Y464000D02*
D03*
X407700D02*
D03*
X289600Y452200D02*
D03*
X277800D02*
D03*
Y464000D02*
D03*
X289600D02*
D03*
X384100D02*
D03*
X301400D02*
D03*
Y452200D02*
D03*
X313200D02*
D03*
X313000Y464000D02*
D03*
X372200D02*
D03*
X336800D02*
D03*
X348600D02*
D03*
X325000D02*
D03*
X360400D02*
D03*
Y452200D02*
D03*
X325000D02*
D03*
X348600D02*
D03*
X336800D02*
D03*
X372200D02*
D03*
X384100D02*
D03*
X441000Y463000D02*
D03*
Y451200D02*
D03*
X562000Y481900D02*
D03*
Y470100D02*
D03*
X215400Y450200D02*
D03*
X203600D02*
D03*
Y462000D02*
D03*
X215400D02*
D03*
X239000D02*
D03*
X227200D02*
D03*
Y450200D02*
D03*
X239000D02*
D03*
X49800Y49000D02*
D03*
X38000D02*
D03*
X550200Y300000D02*
D03*
X562000D02*
D03*
X49800Y347000D02*
D03*
X38000D02*
D03*
X49800Y283000D02*
D03*
X38000D02*
D03*
X49800Y315000D02*
D03*
X38000D02*
D03*
X76000Y450200D02*
D03*
Y462000D02*
D03*
X49800Y482000D02*
D03*
Y470200D02*
D03*
X38000D02*
D03*
Y482000D02*
D03*
Y458400D02*
D03*
Y446600D02*
D03*
X49800D02*
D03*
Y458400D02*
D03*
X550200Y426600D02*
D03*
Y438400D02*
D03*
X562000D02*
D03*
Y426600D02*
D03*
Y332100D02*
D03*
Y414800D02*
D03*
X550200D02*
D03*
Y403000D02*
D03*
X562000Y403200D02*
D03*
Y344000D02*
D03*
Y379400D02*
D03*
Y367600D02*
D03*
Y391200D02*
D03*
Y355800D02*
D03*
X550200D02*
D03*
Y391200D02*
D03*
Y367600D02*
D03*
Y379400D02*
D03*
Y344000D02*
D03*
Y332100D02*
D03*
D115*
X288000Y86000D02*
D03*
Y76000D02*
D03*
X298000Y86000D02*
D03*
Y76000D02*
D03*
X308000Y86000D02*
D03*
Y76000D02*
D03*
X318000Y86000D02*
D03*
Y76000D02*
D03*
X328000Y86000D02*
D03*
Y76000D02*
D03*
X338000Y86000D02*
D03*
Y76000D02*
D03*
X348000Y86000D02*
D03*
Y76000D02*
D03*
X358000Y86000D02*
D03*
Y76000D02*
D03*
X368000Y86000D02*
D03*
Y76000D02*
D03*
X378000Y86000D02*
D03*
Y76000D02*
D03*
X388000Y86000D02*
D03*
Y76000D02*
D03*
X398000Y86000D02*
D03*
Y76000D02*
D03*
X408000Y86000D02*
D03*
Y76000D02*
D03*
X418000Y86000D02*
D03*
Y76000D02*
D03*
X428000Y86000D02*
D03*
Y76000D02*
D03*
X438000Y86000D02*
D03*
Y76000D02*
D03*
X448000Y86000D02*
D03*
Y76000D02*
D03*
X458000Y86000D02*
D03*
Y76000D02*
D03*
X468000Y86000D02*
D03*
Y76000D02*
D03*
X478000Y86000D02*
D03*
Y76000D02*
D03*
X488000Y86000D02*
D03*
Y76000D02*
D03*
X498000Y86000D02*
D03*
Y76000D02*
D03*
X508000Y86000D02*
D03*
Y276000D02*
D03*
X498000Y266000D02*
D03*
Y276000D02*
D03*
X488000Y266000D02*
D03*
Y276000D02*
D03*
X478000Y266000D02*
D03*
Y276000D02*
D03*
X468000Y266000D02*
D03*
Y276000D02*
D03*
X458000Y266000D02*
D03*
Y276000D02*
D03*
X448000Y266000D02*
D03*
Y276000D02*
D03*
X438000Y266000D02*
D03*
Y276000D02*
D03*
X428000Y266000D02*
D03*
Y276000D02*
D03*
X418000Y266000D02*
D03*
Y276000D02*
D03*
X408000Y266000D02*
D03*
Y276000D02*
D03*
X398000Y266000D02*
D03*
Y276000D02*
D03*
X388000Y266000D02*
D03*
Y276000D02*
D03*
X378000Y266000D02*
D03*
Y276000D02*
D03*
X368000Y266000D02*
D03*
Y276000D02*
D03*
X358000Y266000D02*
D03*
Y276000D02*
D03*
X348000Y266000D02*
D03*
Y276000D02*
D03*
X338000Y266000D02*
D03*
Y276000D02*
D03*
X328000Y266000D02*
D03*
Y276000D02*
D03*
X318000Y266000D02*
D03*
Y276000D02*
D03*
X308000Y266000D02*
D03*
Y276000D02*
D03*
X298000Y266000D02*
D03*
Y276000D02*
D03*
X288000Y266000D02*
D03*
Y276000D02*
D03*
D116*
X508000Y76000D02*
D03*
Y266000D02*
D03*
D117*
X123500Y436000D02*
D03*
X153000Y423480D02*
D03*
X123500D02*
D03*
X153000Y436000D02*
D03*
D118*
X104799Y487693D02*
D03*
X171701D02*
D03*
D119*
X579000Y50000D02*
D03*
X300000Y21000D02*
D03*
X21000Y387500D02*
D03*
Y406000D02*
D03*
Y251000D02*
D03*
X286200Y481000D02*
D03*
X399200D02*
D03*
X441000Y480000D02*
D03*
X579000Y476000D02*
D03*
X212000Y479000D02*
D03*
X230500D02*
D03*
X21000Y49000D02*
D03*
X579000Y300000D02*
D03*
X21000Y347000D02*
D03*
Y283000D02*
D03*
Y315000D02*
D03*
X76000Y479000D02*
D03*
X21000Y473500D02*
D03*
Y455000D02*
D03*
X579000Y430000D02*
D03*
Y340600D02*
D03*
D120*
X505000Y401000D02*
D03*
X20000Y18000D02*
D03*
X580000Y20000D02*
D03*
X99500Y399500D02*
D03*
D121*
X212000Y25000D02*
D03*
D122*
X65500Y426000D02*
D03*
Y387000D02*
D03*
X79000D02*
D03*
Y426000D02*
D03*
X196000Y395500D02*
D03*
X235000D02*
D03*
Y382000D02*
D03*
X196000D02*
D03*
D123*
X484000Y495450D02*
D03*
X506500Y476500D02*
D03*
X450768Y431000D02*
D03*
Y441000D02*
D03*
X193000Y7250D02*
D03*
X165000Y51000D02*
D03*
X305000Y359250D02*
D03*
X237000D02*
D03*
X262000D02*
D03*
X314000Y362500D02*
D03*
X295500Y368500D02*
D03*
X323000Y324000D02*
D03*
X308000Y322500D02*
D03*
X477000Y43000D02*
D03*
X121000Y11500D02*
D03*
X186500Y58500D02*
D03*
X506952Y470952D02*
D03*
X476000Y478000D02*
D03*
X188500Y293500D02*
D03*
X201500Y329500D02*
D03*
X191500Y336500D02*
D03*
X211000Y330500D02*
D03*
X389000Y205000D02*
D03*
X374500Y203500D02*
D03*
X381000Y219000D02*
D03*
X260000Y270500D02*
D03*
X274000D02*
D03*
X224263Y317263D02*
D03*
X213000Y270500D02*
D03*
X310000Y310000D02*
D03*
X314500Y317500D02*
D03*
X302452Y315548D02*
D03*
X364000Y334000D02*
D03*
X306500Y293500D02*
D03*
X169500Y344000D02*
D03*
X183500Y366500D02*
D03*
X267000Y270500D02*
D03*
X286000Y218000D02*
D03*
X256000Y369000D02*
D03*
X505030Y98680D02*
D03*
X502500Y136500D02*
D03*
X498000Y156000D02*
D03*
X494250Y225509D02*
D03*
X499000Y150000D02*
D03*
X492500Y230500D02*
D03*
X486500Y167500D02*
D03*
X531202Y259298D02*
D03*
X525000Y259500D02*
D03*
X511500Y246000D02*
D03*
X344500Y155000D02*
D03*
X496000Y102000D02*
D03*
X489500D02*
D03*
X519000Y89000D02*
D03*
X495500Y250000D02*
D03*
X428500Y107000D02*
D03*
X412000D02*
D03*
X420000D02*
D03*
X435500D02*
D03*
X449500Y121000D02*
D03*
X514500Y254500D02*
D03*
X483000Y177500D02*
D03*
X478000Y186500D02*
D03*
X473000Y180500D02*
D03*
X467500Y187000D02*
D03*
X463500Y200000D02*
D03*
X573000Y230500D02*
D03*
X562250Y273000D02*
D03*
X565500Y231000D02*
D03*
X591500Y236500D02*
D03*
X587500Y242000D02*
D03*
X581500Y246000D02*
D03*
X578000Y252000D02*
D03*
X335000Y150000D02*
D03*
X536719Y324310D02*
D03*
X537000Y331000D02*
D03*
X369000Y187000D02*
D03*
X359000Y176500D02*
D03*
X364000Y133500D02*
D03*
X354000Y165500D02*
D03*
X329000Y178000D02*
D03*
X334500Y97000D02*
D03*
X319000Y184000D02*
D03*
X451000Y220000D02*
D03*
X402500D02*
D03*
X396532Y124469D02*
D03*
X364000Y97000D02*
D03*
X354000Y96000D02*
D03*
X344547D02*
D03*
X394500Y226000D02*
D03*
X522500Y286500D02*
D03*
X512000D02*
D03*
X459000Y19000D02*
D03*
X440000Y13000D02*
D03*
X428000Y6000D02*
D03*
X431000Y57000D02*
D03*
X286000Y110000D02*
D03*
Y99000D02*
D03*
X252000Y122000D02*
D03*
X483000Y389000D02*
D03*
X510000Y381000D02*
D03*
X482000Y455000D02*
D03*
X504000Y373000D02*
D03*
X269000Y382000D02*
D03*
X412000Y313000D02*
D03*
X179000Y94000D02*
D03*
X508000Y464000D02*
D03*
X392000Y348000D02*
D03*
X365000Y345063D02*
D03*
X381000Y347000D02*
D03*
X504000Y458000D02*
D03*
X508000Y357000D02*
D03*
X486000Y448000D02*
D03*
X493000Y416000D02*
D03*
X414500Y474500D02*
D03*
X414000Y482000D02*
D03*
X373000Y412286D02*
D03*
X430000Y308000D02*
D03*
X465000Y292000D02*
D03*
X468744Y311000D02*
D03*
X411000Y336000D02*
D03*
X417000Y330000D02*
D03*
X502000Y450000D02*
D03*
X481000Y467000D02*
D03*
X485000Y476000D02*
D03*
X470000Y416000D02*
D03*
X505000Y317785D02*
D03*
X454000Y391518D02*
D03*
X453000Y384000D02*
D03*
X445000Y391000D02*
D03*
X476000Y389000D02*
D03*
X465000Y390000D02*
D03*
X488000Y340000D02*
D03*
X481000Y321000D02*
D03*
X389000Y295000D02*
D03*
X387000Y309000D02*
D03*
X445000Y436000D02*
D03*
X444000Y287000D02*
D03*
X418000Y466000D02*
D03*
X419000Y450000D02*
D03*
X420000Y415000D02*
D03*
X399000Y390000D02*
D03*
X408000D02*
D03*
X416000D02*
D03*
X437000Y391000D02*
D03*
X344000Y288000D02*
D03*
X357000Y345000D02*
D03*
X347000Y339000D02*
D03*
X352000Y354000D02*
D03*
X347500Y347260D02*
D03*
X340000Y341000D02*
D03*
X212000Y248000D02*
D03*
X409000Y250000D02*
D03*
X417000Y317839D02*
D03*
X402000Y339000D02*
D03*
X413000Y306000D02*
D03*
X386918Y327000D02*
D03*
X370000Y314000D02*
D03*
X411000Y299000D02*
D03*
X387000Y319000D02*
D03*
X404293Y297000D02*
D03*
X365000Y319000D02*
D03*
X368000Y327000D02*
D03*
X247000Y377000D02*
D03*
X334500Y347063D02*
D03*
X297677Y397071D02*
D03*
X261000Y386000D02*
D03*
X190000Y473000D02*
D03*
X19000Y422000D02*
D03*
X7000Y425000D02*
D03*
X200000Y407000D02*
D03*
X95000Y324000D02*
D03*
X401000Y418000D02*
D03*
X398000Y359000D02*
D03*
X494000Y321000D02*
D03*
X487000Y329000D02*
D03*
X11000Y140000D02*
D03*
X12000Y207000D02*
D03*
X394000Y61000D02*
D03*
X150000Y343000D02*
D03*
X312740Y355882D02*
D03*
X250000Y455000D02*
D03*
X196000Y435000D02*
D03*
X135000Y313000D02*
D03*
X50000Y336000D02*
D03*
X425000Y33000D02*
D03*
X225000Y71000D02*
D03*
X172000Y108000D02*
D03*
X136000Y53000D02*
D03*
X120000Y43000D02*
D03*
X188000Y257000D02*
D03*
X170000D02*
D03*
X152000D02*
D03*
X134000D02*
D03*
X116000D02*
D03*
X98000D02*
D03*
X80000D02*
D03*
X56000Y107000D02*
D03*
X60000Y69000D02*
D03*
X274000Y61000D02*
D03*
M02*
