G04*
G04 #@! TF.GenerationSoftware,Altium Limited,Altium Designer,23.1.1 (15)*
G04*
G04 Layer_Physical_Order=2*
G04 Layer_Color=32768*
%FSLAX25Y25*%
%MOIN*%
G70*
G04*
G04 #@! TF.SameCoordinates,19538D7C-5156-4110-B39B-F750BC4F8D1F*
G04*
G04*
G04 #@! TF.FilePolarity,Negative*
G04*
G01*
G75*
%ADD11C,0.00787*%
%ADD14C,0.01000*%
%ADD19C,0.00394*%
%ADD20C,0.00197*%
%ADD114C,0.08000*%
%ADD115C,0.07000*%
%ADD121C,0.04000*%
%ADD122C,0.08016*%
G04:AMPARAMS|DCode=123|XSize=100.157mil|YSize=100.157mil|CornerRadius=0mil|HoleSize=0mil|Usage=FLASHONLY|Rotation=0.000|XOffset=0mil|YOffset=0mil|HoleType=Round|Shape=Relief|Width=10mil|Gap=10mil|Entries=4|*
%AMTHD123*
7,0,0,0.10016,0.08016,0.01000,45*
%
%ADD123THD123*%
%ADD124C,0.16598*%
%ADD125C,0.15811*%
G04:AMPARAMS|DCode=126|XSize=130.079mil|YSize=130.079mil|CornerRadius=0mil|HoleSize=0mil|Usage=FLASHONLY|Rotation=0.000|XOffset=0mil|YOffset=0mil|HoleType=Round|Shape=Relief|Width=10mil|Gap=10mil|Entries=4|*
%AMTHD126*
7,0,0,0.13008,0.11008,0.01000,45*
%
%ADD126THD126*%
%ADD127C,0.11008*%
%ADD128C,0.13488*%
%ADD129C,0.10300*%
G04:AMPARAMS|DCode=130|XSize=100mil|YSize=100mil|CornerRadius=0mil|HoleSize=0mil|Usage=FLASHONLY|Rotation=0.000|XOffset=0mil|YOffset=0mil|HoleType=Round|Shape=Relief|Width=10mil|Gap=10mil|Entries=4|*
%AMTHD130*
7,0,0,0.10000,0.08000,0.01000,45*
%
%ADD130THD130*%
%ADD131C,0.15600*%
%ADD132C,0.07937*%
G04:AMPARAMS|DCode=133|XSize=99.37mil|YSize=99.37mil|CornerRadius=0mil|HoleSize=0mil|Usage=FLASHONLY|Rotation=0.000|XOffset=0mil|YOffset=0mil|HoleType=Round|Shape=Relief|Width=10mil|Gap=10mil|Entries=4|*
%AMTHD133*
7,0,0,0.09937,0.07937,0.01000,45*
%
%ADD133THD133*%
G04:AMPARAMS|DCode=134|XSize=90mil|YSize=90mil|CornerRadius=0mil|HoleSize=0mil|Usage=FLASHONLY|Rotation=0.000|XOffset=0mil|YOffset=0mil|HoleType=Round|Shape=Relief|Width=10mil|Gap=10mil|Entries=4|*
%AMTHD134*
7,0,0,0.09000,0.07000,0.01000,45*
%
%ADD134THD134*%
%ADD135C,0.05500*%
G04:AMPARAMS|DCode=136|XSize=75mil|YSize=75mil|CornerRadius=0mil|HoleSize=0mil|Usage=FLASHONLY|Rotation=0.000|XOffset=0mil|YOffset=0mil|HoleType=Round|Shape=Relief|Width=10mil|Gap=10mil|Entries=4|*
%AMTHD136*
7,0,0,0.07500,0.05500,0.01000,45*
%
%ADD136THD136*%
D11*
X148575Y460724D02*
X178496D01*
X148575D02*
Y498008D01*
X178496D01*
Y460724D02*
Y498008D01*
X635831Y398228D02*
Y428150D01*
X673114D01*
Y398228D02*
Y428150D01*
X635831Y398228D02*
X673114D01*
X637630Y74728D02*
X674913D01*
Y116461D01*
X637630D02*
X674913D01*
X637630Y74728D02*
Y116461D01*
X193887Y387032D02*
X210447D01*
Y373646D02*
Y387032D01*
X193887Y373646D02*
X210447D01*
X193887D02*
Y387032D01*
X39181Y103728D02*
Y145461D01*
X1898Y103728D02*
X39181D01*
X1898D02*
Y145461D01*
X39181D01*
X606350Y42886D02*
Y80169D01*
Y42886D02*
X636272D01*
Y80169D01*
X606350D02*
X636272D01*
X229220Y396307D02*
Y409693D01*
Y396307D02*
X245780D01*
Y409693D01*
X229220D02*
X245780D01*
X149720Y373807D02*
Y387193D01*
Y373807D02*
X166280D01*
Y387193D01*
X149720D02*
X166280D01*
X2898Y205961D02*
X40181D01*
X2898Y176039D02*
Y205961D01*
Y176039D02*
X40181D01*
Y205961D01*
X2898Y237461D02*
X40181D01*
X2898Y207539D02*
Y237461D01*
Y207539D02*
X40181D01*
Y237461D01*
X2898Y268961D02*
X40181D01*
X2898Y239039D02*
Y268961D01*
Y239039D02*
X40181D01*
Y268961D01*
X139789Y43398D02*
Y80681D01*
Y43398D02*
X169711D01*
Y80681D01*
X139789D02*
X169711D01*
X71289Y43398D02*
Y80681D01*
Y43398D02*
X101211D01*
Y80681D01*
X71289D02*
X101211D01*
X174039Y43398D02*
Y80681D01*
Y43398D02*
X203961D01*
Y80681D01*
X174039D02*
X203961D01*
X37039Y79681D02*
X66961D01*
Y42398D02*
Y79681D01*
X37039Y42398D02*
X66961D01*
X37039D02*
Y79681D01*
X105539Y43398D02*
Y80681D01*
Y43398D02*
X135461D01*
Y80681D01*
X105539D02*
X135461D01*
X2898Y300461D02*
X40181D01*
X2898Y270539D02*
Y300461D01*
Y270539D02*
X40181D01*
Y300461D01*
D14*
X0Y500500D02*
X675000D01*
Y39000D02*
Y500500D01*
X0Y39000D02*
X675000D01*
X0D02*
Y500500D01*
D19*
X218000Y192532D02*
Y196468D01*
X216032Y194500D02*
X219969D01*
X220532Y323000D02*
X224468D01*
X222500Y321031D02*
Y324969D01*
D20*
X245138Y296031D02*
Y349969D01*
X199862Y296031D02*
Y349969D01*
X245138D01*
X199862Y296031D02*
X245138D01*
D114*
X332700Y470300D02*
D03*
X486200D02*
D03*
X403500Y474000D02*
D03*
X415300D02*
D03*
X391700D02*
D03*
X427100D02*
D03*
X391700Y485800D02*
D03*
X415300D02*
D03*
X403500D02*
D03*
X438900D02*
D03*
X379700D02*
D03*
X379900Y474000D02*
D03*
X368100D02*
D03*
Y485800D02*
D03*
X450800D02*
D03*
X356300D02*
D03*
X344500D02*
D03*
Y474000D02*
D03*
X356300D02*
D03*
X474400Y485800D02*
D03*
X462600D02*
D03*
X29700Y306300D02*
D03*
Y365300D02*
D03*
X26000Y353500D02*
D03*
X14200Y341700D02*
D03*
Y329900D02*
D03*
Y318100D02*
D03*
X208000Y474700D02*
D03*
X196200D02*
D03*
Y486500D02*
D03*
X208000D02*
D03*
X219800D02*
D03*
Y474700D02*
D03*
X231600D02*
D03*
X231400Y486500D02*
D03*
X243400Y471000D02*
D03*
X184400D02*
D03*
D115*
X258150Y478138D02*
D03*
X268150D02*
D03*
X278150D02*
D03*
X318150D02*
D03*
D121*
X675000Y39000D02*
Y500000D01*
X0D02*
X675000D01*
X0Y39000D02*
Y500000D01*
Y39000D02*
X675000D01*
D122*
X647500Y380500D02*
D03*
Y370500D02*
D03*
X637500Y380500D02*
D03*
Y370500D02*
D03*
X627500Y380500D02*
D03*
Y370500D02*
D03*
X617500Y380500D02*
D03*
Y370500D02*
D03*
X607500Y380500D02*
D03*
Y370500D02*
D03*
X597500Y380500D02*
D03*
Y370500D02*
D03*
X587500Y380500D02*
D03*
Y370500D02*
D03*
X577500Y380500D02*
D03*
Y370500D02*
D03*
X567500Y380500D02*
D03*
Y370500D02*
D03*
X557500Y380500D02*
D03*
Y370500D02*
D03*
X547500Y380500D02*
D03*
Y370500D02*
D03*
X537500Y380500D02*
D03*
Y370500D02*
D03*
X527500Y380500D02*
D03*
Y370500D02*
D03*
X517500Y380500D02*
D03*
Y370500D02*
D03*
X507500Y380500D02*
D03*
Y370500D02*
D03*
X497500Y380500D02*
D03*
Y370500D02*
D03*
X487500Y380500D02*
D03*
Y370500D02*
D03*
X477500Y380500D02*
D03*
Y370500D02*
D03*
X467500Y380500D02*
D03*
Y370500D02*
D03*
X457500Y380500D02*
D03*
Y370500D02*
D03*
X447500Y380500D02*
D03*
Y370500D02*
D03*
X437500Y380500D02*
D03*
Y370500D02*
D03*
X427500Y380500D02*
D03*
Y370500D02*
D03*
X417500Y380500D02*
D03*
Y370500D02*
D03*
X407500Y380500D02*
D03*
Y370500D02*
D03*
X397500Y380500D02*
D03*
Y370500D02*
D03*
X387500Y380500D02*
D03*
Y370500D02*
D03*
X377500Y380500D02*
D03*
Y370500D02*
D03*
X367500Y380500D02*
D03*
Y370500D02*
D03*
X357500Y380500D02*
D03*
Y370500D02*
D03*
X347500Y380500D02*
D03*
Y370500D02*
D03*
X337500Y380500D02*
D03*
Y370500D02*
D03*
X327500Y380500D02*
D03*
Y370500D02*
D03*
X317500Y380500D02*
D03*
Y370500D02*
D03*
X307500Y380500D02*
D03*
Y370500D02*
D03*
X647421Y140500D02*
D03*
Y130500D02*
D03*
X607500Y350500D02*
D03*
Y340500D02*
D03*
X597500Y350500D02*
D03*
Y340500D02*
D03*
X587500D02*
D03*
X577500Y350500D02*
D03*
Y340500D02*
D03*
X567500Y350500D02*
D03*
Y340500D02*
D03*
X557500D02*
D03*
X547500D02*
D03*
X537500Y350500D02*
D03*
Y340500D02*
D03*
X517500Y350500D02*
D03*
Y340500D02*
D03*
X507500Y350500D02*
D03*
Y340500D02*
D03*
X497500Y350500D02*
D03*
Y340500D02*
D03*
X487500Y350500D02*
D03*
Y340500D02*
D03*
X477500Y350500D02*
D03*
Y340500D02*
D03*
X467500Y350500D02*
D03*
X457500D02*
D03*
Y340500D02*
D03*
X447500Y350500D02*
D03*
Y340500D02*
D03*
X437500Y350500D02*
D03*
Y340500D02*
D03*
X427500Y350500D02*
D03*
Y340500D02*
D03*
X417500Y350500D02*
D03*
Y340500D02*
D03*
X407500D02*
D03*
X397500Y350500D02*
D03*
Y340500D02*
D03*
X387500Y350500D02*
D03*
Y340500D02*
D03*
X643500Y170500D02*
D03*
Y160500D02*
D03*
X537500Y170500D02*
D03*
Y160500D02*
D03*
X527500D02*
D03*
X517500D02*
D03*
X507500Y170500D02*
D03*
Y160500D02*
D03*
X497500Y170500D02*
D03*
Y160500D02*
D03*
X487500Y170500D02*
D03*
Y160500D02*
D03*
X477500Y170500D02*
D03*
Y160500D02*
D03*
X467500Y170500D02*
D03*
Y160500D02*
D03*
X457500D02*
D03*
X447500Y170500D02*
D03*
Y160500D02*
D03*
X437500Y170500D02*
D03*
X427500D02*
D03*
Y160500D02*
D03*
X417500Y170500D02*
D03*
Y160500D02*
D03*
X407500D02*
D03*
X397500Y170500D02*
D03*
Y160500D02*
D03*
X387500Y170500D02*
D03*
Y160500D02*
D03*
X297500Y380500D02*
D03*
Y370500D02*
D03*
X633500Y170500D02*
D03*
Y160500D02*
D03*
X623500Y170500D02*
D03*
Y160500D02*
D03*
X613500Y170500D02*
D03*
X603500D02*
D03*
Y160500D02*
D03*
X593500Y170500D02*
D03*
Y160500D02*
D03*
X583500Y170500D02*
D03*
Y160500D02*
D03*
X573500Y170500D02*
D03*
Y160500D02*
D03*
X563500Y170500D02*
D03*
Y160500D02*
D03*
X553500Y170500D02*
D03*
Y160500D02*
D03*
X377500Y350500D02*
D03*
Y340500D02*
D03*
Y170500D02*
D03*
Y160500D02*
D03*
X637421Y140500D02*
D03*
Y130500D02*
D03*
X627421Y140500D02*
D03*
Y130500D02*
D03*
X617421Y140500D02*
D03*
Y130500D02*
D03*
X607421Y140500D02*
D03*
Y130500D02*
D03*
X597421Y140500D02*
D03*
Y130500D02*
D03*
X587421Y140500D02*
D03*
Y130500D02*
D03*
X577421Y140500D02*
D03*
Y130500D02*
D03*
X567421Y140500D02*
D03*
Y130500D02*
D03*
X557421Y140500D02*
D03*
Y130500D02*
D03*
X547421Y140500D02*
D03*
Y130500D02*
D03*
X537421Y140500D02*
D03*
Y130500D02*
D03*
X527421Y140500D02*
D03*
Y130500D02*
D03*
X517421Y140500D02*
D03*
Y130500D02*
D03*
X507421Y140500D02*
D03*
Y130500D02*
D03*
X497421Y140500D02*
D03*
Y130500D02*
D03*
X487421Y140500D02*
D03*
Y130500D02*
D03*
X477421Y140500D02*
D03*
Y130500D02*
D03*
X467421Y140500D02*
D03*
Y130500D02*
D03*
X457421Y140500D02*
D03*
Y130500D02*
D03*
X447421Y140500D02*
D03*
Y130500D02*
D03*
X437421Y140500D02*
D03*
Y130500D02*
D03*
X427421Y140500D02*
D03*
Y130500D02*
D03*
X417421Y140500D02*
D03*
Y130500D02*
D03*
X407421Y140500D02*
D03*
Y130500D02*
D03*
X397421Y140500D02*
D03*
Y130500D02*
D03*
X387421Y140500D02*
D03*
Y130500D02*
D03*
X377421Y140500D02*
D03*
Y130500D02*
D03*
X367421Y140500D02*
D03*
Y130500D02*
D03*
X357421Y140500D02*
D03*
Y130500D02*
D03*
X347421Y140500D02*
D03*
Y130500D02*
D03*
X337421Y140500D02*
D03*
Y130500D02*
D03*
X327421Y140500D02*
D03*
Y130500D02*
D03*
X317421Y140500D02*
D03*
Y130500D02*
D03*
X307421Y140500D02*
D03*
Y130500D02*
D03*
X297421Y140500D02*
D03*
Y130500D02*
D03*
X163535Y486905D02*
D03*
Y475095D02*
D03*
X175347Y471394D02*
D03*
X151724D02*
D03*
X662012Y413189D02*
D03*
X646500Y401378D02*
D03*
Y425000D02*
D03*
X601622Y51799D02*
D03*
X554378D02*
D03*
X589811Y55500D02*
D03*
Y67311D02*
D03*
X578000D02*
D03*
X566189D02*
D03*
X648299Y77878D02*
D03*
Y113311D02*
D03*
X652000Y89689D02*
D03*
Y101500D02*
D03*
X663811D02*
D03*
X13000Y118689D02*
D03*
Y130500D02*
D03*
X24811Y118689D02*
D03*
Y130500D02*
D03*
X28512Y106878D02*
D03*
Y142311D02*
D03*
X633122Y69500D02*
D03*
X609500D02*
D03*
X621311Y65799D02*
D03*
Y53988D02*
D03*
X29512Y179189D02*
D03*
Y202811D02*
D03*
X25811Y191000D02*
D03*
X14000D02*
D03*
X29512Y210689D02*
D03*
Y234311D02*
D03*
X25811Y222500D02*
D03*
X14000D02*
D03*
X29512Y242189D02*
D03*
Y265811D02*
D03*
X25811Y254000D02*
D03*
X14000D02*
D03*
X166561Y70012D02*
D03*
X142939D02*
D03*
X154750Y54500D02*
D03*
X98061Y70012D02*
D03*
X74439D02*
D03*
X86250Y54500D02*
D03*
X200811Y70012D02*
D03*
X177189D02*
D03*
X189000Y54500D02*
D03*
X52000Y53500D02*
D03*
X40189Y69012D02*
D03*
X63811D02*
D03*
X132311Y70012D02*
D03*
X108689D02*
D03*
X120500Y54500D02*
D03*
X29512Y273689D02*
D03*
Y297311D02*
D03*
X25811Y285500D02*
D03*
X14000D02*
D03*
D123*
X587500Y350500D02*
D03*
X557500D02*
D03*
X547500D02*
D03*
X467500Y340500D02*
D03*
X407500Y350500D02*
D03*
X527500Y170500D02*
D03*
X517500D02*
D03*
X457500D02*
D03*
X437500Y160500D02*
D03*
X407500Y170500D02*
D03*
X613500Y160500D02*
D03*
X650201Y413189D02*
D03*
X578000Y55500D02*
D03*
X566189D02*
D03*
X663811Y89689D02*
D03*
X154750Y66311D02*
D03*
X86250D02*
D03*
X189000D02*
D03*
X52000Y65311D02*
D03*
X120500Y66311D02*
D03*
D124*
X362500Y345500D02*
D03*
Y165500D02*
D03*
X657500Y160500D02*
D03*
X457500Y220500D02*
D03*
X662500Y350500D02*
D03*
D125*
X120984Y422799D02*
D03*
Y489701D02*
D03*
X59504Y422799D02*
D03*
Y489701D02*
D03*
D126*
X107480Y441500D02*
D03*
X120000D02*
D03*
X46000D02*
D03*
X58520D02*
D03*
D127*
X107480Y471000D02*
D03*
X120000D02*
D03*
X46000D02*
D03*
X58520D02*
D03*
D128*
X172000Y481000D02*
D03*
X155071D02*
D03*
X656106Y404724D02*
D03*
Y421654D02*
D03*
X598276Y61405D02*
D03*
X557724D02*
D03*
X657905Y109965D02*
D03*
Y81224D02*
D03*
X18905Y138965D02*
D03*
Y110224D02*
D03*
X629776Y59894D02*
D03*
X612847D02*
D03*
X19906Y182535D02*
D03*
Y199465D02*
D03*
Y214035D02*
D03*
Y230965D02*
D03*
Y245535D02*
D03*
Y262465D02*
D03*
X163215Y60405D02*
D03*
X146285D02*
D03*
X94715D02*
D03*
X77785D02*
D03*
X197465D02*
D03*
X180535D02*
D03*
X43535Y59405D02*
D03*
X60465D02*
D03*
X128965Y60405D02*
D03*
X112035D02*
D03*
X19906Y277035D02*
D03*
Y293965D02*
D03*
D129*
X9000Y461000D02*
D03*
Y422000D02*
D03*
X22500D02*
D03*
Y461000D02*
D03*
X149000Y361000D02*
D03*
X188000D02*
D03*
Y347500D02*
D03*
X149000D02*
D03*
D130*
X450800Y474000D02*
D03*
X438900D02*
D03*
X427100Y485800D02*
D03*
X462600Y474000D02*
D03*
X474400D02*
D03*
X14200Y353300D02*
D03*
X26000Y341700D02*
D03*
Y318100D02*
D03*
Y329900D02*
D03*
D131*
X662500Y487500D02*
D03*
X12500D02*
D03*
X13000Y53000D02*
D03*
X661500D02*
D03*
D132*
X664500Y453500D02*
D03*
Y463500D02*
D03*
X298500Y440000D02*
D03*
Y460000D02*
D03*
X268500Y440000D02*
D03*
X268000Y460000D02*
D03*
X344000Y68000D02*
D03*
Y58000D02*
D03*
X96500Y232000D02*
D03*
Y222000D02*
D03*
X499500Y56500D02*
D03*
Y46500D02*
D03*
X119500Y222000D02*
D03*
Y232000D02*
D03*
X26500Y162500D02*
D03*
X16500D02*
D03*
X184500Y232000D02*
D03*
Y222000D02*
D03*
X166000Y232000D02*
D03*
Y222000D02*
D03*
X77667Y232000D02*
D03*
Y222000D02*
D03*
X56000Y232000D02*
D03*
Y222000D02*
D03*
X141000Y232000D02*
D03*
Y222000D02*
D03*
X602000Y88500D02*
D03*
Y98500D02*
D03*
X649000Y463000D02*
D03*
Y453000D02*
D03*
D133*
X308500Y440000D02*
D03*
Y460000D02*
D03*
X278500Y440000D02*
D03*
X278000Y460000D02*
D03*
D134*
X308150Y478138D02*
D03*
D135*
X336500Y425500D02*
D03*
X254750Y361750D02*
D03*
X254250Y342750D02*
D03*
X148500Y422500D02*
D03*
X141500Y416000D02*
D03*
X148500D02*
D03*
X141500Y422500D02*
D03*
X280000Y385500D02*
D03*
X298000Y393000D02*
D03*
X238000Y393500D02*
D03*
X269500D02*
D03*
X231500D02*
D03*
X254500D02*
D03*
X135000Y306799D02*
D03*
X237500Y418500D02*
D03*
X288000Y408500D02*
D03*
X102000Y311000D02*
D03*
X164500Y314299D02*
D03*
X288000Y302500D02*
D03*
X91000Y296000D02*
D03*
X212000Y303000D02*
D03*
X342500Y400500D02*
D03*
X379500Y405000D02*
D03*
X211500Y373500D02*
D03*
X268750Y374250D02*
D03*
X252000Y374000D02*
D03*
X291500Y419000D02*
D03*
X305500Y422000D02*
D03*
X279500Y426000D02*
D03*
X298500Y414500D02*
D03*
X243500Y431000D02*
D03*
X292500Y348000D02*
D03*
X228500Y466000D02*
D03*
X237500Y461500D02*
D03*
X259500Y446500D02*
D03*
X221500Y449500D02*
D03*
X198500Y460000D02*
D03*
X172000Y451000D02*
D03*
X169000Y434500D02*
D03*
X150500Y431000D02*
D03*
X161500Y430000D02*
D03*
X167500Y466500D02*
D03*
X182000Y435000D02*
D03*
X183500Y415000D02*
D03*
X184500Y401500D02*
D03*
X175386Y414437D02*
D03*
X206500Y402000D02*
D03*
X194000Y440000D02*
D03*
X222571Y411406D02*
D03*
X223000Y390000D02*
D03*
X226000Y404500D02*
D03*
X258000Y379500D02*
D03*
X251000Y431000D02*
D03*
X237500Y309500D02*
D03*
X268750Y330250D02*
D03*
X208500Y348500D02*
D03*
X601000Y420000D02*
D03*
X591000Y409500D02*
D03*
X584000Y405500D02*
D03*
X175500Y463000D02*
D03*
X276000Y358000D02*
D03*
X283500Y352501D02*
D03*
X42500Y180000D02*
D03*
X174000Y339500D02*
D03*
X303000Y324750D02*
D03*
X170000Y374000D02*
D03*
Y379500D02*
D03*
X402000Y360500D02*
D03*
X106500Y344500D02*
D03*
X175500Y393000D02*
D03*
X188500Y381500D02*
D03*
X413000Y44500D02*
D03*
X422500Y72000D02*
D03*
X391500Y89000D02*
D03*
X220000Y43000D02*
D03*
X230500Y46000D02*
D03*
X579500Y489000D02*
D03*
X572500Y484500D02*
D03*
X566000Y479000D02*
D03*
X585000Y415000D02*
D03*
X474000Y418000D02*
D03*
X529500Y323000D02*
D03*
X552500Y323500D02*
D03*
X622000Y108500D02*
D03*
X663000Y362500D02*
D03*
X632000Y330500D02*
D03*
X624420Y442546D02*
D03*
X542500Y335000D02*
D03*
X609000Y242000D02*
D03*
X541500Y447000D02*
D03*
X588000Y478500D02*
D03*
X379500Y462000D02*
D03*
X327500D02*
D03*
X592500Y375500D02*
D03*
X394500Y409000D02*
D03*
X318500Y469500D02*
D03*
X523000Y420000D02*
D03*
X523250Y451250D02*
D03*
X552000Y435500D02*
D03*
X545500D02*
D03*
X558000D02*
D03*
X519000Y431500D02*
D03*
Y492000D02*
D03*
X514000Y496500D02*
D03*
X514500Y426000D02*
D03*
X501000Y490000D02*
D03*
X538500Y435500D02*
D03*
X423500Y330500D02*
D03*
X276000Y379500D02*
D03*
X212250Y379059D02*
D03*
X327500Y289000D02*
D03*
X47000Y292500D02*
D03*
X130000Y179000D02*
D03*
X249500Y61115D02*
D03*
X423000Y209500D02*
D03*
X342000Y210000D02*
D03*
Y158500D02*
D03*
X174500Y158000D02*
D03*
X214313Y84707D02*
D03*
X205000Y105000D02*
D03*
X173500D02*
D03*
X639500Y89000D02*
D03*
X632000D02*
D03*
X624500Y463500D02*
D03*
X135000Y118000D02*
D03*
X261500Y137000D02*
D03*
X290000Y142500D02*
D03*
X52000Y131000D02*
D03*
X267000Y123000D02*
D03*
Y131000D02*
D03*
X260000Y127500D02*
D03*
X443000Y44500D02*
D03*
X382500Y76000D02*
D03*
X490000D02*
D03*
X489500Y89000D02*
D03*
X545500Y114000D02*
D03*
X562500Y98500D02*
D03*
X364000Y96500D02*
D03*
X562500Y89000D02*
D03*
X364000Y90500D02*
D03*
X372500Y106000D02*
D03*
X347500Y193000D02*
D03*
Y163000D02*
D03*
X613000Y80500D02*
D03*
X552500Y103000D02*
D03*
X463500Y68000D02*
D03*
X213000Y198500D02*
D03*
X202500Y393500D02*
D03*
X68500Y303500D02*
D03*
X70000Y133500D02*
D03*
X92000Y109000D02*
D03*
X104500Y132000D02*
D03*
X124000Y109000D02*
D03*
X246000Y102500D02*
D03*
X253500Y80000D02*
D03*
X243000Y79500D02*
D03*
X323000Y85000D02*
D03*
X489500Y401000D02*
D03*
X441500Y448500D02*
D03*
X491000Y445000D02*
D03*
X66000Y179000D02*
D03*
X45000Y163000D02*
D03*
X466000Y401000D02*
D03*
X582500Y356500D02*
D03*
X506000Y445000D02*
D03*
X426047Y398047D02*
D03*
X442095Y398095D02*
D03*
X400500Y431000D02*
D03*
X374500D02*
D03*
X455500Y444500D02*
D03*
X411500D02*
D03*
X262500Y497000D02*
D03*
X306000Y400500D02*
D03*
X227500Y416500D02*
D03*
X208000Y393000D02*
D03*
X431500Y320500D02*
D03*
X190500Y321000D02*
D03*
X198000Y370500D02*
D03*
X572500Y375500D02*
D03*
X153500Y371000D02*
D03*
X190500Y294500D02*
D03*
X141000D02*
D03*
X78500Y310500D02*
D03*
X151000Y261000D02*
D03*
X184750Y208750D02*
D03*
X289500Y243000D02*
D03*
X199294Y198881D02*
D03*
X203000Y260500D02*
D03*
X207000Y141500D02*
D03*
X140500Y241500D02*
D03*
X185500Y240500D02*
D03*
X208000D02*
D03*
X210000Y191500D02*
D03*
X266000Y95500D02*
D03*
X256500Y109000D02*
D03*
X227500Y87500D02*
D03*
X216500Y105500D02*
D03*
X204000Y112000D02*
D03*
X244500Y113000D02*
D03*
X512500Y119000D02*
D03*
X468757Y151750D02*
D03*
X492000Y151500D02*
D03*
X503000Y148500D02*
D03*
X187500Y185500D02*
D03*
X190500Y191500D02*
D03*
X196000Y195500D02*
D03*
X229000Y183000D02*
D03*
X231500Y176000D02*
D03*
X183000Y145500D02*
D03*
X92500Y255000D02*
D03*
X482500Y193500D02*
D03*
X137500Y280000D02*
D03*
X153500Y229500D02*
D03*
X108500D02*
D03*
X67000D02*
D03*
X232500Y82000D02*
D03*
X165000Y148500D02*
D03*
X253500Y52000D02*
D03*
X624000Y397500D02*
D03*
X481500Y58500D02*
D03*
X189500Y109000D02*
D03*
X157000D02*
D03*
X52500D02*
D03*
X522000Y154500D02*
D03*
X169500Y179000D02*
D03*
X149500D02*
D03*
X108000D02*
D03*
X87000D02*
D03*
X322500Y336500D02*
D03*
D136*
X232000Y362500D02*
D03*
X184500Y408000D02*
D03*
X206500Y412500D02*
D03*
X260500Y431500D02*
D03*
X119500Y329500D02*
D03*
X159000Y362000D02*
D03*
X530000Y444500D02*
D03*
X564500Y435500D02*
D03*
X220000Y80500D02*
D03*
X261500Y168500D02*
D03*
X518000Y98500D02*
D03*
X295500Y95000D02*
D03*
X222000Y192000D02*
D03*
X144000Y157665D02*
D03*
X42500Y141000D02*
D03*
X86500Y140500D02*
D03*
X614500Y435500D02*
D03*
X479000Y445500D02*
D03*
X366500Y426500D02*
D03*
X340000Y95500D02*
D03*
X86500Y232000D02*
D03*
X175500D02*
D03*
X130000D02*
D03*
X115000Y133500D02*
D03*
M02*
