G04*
G04 #@! TF.GenerationSoftware,Altium Limited,Altium Designer,20.1.14 (287)*
G04*
G04 Layer_Color=128*
%FSLAX25Y25*%
%MOIN*%
G70*
G04*
G04 #@! TF.SameCoordinates,5FE179B0-A676-43EF-AE88-1D2B089A4B82*
G04*
G04*
G04 #@! TF.FilePolarity,Positive*
G04*
G01*
G75*
%ADD12C,0.01000*%
%ADD15C,0.00197*%
%ADD16C,0.00394*%
D12*
X600000D01*
Y149000D01*
X512000D02*
X600000D01*
X512000D02*
Y225000D01*
X600000D01*
Y500000D01*
X0D02*
X600000D01*
X0Y0D02*
Y500000D01*
D15*
X185276Y432539D02*
X191575D01*
X185276Y440610D02*
X191575D01*
X185276Y432539D02*
Y440610D01*
X191575Y432539D02*
Y440610D01*
X193472Y235433D02*
Y277165D01*
X228906Y235433D02*
Y277165D01*
X193472D02*
X228906D01*
X193472Y235433D02*
X228906D01*
X231472Y255417D02*
Y275496D01*
X240528Y255417D02*
Y275496D01*
X231472Y255417D02*
X240528D01*
X231472Y275496D02*
X240528D01*
X58961Y310472D02*
X79039D01*
X58961Y319528D02*
X79039D01*
Y310472D02*
Y319528D01*
X58961Y310472D02*
Y319528D01*
X192020Y278614D02*
X226075D01*
X192020Y305386D02*
X226075D01*
Y278614D02*
Y305386D01*
X192020Y278614D02*
Y305386D01*
X179827Y308095D02*
Y343528D01*
X138094Y308095D02*
Y343528D01*
X179827D01*
X138094Y308095D02*
X179827D01*
X122472Y327039D02*
X131528D01*
X122472Y306961D02*
X131528D01*
Y327039D01*
X122472Y306961D02*
Y327039D01*
X121827Y308095D02*
Y343528D01*
X80094Y308095D02*
Y343528D01*
X121827D01*
X80094Y308095D02*
X121827D01*
X222614Y113488D02*
X249386D01*
X222614Y74610D02*
X249386D01*
X222614D02*
Y113488D01*
X249386Y74610D02*
Y113488D01*
X178512Y62614D02*
Y89386D01*
X217390Y62614D02*
Y89386D01*
X178512Y62614D02*
X217390D01*
X178512Y89386D02*
X217390D01*
X129386Y74598D02*
Y113476D01*
X102614Y74598D02*
Y113476D01*
Y74598D02*
X129386D01*
X102614Y113476D02*
X129386D01*
X473500Y40614D02*
Y67386D01*
X434622Y40614D02*
Y67386D01*
X473500D01*
X434622Y40614D02*
X473500D01*
X388717Y400134D02*
Y441866D01*
X353284Y400134D02*
Y441866D01*
Y400134D02*
X388717D01*
X353284Y441866D02*
X388717D01*
X350716Y400134D02*
Y441866D01*
X315283Y400134D02*
Y441866D01*
Y400134D02*
X350716D01*
X315283Y441866D02*
X350716D01*
X328504Y391472D02*
X348583D01*
X328504Y400528D02*
X348583D01*
Y391472D02*
Y400528D01*
X328504Y391472D02*
Y400528D01*
X398528Y395961D02*
Y416039D01*
X389472Y395961D02*
Y416039D01*
X398528D01*
X389472Y395961D02*
X398528D01*
D16*
X188425Y434606D02*
Y438543D01*
X186457Y436575D02*
X190394D01*
X209221Y256299D02*
X213158D01*
X211189Y254331D02*
Y258268D01*
X234032Y265457D02*
X237968D01*
X236000Y263488D02*
Y267425D01*
X69000Y313032D02*
Y316968D01*
X67032Y315000D02*
X70969D01*
X209047Y290032D02*
Y293969D01*
X207079Y292000D02*
X211016D01*
X156992Y325811D02*
X160929D01*
X158961Y323843D02*
Y327780D01*
X127000Y315032D02*
Y318969D01*
X125031Y317000D02*
X128969D01*
X98992Y325811D02*
X102929D01*
X100961Y323843D02*
Y327780D01*
X236000Y92032D02*
Y95969D01*
X234032Y94000D02*
X237968D01*
X196031Y76000D02*
X199969D01*
X198000Y74032D02*
Y77969D01*
X114032Y93988D02*
X117968D01*
X116000Y92020D02*
Y95957D01*
X452043Y54000D02*
X455980D01*
X454012Y52031D02*
Y55968D01*
X369032Y421000D02*
X372969D01*
X371000Y419031D02*
Y422968D01*
X331031Y421000D02*
X334968D01*
X333000Y419031D02*
Y422968D01*
X338543Y394032D02*
Y397969D01*
X336575Y396000D02*
X340512D01*
X392032Y406000D02*
X395969D01*
X394000Y404032D02*
Y407969D01*
M02*
