G04*
G04 #@! TF.GenerationSoftware,Altium Limited,Altium Designer,23.1.1 (15)*
G04*
G04 Layer_Color=32896*
%FSLAX25Y25*%
%MOIN*%
G70*
G04*
G04 #@! TF.SameCoordinates,19538D7C-5156-4110-B39B-F750BC4F8D1F*
G04*
G04*
G04 #@! TF.FilePolarity,Positive*
G04*
G01*
G75*
%ADD11C,0.00787*%
%ADD14C,0.01000*%
%ADD19C,0.00394*%
%ADD20C,0.00197*%
D11*
X148575Y460724D02*
X178496D01*
X148575D02*
Y498008D01*
X178496D01*
Y460724D02*
Y498008D01*
X635831Y398228D02*
Y428150D01*
X673114D01*
Y398228D02*
Y428150D01*
X635831Y398228D02*
X673114D01*
X637630Y74728D02*
X674913D01*
Y116461D01*
X637630D02*
X674913D01*
X637630Y74728D02*
Y116461D01*
X193887Y387032D02*
X210447D01*
Y373646D02*
Y387032D01*
X193887Y373646D02*
X210447D01*
X193887D02*
Y387032D01*
X39181Y103728D02*
Y145461D01*
X1898Y103728D02*
X39181D01*
X1898D02*
Y145461D01*
X39181D01*
X606350Y42886D02*
Y80169D01*
Y42886D02*
X636272D01*
Y80169D01*
X606350D02*
X636272D01*
X229220Y396307D02*
Y409693D01*
Y396307D02*
X245780D01*
Y409693D01*
X229220D02*
X245780D01*
X149720Y373807D02*
Y387193D01*
Y373807D02*
X166280D01*
Y387193D01*
X149720D02*
X166280D01*
X2898Y205961D02*
X40181D01*
X2898Y176039D02*
Y205961D01*
Y176039D02*
X40181D01*
Y205961D01*
X2898Y237461D02*
X40181D01*
X2898Y207539D02*
Y237461D01*
Y207539D02*
X40181D01*
Y237461D01*
X2898Y268961D02*
X40181D01*
X2898Y239039D02*
Y268961D01*
Y239039D02*
X40181D01*
Y268961D01*
X139789Y43398D02*
Y80681D01*
Y43398D02*
X169711D01*
Y80681D01*
X139789D02*
X169711D01*
X71289Y43398D02*
Y80681D01*
Y43398D02*
X101211D01*
Y80681D01*
X71289D02*
X101211D01*
X174039Y43398D02*
Y80681D01*
Y43398D02*
X203961D01*
Y80681D01*
X174039D02*
X203961D01*
X37039Y79681D02*
X66961D01*
Y42398D02*
Y79681D01*
X37039Y42398D02*
X66961D01*
X37039D02*
Y79681D01*
X105539Y43398D02*
Y80681D01*
Y43398D02*
X135461D01*
Y80681D01*
X105539D02*
X135461D01*
X2898Y300461D02*
X40181D01*
X2898Y270539D02*
Y300461D01*
Y270539D02*
X40181D01*
Y300461D01*
D14*
X0Y500500D02*
X675000D01*
Y39000D02*
Y500500D01*
X0Y39000D02*
X675000D01*
X0D02*
Y500500D01*
D19*
X218000Y192532D02*
Y196468D01*
X216032Y194500D02*
X219969D01*
X220532Y323000D02*
X224468D01*
X222500Y321031D02*
Y324969D01*
D20*
X245138Y296031D02*
Y349969D01*
X199862Y296031D02*
Y349969D01*
X245138D01*
X199862Y296031D02*
X245138D01*
M02*
