G04*
G04 #@! TF.GenerationSoftware,Altium Limited,Altium Designer,23.1.1 (15)*
G04*
G04 Layer_Physical_Order=1*
G04 Layer_Color=255*
%FSLAX25Y25*%
%MOIN*%
G70*
G04*
G04 #@! TF.SameCoordinates,19538D7C-5156-4110-B39B-F750BC4F8D1F*
G04*
G04*
G04 #@! TF.FilePolarity,Positive*
G04*
G01*
G75*
%ADD11C,0.00787*%
%ADD12C,0.00500*%
%ADD14C,0.01000*%
%ADD19C,0.00394*%
%ADD20C,0.00197*%
%ADD22R,0.12795X0.09843*%
%ADD23R,0.06890X0.05709*%
%ADD24R,0.05315X0.03543*%
%ADD25R,0.20079X0.13780*%
%ADD26R,0.05709X0.06890*%
%ADD27R,0.05906X0.01772*%
%ADD28R,0.05906X0.02362*%
%ADD29R,0.08898X0.11024*%
%ADD30R,0.03543X0.05315*%
%ADD31R,0.04134X0.05512*%
%ADD32R,0.03543X0.03150*%
%ADD33R,0.05512X0.04134*%
%ADD34O,0.07874X0.02756*%
%ADD35R,0.03583X0.04803*%
%ADD36R,0.04803X0.03583*%
%ADD37R,0.03543X0.03740*%
%ADD38R,0.05926X0.01791*%
G04:AMPARAMS|DCode=39|XSize=59.26mil|YSize=17.91mil|CornerRadius=8.96mil|HoleSize=0mil|Usage=FLASHONLY|Rotation=0.000|XOffset=0mil|YOffset=0mil|HoleType=Round|Shape=RoundedRectangle|*
%AMROUNDEDRECTD39*
21,1,0.05926,0.00000,0,0,0.0*
21,1,0.04135,0.01791,0,0,0.0*
1,1,0.01791,0.02068,0.00000*
1,1,0.01791,-0.02068,0.00000*
1,1,0.01791,-0.02068,0.00000*
1,1,0.01791,0.02068,0.00000*
%
%ADD39ROUNDEDRECTD39*%
%ADD40C,0.03000*%
%ADD41R,0.08071X0.06299*%
%ADD42R,0.09264X0.02449*%
%ADD43R,0.05709X0.07087*%
%ADD44O,0.02756X0.07874*%
%ADD45R,0.18504X0.12598*%
%ADD46R,0.15158X0.25197*%
%ADD47R,0.03740X0.03543*%
%ADD48R,0.02402X0.01378*%
%ADD49R,0.01378X0.02402*%
%ADD50R,0.11024X0.08898*%
%ADD51R,0.05709X0.02362*%
%ADD52R,0.19685X0.19685*%
%ADD53R,0.07087X0.05709*%
%ADD54R,0.09843X0.16339*%
%ADD73R,0.09055X0.12205*%
%ADD92R,0.06181X0.06181*%
%ADD93C,0.06181*%
%ADD94C,0.04016*%
%ADD95C,0.09488*%
%ADD98R,0.06181X0.06181*%
%ADD105C,0.01600*%
%ADD106C,0.01598*%
%ADD107C,0.01500*%
%ADD108R,0.06024X0.06024*%
%ADD109C,0.06024*%
%ADD110C,0.12598*%
%ADD111C,0.13780*%
%ADD112C,0.08976*%
%ADD113R,0.08976X0.08976*%
%ADD114C,0.08000*%
%ADD115C,0.07000*%
%ADD116C,0.11457*%
%ADD117C,0.05984*%
%ADD118C,0.16929*%
%ADD119C,0.07087*%
%ADD120R,0.06000X0.06000*%
G36*
X58222Y498000D02*
X58272Y497500D01*
X57203Y497287D01*
X55767Y496693D01*
X54475Y495829D01*
X53376Y494730D01*
X52512Y493438D01*
X51917Y492002D01*
X51614Y490478D01*
Y488924D01*
X51917Y487399D01*
X52512Y485964D01*
X53376Y484671D01*
X54475Y483572D01*
X55767Y482709D01*
X57203Y482114D01*
X58727Y481811D01*
X60281D01*
X61805Y482114D01*
X63241Y482709D01*
X64533Y483572D01*
X65632Y484671D01*
X66496Y485964D01*
X67091Y487399D01*
X67394Y488924D01*
Y490478D01*
X67091Y492002D01*
X66496Y493438D01*
X65632Y494730D01*
X64533Y495829D01*
X63241Y496693D01*
X61805Y497287D01*
X60736Y497500D01*
X60786Y498000D01*
X119703Y498000D01*
X119752Y497500D01*
X118683Y497287D01*
X117247Y496693D01*
X115955Y495829D01*
X114856Y494730D01*
X113993Y493438D01*
X113398Y492002D01*
X113094Y490478D01*
Y488924D01*
X113398Y487399D01*
X113993Y485964D01*
X114856Y484671D01*
X115955Y483572D01*
X117247Y482709D01*
X118683Y482114D01*
X120207Y481811D01*
X121761D01*
X123286Y482114D01*
X124722Y482709D01*
X126014Y483572D01*
X127113Y484671D01*
X127976Y485964D01*
X128571Y487399D01*
X128874Y488924D01*
Y490478D01*
X128571Y492002D01*
X127976Y493438D01*
X127113Y494730D01*
X126014Y495829D01*
X124722Y496693D01*
X123286Y497287D01*
X122217Y497500D01*
X122266Y498000D01*
X137000D01*
X144000Y491000D01*
Y486648D01*
X143971Y486500D01*
Y459437D01*
X144000Y459289D01*
Y456000D01*
X137000Y449000D01*
X91029D01*
Y452386D01*
X108562Y469919D01*
X108893Y470415D01*
X109010Y471000D01*
X108893Y471585D01*
X108562Y472081D01*
X108066Y472413D01*
X107480Y472529D01*
X106895Y472413D01*
X106399Y472081D01*
X88419Y454101D01*
X88087Y453605D01*
X87971Y453020D01*
Y449000D01*
X8000D01*
X3000Y454000D01*
Y454500D01*
X2000Y455500D01*
Y498000D01*
X58222D01*
D02*
G37*
G36*
X197471Y428145D02*
X197390Y427960D01*
X197191Y427685D01*
X191325D01*
X191285Y427890D01*
X191063Y428221D01*
X190733Y428442D01*
X190342Y428520D01*
X187029D01*
Y440492D01*
X191891Y445354D01*
X196158D01*
Y446500D01*
X197471D01*
Y428145D01*
D02*
G37*
G36*
X190342Y426665D02*
X197191D01*
X197355Y426165D01*
X195359Y424170D01*
X195243Y424248D01*
X194658Y424364D01*
X194072Y424248D01*
X193576Y423916D01*
X192804Y423144D01*
X192734Y423039D01*
X192415Y422976D01*
X191919Y422644D01*
X191587Y422148D01*
X191471Y421563D01*
X191587Y420978D01*
X191919Y420481D01*
X192415Y420150D01*
X193000Y420034D01*
X193886D01*
X194471Y420150D01*
X194967Y420481D01*
X195299Y420978D01*
X195307Y421017D01*
X195352Y421079D01*
X195858Y421371D01*
X196187Y421305D01*
X196772Y421422D01*
X197268Y421753D01*
X200008Y424493D01*
X201343Y423158D01*
Y418791D01*
X201500D01*
Y418500D01*
X205000Y415000D01*
Y414536D01*
X204381Y413916D01*
X204000Y412997D01*
Y412003D01*
X204381Y411084D01*
X205000Y410464D01*
Y408000D01*
X203529Y406529D01*
X193000D01*
X192415Y406413D01*
X191919Y406081D01*
X191337Y405500D01*
X189000D01*
X186999Y407501D01*
X187000Y407503D01*
Y408497D01*
X186619Y409416D01*
X185916Y410119D01*
X184997Y410500D01*
X184003D01*
X184001Y410499D01*
X183000Y411500D01*
Y412498D01*
X183003Y412500D01*
X183997D01*
X184916Y412881D01*
X185619Y413584D01*
X186000Y414503D01*
Y415497D01*
X185619Y416416D01*
X184916Y417119D01*
X183997Y417500D01*
X183003D01*
X183000Y417502D01*
Y418728D01*
X183158D01*
Y422109D01*
X186581Y425533D01*
X186913Y426029D01*
X187029Y426614D01*
Y427500D01*
X190342D01*
Y426665D01*
D02*
G37*
G36*
X163000Y424000D02*
Y405000D01*
X161020Y403020D01*
X138500D01*
X138110Y402942D01*
X137779Y402721D01*
X137558Y402500D01*
X137500D01*
X135500Y404500D01*
Y424000D01*
X138000Y426500D01*
X160500D01*
X163000Y424000D01*
D02*
G37*
G36*
X203670Y403330D02*
Y396171D01*
X203254Y395894D01*
X202997Y396000D01*
X202003D01*
X201084Y395619D01*
X200381Y394916D01*
X200000Y393997D01*
Y393003D01*
X200381Y392084D01*
X201012Y391452D01*
Y383757D01*
X200895Y383645D01*
X200512Y383429D01*
X199902Y383551D01*
X195767D01*
X195028Y383404D01*
X194889Y383311D01*
X190225D01*
X189916Y383619D01*
X188997Y384000D01*
X188003D01*
X187084Y383619D01*
X186381Y382916D01*
X186000Y381997D01*
Y381003D01*
X186381Y380084D01*
X187084Y379381D01*
X188003Y379000D01*
X188997D01*
X189916Y379381D01*
X190619Y380084D01*
X190689Y380252D01*
X193754D01*
X193952Y379883D01*
X193973Y379752D01*
X193920Y379490D01*
X192720Y378290D01*
X192444Y377876D01*
X192347Y377389D01*
Y368878D01*
X192444Y368391D01*
X192720Y367977D01*
X194676Y366022D01*
Y351050D01*
X194773Y350562D01*
X195000Y350222D01*
Y341500D01*
X191500Y338000D01*
X182500D01*
X177000Y343500D01*
Y386500D01*
X193971Y403471D01*
X203529D01*
X203670Y403330D01*
D02*
G37*
G36*
X49000Y398500D02*
Y391000D01*
X47000Y389000D01*
X5500D01*
X3500Y391000D01*
X3500Y399000D01*
X5000Y400500D01*
X47000D01*
X49000Y398500D01*
D02*
G37*
G36*
X52113Y413280D02*
Y412628D01*
X80897D01*
X83500Y410024D01*
X83500Y389500D01*
X81520Y387520D01*
X50500D01*
Y398000D01*
X50020Y398480D01*
Y398500D01*
D01*
Y398500D01*
X49942Y398890D01*
X49853Y399023D01*
X49721Y399221D01*
X49721Y399221D01*
X47721Y401221D01*
X47390Y401442D01*
X47000Y401520D01*
X5980D01*
X3000Y404500D01*
Y437000D01*
X4000D01*
X6981Y439980D01*
X25413D01*
X52113Y413280D01*
D02*
G37*
G36*
X164000Y390500D02*
X161500Y388000D01*
X158000D01*
X157000Y387000D01*
Y383744D01*
X156559Y383509D01*
X156474Y383565D01*
X155735Y383712D01*
X151600D01*
X150860Y383565D01*
X150233Y383146D01*
X150136Y383000D01*
X143000D01*
X131500Y371500D01*
X132000Y371000D01*
Y360000D01*
X123500Y351500D01*
X30574D01*
X30257Y352000D01*
X30500Y352908D01*
Y354092D01*
X30193Y355237D01*
X29601Y356263D01*
X28763Y357101D01*
X27737Y357693D01*
X26592Y358000D01*
X25408D01*
X24263Y357693D01*
X23237Y357101D01*
X23068Y356932D01*
X4000Y376000D01*
Y384000D01*
X6500Y386500D01*
X123000D01*
X138429Y401929D01*
X138508Y401981D01*
X138600Y402000D01*
X164000D01*
Y390500D01*
D02*
G37*
G36*
X152049Y381943D02*
X151987Y381628D01*
X152004Y381540D01*
X151687Y381153D01*
X151600D01*
X150860Y381006D01*
X150233Y380587D01*
X149814Y379960D01*
X149667Y379221D01*
X149814Y378481D01*
X150175Y377941D01*
X149814Y377401D01*
X149667Y376661D01*
X149814Y375922D01*
X150233Y375295D01*
X150860Y374876D01*
X151600Y374729D01*
X152225D01*
Y373178D01*
X152084Y373119D01*
X151381Y372416D01*
X151000Y371497D01*
Y370503D01*
X151381Y369584D01*
X152084Y368881D01*
X153003Y368500D01*
X153997D01*
X154916Y368881D01*
X155619Y369584D01*
X156000Y370503D01*
Y371497D01*
X155619Y372416D01*
X154916Y373119D01*
X154774Y373178D01*
Y374729D01*
X155735D01*
X156226Y374826D01*
X156726Y374488D01*
Y363042D01*
X156500Y362497D01*
Y361503D01*
X156881Y360584D01*
X157000Y360465D01*
Y345000D01*
X151000Y339000D01*
X150500Y339500D01*
X141000D01*
X134000Y346500D01*
X108036D01*
X107916Y346619D01*
X106997Y347000D01*
X106003D01*
X105084Y346619D01*
X104964Y346500D01*
X82500D01*
X81344Y345344D01*
X80882Y345535D01*
Y345725D01*
X69618D01*
Y341275D01*
X79472D01*
Y340725D01*
X69618D01*
Y336275D01*
X79472D01*
Y330725D01*
X69618D01*
Y328118D01*
X69000Y327500D01*
X69000Y313500D01*
X64500Y309000D01*
X55500D01*
X52571Y311929D01*
X52518Y312008D01*
X52500Y312100D01*
Y341500D01*
X61480Y350480D01*
X123500D01*
X123890Y350558D01*
X124221Y350779D01*
X132721Y359279D01*
X132942Y359610D01*
X133020Y360000D01*
Y371000D01*
X132942Y371390D01*
X132898Y371456D01*
X143422Y381980D01*
X150136D01*
X150234Y382000D01*
X150335D01*
X150427Y382038D01*
X150526Y382058D01*
X150609Y382114D01*
X150702Y382152D01*
X150773Y382223D01*
X150857Y382279D01*
X150912Y382363D01*
X150946Y382396D01*
X151016Y382443D01*
X151701D01*
X152049Y381943D01*
D02*
G37*
G36*
X51484Y341516D02*
X51480Y341500D01*
Y312000D01*
X51558Y311610D01*
X51779Y311279D01*
X52000Y311058D01*
Y299500D01*
X51000Y298500D01*
X38500D01*
X33360Y303640D01*
X33893Y304563D01*
X34200Y305708D01*
Y306892D01*
X33893Y308037D01*
X33301Y309063D01*
X32463Y309901D01*
X31437Y310493D01*
X30292Y310800D01*
X29108D01*
X27963Y310493D01*
X27040Y309960D01*
X19500Y317500D01*
Y344500D01*
X22000Y347000D01*
X46000D01*
X51484Y341516D01*
D02*
G37*
%LPC*%
G36*
X13432Y496965D02*
X11568D01*
X9739Y496601D01*
X8017Y495887D01*
X6467Y494852D01*
X5148Y493533D01*
X4113Y491983D01*
X3399Y490261D01*
X3036Y488432D01*
Y486568D01*
X3399Y484739D01*
X4113Y483017D01*
X5148Y481467D01*
X6467Y480148D01*
X8017Y479113D01*
X9739Y478399D01*
X11568Y478035D01*
X13432D01*
X15261Y478399D01*
X16983Y479113D01*
X18533Y480148D01*
X19852Y481467D01*
X20887Y483017D01*
X21601Y484739D01*
X21964Y486568D01*
Y488432D01*
X21601Y490261D01*
X20887Y491983D01*
X19852Y493533D01*
X18533Y494852D01*
X16983Y495887D01*
X15261Y496601D01*
X13432Y496965D01*
D02*
G37*
G36*
X198000Y413041D02*
X197409D01*
X196824Y412925D01*
X196328Y412593D01*
X195996Y412097D01*
X195880Y411512D01*
X195996Y410926D01*
X196328Y410430D01*
X196824Y410099D01*
X197409Y409982D01*
X198000D01*
X198585Y410099D01*
X199081Y410430D01*
X199413Y410926D01*
X199529Y411512D01*
X199413Y412097D01*
X199081Y412593D01*
X198585Y412925D01*
X198000Y413041D01*
D02*
G37*
G36*
X158000Y410553D02*
X157415Y410437D01*
X156919Y410105D01*
X156214Y409400D01*
X156096Y409223D01*
X155919Y409105D01*
X155587Y408609D01*
X155471Y408024D01*
X155587Y407438D01*
X155919Y406942D01*
X156415Y406611D01*
X157000Y406494D01*
X157591D01*
X158176Y406611D01*
X158672Y406942D01*
X159003Y407438D01*
X159113Y407990D01*
X159413Y408438D01*
X159529Y409024D01*
X159413Y409609D01*
X159081Y410105D01*
X158585Y410437D01*
X158000Y410553D01*
D02*
G37*
G36*
X143000Y409541D02*
X142409D01*
X141824Y409425D01*
X141328Y409093D01*
X140997Y408597D01*
X140880Y408012D01*
X140997Y407427D01*
X141328Y406930D01*
X141824Y406599D01*
X142409Y406482D01*
X143000D01*
X143585Y406599D01*
X144081Y406930D01*
X144413Y407427D01*
X144529Y408012D01*
X144413Y408597D01*
X144081Y409093D01*
X143585Y409425D01*
X143000Y409541D01*
D02*
G37*
G36*
X198000Y402018D02*
X197415Y401901D01*
X196919Y401570D01*
X196587Y401074D01*
X196471Y400488D01*
Y398500D01*
X196587Y397915D01*
X196919Y397419D01*
X197285Y397052D01*
X197781Y396721D01*
X198366Y396604D01*
X198951Y396721D01*
X199448Y397052D01*
X199779Y397549D01*
X199896Y398134D01*
X199779Y398719D01*
X199529Y399093D01*
Y400488D01*
X199413Y401074D01*
X199081Y401570D01*
X198585Y401901D01*
X198000Y402018D01*
D02*
G37*
G36*
X42963Y407529D02*
X41000D01*
X40415Y407413D01*
X40083Y407192D01*
X39919Y407081D01*
Y407081D01*
X39919D01*
X39809Y406917D01*
X39587Y406585D01*
X39471Y406000D01*
Y406000D01*
D01*
X39587Y405415D01*
X39808Y405083D01*
X39919Y404919D01*
X39919D01*
Y404919D01*
X40083Y404809D01*
X40415Y404587D01*
X41000Y404471D01*
X42963Y404471D01*
X43316Y404541D01*
X43549Y404587D01*
X44045Y404919D01*
X44376Y405415D01*
X44469Y405884D01*
X44493Y406000D01*
D01*
Y406000D01*
Y406000D01*
D01*
X44473Y406097D01*
X44376Y406585D01*
X44045Y407081D01*
X44045Y407081D01*
X43549Y407413D01*
X42963Y407529D01*
D02*
G37*
G36*
X143591Y398518D02*
X143000D01*
X142415Y398401D01*
X141919Y398070D01*
X141587Y397573D01*
X141471Y396988D01*
X141587Y396403D01*
X141919Y395907D01*
X142415Y395575D01*
X143000Y395459D01*
X143591D01*
X144176Y395575D01*
X144672Y395907D01*
X145003Y396403D01*
X145120Y396988D01*
X145003Y397573D01*
X144672Y398070D01*
X144176Y398401D01*
X143591Y398518D01*
D02*
G37*
G36*
X18000Y381254D02*
X17415Y381137D01*
X16919Y380806D01*
X15470Y379357D01*
X15138Y378861D01*
X15022Y378276D01*
X15138Y377690D01*
X15470Y377194D01*
X15966Y376863D01*
X16551Y376746D01*
X17136Y376863D01*
X17633Y377194D01*
X19081Y378643D01*
X19413Y379139D01*
X19529Y379724D01*
X19413Y380310D01*
X19081Y380806D01*
X18585Y381137D01*
X18000Y381254D01*
D02*
G37*
G36*
X65409Y371970D02*
X64824Y371854D01*
X64328Y371522D01*
X56879Y364074D01*
X56548Y363577D01*
X56431Y362992D01*
X56548Y362407D01*
X56879Y361911D01*
X57375Y361579D01*
X57961Y361463D01*
X58546Y361579D01*
X59042Y361911D01*
X66491Y369359D01*
X66822Y369856D01*
X66939Y370441D01*
X66822Y371026D01*
X66491Y371522D01*
X65995Y371854D01*
X65409Y371970D01*
D02*
G37*
G36*
X30292Y369800D02*
X29108D01*
X27963Y369493D01*
X26937Y368901D01*
X26099Y368063D01*
X25507Y367037D01*
X25200Y365892D01*
Y364708D01*
X25507Y363563D01*
X26099Y362537D01*
X26937Y361699D01*
X27963Y361107D01*
X29108Y360800D01*
X30292D01*
X31437Y361107D01*
X32463Y361699D01*
X33301Y362537D01*
X33893Y363563D01*
X34200Y364708D01*
Y365892D01*
X33893Y367037D01*
X33301Y368063D01*
X32463Y368901D01*
X31437Y369493D01*
X30292Y369800D01*
D02*
G37*
G36*
X149000Y349029D02*
X147414D01*
X146829Y348913D01*
X146333Y348581D01*
X146001Y348085D01*
X145885Y347500D01*
X146001Y346915D01*
X146333Y346419D01*
X146829Y346087D01*
X147414Y345971D01*
X149000D01*
X149585Y346087D01*
X150081Y346419D01*
X150413Y346915D01*
X150529Y347500D01*
X150413Y348085D01*
X150081Y348581D01*
X149585Y348913D01*
X149000Y349029D01*
D02*
G37*
G36*
X57000Y338789D02*
X56415Y338673D01*
X55919Y338341D01*
X55659Y338081D01*
X55327Y337585D01*
X55211Y337000D01*
X55327Y336415D01*
X55659Y335919D01*
X56155Y335587D01*
X56740Y335471D01*
X57325Y335587D01*
X57822Y335919D01*
X58081Y336178D01*
X58413Y336675D01*
X58529Y337260D01*
X58413Y337845D01*
X58081Y338341D01*
X57585Y338673D01*
X57000Y338789D01*
D02*
G37*
G36*
X49260Y338964D02*
X48772Y338866D01*
X48359Y338590D01*
X48082Y338177D01*
X47985Y337689D01*
Y337000D01*
X48082Y336512D01*
X48359Y336099D01*
X48772Y335823D01*
X49260Y335725D01*
X49748Y335823D01*
X50161Y336099D01*
X50437Y336512D01*
X50534Y337000D01*
Y337689D01*
X50437Y338177D01*
X50161Y338590D01*
X49748Y338866D01*
X49260Y338964D01*
D02*
G37*
%LPD*%
D11*
X148575Y460724D02*
X178496D01*
X148575D02*
Y498008D01*
X178496D01*
Y460724D02*
Y498008D01*
X635831Y398228D02*
Y428150D01*
X673114D01*
Y398228D02*
Y428150D01*
X635831Y398228D02*
X673114D01*
X637630Y74728D02*
X674913D01*
Y116461D01*
X637630D02*
X674913D01*
X637630Y74728D02*
Y116461D01*
X193887Y387032D02*
X210447D01*
Y373646D02*
Y387032D01*
X193887Y373646D02*
X210447D01*
X193887D02*
Y387032D01*
X39181Y103728D02*
Y145461D01*
X1898Y103728D02*
X39181D01*
X1898D02*
Y145461D01*
X39181D01*
X606350Y42886D02*
Y80169D01*
Y42886D02*
X636272D01*
Y80169D01*
X606350D02*
X636272D01*
X229220Y396307D02*
Y409693D01*
Y396307D02*
X245780D01*
Y409693D01*
X229220D02*
X245780D01*
X149720Y373807D02*
Y387193D01*
Y373807D02*
X166280D01*
Y387193D01*
X149720D02*
X166280D01*
X2898Y205961D02*
X40181D01*
X2898Y176039D02*
Y205961D01*
Y176039D02*
X40181D01*
Y205961D01*
X2898Y237461D02*
X40181D01*
X2898Y207539D02*
Y237461D01*
Y207539D02*
X40181D01*
Y237461D01*
X2898Y268961D02*
X40181D01*
X2898Y239039D02*
Y268961D01*
Y239039D02*
X40181D01*
Y268961D01*
X139789Y43398D02*
Y80681D01*
Y43398D02*
X169711D01*
Y80681D01*
X139789D02*
X169711D01*
X71289Y43398D02*
Y80681D01*
Y43398D02*
X101211D01*
Y80681D01*
X71289D02*
X101211D01*
X174039Y43398D02*
Y80681D01*
Y43398D02*
X203961D01*
Y80681D01*
X174039D02*
X203961D01*
X37039Y79681D02*
X66961D01*
Y42398D02*
Y79681D01*
X37039Y42398D02*
X66961D01*
X37039D02*
Y79681D01*
X105539Y43398D02*
Y80681D01*
Y43398D02*
X135461D01*
Y80681D01*
X105539D02*
X135461D01*
X2898Y300461D02*
X40181D01*
X2898Y270539D02*
Y300461D01*
Y270539D02*
X40181D01*
Y300461D01*
D12*
X489740Y98000D02*
X497843D01*
X197500Y97299D02*
X199299Y95500D01*
X197500Y97299D02*
Y116603D01*
X199299Y76610D02*
Y95500D01*
X265071Y87506D02*
X266668Y85909D01*
X169500Y409437D02*
X170300D01*
X158000Y362000D02*
Y375892D01*
X165386Y172449D02*
X183614D01*
X124000Y170563D02*
X125386Y171949D01*
X71114Y171563D02*
X73614D01*
X170236Y99437D02*
X174500D01*
X164500Y97299D02*
X166299Y95500D01*
X128000Y99699D02*
X132199Y95500D01*
Y78010D02*
Y95500D01*
X54549Y158620D02*
X58240Y162311D01*
X95500Y96799D02*
X96799Y95500D01*
X156084Y379221D02*
X158000Y377305D01*
X153667Y379221D02*
X156084D01*
X158000Y375892D02*
Y377305D01*
X158000Y375892D02*
X158000Y375892D01*
X243500Y88563D02*
X244386D01*
X52250Y130750D02*
X59000Y137500D01*
X49415Y127915D02*
X52250Y130750D01*
X263614Y417000D02*
X264500D01*
X279500Y426000D02*
X279750Y425750D01*
X206500Y412500D02*
X206978Y412978D01*
X220592Y378085D02*
X222114Y376563D01*
X121240Y331240D02*
X144740D01*
X223000Y384437D02*
Y390000D01*
X262229Y400123D02*
X263751Y398601D01*
X217557Y359063D02*
X218000D01*
X195950Y351050D02*
X198500Y348500D01*
X193622Y368878D02*
X195950Y366550D01*
Y351050D02*
Y366550D01*
X193622Y368878D02*
Y377389D01*
X242000Y376563D02*
X242707D01*
X119500Y329500D02*
X121240Y331240D01*
X144740D02*
X144937D01*
X136469Y339512D02*
X144740Y331240D01*
X242707Y376563D02*
X244229Y378085D01*
X220831Y341500D02*
X222500Y339831D01*
X206176Y341500D02*
X220831D01*
X199177Y348500D02*
X206176Y341500D01*
X85000Y336748D02*
X89278Y341025D01*
X117487D01*
X119000Y339512D01*
X222114Y376563D02*
X223000D01*
X170300Y409437D02*
X170911D01*
X170300D02*
X170758Y409896D01*
X169500Y408374D02*
Y409437D01*
X170911D02*
X171370Y409896D01*
X170758D02*
X171370D01*
X159721Y381780D02*
X162333D01*
X529563Y456260D02*
X530000Y455823D01*
Y444500D02*
Y455823D01*
X564500Y435500D02*
Y441843D01*
X565083Y442425D01*
X592500Y397823D02*
X596194Y401516D01*
X592500Y375500D02*
Y397823D01*
X607114Y405937D02*
X608000D01*
X602694Y401516D02*
X607114Y405937D01*
X596194Y401516D02*
X602694D01*
X250512Y446500D02*
X252500Y448488D01*
X220000Y74937D02*
Y80500D01*
X217063Y83437D02*
X220000Y80500D01*
X217063Y83437D02*
Y88760D01*
X211333Y67219D02*
Y87870D01*
X211908Y88445D01*
X211333Y67219D02*
X219114Y59437D01*
X211908Y88445D02*
Y102555D01*
X208880Y105582D02*
X211908Y102555D01*
X208880Y105582D02*
Y117329D01*
X59000Y137500D02*
Y145063D01*
Y147063D01*
X52000Y131000D02*
X52250Y130750D01*
X512500Y103000D02*
X532500Y123000D01*
Y165500D01*
X537500Y170500D01*
X203670Y382032D02*
X204083Y381618D01*
X203544Y382032D02*
X203670D01*
X202287Y383289D02*
X203544Y382032D01*
X198500Y348500D02*
X199177D01*
X195418Y379059D02*
X197835D01*
X195004Y378645D02*
X195418Y379059D01*
X194878Y378645D02*
X195004D01*
X193622Y377389D02*
X194878Y378645D01*
X119000Y339512D02*
X136469D01*
X153500Y371000D02*
Y376494D01*
X153667Y376661D01*
X248000Y47500D02*
Y52760D01*
X250500Y45000D02*
X259000D01*
X265760Y51760D01*
X248000Y47500D02*
X250500Y45000D01*
X197835Y376500D02*
X198000Y376335D01*
X49260Y337000D02*
Y337689D01*
X75250Y338500D02*
X82500D01*
X85000Y336000D01*
Y336748D01*
X287543Y85000D02*
X289216D01*
X282082Y80000D02*
X289216D01*
X283537Y89006D02*
X287543Y85000D01*
X279588Y82494D02*
X282082Y80000D01*
X275057Y82494D02*
X279588D01*
X270655Y89006D02*
X283537D01*
X273240Y84311D02*
X275057Y82494D01*
X273240Y84311D02*
Y85000D01*
X269116Y87467D02*
X270655Y89006D01*
X269116Y79545D02*
Y87467D01*
X265760Y76189D02*
X269116Y79545D01*
X265760Y75500D02*
Y76189D01*
X288717Y75500D02*
X289216Y75000D01*
X288711Y70506D02*
X289216Y70000D01*
X287543Y60000D02*
X289216D01*
X284043Y56500D02*
X287543Y60000D01*
X274740Y65000D02*
X289216D01*
X273240Y75500D02*
X288717D01*
X270655Y70506D02*
X288711D01*
X273240Y56500D02*
X284043D01*
X273240Y66500D02*
X274740Y65000D01*
X269156Y69006D02*
X270655Y70506D01*
X267577Y69006D02*
X269156D01*
X265760Y67189D02*
X267577Y69006D01*
X265760Y66500D02*
Y67189D01*
X330457Y85000D02*
X332957Y82500D01*
X337760D01*
X328000Y94638D02*
X332199Y90439D01*
X345240Y82500D02*
Y83189D01*
X337990Y90439D02*
X345240Y83189D01*
X332199Y90439D02*
X337990D01*
X58240Y162311D02*
Y163000D01*
X50000Y178551D02*
X50500Y179051D01*
Y194488D01*
X345240Y81811D02*
Y82500D01*
X341923Y78494D02*
X345240Y81811D01*
X328783Y80000D02*
X333669D01*
X335175Y78494D02*
X341923D01*
X333669Y80000D02*
X335175Y78494D01*
X308299Y95000D02*
X309000Y95701D01*
X267577Y88048D02*
X274528Y95000D01*
X267577Y86817D02*
Y88048D01*
X164500Y97299D02*
Y116260D01*
Y116760D01*
X128067Y156047D02*
X128579D01*
X130563Y154063D01*
X125469Y162583D02*
Y163094D01*
X123500Y164533D02*
X124358Y165392D01*
X137114Y162374D02*
X138000D01*
X123500Y162583D02*
Y164533D01*
X121500Y163500D02*
Y165008D01*
X123633Y167142D01*
X158592Y163459D02*
X160114Y161937D01*
X155232Y167142D02*
X158592Y163781D01*
X123633Y167142D02*
X155232D01*
X158592Y163459D02*
Y163781D01*
X160114Y161937D02*
X161000D01*
X126348Y163892D02*
X129786D01*
X125469Y163094D02*
X125908Y163533D01*
X125990D01*
X126348Y163892D01*
X129786D02*
X130583Y163094D01*
X135957D01*
X124358Y165392D02*
X147608D01*
X150478Y163459D02*
X152000Y161937D01*
X149541Y163459D02*
X150478D01*
X147608Y165392D02*
X149541Y163459D01*
X136000Y161937D02*
X144000D01*
X144063Y161874D01*
X110000Y139063D02*
X110886D01*
X116852Y112648D02*
Y126345D01*
X110000Y133111D02*
Y139063D01*
Y133111D02*
X113361Y129750D01*
X113447D01*
X116852Y126345D01*
X116242Y135793D02*
X119260Y138811D01*
X116242Y135419D02*
Y135793D01*
X115000Y134177D02*
X116242Y135419D01*
X115000Y133500D02*
Y134177D01*
X100386Y146937D02*
X110000D01*
X99500D02*
X100386D01*
X101908Y148459D01*
Y148459D02*
X105281Y151833D01*
Y155978D01*
X101908Y148459D02*
Y148459D01*
X105281Y155978D02*
X107303Y158000D01*
X113291D02*
X117215Y161923D01*
X118904D02*
X118933Y161953D01*
X107303Y158000D02*
X113291D01*
X117215Y161923D02*
X118904D01*
X89915Y247719D02*
Y247915D01*
X91240Y249240D01*
X91437D01*
X86500Y232000D02*
X86585Y232085D01*
Y244388D01*
X89915Y247719D01*
X119260Y138811D02*
Y139500D01*
X117852Y129923D02*
X126740Y138811D01*
Y139500D01*
X120937Y116000D02*
Y116886D01*
X117852Y119971D02*
X120937Y116886D01*
X117852Y119971D02*
Y129923D01*
X70000Y171949D02*
X71500D01*
X183614Y172449D02*
X184500Y171563D01*
X265760Y84311D02*
Y85000D01*
X262443Y80994D02*
X265760Y84311D01*
X262443Y63226D02*
Y80994D01*
Y63226D02*
X265760Y59909D01*
Y56500D02*
Y59909D01*
X220000Y59437D02*
X231000D01*
X62000Y97201D02*
Y116260D01*
Y116760D01*
X100736Y99437D02*
X107000D01*
X128000Y99699D02*
Y116260D01*
Y116760D01*
X136736Y99437D02*
X140500D01*
X219114Y59437D02*
X220000D01*
X212659Y118061D02*
X213083Y118484D01*
X121039Y205512D02*
X123114Y203437D01*
X124000D01*
X114000Y205512D02*
X114591D01*
X121039D01*
X60299Y73610D02*
Y95500D01*
X96799Y76860D02*
Y95500D01*
X165236Y76797D02*
Y94437D01*
X60000Y171063D02*
X69114D01*
X69614Y171563D01*
X71114D02*
X71500Y171949D01*
X60000Y164760D02*
Y171063D01*
X58240Y163000D02*
X60000Y164760D01*
X71500Y171949D02*
X79614D01*
X81000Y170563D02*
X82386Y171949D01*
X93000Y178051D02*
Y193488D01*
X92000Y194488D02*
X93000Y193488D01*
X82386Y171949D02*
X93000D01*
X101614D01*
X144000Y171063D02*
X144886Y171949D01*
X155000D01*
X49415Y112085D02*
X52500Y109000D01*
X49415Y112085D02*
Y127915D01*
X538158Y68000D02*
X539929D01*
X498343Y98500D02*
X518000D01*
X218000Y174618D02*
X218500Y175118D01*
Y188500D01*
X222000Y192000D01*
X497843Y98000D02*
X498343Y98500D01*
X45500Y149000D02*
X51760D01*
X54549Y151789D02*
Y158620D01*
X51760Y149000D02*
X54549Y151789D01*
X82937Y149000D02*
X85500Y151563D01*
X72500Y148201D02*
X73299Y149000D01*
X82937D01*
X86500Y140500D02*
X86808D01*
X86500D02*
Y141176D01*
X85500Y142176D02*
Y151563D01*
X88245Y139063D02*
X99500D01*
X86808Y140500D02*
X88245Y139063D01*
X85500Y142176D02*
X86500Y141176D01*
X42500Y146000D02*
X45500Y149000D01*
X42500Y141000D02*
Y146000D01*
X144000Y154063D02*
Y157665D01*
X202287Y383289D02*
Y393287D01*
X202500Y393500D01*
X328783Y85000D02*
X330457D01*
X323000D02*
X328783D01*
X243000Y88063D02*
X243500Y88563D01*
X243000Y79500D02*
Y88063D01*
X121000Y112000D02*
X124000Y109000D01*
X120500D02*
X124000D01*
X121000Y112000D02*
Y115937D01*
X116852Y112648D02*
X120500Y109000D01*
X107000Y99437D02*
X108500D01*
X95500Y116260D02*
Y116500D01*
Y96799D02*
Y116260D01*
X88437Y116000D02*
X88500Y115937D01*
Y112500D02*
Y115937D01*
Y112500D02*
X92000Y109000D01*
X128563Y233745D02*
X130000Y232308D01*
Y232000D02*
Y232308D01*
X128563Y238942D02*
X130915Y241294D01*
X133937Y246874D02*
Y249240D01*
X128563Y233745D02*
Y238942D01*
X130915Y241294D02*
Y243852D01*
X133937Y246874D01*
X129085Y266750D02*
X132299Y269965D01*
Y287311D01*
X129085Y241585D02*
Y266750D01*
X119500Y232000D02*
X129085Y241585D01*
X244907Y55852D02*
Y58415D01*
X265760Y51760D02*
Y56500D01*
X249592Y102093D02*
X256500Y109000D01*
X274528Y95000D02*
X295500D01*
X308299D01*
X253500Y96937D02*
X254386D01*
X263817Y87506D02*
X265071D01*
X265760Y85000D02*
X266668Y85909D01*
X267577Y86817D01*
X254386Y96937D02*
X263817Y87506D01*
X245907Y92648D02*
X249592Y96333D01*
X245907Y90085D02*
Y92648D01*
X244386Y88563D02*
X245907Y90085D01*
X328000Y95701D02*
X328201Y95500D01*
X340000D01*
X328000Y94638D02*
Y95701D01*
X496071Y103000D02*
X497843D01*
X490500Y104740D02*
X494331D01*
X518000Y85500D02*
Y98500D01*
X494331Y104740D02*
X496071Y103000D01*
X505500Y73000D02*
X518000Y85500D01*
X247016Y118484D02*
X256500Y109000D01*
X235917Y118484D02*
X247016D01*
X208880Y117329D02*
X209612Y118061D01*
X212659D01*
X244907Y55852D02*
X248000Y52760D01*
X243386Y59937D02*
X244907Y58415D01*
X242500Y59937D02*
X243386D01*
X175500Y232000D02*
Y244803D01*
X177415Y246719D01*
Y246915D01*
X178740Y248240D01*
X178937D01*
X249592Y96333D02*
Y102093D01*
X366500Y413071D02*
Y426500D01*
X497843Y103000D02*
X512500D01*
X479260Y445760D02*
X486063D01*
X479000Y445500D02*
X479260Y445760D01*
X156937Y116000D02*
X157000Y115937D01*
X189500Y109000D02*
Y115937D01*
X189437Y116000D02*
X189500Y115937D01*
X231400Y486500D02*
X237038Y480862D01*
Y470644D02*
Y480862D01*
Y470644D02*
X245566Y462116D01*
X249896D02*
X252500Y459512D01*
X245566Y462116D02*
X249896D01*
X118933Y156047D02*
Y158016D01*
Y159984D01*
X123500Y155417D02*
X125469D01*
X128037Y158045D02*
X128067Y158016D01*
X125469Y155417D02*
Y157368D01*
X126146Y158045D02*
X128037D01*
X125469Y157368D02*
X126146Y158045D01*
X126740Y148000D02*
Y148689D01*
X124923Y150506D02*
X126740Y148689D01*
X124492Y150506D02*
X124923D01*
X121531Y153466D02*
Y155417D01*
Y153466D02*
X124492Y150506D01*
X128067Y149327D02*
Y156047D01*
X126740Y148000D02*
X128067Y149327D01*
X123470Y155447D02*
Y157136D01*
X118933Y158016D02*
X122591D01*
X123470Y155447D02*
X123500Y155417D01*
X122591Y158016D02*
X123470Y157136D01*
X126740Y139500D02*
Y148000D01*
X118933Y148327D02*
X119260Y148000D01*
X118933Y148327D02*
Y156047D01*
X119260Y139500D02*
Y148000D01*
X164000Y171063D02*
X165386Y172449D01*
X125386Y171949D02*
X135500D01*
X143114D01*
X155000D02*
X163114D01*
X71500Y178051D02*
Y192988D01*
Y178051D02*
X72500Y179051D01*
X70000Y194488D02*
X71500Y192988D01*
X175000Y178562D02*
Y193488D01*
X174000Y194488D02*
X175000Y193488D01*
X52437Y116000D02*
X52500Y115937D01*
Y109000D02*
Y115937D01*
X120937Y116000D02*
X121000Y115937D01*
X157000Y109000D02*
Y115937D01*
X208322Y367615D02*
X209000Y366937D01*
X202287Y371213D02*
X205885Y367615D01*
X202287Y371213D02*
Y383289D01*
X130563Y154063D02*
X136000D01*
X138000D01*
X205885Y367615D02*
X208322D01*
X114000Y178051D02*
Y194488D01*
X134500Y178051D02*
Y194488D01*
X154000Y178051D02*
Y194488D01*
X58614Y172449D02*
X60000Y171063D01*
X50000Y172449D02*
X58614D01*
X79614Y171949D02*
X81000Y170563D01*
X101614Y171949D02*
X102500Y171063D01*
X113114D01*
X114000Y171949D01*
X122614D01*
X124000Y170563D01*
X143114Y171949D02*
X144000Y171063D01*
X163114Y171949D02*
X164000Y171063D01*
X119500Y231000D02*
X124293Y226207D01*
Y219015D02*
Y226207D01*
X117195Y211916D02*
X124293Y219015D01*
X117195Y208116D02*
Y211916D01*
X114591Y205512D02*
X117195Y208116D01*
X124000Y203437D02*
Y214000D01*
X141000Y231000D01*
X64236Y99437D02*
X71500D01*
X60299Y95500D02*
X62000Y97201D01*
X64236Y99437D01*
X52000Y65311D02*
X60299Y73610D01*
X96799Y95500D02*
X100736Y99437D01*
X86250Y66311D02*
X96799Y76860D01*
X132799Y95500D02*
X136736Y99437D01*
X129699Y95500D02*
X130299D01*
X166299D02*
X170236Y99437D01*
X120500Y66311D02*
X132199Y78010D01*
X154750Y66311D02*
X165236Y76797D01*
Y94437D02*
X166299Y95500D01*
X203236Y99437D02*
X206000D01*
X199299Y95500D02*
X203236Y99437D01*
X189000Y66311D02*
X199299Y76610D01*
X49155Y178551D02*
X49655Y179051D01*
X497843Y73000D02*
X505500D01*
X497843Y68000D02*
Y73000D01*
X540860Y56140D02*
X551000Y46000D01*
X556689D01*
X540860Y56140D02*
Y67069D01*
X538158Y68000D02*
Y73000D01*
X518000Y98500D02*
X537657D01*
X539929Y68000D02*
X540860Y67069D01*
X489000Y97260D02*
X489740Y98000D01*
X537657Y98500D02*
X538158Y98000D01*
X556689Y46000D02*
X566189Y55500D01*
X538158Y98000D02*
X544760D01*
X546000Y96760D01*
D14*
X633000Y370826D02*
G03*
X633000Y370174I4500J-326D01*
G01*
Y380826D02*
G03*
X633000Y380174I4500J-326D01*
G01*
X643000Y370826D02*
G03*
X643000Y370174I4500J-326D01*
G01*
X402000Y170174D02*
G03*
X402000Y170826I-4500J326D01*
G01*
Y340174D02*
G03*
X402000Y340826I-4500J326D01*
G01*
X611932Y140580D02*
G03*
X610618Y143684I-4511J-80D01*
G01*
X493473Y342536D02*
G03*
X492988Y340526I4027J-2036D01*
G01*
X165392Y381943D02*
X175117Y391668D01*
Y392617D01*
X164279Y381931D02*
X165111D01*
X175117Y392617D02*
X178000Y395500D01*
X279750Y385750D02*
Y425750D01*
Y385750D02*
X280000Y385500D01*
X231500Y384937D02*
X232000Y384437D01*
X231500Y384937D02*
Y393500D01*
X269500D02*
Y412028D01*
X264528Y417000D02*
X265500Y416028D01*
X269500Y412028D01*
X254500Y393500D02*
Y398500D01*
X135000Y306799D02*
X135299Y306500D01*
X138433D01*
X254500Y342500D02*
Y362000D01*
X164117Y311826D02*
Y313917D01*
X116512Y311000D02*
X119000Y313488D01*
X164117Y313917D02*
X164500Y314299D01*
X138433Y306500D02*
X145390Y299543D01*
X90980Y295980D02*
X91000Y296000D01*
X90980Y287331D02*
Y295980D01*
X221079Y303000D02*
X222500Y304421D01*
X226110Y404390D02*
X235077D01*
X342500Y400500D02*
Y445500D01*
Y359500D02*
Y400500D01*
X327500Y344500D02*
X342500Y359500D01*
X338835Y449165D02*
X342500Y445500D01*
X337386Y450437D02*
X338657Y449165D01*
X327500Y289000D02*
Y344500D01*
X379500Y405000D02*
Y462000D01*
X204500Y443988D02*
X204988Y443500D01*
X212898D01*
X252000Y374000D02*
Y387500D01*
X211500Y373500D02*
Y373500D01*
X268750Y330250D02*
Y374250D01*
X208500Y376500D02*
X211500Y373500D01*
X268750Y330250D02*
X269000Y330000D01*
X206500Y376500D02*
X208500D01*
X273000Y384500D02*
Y426500D01*
X262650Y436850D02*
Y496850D01*
Y436850D02*
X273000Y426500D01*
X291500Y419000D02*
Y464787D01*
X305750Y400750D02*
X306000Y400500D01*
X305500Y422000D02*
X305750Y421750D01*
Y400750D02*
Y421750D01*
X252642Y425972D02*
Y428979D01*
X251000Y430621D02*
X252642Y428979D01*
X243500Y425000D02*
Y431000D01*
Y443500D02*
X247512D01*
X249757Y445745D01*
Y446434D01*
X243526Y443526D02*
Y455974D01*
X243551Y456000D02*
Y461449D01*
X240000Y465000D02*
X243551Y461449D01*
X235000Y465000D02*
X240000D01*
X232000Y462000D02*
X235000Y465000D01*
X224902Y462000D02*
X232000D01*
X219000Y456098D02*
X224902Y462000D01*
X218000Y444598D02*
Y455000D01*
X219000Y456000D01*
X204900Y466000D02*
X228500D01*
X237474Y456492D02*
Y461474D01*
X218000Y444598D02*
X219000Y443598D01*
X237398Y443500D02*
Y447717D01*
X221500Y449414D02*
X223791Y447123D01*
Y431294D02*
Y447123D01*
X221500Y449414D02*
Y449500D01*
X259500Y446500D02*
Y476787D01*
X223843Y430657D02*
Y431243D01*
Y430657D02*
X225000Y429500D01*
X223791Y431294D02*
X223843Y431243D01*
X203500Y429937D02*
X215000D01*
Y428885D02*
Y429500D01*
X211449Y455598D02*
Y459551D01*
Y455500D02*
Y455598D01*
X208000Y463000D02*
X211449Y459551D01*
X184000Y463000D02*
X208000D01*
X195272Y457272D02*
X197397Y459397D01*
X192500Y456000D02*
X193772Y457272D01*
X195272D01*
X175500Y454500D02*
X184000Y463000D01*
X175500Y433500D02*
Y454500D01*
X168000Y426000D02*
X175500Y433500D01*
X168000Y419500D02*
Y426000D01*
X172000Y451000D02*
Y459500D01*
X175500Y463000D01*
X167500Y466032D02*
X168617Y464914D01*
X167500Y466032D02*
Y466500D01*
X168617Y434883D02*
Y464914D01*
Y434883D02*
X169000Y434500D01*
X150171Y449000D02*
Y454766D01*
Y449000D02*
X150614D01*
X149728D02*
X150171D01*
X150500Y450000D02*
X151000Y449500D01*
X148457Y450272D02*
X149728Y449000D01*
X160500Y449500D02*
X161500Y448500D01*
X151000Y449500D02*
X160500D01*
X150500Y431000D02*
Y440500D01*
X161500Y430000D02*
Y437476D01*
X205000Y421563D02*
X206978Y419585D01*
X193886Y421563D02*
Y422063D01*
X196187Y422835D02*
X199000Y425648D01*
X181249Y422363D02*
X185500Y426614D01*
Y441126D02*
X192500Y448126D01*
X185500Y426614D02*
Y441126D01*
X182000Y435000D02*
Y446791D01*
X183272Y448063D01*
X184000D01*
X180386Y421500D02*
X181249Y422363D01*
X179500Y418621D02*
Y421500D01*
Y418621D02*
X183121Y415000D01*
X179500Y421500D02*
X180386D01*
X173886Y404000D02*
X182000D01*
X184500Y401500D01*
X171474Y401589D02*
X173886Y404000D01*
X206978Y412978D02*
Y419585D01*
X174000Y386000D02*
X193000Y405000D01*
X205500D01*
X210126Y409626D01*
Y424011D02*
X215000Y428885D01*
X210126Y409626D02*
Y424011D01*
X206500Y402000D02*
X213476D01*
X215071Y400406D01*
X215000Y429937D02*
Y436000D01*
Y429937D02*
X215063D01*
X215500Y429500D01*
X218667Y380011D02*
X220592Y378085D01*
X217272Y366937D02*
X218000D01*
X216000Y368209D02*
X217272Y366937D01*
X216000Y368209D02*
Y384500D01*
X208500Y392000D02*
X216000Y384500D01*
X218667Y380011D02*
Y392667D01*
X227720Y401721D02*
X233167D01*
X218667Y392667D02*
X227720Y401721D01*
X226000Y404500D02*
X226110Y404390D01*
X235077D02*
X235187Y404280D01*
X633000Y380826D02*
Y447000D01*
Y380826D02*
Y380826D01*
Y370826D02*
Y380174D01*
Y370826D02*
Y370826D01*
Y331500D02*
Y370174D01*
X422988Y209512D02*
Y345988D01*
X241833Y397667D02*
Y399161D01*
Y397667D02*
X252000Y387500D01*
X241833Y401721D02*
X245779D01*
X247500Y400000D01*
Y395500D02*
Y400000D01*
Y395500D02*
X258000Y385000D01*
Y379500D02*
Y385000D01*
X264500Y380000D02*
Y398626D01*
X254000Y369500D02*
X264500Y380000D01*
X241833Y406839D02*
X246661D01*
X251000Y402500D01*
X253601Y399525D02*
X254500Y398626D01*
X243000Y404500D02*
X243151Y404349D01*
X246151D01*
X250975Y399525D02*
X253601D01*
X246151Y404349D02*
X250975Y399525D01*
X251000Y402500D02*
X259852D01*
X262229Y400123D01*
X264000Y375500D02*
X273000Y384500D01*
X242886Y384437D02*
X247143Y380180D01*
Y372357D02*
Y380180D01*
X171474Y399411D02*
Y401589D01*
X169377Y399228D02*
X169658D01*
X190325Y287175D02*
X190461Y287039D01*
X219500Y220500D02*
X264000Y265000D01*
Y375500D01*
X223500Y249142D02*
X226358Y252000D01*
X262500Y497000D02*
X262650Y496850D01*
X599843Y421586D02*
X601000Y420428D01*
Y420000D02*
Y420428D01*
X599843Y421586D02*
Y452353D01*
X591000Y409500D02*
X597500Y416000D01*
X592030Y460165D02*
X599843Y452353D01*
X591761Y457606D02*
X597500Y451867D01*
Y416000D02*
Y451867D01*
X584121Y407621D02*
X594135Y417635D01*
X584000Y405500D02*
X584121Y405621D01*
X594135Y417635D02*
Y452404D01*
X584121Y405621D02*
Y407621D01*
X278150Y478138D02*
X291500Y464787D01*
X258150Y478138D02*
X259500Y476787D01*
X196200Y474700D02*
X204900Y466000D01*
X145500Y459437D02*
X150171Y454766D01*
X145500Y459437D02*
Y486500D01*
X151000Y492000D01*
X158441D01*
X163535Y486905D01*
X174000Y339500D02*
Y386000D01*
X165123Y381943D02*
X165392D01*
X165111Y381931D02*
X165123Y381943D01*
X163000Y386500D02*
X169377Y392877D01*
X163000Y384704D02*
Y386500D01*
X162635Y384339D02*
X163000Y384704D01*
X162333Y384339D02*
X162635D01*
X169377Y392877D02*
Y399228D01*
X162333Y379221D02*
X169720D01*
X170000Y379500D01*
X276000Y358000D02*
Y379500D01*
X283500Y352501D02*
Y429365D01*
X283543Y429409D01*
X35500Y171500D02*
Y275811D01*
X25811Y285500D02*
X35500Y275811D01*
X26500Y162500D02*
X35500Y171500D01*
X42500Y180000D02*
Y288000D01*
X7000Y173000D02*
X16500Y163500D01*
Y162500D02*
Y163500D01*
X7000Y278500D02*
X14000Y285500D01*
X7000Y173000D02*
Y278500D01*
X89500Y439000D02*
Y453020D01*
X107480Y471000D01*
X302909Y128631D02*
Y324659D01*
X303000Y324750D01*
X162333Y376661D02*
X167339D01*
X170000Y374000D01*
X402000Y360500D02*
X402012Y360488D01*
Y350186D02*
Y360488D01*
X402000Y350174D02*
X402012Y350186D01*
X105959Y344500D02*
X106500D01*
X57961Y362992D02*
X65409Y370441D01*
X178000Y395500D02*
Y400126D01*
X94750Y343500D02*
X104959D01*
X105959Y344500D01*
X188500Y381782D02*
X195044D01*
X169658Y399228D02*
X169841Y399411D01*
X171474D01*
X290000Y242500D02*
X290500Y243000D01*
X42963Y406000D02*
X42963Y406000D01*
X41000Y406000D02*
X42963Y406000D01*
X41000Y406000D02*
X42963D01*
X157295Y408319D02*
X158000Y409024D01*
X412909Y44591D02*
X413000Y44500D01*
X412909Y44591D02*
Y345909D01*
X417500Y350500D01*
X422500Y72000D02*
X422750Y72250D01*
Y209250D01*
X391883Y90457D02*
X392012Y90586D01*
X391500Y89000D02*
X391883Y89383D01*
Y90457D01*
X220000Y43000D02*
Y51563D01*
X230500Y46000D02*
Y51063D01*
X231000Y51563D01*
X579500Y457678D02*
X584343Y452835D01*
X587744D01*
X579500Y457678D02*
Y489000D01*
X587744Y452835D02*
X587917Y452661D01*
X582398Y450102D02*
X587917D01*
X577500Y455000D02*
X582398Y450102D01*
X572500Y471979D02*
X577500Y466979D01*
Y455000D02*
Y466979D01*
X572500Y471979D02*
Y484500D01*
X575000Y452586D02*
X580043Y447543D01*
X587917D01*
X575000Y452586D02*
Y466617D01*
X566000Y475617D02*
Y479000D01*
Y475617D02*
X575000Y466617D01*
X568657Y467842D02*
X572500Y463999D01*
Y355500D02*
Y375500D01*
Y463999D01*
X587917Y417917D02*
Y442425D01*
X585000Y415000D02*
X587917Y417917D01*
X474000Y418000D02*
Y448000D01*
X479240Y453240D01*
X486063D01*
X529500Y332500D02*
X537500Y340500D01*
X529500Y323000D02*
Y332500D01*
X552500Y323500D02*
Y383681D01*
X534165Y402015D02*
X552500Y383681D01*
X534165Y402015D02*
Y462196D01*
X535500Y463531D01*
Y466500D01*
X542937Y473937D02*
X547500D01*
X535500Y466500D02*
X542937Y473937D01*
X621941Y108559D02*
X622000Y108500D01*
X621941Y108559D02*
Y109496D01*
X622463Y159463D01*
X622751Y159751D01*
X623500Y160500D01*
X618500Y165500D02*
X623500Y160500D01*
X592500Y269238D02*
X618500Y243238D01*
Y165500D02*
Y243238D01*
X592500Y345500D02*
X597500Y350500D01*
X592500Y269238D02*
Y345500D01*
X565256Y467842D02*
X568657D01*
X565083Y468016D02*
X565256Y467842D01*
X548772Y461209D02*
X549816D01*
X554064Y465457D01*
X547500Y459937D02*
X548772Y461209D01*
X554064Y465457D02*
X558354D01*
X558354Y465457D01*
X565083D01*
X550689Y468189D02*
X564910D01*
X549835Y467335D02*
X550689Y468189D01*
X548772Y467335D02*
X549835D01*
X547500Y466063D02*
X548772Y467335D01*
X564910Y468189D02*
X565083Y468016D01*
X663000Y362500D02*
X669543Y369043D01*
Y458457D01*
X664500Y463500D02*
X669543Y458457D01*
X653000Y359500D02*
X666602Y373102D01*
Y444265D01*
X653000Y170000D02*
Y359500D01*
X649000Y461868D02*
X666602Y444265D01*
X615772Y476791D02*
X651209D01*
X664500Y463500D01*
X609388Y456061D02*
X623939D01*
X633000Y447000D01*
X632000Y330500D02*
X633000Y331500D01*
X604886Y460563D02*
X609388Y456061D01*
X614517Y442546D02*
X624420D01*
X614500Y442563D02*
X614517Y442546D01*
X633500Y160500D02*
X638500Y165500D01*
Y309498D02*
X643000Y313998D01*
X638500Y165500D02*
Y309498D01*
X643000Y313998D02*
Y370174D01*
Y447000D02*
X649000Y453000D01*
X643000Y426461D02*
Y447000D01*
X642992Y426453D02*
X643000Y426461D01*
Y384145D02*
Y399917D01*
X642988Y384133D02*
X643000Y384145D01*
X642992Y423547D02*
X643000Y423539D01*
X642988Y376867D02*
Y384133D01*
X643000Y402839D02*
Y423539D01*
X642988Y376867D02*
X643000Y376855D01*
X642992Y402831D02*
X643000Y402839D01*
Y370826D02*
Y376855D01*
X642992Y399925D02*
Y402831D01*
Y399925D02*
X643000Y399917D01*
X642992Y423547D02*
Y426453D01*
X614500Y460063D02*
X615563Y459000D01*
X643000D02*
X649000Y453000D01*
X615563Y459000D02*
X643000D01*
X542500Y335000D02*
Y388630D01*
X526291Y404839D02*
X542500Y388630D01*
X526291Y404839D02*
Y460468D01*
X528291Y462468D01*
Y462665D01*
X529366Y463740D01*
X529563D01*
X537437Y460000D02*
X547437D01*
X547500Y459937D01*
X608988Y197479D02*
X609000Y197491D01*
Y242000D01*
X547500Y473937D02*
X559654D01*
X563016Y470575D01*
X565083D01*
X541500Y447000D02*
X545291Y450791D01*
X546228D01*
X547500Y452063D01*
X587917Y470575D02*
X588000Y470657D01*
Y478500D01*
X588091Y455047D02*
X591491D01*
X587917Y455221D02*
X588091Y455047D01*
X588091Y457606D02*
X591761D01*
X591491Y455047D02*
X594135Y452404D01*
X588091Y460165D02*
X592030D01*
X374900Y466600D02*
X379500Y462000D01*
X374900Y481000D02*
X379700Y485800D01*
X374900Y466600D02*
Y481000D01*
X327500Y450437D02*
Y462000D01*
X508496Y411323D02*
X512988Y406830D01*
Y368631D02*
Y406830D01*
X521573Y360046D02*
X527954D01*
X501573D02*
X521573D01*
X512988Y368631D02*
X521573Y360046D01*
X489500Y401000D02*
X492988Y397512D01*
Y368631D02*
Y397512D01*
Y368631D02*
X501573Y360046D01*
X527954D02*
X537500Y350500D01*
X394500Y409000D02*
Y442988D01*
X396700Y445188D01*
Y480800D01*
X391700Y485800D02*
X396700Y480800D01*
X587917Y457780D02*
X588091Y457606D01*
X338657Y449165D02*
X338835D01*
X337772D02*
X338657D01*
X318500Y450437D02*
Y469500D01*
X336500Y450437D02*
X337772Y449165D01*
X595102Y462898D02*
X604000Y454000D01*
Y450437D02*
Y454000D01*
Y450437D02*
X614500D01*
X587917Y460339D02*
X588091Y460165D01*
X523250Y420250D02*
Y451250D01*
X523000Y420000D02*
X523250Y420250D01*
X229591Y455524D02*
X237398Y447717D01*
X229000Y455524D02*
X229591D01*
X552172Y435672D02*
Y439000D01*
X560630Y447458D01*
X552000Y435500D02*
X552172Y435672D01*
X560630Y447458D02*
X564998D01*
X565083Y447543D01*
X545883Y436883D02*
X559102Y450102D01*
X545883Y435883D02*
Y436883D01*
X545500Y435500D02*
X545883Y435883D01*
X558000Y442000D02*
X560984Y444984D01*
X558000Y436500D02*
Y442000D01*
X519000Y431500D02*
Y492000D01*
X514250Y426250D02*
Y496250D01*
Y426250D02*
X514500Y426000D01*
X514000Y496500D02*
X514250Y496250D01*
X560984Y444984D02*
X565083D01*
X500374Y426215D02*
X503727Y422862D01*
X500617Y489617D02*
X501000Y490000D01*
X500374Y426215D02*
Y488414D01*
X500617Y488658D01*
Y489617D01*
X503727Y422862D02*
X505811D01*
X559102Y450102D02*
X565083D01*
X555161Y452661D02*
X565083D01*
X538500Y436000D02*
X555161Y452661D01*
X283543Y429409D02*
Y444457D01*
X250000Y369500D02*
X254000D01*
X247143Y372357D02*
X250000Y369500D01*
X242000Y384437D02*
X242886D01*
X208000Y392000D02*
Y393000D01*
X208500Y392000D02*
Y393000D01*
X208000Y384177D02*
Y392000D01*
X206500Y379059D02*
X212250D01*
X90961Y287311D02*
X90980Y287331D01*
X42500Y288000D02*
X47000Y292500D01*
X50500Y216000D02*
X56000Y221500D01*
X50500Y205512D02*
Y216000D01*
X129437Y178437D02*
X130000Y179000D01*
X124500Y178437D02*
X129437D01*
X124000Y178937D02*
Y195563D01*
Y178937D02*
X124500Y178437D01*
X422988Y209512D02*
X423000Y209500D01*
X422988Y345988D02*
X427500Y350500D01*
X422750Y209250D02*
X423000Y209500D01*
X243552Y67063D02*
X249500Y61115D01*
Y61000D02*
Y61115D01*
X242667Y67063D02*
X243552D01*
X342000Y210000D02*
X342500Y210500D01*
X342000Y158500D02*
Y210000D01*
X152000Y154063D02*
X152886D01*
X156823Y158000D01*
X174500D01*
X213930Y85090D02*
X214313Y84707D01*
X213791Y86564D02*
X213930Y86425D01*
X213791Y86564D02*
Y94022D01*
X213930Y85090D02*
Y86425D01*
X213657Y94156D02*
X213791Y94022D01*
X209583Y63304D02*
X217843Y55044D01*
X209583Y63304D02*
Y88595D01*
X210157Y89170D01*
X208469Y103519D02*
X210157Y101830D01*
X213657Y94156D02*
Y103280D01*
X210157Y89170D02*
Y101830D01*
X205541Y105000D02*
X207022Y103519D01*
X205000Y105000D02*
X205541D01*
X207022Y103519D02*
X208469D01*
X217843Y52835D02*
Y55044D01*
Y52835D02*
X219114Y51563D01*
X220000D01*
X173500Y105000D02*
Y146000D01*
X161000Y154063D02*
X162272Y152791D01*
X166709D01*
X173500Y146000D01*
X642909Y92409D02*
Y159909D01*
X643500Y160500D01*
X639500Y89000D02*
X642909Y92409D01*
X632000Y89000D02*
Y89541D01*
X632909Y90451D01*
Y159909D01*
X633500Y160500D01*
X643500D02*
X653000Y170000D01*
X649000Y461868D02*
Y463000D01*
X607823Y463500D02*
X624500D01*
X604886Y460563D02*
X607823Y463500D01*
X611740Y471709D02*
X640291D01*
X649000Y463000D01*
X604000Y478563D02*
X604886D01*
X611740Y471709D01*
X614500Y478063D02*
X615772Y476791D01*
X597000Y482445D02*
X600428Y485873D01*
X597000Y473698D02*
Y482445D01*
X600428Y485873D02*
X603822D01*
X604386Y486437D01*
X614500Y485937D02*
X615386D01*
X604386Y486437D02*
X614500D01*
X591491Y468189D02*
X597000Y473698D01*
X588091Y468189D02*
X591491D01*
X587917Y468016D02*
X588091Y468189D01*
X598437Y468437D02*
X604000D01*
X587917Y465457D02*
X595457D01*
X604000Y468437D02*
X614500D01*
X595457Y465457D02*
X598437Y468437D01*
X587917Y462898D02*
X595102D01*
X611949Y435500D02*
X614500D01*
X604000Y442563D02*
X604886D01*
X611949Y435500D01*
X610500Y431500D02*
X614500Y435500D01*
X609740Y414000D02*
X610500Y414760D01*
Y431500D01*
X623500Y435500D02*
X626885Y432115D01*
Y429552D02*
Y432115D01*
X614500Y435500D02*
X623500D01*
X626885Y429552D02*
X627437Y429000D01*
X128689Y123740D02*
X130256Y122173D01*
Y121658D02*
Y122173D01*
Y121658D02*
X132087Y119827D01*
X133173D01*
X128000Y123740D02*
X128689D01*
X133173Y119827D02*
X135000Y118000D01*
X127740Y124000D02*
X128000Y123740D01*
X250000Y137000D02*
X261500D01*
X245484Y141516D02*
X250000Y137000D01*
X290000Y142500D02*
Y242500D01*
X237984Y144075D02*
X261022Y167112D01*
Y168022D02*
X261500Y168500D01*
X261022Y167112D02*
Y168022D01*
X235917Y144075D02*
X237984D01*
X572500Y355500D02*
X577500Y350500D01*
X252000Y127500D02*
X260000D01*
X235917Y133839D02*
X242161D01*
X235917Y138957D02*
X244344D01*
X252301Y131000D01*
X267000D01*
X627437Y422236D02*
Y429000D01*
X624000Y418799D02*
X627437Y422236D01*
X253000Y123000D02*
X267000D01*
X235917Y136398D02*
X243102D01*
X252000Y127500D01*
X242161Y133839D02*
X253000Y123000D01*
X235917Y141516D02*
X245484D01*
X442909Y44591D02*
X443000Y44500D01*
X442909Y44591D02*
Y345909D01*
X447500Y350500D01*
X461957Y446890D02*
X463248Y445598D01*
X455500Y440993D02*
Y444500D01*
X435000Y410169D02*
Y445328D01*
X444248Y427610D02*
Y429741D01*
X442000Y398000D02*
X442095Y398095D01*
X435000Y410169D02*
X439630Y405539D01*
X443437Y426799D02*
X444248Y427610D01*
X442189Y426799D02*
X443437D01*
X422100Y458228D02*
X435000Y445328D01*
X444248Y429741D02*
X455500Y440993D01*
X392012Y90586D02*
Y345012D01*
X382500Y76000D02*
Y345500D01*
X387500Y350500D01*
X392012Y345012D02*
X397500Y350500D01*
X402000Y170826D02*
Y340174D01*
Y340826D02*
Y340826D01*
Y350174D01*
Y170826D02*
Y170826D01*
Y166000D02*
Y170174D01*
Y166000D02*
X402293Y165707D01*
X407500Y160500D01*
X372500Y106000D02*
Y345500D01*
X377500Y350500D01*
X490000Y76000D02*
X492000Y78000D01*
X497843D01*
X493500Y93000D02*
X497843D01*
X489500Y89000D02*
X493500Y93000D01*
X545500Y104740D02*
X546000Y104240D01*
X545500Y104740D02*
Y114000D01*
X538158Y103000D02*
X544760D01*
X546000Y104240D01*
X347500Y163000D02*
Y193000D01*
X611932Y140580D02*
X613000Y80500D01*
X608988Y145728D02*
X608988Y145314D01*
X610618Y143684D01*
X608988Y145728D02*
Y197479D01*
X547500Y157440D02*
Y340500D01*
Y157440D02*
X552500Y152440D01*
Y103000D02*
Y152440D01*
X462909Y112521D02*
X463500Y111930D01*
X462909Y112521D02*
Y155909D01*
X463500Y68000D02*
Y111930D01*
X582500Y356500D02*
Y390386D01*
X598114Y406000D01*
X599000D01*
X599886D02*
X602260Y408374D01*
X599000Y406000D02*
X599886D01*
X602260Y408374D02*
Y414000D01*
X616250Y414467D02*
X619505Y411213D01*
X616250Y414467D02*
Y424801D01*
X619563Y428114D02*
Y429000D01*
X616250Y424801D02*
X619563Y428114D01*
X620051Y411213D02*
X624000Y407264D01*
X619505Y411213D02*
X620051D01*
X624000Y406201D02*
Y407264D01*
X608000Y398063D02*
X608563Y397500D01*
X624000D01*
X607937Y398126D02*
X608000Y398063D01*
X599000Y398126D02*
X607937D01*
X624000Y397500D02*
Y406201D01*
X213000Y198500D02*
Y209382D01*
X218000Y214382D01*
X13661Y222839D02*
X14000Y222500D01*
X13661Y222839D02*
Y233551D01*
X15819Y206319D02*
X30103D01*
X12000Y202500D02*
X15819Y206319D01*
X30103D02*
X33020Y209236D01*
X12000Y193000D02*
Y202500D01*
Y193000D02*
X14000Y191000D01*
X16551Y378276D02*
X18000Y379724D01*
X61949Y157000D02*
X72201D01*
X58614Y153665D02*
X61949Y157000D01*
X72201D02*
X73000Y157799D01*
X82976D01*
X84614Y159437D02*
X85500D01*
X82976Y157799D02*
X84614Y159437D01*
X58114Y152937D02*
X59000D01*
X51657Y146423D02*
X56842Y151608D01*
Y151665D01*
X58114Y152937D01*
X50823Y145500D02*
X51657Y146335D01*
Y146423D01*
X50735Y145500D02*
X50823D01*
X49500Y162000D02*
X50760D01*
X64256Y125307D02*
Y127756D01*
X63189Y124240D02*
X64256Y125307D01*
Y127756D02*
X70000Y133500D01*
X53709Y124240D02*
X63189D01*
X104449Y132000D02*
X104500D01*
X96429Y123980D02*
X104449Y132000D01*
X95500Y123980D02*
X96429D01*
X243272Y96437D02*
X243386D01*
X245657Y102157D02*
X246000Y102500D01*
X243386Y96437D02*
X245657Y98709D01*
Y102157D01*
X253500Y80000D02*
Y89063D01*
X239342Y110801D02*
X241500Y112959D01*
X239342Y78261D02*
Y110801D01*
X237158Y58729D02*
Y108725D01*
X224443Y121439D02*
X237158Y108725D01*
Y58729D02*
X240342Y55544D01*
X239342Y78261D02*
X240509Y77095D01*
X321799Y108299D02*
X328000D01*
X320000Y106500D02*
X321799Y108299D01*
X318000Y79110D02*
X327110Y70000D01*
X318000Y79110D02*
Y106500D01*
X316363Y108137D02*
X318000Y106500D01*
X320000Y82110D02*
X327110Y75000D01*
X320000Y82110D02*
Y106500D01*
X484248Y427432D02*
X489500Y422180D01*
Y401000D02*
Y422180D01*
X482189Y435461D02*
X483437D01*
X484248Y434650D01*
Y427432D02*
Y434650D01*
X441500Y448500D02*
X442500Y447500D01*
X449043D01*
X493500Y449260D02*
Y449500D01*
X491000Y445000D02*
X491383Y445383D01*
Y447143D02*
X493500Y449260D01*
X491383Y445383D02*
Y447143D01*
X493500Y449500D02*
X493937D01*
X60063Y179000D02*
X66000D01*
X45541Y163000D02*
X46541Y162000D01*
X45000Y163000D02*
X45541D01*
X46541Y162000D02*
X49500D01*
X25811Y254000D02*
X33020Y246791D01*
Y209236D02*
Y215291D01*
X25811Y222500D02*
X33020Y215291D01*
X30103Y237819D02*
X33020Y240736D01*
Y246791D01*
X507685Y414201D02*
X508496Y413390D01*
Y411323D02*
Y413390D01*
X505811Y414201D02*
X507685D01*
X465811Y401189D02*
Y405539D01*
Y401189D02*
X466000Y401000D01*
X432500Y451000D02*
X442189Y441311D01*
X432500Y479400D02*
X438900Y485800D01*
X432500Y451000D02*
Y479400D01*
X442189Y435461D02*
Y441311D01*
X438900Y485800D02*
X450800D01*
X462600D01*
X474400D01*
X461957Y446890D02*
Y447500D01*
Y438235D02*
Y446890D01*
X465811Y405539D02*
Y411509D01*
X460374Y416946D02*
X465811Y411509D01*
X460374Y416946D02*
Y436653D01*
X461957Y438235D01*
X506000Y435650D02*
Y445000D01*
X505811Y435461D02*
X506000Y435650D01*
X426047Y398047D02*
Y417996D01*
X426000Y418043D02*
X426047Y417996D01*
X442095Y398095D02*
X442189Y398189D01*
Y405539D01*
X439630D02*
X442189D01*
X415300Y485800D02*
X422100Y479000D01*
Y458228D02*
Y479000D01*
X432012Y321553D02*
Y445488D01*
X403500Y474000D02*
X432012Y445488D01*
X400500Y420012D02*
Y431000D01*
X400488Y420000D02*
X400500Y420012D01*
X374500Y431000D02*
Y438929D01*
X366500Y446929D02*
X374500Y438929D01*
X363100Y450329D02*
X366500Y446929D01*
X363100Y450329D02*
Y479000D01*
X356300Y485800D02*
X363100Y479000D01*
X299665Y458835D02*
X301342D01*
X317614Y442563D02*
X318500D01*
X298500Y460000D02*
X299665Y458835D01*
X460665Y445598D02*
X461957Y446890D01*
X460055Y445598D02*
X460665D01*
X458957Y444500D02*
X460055Y445598D01*
X455500Y444500D02*
X458957D01*
X411500Y420579D02*
Y444500D01*
Y420012D02*
Y420579D01*
X421878Y430957D02*
X426000D01*
X411500Y420579D02*
X421878Y430957D01*
X411500Y420012D02*
X411512Y420000D01*
X142409Y408012D02*
X143000D01*
X195044Y381782D02*
X195056Y381769D01*
X197683D01*
X226000Y421563D02*
X226500Y421063D01*
X198000Y398500D02*
X198366Y398134D01*
X431500Y320500D02*
Y321041D01*
X432012Y321553D01*
X190461Y329311D02*
X190480Y329291D01*
Y321020D02*
Y329291D01*
Y321020D02*
X190500Y321000D01*
X268000Y460000D02*
X283543Y444457D01*
X197683Y381769D02*
X197835Y381618D01*
X198000Y398500D02*
Y400488D01*
X160539Y305689D02*
Y308248D01*
X164117Y311826D01*
X147414Y347500D02*
X149000D01*
X56740Y337000D02*
X57000Y337260D01*
X163500Y323500D02*
X178547D01*
X160539Y326461D02*
Y328311D01*
Y326461D02*
X163500Y323500D01*
X160539Y328311D02*
Y329311D01*
X178547Y323500D02*
X181799Y326752D01*
Y329311D01*
X159728Y327500D02*
X160539Y328311D01*
X137063Y327500D02*
X159728D01*
X137063Y320783D02*
Y327500D01*
Y320783D02*
X145390Y312457D01*
X146000D01*
X145390Y299543D02*
X146000D01*
X190480Y294520D02*
X190500Y294500D01*
X190461Y305689D02*
X190480Y305669D01*
Y294520D02*
Y305669D01*
X140961Y287311D02*
Y294461D01*
X141000Y294500D01*
X78488Y310512D02*
X78500Y310500D01*
X222500Y304421D02*
Y306169D01*
Y284000D02*
X223500Y283000D01*
X153000Y237543D02*
X153500Y237043D01*
X151709Y238835D02*
X153000Y237543D01*
X156000Y285221D02*
Y301150D01*
X159854Y303503D02*
X160175Y303825D01*
X156000Y301150D02*
X160539Y305689D01*
X156000Y285221D02*
X160539Y280682D01*
X181799Y287311D02*
Y305689D01*
X145134Y323760D02*
X146209Y322685D01*
Y322488D02*
Y322685D01*
X144937Y323760D02*
X145134D01*
X146209Y322488D02*
X151000Y317697D01*
Y261000D02*
Y317697D01*
X153000Y250457D02*
X154291Y251748D01*
X155227D01*
X163417Y259938D01*
Y281874D01*
X160539Y284752D02*
X163417Y281874D01*
X160539Y284752D02*
Y287311D01*
Y262244D02*
Y263689D01*
Y280682D01*
X181799Y287311D02*
X187000Y282110D01*
Y260521D02*
Y282110D01*
Y260521D02*
X188500Y259020D01*
Y236000D02*
Y259020D01*
X184500Y232000D02*
X188500Y236000D01*
X193500Y231000D02*
Y284000D01*
X190461Y285227D02*
X191272Y284416D01*
X190461Y287039D02*
X193500Y284000D01*
X184500Y222000D02*
X193500Y231000D01*
X184750Y208750D02*
X185000Y209000D01*
X190461Y285227D02*
Y287039D01*
Y287311D01*
X136083Y253358D02*
Y278042D01*
Y253358D02*
X137209Y252232D01*
Y247044D02*
Y252232D01*
X146043Y227043D02*
Y246225D01*
X141000Y222000D02*
X146043Y227043D01*
X138083Y254186D02*
X146043Y246225D01*
X138083Y254186D02*
Y270500D01*
X140961Y273378D02*
Y287311D01*
X138083Y270500D02*
X140961Y273378D01*
X135209Y242835D02*
Y245044D01*
X137209Y247044D01*
X136083Y278042D02*
X137500Y279459D01*
Y280000D01*
X184500Y179437D02*
X185772Y180709D01*
X186914D02*
X187500Y181295D01*
X185772Y180709D02*
X186914D01*
X187500Y181295D02*
Y185500D01*
X184500Y208500D02*
X184750Y208750D01*
X184500Y203437D02*
Y208500D01*
X207008Y141508D02*
X213075D01*
X207000Y141500D02*
X207008Y141508D01*
X213075D02*
X213083Y141516D01*
X202500Y258914D02*
X202617Y259032D01*
Y260117D02*
X203000Y260500D01*
X202617Y259032D02*
Y260117D01*
X202500Y141000D02*
Y258914D01*
Y141000D02*
X206929Y136571D01*
X199294Y139206D02*
Y198881D01*
Y139206D02*
X204488Y134012D01*
X206929Y136571D02*
X212909D01*
X204488Y134012D02*
X212910D01*
X196000Y138500D02*
Y195500D01*
Y138500D02*
X203047Y131453D01*
X212909D01*
X190500Y139000D02*
Y191500D01*
Y139000D02*
X203165Y126335D01*
X212909D01*
X502500Y150086D02*
X502617Y149969D01*
X502500Y150086D02*
Y345500D01*
X502617Y148883D02*
X503000Y148500D01*
X502617Y148883D02*
Y149969D01*
X134134Y241760D02*
X140240D01*
X133937D02*
X134134D01*
X140240D02*
X140500Y241500D01*
X178937Y240760D02*
X179197Y240500D01*
X185500D01*
X206921Y160570D02*
Y238421D01*
X207617Y239117D02*
Y240117D01*
X206921Y238421D02*
X207617Y239117D01*
Y240117D02*
X208000Y240500D01*
X206921Y160570D02*
X219535Y147956D01*
Y135775D02*
X231708Y123602D01*
X219535Y135775D02*
Y147956D01*
X217535Y134947D02*
Y143023D01*
Y134947D02*
X224443Y128039D01*
Y121439D02*
Y128039D01*
X231708Y123602D02*
X235917D01*
X216657Y143902D02*
X217535Y143023D01*
X208921Y189880D02*
X210000Y190959D01*
Y191500D01*
X226443Y131696D02*
Y143876D01*
X208921Y161398D02*
X226443Y143876D01*
Y131696D02*
X231804Y126335D01*
X235744D01*
X266000Y95500D02*
Y103743D01*
X248699Y121043D02*
X266000Y103743D01*
X235917Y121043D02*
X248699D01*
X226209Y91228D02*
X227117Y90320D01*
Y87883D02*
Y90320D01*
Y87883D02*
X227500Y87500D01*
X224937Y92500D02*
X225134D01*
X226209Y91425D01*
Y91228D02*
Y91425D01*
X220886Y67063D02*
X231333D01*
X220000D02*
X220886D01*
X224158Y70335D01*
Y87812D01*
X221665Y90304D02*
X224158Y87812D01*
X221665Y90304D02*
Y118421D01*
X216657Y123429D02*
X221665Y118421D01*
X213256Y123429D02*
X216657D01*
X213083Y123602D02*
X213256Y123429D01*
X203500Y117000D02*
X207543Y121043D01*
X203617Y112383D02*
X204000Y112000D01*
X207543Y121043D02*
X213083D01*
X203617Y112383D02*
Y114924D01*
X203500Y115041D02*
Y117000D01*
Y115041D02*
X203617Y114924D01*
X213083Y103855D02*
Y115925D01*
Y103855D02*
X213657Y103280D01*
X216500Y96803D02*
Y105500D01*
X242000Y97709D02*
X243272Y96437D01*
X242000Y97709D02*
Y103000D01*
X249000Y110000D01*
X241500Y112959D02*
X244459D01*
X244500Y113000D01*
X249000Y110000D02*
Y112743D01*
X245743Y116000D02*
X249000Y112743D01*
X235992Y116000D02*
X245743D01*
X512500Y119000D02*
Y165500D01*
X468757Y151750D02*
X469007D01*
X472012Y154754D01*
X492000Y151500D02*
X492008Y151508D01*
Y156365D01*
X492012Y156369D01*
Y160476D01*
X502500Y345500D02*
X507500Y350500D01*
X208921Y161398D02*
Y189880D01*
X235744Y126335D02*
X235917Y126161D01*
X184500Y179437D02*
Y195563D01*
X228500Y132468D02*
X232074Y128894D01*
X228500Y132468D02*
Y181959D01*
X231465Y132331D02*
Y175965D01*
X231500Y176000D01*
X231465Y132331D02*
X232343Y131453D01*
X229000Y182459D02*
Y183000D01*
X228500Y181959D02*
X229000Y182459D01*
X232074Y128894D02*
X235744D01*
X235917Y128720D01*
X235744Y131453D02*
X235917Y131280D01*
X232343Y131453D02*
X235744D01*
X212909Y136571D02*
X213083Y136398D01*
X212909Y131453D02*
X213083Y131280D01*
X183000Y130437D02*
Y145500D01*
Y130437D02*
X189437Y124000D01*
X218000Y214382D02*
Y219402D01*
X322500Y129041D02*
X328000Y123541D01*
X322500Y129041D02*
Y336500D01*
X149098Y240279D02*
X150542Y238835D01*
X149098Y252869D02*
X157661Y261432D01*
X149098Y240279D02*
Y252869D01*
X150542Y238835D02*
X151709D01*
X159728Y261432D02*
X160539Y262244D01*
X157661Y261432D02*
X159728D01*
X153500Y229500D02*
Y237043D01*
X153610Y250457D02*
X159567Y244500D01*
X153000Y250457D02*
X153610D01*
X159567Y244500D02*
X171063D01*
X134134Y241760D02*
X135209Y242835D01*
X96500Y232000D02*
X96709Y232209D01*
Y255382D01*
X90961Y261130D02*
X96709Y255382D01*
X92500Y255000D02*
X94709Y252791D01*
Y247044D02*
Y252791D01*
X92709Y245044D02*
X94709Y247044D01*
X92709Y242835D02*
Y245044D01*
X91634Y241760D02*
X92709Y242835D01*
X91437Y241760D02*
X91634D01*
X235917Y115925D02*
X235992Y116000D01*
X152638Y95500D02*
X153012D01*
X149063Y116000D02*
Y124000D01*
Y99449D02*
Y116000D01*
Y99449D02*
X153012Y95500D01*
X482500Y345500D02*
X487500Y350500D01*
X482500Y193500D02*
Y345500D01*
X109110Y249957D02*
X121409D01*
X108500D02*
X109110D01*
X121409D02*
X125866Y245500D01*
X126063D01*
X111039Y271096D02*
X113917Y268218D01*
Y254764D02*
Y268218D01*
X111039Y271096D02*
Y287311D01*
X109110Y249957D02*
X113917Y254764D01*
X111039Y261130D02*
Y263689D01*
X104598Y254689D02*
X111039Y261130D01*
X104598Y247544D02*
Y254689D01*
Y247544D02*
X108500Y243642D01*
Y237043D02*
Y243642D01*
X90961Y261130D02*
Y263689D01*
X83563Y245500D02*
X83760D01*
X82299Y273378D02*
Y287311D01*
Y273378D02*
X85177Y270500D01*
Y246917D02*
Y270500D01*
X83760Y245500D02*
X85177Y246917D01*
X67000Y250457D02*
X78409D01*
X83366Y245500D01*
X83563D01*
X67000Y250457D02*
Y279000D01*
X61039Y284961D02*
X67000Y279000D01*
X61039Y284961D02*
Y287311D01*
X108500Y229500D02*
Y237043D01*
X67000Y229500D02*
Y237543D01*
X61039Y237039D02*
Y263689D01*
X56000Y232000D02*
X61039Y237039D01*
X216500Y96803D02*
X217063Y96240D01*
X229071Y96437D02*
X233000D01*
X225134Y92500D02*
X229071Y96437D01*
X241781Y74937D02*
X242667D01*
X240509Y76209D02*
X241781Y74937D01*
X240509Y76209D02*
Y77095D01*
X206000Y60110D02*
Y91720D01*
X198390Y52500D02*
X206000Y60110D01*
X172428Y88377D02*
Y89991D01*
X170072Y86021D02*
X172428Y88377D01*
Y89991D02*
X173500Y91063D01*
X115189Y91551D02*
X119138Y95500D01*
X113063Y101575D02*
X119138Y95500D01*
X242667Y74937D02*
X254000D01*
X232500Y76104D02*
Y82000D01*
X231333Y74937D02*
X232500Y76104D01*
Y82000D02*
Y88063D01*
X233000Y88563D01*
X213083Y144075D02*
X213256Y143902D01*
X240342Y53335D02*
Y55544D01*
Y53335D02*
X241614Y52063D01*
X213256Y143902D02*
X216657D01*
X241614Y52063D02*
X242500D01*
X189437Y124000D02*
X195551D01*
X212910Y134012D02*
X213083Y133839D01*
X165000Y124240D02*
Y148500D01*
X164500Y123740D02*
X165000Y124240D01*
X212909Y126335D02*
X213083Y126161D01*
X253500Y52000D02*
Y66563D01*
X254000Y67063D01*
X481883Y58883D02*
Y60035D01*
X481500Y58500D02*
X481883Y58883D01*
Y60035D02*
X481933Y60086D01*
Y156067D01*
X477500Y160500D02*
X481933Y156067D01*
X462909Y155909D02*
X467500Y160500D01*
X472012Y154754D02*
Y345988D01*
X467500Y350500D02*
X472012Y345988D01*
X492012Y160476D02*
X492988Y340526D01*
X493473Y342536D02*
X497500Y350500D01*
X507500Y170500D02*
X512500Y165500D01*
X88437Y125500D02*
X93980D01*
X522012Y154512D02*
Y345988D01*
X517500Y350500D02*
X522012Y345988D01*
X522000Y154500D02*
X522012Y154512D01*
X144063Y179000D02*
X149500D01*
X144000Y178937D02*
X144063Y179000D01*
X102563D02*
X108000D01*
X102500Y178937D02*
X102563Y179000D01*
X81563D02*
X87000D01*
X81000Y178437D02*
X81563Y179000D01*
X164000Y178937D02*
X168937D01*
X60000D02*
X60063Y179000D01*
X189000Y54500D02*
X191000Y52500D01*
X198390D01*
X49500Y154937D02*
Y161740D01*
X50760Y163000D01*
X328000Y108299D02*
Y123541D01*
X309000Y108299D02*
Y122541D01*
X302909Y128631D02*
X309000Y122541D01*
X156937Y124000D02*
X164240D01*
X164500Y123740D01*
X182500Y98638D02*
X185638Y95500D01*
X181563Y116000D02*
X182500Y115063D01*
Y98638D02*
Y115063D01*
X181563Y116000D02*
Y124000D01*
X150512Y95500D02*
X151201D01*
X170072Y58432D02*
Y86021D01*
X136447Y59057D02*
Y85396D01*
X101822Y58682D02*
Y85771D01*
X67500Y57610D02*
Y88449D01*
X47701Y82565D02*
Y95500D01*
X120874Y124000D02*
X127740D01*
X116638Y95500D02*
X117701D01*
X113063Y101575D02*
Y116000D01*
X113000Y116063D02*
X113063Y116000D01*
X113000Y116063D02*
Y124000D01*
X93980Y125500D02*
X95500Y123980D01*
X80563Y98075D02*
Y116000D01*
Y98075D02*
X83138Y95500D01*
X80563Y116000D02*
Y125500D01*
X154591Y205512D02*
X161039D01*
X154000D02*
X154591D01*
X161039D02*
X163114Y203437D01*
X164000D01*
X135091Y205512D02*
X141039D01*
X134500D02*
X135091D01*
X141039D02*
X143114Y203437D01*
X144000D01*
X92590Y205512D02*
X99539D01*
X92000D02*
X92590D01*
X101614Y203437D02*
X102500D01*
X99539Y205512D02*
X101614Y203437D01*
X70591Y205512D02*
X78039D01*
X70000D02*
X70591D01*
X78039D02*
X80114Y203437D01*
X81000D01*
X50500Y205512D02*
X57539D01*
X59614Y203437D01*
X60500D01*
X197409Y411512D02*
X198000D01*
X199000Y425648D02*
Y450102D01*
X203909Y455012D01*
X204500D01*
X193000Y421563D02*
X193886D01*
Y422063D02*
X194658Y422835D01*
X237216Y456233D02*
X237449Y456000D01*
X94750Y322927D02*
Y328500D01*
X89512Y317689D02*
X94750Y322927D01*
X89512Y317000D02*
Y317689D01*
X78488Y317000D02*
Y317689D01*
X157000Y408024D02*
X157591D01*
X183114Y455937D02*
X184000D01*
X181843Y454665D02*
X183114Y455937D01*
X143000Y396988D02*
X143591D01*
X153516Y381628D02*
X153667Y381780D01*
X309162Y108137D02*
X316363D01*
X309000Y108299D02*
X309162Y108137D01*
X327110Y70000D02*
X328783D01*
X327110Y75000D02*
X328783D01*
X339868Y65000D02*
X342868Y68000D01*
X328783Y65000D02*
X339868D01*
X342868Y68000D02*
X344000D01*
X342353Y58000D02*
X344000D01*
X340353Y60000D02*
X342353Y58000D01*
X328783Y60000D02*
X340353D01*
X52437Y125512D02*
Y126000D01*
Y125512D02*
X53709Y124240D01*
X174000Y205512D02*
Y211500D01*
X184500Y222000D01*
X183614Y203437D02*
X184500D01*
X174000Y205512D02*
X181539D01*
X183614Y203437D01*
X164000Y211500D02*
X184500Y232000D01*
X164000Y203437D02*
Y211500D01*
X156945Y208457D02*
X165445Y216957D01*
X154591Y205512D02*
X156945Y207866D01*
Y208457D01*
X165445Y216957D02*
Y221445D01*
X166000Y222000D01*
X144000Y210000D02*
X166000Y232000D01*
X144000Y203437D02*
Y210000D01*
X137445Y208457D02*
X141000Y212012D01*
Y221000D01*
X135091Y205512D02*
X137445Y207866D01*
Y208457D01*
X102500Y203437D02*
X103386D01*
X119500Y219551D01*
Y221000D01*
X96500Y231500D02*
X103500Y224500D01*
Y217012D02*
Y224500D01*
X92590Y205512D02*
X94945Y207866D01*
Y208457D01*
X103500Y217012D01*
X81000Y203437D02*
X81886D01*
X87055Y208606D01*
Y212055D01*
X96500Y221500D01*
X70591Y205512D02*
X72945Y207866D01*
Y208457D01*
X77667Y213178D01*
Y221500D01*
X61386Y203437D02*
X62657Y204709D01*
Y216491D01*
X60500Y203437D02*
X61386D01*
X62657Y216491D02*
X77667Y231500D01*
X164000Y178937D02*
Y195563D01*
X144000Y178937D02*
Y195563D01*
X102500Y178937D02*
Y195563D01*
X81000Y178437D02*
Y195563D01*
X60500Y179437D02*
Y195563D01*
X173681Y58429D02*
X179610Y52500D01*
X187000D01*
X189000Y54500D01*
X156750Y52500D02*
X164140D01*
X154750Y54500D02*
X156750Y52500D01*
X164140D02*
X170072Y58432D01*
X145360Y52500D02*
X152750D01*
X139431Y58429D02*
X145360Y52500D01*
X152750D02*
X154750Y54500D01*
X136447Y85396D02*
X140500Y89449D01*
X129890Y52500D02*
X136447Y59057D01*
X120500Y54500D02*
X122500Y52500D01*
X129890D01*
X105181Y58429D02*
X111360Y52250D01*
X118250D02*
X120500Y54500D01*
X111360Y52250D02*
X118250D01*
X101822Y85771D02*
X107614Y91563D01*
X88250Y52500D02*
X95639D01*
X86250Y54500D02*
X88250Y52500D01*
X95639D02*
X101822Y58682D01*
X77360Y52000D02*
X83750D01*
X86250Y54500D01*
X70931Y58429D02*
X77360Y52000D01*
X50000Y51500D02*
X52000Y53500D01*
X42610Y51500D02*
X50000D01*
X67500Y88449D02*
X70614Y91563D01*
X60728Y50839D02*
X67500Y57610D01*
X52000Y53500D02*
X54590Y50909D01*
X55590D02*
X55661Y50839D01*
X60728D01*
X54590Y50909D02*
X55590D01*
X36681Y57429D02*
X42610Y51500D01*
X173681Y58429D02*
Y73551D01*
X181689Y81559D01*
Y91551D01*
X185638Y95500D01*
X139431Y58429D02*
Y72926D01*
X148689Y91551D02*
X152638Y95500D01*
X148689Y82184D02*
Y91551D01*
X139431Y72926D02*
X148689Y82184D01*
X140500Y89449D02*
Y91563D01*
X105181Y72551D02*
X115189Y82559D01*
Y91551D01*
X105181Y58429D02*
Y72551D01*
X107614Y91563D02*
X108500D01*
X70931Y58429D02*
Y71465D01*
X79189Y79723D01*
Y91551D01*
X83138Y95500D01*
X70614Y91563D02*
X71500D01*
X36681Y57429D02*
Y71545D01*
X47701Y82565D01*
X44563Y98638D02*
X47701Y95500D01*
X44563Y98638D02*
Y116000D01*
Y126000D01*
X13661Y233551D02*
X17929Y237819D01*
X30103D01*
X0Y500500D02*
X675000D01*
Y39000D02*
Y500500D01*
X0Y39000D02*
X675000D01*
X0D02*
Y500500D01*
D19*
X218000Y192532D02*
Y196468D01*
X216032Y194500D02*
X219969D01*
X220532Y323000D02*
X224468D01*
X222500Y321031D02*
Y324969D01*
D20*
X245138Y296031D02*
Y349969D01*
X199862Y296031D02*
Y349969D01*
X245138D01*
X199862Y296031D02*
X245138D01*
D22*
X119000Y313488D02*
D03*
Y339512D02*
D03*
D23*
X161500Y448500D02*
D03*
Y437476D02*
D03*
X522000Y56512D02*
D03*
Y45488D02*
D03*
X532500D02*
D03*
Y56512D02*
D03*
X229000Y455524D02*
D03*
Y444500D02*
D03*
X204500Y443988D02*
D03*
Y455012D02*
D03*
X215071Y411429D02*
D03*
Y400406D02*
D03*
X198000Y400488D02*
D03*
Y411512D02*
D03*
X157000Y397000D02*
D03*
Y408024D02*
D03*
X143000Y396988D02*
D03*
Y408012D02*
D03*
X41000Y394976D02*
D03*
Y406000D02*
D03*
X174000Y205512D02*
D03*
Y194488D02*
D03*
X92000Y205512D02*
D03*
Y194488D02*
D03*
X70000Y205512D02*
D03*
Y194488D02*
D03*
X50500D02*
D03*
Y205512D02*
D03*
X134500D02*
D03*
Y194488D02*
D03*
X154000Y205512D02*
D03*
Y194488D02*
D03*
X114000Y205512D02*
D03*
Y194488D02*
D03*
D24*
X264500Y406500D02*
D03*
Y398626D02*
D03*
X169500Y408374D02*
D03*
Y400500D02*
D03*
X178000Y400126D02*
D03*
Y408000D02*
D03*
X614500Y450437D02*
D03*
Y442563D02*
D03*
X608000Y398063D02*
D03*
Y405937D02*
D03*
X599000Y398126D02*
D03*
Y406000D02*
D03*
X614500Y460063D02*
D03*
Y467937D02*
D03*
X604000Y460563D02*
D03*
Y468437D02*
D03*
Y450437D02*
D03*
Y442563D02*
D03*
Y478563D02*
D03*
Y486437D02*
D03*
X614500Y478063D02*
D03*
Y485937D02*
D03*
X547500Y473937D02*
D03*
Y466063D02*
D03*
Y459937D02*
D03*
Y452063D02*
D03*
X192500Y456000D02*
D03*
Y448126D02*
D03*
X184000Y448063D02*
D03*
Y455937D02*
D03*
X215500Y429500D02*
D03*
Y421626D02*
D03*
X226000Y421563D02*
D03*
Y429437D02*
D03*
X205000Y421563D02*
D03*
Y429437D02*
D03*
X194000Y421563D02*
D03*
Y429437D02*
D03*
X179500Y429374D02*
D03*
Y421500D02*
D03*
X254500Y398500D02*
D03*
Y406374D02*
D03*
X264500Y417000D02*
D03*
Y424874D02*
D03*
X254500Y417126D02*
D03*
Y425000D02*
D03*
X232000Y376563D02*
D03*
Y384437D02*
D03*
X223000Y376563D02*
D03*
Y384437D02*
D03*
X184500Y203437D02*
D03*
Y195563D02*
D03*
Y179437D02*
D03*
Y171563D02*
D03*
X102500Y171063D02*
D03*
Y178937D02*
D03*
X59000Y152937D02*
D03*
Y145063D02*
D03*
X49500D02*
D03*
Y152937D02*
D03*
X85500Y151563D02*
D03*
Y159437D02*
D03*
X161000Y154063D02*
D03*
Y161937D02*
D03*
X152000Y154063D02*
D03*
Y161937D02*
D03*
X144000Y154063D02*
D03*
Y161937D02*
D03*
X136000D02*
D03*
Y154063D02*
D03*
X99500Y139063D02*
D03*
Y146937D02*
D03*
X110000D02*
D03*
Y139063D02*
D03*
X71500Y99437D02*
D03*
Y91563D02*
D03*
X107000D02*
D03*
Y99437D02*
D03*
X206000Y91563D02*
D03*
Y99437D02*
D03*
X253500Y89063D02*
D03*
Y96937D02*
D03*
X243500D02*
D03*
Y89063D02*
D03*
X233000Y96437D02*
D03*
Y88563D02*
D03*
X254000Y67063D02*
D03*
Y74937D02*
D03*
X242667Y67063D02*
D03*
Y74937D02*
D03*
X242500Y59937D02*
D03*
Y52063D02*
D03*
X231000Y51563D02*
D03*
Y59437D02*
D03*
X220000Y51563D02*
D03*
Y59437D02*
D03*
X242000Y376563D02*
D03*
Y384437D02*
D03*
X209000Y366937D02*
D03*
Y359063D02*
D03*
X218000Y366937D02*
D03*
Y359063D02*
D03*
X102500Y195563D02*
D03*
Y203437D02*
D03*
X81000Y170563D02*
D03*
Y178437D02*
D03*
Y195563D02*
D03*
Y203437D02*
D03*
X60000Y178937D02*
D03*
Y171063D02*
D03*
X60500Y203437D02*
D03*
Y195563D02*
D03*
X144000Y171063D02*
D03*
Y178937D02*
D03*
Y195563D02*
D03*
Y203437D02*
D03*
X220000Y67063D02*
D03*
Y74937D02*
D03*
X318500Y450437D02*
D03*
Y442563D02*
D03*
X327500D02*
D03*
Y450437D02*
D03*
X336500Y442563D02*
D03*
Y450437D02*
D03*
X243500Y425000D02*
D03*
Y417126D02*
D03*
X164000Y171063D02*
D03*
Y178937D02*
D03*
Y195563D02*
D03*
Y203437D02*
D03*
X124500Y170563D02*
D03*
Y178437D02*
D03*
X124000Y195563D02*
D03*
Y203437D02*
D03*
X150614Y449000D02*
D03*
Y441126D02*
D03*
X173500Y91063D02*
D03*
Y98937D02*
D03*
X140500Y91563D02*
D03*
Y99437D02*
D03*
X231333Y74937D02*
D03*
Y67063D02*
D03*
D25*
X67000Y366882D02*
D03*
Y397000D02*
D03*
D26*
X156976Y419500D02*
D03*
X168000D02*
D03*
X411512Y420000D02*
D03*
X400488D02*
D03*
D27*
X587917Y442425D02*
D03*
Y444984D02*
D03*
Y447543D02*
D03*
Y450102D02*
D03*
Y452661D02*
D03*
Y455221D02*
D03*
Y457780D02*
D03*
Y460339D02*
D03*
Y462898D02*
D03*
Y465457D02*
D03*
Y468016D02*
D03*
Y470575D02*
D03*
X565083Y442425D02*
D03*
Y444984D02*
D03*
Y447543D02*
D03*
Y450102D02*
D03*
Y452661D02*
D03*
Y455221D02*
D03*
Y457780D02*
D03*
Y460339D02*
D03*
Y462898D02*
D03*
Y465457D02*
D03*
Y468016D02*
D03*
Y470575D02*
D03*
X213083Y144075D02*
D03*
Y141516D02*
D03*
Y138957D02*
D03*
Y136398D02*
D03*
Y133839D02*
D03*
Y131280D02*
D03*
Y128720D02*
D03*
Y126161D02*
D03*
Y123602D02*
D03*
Y121043D02*
D03*
Y118484D02*
D03*
Y115925D02*
D03*
X235917Y144075D02*
D03*
Y141516D02*
D03*
Y138957D02*
D03*
Y136398D02*
D03*
Y133839D02*
D03*
Y131280D02*
D03*
Y128720D02*
D03*
Y126161D02*
D03*
Y123602D02*
D03*
Y121043D02*
D03*
Y118484D02*
D03*
Y115925D02*
D03*
D28*
X538158Y68000D02*
D03*
Y73000D02*
D03*
Y78000D02*
D03*
Y83000D02*
D03*
Y88000D02*
D03*
Y93000D02*
D03*
Y98000D02*
D03*
Y103000D02*
D03*
X497843Y68000D02*
D03*
Y73000D02*
D03*
Y78000D02*
D03*
Y83000D02*
D03*
Y88000D02*
D03*
Y93000D02*
D03*
Y98000D02*
D03*
Y103000D02*
D03*
D29*
X309000Y108299D02*
D03*
Y95701D02*
D03*
X624000Y406201D02*
D03*
Y418799D02*
D03*
X73000Y157799D02*
D03*
Y145201D02*
D03*
X328000Y95701D02*
D03*
Y108299D02*
D03*
D30*
X627437Y429000D02*
D03*
X619563D02*
D03*
X52437Y124000D02*
D03*
X44563D02*
D03*
X149063D02*
D03*
X156937D02*
D03*
X181563D02*
D03*
X189437D02*
D03*
X181563Y116000D02*
D03*
X189437D02*
D03*
X113000Y124000D02*
D03*
X120874D02*
D03*
X80563Y116000D02*
D03*
X88437D02*
D03*
X44563D02*
D03*
X52437D02*
D03*
X149063D02*
D03*
X156937D02*
D03*
X113063D02*
D03*
X120937D02*
D03*
X80563Y124000D02*
D03*
X88437D02*
D03*
D31*
X609740Y414000D02*
D03*
X602260D02*
D03*
X56740Y337000D02*
D03*
X49260D02*
D03*
X56740Y327000D02*
D03*
X49260D02*
D03*
X57740Y160500D02*
D03*
X50260D02*
D03*
X119260Y139500D02*
D03*
X126740D02*
D03*
X265760Y75500D02*
D03*
X273240D02*
D03*
X265760Y66500D02*
D03*
X273240D02*
D03*
X265760Y56500D02*
D03*
X273240D02*
D03*
X119260Y148000D02*
D03*
X126740D02*
D03*
X345240Y82500D02*
D03*
X337760D02*
D03*
X265760Y85000D02*
D03*
X273240D02*
D03*
D32*
X537437Y460000D02*
D03*
X529563Y456260D02*
D03*
Y463740D02*
D03*
X144937Y323760D02*
D03*
Y331240D02*
D03*
X137063Y327500D02*
D03*
X171063Y244500D02*
D03*
X178937Y248240D02*
D03*
Y240760D02*
D03*
X126063Y245500D02*
D03*
X133937Y249240D02*
D03*
Y241760D02*
D03*
X91437D02*
D03*
Y249240D02*
D03*
X83563Y245500D02*
D03*
X493937Y449500D02*
D03*
X486063Y445760D02*
D03*
Y453240D02*
D03*
X224937Y92500D02*
D03*
X217063Y88760D02*
D03*
Y96240D02*
D03*
D33*
X490500Y104740D02*
D03*
Y97260D02*
D03*
X62000Y123740D02*
D03*
Y116260D02*
D03*
X95500D02*
D03*
Y123740D02*
D03*
X128000Y116260D02*
D03*
Y123740D02*
D03*
X164500Y116260D02*
D03*
Y123740D02*
D03*
X196500Y116260D02*
D03*
Y123740D02*
D03*
X546000Y104240D02*
D03*
Y96760D02*
D03*
D34*
X482189Y435461D02*
D03*
Y422862D02*
D03*
Y414201D02*
D03*
Y405539D02*
D03*
X505811Y435461D02*
D03*
X505811Y422862D02*
D03*
Y414201D02*
D03*
Y405539D02*
D03*
X465811D02*
D03*
Y418138D02*
D03*
Y426799D02*
D03*
Y435461D02*
D03*
X442189Y405539D02*
D03*
X442189Y418138D02*
D03*
Y426799D02*
D03*
Y435461D02*
D03*
D35*
X449043Y447500D02*
D03*
X461957D02*
D03*
D36*
X426000Y418043D02*
D03*
Y430957D02*
D03*
X108500Y249957D02*
D03*
Y237043D02*
D03*
X67000Y250457D02*
D03*
Y237543D02*
D03*
X153000Y250457D02*
D03*
Y237543D02*
D03*
X146000Y299543D02*
D03*
Y312457D02*
D03*
D37*
X237449Y456000D02*
D03*
X243551D02*
D03*
X237398Y443500D02*
D03*
X243500D02*
D03*
X212898Y456000D02*
D03*
X219000D02*
D03*
X212898Y443500D02*
D03*
X219000D02*
D03*
D38*
X197835Y384177D02*
D03*
X233167Y406839D02*
D03*
X153667Y384339D02*
D03*
D39*
X197835Y381618D02*
D03*
Y379059D02*
D03*
Y376500D02*
D03*
X206500D02*
D03*
Y379059D02*
D03*
Y381618D02*
D03*
Y384177D02*
D03*
X241833Y406839D02*
D03*
Y404280D02*
D03*
Y401721D02*
D03*
Y399161D02*
D03*
X233167D02*
D03*
Y401721D02*
D03*
Y404280D02*
D03*
X162333Y384339D02*
D03*
Y381780D02*
D03*
Y379221D02*
D03*
Y376661D02*
D03*
X153667D02*
D03*
Y379221D02*
D03*
Y381780D02*
D03*
D40*
X44000Y362500D02*
D03*
X51000Y406500D02*
D03*
X66500Y315500D02*
D03*
X215000Y436000D02*
D03*
X89500Y439000D02*
D03*
X336500Y425500D02*
D03*
X254750Y361750D02*
D03*
X254250Y342750D02*
D03*
X148500Y422500D02*
D03*
X141500Y416000D02*
D03*
X148500D02*
D03*
X141500Y422500D02*
D03*
X280000Y385500D02*
D03*
X298000Y393000D02*
D03*
X238000Y393500D02*
D03*
X269500D02*
D03*
X231500D02*
D03*
X254500D02*
D03*
X135000Y306799D02*
D03*
X237500Y418500D02*
D03*
X288000Y408500D02*
D03*
X102000Y311000D02*
D03*
X164500Y314299D02*
D03*
X288000Y302500D02*
D03*
X91000Y296000D02*
D03*
X212000Y303000D02*
D03*
X342500Y400500D02*
D03*
X379500Y405000D02*
D03*
X211500Y373500D02*
D03*
X268750Y374250D02*
D03*
X252000Y374000D02*
D03*
X291500Y419000D02*
D03*
X305500Y422000D02*
D03*
X279500Y426000D02*
D03*
X298500Y414500D02*
D03*
X243500Y431000D02*
D03*
X292500Y348000D02*
D03*
X228500Y466000D02*
D03*
X237500Y461500D02*
D03*
X259500Y446500D02*
D03*
X221500Y449500D02*
D03*
X198500Y460000D02*
D03*
X172000Y451000D02*
D03*
X169000Y434500D02*
D03*
X150500Y431000D02*
D03*
X161500Y430000D02*
D03*
X167500Y466500D02*
D03*
X232000Y362500D02*
D03*
X182000Y435000D02*
D03*
X183500Y415000D02*
D03*
X184500Y401500D02*
D03*
Y408000D02*
D03*
X175386Y414437D02*
D03*
X206500Y412500D02*
D03*
Y402000D02*
D03*
X194000Y440000D02*
D03*
X222571Y411406D02*
D03*
X223000Y390000D02*
D03*
X226000Y404500D02*
D03*
X258000Y379500D02*
D03*
X260500Y431500D02*
D03*
X251000Y431000D02*
D03*
X237500Y309500D02*
D03*
X268750Y330250D02*
D03*
X208500Y348500D02*
D03*
X601000Y420000D02*
D03*
X591000Y409500D02*
D03*
X584000Y405500D02*
D03*
X175500Y463000D02*
D03*
X276000Y358000D02*
D03*
X283500Y352501D02*
D03*
X42500Y180000D02*
D03*
X119500Y329500D02*
D03*
X174000Y339500D02*
D03*
X303000Y324750D02*
D03*
X170000Y374000D02*
D03*
Y379500D02*
D03*
X402000Y360500D02*
D03*
X159000Y362000D02*
D03*
X106500Y344500D02*
D03*
X175500Y393000D02*
D03*
X188500Y381500D02*
D03*
X413000Y44500D02*
D03*
X422500Y72000D02*
D03*
X391500Y89000D02*
D03*
X220000Y43000D02*
D03*
X230500Y46000D02*
D03*
X579500Y489000D02*
D03*
X572500Y484500D02*
D03*
X566000Y479000D02*
D03*
X585000Y415000D02*
D03*
X474000Y418000D02*
D03*
X529500Y323000D02*
D03*
X552500Y323500D02*
D03*
X530000Y444500D02*
D03*
X622000Y108500D02*
D03*
X663000Y362500D02*
D03*
X632000Y330500D02*
D03*
X624420Y442546D02*
D03*
X542500Y335000D02*
D03*
X564500Y435500D02*
D03*
X609000Y242000D02*
D03*
X541500Y447000D02*
D03*
X588000Y478500D02*
D03*
X379500Y462000D02*
D03*
X327500D02*
D03*
X592500Y375500D02*
D03*
X394500Y409000D02*
D03*
X318500Y469500D02*
D03*
X523000Y420000D02*
D03*
X523250Y451250D02*
D03*
X552000Y435500D02*
D03*
X545500D02*
D03*
X558000D02*
D03*
X519000Y431500D02*
D03*
Y492000D02*
D03*
X514000Y496500D02*
D03*
X514500Y426000D02*
D03*
X501000Y490000D02*
D03*
X538500Y435500D02*
D03*
X423500Y330500D02*
D03*
X276000Y379500D02*
D03*
X212250Y379059D02*
D03*
X327500Y289000D02*
D03*
X47000Y292500D02*
D03*
X130000Y179000D02*
D03*
X249500Y61115D02*
D03*
X423000Y209500D02*
D03*
X342000Y210000D02*
D03*
Y158500D02*
D03*
X174500Y158000D02*
D03*
X220000Y80500D02*
D03*
X214313Y84707D02*
D03*
X205000Y105000D02*
D03*
X173500D02*
D03*
X639500Y89000D02*
D03*
X632000D02*
D03*
X624500Y463500D02*
D03*
X135000Y118000D02*
D03*
X261500Y137000D02*
D03*
X290000Y142500D02*
D03*
X261500Y168500D02*
D03*
X52000Y131000D02*
D03*
X267000Y123000D02*
D03*
Y131000D02*
D03*
X260000Y127500D02*
D03*
X443000Y44500D02*
D03*
X382500Y76000D02*
D03*
X490000D02*
D03*
X489500Y89000D02*
D03*
X545500Y114000D02*
D03*
X518000Y98500D02*
D03*
X562500D02*
D03*
X364000Y96500D02*
D03*
X562500Y89000D02*
D03*
X364000Y90500D02*
D03*
X372500Y106000D02*
D03*
X347500Y193000D02*
D03*
Y163000D02*
D03*
X613000Y80500D02*
D03*
X552500Y103000D02*
D03*
X463500Y68000D02*
D03*
X295500Y95000D02*
D03*
X213000Y198500D02*
D03*
X222000Y192000D02*
D03*
X202500Y393500D02*
D03*
X68500Y303500D02*
D03*
X144000Y157665D02*
D03*
X42500Y141000D02*
D03*
X86500Y140500D02*
D03*
X70000Y133500D02*
D03*
X92000Y109000D02*
D03*
X104500Y132000D02*
D03*
X124000Y109000D02*
D03*
X246000Y102500D02*
D03*
X253500Y80000D02*
D03*
X243000Y79500D02*
D03*
X323000Y85000D02*
D03*
X489500Y401000D02*
D03*
X441500Y448500D02*
D03*
X491000Y445000D02*
D03*
X66000Y179000D02*
D03*
X45000Y163000D02*
D03*
X614500Y435500D02*
D03*
X466000Y401000D02*
D03*
X582500Y356500D02*
D03*
X479000Y445500D02*
D03*
X506000Y445000D02*
D03*
X426047Y398047D02*
D03*
X442095Y398095D02*
D03*
X400500Y431000D02*
D03*
X374500D02*
D03*
X455500Y444500D02*
D03*
X411500D02*
D03*
X366500Y426500D02*
D03*
X262500Y497000D02*
D03*
X306000Y400500D02*
D03*
X227500Y416500D02*
D03*
X208000Y393000D02*
D03*
X431500Y320500D02*
D03*
X190500Y321000D02*
D03*
X198000Y370500D02*
D03*
X572500Y375500D02*
D03*
X153500Y371000D02*
D03*
X190500Y294500D02*
D03*
X141000D02*
D03*
X78500Y310500D02*
D03*
X151000Y261000D02*
D03*
X184750Y208750D02*
D03*
X289500Y243000D02*
D03*
X199294Y198881D02*
D03*
X203000Y260500D02*
D03*
X207000Y141500D02*
D03*
X140500Y241500D02*
D03*
X185500Y240500D02*
D03*
X208000D02*
D03*
X210000Y191500D02*
D03*
X266000Y95500D02*
D03*
X256500Y109000D02*
D03*
X227500Y87500D02*
D03*
X216500Y105500D02*
D03*
X204000Y112000D02*
D03*
X244500Y113000D02*
D03*
X512500Y119000D02*
D03*
X468757Y151750D02*
D03*
X492000Y151500D02*
D03*
X340000Y95500D02*
D03*
X503000Y148500D02*
D03*
X187500Y185500D02*
D03*
X190500Y191500D02*
D03*
X196000Y195500D02*
D03*
X229000Y183000D02*
D03*
X231500Y176000D02*
D03*
X183000Y145500D02*
D03*
X92500Y255000D02*
D03*
X482500Y193500D02*
D03*
X137500Y280000D02*
D03*
X86500Y232000D02*
D03*
X175500D02*
D03*
X130000D02*
D03*
X153500Y229500D02*
D03*
X108500D02*
D03*
X67000D02*
D03*
X115000Y133500D02*
D03*
X232500Y82000D02*
D03*
X165000Y148500D02*
D03*
X253500Y52000D02*
D03*
X624000Y397500D02*
D03*
X481500Y58500D02*
D03*
X189500Y109000D02*
D03*
X157000D02*
D03*
X52500D02*
D03*
X522000Y154500D02*
D03*
X169500Y179000D02*
D03*
X149500D02*
D03*
X108000D02*
D03*
X87000D02*
D03*
X322500Y336500D02*
D03*
D41*
X18000Y395276D02*
D03*
Y379724D02*
D03*
D42*
X94750Y328500D02*
D03*
Y333500D02*
D03*
Y338500D02*
D03*
Y343500D02*
D03*
X75250D02*
D03*
Y338500D02*
D03*
Y333500D02*
D03*
Y328500D02*
D03*
D43*
X46988Y315500D02*
D03*
X58012D02*
D03*
X46988Y303500D02*
D03*
X58012D02*
D03*
X89512Y317000D02*
D03*
X78488D02*
D03*
D44*
X140961Y287311D02*
D03*
X132299D02*
D03*
X123638D02*
D03*
X111039Y287311D02*
D03*
X140961Y263689D02*
D03*
X132299D02*
D03*
X123638D02*
D03*
X111039D02*
D03*
X160539D02*
D03*
X173138D02*
D03*
X181799D02*
D03*
X190461D02*
D03*
X160539Y287311D02*
D03*
X173138Y287311D02*
D03*
X181799D02*
D03*
X190461D02*
D03*
X61039Y263689D02*
D03*
X73638D02*
D03*
X82299D02*
D03*
X90961D02*
D03*
X61039Y287311D02*
D03*
X73638Y287311D02*
D03*
X82299D02*
D03*
X90961D02*
D03*
X190461Y329311D02*
D03*
X181799D02*
D03*
X173138D02*
D03*
X160539Y329311D02*
D03*
X190461Y305689D02*
D03*
X181799D02*
D03*
X173138D02*
D03*
X160539D02*
D03*
D45*
X223500Y283000D02*
D03*
Y249142D02*
D03*
D46*
X218000Y214382D02*
D03*
Y174618D02*
D03*
D47*
X176000Y172949D02*
D03*
Y179051D02*
D03*
X155000Y171949D02*
D03*
Y178051D02*
D03*
X135500Y171949D02*
D03*
Y178051D02*
D03*
X114000Y171949D02*
D03*
Y178051D02*
D03*
X93000Y171949D02*
D03*
Y178051D02*
D03*
X71500Y171949D02*
D03*
Y178051D02*
D03*
X50000Y172449D02*
D03*
Y178551D02*
D03*
D48*
X118933Y156047D02*
D03*
Y158016D02*
D03*
Y159984D02*
D03*
Y161953D02*
D03*
X128067Y156047D02*
D03*
Y158016D02*
D03*
Y159984D02*
D03*
Y161953D02*
D03*
D49*
X125469Y155417D02*
D03*
X123500D02*
D03*
X121531D02*
D03*
X125469Y162583D02*
D03*
X123500D02*
D03*
X121531D02*
D03*
D50*
X60299Y95500D02*
D03*
X47701D02*
D03*
X95299Y96000D02*
D03*
X82701D02*
D03*
X130299Y95500D02*
D03*
X117701D02*
D03*
X163799D02*
D03*
X151201D02*
D03*
X195799D02*
D03*
X183201D02*
D03*
D51*
X328783Y50000D02*
D03*
Y55000D02*
D03*
Y60000D02*
D03*
Y65000D02*
D03*
Y70000D02*
D03*
Y75000D02*
D03*
Y80000D02*
D03*
Y85000D02*
D03*
X289216Y50000D02*
D03*
Y55000D02*
D03*
Y60000D02*
D03*
Y65000D02*
D03*
Y70000D02*
D03*
Y75000D02*
D03*
Y80000D02*
D03*
Y85000D02*
D03*
D52*
X366500Y413071D02*
D03*
Y446929D02*
D03*
X111500Y367071D02*
D03*
Y400929D02*
D03*
D53*
X252500Y459512D02*
D03*
Y448488D02*
D03*
D54*
X222500Y339831D02*
D03*
Y306169D02*
D03*
D73*
X85000Y336000D02*
D03*
D92*
X163535Y486905D02*
D03*
X621311Y53988D02*
D03*
X154750Y54500D02*
D03*
X86250D02*
D03*
X189000D02*
D03*
X52000Y53500D02*
D03*
X120500Y54500D02*
D03*
D93*
X163535Y475095D02*
D03*
X650201Y413189D02*
D03*
X652000Y89689D02*
D03*
Y101500D02*
D03*
X663811Y89689D02*
D03*
X13000Y130500D02*
D03*
X24811Y118689D02*
D03*
Y130500D02*
D03*
X621311Y65799D02*
D03*
X25811Y191000D02*
D03*
Y222500D02*
D03*
Y254000D02*
D03*
X154750Y66311D02*
D03*
X86250D02*
D03*
X189000D02*
D03*
X52000Y65311D02*
D03*
X120500Y66311D02*
D03*
X25811Y285500D02*
D03*
D94*
X175347Y471394D02*
D03*
X151724D02*
D03*
X646500Y401378D02*
D03*
Y425000D02*
D03*
X601622Y51799D02*
D03*
X554378D02*
D03*
X648299Y77878D02*
D03*
Y113311D02*
D03*
X28512Y106878D02*
D03*
Y142311D02*
D03*
X633122Y69500D02*
D03*
X609500D02*
D03*
X29512Y179189D02*
D03*
Y202811D02*
D03*
Y210689D02*
D03*
Y234311D02*
D03*
Y242189D02*
D03*
Y265811D02*
D03*
X166561Y70012D02*
D03*
X142939D02*
D03*
X98061D02*
D03*
X74439D02*
D03*
X200811D02*
D03*
X177189D02*
D03*
X40189Y69012D02*
D03*
X63811D02*
D03*
X132311Y70012D02*
D03*
X108689D02*
D03*
X29512Y273689D02*
D03*
Y297311D02*
D03*
D95*
X172000Y481000D02*
D03*
X155071D02*
D03*
X656106Y404724D02*
D03*
Y421654D02*
D03*
X657905Y109965D02*
D03*
Y81224D02*
D03*
X18905Y138965D02*
D03*
Y110224D02*
D03*
X629776Y59894D02*
D03*
X612847D02*
D03*
X19906Y182535D02*
D03*
Y199465D02*
D03*
Y214035D02*
D03*
Y230965D02*
D03*
Y245535D02*
D03*
Y262465D02*
D03*
X163215Y60405D02*
D03*
X146285D02*
D03*
X94715D02*
D03*
X77785D02*
D03*
X197465D02*
D03*
X180535D02*
D03*
X43535Y59405D02*
D03*
X60465D02*
D03*
X128965Y60405D02*
D03*
X112035D02*
D03*
X19906Y277035D02*
D03*
Y293965D02*
D03*
D98*
X662012Y413189D02*
D03*
X663811Y101500D02*
D03*
X13000Y118689D02*
D03*
X14000Y191000D02*
D03*
Y222500D02*
D03*
Y254000D02*
D03*
Y285500D02*
D03*
D105*
X298000Y393000D02*
X298500Y393500D01*
X292500Y387500D02*
X298000Y393000D01*
X235000Y396500D02*
X238000Y393500D01*
X235000Y396500D02*
Y398000D01*
X226500Y444488D02*
X237500Y433488D01*
X209000Y359000D02*
X217494D01*
X201500D02*
X209000D01*
X243500Y417126D02*
X254500D01*
X239084D02*
X243500D01*
X237500Y418500D02*
X237710D01*
X237500D02*
Y433488D01*
X237710Y418500D02*
X239084Y417126D01*
X298500Y414500D02*
Y440000D01*
Y393500D02*
Y414500D01*
X229594Y411406D02*
X234000Y407000D01*
X215094Y411406D02*
X222571D01*
X197835Y370665D02*
X198000Y370500D01*
X197835Y370665D02*
Y376500D01*
X336500Y425000D02*
Y442563D01*
X327500D02*
X328063Y442000D01*
X107480Y404949D02*
X111500Y400929D01*
X107480Y404949D02*
Y441500D01*
X251000Y430621D02*
Y431000D01*
X253614Y425000D02*
X254500D01*
X252642Y425972D02*
X253614Y425000D01*
X292500Y348000D02*
Y387500D01*
X254500Y406374D02*
X254563Y406437D01*
X264437D01*
X264500Y406500D01*
X254500Y406374D02*
Y417126D01*
X249823Y446500D02*
X250512D01*
X249757Y446434D02*
X249823Y446500D01*
X243526Y455974D02*
X243551Y456000D01*
X219000D02*
Y456098D01*
X243500Y443500D02*
X243526Y443526D01*
X237216Y456233D02*
X237474Y456492D01*
Y461474D02*
X237500Y461500D01*
X219000Y443500D02*
Y443598D01*
X232000Y362500D02*
Y376563D01*
Y352579D02*
Y362500D01*
X183121Y415000D02*
X183500D01*
X178000Y408000D02*
X184500D01*
X175386Y414437D02*
Y414816D01*
X174386Y415816D02*
X175386Y414816D01*
X174386Y415816D02*
Y425146D01*
X178614Y429374D01*
X179500D01*
X215071Y411429D02*
X215500Y411858D01*
Y421626D01*
X226000Y418084D02*
Y421563D01*
Y418084D02*
X227500Y416584D01*
Y416500D02*
Y416584D01*
X222571Y411406D02*
X229594D01*
X215071Y411429D02*
X215094Y411406D01*
X252500Y439500D02*
X260500Y431500D01*
X252500Y439500D02*
Y448488D01*
X262643Y425846D02*
X263614Y424874D01*
X262643Y425846D02*
Y428979D01*
X263614Y424874D02*
X264500D01*
X260500Y431121D02*
X262643Y428979D01*
X260500Y431121D02*
Y431500D01*
X264500Y417000D02*
X264528D01*
X232000Y376563D02*
X242000D01*
X223000D02*
X232000D01*
X222500Y343079D02*
X232000Y352579D01*
X222500Y339831D02*
Y343079D01*
X209000Y359000D02*
Y359063D01*
Y349379D02*
Y359000D01*
X208500Y348879D02*
X209000Y349379D01*
X208500Y348500D02*
Y348879D01*
X217494Y359000D02*
X217557Y359063D01*
X198000Y362500D02*
X201500Y359000D01*
X198000Y362500D02*
Y370500D01*
X162333Y381780D02*
X164279D01*
X169687Y408187D02*
X177813D01*
X169500Y408374D02*
X169687Y408187D01*
X177813D02*
X178000Y408000D01*
X168614Y408374D02*
X169500D01*
D106*
X288000Y302500D02*
Y408500D01*
X77500Y318677D02*
Y328075D01*
X77074Y328500D02*
X77500Y328075D01*
X75250Y328500D02*
X77074D01*
X77500Y318677D02*
X78488Y317689D01*
X102000Y311000D02*
X116512D01*
X228500Y251500D02*
X237500Y260500D01*
X212000Y303000D02*
X221079D01*
X328563Y442500D02*
X336437D01*
X178000Y429988D02*
Y450823D01*
Y429988D02*
X178614Y429374D01*
X178000Y450823D02*
X181843Y454665D01*
X237500Y260500D02*
Y309500D01*
X318500Y442563D02*
X327500D01*
X58012Y303500D02*
X68500D01*
X301342Y458835D02*
X317614Y442563D01*
X78488Y310512D02*
Y317000D01*
X222500Y284000D02*
Y304421D01*
D107*
X536386Y88000D02*
X538158D01*
X535136Y86750D02*
X536386Y88000D01*
X526000Y80331D02*
X532419Y86750D01*
X535136D01*
X538158Y88000D02*
X539929D01*
X535136Y84250D02*
X536386Y83000D01*
X533455Y84250D02*
X535136D01*
X536386Y83000D02*
X539929D01*
X528500Y79295D02*
X533455Y84250D01*
X546741D02*
X554991Y92500D01*
X539929Y83000D02*
X541179Y84250D01*
X546741D01*
X539929Y88000D02*
X541179Y86750D01*
X545706D01*
X553956Y95000D01*
X499500Y46500D02*
X520988D01*
X522000Y45488D01*
X504488Y51512D02*
X525886D01*
X531910Y45488D02*
X532500D01*
X525886Y51512D02*
X531910Y45488D01*
X499500Y56500D02*
X504488Y51512D01*
X562500Y95879D02*
Y98500D01*
X561621Y95000D02*
X562500Y95879D01*
X387500Y469800D02*
X391700Y474000D01*
X387500Y397234D02*
Y469800D01*
X372500Y382234D02*
X387500Y397234D01*
X372500Y378766D02*
Y382234D01*
X369472Y375738D02*
X372500Y378766D01*
X366004Y375738D02*
X369472D01*
X362500Y368766D02*
Y372234D01*
X366004Y375738D01*
X358599Y364865D02*
X362500Y368766D01*
X356401Y364865D02*
X358599D01*
X336500Y151691D02*
X343568Y144623D01*
X344810D02*
X345449Y145262D01*
X336500Y344965D02*
X356401Y364865D01*
X336500Y151691D02*
Y344965D01*
X349394Y145262D02*
X352375Y142281D01*
Y128719D02*
Y142281D01*
X345449Y145262D02*
X349394D01*
X343568Y144623D02*
X344810D01*
X553956Y95000D02*
X561621D01*
X362250Y94750D02*
X364000Y96500D01*
X355786Y98714D02*
X359750Y94750D01*
X352375Y128719D02*
X355786Y125308D01*
Y98714D02*
Y125308D01*
X359750Y94750D02*
X362250D01*
X561621Y92500D02*
X562500Y91621D01*
X554991Y92500D02*
X561621D01*
X562500Y89000D02*
Y91621D01*
X381000Y474000D02*
X385000Y470000D01*
X379900Y474000D02*
X381000D01*
X385000Y398270D02*
Y470000D01*
X371354Y384623D02*
X385000Y398270D01*
X362738Y382472D02*
X365528Y385262D01*
X369472D02*
X370111Y384623D01*
X365528Y385262D02*
X369472D01*
X370111Y384623D02*
X371354D01*
X363377Y376646D02*
Y377889D01*
X361353Y374623D02*
X363377Y376646D01*
X362738Y378528D02*
X363377Y377889D01*
X362738Y378528D02*
Y382472D01*
X359472Y375262D02*
X360111Y374623D01*
X355528Y375262D02*
X359472D01*
X352738Y372472D02*
X355528Y375262D01*
X360111Y374623D02*
X361353D01*
X352738Y368528D02*
X354012Y367254D01*
Y366012D02*
Y367254D01*
X352738Y368528D02*
Y372472D01*
X334000Y346000D02*
X354012Y366012D01*
X362250Y92250D02*
X364000Y90500D01*
X358715Y92250D02*
X362250D01*
X342421Y128766D02*
X345449Y125738D01*
X342421Y128766D02*
Y142234D01*
X349394Y125738D02*
X349985Y126330D01*
X334000Y150655D02*
Y346000D01*
Y150655D02*
X342421Y142234D01*
X353286Y97679D02*
Y124272D01*
X351228Y126330D02*
X353286Y124272D01*
Y97679D02*
X358715Y92250D01*
X349985Y126330D02*
X351228D01*
X345449Y125738D02*
X349394D01*
X528500Y59495D02*
Y79295D01*
Y59495D02*
X529379Y58616D01*
X530396D01*
X532500Y56512D01*
X526000Y59495D02*
Y80331D01*
X525121Y58616D02*
X526000Y59495D01*
X524104Y58616D02*
X525121D01*
X522000Y56512D02*
X524104Y58616D01*
X598800Y94750D02*
X602000Y97950D01*
Y98500D01*
X596522Y94750D02*
X598800D01*
X582655Y80884D02*
X596522Y94750D01*
X582655Y71966D02*
Y80884D01*
X578000Y67311D02*
X582655Y71966D01*
X597557Y92250D02*
X598800D01*
X602000Y88500D02*
Y89050D01*
X598800Y92250D02*
X602000Y89050D01*
X585155Y79848D02*
X597557Y92250D01*
X585155Y71966D02*
X589811Y67311D01*
X585155Y71966D02*
Y79848D01*
D108*
X647500Y380500D02*
D03*
X647421Y140500D02*
D03*
X607500Y350500D02*
D03*
X517500D02*
D03*
X643500Y170500D02*
D03*
X537500D02*
D03*
D109*
X647500Y370500D02*
D03*
X637500Y380500D02*
D03*
Y370500D02*
D03*
X627500Y380500D02*
D03*
Y370500D02*
D03*
X617500Y380500D02*
D03*
Y370500D02*
D03*
X607500Y380500D02*
D03*
Y370500D02*
D03*
X597500Y380500D02*
D03*
Y370500D02*
D03*
X587500Y380500D02*
D03*
Y370500D02*
D03*
X577500Y380500D02*
D03*
Y370500D02*
D03*
X567500Y380500D02*
D03*
Y370500D02*
D03*
X557500Y380500D02*
D03*
Y370500D02*
D03*
X547500Y380500D02*
D03*
Y370500D02*
D03*
X537500Y380500D02*
D03*
Y370500D02*
D03*
X527500Y380500D02*
D03*
Y370500D02*
D03*
X517500Y380500D02*
D03*
Y370500D02*
D03*
X507500Y380500D02*
D03*
Y370500D02*
D03*
X497500Y380500D02*
D03*
Y370500D02*
D03*
X487500Y380500D02*
D03*
Y370500D02*
D03*
X477500Y380500D02*
D03*
Y370500D02*
D03*
X467500Y380500D02*
D03*
Y370500D02*
D03*
X457500Y380500D02*
D03*
Y370500D02*
D03*
X447500Y380500D02*
D03*
Y370500D02*
D03*
X437500Y380500D02*
D03*
Y370500D02*
D03*
X427500Y380500D02*
D03*
Y370500D02*
D03*
X417500Y380500D02*
D03*
Y370500D02*
D03*
X407500Y380500D02*
D03*
Y370500D02*
D03*
X397500Y380500D02*
D03*
Y370500D02*
D03*
X387500Y380500D02*
D03*
Y370500D02*
D03*
X377500Y380500D02*
D03*
Y370500D02*
D03*
X367500Y380500D02*
D03*
Y370500D02*
D03*
X357500Y380500D02*
D03*
Y370500D02*
D03*
X347500Y380500D02*
D03*
Y370500D02*
D03*
X337500Y380500D02*
D03*
Y370500D02*
D03*
X327500Y380500D02*
D03*
Y370500D02*
D03*
X317500Y380500D02*
D03*
Y370500D02*
D03*
X307500Y380500D02*
D03*
Y370500D02*
D03*
X647421Y130500D02*
D03*
X607500Y340500D02*
D03*
X597500Y350500D02*
D03*
Y340500D02*
D03*
X587500Y350500D02*
D03*
Y340500D02*
D03*
X577500Y350500D02*
D03*
Y340500D02*
D03*
X567500Y350500D02*
D03*
Y340500D02*
D03*
X557500Y350500D02*
D03*
Y340500D02*
D03*
X547500Y350500D02*
D03*
Y340500D02*
D03*
X537500Y350500D02*
D03*
Y340500D02*
D03*
X517500D02*
D03*
X507500Y350500D02*
D03*
Y340500D02*
D03*
X497500Y350500D02*
D03*
Y340500D02*
D03*
X487500Y350500D02*
D03*
Y340500D02*
D03*
X477500Y350500D02*
D03*
Y340500D02*
D03*
X467500Y350500D02*
D03*
Y340500D02*
D03*
X457500Y350500D02*
D03*
Y340500D02*
D03*
X447500Y350500D02*
D03*
Y340500D02*
D03*
X437500Y350500D02*
D03*
Y340500D02*
D03*
X427500Y350500D02*
D03*
Y340500D02*
D03*
X417500Y350500D02*
D03*
Y340500D02*
D03*
X407500Y350500D02*
D03*
Y340500D02*
D03*
X397500Y350500D02*
D03*
Y340500D02*
D03*
X387500Y350500D02*
D03*
Y340500D02*
D03*
X643500Y160500D02*
D03*
X537500D02*
D03*
X527500Y170500D02*
D03*
Y160500D02*
D03*
X517500Y170500D02*
D03*
Y160500D02*
D03*
X507500Y170500D02*
D03*
Y160500D02*
D03*
X497500Y170500D02*
D03*
Y160500D02*
D03*
X487500Y170500D02*
D03*
Y160500D02*
D03*
X477500Y170500D02*
D03*
Y160500D02*
D03*
X467500Y170500D02*
D03*
Y160500D02*
D03*
X457500Y170500D02*
D03*
Y160500D02*
D03*
X447500Y170500D02*
D03*
Y160500D02*
D03*
X437500Y170500D02*
D03*
Y160500D02*
D03*
X427500Y170500D02*
D03*
Y160500D02*
D03*
X417500Y170500D02*
D03*
Y160500D02*
D03*
X407500Y170500D02*
D03*
Y160500D02*
D03*
X397500Y170500D02*
D03*
Y160500D02*
D03*
X387500Y170500D02*
D03*
Y160500D02*
D03*
X297500Y380500D02*
D03*
Y370500D02*
D03*
X633500Y170500D02*
D03*
Y160500D02*
D03*
X623500Y170500D02*
D03*
Y160500D02*
D03*
X613500Y170500D02*
D03*
Y160500D02*
D03*
X603500Y170500D02*
D03*
Y160500D02*
D03*
X593500Y170500D02*
D03*
Y160500D02*
D03*
X583500Y170500D02*
D03*
Y160500D02*
D03*
X573500Y170500D02*
D03*
Y160500D02*
D03*
X563500Y170500D02*
D03*
Y160500D02*
D03*
X553500Y170500D02*
D03*
Y160500D02*
D03*
X377500Y350500D02*
D03*
Y340500D02*
D03*
Y170500D02*
D03*
Y160500D02*
D03*
X637421Y140500D02*
D03*
Y130500D02*
D03*
X627421Y140500D02*
D03*
Y130500D02*
D03*
X617421Y140500D02*
D03*
Y130500D02*
D03*
X607421Y140500D02*
D03*
Y130500D02*
D03*
X597421Y140500D02*
D03*
Y130500D02*
D03*
X587421Y140500D02*
D03*
Y130500D02*
D03*
X577421Y140500D02*
D03*
Y130500D02*
D03*
X567421Y140500D02*
D03*
Y130500D02*
D03*
X557421Y140500D02*
D03*
Y130500D02*
D03*
X547421Y140500D02*
D03*
Y130500D02*
D03*
X537421Y140500D02*
D03*
Y130500D02*
D03*
X527421Y140500D02*
D03*
Y130500D02*
D03*
X517421Y140500D02*
D03*
Y130500D02*
D03*
X507421Y140500D02*
D03*
Y130500D02*
D03*
X497421Y140500D02*
D03*
Y130500D02*
D03*
X487421Y140500D02*
D03*
Y130500D02*
D03*
X477421Y140500D02*
D03*
Y130500D02*
D03*
X467421Y140500D02*
D03*
Y130500D02*
D03*
X457421Y140500D02*
D03*
Y130500D02*
D03*
X447421Y140500D02*
D03*
Y130500D02*
D03*
X437421Y140500D02*
D03*
Y130500D02*
D03*
X427421Y140500D02*
D03*
Y130500D02*
D03*
X417421Y140500D02*
D03*
Y130500D02*
D03*
X407421Y140500D02*
D03*
Y130500D02*
D03*
X397421Y140500D02*
D03*
Y130500D02*
D03*
X387421Y140500D02*
D03*
Y130500D02*
D03*
X377421Y140500D02*
D03*
Y130500D02*
D03*
X367421Y140500D02*
D03*
Y130500D02*
D03*
X357421Y140500D02*
D03*
Y130500D02*
D03*
X347421Y140500D02*
D03*
Y130500D02*
D03*
X337421Y140500D02*
D03*
Y130500D02*
D03*
X327421Y140500D02*
D03*
Y130500D02*
D03*
X317421Y140500D02*
D03*
Y130500D02*
D03*
X307421Y140500D02*
D03*
Y130500D02*
D03*
X297421Y140500D02*
D03*
Y130500D02*
D03*
D110*
X362500Y345500D02*
D03*
Y165500D02*
D03*
X657500Y160500D02*
D03*
X457500Y220500D02*
D03*
X662500Y350500D02*
D03*
D111*
X120984Y422799D02*
D03*
Y489701D02*
D03*
X59504Y422799D02*
D03*
Y489701D02*
D03*
D112*
X107480Y441500D02*
D03*
X120000D02*
D03*
X46000D02*
D03*
X58520D02*
D03*
D113*
X107480Y471000D02*
D03*
X120000D02*
D03*
X46000D02*
D03*
X58520D02*
D03*
D114*
X9000Y461000D02*
D03*
Y422000D02*
D03*
X22500D02*
D03*
Y461000D02*
D03*
X149000Y361000D02*
D03*
X188000D02*
D03*
Y347500D02*
D03*
X149000D02*
D03*
D115*
X332700Y470300D02*
D03*
X486200D02*
D03*
X450800Y474000D02*
D03*
X438900D02*
D03*
X403500D02*
D03*
X415300D02*
D03*
X391700D02*
D03*
X427100D02*
D03*
Y485800D02*
D03*
X391700D02*
D03*
X415300D02*
D03*
X403500D02*
D03*
X438900D02*
D03*
X379700D02*
D03*
X379900Y474000D02*
D03*
X368100D02*
D03*
Y485800D02*
D03*
X450800D02*
D03*
X356300D02*
D03*
X344500D02*
D03*
Y474000D02*
D03*
X356300D02*
D03*
X474400Y485800D02*
D03*
X462600D02*
D03*
Y474000D02*
D03*
X474400D02*
D03*
X29700Y306300D02*
D03*
Y365300D02*
D03*
X14200Y353300D02*
D03*
X26000Y353500D02*
D03*
Y341700D02*
D03*
X14200D02*
D03*
Y329900D02*
D03*
Y318100D02*
D03*
X26000D02*
D03*
Y329900D02*
D03*
X208000Y474700D02*
D03*
X196200D02*
D03*
Y486500D02*
D03*
X208000D02*
D03*
X219800D02*
D03*
Y474700D02*
D03*
X231600D02*
D03*
X231400Y486500D02*
D03*
X243400Y471000D02*
D03*
X184400D02*
D03*
D116*
X598276Y61405D02*
D03*
X557724D02*
D03*
D117*
X589811Y55500D02*
D03*
X578000D02*
D03*
X566189D02*
D03*
X589811Y67311D02*
D03*
X578000D02*
D03*
X566189D02*
D03*
D118*
X662500Y487500D02*
D03*
X12500D02*
D03*
X13000Y53000D02*
D03*
X661500D02*
D03*
D119*
X664500Y453500D02*
D03*
Y463500D02*
D03*
X308500Y440000D02*
D03*
X298500D02*
D03*
X308500Y460000D02*
D03*
X298500D02*
D03*
X278500Y440000D02*
D03*
X268500D02*
D03*
X278000Y460000D02*
D03*
X268000D02*
D03*
X344000Y68000D02*
D03*
Y58000D02*
D03*
X96500Y232000D02*
D03*
Y222000D02*
D03*
X499500Y56500D02*
D03*
Y46500D02*
D03*
X119500Y222000D02*
D03*
Y232000D02*
D03*
X26500Y162500D02*
D03*
X16500D02*
D03*
X184500Y232000D02*
D03*
Y222000D02*
D03*
X166000Y232000D02*
D03*
Y222000D02*
D03*
X77667Y232000D02*
D03*
Y222000D02*
D03*
X56000Y232000D02*
D03*
Y222000D02*
D03*
X141000Y232000D02*
D03*
Y222000D02*
D03*
X602000Y88500D02*
D03*
Y98500D02*
D03*
X649000Y463000D02*
D03*
Y453000D02*
D03*
D120*
X258150Y478138D02*
D03*
X268150D02*
D03*
X278150D02*
D03*
X308150D02*
D03*
X318150D02*
D03*
M02*
