G04*
G04 #@! TF.GenerationSoftware,Altium Limited,Altium Designer,22.9.1 (49)*
G04*
G04 Layer_Physical_Order=4*
G04 Layer_Color=16711680*
%FSLAX25Y25*%
%MOIN*%
G70*
G04*
G04 #@! TF.SameCoordinates,192EAC5F-EDB1-4AE9-8E86-1F7271081D8D*
G04*
G04*
G04 #@! TF.FilePolarity,Positive*
G04*
G01*
G75*
%ADD11C,0.01000*%
%ADD14C,0.00787*%
%ADD15C,0.00500*%
%ADD18C,0.00394*%
%ADD19C,0.00197*%
%ADD35C,0.03000*%
%ADD85C,0.04016*%
%ADD86C,0.06181*%
%ADD87R,0.06181X0.06181*%
%ADD88C,0.09488*%
%ADD102R,0.06181X0.06181*%
%ADD103C,0.01500*%
%ADD104C,0.16929*%
%ADD105C,0.07087*%
%ADD106R,0.06024X0.06024*%
%ADD107C,0.06024*%
%ADD108C,0.12598*%
%ADD109C,0.08000*%
%ADD110C,0.05984*%
%ADD111C,0.11457*%
%ADD112C,0.07000*%
%ADD113C,0.10158*%
%ADD114C,0.15000*%
%ADD115R,0.06000X0.06000*%
D11*
X100652Y479194D02*
G03*
X100850Y479193I148J8999D01*
G01*
X184750Y208750D02*
X202750D01*
X213000Y198500D01*
X64500Y463000D02*
X81500Y480000D01*
X11000Y463000D02*
X64500D01*
X5500Y457500D02*
X11000Y463000D01*
X564979Y439471D02*
X565008Y439500D01*
X562000Y437500D02*
X562301D01*
X564272Y439471D02*
X564979D01*
X562301Y437500D02*
X564272Y439471D01*
X565008Y439500D02*
X581500D01*
X583000Y447500D02*
X590000D01*
X622371Y448000D02*
X622706Y448335D01*
X608937Y448000D02*
X622371D01*
X592500Y431563D02*
X608937Y448000D01*
X624835Y448335D02*
X626000Y449500D01*
X622706Y448335D02*
X624835D01*
X13661Y233551D02*
X18111Y238000D01*
X40000D02*
X56000Y222000D01*
X18111Y238000D02*
X40000D01*
X188000Y361000D02*
X228000D01*
X228062Y364000D02*
X409000D01*
X225562Y366500D02*
X228062Y364000D01*
X39000Y366500D02*
X225562D01*
X164500Y393500D02*
X194500D01*
X161500Y390500D02*
X164500Y393500D01*
X48000Y346500D02*
X64000D01*
X73000Y355500D01*
X208500Y303500D02*
X212000Y300000D01*
X70118Y303500D02*
X208500D01*
X212000Y300000D02*
X288000D01*
X50500Y292500D02*
X53500Y295500D01*
X90743D01*
X292626Y154665D02*
X292710Y154750D01*
X91165Y154665D02*
X292626D01*
X70000Y133500D02*
X91165Y154665D01*
X292710Y154750D02*
X494170D01*
X123750Y151750D02*
X468757D01*
X104500Y132500D02*
X123750Y151750D01*
X494170Y154750D02*
X494420Y154500D01*
X104500Y132000D02*
Y132500D01*
X320021Y102500D02*
X320521Y102000D01*
X394000D01*
X246000Y102500D02*
X320021D01*
X372250Y105750D02*
X372500Y106000D01*
X216500Y105500D02*
X216750Y105750D01*
X372250D01*
X253500Y80000D02*
X570959D01*
X572459Y81500D01*
X573000D01*
X238000Y44000D02*
X641257D01*
X643257Y46000D01*
X643500D01*
X489000Y450000D02*
X525257D01*
X526757Y448500D01*
X562743D01*
X393179Y460500D02*
X442489D01*
X440141Y456500D02*
X440341Y456300D01*
X492757Y456575D02*
X548406D01*
X441661Y458500D02*
X441861Y458300D01*
X442489Y460500D02*
X442689Y460300D01*
X392351Y458500D02*
X441661D01*
X492483Y456300D02*
X492757Y456575D01*
X442689Y460300D02*
X490342D01*
X388000Y456500D02*
X440141D01*
X490342Y460300D02*
X490617Y460575D01*
X491929Y458575D02*
X547577D01*
X440341Y456300D02*
X492483D01*
X441861Y458300D02*
X491654D01*
X491929Y458575D01*
X490617Y460575D02*
X499019D01*
X388179Y465500D02*
X393179Y460500D01*
X547577Y458575D02*
X550503Y461500D01*
X548406Y456575D02*
X550331Y458500D01*
X383000Y461500D02*
X388000Y456500D01*
X387351Y463500D02*
X392351Y458500D01*
X499019Y460575D02*
X503944Y465500D01*
X566243Y452000D02*
X593500D01*
X562743Y448500D02*
X566243Y452000D01*
X593500D02*
X598000Y447500D01*
X513750Y387250D02*
Y403250D01*
Y387250D02*
X514000Y387000D01*
X651500D01*
X513500Y403500D02*
X513750Y403250D01*
X489500Y401000D02*
X511000D01*
X466000D02*
X489500D01*
X480243Y448500D02*
X483743Y445000D01*
X491000D01*
X441500Y448500D02*
X480243D01*
X491000Y445000D02*
X506000D01*
X480771Y486500D02*
X502000D01*
X476471Y490800D02*
X480771Y486500D01*
X377629Y490800D02*
X476471D01*
X576250Y455250D02*
X601709D01*
X576000Y455000D02*
X576250Y455250D01*
X601709D02*
X601959Y455500D01*
X550331Y458500D02*
X586500D01*
X47250Y174750D02*
X126750D01*
X34500Y187500D02*
X47250Y174750D01*
X126750D02*
X130500Y178500D01*
X66000Y179000D02*
X86000Y199000D01*
X45000Y164000D02*
X195559D01*
X196559Y163000D01*
X181500Y158500D02*
X181750Y158250D01*
X337750D01*
X196559Y163000D02*
X347500D01*
X667500Y401500D02*
Y451945D01*
X651500Y387000D02*
X651871Y387371D01*
X653371D02*
X667500Y401500D01*
X651871Y387371D02*
X653371D01*
X662039Y457406D02*
X667500Y451945D01*
X525617Y434617D02*
X526000Y435000D01*
X524414Y434500D02*
X524532Y434617D01*
X525617D01*
X182000Y434500D02*
X524414D01*
X162000D02*
X182000D01*
X161500Y435000D02*
X161750Y434750D01*
X382481Y425000D02*
X563500D01*
X573000Y434500D01*
X581541Y439459D02*
X592041D01*
X592083Y439417D01*
X600457Y428957D02*
X604957Y433457D01*
X605500Y434000D01*
X600457Y433457D02*
X604957D01*
X591000Y424000D02*
X600457Y433457D01*
X581000Y424000D02*
X591000D01*
X539500Y452000D02*
X562000D01*
X601959Y455500D02*
X602500D01*
X581500Y439500D02*
X581541Y439459D01*
X393250Y415750D02*
X393327Y415673D01*
X580173D01*
X583000Y418500D01*
X381586Y413000D02*
X583000D01*
X600457Y395592D02*
X604549Y391500D01*
X600457Y395592D02*
Y428957D01*
X604549Y391500D02*
X612000D01*
X511000Y401000D02*
X513500Y403500D01*
X402500Y410000D02*
X520500D01*
X400000Y407500D02*
X402500Y410000D01*
X380000Y412500D02*
X380383Y412883D01*
X381469D02*
X381586Y413000D01*
X380383Y412883D02*
X381469D01*
X406500Y407000D02*
X530000D01*
X392257Y419000D02*
X574673D01*
X391757Y418500D02*
X392257Y419000D01*
X393250Y415750D02*
X393500Y416000D01*
X342750Y415750D02*
X393250D01*
X230000Y418500D02*
X391757D01*
X574673Y419000D02*
X575000Y418673D01*
X222000Y426500D02*
X230000Y418500D01*
X342500Y415500D02*
X342750Y415750D01*
X415631Y335988D02*
X420119Y331500D01*
X395631Y335988D02*
X415631D01*
X232169Y324750D02*
X303000D01*
X231419Y325500D02*
X232169Y324750D01*
X161129Y325500D02*
X231419D01*
X420119Y331500D02*
X563084D01*
X392046Y339573D02*
X395631Y335988D01*
X392046Y339573D02*
Y345954D01*
X387500Y350500D02*
X392046Y345954D01*
X372500Y345500D02*
X377500Y340500D01*
X372500Y345500D02*
Y358500D01*
X417500Y350500D02*
X430000Y363000D01*
X612500D01*
X436500Y359500D02*
X621257D01*
X483500Y356500D02*
X582500D01*
X477500Y350500D02*
X483500Y356500D01*
X427500Y350500D02*
X436500Y359500D01*
X621257D02*
X623257Y357500D01*
X623500D01*
X426047Y398047D02*
X426094Y398095D01*
X426000Y398000D02*
X426047Y398047D01*
X426094Y398095D02*
X442095D01*
X478600Y491500D02*
X504500D01*
X373100Y486271D02*
X377629Y490800D01*
X368571Y486271D02*
X373100D01*
X368100Y485800D02*
X368571Y486271D01*
X224800Y491500D02*
X350400D01*
X351700Y492800D01*
X477299D01*
X478600Y491500D01*
X496459Y495500D02*
X497000D01*
X495459Y496500D02*
X496459Y495500D01*
X266500Y496500D02*
X495459D01*
X503944Y465500D02*
X560000D01*
X368100Y474000D02*
X376600Y465500D01*
X388179D01*
X550503Y461500D02*
X555000D01*
X366800Y463500D02*
X387351D01*
X357000Y461500D02*
X383000D01*
X356300Y474000D02*
X366800Y463500D01*
X344500Y474000D02*
X357000Y461500D01*
X337500Y457500D02*
X380000D01*
X328771Y453500D02*
X406500D01*
X316771Y465500D02*
X328771Y453500D01*
X318500Y468500D02*
X329000Y479000D01*
X363100D02*
X368100Y474000D01*
X329000Y479000D02*
X363100D01*
X374500Y431000D02*
X400500D01*
X235500Y465500D02*
X316771D01*
X344500Y485800D02*
X356300D01*
X208000Y486500D02*
X215000Y493500D01*
X219800Y486500D02*
X224800Y491500D01*
X215000Y493500D02*
X263500D01*
X266500Y496500D01*
X411500Y444500D02*
X455500D01*
X410957Y445043D02*
X411500Y444500D01*
X273543Y445043D02*
X410957D01*
X268500Y440000D02*
X273543Y445043D01*
X161750Y434750D02*
X162000Y434500D01*
X171915Y470000D02*
X177915Y476000D01*
X160000Y470000D02*
X171915D01*
X177915Y476000D02*
X187829D01*
X194129Y469700D01*
X214800D01*
X219800Y474700D01*
X164500Y464500D02*
X221400D01*
X231600Y474700D01*
X206700Y497000D02*
X262500D01*
X196200Y486500D02*
X206700Y497000D01*
X100850Y479193D02*
X155500Y479500D01*
X216000Y413000D02*
X288000D01*
X233743Y427500D02*
X235743Y429500D01*
X233500Y427500D02*
X233743D01*
X235743Y429500D02*
X306000D01*
X271257Y399500D02*
X272257Y400500D01*
X306000D01*
X179500Y397000D02*
X182000Y399500D01*
X271257D01*
X208250Y393250D02*
X231250D01*
X231500Y393500D01*
X208000Y393000D02*
X208250Y393250D01*
X431000Y321000D02*
X431500Y320500D01*
X190500Y321000D02*
X431000D01*
X155000Y353500D02*
X283500D01*
X73000Y355500D02*
X240694D01*
X244195Y359000D01*
X244500D01*
X149000Y347500D02*
X155000Y353500D01*
X26000D02*
X39000Y366500D01*
X191743Y297500D02*
X192243Y297000D01*
X332500D02*
X332750Y297250D01*
X192243Y297000D02*
X332500D01*
X332750Y297250D02*
X333000Y297500D01*
X92743D02*
X191743D01*
X268000Y439500D02*
X268500Y440000D01*
X189000Y439500D02*
X268000D01*
X129771Y347000D02*
X137271Y339500D01*
X179500D01*
X90743Y295500D02*
X92743Y297500D01*
X141000Y294500D02*
X190500D01*
X237000Y310000D02*
X237500Y309500D01*
X109000Y310000D02*
X237000D01*
X108500Y310500D02*
X109000Y310000D01*
X78500Y310500D02*
X108500D01*
X151000Y261000D02*
X151729D01*
X98500D02*
X151000D01*
X282721Y146988D02*
X386011D01*
X337750Y158250D02*
X338000Y158000D01*
X386011Y146988D02*
X386249Y146750D01*
X281233Y145500D02*
X282721Y146988D01*
X263224Y148988D02*
X386840D01*
X387078Y148750D01*
X262736Y148500D02*
X263224Y148988D01*
X386249Y146750D02*
X497012D01*
X387078Y148750D02*
X489250D01*
X165000Y148500D02*
X262736D01*
X254243Y139000D02*
X289500D01*
X207000Y141500D02*
X251743D01*
X254243Y139000D01*
X86000Y199000D02*
X199175D01*
X199294Y198881D01*
X152229Y260500D02*
X203000D01*
X151729Y261000D02*
X152229Y260500D01*
X142743Y243500D02*
X578500D01*
X140743Y241500D02*
X142743Y243500D01*
X140500Y241500D02*
X140743D01*
X185500Y240500D02*
X208000D01*
X204000Y185500D02*
X210000Y191500D01*
X227500Y87500D02*
X258000D01*
X266000Y95500D01*
X172750Y105250D02*
X205750D01*
X206000Y105500D01*
X204000Y112000D02*
X242959D01*
X243959Y113000D01*
X244500D01*
X394000Y102000D02*
X395000Y103000D01*
X38000Y99000D02*
X343108D01*
X343608Y99500D01*
X395000Y103000D02*
X543000D01*
X31319Y105681D02*
X38000Y99000D01*
X343608Y99500D02*
X442500D01*
X210500Y49000D02*
X413000D01*
X210000Y49500D02*
X210500Y49000D01*
X253500Y52000D02*
X632000D01*
X632500Y51500D01*
X139500Y119000D02*
X512500D01*
X135000Y123500D02*
X139500Y119000D01*
X489250Y148750D02*
X492000Y151500D01*
X183000Y145500D02*
X281233D01*
X497012Y146750D02*
X498762Y148500D01*
X503000D01*
X494420Y154500D02*
X522000D01*
X187500Y185500D02*
X204000D01*
X108000Y179000D02*
X120500Y191500D01*
X190500D01*
X87000Y179000D02*
X103500Y195500D01*
X196000D01*
X169500Y179000D02*
X225000D01*
X229000Y183000D01*
X203729Y176000D02*
X231500D01*
X202479Y174750D02*
X203729Y176000D01*
X153750Y174750D02*
X202479D01*
X149500Y179000D02*
X153750Y174750D01*
X92500Y255000D02*
X98500Y261000D01*
X172500Y105000D02*
X172750Y105250D01*
X481959Y193500D02*
X482500D01*
X481459Y193000D02*
X481959Y193500D01*
X347500Y193000D02*
X481459D01*
X420617Y200117D02*
X421000Y200500D01*
X338000Y200000D02*
X419414D01*
X419531Y200117D02*
X420617D01*
X419414Y200000D02*
X419531Y200117D01*
X160529Y324900D02*
X161129Y325500D01*
X19400Y336500D02*
X322500D01*
X14200Y341700D02*
X19400Y336500D01*
X19200Y324900D02*
X160529D01*
X55500Y191000D02*
X96500Y232000D01*
X25811Y191000D02*
X55500D01*
X132000Y285500D02*
X137500Y280000D01*
X25811Y285500D02*
X132000D01*
X329227Y61500D02*
X342227Y74500D01*
X422000D01*
X31354Y216957D02*
X72623D01*
X25811Y222500D02*
X31354Y216957D01*
X72623D02*
X77667Y222000D01*
X13661Y222839D02*
Y233551D01*
Y222839D02*
X14000Y222500D01*
X249500Y61500D02*
X329227D01*
X344000Y68000D02*
X464500D01*
X464750Y68250D02*
X465000Y68500D01*
X464500Y68000D02*
X464750Y68250D01*
X659500Y397500D02*
X664000Y402000D01*
Y411311D01*
X624000Y397500D02*
X659500D01*
X662311Y413000D02*
X664000Y411311D01*
X344000Y58000D02*
X344250Y58250D01*
X481250D01*
X481500Y58500D01*
X20819Y105681D02*
X31319D01*
X13500Y113000D02*
X20819Y105681D01*
X14200Y329900D02*
X19200Y324900D01*
X164000Y450500D02*
X221500D01*
X267750Y459750D02*
X268000Y460000D01*
X157000Y459500D02*
X157250Y459750D01*
X267750D01*
X106500Y347000D02*
X129771D01*
X82000Y479500D02*
X100652Y479194D01*
X81500Y480000D02*
X81724Y479776D01*
X82000Y479500D01*
X5500Y294000D02*
Y457500D01*
Y294000D02*
X14000Y285500D01*
X3500Y284610D02*
Y459500D01*
Y284610D02*
X17929Y270181D01*
X3500Y459500D02*
X34000Y490000D01*
X17929Y270181D02*
X30965D01*
X112000Y444000D02*
X119500Y436500D01*
X65000Y444000D02*
X112000D01*
X51500D02*
X65000D01*
X51000Y444500D02*
X51500Y444000D01*
X25500Y445000D02*
X26000Y444500D01*
X51000D01*
X30965Y270181D02*
X33020Y272236D01*
X25811Y285500D02*
X33020Y278291D01*
Y272236D02*
Y278291D01*
X34000Y490000D02*
X81500D01*
X0Y500500D02*
X675000D01*
Y39000D02*
Y500500D01*
X0Y39000D02*
X675000D01*
X0D02*
Y500500D01*
D14*
X635858Y430634D02*
X673142D01*
Y472366D01*
X635858D02*
X673142D01*
X635858Y430634D02*
Y472366D01*
X193887Y387032D02*
X210447D01*
Y373646D02*
Y387032D01*
X193887Y373646D02*
X210447D01*
X193887D02*
Y387032D01*
X636819Y69728D02*
Y111461D01*
X674102D01*
Y69728D02*
Y111461D01*
X636819Y69728D02*
X674102D01*
X2898Y174461D02*
X40181D01*
X2898Y144539D02*
Y174461D01*
Y144539D02*
X40181D01*
Y174461D01*
X219887Y396028D02*
Y409413D01*
Y396028D02*
X236447D01*
Y409413D01*
X219887D02*
X236447D01*
X149720Y373807D02*
Y387193D01*
Y373807D02*
X166280D01*
Y387193D01*
X149720D02*
X166280D01*
X2898Y205961D02*
X40181D01*
X2898Y176039D02*
Y205961D01*
Y176039D02*
X40181D01*
Y205961D01*
X2898Y237461D02*
X40181D01*
X2898Y207539D02*
Y237461D01*
Y207539D02*
X40181D01*
Y237461D01*
X2898Y268961D02*
X40181D01*
X2898Y239039D02*
Y268961D01*
Y239039D02*
X40181D01*
Y268961D01*
X2618Y402650D02*
X39902D01*
X2618Y372728D02*
Y402650D01*
Y372728D02*
X39902D01*
Y402650D01*
X635831Y398228D02*
X673114D01*
Y428150D01*
X635831D02*
X673114D01*
X635831Y398228D02*
Y428150D01*
X139789Y43398D02*
Y80681D01*
Y43398D02*
X169711D01*
Y80681D01*
X139789D02*
X169711D01*
X71289Y43398D02*
Y80681D01*
Y43398D02*
X101211D01*
Y80681D01*
X71289D02*
X101211D01*
X174039Y43398D02*
Y80681D01*
Y43398D02*
X203961D01*
Y80681D01*
X174039D02*
X203961D01*
X37039Y79681D02*
X66961D01*
Y42398D02*
Y79681D01*
X37039Y42398D02*
X66961D01*
X37039D02*
Y79681D01*
X105539Y43398D02*
Y80681D01*
Y43398D02*
X135461D01*
Y80681D01*
X105539D02*
X135461D01*
X2898Y300461D02*
X40181D01*
X2898Y270539D02*
Y300461D01*
Y270539D02*
X40181D01*
Y300461D01*
D15*
X211956Y370750D02*
G03*
X212014Y370750I44J2750D01*
G01*
X269750Y394250D02*
X270000Y394500D01*
X241750Y394250D02*
X269750D01*
X241500Y394000D02*
X241750Y394250D01*
X269250Y409750D02*
X269500Y410000D01*
X247500Y409500D02*
X247750Y409750D01*
X269250D01*
X202500Y393500D02*
X206000Y390000D01*
X223000D01*
X52500Y109000D02*
X157000D01*
X189500D01*
X243000Y79500D02*
Y83000D01*
X245000Y85000D01*
X323000D01*
X499996Y479500D02*
X505236Y484740D01*
X481500Y479500D02*
X499996D01*
X505236Y484740D02*
X519240D01*
X542500Y391000D02*
X573000D01*
X581762Y346238D02*
X593238D01*
X577500Y350500D02*
X581762Y346238D01*
X593238D02*
X597500Y350500D01*
X605500Y408000D02*
X621250Y392250D01*
X623250D02*
X623500Y392000D01*
X621250Y392250D02*
X623250D01*
X278000Y333500D02*
X281000Y330500D01*
X413000D01*
X420500Y327500D02*
X423000Y325000D01*
X270500Y329500D02*
X272500Y327500D01*
X420500D01*
X605500Y408000D02*
Y424000D01*
X231400Y486500D02*
X309787D01*
X318150Y478138D01*
X165882Y474000D02*
X171332Y479450D01*
X101000Y474000D02*
X165882D01*
X171332Y479450D02*
X203250D01*
X208000Y474700D01*
X273900Y482388D02*
X278150Y478138D01*
X245673Y482388D02*
X273900D01*
X245035Y481750D02*
X245673Y482388D01*
X215050Y481750D02*
X245035D01*
X208000Y474700D02*
X215050Y481750D01*
X254750Y379250D02*
X277750D01*
X213000Y379000D02*
X254500D01*
X254750Y379250D01*
X277750D02*
X278000Y379500D01*
X180500Y417000D02*
X192000Y405500D01*
X209000D01*
X212014Y370750D02*
X292119Y371146D01*
X153500Y371000D02*
X198414D01*
X256500Y109000D02*
X617500D01*
X189500D02*
X256500D01*
X198414Y371000D02*
X211956Y370750D01*
X212000Y373500D02*
X252172Y374000D01*
X270000D01*
X170000D02*
X211707Y373793D01*
X292119Y371146D02*
X296973Y376000D01*
X211707Y373793D02*
X212000Y373500D01*
X170000Y379000D02*
X212000D01*
X243250Y425750D02*
X279250D01*
X279500Y426000D01*
X243000Y425500D02*
X243250Y425750D01*
X201611Y387000D02*
X280000D01*
X200111Y388500D02*
X201611Y387000D01*
X187000Y388500D02*
X200111D01*
X214500Y350000D02*
X292000D01*
X297750Y403250D02*
X298000Y403500D01*
X248250Y403250D02*
X297750D01*
X248000Y403000D02*
X248250Y403250D01*
X270000Y374000D02*
X270500Y374500D01*
X434648Y375500D02*
X572500D01*
X434148Y376000D02*
X434648Y375500D01*
X296973Y376000D02*
X434148D01*
X266000Y112000D02*
X442027D01*
X617500Y109000D02*
X623500Y103000D01*
X443027Y113000D02*
X622878D01*
X442027Y112000D02*
X443027Y113000D01*
X622878D02*
X651189Y84689D01*
X265000Y125500D02*
X622189D01*
X617000Y122500D02*
X647341Y92159D01*
X260000Y122500D02*
X617000D01*
X622189Y125500D02*
X651189Y96500D01*
X252978Y136022D02*
X254021D01*
X252500Y136500D02*
X252978Y136022D01*
X254021D02*
X254043Y136000D01*
X647948D01*
X647341Y92159D02*
X649857D01*
X657327Y84689D01*
X663000D01*
X647948Y136000D02*
X663089Y120860D01*
Y102482D02*
Y120860D01*
X663000Y102393D02*
X663089Y102482D01*
X663000Y96500D02*
Y102393D01*
X52250Y109250D02*
Y130250D01*
Y109250D02*
X52500Y109000D01*
X52000Y130500D02*
X52250Y130250D01*
X537500Y170500D02*
X540262Y167738D01*
Y167711D02*
Y167738D01*
Y167711D02*
X551735Y156238D01*
X619238D01*
X623500Y160500D01*
D18*
X218000Y192532D02*
Y196468D01*
X216032Y194500D02*
X219969D01*
X220532Y323000D02*
X224468D01*
X222500Y321031D02*
Y324969D01*
D19*
X245138Y296031D02*
Y349969D01*
X199862Y296031D02*
Y349969D01*
X245138D01*
X199862Y296031D02*
X245138D01*
D35*
X213000Y198500D02*
D03*
X222000Y192000D02*
D03*
X565000Y432500D02*
D03*
X562000Y437500D02*
D03*
X583000Y447500D02*
D03*
X590000D02*
D03*
X270000Y394500D02*
D03*
X269500Y410000D02*
D03*
X228000Y361000D02*
D03*
X202500Y393500D02*
D03*
X194500D02*
D03*
X48000Y346500D02*
D03*
X135000Y306500D02*
D03*
X68500Y303500D02*
D03*
X50500Y292500D02*
D03*
X144000Y157665D02*
D03*
X42500Y141000D02*
D03*
X86500Y140500D02*
D03*
X70000Y133500D02*
D03*
X92000Y109000D02*
D03*
X104500Y132000D02*
D03*
X124000Y109000D02*
D03*
X246000Y102500D02*
D03*
X253500Y80000D02*
D03*
X243000Y79500D02*
D03*
X238000Y44000D02*
D03*
X323000Y85000D02*
D03*
X489000Y450000D02*
D03*
X575000Y449000D02*
D03*
X472500Y375500D02*
D03*
X489500Y401000D02*
D03*
X441500Y448500D02*
D03*
X481500Y479500D02*
D03*
X491000Y445000D02*
D03*
X502000Y486500D02*
D03*
X519240Y484740D02*
D03*
X586500Y458500D02*
D03*
X656500Y202000D02*
D03*
X663000D02*
D03*
X40000Y168000D02*
D03*
Y173000D02*
D03*
X66000Y179000D02*
D03*
X181500Y158500D02*
D03*
X45000Y163000D02*
D03*
X34500Y187500D02*
D03*
X651500Y387000D02*
D03*
X542500Y391000D02*
D03*
X573000D02*
D03*
X581500Y439500D02*
D03*
X581000Y424000D02*
D03*
X526000Y435000D02*
D03*
X573000Y434500D02*
D03*
X598000Y447500D02*
D03*
X592083Y439417D02*
D03*
X610000Y462000D02*
D03*
X538000Y431000D02*
D03*
X592500Y431563D02*
D03*
X539500Y452000D02*
D03*
X562000D02*
D03*
X576000Y455000D02*
D03*
X602500Y455500D02*
D03*
X614500Y435500D02*
D03*
X583000Y418500D02*
D03*
Y413000D02*
D03*
X535500Y397500D02*
D03*
X514000Y387000D02*
D03*
X623500Y392000D02*
D03*
X612000Y391500D02*
D03*
X513500Y403500D02*
D03*
X466000Y401000D02*
D03*
X400000Y407500D02*
D03*
X409000Y364000D02*
D03*
X520500Y410000D02*
D03*
X393500Y416000D02*
D03*
X575000Y418673D02*
D03*
X528000Y451500D02*
D03*
X548500Y487000D02*
D03*
X563084Y331500D02*
D03*
X413000Y330500D02*
D03*
X303000Y324750D02*
D03*
X423000Y325000D02*
D03*
X372500Y358500D02*
D03*
X382481Y425000D02*
D03*
X612500Y363000D02*
D03*
X582500Y356500D02*
D03*
X623500Y357500D02*
D03*
X479000Y445500D02*
D03*
X506000Y445000D02*
D03*
X426047Y398047D02*
D03*
X442095Y398095D02*
D03*
X380000Y412500D02*
D03*
X504500Y491500D02*
D03*
X560000Y465500D02*
D03*
X555000Y461500D02*
D03*
X342500Y415500D02*
D03*
X248500Y421500D02*
D03*
X337500Y457500D02*
D03*
X380000D02*
D03*
X586500Y406000D02*
D03*
X406500Y453500D02*
D03*
X400500Y431000D02*
D03*
X374500D02*
D03*
X318500Y468500D02*
D03*
X497000Y495500D02*
D03*
X530000Y407000D02*
D03*
X455500Y444500D02*
D03*
X411500D02*
D03*
X406500Y407000D02*
D03*
X235500Y465500D02*
D03*
X366500Y426500D02*
D03*
X222000D02*
D03*
X252500Y443500D02*
D03*
X161750Y434750D02*
D03*
X160000Y470000D02*
D03*
X164500Y464500D02*
D03*
X262500Y497000D02*
D03*
X182000Y434500D02*
D03*
X155500Y479500D02*
D03*
X247500Y409500D02*
D03*
X254500Y379000D02*
D03*
X241500Y394000D02*
D03*
X209000Y405500D02*
D03*
X212000Y373500D02*
D03*
Y379000D02*
D03*
X223000Y390000D02*
D03*
X243000Y426500D02*
D03*
X279500Y426000D02*
D03*
X306000Y429500D02*
D03*
X288000Y413000D02*
D03*
X306000Y400500D02*
D03*
X280000Y387000D02*
D03*
X215757Y402500D02*
D03*
X179500Y397000D02*
D03*
X187000Y388500D02*
D03*
X180500Y417000D02*
D03*
X198621Y420879D02*
D03*
X222500Y417500D02*
D03*
X208000Y393000D02*
D03*
X231500Y393500D02*
D03*
X253000Y374000D02*
D03*
X292000Y350000D02*
D03*
X214500D02*
D03*
X248000Y403000D02*
D03*
X298000Y403500D02*
D03*
X431500Y320500D02*
D03*
X190500Y321000D02*
D03*
X198500Y348500D02*
D03*
X174000Y360000D02*
D03*
X288000Y300000D02*
D03*
X216000Y413000D02*
D03*
X161500Y390500D02*
D03*
X189000Y439500D02*
D03*
X182500Y409000D02*
D03*
X179500Y339500D02*
D03*
X198000Y370500D02*
D03*
X270500Y329500D02*
D03*
X278000Y333500D02*
D03*
Y379500D02*
D03*
X270500Y374500D02*
D03*
X170000Y379000D02*
D03*
Y374000D02*
D03*
X572500Y375500D02*
D03*
X153500Y371000D02*
D03*
X164500Y314000D02*
D03*
X151500Y331500D02*
D03*
X332750Y297250D02*
D03*
X190500Y294500D02*
D03*
X141000D02*
D03*
X237500Y309500D02*
D03*
X109000Y310000D02*
D03*
X78500Y310500D02*
D03*
X212000Y300000D02*
D03*
X151000Y261000D02*
D03*
X184750Y208750D02*
D03*
X289500Y243000D02*
D03*
Y139000D02*
D03*
X199294Y198881D02*
D03*
X203000Y260500D02*
D03*
X207000Y141500D02*
D03*
X578500Y243500D02*
D03*
X140500Y241500D02*
D03*
X573000Y81500D02*
D03*
X185500Y240500D02*
D03*
X208000D02*
D03*
X210000Y191500D02*
D03*
X256000Y142000D02*
D03*
X266000Y95500D02*
D03*
X256500Y109000D02*
D03*
X266000Y112000D02*
D03*
X227500Y87500D02*
D03*
X214083Y81500D02*
D03*
X206000Y105500D02*
D03*
X216500D02*
D03*
X204000Y112000D02*
D03*
X372500Y106000D02*
D03*
X244500Y113000D02*
D03*
X543000Y103000D02*
D03*
X210000Y49500D02*
D03*
X413000Y49000D02*
D03*
X265000Y125500D02*
D03*
X260000Y122500D02*
D03*
X252500Y136500D02*
D03*
X623500Y103000D02*
D03*
X512500Y119000D02*
D03*
X468757Y151750D02*
D03*
X492000Y151500D02*
D03*
X340000Y95500D02*
D03*
X295500Y95000D02*
D03*
X442500Y99500D02*
D03*
X503000Y148500D02*
D03*
X187500Y185500D02*
D03*
X190500Y191500D02*
D03*
X196000Y195500D02*
D03*
X229000Y183000D02*
D03*
X231500Y176000D02*
D03*
X183000Y145500D02*
D03*
X92500Y255000D02*
D03*
X172500Y105000D02*
D03*
X347500Y193000D02*
D03*
X482500Y193500D02*
D03*
X421000Y200500D02*
D03*
X338000Y200000D02*
D03*
X52000Y130500D02*
D03*
X137500Y280000D02*
D03*
X86500Y232000D02*
D03*
X175500D02*
D03*
X130000D02*
D03*
X153500Y229500D02*
D03*
X108500D02*
D03*
X67000D02*
D03*
X220000Y81500D02*
D03*
X115000Y133500D02*
D03*
X422000Y74500D02*
D03*
X232500Y82000D02*
D03*
X165000Y148500D02*
D03*
X338000Y158000D02*
D03*
X249500Y61500D02*
D03*
X253500Y52000D02*
D03*
X624000Y397500D02*
D03*
X135000Y123500D02*
D03*
X347500Y163000D02*
D03*
X90500Y295500D02*
D03*
X481500Y58500D02*
D03*
X464750Y68250D02*
D03*
X189500Y109000D02*
D03*
X157000D02*
D03*
X52500D02*
D03*
X633500Y52000D02*
D03*
X643500Y46000D02*
D03*
X522000Y154500D02*
D03*
X169500Y179000D02*
D03*
X149500D02*
D03*
X130500Y178500D02*
D03*
X108000Y179000D02*
D03*
X87000D02*
D03*
X322500Y336500D02*
D03*
X283500Y353500D02*
D03*
X244500Y359000D02*
D03*
X233500Y428500D02*
D03*
X164000Y450500D02*
D03*
X221500D02*
D03*
X157000Y459500D02*
D03*
X106500Y347000D02*
D03*
X101000Y474000D02*
D03*
X590000Y494500D02*
D03*
D85*
X646528Y433783D02*
D03*
Y469216D02*
D03*
X647488Y108311D02*
D03*
Y72878D02*
D03*
X29512Y147689D02*
D03*
Y171311D02*
D03*
X29012Y89378D02*
D03*
Y136622D02*
D03*
X29512Y179189D02*
D03*
Y202811D02*
D03*
Y210689D02*
D03*
Y234311D02*
D03*
Y242189D02*
D03*
Y265811D02*
D03*
X29232Y375878D02*
D03*
Y399500D02*
D03*
X646500Y425000D02*
D03*
Y401378D02*
D03*
X166561Y70012D02*
D03*
X142939D02*
D03*
X98061D02*
D03*
X74439D02*
D03*
X200811D02*
D03*
X177189D02*
D03*
X40189Y69012D02*
D03*
X63811D02*
D03*
X132311Y70012D02*
D03*
X108689D02*
D03*
X29512Y273689D02*
D03*
Y297311D02*
D03*
D86*
X650228Y445595D02*
D03*
Y457406D02*
D03*
X662039Y445595D02*
D03*
X663000Y84689D02*
D03*
X651189Y96500D02*
D03*
Y84689D02*
D03*
X25811Y159500D02*
D03*
Y191000D02*
D03*
Y222500D02*
D03*
Y254000D02*
D03*
X25532Y387689D02*
D03*
X650201Y413189D02*
D03*
X154750Y66311D02*
D03*
X86250D02*
D03*
X189000D02*
D03*
X52000Y65311D02*
D03*
X120500Y66311D02*
D03*
X25811Y285500D02*
D03*
D87*
X662039Y457406D02*
D03*
X663000Y96500D02*
D03*
X14000Y159500D02*
D03*
Y191000D02*
D03*
Y222500D02*
D03*
Y254000D02*
D03*
X13721Y387689D02*
D03*
X662012Y413189D02*
D03*
X14000Y285500D02*
D03*
D88*
X656134Y465870D02*
D03*
Y437130D02*
D03*
X657094Y76224D02*
D03*
Y104965D02*
D03*
X19906Y151035D02*
D03*
Y167965D02*
D03*
Y182535D02*
D03*
Y199465D02*
D03*
Y214035D02*
D03*
Y230965D02*
D03*
Y245535D02*
D03*
Y262465D02*
D03*
X19626Y379224D02*
D03*
Y396153D02*
D03*
X656106Y421654D02*
D03*
Y404724D02*
D03*
X163215Y60405D02*
D03*
X146285D02*
D03*
X94715D02*
D03*
X77785D02*
D03*
X197465D02*
D03*
X180535D02*
D03*
X43535Y59405D02*
D03*
X60465D02*
D03*
X128965Y60405D02*
D03*
X112035D02*
D03*
X19906Y277035D02*
D03*
Y293965D02*
D03*
D102*
X154750Y54500D02*
D03*
X86250D02*
D03*
X189000D02*
D03*
X52000Y53500D02*
D03*
X120500Y54500D02*
D03*
D103*
X17569Y175069D02*
X30706D01*
X12500Y170000D02*
X17569Y175069D01*
X12500Y161000D02*
Y170000D01*
Y161000D02*
X14000Y159500D01*
X488375Y465050D02*
X504592Y481268D01*
X443421Y462750D02*
X443621Y462550D01*
X489410D02*
X505628Y478768D01*
X394111Y462750D02*
X443421D01*
X444657Y465050D02*
X488375D01*
X504592Y481268D02*
X557112D01*
X444457Y465250D02*
X444657Y465050D01*
X443621Y462550D02*
X489410D01*
X395147Y465250D02*
X444457D01*
X383913Y472948D02*
X394111Y462750D01*
X391268Y469129D02*
X395147Y465250D01*
X505628Y478768D02*
X556076D01*
X560638Y474207D01*
X557112Y481268D02*
X561673Y476707D01*
X660750Y189715D02*
Y199750D01*
X656500Y202000D02*
X658250Y200250D01*
X660750Y199750D02*
X663000Y202000D01*
X658250Y190750D02*
Y200250D01*
X652178Y184678D02*
X658250Y190750D01*
X378654Y184678D02*
X652178D01*
X359843Y177762D02*
X371737D01*
X378654Y184678D01*
X36426Y177476D02*
X38770Y175132D01*
X33113Y177476D02*
X36426D01*
X40000Y173000D02*
X40287Y172713D01*
X40000Y173000D02*
Y173398D01*
X353581Y171500D02*
X359843Y177762D01*
X38770Y174629D02*
X40000Y173398D01*
X38770Y174629D02*
Y175132D01*
X41348Y172713D02*
X42561Y171500D01*
X353581D01*
X40287Y172713D02*
X41348D01*
X30706Y175069D02*
X33113Y177476D01*
X653214Y182178D02*
X660750Y189715D01*
X379689Y182178D02*
X653214D01*
X372773Y175262D02*
X379689Y182178D01*
X360878Y175262D02*
X372773D01*
X34148Y174976D02*
X35391D01*
X354617Y169000D02*
X360878Y175262D01*
X44149Y169000D02*
X354617D01*
X43436Y168287D02*
X44149Y169000D01*
X40000Y168000D02*
X40287Y168287D01*
X36270Y171737D02*
X40000Y168007D01*
X40287Y168287D02*
X43436D01*
X40000Y168000D02*
Y168007D01*
X36270Y171737D02*
Y174097D01*
X35391Y174976D02*
X36270Y174097D01*
X33270Y166959D02*
Y174097D01*
X34148Y174976D01*
X25811Y159500D02*
X33270Y166959D01*
X618521Y488250D02*
X620800D01*
X614793Y484522D02*
X618521Y488250D01*
X614793Y479807D02*
Y484522D01*
X611693Y476707D02*
X614793Y479807D01*
X561673Y476707D02*
X611693D01*
X391268Y473568D02*
X391700Y474000D01*
X391268Y469129D02*
Y473568D01*
X619557Y485750D02*
X620800D01*
X617293Y483486D02*
X619557Y485750D01*
X617293Y478772D02*
Y483486D01*
X612728Y474207D02*
X617293Y478772D01*
X560638Y474207D02*
X612728D01*
X380952Y472948D02*
X383913D01*
X379900Y474000D02*
X380952Y472948D01*
X620800Y485750D02*
X624000Y482550D01*
Y491450D02*
Y492000D01*
X620800Y488250D02*
X624000Y491450D01*
Y482000D02*
Y482550D01*
X639289Y460792D02*
Y478440D01*
X649452Y456630D02*
X650228Y457406D01*
X649452Y453629D02*
Y456630D01*
X648574Y452750D02*
X649452Y453629D01*
X639289Y460792D02*
X647331Y452750D01*
X648574D01*
X628443Y485750D02*
X636789Y477404D01*
Y459757D02*
X646296Y450250D01*
X648574D01*
X636789Y459757D02*
Y477404D01*
X649452Y446370D02*
X650228Y445595D01*
X649452Y446370D02*
Y449371D01*
X648574Y450250D02*
X649452Y449371D01*
X629479Y488250D02*
X639289Y478440D01*
X627750Y485750D02*
X628443D01*
X624000Y492000D02*
X627750Y488250D01*
X629479D01*
X624000Y482000D02*
X627750Y485750D01*
D104*
X662500Y487500D02*
D03*
X12500D02*
D03*
X13000Y53000D02*
D03*
X661500D02*
D03*
D105*
X605500Y424000D02*
D03*
Y434000D02*
D03*
X308500Y440000D02*
D03*
X298500D02*
D03*
X308500Y460000D02*
D03*
X298500D02*
D03*
X278500Y440000D02*
D03*
X268500D02*
D03*
X278000Y460000D02*
D03*
X268000D02*
D03*
X344000Y68000D02*
D03*
Y58000D02*
D03*
X96500Y232000D02*
D03*
Y222000D02*
D03*
X609500Y492000D02*
D03*
Y482000D02*
D03*
X119500Y222000D02*
D03*
Y232000D02*
D03*
X81500Y490000D02*
D03*
Y480000D02*
D03*
X184500Y232000D02*
D03*
Y222000D02*
D03*
X166000Y232000D02*
D03*
Y222000D02*
D03*
X77667Y232000D02*
D03*
Y222000D02*
D03*
X56000Y232000D02*
D03*
Y222000D02*
D03*
X141000Y232000D02*
D03*
Y222000D02*
D03*
X624000Y482000D02*
D03*
Y492000D02*
D03*
X626000Y449500D02*
D03*
Y439500D02*
D03*
D106*
X647500Y380500D02*
D03*
X647421Y140500D02*
D03*
X607500Y350500D02*
D03*
X517500D02*
D03*
X643500Y170500D02*
D03*
X537500D02*
D03*
D107*
X647500Y370500D02*
D03*
X637500Y380500D02*
D03*
Y370500D02*
D03*
X627500Y380500D02*
D03*
Y370500D02*
D03*
X617500Y380500D02*
D03*
Y370500D02*
D03*
X607500Y380500D02*
D03*
Y370500D02*
D03*
X597500Y380500D02*
D03*
Y370500D02*
D03*
X587500Y380500D02*
D03*
Y370500D02*
D03*
X577500Y380500D02*
D03*
Y370500D02*
D03*
X567500Y380500D02*
D03*
Y370500D02*
D03*
X557500Y380500D02*
D03*
Y370500D02*
D03*
X547500Y380500D02*
D03*
Y370500D02*
D03*
X537500Y380500D02*
D03*
Y370500D02*
D03*
X527500Y380500D02*
D03*
Y370500D02*
D03*
X517500Y380500D02*
D03*
Y370500D02*
D03*
X507500Y380500D02*
D03*
Y370500D02*
D03*
X497500Y380500D02*
D03*
Y370500D02*
D03*
X487500Y380500D02*
D03*
Y370500D02*
D03*
X477500Y380500D02*
D03*
Y370500D02*
D03*
X467500Y380500D02*
D03*
Y370500D02*
D03*
X457500Y380500D02*
D03*
Y370500D02*
D03*
X447500Y380500D02*
D03*
Y370500D02*
D03*
X437500Y380500D02*
D03*
Y370500D02*
D03*
X427500Y380500D02*
D03*
Y370500D02*
D03*
X417500Y380500D02*
D03*
Y370500D02*
D03*
X407500Y380500D02*
D03*
Y370500D02*
D03*
X397500Y380500D02*
D03*
Y370500D02*
D03*
X387500Y380500D02*
D03*
Y370500D02*
D03*
X377500Y380500D02*
D03*
Y370500D02*
D03*
X367500Y380500D02*
D03*
Y370500D02*
D03*
X357500Y380500D02*
D03*
Y370500D02*
D03*
X347500Y380500D02*
D03*
Y370500D02*
D03*
X337500Y380500D02*
D03*
Y370500D02*
D03*
X327500Y380500D02*
D03*
Y370500D02*
D03*
X317500Y380500D02*
D03*
Y370500D02*
D03*
X307500Y380500D02*
D03*
Y370500D02*
D03*
X647421Y130500D02*
D03*
X607500Y340500D02*
D03*
X597500Y350500D02*
D03*
Y340500D02*
D03*
X587500Y350500D02*
D03*
Y340500D02*
D03*
X577500Y350500D02*
D03*
Y340500D02*
D03*
X567500Y350500D02*
D03*
Y340500D02*
D03*
X557500Y350500D02*
D03*
Y340500D02*
D03*
X547500Y350500D02*
D03*
Y340500D02*
D03*
X537500Y350500D02*
D03*
Y340500D02*
D03*
X517500D02*
D03*
X507500Y350500D02*
D03*
Y340500D02*
D03*
X497500Y350500D02*
D03*
Y340500D02*
D03*
X487500Y350500D02*
D03*
Y340500D02*
D03*
X477500Y350500D02*
D03*
Y340500D02*
D03*
X467500Y350500D02*
D03*
Y340500D02*
D03*
X457500Y350500D02*
D03*
Y340500D02*
D03*
X447500Y350500D02*
D03*
Y340500D02*
D03*
X437500Y350500D02*
D03*
Y340500D02*
D03*
X427500Y350500D02*
D03*
Y340500D02*
D03*
X417500Y350500D02*
D03*
Y340500D02*
D03*
X407500Y350500D02*
D03*
Y340500D02*
D03*
X397500Y350500D02*
D03*
Y340500D02*
D03*
X387500Y350500D02*
D03*
Y340500D02*
D03*
X643500Y160500D02*
D03*
X537500D02*
D03*
X527500Y170500D02*
D03*
Y160500D02*
D03*
X517500Y170500D02*
D03*
Y160500D02*
D03*
X507500Y170500D02*
D03*
Y160500D02*
D03*
X497500Y170500D02*
D03*
Y160500D02*
D03*
X487500Y170500D02*
D03*
Y160500D02*
D03*
X477500Y170500D02*
D03*
Y160500D02*
D03*
X467500Y170500D02*
D03*
Y160500D02*
D03*
X457500Y170500D02*
D03*
Y160500D02*
D03*
X447500Y170500D02*
D03*
Y160500D02*
D03*
X437500Y170500D02*
D03*
Y160500D02*
D03*
X427500Y170500D02*
D03*
Y160500D02*
D03*
X417500Y170500D02*
D03*
Y160500D02*
D03*
X407500Y170500D02*
D03*
Y160500D02*
D03*
X397500Y170500D02*
D03*
Y160500D02*
D03*
X387500Y170500D02*
D03*
Y160500D02*
D03*
X297500Y380500D02*
D03*
Y370500D02*
D03*
X633500Y170500D02*
D03*
Y160500D02*
D03*
X623500Y170500D02*
D03*
Y160500D02*
D03*
X613500Y170500D02*
D03*
Y160500D02*
D03*
X603500Y170500D02*
D03*
Y160500D02*
D03*
X593500Y170500D02*
D03*
Y160500D02*
D03*
X583500Y170500D02*
D03*
Y160500D02*
D03*
X573500Y170500D02*
D03*
Y160500D02*
D03*
X563500Y170500D02*
D03*
Y160500D02*
D03*
X553500Y170500D02*
D03*
Y160500D02*
D03*
X377500Y350500D02*
D03*
Y340500D02*
D03*
Y170500D02*
D03*
Y160500D02*
D03*
X637421Y140500D02*
D03*
Y130500D02*
D03*
X627421Y140500D02*
D03*
Y130500D02*
D03*
X617421Y140500D02*
D03*
Y130500D02*
D03*
X607421Y140500D02*
D03*
Y130500D02*
D03*
X597421Y140500D02*
D03*
Y130500D02*
D03*
X587421Y140500D02*
D03*
Y130500D02*
D03*
X577421Y140500D02*
D03*
Y130500D02*
D03*
X567421Y140500D02*
D03*
Y130500D02*
D03*
X557421Y140500D02*
D03*
Y130500D02*
D03*
X547421Y140500D02*
D03*
Y130500D02*
D03*
X537421Y140500D02*
D03*
Y130500D02*
D03*
X527421Y140500D02*
D03*
Y130500D02*
D03*
X517421Y140500D02*
D03*
Y130500D02*
D03*
X507421Y140500D02*
D03*
Y130500D02*
D03*
X497421Y140500D02*
D03*
Y130500D02*
D03*
X487421Y140500D02*
D03*
Y130500D02*
D03*
X477421Y140500D02*
D03*
Y130500D02*
D03*
X467421Y140500D02*
D03*
Y130500D02*
D03*
X457421Y140500D02*
D03*
Y130500D02*
D03*
X447421Y140500D02*
D03*
Y130500D02*
D03*
X437421Y140500D02*
D03*
Y130500D02*
D03*
X427421Y140500D02*
D03*
Y130500D02*
D03*
X417421Y140500D02*
D03*
Y130500D02*
D03*
X407421Y140500D02*
D03*
Y130500D02*
D03*
X397421Y140500D02*
D03*
Y130500D02*
D03*
X387421Y140500D02*
D03*
Y130500D02*
D03*
X377421Y140500D02*
D03*
Y130500D02*
D03*
X367421Y140500D02*
D03*
Y130500D02*
D03*
X357421Y140500D02*
D03*
Y130500D02*
D03*
X347421Y140500D02*
D03*
Y130500D02*
D03*
X337421Y140500D02*
D03*
Y130500D02*
D03*
X327421Y140500D02*
D03*
Y130500D02*
D03*
X317421Y140500D02*
D03*
Y130500D02*
D03*
X307421Y140500D02*
D03*
Y130500D02*
D03*
X297421Y140500D02*
D03*
Y130500D02*
D03*
D108*
X362500Y345500D02*
D03*
Y165500D02*
D03*
X657500Y160500D02*
D03*
X457500Y220500D02*
D03*
X662500Y350500D02*
D03*
D109*
X149000Y361000D02*
D03*
X188000D02*
D03*
Y347500D02*
D03*
X149000D02*
D03*
X65000Y444000D02*
D03*
Y483000D02*
D03*
X51500D02*
D03*
Y444000D02*
D03*
D110*
X13500Y101189D02*
D03*
Y113000D02*
D03*
Y124811D02*
D03*
X25311Y101189D02*
D03*
Y113000D02*
D03*
Y124811D02*
D03*
D111*
X19406Y92724D02*
D03*
Y133276D02*
D03*
D112*
X474400Y474000D02*
D03*
X462600D02*
D03*
Y485800D02*
D03*
X474400D02*
D03*
X356300Y474000D02*
D03*
X344500D02*
D03*
Y485800D02*
D03*
X356300D02*
D03*
X450800D02*
D03*
X368100D02*
D03*
Y474000D02*
D03*
X379900D02*
D03*
X379700Y485800D02*
D03*
X438900D02*
D03*
X403500D02*
D03*
X415300D02*
D03*
X391700D02*
D03*
X427100D02*
D03*
Y474000D02*
D03*
X391700D02*
D03*
X415300D02*
D03*
X403500D02*
D03*
X438900D02*
D03*
X450800D02*
D03*
X486200Y470300D02*
D03*
X332700D02*
D03*
X30000Y408900D02*
D03*
Y467900D02*
D03*
X14500Y455900D02*
D03*
X26300Y456100D02*
D03*
Y444300D02*
D03*
X14500D02*
D03*
Y432500D02*
D03*
Y420700D02*
D03*
X26300D02*
D03*
Y432500D02*
D03*
X29700Y306300D02*
D03*
Y365300D02*
D03*
X14200Y353300D02*
D03*
X26000Y353500D02*
D03*
Y341700D02*
D03*
X14200D02*
D03*
Y329900D02*
D03*
Y318100D02*
D03*
X26000D02*
D03*
Y329900D02*
D03*
X208000Y474700D02*
D03*
X196200D02*
D03*
Y486500D02*
D03*
X208000D02*
D03*
X219800D02*
D03*
Y474700D02*
D03*
X231600D02*
D03*
X231400Y486500D02*
D03*
X243400Y471000D02*
D03*
X184400D02*
D03*
D113*
X119500Y436500D02*
D03*
X149000Y423980D02*
D03*
X119500D02*
D03*
X149000Y436500D02*
D03*
D114*
X100799Y488193D02*
D03*
X167701D02*
D03*
D115*
X258150Y478138D02*
D03*
X268150D02*
D03*
X278150D02*
D03*
X308150D02*
D03*
X318150D02*
D03*
M02*
