G04*
G04 #@! TF.GenerationSoftware,Altium Limited,Altium Designer,22.9.1 (49)*
G04*
G04 Layer_Physical_Order=1*
G04 Layer_Color=255*
%FSLAX25Y25*%
%MOIN*%
G70*
G04*
G04 #@! TF.SameCoordinates,192EAC5F-EDB1-4AE9-8E86-1F7271081D8D*
G04*
G04*
G04 #@! TF.FilePolarity,Positive*
G04*
G01*
G75*
%ADD11C,0.01000*%
%ADD14C,0.00787*%
%ADD15C,0.00500*%
%ADD18C,0.00394*%
%ADD19C,0.00197*%
%ADD21R,0.06890X0.05709*%
%ADD22R,0.03543X0.05315*%
%ADD23R,0.08898X0.11024*%
%ADD24R,0.04134X0.05512*%
%ADD25R,0.05315X0.03543*%
%ADD26R,0.03543X0.03150*%
%ADD27R,0.05906X0.02362*%
%ADD28O,0.07874X0.02756*%
%ADD29R,0.03583X0.04803*%
%ADD30R,0.04803X0.03583*%
%ADD31R,0.03543X0.03740*%
%ADD32R,0.05926X0.01791*%
G04:AMPARAMS|DCode=33|XSize=59.26mil|YSize=17.91mil|CornerRadius=8.96mil|HoleSize=0mil|Usage=FLASHONLY|Rotation=0.000|XOffset=0mil|YOffset=0mil|HoleType=Round|Shape=RoundedRectangle|*
%AMROUNDEDRECTD33*
21,1,0.05926,0.00000,0,0,0.0*
21,1,0.04135,0.01791,0,0,0.0*
1,1,0.01791,0.02068,0.00000*
1,1,0.01791,-0.02068,0.00000*
1,1,0.01791,-0.02068,0.00000*
1,1,0.01791,0.02068,0.00000*
%
%ADD33ROUNDEDRECTD33*%
%ADD34R,0.12795X0.09843*%
%ADD35C,0.03000*%
%ADD36R,0.06299X0.08071*%
%ADD37R,0.13780X0.20079*%
%ADD38R,0.09264X0.02449*%
%ADD39R,0.05709X0.07087*%
%ADD40O,0.02756X0.07874*%
%ADD41R,0.18504X0.12598*%
%ADD42R,0.15158X0.25197*%
%ADD43R,0.03740X0.03543*%
%ADD44R,0.02402X0.01378*%
%ADD45R,0.01378X0.02402*%
%ADD46R,0.05512X0.04134*%
%ADD47R,0.11024X0.08898*%
%ADD48R,0.05906X0.01772*%
%ADD49R,0.05709X0.02362*%
%ADD50R,0.19685X0.19685*%
%ADD51R,0.07087X0.05709*%
%ADD52R,0.05709X0.06890*%
%ADD53R,0.09843X0.16339*%
%ADD69R,0.09055X0.12205*%
%ADD85C,0.04016*%
%ADD86C,0.06181*%
%ADD87R,0.06181X0.06181*%
%ADD88C,0.09488*%
%ADD102R,0.06181X0.06181*%
%ADD103C,0.01500*%
%ADD104C,0.16929*%
%ADD105C,0.07087*%
%ADD106R,0.06024X0.06024*%
%ADD107C,0.06024*%
%ADD108C,0.12598*%
%ADD109C,0.08000*%
%ADD110C,0.05984*%
%ADD111C,0.11457*%
%ADD112C,0.07000*%
%ADD113C,0.10158*%
%ADD114C,0.15000*%
%ADD115R,0.06000X0.06000*%
D11*
X402000Y170174D02*
G03*
X402000Y170826I-4500J326D01*
G01*
Y340174D02*
G03*
X402000Y340826I-4500J326D01*
G01*
X412909Y130500D02*
G03*
X412909Y130495I4512J0D01*
G01*
X423471Y342531D02*
G03*
X422989Y340564I4029J-2031D01*
G01*
X422012Y160499D02*
G03*
X422012Y160500I-4512J1D01*
G01*
Y170500D02*
G03*
X422011Y170565I-4512J0D01*
G01*
X493473Y342536D02*
G03*
X492988Y340526I4027J-2036D01*
G01*
X213000Y198500D02*
Y209382D01*
X218000Y214382D01*
X500374Y426215D02*
Y484333D01*
Y426215D02*
X503727Y422862D01*
X565000Y428961D02*
Y432500D01*
X561000Y429032D02*
Y435959D01*
X562000Y436959D01*
Y437500D01*
X592969Y451835D02*
X599634Y458500D01*
X606500D01*
X583000Y447500D02*
X583240Y447260D01*
Y445232D02*
Y447260D01*
X590000Y445232D02*
Y447500D01*
X13661Y222839D02*
X14000Y222500D01*
X13661Y222839D02*
Y233551D01*
X15819Y206319D02*
X30103D01*
X12000Y202500D02*
X15819Y206319D01*
X30103D02*
X33020Y209236D01*
X12000Y193000D02*
Y202500D01*
Y193000D02*
X14000Y191000D01*
X218843Y374170D02*
X228000Y365013D01*
Y361000D02*
Y365013D01*
X218843Y374170D02*
Y379586D01*
X194117Y393117D02*
X194500Y393500D01*
X194117Y390660D02*
Y393117D01*
X193372Y389914D02*
X194117Y390660D01*
X193372Y382660D02*
Y389914D01*
X191157Y372158D02*
Y402066D01*
X179500Y360500D02*
X191157Y372158D01*
Y402066D02*
X195646Y406555D01*
X53000Y390559D02*
Y410488D01*
X52945Y410543D02*
Y411134D01*
X50591Y413488D02*
X52945Y411134D01*
X49409Y413488D02*
X50591D01*
X51941Y389500D02*
X53000Y390559D01*
X52945Y410543D02*
X53000Y410488D01*
X77051Y419500D02*
X78500Y418051D01*
Y387910D02*
X85949Y380461D01*
X78500Y387910D02*
Y418051D01*
X48000Y346500D02*
Y357063D01*
X138433Y306500D02*
X145390Y299543D01*
X135000Y306500D02*
X138433D01*
X58012Y303500D02*
X68500D01*
X34500Y207888D02*
X50500Y223888D01*
Y292500D01*
X61949Y157000D02*
X72201D01*
X58614Y153665D02*
X61949Y157000D01*
X72201D02*
X73000Y157799D01*
X82976D01*
X84614Y159437D02*
X85500D01*
X82976Y157799D02*
X84614Y159437D01*
X58114Y152937D02*
X59000D01*
X51657Y146423D02*
X56842Y151608D01*
Y151665D01*
X58114Y152937D01*
X50823Y145500D02*
X51657Y146335D01*
Y146423D01*
X50735Y145500D02*
X50823D01*
X49500Y162000D02*
X50760D01*
X64256Y125307D02*
Y127756D01*
X63189Y124240D02*
X64256Y125307D01*
Y127756D02*
X70000Y133500D01*
X53709Y124240D02*
X63189D01*
X104449Y132000D02*
X104500D01*
X96429Y123980D02*
X104449Y132000D01*
X95500Y123980D02*
X96429D01*
X243272Y96437D02*
X243386D01*
X245657Y102157D02*
X246000Y102500D01*
X243386Y96437D02*
X245657Y98709D01*
Y102157D01*
X253500Y80000D02*
Y89063D01*
X239342Y110801D02*
X241500Y112959D01*
X239342Y78261D02*
Y110801D01*
X237158Y58729D02*
Y108725D01*
X224443Y121439D02*
X237158Y108725D01*
Y58729D02*
X240342Y55544D01*
X239342Y78261D02*
X240509Y77095D01*
X231886Y51563D02*
X237617Y45832D01*
X231000Y51563D02*
X231886D01*
X237617Y44383D02*
Y45832D01*
Y44383D02*
X238000Y44000D01*
X321799Y108299D02*
X328000D01*
X320000Y106500D02*
X321799Y108299D01*
X318000Y79110D02*
X327110Y70000D01*
X318000Y79110D02*
Y106500D01*
X316363Y108137D02*
X318000Y106500D01*
X320000Y82110D02*
X327110Y75000D01*
X320000Y82110D02*
Y106500D01*
X486260Y453240D02*
X489000Y450500D01*
X486063Y453240D02*
X486260D01*
X489000Y450000D02*
Y450500D01*
X484248Y427432D02*
X489500Y422180D01*
Y401000D02*
Y422180D01*
X482189Y435461D02*
X483437D01*
X484248Y434650D01*
Y427432D02*
Y434650D01*
X441500Y448500D02*
X442500Y447500D01*
X449043D01*
X493500Y449260D02*
Y449500D01*
X491000Y445000D02*
X491383Y445383D01*
Y447143D02*
X493500Y449260D01*
X491383Y445383D02*
Y447143D01*
X493500Y449500D02*
X493937D01*
X498000Y406721D02*
Y493959D01*
Y406721D02*
X504221Y400500D01*
X497000Y494959D02*
Y495500D01*
Y494959D02*
X498000Y493959D01*
X500374Y484333D02*
X502000Y485959D01*
Y486500D01*
X586500Y406000D02*
Y458500D01*
X60063Y179000D02*
X66000D01*
X150500Y154063D02*
X151772Y155335D01*
X156500Y158500D02*
X181500D01*
X45541Y163000D02*
X46541Y162000D01*
X45000Y163000D02*
X45541D01*
X46541Y162000D02*
X49500D01*
X606500Y458500D02*
X610000Y462000D01*
X34500Y187500D02*
Y207888D01*
X25811Y254000D02*
X33020Y246791D01*
Y209236D02*
Y215291D01*
X25811Y222500D02*
X33020Y215291D01*
X30103Y237819D02*
X33020Y240736D01*
Y246791D01*
X638988Y272858D02*
X642012Y275882D01*
Y382369D01*
X640520Y383861D02*
X642012Y382369D01*
X640520Y383861D02*
Y436480D01*
X627500Y449500D02*
X640520Y436480D01*
X402000Y170826D02*
Y340174D01*
Y170826D02*
Y170826D01*
Y340826D02*
Y340826D01*
Y166000D02*
X402293Y165707D01*
X402012Y350186D02*
Y357012D01*
X402000Y350174D02*
X402012Y350186D01*
Y357012D02*
X409000Y364000D01*
X402000Y340826D02*
Y350174D01*
X402293Y165707D02*
X407500Y160500D01*
X402000Y166000D02*
Y170174D01*
X521500Y477929D02*
X526071Y482500D01*
X520500Y410541D02*
X521500Y411541D01*
X520500Y410000D02*
Y410541D01*
X521500Y411541D02*
Y477929D01*
X540665Y410835D02*
X542130D01*
X526000Y425500D02*
Y435000D01*
Y425500D02*
X540665Y410835D01*
X542303Y410661D02*
X544583D01*
X542130Y410835D02*
X542303Y410661D01*
X581083Y435835D02*
X581500Y436252D01*
X581000Y424000D02*
X581083Y424083D01*
X581500Y436252D02*
Y439500D01*
X581083Y424083D02*
Y427961D01*
X565386Y428575D02*
X567417D01*
X565000Y428961D02*
X565386Y428575D01*
X561000Y429032D02*
X563843Y426189D01*
X559000Y415678D02*
Y463959D01*
X557000Y414850D02*
Y459500D01*
X555000Y396313D02*
X562988Y388324D01*
X560000Y464959D02*
Y465500D01*
X555000Y396313D02*
Y452500D01*
Y461500D02*
X557000Y459500D01*
X559000Y415678D02*
X563843Y410835D01*
X557000Y414850D02*
X563574Y408276D01*
X540000Y467500D02*
X555000Y452500D01*
X559000Y463959D02*
X560000Y464959D01*
X571937Y438260D02*
X573000Y437197D01*
Y434500D02*
Y437197D01*
X568500Y433452D02*
Y452743D01*
X570889Y431063D02*
X572461Y429491D01*
Y425099D02*
Y429491D01*
X568500Y433452D02*
X570889Y431063D01*
X570889D01*
X568500Y452743D02*
X570576Y454819D01*
X576500Y426310D02*
Y440264D01*
X580197Y443961D01*
X571261Y421071D02*
X576500Y426310D01*
X580197Y443961D02*
X581083D01*
X581968D01*
X591272D02*
X592083D01*
X590000Y445232D02*
X591272Y443961D01*
X598000Y412500D02*
Y447500D01*
X592000Y439500D02*
X592083Y439417D01*
X585925Y400425D02*
X598000Y412500D01*
X592083Y435835D02*
Y439417D01*
X581968Y443961D02*
X583240Y445232D01*
X592083Y451835D02*
X592969D01*
X570991Y423630D02*
X572461Y425099D01*
X567591Y423630D02*
X570991D01*
X567591Y421071D02*
X571261D01*
X567417Y420898D02*
X567591Y421071D01*
X575819Y454819D02*
X576000Y455000D01*
X567417Y423457D02*
X567591Y423630D01*
X570576Y454819D02*
X575819D01*
X537500Y436063D02*
X538000Y435563D01*
Y431000D02*
Y435563D01*
X592500Y428378D02*
Y431563D01*
X592083Y427961D02*
X592500Y428378D01*
X538228Y443937D02*
X539500Y445209D01*
X533000Y443500D02*
X537500D01*
Y443937D02*
X538228D01*
X539500Y445209D02*
Y452000D01*
X562000Y444063D02*
Y452000D01*
X562791Y443075D02*
X563866Y442000D01*
X562791Y443075D02*
Y443272D01*
X563866Y442000D02*
X564063D01*
X562000Y444063D02*
X562791Y443272D01*
X567244Y426189D02*
X567417Y426016D01*
X563843Y426189D02*
X567244D01*
X552500Y393923D02*
Y440500D01*
X550157Y442842D02*
X552500Y440500D01*
X542988Y384412D02*
X552500Y393923D01*
X546609Y445109D02*
X548213D01*
X550157Y443165D01*
Y442842D02*
Y443165D01*
X542500Y441000D02*
X546609Y445109D01*
X542500Y430657D02*
Y441000D01*
X543168Y428575D02*
X544583D01*
X542783Y428961D02*
X543168Y428575D01*
X542500Y430657D02*
X542783Y430375D01*
Y428961D02*
Y430375D01*
X531000Y433638D02*
Y441500D01*
X533000Y443500D01*
X531000Y433638D02*
X541009Y423630D01*
X602500Y452417D02*
X603083Y451835D01*
X602500Y452417D02*
Y455500D01*
X603083Y451835D02*
X614083D01*
X616250Y414467D02*
X619505Y411213D01*
X616250Y414467D02*
Y424801D01*
X619563Y428114D02*
Y429000D01*
X616250Y424801D02*
X619563Y428114D01*
X567524Y415673D02*
X580173D01*
X583000Y418500D01*
X582780Y413221D02*
X583000Y413000D01*
X567417Y413221D02*
X582780D01*
X586117Y405617D02*
X586500Y406000D01*
X412909Y130495D02*
X413000Y49000D01*
X412909Y130500D02*
Y140504D01*
X603968Y443961D02*
X610543Y437386D01*
X603083Y443961D02*
X603968D01*
X610543Y429043D02*
Y437386D01*
X605500Y424000D02*
X610543Y429043D01*
X619429Y439500D02*
X627500D01*
X614083Y443961D02*
X614968D01*
X619429Y439500D01*
X541009Y423630D02*
X544410D01*
X544583Y423457D01*
X567417Y400425D02*
X585925D01*
X537500Y340500D02*
X542988Y345988D01*
Y384412D01*
X538698Y400500D02*
X541009Y402811D01*
X504221Y400500D02*
X538698D01*
X541009Y402811D02*
X544410D01*
X544583Y402984D01*
X531119Y350500D02*
X537500D01*
X512988Y368631D02*
X531119Y350500D01*
X514000Y386459D02*
Y387000D01*
X512988Y385447D02*
X514000Y386459D01*
X512988Y368631D02*
Y385447D01*
X512500Y412000D02*
Y483500D01*
X521500Y403000D02*
X537500D01*
X512500Y412000D02*
X521500Y403000D01*
X612250Y363250D02*
Y391250D01*
X612000Y391500D02*
X612250Y391250D01*
Y363250D02*
X612500Y363000D01*
X507685Y414201D02*
X508496Y413390D01*
Y411323D02*
Y413390D01*
Y411323D02*
X513318Y406500D01*
Y403682D02*
Y406500D01*
Y403682D02*
X513500Y403500D01*
X505811Y414201D02*
X507685D01*
X465811Y401189D02*
Y405539D01*
Y401189D02*
X466000Y401000D01*
X402012Y360012D02*
Y402488D01*
X400000Y404500D02*
X402012Y402488D01*
X400000Y404500D02*
Y407500D01*
X397500Y355500D02*
X402012Y360012D01*
X397500Y350500D02*
Y355500D01*
X393500Y416000D02*
Y444456D01*
X567417Y418339D02*
X567585Y418506D01*
X574833D02*
X575000Y418673D01*
X567585Y418506D02*
X574833D01*
X526071Y482500D02*
X527843D01*
Y467500D02*
X540000D01*
X562988Y331596D02*
Y388324D01*
Y331596D02*
X563084Y331500D01*
X412909Y140504D02*
X413000Y329672D01*
X412910Y330591D02*
Y342290D01*
X413202Y342583D02*
X416608Y345988D01*
X412910Y330591D02*
X413000Y330500D01*
X413000Y329672D02*
X413000Y330500D01*
X412910Y342290D02*
X413202Y342583D01*
X302909Y324659D02*
X303000Y324750D01*
X302909Y128631D02*
Y324659D01*
X422831Y329495D02*
X422831Y329509D01*
X422831Y325169D02*
X423000Y325000D01*
X422831Y325169D02*
Y329495D01*
X421000Y322757D02*
X423000Y324757D01*
X422831Y329509D02*
X422989Y340564D01*
X423000Y324757D02*
Y325000D01*
X421000Y200500D02*
Y322757D01*
X564965Y408276D02*
X565138Y408102D01*
X563574Y408276D02*
X564965D01*
X565138Y408102D02*
X567417D01*
X372500Y358500D02*
Y382799D01*
X383000Y393299D01*
Y417598D01*
X382481Y418118D02*
X383000Y417598D01*
X382481Y418118D02*
Y425000D01*
X379617Y456051D02*
Y457117D01*
X379481Y455914D02*
X379617Y456051D01*
Y457117D02*
X380000Y457500D01*
X379481Y413560D02*
Y455914D01*
X380000Y412500D02*
Y413041D01*
X379481Y413560D02*
X380000Y413041D01*
X582500Y356500D02*
Y390386D01*
X598114Y406000D01*
X599000D01*
X628988Y365608D02*
X632988Y369607D01*
X628988Y165012D02*
Y365608D01*
Y165012D02*
X633500Y160500D01*
X432500Y451000D02*
X442189Y441311D01*
X432500Y479400D02*
X438900Y485800D01*
X432500Y451000D02*
Y479400D01*
X442189Y435461D02*
Y441311D01*
X438900Y485800D02*
X450800D01*
X462600D01*
X474400D01*
X461957Y446890D02*
Y447500D01*
Y438235D02*
Y446890D01*
X465811Y405539D02*
Y411509D01*
X460374Y416946D02*
X465811Y411509D01*
X460374Y416946D02*
Y436653D01*
X461957Y438235D01*
Y446890D02*
X463248Y445598D01*
X506000Y435650D02*
Y445000D01*
X505811Y435461D02*
X506000Y435650D01*
X504500Y491500D02*
X512500Y483500D01*
X567417Y415779D02*
X567524Y415673D01*
X426047Y398047D02*
Y417996D01*
X426000Y418043D02*
X426047Y417996D01*
X442095Y398095D02*
X442189Y398189D01*
X442000Y398000D02*
X442095Y398095D01*
X442189Y398189D02*
Y405539D01*
X435000Y410169D02*
X439630Y405539D01*
X442189D01*
X435000Y410169D02*
Y445328D01*
X422100Y458228D02*
X435000Y445328D01*
X415300Y485800D02*
X422100Y479000D01*
Y458228D02*
Y479000D01*
X432012Y321553D02*
Y445488D01*
X403500Y474000D02*
X432012Y445488D01*
X503727Y422862D02*
X505811D01*
X563843Y410835D02*
X567244D01*
X567417Y410661D01*
X337500Y450374D02*
Y457500D01*
X374500Y463000D02*
X380000Y457500D01*
X374500Y463000D02*
Y480600D01*
X567417Y405543D02*
X584914D01*
X584988Y405617D01*
X586117D01*
X374500Y480600D02*
X379700Y485800D01*
X406500Y407000D02*
Y453500D01*
X400500Y420012D02*
Y431000D01*
X400488Y420000D02*
X400500Y420012D01*
X374500Y431000D02*
Y438929D01*
X366500Y446929D02*
X374500Y438929D01*
X396700Y447656D02*
Y480800D01*
X391700Y485800D02*
X396700Y480800D01*
X393500Y444456D02*
X396700Y447656D01*
X318500Y450437D02*
Y468500D01*
X363100Y450329D02*
X366500Y446929D01*
X363100Y450329D02*
Y479000D01*
X356300Y485800D02*
X363100Y479000D01*
X301342Y458835D02*
X317614Y442563D01*
X299665Y458835D02*
X301342D01*
X317614Y442563D02*
X318500D01*
X298500Y460000D02*
X299665Y458835D01*
X339521Y447029D02*
X342500Y444051D01*
X332294Y447029D02*
X339521D01*
X328886Y450437D02*
X332294Y447029D01*
X328000Y450437D02*
X328886D01*
X342500Y307000D02*
Y444051D01*
X318500Y442563D02*
X328000D01*
X328563Y442500D02*
X337500D01*
X124000Y178437D02*
Y195563D01*
X332750Y297250D02*
X342500Y307000D01*
X537500Y403000D02*
X540043Y405543D01*
X544583D01*
X530000Y407000D02*
X530541D01*
X531644Y408102D01*
X544583D01*
X444248Y427610D02*
Y429741D01*
X442189Y426799D02*
X443437D01*
X444248Y427610D01*
Y429741D02*
X455500Y440993D01*
Y444500D01*
X460665Y445598D02*
X461957Y446890D01*
X460055Y445598D02*
X460665D01*
X458957Y444500D02*
X460055Y445598D01*
X455500Y444500D02*
X458957D01*
X411500Y420579D02*
Y444500D01*
Y420012D02*
Y420579D01*
X421878Y430957D02*
X426000D01*
X411500Y420579D02*
X421878Y430957D01*
X411500Y420012D02*
X411512Y420000D01*
X205400Y465500D02*
X235500D01*
X196200Y474700D02*
X205400Y465500D01*
X222000Y426500D02*
Y429437D01*
X160000Y437041D02*
X161750Y435291D01*
Y434750D02*
Y435291D01*
X160000Y437041D02*
Y470000D01*
X140055Y405657D02*
X142409Y408012D01*
X159091D02*
X161445Y405657D01*
X157000Y409512D02*
Y459500D01*
Y409512D02*
X158500Y408012D01*
X142409D02*
X143000D01*
X164250Y464250D02*
X164500Y464500D01*
X164250Y450750D02*
Y464250D01*
X262650Y264051D02*
Y496850D01*
X262500Y497000D02*
X262650Y496850D01*
X182000Y434743D02*
X184000Y436743D01*
Y448063D01*
X182000Y434500D02*
Y434743D01*
X183351Y462149D02*
X183937Y461563D01*
X155500Y479500D02*
X183351Y462149D01*
X183937Y456000D02*
Y461563D01*
X244500Y359000D02*
X258000Y372500D01*
Y477988D01*
X182377Y418877D02*
Y420440D01*
X180500Y417000D02*
X182377Y418877D01*
Y420440D02*
X183500Y421563D01*
X180500Y417000D02*
Y417000D01*
X195044Y381782D02*
X195056Y381769D01*
X194250Y381782D02*
X195044D01*
X195056Y381769D02*
X197683D01*
X193372Y382660D02*
X194250Y381782D01*
X215250Y380350D02*
X216843Y378757D01*
X217250Y381178D02*
Y388250D01*
Y381178D02*
X218843Y379586D01*
X215250Y380350D02*
Y383114D01*
X216843Y373342D02*
Y378757D01*
X209366Y396134D02*
X217250Y388250D01*
X214187Y384177D02*
X215250Y383114D01*
X208000Y384177D02*
X214187D01*
X204934Y396134D02*
X209366D01*
X219257Y403849D02*
X223683D01*
X218291Y402883D02*
X219257Y403849D01*
X216140Y402883D02*
X218291D01*
X215757Y402500D02*
X216140Y402883D01*
X216843Y373342D02*
X218000Y372184D01*
X306000Y429500D02*
Y430500D01*
Y400500D02*
Y429500D01*
X283500Y353500D02*
Y429365D01*
X283543Y429409D01*
Y444457D01*
X288000Y300000D02*
Y413000D01*
X179157Y396657D02*
X179500Y397000D01*
X179157Y385209D02*
Y396657D01*
X177100Y399342D02*
X187657Y409900D01*
Y423271D01*
X174354Y399342D02*
X177100D01*
X172000Y396988D02*
X174354Y399342D01*
X174386Y384437D02*
X175000Y385051D01*
X179000D02*
X179157Y385209D01*
X175000Y385051D02*
X179000D01*
X207658Y422708D02*
X210842Y425893D01*
X207658Y418590D02*
Y422708D01*
X204055Y414988D02*
X207658Y418590D01*
X212114Y429374D02*
X213000D01*
X210842Y428102D02*
X212114Y429374D01*
X210842Y425893D02*
Y428102D01*
X222000Y421563D02*
X222500Y421063D01*
Y417500D02*
Y421063D01*
X208000Y384177D02*
Y393000D01*
X231500Y384937D02*
Y393500D01*
Y384937D02*
X232000Y384437D01*
X198366Y398134D02*
X202934D01*
X204934Y396134D01*
X198000Y398500D02*
X198366Y398134D01*
X431500Y320500D02*
Y321041D01*
X432012Y321553D01*
X190461Y329311D02*
X190480Y329291D01*
Y321020D02*
Y329291D01*
Y321020D02*
X190500Y321000D01*
X268000Y460000D02*
X283543Y444457D01*
X210488Y413000D02*
X216000D01*
X210000Y411512D02*
Y411921D01*
X209705Y412217D02*
X210488Y413000D01*
X209000Y411512D02*
X209705Y412217D01*
Y416264D01*
X212255Y418814D01*
Y420755D01*
X213000Y421500D01*
X204055Y409146D02*
Y414988D01*
X197683Y381769D02*
X197835Y381618D01*
X218000Y366937D02*
Y372184D01*
X198000Y398500D02*
Y400488D01*
X197835Y384177D02*
Y398500D01*
X195646Y406555D02*
X201464D01*
X204055Y409146D01*
X189000Y435500D02*
Y439500D01*
X192377Y429560D02*
X192500Y429437D01*
X189000Y435500D02*
X192377Y432123D01*
Y429560D02*
Y432123D01*
X186000Y433488D02*
X187657Y431830D01*
X186000Y425000D02*
Y425580D01*
X185249Y422835D02*
Y424249D01*
X187657Y427044D02*
Y431830D01*
X186000Y425580D02*
X186586Y426165D01*
X183500Y421563D02*
X183977D01*
X185249Y422835D01*
Y424249D02*
X186000Y425000D01*
X186779Y426165D02*
X187657Y427044D01*
X186000Y433488D02*
Y441626D01*
X186586Y426165D02*
X186779D01*
X186000Y441626D02*
X192500Y448126D01*
X175383Y416117D02*
X182500Y409000D01*
X175383Y416117D02*
Y420205D01*
X181342Y426165D01*
X213000Y429374D02*
Y435500D01*
X204386Y429937D02*
X212437D01*
X203500D02*
X204386D01*
X212437D02*
X213000Y429374D01*
X179500Y339500D02*
Y360500D01*
X173402Y384339D02*
X173500Y384437D01*
X162333Y384339D02*
X173402D01*
X164117Y311826D02*
Y313617D01*
X164500Y314000D01*
X160539Y305689D02*
Y308248D01*
X164117Y311826D01*
X188000Y347500D02*
Y361000D01*
X147414Y347500D02*
X149000D01*
X66500Y350000D02*
X144914D01*
X147414Y347500D01*
X57000Y337260D02*
Y340500D01*
X56740Y337000D02*
X57000Y337260D01*
Y340500D02*
X66500Y350000D01*
X163500Y323500D02*
X178547D01*
X160539Y326461D02*
Y328311D01*
Y326461D02*
X163500Y323500D01*
X160539Y328311D02*
Y329311D01*
X178547Y323500D02*
X181799Y326752D01*
Y329311D01*
X159728Y327500D02*
X160539Y328311D01*
X137063Y327500D02*
X159728D01*
X137063Y320783D02*
Y327500D01*
Y320783D02*
X145390Y312457D01*
X146000D01*
X145390Y299543D02*
X146000D01*
X190480Y294520D02*
X190500Y294500D01*
X190461Y305689D02*
X190480Y305669D01*
Y294520D02*
Y305669D01*
X140961Y287311D02*
Y294461D01*
X141000Y294500D01*
X226358Y252000D02*
X233000D01*
X223500Y249142D02*
X226358Y252000D01*
X237500Y256500D02*
Y309500D01*
X233000Y252000D02*
X237500Y256500D01*
X115512Y310000D02*
X119000Y313488D01*
X109000Y310000D02*
X115512D01*
X78488Y310512D02*
Y317000D01*
Y310512D02*
X78500Y310500D01*
X222500Y304421D02*
Y306169D01*
Y284000D02*
Y304421D01*
Y284000D02*
X223500Y283000D01*
X218079Y300000D02*
X222500Y304421D01*
X212000Y300000D02*
X218079D01*
X153000Y237543D02*
X153500Y237043D01*
X151709Y238835D02*
X153000Y237543D01*
X156000Y285221D02*
Y301150D01*
X159854Y303503D02*
X160175Y303825D01*
X156000Y301150D02*
X160539Y305689D01*
X156000Y285221D02*
X160539Y280682D01*
X181799Y287311D02*
Y305689D01*
X58012Y315500D02*
X66500D01*
X145134Y323760D02*
X146209Y322685D01*
Y322488D02*
Y322685D01*
X144937Y323760D02*
X145134D01*
X146209Y322488D02*
X151000Y317697D01*
Y261000D02*
Y317697D01*
X153000Y250457D02*
X154291Y251748D01*
X155227D01*
X163417Y259938D01*
Y281874D01*
X160539Y284752D02*
X163417Y281874D01*
X160539Y284752D02*
Y287311D01*
Y262244D02*
Y263689D01*
Y280682D01*
X181799Y287311D02*
X187000Y282110D01*
Y260521D02*
Y282110D01*
Y260521D02*
X188500Y259020D01*
Y236000D02*
Y259020D01*
X184500Y232000D02*
X188500Y236000D01*
X193500Y231000D02*
Y284000D01*
X190461Y285227D02*
X191272Y284416D01*
X190461Y287039D02*
X193500Y284000D01*
X184500Y222000D02*
X193500Y231000D01*
X190325Y287175D02*
X190461Y287039D01*
X184750Y208750D02*
X185000Y209000D01*
X190461Y285227D02*
Y287039D01*
Y287311D01*
X136083Y253358D02*
Y278042D01*
Y253358D02*
X137209Y252232D01*
Y247044D02*
Y252232D01*
X146043Y227043D02*
Y246225D01*
X141000Y222000D02*
X146043Y227043D01*
X138083Y254186D02*
X146043Y246225D01*
X138083Y254186D02*
Y270500D01*
X140961Y273378D02*
Y287311D01*
X138083Y270500D02*
X140961Y273378D01*
X135209Y242835D02*
Y245044D01*
X137209Y247044D01*
X136083Y278042D02*
X137500Y279459D01*
Y280000D01*
X184500Y179437D02*
X185772Y180709D01*
X186914D02*
X187500Y181295D01*
X185772Y180709D02*
X186914D01*
X187500Y181295D02*
Y185500D01*
X184500Y208500D02*
X184750Y208750D01*
X184500Y203437D02*
Y208500D01*
X372500Y345500D02*
X377500Y350500D01*
X372500Y106000D02*
Y345500D01*
X289500Y139000D02*
Y242000D01*
X290500Y243000D01*
X207008Y141508D02*
X213075D01*
X207000Y141500D02*
X207008Y141508D01*
X213075D02*
X213083Y141516D01*
X202500Y258914D02*
X202617Y259032D01*
Y260117D02*
X203000Y260500D01*
X202617Y259032D02*
Y260117D01*
X202500Y141000D02*
Y258914D01*
Y141000D02*
X206929Y136571D01*
X199294Y139206D02*
Y198881D01*
Y139206D02*
X204488Y134012D01*
X206929Y136571D02*
X212909D01*
X204488Y134012D02*
X212910D01*
X196000Y138500D02*
Y195500D01*
Y138500D02*
X203047Y131453D01*
X212909D01*
X190500Y139000D02*
Y191500D01*
Y139000D02*
X203165Y126335D01*
X212909D01*
X502500Y150086D02*
X502617Y149969D01*
X502500Y150086D02*
Y345500D01*
X502617Y148883D02*
X503000Y148500D01*
X502617Y148883D02*
Y149969D01*
X572909Y81591D02*
X573000Y81500D01*
X572909Y81591D02*
Y153529D01*
X578500Y159119D01*
Y243500D01*
X134134Y241760D02*
X140240D01*
X133937D02*
X134134D01*
X140240D02*
X140500Y241500D01*
X178937Y240760D02*
X179197Y240500D01*
X185500D01*
X206921Y160570D02*
Y238421D01*
X207617Y239117D02*
Y240117D01*
X206921Y238421D02*
X207617Y239117D01*
Y240117D02*
X208000Y240500D01*
X206921Y160570D02*
X219535Y147956D01*
Y135775D02*
X231708Y123602D01*
X219535Y135775D02*
Y147956D01*
X217535Y134947D02*
Y143023D01*
Y134947D02*
X224443Y128039D01*
Y121439D02*
Y128039D01*
X231708Y123602D02*
X235917D01*
X216657Y143902D02*
X217535Y143023D01*
X208921Y189880D02*
X210000Y190959D01*
Y191500D01*
X226443Y131696D02*
Y143876D01*
X208921Y161398D02*
X226443Y143876D01*
Y131696D02*
X231804Y126335D01*
X235744D01*
X266000Y95500D02*
Y103743D01*
X248699Y121043D02*
X266000Y103743D01*
X235917Y121043D02*
X248699D01*
X226209Y91228D02*
X227117Y90320D01*
Y87883D02*
Y90320D01*
Y87883D02*
X227500Y87500D01*
X224937Y92500D02*
X225134D01*
X226209Y91425D01*
Y91228D02*
Y91425D01*
X220886Y67063D02*
X231333D01*
X220000D02*
X220886D01*
X224158Y70335D01*
Y87812D01*
X221665Y90304D02*
X224158Y87812D01*
X221665Y90304D02*
Y118421D01*
X216657Y123429D02*
X221665Y118421D01*
X213256Y123429D02*
X216657D01*
X213083Y123602D02*
X213256Y123429D01*
X213657Y94156D02*
X213791Y94022D01*
Y81791D02*
X214083Y81500D01*
X213791Y81791D02*
Y94022D01*
X209583Y61980D02*
X217843Y53720D01*
X209583Y61980D02*
Y88595D01*
X210157Y89170D01*
X206487Y105500D02*
X210157Y101830D01*
Y89170D02*
Y101830D01*
X203500Y117000D02*
X207543Y121043D01*
X203617Y112383D02*
X204000Y112000D01*
X207543Y121043D02*
X213083D01*
X203617Y112383D02*
Y114924D01*
X203500Y115041D02*
Y117000D01*
Y115041D02*
X203617Y114924D01*
X213083Y103855D02*
Y115925D01*
X213657Y94156D02*
Y103280D01*
X213083Y103855D02*
X213657Y103280D01*
X206000Y105500D02*
X206487D01*
X216500Y96803D02*
Y105500D01*
X242000Y97709D02*
X243272Y96437D01*
X242000Y97709D02*
Y103000D01*
X249000Y110000D01*
X241500Y112959D02*
X244459D01*
X244500Y113000D01*
X249000Y110000D02*
Y112743D01*
X245743Y116000D02*
X249000Y112743D01*
X235992Y116000D02*
X245743D01*
X542909Y103091D02*
Y335909D01*
Y103091D02*
X543000Y103000D01*
X542909Y335909D02*
X547500Y340500D01*
X219114Y51563D02*
X220000D01*
X212180D02*
X219114D01*
X210117Y49500D02*
X212180Y51563D01*
X210000Y49500D02*
X210117D01*
X416608Y345988D02*
Y349607D01*
X417500Y350500D01*
X633500Y52000D02*
Y52541D01*
X632909Y53132D02*
Y159909D01*
X633500Y160500D01*
X632909Y53132D02*
X633500Y52541D01*
X512500Y119000D02*
Y165500D01*
X468757Y151750D02*
X469007D01*
X472012Y154754D01*
X492000Y151500D02*
X492008Y151508D01*
Y156365D01*
X492012Y156369D01*
Y160476D01*
X442500Y99500D02*
Y345500D01*
X502500D02*
X507500Y350500D01*
X208921Y161398D02*
Y189880D01*
X235744Y126335D02*
X235917Y126161D01*
X184500Y179437D02*
Y195563D01*
X228500Y132468D02*
X232074Y128894D01*
X228500Y132468D02*
Y181959D01*
X231465Y132331D02*
Y175965D01*
X231500Y176000D01*
X231465Y132331D02*
X232343Y131453D01*
X229000Y182459D02*
Y183000D01*
X228500Y181959D02*
X229000Y182459D01*
X232074Y128894D02*
X235744D01*
X235917Y128720D01*
X235744Y131453D02*
X235917Y131280D01*
X232343Y131453D02*
X235744D01*
X212909Y136571D02*
X213083Y136398D01*
X212909Y131453D02*
X213083Y131280D01*
X183000Y130437D02*
Y145500D01*
Y130437D02*
X189437Y124000D01*
X218000Y219402D02*
X262650Y264051D01*
X218000Y214382D02*
Y219402D01*
X322500Y129041D02*
X328000Y123541D01*
X322500Y129041D02*
Y336500D01*
X149098Y240279D02*
X150542Y238835D01*
X149098Y252869D02*
X157661Y261432D01*
X149098Y240279D02*
Y252869D01*
X150542Y238835D02*
X151709D01*
X159728Y261432D02*
X160539Y262244D01*
X157661Y261432D02*
X159728D01*
X153500Y229500D02*
Y237043D01*
X153610Y250457D02*
X159567Y244500D01*
X153000Y250457D02*
X153610D01*
X159567Y244500D02*
X171063D01*
X134134Y241760D02*
X135209Y242835D01*
X96500Y232000D02*
X96709Y232209D01*
Y255382D01*
X90961Y261130D02*
X96709Y255382D01*
X92500Y255000D02*
X94709Y252791D01*
Y247044D02*
Y252791D01*
X92709Y245044D02*
X94709Y247044D01*
X92709Y242835D02*
Y245044D01*
X91634Y241760D02*
X92709Y242835D01*
X91437Y241760D02*
X91634D01*
X235917Y115925D02*
X235992Y116000D01*
X153335Y155335D02*
X156500Y158500D01*
X151772Y155335D02*
X153335D01*
X167437Y154063D02*
X172500Y149000D01*
X161000Y154063D02*
X167437D01*
X172500Y105000D02*
Y149000D01*
X152638Y95500D02*
X153012D01*
X149063Y116000D02*
Y124000D01*
Y99449D02*
Y116000D01*
Y99449D02*
X153012Y95500D01*
X347500Y163000D02*
Y193000D01*
X482500Y345500D02*
X487500Y350500D01*
X482500Y193500D02*
Y345500D01*
X422000Y74500D02*
X422012Y160499D01*
X421586Y199914D02*
X422011Y170565D01*
X423471Y342531D02*
X427500Y350500D01*
X421000Y200500D02*
X421586Y199914D01*
X422012Y160500D02*
Y170500D01*
X338000Y158000D02*
Y200000D01*
X109110Y249957D02*
X121409D01*
X108500D02*
X109110D01*
X121409D02*
X125866Y245500D01*
X126063D01*
X111039Y271096D02*
X113917Y268218D01*
Y254764D02*
Y268218D01*
X111039Y271096D02*
Y287311D01*
X109110Y249957D02*
X113917Y254764D01*
X111039Y261130D02*
Y263689D01*
X104598Y254689D02*
X111039Y261130D01*
X104598Y247544D02*
Y254689D01*
Y247544D02*
X108500Y243642D01*
Y237043D02*
Y243642D01*
X90961Y261130D02*
Y263689D01*
X83563Y245500D02*
X83760D01*
X82299Y273378D02*
Y287311D01*
Y273378D02*
X85177Y270500D01*
Y246917D02*
Y270500D01*
X83760Y245500D02*
X85177Y246917D01*
X67000Y250457D02*
X78409D01*
X83366Y245500D01*
X83563D01*
X67000Y250457D02*
Y279000D01*
X61039Y284961D02*
X67000Y279000D01*
X61039Y284961D02*
Y287311D01*
X108500Y229500D02*
Y237043D01*
X67000Y229500D02*
Y237543D01*
X61039Y237039D02*
Y263689D01*
X56000Y232000D02*
X61039Y237039D01*
X216500Y96803D02*
X217063Y96240D01*
X229071Y96437D02*
X233000D01*
X225134Y92500D02*
X229071Y96437D01*
X241781Y74937D02*
X242667D01*
X240509Y76209D02*
X241781Y74937D01*
X240509Y76209D02*
Y77095D01*
X206000Y60110D02*
Y91720D01*
X198390Y52500D02*
X206000Y60110D01*
X172428Y88377D02*
Y89991D01*
X170072Y86021D02*
X172428Y88377D01*
Y89991D02*
X173500Y91063D01*
X115189Y91551D02*
X119138Y95500D01*
X113063Y101575D02*
X119138Y95500D01*
X217843Y52835D02*
X219114Y51563D01*
X217843Y52835D02*
Y53720D01*
X242667Y74937D02*
X254000D01*
X232500Y76104D02*
Y82000D01*
X231333Y74937D02*
X232500Y76104D01*
Y82000D02*
Y88063D01*
X233000Y88563D01*
X213083Y144075D02*
X213256Y143902D01*
X240342Y53335D02*
Y55544D01*
Y53335D02*
X241614Y52063D01*
X213256Y143902D02*
X216657D01*
X241614Y52063D02*
X242500D01*
X189437Y124000D02*
X195551D01*
X212910Y134012D02*
X213083Y133839D01*
X165000Y124240D02*
Y148500D01*
X164500Y123740D02*
X165000Y124240D01*
X212909Y126335D02*
X213083Y126161D01*
X249115Y61500D02*
X249500D01*
X243552Y67063D02*
X249115Y61500D01*
X242667Y67063D02*
X243552D01*
X253500Y52000D02*
Y66563D01*
X254000Y67063D01*
X599886Y406000D02*
X602260Y408374D01*
X599000Y406000D02*
X599886D01*
X602260Y408374D02*
Y414000D01*
X620051Y411213D02*
X624000Y407264D01*
X619505Y411213D02*
X620051D01*
X624000Y406201D02*
Y407264D01*
X608000Y398063D02*
X608563Y397500D01*
X624000D01*
X607937Y398126D02*
X608000Y398063D01*
X599000Y398126D02*
X607937D01*
X624000Y397500D02*
Y406201D01*
X627500Y439500D02*
X635157Y431843D01*
Y398158D02*
Y431843D01*
X632988Y395988D02*
X635157Y398158D01*
X134760Y123740D02*
X135000Y123500D01*
X127740Y124000D02*
X128000Y123740D01*
X134760D01*
X481883Y58883D02*
Y60035D01*
X481500Y58500D02*
X481883Y58883D01*
Y60035D02*
X481933Y60086D01*
Y156067D01*
X90500Y295500D02*
X90730Y295270D01*
Y287541D02*
X90961Y287311D01*
X90730Y287541D02*
Y295270D01*
X632988Y369607D02*
Y395988D01*
X638988Y165012D02*
Y272858D01*
Y165012D02*
X643500Y160500D01*
X477500D02*
X481933Y156067D01*
X462909Y70632D02*
Y155909D01*
Y70632D02*
X464750Y68791D01*
Y68250D02*
Y68791D01*
X462909Y155909D02*
X467500Y160500D01*
X472012Y154754D02*
Y345988D01*
X467500Y350500D02*
X472012Y345988D01*
X492012Y160476D02*
X492988Y340526D01*
X493473Y342536D02*
X497500Y350500D01*
X643500Y46000D02*
Y46541D01*
X642909Y47132D02*
X643500Y46541D01*
X642909Y47132D02*
Y159909D01*
X643500Y160500D01*
X507500Y170500D02*
X512500Y165500D01*
X88437Y125500D02*
X93980D01*
X522012Y154512D02*
Y345988D01*
X517500Y350500D02*
X522012Y345988D01*
X522000Y154500D02*
X522012Y154512D01*
X442500Y345500D02*
X447500Y350500D01*
X144063Y179000D02*
X149500D01*
X144000Y178937D02*
X144063Y179000D01*
X124563Y178500D02*
X130500D01*
X124500Y178437D02*
X124563Y178500D01*
X102563Y179000D02*
X108000D01*
X102500Y178937D02*
X102563Y179000D01*
X81563D02*
X87000D01*
X81000Y178437D02*
X81563Y179000D01*
X164000Y178937D02*
X168937D01*
X60000D02*
X60063Y179000D01*
X189000Y54500D02*
X191000Y52500D01*
X198390D01*
X49500Y154937D02*
Y161740D01*
X50760Y163000D01*
X328000Y108299D02*
Y123541D01*
X309000Y108299D02*
Y122541D01*
X302909Y128631D02*
X309000Y122541D01*
X156937Y124000D02*
X164240D01*
X164500Y123740D01*
X182500Y98638D02*
X185638Y95500D01*
X181563Y116000D02*
X182500Y115063D01*
Y98638D02*
Y115063D01*
X181563Y116000D02*
Y124000D01*
X150512Y95500D02*
X151201D01*
X170072Y58432D02*
Y86021D01*
X136447Y59057D02*
Y85396D01*
X101822Y58682D02*
Y85771D01*
X67500Y57610D02*
Y88449D01*
X47701Y82565D02*
Y95500D01*
X120874Y124000D02*
X127740D01*
X116638Y95500D02*
X117701D01*
X113063Y101575D02*
Y116000D01*
X113000Y116063D02*
X113063Y116000D01*
X113000Y116063D02*
Y124000D01*
X93980Y125500D02*
X95500Y123980D01*
X80563Y98075D02*
Y116000D01*
Y98075D02*
X83138Y95500D01*
X80563Y116000D02*
Y125500D01*
X154591Y205512D02*
X161039D01*
X154000D02*
X154591D01*
X161039D02*
X163114Y203437D01*
X164000D01*
X135091Y205512D02*
X141039D01*
X134500D02*
X135091D01*
X141039D02*
X143114Y203437D01*
X144000D01*
X92590Y205512D02*
X99539D01*
X92000D02*
X92590D01*
X101614Y203437D02*
X102500D01*
X99539Y205512D02*
X101614Y203437D01*
X70591Y205512D02*
X78039D01*
X70000D02*
X70591D01*
X78039D02*
X80114Y203437D01*
X81000D01*
X50500Y205512D02*
X57539D01*
X59614Y203437D01*
X60500D01*
X258000Y477988D02*
X258150Y478138D01*
X173500Y384437D02*
X174386D01*
X233500Y423437D02*
Y428500D01*
Y423437D02*
X234000Y422937D01*
X181342Y428165D02*
X182614Y429437D01*
X181342Y426165D02*
Y428165D01*
X179928Y432123D02*
X182614Y429437D01*
X183500D01*
X193886Y421563D02*
Y422063D01*
X192500Y416421D02*
X197409Y411512D01*
X192500Y416421D02*
Y421563D01*
X197409Y411512D02*
X198000D01*
X164000Y450500D02*
X164250Y450750D01*
X221500Y437500D02*
Y450500D01*
Y437500D02*
X222000Y437000D01*
Y429437D02*
Y437000D01*
X143000Y408012D02*
X158500D01*
X201000Y460500D02*
X208937D01*
X231500Y462500D02*
X235216Y458784D01*
X192686Y458686D02*
X196500Y462500D01*
X196658Y456157D02*
X201000Y460500D01*
X208937D02*
X211153Y458284D01*
X196500Y462500D02*
X231500D01*
X211153Y455895D02*
X211449Y455598D01*
X211153Y455895D02*
Y458284D01*
X196658Y427044D02*
Y456157D01*
X194771Y425157D02*
X196658Y427044D01*
X189544Y425157D02*
X194771D01*
X187657Y423271D02*
X189544Y425157D01*
X199000Y425500D02*
Y450102D01*
X196335Y422835D02*
X199000Y425500D01*
Y450102D02*
X203909Y455012D01*
X204500D01*
X193000Y421563D02*
X193886D01*
X194658Y422835D02*
X196335D01*
X193886Y422063D02*
X194658Y422835D01*
X235216Y456233D02*
X235449Y456000D01*
X235216Y456233D02*
Y458784D01*
X192686Y456186D02*
Y458686D01*
X192500Y456000D02*
X192686Y456186D01*
X203000Y443988D02*
X204913Y445902D01*
X210449D01*
X234177Y447772D02*
Y448425D01*
Y447772D02*
X235449Y446500D01*
X226500Y455512D02*
X227091D01*
X234177Y448425D01*
X64000Y333500D02*
X75250D01*
X56740Y337000D02*
X60500D01*
X64000Y333500D01*
X56740Y327000D02*
Y337000D01*
Y327000D02*
X58012Y325728D01*
Y315500D02*
Y325728D01*
X94750Y322927D02*
Y328500D01*
X89512Y317689D02*
X94750Y322927D01*
X89512Y317000D02*
Y317689D01*
X75250Y320927D02*
X78488Y317689D01*
X75250Y320927D02*
Y328500D01*
X78488Y317000D02*
Y317689D01*
X158500Y408012D02*
X159091D01*
X179877Y432123D02*
X179928D01*
X179000Y433000D02*
X179877Y432123D01*
X181843Y453780D02*
Y454665D01*
X179000Y450937D02*
X181843Y453780D01*
X179000Y433000D02*
Y450937D01*
X183114Y455937D02*
X184000D01*
X181843Y454665D02*
X183114Y455937D01*
X101658Y347000D02*
X106500D01*
X98158Y343500D02*
X101658Y347000D01*
X94750Y343500D02*
X98158D01*
X143591Y396988D02*
X158500D01*
X143000D02*
X143591D01*
X159091Y408012D02*
X172000D01*
X149000Y347500D02*
Y361000D01*
X150620Y381628D02*
X153516D01*
X149000Y380008D02*
X150620Y381628D01*
X149000Y361000D02*
Y380008D01*
X153516Y381628D02*
X153667Y381780D01*
X223683Y403849D02*
X223835Y404000D01*
X215543Y406559D02*
X223835D01*
X210000Y411512D02*
X210591D01*
X215543Y406559D01*
X183937Y456000D02*
X184000Y455937D01*
X65000Y444500D02*
X79000Y458500D01*
Y459000D01*
X65000Y444000D02*
Y444500D01*
X119500Y423980D02*
Y436500D01*
X35500Y483000D02*
X51500D01*
X44500Y476000D02*
X51500Y483000D01*
X44500Y418988D02*
Y476000D01*
X153667Y384339D02*
Y386911D01*
X143591Y396988D02*
X153667Y386911D01*
X144739Y384339D02*
X153667D01*
X127471Y367071D02*
X144739Y384339D01*
X111500Y367071D02*
X127471D01*
X85949Y380461D02*
X98110D01*
X111500Y367071D01*
X44500Y418988D02*
X47055Y416433D01*
X77051Y419500D02*
Y431051D01*
X81000Y435000D01*
X47055Y415842D02*
X49409Y413488D01*
X47055Y415842D02*
Y416433D01*
X309162Y108137D02*
X316363D01*
X309000Y108299D02*
X309162Y108137D01*
X327110Y70000D02*
X328783D01*
X327110Y75000D02*
X328783D01*
X339868Y65000D02*
X342868Y68000D01*
X328783Y65000D02*
X339868D01*
X342868Y68000D02*
X344000D01*
X342353Y58000D02*
X344000D01*
X340353Y60000D02*
X342353Y58000D01*
X328783Y60000D02*
X340353D01*
X52437Y125512D02*
Y126000D01*
Y125512D02*
X53709Y124240D01*
X174000Y205512D02*
Y211500D01*
X184500Y222000D01*
X183614Y203437D02*
X184500D01*
X174000Y205512D02*
X181539D01*
X183614Y203437D01*
X164000Y211500D02*
X184500Y232000D01*
X164000Y203437D02*
Y211500D01*
X156945Y208457D02*
X165445Y216957D01*
X154591Y205512D02*
X156945Y207866D01*
Y208457D01*
X165445Y216957D02*
Y221445D01*
X166000Y222000D01*
X144000Y210000D02*
X166000Y232000D01*
X144000Y203437D02*
Y210000D01*
X137445Y208457D02*
X141000Y212012D01*
Y221000D01*
X135091Y205512D02*
X137445Y207866D01*
Y208457D01*
X102500Y203437D02*
X103386D01*
X119500Y219551D01*
Y221000D01*
X96500Y231500D02*
X103500Y224500D01*
Y217012D02*
Y224500D01*
X92590Y205512D02*
X94945Y207866D01*
Y208457D01*
X103500Y217012D01*
X81000Y203437D02*
X81886D01*
X87055Y208606D01*
Y212055D01*
X96500Y221500D01*
X70591Y205512D02*
X72945Y207866D01*
Y208457D01*
X77667Y213178D01*
Y221500D01*
X61386Y203437D02*
X62657Y204709D01*
Y216491D01*
X60500Y203437D02*
X61386D01*
X62657Y216491D02*
X77667Y231500D01*
X50500Y216000D02*
X56000Y221500D01*
X50500Y205512D02*
Y216000D01*
X164000Y178937D02*
Y195563D01*
X144000Y178937D02*
Y195563D01*
X102500Y178937D02*
Y195563D01*
X81000Y178437D02*
Y195563D01*
X60500Y179437D02*
Y195563D01*
X173681Y58429D02*
X179610Y52500D01*
X187000D01*
X189000Y54500D01*
X156750Y52500D02*
X164140D01*
X154750Y54500D02*
X156750Y52500D01*
X164140D02*
X170072Y58432D01*
X145360Y52500D02*
X152750D01*
X139431Y58429D02*
X145360Y52500D01*
X152750D02*
X154750Y54500D01*
X136447Y85396D02*
X140500Y89449D01*
X129890Y52500D02*
X136447Y59057D01*
X120500Y54500D02*
X122500Y52500D01*
X129890D01*
X105181Y58429D02*
X111360Y52250D01*
X118250D02*
X120500Y54500D01*
X111360Y52250D02*
X118250D01*
X101822Y85771D02*
X107614Y91563D01*
X88250Y52500D02*
X95639D01*
X86250Y54500D02*
X88250Y52500D01*
X95639D02*
X101822Y58682D01*
X77360Y52000D02*
X83750D01*
X86250Y54500D01*
X70931Y58429D02*
X77360Y52000D01*
X50000Y51500D02*
X52000Y53500D01*
X42610Y51500D02*
X50000D01*
X67500Y88449D02*
X70614Y91563D01*
X60728Y50839D02*
X67500Y57610D01*
X52000Y53500D02*
X54590Y50909D01*
X55590D02*
X55661Y50839D01*
X60728D01*
X54590Y50909D02*
X55590D01*
X36681Y57429D02*
X42610Y51500D01*
X173681Y58429D02*
Y73551D01*
X181689Y81559D01*
Y91551D01*
X185638Y95500D01*
X139431Y58429D02*
Y72926D01*
X148689Y91551D02*
X152638Y95500D01*
X148689Y82184D02*
Y91551D01*
X139431Y72926D02*
X148689Y82184D01*
X140500Y89449D02*
Y91563D01*
X105181Y72551D02*
X115189Y82559D01*
Y91551D01*
X105181Y58429D02*
Y72551D01*
X107614Y91563D02*
X108500D01*
X70931Y58429D02*
Y71465D01*
X79189Y79723D01*
Y91551D01*
X83138Y95500D01*
X70614Y91563D02*
X71500D01*
X36681Y57429D02*
Y71545D01*
X47701Y82565D01*
X44563Y98638D02*
X47701Y95500D01*
X44563Y98638D02*
Y116000D01*
Y126000D01*
X576260Y490189D02*
X580571Y494500D01*
X590000D01*
X576260Y489500D02*
Y490189D01*
X573949Y492500D02*
X576260Y490189D01*
X568157Y492500D02*
X573949D01*
X13661Y233551D02*
X17929Y237819D01*
X30103D01*
X48000Y364937D02*
X58075D01*
X59000Y364012D01*
X47114Y364937D02*
X48000D01*
X41551Y370500D02*
X47114Y364937D01*
X16500Y370500D02*
X41551D01*
X9500Y377500D02*
X16500Y370500D01*
X9500Y383469D02*
X13721Y387689D01*
X9500Y377500D02*
Y383469D01*
X25500Y421400D02*
Y433200D01*
Y445000D01*
Y456800D01*
X57374Y424512D02*
X61500Y420386D01*
X50000Y424512D02*
X57374D01*
X61500Y419500D02*
Y420386D01*
X51500Y483000D02*
X65000D01*
X0Y500500D02*
X675000D01*
Y39000D02*
Y500500D01*
X0Y39000D02*
X675000D01*
X0D02*
Y500500D01*
D14*
X635858Y430634D02*
X673142D01*
Y472366D01*
X635858D02*
X673142D01*
X635858Y430634D02*
Y472366D01*
X193887Y387032D02*
X210447D01*
Y373646D02*
Y387032D01*
X193887Y373646D02*
X210447D01*
X193887D02*
Y387032D01*
X636819Y69728D02*
Y111461D01*
X674102D01*
Y69728D02*
Y111461D01*
X636819Y69728D02*
X674102D01*
X2898Y174461D02*
X40181D01*
X2898Y144539D02*
Y174461D01*
Y144539D02*
X40181D01*
Y174461D01*
X219887Y396028D02*
Y409413D01*
Y396028D02*
X236447D01*
Y409413D01*
X219887D02*
X236447D01*
X149720Y373807D02*
Y387193D01*
Y373807D02*
X166280D01*
Y387193D01*
X149720D02*
X166280D01*
X2898Y205961D02*
X40181D01*
X2898Y176039D02*
Y205961D01*
Y176039D02*
X40181D01*
Y205961D01*
X2898Y237461D02*
X40181D01*
X2898Y207539D02*
Y237461D01*
Y207539D02*
X40181D01*
Y237461D01*
X2898Y268961D02*
X40181D01*
X2898Y239039D02*
Y268961D01*
Y239039D02*
X40181D01*
Y268961D01*
X2618Y402650D02*
X39902D01*
X2618Y372728D02*
Y402650D01*
Y372728D02*
X39902D01*
Y402650D01*
X635831Y398228D02*
X673114D01*
Y428150D01*
X635831D02*
X673114D01*
X635831Y398228D02*
Y428150D01*
X139789Y43398D02*
Y80681D01*
Y43398D02*
X169711D01*
Y80681D01*
X139789D02*
X169711D01*
X71289Y43398D02*
Y80681D01*
Y43398D02*
X101211D01*
Y80681D01*
X71289D02*
X101211D01*
X174039Y43398D02*
Y80681D01*
Y43398D02*
X203961D01*
Y80681D01*
X174039D02*
X203961D01*
X37039Y79681D02*
X66961D01*
Y42398D02*
Y79681D01*
X37039Y42398D02*
X66961D01*
X37039D02*
Y79681D01*
X105539Y43398D02*
Y80681D01*
Y43398D02*
X135461D01*
Y80681D01*
X105539D02*
X135461D01*
X2898Y300461D02*
X40181D01*
X2898Y270539D02*
Y300461D01*
Y270539D02*
X40181D01*
Y300461D01*
D15*
X623239Y380597D02*
G03*
X623238Y380500I4261J-97D01*
G01*
Y370500D02*
G03*
X623239Y370414I4262J0D01*
G01*
X172522Y381633D02*
G03*
X172521Y381633I-354J-353D01*
G01*
X174237Y379647D02*
G03*
X174238Y379646I354J353D01*
G01*
X218500Y188500D02*
X222000Y192000D01*
X218500Y175118D02*
Y188500D01*
X218000Y174618D02*
X218500Y175118D01*
X269522Y394978D02*
X270000Y394500D01*
X269500Y396043D02*
X269522Y396021D01*
X269500Y396043D02*
Y410000D01*
X269522Y394978D02*
Y396021D01*
X231500Y376063D02*
X232000Y376563D01*
X231500Y344000D02*
Y376063D01*
X226669Y344000D02*
X231500D01*
X202287Y393287D02*
X202500Y393500D01*
X202287Y383289D02*
Y393287D01*
X144000Y154063D02*
Y157665D01*
X42500Y141000D02*
Y146000D01*
X45500Y149000D01*
X85500Y142176D02*
X86500Y141176D01*
X86808Y140500D02*
X88245Y139063D01*
X99500D01*
X85500Y142176D02*
Y151563D01*
X86500Y140500D02*
Y141176D01*
Y140500D02*
X86808D01*
X73299Y149000D02*
X82937D01*
X72500Y148201D02*
X73299Y149000D01*
X82937D02*
X85500Y151563D01*
X51760Y149000D02*
X54549Y151789D01*
Y158620D01*
X45500Y149000D02*
X51760D01*
X88500Y112500D02*
X92000Y109000D01*
X88500Y112500D02*
Y115937D01*
X88437Y116000D02*
X88500Y115937D01*
X95500Y96799D02*
Y116260D01*
Y96799D02*
X96799Y95500D01*
X95500Y116260D02*
Y116500D01*
X107000Y99437D02*
X108500D01*
X116852Y112648D02*
X120500Y109000D01*
X121000Y112000D02*
Y115937D01*
X120500Y109000D02*
X124000D01*
X121000Y112000D02*
X124000Y109000D01*
X243000Y79500D02*
Y88063D01*
X243500Y88563D01*
X323000Y85000D02*
X328783D01*
X330457D01*
X252948Y422885D02*
X253000Y422937D01*
X249885Y422885D02*
X252948D01*
X248500Y421500D02*
X249885Y422885D01*
X248500Y421500D02*
X248500D01*
X573459Y447065D02*
X575000Y448606D01*
Y449000D01*
X573262Y447065D02*
X573459D01*
X575000Y449000D02*
X577835Y451835D01*
X581083D01*
X472500Y375500D02*
Y442889D01*
X481450Y451839D01*
Y479450D01*
X481500Y479500D01*
X519240Y484740D02*
Y491500D01*
X545006Y425593D02*
X548053D01*
X544583Y426016D02*
X545006Y425593D01*
X548053D02*
X548785Y424860D01*
X54549Y158620D02*
X58240Y162311D01*
Y163000D01*
X572750Y375750D02*
Y390750D01*
X542500Y391000D02*
X548785Y397285D01*
X572750Y390750D02*
X573000Y391000D01*
X516000Y496429D02*
X539071D01*
X548500Y487000D01*
X511760Y492189D02*
X516000Y496429D01*
X511760Y491500D02*
Y492189D01*
X527843Y487500D02*
X547324D01*
X571937Y445740D02*
X573262Y447065D01*
X548000Y436563D02*
X548478D01*
X550000Y435041D01*
Y428386D02*
Y435041D01*
X548053Y426439D02*
X550000Y428386D01*
X609740Y414689D02*
X614500Y419449D01*
X621000Y435500D02*
X622563Y433937D01*
X614500Y419449D02*
Y435500D01*
X621000D01*
X622563Y433937D02*
X623386D01*
X627437Y429886D01*
Y429000D02*
Y429886D01*
X572500Y375500D02*
X572750Y375750D01*
X548785Y397285D02*
Y424860D01*
X609740Y414000D02*
Y414689D01*
X525071Y491500D02*
X526071Y492500D01*
X519240Y491500D02*
X525071D01*
X526071Y492500D02*
X527843D01*
X545006Y426439D02*
X548053D01*
X548785Y436325D02*
X550181Y437720D01*
X544583Y426016D02*
X545006Y426439D01*
X535500Y397500D02*
X538172D01*
X541098Y400425D01*
X544583D01*
X623239Y370414D02*
X623500Y357500D01*
X623238Y370500D02*
Y380500D01*
X623239Y380597D02*
X623500Y392000D01*
X527843Y457500D02*
X528000Y457342D01*
Y451500D02*
Y457342D01*
X547324Y487500D02*
X547823Y487000D01*
X548500D01*
X549677Y487500D02*
X569929D01*
X548500Y487000D02*
X563955Y471545D01*
X549177Y487000D02*
X549677Y487500D01*
X548500Y487000D02*
X549177D01*
X563955Y464545D02*
Y471545D01*
X527843Y457500D02*
Y462500D01*
X593238Y268500D02*
Y346238D01*
Y268500D02*
X617762Y243976D01*
X593238Y346238D02*
X597500Y350500D01*
X479000Y445500D02*
X479260Y445760D01*
X486063D01*
X366500Y413071D02*
Y426500D01*
X237858Y449500D02*
X238650D01*
X237738Y449620D02*
X237858Y449500D01*
X236419Y449620D02*
X237738D01*
X238650Y449500D02*
X241551Y446598D01*
X231811Y454228D02*
X236419Y449620D01*
X241551Y446598D02*
Y456000D01*
X231811Y454228D02*
Y458268D01*
X241551Y446500D02*
Y446598D01*
X221569Y459616D02*
X230463D01*
X231811Y458268D01*
X217551Y455598D02*
X221569Y459616D01*
X217551Y455500D02*
Y455598D01*
X228000Y411207D02*
Y442988D01*
X226500Y444488D02*
X228000Y442988D01*
X228048Y411207D02*
X231336D01*
X252500Y443500D02*
Y448488D01*
X252114Y415063D02*
X253000D01*
X248051Y411000D02*
X252114Y415063D01*
X248000Y411000D02*
X248051D01*
X242941Y390378D02*
X245115D01*
X251155Y396418D02*
Y397041D01*
X252677Y398563D02*
X253500D01*
X242000Y389437D02*
X242941Y390378D01*
X245115D02*
X251155Y396418D01*
Y397041D02*
X252677Y398563D01*
X239156Y386085D02*
X247415D01*
X254500Y379000D01*
X238534Y384585D02*
X245175D01*
X251000Y378760D01*
Y376000D02*
Y378760D01*
Y376000D02*
X253000Y374000D01*
X236891Y388350D02*
X239156Y386085D01*
X234500Y388619D02*
Y396882D01*
Y388619D02*
X238534Y384585D01*
X241500Y395500D02*
Y398563D01*
X209000Y400488D02*
Y405500D01*
X231336Y411207D02*
X232963Y412834D01*
Y413541D02*
X233293Y413871D01*
X234000D02*
Y415063D01*
X233293Y413871D02*
X234000D01*
X232963Y412834D02*
Y413541D01*
X228048Y400552D02*
Y411207D01*
X233114Y415063D02*
X234000D01*
X298000Y403500D02*
X298250Y403750D01*
X292000Y397500D02*
X298000Y403500D01*
X234000Y414063D02*
X242500D01*
X243000Y413563D01*
X231592Y415585D02*
X233114Y414063D01*
X136000Y154063D02*
X138000D01*
X130563D02*
X136000D01*
X226791Y399295D02*
X228048Y400552D01*
X206500Y376500D02*
X208784D01*
X211784Y373500D01*
X212000D01*
X206529Y379029D02*
X211970D01*
X212000Y379000D01*
X206500Y379059D02*
X206529Y379029D01*
X202287Y371213D02*
Y383289D01*
Y371213D02*
X205885Y367615D01*
X208322D02*
X209000Y366937D01*
X205885Y367615D02*
X208322D01*
X222114Y376563D02*
X232000D01*
X220592Y378085D02*
Y380311D01*
X219000Y381903D02*
Y400230D01*
X220592Y378085D02*
X222114Y376563D01*
X219000Y381903D02*
X220592Y380311D01*
X220122Y401352D02*
X223746D01*
X223835Y401441D01*
X219000Y400230D02*
X220122Y401352D01*
X226665Y399295D02*
X226791D01*
X223835Y398882D02*
X226252D01*
X226665Y399295D01*
X223000Y384437D02*
Y390000D01*
X243000Y422437D02*
Y426500D01*
X279750Y387250D02*
Y425750D01*
Y387250D02*
X280000Y387000D01*
X279500Y426000D02*
X279750Y425750D01*
X298250Y439750D02*
X298500Y440000D01*
X298250Y403750D02*
Y439750D01*
X187000Y383937D02*
Y388500D01*
X209000Y400488D02*
X209591D01*
X241500Y406437D02*
X252614D01*
X249656Y403478D02*
X252614Y406437D01*
X248000Y403000D02*
X248478Y403478D01*
X252614Y406437D02*
X253500D01*
X248478Y403478D02*
X249656D01*
X200093Y422063D02*
X203500D01*
X198621Y420879D02*
X198908D01*
X200093Y422063D01*
X243000Y407937D02*
Y413563D01*
X241500Y406437D02*
X243000Y407937D01*
X217829Y347250D02*
X222500Y342579D01*
X200427Y347250D02*
X217829D01*
X198500Y348500D02*
X199177D01*
X222500Y339831D02*
Y342579D01*
X199177Y348500D02*
X200427Y347250D01*
X202287Y383289D02*
X203544Y382032D01*
X203670D01*
X204083Y381618D01*
X232500Y398882D02*
X234500Y396882D01*
X177000Y375000D02*
X182300D01*
X265071Y87506D02*
X266668Y85909D01*
X176200Y375000D02*
X177000D01*
X197500Y97299D02*
X199299Y95500D01*
X197500Y97299D02*
Y116603D01*
X199299Y76610D02*
Y95500D01*
X165386Y172449D02*
X183614D01*
X124000Y170563D02*
X125386Y171949D01*
X71114Y171563D02*
X73614D01*
X170236Y99437D02*
X174500D01*
X164500Y97299D02*
X166299Y95500D01*
X128000Y99699D02*
X132199Y95500D01*
Y78010D02*
Y95500D01*
X175589Y375000D02*
X176200D01*
X175130Y374541D02*
X175742D01*
X174521D02*
X175130D01*
X235456Y401027D02*
X236891Y399593D01*
Y388350D02*
Y399593D01*
X232500Y401441D02*
X234917D01*
X235330Y401027D01*
X235456D01*
X246242Y400085D02*
X251978D01*
X244742Y401585D02*
X246242Y400085D01*
X240156Y401585D02*
X244742D01*
X232747Y406312D02*
X235428D01*
X232500Y406559D02*
X232747Y406312D01*
X235428D02*
X240156Y401585D01*
X251978Y400085D02*
X253500Y398563D01*
X232747Y403753D02*
X235424D01*
X240614Y398563D01*
X232500Y404000D02*
X232747Y403753D01*
X240614Y398563D02*
X241500D01*
X232886Y376563D02*
X234407Y378085D01*
X232000Y376563D02*
X232886D01*
X238092Y382063D02*
X241500D01*
X234407Y378378D02*
X238092Y382063D01*
X234407Y378085D02*
Y378378D01*
X292000Y350000D02*
Y397500D01*
X209000Y359063D02*
X217114D01*
X215593Y357541D02*
X217114Y359063D01*
X215593Y352592D02*
Y357541D01*
X217114Y359063D02*
X218000D01*
X214500Y351500D02*
X215593Y352592D01*
X248000Y403000D02*
X248614D01*
X253500Y406437D02*
X254000Y406937D01*
X193622Y353378D02*
X198500Y348500D01*
X193622Y353378D02*
Y377389D01*
X194878Y378645D01*
X195004D01*
X195418Y379059D01*
X197835D01*
X175130Y374541D02*
X175589Y375000D01*
X174000Y360677D02*
X175130Y361807D01*
X174000Y360000D02*
Y360677D01*
X175130Y361807D02*
Y374541D01*
X177000Y375000D02*
Y376063D01*
X208114Y359063D02*
X209000D01*
X198478Y368699D02*
X208114Y359063D01*
X198478Y368699D02*
Y370022D01*
X198000Y370500D02*
X198478Y370022D01*
X197835Y376500D02*
X198000Y376335D01*
Y370500D02*
Y376335D01*
X248000Y47500D02*
X250500Y45000D01*
X259000D02*
X265760Y51760D01*
X250500Y45000D02*
X259000D01*
X248000Y47500D02*
Y52760D01*
X278000Y333500D02*
Y379500D01*
X270500Y329500D02*
Y374500D01*
X167339Y376661D02*
X170000Y374000D01*
X158000Y375892D02*
X163892Y370000D01*
X169980D02*
X174521Y374541D01*
X163892Y370000D02*
X169980D01*
X162333Y379221D02*
X162443Y379110D01*
X169890D01*
X170000Y379000D01*
X162333Y381780D02*
X172375D01*
X174224Y379660D02*
X174237Y379647D01*
X172522Y381633D02*
X172535Y381620D01*
X174384Y379500D02*
X182500D01*
X174238Y379646D02*
X174384Y379500D01*
X172375Y381780D02*
X172521Y381633D01*
X172535Y381620D02*
X174224Y379660D01*
X162333Y376661D02*
X167339D01*
X175742Y374541D02*
X176200Y375000D01*
X184724Y382415D02*
X186245Y383937D01*
X182500Y379500D02*
X184724Y381724D01*
Y382415D01*
X186245Y383937D02*
X187000D01*
X156624Y378807D02*
X158000Y377431D01*
Y375892D02*
Y377431D01*
X156498Y378807D02*
X156624D01*
X156084Y379221D02*
X156498Y378807D01*
X153667Y379221D02*
X156084D01*
X183478Y375041D02*
X185000Y376563D01*
X182341Y375041D02*
X183478D01*
X182300Y375000D02*
X182341Y375041D01*
X572500Y355500D02*
X577500Y350500D01*
X572500Y355500D02*
Y375500D01*
X153500Y376494D02*
X153667Y376661D01*
X153500Y371000D02*
Y376494D01*
X144937Y331240D02*
X145197Y331500D01*
X151500D01*
X26000Y341700D02*
X45249D01*
X49260Y337689D01*
X136469Y339512D02*
X144740Y331240D01*
X119000Y339512D02*
X136469D01*
X144740Y331240D02*
X144937D01*
X222500Y339831D02*
X226669Y344000D01*
X49260Y337000D02*
Y337689D01*
X119500Y232000D02*
X129085Y241585D01*
Y266750D01*
X132299Y269965D02*
Y287311D01*
X129085Y266750D02*
X132299Y269965D01*
X130915Y243852D02*
X133937Y246874D01*
X130915Y241294D02*
Y243852D01*
X128563Y233745D02*
Y238942D01*
X133937Y246874D02*
Y249240D01*
X128563Y238942D02*
X130915Y241294D01*
X130000Y232000D02*
Y232308D01*
X128563Y233745D02*
X130000Y232308D01*
X235917Y144075D02*
X253925D01*
X256000Y142000D01*
X235917Y141516D02*
X247484D01*
X252500Y136500D01*
X254386Y96937D02*
X263817Y87506D01*
X266668Y85909D02*
X267577Y86817D01*
X265760Y85000D02*
X266668Y85909D01*
X263817Y87506D02*
X265071D01*
X253500Y96937D02*
X254386D01*
X295500Y95000D02*
X308299D01*
X274528D02*
X295500D01*
X249592Y102093D02*
X256500Y109000D01*
X244161Y133839D02*
X266000Y112000D01*
X236340Y135974D02*
X244147D01*
X235917Y133839D02*
X244161D01*
X257621Y122500D02*
X260000D01*
X244147Y135974D02*
X257621Y122500D01*
X211908Y88445D02*
Y102555D01*
X211333Y67219D02*
Y87870D01*
X211908Y88445D01*
X211333Y67219D02*
X219114Y59437D01*
X211333Y103130D02*
X211908Y102555D01*
X265760Y51760D02*
Y56500D01*
X244907Y55852D02*
Y58415D01*
X242500Y59937D02*
X243386D01*
X244907Y58415D01*
Y55852D02*
X248000Y52760D01*
X211333Y103130D02*
Y108556D01*
X209612Y118061D02*
X212659D01*
X208880Y117329D02*
X209612Y118061D01*
X208880Y111009D02*
Y117329D01*
X235917Y118484D02*
X247016D01*
X256500Y109000D01*
X235917Y136398D02*
X236340Y135974D01*
X244955Y138533D02*
X257989Y125500D01*
X265000D01*
X235917Y138957D02*
X236340Y138533D01*
X244955D01*
X623159Y103341D02*
Y160159D01*
Y103341D02*
X623500Y103000D01*
X623159Y160159D02*
X623500Y160500D01*
X328000Y94638D02*
Y95701D01*
X328201Y95500D02*
X340000D01*
X328000Y95701D02*
X328201Y95500D01*
X244386Y88563D02*
X245907Y90085D01*
Y92648D01*
X249592Y96333D01*
X243500Y88563D02*
X244386D01*
X249592Y96333D02*
Y102093D01*
X178740Y248240D02*
X178937D01*
X177415Y246915D02*
X178740Y248240D01*
X177415Y246719D02*
Y246915D01*
X175500Y244803D02*
X177415Y246719D01*
X175500Y232000D02*
Y244803D01*
X136000Y161937D02*
X144000D01*
X147608Y165392D02*
X149541Y163459D01*
X150478D01*
X152000Y161937D01*
X124358Y165392D02*
X147608D01*
X130583Y163094D02*
X135957D01*
X129786Y163892D02*
X130583Y163094D01*
X125990Y163533D02*
X126348Y163892D01*
X125908Y163533D02*
X125990D01*
X125469Y163094D02*
X125908Y163533D01*
X126348Y163892D02*
X129786D01*
X160114Y161937D02*
X161000D01*
X158592Y163459D02*
Y163781D01*
X123633Y167142D02*
X155232D01*
X158592Y163781D01*
Y163459D02*
X160114Y161937D01*
X121500Y165008D02*
X123633Y167142D01*
X121500Y163500D02*
Y165008D01*
X123500Y162583D02*
Y164533D01*
X137114Y162374D02*
X138000D01*
X123500Y164533D02*
X124358Y165392D01*
X125469Y162583D02*
Y163094D01*
X128579Y156047D02*
X130563Y154063D01*
X128067Y156047D02*
X128579D01*
X164500Y116260D02*
Y116760D01*
Y97299D02*
Y116260D01*
X267577Y86817D02*
Y88048D01*
X274528Y95000D01*
X308299D02*
X309000Y95701D01*
X333669Y80000D02*
X335175Y78494D01*
X341923D01*
X328783Y80000D02*
X333669D01*
X341923Y78494D02*
X345240Y81811D01*
Y82500D01*
X50500Y179051D02*
Y194488D01*
X50000Y178551D02*
X50500Y179051D01*
X59000Y137500D02*
Y147063D01*
X52000Y130500D02*
X59000Y137500D01*
X86585Y244388D02*
X89915Y247719D01*
X86585Y232085D02*
Y244388D01*
X86500Y232000D02*
X86585Y232085D01*
X91240Y249240D02*
X91437D01*
X89915Y247915D02*
X91240Y249240D01*
X89915Y247719D02*
Y247915D01*
X208880Y111009D02*
X211333Y108556D01*
X217063Y84437D02*
Y88760D01*
X117215Y161923D02*
X118904D01*
X107303Y158000D02*
X113291D01*
X118904Y161923D02*
X118933Y161953D01*
X113291Y158000D02*
X117215Y161923D01*
X105281Y155978D02*
X107303Y158000D01*
X101908Y148459D02*
Y148459D01*
X105281Y151833D02*
Y155978D01*
X101908Y148459D02*
X105281Y151833D01*
X100386Y146937D02*
X101908Y148459D01*
X99500Y146937D02*
X100386D01*
X110000D01*
X115000Y133500D02*
Y134177D01*
X116242Y135419D01*
Y135793D01*
X119260Y138811D01*
X113447Y129750D02*
X116852Y126345D01*
X113361Y129750D02*
X113447D01*
X110000Y133111D02*
X113361Y129750D01*
X110000Y133111D02*
Y139063D01*
X116852Y112648D02*
Y126345D01*
X110000Y139063D02*
X110886D01*
X144000Y161937D02*
X144063Y161874D01*
X217063Y84437D02*
X220000Y81500D01*
X212659Y118061D02*
X213083Y118484D01*
X219114Y59437D02*
X220000D01*
X136736Y99437D02*
X140500D01*
X128000Y116260D02*
Y116760D01*
Y99699D02*
Y116260D01*
X100736Y99437D02*
X107000D01*
X62000Y116260D02*
Y116760D01*
Y97201D02*
Y116260D01*
X220000Y59437D02*
X231000D01*
X220000Y74937D02*
Y81500D01*
X265760Y56500D02*
Y59909D01*
X262443Y63226D02*
X265760Y59909D01*
X262443Y63226D02*
Y80994D01*
X265760Y84311D01*
Y85000D01*
X183614Y172449D02*
X184500Y171563D01*
X70000Y171949D02*
X71500D01*
X117852Y119971D02*
Y129923D01*
Y119971D02*
X120937Y116886D01*
Y116000D02*
Y116886D01*
X126740Y138811D02*
Y139500D01*
X117852Y129923D02*
X126740Y138811D01*
X119260D02*
Y139500D01*
X597092Y402415D02*
X603592D01*
X593238Y398561D02*
X597092Y402415D01*
X593238Y354762D02*
Y398561D01*
X603592Y402415D02*
X607114Y405937D01*
X593238Y354762D02*
X597500Y350500D01*
X607114Y405937D02*
X608000D01*
X624000Y418799D02*
X627437Y422236D01*
Y429000D01*
X119260Y139500D02*
Y148000D01*
X118933Y148327D02*
Y156047D01*
Y148327D02*
X119260Y148000D01*
X126740Y139500D02*
Y148000D01*
X122591Y158016D02*
X123470Y157136D01*
Y155447D02*
X123500Y155417D01*
X118933Y158016D02*
X122591D01*
X123470Y155447D02*
Y157136D01*
X126740Y148000D02*
X128067Y149327D01*
Y156047D01*
X121531Y153466D02*
X124492Y150506D01*
X121531Y153466D02*
Y155417D01*
X124492Y150506D02*
X124923D01*
X126740Y148689D01*
Y148000D02*
Y148689D01*
X125469Y157368D02*
X126146Y158045D01*
X128037D01*
X125469Y155417D02*
Y157368D01*
X128037Y158045D02*
X128067Y158016D01*
X123500Y155417D02*
X125469D01*
X118933Y158016D02*
Y159984D01*
Y156047D02*
Y158016D01*
X245566Y462116D02*
X249896D01*
X252500Y459512D01*
X237038Y470644D02*
X245566Y462116D01*
X237038Y470644D02*
Y480862D01*
X231400Y486500D02*
X237038Y480862D01*
X617762Y166238D02*
Y243976D01*
Y166238D02*
X623500Y160500D01*
X189437Y116000D02*
X189500Y115937D01*
Y109000D02*
Y115937D01*
X156937Y116000D02*
X157000Y115937D01*
Y109000D02*
Y115937D01*
X120937Y116000D02*
X121000Y115937D01*
X52500Y109000D02*
Y115937D01*
X52437Y116000D02*
X52500Y115937D01*
X174000Y194488D02*
X175000Y193488D01*
Y178562D02*
Y193488D01*
X70000Y194488D02*
X71500Y192988D01*
Y178051D02*
X72500Y179051D01*
X71500Y178051D02*
Y192988D01*
X155000Y171949D02*
X163114D01*
X135500D02*
X143114D01*
X125386D02*
X135500D01*
X164000Y171063D02*
X165386Y172449D01*
X144886Y171949D02*
X155000D01*
X144000Y171063D02*
X144886Y171949D01*
X93000D02*
X101614D01*
X82386D02*
X93000D01*
X92000Y194488D02*
X93000Y193488D01*
Y178051D02*
Y193488D01*
X81000Y170563D02*
X82386Y171949D01*
X71500D02*
X79614D01*
X58240Y163000D02*
X60000Y164760D01*
Y171063D01*
X71114Y171563D02*
X71500Y171949D01*
X69114Y171063D02*
X69614Y171563D01*
X60000Y171063D02*
X69114D01*
X165236Y76797D02*
Y94437D01*
X96799Y76860D02*
Y95500D01*
X60299Y73610D02*
Y95500D01*
X114591Y205512D02*
X121039D01*
X114000D02*
X114591D01*
X123114Y203437D02*
X124000D01*
X121039Y205512D02*
X123114Y203437D01*
X250512Y446500D02*
X252500Y448488D01*
X241551Y446500D02*
X250512D01*
X217551Y446000D02*
Y455500D01*
X89278Y341025D02*
X117487D01*
X119000Y339512D01*
X85000Y336748D02*
X89278Y341025D01*
X85000Y336000D02*
Y336748D01*
X82500Y338500D02*
X85000Y336000D01*
X75250Y338500D02*
X82500D01*
X98750Y473750D02*
X100750D01*
X101000Y474000D01*
X71419Y446419D02*
X98750Y473750D01*
X71419Y368364D02*
Y446419D01*
X62195Y359140D02*
X71419Y368364D01*
X62195Y355592D02*
Y359140D01*
X59591Y352988D02*
X62195Y355592D01*
X59000Y352988D02*
X59591D01*
X44388Y318100D02*
X46988Y315500D01*
X26000Y318100D02*
X44388D01*
X46988Y300500D02*
Y315500D01*
X49260Y317772D02*
Y327000D01*
X46988Y315500D02*
X49260Y317772D01*
Y327000D02*
Y337000D01*
X111500Y400929D02*
X134551Y423980D01*
X149000D01*
X332199Y90439D02*
X337990D01*
X345240Y83189D01*
Y82500D02*
Y83189D01*
X328000Y94638D02*
X332199Y90439D01*
X332957Y82500D02*
X337760D01*
X330457Y85000D02*
X332957Y82500D01*
X265760Y66500D02*
Y67189D01*
X267577Y69006D01*
X269156D01*
X270655Y70506D01*
X273240Y66500D02*
X274740Y65000D01*
X273240Y56500D02*
X284043D01*
X270655Y70506D02*
X288711D01*
X273240Y75500D02*
X288717D01*
X274740Y65000D02*
X289216D01*
X284043Y56500D02*
X287543Y60000D01*
X289216D01*
X288711Y70506D02*
X289216Y70000D01*
X288717Y75500D02*
X289216Y75000D01*
X265760Y75500D02*
Y76189D01*
X269116Y79545D01*
Y87467D01*
X270655Y89006D01*
X273240Y84311D02*
Y85000D01*
Y84311D02*
X275057Y82494D01*
X270655Y89006D02*
X283537D01*
X275057Y82494D02*
X279588D01*
X282082Y80000D01*
X283537Y89006D02*
X287543Y85000D01*
X282082Y80000D02*
X289216D01*
X287543Y85000D02*
X289216D01*
X124000Y214000D02*
X141000Y231000D01*
X124000Y203437D02*
Y214000D01*
X114591Y205512D02*
X117195Y208116D01*
Y211916D01*
X124293Y219015D01*
Y226207D01*
X119500Y231000D02*
X124293Y226207D01*
X163114Y171949D02*
X164000Y171063D01*
X143114Y171949D02*
X144000Y171063D01*
X122614Y171949D02*
X124000Y170563D01*
X114000Y171949D02*
X122614D01*
X113114Y171063D02*
X114000Y171949D01*
X102500Y171063D02*
X113114D01*
X101614Y171949D02*
X102500Y171063D01*
X79614Y171949D02*
X81000Y170563D01*
X50000Y172449D02*
X58614D01*
X60000Y171063D01*
X154000Y178051D02*
Y194488D01*
X134500Y178051D02*
Y194488D01*
X114000Y178051D02*
Y194488D01*
X49155Y178551D02*
X49655Y179051D01*
X189000Y66311D02*
X199299Y76610D01*
Y95500D02*
X203236Y99437D01*
X206000D01*
X165236Y94437D02*
X166299Y95500D01*
X154750Y66311D02*
X165236Y76797D01*
X120500Y66311D02*
X132199Y78010D01*
X166299Y95500D02*
X170236Y99437D01*
X129699Y95500D02*
X130299D01*
X132799D02*
X136736Y99437D01*
X86250Y66311D02*
X96799Y76860D01*
Y95500D02*
X100736Y99437D01*
X52000Y65311D02*
X60299Y73610D01*
X62000Y97201D02*
X64236Y99437D01*
X60299Y95500D02*
X62000Y97201D01*
X64236Y99437D02*
X71500D01*
X565069Y463431D02*
X567226D01*
X568157Y462500D01*
X563955Y464545D02*
X565069Y463431D01*
X568157Y457500D02*
Y462500D01*
X571935Y485494D02*
X578844D01*
X569929Y487500D02*
X571935Y485494D01*
X583740Y488811D02*
Y489500D01*
X581923Y486994D02*
X583740Y488811D01*
X580344Y486994D02*
X581923D01*
X578844Y485494D02*
X580344Y486994D01*
X597488Y482000D02*
X609500D01*
X595000Y479512D02*
X597488Y482000D01*
X595579Y492000D02*
X609500D01*
X582000Y479012D02*
X582590D01*
X595579Y492000D01*
D18*
X218000Y192532D02*
Y196468D01*
X216032Y194500D02*
X219969D01*
X220532Y323000D02*
X224468D01*
X222500Y321031D02*
Y324969D01*
D19*
X245138Y296031D02*
Y349969D01*
X199862Y296031D02*
Y349969D01*
X245138D01*
X199862Y296031D02*
X245138D01*
D21*
X582000Y467988D02*
D03*
Y479012D02*
D03*
X226500Y455512D02*
D03*
Y444488D02*
D03*
X204500Y443988D02*
D03*
Y455012D02*
D03*
X209000Y411512D02*
D03*
Y400488D02*
D03*
X198000D02*
D03*
Y411512D02*
D03*
X172000Y396988D02*
D03*
Y408012D02*
D03*
X158500Y396988D02*
D03*
Y408012D02*
D03*
X143000Y396988D02*
D03*
Y408012D02*
D03*
X50000Y424512D02*
D03*
Y413488D02*
D03*
X174000Y205512D02*
D03*
Y194488D02*
D03*
X92000Y205512D02*
D03*
Y194488D02*
D03*
X70000Y205512D02*
D03*
Y194488D02*
D03*
X50500D02*
D03*
Y205512D02*
D03*
X134500D02*
D03*
Y194488D02*
D03*
X595000Y479512D02*
D03*
Y468488D02*
D03*
X154000Y205512D02*
D03*
Y194488D02*
D03*
X114000Y205512D02*
D03*
Y194488D02*
D03*
X59000Y364012D02*
D03*
Y352988D02*
D03*
D22*
X627437Y429000D02*
D03*
X619563D02*
D03*
X52437Y124000D02*
D03*
X44563D02*
D03*
X149063D02*
D03*
X156937D02*
D03*
X181563D02*
D03*
X189437D02*
D03*
X181563Y116000D02*
D03*
X189437D02*
D03*
X113000Y124000D02*
D03*
X120874D02*
D03*
X80563Y116000D02*
D03*
X88437D02*
D03*
X44563D02*
D03*
X52437D02*
D03*
X149063D02*
D03*
X156937D02*
D03*
X113063D02*
D03*
X120937D02*
D03*
X80563Y124000D02*
D03*
X88437D02*
D03*
D23*
X624000Y406201D02*
D03*
Y418799D02*
D03*
X73000Y157799D02*
D03*
Y145201D02*
D03*
X328000Y95701D02*
D03*
Y108299D02*
D03*
X309000Y95701D02*
D03*
Y108299D02*
D03*
D24*
X609740Y414000D02*
D03*
X602260D02*
D03*
X519240Y491500D02*
D03*
X511760D02*
D03*
X56740Y337000D02*
D03*
X49260D02*
D03*
X56740Y327000D02*
D03*
X49260D02*
D03*
X57740Y160500D02*
D03*
X50260D02*
D03*
X119260Y139500D02*
D03*
X126740D02*
D03*
X265760Y75500D02*
D03*
X273240D02*
D03*
X265760Y66500D02*
D03*
X273240D02*
D03*
X265760Y56500D02*
D03*
X273240D02*
D03*
X119260Y148000D02*
D03*
X126740D02*
D03*
X345240Y82500D02*
D03*
X337760D02*
D03*
X576260Y489500D02*
D03*
X583740D02*
D03*
X265760Y85000D02*
D03*
X273240D02*
D03*
D25*
X608000Y398063D02*
D03*
Y405937D02*
D03*
X599000Y398126D02*
D03*
Y406000D02*
D03*
X614083Y443961D02*
D03*
Y451835D02*
D03*
X603083Y443961D02*
D03*
Y451835D02*
D03*
X592083D02*
D03*
Y443961D02*
D03*
X581083D02*
D03*
Y451835D02*
D03*
X592083Y427961D02*
D03*
Y435835D02*
D03*
X581083Y427961D02*
D03*
Y435835D02*
D03*
X548000Y444437D02*
D03*
Y436563D02*
D03*
X537500Y443937D02*
D03*
Y436063D02*
D03*
X192500Y456000D02*
D03*
Y448126D02*
D03*
X184000Y448063D02*
D03*
Y455937D02*
D03*
X213000Y429374D02*
D03*
Y421500D02*
D03*
X222000Y421563D02*
D03*
Y429437D02*
D03*
X203500Y422063D02*
D03*
Y429937D02*
D03*
X192500Y421563D02*
D03*
Y429437D02*
D03*
X183500D02*
D03*
Y421563D02*
D03*
X253500Y398563D02*
D03*
Y406437D02*
D03*
X241500Y398563D02*
D03*
Y406437D02*
D03*
X253000Y415063D02*
D03*
Y422937D02*
D03*
X243000Y414563D02*
D03*
Y422437D02*
D03*
X232000Y376563D02*
D03*
Y384437D02*
D03*
X223000Y376563D02*
D03*
Y384437D02*
D03*
X187000Y376063D02*
D03*
Y383937D02*
D03*
X177000Y376063D02*
D03*
Y383937D02*
D03*
X184500Y203437D02*
D03*
Y195563D02*
D03*
Y179437D02*
D03*
Y171563D02*
D03*
X102500Y171063D02*
D03*
Y178937D02*
D03*
X59000Y152937D02*
D03*
Y145063D02*
D03*
X49500D02*
D03*
Y152937D02*
D03*
X85500Y151563D02*
D03*
Y159437D02*
D03*
X161000Y154063D02*
D03*
Y161937D02*
D03*
X152000Y154063D02*
D03*
Y161937D02*
D03*
X144000Y154063D02*
D03*
Y161937D02*
D03*
X136000D02*
D03*
Y154063D02*
D03*
X99500Y139063D02*
D03*
Y146937D02*
D03*
X110000D02*
D03*
Y139063D02*
D03*
X71500Y99437D02*
D03*
Y91563D02*
D03*
X107000D02*
D03*
Y99437D02*
D03*
X206000Y91563D02*
D03*
Y99437D02*
D03*
X253500Y89063D02*
D03*
Y96937D02*
D03*
X243500D02*
D03*
Y89063D02*
D03*
X233000Y96437D02*
D03*
Y88563D02*
D03*
X254000Y67063D02*
D03*
Y74937D02*
D03*
X242667Y67063D02*
D03*
Y74937D02*
D03*
X242500Y59937D02*
D03*
Y52063D02*
D03*
X231000Y51563D02*
D03*
Y59437D02*
D03*
X220000Y51563D02*
D03*
Y59437D02*
D03*
X242000Y381563D02*
D03*
Y389437D02*
D03*
X209000Y366937D02*
D03*
Y359063D02*
D03*
X218000Y366937D02*
D03*
Y359063D02*
D03*
X102500Y195563D02*
D03*
Y203437D02*
D03*
X81000Y170563D02*
D03*
Y178437D02*
D03*
Y195563D02*
D03*
Y203437D02*
D03*
X60000Y178937D02*
D03*
Y171063D02*
D03*
X60500Y203437D02*
D03*
Y195563D02*
D03*
X144000Y171063D02*
D03*
Y178937D02*
D03*
Y195563D02*
D03*
Y203437D02*
D03*
X220000Y67063D02*
D03*
Y74937D02*
D03*
X318500Y450437D02*
D03*
Y442563D02*
D03*
X337500Y442500D02*
D03*
Y450374D02*
D03*
X328000Y442563D02*
D03*
Y450437D02*
D03*
X234000Y422937D02*
D03*
Y415063D02*
D03*
X164000Y171063D02*
D03*
Y178937D02*
D03*
Y195563D02*
D03*
Y203437D02*
D03*
X124500Y170563D02*
D03*
Y178437D02*
D03*
X124000Y195563D02*
D03*
Y203437D02*
D03*
X48000Y364937D02*
D03*
Y357063D02*
D03*
X173500Y91063D02*
D03*
Y98937D02*
D03*
X140500Y91563D02*
D03*
Y99437D02*
D03*
X231333Y74937D02*
D03*
Y67063D02*
D03*
D26*
X564063Y442000D02*
D03*
X571937Y445740D02*
D03*
Y438260D02*
D03*
X144937Y323760D02*
D03*
Y331240D02*
D03*
X137063Y327500D02*
D03*
X171063Y244500D02*
D03*
X178937Y248240D02*
D03*
Y240760D02*
D03*
X126063Y245500D02*
D03*
X133937Y249240D02*
D03*
Y241760D02*
D03*
X91437D02*
D03*
Y249240D02*
D03*
X83563Y245500D02*
D03*
X493937Y449500D02*
D03*
X486063Y445760D02*
D03*
Y453240D02*
D03*
X224937Y92500D02*
D03*
X217063Y88760D02*
D03*
Y96240D02*
D03*
D27*
X568157Y457500D02*
D03*
Y462500D02*
D03*
Y467500D02*
D03*
Y472500D02*
D03*
Y477500D02*
D03*
Y482500D02*
D03*
Y487500D02*
D03*
Y492500D02*
D03*
X527843Y457500D02*
D03*
Y462500D02*
D03*
Y467500D02*
D03*
Y472500D02*
D03*
Y477500D02*
D03*
Y482500D02*
D03*
Y487500D02*
D03*
Y492500D02*
D03*
D28*
X482189Y435461D02*
D03*
Y422862D02*
D03*
Y414201D02*
D03*
Y405539D02*
D03*
X505811Y435461D02*
D03*
X505811Y422862D02*
D03*
Y414201D02*
D03*
Y405539D02*
D03*
X465811D02*
D03*
Y418138D02*
D03*
Y426799D02*
D03*
Y435461D02*
D03*
X442189Y405539D02*
D03*
X442189Y418138D02*
D03*
Y426799D02*
D03*
Y435461D02*
D03*
D29*
X449043Y447500D02*
D03*
X461957D02*
D03*
D30*
X426000Y418043D02*
D03*
Y430957D02*
D03*
X108500Y249957D02*
D03*
Y237043D02*
D03*
X67000Y250457D02*
D03*
Y237543D02*
D03*
X153000Y250457D02*
D03*
Y237543D02*
D03*
X146000Y299543D02*
D03*
Y312457D02*
D03*
D31*
X235449Y456000D02*
D03*
X241551D02*
D03*
X235449Y446500D02*
D03*
X241551D02*
D03*
X211449Y455500D02*
D03*
X217551D02*
D03*
X211449Y446000D02*
D03*
X217551D02*
D03*
D32*
X197835Y384177D02*
D03*
X223835Y406559D02*
D03*
X153667Y384339D02*
D03*
D33*
X197835Y381618D02*
D03*
Y379059D02*
D03*
Y376500D02*
D03*
X206500D02*
D03*
Y379059D02*
D03*
Y381618D02*
D03*
Y384177D02*
D03*
X232500Y406559D02*
D03*
Y404000D02*
D03*
Y401441D02*
D03*
Y398882D02*
D03*
X223835D02*
D03*
Y401441D02*
D03*
Y404000D02*
D03*
X162333Y384339D02*
D03*
Y381780D02*
D03*
Y379221D02*
D03*
Y376661D02*
D03*
X153667D02*
D03*
Y379221D02*
D03*
Y381780D02*
D03*
D34*
X119000Y339512D02*
D03*
Y313488D02*
D03*
D35*
X81000Y435000D02*
D03*
X35500Y483000D02*
D03*
X66500Y315500D02*
D03*
X213000Y435500D02*
D03*
X79000Y459000D02*
D03*
X213000Y198500D02*
D03*
X222000Y192000D02*
D03*
X565000Y432500D02*
D03*
X562000Y437500D02*
D03*
X583000Y447500D02*
D03*
X590000D02*
D03*
X270000Y394500D02*
D03*
X269500Y410000D02*
D03*
X228000Y361000D02*
D03*
X202500Y393500D02*
D03*
X194500D02*
D03*
X48000Y346500D02*
D03*
X135000Y306500D02*
D03*
X68500Y303500D02*
D03*
X50500Y292500D02*
D03*
X144000Y157665D02*
D03*
X42500Y141000D02*
D03*
X86500Y140500D02*
D03*
X70000Y133500D02*
D03*
X92000Y109000D02*
D03*
X104500Y132000D02*
D03*
X124000Y109000D02*
D03*
X246000Y102500D02*
D03*
X253500Y80000D02*
D03*
X243000Y79500D02*
D03*
X238000Y44000D02*
D03*
X323000Y85000D02*
D03*
X489000Y450000D02*
D03*
X575000Y449000D02*
D03*
X472500Y375500D02*
D03*
X489500Y401000D02*
D03*
X441500Y448500D02*
D03*
X481500Y479500D02*
D03*
X491000Y445000D02*
D03*
X502000Y486500D02*
D03*
X519240Y484740D02*
D03*
X586500Y458500D02*
D03*
X656500Y202000D02*
D03*
X663000D02*
D03*
X40000Y168000D02*
D03*
Y173000D02*
D03*
X66000Y179000D02*
D03*
X181500Y158500D02*
D03*
X45000Y163000D02*
D03*
X34500Y187500D02*
D03*
X651500Y387000D02*
D03*
X542500Y391000D02*
D03*
X573000D02*
D03*
X581500Y439500D02*
D03*
X581000Y424000D02*
D03*
X526000Y435000D02*
D03*
X573000Y434500D02*
D03*
X598000Y447500D02*
D03*
X592083Y439417D02*
D03*
X610000Y462000D02*
D03*
X538000Y431000D02*
D03*
X592500Y431563D02*
D03*
X539500Y452000D02*
D03*
X562000D02*
D03*
X576000Y455000D02*
D03*
X602500Y455500D02*
D03*
X614500Y435500D02*
D03*
X583000Y418500D02*
D03*
Y413000D02*
D03*
X535500Y397500D02*
D03*
X514000Y387000D02*
D03*
X623500Y392000D02*
D03*
X612000Y391500D02*
D03*
X513500Y403500D02*
D03*
X466000Y401000D02*
D03*
X400000Y407500D02*
D03*
X409000Y364000D02*
D03*
X520500Y410000D02*
D03*
X393500Y416000D02*
D03*
X575000Y418673D02*
D03*
X528000Y451500D02*
D03*
X548500Y487000D02*
D03*
X563084Y331500D02*
D03*
X413000Y330500D02*
D03*
X303000Y324750D02*
D03*
X423000Y325000D02*
D03*
X372500Y358500D02*
D03*
X382481Y425000D02*
D03*
X612500Y363000D02*
D03*
X582500Y356500D02*
D03*
X623500Y357500D02*
D03*
X479000Y445500D02*
D03*
X506000Y445000D02*
D03*
X426047Y398047D02*
D03*
X442095Y398095D02*
D03*
X380000Y412500D02*
D03*
X504500Y491500D02*
D03*
X560000Y465500D02*
D03*
X555000Y461500D02*
D03*
X342500Y415500D02*
D03*
X248500Y421500D02*
D03*
X337500Y457500D02*
D03*
X380000D02*
D03*
X586500Y406000D02*
D03*
X406500Y453500D02*
D03*
X400500Y431000D02*
D03*
X374500D02*
D03*
X318500Y468500D02*
D03*
X497000Y495500D02*
D03*
X530000Y407000D02*
D03*
X455500Y444500D02*
D03*
X411500D02*
D03*
X406500Y407000D02*
D03*
X235500Y465500D02*
D03*
X366500Y426500D02*
D03*
X222000D02*
D03*
X252500Y443500D02*
D03*
X161750Y434750D02*
D03*
X160000Y470000D02*
D03*
X164500Y464500D02*
D03*
X262500Y497000D02*
D03*
X182000Y434500D02*
D03*
X155500Y479500D02*
D03*
X247500Y409500D02*
D03*
X254500Y379000D02*
D03*
X241500Y394000D02*
D03*
X209000Y405500D02*
D03*
X212000Y373500D02*
D03*
Y379000D02*
D03*
X223000Y390000D02*
D03*
X243000Y426500D02*
D03*
X279500Y426000D02*
D03*
X306000Y429500D02*
D03*
X288000Y413000D02*
D03*
X306000Y400500D02*
D03*
X280000Y387000D02*
D03*
X215757Y402500D02*
D03*
X179500Y397000D02*
D03*
X187000Y388500D02*
D03*
X180500Y417000D02*
D03*
X198621Y420879D02*
D03*
X222500Y417500D02*
D03*
X208000Y393000D02*
D03*
X231500Y393500D02*
D03*
X253000Y374000D02*
D03*
X292000Y350000D02*
D03*
X214500D02*
D03*
X248000Y403000D02*
D03*
X298000Y403500D02*
D03*
X431500Y320500D02*
D03*
X190500Y321000D02*
D03*
X198500Y348500D02*
D03*
X174000Y360000D02*
D03*
X288000Y300000D02*
D03*
X216000Y413000D02*
D03*
X161500Y390500D02*
D03*
X189000Y439500D02*
D03*
X182500Y409000D02*
D03*
X179500Y339500D02*
D03*
X198000Y370500D02*
D03*
X270500Y329500D02*
D03*
X278000Y333500D02*
D03*
Y379500D02*
D03*
X270500Y374500D02*
D03*
X170000Y379000D02*
D03*
Y374000D02*
D03*
X572500Y375500D02*
D03*
X153500Y371000D02*
D03*
X164500Y314000D02*
D03*
X151500Y331500D02*
D03*
X332750Y297250D02*
D03*
X190500Y294500D02*
D03*
X141000D02*
D03*
X237500Y309500D02*
D03*
X109000Y310000D02*
D03*
X78500Y310500D02*
D03*
X212000Y300000D02*
D03*
X151000Y261000D02*
D03*
X184750Y208750D02*
D03*
X289500Y243000D02*
D03*
Y139000D02*
D03*
X199294Y198881D02*
D03*
X203000Y260500D02*
D03*
X207000Y141500D02*
D03*
X578500Y243500D02*
D03*
X140500Y241500D02*
D03*
X573000Y81500D02*
D03*
X185500Y240500D02*
D03*
X208000D02*
D03*
X210000Y191500D02*
D03*
X256000Y142000D02*
D03*
X266000Y95500D02*
D03*
X256500Y109000D02*
D03*
X266000Y112000D02*
D03*
X227500Y87500D02*
D03*
X214083Y81500D02*
D03*
X206000Y105500D02*
D03*
X216500D02*
D03*
X204000Y112000D02*
D03*
X372500Y106000D02*
D03*
X244500Y113000D02*
D03*
X543000Y103000D02*
D03*
X210000Y49500D02*
D03*
X413000Y49000D02*
D03*
X265000Y125500D02*
D03*
X260000Y122500D02*
D03*
X252500Y136500D02*
D03*
X623500Y103000D02*
D03*
X512500Y119000D02*
D03*
X468757Y151750D02*
D03*
X492000Y151500D02*
D03*
X340000Y95500D02*
D03*
X295500Y95000D02*
D03*
X442500Y99500D02*
D03*
X503000Y148500D02*
D03*
X187500Y185500D02*
D03*
X190500Y191500D02*
D03*
X196000Y195500D02*
D03*
X229000Y183000D02*
D03*
X231500Y176000D02*
D03*
X183000Y145500D02*
D03*
X92500Y255000D02*
D03*
X172500Y105000D02*
D03*
X347500Y193000D02*
D03*
X482500Y193500D02*
D03*
X421000Y200500D02*
D03*
X338000Y200000D02*
D03*
X52000Y130500D02*
D03*
X137500Y280000D02*
D03*
X86500Y232000D02*
D03*
X175500D02*
D03*
X130000D02*
D03*
X153500Y229500D02*
D03*
X108500D02*
D03*
X67000D02*
D03*
X220000Y81500D02*
D03*
X115000Y133500D02*
D03*
X422000Y74500D02*
D03*
X232500Y82000D02*
D03*
X165000Y148500D02*
D03*
X338000Y158000D02*
D03*
X249500Y61500D02*
D03*
X253500Y52000D02*
D03*
X624000Y397500D02*
D03*
X135000Y123500D02*
D03*
X347500Y163000D02*
D03*
X90500Y295500D02*
D03*
X481500Y58500D02*
D03*
X464750Y68250D02*
D03*
X189500Y109000D02*
D03*
X157000D02*
D03*
X52500D02*
D03*
X633500Y52000D02*
D03*
X643500Y46000D02*
D03*
X522000Y154500D02*
D03*
X169500Y179000D02*
D03*
X149500D02*
D03*
X130500Y178500D02*
D03*
X108000Y179000D02*
D03*
X87000D02*
D03*
X322500Y336500D02*
D03*
X283500Y353500D02*
D03*
X244500Y359000D02*
D03*
X233500Y428500D02*
D03*
X164000Y450500D02*
D03*
X221500D02*
D03*
X157000Y459500D02*
D03*
X106500Y347000D02*
D03*
X101000Y474000D02*
D03*
X590000Y494500D02*
D03*
D36*
X61500Y419500D02*
D03*
X77051D02*
D03*
D37*
X51941Y389500D02*
D03*
X82059D02*
D03*
D38*
X94750Y328500D02*
D03*
Y333500D02*
D03*
Y338500D02*
D03*
Y343500D02*
D03*
X75250D02*
D03*
Y338500D02*
D03*
Y333500D02*
D03*
Y328500D02*
D03*
D39*
X46988Y315500D02*
D03*
X58012D02*
D03*
X46988Y303500D02*
D03*
X58012D02*
D03*
X89512Y317000D02*
D03*
X78488D02*
D03*
D40*
X140961Y287311D02*
D03*
X132299D02*
D03*
X123638D02*
D03*
X111039Y287311D02*
D03*
X140961Y263689D02*
D03*
X132299D02*
D03*
X123638D02*
D03*
X111039D02*
D03*
X160539D02*
D03*
X173138D02*
D03*
X181799D02*
D03*
X190461D02*
D03*
X160539Y287311D02*
D03*
X173138Y287311D02*
D03*
X181799D02*
D03*
X190461D02*
D03*
X61039Y263689D02*
D03*
X73638D02*
D03*
X82299D02*
D03*
X90961D02*
D03*
X61039Y287311D02*
D03*
X73638Y287311D02*
D03*
X82299D02*
D03*
X90961D02*
D03*
X190461Y329311D02*
D03*
X181799D02*
D03*
X173138D02*
D03*
X160539Y329311D02*
D03*
X190461Y305689D02*
D03*
X181799D02*
D03*
X173138D02*
D03*
X160539D02*
D03*
D41*
X223500Y283000D02*
D03*
Y249142D02*
D03*
D42*
X218000Y214382D02*
D03*
Y174618D02*
D03*
D43*
X176000Y172949D02*
D03*
Y179051D02*
D03*
X155000Y171949D02*
D03*
Y178051D02*
D03*
X135500Y171949D02*
D03*
Y178051D02*
D03*
X114000Y171949D02*
D03*
Y178051D02*
D03*
X93000Y171949D02*
D03*
Y178051D02*
D03*
X71500Y171949D02*
D03*
Y178051D02*
D03*
X50000Y172449D02*
D03*
Y178551D02*
D03*
D44*
X118933Y156047D02*
D03*
Y158016D02*
D03*
Y159984D02*
D03*
Y161953D02*
D03*
X128067Y156047D02*
D03*
Y158016D02*
D03*
Y159984D02*
D03*
Y161953D02*
D03*
D45*
X125469Y155417D02*
D03*
X123500D02*
D03*
X121531D02*
D03*
X125469Y162583D02*
D03*
X123500D02*
D03*
X121531D02*
D03*
D46*
X62000Y123740D02*
D03*
Y116260D02*
D03*
X95500D02*
D03*
Y123740D02*
D03*
X128000Y116260D02*
D03*
Y123740D02*
D03*
X164500Y116260D02*
D03*
Y123740D02*
D03*
X196500Y116260D02*
D03*
Y123740D02*
D03*
D47*
X60299Y95500D02*
D03*
X47701D02*
D03*
X95299Y96000D02*
D03*
X82701D02*
D03*
X130299Y95500D02*
D03*
X117701D02*
D03*
X163799D02*
D03*
X151201D02*
D03*
X195799D02*
D03*
X183201D02*
D03*
D48*
X213083Y144075D02*
D03*
Y141516D02*
D03*
Y138957D02*
D03*
Y136398D02*
D03*
Y133839D02*
D03*
Y131280D02*
D03*
Y128720D02*
D03*
Y126161D02*
D03*
Y123602D02*
D03*
Y121043D02*
D03*
Y118484D02*
D03*
Y115925D02*
D03*
X235917Y144075D02*
D03*
Y141516D02*
D03*
Y138957D02*
D03*
Y136398D02*
D03*
Y133839D02*
D03*
Y131280D02*
D03*
Y128720D02*
D03*
Y126161D02*
D03*
Y123602D02*
D03*
Y121043D02*
D03*
Y118484D02*
D03*
Y115925D02*
D03*
X544583Y428575D02*
D03*
Y426016D02*
D03*
Y423457D02*
D03*
Y420898D02*
D03*
Y418339D02*
D03*
Y415779D02*
D03*
Y413221D02*
D03*
Y410661D02*
D03*
Y408102D02*
D03*
Y405543D02*
D03*
Y402984D02*
D03*
Y400425D02*
D03*
X567417Y428575D02*
D03*
Y426016D02*
D03*
Y423457D02*
D03*
Y420898D02*
D03*
Y418339D02*
D03*
Y415779D02*
D03*
Y413221D02*
D03*
Y410661D02*
D03*
Y408102D02*
D03*
Y405543D02*
D03*
Y402984D02*
D03*
Y400425D02*
D03*
D49*
X328783Y50000D02*
D03*
Y55000D02*
D03*
Y60000D02*
D03*
Y65000D02*
D03*
Y70000D02*
D03*
Y75000D02*
D03*
Y80000D02*
D03*
Y85000D02*
D03*
X289216Y50000D02*
D03*
Y55000D02*
D03*
Y60000D02*
D03*
Y65000D02*
D03*
Y70000D02*
D03*
Y75000D02*
D03*
Y80000D02*
D03*
Y85000D02*
D03*
D50*
X366500Y413071D02*
D03*
Y446929D02*
D03*
X111500Y367071D02*
D03*
Y400929D02*
D03*
D51*
X252500Y459512D02*
D03*
Y448488D02*
D03*
D52*
X411512Y420000D02*
D03*
X400488D02*
D03*
D53*
X222500Y339831D02*
D03*
Y306169D02*
D03*
D69*
X85000Y336000D02*
D03*
D85*
X646528Y433783D02*
D03*
Y469216D02*
D03*
X647488Y108311D02*
D03*
Y72878D02*
D03*
X29512Y147689D02*
D03*
Y171311D02*
D03*
X29012Y89378D02*
D03*
Y136622D02*
D03*
X29512Y179189D02*
D03*
Y202811D02*
D03*
Y210689D02*
D03*
Y234311D02*
D03*
Y242189D02*
D03*
Y265811D02*
D03*
X29232Y375878D02*
D03*
Y399500D02*
D03*
X646500Y425000D02*
D03*
Y401378D02*
D03*
X166561Y70012D02*
D03*
X142939D02*
D03*
X98061D02*
D03*
X74439D02*
D03*
X200811D02*
D03*
X177189D02*
D03*
X40189Y69012D02*
D03*
X63811D02*
D03*
X132311Y70012D02*
D03*
X108689D02*
D03*
X29512Y273689D02*
D03*
Y297311D02*
D03*
D86*
X650228Y445595D02*
D03*
Y457406D02*
D03*
X662039Y445595D02*
D03*
X663000Y84689D02*
D03*
X651189Y96500D02*
D03*
Y84689D02*
D03*
X25811Y159500D02*
D03*
Y191000D02*
D03*
Y222500D02*
D03*
Y254000D02*
D03*
X25532Y387689D02*
D03*
X650201Y413189D02*
D03*
X154750Y66311D02*
D03*
X86250D02*
D03*
X189000D02*
D03*
X52000Y65311D02*
D03*
X120500Y66311D02*
D03*
X25811Y285500D02*
D03*
D87*
X662039Y457406D02*
D03*
X663000Y96500D02*
D03*
X14000Y159500D02*
D03*
Y191000D02*
D03*
Y222500D02*
D03*
Y254000D02*
D03*
X13721Y387689D02*
D03*
X662012Y413189D02*
D03*
X14000Y285500D02*
D03*
D88*
X656134Y465870D02*
D03*
Y437130D02*
D03*
X657094Y76224D02*
D03*
Y104965D02*
D03*
X19906Y151035D02*
D03*
Y167965D02*
D03*
Y182535D02*
D03*
Y199465D02*
D03*
Y214035D02*
D03*
Y230965D02*
D03*
Y245535D02*
D03*
Y262465D02*
D03*
X19626Y379224D02*
D03*
Y396153D02*
D03*
X656106Y421654D02*
D03*
Y404724D02*
D03*
X163215Y60405D02*
D03*
X146285D02*
D03*
X94715D02*
D03*
X77785D02*
D03*
X197465D02*
D03*
X180535D02*
D03*
X43535Y59405D02*
D03*
X60465D02*
D03*
X128965Y60405D02*
D03*
X112035D02*
D03*
X19906Y277035D02*
D03*
Y293965D02*
D03*
D102*
X154750Y54500D02*
D03*
X86250D02*
D03*
X189000D02*
D03*
X52000Y53500D02*
D03*
X120500Y54500D02*
D03*
D103*
X594889Y463354D02*
X601875D01*
X593986Y470092D02*
X598225Y465854D01*
X588670Y470092D02*
X593986D01*
X594889Y463354D02*
X594889Y463354D01*
X601875D02*
X617293Y478772D01*
X600840Y465854D02*
X614793Y479807D01*
X598225Y465854D02*
X600840D01*
X617293Y478772D02*
Y483486D01*
X591360Y463354D02*
X594889D01*
X588330Y466384D02*
X591360Y463354D01*
X614793Y479807D02*
Y484522D01*
X583604Y466384D02*
X588330D01*
X578610Y470092D02*
X579896D01*
X583604Y466384D01*
X574952Y473750D02*
X578610Y470092D01*
X624000Y491450D02*
Y492000D01*
X620800Y488250D02*
X624000Y491450D01*
X618521Y488250D02*
X620800D01*
X614793Y484522D02*
X618521Y488250D01*
X619557Y485750D02*
X620800D01*
X624000Y482550D01*
Y482000D02*
Y482550D01*
X617293Y483486D02*
X619557Y485750D01*
X571179Y473750D02*
X574952D01*
X569929Y472500D02*
X571179Y473750D01*
X568157Y472500D02*
X569929D01*
X571179Y476250D02*
X575988D01*
X577830Y474407D01*
X584355D01*
X569929Y477500D02*
X571179Y476250D01*
X568157Y477500D02*
X569929D01*
X584355Y474407D02*
X588670Y470092D01*
X35500Y116483D02*
Y159836D01*
X38000Y115447D02*
Y160871D01*
X27275Y108258D02*
X35500Y116483D01*
X25004Y108258D02*
X27275D01*
X14137Y101826D02*
X18571D01*
X25004Y108258D01*
X13500Y101189D02*
X14137Y101826D01*
X666852Y369771D02*
Y420091D01*
X656918Y430026D02*
X666852Y420091D01*
X658500Y204000D02*
Y274857D01*
X651951Y354870D02*
X666852Y369771D01*
X651951Y281406D02*
X658500Y274857D01*
X656500Y202000D02*
X658500Y204000D01*
X642770Y449947D02*
X650228Y457406D01*
X651951Y281406D02*
Y354870D01*
X642770Y432227D02*
X644971Y430026D01*
X642770Y432227D02*
Y449947D01*
X644971Y430026D02*
X656918D01*
X28311Y105758D02*
X38000Y115447D01*
X26913Y105758D02*
X28311D01*
X26034Y104879D02*
X26913Y105758D01*
X26034Y101912D02*
Y104879D01*
X25311Y101189D02*
X26034Y101912D01*
X655069Y450435D02*
X664044D01*
X666880Y438692D02*
Y447600D01*
X664044Y450435D02*
X666880Y447600D01*
X669352Y368736D02*
Y421127D01*
X659955Y430524D02*
X669352Y421127D01*
X659955Y431767D02*
X666880Y438692D01*
X654451Y353834D02*
X669352Y368736D01*
X661000Y204000D02*
X663000Y202000D01*
X661000Y204000D02*
Y275892D01*
X650228Y445595D02*
X655069Y450435D01*
X654451Y282442D02*
X661000Y275892D01*
X659955Y430524D02*
Y431767D01*
X654451Y282442D02*
Y353834D01*
X36750Y169250D02*
X38371D01*
X35871Y163000D02*
Y168371D01*
X36750Y169250D01*
X35871Y163000D02*
X38000Y160871D01*
X38371Y169250D02*
X39621Y168000D01*
X33371Y161964D02*
X35500Y159836D01*
X39621Y168000D02*
X40000D01*
X33371Y169407D02*
X35715Y171750D01*
X33371Y161964D02*
Y169407D01*
X38371Y171750D02*
X39621Y173000D01*
X40000D01*
X35715Y171750D02*
X38371D01*
D104*
X662500Y487500D02*
D03*
X12500D02*
D03*
X13000Y53000D02*
D03*
X661500D02*
D03*
D105*
X605500Y424000D02*
D03*
Y434000D02*
D03*
X308500Y440000D02*
D03*
X298500D02*
D03*
X308500Y460000D02*
D03*
X298500D02*
D03*
X278500Y440000D02*
D03*
X268500D02*
D03*
X278000Y460000D02*
D03*
X268000D02*
D03*
X344000Y68000D02*
D03*
Y58000D02*
D03*
X96500Y232000D02*
D03*
Y222000D02*
D03*
X609500Y492000D02*
D03*
Y482000D02*
D03*
X119500Y222000D02*
D03*
Y232000D02*
D03*
X81500Y490000D02*
D03*
Y480000D02*
D03*
X184500Y232000D02*
D03*
Y222000D02*
D03*
X166000Y232000D02*
D03*
Y222000D02*
D03*
X77667Y232000D02*
D03*
Y222000D02*
D03*
X56000Y232000D02*
D03*
Y222000D02*
D03*
X141000Y232000D02*
D03*
Y222000D02*
D03*
X624000Y482000D02*
D03*
Y492000D02*
D03*
X626000Y449500D02*
D03*
Y439500D02*
D03*
D106*
X647500Y380500D02*
D03*
X647421Y140500D02*
D03*
X607500Y350500D02*
D03*
X517500D02*
D03*
X643500Y170500D02*
D03*
X537500D02*
D03*
D107*
X647500Y370500D02*
D03*
X637500Y380500D02*
D03*
Y370500D02*
D03*
X627500Y380500D02*
D03*
Y370500D02*
D03*
X617500Y380500D02*
D03*
Y370500D02*
D03*
X607500Y380500D02*
D03*
Y370500D02*
D03*
X597500Y380500D02*
D03*
Y370500D02*
D03*
X587500Y380500D02*
D03*
Y370500D02*
D03*
X577500Y380500D02*
D03*
Y370500D02*
D03*
X567500Y380500D02*
D03*
Y370500D02*
D03*
X557500Y380500D02*
D03*
Y370500D02*
D03*
X547500Y380500D02*
D03*
Y370500D02*
D03*
X537500Y380500D02*
D03*
Y370500D02*
D03*
X527500Y380500D02*
D03*
Y370500D02*
D03*
X517500Y380500D02*
D03*
Y370500D02*
D03*
X507500Y380500D02*
D03*
Y370500D02*
D03*
X497500Y380500D02*
D03*
Y370500D02*
D03*
X487500Y380500D02*
D03*
Y370500D02*
D03*
X477500Y380500D02*
D03*
Y370500D02*
D03*
X467500Y380500D02*
D03*
Y370500D02*
D03*
X457500Y380500D02*
D03*
Y370500D02*
D03*
X447500Y380500D02*
D03*
Y370500D02*
D03*
X437500Y380500D02*
D03*
Y370500D02*
D03*
X427500Y380500D02*
D03*
Y370500D02*
D03*
X417500Y380500D02*
D03*
Y370500D02*
D03*
X407500Y380500D02*
D03*
Y370500D02*
D03*
X397500Y380500D02*
D03*
Y370500D02*
D03*
X387500Y380500D02*
D03*
Y370500D02*
D03*
X377500Y380500D02*
D03*
Y370500D02*
D03*
X367500Y380500D02*
D03*
Y370500D02*
D03*
X357500Y380500D02*
D03*
Y370500D02*
D03*
X347500Y380500D02*
D03*
Y370500D02*
D03*
X337500Y380500D02*
D03*
Y370500D02*
D03*
X327500Y380500D02*
D03*
Y370500D02*
D03*
X317500Y380500D02*
D03*
Y370500D02*
D03*
X307500Y380500D02*
D03*
Y370500D02*
D03*
X647421Y130500D02*
D03*
X607500Y340500D02*
D03*
X597500Y350500D02*
D03*
Y340500D02*
D03*
X587500Y350500D02*
D03*
Y340500D02*
D03*
X577500Y350500D02*
D03*
Y340500D02*
D03*
X567500Y350500D02*
D03*
Y340500D02*
D03*
X557500Y350500D02*
D03*
Y340500D02*
D03*
X547500Y350500D02*
D03*
Y340500D02*
D03*
X537500Y350500D02*
D03*
Y340500D02*
D03*
X517500D02*
D03*
X507500Y350500D02*
D03*
Y340500D02*
D03*
X497500Y350500D02*
D03*
Y340500D02*
D03*
X487500Y350500D02*
D03*
Y340500D02*
D03*
X477500Y350500D02*
D03*
Y340500D02*
D03*
X467500Y350500D02*
D03*
Y340500D02*
D03*
X457500Y350500D02*
D03*
Y340500D02*
D03*
X447500Y350500D02*
D03*
Y340500D02*
D03*
X437500Y350500D02*
D03*
Y340500D02*
D03*
X427500Y350500D02*
D03*
Y340500D02*
D03*
X417500Y350500D02*
D03*
Y340500D02*
D03*
X407500Y350500D02*
D03*
Y340500D02*
D03*
X397500Y350500D02*
D03*
Y340500D02*
D03*
X387500Y350500D02*
D03*
Y340500D02*
D03*
X643500Y160500D02*
D03*
X537500D02*
D03*
X527500Y170500D02*
D03*
Y160500D02*
D03*
X517500Y170500D02*
D03*
Y160500D02*
D03*
X507500Y170500D02*
D03*
Y160500D02*
D03*
X497500Y170500D02*
D03*
Y160500D02*
D03*
X487500Y170500D02*
D03*
Y160500D02*
D03*
X477500Y170500D02*
D03*
Y160500D02*
D03*
X467500Y170500D02*
D03*
Y160500D02*
D03*
X457500Y170500D02*
D03*
Y160500D02*
D03*
X447500Y170500D02*
D03*
Y160500D02*
D03*
X437500Y170500D02*
D03*
Y160500D02*
D03*
X427500Y170500D02*
D03*
Y160500D02*
D03*
X417500Y170500D02*
D03*
Y160500D02*
D03*
X407500Y170500D02*
D03*
Y160500D02*
D03*
X397500Y170500D02*
D03*
Y160500D02*
D03*
X387500Y170500D02*
D03*
Y160500D02*
D03*
X297500Y380500D02*
D03*
Y370500D02*
D03*
X633500Y170500D02*
D03*
Y160500D02*
D03*
X623500Y170500D02*
D03*
Y160500D02*
D03*
X613500Y170500D02*
D03*
Y160500D02*
D03*
X603500Y170500D02*
D03*
Y160500D02*
D03*
X593500Y170500D02*
D03*
Y160500D02*
D03*
X583500Y170500D02*
D03*
Y160500D02*
D03*
X573500Y170500D02*
D03*
Y160500D02*
D03*
X563500Y170500D02*
D03*
Y160500D02*
D03*
X553500Y170500D02*
D03*
Y160500D02*
D03*
X377500Y350500D02*
D03*
Y340500D02*
D03*
Y170500D02*
D03*
Y160500D02*
D03*
X637421Y140500D02*
D03*
Y130500D02*
D03*
X627421Y140500D02*
D03*
Y130500D02*
D03*
X617421Y140500D02*
D03*
Y130500D02*
D03*
X607421Y140500D02*
D03*
Y130500D02*
D03*
X597421Y140500D02*
D03*
Y130500D02*
D03*
X587421Y140500D02*
D03*
Y130500D02*
D03*
X577421Y140500D02*
D03*
Y130500D02*
D03*
X567421Y140500D02*
D03*
Y130500D02*
D03*
X557421Y140500D02*
D03*
Y130500D02*
D03*
X547421Y140500D02*
D03*
Y130500D02*
D03*
X537421Y140500D02*
D03*
Y130500D02*
D03*
X527421Y140500D02*
D03*
Y130500D02*
D03*
X517421Y140500D02*
D03*
Y130500D02*
D03*
X507421Y140500D02*
D03*
Y130500D02*
D03*
X497421Y140500D02*
D03*
Y130500D02*
D03*
X487421Y140500D02*
D03*
Y130500D02*
D03*
X477421Y140500D02*
D03*
Y130500D02*
D03*
X467421Y140500D02*
D03*
Y130500D02*
D03*
X457421Y140500D02*
D03*
Y130500D02*
D03*
X447421Y140500D02*
D03*
Y130500D02*
D03*
X437421Y140500D02*
D03*
Y130500D02*
D03*
X427421Y140500D02*
D03*
Y130500D02*
D03*
X417421Y140500D02*
D03*
Y130500D02*
D03*
X407421Y140500D02*
D03*
Y130500D02*
D03*
X397421Y140500D02*
D03*
Y130500D02*
D03*
X387421Y140500D02*
D03*
Y130500D02*
D03*
X377421Y140500D02*
D03*
Y130500D02*
D03*
X367421Y140500D02*
D03*
Y130500D02*
D03*
X357421Y140500D02*
D03*
Y130500D02*
D03*
X347421Y140500D02*
D03*
Y130500D02*
D03*
X337421Y140500D02*
D03*
Y130500D02*
D03*
X327421Y140500D02*
D03*
Y130500D02*
D03*
X317421Y140500D02*
D03*
Y130500D02*
D03*
X307421Y140500D02*
D03*
Y130500D02*
D03*
X297421Y140500D02*
D03*
Y130500D02*
D03*
D108*
X362500Y345500D02*
D03*
Y165500D02*
D03*
X657500Y160500D02*
D03*
X457500Y220500D02*
D03*
X662500Y350500D02*
D03*
D109*
X149000Y361000D02*
D03*
X188000D02*
D03*
Y347500D02*
D03*
X149000D02*
D03*
X65000Y444000D02*
D03*
Y483000D02*
D03*
X51500D02*
D03*
Y444000D02*
D03*
D110*
X13500Y101189D02*
D03*
Y113000D02*
D03*
Y124811D02*
D03*
X25311Y101189D02*
D03*
Y113000D02*
D03*
Y124811D02*
D03*
D111*
X19406Y92724D02*
D03*
Y133276D02*
D03*
D112*
X474400Y474000D02*
D03*
X462600D02*
D03*
Y485800D02*
D03*
X474400D02*
D03*
X356300Y474000D02*
D03*
X344500D02*
D03*
Y485800D02*
D03*
X356300D02*
D03*
X450800D02*
D03*
X368100D02*
D03*
Y474000D02*
D03*
X379900D02*
D03*
X379700Y485800D02*
D03*
X438900D02*
D03*
X403500D02*
D03*
X415300D02*
D03*
X391700D02*
D03*
X427100D02*
D03*
Y474000D02*
D03*
X391700D02*
D03*
X415300D02*
D03*
X403500D02*
D03*
X438900D02*
D03*
X450800D02*
D03*
X486200Y470300D02*
D03*
X332700D02*
D03*
X30000Y408900D02*
D03*
Y467900D02*
D03*
X14500Y455900D02*
D03*
X26300Y456100D02*
D03*
Y444300D02*
D03*
X14500D02*
D03*
Y432500D02*
D03*
Y420700D02*
D03*
X26300D02*
D03*
Y432500D02*
D03*
X29700Y306300D02*
D03*
Y365300D02*
D03*
X14200Y353300D02*
D03*
X26000Y353500D02*
D03*
Y341700D02*
D03*
X14200D02*
D03*
Y329900D02*
D03*
Y318100D02*
D03*
X26000D02*
D03*
Y329900D02*
D03*
X208000Y474700D02*
D03*
X196200D02*
D03*
Y486500D02*
D03*
X208000D02*
D03*
X219800D02*
D03*
Y474700D02*
D03*
X231600D02*
D03*
X231400Y486500D02*
D03*
X243400Y471000D02*
D03*
X184400D02*
D03*
D113*
X119500Y436500D02*
D03*
X149000Y423980D02*
D03*
X119500D02*
D03*
X149000Y436500D02*
D03*
D114*
X100799Y488193D02*
D03*
X167701D02*
D03*
D115*
X258150Y478138D02*
D03*
X268150D02*
D03*
X278150D02*
D03*
X308150D02*
D03*
X318150D02*
D03*
M02*
