G04*
G04 #@! TF.GenerationSoftware,Altium Limited,Altium Designer,20.1.14 (287)*
G04*
G04 Layer_Physical_Order=4*
G04 Layer_Color=16711680*
%FSLAX25Y25*%
%MOIN*%
G70*
G04*
G04 #@! TF.SameCoordinates,5FE179B0-A676-43EF-AE88-1D2B089A4B82*
G04*
G04*
G04 #@! TF.FilePolarity,Positive*
G04*
G01*
G75*
%ADD12C,0.01000*%
%ADD15C,0.00197*%
%ADD16C,0.00394*%
%ADD124C,0.01500*%
%ADD125C,0.07087*%
%ADD126C,0.07000*%
%ADD127C,0.05906*%
%ADD128R,0.05906X0.05906*%
%ADD129C,0.10158*%
%ADD130C,0.15000*%
%ADD131C,0.14800*%
%ADD132C,0.16929*%
%ADD133C,0.06000*%
%ADD134C,0.08000*%
%ADD135C,0.03500*%
D12*
X316500Y252500D02*
X323000Y259000D01*
Y278500D02*
X326500Y282000D01*
X323000Y259000D02*
Y278500D01*
X490297Y271000D02*
X493000Y273703D01*
Y279000D02*
X500500Y286500D01*
X493000Y273703D02*
Y279000D01*
X500500Y286500D02*
X512000D01*
X483453Y264156D02*
Y268953D01*
X485500Y271000D02*
X490297D01*
X483453Y268953D02*
X485500Y271000D01*
X476924Y271424D02*
X482751D01*
X483500Y272173D01*
X473453Y267953D02*
X476924Y271424D01*
X483500Y272173D02*
Y287797D01*
X473453Y264156D02*
Y267953D01*
X473000Y271086D02*
Y284500D01*
X465500Y292000D02*
X473000Y284500D01*
X472414Y270500D02*
X473000Y271086D01*
X465500Y270500D02*
X472414D01*
X452500Y261500D02*
Y267000D01*
X456500Y271000D01*
X402500Y92500D02*
X409000Y86000D01*
X456500Y271000D02*
X460297D01*
X451000Y260000D02*
X452500Y261500D01*
X420000Y270500D02*
X423000Y273500D01*
Y278297D01*
X414500Y270500D02*
X420000D01*
X445250Y271000D02*
X450297D01*
X443000Y268750D02*
X445250Y271000D01*
X443000Y261500D02*
Y268750D01*
X413500Y232000D02*
X443000Y261500D01*
X423000Y269000D02*
X424726Y270726D01*
X430023D01*
X423000Y262000D02*
Y269000D01*
X418000Y257000D02*
X423000Y262000D01*
X421000Y280139D02*
X421369Y279771D01*
X421000Y280139D02*
Y326000D01*
X421448Y279850D02*
X423000Y278297D01*
X421369Y279771D02*
X421369Y279771D01*
X430023Y270726D02*
X433453Y274156D01*
X413000Y269000D02*
X414500Y270500D01*
X402000Y236000D02*
X413000Y247000D01*
Y269000D01*
X383000Y279000D02*
X387000Y283000D01*
X383000Y273000D02*
Y279000D01*
X380687Y270688D02*
X383000Y273000D01*
X409750Y270453D02*
X413000Y273703D01*
Y284766D02*
X419000Y295686D01*
X413000Y273703D02*
Y284766D01*
X429000Y76000D02*
Y80962D01*
Y86000D02*
Y106500D01*
X419000Y76000D02*
Y80500D01*
X506500Y476500D02*
X512500Y470500D01*
X532541D01*
X538041Y465000D01*
X440000Y441000D02*
X450768D01*
X441000Y431000D02*
X450768D01*
X193498Y7580D02*
X195180Y9262D01*
X194596Y4000D02*
X202696Y12100D01*
X188904Y6500D02*
X191404Y4000D01*
X194596D01*
X193000Y7250D02*
X193330Y7580D01*
X193498D01*
X313664Y362500D02*
X314000D01*
X312164Y364000D02*
X313664Y362500D01*
X186218Y364000D02*
X312164D01*
X183718Y366500D02*
X186218Y364000D01*
X363672Y368500D02*
X405172Y410000D01*
X295500Y368500D02*
X363672D01*
X295500Y324500D02*
X299500Y328500D01*
X332414D01*
X333000Y329086D02*
Y345000D01*
X332414Y328500D02*
X333000Y329086D01*
X49500Y6500D02*
X188904D01*
X37750Y18250D02*
X49500Y6500D01*
X506952Y470952D02*
X509404Y468500D01*
X531500D02*
X537000Y463000D01*
X509404Y468500D02*
X531500D01*
X480000Y475343D02*
Y480000D01*
X478000Y482000D02*
X480000Y480000D01*
X475000Y482000D02*
X478000D01*
X472343Y479343D02*
X475000Y482000D01*
X472343Y473500D02*
Y479343D01*
X476000Y473437D02*
Y478000D01*
X474000Y471437D02*
X476000Y473437D01*
X469000Y470157D02*
X472343Y473500D01*
X469000Y421000D02*
Y470157D01*
X307586Y457500D02*
X332000D01*
X336800Y452700D01*
Y452200D02*
Y452700D01*
X307000Y447500D02*
Y456914D01*
X307586Y457500D01*
X305500Y446000D02*
X307000Y447500D01*
X285500Y446000D02*
X305500D01*
X275500Y436000D02*
X285500Y446000D01*
X275500Y382500D02*
Y436000D01*
X271000Y378000D02*
X275500Y382500D01*
X405172Y410000D02*
X458000D01*
X469000Y421000D01*
X191500Y336500D02*
X205000D01*
X211000Y330500D01*
X374978Y201686D02*
Y203022D01*
X374500Y203500D02*
X374978Y203022D01*
Y201686D02*
X375000Y201664D01*
Y95000D02*
Y201664D01*
X389000Y95000D02*
Y205000D01*
Y95000D02*
X390000Y94000D01*
X292500Y335642D02*
X312740Y355882D01*
X295500Y307000D02*
Y324500D01*
X334630Y347370D02*
X335000Y347000D01*
X292500Y309000D02*
Y335642D01*
X260000Y276500D02*
X292500Y309000D01*
X260000Y270500D02*
Y276500D01*
X333000Y345000D02*
X335000Y347000D01*
X267000Y270500D02*
Y278500D01*
X295500Y307000D01*
X339522Y339186D02*
Y340522D01*
X339500Y322000D02*
Y339164D01*
X339522Y340522D02*
X340000Y341000D01*
X339500Y339164D02*
X339522Y339186D01*
X302000Y304500D02*
X322000D01*
X339500Y322000D01*
X274000Y270500D02*
Y276500D01*
X302000Y304500D01*
X279500Y279000D02*
X302500Y302000D01*
X322657D02*
X361720Y341063D01*
X302500Y302000D02*
X322657D01*
X279500Y267000D02*
Y279000D01*
X278164Y265664D02*
X279500Y267000D01*
X206664Y265664D02*
X278164D01*
X201500Y270828D02*
X206664Y265664D01*
X201500Y270828D02*
Y271000D01*
X197000Y275500D02*
X201500Y271000D01*
X168086Y275500D02*
X197000D01*
X167500Y276086D02*
Y336500D01*
Y276086D02*
X168086Y275500D01*
X196000Y273500D02*
X206000Y263500D01*
X158500Y273500D02*
X196000D01*
X195672Y271000D02*
X205172Y261500D01*
X157500Y271000D02*
X195672D01*
X91500Y268500D02*
X195000D01*
X205172Y261500D02*
X292414D01*
X195000Y268500D02*
X204000Y259500D01*
X155000Y349000D02*
X167500Y336500D01*
X154000Y347000D02*
X155957Y345043D01*
Y282911D02*
X157000Y281868D01*
X155957Y282911D02*
Y345043D01*
X73000Y347000D02*
X154000D01*
X303000Y299000D02*
X323500D01*
X281500Y277500D02*
X303000Y299000D01*
X281500Y265500D02*
Y277500D01*
X279500Y263500D02*
X281500Y265500D01*
X206000Y263500D02*
X279500D01*
X292414Y261500D02*
X293000Y262086D01*
Y279000D01*
X157000Y275000D02*
X158500Y273500D01*
X157000Y275000D02*
Y281868D01*
X363500Y339000D02*
X367000D01*
X323500Y299000D02*
X363500Y339000D01*
X364000Y330000D02*
Y334000D01*
X367000Y339000D02*
X379000Y327000D01*
X322500Y288500D02*
X364000Y330000D01*
X302500Y288500D02*
X322500D01*
X293000Y279000D02*
X302500Y288500D01*
X231000Y259500D02*
X232000Y258500D01*
X204000Y259500D02*
X231000D01*
X232000Y258500D02*
X301000D01*
X80000Y257000D02*
X91500Y268500D01*
X150000Y278500D02*
X157500Y271000D01*
X150000Y278500D02*
Y343000D01*
X303000Y282500D02*
X306500Y286000D01*
X323515D01*
X303000Y260500D02*
Y282500D01*
X301000Y258500D02*
X303000Y260500D01*
X229500Y257000D02*
X231000Y255500D01*
X203500Y257000D02*
X229500D01*
X231000Y255500D02*
X308500D01*
X195000Y265500D02*
X203500Y257000D01*
X106500Y265500D02*
X195000D01*
X313000Y278500D02*
X318500Y284000D01*
X313000Y260000D02*
Y278500D01*
X308500Y255500D02*
X313000Y260000D01*
X318500Y284000D02*
X325000D01*
X332500Y277500D02*
X334547Y279547D01*
X328000Y282000D02*
X365000Y319000D01*
X332500Y261000D02*
X332586Y260914D01*
X334547Y279547D02*
Y284547D01*
X332586Y260086D02*
Y260914D01*
X332500Y261000D02*
Y277500D01*
X334547Y284547D02*
X364000Y314000D01*
X326500Y282000D02*
X328000D01*
X322500Y250000D02*
X332586Y260086D01*
X230000Y252500D02*
X316500D01*
X228000Y254500D02*
X230000Y252500D01*
X202500Y254500D02*
X228000D01*
X201500Y252000D02*
X227000D01*
X229000Y250000D01*
X322500D01*
X98000Y257000D02*
X106500Y265500D01*
X138000Y261000D02*
X192500D01*
X116000Y257000D02*
X122000Y263000D01*
X194000D01*
X202500Y254500D01*
X192500Y261000D02*
X201500Y252000D01*
X325000Y284000D02*
X356000Y315000D01*
Y315657D01*
X323515Y286000D02*
X364515Y327000D01*
X368000D01*
X361500Y247000D02*
X372500Y258000D01*
X373000Y244000D02*
X382818Y253818D01*
Y267318D01*
X385953Y270453D01*
X228541Y247000D02*
X361500D01*
X374688Y270688D02*
X380687D01*
X372500Y268500D02*
X374688Y270688D01*
X372500Y258000D02*
Y268500D01*
X389365Y251865D02*
Y256865D01*
X393000Y260500D01*
Y268000D01*
X388750Y270453D02*
X392453Y274156D01*
X385953Y270453D02*
X388750D01*
X201000Y244000D02*
X373000D01*
X396000Y271000D02*
X400500D01*
X403453Y251453D02*
Y269453D01*
X404453Y270453D01*
X393000Y268000D02*
X396000Y271000D01*
X400500D02*
X403000Y273500D01*
X404453Y270453D02*
X409750D01*
X379500Y242000D02*
X389365Y251865D01*
X185000Y242000D02*
X379500D01*
X392000Y240000D02*
X403453Y251453D01*
X400738Y280453D02*
X407500Y287215D01*
Y289843D02*
X415000Y297343D01*
X409500Y289015D02*
X417000Y296515D01*
X407500Y287215D02*
Y289843D01*
X403000Y277500D02*
X409500Y284000D01*
Y289015D01*
X403000Y273500D02*
Y277500D01*
X396156Y280453D02*
X400738D01*
X392453Y276750D02*
X396156Y280453D01*
X392453Y274156D02*
Y276750D01*
X169000Y240000D02*
X392000D01*
X81000Y238000D02*
X395500D01*
X408522Y249522D02*
X409000Y250000D01*
X407022Y249522D02*
X408522D01*
X395500Y238000D02*
X407022Y249522D01*
X134000Y257000D02*
X138000Y261000D01*
X179500Y369750D02*
X246750D01*
X169500Y359750D02*
X179500Y369750D01*
X169500Y344000D02*
Y359750D01*
X183500Y366500D02*
X183718D01*
X246750Y369750D02*
X255000Y378000D01*
X373000Y93000D02*
X375000Y95000D01*
X368000Y76000D02*
X373000Y81000D01*
Y93000D01*
X381000Y89297D02*
Y219000D01*
X196586Y231000D02*
X398000D01*
X403000Y234000D02*
X418000Y249000D01*
X198757Y236000D02*
X402000D01*
X398000Y231000D02*
X401000Y234000D01*
X403000D01*
X418000Y249000D02*
Y257000D01*
X381000Y89297D02*
X382453Y87844D01*
X378000Y76000D02*
Y80962D01*
X378586Y81547D01*
X379844D01*
X382453Y84156D01*
Y87844D01*
X392414Y94000D02*
X393000Y93414D01*
X390000Y94000D02*
X392414D01*
X393000Y81000D02*
Y93414D01*
X388000Y76000D02*
X393000Y81000D01*
X510000Y223843D02*
Y234914D01*
X558657Y273000D02*
X562250D01*
X521157Y235500D02*
X558657Y273000D01*
X510586Y235500D02*
X521157D01*
X510000Y234914D02*
X510586Y235500D01*
X520328Y237500D02*
X557000Y274172D01*
Y399000D01*
X508000Y221843D02*
X510000Y223843D01*
X505500Y141500D02*
X505750Y141250D01*
X508000Y100000D02*
Y221843D01*
X505750Y120663D02*
Y141250D01*
X508000Y100000D02*
X519000Y89000D01*
X505030Y98680D02*
Y119943D01*
X505750Y120663D01*
X550000Y270000D02*
Y293129D01*
X519500Y239500D02*
X550000Y270000D01*
X509000Y237500D02*
X520328D01*
X508000Y236500D02*
X509000Y237500D01*
X519000Y242500D02*
X538000Y261500D01*
Y316515D01*
X507500Y242500D02*
X519000D01*
X507500Y239500D02*
X519500D01*
X506000Y238000D02*
X507500Y239500D01*
X508000Y224672D02*
Y236500D01*
X505500Y222172D02*
X508000Y224672D01*
X505500Y141500D02*
Y222172D01*
X502500Y137177D02*
X503500Y138177D01*
X502500Y136500D02*
Y137177D01*
X499000Y150000D02*
X499677D01*
X500828Y150768D02*
X501414Y151354D01*
X503500Y138177D02*
Y223000D01*
X500444Y150768D02*
X500828D01*
X501414Y220743D02*
X501500Y220828D01*
X501414Y151354D02*
Y220743D01*
X499677Y150000D02*
X500444Y150768D01*
X498000Y156000D02*
Y220157D01*
X492000Y223163D02*
X494250Y225413D01*
X492000Y106000D02*
Y223163D01*
X497500Y225485D02*
X499500Y227485D01*
Y221657D02*
Y224657D01*
X497500Y222485D02*
Y225485D01*
X501500Y223828D02*
X504000Y226328D01*
X494250Y225413D02*
Y225509D01*
X501500Y220828D02*
Y223828D01*
X498000Y220157D02*
X499500Y221657D01*
X503500Y223000D02*
X506000Y225500D01*
X499500Y224657D02*
X502000Y227157D01*
X494000Y108500D02*
Y218985D01*
X497500Y222485D01*
X492000Y106000D02*
X496000Y102000D01*
X494000Y108500D02*
X495000Y107500D01*
X490000Y164500D02*
Y228000D01*
X489500Y164000D02*
X490000Y164500D01*
Y228000D02*
X492500Y230500D01*
X489500Y102000D02*
Y164000D01*
X486500Y167500D02*
Y245000D01*
X506000Y225500D02*
Y238000D01*
X499500Y227485D02*
Y244500D01*
X502000Y227157D02*
Y244000D01*
X504000Y226328D02*
Y239000D01*
X507500Y242500D01*
X502000Y244000D02*
X504000Y246000D01*
X499500Y244500D02*
X509500Y254500D01*
X531202Y259298D02*
X531500Y259596D01*
Y314500D01*
X537500Y320500D01*
X525000Y259500D02*
Y284404D01*
X525750Y285154D01*
X504000Y246000D02*
X511500D01*
X344500Y155000D02*
X344547Y154953D01*
Y96000D02*
Y154953D01*
X509500Y254500D02*
X514500D01*
X499500Y93000D02*
Y104500D01*
X496500Y107500D02*
X499500Y104500D01*
X495000Y107500D02*
X496500D01*
X499500Y93000D02*
X503453Y89047D01*
X538000Y316515D02*
X543000Y321515D01*
X486500Y245000D02*
X491500Y250000D01*
X495500D01*
X484315Y34815D02*
X503453Y53953D01*
Y89047D01*
X420000Y107000D02*
X423500Y103500D01*
X412000Y106664D02*
Y107000D01*
X428500D02*
X429000Y106500D01*
X433453Y104953D02*
X435500Y107000D01*
X413500Y95000D02*
Y105164D01*
X412000Y106664D02*
X413500Y105164D01*
X464000Y121000D02*
X499000Y86000D01*
X449500Y121000D02*
X464000D01*
X517000Y259672D02*
X519500Y262172D01*
Y283500D02*
X522500Y286500D01*
X519500Y262172D02*
Y283500D01*
X517000Y258000D02*
Y259672D01*
X484000Y260000D02*
X514500D01*
X517500Y263000D01*
X505000Y317785D02*
X517500Y305285D01*
Y263000D02*
Y305285D01*
X487500Y258000D02*
X517000D01*
X477914Y253914D02*
X484000Y260000D01*
X483000Y253500D02*
X487500Y258000D01*
X483000Y177500D02*
Y253500D01*
X477914Y253086D02*
Y253914D01*
Y253086D02*
X478000Y253000D01*
Y186500D02*
Y253000D01*
X473000Y253703D02*
X483453Y264156D01*
X473000Y180500D02*
Y253703D01*
X481000Y290297D02*
X483500Y287797D01*
X467500Y187000D02*
Y258203D01*
X473453Y264156D01*
X465000Y292000D02*
X465500D01*
X463500Y268500D02*
X465500Y270500D01*
X463500Y200000D02*
Y268500D01*
X442586Y306414D02*
X463453Y285547D01*
Y274156D02*
Y285547D01*
X460297Y271000D02*
X463453Y274156D01*
X573000Y230500D02*
Y288000D01*
X565500Y289500D02*
X567000Y291000D01*
X565500Y231000D02*
Y289500D01*
X591500Y236500D02*
Y273500D01*
X596000Y278000D01*
X587500Y272500D02*
X594000Y279000D01*
X587500Y242000D02*
Y272500D01*
X581500Y269500D02*
X592000Y280000D01*
X581500Y246000D02*
Y269500D01*
X578000Y252000D02*
Y268828D01*
X590000Y280828D01*
X569603Y291396D02*
X573000Y288000D01*
X334500Y97000D02*
Y148823D01*
X335000Y149323D01*
Y150000D01*
X545000Y298129D02*
X550000Y293129D01*
X541000Y322500D02*
Y329500D01*
X537500Y320500D02*
X539000D01*
X541000Y322500D01*
X543000Y321515D02*
Y332000D01*
X540000Y335000D02*
X543000Y332000D01*
X512000Y335000D02*
X540000D01*
X525750Y312750D02*
X536719Y323719D01*
Y324310D01*
X525750Y285154D02*
Y312750D01*
X539548Y330952D02*
X541000Y329500D01*
X537000Y331000D02*
X537048Y330952D01*
X539548D01*
X497000Y316000D02*
X512000Y331000D01*
X537000D01*
X369000Y86000D02*
Y187000D01*
X359000Y86000D02*
Y176500D01*
X481000Y290297D02*
Y321000D01*
X364000Y133500D02*
X364040Y133460D01*
Y123364D02*
Y133460D01*
X354000Y96000D02*
Y165500D01*
X329000Y86000D02*
Y178000D01*
X319000Y86000D02*
Y184000D01*
X567000Y291000D02*
Y440471D01*
X569603Y291396D02*
Y440696D01*
X557716Y452584D02*
X569603Y440696D01*
X557470Y450002D02*
X567000Y440471D01*
X511584Y452584D02*
X557716D01*
X556000Y400000D02*
X557000Y399000D01*
X413500Y218500D02*
Y232000D01*
X408000Y213000D02*
X413500Y218500D01*
X408000Y106404D02*
Y213000D01*
Y106404D02*
X409000Y105404D01*
Y92297D02*
Y105404D01*
X396532Y124469D02*
Y214469D01*
X394500Y216500D02*
X396532Y214469D01*
X402500Y92500D02*
Y220000D01*
X413453Y80453D02*
Y87844D01*
X409000Y76000D02*
X413453Y80453D01*
X409000Y92297D02*
X413453Y87844D01*
X413500Y95000D02*
X418633Y89867D01*
Y86367D02*
X419000Y86000D01*
X418633Y86367D02*
Y89867D01*
X433453Y84156D02*
Y104953D01*
X429000Y80962D02*
X429586Y81547D01*
X430844D01*
X433453Y84156D01*
X423500Y84203D02*
Y103500D01*
X420844Y81547D02*
X423500Y84203D01*
X420047Y81547D02*
X420844D01*
X419000Y80500D02*
X420047Y81547D01*
X364000Y97000D02*
Y123324D01*
X364040Y123364D01*
X394500Y216500D02*
Y226000D01*
X65500Y409000D02*
X71500Y415000D01*
X120000D02*
X132000Y403000D01*
X71500Y415000D02*
X120000D01*
X133000Y403000D02*
X215868Y403000D01*
X132000Y403000D02*
X133000D01*
X38000Y402700D02*
X44300Y409000D01*
X65500D01*
X202696Y12100D02*
X382100D01*
X195180Y9262D02*
Y229594D01*
X37750Y18250D02*
Y33250D01*
X7000Y49000D02*
X17250Y38750D01*
X32250D01*
X428000Y6000D02*
X433000D01*
X440000Y13000D01*
X459793Y20803D02*
X473806Y34815D01*
X484315D01*
X263000Y122000D02*
X286000Y99000D01*
X252000Y122000D02*
X263000D01*
X491000Y366000D02*
Y395000D01*
X490000Y396000D02*
X491000Y395000D01*
X486485Y382000D02*
X489000Y384515D01*
Y394080D01*
X485080Y398000D02*
X489000Y394080D01*
X484251Y396000D02*
X487000Y393251D01*
X485657Y384000D02*
X487000Y385343D01*
X482702Y389298D02*
Y391298D01*
Y389298D02*
X483000Y389000D01*
X487000Y385343D02*
Y393251D01*
X481000Y384000D02*
X485657D01*
X480000Y394000D02*
X482702Y391298D01*
X491000Y366000D02*
X500000Y357000D01*
X508000D01*
X490000Y396000D02*
Y412000D01*
X492202Y414202D02*
Y414525D01*
X493000Y415323D02*
Y416000D01*
X492202Y414525D02*
X493000Y415323D01*
X490000Y412000D02*
X492202Y414202D01*
X416000Y398000D02*
X485080D01*
X422000Y396000D02*
X484251D01*
X476000Y449000D02*
X482000Y455000D01*
X474000Y467000D02*
X481000Y460000D01*
X482500D01*
X474000Y467000D02*
Y471437D01*
X482500Y460000D02*
X498500Y444000D01*
X506000D01*
X504676Y373000D02*
X505475Y372202D01*
X505798D02*
X545000Y333000D01*
X504000Y373000D02*
X504676D01*
X505475Y372202D02*
X505798D01*
X415414Y313000D02*
X417000Y311414D01*
X412000Y313000D02*
X415414D01*
X179000Y216243D02*
X198757Y236000D01*
X179000Y94000D02*
Y216243D01*
X492000Y464000D02*
X508000D01*
X484328Y471672D02*
X492000Y464000D01*
X483672Y471672D02*
X484328D01*
X480000Y475343D02*
X483672Y471672D01*
X379000Y359000D02*
X387000Y351000D01*
Y343000D02*
Y351000D01*
X379000Y359000D02*
Y369000D01*
X387000Y343000D02*
X391000Y339000D01*
X392000Y341000D02*
Y348000D01*
Y341000D02*
X404293Y328707D01*
X366657Y341063D02*
X372594Y347000D01*
X381000D01*
X361720Y341063D02*
X366657D01*
X391000Y315586D02*
Y339000D01*
X439000Y76000D02*
X439750Y76750D01*
X242778Y382000D02*
X269000D01*
X255000Y378000D02*
X271000D01*
X592000Y280000D02*
Y432415D01*
X594000Y279000D02*
Y460000D01*
X596000Y278000D02*
Y461000D01*
X590000Y280828D02*
Y431587D01*
X493000Y416000D02*
X541929D01*
X548129Y409800D01*
X550471D01*
X556000Y404271D01*
Y400000D02*
Y404271D01*
X352000Y354000D02*
X388000Y390000D01*
X352000Y353000D02*
Y354000D01*
X388000Y390000D02*
X399000D01*
X566415Y458000D02*
X592000Y432415D01*
X504000Y458000D02*
X566415D01*
X565587Y456000D02*
X590000Y431587D01*
X508000Y456000D02*
X565587D01*
X505000Y446000D02*
X511584Y452584D01*
X512002Y450002D02*
X557470D01*
X506000Y444000D02*
X512002Y450002D01*
X502000Y450000D02*
X508000Y456000D01*
X537000Y463000D02*
X591000D01*
X538041Y465000D02*
X592000D01*
X596000Y461000D01*
X591000Y463000D02*
X594000Y460000D01*
X476000Y429000D02*
X481000Y424000D01*
X476000Y429000D02*
Y449000D01*
X485000Y424000D02*
X493000Y416000D01*
X481000Y424000D02*
X485000D01*
X404100Y472100D02*
X414000Y482000D01*
X395514Y472100D02*
X404100D01*
X427000Y311000D02*
Y328000D01*
Y311000D02*
X430000Y308000D01*
X483000Y368000D02*
X493000Y358000D01*
X479000Y372000D02*
X483000Y368000D01*
X451000Y220000D02*
Y260000D01*
X440000Y306000D02*
X453453Y292547D01*
X440000Y306000D02*
Y349000D01*
X453453Y274156D02*
Y292547D01*
X450297Y271000D02*
X453453Y274156D01*
X442586Y306414D02*
Y348586D01*
X426000Y329000D02*
X427000Y328000D01*
X426000Y329000D02*
Y329828D01*
X415828Y340000D02*
X426000Y329828D01*
X408370Y340000D02*
X415828D01*
X402000Y339000D02*
X407370D01*
X408370Y340000D01*
X417000Y330000D02*
Y330000D01*
Y330000D02*
X421000Y326000D01*
X411000Y336000D02*
X417000D01*
X423000Y307304D02*
X433453Y296851D01*
X423000Y307304D02*
Y330000D01*
X417000Y336000D02*
X423000Y330000D01*
X435453Y288547D02*
Y360453D01*
X443453Y274156D02*
Y280547D01*
X435453Y288547D02*
X443453Y280547D01*
X439844Y270547D02*
X443453Y274156D01*
X433547Y270547D02*
X439844D01*
X442586Y348586D02*
X452000Y358000D01*
X459000D01*
X440000Y349000D02*
X459000Y368000D01*
X491054Y455289D02*
X500343Y446000D01*
X505000D01*
X491054Y455289D02*
Y456946D01*
X481000Y467000D02*
X491054Y456946D01*
X545000Y298129D02*
Y333000D01*
X493000Y350828D02*
Y358000D01*
Y350828D02*
X494000Y349828D01*
Y321000D02*
Y349828D01*
Y321000D02*
X498000D01*
X512000Y335000D01*
X483000Y358000D02*
X492000Y349000D01*
Y327000D02*
Y349000D01*
X489000Y319000D02*
Y324000D01*
X492000Y327000D01*
Y316000D02*
X497000D01*
X489000Y319000D02*
X492000Y316000D01*
X471000Y367000D02*
Y368000D01*
X465957Y361957D02*
X471000Y367000D01*
X465957Y350043D02*
X487000Y329000D01*
X465957Y350043D02*
Y361957D01*
X445518Y391518D02*
X454000D01*
X445000Y391000D02*
X445518Y391518D01*
X437000Y391000D02*
X444000Y384000D01*
X453000D01*
X479000Y379000D02*
X482000Y382000D01*
X479000Y372000D02*
Y379000D01*
X482000Y382000D02*
X486485D01*
X408000Y390000D02*
X416000Y398000D01*
X477000Y364000D02*
X483000Y358000D01*
X477000Y364000D02*
Y380000D01*
X481000Y384000D01*
X416000Y390000D02*
X422000Y396000D01*
X475000Y394000D02*
X480000D01*
X467000Y386000D02*
X475000Y394000D01*
X435453Y360453D02*
X465000Y390000D01*
X464000Y386000D02*
X467000D01*
X438000Y293000D02*
Y360000D01*
X464000Y386000D01*
X382100Y12100D02*
X399000Y29000D01*
Y76000D01*
X438000Y293000D02*
X444000Y287000D01*
X379000Y457000D02*
X383800Y452200D01*
X374000Y470000D02*
X379000Y465000D01*
Y457000D02*
Y465000D01*
X428000Y444000D02*
X441000Y431000D01*
X428000Y444000D02*
Y489000D01*
X344000Y470000D02*
X374000D01*
X336800Y464000D02*
X338000D01*
X344000Y470000D01*
X383800Y452200D02*
X384100D01*
X429000Y266000D02*
X433547Y270547D01*
X419000Y471000D02*
Y487000D01*
X299000Y490000D02*
X416000D01*
X419000Y487000D01*
X298000Y489000D02*
X299000Y490000D01*
X298000Y474212D02*
Y489000D01*
X418000Y466000D02*
Y470000D01*
X296586Y492000D02*
X425000D01*
X428000Y489000D01*
X427000Y494000D02*
X430000Y491000D01*
Y447000D02*
Y491000D01*
X441000Y436000D02*
X445000D01*
X430000Y447000D02*
X441000Y436000D01*
X432100Y448900D02*
Y492900D01*
Y448900D02*
X440000Y441000D01*
X429000Y496000D02*
X432100Y492900D01*
X409771Y469000D02*
X413000Y465771D01*
X419000Y450000D02*
Y458000D01*
X413000Y464000D02*
Y465771D01*
Y464000D02*
X419000Y458000D01*
X418000Y470000D02*
X419000Y471000D01*
X403900Y470100D02*
X405000Y469000D01*
X394685Y470100D02*
X403900D01*
X405000Y469000D02*
X409771D01*
X246000Y496000D02*
X429000D01*
X244000Y494000D02*
X246000Y496000D01*
X296400Y472612D02*
X298000Y474212D01*
X296400Y457200D02*
Y472612D01*
X296000Y478000D02*
Y491414D01*
X296586Y492000D01*
X289100Y472100D02*
X290100D01*
X284600Y467600D02*
X289100Y472100D01*
X290100D02*
X296000Y478000D01*
X388300Y476485D02*
X394685Y470100D01*
X390300Y477314D02*
X395514Y472100D01*
X388300Y476485D02*
Y484000D01*
X390300Y477314D02*
Y485700D01*
X327000Y486000D02*
X386300D01*
X388300Y484000D01*
X388000Y488000D02*
X390300Y485700D01*
X315000Y488000D02*
X388000D01*
X286613Y494000D02*
X427000D01*
Y391000D02*
X437000D01*
X418000Y382000D02*
X427000Y391000D01*
X392000Y382000D02*
X418000D01*
X379000Y369000D02*
X392000Y382000D01*
X390000Y383000D02*
Y383414D01*
X357459Y345459D02*
Y350459D01*
X390000Y383000D01*
X367000Y362828D02*
Y364000D01*
X353000Y348828D02*
X367000Y362828D01*
X353000Y345000D02*
Y348828D01*
X390000Y383414D02*
X390586Y384000D01*
X410000D02*
X416000Y390000D01*
X390586Y384000D02*
X410000D01*
X357000Y345000D02*
X357459Y345459D01*
X389000Y386000D02*
X404000D01*
X367000Y364000D02*
X389000Y386000D01*
X404000D02*
X408000Y390000D01*
X347000Y339000D02*
X353000Y345000D01*
X379000Y315000D02*
X390414D01*
X391000Y315586D01*
X374000Y310000D02*
X379000Y315000D01*
X363343Y323000D02*
X372630D01*
X376630Y319000D02*
X387000D01*
X372630Y323000D02*
X376630Y319000D01*
X363414Y310586D02*
X367243D01*
X367828Y310000D01*
X374000D01*
X344765Y291937D02*
X363414Y310586D01*
X344000Y288000D02*
X344765Y288765D01*
Y291937D01*
X212000Y248000D02*
X227541D01*
X170000Y257000D02*
X185000Y242000D01*
X74000Y231000D02*
X81000Y238000D01*
X152000Y257000D02*
X169000Y240000D01*
X227541Y248000D02*
X228541Y247000D01*
X188000Y257000D02*
X201000Y244000D01*
X195180Y229594D02*
X196586Y231000D01*
X433453Y274156D02*
Y296851D01*
X365000Y319000D02*
Y319000D01*
X364000Y314000D02*
X370000D01*
X387000Y283000D02*
X397586D01*
X404293Y297000D02*
Y328707D01*
X379000Y327000D02*
X386918D01*
X325000Y464000D02*
Y484000D01*
X327000Y486000D01*
X313000Y464000D02*
Y486000D01*
X315000Y488000D01*
X296400Y457200D02*
X301400Y452200D01*
X288071Y459000D02*
X289871Y457200D01*
X287529Y459000D02*
X288071D01*
X284600Y461929D02*
X287529Y459000D01*
X284600Y461929D02*
Y467600D01*
X289600Y452200D02*
X289871Y452471D01*
Y457200D01*
X277300Y484687D02*
X286613Y494000D01*
X244000Y448000D02*
Y494000D01*
X272800Y468800D02*
X277300Y473300D01*
Y484687D01*
X277529Y452471D02*
X277800Y452200D01*
X277529Y452471D02*
Y457200D01*
X272800Y461929D02*
X277529Y457200D01*
X272800Y461929D02*
Y468800D01*
X336800Y452200D02*
X337000Y452000D01*
X215868Y403000D02*
X216161Y402707D01*
X216161D02*
X217868Y401000D01*
X246000D02*
X261000Y386000D01*
X241200Y445200D02*
X244000Y448000D01*
X214200Y445200D02*
X241200D01*
X200000Y431000D02*
X214200Y445200D01*
X200000Y407000D02*
Y431000D01*
X190000Y473000D02*
X195309Y467691D01*
X233309D01*
X239000Y462000D01*
X42300Y422000D02*
X49800Y414500D01*
X19000Y422000D02*
X42300D01*
X7000Y347000D02*
Y425000D01*
Y347000D02*
X8000Y346000D01*
X60622Y384100D02*
X63222Y381500D01*
X38000Y390900D02*
X44800Y384100D01*
X63222Y381500D02*
X147250D01*
X237278Y387500D02*
X242778Y382000D01*
X44800Y384100D02*
X60622D01*
X147250Y381500D02*
X153250Y387500D01*
X237278D01*
X38000Y402700D02*
X38271Y402429D01*
X217868Y401000D02*
X246000D01*
X7000Y49000D02*
Y345000D01*
X8000Y346000D01*
X27000Y356000D02*
X74000D01*
X12100Y370900D02*
X27000Y356000D01*
X12100Y370900D02*
Y458686D01*
X24687Y464600D02*
X30769Y470683D01*
X18013Y464600D02*
X24687D01*
X12100Y458686D02*
X18013Y464600D01*
X32250Y38750D02*
X37750Y33250D01*
X413000Y306000D02*
X415000Y300657D01*
X409972Y296312D02*
X411000Y299000D01*
X419000Y295686D02*
Y312243D01*
X417765Y314566D02*
X419000Y312243D01*
X417765Y314566D02*
Y317073D01*
X415000Y297343D02*
Y300657D01*
X417000Y296515D02*
Y311414D01*
X398586Y283586D02*
X409972Y296312D01*
X398000Y283000D02*
X398586Y283586D01*
X397586Y283000D02*
X398000Y283000D01*
X60000Y69000D02*
X74000Y83000D01*
Y231000D01*
X417000Y317839D02*
X417765Y317073D01*
X30769Y474769D02*
X38000Y482000D01*
X30769Y470683D02*
Y474769D01*
X81000Y349000D02*
X155000D01*
X74000Y356000D02*
X81000Y349000D01*
X356000Y315657D02*
X363343Y323000D01*
X0Y0D02*
X600000D01*
Y149000D01*
X512000D02*
X600000D01*
X512000D02*
Y225000D01*
X600000D01*
Y500000D01*
X0D02*
X600000D01*
X0Y0D02*
Y500000D01*
D15*
X185276Y432539D02*
X191575D01*
X185276Y440610D02*
X191575D01*
X185276Y432539D02*
Y440610D01*
X191575Y432539D02*
Y440610D01*
X193472Y235433D02*
Y277165D01*
X228906Y235433D02*
Y277165D01*
X193472D02*
X228906D01*
X193472Y235433D02*
X228906D01*
X231472Y255417D02*
Y275496D01*
X240528Y255417D02*
Y275496D01*
X231472Y255417D02*
X240528D01*
X231472Y275496D02*
X240528D01*
X58961Y310472D02*
X79039D01*
X58961Y319528D02*
X79039D01*
Y310472D02*
Y319528D01*
X58961Y310472D02*
Y319528D01*
X192020Y278614D02*
X226075D01*
X192020Y305386D02*
X226075D01*
Y278614D02*
Y305386D01*
X192020Y278614D02*
Y305386D01*
X179827Y308095D02*
Y343528D01*
X138094Y308095D02*
Y343528D01*
X179827D01*
X138094Y308095D02*
X179827D01*
X122472Y327039D02*
X131528D01*
X122472Y306961D02*
X131528D01*
Y327039D01*
X122472Y306961D02*
Y327039D01*
X121827Y308095D02*
Y343528D01*
X80094Y308095D02*
Y343528D01*
X121827D01*
X80094Y308095D02*
X121827D01*
X222614Y113488D02*
X249386D01*
X222614Y74610D02*
X249386D01*
X222614D02*
Y113488D01*
X249386Y74610D02*
Y113488D01*
X178512Y62614D02*
Y89386D01*
X217390Y62614D02*
Y89386D01*
X178512Y62614D02*
X217390D01*
X178512Y89386D02*
X217390D01*
X129386Y74598D02*
Y113476D01*
X102614Y74598D02*
Y113476D01*
Y74598D02*
X129386D01*
X102614Y113476D02*
X129386D01*
X473500Y40614D02*
Y67386D01*
X434622Y40614D02*
Y67386D01*
X473500D01*
X434622Y40614D02*
X473500D01*
X388717Y400134D02*
Y441866D01*
X353284Y400134D02*
Y441866D01*
Y400134D02*
X388717D01*
X353284Y441866D02*
X388717D01*
X350716Y400134D02*
Y441866D01*
X315283Y400134D02*
Y441866D01*
Y400134D02*
X350716D01*
X315283Y441866D02*
X350716D01*
X328504Y391472D02*
X348583D01*
X328504Y400528D02*
X348583D01*
Y391472D02*
Y400528D01*
X328504Y391472D02*
Y400528D01*
X398528Y395961D02*
Y416039D01*
X389472Y395961D02*
Y416039D01*
X398528D01*
X389472Y395961D02*
X398528D01*
D16*
X188425Y434606D02*
Y438543D01*
X186457Y436575D02*
X190394D01*
X209221Y256299D02*
X213158D01*
X211189Y254331D02*
Y258268D01*
X234032Y265457D02*
X237968D01*
X236000Y263488D02*
Y267425D01*
X69000Y313032D02*
Y316968D01*
X67032Y315000D02*
X70969D01*
X209047Y290032D02*
Y293969D01*
X207079Y292000D02*
X211016D01*
X156992Y325811D02*
X160929D01*
X158961Y323843D02*
Y327780D01*
X127000Y315032D02*
Y318969D01*
X125031Y317000D02*
X128969D01*
X98992Y325811D02*
X102929D01*
X100961Y323843D02*
Y327780D01*
X236000Y92032D02*
Y95969D01*
X234032Y94000D02*
X237968D01*
X196031Y76000D02*
X199969D01*
X198000Y74032D02*
Y77969D01*
X114032Y93988D02*
X117968D01*
X116000Y92020D02*
Y95957D01*
X452043Y54000D02*
X455980D01*
X454012Y52031D02*
Y55968D01*
X369032Y421000D02*
X372969D01*
X371000Y419031D02*
Y422968D01*
X331031Y421000D02*
X334968D01*
X333000Y419031D02*
Y422968D01*
X338543Y394032D02*
Y397969D01*
X336575Y396000D02*
X340512D01*
X392032Y406000D02*
X395969D01*
X394000Y404032D02*
Y407969D01*
D124*
X465000Y491950D02*
X465550D01*
X468750Y486250D02*
X508215D01*
X465000Y482500D02*
X468750Y486250D01*
X519714Y474750D02*
X545550D01*
X461800Y486250D02*
X465000Y483050D01*
Y482500D02*
Y483050D01*
X545550Y474750D02*
X550200Y470100D01*
X508215Y486250D02*
X519714Y474750D01*
X460557Y486250D02*
X461800D01*
X458627Y484320D02*
X460557Y486250D01*
X317850Y447683D02*
Y449961D01*
X316663Y451148D02*
X317850Y449961D01*
X313200Y452200D02*
X314252Y451148D01*
X316663D01*
X458627Y421591D02*
Y484320D01*
X455536Y418500D02*
X458627Y421591D01*
X427464Y418500D02*
X455536D01*
X334033Y431500D02*
X414465D01*
X317850Y447683D02*
X334033Y431500D01*
X414465D02*
X427464Y418500D01*
X468750Y488750D02*
X509250D01*
X461800D02*
X465000Y491950D01*
X465550D02*
X468750Y488750D01*
X545550Y477250D02*
X550200Y481900D01*
X520750Y477250D02*
X545550D01*
X509250Y488750D02*
X520750Y477250D01*
X459521Y488750D02*
X461800D01*
X456127Y485355D02*
X459521Y488750D01*
X323948Y451148D02*
X325000Y452200D01*
X321537Y451148D02*
X323948D01*
X320350Y449961D02*
X321537Y451148D01*
X456127Y422627D02*
Y485355D01*
X415500Y434000D02*
X428500Y421000D01*
X454500D02*
X456127Y422627D01*
X428500Y421000D02*
X454500D01*
X320350Y448718D02*
X335068Y434000D01*
X320350Y448718D02*
Y449961D01*
X335068Y434000D02*
X415500D01*
D125*
X465000Y482500D02*
D03*
Y492500D02*
D03*
X179000Y295000D02*
D03*
Y285000D02*
D03*
X537000Y492000D02*
D03*
X527000D02*
D03*
X237000Y423000D02*
D03*
X247000D02*
D03*
X237000Y411000D02*
D03*
X247000D02*
D03*
X215000Y423000D02*
D03*
X225000D02*
D03*
X215000Y411000D02*
D03*
X225000D02*
D03*
X63000Y347000D02*
D03*
X73000D02*
D03*
X71000Y285000D02*
D03*
Y295000D02*
D03*
X125000Y285000D02*
D03*
Y295000D02*
D03*
X143000Y285000D02*
D03*
Y295000D02*
D03*
X89000Y285000D02*
D03*
Y295000D02*
D03*
X107000Y285000D02*
D03*
Y295000D02*
D03*
X161000Y285000D02*
D03*
Y295000D02*
D03*
X459000Y358000D02*
D03*
Y368000D02*
D03*
X471000Y358000D02*
D03*
Y368000D02*
D03*
X483000Y358000D02*
D03*
Y368000D02*
D03*
D126*
X550200Y470100D02*
D03*
Y481900D02*
D03*
Y50000D02*
D03*
X562000D02*
D03*
X294100Y49800D02*
D03*
X305900D02*
D03*
X294100Y38000D02*
D03*
X305900D02*
D03*
X49800Y390900D02*
D03*
Y379100D02*
D03*
X38000D02*
D03*
Y390900D02*
D03*
Y414500D02*
D03*
Y402700D02*
D03*
X49800D02*
D03*
Y414500D02*
D03*
X38000Y251000D02*
D03*
X49800D02*
D03*
X407700Y452200D02*
D03*
X395900D02*
D03*
Y464000D02*
D03*
X407700D02*
D03*
X289600Y452200D02*
D03*
X277800D02*
D03*
Y464000D02*
D03*
X289600D02*
D03*
X384100D02*
D03*
X301400D02*
D03*
Y452200D02*
D03*
X313200D02*
D03*
X313000Y464000D02*
D03*
X372200D02*
D03*
X336800D02*
D03*
X348600D02*
D03*
X325000D02*
D03*
X360400D02*
D03*
Y452200D02*
D03*
X325000D02*
D03*
X348600D02*
D03*
X336800D02*
D03*
X372200D02*
D03*
X384100D02*
D03*
X441000Y463000D02*
D03*
Y451200D02*
D03*
X562000Y481900D02*
D03*
Y470100D02*
D03*
X215400Y450200D02*
D03*
X203600D02*
D03*
Y462000D02*
D03*
X215400D02*
D03*
X239000D02*
D03*
X227200D02*
D03*
Y450200D02*
D03*
X239000D02*
D03*
X49800Y49000D02*
D03*
X38000D02*
D03*
X550200Y300000D02*
D03*
X562000D02*
D03*
X49800Y347000D02*
D03*
X38000D02*
D03*
X49800Y283000D02*
D03*
X38000D02*
D03*
X49800Y315000D02*
D03*
X38000D02*
D03*
X76000Y450200D02*
D03*
Y462000D02*
D03*
X49800Y482000D02*
D03*
Y470200D02*
D03*
X38000D02*
D03*
Y482000D02*
D03*
Y458400D02*
D03*
Y446600D02*
D03*
X49800D02*
D03*
Y458400D02*
D03*
X550200Y426600D02*
D03*
Y438400D02*
D03*
X562000D02*
D03*
Y426600D02*
D03*
Y332100D02*
D03*
Y414800D02*
D03*
X550200D02*
D03*
Y403000D02*
D03*
X562000Y403200D02*
D03*
Y344000D02*
D03*
Y379400D02*
D03*
Y367600D02*
D03*
Y391200D02*
D03*
Y355800D02*
D03*
X550200D02*
D03*
Y391200D02*
D03*
Y367600D02*
D03*
Y379400D02*
D03*
Y344000D02*
D03*
Y332100D02*
D03*
D127*
X288000Y86000D02*
D03*
Y76000D02*
D03*
X298000Y86000D02*
D03*
Y76000D02*
D03*
X308000Y86000D02*
D03*
Y76000D02*
D03*
X318000Y86000D02*
D03*
Y76000D02*
D03*
X328000Y86000D02*
D03*
Y76000D02*
D03*
X338000Y86000D02*
D03*
Y76000D02*
D03*
X348000Y86000D02*
D03*
Y76000D02*
D03*
X358000Y86000D02*
D03*
Y76000D02*
D03*
X368000Y86000D02*
D03*
Y76000D02*
D03*
X378000Y86000D02*
D03*
Y76000D02*
D03*
X388000Y86000D02*
D03*
Y76000D02*
D03*
X398000Y86000D02*
D03*
Y76000D02*
D03*
X408000Y86000D02*
D03*
Y76000D02*
D03*
X418000Y86000D02*
D03*
Y76000D02*
D03*
X428000Y86000D02*
D03*
Y76000D02*
D03*
X438000Y86000D02*
D03*
Y76000D02*
D03*
X448000Y86000D02*
D03*
Y76000D02*
D03*
X458000Y86000D02*
D03*
Y76000D02*
D03*
X468000Y86000D02*
D03*
Y76000D02*
D03*
X478000Y86000D02*
D03*
Y76000D02*
D03*
X488000Y86000D02*
D03*
Y76000D02*
D03*
X498000Y86000D02*
D03*
Y76000D02*
D03*
X508000Y86000D02*
D03*
Y276000D02*
D03*
X498000Y266000D02*
D03*
Y276000D02*
D03*
X488000Y266000D02*
D03*
Y276000D02*
D03*
X478000Y266000D02*
D03*
Y276000D02*
D03*
X468000Y266000D02*
D03*
Y276000D02*
D03*
X458000Y266000D02*
D03*
Y276000D02*
D03*
X448000Y266000D02*
D03*
Y276000D02*
D03*
X438000Y266000D02*
D03*
Y276000D02*
D03*
X428000Y266000D02*
D03*
Y276000D02*
D03*
X418000Y266000D02*
D03*
Y276000D02*
D03*
X408000Y266000D02*
D03*
Y276000D02*
D03*
X398000Y266000D02*
D03*
Y276000D02*
D03*
X388000Y266000D02*
D03*
Y276000D02*
D03*
X378000Y266000D02*
D03*
Y276000D02*
D03*
X368000Y266000D02*
D03*
Y276000D02*
D03*
X358000Y266000D02*
D03*
Y276000D02*
D03*
X348000Y266000D02*
D03*
Y276000D02*
D03*
X338000Y266000D02*
D03*
Y276000D02*
D03*
X328000Y266000D02*
D03*
Y276000D02*
D03*
X318000Y266000D02*
D03*
Y276000D02*
D03*
X308000Y266000D02*
D03*
Y276000D02*
D03*
X298000Y266000D02*
D03*
Y276000D02*
D03*
X288000Y266000D02*
D03*
Y276000D02*
D03*
D128*
X508000Y76000D02*
D03*
Y266000D02*
D03*
D129*
X123500Y436000D02*
D03*
X153000Y423480D02*
D03*
X123500D02*
D03*
X153000Y436000D02*
D03*
D130*
X104799Y487693D02*
D03*
X171701D02*
D03*
D131*
X579000Y50000D02*
D03*
X300000Y21000D02*
D03*
X21000Y387500D02*
D03*
Y406000D02*
D03*
Y251000D02*
D03*
X286200Y481000D02*
D03*
X399200D02*
D03*
X441000Y480000D02*
D03*
X579000Y476000D02*
D03*
X212000Y479000D02*
D03*
X230500D02*
D03*
X21000Y49000D02*
D03*
X579000Y300000D02*
D03*
X21000Y347000D02*
D03*
Y283000D02*
D03*
Y315000D02*
D03*
X76000Y479000D02*
D03*
X21000Y473500D02*
D03*
Y455000D02*
D03*
X579000Y430000D02*
D03*
Y340600D02*
D03*
D132*
X505000Y401000D02*
D03*
X20000Y18000D02*
D03*
X580000Y20000D02*
D03*
X99500Y399500D02*
D03*
D133*
X212000Y25000D02*
D03*
D134*
X65500Y426000D02*
D03*
Y387000D02*
D03*
X79000D02*
D03*
Y426000D02*
D03*
X196000Y395500D02*
D03*
X235000D02*
D03*
Y382000D02*
D03*
X196000D02*
D03*
D135*
X484000Y495450D02*
D03*
X506500Y476500D02*
D03*
X450768Y431000D02*
D03*
Y441000D02*
D03*
X193000Y7250D02*
D03*
X165000Y51000D02*
D03*
X305000Y359250D02*
D03*
X237000D02*
D03*
X262000D02*
D03*
X314000Y362500D02*
D03*
X295500Y368500D02*
D03*
X323000Y324000D02*
D03*
X308000Y322500D02*
D03*
X477000Y43000D02*
D03*
X121000Y11500D02*
D03*
X186500Y58500D02*
D03*
X506952Y470952D02*
D03*
X476000Y478000D02*
D03*
X188500Y293500D02*
D03*
X201500Y329500D02*
D03*
X191500Y336500D02*
D03*
X211000Y330500D02*
D03*
X389000Y205000D02*
D03*
X374500Y203500D02*
D03*
X381000Y219000D02*
D03*
X260000Y270500D02*
D03*
X274000D02*
D03*
X224263Y317263D02*
D03*
X213000Y270500D02*
D03*
X310000Y310000D02*
D03*
X314500Y317500D02*
D03*
X302452Y315548D02*
D03*
X364000Y334000D02*
D03*
X306500Y293500D02*
D03*
X169500Y344000D02*
D03*
X183500Y366500D02*
D03*
X267000Y270500D02*
D03*
X286000Y218000D02*
D03*
X256000Y369000D02*
D03*
X505030Y98680D02*
D03*
X502500Y136500D02*
D03*
X498000Y156000D02*
D03*
X494250Y225509D02*
D03*
X499000Y150000D02*
D03*
X492500Y230500D02*
D03*
X486500Y167500D02*
D03*
X531202Y259298D02*
D03*
X525000Y259500D02*
D03*
X511500Y246000D02*
D03*
X344500Y155000D02*
D03*
X496000Y102000D02*
D03*
X489500D02*
D03*
X519000Y89000D02*
D03*
X495500Y250000D02*
D03*
X428500Y107000D02*
D03*
X412000D02*
D03*
X420000D02*
D03*
X435500D02*
D03*
X449500Y121000D02*
D03*
X514500Y254500D02*
D03*
X483000Y177500D02*
D03*
X478000Y186500D02*
D03*
X473000Y180500D02*
D03*
X467500Y187000D02*
D03*
X463500Y200000D02*
D03*
X573000Y230500D02*
D03*
X562250Y273000D02*
D03*
X565500Y231000D02*
D03*
X591500Y236500D02*
D03*
X587500Y242000D02*
D03*
X581500Y246000D02*
D03*
X578000Y252000D02*
D03*
X335000Y150000D02*
D03*
X536719Y324310D02*
D03*
X537000Y331000D02*
D03*
X369000Y187000D02*
D03*
X359000Y176500D02*
D03*
X364000Y133500D02*
D03*
X354000Y165500D02*
D03*
X329000Y178000D02*
D03*
X334500Y97000D02*
D03*
X319000Y184000D02*
D03*
X451000Y220000D02*
D03*
X402500D02*
D03*
X396532Y124469D02*
D03*
X364000Y97000D02*
D03*
X354000Y96000D02*
D03*
X344547D02*
D03*
X394500Y226000D02*
D03*
X522500Y286500D02*
D03*
X512000D02*
D03*
X459000Y19000D02*
D03*
X440000Y13000D02*
D03*
X428000Y6000D02*
D03*
X431000Y57000D02*
D03*
X286000Y110000D02*
D03*
Y99000D02*
D03*
X252000Y122000D02*
D03*
X483000Y389000D02*
D03*
X510000Y381000D02*
D03*
X482000Y455000D02*
D03*
X504000Y373000D02*
D03*
X269000Y382000D02*
D03*
X412000Y313000D02*
D03*
X179000Y94000D02*
D03*
X508000Y464000D02*
D03*
X392000Y348000D02*
D03*
X365000Y345063D02*
D03*
X381000Y347000D02*
D03*
X504000Y458000D02*
D03*
X508000Y357000D02*
D03*
X486000Y448000D02*
D03*
X493000Y416000D02*
D03*
X414500Y474500D02*
D03*
X414000Y482000D02*
D03*
X373000Y412286D02*
D03*
X430000Y308000D02*
D03*
X465000Y292000D02*
D03*
X468744Y311000D02*
D03*
X411000Y336000D02*
D03*
X417000Y330000D02*
D03*
X502000Y450000D02*
D03*
X481000Y467000D02*
D03*
X485000Y476000D02*
D03*
X470000Y416000D02*
D03*
X505000Y317785D02*
D03*
X454000Y391518D02*
D03*
X453000Y384000D02*
D03*
X445000Y391000D02*
D03*
X476000Y389000D02*
D03*
X465000Y390000D02*
D03*
X488000Y340000D02*
D03*
X481000Y321000D02*
D03*
X389000Y295000D02*
D03*
X387000Y309000D02*
D03*
X445000Y436000D02*
D03*
X444000Y287000D02*
D03*
X418000Y466000D02*
D03*
X419000Y450000D02*
D03*
X420000Y415000D02*
D03*
X399000Y390000D02*
D03*
X408000D02*
D03*
X416000D02*
D03*
X437000Y391000D02*
D03*
X344000Y288000D02*
D03*
X357000Y345000D02*
D03*
X347000Y339000D02*
D03*
X352000Y354000D02*
D03*
X347500Y347260D02*
D03*
X340000Y341000D02*
D03*
X212000Y248000D02*
D03*
X409000Y250000D02*
D03*
X417000Y317839D02*
D03*
X402000Y339000D02*
D03*
X413000Y306000D02*
D03*
X386918Y327000D02*
D03*
X370000Y314000D02*
D03*
X411000Y299000D02*
D03*
X387000Y319000D02*
D03*
X404293Y297000D02*
D03*
X365000Y319000D02*
D03*
X368000Y327000D02*
D03*
X247000Y377000D02*
D03*
X334500Y347063D02*
D03*
X297677Y397071D02*
D03*
X261000Y386000D02*
D03*
X190000Y473000D02*
D03*
X19000Y422000D02*
D03*
X7000Y425000D02*
D03*
X200000Y407000D02*
D03*
X95000Y324000D02*
D03*
X401000Y418000D02*
D03*
X398000Y359000D02*
D03*
X494000Y321000D02*
D03*
X487000Y329000D02*
D03*
X11000Y140000D02*
D03*
X12000Y207000D02*
D03*
X394000Y61000D02*
D03*
X150000Y343000D02*
D03*
X312740Y355882D02*
D03*
X250000Y455000D02*
D03*
X196000Y435000D02*
D03*
X135000Y313000D02*
D03*
X50000Y336000D02*
D03*
X425000Y33000D02*
D03*
X225000Y71000D02*
D03*
X172000Y108000D02*
D03*
X136000Y53000D02*
D03*
X120000Y43000D02*
D03*
X188000Y257000D02*
D03*
X170000D02*
D03*
X152000D02*
D03*
X134000D02*
D03*
X116000D02*
D03*
X98000D02*
D03*
X80000D02*
D03*
X56000Y107000D02*
D03*
X60000Y69000D02*
D03*
X274000Y61000D02*
D03*
M02*
