G04*
G04 #@! TF.GenerationSoftware,Altium Limited,Altium Designer,23.1.1 (15)*
G04*
G04 Layer_Physical_Order=4*
G04 Layer_Color=16711680*
%FSLAX25Y25*%
%MOIN*%
G70*
G04*
G04 #@! TF.SameCoordinates,19538D7C-5156-4110-B39B-F750BC4F8D1F*
G04*
G04*
G04 #@! TF.FilePolarity,Positive*
G04*
G01*
G75*
%ADD11C,0.00787*%
%ADD12C,0.00500*%
%ADD14C,0.01000*%
%ADD19C,0.00394*%
%ADD20C,0.00197*%
%ADD40C,0.03000*%
%ADD92R,0.06181X0.06181*%
%ADD93C,0.06181*%
%ADD94C,0.04016*%
%ADD95C,0.09488*%
%ADD98R,0.06181X0.06181*%
%ADD106C,0.01598*%
%ADD107C,0.01500*%
%ADD108R,0.06024X0.06024*%
%ADD109C,0.06024*%
%ADD110C,0.12598*%
%ADD111C,0.13780*%
%ADD112C,0.08976*%
%ADD113R,0.08976X0.08976*%
%ADD114C,0.08000*%
%ADD115C,0.07000*%
%ADD116C,0.11457*%
%ADD117C,0.05984*%
%ADD118C,0.16929*%
%ADD119C,0.07087*%
%ADD120R,0.06000X0.06000*%
G36*
X156000Y424000D02*
X156000Y372544D01*
X155500Y372536D01*
X154916Y373119D01*
X153997Y373500D01*
X153003D01*
X152084Y373119D01*
X151381Y372416D01*
X151000Y371497D01*
Y370503D01*
X151381Y369584D01*
X152084Y368881D01*
X153003Y368500D01*
X153997D01*
X154916Y368881D01*
X155500Y369464D01*
X156000Y369456D01*
Y356500D01*
Y354529D01*
X154500D01*
X153915Y354413D01*
X153419Y354081D01*
X147919Y348581D01*
X147587Y348085D01*
X147471Y347500D01*
X147587Y346915D01*
X147919Y346419D01*
X148415Y346087D01*
X149000Y345971D01*
X149585Y346087D01*
X150081Y346419D01*
X155133Y351471D01*
X156000D01*
Y344000D01*
X153029Y341029D01*
X140471D01*
X136000Y345500D01*
Y423000D01*
X140000Y427000D01*
X153000D01*
X156000Y424000D01*
D02*
G37*
D11*
X148575Y460724D02*
X178496D01*
X148575D02*
Y498008D01*
X178496D01*
Y460724D02*
Y498008D01*
X635831Y398228D02*
Y428150D01*
X673114D01*
Y398228D02*
Y428150D01*
X635831Y398228D02*
X673114D01*
X637630Y74728D02*
X674913D01*
Y116461D01*
X637630D02*
X674913D01*
X637630Y74728D02*
Y116461D01*
X193887Y387032D02*
X210447D01*
Y373646D02*
Y387032D01*
X193887Y373646D02*
X210447D01*
X193887D02*
Y387032D01*
X39181Y103728D02*
Y145461D01*
X1898Y103728D02*
X39181D01*
X1898D02*
Y145461D01*
X39181D01*
X606350Y42886D02*
Y80169D01*
Y42886D02*
X636272D01*
Y80169D01*
X606350D02*
X636272D01*
X229220Y396307D02*
Y409693D01*
Y396307D02*
X245780D01*
Y409693D01*
X229220D02*
X245780D01*
X149720Y373807D02*
Y387193D01*
Y373807D02*
X166280D01*
Y387193D01*
X149720D02*
X166280D01*
X2898Y205961D02*
X40181D01*
X2898Y176039D02*
Y205961D01*
Y176039D02*
X40181D01*
Y205961D01*
X2898Y237461D02*
X40181D01*
X2898Y207539D02*
Y237461D01*
Y207539D02*
X40181D01*
Y237461D01*
X2898Y268961D02*
X40181D01*
X2898Y239039D02*
Y268961D01*
Y239039D02*
X40181D01*
Y268961D01*
X139789Y43398D02*
Y80681D01*
Y43398D02*
X169711D01*
Y80681D01*
X139789D02*
X169711D01*
X71289Y43398D02*
Y80681D01*
Y43398D02*
X101211D01*
Y80681D01*
X71289D02*
X101211D01*
X174039Y43398D02*
Y80681D01*
Y43398D02*
X203961D01*
Y80681D01*
X174039D02*
X203961D01*
X37039Y79681D02*
X66961D01*
Y42398D02*
Y79681D01*
X37039Y42398D02*
X66961D01*
X37039D02*
Y79681D01*
X105539Y43398D02*
Y80681D01*
Y43398D02*
X135461D01*
Y80681D01*
X105539D02*
X135461D01*
X2898Y300461D02*
X40181D01*
X2898Y270539D02*
Y300461D01*
Y270539D02*
X40181D01*
Y300461D01*
D12*
X206000Y390000D02*
X223000D01*
X208500Y348500D02*
X208750Y348250D01*
X265149Y121149D02*
X267000Y123000D01*
X134260Y121149D02*
X265149D01*
X131800Y118689D02*
X134260Y121149D01*
X13000Y130500D02*
X13703D01*
X255750Y123250D02*
X260000Y127500D01*
X309787Y486500D02*
X318150Y478138D01*
X231400Y486500D02*
X309787D01*
X202500Y393500D02*
X206000Y390000D01*
X245000Y85000D02*
X323000D01*
X243000Y83000D02*
X245000Y85000D01*
X243000Y79500D02*
Y83000D01*
X619238Y156238D02*
X623500Y160500D01*
X551735Y156238D02*
X619238D01*
X540262Y167711D02*
X551735Y156238D01*
X540262Y167711D02*
Y167738D01*
X537500Y170500D02*
X540262Y167738D01*
D14*
X295534Y374561D02*
G03*
X293439Y372466I1966J-4061D01*
G01*
X26251Y123048D02*
G03*
X26549Y123000I305J952D01*
G01*
X18573Y127618D02*
G03*
X24806Y125909I6246J10564D01*
G01*
X175500Y393000D02*
X183000Y385500D01*
X280000Y385500D01*
X295534Y374561D02*
X296473Y375500D01*
X291473Y370500D02*
X293439Y372466D01*
X153500Y371000D02*
X198414D01*
X231250Y393250D02*
X231500Y393500D01*
X208250Y393250D02*
X231250D01*
X254500Y393500D02*
X269500D01*
X225045Y343500D02*
X226045Y342500D01*
X197672Y343500D02*
X225045D01*
X226045Y342500D02*
X254500D01*
X78500Y310500D02*
X78750Y310750D01*
X101750D02*
X102000Y311000D01*
X237000Y310000D02*
X237500Y309500D01*
X50500Y296000D02*
X91000D01*
X222571Y411406D02*
X222594Y411383D01*
X394500Y409500D02*
X591000D01*
X351000Y409000D02*
X394500D01*
X342500Y400500D02*
X351000Y409000D01*
X583750Y405250D02*
X584000Y405500D01*
X379500Y405000D02*
X379750Y405250D01*
X583750D01*
X211750Y373750D02*
X251750D01*
X268750Y374250D02*
X269000Y374500D01*
X172500Y377000D02*
X210191D01*
X268500Y374000D02*
X268750Y374250D01*
X252000Y374000D02*
X268500D01*
X210191Y377000D02*
X212250Y379059D01*
X251750Y373750D02*
X252000Y374000D01*
X198000Y370500D02*
X291473D01*
X198000D02*
X198465Y370948D01*
X245500Y419000D02*
X291500D01*
X234500Y430000D02*
X245500Y419000D01*
X243500Y431000D02*
X252500Y422000D01*
X305500D01*
X251000Y431000D02*
X256000Y426000D01*
X279500D01*
X161500Y430000D02*
X234500D01*
X228500Y466000D02*
X316500D01*
X175500Y463000D02*
X219900D01*
X231600Y474700D01*
X235459Y460000D02*
X236959Y461500D01*
X198500Y460000D02*
X235459D01*
X236959Y461500D02*
X237500D01*
X316500Y466000D02*
X324500Y458000D01*
X172000Y451000D02*
X172086D01*
X173586Y449500D01*
X373871D01*
X375871Y451500D01*
X150500Y435000D02*
X162000Y446500D01*
X259500D01*
X264871Y438500D02*
X265206Y438835D01*
X267335D01*
X169000Y434500D02*
X169250Y434750D01*
X181750D01*
X182250Y435250D01*
X150500Y431000D02*
Y435000D01*
X181829Y466500D02*
X182329Y466000D01*
X211100D01*
X167500Y466500D02*
X181829D01*
X187500Y415000D02*
X200500Y402000D01*
X183500Y415000D02*
X187500D01*
X184500Y401500D02*
X187500Y398500D01*
X270257D01*
X200500Y402000D02*
X206500D01*
X422250Y330250D02*
X423000Y329500D01*
X212250Y379059D02*
X212471Y379279D01*
X257780D01*
X258000Y379500D01*
X276000D01*
X537416Y434957D02*
X538459Y436000D01*
X266411Y434957D02*
X537416D01*
X266118Y435250D02*
X266411Y434957D01*
X538459Y436000D02*
X538500D01*
X182250Y435250D02*
X266118D01*
X254500Y362000D02*
X399959D01*
X401459Y360500D02*
X402000D01*
X399959Y362000D02*
X401459Y360500D01*
X268750Y330250D02*
X422250D01*
X185672Y331500D02*
X197672Y343500D01*
X523000Y420000D02*
X601000D01*
X211100Y466000D02*
X219800Y474700D01*
X412000Y356000D02*
X417500Y350500D01*
X398500Y356000D02*
X412000D01*
X276000Y358000D02*
X396500D01*
X398500Y356000D01*
X281914Y353000D02*
X282030Y352884D01*
X154500Y353000D02*
X281914D01*
X149000Y347500D02*
X154500Y353000D01*
X282030Y352884D02*
X283117D01*
X283500Y352501D01*
X256500Y109000D02*
X257041D01*
X189500D02*
X256500D01*
X43000Y179500D02*
X48000Y174500D01*
X5000Y151000D02*
X16500Y162500D01*
X5000Y115299D02*
Y151000D01*
X35592Y84707D02*
X214313D01*
X5000Y115299D02*
X35592Y84707D01*
X67483Y334900D02*
X75883Y326500D01*
X21000Y334900D02*
X67483D01*
X128500Y341500D02*
X138500Y331500D01*
X38000Y341500D02*
X128500D01*
X26000Y353500D02*
X38000Y341500D01*
X138500Y331500D02*
X185672D01*
X137271Y339500D02*
X174000D01*
X132271Y344500D02*
X137271Y339500D01*
X106500Y344500D02*
X132271D01*
X75883Y326500D02*
X183500D01*
X231919Y324500D02*
X232169Y324750D01*
X183500Y326500D02*
X193500Y336500D01*
X232169Y324750D02*
X303000D01*
X14200Y329900D02*
X19600Y324500D01*
X231919D01*
X193500Y336500D02*
X322500D01*
X431000Y321000D02*
X431500Y320500D01*
X190500Y321000D02*
X431000D01*
X14200Y341700D02*
X21000Y334900D01*
X170000Y379500D02*
X172500Y377000D01*
X170000Y374000D02*
X170250Y373750D01*
X211250D01*
X270257Y398500D02*
X272257Y400500D01*
X289500Y243000D02*
X607459D01*
X286500D02*
X289500D01*
X266883Y458883D02*
X268000Y460000D01*
X410959Y43000D02*
X412459Y44500D01*
X220000Y43000D02*
X410959D01*
X412459Y44500D02*
X413000D01*
X611414Y80000D02*
X611531Y80117D01*
X361021Y49000D02*
X485500D01*
X253500Y52000D02*
X481500D01*
X253500Y80000D02*
X611414D01*
X485500Y49000D02*
X494457Y57957D01*
X382500Y76000D02*
X490000D01*
X356500Y72000D02*
X422500D01*
X344000Y68000D02*
X463500D01*
X481500Y52000D02*
X506750Y77250D01*
X611531Y80117D02*
X612617D01*
X613000Y80500D01*
X344250Y58250D02*
X481250D01*
X358021Y46000D02*
X361021Y49000D01*
X494457Y58589D02*
X509912Y74045D01*
X481250Y58250D02*
X481500Y58500D01*
X344000Y58000D02*
X344250Y58250D01*
X494457Y57957D02*
Y58589D01*
X509912Y74045D02*
X624544D01*
X506750Y77250D02*
X620250D01*
X624544Y74045D02*
X639500Y89000D01*
X320521Y102000D02*
X550959D01*
X324059Y119000D02*
X512500D01*
X550959Y102000D02*
X551959Y103000D01*
X620414Y110000D02*
X621914Y108500D01*
X258041Y110000D02*
X620414D01*
X391500Y89000D02*
X489500D01*
X257041Y109000D02*
X258041Y110000D01*
X52250Y109250D02*
X52500Y109000D01*
X621914Y108500D02*
X622000D01*
X551959Y103000D02*
X552500D01*
X246000Y102500D02*
X320021D01*
X320521Y102000D01*
X620250Y77250D02*
X632000Y89000D01*
X323059Y118000D02*
X324059Y119000D01*
X353500Y75000D02*
X356500Y72000D01*
X230500Y46000D02*
X358021D01*
X566500Y489000D02*
X579500D01*
X558300Y480800D02*
X566500Y489000D01*
X565500Y484500D02*
X572500D01*
X563500Y479000D02*
X566000D01*
X374900Y480800D02*
X558300D01*
X368100Y474000D02*
X374900Y480800D01*
X353500Y465000D02*
X424919D01*
X546300Y465300D02*
X565500Y484500D01*
X426619Y463300D02*
X547800D01*
X363300Y467000D02*
X425747D01*
X427447Y465300D01*
X546300D01*
X356300Y474000D02*
X363300Y467000D01*
X344500Y474000D02*
X353500Y465000D01*
X547800Y463300D02*
X563500Y479000D01*
X424919Y465000D02*
X426619Y463300D01*
X523500Y458000D02*
X545500Y436000D01*
X324500Y458000D02*
X523500D01*
X545500Y435500D02*
Y436000D01*
X520757Y418000D02*
X523757Y415000D01*
X474000Y418000D02*
X520757D01*
X523757Y415000D02*
X585000D01*
X529500Y324000D02*
X530000Y323500D01*
X552500D01*
X577500Y350500D02*
X582500Y345500D01*
X592500D02*
X597500Y350500D01*
X582500Y345500D02*
X592500D01*
X296473Y375500D02*
X572500D01*
X417500Y350500D02*
X429500Y362500D01*
X663000D01*
X483500Y356500D02*
X582500D01*
X477500Y350500D02*
X483500Y356500D01*
X423500Y330500D02*
X632000D01*
X377500Y340500D02*
X383000Y335000D01*
X542500D01*
X608459Y242000D02*
X609000D01*
X607459Y243000D02*
X608459Y242000D01*
X327500Y462000D02*
X379500D01*
X572500Y375500D02*
X592500D01*
X466000Y401000D02*
X489500D01*
X318500Y469500D02*
X328000Y479000D01*
X363100D01*
X368100Y474000D01*
X91000Y296000D02*
X131500D01*
X523250Y451250D02*
X523500Y451000D01*
X523000Y451500D02*
X523250Y451250D01*
X375871Y451500D02*
X523000D01*
X548000Y431500D02*
X552000Y435500D01*
X519000Y431500D02*
X548000D01*
X550500Y426000D02*
X558000Y433500D01*
Y436500D01*
X518000Y493000D02*
X519000Y492000D01*
X270000Y496500D02*
X514000D01*
X267000Y493500D02*
X270000Y496500D01*
X514500Y426000D02*
X550500D01*
X372962Y493000D02*
X518000D01*
X371462Y491500D02*
X372962Y493000D01*
X229329Y491500D02*
X371462D01*
X208000Y486500D02*
X215000Y493500D01*
X224800Y486971D02*
X229329Y491500D01*
X220271Y486971D02*
X224800D01*
X219800Y486500D02*
X220271Y486971D01*
X215000Y493500D02*
X267000D01*
X377629Y490800D02*
X499659D01*
X500459Y490000D02*
X501000D01*
X373100Y486271D02*
X377629Y490800D01*
X499659D02*
X500459Y490000D01*
X271537Y484750D02*
X278150Y478138D01*
X248035Y484750D02*
X271537D01*
X243785Y480500D02*
X248035Y484750D01*
X208000Y474700D02*
X213800Y480500D01*
X243785D01*
X211500Y373500D02*
X211750Y373750D01*
X211250D02*
X211500Y373500D01*
X138500Y289000D02*
X327500D01*
X131500Y296000D02*
X138500Y289000D01*
X47000Y292500D02*
X50500Y296000D01*
X48000Y174500D02*
X129000D01*
X25811Y191000D02*
X55500D01*
X96500Y232000D01*
X130000Y175500D02*
Y179000D01*
X129000Y174500D02*
X130000Y175500D01*
X423000Y209500D02*
X423500Y209000D01*
X422500Y210000D02*
X423000Y209500D01*
X339000Y75000D02*
X353500D01*
X249500Y61115D02*
X325115D01*
X339000Y75000D01*
X342000Y210000D02*
X422500D01*
X174750Y158250D02*
X341750D01*
X342000Y158500D01*
X174500Y158000D02*
X174750Y158250D01*
X173500Y105000D02*
X205000D01*
X652110Y447957D02*
X657654Y453500D01*
X640043Y447957D02*
X652110D01*
X657654Y453500D02*
X664500D01*
X624500Y463500D02*
X640043Y447957D01*
X24811Y118689D02*
X131800D01*
X19279Y123280D02*
X26019D01*
X16996Y120996D02*
X19279Y123280D01*
X13000Y118689D02*
X15307Y120996D01*
X16996D01*
X26549Y123000D02*
X132328D01*
X26251Y123048D02*
X26251Y123048D01*
X26019Y123280D02*
X26251Y123048D01*
X13703Y130500D02*
X18573Y127618D01*
X24806Y125909D02*
X131465Y125793D01*
X132293Y125793D01*
X132328Y123000D02*
X254922Y123250D01*
X132293Y125793D02*
X137500Y131000D01*
X254922Y123250D02*
X255750D01*
X135000Y118000D02*
X323059D01*
X135000Y137000D02*
X261500D01*
X207000Y141500D02*
X288459D01*
X289459Y142500D02*
X290000D01*
X288459Y141500D02*
X289459Y142500D01*
X126000Y128000D02*
X135000Y137000D01*
X196559Y163000D02*
X347500D01*
X195559Y164000D02*
X196559Y163000D01*
X45000Y164000D02*
X195559D01*
X123750Y151750D02*
X468757D01*
X70000Y133500D02*
X91165Y154665D01*
X292626D02*
X292710Y154750D01*
X91165Y154665D02*
X292626D01*
X104500Y132500D02*
X123750Y151750D01*
X292710Y154750D02*
X494170D01*
X262736Y148500D02*
X263224Y148988D01*
X165000Y148500D02*
X262736D01*
X183000Y145500D02*
X281233D01*
X282721Y146988D01*
X263224Y148988D02*
X386840D01*
X489250Y148750D02*
X492000Y151500D01*
X386840Y148988D02*
X387078Y148750D01*
X489250D01*
X386249Y146750D02*
X497012D01*
X386011Y146988D02*
X386249Y146750D01*
X497012D02*
X498762Y148500D01*
X282721Y146988D02*
X386011D01*
X27311Y128000D02*
X126000D01*
X24811Y130500D02*
X27311Y128000D01*
X137500Y131000D02*
X267000D01*
X157000Y109000D02*
X189500D01*
X52500D02*
X92000D01*
X124000D01*
X157000D01*
X443000Y43959D02*
Y44500D01*
Y43959D02*
X444336Y42623D01*
Y42164D02*
Y42623D01*
Y42164D02*
X445043Y41457D01*
X575768D01*
X589811Y55500D01*
X216750Y105750D02*
X372250D01*
X372500Y106000D01*
X347500Y193000D02*
X481459D01*
X481959Y193500D02*
X482500D01*
X481459Y193000D02*
X481959Y193500D01*
X142743Y243500D02*
X286000D01*
X286500Y243000D01*
X184750Y208750D02*
X202750D01*
X213000Y198500D01*
X13661Y233551D02*
X18111Y238000D01*
X40000D02*
X56000Y222000D01*
X18111Y238000D02*
X40000D01*
X494170Y154750D02*
X494420Y154500D01*
X104500Y132000D02*
Y132500D01*
X216500Y105500D02*
X216750Y105750D01*
X480243Y448500D02*
X483743Y445000D01*
X491000D01*
X441500Y448500D02*
X480243D01*
X491000Y445000D02*
X506000D01*
X66000Y179000D02*
X86000Y199000D01*
X426047Y398047D02*
X426094Y398095D01*
X426000Y398000D02*
X426047Y398047D01*
X426094Y398095D02*
X442095D01*
X368571Y486271D02*
X373100D01*
X368100Y485800D02*
X368571Y486271D01*
X374500Y431000D02*
X400500D01*
X344500Y485800D02*
X356300D01*
X411500Y444500D02*
X455500D01*
X410957Y445043D02*
X411500Y444500D01*
X206700Y497000D02*
X262500D01*
X196200Y486500D02*
X206700Y497000D01*
X272257Y400500D02*
X306000D01*
X208000Y393000D02*
X208250Y393250D01*
X141000Y294500D02*
X190500D01*
X151000Y261000D02*
X151729D01*
X98500D02*
X151000D01*
X86000Y199000D02*
X199175D01*
X199294Y198881D01*
X152229Y260500D02*
X203000D01*
X151729Y261000D02*
X152229Y260500D01*
X140743Y241500D02*
X142743Y243500D01*
X140500Y241500D02*
X140743D01*
X185500Y240500D02*
X208000D01*
X204000Y185500D02*
X210000Y191500D01*
X227500Y87500D02*
X258000D01*
X266000Y95500D01*
X204000Y112000D02*
X242959D01*
X243959Y113000D01*
X244500D01*
X498762Y148500D02*
X503000D01*
X494420Y154500D02*
X522000D01*
X187500Y185500D02*
X204000D01*
X108000Y179000D02*
X120500Y191500D01*
X190500D01*
X87000Y179000D02*
X103500Y195500D01*
X196000D01*
X169500Y179000D02*
X225000D01*
X229000Y183000D01*
X203729Y176000D02*
X231500D01*
X202479Y174750D02*
X203729Y176000D01*
X153750Y174750D02*
X202479D01*
X149500Y179000D02*
X153750Y174750D01*
X92500Y255000D02*
X98500Y261000D01*
X132000Y285500D02*
X137500Y280000D01*
X25811Y285500D02*
X132000D01*
X31354Y216957D02*
X72623D01*
X25811Y222500D02*
X31354Y216957D01*
X72623D02*
X77667Y222000D01*
X13661Y222839D02*
Y233551D01*
Y222839D02*
X14000Y222500D01*
X659500Y397500D02*
X664000Y402000D01*
Y411311D01*
X624000Y397500D02*
X659500D01*
X662311Y413000D02*
X664000Y411311D01*
X0Y500500D02*
X675000D01*
Y39000D02*
Y500500D01*
X0Y39000D02*
X675000D01*
X0D02*
Y500500D01*
D19*
X218000Y192532D02*
Y196468D01*
X216032Y194500D02*
X219969D01*
X220532Y323000D02*
X224468D01*
X222500Y321031D02*
Y324969D01*
D20*
X245138Y296031D02*
Y349969D01*
X199862Y296031D02*
Y349969D01*
X245138D01*
X199862Y296031D02*
X245138D01*
D40*
X336500Y425500D02*
D03*
X254750Y361750D02*
D03*
X254250Y342750D02*
D03*
X148500Y422500D02*
D03*
X141500Y416000D02*
D03*
X148500D02*
D03*
X141500Y422500D02*
D03*
X280000Y385500D02*
D03*
X298000Y393000D02*
D03*
X238000Y393500D02*
D03*
X269500D02*
D03*
X231500D02*
D03*
X254500D02*
D03*
X135000Y306799D02*
D03*
X237500Y418500D02*
D03*
X288000Y408500D02*
D03*
X102000Y311000D02*
D03*
X164500Y314299D02*
D03*
X288000Y302500D02*
D03*
X91000Y296000D02*
D03*
X212000Y303000D02*
D03*
X342500Y400500D02*
D03*
X379500Y405000D02*
D03*
X211500Y373500D02*
D03*
X268750Y374250D02*
D03*
X252000Y374000D02*
D03*
X291500Y419000D02*
D03*
X305500Y422000D02*
D03*
X279500Y426000D02*
D03*
X298500Y414500D02*
D03*
X243500Y431000D02*
D03*
X292500Y348000D02*
D03*
X228500Y466000D02*
D03*
X237500Y461500D02*
D03*
X259500Y446500D02*
D03*
X221500Y449500D02*
D03*
X198500Y460000D02*
D03*
X172000Y451000D02*
D03*
X169000Y434500D02*
D03*
X150500Y431000D02*
D03*
X161500Y430000D02*
D03*
X167500Y466500D02*
D03*
X232000Y362500D02*
D03*
X182000Y435000D02*
D03*
X183500Y415000D02*
D03*
X184500Y401500D02*
D03*
Y408000D02*
D03*
X175386Y414437D02*
D03*
X206500Y412500D02*
D03*
Y402000D02*
D03*
X194000Y440000D02*
D03*
X222571Y411406D02*
D03*
X223000Y390000D02*
D03*
X226000Y404500D02*
D03*
X258000Y379500D02*
D03*
X260500Y431500D02*
D03*
X251000Y431000D02*
D03*
X237500Y309500D02*
D03*
X268750Y330250D02*
D03*
X208500Y348500D02*
D03*
X601000Y420000D02*
D03*
X591000Y409500D02*
D03*
X584000Y405500D02*
D03*
X175500Y463000D02*
D03*
X276000Y358000D02*
D03*
X283500Y352501D02*
D03*
X42500Y180000D02*
D03*
X119500Y329500D02*
D03*
X174000Y339500D02*
D03*
X303000Y324750D02*
D03*
X170000Y374000D02*
D03*
Y379500D02*
D03*
X402000Y360500D02*
D03*
X159000Y362000D02*
D03*
X106500Y344500D02*
D03*
X175500Y393000D02*
D03*
X188500Y381500D02*
D03*
X413000Y44500D02*
D03*
X422500Y72000D02*
D03*
X391500Y89000D02*
D03*
X220000Y43000D02*
D03*
X230500Y46000D02*
D03*
X579500Y489000D02*
D03*
X572500Y484500D02*
D03*
X566000Y479000D02*
D03*
X585000Y415000D02*
D03*
X474000Y418000D02*
D03*
X529500Y323000D02*
D03*
X552500Y323500D02*
D03*
X530000Y444500D02*
D03*
X622000Y108500D02*
D03*
X663000Y362500D02*
D03*
X632000Y330500D02*
D03*
X624420Y442546D02*
D03*
X542500Y335000D02*
D03*
X564500Y435500D02*
D03*
X609000Y242000D02*
D03*
X541500Y447000D02*
D03*
X588000Y478500D02*
D03*
X379500Y462000D02*
D03*
X327500D02*
D03*
X592500Y375500D02*
D03*
X394500Y409000D02*
D03*
X318500Y469500D02*
D03*
X523000Y420000D02*
D03*
X523250Y451250D02*
D03*
X552000Y435500D02*
D03*
X545500D02*
D03*
X558000D02*
D03*
X519000Y431500D02*
D03*
Y492000D02*
D03*
X514000Y496500D02*
D03*
X514500Y426000D02*
D03*
X501000Y490000D02*
D03*
X538500Y435500D02*
D03*
X423500Y330500D02*
D03*
X276000Y379500D02*
D03*
X212250Y379059D02*
D03*
X327500Y289000D02*
D03*
X47000Y292500D02*
D03*
X130000Y179000D02*
D03*
X249500Y61115D02*
D03*
X423000Y209500D02*
D03*
X342000Y210000D02*
D03*
Y158500D02*
D03*
X174500Y158000D02*
D03*
X220000Y80500D02*
D03*
X214313Y84707D02*
D03*
X205000Y105000D02*
D03*
X173500D02*
D03*
X639500Y89000D02*
D03*
X632000D02*
D03*
X624500Y463500D02*
D03*
X135000Y118000D02*
D03*
X261500Y137000D02*
D03*
X290000Y142500D02*
D03*
X261500Y168500D02*
D03*
X52000Y131000D02*
D03*
X267000Y123000D02*
D03*
Y131000D02*
D03*
X260000Y127500D02*
D03*
X443000Y44500D02*
D03*
X382500Y76000D02*
D03*
X490000D02*
D03*
X489500Y89000D02*
D03*
X545500Y114000D02*
D03*
X518000Y98500D02*
D03*
X562500D02*
D03*
X364000Y96500D02*
D03*
X562500Y89000D02*
D03*
X364000Y90500D02*
D03*
X372500Y106000D02*
D03*
X347500Y193000D02*
D03*
Y163000D02*
D03*
X613000Y80500D02*
D03*
X552500Y103000D02*
D03*
X463500Y68000D02*
D03*
X295500Y95000D02*
D03*
X213000Y198500D02*
D03*
X222000Y192000D02*
D03*
X202500Y393500D02*
D03*
X68500Y303500D02*
D03*
X144000Y157665D02*
D03*
X42500Y141000D02*
D03*
X86500Y140500D02*
D03*
X70000Y133500D02*
D03*
X92000Y109000D02*
D03*
X104500Y132000D02*
D03*
X124000Y109000D02*
D03*
X246000Y102500D02*
D03*
X253500Y80000D02*
D03*
X243000Y79500D02*
D03*
X323000Y85000D02*
D03*
X489500Y401000D02*
D03*
X441500Y448500D02*
D03*
X491000Y445000D02*
D03*
X66000Y179000D02*
D03*
X45000Y163000D02*
D03*
X614500Y435500D02*
D03*
X466000Y401000D02*
D03*
X582500Y356500D02*
D03*
X479000Y445500D02*
D03*
X506000Y445000D02*
D03*
X426047Y398047D02*
D03*
X442095Y398095D02*
D03*
X400500Y431000D02*
D03*
X374500D02*
D03*
X455500Y444500D02*
D03*
X411500D02*
D03*
X366500Y426500D02*
D03*
X262500Y497000D02*
D03*
X306000Y400500D02*
D03*
X227500Y416500D02*
D03*
X208000Y393000D02*
D03*
X431500Y320500D02*
D03*
X190500Y321000D02*
D03*
X198000Y370500D02*
D03*
X572500Y375500D02*
D03*
X153500Y371000D02*
D03*
X190500Y294500D02*
D03*
X141000D02*
D03*
X78500Y310500D02*
D03*
X151000Y261000D02*
D03*
X184750Y208750D02*
D03*
X289500Y243000D02*
D03*
X199294Y198881D02*
D03*
X203000Y260500D02*
D03*
X207000Y141500D02*
D03*
X140500Y241500D02*
D03*
X185500Y240500D02*
D03*
X208000D02*
D03*
X210000Y191500D02*
D03*
X266000Y95500D02*
D03*
X256500Y109000D02*
D03*
X227500Y87500D02*
D03*
X216500Y105500D02*
D03*
X204000Y112000D02*
D03*
X244500Y113000D02*
D03*
X512500Y119000D02*
D03*
X468757Y151750D02*
D03*
X492000Y151500D02*
D03*
X340000Y95500D02*
D03*
X503000Y148500D02*
D03*
X187500Y185500D02*
D03*
X190500Y191500D02*
D03*
X196000Y195500D02*
D03*
X229000Y183000D02*
D03*
X231500Y176000D02*
D03*
X183000Y145500D02*
D03*
X92500Y255000D02*
D03*
X482500Y193500D02*
D03*
X137500Y280000D02*
D03*
X86500Y232000D02*
D03*
X175500D02*
D03*
X130000D02*
D03*
X153500Y229500D02*
D03*
X108500D02*
D03*
X67000D02*
D03*
X115000Y133500D02*
D03*
X232500Y82000D02*
D03*
X165000Y148500D02*
D03*
X253500Y52000D02*
D03*
X624000Y397500D02*
D03*
X481500Y58500D02*
D03*
X189500Y109000D02*
D03*
X157000D02*
D03*
X52500D02*
D03*
X522000Y154500D02*
D03*
X169500Y179000D02*
D03*
X149500D02*
D03*
X108000D02*
D03*
X87000D02*
D03*
X322500Y336500D02*
D03*
D92*
X163535Y486905D02*
D03*
X621311Y53988D02*
D03*
X154750Y54500D02*
D03*
X86250D02*
D03*
X189000D02*
D03*
X52000Y53500D02*
D03*
X120500Y54500D02*
D03*
D93*
X163535Y475095D02*
D03*
X650201Y413189D02*
D03*
X652000Y89689D02*
D03*
Y101500D02*
D03*
X663811Y89689D02*
D03*
X13000Y130500D02*
D03*
X24811Y118689D02*
D03*
Y130500D02*
D03*
X621311Y65799D02*
D03*
X25811Y191000D02*
D03*
Y222500D02*
D03*
Y254000D02*
D03*
X154750Y66311D02*
D03*
X86250D02*
D03*
X189000D02*
D03*
X52000Y65311D02*
D03*
X120500Y66311D02*
D03*
X25811Y285500D02*
D03*
D94*
X175347Y471394D02*
D03*
X151724D02*
D03*
X646500Y401378D02*
D03*
Y425000D02*
D03*
X601622Y51799D02*
D03*
X554378D02*
D03*
X648299Y77878D02*
D03*
Y113311D02*
D03*
X28512Y106878D02*
D03*
Y142311D02*
D03*
X633122Y69500D02*
D03*
X609500D02*
D03*
X29512Y179189D02*
D03*
Y202811D02*
D03*
Y210689D02*
D03*
Y234311D02*
D03*
Y242189D02*
D03*
Y265811D02*
D03*
X166561Y70012D02*
D03*
X142939D02*
D03*
X98061D02*
D03*
X74439D02*
D03*
X200811D02*
D03*
X177189D02*
D03*
X40189Y69012D02*
D03*
X63811D02*
D03*
X132311Y70012D02*
D03*
X108689D02*
D03*
X29512Y273689D02*
D03*
Y297311D02*
D03*
D95*
X172000Y481000D02*
D03*
X155071D02*
D03*
X656106Y404724D02*
D03*
Y421654D02*
D03*
X657905Y109965D02*
D03*
Y81224D02*
D03*
X18905Y138965D02*
D03*
Y110224D02*
D03*
X629776Y59894D02*
D03*
X612847D02*
D03*
X19906Y182535D02*
D03*
Y199465D02*
D03*
Y214035D02*
D03*
Y230965D02*
D03*
Y245535D02*
D03*
Y262465D02*
D03*
X163215Y60405D02*
D03*
X146285D02*
D03*
X94715D02*
D03*
X77785D02*
D03*
X197465D02*
D03*
X180535D02*
D03*
X43535Y59405D02*
D03*
X60465D02*
D03*
X128965Y60405D02*
D03*
X112035D02*
D03*
X19906Y277035D02*
D03*
Y293965D02*
D03*
D98*
X662012Y413189D02*
D03*
X663811Y101500D02*
D03*
X13000Y118689D02*
D03*
X14000Y191000D02*
D03*
Y222500D02*
D03*
Y254000D02*
D03*
Y285500D02*
D03*
D106*
X238000Y393500D02*
X242451Y389049D01*
X273500D01*
X277451Y393000D01*
X298000D01*
X68500Y303500D02*
X211121D01*
X211621Y303000D01*
X212000D01*
X237500Y418500D02*
X241500Y414500D01*
X298500D01*
X285117Y411383D02*
X288000Y408500D01*
X222594Y411383D02*
X285117D01*
X235621Y311000D02*
X236853Y309768D01*
X102000Y311000D02*
X235621D01*
X236853Y309768D02*
X237042Y309958D01*
X78750Y310750D02*
X101750D01*
X212048Y303000D02*
X287121D01*
X287621Y302500D02*
X288000D01*
X287121Y303000D02*
X287621Y302500D01*
X292250Y348250D02*
X292500Y348000D01*
X208750Y348250D02*
X292250D01*
D107*
X633785Y54785D02*
G03*
X634884Y55884I-4010J5108D01*
G01*
X636270Y57270D01*
Y62661D01*
X632400Y53400D02*
X633785Y54785D01*
X621900Y53400D02*
X632400D01*
X636270Y62661D02*
X637759Y64150D01*
X657793D01*
X621311Y53988D02*
X621900Y53400D01*
X365750Y92250D02*
X561871D01*
X561528Y94750D02*
X562500Y95722D01*
X365750Y94750D02*
X561528D01*
X562500Y95722D02*
Y95879D01*
X561871Y92250D02*
X562500Y91621D01*
X364000Y90500D02*
X365750Y92250D01*
X364000Y96500D02*
X365750Y94750D01*
X647344Y96845D02*
X652000Y101500D01*
X657351Y96149D01*
X598500Y95000D02*
X602000Y98500D01*
X657351Y96149D02*
X664196D01*
X626797Y96845D02*
X647344D01*
X624703Y94750D02*
X626797Y96845D01*
X602000Y98500D02*
X605750Y94750D01*
X562500Y95879D02*
Y98500D01*
X563379Y95000D02*
X598500D01*
X562500Y95879D02*
X563379Y95000D01*
X668652Y86619D02*
Y91694D01*
X664695Y77587D02*
Y82662D01*
Y77587D02*
X666306Y75976D01*
X664196Y96149D02*
X668652Y91694D01*
X664695Y82662D02*
X668652Y86619D01*
X666306Y72663D02*
Y75976D01*
X657793Y64150D02*
X666306Y72663D01*
X605750Y94750D02*
X624703D01*
X647344Y94345D02*
X652000Y89689D01*
X627833Y94345D02*
X647344D01*
X625738Y92250D02*
X627833Y94345D01*
X598000Y92500D02*
X602000Y88500D01*
X605750Y92250D02*
X625738D01*
X602000Y88500D02*
X605750Y92250D01*
X563379Y92500D02*
X598000D01*
X562500Y91621D02*
X563379Y92500D01*
X562500Y89000D02*
Y91621D01*
X662927Y75820D02*
X663806Y74941D01*
X661685Y75820D02*
X662927D01*
X659985Y74120D02*
X661685Y75820D01*
X644541Y82230D02*
X652000Y89689D01*
X644541Y76321D02*
Y82230D01*
Y76321D02*
X646743Y74120D01*
X663806Y73698D02*
Y74941D01*
X646743Y74120D02*
X659985D01*
X656758Y66650D02*
X663806Y73698D01*
X636880Y67528D02*
X637759Y66650D01*
X656758D01*
X628770Y73258D02*
X634679D01*
X621311Y65799D02*
X628770Y73258D01*
X636880Y67528D02*
Y71057D01*
X634679Y73258D02*
X636880Y71057D01*
D108*
X647500Y380500D02*
D03*
X647421Y140500D02*
D03*
X607500Y350500D02*
D03*
X517500D02*
D03*
X643500Y170500D02*
D03*
X537500D02*
D03*
D109*
X647500Y370500D02*
D03*
X637500Y380500D02*
D03*
Y370500D02*
D03*
X627500Y380500D02*
D03*
Y370500D02*
D03*
X617500Y380500D02*
D03*
Y370500D02*
D03*
X607500Y380500D02*
D03*
Y370500D02*
D03*
X597500Y380500D02*
D03*
Y370500D02*
D03*
X587500Y380500D02*
D03*
Y370500D02*
D03*
X577500Y380500D02*
D03*
Y370500D02*
D03*
X567500Y380500D02*
D03*
Y370500D02*
D03*
X557500Y380500D02*
D03*
Y370500D02*
D03*
X547500Y380500D02*
D03*
Y370500D02*
D03*
X537500Y380500D02*
D03*
Y370500D02*
D03*
X527500Y380500D02*
D03*
Y370500D02*
D03*
X517500Y380500D02*
D03*
Y370500D02*
D03*
X507500Y380500D02*
D03*
Y370500D02*
D03*
X497500Y380500D02*
D03*
Y370500D02*
D03*
X487500Y380500D02*
D03*
Y370500D02*
D03*
X477500Y380500D02*
D03*
Y370500D02*
D03*
X467500Y380500D02*
D03*
Y370500D02*
D03*
X457500Y380500D02*
D03*
Y370500D02*
D03*
X447500Y380500D02*
D03*
Y370500D02*
D03*
X437500Y380500D02*
D03*
Y370500D02*
D03*
X427500Y380500D02*
D03*
Y370500D02*
D03*
X417500Y380500D02*
D03*
Y370500D02*
D03*
X407500Y380500D02*
D03*
Y370500D02*
D03*
X397500Y380500D02*
D03*
Y370500D02*
D03*
X387500Y380500D02*
D03*
Y370500D02*
D03*
X377500Y380500D02*
D03*
Y370500D02*
D03*
X367500Y380500D02*
D03*
Y370500D02*
D03*
X357500Y380500D02*
D03*
Y370500D02*
D03*
X347500Y380500D02*
D03*
Y370500D02*
D03*
X337500Y380500D02*
D03*
Y370500D02*
D03*
X327500Y380500D02*
D03*
Y370500D02*
D03*
X317500Y380500D02*
D03*
Y370500D02*
D03*
X307500Y380500D02*
D03*
Y370500D02*
D03*
X647421Y130500D02*
D03*
X607500Y340500D02*
D03*
X597500Y350500D02*
D03*
Y340500D02*
D03*
X587500Y350500D02*
D03*
Y340500D02*
D03*
X577500Y350500D02*
D03*
Y340500D02*
D03*
X567500Y350500D02*
D03*
Y340500D02*
D03*
X557500Y350500D02*
D03*
Y340500D02*
D03*
X547500Y350500D02*
D03*
Y340500D02*
D03*
X537500Y350500D02*
D03*
Y340500D02*
D03*
X517500D02*
D03*
X507500Y350500D02*
D03*
Y340500D02*
D03*
X497500Y350500D02*
D03*
Y340500D02*
D03*
X487500Y350500D02*
D03*
Y340500D02*
D03*
X477500Y350500D02*
D03*
Y340500D02*
D03*
X467500Y350500D02*
D03*
Y340500D02*
D03*
X457500Y350500D02*
D03*
Y340500D02*
D03*
X447500Y350500D02*
D03*
Y340500D02*
D03*
X437500Y350500D02*
D03*
Y340500D02*
D03*
X427500Y350500D02*
D03*
Y340500D02*
D03*
X417500Y350500D02*
D03*
Y340500D02*
D03*
X407500Y350500D02*
D03*
Y340500D02*
D03*
X397500Y350500D02*
D03*
Y340500D02*
D03*
X387500Y350500D02*
D03*
Y340500D02*
D03*
X643500Y160500D02*
D03*
X537500D02*
D03*
X527500Y170500D02*
D03*
Y160500D02*
D03*
X517500Y170500D02*
D03*
Y160500D02*
D03*
X507500Y170500D02*
D03*
Y160500D02*
D03*
X497500Y170500D02*
D03*
Y160500D02*
D03*
X487500Y170500D02*
D03*
Y160500D02*
D03*
X477500Y170500D02*
D03*
Y160500D02*
D03*
X467500Y170500D02*
D03*
Y160500D02*
D03*
X457500Y170500D02*
D03*
Y160500D02*
D03*
X447500Y170500D02*
D03*
Y160500D02*
D03*
X437500Y170500D02*
D03*
Y160500D02*
D03*
X427500Y170500D02*
D03*
Y160500D02*
D03*
X417500Y170500D02*
D03*
Y160500D02*
D03*
X407500Y170500D02*
D03*
Y160500D02*
D03*
X397500Y170500D02*
D03*
Y160500D02*
D03*
X387500Y170500D02*
D03*
Y160500D02*
D03*
X297500Y380500D02*
D03*
Y370500D02*
D03*
X633500Y170500D02*
D03*
Y160500D02*
D03*
X623500Y170500D02*
D03*
Y160500D02*
D03*
X613500Y170500D02*
D03*
Y160500D02*
D03*
X603500Y170500D02*
D03*
Y160500D02*
D03*
X593500Y170500D02*
D03*
Y160500D02*
D03*
X583500Y170500D02*
D03*
Y160500D02*
D03*
X573500Y170500D02*
D03*
Y160500D02*
D03*
X563500Y170500D02*
D03*
Y160500D02*
D03*
X553500Y170500D02*
D03*
Y160500D02*
D03*
X377500Y350500D02*
D03*
Y340500D02*
D03*
Y170500D02*
D03*
Y160500D02*
D03*
X637421Y140500D02*
D03*
Y130500D02*
D03*
X627421Y140500D02*
D03*
Y130500D02*
D03*
X617421Y140500D02*
D03*
Y130500D02*
D03*
X607421Y140500D02*
D03*
Y130500D02*
D03*
X597421Y140500D02*
D03*
Y130500D02*
D03*
X587421Y140500D02*
D03*
Y130500D02*
D03*
X577421Y140500D02*
D03*
Y130500D02*
D03*
X567421Y140500D02*
D03*
Y130500D02*
D03*
X557421Y140500D02*
D03*
Y130500D02*
D03*
X547421Y140500D02*
D03*
Y130500D02*
D03*
X537421Y140500D02*
D03*
Y130500D02*
D03*
X527421Y140500D02*
D03*
Y130500D02*
D03*
X517421Y140500D02*
D03*
Y130500D02*
D03*
X507421Y140500D02*
D03*
Y130500D02*
D03*
X497421Y140500D02*
D03*
Y130500D02*
D03*
X487421Y140500D02*
D03*
Y130500D02*
D03*
X477421Y140500D02*
D03*
Y130500D02*
D03*
X467421Y140500D02*
D03*
Y130500D02*
D03*
X457421Y140500D02*
D03*
Y130500D02*
D03*
X447421Y140500D02*
D03*
Y130500D02*
D03*
X437421Y140500D02*
D03*
Y130500D02*
D03*
X427421Y140500D02*
D03*
Y130500D02*
D03*
X417421Y140500D02*
D03*
Y130500D02*
D03*
X407421Y140500D02*
D03*
Y130500D02*
D03*
X397421Y140500D02*
D03*
Y130500D02*
D03*
X387421Y140500D02*
D03*
Y130500D02*
D03*
X377421Y140500D02*
D03*
Y130500D02*
D03*
X367421Y140500D02*
D03*
Y130500D02*
D03*
X357421Y140500D02*
D03*
Y130500D02*
D03*
X347421Y140500D02*
D03*
Y130500D02*
D03*
X337421Y140500D02*
D03*
Y130500D02*
D03*
X327421Y140500D02*
D03*
Y130500D02*
D03*
X317421Y140500D02*
D03*
Y130500D02*
D03*
X307421Y140500D02*
D03*
Y130500D02*
D03*
X297421Y140500D02*
D03*
Y130500D02*
D03*
D110*
X362500Y345500D02*
D03*
Y165500D02*
D03*
X657500Y160500D02*
D03*
X457500Y220500D02*
D03*
X662500Y350500D02*
D03*
D111*
X120984Y422799D02*
D03*
Y489701D02*
D03*
X59504Y422799D02*
D03*
Y489701D02*
D03*
D112*
X107480Y441500D02*
D03*
X120000D02*
D03*
X46000D02*
D03*
X58520D02*
D03*
D113*
X107480Y471000D02*
D03*
X120000D02*
D03*
X46000D02*
D03*
X58520D02*
D03*
D114*
X9000Y461000D02*
D03*
Y422000D02*
D03*
X22500D02*
D03*
Y461000D02*
D03*
X149000Y361000D02*
D03*
X188000D02*
D03*
Y347500D02*
D03*
X149000D02*
D03*
D115*
X332700Y470300D02*
D03*
X486200D02*
D03*
X450800Y474000D02*
D03*
X438900D02*
D03*
X403500D02*
D03*
X415300D02*
D03*
X391700D02*
D03*
X427100D02*
D03*
Y485800D02*
D03*
X391700D02*
D03*
X415300D02*
D03*
X403500D02*
D03*
X438900D02*
D03*
X379700D02*
D03*
X379900Y474000D02*
D03*
X368100D02*
D03*
Y485800D02*
D03*
X450800D02*
D03*
X356300D02*
D03*
X344500D02*
D03*
Y474000D02*
D03*
X356300D02*
D03*
X474400Y485800D02*
D03*
X462600D02*
D03*
Y474000D02*
D03*
X474400D02*
D03*
X29700Y306300D02*
D03*
Y365300D02*
D03*
X14200Y353300D02*
D03*
X26000Y353500D02*
D03*
Y341700D02*
D03*
X14200D02*
D03*
Y329900D02*
D03*
Y318100D02*
D03*
X26000D02*
D03*
Y329900D02*
D03*
X208000Y474700D02*
D03*
X196200D02*
D03*
Y486500D02*
D03*
X208000D02*
D03*
X219800D02*
D03*
Y474700D02*
D03*
X231600D02*
D03*
X231400Y486500D02*
D03*
X243400Y471000D02*
D03*
X184400D02*
D03*
D116*
X598276Y61405D02*
D03*
X557724D02*
D03*
D117*
X589811Y55500D02*
D03*
X578000D02*
D03*
X566189D02*
D03*
X589811Y67311D02*
D03*
X578000D02*
D03*
X566189D02*
D03*
D118*
X662500Y487500D02*
D03*
X12500D02*
D03*
X13000Y53000D02*
D03*
X661500D02*
D03*
D119*
X664500Y453500D02*
D03*
Y463500D02*
D03*
X308500Y440000D02*
D03*
X298500D02*
D03*
X308500Y460000D02*
D03*
X298500D02*
D03*
X278500Y440000D02*
D03*
X268500D02*
D03*
X278000Y460000D02*
D03*
X268000D02*
D03*
X344000Y68000D02*
D03*
Y58000D02*
D03*
X96500Y232000D02*
D03*
Y222000D02*
D03*
X499500Y56500D02*
D03*
Y46500D02*
D03*
X119500Y222000D02*
D03*
Y232000D02*
D03*
X26500Y162500D02*
D03*
X16500D02*
D03*
X184500Y232000D02*
D03*
Y222000D02*
D03*
X166000Y232000D02*
D03*
Y222000D02*
D03*
X77667Y232000D02*
D03*
Y222000D02*
D03*
X56000Y232000D02*
D03*
Y222000D02*
D03*
X141000Y232000D02*
D03*
Y222000D02*
D03*
X602000Y88500D02*
D03*
Y98500D02*
D03*
X649000Y463000D02*
D03*
Y453000D02*
D03*
D120*
X258150Y478138D02*
D03*
X268150D02*
D03*
X278150D02*
D03*
X308150D02*
D03*
X318150D02*
D03*
M02*
