G04*
G04 #@! TF.GenerationSoftware,Altium Limited,Altium Designer,22.1.2 (22)*
G04*
G04 Layer_Color=8421504*
%FSLAX25Y25*%
%MOIN*%
G70*
G04*
G04 #@! TF.SameCoordinates,1FBEEAC3-0BD1-4FD0-85FF-EBB5E8CC558E*
G04*
G04*
G04 #@! TF.FilePolarity,Positive*
G04*
G01*
G75*
%ADD12C,0.01000*%
%ADD23C,0.03000*%
%ADD24R,0.03543X0.03150*%
%ADD25R,0.03543X0.05315*%
%ADD26R,0.06572X0.09800*%
%ADD27R,0.03535X0.01003*%
%ADD28R,0.05512X0.04134*%
%ADD29R,0.04134X0.05512*%
G04:AMPARAMS|DCode=30|XSize=57.09mil|YSize=11.81mil|CornerRadius=2.95mil|HoleSize=0mil|Usage=FLASHONLY|Rotation=270.000|XOffset=0mil|YOffset=0mil|HoleType=Round|Shape=RoundedRectangle|*
%AMROUNDEDRECTD30*
21,1,0.05709,0.00591,0,0,270.0*
21,1,0.05118,0.01181,0,0,270.0*
1,1,0.00591,-0.00295,-0.02559*
1,1,0.00591,-0.00295,0.02559*
1,1,0.00591,0.00295,0.02559*
1,1,0.00591,0.00295,-0.02559*
%
%ADD30ROUNDEDRECTD30*%
%ADD31R,0.05900X0.06700*%
%ADD32R,0.03700X0.04500*%
%ADD33R,0.05315X0.03543*%
%ADD34R,0.03150X0.03543*%
%ADD35R,0.03740X0.03543*%
%ADD36R,0.06299X0.05512*%
%ADD37R,0.06102X0.02559*%
%ADD38R,0.03937X0.02362*%
%ADD39R,0.05709X0.06890*%
%ADD40R,0.02559X0.06102*%
D12*
X358268Y460000D02*
X358268Y0D01*
X0D02*
X358268D01*
X-0Y460000D02*
X0Y0D01*
Y460000D02*
X358268D01*
D23*
X250000Y22000D02*
D03*
X197937Y339614D02*
D03*
X180500Y336851D02*
D03*
X203000Y321000D02*
D03*
X43000Y350943D02*
D03*
X241000Y59000D02*
D03*
X7551Y417000D02*
D03*
X253000Y87000D02*
D03*
X324000Y49000D02*
D03*
X330000Y65000D02*
D03*
X322883Y99117D02*
D03*
X221000Y320000D02*
D03*
X46500Y223500D02*
D03*
X91535Y112205D02*
D03*
X312303Y101378D02*
D03*
X204724Y232283D02*
D03*
X166500Y365000D02*
D03*
X185039Y26575D02*
D03*
X150591Y292323D02*
D03*
X9843Y118110D02*
D03*
X53150Y327756D02*
D03*
X233268Y230315D02*
D03*
X177329Y326929D02*
D03*
D24*
X198937Y329000D02*
D03*
X191063Y325260D02*
D03*
Y332740D02*
D03*
D25*
X195937Y304000D02*
D03*
X188063D02*
D03*
X330063Y87000D02*
D03*
X337937D02*
D03*
X330063Y47000D02*
D03*
X337937D02*
D03*
X330063Y97000D02*
D03*
X337937D02*
D03*
Y57000D02*
D03*
X330063D02*
D03*
X54063Y356000D02*
D03*
X61937D02*
D03*
Y400000D02*
D03*
X54063D02*
D03*
X32937Y291000D02*
D03*
X25063D02*
D03*
X215937Y342000D02*
D03*
X208063D02*
D03*
X167000Y279189D02*
D03*
X159126D02*
D03*
X167000Y290189D02*
D03*
X159126D02*
D03*
X108937Y274000D02*
D03*
X101063D02*
D03*
Y344000D02*
D03*
X108937D02*
D03*
Y359000D02*
D03*
X101063D02*
D03*
Y334000D02*
D03*
X108937D02*
D03*
X161063Y359000D02*
D03*
X168937D02*
D03*
X161063Y379500D02*
D03*
X168937D02*
D03*
Y371000D02*
D03*
X161063D02*
D03*
X203063Y314000D02*
D03*
X210937D02*
D03*
X203063Y304000D02*
D03*
X210937D02*
D03*
X159126Y312189D02*
D03*
X167000D02*
D03*
X54063Y112000D02*
D03*
X61937D02*
D03*
X167000Y301189D02*
D03*
X159126D02*
D03*
X101063Y324000D02*
D03*
X108937D02*
D03*
X190063Y346000D02*
D03*
X197937D02*
D03*
D26*
X256890Y55118D02*
D03*
D27*
X251202Y59055D02*
D03*
X262577D02*
D03*
Y57087D02*
D03*
Y55118D02*
D03*
Y53150D02*
D03*
Y51181D02*
D03*
X251202D02*
D03*
Y53150D02*
D03*
Y55118D02*
D03*
Y57087D02*
D03*
D28*
X45000Y398260D02*
D03*
Y405740D02*
D03*
X244094Y50000D02*
D03*
Y42520D02*
D03*
D29*
X258661Y68898D02*
D03*
X251181D02*
D03*
X194685Y238189D02*
D03*
X187205D02*
D03*
D30*
X202962Y263323D02*
D03*
X200993D02*
D03*
X199025D02*
D03*
X197056D02*
D03*
X195088D02*
D03*
X200993Y246000D02*
D03*
X199025D02*
D03*
X197056D02*
D03*
X195088D02*
D03*
X202962D02*
D03*
D31*
X182480Y364144D02*
D03*
D32*
X178543Y375145D02*
D03*
X186417D02*
D03*
D33*
X30000Y345937D02*
D03*
Y338063D02*
D03*
X43000D02*
D03*
Y345937D02*
D03*
X16000D02*
D03*
Y338063D02*
D03*
X321000Y70063D02*
D03*
Y77937D02*
D03*
X53244Y304685D02*
D03*
Y312559D02*
D03*
X57000Y253063D02*
D03*
Y260937D02*
D03*
X105000Y376937D02*
D03*
Y369063D02*
D03*
X225962Y275063D02*
D03*
Y282937D02*
D03*
X47000Y264937D02*
D03*
Y257063D02*
D03*
X184000Y282937D02*
D03*
Y275063D02*
D03*
X216962Y255063D02*
D03*
Y262937D02*
D03*
X225962Y255063D02*
D03*
Y262937D02*
D03*
X193000Y282937D02*
D03*
Y275063D02*
D03*
X202000Y282937D02*
D03*
Y275063D02*
D03*
X216962Y282937D02*
D03*
Y275063D02*
D03*
D34*
X334000Y70063D02*
D03*
X330260Y77937D02*
D03*
X337740D02*
D03*
D35*
X43000Y362051D02*
D03*
Y355949D02*
D03*
X16000Y362051D02*
D03*
Y355949D02*
D03*
X30000D02*
D03*
Y362051D02*
D03*
D36*
X7551Y407866D02*
D03*
Y396055D02*
D03*
X35898Y407866D02*
D03*
Y396055D02*
D03*
D37*
X43630Y300500D02*
D03*
Y305500D02*
D03*
Y310500D02*
D03*
Y315500D02*
D03*
X22370Y300500D02*
D03*
Y305500D02*
D03*
Y310500D02*
D03*
Y315500D02*
D03*
D38*
X216724Y329000D02*
D03*
X207276Y325260D02*
D03*
Y332740D02*
D03*
D39*
X212450Y216535D02*
D03*
X223474D02*
D03*
Y228346D02*
D03*
X212450D02*
D03*
D40*
X156063Y326929D02*
D03*
X161063D02*
D03*
X166063D02*
D03*
X171063D02*
D03*
X156063Y348189D02*
D03*
X161063D02*
D03*
X166063D02*
D03*
X171063D02*
D03*
M02*
