G04*
G04 #@! TF.GenerationSoftware,Altium Limited,Altium Designer,22.1.2 (22)*
G04*
G04 Layer_Physical_Order=1*
G04 Layer_Color=255*
%FSLAX25Y25*%
%MOIN*%
G70*
G04*
G04 #@! TF.SameCoordinates,1FBEEAC3-0BD1-4FD0-85FF-EBB5E8CC558E*
G04*
G04*
G04 #@! TF.FilePolarity,Positive*
G04*
G01*
G75*
%ADD12C,0.01000*%
%ADD13C,0.00600*%
%ADD18C,0.02000*%
%ADD19C,0.01500*%
%ADD23C,0.03000*%
%ADD24R,0.03543X0.03150*%
%ADD25R,0.03543X0.05315*%
%ADD26R,0.06572X0.09800*%
%ADD27R,0.03535X0.01003*%
%ADD28R,0.05512X0.04134*%
%ADD29R,0.04134X0.05512*%
G04:AMPARAMS|DCode=30|XSize=57.09mil|YSize=11.81mil|CornerRadius=2.95mil|HoleSize=0mil|Usage=FLASHONLY|Rotation=270.000|XOffset=0mil|YOffset=0mil|HoleType=Round|Shape=RoundedRectangle|*
%AMROUNDEDRECTD30*
21,1,0.05709,0.00591,0,0,270.0*
21,1,0.05118,0.01181,0,0,270.0*
1,1,0.00591,-0.00295,-0.02559*
1,1,0.00591,-0.00295,0.02559*
1,1,0.00591,0.00295,0.02559*
1,1,0.00591,0.00295,-0.02559*
%
%ADD30ROUNDEDRECTD30*%
%ADD31R,0.05900X0.06700*%
%ADD32R,0.03700X0.04500*%
%ADD33R,0.05315X0.03543*%
%ADD34R,0.03150X0.03543*%
%ADD35R,0.03740X0.03543*%
%ADD36R,0.06299X0.05512*%
%ADD37R,0.06102X0.02559*%
%ADD38R,0.03937X0.02362*%
%ADD39R,0.05709X0.06890*%
%ADD40R,0.02559X0.06102*%
%ADD76R,0.06024X0.06024*%
%ADD77C,0.06024*%
%ADD78C,0.15748*%
%ADD79O,0.19685X0.09843*%
%ADD80O,0.17717X0.08858*%
%ADD81C,0.16929*%
%ADD82C,0.08000*%
%ADD83C,0.07087*%
%ADD84C,0.06890*%
%ADD85R,0.07559X0.07559*%
%ADD86C,0.07559*%
%ADD87C,0.13000*%
%ADD88C,0.07874*%
%ADD89C,0.09449*%
%ADD90R,0.06000X0.06000*%
%ADD91C,0.06000*%
%ADD92R,0.06000X0.06000*%
%ADD93C,0.05000*%
%ADD94C,0.23622*%
G36*
X8456Y415789D02*
X8371Y415687D01*
X8296Y415578D01*
X8231Y415460D01*
X8176Y415334D01*
X8131Y415201D01*
X8096Y415059D01*
X8071Y414909D01*
X8056Y414752D01*
X8051Y414586D01*
X7051D01*
X7046Y414752D01*
X7031Y414909D01*
X7006Y415059D01*
X6971Y415201D01*
X6926Y415334D01*
X6871Y415460D01*
X6806Y415578D01*
X6731Y415687D01*
X6646Y415789D01*
X6551Y415882D01*
X8551D01*
X8456Y415789D01*
D02*
G37*
G36*
X8056Y411418D02*
X8071Y411246D01*
X8096Y411094D01*
X8131Y410962D01*
X8176Y410851D01*
X8231Y410760D01*
X8296Y410689D01*
X8371Y410639D01*
X8456Y410608D01*
X8551Y410598D01*
X6551D01*
X6646Y410608D01*
X6731Y410639D01*
X6806Y410689D01*
X6871Y410760D01*
X6926Y410851D01*
X6971Y410962D01*
X7006Y411094D01*
X7031Y411246D01*
X7046Y411418D01*
X7051Y411610D01*
X8051D01*
X8056Y411418D01*
D02*
G37*
G36*
X275131Y438976D02*
X303150D01*
Y428150D01*
X275590D01*
X241142Y433071D01*
X201772D01*
X182512Y389764D01*
X115485D01*
X24606Y423228D01*
Y433071D01*
X30512Y438976D01*
X46260D01*
X137795Y408465D01*
X172272D01*
X191929Y452756D01*
X241142D01*
X275131Y438976D01*
D02*
G37*
G36*
X39033Y408771D02*
X39064Y408686D01*
X39114Y408611D01*
X39185Y408546D01*
X39276Y408491D01*
X39388Y408446D01*
X39519Y408411D01*
X39671Y408386D01*
X39843Y408371D01*
X40035Y408366D01*
Y407366D01*
X39843Y407361D01*
X39671Y407346D01*
X39519Y407321D01*
X39388Y407286D01*
X39276Y407241D01*
X39185Y407186D01*
X39114Y407121D01*
X39064Y407046D01*
X39033Y406961D01*
X39023Y406866D01*
Y408866D01*
X39033Y408771D01*
D02*
G37*
G36*
X32772Y406866D02*
X32762Y406961D01*
X32732Y407046D01*
X32681Y407121D01*
X32610Y407186D01*
X32519Y407241D01*
X32408Y407286D01*
X32276Y407321D01*
X32124Y407346D01*
X31952Y407361D01*
X31760Y407366D01*
Y408366D01*
X31952Y408371D01*
X32124Y408386D01*
X32276Y408411D01*
X32408Y408446D01*
X32519Y408491D01*
X32610Y408546D01*
X32681Y408611D01*
X32732Y408686D01*
X32762Y408771D01*
X32772Y408866D01*
Y406866D01*
D02*
G37*
G36*
X10687Y408771D02*
X10717Y408686D01*
X10768Y408611D01*
X10839Y408546D01*
X10930Y408491D01*
X11041Y408446D01*
X11173Y408411D01*
X11325Y408386D01*
X11496Y408371D01*
X11689Y408366D01*
Y407366D01*
X11496Y407361D01*
X11325Y407346D01*
X11173Y407321D01*
X11041Y407286D01*
X10930Y407241D01*
X10839Y407186D01*
X10768Y407121D01*
X10717Y407046D01*
X10687Y406961D01*
X10677Y406866D01*
Y408866D01*
X10687Y408771D01*
D02*
G37*
G36*
X42268Y406480D02*
X42260Y406524D01*
X42238Y406563D01*
X42200Y406598D01*
X42148Y406627D01*
X42081Y406653D01*
X42000Y406673D01*
X41904Y406690D01*
X41793Y406701D01*
X41526Y406710D01*
Y407710D01*
X41665Y407711D01*
X42139Y407741D01*
X42190Y407752D01*
X42227Y407764D01*
X42249Y407779D01*
X42256Y407795D01*
X42268Y406480D01*
D02*
G37*
G36*
X47743Y405078D02*
X47774Y404993D01*
X47825Y404918D01*
X47896Y404853D01*
X47987Y404798D01*
X48098Y404753D01*
X48230Y404718D01*
X48381Y404693D01*
X48552Y404678D01*
X48744Y404673D01*
Y403673D01*
X47744Y403685D01*
X47732Y405173D01*
X47743Y405078D01*
D02*
G37*
G36*
X52509Y403153D02*
X52879Y402840D01*
X53042Y402726D01*
X53190Y402639D01*
X53325Y402582D01*
X53444Y402552D01*
X53550Y402551D01*
X53641Y402578D01*
X53718Y402633D01*
X52315Y401231D01*
X52371Y401308D01*
X52398Y401399D01*
X52397Y401505D01*
X52367Y401624D01*
X52309Y401759D01*
X52223Y401907D01*
X52109Y402070D01*
X51966Y402248D01*
X51596Y402645D01*
X52303Y403353D01*
X52509Y403153D01*
D02*
G37*
G36*
X42268Y397220D02*
X42258Y397316D01*
X42228Y397400D01*
X42177Y397476D01*
X42106Y397540D01*
X42015Y397596D01*
X41904Y397640D01*
X41772Y397675D01*
X41620Y397701D01*
X41448Y397715D01*
X41256Y397721D01*
Y398721D01*
X41448Y398726D01*
X41620Y398741D01*
X41772Y398765D01*
X41904Y398800D01*
X42015Y398846D01*
X42106Y398901D01*
X42177Y398966D01*
X42228Y399041D01*
X42258Y399126D01*
X42268Y399220D01*
Y397220D01*
D02*
G37*
G36*
X39045Y398784D02*
X39075Y398771D01*
X39125Y398759D01*
X39195Y398749D01*
X39395Y398733D01*
X40035Y398721D01*
Y397721D01*
X39844Y397715D01*
X39672Y397701D01*
X39521Y397675D01*
X39389Y397640D01*
X39278Y397596D01*
X39187Y397540D01*
X39116Y397476D01*
X39065Y397400D01*
X39034Y397316D01*
X39023Y397220D01*
X39035Y398799D01*
X39045Y398784D01*
D02*
G37*
G36*
X62842Y397356D02*
X62757Y397326D01*
X62682Y397275D01*
X62617Y397205D01*
X62562Y397113D01*
X62517Y397002D01*
X62482Y396871D01*
X62457Y396719D01*
X62442Y396547D01*
X62437Y396355D01*
X61437D01*
X61432Y396547D01*
X61417Y396719D01*
X61392Y396871D01*
X61357Y397002D01*
X61312Y397113D01*
X61257Y397205D01*
X61192Y397275D01*
X61117Y397326D01*
X61032Y397356D01*
X60937Y397366D01*
X62937D01*
X62842Y397356D01*
D02*
G37*
G36*
X54968D02*
X54883Y397326D01*
X54808Y397275D01*
X54743Y397205D01*
X54688Y397113D01*
X54643Y397002D01*
X54608Y396871D01*
X54583Y396719D01*
X54568Y396547D01*
X54563Y396355D01*
X53563D01*
X53558Y396547D01*
X53543Y396719D01*
X53518Y396871D01*
X53483Y397002D01*
X53438Y397113D01*
X53383Y397205D01*
X53318Y397275D01*
X53243Y397326D01*
X53158Y397356D01*
X53063Y397366D01*
X55063D01*
X54968Y397356D01*
D02*
G37*
G36*
X45905Y396207D02*
X45820Y396176D01*
X45745Y396126D01*
X45680Y396055D01*
X45625Y395964D01*
X45580Y395853D01*
X45545Y395721D01*
X45520Y395569D01*
X45505Y395397D01*
X45500Y395205D01*
X44500D01*
X44495Y395397D01*
X44480Y395569D01*
X44455Y395721D01*
X44420Y395853D01*
X44375Y395964D01*
X44320Y396055D01*
X44255Y396126D01*
X44180Y396176D01*
X44095Y396207D01*
X44000Y396217D01*
X46000D01*
X45905Y396207D01*
D02*
G37*
G36*
X32772Y395055D02*
X32762Y395150D01*
X32732Y395235D01*
X32681Y395310D01*
X32610Y395375D01*
X32519Y395430D01*
X32408Y395475D01*
X32276Y395510D01*
X32124Y395535D01*
X31952Y395550D01*
X31760Y395555D01*
Y396555D01*
X31952Y396560D01*
X32124Y396575D01*
X32276Y396600D01*
X32408Y396635D01*
X32519Y396680D01*
X32610Y396735D01*
X32681Y396800D01*
X32732Y396875D01*
X32762Y396960D01*
X32772Y397055D01*
Y395055D01*
D02*
G37*
G36*
X10687Y396960D02*
X10717Y396875D01*
X10768Y396800D01*
X10839Y396735D01*
X10930Y396680D01*
X11041Y396635D01*
X11173Y396600D01*
X11325Y396575D01*
X11496Y396560D01*
X11689Y396555D01*
Y395555D01*
X11496Y395550D01*
X11325Y395535D01*
X11173Y395510D01*
X11041Y395475D01*
X10930Y395430D01*
X10839Y395375D01*
X10768Y395310D01*
X10717Y395235D01*
X10687Y395150D01*
X10677Y395055D01*
Y397055D01*
X10687Y396960D01*
D02*
G37*
G36*
X62541Y394400D02*
X62693Y394286D01*
X62869Y394175D01*
X63069Y394065D01*
X63292Y393957D01*
X63811Y393747D01*
X64424Y393545D01*
X64766Y393446D01*
X61758Y391902D01*
X61847Y392166D01*
X61911Y392417D01*
X61953Y392653D01*
X61970Y392877D01*
X61965Y393086D01*
X61935Y393282D01*
X61883Y393465D01*
X61806Y393634D01*
X61707Y393789D01*
X61584Y393931D01*
X62413Y394516D01*
X62541Y394400D01*
D02*
G37*
G36*
X54563Y393763D02*
X54571Y393576D01*
X54594Y393368D01*
X54632Y393137D01*
X54755Y392609D01*
X54939Y391993D01*
X55331Y390903D01*
X52175Y392360D01*
X52439Y392463D01*
X52675Y392578D01*
X52883Y392705D01*
X53063Y392845D01*
X53216Y392997D01*
X53341Y393160D01*
X53438Y393336D01*
X53508Y393524D01*
X53549Y393724D01*
X53563Y393936D01*
X54563Y393763D01*
D02*
G37*
G36*
X45513Y392759D02*
X45550Y392563D01*
X45612Y392360D01*
X45700Y392153D01*
X45812Y391939D01*
X45950Y391720D01*
X46112Y391495D01*
X46300Y391264D01*
X46750Y390785D01*
X43250D01*
X43488Y391027D01*
X43887Y391495D01*
X44050Y391720D01*
X44188Y391939D01*
X44300Y392153D01*
X44388Y392360D01*
X44450Y392563D01*
X44488Y392759D01*
X44500Y392950D01*
X45500D01*
X45513Y392759D01*
D02*
G37*
G36*
X106010Y380314D02*
X106040Y379972D01*
X106090Y379671D01*
X106160Y379409D01*
X106250Y379188D01*
X106360Y379007D01*
X106490Y378866D01*
X106640Y378765D01*
X106810Y378705D01*
X107000Y378685D01*
X103000D01*
X103190Y378705D01*
X103360Y378765D01*
X103510Y378866D01*
X103640Y379007D01*
X103750Y379188D01*
X103840Y379409D01*
X103910Y379671D01*
X103960Y379972D01*
X103990Y380314D01*
X104000Y380697D01*
X106000D01*
X106010Y380314D01*
D02*
G37*
G36*
X161968Y376856D02*
X161883Y376826D01*
X161808Y376775D01*
X161743Y376705D01*
X161688Y376613D01*
X161643Y376502D01*
X161608Y376371D01*
X161583Y376219D01*
X161568Y376047D01*
X161563Y375854D01*
X160563D01*
X160558Y376047D01*
X160543Y376219D01*
X160518Y376371D01*
X160483Y376502D01*
X160438Y376613D01*
X160383Y376705D01*
X160318Y376775D01*
X160243Y376826D01*
X160158Y376856D01*
X160063Y376867D01*
X162063D01*
X161968Y376856D01*
D02*
G37*
G36*
X64512Y376973D02*
X64113Y376505D01*
X63950Y376280D01*
X63813Y376061D01*
X63700Y375847D01*
X63613Y375640D01*
X63550Y375437D01*
X63512Y375241D01*
X63500Y375050D01*
X62500D01*
X62488Y375241D01*
X62450Y375437D01*
X62388Y375640D01*
X62300Y375847D01*
X62187Y376061D01*
X62050Y376280D01*
X61888Y376505D01*
X61700Y376736D01*
X61250Y377215D01*
X64750D01*
X64512Y376973D01*
D02*
G37*
G36*
X161568Y374453D02*
X161583Y374281D01*
X161608Y374129D01*
X161643Y373998D01*
X161688Y373886D01*
X161743Y373795D01*
X161808Y373725D01*
X161883Y373674D01*
X161968Y373644D01*
X162063Y373634D01*
X160063D01*
X160158Y373644D01*
X160243Y373674D01*
X160318Y373725D01*
X160383Y373795D01*
X160438Y373886D01*
X160483Y373998D01*
X160518Y374129D01*
X160543Y374281D01*
X160558Y374453D01*
X160563Y374645D01*
X161563D01*
X161568Y374453D01*
D02*
G37*
G36*
X178120Y372919D02*
X178043Y372974D01*
X177952Y373001D01*
X177846Y373000D01*
X177726Y372970D01*
X177592Y372913D01*
X177444Y372826D01*
X177281Y372712D01*
X177103Y372569D01*
X176705Y372199D01*
X175998Y372906D01*
X176197Y373113D01*
X176511Y373482D01*
X176625Y373645D01*
X176711Y373793D01*
X176769Y373928D01*
X176799Y374047D01*
X176800Y374153D01*
X176773Y374244D01*
X176717Y374321D01*
X178120Y372919D01*
D02*
G37*
G36*
X77843Y375029D02*
X77918Y374918D01*
X78006Y374820D01*
X78107Y374735D01*
X78222Y374663D01*
X78351Y374605D01*
X78493Y374559D01*
X78648Y374526D01*
X78817Y374506D01*
X79000Y374500D01*
Y373500D01*
X78817Y373494D01*
X78648Y373474D01*
X78493Y373441D01*
X78351Y373395D01*
X78222Y373337D01*
X78107Y373265D01*
X78006Y373180D01*
X77918Y373082D01*
X77843Y372971D01*
X77782Y372847D01*
Y375153D01*
X77843Y375029D01*
D02*
G37*
G36*
X188188Y374244D02*
X188161Y374153D01*
X188162Y374047D01*
X188192Y373928D01*
X188249Y373793D01*
X188335Y373645D01*
X188450Y373482D01*
X188592Y373304D01*
X188962Y372906D01*
X188255Y372199D01*
X188049Y372399D01*
X187680Y372712D01*
X187517Y372826D01*
X187368Y372913D01*
X187234Y372970D01*
X187114Y373000D01*
X187009Y373001D01*
X186918Y372974D01*
X186841Y372919D01*
X188243Y374321D01*
X188188Y374244D01*
D02*
G37*
G36*
X170695Y372905D02*
X170725Y372820D01*
X170776Y372745D01*
X170847Y372680D01*
X170938Y372625D01*
X171049Y372580D01*
X171180Y372545D01*
X171332Y372520D01*
X171504Y372505D01*
X171697Y372500D01*
Y371500D01*
X171504Y371495D01*
X171332Y371480D01*
X171180Y371455D01*
X171049Y371420D01*
X170938Y371375D01*
X170847Y371320D01*
X170776Y371255D01*
X170725Y371180D01*
X170695Y371095D01*
X170685Y371000D01*
Y373000D01*
X170695Y372905D01*
D02*
G37*
G36*
X192125Y368755D02*
X192094Y368889D01*
X192048Y369008D01*
X191990Y369114D01*
X191918Y369205D01*
X191832Y369283D01*
X191733Y369346D01*
X191621Y369395D01*
X191495Y369430D01*
X191356Y369451D01*
X191203Y369458D01*
Y370458D01*
X191418Y370463D01*
X191621Y370479D01*
X191813Y370505D01*
X191993Y370542D01*
X192163Y370589D01*
X192321Y370647D01*
X192468Y370715D01*
X192604Y370794D01*
X192728Y370884D01*
X192842Y370983D01*
X192125Y368755D01*
D02*
G37*
G36*
X162819Y370629D02*
X162840Y370489D01*
X162877Y370348D01*
X162927Y370207D01*
X162992Y370066D01*
X163071Y369924D01*
X163164Y369782D01*
X163272Y369640D01*
X163394Y369497D01*
X163530Y369355D01*
Y367940D01*
X163448Y368019D01*
X163292Y368152D01*
X163218Y368205D01*
X163146Y368251D01*
X163076Y368288D01*
X163009Y368317D01*
X162945Y368338D01*
X162882Y368350D01*
X162823Y368355D01*
X162811Y370769D01*
X162819Y370629D01*
D02*
G37*
G36*
X105905Y367293D02*
X105820Y367263D01*
X105745Y367213D01*
X105680Y367143D01*
X105625Y367053D01*
X105580Y366943D01*
X105545Y366813D01*
X105520Y366663D01*
X105505Y366493D01*
X105500Y366303D01*
X104500D01*
X104495Y366493D01*
X104480Y366663D01*
X104455Y366813D01*
X104420Y366943D01*
X104375Y367053D01*
X104320Y367143D01*
X104255Y367213D01*
X104180Y367263D01*
X104095Y367293D01*
X104000Y367303D01*
X106000D01*
X105905Y367293D01*
D02*
G37*
G36*
X165916Y366987D02*
X166035Y366891D01*
X166277Y366723D01*
X166399Y366651D01*
X166522Y366588D01*
X166647Y366532D01*
X166772Y366485D01*
X166899Y366446D01*
X166954Y365454D01*
X165107Y365557D01*
X165145Y365673D01*
X165165Y365789D01*
X165169Y365906D01*
X165155Y366025D01*
X165125Y366144D01*
X165077Y366264D01*
X165013Y366385D01*
X164931Y366506D01*
X164833Y366629D01*
X164717Y366753D01*
X165681Y367203D01*
X165916Y366987D01*
D02*
G37*
G36*
X167946Y365399D02*
X167985Y365272D01*
X168032Y365147D01*
X168088Y365022D01*
X168151Y364899D01*
X168223Y364776D01*
X168391Y364535D01*
X168487Y364416D01*
X168703Y364181D01*
X168253Y363217D01*
X168129Y363333D01*
X168006Y363431D01*
X167885Y363513D01*
X167764Y363577D01*
X167644Y363625D01*
X167525Y363655D01*
X167406Y363669D01*
X167289Y363665D01*
X167173Y363645D01*
X167057Y363607D01*
X166954Y365454D01*
X167946Y365399D01*
D02*
G37*
G36*
X41347Y364320D02*
X41715Y364009D01*
X41877Y363896D01*
X42026Y363811D01*
X42160Y363754D01*
X42280Y363726D01*
X42386D01*
X42478Y363754D01*
X42556Y363811D01*
X41142Y362397D01*
X41199Y362474D01*
X41227Y362566D01*
Y362672D01*
X41199Y362793D01*
X41142Y362927D01*
X41057Y363075D01*
X40944Y363238D01*
X40802Y363415D01*
X40435Y363811D01*
X41142Y364518D01*
X41347Y364320D01*
D02*
G37*
G36*
X169505Y362453D02*
X169520Y362281D01*
X169545Y362129D01*
X169580Y361998D01*
X169625Y361887D01*
X169680Y361795D01*
X169745Y361725D01*
X169820Y361674D01*
X169905Y361644D01*
X170000Y361633D01*
X168000D01*
X168095Y361644D01*
X168180Y361674D01*
X168255Y361725D01*
X168320Y361795D01*
X168375Y361887D01*
X168420Y361998D01*
X168455Y362129D01*
X168480Y362281D01*
X168495Y362453D01*
X168500Y362646D01*
X169500D01*
X169505Y362453D01*
D02*
G37*
G36*
X28154Y361051D02*
X28144Y361146D01*
X28113Y361231D01*
X28063Y361306D01*
X27992Y361371D01*
X27901Y361426D01*
X27790Y361471D01*
X27658Y361506D01*
X27506Y361531D01*
X27334Y361546D01*
X27142Y361551D01*
Y362551D01*
X27334Y362556D01*
X27506Y362571D01*
X27658Y362596D01*
X27790Y362631D01*
X27901Y362676D01*
X27992Y362731D01*
X28063Y362796D01*
X28113Y362871D01*
X28144Y362956D01*
X28154Y363051D01*
Y361051D01*
D02*
G37*
G36*
X17856Y362956D02*
X17887Y362871D01*
X17937Y362796D01*
X18008Y362731D01*
X18099Y362676D01*
X18210Y362631D01*
X18342Y362596D01*
X18494Y362571D01*
X18666Y362556D01*
X18858Y362551D01*
Y361551D01*
X18666Y361546D01*
X18494Y361531D01*
X18342Y361506D01*
X18210Y361471D01*
X18099Y361426D01*
X18008Y361371D01*
X17937Y361306D01*
X17887Y361231D01*
X17856Y361146D01*
X17846Y361051D01*
Y363051D01*
X17856Y362956D01*
D02*
G37*
G36*
X24922Y363519D02*
X25426Y363137D01*
X25665Y362981D01*
X25894Y362850D01*
X26115Y362742D01*
X26326Y362659D01*
X26528Y362599D01*
X26722Y362563D01*
X26906Y362551D01*
X26979Y361551D01*
X26783Y361538D01*
X26585Y361499D01*
X26384Y361435D01*
X26181Y361344D01*
X25975Y361227D01*
X25766Y361085D01*
X25555Y360916D01*
X25341Y360721D01*
X25124Y360501D01*
X24905Y360255D01*
X24656Y363746D01*
X24922Y363519D01*
D02*
G37*
G36*
X21094Y360255D02*
X20876Y360501D01*
X20445Y360916D01*
X20234Y361085D01*
X20026Y361227D01*
X19819Y361344D01*
X19616Y361435D01*
X19415Y361499D01*
X19217Y361538D01*
X19021Y361551D01*
X19094Y362551D01*
X19278Y362563D01*
X19471Y362599D01*
X19674Y362659D01*
X19885Y362742D01*
X20106Y362850D01*
X20335Y362981D01*
X20574Y363137D01*
X21078Y363519D01*
X21344Y363746D01*
X21094Y360255D01*
D02*
G37*
G36*
X63502Y359455D02*
X63532Y359005D01*
X63549Y358895D01*
X63571Y358805D01*
X63596Y358735D01*
X63626Y358685D01*
X63659Y358656D01*
X63697Y358646D01*
X62000Y358633D01*
X62095Y358644D01*
X62180Y358675D01*
X62255Y358726D01*
X62320Y358797D01*
X62375Y358888D01*
X62420Y358999D01*
X62455Y359131D01*
X62480Y359282D01*
X62495Y359454D01*
X62500Y359646D01*
X63500D01*
X63502Y359455D01*
D02*
G37*
G36*
X99315Y358000D02*
X99305Y358095D01*
X99275Y358180D01*
X99224Y358255D01*
X99153Y358320D01*
X99062Y358375D01*
X98951Y358420D01*
X98820Y358455D01*
X98668Y358480D01*
X98496Y358495D01*
X98303Y358500D01*
Y359500D01*
X98496Y359505D01*
X98668Y359520D01*
X98820Y359545D01*
X98951Y359580D01*
X99062Y359625D01*
X99153Y359680D01*
X99224Y359745D01*
X99275Y359820D01*
X99305Y359905D01*
X99315Y360000D01*
Y358000D01*
D02*
G37*
G36*
X161968Y356356D02*
X161883Y356326D01*
X161808Y356275D01*
X161743Y356205D01*
X161688Y356114D01*
X161643Y356002D01*
X161608Y355871D01*
X161583Y355719D01*
X161568Y355547D01*
X161563Y355354D01*
X160563D01*
X160558Y355547D01*
X160543Y355719D01*
X160518Y355871D01*
X160483Y356002D01*
X160438Y356114D01*
X160383Y356205D01*
X160318Y356275D01*
X160243Y356326D01*
X160158Y356356D01*
X160063Y356366D01*
X162063D01*
X161968Y356356D01*
D02*
G37*
G36*
X52303Y354949D02*
X52293Y355044D01*
X52263Y355129D01*
X52213Y355204D01*
X52143Y355269D01*
X52053Y355324D01*
X51943Y355369D01*
X51813Y355404D01*
X51663Y355429D01*
X51493Y355444D01*
X51303Y355449D01*
Y356449D01*
X51493Y356454D01*
X51663Y356469D01*
X51813Y356494D01*
X51943Y356529D01*
X52053Y356574D01*
X52143Y356629D01*
X52213Y356694D01*
X52263Y356769D01*
X52293Y356854D01*
X52303Y356949D01*
Y354949D01*
D02*
G37*
G36*
X44856Y356854D02*
X44887Y356769D01*
X44937Y356694D01*
X45008Y356629D01*
X45099Y356574D01*
X45210Y356529D01*
X45342Y356494D01*
X45494Y356469D01*
X45666Y356454D01*
X45858Y356449D01*
Y355449D01*
X45666Y355444D01*
X45494Y355429D01*
X45342Y355404D01*
X45210Y355369D01*
X45099Y355324D01*
X45008Y355269D01*
X44937Y355204D01*
X44887Y355129D01*
X44856Y355044D01*
X44846Y354949D01*
Y356949D01*
X44856Y356854D01*
D02*
G37*
G36*
X30905Y354191D02*
X30820Y354161D01*
X30745Y354110D01*
X30680Y354039D01*
X30625Y353948D01*
X30580Y353837D01*
X30545Y353705D01*
X30520Y353554D01*
X30505Y353381D01*
X30500Y353189D01*
X29500D01*
X29495Y353381D01*
X29480Y353554D01*
X29455Y353705D01*
X29420Y353837D01*
X29375Y353948D01*
X29320Y354039D01*
X29255Y354110D01*
X29180Y354161D01*
X29095Y354191D01*
X29000Y354201D01*
X31000D01*
X30905Y354191D01*
D02*
G37*
G36*
X16905D02*
X16820Y354161D01*
X16745Y354110D01*
X16680Y354039D01*
X16625Y353948D01*
X16580Y353837D01*
X16545Y353705D01*
X16520Y353554D01*
X16505Y353381D01*
X16500Y353189D01*
X15500D01*
X15495Y353381D01*
X15480Y353554D01*
X15455Y353705D01*
X15420Y353837D01*
X15375Y353948D01*
X15320Y354039D01*
X15255Y354110D01*
X15180Y354161D01*
X15095Y354191D01*
X15000Y354201D01*
X17000D01*
X16905Y354191D01*
D02*
G37*
G36*
X109842Y356356D02*
X109757Y356326D01*
X109682Y356275D01*
X109617Y356205D01*
X109562Y356114D01*
X109517Y356002D01*
X109482Y355871D01*
X109458Y355725D01*
X109488Y355572D01*
X109551Y355370D01*
X109640Y355164D01*
X109754Y354953D01*
X109893Y354737D01*
X110058Y354517D01*
X110248Y354292D01*
X110705Y353829D01*
X108912Y352000D01*
X107206Y353741D01*
X107439Y353991D01*
X107834Y354471D01*
X107994Y354701D01*
X108129Y354924D01*
X108240Y355140D01*
X108326Y355349D01*
X108388Y355552D01*
X108418Y355710D01*
X108417Y355719D01*
X108392Y355871D01*
X108357Y356002D01*
X108312Y356114D01*
X108257Y356205D01*
X108192Y356275D01*
X108117Y356326D01*
X108032Y356356D01*
X107937Y356366D01*
X109937D01*
X109842Y356356D01*
D02*
G37*
G36*
X166568Y352038D02*
X166583Y351868D01*
X166608Y351718D01*
X166643Y351588D01*
X166688Y351478D01*
X166743Y351388D01*
X166808Y351318D01*
X166883Y351268D01*
X166968Y351238D01*
X167063Y351228D01*
X165063D01*
X165158Y351238D01*
X165243Y351268D01*
X165318Y351318D01*
X165383Y351388D01*
X165438Y351478D01*
X165483Y351588D01*
X165518Y351718D01*
X165543Y351868D01*
X165558Y352038D01*
X165563Y352228D01*
X166563D01*
X166568Y352038D01*
D02*
G37*
G36*
X161568D02*
X161583Y351868D01*
X161608Y351718D01*
X161643Y351588D01*
X161688Y351478D01*
X161743Y351388D01*
X161808Y351318D01*
X161883Y351268D01*
X161968Y351238D01*
X162063Y351228D01*
X160063D01*
X160158Y351238D01*
X160243Y351268D01*
X160318Y351318D01*
X160383Y351388D01*
X160438Y351478D01*
X160483Y351588D01*
X160518Y351718D01*
X160543Y351868D01*
X160558Y352038D01*
X160563Y352228D01*
X161563D01*
X161568Y352038D01*
D02*
G37*
G36*
X74970Y350988D02*
X74535Y350985D01*
X73755Y350933D01*
X73410Y350884D01*
X73095Y350820D01*
X72811Y350740D01*
X72557Y350645D01*
X72333Y350535D01*
X72139Y350409D01*
X71976Y350269D01*
X71268Y350976D01*
X71409Y351139D01*
X71535Y351333D01*
X71645Y351557D01*
X71740Y351811D01*
X71820Y352095D01*
X71884Y352410D01*
X71933Y352755D01*
X71985Y353535D01*
X71988Y353970D01*
X74970Y350988D01*
D02*
G37*
G36*
X179975Y349500D02*
X179636Y349497D01*
X179023Y349449D01*
X178749Y349405D01*
X178496Y349347D01*
X178266Y349276D01*
X178057Y349191D01*
X177870Y349092D01*
X177705Y348980D01*
X177561Y348854D01*
X176854Y349561D01*
X176980Y349705D01*
X177092Y349870D01*
X177191Y350057D01*
X177276Y350266D01*
X177347Y350496D01*
X177405Y350749D01*
X177449Y351023D01*
X177480Y351318D01*
X177500Y351975D01*
X179975Y349500D01*
D02*
G37*
G36*
X110705Y350171D02*
X110248Y349708D01*
X110058Y349483D01*
X109893Y349263D01*
X109754Y349047D01*
X109640Y348836D01*
X109551Y348630D01*
X109488Y348428D01*
X109450Y348231D01*
X109437Y348039D01*
X108437Y348064D01*
X108425Y348253D01*
X108388Y348448D01*
X108326Y348651D01*
X108240Y348860D01*
X108129Y349076D01*
X107994Y349299D01*
X107834Y349529D01*
X107439Y350009D01*
X107206Y350259D01*
X108912Y352000D01*
X110705Y350171D01*
D02*
G37*
G36*
X30505Y348507D02*
X30520Y348337D01*
X30545Y348187D01*
X30580Y348057D01*
X30625Y347947D01*
X30680Y347857D01*
X30745Y347787D01*
X30820Y347737D01*
X30905Y347707D01*
X31000Y347697D01*
X29000D01*
X29095Y347707D01*
X29180Y347737D01*
X29255Y347787D01*
X29320Y347857D01*
X29375Y347947D01*
X29420Y348057D01*
X29455Y348187D01*
X29480Y348337D01*
X29495Y348507D01*
X29500Y348697D01*
X30500D01*
X30505Y348507D01*
D02*
G37*
G36*
X16505D02*
X16520Y348337D01*
X16545Y348187D01*
X16580Y348057D01*
X16625Y347947D01*
X16680Y347857D01*
X16745Y347787D01*
X16820Y347737D01*
X16905Y347707D01*
X17000Y347697D01*
X15000D01*
X15095Y347707D01*
X15180Y347737D01*
X15255Y347787D01*
X15320Y347857D01*
X15375Y347947D01*
X15420Y348057D01*
X15455Y348187D01*
X15480Y348337D01*
X15495Y348507D01*
X15500Y348697D01*
X16500D01*
X16505Y348507D01*
D02*
G37*
G36*
X43905Y354191D02*
X43820Y354161D01*
X43745Y354110D01*
X43680Y354039D01*
X43625Y353948D01*
X43580Y353837D01*
X43545Y353705D01*
X43520Y353554D01*
X43505Y353381D01*
X43502Y353279D01*
X43505Y353191D01*
X43520Y353034D01*
X43545Y352884D01*
X43580Y352742D01*
X43625Y352609D01*
X43680Y352483D01*
X43745Y352365D01*
X43820Y352256D01*
X43905Y352154D01*
X44000Y352061D01*
X43000Y350943D01*
X44000Y349825D01*
X43905Y349731D01*
X43820Y349630D01*
X43745Y349520D01*
X43680Y349403D01*
X43625Y349277D01*
X43580Y349144D01*
X43545Y349002D01*
X43520Y348852D01*
X43505Y348694D01*
X43502Y348606D01*
X43505Y348504D01*
X43520Y348332D01*
X43545Y348181D01*
X43580Y348049D01*
X43625Y347938D01*
X43680Y347847D01*
X43745Y347776D01*
X43820Y347725D01*
X43905Y347695D01*
X44000Y347685D01*
X42000D01*
X42095Y347695D01*
X42180Y347725D01*
X42255Y347776D01*
X42320Y347847D01*
X42375Y347938D01*
X42420Y348049D01*
X42455Y348181D01*
X42480Y348332D01*
X42495Y348504D01*
X42498Y348606D01*
X42495Y348694D01*
X42480Y348852D01*
X42455Y349002D01*
X42420Y349144D01*
X42375Y349277D01*
X42320Y349403D01*
X42255Y349520D01*
X42180Y349630D01*
X42095Y349731D01*
X42000Y349825D01*
X43000Y350943D01*
X42000Y352061D01*
X42095Y352154D01*
X42180Y352256D01*
X42255Y352365D01*
X42320Y352483D01*
X42375Y352609D01*
X42420Y352742D01*
X42455Y352884D01*
X42480Y353034D01*
X42495Y353191D01*
X42498Y353279D01*
X42495Y353381D01*
X42480Y353554D01*
X42455Y353705D01*
X42420Y353837D01*
X42375Y353948D01*
X42320Y354039D01*
X42255Y354110D01*
X42180Y354161D01*
X42095Y354191D01*
X42000Y354201D01*
X44000D01*
X43905Y354191D01*
D02*
G37*
G36*
X172329Y349094D02*
X172359Y349009D01*
X172410Y348934D01*
X172480Y348869D01*
X172572Y348814D01*
X172683Y348769D01*
X172814Y348734D01*
X172966Y348709D01*
X173138Y348694D01*
X173330Y348689D01*
Y347689D01*
X173138Y347684D01*
X172966Y347669D01*
X172814Y347644D01*
X172683Y347609D01*
X172572Y347564D01*
X172480Y347509D01*
X172410Y347444D01*
X172359Y347369D01*
X172329Y347284D01*
X172318Y347189D01*
Y349189D01*
X172329Y349094D01*
D02*
G37*
G36*
X154807Y347189D02*
X154797Y347284D01*
X154767Y347369D01*
X154716Y347444D01*
X154646Y347509D01*
X154554Y347564D01*
X154443Y347609D01*
X154312Y347644D01*
X154160Y347669D01*
X153988Y347684D01*
X153796Y347689D01*
Y348689D01*
X153988Y348694D01*
X154160Y348709D01*
X154312Y348734D01*
X154443Y348769D01*
X154554Y348814D01*
X154646Y348869D01*
X154716Y348934D01*
X154767Y349009D01*
X154797Y349094D01*
X154807Y349189D01*
Y347189D01*
D02*
G37*
G36*
X109442Y347453D02*
X109457Y347281D01*
X109482Y347129D01*
X109517Y346998D01*
X109562Y346886D01*
X109617Y346795D01*
X109682Y346725D01*
X109757Y346674D01*
X109842Y346644D01*
X109937Y346634D01*
X107937D01*
X108032Y346644D01*
X108117Y346674D01*
X108192Y346725D01*
X108257Y346795D01*
X108312Y346886D01*
X108357Y346998D01*
X108392Y347129D01*
X108417Y347281D01*
X108432Y347453D01*
X108437Y347645D01*
X109437D01*
X109442Y347453D01*
D02*
G37*
G36*
X188315Y345000D02*
X188305Y345095D01*
X188275Y345180D01*
X188224Y345255D01*
X188153Y345320D01*
X188062Y345375D01*
X187951Y345420D01*
X187820Y345455D01*
X187668Y345480D01*
X187496Y345495D01*
X187303Y345500D01*
Y346500D01*
X187496Y346505D01*
X187668Y346520D01*
X187820Y346545D01*
X187951Y346580D01*
X188062Y346625D01*
X188153Y346680D01*
X188224Y346745D01*
X188275Y346820D01*
X188305Y346905D01*
X188315Y347000D01*
Y345000D01*
D02*
G37*
G36*
X208568Y345453D02*
X208583Y345281D01*
X208608Y345129D01*
X208643Y344998D01*
X208688Y344886D01*
X208743Y344795D01*
X208808Y344725D01*
X208883Y344674D01*
X208968Y344644D01*
X209063Y344634D01*
X207063D01*
X207158Y344644D01*
X207243Y344674D01*
X207318Y344725D01*
X207383Y344795D01*
X207438Y344886D01*
X207483Y344998D01*
X207518Y345129D01*
X207543Y345281D01*
X207558Y345453D01*
X207563Y345645D01*
X208563D01*
X208568Y345453D01*
D02*
G37*
G36*
X161968Y345152D02*
X161883Y345121D01*
X161808Y345071D01*
X161743Y345000D01*
X161688Y344909D01*
X161643Y344797D01*
X161608Y344666D01*
X161583Y344514D01*
X161568Y344342D01*
X161563Y344150D01*
X160563D01*
X160558Y344342D01*
X160543Y344514D01*
X160518Y344666D01*
X160483Y344797D01*
X160438Y344909D01*
X160383Y345000D01*
X160318Y345071D01*
X160243Y345121D01*
X160158Y345152D01*
X160063Y345162D01*
X162063D01*
X161968Y345152D01*
D02*
G37*
G36*
X99315Y343000D02*
X99305Y343095D01*
X99275Y343180D01*
X99224Y343255D01*
X99153Y343320D01*
X99062Y343375D01*
X98951Y343420D01*
X98820Y343455D01*
X98668Y343480D01*
X98496Y343495D01*
X98303Y343500D01*
Y344500D01*
X98496Y344505D01*
X98668Y344520D01*
X98820Y344545D01*
X98951Y344580D01*
X99062Y344625D01*
X99153Y344680D01*
X99224Y344745D01*
X99275Y344820D01*
X99305Y344905D01*
X99315Y345000D01*
Y343000D01*
D02*
G37*
G36*
X198842Y343356D02*
X198757Y343326D01*
X198682Y343275D01*
X198617Y343205D01*
X198562Y343113D01*
X198517Y343002D01*
X198482Y342871D01*
X198457Y342719D01*
X198442Y342547D01*
X198437Y342354D01*
X197437D01*
X197432Y342547D01*
X197417Y342719D01*
X197392Y342871D01*
X197357Y343002D01*
X197312Y343113D01*
X197257Y343205D01*
X197192Y343275D01*
X197117Y343326D01*
X197032Y343356D01*
X196937Y343367D01*
X198937D01*
X198842Y343356D01*
D02*
G37*
G36*
X77461Y345803D02*
X78049Y345288D01*
X78328Y345079D01*
X78596Y344902D01*
X78853Y344757D01*
X79100Y344645D01*
X79336Y344564D01*
X79562Y344516D01*
X79777Y344500D01*
Y343500D01*
X79562Y343484D01*
X79336Y343436D01*
X79100Y343355D01*
X78853Y343243D01*
X78596Y343098D01*
X78328Y342921D01*
X78049Y342712D01*
X77461Y342197D01*
X77151Y341892D01*
Y346108D01*
X77461Y345803D01*
D02*
G37*
G36*
X198442Y341863D02*
X198457Y341705D01*
X198482Y341555D01*
X198517Y341413D01*
X198562Y341280D01*
X198617Y341154D01*
X198682Y341037D01*
X198757Y340927D01*
X198842Y340826D01*
X198937Y340732D01*
X196937D01*
X197032Y340826D01*
X197117Y340927D01*
X197192Y341037D01*
X197257Y341154D01*
X197312Y341280D01*
X197357Y341413D01*
X197392Y341555D01*
X197417Y341705D01*
X197432Y341863D01*
X197437Y342028D01*
X198437D01*
X198442Y341863D01*
D02*
G37*
G36*
X109842Y341356D02*
X109757Y341326D01*
X109682Y341275D01*
X109617Y341205D01*
X109562Y341113D01*
X109517Y341002D01*
X109482Y340871D01*
X109457Y340719D01*
X109442Y340547D01*
X109437Y340354D01*
X108437D01*
X108432Y340547D01*
X108417Y340719D01*
X108392Y340871D01*
X108357Y341002D01*
X108312Y341113D01*
X108257Y341205D01*
X108192Y341275D01*
X108117Y341326D01*
X108032Y341356D01*
X107937Y341367D01*
X109937D01*
X109842Y341356D01*
D02*
G37*
G36*
X197854Y338117D02*
X197720Y338118D01*
X197588Y338106D01*
X197458Y338082D01*
X197329Y338044D01*
X197201Y337994D01*
X197075Y337932D01*
X196950Y337856D01*
X196826Y337768D01*
X196704Y337667D01*
X196583Y337554D01*
X195876Y338261D01*
X195990Y338381D01*
X196091Y338504D01*
X196179Y338627D01*
X196255Y338752D01*
X196317Y338878D01*
X196367Y339006D01*
X196404Y339135D01*
X196429Y339266D01*
X196440Y339398D01*
X196439Y339531D01*
X197854Y338117D01*
D02*
G37*
G36*
X109442Y337453D02*
X109457Y337281D01*
X109482Y337129D01*
X109517Y336998D01*
X109562Y336887D01*
X109617Y336795D01*
X109682Y336725D01*
X109757Y336674D01*
X109842Y336644D01*
X109937Y336633D01*
X107937D01*
X108032Y336644D01*
X108117Y336674D01*
X108192Y336725D01*
X108257Y336795D01*
X108312Y336887D01*
X108357Y336998D01*
X108392Y337129D01*
X108417Y337281D01*
X108432Y337453D01*
X108437Y337646D01*
X109437D01*
X109442Y337453D01*
D02*
G37*
G36*
X41747Y336293D02*
X41662Y336263D01*
X41587Y336213D01*
X41522Y336143D01*
X41467Y336053D01*
X41423Y335943D01*
X41388Y335813D01*
X41363Y335663D01*
X41348Y335493D01*
X41342Y335303D01*
X40343D01*
X40354Y336303D01*
X41842D01*
X41747Y336293D01*
D02*
G37*
G36*
X30905Y336305D02*
X30820Y336275D01*
X30745Y336224D01*
X30680Y336153D01*
X30625Y336062D01*
X30580Y335951D01*
X30545Y335820D01*
X30520Y335668D01*
X30505Y335496D01*
X30500Y335303D01*
X29500D01*
X29495Y335496D01*
X29480Y335668D01*
X29455Y335820D01*
X29420Y335951D01*
X29375Y336062D01*
X29320Y336153D01*
X29255Y336224D01*
X29180Y336275D01*
X29095Y336305D01*
X29000Y336315D01*
X31000D01*
X30905Y336305D01*
D02*
G37*
G36*
X16905D02*
X16820Y336275D01*
X16745Y336224D01*
X16680Y336153D01*
X16625Y336062D01*
X16580Y335951D01*
X16545Y335820D01*
X16520Y335668D01*
X16505Y335496D01*
X16500Y335303D01*
X15500D01*
X15495Y335496D01*
X15480Y335668D01*
X15455Y335820D01*
X15420Y335951D01*
X15375Y336062D01*
X15320Y336153D01*
X15255Y336224D01*
X15180Y336275D01*
X15095Y336305D01*
X15000Y336315D01*
X17000D01*
X16905Y336305D01*
D02*
G37*
G36*
X181005Y339100D02*
X181020Y338942D01*
X181045Y338792D01*
X181080Y338650D01*
X181125Y338517D01*
X181180Y338391D01*
X181245Y338274D01*
X181320Y338164D01*
X181405Y338063D01*
X181500Y337969D01*
X180500Y336851D01*
X181500Y335733D01*
X181405Y335640D01*
X181320Y335538D01*
X181245Y335429D01*
X181180Y335311D01*
X181125Y335186D01*
X181080Y335052D01*
X181045Y334910D01*
X181020Y334760D01*
X181005Y334603D01*
X181000Y334437D01*
X180000D01*
X179995Y334603D01*
X179980Y334760D01*
X179955Y334910D01*
X179920Y335052D01*
X179875Y335186D01*
X179820Y335311D01*
X179755Y335429D01*
X179680Y335538D01*
X179595Y335640D01*
X179500Y335733D01*
X180500Y336851D01*
X179500Y337969D01*
X179595Y338063D01*
X179680Y338164D01*
X179755Y338274D01*
X179820Y338391D01*
X179875Y338517D01*
X179920Y338650D01*
X179955Y338792D01*
X179980Y338942D01*
X179995Y339100D01*
X180000Y339265D01*
X181000D01*
X181005Y339100D01*
D02*
G37*
G36*
X193530Y334500D02*
X193322Y334285D01*
X192997Y333904D01*
X192879Y333738D01*
X192792Y333589D01*
X192735Y333455D01*
X192709Y333338D01*
X192713Y333238D01*
X192746Y333154D01*
X192811Y333086D01*
X191212Y334291D01*
X191301Y334248D01*
X191409Y334238D01*
X191537Y334262D01*
X191685Y334319D01*
X191852Y334410D01*
X192038Y334534D01*
X192244Y334691D01*
X192715Y335106D01*
X192979Y335364D01*
X193530Y334500D01*
D02*
G37*
G36*
X209939Y333909D02*
X209741Y333704D01*
X209430Y333336D01*
X209317Y333174D01*
X209232Y333025D01*
X209175Y332891D01*
X209147Y332771D01*
Y332665D01*
X209175Y332573D01*
X209232Y332495D01*
X207818Y333909D01*
X207896Y333853D01*
X207988Y333824D01*
X208094D01*
X208214Y333853D01*
X208348Y333909D01*
X208497Y333994D01*
X208659Y334107D01*
X208836Y334249D01*
X209232Y334616D01*
X209939Y333909D01*
D02*
G37*
G36*
X99315Y333000D02*
X99305Y333095D01*
X99275Y333180D01*
X99224Y333255D01*
X99153Y333320D01*
X99062Y333375D01*
X98951Y333420D01*
X98820Y333455D01*
X98668Y333480D01*
X98496Y333495D01*
X98303Y333500D01*
Y334500D01*
X98496Y334505D01*
X98668Y334520D01*
X98820Y334545D01*
X98951Y334580D01*
X99062Y334625D01*
X99153Y334680D01*
X99224Y334745D01*
X99275Y334820D01*
X99305Y334905D01*
X99315Y335000D01*
Y333000D01*
D02*
G37*
G36*
X16512Y334759D02*
X16550Y334562D01*
X16612Y334360D01*
X16700Y334153D01*
X16813Y333939D01*
X16950Y333720D01*
X17112Y333495D01*
X17300Y333264D01*
X17750Y332785D01*
X14250D01*
X14488Y333028D01*
X14887Y333495D01*
X15050Y333720D01*
X15188Y333939D01*
X15300Y334153D01*
X15387Y334360D01*
X15450Y334562D01*
X15487Y334759D01*
X15500Y334949D01*
X16500D01*
X16512Y334759D01*
D02*
G37*
G36*
X77461Y335803D02*
X78049Y335288D01*
X78328Y335079D01*
X78596Y334902D01*
X78853Y334757D01*
X79100Y334645D01*
X79336Y334564D01*
X79562Y334516D01*
X79777Y334500D01*
Y333500D01*
X79562Y333484D01*
X79336Y333436D01*
X79100Y333355D01*
X78853Y333243D01*
X78596Y333098D01*
X78328Y332921D01*
X78049Y332712D01*
X77461Y332197D01*
X77151Y331892D01*
Y336108D01*
X77461Y335803D01*
D02*
G37*
G36*
X72849Y331892D02*
X72539Y332197D01*
X71951Y332712D01*
X71672Y332921D01*
X71404Y333098D01*
X71147Y333243D01*
X70900Y333355D01*
X70664Y333436D01*
X70438Y333484D01*
X70223Y333500D01*
Y334500D01*
X70438Y334516D01*
X70664Y334564D01*
X70900Y334645D01*
X71147Y334757D01*
X71404Y334902D01*
X71672Y335079D01*
X71951Y335288D01*
X72539Y335803D01*
X72849Y336108D01*
Y331892D01*
D02*
G37*
G36*
X189303Y331177D02*
X189296Y331226D01*
X189275Y331255D01*
X189240Y331263D01*
X189190Y331252D01*
X189127Y331220D01*
X189049Y331169D01*
X188957Y331097D01*
X188731Y330895D01*
X188596Y330763D01*
Y332177D01*
X188732Y332320D01*
X188854Y332463D01*
X188962Y332605D01*
X189055Y332747D01*
X189134Y332889D01*
X189199Y333030D01*
X189249Y333171D01*
X189286Y333312D01*
X189307Y333452D01*
X189315Y333592D01*
X189303Y331177D01*
D02*
G37*
G36*
X109842Y331356D02*
X109757Y331326D01*
X109682Y331275D01*
X109617Y331205D01*
X109562Y331114D01*
X109517Y331002D01*
X109482Y330871D01*
X109457Y330719D01*
X109442Y330547D01*
X109437Y330354D01*
X108437D01*
X108432Y330547D01*
X108417Y330719D01*
X108392Y330871D01*
X108357Y331002D01*
X108312Y331114D01*
X108257Y331205D01*
X108192Y331275D01*
X108117Y331326D01*
X108032Y331356D01*
X107937Y331366D01*
X109937D01*
X109842Y331356D01*
D02*
G37*
G36*
X166568Y330778D02*
X166583Y330608D01*
X166608Y330458D01*
X166643Y330328D01*
X166688Y330218D01*
X166743Y330128D01*
X166808Y330058D01*
X166883Y330008D01*
X166968Y329978D01*
X167063Y329968D01*
X165063D01*
X165158Y329978D01*
X165243Y330008D01*
X165318Y330058D01*
X165383Y330128D01*
X165438Y330218D01*
X165483Y330328D01*
X165518Y330458D01*
X165543Y330608D01*
X165558Y330778D01*
X165563Y330968D01*
X166563D01*
X166568Y330778D01*
D02*
G37*
G36*
X30512Y331759D02*
X30550Y331562D01*
X30612Y331360D01*
X30700Y331153D01*
X30812Y330939D01*
X30950Y330720D01*
X31113Y330495D01*
X31300Y330264D01*
X31750Y329785D01*
X28250D01*
X28488Y330028D01*
X28888Y330495D01*
X29050Y330720D01*
X29188Y330939D01*
X29300Y331153D01*
X29388Y331360D01*
X29450Y331562D01*
X29487Y331759D01*
X29500Y331949D01*
X30500D01*
X30512Y331759D01*
D02*
G37*
G36*
X200707Y329905D02*
X200737Y329820D01*
X200787Y329745D01*
X200857Y329680D01*
X200947Y329625D01*
X201057Y329580D01*
X201187Y329545D01*
X201337Y329520D01*
X201507Y329505D01*
X201697Y329500D01*
Y328500D01*
X201507Y328495D01*
X201337Y328480D01*
X201187Y328455D01*
X201057Y328420D01*
X200947Y328375D01*
X200857Y328320D01*
X200787Y328255D01*
X200737Y328180D01*
X200707Y328095D01*
X200697Y328000D01*
Y330000D01*
X200707Y329905D01*
D02*
G37*
G36*
X109442Y327453D02*
X109457Y327281D01*
X109482Y327129D01*
X109517Y326998D01*
X109562Y326887D01*
X109617Y326795D01*
X109682Y326725D01*
X109757Y326674D01*
X109842Y326644D01*
X109937Y326634D01*
X107937D01*
X108032Y326644D01*
X108117Y326674D01*
X108192Y326725D01*
X108257Y326795D01*
X108312Y326887D01*
X108357Y326998D01*
X108392Y327129D01*
X108417Y327281D01*
X108432Y327453D01*
X108437Y327645D01*
X109437D01*
X109442Y327453D01*
D02*
G37*
G36*
X176211Y325929D02*
X176117Y326024D01*
X176016Y326109D01*
X175906Y326184D01*
X175789Y326249D01*
X175663Y326304D01*
X175529Y326349D01*
X175388Y326384D01*
X175238Y326409D01*
X175080Y326424D01*
X174915Y326429D01*
Y327429D01*
X175080Y327434D01*
X175238Y327449D01*
X175388Y327474D01*
X175529Y327509D01*
X175663Y327554D01*
X175789Y327609D01*
X175906Y327674D01*
X176016Y327749D01*
X176117Y327834D01*
X176211Y327929D01*
Y325929D01*
D02*
G37*
G36*
X172329Y327834D02*
X172359Y327749D01*
X172410Y327674D01*
X172480Y327609D01*
X172572Y327554D01*
X172683Y327509D01*
X172814Y327474D01*
X172966Y327449D01*
X173138Y327434D01*
X173330Y327429D01*
Y326429D01*
X173138Y326424D01*
X172966Y326409D01*
X172814Y326384D01*
X172683Y326349D01*
X172572Y326304D01*
X172480Y326249D01*
X172410Y326184D01*
X172359Y326109D01*
X172329Y326024D01*
X172318Y325929D01*
Y327929D01*
X172329Y327834D01*
D02*
G37*
G36*
X205525Y326937D02*
X205894Y326623D01*
X206057Y326509D01*
X206206Y326423D01*
X206340Y326365D01*
X206460Y326336D01*
X206565Y326335D01*
X206657Y326362D01*
X206733Y326417D01*
X205576Y325260D01*
X206733Y324103D01*
X206657Y324158D01*
X206565Y324185D01*
X206460Y324184D01*
X206340Y324154D01*
X206206Y324097D01*
X206057Y324011D01*
X205894Y323896D01*
X205717Y323754D01*
X205319Y323384D01*
X204612Y324091D01*
X204811Y324297D01*
X205125Y324666D01*
X205239Y324829D01*
X205325Y324978D01*
X205349Y325032D01*
X205331Y325015D01*
X205356Y325049D01*
X205383Y325112D01*
X205412Y325232D01*
X205413Y325260D01*
X205412Y325288D01*
X205383Y325408D01*
X205356Y325471D01*
X205331Y325505D01*
X205349Y325487D01*
X205325Y325542D01*
X205239Y325691D01*
X205125Y325854D01*
X204982Y326031D01*
X204612Y326429D01*
X205319Y327136D01*
X205525Y326937D01*
D02*
G37*
G36*
X53744Y330133D02*
X53749Y329968D01*
X53763Y329810D01*
X53787Y329660D01*
X53820Y329516D01*
X53863Y329380D01*
X53915Y329252D01*
X53976Y329130D01*
X54047Y329016D01*
X54128Y328909D01*
X54218Y328809D01*
X53276Y327756D01*
X54218Y326703D01*
X54128Y326603D01*
X54047Y326496D01*
X53976Y326382D01*
X53915Y326260D01*
X53863Y326132D01*
X53820Y325995D01*
X53787Y325852D01*
X53763Y325702D01*
X53749Y325544D01*
X53744Y325379D01*
X52744Y325312D01*
X52739Y325478D01*
X52723Y325636D01*
X52697Y325784D01*
X52661Y325924D01*
X52614Y326055D01*
X52556Y326178D01*
X52488Y326291D01*
X52410Y326395D01*
X52321Y326490D01*
X52222Y326577D01*
X53276Y327756D01*
X52222Y328935D01*
X52321Y329021D01*
X52410Y329117D01*
X52488Y329221D01*
X52556Y329334D01*
X52614Y329456D01*
X52661Y329587D01*
X52697Y329727D01*
X52723Y329876D01*
X52739Y330034D01*
X52744Y330200D01*
X53744Y330133D01*
D02*
G37*
G36*
X38513Y326759D02*
X38550Y326562D01*
X38612Y326360D01*
X38700Y326153D01*
X38813Y325939D01*
X38950Y325720D01*
X39112Y325495D01*
X39300Y325264D01*
X39750Y324785D01*
X36250D01*
X36487Y325027D01*
X36887Y325495D01*
X37050Y325720D01*
X37187Y325939D01*
X37300Y326153D01*
X37387Y326360D01*
X37450Y326562D01*
X37488Y326759D01*
X37500Y326950D01*
X38500D01*
X38513Y326759D01*
D02*
G37*
G36*
X178200Y325708D02*
X178098Y325627D01*
X178007Y325536D01*
X177927Y325436D01*
X177857Y325326D01*
X177798Y325207D01*
X177750Y325078D01*
X177713Y324939D01*
X177686Y324792D01*
X177670Y324634D01*
X177664Y324467D01*
X176664Y324584D01*
X176660Y324749D01*
X176646Y324907D01*
X176624Y325058D01*
X176592Y325202D01*
X176551Y325340D01*
X176502Y325471D01*
X176443Y325595D01*
X176375Y325712D01*
X176298Y325823D01*
X176212Y325927D01*
X178200Y325708D01*
D02*
G37*
G36*
X99315Y323000D02*
X99305Y323095D01*
X99275Y323180D01*
X99224Y323255D01*
X99153Y323320D01*
X99062Y323375D01*
X98951Y323420D01*
X98820Y323455D01*
X98668Y323480D01*
X98496Y323495D01*
X98303Y323500D01*
Y324500D01*
X98496Y324505D01*
X98668Y324520D01*
X98820Y324545D01*
X98951Y324580D01*
X99062Y324625D01*
X99153Y324680D01*
X99224Y324745D01*
X99275Y324820D01*
X99305Y324905D01*
X99315Y325000D01*
Y323000D01*
D02*
G37*
G36*
X161968Y323892D02*
X161883Y323862D01*
X161808Y323811D01*
X161743Y323740D01*
X161688Y323649D01*
X161643Y323538D01*
X161608Y323406D01*
X161583Y323254D01*
X161568Y323082D01*
X161563Y322890D01*
X160563D01*
X160558Y323082D01*
X160543Y323254D01*
X160518Y323406D01*
X160483Y323538D01*
X160438Y323649D01*
X160383Y323740D01*
X160318Y323811D01*
X160243Y323862D01*
X160158Y323892D01*
X160063Y323902D01*
X162063D01*
X161968Y323892D01*
D02*
G37*
G36*
X156968D02*
X156883Y323862D01*
X156808Y323811D01*
X156743Y323740D01*
X156688Y323649D01*
X156643Y323538D01*
X156608Y323406D01*
X156583Y323254D01*
X156568Y323082D01*
X156563Y322890D01*
X155563D01*
X155558Y323082D01*
X155543Y323254D01*
X155518Y323406D01*
X155483Y323538D01*
X155438Y323649D01*
X155383Y323740D01*
X155318Y323811D01*
X155243Y323862D01*
X155158Y323892D01*
X155063Y323902D01*
X157063D01*
X156968Y323892D01*
D02*
G37*
G36*
X192240Y323699D02*
X192155Y323669D01*
X192080Y323618D01*
X192015Y323547D01*
X191960Y323456D01*
X191915Y323345D01*
X191880Y323213D01*
X191855Y323061D01*
X191840Y322889D01*
X191835Y322697D01*
X190835D01*
X190830Y322889D01*
X190815Y323061D01*
X190790Y323213D01*
X190755Y323345D01*
X190710Y323456D01*
X190655Y323547D01*
X190590Y323618D01*
X190515Y323669D01*
X190430Y323699D01*
X190335Y323709D01*
X192335D01*
X192240Y323699D01*
D02*
G37*
G36*
X77461Y325803D02*
X78049Y325288D01*
X78328Y325079D01*
X78596Y324902D01*
X78853Y324757D01*
X79100Y324645D01*
X79336Y324564D01*
X79562Y324516D01*
X79777Y324500D01*
Y323500D01*
X79562Y323484D01*
X79336Y323436D01*
X79100Y323355D01*
X78853Y323243D01*
X78596Y323098D01*
X78328Y322921D01*
X78049Y322712D01*
X77461Y322197D01*
X77151Y321892D01*
Y326108D01*
X77461Y325803D01*
D02*
G37*
G36*
X204735Y322800D02*
X204619Y322676D01*
X204521Y322553D01*
X204440Y322432D01*
X204377Y322312D01*
X204331Y322194D01*
X204303Y322077D01*
X204292Y321961D01*
X204299Y321847D01*
X204323Y321734D01*
X204365Y321623D01*
X202533Y322425D01*
X202656Y322469D01*
X202778Y322521D01*
X202899Y322581D01*
X203139Y322722D01*
X203259Y322804D01*
X203495Y322990D01*
X203612Y323095D01*
X203728Y323207D01*
X204735Y322800D01*
D02*
G37*
G36*
X109842Y321356D02*
X109757Y321326D01*
X109682Y321275D01*
X109617Y321205D01*
X109562Y321113D01*
X109517Y321002D01*
X109482Y320871D01*
X109457Y320719D01*
X109442Y320547D01*
X109437Y320355D01*
X108437D01*
X108432Y320547D01*
X108417Y320719D01*
X108392Y320871D01*
X108357Y321002D01*
X108312Y321113D01*
X108257Y321205D01*
X108192Y321275D01*
X108117Y321326D01*
X108032Y321356D01*
X107937Y321367D01*
X109937D01*
X109842Y321356D01*
D02*
G37*
G36*
X74970Y320988D02*
X74535Y320985D01*
X73755Y320933D01*
X73410Y320884D01*
X73095Y320820D01*
X72811Y320740D01*
X72557Y320645D01*
X72333Y320535D01*
X72139Y320409D01*
X71976Y320269D01*
X71268Y320976D01*
X71409Y321139D01*
X71535Y321333D01*
X71645Y321557D01*
X71740Y321811D01*
X71820Y322095D01*
X71884Y322410D01*
X71933Y322755D01*
X71985Y323535D01*
X71988Y323970D01*
X74970Y320988D01*
D02*
G37*
G36*
X203954Y319827D02*
X203872Y319722D01*
X203800Y319609D01*
X203737Y319489D01*
X203684Y319361D01*
X203640Y319226D01*
X203607Y319083D01*
X203582Y318933D01*
X203568Y318775D01*
X203563Y318610D01*
X202563Y318565D01*
X202558Y318731D01*
X202542Y318889D01*
X202517Y319038D01*
X202481Y319179D01*
X202434Y319310D01*
X202378Y319434D01*
X202311Y319548D01*
X202233Y319654D01*
X202146Y319752D01*
X202048Y319841D01*
X204046Y319925D01*
X203954Y319827D01*
D02*
G37*
G36*
X177132Y320460D02*
X177006Y320316D01*
X176893Y320150D01*
X176795Y319963D01*
X176710Y319754D01*
X176640Y319524D01*
X176584Y319272D01*
X176542Y318999D01*
X176514Y318704D01*
X176499Y318050D01*
X174000Y320500D01*
X174341Y320507D01*
X174956Y320559D01*
X175231Y320606D01*
X175483Y320665D01*
X175714Y320738D01*
X175923Y320824D01*
X176110Y320922D01*
X176275Y321035D01*
X176418Y321160D01*
X177132Y320460D01*
D02*
G37*
G36*
X222497Y319783D02*
X222508Y319651D01*
X222533Y319521D01*
X222570Y319392D01*
X222620Y319264D01*
X222682Y319138D01*
X222758Y319013D01*
X222846Y318889D01*
X222947Y318767D01*
X223061Y318647D01*
X222354Y317939D01*
X222233Y318053D01*
X222111Y318154D01*
X221987Y318242D01*
X221862Y318318D01*
X221736Y318380D01*
X221608Y318430D01*
X221479Y318467D01*
X221349Y318492D01*
X221217Y318503D01*
X221083Y318502D01*
X222498Y319917D01*
X222497Y319783D01*
D02*
G37*
G36*
X44640Y318385D02*
X44670Y318043D01*
X44720Y317741D01*
X44790Y317480D01*
X44880Y317259D01*
X44990Y317077D01*
X45120Y316937D01*
X45270Y316836D01*
X45440Y316776D01*
X45630Y316756D01*
X41630D01*
X41820Y316776D01*
X41990Y316836D01*
X42140Y316937D01*
X42270Y317077D01*
X42380Y317259D01*
X42470Y317480D01*
X42540Y317741D01*
X42590Y318043D01*
X42620Y318385D01*
X42630Y318767D01*
X44630D01*
X44640Y318385D01*
D02*
G37*
G36*
X203568Y317453D02*
X203583Y317281D01*
X203608Y317129D01*
X203643Y316998D01*
X203688Y316886D01*
X203743Y316795D01*
X203808Y316725D01*
X203883Y316674D01*
X203968Y316644D01*
X204063Y316634D01*
X202063D01*
X202158Y316644D01*
X202243Y316674D01*
X202318Y316725D01*
X202383Y316795D01*
X202438Y316886D01*
X202483Y316998D01*
X202518Y317129D01*
X202543Y317281D01*
X202558Y317453D01*
X202563Y317646D01*
X203563D01*
X203568Y317453D01*
D02*
G37*
G36*
X146512Y317759D02*
X146550Y317563D01*
X146613Y317360D01*
X146700Y317153D01*
X146812Y316939D01*
X146950Y316720D01*
X147113Y316495D01*
X147300Y316264D01*
X147750Y315785D01*
X144250D01*
X144488Y316027D01*
X144887Y316495D01*
X145050Y316720D01*
X145187Y316939D01*
X145300Y317153D01*
X145387Y317360D01*
X145450Y317563D01*
X145487Y317759D01*
X145500Y317950D01*
X146500D01*
X146512Y317759D01*
D02*
G37*
G36*
X167505Y315642D02*
X167520Y315470D01*
X167545Y315318D01*
X167580Y315187D01*
X167625Y315075D01*
X167680Y314984D01*
X167745Y314914D01*
X167820Y314863D01*
X167905Y314833D01*
X168000Y314823D01*
X166000D01*
X166095Y314833D01*
X166180Y314863D01*
X166255Y314914D01*
X166320Y314984D01*
X166375Y315075D01*
X166420Y315187D01*
X166455Y315318D01*
X166480Y315470D01*
X166495Y315642D01*
X166500Y315834D01*
X167500D01*
X167505Y315642D01*
D02*
G37*
G36*
X159631D02*
X159646Y315470D01*
X159671Y315318D01*
X159706Y315187D01*
X159751Y315075D01*
X159806Y314984D01*
X159871Y314914D01*
X159946Y314863D01*
X160031Y314833D01*
X160126Y314823D01*
X158126D01*
X158221Y314833D01*
X158306Y314863D01*
X158381Y314914D01*
X158446Y314984D01*
X158501Y315075D01*
X158546Y315187D01*
X158581Y315318D01*
X158606Y315470D01*
X158621Y315642D01*
X158626Y315834D01*
X159626D01*
X159631Y315642D01*
D02*
G37*
G36*
X53749Y315129D02*
X53764Y314959D01*
X53789Y314809D01*
X53824Y314679D01*
X53869Y314569D01*
X53924Y314479D01*
X53989Y314409D01*
X54064Y314359D01*
X54149Y314329D01*
X54244Y314319D01*
X52244D01*
X52339Y314329D01*
X52424Y314359D01*
X52499Y314409D01*
X52564Y314479D01*
X52619Y314569D01*
X52664Y314679D01*
X52699Y314809D01*
X52724Y314959D01*
X52739Y315129D01*
X52744Y315319D01*
X53744D01*
X53749Y315129D01*
D02*
G37*
G36*
X19331Y314232D02*
X19311Y314251D01*
X19251Y314268D01*
X19151Y314282D01*
X19011Y314295D01*
X18051Y314326D01*
X17331Y314330D01*
Y316330D01*
X17711Y316335D01*
X18611Y316400D01*
X18831Y316440D01*
X19011Y316488D01*
X19151Y316545D01*
X19251Y316610D01*
X19311Y316685D01*
X19331Y316768D01*
Y314232D01*
D02*
G37*
G36*
X229024Y314000D02*
X229014Y314095D01*
X228983Y314180D01*
X228933Y314255D01*
X228862Y314320D01*
X228771Y314375D01*
X228660Y314420D01*
X228528Y314455D01*
X228376Y314480D01*
X228204Y314495D01*
X228012Y314500D01*
Y315500D01*
X228204Y315505D01*
X228376Y315520D01*
X228528Y315545D01*
X228660Y315580D01*
X228771Y315625D01*
X228862Y315680D01*
X228933Y315745D01*
X228983Y315820D01*
X229014Y315905D01*
X229024Y316000D01*
Y314000D01*
D02*
G37*
G36*
X181000Y315791D02*
X181011Y315622D01*
X181043Y315438D01*
X181096Y315238D01*
X181172Y315022D01*
X181268Y314791D01*
X181525Y314281D01*
X181686Y314003D01*
X182072Y313399D01*
X178642Y314099D01*
X178900Y314276D01*
X179131Y314456D01*
X179335Y314639D01*
X179511Y314825D01*
X179661Y315013D01*
X179783Y315205D01*
X179878Y315399D01*
X179946Y315597D01*
X179986Y315797D01*
X180000Y316000D01*
X181000Y315791D01*
D02*
G37*
G36*
X191903Y315147D02*
X192063Y315036D01*
X192248Y314935D01*
X192457Y314843D01*
X192689Y314760D01*
X192945Y314688D01*
X193224Y314624D01*
X193855Y314526D01*
X194206Y314492D01*
X191513Y312256D01*
X191539Y312581D01*
X191539Y313174D01*
X191512Y313440D01*
X191469Y313688D01*
X191408Y313915D01*
X191330Y314123D01*
X191234Y314311D01*
X191121Y314479D01*
X190991Y314628D01*
X191765Y315268D01*
X191903Y315147D01*
D02*
G37*
G36*
X204739Y312353D02*
X204700Y312275D01*
X204693Y312178D01*
X204717Y312064D01*
X204773Y311931D01*
X204860Y311781D01*
X204980Y311612D01*
X205132Y311426D01*
X205530Y311000D01*
X204822Y310294D01*
X204564Y310544D01*
X203900Y311105D01*
X203714Y311228D01*
X203546Y311320D01*
X203396Y311379D01*
X203264Y311407D01*
X203150Y311403D01*
X203054Y311367D01*
X204811Y312414D01*
X204739Y312353D01*
D02*
G37*
G36*
X74970Y310988D02*
X74535Y310985D01*
X73755Y310933D01*
X73410Y310884D01*
X73095Y310820D01*
X72811Y310740D01*
X72557Y310645D01*
X72333Y310535D01*
X72139Y310409D01*
X71976Y310268D01*
X71268Y310976D01*
X71409Y311139D01*
X71535Y311333D01*
X71645Y311557D01*
X71740Y311811D01*
X71820Y312095D01*
X71884Y312410D01*
X71933Y312755D01*
X71985Y313535D01*
X71988Y313970D01*
X74970Y310988D01*
D02*
G37*
G36*
X46679Y311405D02*
X46709Y311320D01*
X46759Y311245D01*
X46829Y311180D01*
X46919Y311125D01*
X47029Y311080D01*
X47159Y311045D01*
X47309Y311020D01*
X47479Y311005D01*
X47669Y311000D01*
Y310000D01*
X47479Y309995D01*
X47309Y309980D01*
X47159Y309955D01*
X47029Y309920D01*
X46919Y309875D01*
X46829Y309820D01*
X46759Y309755D01*
X46709Y309680D01*
X46679Y309595D01*
X46669Y309500D01*
Y311500D01*
X46679Y311405D01*
D02*
G37*
G36*
X25419D02*
X25449Y311320D01*
X25499Y311245D01*
X25569Y311180D01*
X25659Y311125D01*
X25769Y311080D01*
X25899Y311045D01*
X26049Y311020D01*
X26219Y311005D01*
X26409Y311000D01*
Y310000D01*
X26219Y309995D01*
X26049Y309980D01*
X25899Y309955D01*
X25769Y309920D01*
X25659Y309875D01*
X25569Y309820D01*
X25499Y309755D01*
X25449Y309680D01*
X25419Y309595D01*
X25409Y309500D01*
Y311500D01*
X25419Y311405D01*
D02*
G37*
G36*
X168694Y310922D02*
X168669Y310830D01*
X168671Y310723D01*
X168701Y310603D01*
X168759Y310468D01*
X168845Y310320D01*
X168958Y310158D01*
X169100Y309981D01*
X169467Y309587D01*
X168803Y308836D01*
X168595Y309037D01*
X168223Y309354D01*
X168060Y309469D01*
X167911Y309555D01*
X167777Y309612D01*
X167657Y309641D01*
X167553Y309641D01*
X167464Y309613D01*
X167389Y309556D01*
X168748Y311001D01*
X168694Y310922D01*
D02*
G37*
G36*
X160818Y310881D02*
X160791Y310790D01*
X160792Y310684D01*
X160822Y310565D01*
X160880Y310430D01*
X160966Y310282D01*
X161080Y310119D01*
X161223Y309941D01*
X161593Y309543D01*
X160886Y308836D01*
X160679Y309036D01*
X160310Y309349D01*
X160147Y309464D01*
X159999Y309549D01*
X159864Y309607D01*
X159745Y309637D01*
X159639Y309638D01*
X159548Y309611D01*
X159471Y309556D01*
X160874Y310958D01*
X160818Y310881D01*
D02*
G37*
G36*
X195394Y309925D02*
X195137Y309742D01*
X194908Y309557D01*
X194705Y309370D01*
X194529Y309181D01*
X194381Y308990D01*
X194259Y308796D01*
X194165Y308601D01*
X194097Y308403D01*
X194056Y308203D01*
X194043Y308000D01*
X193043Y308190D01*
X193032Y308362D01*
X192999Y308548D01*
X192945Y308749D01*
X192869Y308964D01*
X192771Y309194D01*
X192651Y309439D01*
X192345Y309972D01*
X191953Y310565D01*
X195394Y309925D01*
D02*
G37*
G36*
X30705Y310020D02*
X30870Y309908D01*
X31057Y309809D01*
X31266Y309724D01*
X31496Y309653D01*
X31749Y309595D01*
X32023Y309551D01*
X32318Y309520D01*
X32975Y309500D01*
X30500Y307025D01*
X30497Y307364D01*
X30449Y307977D01*
X30405Y308251D01*
X30347Y308504D01*
X30276Y308734D01*
X30191Y308943D01*
X30092Y309130D01*
X29980Y309296D01*
X29854Y309439D01*
X30561Y310146D01*
X30705Y310020D01*
D02*
G37*
G36*
X188568Y307453D02*
X188583Y307281D01*
X188608Y307129D01*
X188643Y306998D01*
X188688Y306887D01*
X188743Y306795D01*
X188808Y306725D01*
X188883Y306674D01*
X188968Y306644D01*
X189063Y306633D01*
X187063D01*
X187158Y306644D01*
X187243Y306674D01*
X187318Y306725D01*
X187383Y306795D01*
X187438Y306887D01*
X187483Y306998D01*
X187518Y307129D01*
X187543Y307281D01*
X187558Y307453D01*
X187563Y307646D01*
X188563D01*
X188568Y307453D01*
D02*
G37*
G36*
X194368Y307168D02*
X194706Y306874D01*
X194854Y306765D01*
X194989Y306682D01*
X195108Y306624D01*
X195214Y306591D01*
X195305Y306584D01*
X195383Y306602D01*
X195446Y306645D01*
X194177Y305377D01*
X194221Y305440D01*
X194239Y305517D01*
X194232Y305609D01*
X194199Y305715D01*
X194141Y305834D01*
X194058Y305968D01*
X193949Y306116D01*
X193815Y306279D01*
X193470Y306645D01*
X194177Y307353D01*
X194368Y307168D01*
D02*
G37*
G36*
X209382Y307155D02*
X209750Y306843D01*
X209913Y306730D01*
X210061Y306645D01*
X210196Y306589D01*
X210316Y306561D01*
X210422D01*
X210514Y306589D01*
X210592Y306645D01*
X209177Y305231D01*
X209234Y305309D01*
X209262Y305401D01*
Y305507D01*
X209234Y305627D01*
X209177Y305762D01*
X209092Y305910D01*
X208979Y306073D01*
X208838Y306249D01*
X208470Y306645D01*
X209177Y307353D01*
X209382Y307155D01*
D02*
G37*
G36*
X42005Y304244D02*
X41928Y304300D01*
X41837Y304327D01*
X41732Y304326D01*
X41612Y304296D01*
X41478Y304239D01*
X41329Y304152D01*
X41166Y304038D01*
X40989Y303895D01*
X40591Y303525D01*
X39884Y304233D01*
X40083Y304439D01*
X40396Y304808D01*
X40511Y304971D01*
X40597Y305119D01*
X40655Y305254D01*
X40684Y305373D01*
X40685Y305479D01*
X40658Y305570D01*
X40603Y305647D01*
X42005Y304244D01*
D02*
G37*
G36*
X16088Y307408D02*
X16237Y307270D01*
X16399Y307148D01*
X16573Y307043D01*
X16760Y306953D01*
X16960Y306880D01*
X17172Y306823D01*
X17397Y306783D01*
X17635Y306758D01*
X17767Y306754D01*
X19331Y306768D01*
Y304233D01*
X19311Y304331D01*
X19251Y304419D01*
X19151Y304496D01*
X19011Y304564D01*
X18831Y304621D01*
X18611Y304667D01*
X18351Y304703D01*
X18051Y304729D01*
X17493Y304745D01*
X17417Y304743D01*
X17179Y304723D01*
X16950Y304690D01*
X16730Y304643D01*
X16519Y304583D01*
X16317Y304509D01*
X16124Y304422D01*
X15941Y304321D01*
X15767Y304207D01*
X15601Y304080D01*
X15951Y307563D01*
X16088Y307408D01*
D02*
G37*
G36*
X46679Y305590D02*
X46709Y305505D01*
X46759Y305430D01*
X46829Y305365D01*
X46919Y305310D01*
X47029Y305265D01*
X47159Y305230D01*
X47309Y305205D01*
X47479Y305190D01*
X47669Y305185D01*
Y304185D01*
X46669Y304233D01*
Y305685D01*
X46679Y305590D01*
D02*
G37*
G36*
X166232Y304535D02*
X166261Y304254D01*
X166287Y304140D01*
X166320Y304044D01*
X166360Y303965D01*
X166408Y303903D01*
X166463Y303859D01*
X166525Y303832D01*
X166595Y303822D01*
X165240Y303835D01*
X165228Y304701D01*
X166228D01*
X166232Y304535D01*
D02*
G37*
G36*
X50611Y303685D02*
X50600Y303780D01*
X50570Y303865D01*
X50520Y303940D01*
X50449Y304005D01*
X50358Y304060D01*
X50246Y304105D01*
X50115Y304140D01*
X49963Y304165D01*
X49791Y304180D01*
X49599Y304185D01*
Y305185D01*
X49791Y305190D01*
X49963Y305205D01*
X50115Y305230D01*
X50246Y305265D01*
X50358Y305310D01*
X50449Y305365D01*
X50520Y305430D01*
X50570Y305505D01*
X50600Y305590D01*
X50611Y305685D01*
Y303685D01*
D02*
G37*
G36*
X201303Y303000D02*
X201293Y303095D01*
X201263Y303180D01*
X201213Y303255D01*
X201143Y303320D01*
X201053Y303375D01*
X200943Y303420D01*
X200813Y303455D01*
X200663Y303480D01*
X200493Y303495D01*
X200303Y303500D01*
Y304500D01*
X200493Y304505D01*
X200663Y304520D01*
X200813Y304545D01*
X200943Y304580D01*
X201053Y304625D01*
X201143Y304680D01*
X201213Y304745D01*
X201263Y304820D01*
X201293Y304905D01*
X201303Y305000D01*
Y303000D01*
D02*
G37*
G36*
X197695Y304905D02*
X197725Y304820D01*
X197776Y304745D01*
X197847Y304680D01*
X197938Y304625D01*
X198049Y304580D01*
X198180Y304545D01*
X198332Y304520D01*
X198504Y304505D01*
X198697Y304500D01*
Y303500D01*
X198504Y303495D01*
X198332Y303480D01*
X198180Y303455D01*
X198049Y303420D01*
X197938Y303375D01*
X197847Y303320D01*
X197776Y303255D01*
X197725Y303180D01*
X197695Y303095D01*
X197685Y303000D01*
Y305000D01*
X197695Y304905D01*
D02*
G37*
G36*
X132849Y301892D02*
X132539Y302197D01*
X131951Y302712D01*
X131672Y302921D01*
X131404Y303098D01*
X131147Y303243D01*
X130900Y303355D01*
X130664Y303436D01*
X130438Y303484D01*
X130223Y303500D01*
Y304500D01*
X130438Y304516D01*
X130664Y304564D01*
X130900Y304645D01*
X131147Y304757D01*
X131404Y304902D01*
X131672Y305079D01*
X131951Y305288D01*
X132539Y305803D01*
X132849Y306108D01*
Y301892D01*
D02*
G37*
G36*
X74970Y300988D02*
X74535Y300985D01*
X73755Y300933D01*
X73410Y300884D01*
X73095Y300820D01*
X72811Y300740D01*
X72557Y300645D01*
X72333Y300535D01*
X72139Y300409D01*
X71976Y300269D01*
X71268Y300976D01*
X71409Y301139D01*
X71535Y301333D01*
X71645Y301557D01*
X71740Y301811D01*
X71820Y302095D01*
X71884Y302410D01*
X71933Y302755D01*
X71985Y303535D01*
X71988Y303970D01*
X74970Y300988D01*
D02*
G37*
G36*
X157366Y300189D02*
X157356Y300284D01*
X157326Y300369D01*
X157276Y300444D01*
X157206Y300509D01*
X157116Y300564D01*
X157006Y300609D01*
X156876Y300644D01*
X156726Y300669D01*
X156556Y300684D01*
X156366Y300689D01*
Y301689D01*
X156556Y301694D01*
X156726Y301709D01*
X156876Y301734D01*
X157006Y301769D01*
X157116Y301814D01*
X157206Y301869D01*
X157276Y301934D01*
X157326Y302009D01*
X157356Y302094D01*
X157366Y302189D01*
Y300189D01*
D02*
G37*
G36*
X23275Y299234D02*
X23190Y299204D01*
X23115Y299153D01*
X23050Y299082D01*
X22995Y298991D01*
X22950Y298880D01*
X22915Y298749D01*
X22890Y298597D01*
X22875Y298425D01*
X22870Y298233D01*
X21870D01*
X21865Y298425D01*
X21850Y298597D01*
X21825Y298749D01*
X21790Y298880D01*
X21745Y298991D01*
X21690Y299082D01*
X21625Y299153D01*
X21550Y299204D01*
X21465Y299234D01*
X21370Y299244D01*
X23370D01*
X23275Y299234D01*
D02*
G37*
G36*
X149146Y300439D02*
X149020Y300295D01*
X148908Y300130D01*
X148809Y299943D01*
X148724Y299734D01*
X148653Y299504D01*
X148595Y299251D01*
X148551Y298977D01*
X148520Y298682D01*
X148500Y298025D01*
X146025Y300500D01*
X146364Y300503D01*
X146977Y300551D01*
X147251Y300595D01*
X147504Y300653D01*
X147734Y300724D01*
X147943Y300809D01*
X148130Y300908D01*
X148295Y301020D01*
X148439Y301146D01*
X149146Y300439D01*
D02*
G37*
G36*
X45440Y299224D02*
X45270Y299164D01*
X45120Y299063D01*
X44990Y298923D01*
X44880Y298742D01*
X44790Y298520D01*
X44720Y298259D01*
X44670Y297957D01*
X44640Y297615D01*
X44630Y297233D01*
X42630D01*
X42620Y297615D01*
X42590Y297957D01*
X42540Y298259D01*
X42470Y298520D01*
X42380Y298742D01*
X42270Y298923D01*
X42140Y299063D01*
X41990Y299164D01*
X41820Y299224D01*
X41630Y299244D01*
X45630D01*
X45440Y299224D01*
D02*
G37*
G36*
X148311Y296977D02*
X148256Y296701D01*
X148224Y296440D01*
X148217Y296193D01*
X148233Y295962D01*
X148274Y295746D01*
X148338Y295544D01*
X148427Y295358D01*
X148539Y295187D01*
X148676Y295031D01*
X147755Y294538D01*
X147639Y294640D01*
X147495Y294743D01*
X147322Y294847D01*
X147120Y294952D01*
X146633Y295163D01*
X146032Y295377D01*
X145317Y295595D01*
X148391Y297269D01*
X148311Y296977D01*
D02*
G37*
G36*
X138432Y297382D02*
X138283Y297208D01*
X138156Y297008D01*
X138052Y296783D01*
X137971Y296533D01*
X137913Y296256D01*
X137879Y295955D01*
X137867Y295628D01*
X137879Y295275D01*
X137913Y294898D01*
X137971Y294494D01*
X134565Y296980D01*
X135028Y297053D01*
X136206Y297308D01*
X136528Y297405D01*
X137067Y297616D01*
X137284Y297730D01*
X137466Y297851D01*
X137613Y297977D01*
X138432Y297382D01*
D02*
G37*
G36*
X33442Y294453D02*
X33457Y294281D01*
X33482Y294129D01*
X33517Y293998D01*
X33562Y293886D01*
X33617Y293795D01*
X33682Y293725D01*
X33757Y293674D01*
X33842Y293644D01*
X33937Y293634D01*
X31937D01*
X32032Y293644D01*
X32117Y293674D01*
X32192Y293725D01*
X32257Y293795D01*
X32312Y293886D01*
X32357Y293998D01*
X32392Y294129D01*
X32417Y294281D01*
X32432Y294453D01*
X32437Y294646D01*
X33437D01*
X33442Y294453D01*
D02*
G37*
G36*
X149417Y294297D02*
X149539Y294196D01*
X149662Y294107D01*
X149787Y294029D01*
X149914Y293965D01*
X150041Y293912D01*
X150171Y293871D01*
X150302Y293843D01*
X150434Y293827D01*
X150568Y293823D01*
X150649Y292381D01*
X149098Y292467D01*
X149104Y292600D01*
X149097Y292730D01*
X149076Y292860D01*
X149042Y292989D01*
X148995Y293116D01*
X148934Y293242D01*
X148861Y293367D01*
X148773Y293490D01*
X148673Y293613D01*
X148559Y293734D01*
X149297Y294410D01*
X149417Y294297D01*
D02*
G37*
G36*
X23509Y294153D02*
X23879Y293840D01*
X24042Y293725D01*
X24190Y293639D01*
X24324Y293582D01*
X24444Y293552D01*
X24550Y293551D01*
X24641Y293578D01*
X24717Y293634D01*
X23315Y292231D01*
X23371Y292308D01*
X23398Y292399D01*
X23397Y292505D01*
X23367Y292624D01*
X23309Y292759D01*
X23223Y292907D01*
X23109Y293070D01*
X22966Y293248D01*
X22596Y293646D01*
X23303Y294353D01*
X23509Y294153D01*
D02*
G37*
G36*
X152090Y292301D02*
X152094Y292167D01*
X152111Y292034D01*
X152139Y291903D01*
X152180Y291774D01*
X152232Y291646D01*
X152297Y291519D01*
X152374Y291394D01*
X152463Y291271D01*
X152565Y291149D01*
X152678Y291029D01*
X152002Y290291D01*
X151881Y290405D01*
X151758Y290506D01*
X151635Y290593D01*
X151510Y290667D01*
X151384Y290727D01*
X151256Y290774D01*
X151128Y290808D01*
X150998Y290829D01*
X150867Y290836D01*
X150735Y290830D01*
X150649Y292381D01*
X152090Y292301D01*
D02*
G37*
G36*
X20728Y291867D02*
X21195Y291467D01*
X21420Y291304D01*
X21640Y291167D01*
X21853Y291054D01*
X22061Y290967D01*
X22263Y290904D01*
X22460Y290867D01*
X22529Y290862D01*
X22668Y290874D01*
X22819Y290899D01*
X22951Y290934D01*
X23062Y290979D01*
X23153Y291034D01*
X23224Y291099D01*
X23275Y291174D01*
X23305Y291259D01*
X23315Y291354D01*
Y289354D01*
X23305Y289449D01*
X23275Y289534D01*
X23224Y289609D01*
X23153Y289674D01*
X23062Y289729D01*
X22951Y289774D01*
X22819Y289809D01*
X22668Y289834D01*
X22529Y289846D01*
X22460Y289842D01*
X22263Y289804D01*
X22061Y289742D01*
X21853Y289654D01*
X21640Y289542D01*
X21420Y289404D01*
X21195Y289242D01*
X20965Y289054D01*
X20486Y288604D01*
Y292104D01*
X20728Y291867D01*
D02*
G37*
G36*
X157366Y289189D02*
X157356Y289284D01*
X157326Y289369D01*
X157276Y289444D01*
X157206Y289509D01*
X157116Y289564D01*
X157006Y289609D01*
X156876Y289644D01*
X156726Y289669D01*
X156556Y289684D01*
X156366Y289689D01*
Y290689D01*
X156556Y290694D01*
X156726Y290709D01*
X156876Y290734D01*
X157006Y290769D01*
X157116Y290814D01*
X157206Y290869D01*
X157276Y290934D01*
X157326Y291009D01*
X157356Y291094D01*
X157366Y291189D01*
Y289189D01*
D02*
G37*
G36*
X166655Y287544D02*
X166577Y287600D01*
X166485Y287628D01*
X166379D01*
X166259Y287600D01*
X166124Y287544D01*
X165976Y287459D01*
X165813Y287346D01*
X165636Y287204D01*
X165240Y286836D01*
X164533Y287544D01*
X164731Y287749D01*
X165042Y288116D01*
X165155Y288279D01*
X165240Y288427D01*
X165297Y288562D01*
X165325Y288682D01*
Y288788D01*
X165297Y288880D01*
X165240Y288958D01*
X166655Y287544D01*
D02*
G37*
G36*
X207215Y287250D02*
X206973Y287488D01*
X206505Y287888D01*
X206280Y288050D01*
X206061Y288188D01*
X205847Y288300D01*
X205640Y288387D01*
X205437Y288450D01*
X205241Y288488D01*
X205050Y288500D01*
Y289500D01*
X205241Y289512D01*
X205437Y289550D01*
X205640Y289613D01*
X205847Y289700D01*
X206061Y289812D01*
X206280Y289950D01*
X206505Y290112D01*
X206736Y290300D01*
X207215Y290750D01*
Y287250D01*
D02*
G37*
G36*
X102632Y286083D02*
X102506Y285918D01*
X102394Y285743D01*
X102298Y285557D01*
X102217Y285361D01*
X102150Y285154D01*
X102098Y284937D01*
X102061Y284710D01*
X102039Y284471D01*
X102032Y284223D01*
X100031Y284195D01*
X100024Y284444D01*
X100001Y284682D01*
X99963Y284909D01*
X99910Y285125D01*
X99842Y285331D01*
X99758Y285525D01*
X99660Y285708D01*
X99546Y285881D01*
X99417Y286042D01*
X99273Y286193D01*
X102772Y286237D01*
X102632Y286083D01*
D02*
G37*
G36*
X223328Y281937D02*
X223318Y282032D01*
X223288Y282117D01*
X223237Y282192D01*
X223166Y282257D01*
X223075Y282312D01*
X222964Y282357D01*
X222832Y282392D01*
X222681Y282417D01*
X222509Y282432D01*
X222316Y282437D01*
Y283437D01*
X222509Y283442D01*
X222681Y283457D01*
X222832Y283482D01*
X222964Y283517D01*
X223075Y283562D01*
X223166Y283617D01*
X223237Y283682D01*
X223288Y283757D01*
X223318Y283842D01*
X223328Y283937D01*
Y281937D01*
D02*
G37*
G36*
X219605Y283842D02*
X219636Y283757D01*
X219687Y283682D01*
X219757Y283617D01*
X219848Y283562D01*
X219960Y283517D01*
X220091Y283482D01*
X220243Y283457D01*
X220415Y283442D01*
X220607Y283437D01*
Y282437D01*
X220415Y282432D01*
X220243Y282417D01*
X220091Y282392D01*
X219960Y282357D01*
X219848Y282312D01*
X219757Y282257D01*
X219687Y282192D01*
X219636Y282117D01*
X219605Y282032D01*
X219595Y281937D01*
Y283937D01*
X219605Y283842D01*
D02*
G37*
G36*
X214328Y281937D02*
X214318Y282032D01*
X214288Y282117D01*
X214237Y282192D01*
X214166Y282257D01*
X214075Y282312D01*
X213964Y282357D01*
X213832Y282392D01*
X213681Y282417D01*
X213509Y282432D01*
X213316Y282437D01*
Y283437D01*
X213509Y283442D01*
X213681Y283457D01*
X213832Y283482D01*
X213964Y283517D01*
X214075Y283562D01*
X214166Y283617D01*
X214237Y283682D01*
X214288Y283757D01*
X214318Y283842D01*
X214328Y283937D01*
Y281937D01*
D02*
G37*
G36*
X204644Y283842D02*
X204674Y283757D01*
X204725Y283682D01*
X204795Y283617D01*
X204887Y283562D01*
X204998Y283517D01*
X205129Y283482D01*
X205281Y283457D01*
X205453Y283442D01*
X205645Y283437D01*
Y282437D01*
X205453Y282432D01*
X205281Y282417D01*
X205129Y282392D01*
X204998Y282357D01*
X204887Y282312D01*
X204795Y282257D01*
X204725Y282192D01*
X204674Y282117D01*
X204644Y282032D01*
X204633Y281937D01*
Y283937D01*
X204644Y283842D01*
D02*
G37*
G36*
X199366Y281937D02*
X199356Y282032D01*
X199326Y282117D01*
X199275Y282192D01*
X199205Y282257D01*
X199114Y282312D01*
X199002Y282357D01*
X198871Y282392D01*
X198719Y282417D01*
X198547Y282432D01*
X198354Y282437D01*
Y283437D01*
X198547Y283442D01*
X198719Y283457D01*
X198871Y283482D01*
X199002Y283517D01*
X199114Y283562D01*
X199205Y283617D01*
X199275Y283682D01*
X199326Y283757D01*
X199356Y283842D01*
X199366Y283937D01*
Y281937D01*
D02*
G37*
G36*
X195644Y283842D02*
X195674Y283757D01*
X195725Y283682D01*
X195795Y283617D01*
X195887Y283562D01*
X195998Y283517D01*
X196129Y283482D01*
X196281Y283457D01*
X196453Y283442D01*
X196645Y283437D01*
Y282437D01*
X196453Y282432D01*
X196281Y282417D01*
X196129Y282392D01*
X195998Y282357D01*
X195887Y282312D01*
X195795Y282257D01*
X195725Y282192D01*
X195674Y282117D01*
X195644Y282032D01*
X195633Y281937D01*
Y283937D01*
X195644Y283842D01*
D02*
G37*
G36*
X190366Y281937D02*
X190356Y282032D01*
X190326Y282117D01*
X190275Y282192D01*
X190205Y282257D01*
X190113Y282312D01*
X190002Y282357D01*
X189871Y282392D01*
X189719Y282417D01*
X189547Y282432D01*
X189355Y282437D01*
Y283437D01*
X189547Y283442D01*
X189719Y283457D01*
X189871Y283482D01*
X190002Y283517D01*
X190113Y283562D01*
X190205Y283617D01*
X190275Y283682D01*
X190326Y283757D01*
X190356Y283842D01*
X190366Y283937D01*
Y281937D01*
D02*
G37*
G36*
X186644Y283842D02*
X186674Y283757D01*
X186725Y283682D01*
X186795Y283617D01*
X186887Y283562D01*
X186998Y283517D01*
X187129Y283482D01*
X187281Y283457D01*
X187453Y283442D01*
X187645Y283437D01*
Y282437D01*
X187453Y282432D01*
X187281Y282417D01*
X187129Y282392D01*
X186998Y282357D01*
X186887Y282312D01*
X186795Y282257D01*
X186725Y282192D01*
X186674Y282117D01*
X186644Y282032D01*
X186634Y281937D01*
Y283937D01*
X186644Y283842D01*
D02*
G37*
G36*
X181367Y281937D02*
X181356Y282032D01*
X181326Y282117D01*
X181275Y282192D01*
X181205Y282257D01*
X181114Y282312D01*
X181002Y282357D01*
X180871Y282392D01*
X180719Y282417D01*
X180547Y282432D01*
X180354Y282437D01*
Y283437D01*
X180547Y283442D01*
X180719Y283457D01*
X180871Y283482D01*
X181002Y283517D01*
X181114Y283562D01*
X181205Y283617D01*
X181275Y283682D01*
X181326Y283757D01*
X181356Y283842D01*
X181367Y283937D01*
Y281937D01*
D02*
G37*
G36*
X160886Y281835D02*
X159531Y281822D01*
X159601Y281832D01*
X159663Y281859D01*
X159718Y281903D01*
X159766Y281965D01*
X159806Y282044D01*
X159839Y282140D01*
X159865Y282254D01*
X159883Y282386D01*
X159894Y282535D01*
X159898Y282701D01*
X160898D01*
X160886Y281835D01*
D02*
G37*
G36*
X169467D02*
X169269Y281629D01*
X168958Y281262D01*
X168844Y281099D01*
X168760Y280951D01*
X168703Y280816D01*
X168675Y280696D01*
Y280590D01*
X168703Y280498D01*
X168760Y280420D01*
X167345Y281835D01*
X167423Y281778D01*
X167515Y281750D01*
X167621D01*
X167741Y281778D01*
X167876Y281835D01*
X168024Y281919D01*
X168187Y282032D01*
X168364Y282174D01*
X168760Y282542D01*
X169467Y281835D01*
D02*
G37*
G36*
X102039Y278266D02*
X102103Y277625D01*
X102158Y277365D01*
X102229Y277146D01*
X102316Y276965D01*
X102419Y276825D01*
X102538Y276726D01*
X102672Y276665D01*
X102823Y276645D01*
X99303D01*
X99442Y276665D01*
X99566Y276726D01*
X99675Y276825D01*
X99769Y276965D01*
X99849Y277146D01*
X99915Y277365D01*
X99966Y277625D01*
X100002Y277925D01*
X100024Y278266D01*
X100031Y278645D01*
X102032D01*
X102039Y278266D01*
D02*
G37*
G36*
X109442Y277453D02*
X109457Y277281D01*
X109482Y277129D01*
X109517Y276998D01*
X109562Y276887D01*
X109617Y276795D01*
X109682Y276725D01*
X109757Y276674D01*
X109842Y276644D01*
X109937Y276634D01*
X107937D01*
X108032Y276644D01*
X108117Y276674D01*
X108192Y276725D01*
X108257Y276795D01*
X108312Y276887D01*
X108357Y276998D01*
X108392Y277129D01*
X108417Y277281D01*
X108432Y277453D01*
X108437Y277645D01*
X109437D01*
X109442Y277453D01*
D02*
G37*
G36*
X158781Y276555D02*
X158704Y276611D01*
X158613Y276638D01*
X158507Y276637D01*
X158387Y276607D01*
X158253Y276550D01*
X158105Y276464D01*
X157942Y276349D01*
X157764Y276206D01*
X157366Y275836D01*
X156659Y276543D01*
X156858Y276750D01*
X157172Y277119D01*
X157286Y277282D01*
X157372Y277430D01*
X157430Y277565D01*
X157460Y277684D01*
X157461Y277790D01*
X157434Y277881D01*
X157378Y277958D01*
X158781Y276555D01*
D02*
G37*
G36*
X207215Y274250D02*
X206973Y274487D01*
X206505Y274887D01*
X206280Y275050D01*
X206061Y275187D01*
X205847Y275300D01*
X205640Y275388D01*
X205437Y275450D01*
X205281Y275480D01*
X205131Y275455D01*
X204999Y275420D01*
X204888Y275375D01*
X204797Y275320D01*
X204726Y275255D01*
X204675Y275180D01*
X204644Y275095D01*
X204633Y275000D01*
X204645Y276823D01*
X204656Y276761D01*
X204685Y276707D01*
X204735Y276658D01*
X204805Y276616D01*
X204895Y276581D01*
X205006Y276552D01*
X205135Y276529D01*
X205258Y276516D01*
X205437Y276550D01*
X205640Y276612D01*
X205847Y276700D01*
X206061Y276813D01*
X206280Y276950D01*
X206505Y277113D01*
X206736Y277300D01*
X207215Y277750D01*
Y274250D01*
D02*
G37*
G36*
X190560Y277332D02*
X190927Y277021D01*
X191090Y276907D01*
X191238Y276823D01*
X191373Y276766D01*
X191493Y276738D01*
X191599D01*
X191691Y276766D01*
X191769Y276823D01*
X190355Y275408D01*
X190411Y275486D01*
X190439Y275578D01*
Y275684D01*
X190411Y275804D01*
X190355Y275939D01*
X190270Y276087D01*
X190156Y276250D01*
X190015Y276427D01*
X189647Y276823D01*
X190355Y277530D01*
X190560Y277332D01*
D02*
G37*
G36*
X202965Y275501D02*
X202938Y275493D01*
X202900Y275473D01*
X202852Y275440D01*
X202792Y275394D01*
X202642Y275264D01*
X202212Y274851D01*
X201788Y275275D01*
X201910Y275398D01*
X202410Y275963D01*
X202430Y276001D01*
X202438Y276028D01*
X202965Y275501D01*
D02*
G37*
G36*
X193344Y274690D02*
X193334Y274651D01*
X193326Y274593D01*
X193313Y274421D01*
X193300Y273663D01*
X192700D01*
X192646Y274710D01*
X193354D01*
X193344Y274690D01*
D02*
G37*
G36*
X200014Y273315D02*
X199987Y273331D01*
X199952Y273334D01*
X199908Y273323D01*
X199855Y273299D01*
X199793Y273262D01*
X199723Y273212D01*
X199644Y273148D01*
X199460Y272982D01*
X199355Y272879D01*
X198930Y273303D01*
X199033Y273409D01*
X199263Y273672D01*
X199313Y273742D01*
X199350Y273804D01*
X199374Y273856D01*
X199385Y273901D01*
X199382Y273936D01*
X199366Y273963D01*
X200014Y273315D01*
D02*
G37*
G36*
X15478Y274984D02*
X15319Y274854D01*
X15177Y274712D01*
X15052Y274556D01*
X14944Y274386D01*
X14852Y274203D01*
X14777Y274006D01*
X14719Y273796D01*
X14677Y273572D01*
X14652Y273335D01*
X14644Y273084D01*
X12644Y273400D01*
X12637Y273647D01*
X12618Y273886D01*
X12587Y274115D01*
X12543Y274337D01*
X12486Y274549D01*
X12417Y274753D01*
X12335Y274948D01*
X12240Y275135D01*
X12133Y275313D01*
X12013Y275482D01*
X15478Y274984D01*
D02*
G37*
G36*
X110707Y274905D02*
X110737Y274820D01*
X110787Y274745D01*
X110857Y274680D01*
X110947Y274625D01*
X111057Y274580D01*
X111187Y274545D01*
X111337Y274520D01*
X111507Y274505D01*
X111697Y274500D01*
Y273500D01*
X111507Y273495D01*
X111337Y273480D01*
X111187Y273455D01*
X111057Y273420D01*
X110947Y273375D01*
X110857Y273320D01*
X110787Y273255D01*
X110737Y273180D01*
X110707Y273095D01*
X110697Y273000D01*
Y275000D01*
X110707Y274905D01*
D02*
G37*
G36*
X193543Y273309D02*
X193492Y273291D01*
X193447Y273260D01*
X193408Y273217D01*
X193375Y273162D01*
X193348Y273095D01*
X193327Y273015D01*
X193312Y272924D01*
X193303Y272820D01*
X193300Y272703D01*
X192700D01*
X192697Y272820D01*
X192688Y272924D01*
X192673Y273015D01*
X192652Y273095D01*
X192625Y273162D01*
X192592Y273217D01*
X192553Y273260D01*
X192508Y273291D01*
X192457Y273309D01*
X192400Y273315D01*
X193600D01*
X193543Y273309D01*
D02*
G37*
G36*
X226867Y273305D02*
X226782Y273275D01*
X226707Y273224D01*
X226642Y273153D01*
X226587Y273062D01*
X226542Y272951D01*
X226507Y272819D01*
X226482Y272668D01*
X226467Y272496D01*
X226462Y272303D01*
X225462D01*
X225457Y272496D01*
X225442Y272668D01*
X225417Y272819D01*
X225382Y272951D01*
X225337Y273062D01*
X225282Y273153D01*
X225217Y273224D01*
X225142Y273275D01*
X225057Y273305D01*
X224962Y273315D01*
X226962D01*
X226867Y273305D01*
D02*
G37*
G36*
X217867D02*
X217782Y273275D01*
X217707Y273224D01*
X217642Y273153D01*
X217587Y273062D01*
X217542Y272951D01*
X217507Y272819D01*
X217482Y272668D01*
X217467Y272496D01*
X217462Y272303D01*
X216462D01*
X216457Y272496D01*
X216442Y272668D01*
X216417Y272819D01*
X216382Y272951D01*
X216337Y273062D01*
X216282Y273153D01*
X216217Y273224D01*
X216142Y273275D01*
X216057Y273305D01*
X215962Y273315D01*
X217962D01*
X217867Y273305D01*
D02*
G37*
G36*
X184905D02*
X184820Y273275D01*
X184745Y273224D01*
X184680Y273153D01*
X184625Y273062D01*
X184580Y272951D01*
X184545Y272819D01*
X184520Y272668D01*
X184505Y272496D01*
X184500Y272303D01*
X183500D01*
X183495Y272496D01*
X183480Y272668D01*
X183455Y272819D01*
X183420Y272951D01*
X183375Y273062D01*
X183320Y273153D01*
X183255Y273224D01*
X183180Y273275D01*
X183095Y273305D01*
X183000Y273315D01*
X185000D01*
X184905Y273305D01*
D02*
G37*
G36*
X99315Y272000D02*
X99295Y272190D01*
X99235Y272360D01*
X99134Y272510D01*
X98993Y272640D01*
X98812Y272750D01*
X98591Y272840D01*
X98330Y272910D01*
X98028Y272960D01*
X97686Y272990D01*
X97303Y273000D01*
Y275000D01*
X97686Y275010D01*
X98028Y275040D01*
X98330Y275090D01*
X98591Y275160D01*
X98812Y275250D01*
X98993Y275360D01*
X99134Y275490D01*
X99235Y275640D01*
X99295Y275810D01*
X99315Y276000D01*
Y272000D01*
D02*
G37*
G36*
X137461Y275803D02*
X138049Y275288D01*
X138328Y275079D01*
X138596Y274902D01*
X138853Y274757D01*
X139100Y274645D01*
X139336Y274564D01*
X139562Y274516D01*
X139777Y274500D01*
Y273500D01*
X139562Y273484D01*
X139336Y273436D01*
X139100Y273355D01*
X138853Y273243D01*
X138596Y273098D01*
X138328Y272921D01*
X138049Y272712D01*
X137461Y272197D01*
X137151Y271892D01*
Y276108D01*
X137461Y275803D01*
D02*
G37*
G36*
X77371Y275898D02*
X77598Y275709D01*
X77832Y275543D01*
X78072Y275399D01*
X78318Y275277D01*
X78571Y275177D01*
X78831Y275100D01*
X79097Y275044D01*
X79369Y275011D01*
X79648Y275000D01*
Y273000D01*
X79369Y272989D01*
X79097Y272956D01*
X78831Y272900D01*
X78571Y272823D01*
X78318Y272723D01*
X78072Y272601D01*
X77832Y272457D01*
X77598Y272291D01*
X77371Y272102D01*
X77151Y271892D01*
Y276108D01*
X77371Y275898D01*
D02*
G37*
G36*
X217462Y269000D02*
X216462Y267700D01*
X216456Y267890D01*
X216438Y268060D01*
X216408Y268210D01*
X216366Y268340D01*
X216312Y268450D01*
X216246Y268540D01*
X216168Y268610D01*
X216078Y268660D01*
X215976Y268690D01*
X215938Y268693D01*
X215562Y268700D01*
Y269300D01*
X216022Y269324D01*
X216078Y269340D01*
X216168Y269390D01*
X216246Y269460D01*
X216312Y269550D01*
X216366Y269660D01*
X216408Y269790D01*
X216438Y269940D01*
X216456Y270110D01*
X216462Y270300D01*
X217462Y269000D01*
D02*
G37*
G36*
X47505Y267504D02*
X47520Y267332D01*
X47545Y267180D01*
X47580Y267049D01*
X47625Y266938D01*
X47680Y266847D01*
X47745Y266776D01*
X47820Y266725D01*
X47905Y266695D01*
X48000Y266685D01*
X46000D01*
X46095Y266695D01*
X46180Y266725D01*
X46255Y266776D01*
X46320Y266847D01*
X46375Y266938D01*
X46420Y267049D01*
X46455Y267180D01*
X46480Y267332D01*
X46495Y267504D01*
X46500Y267697D01*
X47500D01*
X47505Y267504D01*
D02*
G37*
G36*
X203264Y266664D02*
X203280Y266477D01*
X203294Y266396D01*
X203312Y266324D01*
X203334Y266260D01*
X203360Y266204D01*
X203390Y266156D01*
X203424Y266117D01*
X203461Y266086D01*
X202462D01*
X202500Y266117D01*
X202534Y266156D01*
X202564Y266204D01*
X202590Y266260D01*
X202612Y266324D01*
X202630Y266396D01*
X202644Y266477D01*
X202654Y266566D01*
X202662Y266770D01*
X203262D01*
X203264Y266664D01*
D02*
G37*
G36*
X199327D02*
X199343Y266477D01*
X199357Y266396D01*
X199375Y266324D01*
X199397Y266260D01*
X199423Y266204D01*
X199453Y266156D01*
X199486Y266117D01*
X199524Y266086D01*
X198525D01*
X198563Y266117D01*
X198597Y266156D01*
X198627Y266204D01*
X198653Y266260D01*
X198675Y266324D01*
X198693Y266396D01*
X198707Y266477D01*
X198717Y266566D01*
X198725Y266770D01*
X199325D01*
X199327Y266664D01*
D02*
G37*
G36*
X197358D02*
X197374Y266477D01*
X197388Y266396D01*
X197406Y266324D01*
X197428Y266260D01*
X197454Y266204D01*
X197484Y266156D01*
X197518Y266117D01*
X197556Y266086D01*
X196557D01*
X196595Y266117D01*
X196629Y266156D01*
X196659Y266204D01*
X196685Y266260D01*
X196706Y266324D01*
X196724Y266396D01*
X196739Y266477D01*
X196748Y266566D01*
X196756Y266770D01*
X197356D01*
X197358Y266664D01*
D02*
G37*
G36*
X201371Y266754D02*
X201373Y266659D01*
X201388Y266481D01*
X201401Y266399D01*
X201417Y266321D01*
X201438Y266247D01*
X201462Y266177D01*
X201489Y266111D01*
X201520Y266050D01*
X201555Y265992D01*
X200494Y266086D01*
X200547Y266126D01*
X200594Y266173D01*
X200635Y266226D01*
X200672Y266285D01*
X200702Y266350D01*
X200727Y266422D01*
X200746Y266499D01*
X200760Y266584D01*
X200769Y266674D01*
X200771Y266771D01*
X201371Y266754D01*
D02*
G37*
G36*
X226467Y265507D02*
X226482Y265337D01*
X226507Y265187D01*
X226542Y265057D01*
X226587Y264947D01*
X226642Y264857D01*
X226707Y264787D01*
X226782Y264737D01*
X226867Y264707D01*
X226962Y264697D01*
X224962D01*
X225057Y264707D01*
X225142Y264737D01*
X225217Y264787D01*
X225282Y264857D01*
X225337Y264947D01*
X225382Y265057D01*
X225417Y265187D01*
X225442Y265337D01*
X225457Y265507D01*
X225462Y265697D01*
X226462D01*
X226467Y265507D01*
D02*
G37*
G36*
X217467D02*
X217482Y265337D01*
X217507Y265187D01*
X217542Y265057D01*
X217587Y264947D01*
X217642Y264857D01*
X217707Y264787D01*
X217782Y264737D01*
X217867Y264707D01*
X217962Y264697D01*
X215962D01*
X216057Y264707D01*
X216142Y264737D01*
X216217Y264787D01*
X216282Y264857D01*
X216337Y264947D01*
X216382Y265057D01*
X216417Y265187D01*
X216442Y265337D01*
X216457Y265507D01*
X216462Y265697D01*
X217462D01*
X217467Y265507D01*
D02*
G37*
G36*
X175354Y263232D02*
X175261Y263134D01*
X175183Y263038D01*
X175120Y262945D01*
X175071Y262855D01*
X175038Y262767D01*
X175019Y262682D01*
X175014Y262600D01*
X175025Y262521D01*
X175050Y262445D01*
X175090Y262371D01*
X173613Y263424D01*
X173698Y263410D01*
X173787Y263411D01*
X173880Y263426D01*
X173977Y263456D01*
X174078Y263500D01*
X174183Y263559D01*
X174293Y263632D01*
X174407Y263720D01*
X174524Y263823D01*
X174646Y263939D01*
X175354Y263232D01*
D02*
G37*
G36*
X184373Y263666D02*
X184412Y263657D01*
X184470Y263649D01*
X184642Y263636D01*
X185400Y263623D01*
Y263023D01*
X184353Y262969D01*
Y263677D01*
X184373Y263666D01*
D02*
G37*
G36*
X194516Y262723D02*
X194510Y262780D01*
X194491Y262831D01*
X194461Y262876D01*
X194418Y262915D01*
X194363Y262948D01*
X194296Y262975D01*
X194216Y262996D01*
X194124Y263011D01*
X194020Y263020D01*
X193904Y263023D01*
Y263623D01*
X194020Y263626D01*
X194124Y263635D01*
X194216Y263650D01*
X194296Y263671D01*
X194363Y263698D01*
X194418Y263731D01*
X194461Y263770D01*
X194491Y263815D01*
X194510Y263866D01*
X194516Y263923D01*
Y262723D01*
D02*
G37*
G36*
X57505Y263504D02*
X57520Y263332D01*
X57545Y263180D01*
X57580Y263049D01*
X57625Y262938D01*
X57680Y262847D01*
X57745Y262776D01*
X57820Y262725D01*
X57905Y262695D01*
X58000Y262685D01*
X56000D01*
X56095Y262695D01*
X56180Y262725D01*
X56255Y262776D01*
X56320Y262847D01*
X56375Y262938D01*
X56420Y263049D01*
X56455Y263180D01*
X56480Y263332D01*
X56495Y263504D01*
X56500Y263697D01*
X57500D01*
X57505Y263504D01*
D02*
G37*
G36*
X225661Y262537D02*
X225632Y262556D01*
X225596Y262573D01*
X225553Y262588D01*
X225504Y262601D01*
X225449Y262612D01*
X225319Y262628D01*
X225244Y262633D01*
X225076Y262637D01*
Y263237D01*
X225164Y263238D01*
X225387Y263253D01*
X225449Y263262D01*
X225553Y263286D01*
X225596Y263301D01*
X225632Y263318D01*
X225661Y263337D01*
Y262537D01*
D02*
G37*
G36*
X224165Y261189D02*
X224119Y261222D01*
X224065Y261238D01*
X224002Y261237D01*
X223930Y261219D01*
X223850Y261183D01*
X223761Y261131D01*
X223663Y261062D01*
X223556Y260976D01*
X223316Y260753D01*
X222892Y261177D01*
X223012Y261301D01*
X223201Y261524D01*
X223270Y261621D01*
X223322Y261711D01*
X223358Y261791D01*
X223376Y261863D01*
X223377Y261926D01*
X223361Y261980D01*
X223328Y262026D01*
X224165Y261189D01*
D02*
G37*
G36*
X171215Y259250D02*
X170973Y259488D01*
X170505Y259888D01*
X170280Y260050D01*
X170061Y260188D01*
X169847Y260300D01*
X169640Y260387D01*
X169438Y260450D01*
X169241Y260488D01*
X169051Y260500D01*
Y261500D01*
X169241Y261512D01*
X169438Y261550D01*
X169640Y261613D01*
X169847Y261700D01*
X170061Y261812D01*
X170280Y261950D01*
X170505Y262112D01*
X170736Y262300D01*
X171215Y262750D01*
Y259250D01*
D02*
G37*
G36*
X49644Y257968D02*
X49674Y257883D01*
X49725Y257808D01*
X49795Y257743D01*
X49887Y257688D01*
X49998Y257643D01*
X50129Y257608D01*
X50281Y257583D01*
X50453Y257568D01*
X50646Y257563D01*
Y256563D01*
X50453Y256558D01*
X50281Y256543D01*
X50129Y256518D01*
X49998Y256483D01*
X49887Y256438D01*
X49795Y256383D01*
X49725Y256318D01*
X49674Y256243D01*
X49644Y256158D01*
X49633Y256063D01*
Y258063D01*
X49644Y257968D01*
D02*
G37*
G36*
X196521Y257924D02*
X196675Y257831D01*
X196859Y257750D01*
X197072Y257680D01*
X197315Y257622D01*
X197588Y257575D01*
X197890Y257539D01*
X198584Y257502D01*
X198975Y257500D01*
X196500Y255025D01*
X196499Y255416D01*
X196425Y256412D01*
X196378Y256685D01*
X196320Y256928D01*
X196250Y257141D01*
X196169Y257325D01*
X196076Y257479D01*
X195972Y257604D01*
X196397Y258028D01*
X196521Y257924D01*
D02*
G37*
G36*
X47905Y255293D02*
X47820Y255263D01*
X47745Y255213D01*
X47680Y255143D01*
X47625Y255053D01*
X47580Y254943D01*
X47545Y254813D01*
X47520Y254663D01*
X47505Y254493D01*
X47500Y254303D01*
X46500D01*
X46495Y254493D01*
X46480Y254663D01*
X46455Y254813D01*
X46420Y254943D01*
X46375Y255053D01*
X46320Y255143D01*
X46255Y255213D01*
X46180Y255263D01*
X46095Y255293D01*
X46000Y255303D01*
X48000D01*
X47905Y255293D01*
D02*
G37*
G36*
X226867Y253305D02*
X226782Y253275D01*
X226707Y253224D01*
X226642Y253153D01*
X226587Y253062D01*
X226542Y252951D01*
X226507Y252819D01*
X226482Y252668D01*
X226467Y252496D01*
X226462Y252303D01*
X225462D01*
X225457Y252496D01*
X225442Y252668D01*
X225417Y252819D01*
X225382Y252951D01*
X225337Y253062D01*
X225282Y253153D01*
X225217Y253224D01*
X225142Y253275D01*
X225057Y253305D01*
X224962Y253315D01*
X226962D01*
X226867Y253305D01*
D02*
G37*
G36*
X217867D02*
X217782Y253275D01*
X217707Y253224D01*
X217642Y253153D01*
X217587Y253062D01*
X217542Y252951D01*
X217507Y252819D01*
X217482Y252668D01*
X217467Y252496D01*
X217462Y252303D01*
X216462D01*
X216457Y252496D01*
X216442Y252668D01*
X216417Y252819D01*
X216382Y252951D01*
X216337Y253062D01*
X216282Y253153D01*
X216217Y253224D01*
X216142Y253275D01*
X216057Y253305D01*
X215962Y253315D01*
X217962D01*
X217867Y253305D01*
D02*
G37*
G36*
X137461Y255803D02*
X138049Y255288D01*
X138328Y255079D01*
X138596Y254902D01*
X138853Y254757D01*
X139100Y254645D01*
X139336Y254564D01*
X139562Y254516D01*
X139777Y254500D01*
Y253500D01*
X139562Y253484D01*
X139336Y253436D01*
X139100Y253355D01*
X138853Y253243D01*
X138596Y253098D01*
X138328Y252921D01*
X138049Y252712D01*
X137461Y252197D01*
X137151Y251892D01*
Y256108D01*
X137461Y255803D01*
D02*
G37*
G36*
X148470Y251520D02*
X148089Y251896D01*
X147375Y252530D01*
X147041Y252787D01*
X146723Y253005D01*
X146421Y253183D01*
X146134Y253322D01*
X145862Y253421D01*
X145606Y253480D01*
X145366Y253500D01*
Y254500D01*
X145606Y254520D01*
X145862Y254579D01*
X146134Y254678D01*
X146421Y254817D01*
X146723Y254995D01*
X147041Y255213D01*
X147375Y255470D01*
X148089Y256104D01*
X148470Y256480D01*
Y251520D01*
D02*
G37*
G36*
X200712Y253178D02*
X200433Y252909D01*
X199774Y252171D01*
X199613Y251948D01*
X199481Y251738D01*
X199379Y251539D01*
X199305Y251351D01*
X199262Y251176D01*
X199247Y251012D01*
X198647Y251025D01*
X198633Y251184D01*
X198590Y251357D01*
X198518Y251545D01*
X198417Y251746D01*
X198288Y251962D01*
X198131Y252192D01*
X197729Y252694D01*
X197485Y252966D01*
X197213Y253252D01*
X200712Y253178D01*
D02*
G37*
G36*
X57905Y251293D02*
X57820Y251263D01*
X57745Y251213D01*
X57680Y251143D01*
X57625Y251053D01*
X57580Y250943D01*
X57545Y250813D01*
X57520Y250663D01*
X57505Y250493D01*
X57500Y250303D01*
X56500D01*
X56495Y250493D01*
X56480Y250663D01*
X56455Y250813D01*
X56420Y250943D01*
X56375Y251053D01*
X56320Y251143D01*
X56255Y251213D01*
X56180Y251263D01*
X56095Y251293D01*
X56000Y251303D01*
X58000D01*
X57905Y251293D01*
D02*
G37*
G36*
X199250Y249351D02*
X199258Y249261D01*
X199272Y249177D01*
X199291Y249099D01*
X199316Y249027D01*
X199347Y248962D01*
X199383Y248903D01*
X199425Y248850D01*
X199472Y248803D01*
X199524Y248763D01*
X198463Y248670D01*
X198498Y248727D01*
X198529Y248788D01*
X198557Y248854D01*
X198581Y248924D01*
X198601Y248998D01*
X198617Y249076D01*
X198630Y249159D01*
X198645Y249336D01*
X198647Y249431D01*
X199247Y249448D01*
X199250Y249351D01*
D02*
G37*
G36*
X182477Y249053D02*
X182230Y248800D01*
X181645Y248128D01*
X181502Y247933D01*
X181385Y247753D01*
X181294Y247587D01*
X181228Y247435D01*
X181189Y247298D01*
X181176Y247176D01*
X180176Y248176D01*
X180298Y248189D01*
X180435Y248229D01*
X180587Y248294D01*
X180753Y248385D01*
X180933Y248502D01*
X181128Y248645D01*
X181562Y249009D01*
X182053Y249477D01*
X182477Y249053D01*
D02*
G37*
G36*
X224603Y249486D02*
X224477Y249343D01*
X224365Y249177D01*
X224266Y248990D01*
X224181Y248781D01*
X224109Y248551D01*
X224052Y248299D01*
X224007Y248025D01*
X223977Y247729D01*
X223957Y247072D01*
X221482Y249547D01*
X221821Y249550D01*
X222434Y249598D01*
X222708Y249642D01*
X222960Y249700D01*
X223191Y249771D01*
X223400Y249856D01*
X223587Y249955D01*
X223752Y250067D01*
X223896Y250194D01*
X224603Y249486D01*
D02*
G37*
G36*
X219161Y250067D02*
X219326Y249955D01*
X219514Y249856D01*
X219723Y249771D01*
X219953Y249700D01*
X220205Y249642D01*
X220479Y249598D01*
X220775Y249567D01*
X221432Y249547D01*
X218957Y247072D01*
X218953Y247411D01*
X218906Y248025D01*
X218862Y248299D01*
X218804Y248551D01*
X218733Y248781D01*
X218647Y248990D01*
X218549Y249177D01*
X218436Y249343D01*
X218310Y249486D01*
X219018Y250194D01*
X219161Y250067D01*
D02*
G37*
G36*
X57520Y246394D02*
X57579Y246138D01*
X57678Y245866D01*
X57817Y245579D01*
X57995Y245277D01*
X58213Y244959D01*
X58470Y244625D01*
X59104Y243911D01*
X59480Y243530D01*
X54520D01*
X54896Y243911D01*
X55530Y244625D01*
X55787Y244959D01*
X56005Y245277D01*
X56183Y245579D01*
X56322Y245866D01*
X56421Y246138D01*
X56480Y246394D01*
X56500Y246634D01*
X57500D01*
X57520Y246394D01*
D02*
G37*
G36*
X47520D02*
X47579Y246138D01*
X47678Y245866D01*
X47817Y245579D01*
X47995Y245277D01*
X48213Y244959D01*
X48470Y244625D01*
X49104Y243911D01*
X49480Y243530D01*
X44520D01*
X44896Y243911D01*
X45530Y244625D01*
X45787Y244959D01*
X46005Y245277D01*
X46183Y245579D01*
X46322Y245866D01*
X46421Y246138D01*
X46480Y246394D01*
X46500Y246634D01*
X47500D01*
X47520Y246394D01*
D02*
G37*
G36*
X194588Y243237D02*
X194557Y243275D01*
X194517Y243310D01*
X194469Y243341D01*
X194413Y243367D01*
X194349Y243390D01*
X194276Y243408D01*
X194196Y243423D01*
X194107Y243433D01*
X193904Y243441D01*
Y244041D01*
X194024Y244044D01*
X194130Y244053D01*
X194224Y244068D01*
X194305Y244089D01*
X194373Y244116D01*
X194427Y244149D01*
X194469Y244188D01*
X194498Y244233D01*
X194513Y244284D01*
X194516Y244341D01*
X194588Y243237D01*
D02*
G37*
G36*
X188028Y244823D02*
X187628Y244356D01*
X187466Y244131D01*
X187328Y243911D01*
X187216Y243698D01*
X187128Y243490D01*
X187066Y243288D01*
X187028Y243092D01*
X187016Y242901D01*
X186016D01*
X186003Y243092D01*
X185966Y243288D01*
X185903Y243490D01*
X185816Y243698D01*
X185703Y243911D01*
X185566Y244131D01*
X185403Y244356D01*
X185216Y244586D01*
X184766Y245065D01*
X188266D01*
X188028Y244823D01*
D02*
G37*
G36*
X203424Y243206D02*
X203390Y243167D01*
X203360Y243119D01*
X203334Y243063D01*
X203312Y242999D01*
X203294Y242927D01*
X203280Y242846D01*
X203270Y242757D01*
X203262Y242553D01*
X202662D01*
X202660Y242659D01*
X202644Y242846D01*
X202630Y242927D01*
X202612Y242999D01*
X202590Y243063D01*
X202564Y243119D01*
X202534Y243167D01*
X202500Y243206D01*
X202462Y243237D01*
X203461D01*
X203424Y243206D01*
D02*
G37*
G36*
X197518D02*
X197484Y243167D01*
X197454Y243119D01*
X197428Y243063D01*
X197406Y242999D01*
X197388Y242927D01*
X197374Y242846D01*
X197364Y242757D01*
X197356Y242553D01*
X196756D01*
X196754Y242659D01*
X196739Y242846D01*
X196724Y242927D01*
X196706Y242999D01*
X196685Y243063D01*
X196659Y243119D01*
X196629Y243167D01*
X196595Y243206D01*
X196557Y243237D01*
X197556D01*
X197518Y243206D01*
D02*
G37*
G36*
X201520Y243273D02*
X201489Y243212D01*
X201462Y243146D01*
X201438Y243076D01*
X201417Y243002D01*
X201401Y242924D01*
X201388Y242841D01*
X201373Y242664D01*
X201371Y242569D01*
X200771Y242552D01*
X200769Y242649D01*
X200760Y242739D01*
X200746Y242823D01*
X200727Y242901D01*
X200702Y242973D01*
X200672Y243038D01*
X200635Y243097D01*
X200594Y243150D01*
X200547Y243197D01*
X200494Y243237D01*
X201555Y243330D01*
X201520Y243273D01*
D02*
G37*
G36*
X137461Y245803D02*
X138049Y245288D01*
X138328Y245079D01*
X138596Y244902D01*
X138853Y244757D01*
X139100Y244645D01*
X139336Y244564D01*
X139562Y244516D01*
X139777Y244500D01*
Y243500D01*
X139562Y243484D01*
X139336Y243436D01*
X139100Y243355D01*
X138853Y243243D01*
X138596Y243098D01*
X138328Y242921D01*
X138049Y242712D01*
X137461Y242197D01*
X137151Y241892D01*
Y246108D01*
X137461Y245803D01*
D02*
G37*
G36*
X77461D02*
X78049Y245288D01*
X78328Y245079D01*
X78596Y244902D01*
X78853Y244757D01*
X79100Y244645D01*
X79336Y244564D01*
X79562Y244516D01*
X79777Y244500D01*
Y243500D01*
X79562Y243484D01*
X79336Y243436D01*
X79100Y243355D01*
X78853Y243243D01*
X78596Y243098D01*
X78328Y242921D01*
X78049Y242712D01*
X77461Y242197D01*
X77151Y241892D01*
Y246108D01*
X77461Y245803D01*
D02*
G37*
G36*
X148470Y241520D02*
X148089Y241896D01*
X147375Y242530D01*
X147041Y242787D01*
X146723Y243005D01*
X146421Y243183D01*
X146134Y243322D01*
X145862Y243421D01*
X145606Y243480D01*
X145366Y243500D01*
Y244500D01*
X145606Y244520D01*
X145862Y244579D01*
X146134Y244678D01*
X146421Y244817D01*
X146723Y244995D01*
X147041Y245213D01*
X147375Y245470D01*
X148089Y246104D01*
X148470Y246480D01*
Y241520D01*
D02*
G37*
G36*
X187021Y241741D02*
X187036Y241569D01*
X187061Y241417D01*
X187096Y241285D01*
X187141Y241174D01*
X187196Y241083D01*
X187261Y241012D01*
X187336Y240961D01*
X187421Y240931D01*
X187516Y240921D01*
X185516D01*
X185611Y240931D01*
X185696Y240961D01*
X185771Y241012D01*
X185836Y241083D01*
X185891Y241174D01*
X185936Y241285D01*
X185971Y241417D01*
X185996Y241569D01*
X186011Y241741D01*
X186016Y241933D01*
X187016D01*
X187021Y241741D01*
D02*
G37*
G36*
X197362Y242035D02*
X197380Y241933D01*
X197410Y241843D01*
X197452Y241765D01*
X197506Y241699D01*
X197572Y241645D01*
X197650Y241603D01*
X197740Y241573D01*
X197842Y241555D01*
X197956Y241549D01*
X197781Y240949D01*
X197662Y240945D01*
X197548Y240932D01*
X197436Y240911D01*
X197329Y240881D01*
X197225Y240843D01*
X197124Y240797D01*
X197027Y240741D01*
X196933Y240678D01*
X196923Y240670D01*
X196843Y240578D01*
X196794Y240510D01*
X196758Y240451D01*
X196734Y240401D01*
X196724Y240359D01*
X196725Y240325D01*
X196740Y240300D01*
X196107Y240933D01*
X196132Y240918D01*
X196166Y240916D01*
X196208Y240927D01*
X196258Y240951D01*
X196317Y240987D01*
X196385Y241036D01*
X196461Y241097D01*
X196463Y241099D01*
X196485Y241126D01*
X196548Y241220D01*
X196604Y241317D01*
X196650Y241418D01*
X196688Y241522D01*
X196718Y241629D01*
X196739Y241741D01*
X196752Y241855D01*
X196756Y241974D01*
X197356Y242149D01*
X197362Y242035D01*
D02*
G37*
G36*
X189684Y240933D02*
X189565Y240810D01*
X189378Y240589D01*
X189311Y240492D01*
X189260Y240403D01*
X189226Y240322D01*
X189209Y240250D01*
Y240186D01*
X189226Y240131D01*
X189260Y240084D01*
X188411Y240933D01*
X188458Y240899D01*
X188513Y240882D01*
X188577D01*
X188649Y240899D01*
X188729Y240933D01*
X188818Y240984D01*
X188916Y241052D01*
X189022Y241137D01*
X189260Y241357D01*
X189684Y240933D01*
D02*
G37*
G36*
X201376Y242154D02*
X201388Y242039D01*
X201410Y241928D01*
X201439Y241820D01*
X201477Y241716D01*
X201524Y241615D01*
X201579Y241518D01*
X201643Y241424D01*
X201715Y241334D01*
X201796Y241248D01*
X201496Y240699D01*
X201414Y240779D01*
X201272Y240908D01*
X201210Y240957D01*
X201156Y240996D01*
X201108Y241025D01*
X201067Y241043D01*
X201033Y241051D01*
X201006Y241049D01*
X200985Y241037D01*
X200561Y241461D01*
X200601Y241508D01*
X200637Y241561D01*
X200668Y241623D01*
X200696Y241692D01*
X200719Y241769D01*
X200738Y241854D01*
X200752Y241947D01*
X200769Y242156D01*
X200771Y242272D01*
X201371D01*
X201376Y242154D01*
D02*
G37*
G36*
X187023Y240640D02*
X187044Y240603D01*
X187079Y240553D01*
X187127Y240493D01*
X187352Y240241D01*
X187699Y239885D01*
X187275Y239461D01*
X187145Y239590D01*
X186521Y240138D01*
X186495Y240145D01*
X187015Y240666D01*
X187023Y240640D01*
D02*
G37*
G36*
X59282Y238289D02*
X58893Y237949D01*
X58237Y237299D01*
X57970Y236989D01*
X57745Y236689D01*
X57560Y236399D01*
X57417Y236119D01*
X57314Y235848D01*
X57253Y235588D01*
X57232Y235338D01*
X56232Y235415D01*
X56213Y235643D01*
X56156Y235892D01*
X56062Y236163D01*
X55929Y236456D01*
X55758Y236770D01*
X55550Y237106D01*
X55018Y237842D01*
X54696Y238242D01*
X54336Y238664D01*
X59282Y238289D01*
D02*
G37*
G36*
X45267Y225447D02*
X45389Y225346D01*
X45513Y225258D01*
X45638Y225182D01*
X45764Y225120D01*
X45892Y225070D01*
X46021Y225033D01*
X46151Y225008D01*
X46283Y224997D01*
X46417Y224998D01*
X46500Y223500D01*
X47998Y223416D01*
X47997Y223283D01*
X48008Y223151D01*
X48033Y223021D01*
X48070Y222892D01*
X48120Y222764D01*
X48182Y222638D01*
X48258Y222513D01*
X48346Y222389D01*
X48447Y222267D01*
X48561Y222147D01*
X47854Y221439D01*
X47733Y221553D01*
X47611Y221654D01*
X47487Y221742D01*
X47362Y221818D01*
X47236Y221880D01*
X47108Y221930D01*
X46979Y221967D01*
X46849Y221992D01*
X46717Y222003D01*
X46584Y222002D01*
X46500Y223500D01*
X45002Y223584D01*
X45003Y223717D01*
X44992Y223849D01*
X44967Y223979D01*
X44930Y224108D01*
X44880Y224236D01*
X44818Y224362D01*
X44742Y224487D01*
X44654Y224611D01*
X44553Y224733D01*
X44439Y224853D01*
X45146Y225561D01*
X45267Y225447D01*
D02*
G37*
G36*
X52218Y218496D02*
X52587Y218182D01*
X52750Y218068D01*
X52899Y217982D01*
X53033Y217924D01*
X53153Y217895D01*
X53258Y217894D01*
X53350Y217921D01*
X53426Y217976D01*
X52024Y216574D01*
X52079Y216651D01*
X52106Y216742D01*
X52105Y216847D01*
X52076Y216967D01*
X52018Y217101D01*
X51932Y217250D01*
X51818Y217413D01*
X51675Y217590D01*
X51305Y217988D01*
X52012Y218695D01*
X52218Y218496D01*
D02*
G37*
G36*
X196043Y235442D02*
X195915Y235397D01*
X195802Y235321D01*
X195705Y235215D01*
X195623Y235079D01*
X195555Y234913D01*
X195502Y234716D01*
X195465Y234489D01*
X195444Y234252D01*
X213583Y234252D01*
X216535Y231299D01*
Y211614D01*
X213583Y208661D01*
X184055Y208661D01*
X182087Y210630D01*
Y232283D01*
X184055Y234252D01*
X193926D01*
X193905Y234489D01*
X193868Y234716D01*
X193815Y234913D01*
X193747Y235079D01*
X193665Y235215D01*
X193568Y235321D01*
X193455Y235397D01*
X193327Y235442D01*
X193185Y235457D01*
X196185D01*
X196043Y235442D01*
D02*
G37*
G36*
X5579Y203808D02*
X5744Y203695D01*
X5931Y203597D01*
X6140Y203512D01*
X6370Y203440D01*
X6623Y203382D01*
X6897Y203338D01*
X7192Y203308D01*
X7849Y203287D01*
X5374Y200812D01*
X5371Y201152D01*
X5323Y201765D01*
X5279Y202039D01*
X5221Y202291D01*
X5150Y202522D01*
X5065Y202730D01*
X4966Y202918D01*
X4854Y203083D01*
X4728Y203227D01*
X5435Y203934D01*
X5579Y203808D01*
D02*
G37*
G36*
X241142Y231299D02*
Y138779D01*
X235236Y132874D01*
X226378D01*
X219488Y139764D01*
X219488Y231299D01*
X222441Y234252D01*
X238189D01*
X241142Y231299D01*
D02*
G37*
G36*
X101694Y116000D02*
X101709Y115828D01*
X101734Y115677D01*
X101769Y115545D01*
X101814Y115434D01*
X101869Y115343D01*
X101934Y115272D01*
X102009Y115221D01*
X102094Y115191D01*
X102189Y115181D01*
X100189D01*
X100284Y115191D01*
X100369Y115221D01*
X100444Y115272D01*
X100509Y115343D01*
X100564Y115434D01*
X100609Y115545D01*
X100644Y115677D01*
X100669Y115828D01*
X100684Y116000D01*
X100689Y116193D01*
X101689D01*
X101694Y116000D01*
D02*
G37*
G36*
X55071Y116265D02*
X55131Y115626D01*
X55185Y115366D01*
X55253Y115146D01*
X55336Y114965D01*
X55435Y114825D01*
X55549Y114725D01*
X55678Y114665D01*
X55823Y114646D01*
X52303D01*
X52448Y114665D01*
X52577Y114725D01*
X52691Y114825D01*
X52789Y114965D01*
X52873Y115146D01*
X52941Y115366D01*
X52995Y115626D01*
X53033Y115926D01*
X53055Y116265D01*
X53063Y116646D01*
X55063D01*
X55071Y116265D01*
D02*
G37*
G36*
X98213Y111205D02*
X98203Y111300D01*
X98172Y111385D01*
X98122Y111460D01*
X98051Y111525D01*
X97960Y111580D01*
X97849Y111625D01*
X97717Y111660D01*
X97565Y111685D01*
X97393Y111700D01*
X97201Y111705D01*
Y112705D01*
X97393Y112710D01*
X97565Y112725D01*
X97717Y112750D01*
X97849Y112785D01*
X97960Y112830D01*
X98051Y112885D01*
X98122Y112950D01*
X98172Y113025D01*
X98203Y113110D01*
X98213Y113205D01*
Y111205D01*
D02*
G37*
G36*
X92747Y113110D02*
X92848Y113025D01*
X92958Y112950D01*
X93076Y112885D01*
X93201Y112830D01*
X93335Y112785D01*
X93476Y112750D01*
X93626Y112725D01*
X93784Y112710D01*
X93950Y112705D01*
Y111705D01*
X93784Y111700D01*
X93626Y111685D01*
X93476Y111660D01*
X93335Y111625D01*
X93201Y111580D01*
X93076Y111525D01*
X92958Y111460D01*
X92848Y111385D01*
X92747Y111300D01*
X92654Y111205D01*
Y113205D01*
X92747Y113110D01*
D02*
G37*
G36*
X63707Y112905D02*
X63737Y112820D01*
X63787Y112745D01*
X63857Y112680D01*
X63947Y112625D01*
X64057Y112580D01*
X64187Y112545D01*
X64337Y112520D01*
X64507Y112505D01*
X64697Y112500D01*
Y111500D01*
X64507Y111495D01*
X64337Y111480D01*
X64187Y111455D01*
X64057Y111420D01*
X63947Y111375D01*
X63857Y111320D01*
X63787Y111255D01*
X63737Y111180D01*
X63707Y111095D01*
X63697Y111000D01*
Y113000D01*
X63707Y112905D01*
D02*
G37*
G36*
X321960Y103408D02*
X321685Y102890D01*
X321574Y102644D01*
X321403Y102177D01*
X321342Y101956D01*
X321300Y101744D01*
X321274Y101540D01*
X321265Y101344D01*
X320265Y101235D01*
X320253Y101420D01*
X320217Y101597D01*
X320156Y101765D01*
X320070Y101924D01*
X319960Y102074D01*
X319826Y102215D01*
X319668Y102347D01*
X319484Y102470D01*
X319277Y102584D01*
X319045Y102690D01*
X322123Y103679D01*
X321960Y103408D01*
D02*
G37*
G36*
X321650Y101064D02*
X321772Y100963D01*
X321896Y100875D01*
X322021Y100800D01*
X322147Y100737D01*
X322274Y100687D01*
X322404Y100650D01*
X322534Y100626D01*
X322666Y100614D01*
X322799Y100615D01*
X322883Y99117D01*
X324380Y99034D01*
X324379Y98901D01*
X324391Y98769D01*
X324415Y98638D01*
X324452Y98509D01*
X324502Y98381D01*
X324565Y98255D01*
X324640Y98130D01*
X324729Y98007D01*
X324830Y97885D01*
X324943Y97764D01*
X324236Y97057D01*
X324115Y97170D01*
X323993Y97271D01*
X323870Y97360D01*
X323745Y97435D01*
X323619Y97498D01*
X323491Y97548D01*
X323362Y97585D01*
X323231Y97609D01*
X323099Y97621D01*
X322966Y97620D01*
X322883Y99117D01*
X321385Y99201D01*
X321386Y99334D01*
X321374Y99466D01*
X321350Y99596D01*
X321313Y99726D01*
X321263Y99853D01*
X321200Y99980D01*
X321125Y100104D01*
X321037Y100228D01*
X320936Y100350D01*
X320822Y100471D01*
X321529Y101178D01*
X321650Y101064D01*
D02*
G37*
G36*
X328303Y96000D02*
X328293Y96095D01*
X328263Y96180D01*
X328213Y96255D01*
X328143Y96320D01*
X328053Y96375D01*
X327943Y96420D01*
X327813Y96455D01*
X327663Y96480D01*
X327493Y96495D01*
X327303Y96500D01*
Y97500D01*
X327493Y97505D01*
X327663Y97520D01*
X327813Y97545D01*
X327943Y97580D01*
X328053Y97625D01*
X328143Y97680D01*
X328213Y97745D01*
X328263Y97820D01*
X328293Y97905D01*
X328303Y98000D01*
Y96000D01*
D02*
G37*
G36*
X338842Y94356D02*
X338757Y94326D01*
X338682Y94275D01*
X338617Y94205D01*
X338562Y94113D01*
X338517Y94002D01*
X338482Y93871D01*
X338457Y93719D01*
X338442Y93547D01*
X338437Y93354D01*
X337437D01*
X337432Y93547D01*
X337417Y93719D01*
X337392Y93871D01*
X337357Y94002D01*
X337312Y94113D01*
X337257Y94205D01*
X337192Y94275D01*
X337117Y94326D01*
X337032Y94356D01*
X336937Y94367D01*
X338937D01*
X338842Y94356D01*
D02*
G37*
G36*
X338442Y90453D02*
X338457Y90281D01*
X338482Y90129D01*
X338517Y89998D01*
X338562Y89886D01*
X338617Y89795D01*
X338682Y89725D01*
X338757Y89674D01*
X338842Y89644D01*
X338937Y89634D01*
X336937D01*
X337032Y89644D01*
X337117Y89674D01*
X337192Y89725D01*
X337257Y89795D01*
X337312Y89886D01*
X337357Y89998D01*
X337392Y90129D01*
X337417Y90281D01*
X337432Y90453D01*
X337437Y90645D01*
X338437D01*
X338442Y90453D01*
D02*
G37*
G36*
X159971Y89250D02*
X159818Y89393D01*
X159655Y89520D01*
X159481Y89632D01*
X159297Y89730D01*
X159101Y89812D01*
X158896Y89880D01*
X158679Y89933D01*
X158451Y89970D01*
X158213Y89992D01*
X157965Y90000D01*
Y92000D01*
X158213Y92007D01*
X158451Y92030D01*
X158679Y92067D01*
X158896Y92120D01*
X159101Y92188D01*
X159297Y92270D01*
X159481Y92368D01*
X159655Y92480D01*
X159818Y92607D01*
X159971Y92750D01*
Y89250D01*
D02*
G37*
G36*
X328315Y86000D02*
X328305Y86095D01*
X328275Y86180D01*
X328224Y86255D01*
X328153Y86320D01*
X328062Y86375D01*
X327951Y86420D01*
X327819Y86455D01*
X327668Y86480D01*
X327496Y86495D01*
X327303Y86500D01*
Y87500D01*
X327496Y87505D01*
X327668Y87520D01*
X327819Y87545D01*
X327951Y87580D01*
X328062Y87625D01*
X328153Y87680D01*
X328224Y87745D01*
X328275Y87820D01*
X328305Y87905D01*
X328315Y88000D01*
Y86000D01*
D02*
G37*
G36*
X323027Y88512D02*
X323495Y88112D01*
X323720Y87950D01*
X323939Y87813D01*
X324153Y87700D01*
X324360Y87612D01*
X324563Y87550D01*
X324759Y87512D01*
X324950Y87500D01*
Y86500D01*
X324759Y86488D01*
X324563Y86450D01*
X324360Y86387D01*
X324153Y86300D01*
X323939Y86187D01*
X323720Y86050D01*
X323495Y85887D01*
X323264Y85700D01*
X322785Y85250D01*
Y88750D01*
X323027Y88512D01*
D02*
G37*
G36*
X338645Y84356D02*
X338560Y84326D01*
X338485Y84275D01*
X338420Y84205D01*
X338365Y84114D01*
X338320Y84002D01*
X338285Y83871D01*
X338260Y83719D01*
X338245Y83547D01*
X338240Y83355D01*
X337240D01*
X337235Y83547D01*
X337220Y83719D01*
X337195Y83871D01*
X337160Y84002D01*
X337115Y84114D01*
X337060Y84205D01*
X336995Y84275D01*
X336920Y84326D01*
X336835Y84356D01*
X336740Y84367D01*
X338740D01*
X338645Y84356D01*
D02*
G37*
G36*
X331165D02*
X331080Y84326D01*
X331005Y84275D01*
X330940Y84205D01*
X330885Y84114D01*
X330840Y84002D01*
X330805Y83871D01*
X330780Y83719D01*
X330765Y83547D01*
X330760Y83355D01*
X329760D01*
X329755Y83547D01*
X329740Y83719D01*
X329715Y83871D01*
X329680Y84002D01*
X329635Y84114D01*
X329580Y84205D01*
X329515Y84275D01*
X329440Y84326D01*
X329355Y84356D01*
X329260Y84367D01*
X331260D01*
X331165Y84356D01*
D02*
G37*
G36*
X322513Y84973D02*
X322112Y84505D01*
X321950Y84280D01*
X321813Y84061D01*
X321700Y83847D01*
X321613Y83640D01*
X321550Y83438D01*
X321513Y83241D01*
X321500Y83051D01*
X320500D01*
X320487Y83241D01*
X320450Y83438D01*
X320388Y83640D01*
X320300Y83847D01*
X320187Y84061D01*
X320050Y84280D01*
X319887Y84505D01*
X319700Y84736D01*
X319250Y85215D01*
X322750D01*
X322513Y84973D01*
D02*
G37*
G36*
X321505Y80507D02*
X321520Y80337D01*
X321545Y80187D01*
X321580Y80057D01*
X321625Y79947D01*
X321680Y79857D01*
X321745Y79787D01*
X321820Y79737D01*
X321905Y79707D01*
X322000Y79697D01*
X320000D01*
X320095Y79707D01*
X320180Y79737D01*
X320255Y79787D01*
X320320Y79857D01*
X320375Y79947D01*
X320420Y80057D01*
X320455Y80187D01*
X320480Y80337D01*
X320495Y80507D01*
X320500Y80697D01*
X321500D01*
X321505Y80507D01*
D02*
G37*
G36*
X338245Y80504D02*
X338260Y80332D01*
X338285Y80181D01*
X338320Y80049D01*
X338365Y79938D01*
X338420Y79847D01*
X338485Y79776D01*
X338560Y79725D01*
X338645Y79695D01*
X338740Y79685D01*
X336740D01*
X336835Y79695D01*
X336920Y79725D01*
X336995Y79776D01*
X337060Y79847D01*
X337115Y79938D01*
X337160Y80049D01*
X337195Y80181D01*
X337220Y80332D01*
X337235Y80504D01*
X337240Y80697D01*
X338240D01*
X338245Y80504D01*
D02*
G37*
G36*
X330765D02*
X330780Y80332D01*
X330805Y80181D01*
X330840Y80049D01*
X330885Y79938D01*
X330940Y79847D01*
X331005Y79776D01*
X331080Y79725D01*
X331165Y79695D01*
X331260Y79685D01*
X329260D01*
X329355Y79695D01*
X329440Y79725D01*
X329515Y79776D01*
X329580Y79847D01*
X329635Y79938D01*
X329680Y80049D01*
X329715Y80181D01*
X329740Y80332D01*
X329755Y80504D01*
X329760Y80697D01*
X330760D01*
X330765Y80504D01*
D02*
G37*
G36*
X328709Y76937D02*
X328699Y77032D01*
X328669Y77117D01*
X328618Y77192D01*
X328547Y77257D01*
X328456Y77312D01*
X328345Y77357D01*
X328213Y77392D01*
X328061Y77417D01*
X327889Y77432D01*
X327697Y77437D01*
Y78437D01*
X327889Y78442D01*
X328061Y78457D01*
X328213Y78482D01*
X328345Y78517D01*
X328456Y78562D01*
X328547Y78617D01*
X328618Y78682D01*
X328669Y78757D01*
X328699Y78842D01*
X328709Y78937D01*
Y76937D01*
D02*
G37*
G36*
X323644Y78842D02*
X323674Y78757D01*
X323725Y78682D01*
X323795Y78617D01*
X323886Y78562D01*
X323998Y78517D01*
X324129Y78482D01*
X324281Y78457D01*
X324453Y78442D01*
X324645Y78437D01*
Y77437D01*
X324453Y77432D01*
X324281Y77417D01*
X324129Y77392D01*
X323998Y77357D01*
X323886Y77312D01*
X323795Y77257D01*
X323725Y77192D01*
X323674Y77117D01*
X323644Y77032D01*
X323634Y76937D01*
Y78937D01*
X323644Y78842D01*
D02*
G37*
G36*
X103683Y78094D02*
X104052Y77781D01*
X104215Y77666D01*
X104363Y77580D01*
X104498Y77523D01*
X104618Y77493D01*
X104723Y77492D01*
X104814Y77519D01*
X104891Y77574D01*
X103489Y76172D01*
X103544Y76249D01*
X103571Y76340D01*
X103570Y76446D01*
X103540Y76565D01*
X103483Y76700D01*
X103396Y76848D01*
X103282Y77011D01*
X103140Y77188D01*
X102769Y77586D01*
X103477Y78294D01*
X103683Y78094D01*
D02*
G37*
G36*
X313976Y150591D02*
Y79724D01*
X308071Y73819D01*
X282480D01*
X277559Y78740D01*
X277559Y150591D01*
X286417Y159449D01*
X305118Y159449D01*
X313976Y150591D01*
D02*
G37*
G36*
X332449Y69063D02*
X332439Y69158D01*
X332409Y69243D01*
X332358Y69318D01*
X332287Y69383D01*
X332196Y69438D01*
X332085Y69483D01*
X331953Y69518D01*
X331802Y69543D01*
X331629Y69558D01*
X331437Y69563D01*
Y70563D01*
X331629Y70568D01*
X331802Y70583D01*
X331953Y70608D01*
X332085Y70643D01*
X332196Y70688D01*
X332287Y70743D01*
X332358Y70808D01*
X332409Y70883D01*
X332439Y70968D01*
X332449Y71063D01*
Y69063D01*
D02*
G37*
G36*
X323644Y70968D02*
X323674Y70883D01*
X323725Y70808D01*
X323795Y70743D01*
X323886Y70688D01*
X323998Y70643D01*
X324129Y70608D01*
X324281Y70583D01*
X324453Y70568D01*
X324645Y70563D01*
Y69563D01*
X324453Y69558D01*
X324281Y69543D01*
X324129Y69518D01*
X323998Y69483D01*
X323886Y69438D01*
X323795Y69383D01*
X323725Y69318D01*
X323674Y69243D01*
X323644Y69158D01*
X323634Y69063D01*
Y71063D01*
X323644Y70968D01*
D02*
G37*
G36*
X24603Y187008D02*
X24603Y122641D01*
X63583Y83661D01*
X88583D01*
X92126Y80118D01*
Y67517D01*
X88585Y63976D01*
X49803D01*
X4923Y108857D01*
Y187008D01*
X9843Y191928D01*
X19683D01*
X24603Y187008D01*
D02*
G37*
G36*
X330560Y66391D02*
X330072Y65568D01*
X331046Y63925D01*
X330954Y63827D01*
X330872Y63722D01*
X330800Y63609D01*
X330737Y63489D01*
X330684Y63361D01*
X330640Y63226D01*
X330607Y63083D01*
X330582Y62933D01*
X330568Y62775D01*
X330563Y62610D01*
X329563Y62565D01*
X329558Y62731D01*
X329542Y62889D01*
X329517Y63038D01*
X329481Y63178D01*
X329434Y63310D01*
X329378Y63434D01*
X329311Y63548D01*
X329233Y63655D01*
X329146Y63752D01*
X329048Y63841D01*
X330072Y65568D01*
X329558Y66434D01*
X329559Y66439D01*
X329560Y66457D01*
X329563Y67000D01*
X330563D01*
X330560Y66391D01*
D02*
G37*
G36*
X330568Y60453D02*
X330583Y60281D01*
X330608Y60129D01*
X330643Y59998D01*
X330688Y59886D01*
X330743Y59795D01*
X330808Y59725D01*
X330883Y59674D01*
X330968Y59644D01*
X331063Y59633D01*
X329063D01*
X329158Y59644D01*
X329243Y59674D01*
X329318Y59725D01*
X329383Y59795D01*
X329438Y59886D01*
X329483Y59998D01*
X329518Y60129D01*
X329543Y60281D01*
X329558Y60453D01*
X329563Y60646D01*
X330563D01*
X330568Y60453D01*
D02*
G37*
G36*
X270669Y383858D02*
X270669Y93504D01*
X254921Y81693D01*
Y60618D01*
X253004D01*
Y57087D01*
X246063D01*
Y91864D01*
X250984Y95144D01*
Y369094D01*
X236221Y383858D01*
X206693D01*
X201772Y388779D01*
Y405512D01*
X207677Y411417D01*
X243110D01*
X270669Y383858D01*
D02*
G37*
G36*
X338842Y54356D02*
X338757Y54326D01*
X338682Y54275D01*
X338617Y54205D01*
X338562Y54114D01*
X338517Y54002D01*
X338482Y53871D01*
X338457Y53719D01*
X338442Y53547D01*
X338437Y53355D01*
X337437D01*
X337432Y53547D01*
X337417Y53719D01*
X337392Y53871D01*
X337357Y54002D01*
X337312Y54114D01*
X337257Y54205D01*
X337192Y54275D01*
X337117Y54326D01*
X337032Y54356D01*
X336937Y54366D01*
X338937D01*
X338842Y54356D01*
D02*
G37*
G36*
X338442Y50453D02*
X338457Y50281D01*
X338482Y50129D01*
X338517Y49998D01*
X338562Y49887D01*
X338617Y49795D01*
X338682Y49725D01*
X338757Y49674D01*
X338842Y49644D01*
X338937Y49633D01*
X336937D01*
X337032Y49644D01*
X337117Y49674D01*
X337192Y49725D01*
X337257Y49795D01*
X337312Y49887D01*
X337357Y49998D01*
X337392Y50129D01*
X337417Y50281D01*
X337432Y50453D01*
X337437Y50646D01*
X338437D01*
X338442Y50453D01*
D02*
G37*
G36*
X322789Y50957D02*
X322910Y50856D01*
X323034Y50767D01*
X323159Y50691D01*
X323285Y50628D01*
X323413Y50577D01*
X323542Y50539D01*
X323673Y50513D01*
X323805Y50499D01*
X323939Y50499D01*
X324021Y49021D01*
X322504Y49106D01*
X322507Y49239D01*
X322497Y49370D01*
X322474Y49500D01*
X322438Y49629D01*
X322389Y49757D01*
X322327Y49883D01*
X322252Y50008D01*
X322164Y50132D01*
X322063Y50254D01*
X321950Y50375D01*
X322668Y51071D01*
X322789Y50957D01*
D02*
G37*
G36*
X325499Y48939D02*
X325500Y48805D01*
X325513Y48673D01*
X325539Y48542D01*
X325577Y48413D01*
X325628Y48285D01*
X325692Y48159D01*
X325767Y48034D01*
X325856Y47910D01*
X325957Y47789D01*
X326071Y47668D01*
X325375Y46950D01*
X325254Y47063D01*
X325132Y47164D01*
X325008Y47252D01*
X324883Y47327D01*
X324757Y47389D01*
X324629Y47438D01*
X324500Y47474D01*
X324370Y47497D01*
X324239Y47507D01*
X324106Y47504D01*
X324021Y49021D01*
X325499Y48939D01*
D02*
G37*
G36*
X245140Y56102D02*
X248835D01*
Y55985D01*
X253004D01*
Y52283D01*
X248835D01*
Y50080D01*
X251198D01*
X251389Y49618D01*
X248031Y46260D01*
X194882D01*
X191929Y49213D01*
Y59055D01*
X194882Y62008D01*
X236703D01*
X245140Y56102D01*
D02*
G37*
G36*
X328303Y46000D02*
X328293Y46095D01*
X328263Y46180D01*
X328213Y46255D01*
X328143Y46320D01*
X328053Y46375D01*
X327943Y46420D01*
X327813Y46455D01*
X327663Y46480D01*
X327493Y46495D01*
X327303Y46500D01*
Y47500D01*
X327493Y47505D01*
X327663Y47520D01*
X327813Y47545D01*
X327943Y47580D01*
X328053Y47625D01*
X328143Y47680D01*
X328213Y47745D01*
X328263Y47820D01*
X328293Y47905D01*
X328303Y48000D01*
Y46000D01*
D02*
G37*
G36*
X276575Y69882D02*
Y60210D01*
X262381D01*
X262114Y60157D01*
X260210D01*
Y57954D01*
X264945D01*
Y57967D01*
X276575D01*
Y35433D01*
X272638Y31496D01*
X242126Y31496D01*
X238189Y35433D01*
Y45610D01*
X248031D01*
X248491Y45801D01*
X251849Y49158D01*
X251898Y49278D01*
X251989Y49369D01*
Y49498D01*
X252039Y49618D01*
X252300Y50080D01*
X253570D01*
Y52081D01*
X253653Y52283D01*
Y52866D01*
X254921Y54134D01*
Y59969D01*
X255381Y60159D01*
X255571Y60618D01*
Y71516D01*
X256890Y72835D01*
X273622D01*
X276575Y69882D01*
D02*
G37*
G36*
X310039Y49213D02*
Y21654D01*
X308071Y19685D01*
X222659D01*
X219488Y22855D01*
Y39370D01*
X221457Y41339D01*
X234252D01*
X236221Y39370D01*
Y31496D01*
X238192Y29524D01*
X278543D01*
X280512Y31496D01*
Y49213D01*
X285433Y54134D01*
X305118D01*
X310039Y49213D01*
D02*
G37*
G36*
X102362Y75787D02*
Y71158D01*
X102865Y70935D01*
Y69439D01*
X106237D01*
X140148Y54400D01*
X140417Y53047D01*
X140952Y51755D01*
X141729Y50592D01*
X142718Y49603D01*
X143881Y48826D01*
X145173Y48291D01*
X146545Y48018D01*
X147943D01*
X149315Y48291D01*
X150607Y48826D01*
X151448Y49388D01*
X191792Y31496D01*
X204724D01*
X208661Y27559D01*
X208661Y19450D01*
X203340Y14764D01*
X192570D01*
X93307Y59693D01*
Y76576D01*
X95482Y78740D01*
X99410D01*
X102362Y75787D01*
D02*
G37*
%LPC*%
G36*
X272062Y56250D02*
X271245D01*
X270457Y56038D01*
X269750Y55630D01*
X269535Y55415D01*
X269423Y55373D01*
X268962Y54939D01*
X268763Y54778D01*
X268571Y54638D01*
X268390Y54525D01*
X268223Y54437D01*
X268071Y54373D01*
X267934Y54331D01*
X267812Y54308D01*
X267662Y54298D01*
X267608Y54271D01*
X262577D01*
X262477Y54251D01*
X260210D01*
Y50080D01*
X264945D01*
Y52028D01*
X267608D01*
X267662Y52002D01*
X267812Y51992D01*
X267934Y51968D01*
X268071Y51926D01*
X268223Y51862D01*
X268390Y51774D01*
X268571Y51661D01*
X268757Y51526D01*
X269187Y51158D01*
X269413Y50936D01*
X269530Y50889D01*
X269750Y50669D01*
X270457Y50261D01*
X271245Y50050D01*
X272062D01*
X272850Y50261D01*
X273557Y50669D01*
X274134Y51246D01*
X274542Y51953D01*
X274753Y52741D01*
Y53558D01*
X274542Y54346D01*
X274134Y55053D01*
X273557Y55630D01*
X272850Y56038D01*
X272062Y56250D01*
D02*
G37*
%LPD*%
G36*
X269868Y51400D02*
X269626Y51637D01*
X269159Y52037D01*
X268934Y52200D01*
X268714Y52337D01*
X268501Y52450D01*
X268293Y52537D01*
X268091Y52600D01*
X267895Y52637D01*
X267704Y52650D01*
Y53650D01*
X267895Y53662D01*
X268091Y53700D01*
X268293Y53762D01*
X268501Y53850D01*
X268714Y53962D01*
X268934Y54100D01*
X269159Y54262D01*
X269390Y54450D01*
X269868Y54900D01*
Y51400D01*
D02*
G37*
D12*
X191063Y332740D02*
X191260D01*
X192335Y333815D01*
Y334012D01*
X197937Y339614D01*
Y346000D01*
X180500Y339500D02*
X187000Y346000D01*
X190063D01*
X180500Y312500D02*
Y339500D01*
X176000Y340000D02*
X188000Y352000D01*
X202000D01*
X163937Y340000D02*
X176000D01*
X202000Y352000D02*
X208063Y345937D01*
Y342000D02*
Y345937D01*
X221000Y320000D02*
X226000Y315000D01*
X232000D01*
X191335Y314991D02*
Y324185D01*
X193543Y307280D02*
Y311543D01*
X191335Y314991D02*
X194000Y312326D01*
X193543Y311543D02*
X194000Y312000D01*
Y312326D01*
X193543Y307280D02*
X195937Y304886D01*
X190063Y325260D02*
X190260D01*
X191335Y324185D01*
X195937Y304000D02*
X203063D01*
X195937D02*
Y304886D01*
X204335Y311488D02*
Y312728D01*
X210937Y304000D02*
Y304886D01*
X204335Y311488D02*
X210937Y304886D01*
X203063Y314000D02*
X204335Y312728D01*
X203063Y314000D02*
Y321835D01*
X206488Y325260D01*
X207276D01*
X208063Y332740D02*
X214665Y339342D01*
Y340728D01*
X207276Y332740D02*
X208063D01*
X214665Y340728D02*
X215937Y342000D01*
X197937Y329000D02*
X202748D01*
X206488Y325260D01*
X189866Y332740D02*
X190260D01*
X188063Y304000D02*
Y309937D01*
X185000Y313000D02*
Y327874D01*
Y313000D02*
X188063Y309937D01*
X185000Y327874D02*
X189866Y332740D01*
X168315Y310032D02*
X172000Y306347D01*
Y285075D02*
Y306347D01*
X167000Y280075D02*
X172000Y285075D01*
X167000Y311303D02*
X168272Y310032D01*
X168315D01*
X180000Y312000D02*
X180500Y312500D01*
X174000Y318000D02*
Y318035D01*
X177164Y321200D01*
Y326765D01*
X177329Y326929D01*
X171063D02*
X177329D01*
X176189Y348189D02*
X180000Y352000D01*
X171063Y348189D02*
X176189D01*
X161063Y342874D02*
X163937Y340000D01*
X161063Y371114D02*
Y379500D01*
Y371000D02*
Y371114D01*
X168937Y372000D02*
X175799D01*
X178543Y374745D01*
Y375145D01*
X186417Y374745D02*
X191203Y369958D01*
X193821D02*
X194587Y369193D01*
X186417Y374745D02*
Y375145D01*
X191203Y369958D02*
X193821D01*
X43000Y345937D02*
Y355949D01*
X54886D01*
X55000Y356063D01*
X186516Y240645D02*
Y246850D01*
X7551Y407866D02*
Y417000D01*
X43724Y405701D02*
Y406230D01*
X320765Y101235D02*
X325000Y97000D01*
X330063D01*
X320765Y101235D02*
Y104235D01*
X320000Y105000D02*
X320765Y104235D01*
X337937Y47000D02*
Y57000D01*
X330063Y67000D02*
Y70000D01*
Y57000D02*
Y67000D01*
X313943Y59088D02*
X326031Y47000D01*
X330000D01*
X262381Y59088D02*
X313943D01*
X161063Y371114D02*
X169000Y363177D01*
X167665Y356842D02*
X169000Y358177D01*
X166063Y356063D02*
X166842Y356842D01*
X166063Y348189D02*
Y356063D01*
X169000Y358177D02*
Y363177D01*
X166842Y356842D02*
X167665D01*
X53000Y391000D02*
X54063Y392063D01*
Y400000D01*
X61937Y356000D02*
X63000Y357063D01*
Y379000D01*
X45000Y389000D02*
Y398260D01*
X64103Y391036D02*
Y392118D01*
X61937Y394284D02*
Y400000D01*
Y394284D02*
X64103Y392118D01*
X50776Y404173D02*
X54063Y400886D01*
X45000Y405740D02*
X46567Y404173D01*
X50776D01*
X54063Y400000D02*
Y400886D01*
X35898Y407866D02*
X40870D01*
X84000Y244000D02*
X105000Y265000D01*
Y369000D01*
X108937Y359000D02*
X109000Y359063D01*
X41526Y407210D02*
X42744D01*
X40870Y407866D02*
X41526Y407210D01*
X42744D02*
X43724Y406230D01*
X7551Y407866D02*
X35898D01*
X30000Y328000D02*
Y338063D01*
X16000Y331000D02*
Y338063D01*
X38000Y323000D02*
Y331000D01*
X22822Y362051D02*
X23000Y361873D01*
X22822Y362051D02*
X30000D01*
X16000D02*
X22822D01*
X13701Y370000D02*
X34953D01*
X42902Y362051D01*
X5000Y361299D02*
X13701Y370000D01*
X16000Y345937D02*
Y355949D01*
X30000Y345937D02*
Y355949D01*
X42902Y362051D02*
X43000D01*
X38000Y331000D02*
X40843Y333842D01*
Y336791D01*
X42114Y338063D01*
X146000Y297000D02*
X152811Y290189D01*
X42114Y338063D02*
X43000D01*
X321000Y77937D02*
X330260D01*
X321000Y87000D02*
X330063D01*
X321000Y77937D02*
Y87000D01*
X330000Y70063D02*
X334000D01*
X321000D02*
X330000D01*
X330063Y70000D01*
X337937Y87000D02*
Y97000D01*
X337740Y77937D02*
Y86803D01*
X337937Y87000D01*
X330063D02*
X330260Y86803D01*
Y77937D02*
Y86803D01*
X5000Y203661D02*
Y361299D01*
Y203661D02*
X7874Y200787D01*
X262577Y53150D02*
X271654D01*
X7551Y396055D02*
X35898D01*
X38063Y398220D02*
X43724D01*
X35898Y396055D02*
X38063Y398220D01*
X92520Y112205D02*
X101189D01*
X18701Y290354D02*
X24417D01*
X25063Y291000D01*
X101189Y112205D02*
Y149811D01*
X36000Y215000D02*
X101189Y149811D01*
X53244Y312559D02*
Y332244D01*
X38000Y272657D02*
X66204Y300861D01*
X38000Y232000D02*
X55000Y215000D01*
X38000Y232000D02*
Y272657D01*
X47000Y264937D02*
Y278828D01*
X36000Y215000D02*
Y273485D01*
X47000Y278828D02*
X69000Y300828D01*
X57000Y286000D02*
X75000Y304000D01*
X69000Y300828D02*
Y308000D01*
X36000Y273485D02*
X64000Y301485D01*
X57000Y260937D02*
Y286000D01*
X66204Y300861D02*
Y315204D01*
X64000Y301485D02*
Y330000D01*
X66204Y315204D02*
X75000Y324000D01*
X69000Y308000D02*
X75000Y314000D01*
Y324000D02*
X101063D01*
X64000Y330000D02*
X68000Y334000D01*
X127000Y301000D02*
X130000Y304000D01*
X127000Y274000D02*
Y301000D01*
X130000Y304000D02*
X135000D01*
X127000Y274000D02*
X132000Y269000D01*
X146000Y314000D02*
Y344000D01*
X150189Y348189D01*
X135000Y294657D02*
X151000Y310657D01*
X150189Y348189D02*
X156063D01*
X151000Y332000D02*
X153000Y334000D01*
X151000Y310657D02*
Y332000D01*
X225962Y282937D02*
X226025Y283000D01*
X216962Y282937D02*
X225962D01*
X173000Y281000D02*
X181000Y289000D01*
X209000D01*
X173000Y274000D02*
Y281000D01*
X168000Y269000D02*
X173000Y274000D01*
X132000Y269000D02*
X168000D01*
X175000Y263586D02*
Y278172D01*
X179765Y282937D01*
X173000Y261000D02*
Y261586D01*
X175000Y263586D01*
X151000Y261000D02*
X173000D01*
X149000Y259000D02*
X151000Y261000D01*
X129000Y259000D02*
X149000D01*
X202937Y276000D02*
X209000D01*
X178000Y255000D02*
Y276000D01*
X180469Y278469D01*
X149000Y226000D02*
X178000Y255000D01*
X180469Y278469D02*
X188708D01*
X192114Y275063D02*
X193000D01*
X188708Y278469D02*
X192114Y275063D01*
X151000Y223000D02*
X184000Y256000D01*
Y263323D01*
Y276469D01*
X202000Y282937D02*
X216962D01*
X126280Y261720D02*
X129000Y259000D01*
X126280Y261720D02*
Y268720D01*
X121000Y274000D02*
X126280Y268720D01*
X108937Y274000D02*
X121000D01*
X70000Y226000D02*
X149000D01*
X64000Y232000D02*
X70000Y226000D01*
X68000Y223000D02*
X151000D01*
X56732Y234268D02*
X68000Y223000D01*
X64000Y232000D02*
Y255000D01*
X61937Y257063D02*
X64000Y255000D01*
X56732Y234268D02*
Y240732D01*
X57000Y241000D01*
X47000Y257063D02*
X61937D01*
X57000Y241000D02*
Y253063D01*
X47000Y241000D02*
Y257063D01*
X153000Y334000D02*
X164000D01*
X166063Y326929D02*
Y331937D01*
X164000Y334000D02*
X166063Y331937D01*
X149189Y301189D02*
X159126D01*
X146000Y298000D02*
X149189Y301189D01*
X146000Y297000D02*
Y298000D01*
X152811Y290189D02*
X159126D01*
X135000Y294000D02*
Y294657D01*
X160398Y280461D02*
Y282701D01*
X159126Y279189D02*
X160398Y280461D01*
X167000Y289303D02*
Y290189D01*
X160398Y282701D02*
X167000Y289303D01*
X159126Y311303D02*
X165728Y304701D01*
Y302461D02*
Y304701D01*
X159126Y311303D02*
Y312189D01*
X165728Y302461D02*
X167000Y301189D01*
X68000Y334000D02*
X75000D01*
X101063D01*
X75000Y244000D02*
X84000D01*
X75000Y374000D02*
X79000D01*
X94000Y359000D02*
X101063D01*
X79000Y374000D02*
X94000Y359000D01*
X108937Y344000D02*
Y359000D01*
X135000Y244000D02*
X151000D01*
X135000Y254000D02*
X151000D01*
X32937Y296579D02*
X41858Y305500D01*
X32937Y291000D02*
Y296579D01*
X41858Y305500D02*
X43630D01*
X22370Y294579D02*
Y300500D01*
Y294579D02*
X25063Y291886D01*
Y291000D02*
Y291886D01*
X53244Y332244D02*
X75000Y354000D01*
X52358Y312559D02*
X53244D01*
X29500Y310500D02*
X33000Y307000D01*
X22370Y310500D02*
X29500D01*
X108937Y324000D02*
Y334000D01*
Y274000D02*
Y324000D01*
X45402Y305500D02*
X46216Y304685D01*
X43630Y305500D02*
X45402D01*
X46216Y304685D02*
X53244D01*
X69063Y112000D02*
X107244Y73819D01*
X61937Y112000D02*
X69063D01*
X43630Y310500D02*
X50299D01*
X52358Y312559D01*
X159126Y278303D02*
Y279189D01*
X135000Y274000D02*
X154823D01*
X159126Y278303D01*
X108937Y334000D02*
Y344000D01*
X75000D02*
X101063D01*
X193000Y282937D02*
X202000D01*
X179765D02*
X193000D01*
X161063Y342874D02*
Y348189D01*
Y361126D01*
X167000Y311303D02*
Y316458D01*
Y279189D02*
Y280075D01*
X161063Y322395D02*
Y326929D01*
Y322395D02*
X167000Y316458D01*
X156063Y322284D02*
X159126Y319220D01*
Y312189D02*
Y319220D01*
X156063Y322284D02*
Y326929D01*
X225962Y251553D02*
Y255063D01*
X221457Y247047D02*
X225962Y251553D01*
X216962Y251542D02*
Y255063D01*
Y251542D02*
X221457Y247047D01*
X216962Y269000D02*
Y275063D01*
Y262937D02*
Y269000D01*
X225962Y262937D02*
Y275063D01*
X358268Y460000D02*
X358268Y0D01*
X0D02*
X358268D01*
X-0Y460000D02*
X0Y0D01*
Y460000D02*
X358268D01*
D13*
X194685Y233315D02*
X195000Y233000D01*
X187487Y239673D02*
X188000D01*
X192068Y243741D01*
X186516Y240645D02*
X187487Y239673D01*
X187205Y238878D02*
X188000Y239673D01*
X198947Y246078D02*
Y255053D01*
X200773Y241249D02*
X201071Y241548D01*
X197056Y241249D02*
X200773D01*
X202000Y275063D02*
X202937Y276000D01*
X184000Y263323D02*
X195088D01*
X199025Y272974D02*
X201114Y275063D01*
X202000D01*
X199025Y263323D02*
Y272974D01*
X202962Y268555D02*
X203313Y268907D01*
X201071Y263401D02*
Y269279D01*
X202792Y271000D01*
X202962Y263323D02*
Y268555D01*
X203313Y268907D02*
X208310D01*
X202792Y271000D02*
X210299D01*
X197056Y263323D02*
Y267667D01*
X193000Y271724D02*
X197056Y267667D01*
X193000Y271724D02*
Y275063D01*
X210299Y271000D02*
X212299Y269000D01*
X208310Y268907D02*
X208661Y268555D01*
Y264970D02*
Y268555D01*
X190874Y257874D02*
X196126D01*
X180176Y247176D02*
X190874Y257874D01*
X196126D02*
X198947Y255053D01*
X187205Y238189D02*
Y238878D01*
X213583Y231299D02*
Y235236D01*
X212656Y236163D02*
X213583Y235236D01*
X206456Y236163D02*
X212656D01*
X201071Y241548D02*
X206456Y236163D01*
X201071Y241548D02*
Y245922D01*
X200993Y246000D02*
X201071Y245922D01*
X207119Y237763D02*
X214850D01*
X202962Y241920D02*
X207119Y237763D01*
X202962Y241920D02*
Y246000D01*
X214850Y237763D02*
X220919Y231694D01*
Y231491D02*
X221538Y230873D01*
X222724D01*
X220919Y231491D02*
Y231694D01*
X194797Y243741D02*
X195088Y244032D01*
X192068Y243741D02*
X194797D01*
X195088Y244032D02*
Y246000D01*
X194685Y238189D02*
Y238878D01*
X197056Y241249D02*
Y246000D01*
X194685Y238878D02*
X197056Y241249D01*
X212299Y269000D02*
X216962D01*
X208661Y264970D02*
X214773Y258858D01*
X220997D01*
X222531Y260391D01*
Y260391D01*
X225076Y262937D01*
X225962D01*
X200993Y263323D02*
X201071Y263401D01*
X199962Y275063D02*
X200025Y275000D01*
D18*
X247000Y113142D02*
Y350000D01*
X228346Y94488D02*
X247000Y113142D01*
X244000Y132000D02*
Y286000D01*
X206488Y94488D02*
X244000Y132000D01*
X233000Y297000D02*
X244000Y286000D01*
X225000Y297000D02*
X233000D01*
X211572Y310428D02*
X225000Y297000D01*
X210937Y314000D02*
X211572Y313365D01*
Y310428D02*
Y313365D01*
X210937Y314000D02*
Y320937D01*
X225000Y372000D02*
X247000Y350000D01*
X205000Y372000D02*
X225000D01*
X216724Y326724D02*
Y329000D01*
X210937Y320937D02*
X216724Y326724D01*
X181041Y395959D02*
X205000Y372000D01*
X58165Y344583D02*
Y408165D01*
X43630Y330047D02*
X58165Y344583D01*
Y408165D02*
X62913Y412913D01*
X105000Y376937D02*
Y390000D01*
X108000Y393000D01*
X43630Y315500D02*
Y330047D01*
X8000Y309000D02*
X14330Y315330D01*
X8000Y291213D02*
Y309000D01*
X14330Y315330D02*
X22200D01*
X29528Y209472D02*
Y276528D01*
X43630Y290630D01*
X80709Y114291D02*
X104000Y91000D01*
X29528Y209472D02*
X80709Y158291D01*
Y114291D02*
Y158291D01*
X43630Y290630D02*
Y300500D01*
X104000Y91000D02*
X161756D01*
X166339Y40354D02*
X167323D01*
X172000Y45031D01*
Y239000D01*
X162402Y389421D02*
X168937Y382886D01*
X162402Y389421D02*
Y399000D01*
X168937Y382000D02*
Y382886D01*
X8000Y291213D02*
X19000Y280213D01*
Y209000D02*
Y280213D01*
Y209000D02*
X54063Y173937D01*
X13644Y183589D02*
Y276644D01*
X14000Y277000D01*
X13287Y183232D02*
X13644Y183589D01*
X14000Y306000D02*
X14250Y305750D01*
X22120D01*
X22200Y315330D02*
X22370Y315500D01*
X22120Y305750D02*
X22370Y305500D01*
X198425Y94488D02*
X206488D01*
X172000Y239000D02*
X180176Y247176D01*
X101031Y274031D02*
Y287968D01*
X101000Y288000D02*
X101031Y287968D01*
Y274031D02*
X101063Y274000D01*
X54063Y112000D02*
Y173937D01*
X75000Y274000D02*
X101063D01*
D19*
X194685Y233315D02*
Y238189D01*
D23*
X250000Y22000D02*
D03*
X197937Y339614D02*
D03*
X180500Y336851D02*
D03*
X203000Y321000D02*
D03*
X43000Y350943D02*
D03*
X241000Y59000D02*
D03*
X7551Y417000D02*
D03*
X253000Y87000D02*
D03*
X324000Y49000D02*
D03*
X330000Y65000D02*
D03*
X322883Y99117D02*
D03*
X221000Y320000D02*
D03*
X46500Y223500D02*
D03*
X91535Y112205D02*
D03*
X312303Y101378D02*
D03*
X204724Y232283D02*
D03*
X166500Y365000D02*
D03*
X185039Y26575D02*
D03*
X150591Y292323D02*
D03*
X9843Y118110D02*
D03*
X53150Y327756D02*
D03*
X233268Y230315D02*
D03*
X177329Y326929D02*
D03*
D24*
X198937Y329000D02*
D03*
X191063Y325260D02*
D03*
Y332740D02*
D03*
D25*
X195937Y304000D02*
D03*
X188063D02*
D03*
X330063Y87000D02*
D03*
X337937D02*
D03*
X330063Y47000D02*
D03*
X337937D02*
D03*
X330063Y97000D02*
D03*
X337937D02*
D03*
Y57000D02*
D03*
X330063D02*
D03*
X54063Y356000D02*
D03*
X61937D02*
D03*
Y400000D02*
D03*
X54063D02*
D03*
X32937Y291000D02*
D03*
X25063D02*
D03*
X215937Y342000D02*
D03*
X208063D02*
D03*
X167000Y279189D02*
D03*
X159126D02*
D03*
X167000Y290189D02*
D03*
X159126D02*
D03*
X108937Y274000D02*
D03*
X101063D02*
D03*
Y344000D02*
D03*
X108937D02*
D03*
Y359000D02*
D03*
X101063D02*
D03*
Y334000D02*
D03*
X108937D02*
D03*
X161063Y359000D02*
D03*
X168937D02*
D03*
X161063Y379500D02*
D03*
X168937D02*
D03*
Y371000D02*
D03*
X161063D02*
D03*
X203063Y314000D02*
D03*
X210937D02*
D03*
X203063Y304000D02*
D03*
X210937D02*
D03*
X159126Y312189D02*
D03*
X167000D02*
D03*
X54063Y112000D02*
D03*
X61937D02*
D03*
X167000Y301189D02*
D03*
X159126D02*
D03*
X101063Y324000D02*
D03*
X108937D02*
D03*
X190063Y346000D02*
D03*
X197937D02*
D03*
D26*
X256890Y55118D02*
D03*
D27*
X251202Y59055D02*
D03*
X262577D02*
D03*
Y57087D02*
D03*
Y55118D02*
D03*
Y53150D02*
D03*
Y51181D02*
D03*
X251202D02*
D03*
Y53150D02*
D03*
Y55118D02*
D03*
Y57087D02*
D03*
D28*
X45000Y398260D02*
D03*
Y405740D02*
D03*
X244094Y50000D02*
D03*
Y42520D02*
D03*
D29*
X258661Y68898D02*
D03*
X251181D02*
D03*
X194685Y238189D02*
D03*
X187205D02*
D03*
D30*
X202962Y263323D02*
D03*
X200993D02*
D03*
X199025D02*
D03*
X197056D02*
D03*
X195088D02*
D03*
X200993Y246000D02*
D03*
X199025D02*
D03*
X197056D02*
D03*
X195088D02*
D03*
X202962D02*
D03*
D31*
X182480Y364144D02*
D03*
D32*
X178543Y375145D02*
D03*
X186417D02*
D03*
D33*
X30000Y345937D02*
D03*
Y338063D02*
D03*
X43000D02*
D03*
Y345937D02*
D03*
X16000D02*
D03*
Y338063D02*
D03*
X321000Y70063D02*
D03*
Y77937D02*
D03*
X53244Y304685D02*
D03*
Y312559D02*
D03*
X57000Y253063D02*
D03*
Y260937D02*
D03*
X105000Y376937D02*
D03*
Y369063D02*
D03*
X225962Y275063D02*
D03*
Y282937D02*
D03*
X47000Y264937D02*
D03*
Y257063D02*
D03*
X184000Y282937D02*
D03*
Y275063D02*
D03*
X216962Y255063D02*
D03*
Y262937D02*
D03*
X225962Y255063D02*
D03*
Y262937D02*
D03*
X193000Y282937D02*
D03*
Y275063D02*
D03*
X202000Y282937D02*
D03*
Y275063D02*
D03*
X216962Y282937D02*
D03*
Y275063D02*
D03*
D34*
X334000Y70063D02*
D03*
X330260Y77937D02*
D03*
X337740D02*
D03*
D35*
X43000Y362051D02*
D03*
Y355949D02*
D03*
X16000Y362051D02*
D03*
Y355949D02*
D03*
X30000D02*
D03*
Y362051D02*
D03*
D36*
X7551Y407866D02*
D03*
Y396055D02*
D03*
X35898Y407866D02*
D03*
Y396055D02*
D03*
D37*
X43630Y300500D02*
D03*
Y305500D02*
D03*
Y310500D02*
D03*
Y315500D02*
D03*
X22370Y300500D02*
D03*
Y305500D02*
D03*
Y310500D02*
D03*
Y315500D02*
D03*
D38*
X216724Y329000D02*
D03*
X207276Y325260D02*
D03*
Y332740D02*
D03*
D39*
X212450Y216535D02*
D03*
X223474D02*
D03*
Y228346D02*
D03*
X212450D02*
D03*
D40*
X156063Y326929D02*
D03*
X161063D02*
D03*
X166063D02*
D03*
X171063D02*
D03*
X156063Y348189D02*
D03*
X161063D02*
D03*
X166063D02*
D03*
X171063D02*
D03*
D76*
X75000Y384000D02*
D03*
X135000D02*
D03*
D77*
X75000Y374000D02*
D03*
X135000D02*
D03*
X75000Y364000D02*
D03*
X135000D02*
D03*
X75000Y354000D02*
D03*
X135000D02*
D03*
X75000Y344000D02*
D03*
X135000D02*
D03*
X75000Y334000D02*
D03*
X135000D02*
D03*
X75000Y324000D02*
D03*
X135000D02*
D03*
X75000Y314000D02*
D03*
X135000D02*
D03*
X75000Y304000D02*
D03*
X135000D02*
D03*
X75000Y294000D02*
D03*
X135000D02*
D03*
X75000Y284000D02*
D03*
X135000D02*
D03*
X75000Y274000D02*
D03*
X135000D02*
D03*
X75000Y264000D02*
D03*
X135000D02*
D03*
X75000Y254000D02*
D03*
X135000D02*
D03*
X75000Y244000D02*
D03*
X135000D02*
D03*
D78*
X296260Y118898D02*
D03*
Y412598D02*
D03*
D79*
X162000Y399000D02*
D03*
X214000D02*
D03*
D80*
X162000Y422622D02*
D03*
X214000D02*
D03*
D81*
X322835Y23622D02*
D03*
X70866D02*
D03*
X322835Y440945D02*
D03*
X70866D02*
D03*
D82*
X303150Y44291D02*
D03*
Y83291D02*
D03*
X289650D02*
D03*
Y44291D02*
D03*
D83*
X297244Y444882D02*
D03*
Y434882D02*
D03*
X151000Y244000D02*
D03*
Y254000D02*
D03*
X34000Y434882D02*
D03*
Y444882D02*
D03*
X47000Y241000D02*
D03*
X57000D02*
D03*
D84*
X230807Y141732D02*
D03*
X13287D02*
D03*
X230807Y183232D02*
D03*
X13287D02*
D03*
D85*
X107244Y73819D02*
D03*
D86*
X97244D02*
D03*
X87244D02*
D03*
D87*
X47244Y55118D02*
D03*
X147244D02*
D03*
D88*
X198425Y94488D02*
D03*
X228346D02*
D03*
D89*
Y34252D02*
D03*
X198425Y54331D02*
D03*
Y24016D02*
D03*
D90*
X55000Y215000D02*
D03*
X101189Y112205D02*
D03*
D91*
X67000Y215000D02*
D03*
X113189Y112205D02*
D03*
X232000Y303000D02*
D03*
D92*
Y315000D02*
D03*
D93*
X194000Y312000D02*
D03*
X180000D02*
D03*
X174000Y318000D02*
D03*
X180000Y352000D02*
D03*
X194587Y369193D02*
D03*
X186516Y246850D02*
D03*
X320000Y105000D02*
D03*
X53000Y390000D02*
D03*
X63000Y379000D02*
D03*
X45000Y389000D02*
D03*
X64103Y391036D02*
D03*
X109000Y352000D02*
D03*
X16000Y331000D02*
D03*
X38000Y323000D02*
D03*
X30000Y328000D02*
D03*
X23000Y361873D02*
D03*
X321000Y87000D02*
D03*
X7874Y200787D02*
D03*
X271654Y53150D02*
D03*
X270669Y67913D02*
D03*
X269685Y35433D02*
D03*
Y42323D02*
D03*
X261811D02*
D03*
Y35433D02*
D03*
X253937D02*
D03*
Y42323D02*
D03*
X161756Y91000D02*
D03*
X18701Y290354D02*
D03*
X14000Y277000D02*
D03*
Y306000D02*
D03*
X146000Y314000D02*
D03*
X173000Y261000D02*
D03*
X209000Y289000D02*
D03*
Y276000D02*
D03*
X199000Y255000D02*
D03*
X146000Y298000D02*
D03*
X101000Y288000D02*
D03*
X33000Y307000D02*
D03*
X221457Y247047D02*
D03*
X200787Y214567D02*
D03*
Y221457D02*
D03*
Y228346D02*
D03*
X193898Y214567D02*
D03*
Y221457D02*
D03*
Y228346D02*
D03*
X187008Y214567D02*
D03*
Y221457D02*
D03*
Y228346D02*
D03*
D94*
X296260Y388976D02*
D03*
Y142520D02*
D03*
Y265748D02*
D03*
M02*
