G04*
G04 #@! TF.GenerationSoftware,Altium Limited,Altium Designer,22.9.1 (49)*
G04*
G04 Layer_Physical_Order=1*
G04 Layer_Color=255*
%FSLAX25Y25*%
%MOIN*%
G70*
G04*
G04 #@! TF.SameCoordinates,D4A48318-998D-472C-A6B0-EE5402D3ED7D*
G04*
G04*
G04 #@! TF.FilePolarity,Positive*
G04*
G01*
G75*
%ADD11C,0.01000*%
%ADD16R,0.09843X0.12795*%
%ADD17R,0.05315X0.03543*%
%ADD18R,0.03543X0.05315*%
%ADD19R,0.05906X0.01772*%
%ADD20R,0.03740X0.01378*%
%ADD21R,0.01378X0.03740*%
%ADD22R,0.07874X0.07874*%
%ADD23R,0.18504X0.12598*%
%ADD24R,0.05709X0.02362*%
%ADD25R,0.09055X0.12598*%
%ADD26R,0.08071X0.02598*%
%ADD27R,0.09264X0.02449*%
%ADD28R,0.19685X0.19685*%
%ADD29R,0.05512X0.04134*%
%ADD30R,0.07087X0.05709*%
%ADD31R,0.05709X0.06890*%
%ADD32R,0.08661X0.12795*%
%ADD33R,0.03740X0.03543*%
%ADD34C,0.03000*%
%ADD35R,0.06890X0.05709*%
%ADD36R,0.11024X0.08898*%
%ADD37R,0.12795X0.09843*%
%ADD38R,0.08898X0.11024*%
%ADD39R,0.03150X0.03543*%
%ADD40R,0.11417X0.21260*%
%ADD41R,0.21260X0.11417*%
%ADD42R,0.08071X0.06299*%
%ADD43R,0.20079X0.13780*%
%ADD55R,0.09055X0.12205*%
%ADD78C,0.01500*%
%ADD79C,0.07080*%
%ADD80C,0.16929*%
%ADD81C,0.07087*%
%ADD82C,0.07000*%
%ADD83C,0.14800*%
%ADD84C,0.08000*%
D11*
X193342Y308658D02*
X199791D01*
X191000Y311000D02*
Y313500D01*
Y311000D02*
X193342Y308658D01*
X441563Y86500D02*
X444500D01*
X453933D01*
Y90933D01*
X466728Y103728D02*
X475157D01*
X453933Y90933D02*
X466728Y103728D01*
X412500Y86098D02*
Y94500D01*
X421243Y103243D02*
X427672D01*
X412500Y94500D02*
X421243Y103243D01*
X333000Y200500D02*
X363500D01*
X394000D02*
X394000Y200500D01*
Y196468D02*
Y200500D01*
X363500D02*
X373500D01*
X394000D02*
Y302000D01*
X373500Y200500D02*
X394000D01*
X394000Y196000D02*
Y196468D01*
X313500Y181000D02*
X333000Y200500D01*
X363500Y181000D02*
Y193043D01*
X373500Y181000D02*
Y192201D01*
X373000Y192701D02*
X373500Y192201D01*
X394000Y181500D02*
Y196000D01*
X304743Y391258D02*
X394000Y302000D01*
X393500Y181000D02*
X394000Y181500D01*
X383500Y181000D02*
Y192201D01*
X15721Y103630D02*
X30130D01*
X62000Y135500D01*
X29250Y134750D02*
X53333D01*
X66982Y148399D01*
X82472D01*
X322500Y142672D02*
X325000Y140172D01*
X322437Y121886D02*
X325000Y124449D01*
Y140172D01*
X265500Y76740D02*
Y104000D01*
X267216Y105717D01*
X281435Y76743D02*
X286258D01*
X278563Y79614D02*
X281435Y76743D01*
X286258D02*
X326500Y36500D01*
X338165Y128842D02*
X338165D01*
X322437Y121000D02*
X330323D01*
X338165Y128842D01*
X323594Y114157D02*
X338595D01*
X354937Y130500D01*
Y131386D01*
X308000Y113000D02*
X314563D01*
X296917Y118898D02*
X302102D01*
X308000Y113000D01*
X301661Y116339D02*
X310500Y107500D01*
X296917Y116339D02*
X301661D01*
X310500Y107500D02*
X316548D01*
X318390Y105657D01*
X268321Y113779D02*
X274083D01*
X266541Y112000D02*
X268321Y113779D01*
X266000Y112000D02*
X266541D01*
X256500Y76240D02*
Y103500D01*
X261276Y108276D01*
X273697D01*
X254000Y108000D02*
X261953Y115953D01*
X273697D01*
X254000Y92949D02*
Y108000D01*
X255500Y136000D02*
X264063D01*
X252500Y139000D02*
X255500Y136000D01*
X296917Y99660D02*
X299000Y97577D01*
Y97500D02*
Y97577D01*
X308760Y86740D02*
X322500D01*
X299383Y96117D02*
X308760Y86740D01*
X299383Y96117D02*
Y97117D01*
X299000Y97500D02*
X299383Y97117D01*
X330500Y92459D02*
Y93000D01*
Y92459D02*
X331500Y91459D01*
Y86740D02*
Y91459D01*
X261500Y149000D02*
X262000D01*
X251000Y159500D02*
X261500Y149000D01*
X251000Y159500D02*
Y208500D01*
X262500Y220000D01*
X296917Y99660D02*
Y103543D01*
X330811Y86740D02*
X331500D01*
X249911Y87975D02*
X250437Y88500D01*
X249911Y80911D02*
Y87975D01*
X241291Y100157D02*
X242563Y98886D01*
Y98000D02*
Y98886D01*
X240406Y100157D02*
X241291D01*
X238063Y102500D02*
X240406Y100157D01*
X232000Y102500D02*
X238063D01*
X242563Y108000D02*
Y108886D01*
X236842Y110158D02*
X241291D01*
X233500Y113500D02*
X236842Y110158D01*
X241291D02*
X242563Y108886D01*
Y118000D01*
X228000Y124500D02*
X247400Y143900D01*
X228000Y98000D02*
X237500Y88500D01*
X228000Y98000D02*
Y124500D01*
X250437Y88500D02*
Y89386D01*
X484500Y146929D02*
X491929Y139500D01*
X435500Y146929D02*
X484500D01*
X432370Y143799D02*
X435500Y146929D01*
X520000Y102240D02*
X527500D01*
X512500Y101740D02*
X520000D01*
X251000Y279000D02*
X252000D01*
X241449Y276602D02*
X251000D01*
X232000Y276551D02*
X232500Y277051D01*
X231500D02*
X232000Y276551D01*
X429811Y78520D02*
X443571D01*
X428655Y77604D02*
X429811Y78760D01*
X431854Y41500D02*
Y57500D01*
X429488Y19000D02*
Y39134D01*
X426516Y78465D02*
X427795D01*
X411500Y48747D02*
Y58362D01*
X195083Y347968D02*
Y350032D01*
X209374Y297114D02*
Y298000D01*
X69728Y357563D02*
X76791D01*
X97000Y286740D02*
X98689D01*
X265500Y69260D02*
X267067Y70827D01*
X268827D02*
X274083Y76083D01*
X262689Y68760D02*
X264000Y70071D01*
X274083Y76083D02*
Y103543D01*
X267067Y70827D02*
X268827D01*
X308250Y83573D02*
X327644D01*
X291265Y100558D02*
Y110962D01*
X314563Y102614D02*
X315835Y101342D01*
X314563Y102614D02*
Y103500D01*
X291265Y100558D02*
X308250Y83573D01*
X315835Y101342D02*
X316209D01*
X386658Y109835D02*
X402665D01*
X403000Y109500D01*
X322437Y113000D02*
X323594Y114157D01*
X267216Y105717D02*
X273697D01*
X250437Y89386D02*
X254000Y92949D01*
X265472Y128000D02*
X272016Y121457D01*
X274083D01*
X250437Y128000D02*
X265472D01*
X410189Y86240D02*
X412256D01*
X427500D01*
X436000Y109571D02*
X438929Y112500D01*
X434500Y108071D02*
X436000Y109571D01*
X427672Y103243D02*
X433500Y109071D01*
X169000Y323602D02*
X179898Y334500D01*
X224500D01*
X228279Y330720D01*
Y326579D02*
Y330720D01*
X187921Y331500D02*
X223500D01*
X225721Y329279D01*
Y326579D02*
Y329279D01*
X182366Y325945D02*
X187921Y331500D01*
X196827Y326767D02*
X214312D01*
X209211Y325167D02*
X214099Y320280D01*
X214312Y326767D02*
X218240Y322839D01*
X167512Y295189D02*
X197490Y325167D01*
X209211D01*
X165912Y295851D02*
X196827Y326767D01*
X182366Y325945D02*
X182366D01*
X180012Y323590D02*
X182366Y325945D01*
X218240Y322839D02*
X219421D01*
X296532Y113394D02*
X296917Y113779D01*
X293696Y113394D02*
X296532D01*
X291265Y110962D02*
X293696Y113394D01*
X327644Y83573D02*
X330811Y86740D01*
X277304Y105717D02*
X294063Y88957D01*
Y80500D02*
Y88957D01*
X297226Y77678D02*
Y88353D01*
X277304Y108276D02*
X297226Y88353D01*
X376658Y104394D02*
X381811Y99240D01*
X382500D01*
X376658Y104394D02*
Y105291D01*
X375386Y106563D02*
X376658Y105291D01*
X374500Y106563D02*
X375386D01*
X374886Y99437D02*
X378250Y96073D01*
X374000Y99437D02*
X374886D01*
X378250Y96073D02*
X387144D01*
X390311Y99240D01*
X391000D01*
X366794Y99743D02*
X373614Y106563D01*
X371820Y98142D02*
X373114Y99437D01*
X311673Y98142D02*
X371820D01*
X296917Y106102D02*
X303713D01*
X311673Y98142D01*
X312336Y99743D02*
X366794D01*
X373114Y99437D02*
X374000D01*
X303417Y108661D02*
X312336Y99743D01*
X373614Y106563D02*
X374500D01*
X296917Y108661D02*
X303417D01*
X322437Y103500D02*
X323437Y104500D01*
X335500D02*
X384872Y153872D01*
X323437Y104500D02*
X335500D01*
X384872Y153872D02*
X476372D01*
X331500Y55100D02*
Y79260D01*
Y55100D02*
X338300Y48300D01*
X322500Y79260D02*
X331500D01*
X313000D02*
X322500D01*
X476372Y153872D02*
X493500Y171000D01*
X343168Y165168D02*
X437668D01*
X443500Y171000D01*
X331563Y153563D02*
X343168Y165168D01*
X352000Y161500D02*
X440562D01*
X448500Y169438D01*
X339000Y148500D02*
X352000Y161500D01*
X383386Y106563D02*
X386658Y109835D01*
X389000Y143799D02*
X432370D01*
X297289Y113408D02*
X301370D01*
X311278Y103500D01*
X296917Y113779D02*
X297289Y113408D01*
X318390Y105657D02*
X321165D01*
X322437Y104386D01*
Y103500D02*
Y104386D01*
X311278Y103500D02*
X314563D01*
X292909Y130642D02*
X312627D01*
X316327Y134343D01*
X319102D02*
X320374Y135614D01*
Y136500D01*
X316327Y134343D02*
X319102D01*
X294336Y132243D02*
X298790D01*
X292500Y134078D02*
X294336Y132243D01*
X288437Y135114D02*
X292909Y130642D01*
X298790Y132243D02*
X300390Y133843D01*
X299441Y121000D02*
X314563D01*
X298984Y121457D02*
X299441Y121000D01*
X296917Y121457D02*
X298984D01*
X319565Y116758D02*
X322437Y113886D01*
X319565Y116758D02*
Y126596D01*
X322437Y113000D02*
Y113886D01*
X319565Y126596D02*
X323246Y130276D01*
X338165Y128842D02*
X339437Y130114D01*
Y131000D01*
X322437Y121000D02*
Y121886D01*
X323246Y130276D02*
Y139613D01*
X312106Y137779D02*
X312894D01*
X345791Y132658D02*
X347063Y131386D01*
X339000Y138563D02*
X344905Y132658D01*
X339000Y138563D02*
Y148500D01*
X347063Y130500D02*
Y131386D01*
X344905Y132658D02*
X345791D01*
X347000Y139323D02*
Y146500D01*
Y139323D02*
X354937Y131386D01*
X331563Y131000D02*
Y153563D01*
X286210Y139758D02*
X290664D01*
X283435Y128742D02*
Y136982D01*
X292500Y134078D02*
Y137922D01*
X280563Y136000D02*
Y136886D01*
X286349Y142672D01*
X322500D01*
X283435Y136982D02*
X286210Y139758D01*
X290664D02*
X292500Y137922D01*
X308814Y141072D02*
X312106Y137779D01*
X312894D02*
X315372Y140258D01*
X322601D01*
X323246Y139613D01*
X294277Y104116D02*
X294850Y103543D01*
X292865Y104761D02*
X293509Y104116D01*
X292865Y104761D02*
Y110003D01*
X293509Y104116D02*
X294277D01*
X292865Y110003D02*
X293696Y110835D01*
X294850Y103543D02*
X296917D01*
X293696Y110835D02*
X296532D01*
X296917Y111221D01*
X265000Y49371D02*
Y56551D01*
Y48300D02*
Y49371D01*
Y56551D02*
X271563Y63114D01*
Y64000D01*
X279437Y63114D02*
Y64000D01*
Y63114D02*
X294251Y48300D01*
X295500D01*
X278563Y79614D02*
Y80500D01*
X301937Y63586D02*
Y80500D01*
X302523Y63000D02*
X302523D01*
X301937Y63586D02*
X302523Y63000D01*
X302523D02*
X322201Y43321D01*
X286437Y79614D02*
X289551Y76500D01*
X296048D01*
X297226Y77678D01*
X274083Y108661D02*
X274468Y108276D01*
X277304D01*
X286437Y79614D02*
Y80500D01*
X274468Y105717D02*
X277304D01*
X274083Y106102D02*
X274468Y105717D01*
X322201Y43321D02*
X361879D01*
X368700Y36500D01*
X262000Y52371D02*
X265000Y49371D01*
X262000Y52371D02*
Y68760D01*
X256500D02*
X262000D01*
X262689D01*
X274083Y111221D02*
X274468Y110835D01*
X273697Y105717D02*
X274083Y106102D01*
X273697Y108276D02*
X274083Y108661D01*
Y111221D02*
Y113779D01*
X273697Y115953D02*
X274083Y116339D01*
X250437Y108000D02*
Y108886D01*
X260449Y118898D02*
X274083D01*
X250437Y108886D02*
X260449Y118898D01*
X274083D02*
X274468Y119283D01*
X287165Y134728D02*
X288437Y136000D01*
X287165Y129145D02*
Y134728D01*
X277304Y119283D02*
X287165Y129145D01*
X274468Y119283D02*
X277304D01*
X288437Y135114D02*
Y136000D01*
X300749Y141072D02*
X308814D01*
X296563Y136886D02*
X300749Y141072D01*
X296563Y136000D02*
Y136886D01*
X274083Y121457D02*
X276150D01*
X283435Y128742D01*
X303165Y133843D02*
X304437Y135114D01*
Y136000D01*
X300390Y133843D02*
X303165D01*
X271937Y135114D02*
X274083Y132968D01*
X271937Y135114D02*
Y136000D01*
X274083Y121457D02*
Y132968D01*
X250437Y118000D02*
Y128000D01*
Y98000D02*
Y108000D01*
X267677Y140500D02*
X276949D01*
X280563Y136886D01*
X263669Y136492D02*
X267677Y140500D01*
X247400Y143900D02*
X276400D01*
X237500Y88500D02*
X242563D01*
Y89386D02*
X242581Y89368D01*
X242563Y89386D02*
Y98000D01*
X276400Y143900D02*
X313500Y181000D01*
X242581Y88559D02*
Y89368D01*
X242563Y88500D02*
Y88542D01*
X242581Y88559D01*
X242563Y98886D02*
X245435Y101758D01*
Y124242D01*
X242563Y127114D02*
X245435Y124242D01*
X242563Y127114D02*
Y128000D01*
X217000Y102000D02*
Y115701D01*
X275500Y158000D02*
X275500Y341488D01*
X272500Y146500D02*
Y200000D01*
X252767Y364220D02*
X275500Y341488D01*
X262500Y210000D02*
X272500Y200000D01*
X197541Y377016D02*
X208583D01*
X197500Y377057D02*
X197541Y377016D01*
X234579Y322839D02*
X241339D01*
X244500Y326000D01*
X239000Y333500D02*
X245000D01*
X248000Y324000D02*
Y330500D01*
X245000Y333500D02*
X248000Y330500D01*
X244280Y320280D02*
X248000Y324000D01*
X234579Y320280D02*
X244280D01*
X245721Y356842D02*
X250500Y352063D01*
X246721Y317721D02*
X250500Y321500D01*
Y352063D01*
X234579Y317721D02*
X246721D01*
X230839Y339297D02*
X233541Y342000D01*
X237000D01*
X230839Y326579D02*
Y339297D01*
X178500Y341500D02*
X228000D01*
X231417Y344917D02*
Y351425D01*
X228000Y341500D02*
X231417Y344917D01*
X206642Y315161D02*
X219421D01*
X207500Y247106D02*
X215606D01*
X238343Y269843D01*
X239894D02*
X241000Y270949D01*
X238343Y269843D02*
X239894D01*
X83500Y184240D02*
Y194500D01*
X134500Y97059D02*
X165717D01*
X74000Y117988D02*
X74512Y118500D01*
X74000Y111000D02*
Y117988D01*
X62500Y113000D02*
X68000Y107500D01*
X62500Y113000D02*
Y117512D01*
X63488Y118500D01*
X68000Y107500D02*
X76812D01*
X84812Y115500D01*
X223528Y238732D02*
X252500D01*
X169000Y323602D02*
Y335500D01*
X199791Y308658D02*
X201063Y307386D01*
Y306500D02*
Y307386D01*
X438929Y112500D02*
X459000D01*
X77263Y381000D02*
X78063Y380200D01*
X67000Y381000D02*
X77263D01*
X86500Y152427D02*
Y153500D01*
X82472Y148399D02*
X86500Y152427D01*
X63000Y35646D02*
Y51000D01*
X57854Y13354D02*
Y36000D01*
X47543Y12457D02*
X52220D01*
X76933Y142800D02*
Y146000D01*
X66939Y168257D02*
X74197Y161000D01*
X55435Y168257D02*
X66939D01*
X52563Y164500D02*
Y165386D01*
X74197Y161000D02*
X76933D01*
X52563Y165386D02*
X55435Y168257D01*
X83500Y156500D02*
X86500Y153500D01*
X83500Y156500D02*
Y176760D01*
X74197Y156000D02*
X76933D01*
X60437Y164500D02*
X65697D01*
X74197Y156000D01*
X63750Y150750D02*
X76683D01*
X76933Y151000D01*
X63500Y150500D02*
X63750Y150750D01*
X96067Y161000D02*
X104500D01*
X110500Y198757D02*
Y240000D01*
Y198757D02*
X110600Y198657D01*
Y158337D02*
Y198657D01*
X110500Y144586D02*
Y158237D01*
X109000Y159000D02*
Y177000D01*
X110500Y158237D02*
X110600Y158337D01*
X106000Y156000D02*
X109000Y159000D01*
X101760Y184240D02*
X109000Y177000D01*
X96067Y156000D02*
X106000D01*
X95000Y184240D02*
X101760D01*
X95000Y176760D02*
X95689D01*
X86500Y153500D02*
X89000Y151000D01*
X96067D01*
Y146000D02*
Y151000D01*
X105803Y139000D02*
X121071D01*
X96067Y146000D02*
X98803D01*
X105803Y139000D01*
X95000Y161799D02*
X95799Y161000D01*
X95000Y161799D02*
Y176760D01*
X95799Y161000D02*
X96067D01*
X65000Y184240D02*
X74500D01*
X43382D02*
X65000D01*
X28500Y169358D02*
X43382Y184240D01*
X28500Y169358D02*
X33358Y164500D01*
X52563D01*
X19000Y49500D02*
X19600Y50100D01*
Y50300D02*
Y85467D01*
X76933Y142800D01*
X65000Y176760D02*
X74500D01*
X83500D01*
X74500Y184240D02*
X83500D01*
X86079Y206488D02*
X90500Y202067D01*
Y180571D02*
X94311Y176760D01*
X85000Y206488D02*
X86079D01*
X90500Y180571D02*
Y202067D01*
X72000Y195000D02*
Y253521D01*
X71000Y254521D02*
X72000Y253521D01*
X71000Y254521D02*
Y312500D01*
X165912Y275014D02*
Y295851D01*
X156488Y265591D02*
X165912Y275014D01*
X156488Y265000D02*
Y265591D01*
X167512D02*
Y295189D01*
X148000Y264500D02*
X155988D01*
X156488Y265000D01*
X148100Y254400D02*
X161400D01*
X165157Y258157D02*
Y263236D01*
X161400Y254400D02*
X165157Y258157D01*
X142500Y260000D02*
Y278571D01*
Y260000D02*
X148100Y254400D01*
X165157Y263236D02*
X167512Y265591D01*
X219421Y322839D02*
X220602D01*
X223161Y325398D02*
Y326579D01*
X220602Y322839D02*
X223161Y325398D01*
X214099Y320280D02*
X219421D01*
X91633Y256500D02*
X101145Y266012D01*
X136500D01*
X180000Y322988D02*
X180012Y323000D01*
X180000Y316000D02*
Y322988D01*
X198243Y322000D02*
X206000D01*
X196243Y320000D02*
X198243Y322000D01*
X196000Y320000D02*
X196243D01*
X170000Y350000D02*
X178500Y341500D01*
X196209Y346843D02*
X200116D01*
X200959Y346000D01*
X195083Y347968D02*
X196209Y346843D01*
X200959Y346000D02*
X201500D01*
X195083Y350032D02*
X196209Y351157D01*
X197118Y351425D02*
X208583D01*
X196851Y351157D02*
X197118Y351425D01*
X196209Y351157D02*
X196851D01*
X108000Y354000D02*
X187126D01*
Y353939D02*
X187187Y354000D01*
X187126Y348500D02*
Y353939D01*
Y354000D02*
X201563D01*
X108500Y350000D02*
X170000D01*
X71000Y312500D02*
X108500Y350000D01*
X201563Y354000D02*
X202000D01*
X180012Y323000D02*
Y323590D01*
X230947Y311421D02*
X231028Y311340D01*
X250160D02*
X255500Y306000D01*
X231028Y311340D02*
X250160D01*
X230839Y311421D02*
X230947D01*
X255419Y315081D02*
X255500Y315000D01*
X234579Y315161D02*
X234660Y315081D01*
X255419D01*
X259000Y328550D02*
X259100Y328450D01*
X259000Y328550D02*
Y346500D01*
X259100Y268373D02*
Y328450D01*
X239991Y249264D02*
X259100Y268373D01*
X201500Y307386D02*
Y310709D01*
X205311Y314520D01*
X221336Y391258D02*
X304743D01*
X220691Y389586D02*
Y390613D01*
X220106Y389000D02*
X220691Y389586D01*
X216937Y389000D02*
X220106D01*
X233484Y379575D02*
X241810Y387900D01*
X251150D02*
X253688Y385362D01*
X241810Y387900D02*
X251150D01*
X220691Y390613D02*
X221336Y391258D01*
X216886Y395500D02*
X328000D01*
X492000Y192000D02*
Y231500D01*
X328000Y395500D02*
X492000Y231500D01*
X212544Y391158D02*
X216886Y395500D01*
X253500Y352000D02*
Y352243D01*
X251500Y354243D02*
X253500Y352243D01*
X251500Y354243D02*
Y358937D01*
X251437Y359000D02*
X251500Y358937D01*
X119488Y254988D02*
X124000D01*
X115000Y250500D02*
X119488Y254988D01*
X124000D02*
X136500D01*
X253000Y260010D02*
X263500Y270510D01*
X253000Y247106D02*
Y260010D01*
X263500Y270510D02*
Y341500D01*
X231417Y366779D02*
X266220D01*
X299500Y333500D01*
X295500Y342500D02*
X341000D01*
X268661Y369339D02*
X295500Y342500D01*
X256937Y375500D02*
X264000D01*
X231417Y369339D02*
X268661D01*
X231417Y364220D02*
X252767D01*
X239991Y248378D02*
Y249264D01*
X238386Y247106D02*
X242012Y243480D01*
X238386Y247106D02*
X238719D01*
X237833D02*
X238386D01*
X238719D02*
X239991Y248378D01*
X83937Y264500D02*
Y283366D01*
Y263614D02*
Y264500D01*
X251000Y277551D02*
Y279000D01*
Y285000D01*
X241000Y277051D02*
X241449Y276602D01*
X232500Y277051D02*
X241000D01*
X221500D02*
X231500D01*
X206710Y277242D02*
X221309D01*
X221500Y277051D01*
X205000Y278952D02*
Y292740D01*
Y278952D02*
X206710Y277242D01*
X205000Y292740D02*
X209374Y297114D01*
X222667Y247106D02*
X227157D01*
X252000Y271949D01*
X231902Y272449D02*
X232000D01*
X217051Y257000D02*
X230630Y270579D01*
Y270677D01*
X199409Y257000D02*
X217051D01*
X230630Y271177D02*
X231902Y272449D01*
X217551Y268000D02*
X221500Y271949D01*
X196409Y268000D02*
X217551D01*
X179591Y251181D02*
X196409Y268000D01*
X193591Y251181D02*
X199409Y257000D01*
X240416Y374457D02*
X241459Y375500D01*
X242000D01*
X231417Y374457D02*
X240416D01*
X231417Y377016D02*
X237516D01*
X242000Y381500D01*
X247791Y373342D02*
X249063Y374614D01*
X245518Y371955D02*
X246905Y373342D01*
X236943Y371898D02*
X237001Y371955D01*
X245518D01*
X249063Y374614D02*
Y375500D01*
X246905Y373342D02*
X247791D01*
X231417Y371898D02*
X236943D01*
X244835Y356842D02*
X245721D01*
X243563Y358114D02*
X244835Y356842D01*
X243563Y358114D02*
Y359000D01*
X243461Y359102D02*
X243563Y359000D01*
X10512Y93500D02*
Y98421D01*
X15721Y103630D01*
X81144Y202632D02*
X85000Y206488D01*
X82500Y235012D02*
Y251952D01*
X81065Y260742D02*
X83937Y263614D01*
X81065Y253387D02*
X82500Y251952D01*
Y235012D02*
X85000Y232512D01*
X81065Y253387D02*
Y260742D01*
X97500Y286240D02*
X109228D01*
X103500Y331500D02*
X103743D01*
X105743Y333500D02*
X112988D01*
X103743Y331500D02*
X105743Y333500D01*
X78500Y293500D02*
Y300488D01*
X79000Y300988D01*
X99500Y307750D02*
X102250Y305000D01*
X99500Y337172D02*
X109914Y347586D01*
X99500Y307750D02*
Y337172D01*
X253886Y247106D02*
X267143Y233849D01*
Y214643D02*
Y233849D01*
X262500Y210000D02*
X267143Y214643D01*
X257157Y225342D02*
X262500Y220000D01*
X155500Y162000D02*
X160119D01*
X152000Y165500D02*
X155500Y162000D01*
X152000Y165500D02*
Y177473D01*
X160119Y162000D02*
X164878Y166760D01*
X152000Y177473D02*
X167000Y192473D01*
X164878Y166760D02*
X169811D01*
X167000Y192473D02*
Y210000D01*
X179000Y232000D02*
Y240158D01*
X167000Y220000D02*
X179000Y232000D01*
X108811Y275488D02*
X109500D01*
X76791Y337343D02*
X78063Y338614D01*
X73884Y337343D02*
X76791D01*
X72000Y336000D02*
X72541D01*
X78063Y338614D02*
Y339500D01*
X72541Y336000D02*
X73884Y337343D01*
X69000Y346500D02*
X71800Y349300D01*
X78063D01*
X243400Y155443D02*
Y210000D01*
X235784Y149500D02*
X237457D01*
X243400Y155443D01*
X238757Y215357D02*
X243400Y220000D01*
X238757Y184843D02*
Y215357D01*
Y184843D02*
X239738Y183862D01*
Y156781D02*
Y183862D01*
X237457Y154500D02*
X239738Y156781D01*
X235784Y154500D02*
X237457D01*
X217644Y203344D02*
X224300Y210000D01*
X217644Y185427D02*
Y203344D01*
Y185427D02*
X220811Y182260D01*
X221500D01*
Y197894D02*
X228943Y205337D01*
X221500Y189740D02*
Y197894D01*
X228943Y205337D02*
Y215357D01*
X224300Y220000D02*
X228943Y215357D01*
X222189Y189740D02*
X233429Y178500D01*
Y175181D02*
Y178500D01*
X234110Y174500D02*
X235784D01*
X221500Y189740D02*
X222189D01*
X233429Y175181D02*
X234110Y174500D01*
X233429Y170181D02*
Y171020D01*
X234110Y169500D02*
X235784D01*
X221500Y182260D02*
X222189D01*
X233429Y171020D01*
Y170181D02*
X234110Y169500D01*
X222500Y36000D02*
X223500D01*
X217000Y41500D02*
X222500Y36000D01*
X217000Y41500D02*
Y57000D01*
X222549Y62549D01*
X217000Y127236D02*
Y128299D01*
Y127236D02*
X222549Y121687D01*
Y62549D02*
Y121687D01*
X211700Y36000D02*
Y36300D01*
X206500Y41500D02*
X211700Y36300D01*
X206500Y41500D02*
Y66000D01*
X191451Y81049D02*
X206500Y66000D01*
X191451Y81049D02*
Y121187D01*
X197000Y126736D01*
Y127799D01*
X217000Y128299D02*
Y142390D01*
X234110Y159500D01*
X235784D01*
X197000Y127799D02*
Y128862D01*
X231957Y163819D01*
X235102D01*
X235784Y164500D01*
X216500Y115201D02*
X217000Y115701D01*
X197000Y115201D02*
X216500D01*
X142299Y278571D02*
X142500D01*
X74512Y118500D02*
Y119091D01*
X76866Y121445D02*
X77457D01*
X80012Y124000D02*
X129071D01*
X74512Y119091D02*
X76866Y121445D01*
X77457D02*
X80012Y124000D01*
X129071D02*
X134500Y118571D01*
X166000Y96776D02*
X166224Y97000D01*
X179500D01*
X165717Y97059D02*
X166000Y96776D01*
X134500Y97059D02*
X135000Y96559D01*
X134500Y97059D02*
Y118571D01*
X169811Y143740D02*
X170500D01*
X143189D02*
X169811D01*
X134500Y152429D02*
X143189Y143740D01*
X121071Y139000D02*
X134500Y152429D01*
X165000Y161949D02*
X169811Y166760D01*
X165000Y148551D02*
Y161949D01*
Y148551D02*
X169811Y143740D01*
Y166760D02*
X170500D01*
X194543Y149500D02*
X196216D01*
X170500Y136260D02*
X181303D01*
X194543Y149500D01*
Y154500D02*
X196216D01*
X170500Y151260D02*
X191303D01*
X194543Y154500D01*
Y159500D02*
X196216D01*
X170500Y158740D02*
X193783D01*
X194543Y159500D01*
X189803Y174240D02*
X194543Y169500D01*
X196216D01*
X170500Y174240D02*
X189803D01*
X194543Y164500D02*
X196216D01*
X189117Y169927D02*
X194543Y164500D01*
X162356Y169927D02*
X189117D01*
X159189Y166760D02*
X162356Y169927D01*
X158500Y166760D02*
X159189D01*
X164121Y174240D02*
X167288Y177407D01*
X191636D01*
X194543Y174500D02*
X196216D01*
X158500Y174240D02*
X164121D01*
X191636Y177407D02*
X194543Y174500D01*
X112001Y307500D02*
X115408D01*
X117733Y305175D01*
Y288791D02*
Y305175D01*
X112543Y283602D02*
X117733Y288791D01*
X110189Y277488D02*
X112543Y279842D01*
X109500Y277488D02*
X110189D01*
X112543Y279842D02*
Y283602D01*
X109500Y277488D02*
X109988Y277000D01*
X117500D01*
X97500Y278760D02*
X108228D01*
X109500Y277488D01*
X97000Y279260D02*
X97500Y278760D01*
X88000Y279260D02*
X97000D01*
X78988Y232000D02*
X81065Y234077D01*
X87311Y286740D02*
X88000D01*
X83937Y283366D02*
X87311Y286740D01*
X81146Y34500D02*
Y50500D01*
X61854Y34500D02*
X63000Y35646D01*
X62500Y50500D02*
X63000Y51000D01*
X61854Y50500D02*
X62500D01*
X56458Y11958D02*
X57854Y13354D01*
X52000Y10488D02*
X53469Y11958D01*
X56458D01*
X19600Y38500D02*
X21224D01*
X22809Y36915D02*
X23086D01*
X47543Y12457D01*
X21224Y38500D02*
X22809Y36915D01*
X52220Y12457D02*
X52689Y11988D01*
X27500Y153000D02*
Y153541D01*
X28500Y154541D02*
Y169358D01*
X27500Y153541D02*
X28500Y154541D01*
X85500Y76500D02*
X99000D01*
X232000Y359000D02*
X232102Y359102D01*
X243461D01*
X231417D02*
X231898D01*
X232000Y359000D01*
X19600Y38500D02*
Y50100D01*
Y50300D01*
X99000Y115500D02*
X108459D01*
X109468Y115383D02*
X109585Y115500D01*
X108459D02*
X108576Y115383D01*
X109468D01*
X85500Y115500D02*
X99000D01*
X84812D02*
X85500D01*
X81000Y34354D02*
X81146Y34500D01*
X81000Y13500D02*
Y34354D01*
X257157Y225342D02*
Y241059D01*
X254737Y243480D02*
X257157Y241059D01*
X242012Y243480D02*
X254737D01*
X253000Y247106D02*
X253886D01*
X209937Y282000D02*
X215500D01*
X208937Y281000D02*
X209937Y282000D01*
X208937Y289500D02*
X212000D01*
X214500Y292000D01*
X168197Y387500D02*
X191000D01*
X163760Y391740D02*
Y391937D01*
Y391740D02*
X164835Y390665D01*
X165032D01*
X168197Y387500D01*
X223528Y238732D02*
X224300Y237961D01*
X223028Y239232D02*
X223528Y238732D01*
X224300Y220000D02*
Y237961D01*
X222667Y239232D02*
X223028D01*
X205200Y221647D02*
X207500Y223947D01*
X205200Y220000D02*
Y221647D01*
X207500Y223947D02*
Y239232D01*
X193000Y226900D02*
Y240158D01*
X186100Y220000D02*
X193000Y226900D01*
Y251181D02*
X193591D01*
X179000D02*
X179591D01*
X83937Y256500D02*
X91633D01*
X210968Y317721D02*
X219421D01*
X206689Y322000D02*
X210968Y317721D01*
X206000Y314520D02*
X206642Y315161D01*
X205311Y314520D02*
X206000D01*
X228279Y301228D02*
Y311421D01*
X208937Y281000D02*
Y281886D01*
X228279Y301228D01*
X225721Y307169D02*
Y311421D01*
X208937Y290386D02*
X225721Y307169D01*
X208937Y289500D02*
Y290386D01*
X209374Y306500D02*
X219421D01*
X223161Y310240D01*
Y311421D01*
X201500Y298000D02*
Y298886D01*
X206957Y304343D01*
X208102D01*
X209374Y305614D01*
Y306500D01*
X201500Y290000D02*
Y298000D01*
Y281500D02*
Y290000D01*
X98689Y286740D02*
X102250Y290301D01*
Y305000D01*
X115000Y302500D02*
X115500Y303000D01*
X112001Y302500D02*
X115000D01*
X104750D02*
X112001D01*
X102250Y305000D02*
X104750Y302500D01*
X109914Y347586D02*
X110000Y347500D01*
X122000D01*
X134591Y339398D02*
X139012Y334976D01*
X130102Y339398D02*
X134591D01*
X139012Y333500D02*
Y334976D01*
X122000Y347500D02*
X130102Y339398D01*
X139012Y333500D02*
X151000D01*
X136500Y272772D02*
X142299Y278571D01*
X136500Y266012D02*
Y272772D01*
X109228Y286240D02*
X109500Y286512D01*
X88000Y286740D02*
X97000D01*
X97500Y286240D01*
X76063Y284471D02*
X89092Y297500D01*
X92500D01*
X76063Y264500D02*
Y284471D01*
Y256500D02*
Y264500D01*
X112264Y312500D02*
X142429D01*
X112001D02*
X112264D01*
X142429D02*
X142500Y312429D01*
X112264Y312500D02*
X112988Y313225D01*
Y333500D01*
X79488Y312500D02*
X92500D01*
X79000Y312012D02*
X79488Y312500D01*
X68500Y314500D02*
X108000Y354000D01*
X85937Y350186D02*
X94854Y359102D01*
X102094Y356543D02*
X208583D01*
X94854Y359102D02*
X208583D01*
X85937Y340386D02*
X102094Y356543D01*
X207780Y366779D02*
X208583D01*
X85937Y360390D02*
X87209Y361661D01*
X85937Y359600D02*
Y360390D01*
Y379314D02*
X98472Y366779D01*
X85937Y389614D02*
X106213Y369339D01*
X207221Y366779D02*
X207500Y366500D01*
X98472Y366779D02*
X207221D01*
X90731Y364220D02*
X208583D01*
X87209Y361661D02*
X208583D01*
X85937Y369014D02*
X90731Y364220D01*
X207500Y366500D02*
X207780Y366779D01*
X106213Y369339D02*
X208583D01*
X85937Y358714D02*
Y359600D01*
X153937Y371500D02*
X155000Y372563D01*
X114500Y371500D02*
X153937D01*
X91742Y394257D02*
X114500Y371500D01*
X154437Y372500D02*
X155000Y373063D01*
X156165Y371898D02*
X208583D01*
X155000Y373063D02*
X156165Y371898D01*
X50800Y199200D02*
X68500Y216900D01*
Y314500D01*
X55800Y211800D02*
X66300Y222300D01*
Y318977D01*
X202000Y354000D02*
X208567D01*
X172315Y392000D02*
X199000D01*
X172142Y390839D02*
Y391827D01*
X172315Y392000D01*
X208567Y354000D02*
X208583Y353984D01*
X64700Y254900D02*
Y320152D01*
X73757Y343257D02*
X78005D01*
X85937Y348414D02*
Y349300D01*
X78005Y343257D02*
X82478Y347730D01*
X63100Y332600D02*
X73757Y343257D01*
X64700Y320152D02*
X82478Y337930D01*
Y347730D02*
Y355255D01*
X66300Y318977D02*
X85937Y338614D01*
X82478Y337930D02*
Y344955D01*
X85937Y339500D02*
Y340386D01*
X82478Y344955D02*
X85937Y348414D01*
X63100Y284300D02*
Y332600D01*
X85937Y338614D02*
Y339500D01*
Y349300D02*
Y350186D01*
X231437Y379594D02*
Y387500D01*
X231417Y379575D02*
X231437Y379594D01*
X208968Y374843D02*
X211804D01*
X217141Y380180D01*
Y380192D01*
X208583Y374457D02*
X208968Y374843D01*
X217141Y380192D02*
X223563Y386614D01*
Y387500D01*
X213828Y385005D02*
X216937Y388114D01*
X213828Y379426D02*
Y385005D01*
X211804Y377402D02*
X213828Y379426D01*
X208583Y377016D02*
X208968Y377402D01*
X216937Y388114D02*
Y389000D01*
X208968Y377402D02*
X211804D01*
X167500Y383866D02*
X168575Y382791D01*
X168772D02*
X177106Y374457D01*
X208583D01*
X167500Y383866D02*
Y384063D01*
X168575Y382791D02*
X168772D01*
X162488Y390665D02*
X162685D01*
X163760Y391740D01*
X155000Y380437D02*
Y383177D01*
X162488Y390665D01*
X65758Y394257D02*
X91742D01*
X52000Y380500D02*
X65758Y394257D01*
X85937Y389614D02*
Y390500D01*
X81885Y385562D02*
X85937Y389614D01*
X81885Y378038D02*
Y385562D01*
X69895Y375257D02*
X79105D01*
X58300Y363663D02*
X69895Y375257D01*
X79105D02*
X81885Y378038D01*
X58300Y354000D02*
Y363663D01*
X51800Y347500D02*
X58300Y354000D01*
X59900Y363000D02*
X70557Y373657D01*
X80280D01*
X59900Y343800D02*
Y363000D01*
X85937Y379314D02*
Y380200D01*
X80280Y373657D02*
X85937Y379314D01*
X51800Y335700D02*
X59900Y343800D01*
X61500Y313200D02*
Y362337D01*
X69063Y369900D01*
X78063D01*
X50800Y241000D02*
X64700Y254900D01*
X51300Y272500D02*
X63100Y284300D01*
X52300Y304000D02*
X61500Y313200D01*
X69728Y365437D02*
X82360D01*
X82478Y355255D02*
X85937Y358714D01*
X50800Y211000D02*
X51600Y211800D01*
X55800D01*
X78063Y358835D02*
Y359600D01*
Y349300D02*
Y358835D01*
X69728Y357063D02*
X70614D01*
X78063Y380200D02*
Y390500D01*
X76791Y357563D02*
X78063Y358835D01*
X82360Y365437D02*
X85937Y369014D01*
X537811Y101500D02*
X538500D01*
X530976Y143012D02*
X557602D01*
X529500D02*
X530976D01*
X538500Y102500D02*
Y135488D01*
X530976Y143012D02*
X538500Y135488D01*
X527500Y102240D02*
Y102500D01*
Y98933D02*
Y102240D01*
X531500Y75500D02*
Y97398D01*
X527500Y98933D02*
X528195Y98238D01*
X530660D01*
X531500Y97398D01*
X557602Y143012D02*
X565579Y150988D01*
X570500D01*
X520689Y102500D02*
X522256Y104067D01*
Y104756D01*
X523602Y106102D02*
Y112567D01*
X522256Y104756D02*
X523602Y106102D01*
Y112567D02*
X528024Y116988D01*
X529500D01*
X484500Y113071D02*
X491051Y106520D01*
X475157Y103728D02*
X484500Y113071D01*
Y108571D02*
X498051Y95020D01*
X512500D01*
X524669Y83000D02*
X527500Y85831D01*
X521933Y83000D02*
X524669D01*
X527500Y85831D02*
Y95020D01*
X520000D02*
X527500D01*
X512500D02*
X520000D01*
X538500D02*
X539189D01*
X546202Y88006D01*
Y80399D02*
Y88006D01*
X543803Y78000D02*
X546202Y80399D01*
X541067Y78000D02*
X543803D01*
X537532Y83799D02*
X538331Y83000D01*
X537532Y83799D02*
Y89227D01*
X534644Y92114D02*
X537532Y89227D01*
X534644Y92114D02*
Y99333D01*
X537811Y102500D01*
X538331Y83000D02*
X541067D01*
X537811Y102500D02*
X538500D01*
X553854Y73000D02*
X555854Y75000D01*
X541067Y73000D02*
X553854D01*
X541067Y68000D02*
Y73000D01*
X537818Y73799D02*
X538617Y73000D01*
X531500Y75500D02*
X537232D01*
X537818Y74914D01*
Y73799D02*
Y74914D01*
X538617Y73000D02*
X541067D01*
X509000Y78437D02*
X513158D01*
X516921Y82201D01*
X521134D01*
X521933Y83000D01*
X509886Y70563D02*
X513797Y74474D01*
X516437Y78000D02*
X521933D01*
X509000Y70563D02*
X509886D01*
X513797Y74474D02*
Y75360D01*
X516437Y78000D01*
X519197Y73000D02*
X521933D01*
X509000Y62803D02*
X519197Y73000D01*
X509000Y62500D02*
Y62803D01*
Y70563D02*
X510137Y71700D01*
X443500Y181000D02*
X448500Y176000D01*
Y169438D02*
Y176000D01*
X403000Y37000D02*
X411000D01*
X385701Y54299D02*
Y70500D01*
Y54299D02*
X403000Y37000D01*
X436000Y86240D02*
X441303D01*
X427500D02*
X436000D01*
X433500Y109071D02*
X434500Y108071D01*
X299500Y333500D02*
X341500D01*
X258531Y386157D02*
X261000Y388626D01*
X264374D01*
X264500Y388500D01*
X256374Y384091D02*
Y384886D01*
Y384000D02*
Y384091D01*
Y384886D02*
X257646Y386157D01*
X258531D01*
X443571Y78520D02*
X443811Y78760D01*
X433354Y68303D02*
X443571Y78520D01*
X433354Y58567D02*
Y68303D01*
X443811Y78760D02*
X444500D01*
X441500Y57500D02*
Y66803D01*
X451197Y76500D01*
X429524Y62398D02*
X433354Y58567D01*
X420500Y67937D02*
X421386D01*
X426925Y62398D01*
X429524D01*
X433354Y57500D02*
Y58567D01*
X428655Y77604D02*
X428979Y77280D01*
X427795Y78465D02*
X428655Y77604D01*
X421461Y78169D02*
X426221D01*
X426516Y78465D01*
X413386Y78563D02*
X417323Y82500D01*
X449812D02*
X450013Y82299D01*
X453134D02*
X453933Y81500D01*
X450013Y82299D02*
X453134D01*
X417323Y82500D02*
X449812D01*
X399362Y70500D02*
X413791D01*
X398299D02*
X399362D01*
X413791D02*
X421461Y78169D01*
X385500Y41500D02*
Y50371D01*
X380500Y36500D02*
X385500Y41500D01*
X372500Y65563D02*
X373386D01*
X374658Y64291D01*
Y61214D02*
Y64291D01*
Y61214D02*
X385500Y50371D01*
X555854Y75000D02*
Y93000D01*
X555354Y93500D02*
X555854Y93000D01*
X473067Y71500D02*
Y76500D01*
X451197D02*
X453933D01*
X466000D02*
X473067D01*
X441303Y86240D02*
X441563Y86500D01*
X429488Y39134D02*
X431854Y41500D01*
X391689Y91760D02*
X395256Y95327D01*
X420500Y45000D02*
Y60063D01*
X399362Y70500D02*
X411500Y58362D01*
X412250Y36750D02*
X420500Y45000D01*
X473067Y71500D02*
X482000D01*
X463500Y79000D02*
X466000Y76500D01*
X391689Y91760D02*
X398299Y85150D01*
Y70500D02*
Y85150D01*
X395256Y95327D02*
Y102693D01*
X391386Y106563D02*
X395256Y102693D01*
X509000Y78437D02*
X509437Y78000D01*
X553000Y95854D02*
X555354Y93500D01*
X553000Y95854D02*
Y114000D01*
X491929Y139500D02*
X511000D01*
X390500Y106563D02*
X391386D01*
X391000Y91760D02*
X391689D01*
X382500D02*
X391000D01*
X374500Y114437D02*
X382500D01*
Y106563D02*
X383386D01*
X382500Y114437D02*
X390500D01*
X387500Y133701D02*
X388500Y132701D01*
X382500Y114437D02*
X388500Y120437D01*
Y132122D01*
X372500Y73437D02*
X372728D01*
X382764D01*
X372728D02*
X374000Y74709D01*
Y91563D01*
X382764Y73437D02*
X385701Y70500D01*
X179000Y44500D02*
Y60500D01*
X170500Y36000D02*
X179000Y44500D01*
X145300Y36000D02*
X157100D01*
X170500D01*
X133500D02*
X145300D01*
X210335Y391158D02*
X212544D01*
X209063Y389886D02*
X210335Y391158D01*
X209063Y389000D02*
Y389886D01*
X208677Y379575D02*
X209063Y379961D01*
Y389000D01*
X208583Y379575D02*
X208677D01*
X179500Y70068D02*
Y73500D01*
X161500Y67500D02*
X163268Y65732D01*
X136059Y67500D02*
X157488D01*
X161500D01*
X171987Y62555D02*
X179500Y70068D01*
X163268Y64323D02*
X165036Y62555D01*
X171987D01*
X163268Y64323D02*
Y65732D01*
X135000Y66441D02*
X136059Y67500D01*
X131850Y66441D02*
X135000D01*
X95500Y52000D02*
X109000D01*
X117410D02*
X131850Y66441D01*
X109000Y52000D02*
X117410D01*
X166000Y70602D02*
Y81224D01*
X168512Y67500D02*
Y68090D01*
X166000Y70602D02*
X168512Y68090D01*
X178500Y251681D02*
X179000Y251181D01*
X248500Y376063D02*
X249063Y375500D01*
X248500Y376063D02*
Y384000D01*
X178500Y239657D02*
X179000Y240158D01*
X252500Y238732D02*
X253000Y239232D01*
X255102Y385362D02*
X256374Y384091D01*
X253688Y385362D02*
X255102D01*
X231417Y379575D02*
X233484D01*
X192000Y239158D02*
X193000Y240158D01*
X109000Y14000D02*
X134000Y39000D01*
X109000Y13000D02*
Y14000D01*
X95500Y13000D02*
X109000D01*
X0Y399500D02*
X541500D01*
X542000Y399000D01*
Y161500D02*
Y399000D01*
Y161500D02*
X599000D01*
X599500Y161000D01*
Y500D02*
Y161000D01*
Y500D02*
X600000Y0D01*
X0D02*
X600000D01*
X0D02*
Y399500D01*
Y0D02*
X600000D01*
D16*
X112988Y333500D02*
D03*
X139012D02*
D03*
X430488Y19000D02*
D03*
X456512D02*
D03*
D17*
X363500Y200406D02*
D03*
Y192532D02*
D03*
X373500Y200468D02*
D03*
Y192595D02*
D03*
X383437Y200468D02*
D03*
Y192595D02*
D03*
X390500Y114437D02*
D03*
Y106563D02*
D03*
X420500Y60063D02*
D03*
Y67937D02*
D03*
X509000Y70563D02*
D03*
Y78437D02*
D03*
X412500Y78224D02*
D03*
Y86098D02*
D03*
X382500Y106563D02*
D03*
Y114437D02*
D03*
X374000Y99437D02*
D03*
Y91563D02*
D03*
X237833Y239232D02*
D03*
Y247106D02*
D03*
X253000Y239232D02*
D03*
Y247106D02*
D03*
X70614Y357063D02*
D03*
Y364937D02*
D03*
X155000Y372563D02*
D03*
Y380437D02*
D03*
X207500Y239232D02*
D03*
Y247106D02*
D03*
X372500Y65563D02*
D03*
Y73437D02*
D03*
X222667Y239232D02*
D03*
Y247106D02*
D03*
X374500Y106563D02*
D03*
Y114437D02*
D03*
D18*
X278563Y80500D02*
D03*
X286437D02*
D03*
X208937Y298000D02*
D03*
X201063D02*
D03*
X208937Y289500D02*
D03*
X201063D02*
D03*
X208937Y306500D02*
D03*
X201063D02*
D03*
X208937Y281000D02*
D03*
X201063D02*
D03*
X250437Y98000D02*
D03*
X242563D02*
D03*
X250437Y108000D02*
D03*
X242563D02*
D03*
X250437Y118000D02*
D03*
X242563D02*
D03*
X250437Y128000D02*
D03*
X242563D02*
D03*
X314563Y121000D02*
D03*
X322437D02*
D03*
X314563Y103500D02*
D03*
X322437D02*
D03*
X78063Y339500D02*
D03*
X85937D02*
D03*
X216937Y389000D02*
D03*
X209063D02*
D03*
X331563Y131000D02*
D03*
X339437D02*
D03*
X279437Y64000D02*
D03*
X271563D02*
D03*
X85937Y369900D02*
D03*
X78063D02*
D03*
X231437Y387500D02*
D03*
X223563D02*
D03*
X248500Y384000D02*
D03*
X256374D02*
D03*
X294063Y80500D02*
D03*
X301937D02*
D03*
X85937Y349300D02*
D03*
X78063D02*
D03*
X76063Y264500D02*
D03*
X83937D02*
D03*
X250437Y88500D02*
D03*
X242563D02*
D03*
X256937Y375500D02*
D03*
X249063D02*
D03*
X85937Y359600D02*
D03*
X78063D02*
D03*
X354937Y130500D02*
D03*
X347063D02*
D03*
X314563Y112000D02*
D03*
X322437D02*
D03*
X60437Y164500D02*
D03*
X52563D02*
D03*
X78063Y390500D02*
D03*
X85937D02*
D03*
X78063Y380200D02*
D03*
X85937D02*
D03*
X83937Y256500D02*
D03*
X76063D02*
D03*
X194937Y349000D02*
D03*
X187063D02*
D03*
X243563Y359000D02*
D03*
X251437D02*
D03*
X264063Y136000D02*
D03*
X271937D02*
D03*
X296563D02*
D03*
X304437D02*
D03*
X312500Y136500D02*
D03*
X320374D02*
D03*
X280563Y136000D02*
D03*
X288437D02*
D03*
D19*
X296917Y103543D02*
D03*
Y106102D02*
D03*
Y108661D02*
D03*
Y111221D02*
D03*
Y113779D02*
D03*
Y116339D02*
D03*
Y118898D02*
D03*
Y121457D02*
D03*
X274083Y103543D02*
D03*
Y106102D02*
D03*
Y108661D02*
D03*
Y111221D02*
D03*
Y113779D02*
D03*
Y116339D02*
D03*
Y118898D02*
D03*
Y121457D02*
D03*
X231417Y351425D02*
D03*
Y353984D02*
D03*
Y356543D02*
D03*
Y359102D02*
D03*
Y361661D02*
D03*
Y364220D02*
D03*
Y366779D02*
D03*
Y369339D02*
D03*
Y371898D02*
D03*
Y374457D02*
D03*
Y377016D02*
D03*
Y379575D02*
D03*
X208583Y351425D02*
D03*
Y353984D02*
D03*
Y356543D02*
D03*
Y359102D02*
D03*
Y361661D02*
D03*
Y364220D02*
D03*
Y366779D02*
D03*
Y369339D02*
D03*
Y371898D02*
D03*
Y374457D02*
D03*
Y377016D02*
D03*
Y379575D02*
D03*
D20*
X219421Y322839D02*
D03*
Y320280D02*
D03*
Y317721D02*
D03*
Y315161D02*
D03*
X234579D02*
D03*
Y317721D02*
D03*
Y320280D02*
D03*
Y322839D02*
D03*
D21*
X223161Y311421D02*
D03*
X225721D02*
D03*
X228279D02*
D03*
X230839D02*
D03*
Y326579D02*
D03*
X228279D02*
D03*
X225721D02*
D03*
X223161D02*
D03*
D22*
X227000Y319000D02*
D03*
D23*
X142500Y312429D02*
D03*
Y278571D02*
D03*
D24*
X235784Y139500D02*
D03*
Y144500D02*
D03*
Y149500D02*
D03*
Y154500D02*
D03*
Y159500D02*
D03*
Y164500D02*
D03*
Y169500D02*
D03*
Y174500D02*
D03*
X196216Y139500D02*
D03*
Y144500D02*
D03*
Y149500D02*
D03*
Y154500D02*
D03*
Y159500D02*
D03*
Y164500D02*
D03*
Y169500D02*
D03*
Y174500D02*
D03*
D25*
X86500Y153500D02*
D03*
X463500Y79000D02*
D03*
X531500Y75500D02*
D03*
D26*
X96067Y146000D02*
D03*
Y151000D02*
D03*
Y156000D02*
D03*
Y161000D02*
D03*
X76933Y146000D02*
D03*
Y151000D02*
D03*
Y156000D02*
D03*
Y161000D02*
D03*
X453933Y86500D02*
D03*
Y81500D02*
D03*
Y76500D02*
D03*
Y71500D02*
D03*
X473067Y86500D02*
D03*
Y81500D02*
D03*
Y76500D02*
D03*
Y71500D02*
D03*
X521933Y83000D02*
D03*
Y78000D02*
D03*
Y73000D02*
D03*
Y68000D02*
D03*
X541067Y83000D02*
D03*
Y78000D02*
D03*
Y73000D02*
D03*
Y68000D02*
D03*
D27*
X112001Y312500D02*
D03*
Y307500D02*
D03*
Y302500D02*
D03*
Y297500D02*
D03*
X92500D02*
D03*
Y302500D02*
D03*
Y307500D02*
D03*
Y312500D02*
D03*
D28*
X28500Y169358D02*
D03*
Y135500D02*
D03*
X433500Y142929D02*
D03*
Y109071D02*
D03*
X134500Y152429D02*
D03*
Y118571D02*
D03*
X484500Y142429D02*
D03*
Y108571D02*
D03*
D29*
X206000Y322000D02*
D03*
Y314520D02*
D03*
X427500Y78760D02*
D03*
Y86240D02*
D03*
X436000Y78760D02*
D03*
Y86240D02*
D03*
X444500Y78760D02*
D03*
Y86240D02*
D03*
X158500Y166760D02*
D03*
Y174240D02*
D03*
X170500Y136260D02*
D03*
Y143740D02*
D03*
X265500Y76740D02*
D03*
Y69260D02*
D03*
X313000Y86740D02*
D03*
Y79260D02*
D03*
X95000Y184240D02*
D03*
Y176760D02*
D03*
X74500Y184240D02*
D03*
Y176760D02*
D03*
X527500Y95020D02*
D03*
Y102500D02*
D03*
X512500Y95020D02*
D03*
Y102500D02*
D03*
X331500Y86740D02*
D03*
Y79260D02*
D03*
X482000Y80260D02*
D03*
Y87740D02*
D03*
X538500Y95020D02*
D03*
Y102500D02*
D03*
X83500Y184240D02*
D03*
Y176760D02*
D03*
X170500Y174240D02*
D03*
Y166760D02*
D03*
X382500Y99240D02*
D03*
Y91760D02*
D03*
X391000Y99240D02*
D03*
Y91760D02*
D03*
X88000Y279260D02*
D03*
Y286740D02*
D03*
X322500Y86740D02*
D03*
Y79260D02*
D03*
X221500Y189740D02*
D03*
Y182260D02*
D03*
X256500Y76240D02*
D03*
Y68760D02*
D03*
X170500Y151260D02*
D03*
Y158740D02*
D03*
X520000Y95020D02*
D03*
Y102500D02*
D03*
X97500Y278760D02*
D03*
Y286240D02*
D03*
X65000Y184240D02*
D03*
Y176760D02*
D03*
D30*
X136500Y266012D02*
D03*
Y254988D02*
D03*
X124000Y266012D02*
D03*
Y254988D02*
D03*
X79000Y300988D02*
D03*
Y312012D02*
D03*
X52000Y10488D02*
D03*
Y21512D02*
D03*
X588000Y88512D02*
D03*
Y77488D02*
D03*
X496000Y72488D02*
D03*
Y83512D02*
D03*
X109500Y288512D02*
D03*
Y277488D02*
D03*
D31*
X156488Y265000D02*
D03*
X167512D02*
D03*
X74512Y118500D02*
D03*
X63488D02*
D03*
X157488Y67500D02*
D03*
X168512D02*
D03*
X180012Y323000D02*
D03*
X168988D02*
D03*
D32*
X452146Y41500D02*
D03*
X432854D02*
D03*
X575146Y75000D02*
D03*
X555854D02*
D03*
X61854Y50500D02*
D03*
X81146D02*
D03*
X574646Y93500D02*
D03*
X555354D02*
D03*
X452646Y57500D02*
D03*
X433354D02*
D03*
X61854Y34500D02*
D03*
X81146D02*
D03*
D33*
X241000Y270949D02*
D03*
Y277051D02*
D03*
X221500Y270949D02*
D03*
Y277051D02*
D03*
X251000Y271449D02*
D03*
Y277551D02*
D03*
X232000Y270949D02*
D03*
Y277051D02*
D03*
D34*
X109500Y115000D02*
D03*
X179500Y73500D02*
D03*
X179000Y60500D02*
D03*
X179500Y97000D02*
D03*
X191000Y313500D02*
D03*
X62000Y135500D02*
D03*
X266000Y112000D02*
D03*
X252500Y139000D02*
D03*
X299000Y97500D02*
D03*
X330500Y93000D02*
D03*
X262000Y149000D02*
D03*
X275500Y158000D02*
D03*
X249911Y80911D02*
D03*
X232000Y102500D02*
D03*
X233500Y113500D02*
D03*
X403000Y109500D02*
D03*
X217000Y102000D02*
D03*
X272500Y146500D02*
D03*
X197500Y377057D02*
D03*
X244500Y326000D02*
D03*
X239000Y333500D02*
D03*
X237000Y342000D02*
D03*
X83500Y194500D02*
D03*
X74000Y111000D02*
D03*
X169000Y335500D02*
D03*
X459000Y112500D02*
D03*
X104500Y161000D02*
D03*
X63500Y150500D02*
D03*
X72000Y195000D02*
D03*
X110500Y240000D02*
D03*
Y144500D02*
D03*
X148000Y264500D02*
D03*
X180000Y316000D02*
D03*
X196000Y320000D02*
D03*
X201500Y346000D02*
D03*
X255500Y306000D02*
D03*
Y315000D02*
D03*
X253500Y352000D02*
D03*
X115000Y250500D02*
D03*
X264000Y375500D02*
D03*
X263500Y341500D02*
D03*
X259000Y346500D02*
D03*
X242000Y375500D02*
D03*
Y381500D02*
D03*
X103500Y331500D02*
D03*
X78500Y293500D02*
D03*
X251000Y285000D02*
D03*
X72000Y336000D02*
D03*
X69000Y346500D02*
D03*
X67000Y381000D02*
D03*
X117500Y277000D02*
D03*
X215500Y282000D02*
D03*
X214500Y292000D02*
D03*
X191000Y387500D02*
D03*
X199000Y392000D02*
D03*
X509000Y62500D02*
D03*
X264500Y388500D02*
D03*
X441500Y57500D02*
D03*
X341500Y333500D02*
D03*
X341000Y342500D02*
D03*
X511000Y139500D02*
D03*
X553000Y114000D02*
D03*
X482000Y71500D02*
D03*
X151000Y333500D02*
D03*
X81000Y13500D02*
D03*
X492000Y192000D02*
D03*
X347000Y146500D02*
D03*
X27500Y153000D02*
D03*
D35*
X193000Y240158D02*
D03*
Y251181D02*
D03*
X179000Y240158D02*
D03*
Y251181D02*
D03*
D36*
X385701Y70500D02*
D03*
X398299D02*
D03*
D37*
X529500Y116988D02*
D03*
Y143012D02*
D03*
X85000Y232512D02*
D03*
Y206488D02*
D03*
D38*
X389000Y131201D02*
D03*
Y143799D02*
D03*
X217000Y115701D02*
D03*
Y128299D02*
D03*
X197000Y115201D02*
D03*
Y127799D02*
D03*
D39*
X171240Y391937D02*
D03*
X163760D02*
D03*
X167500Y384063D02*
D03*
D40*
X49488Y93500D02*
D03*
X10512D02*
D03*
D41*
X570500Y112012D02*
D03*
Y150988D02*
D03*
X487500Y12012D02*
D03*
Y50988D02*
D03*
D42*
X166000Y96776D02*
D03*
Y81224D02*
D03*
D43*
X135000Y96559D02*
D03*
Y66441D02*
D03*
D55*
X102250Y305000D02*
D03*
D78*
X31300Y39500D02*
X31387D01*
X48831Y22055D01*
X521933Y68000D02*
X522082Y67851D01*
X532840D01*
X560690Y40000D01*
X570200D01*
X505500Y58500D02*
X533800D01*
X503000Y61000D02*
Y77201D01*
X533800Y58500D02*
X540500Y51800D01*
X503000Y61000D02*
X505500Y58500D01*
X496689Y83512D02*
X503000Y77201D01*
X498793Y59707D02*
X506700Y51800D01*
X528700D01*
X498793Y59707D02*
Y70384D01*
X496000Y72488D02*
X496689D01*
X498793Y70384D01*
X595500Y45000D02*
Y100500D01*
X582000Y40000D02*
X590500D01*
X595500Y45000D01*
X487500Y12012D02*
X510012D01*
X536948Y38948D01*
X539448D02*
X540500Y40000D01*
X536948Y38948D02*
X539448D01*
X466675Y10000D02*
X496675Y40000D01*
X528700D01*
X449969Y10000D02*
X466675D01*
X449090Y10879D02*
X449969Y10000D01*
X449090Y10879D02*
Y39445D01*
X570200Y68130D02*
X573422Y71352D01*
X573565D02*
X575146Y72933D01*
X570200Y51800D02*
Y68130D01*
X573422Y71352D02*
X573565D01*
X575146Y72933D02*
Y75000D01*
X574646Y75500D02*
Y93500D01*
Y75500D02*
X575146Y75000D01*
X570200Y40000D02*
Y51800D01*
X582000D02*
Y72177D01*
Y40000D02*
Y51800D01*
X582323Y93500D02*
X587311Y88512D01*
X582000Y72177D02*
X587311Y77488D01*
X588000D01*
X587311Y88512D02*
X588000D01*
X528700Y40000D02*
Y51800D01*
X540500Y40000D02*
Y51800D01*
X574646Y93500D02*
X582323D01*
X451945Y71500D02*
X453933D01*
X477370Y45779D02*
X482579Y50988D01*
X477043Y87740D02*
X482000D01*
X480760Y81500D02*
X482000Y80260D01*
Y87740D02*
X482689D01*
X451146Y57500D02*
Y70701D01*
X455512Y19000D02*
Y20476D01*
X477370Y42335D01*
X449090Y39445D02*
X451146Y41500D01*
Y57500D01*
X477370Y42335D02*
Y45779D01*
X475803Y86500D02*
X477043Y87740D01*
X473067Y86500D02*
X475803D01*
X473067Y81500D02*
X480760D01*
X451146Y70701D02*
X451945Y71500D01*
X570500Y113012D02*
X582988D01*
X595500Y100500D01*
X496000Y83512D02*
X496689D01*
X482579Y50988D02*
X487500D01*
X482689Y87740D02*
X487500Y82929D01*
Y50988D02*
Y82929D01*
X47988Y79579D02*
Y84500D01*
X31300Y39500D02*
Y51300D01*
X49788Y21512D02*
X55000D01*
X31300Y62890D02*
X47988Y79579D01*
X31300Y51300D02*
Y62890D01*
D79*
X403500Y171000D02*
D03*
X423500D02*
D03*
Y181000D02*
D03*
X413500Y171000D02*
D03*
Y181000D02*
D03*
X503500D02*
D03*
X493500D02*
D03*
X483500D02*
D03*
X473500D02*
D03*
X463500D02*
D03*
X453500D02*
D03*
X443500D02*
D03*
X433500D02*
D03*
X403500D02*
D03*
X393500D02*
D03*
X383500D02*
D03*
X373500D02*
D03*
X363500D02*
D03*
X353500D02*
D03*
X343500D02*
D03*
X333500D02*
D03*
X323500D02*
D03*
X313500D02*
D03*
X503500Y171000D02*
D03*
X493500D02*
D03*
X483500D02*
D03*
X473500D02*
D03*
X463500D02*
D03*
X453500D02*
D03*
X443500D02*
D03*
X433500D02*
D03*
X393500D02*
D03*
X383500D02*
D03*
X373500D02*
D03*
X363500D02*
D03*
X353500D02*
D03*
X343500D02*
D03*
X333500D02*
D03*
X323500D02*
D03*
X313500D02*
D03*
D80*
X522674Y176000D02*
D03*
X294327D02*
D03*
Y368913D02*
D03*
X522674D02*
D03*
D81*
X167000Y210000D02*
D03*
Y220000D02*
D03*
X184500Y210000D02*
D03*
Y220000D02*
D03*
X205200Y210000D02*
D03*
Y220000D02*
D03*
X224300Y210000D02*
D03*
Y220000D02*
D03*
X243400D02*
D03*
Y210000D02*
D03*
X262500Y220000D02*
D03*
Y210000D02*
D03*
D82*
X199900Y47800D02*
D03*
X211700D02*
D03*
Y36000D02*
D03*
X199900D02*
D03*
X223500D02*
D03*
X235300D02*
D03*
Y47800D02*
D03*
X223500D02*
D03*
X50800Y211000D02*
D03*
Y199200D02*
D03*
X39000Y211000D02*
D03*
Y199200D02*
D03*
X38905Y241000D02*
D03*
X50705D02*
D03*
X540500Y40000D02*
D03*
X528700D02*
D03*
X540500Y51800D02*
D03*
X528700D02*
D03*
X295500Y36500D02*
D03*
Y48300D02*
D03*
X50800Y347500D02*
D03*
Y335700D02*
D03*
X39000Y347500D02*
D03*
Y335700D02*
D03*
X326500Y48300D02*
D03*
X338300D02*
D03*
X326500Y36500D02*
D03*
X338300D02*
D03*
X38905Y272500D02*
D03*
X50705D02*
D03*
X368700Y48300D02*
D03*
X380500D02*
D03*
X368700Y36500D02*
D03*
X380500D02*
D03*
X570200Y51800D02*
D03*
X582000D02*
D03*
X570200Y40000D02*
D03*
X582000D02*
D03*
X133500Y47800D02*
D03*
X145300D02*
D03*
Y36000D02*
D03*
X133500D02*
D03*
X157100D02*
D03*
X168900D02*
D03*
Y47800D02*
D03*
X157100D02*
D03*
X19600Y50300D02*
D03*
X31400D02*
D03*
X19600Y38500D02*
D03*
X31400D02*
D03*
X38905Y304000D02*
D03*
X50705D02*
D03*
X265000Y36500D02*
D03*
Y48300D02*
D03*
X411500Y36500D02*
D03*
Y48300D02*
D03*
X38905Y380500D02*
D03*
X50705D02*
D03*
D83*
X208400Y19000D02*
D03*
X226900D02*
D03*
X22000Y205100D02*
D03*
X21905Y241000D02*
D03*
X534600Y23000D02*
D03*
X295500Y19500D02*
D03*
X22000Y341600D02*
D03*
X332400Y19500D02*
D03*
X21905Y272500D02*
D03*
X374600Y19500D02*
D03*
X576100Y23000D02*
D03*
X142000Y19000D02*
D03*
X160500D02*
D03*
X25500Y21500D02*
D03*
X21905Y304000D02*
D03*
X265000Y19500D02*
D03*
X411500D02*
D03*
X21905Y380500D02*
D03*
D84*
X109000Y13000D02*
D03*
Y52000D02*
D03*
X95500D02*
D03*
Y13000D02*
D03*
X85500Y115500D02*
D03*
Y76500D02*
D03*
X99000D02*
D03*
Y115500D02*
D03*
M02*
