G04*
G04 #@! TF.GenerationSoftware,Altium Limited,Altium Designer,22.9.1 (49)*
G04*
G04 Layer_Color=8388736*
%FSLAX25Y25*%
%MOIN*%
G70*
G04*
G04 #@! TF.SameCoordinates,D4A48318-998D-472C-A6B0-EE5402D3ED7D*
G04*
G04*
G04 #@! TF.FilePolarity,Negative*
G04*
G01*
G75*
%ADD11C,0.01000*%
%ADD27R,0.09264X0.02449*%
%ADD44R,0.10642X0.13595*%
%ADD45R,0.06115X0.04343*%
%ADD46R,0.04343X0.06115*%
%ADD47R,0.06706X0.02572*%
%ADD48R,0.04540X0.02178*%
%ADD49R,0.02178X0.04540*%
%ADD50R,0.08674X0.08674*%
%ADD51R,0.19304X0.13398*%
%ADD52R,0.06509X0.03162*%
%ADD53R,0.09855X0.13398*%
%ADD54R,0.08871X0.03398*%
%ADD55R,0.09055X0.12205*%
%ADD56R,0.20485X0.20485*%
%ADD57R,0.06312X0.04934*%
%ADD58R,0.07887X0.06509*%
%ADD59R,0.06509X0.07690*%
%ADD60R,0.09461X0.13595*%
%ADD61R,0.04540X0.04343*%
%ADD62C,0.03800*%
%ADD63R,0.07690X0.06509*%
%ADD64R,0.11824X0.09698*%
%ADD65R,0.13595X0.10642*%
%ADD66R,0.09698X0.11824*%
%ADD67R,0.03950X0.04343*%
%ADD68R,0.12217X0.22060*%
%ADD69R,0.22060X0.12217*%
%ADD70R,0.08871X0.07099*%
%ADD71R,0.20879X0.14580*%
%ADD72C,0.07880*%
%ADD73C,0.17729*%
%ADD74C,0.07887*%
%ADD75C,0.07800*%
%ADD76C,0.15600*%
%ADD77C,0.08800*%
D11*
Y399500D02*
X541500D01*
X542000Y399000D01*
Y161500D02*
Y399000D01*
Y161500D02*
X599000D01*
X599500Y161000D01*
Y500D02*
Y161000D01*
Y500D02*
X600000Y0D01*
X0D02*
X600000D01*
X0D02*
Y399500D01*
Y0D02*
X600000D01*
D27*
X112001Y312500D02*
D03*
Y307500D02*
D03*
Y302500D02*
D03*
Y297500D02*
D03*
X92500D02*
D03*
Y302500D02*
D03*
Y307500D02*
D03*
Y312500D02*
D03*
D44*
X112988Y333500D02*
D03*
X139012D02*
D03*
X430488Y19000D02*
D03*
X456512D02*
D03*
D45*
X363500Y200406D02*
D03*
Y192532D02*
D03*
X373500Y200468D02*
D03*
Y192595D02*
D03*
X383437Y200468D02*
D03*
Y192595D02*
D03*
X390500Y114437D02*
D03*
Y106563D02*
D03*
X420500Y60063D02*
D03*
Y67937D02*
D03*
X509000Y70563D02*
D03*
Y78437D02*
D03*
X412500Y78224D02*
D03*
Y86098D02*
D03*
X382500Y106563D02*
D03*
Y114437D02*
D03*
X374000Y99437D02*
D03*
Y91563D02*
D03*
X237833Y239232D02*
D03*
Y247106D02*
D03*
X253000Y239232D02*
D03*
Y247106D02*
D03*
X70614Y357063D02*
D03*
Y364937D02*
D03*
X155000Y372563D02*
D03*
Y380437D02*
D03*
X207500Y239232D02*
D03*
Y247106D02*
D03*
X372500Y65563D02*
D03*
Y73437D02*
D03*
X222667Y239232D02*
D03*
Y247106D02*
D03*
X374500Y106563D02*
D03*
Y114437D02*
D03*
D46*
X278563Y80500D02*
D03*
X286437D02*
D03*
X208937Y298000D02*
D03*
X201063D02*
D03*
X208937Y289500D02*
D03*
X201063D02*
D03*
X208937Y306500D02*
D03*
X201063D02*
D03*
X208937Y281000D02*
D03*
X201063D02*
D03*
X250437Y98000D02*
D03*
X242563D02*
D03*
X250437Y108000D02*
D03*
X242563D02*
D03*
X250437Y118000D02*
D03*
X242563D02*
D03*
X250437Y128000D02*
D03*
X242563D02*
D03*
X314563Y121000D02*
D03*
X322437D02*
D03*
X314563Y103500D02*
D03*
X322437D02*
D03*
X78063Y339500D02*
D03*
X85937D02*
D03*
X216937Y389000D02*
D03*
X209063D02*
D03*
X331563Y131000D02*
D03*
X339437D02*
D03*
X279437Y64000D02*
D03*
X271563D02*
D03*
X85937Y369900D02*
D03*
X78063D02*
D03*
X231437Y387500D02*
D03*
X223563D02*
D03*
X248500Y384000D02*
D03*
X256374D02*
D03*
X294063Y80500D02*
D03*
X301937D02*
D03*
X85937Y349300D02*
D03*
X78063D02*
D03*
X76063Y264500D02*
D03*
X83937D02*
D03*
X250437Y88500D02*
D03*
X242563D02*
D03*
X256937Y375500D02*
D03*
X249063D02*
D03*
X85937Y359600D02*
D03*
X78063D02*
D03*
X354937Y130500D02*
D03*
X347063D02*
D03*
X314563Y112000D02*
D03*
X322437D02*
D03*
X60437Y164500D02*
D03*
X52563D02*
D03*
X78063Y390500D02*
D03*
X85937D02*
D03*
X78063Y380200D02*
D03*
X85937D02*
D03*
X83937Y256500D02*
D03*
X76063D02*
D03*
X194937Y349000D02*
D03*
X187063D02*
D03*
X243563Y359000D02*
D03*
X251437D02*
D03*
X264063Y136000D02*
D03*
X271937D02*
D03*
X296563D02*
D03*
X304437D02*
D03*
X312500Y136500D02*
D03*
X320374D02*
D03*
X280563Y136000D02*
D03*
X288437D02*
D03*
D47*
X296917Y103543D02*
D03*
Y106102D02*
D03*
Y108661D02*
D03*
Y111221D02*
D03*
Y113779D02*
D03*
Y116339D02*
D03*
Y118898D02*
D03*
Y121457D02*
D03*
X274083Y103543D02*
D03*
Y106102D02*
D03*
Y108661D02*
D03*
Y111221D02*
D03*
Y113779D02*
D03*
Y116339D02*
D03*
Y118898D02*
D03*
Y121457D02*
D03*
X231417Y351425D02*
D03*
Y353984D02*
D03*
Y356543D02*
D03*
Y359102D02*
D03*
Y361661D02*
D03*
Y364220D02*
D03*
Y366779D02*
D03*
Y369339D02*
D03*
Y371898D02*
D03*
Y374457D02*
D03*
Y377016D02*
D03*
Y379575D02*
D03*
X208583Y351425D02*
D03*
Y353984D02*
D03*
Y356543D02*
D03*
Y359102D02*
D03*
Y361661D02*
D03*
Y364220D02*
D03*
Y366779D02*
D03*
Y369339D02*
D03*
Y371898D02*
D03*
Y374457D02*
D03*
Y377016D02*
D03*
Y379575D02*
D03*
D48*
X219421Y322839D02*
D03*
Y320280D02*
D03*
Y317721D02*
D03*
Y315161D02*
D03*
X234579D02*
D03*
Y317721D02*
D03*
Y320280D02*
D03*
Y322839D02*
D03*
D49*
X223161Y311421D02*
D03*
X225721D02*
D03*
X228279D02*
D03*
X230839D02*
D03*
Y326579D02*
D03*
X228279D02*
D03*
X225721D02*
D03*
X223161D02*
D03*
D50*
X227000Y319000D02*
D03*
D51*
X142500Y312429D02*
D03*
Y278571D02*
D03*
D52*
X235784Y139500D02*
D03*
Y144500D02*
D03*
Y149500D02*
D03*
Y154500D02*
D03*
Y159500D02*
D03*
Y164500D02*
D03*
Y169500D02*
D03*
Y174500D02*
D03*
X196216Y139500D02*
D03*
Y144500D02*
D03*
Y149500D02*
D03*
Y154500D02*
D03*
Y159500D02*
D03*
Y164500D02*
D03*
Y169500D02*
D03*
Y174500D02*
D03*
D53*
X86500Y153500D02*
D03*
X463500Y79000D02*
D03*
X531500Y75500D02*
D03*
D54*
X96067Y146000D02*
D03*
Y151000D02*
D03*
Y156000D02*
D03*
Y161000D02*
D03*
X76933Y146000D02*
D03*
Y151000D02*
D03*
Y156000D02*
D03*
Y161000D02*
D03*
X453933Y86500D02*
D03*
Y81500D02*
D03*
Y76500D02*
D03*
Y71500D02*
D03*
X473067Y86500D02*
D03*
Y81500D02*
D03*
Y76500D02*
D03*
Y71500D02*
D03*
X521933Y83000D02*
D03*
Y78000D02*
D03*
Y73000D02*
D03*
Y68000D02*
D03*
X541067Y83000D02*
D03*
Y78000D02*
D03*
Y73000D02*
D03*
Y68000D02*
D03*
D55*
X102250Y305000D02*
D03*
D56*
X28500Y169358D02*
D03*
Y135500D02*
D03*
X433500Y142929D02*
D03*
Y109071D02*
D03*
X134500Y152429D02*
D03*
Y118571D02*
D03*
X484500Y142429D02*
D03*
Y108571D02*
D03*
D57*
X206000Y322000D02*
D03*
Y314520D02*
D03*
X427500Y78760D02*
D03*
Y86240D02*
D03*
X436000Y78760D02*
D03*
Y86240D02*
D03*
X444500Y78760D02*
D03*
Y86240D02*
D03*
X158500Y166760D02*
D03*
Y174240D02*
D03*
X170500Y136260D02*
D03*
Y143740D02*
D03*
X265500Y76740D02*
D03*
Y69260D02*
D03*
X313000Y86740D02*
D03*
Y79260D02*
D03*
X95000Y184240D02*
D03*
Y176760D02*
D03*
X74500Y184240D02*
D03*
Y176760D02*
D03*
X527500Y95020D02*
D03*
Y102500D02*
D03*
X512500Y95020D02*
D03*
Y102500D02*
D03*
X331500Y86740D02*
D03*
Y79260D02*
D03*
X482000Y80260D02*
D03*
Y87740D02*
D03*
X538500Y95020D02*
D03*
Y102500D02*
D03*
X83500Y184240D02*
D03*
Y176760D02*
D03*
X170500Y174240D02*
D03*
Y166760D02*
D03*
X382500Y99240D02*
D03*
Y91760D02*
D03*
X391000Y99240D02*
D03*
Y91760D02*
D03*
X88000Y279260D02*
D03*
Y286740D02*
D03*
X322500Y86740D02*
D03*
Y79260D02*
D03*
X221500Y189740D02*
D03*
Y182260D02*
D03*
X256500Y76240D02*
D03*
Y68760D02*
D03*
X170500Y151260D02*
D03*
Y158740D02*
D03*
X520000Y95020D02*
D03*
Y102500D02*
D03*
X97500Y278760D02*
D03*
Y286240D02*
D03*
X65000Y184240D02*
D03*
Y176760D02*
D03*
D58*
X136500Y266012D02*
D03*
Y254988D02*
D03*
X124000Y266012D02*
D03*
Y254988D02*
D03*
X79000Y300988D02*
D03*
Y312012D02*
D03*
X52000Y10488D02*
D03*
Y21512D02*
D03*
X588000Y88512D02*
D03*
Y77488D02*
D03*
X496000Y72488D02*
D03*
Y83512D02*
D03*
X109500Y288512D02*
D03*
Y277488D02*
D03*
D59*
X156488Y265000D02*
D03*
X167512D02*
D03*
X74512Y118500D02*
D03*
X63488D02*
D03*
X157488Y67500D02*
D03*
X168512D02*
D03*
X180012Y323000D02*
D03*
X168988D02*
D03*
D60*
X452146Y41500D02*
D03*
X432854D02*
D03*
X575146Y75000D02*
D03*
X555854D02*
D03*
X61854Y50500D02*
D03*
X81146D02*
D03*
X574646Y93500D02*
D03*
X555354D02*
D03*
X452646Y57500D02*
D03*
X433354D02*
D03*
X61854Y34500D02*
D03*
X81146D02*
D03*
D61*
X241000Y270949D02*
D03*
Y277051D02*
D03*
X221500Y270949D02*
D03*
Y277051D02*
D03*
X251000Y271449D02*
D03*
Y277551D02*
D03*
X232000Y270949D02*
D03*
Y277051D02*
D03*
D62*
X109500Y115000D02*
D03*
X179500Y73500D02*
D03*
X179000Y60500D02*
D03*
X179500Y97000D02*
D03*
X191000Y313500D02*
D03*
X62000Y135500D02*
D03*
X266000Y112000D02*
D03*
X252500Y139000D02*
D03*
X299000Y97500D02*
D03*
X330500Y93000D02*
D03*
X262000Y149000D02*
D03*
X275500Y158000D02*
D03*
X249911Y80911D02*
D03*
X232000Y102500D02*
D03*
X233500Y113500D02*
D03*
X403000Y109500D02*
D03*
X217000Y102000D02*
D03*
X272500Y146500D02*
D03*
X197500Y377057D02*
D03*
X244500Y326000D02*
D03*
X239000Y333500D02*
D03*
X237000Y342000D02*
D03*
X83500Y194500D02*
D03*
X74000Y111000D02*
D03*
X169000Y335500D02*
D03*
X459000Y112500D02*
D03*
X104500Y161000D02*
D03*
X63500Y150500D02*
D03*
X72000Y195000D02*
D03*
X110500Y240000D02*
D03*
Y144500D02*
D03*
X148000Y264500D02*
D03*
X180000Y316000D02*
D03*
X196000Y320000D02*
D03*
X201500Y346000D02*
D03*
X255500Y306000D02*
D03*
Y315000D02*
D03*
X253500Y352000D02*
D03*
X115000Y250500D02*
D03*
X264000Y375500D02*
D03*
X263500Y341500D02*
D03*
X259000Y346500D02*
D03*
X242000Y375500D02*
D03*
Y381500D02*
D03*
X103500Y331500D02*
D03*
X78500Y293500D02*
D03*
X251000Y285000D02*
D03*
X72000Y336000D02*
D03*
X69000Y346500D02*
D03*
X67000Y381000D02*
D03*
X117500Y277000D02*
D03*
X215500Y282000D02*
D03*
X214500Y292000D02*
D03*
X191000Y387500D02*
D03*
X199000Y392000D02*
D03*
X509000Y62500D02*
D03*
X264500Y388500D02*
D03*
X441500Y57500D02*
D03*
X341500Y333500D02*
D03*
X341000Y342500D02*
D03*
X511000Y139500D02*
D03*
X553000Y114000D02*
D03*
X482000Y71500D02*
D03*
X151000Y333500D02*
D03*
X81000Y13500D02*
D03*
X492000Y192000D02*
D03*
X347000Y146500D02*
D03*
X27500Y153000D02*
D03*
D63*
X193000Y240158D02*
D03*
Y251181D02*
D03*
X179000Y240158D02*
D03*
Y251181D02*
D03*
D64*
X385701Y70500D02*
D03*
X398299D02*
D03*
D65*
X529500Y116988D02*
D03*
Y143012D02*
D03*
X85000Y232512D02*
D03*
Y206488D02*
D03*
D66*
X389000Y131201D02*
D03*
Y143799D02*
D03*
X217000Y115701D02*
D03*
Y128299D02*
D03*
X197000Y115201D02*
D03*
Y127799D02*
D03*
D67*
X171240Y391937D02*
D03*
X163760D02*
D03*
X167500Y384063D02*
D03*
D68*
X49488Y93500D02*
D03*
X10512D02*
D03*
D69*
X570500Y112012D02*
D03*
Y150988D02*
D03*
X487500Y12012D02*
D03*
Y50988D02*
D03*
D70*
X166000Y96776D02*
D03*
Y81224D02*
D03*
D71*
X135000Y96559D02*
D03*
Y66441D02*
D03*
D72*
X403500Y171000D02*
D03*
X423500D02*
D03*
Y181000D02*
D03*
X413500Y171000D02*
D03*
Y181000D02*
D03*
X503500D02*
D03*
X493500D02*
D03*
X483500D02*
D03*
X473500D02*
D03*
X463500D02*
D03*
X453500D02*
D03*
X443500D02*
D03*
X433500D02*
D03*
X403500D02*
D03*
X393500D02*
D03*
X383500D02*
D03*
X373500D02*
D03*
X363500D02*
D03*
X353500D02*
D03*
X343500D02*
D03*
X333500D02*
D03*
X323500D02*
D03*
X313500D02*
D03*
X503500Y171000D02*
D03*
X493500D02*
D03*
X483500D02*
D03*
X473500D02*
D03*
X463500D02*
D03*
X453500D02*
D03*
X443500D02*
D03*
X433500D02*
D03*
X393500D02*
D03*
X383500D02*
D03*
X373500D02*
D03*
X363500D02*
D03*
X353500D02*
D03*
X343500D02*
D03*
X333500D02*
D03*
X323500D02*
D03*
X313500D02*
D03*
D73*
X522674Y176000D02*
D03*
X294327D02*
D03*
Y368913D02*
D03*
X522674D02*
D03*
D74*
X167000Y210000D02*
D03*
Y220000D02*
D03*
X184500Y210000D02*
D03*
Y220000D02*
D03*
X205200Y210000D02*
D03*
Y220000D02*
D03*
X224300Y210000D02*
D03*
Y220000D02*
D03*
X243400D02*
D03*
Y210000D02*
D03*
X262500Y220000D02*
D03*
Y210000D02*
D03*
D75*
X199900Y47800D02*
D03*
X211700D02*
D03*
Y36000D02*
D03*
X199900D02*
D03*
X223500D02*
D03*
X235300D02*
D03*
Y47800D02*
D03*
X223500D02*
D03*
X50800Y211000D02*
D03*
Y199200D02*
D03*
X39000Y211000D02*
D03*
Y199200D02*
D03*
X38905Y241000D02*
D03*
X50705D02*
D03*
X540500Y40000D02*
D03*
X528700D02*
D03*
X540500Y51800D02*
D03*
X528700D02*
D03*
X295500Y36500D02*
D03*
Y48300D02*
D03*
X50800Y347500D02*
D03*
Y335700D02*
D03*
X39000Y347500D02*
D03*
Y335700D02*
D03*
X326500Y48300D02*
D03*
X338300D02*
D03*
X326500Y36500D02*
D03*
X338300D02*
D03*
X38905Y272500D02*
D03*
X50705D02*
D03*
X368700Y48300D02*
D03*
X380500D02*
D03*
X368700Y36500D02*
D03*
X380500D02*
D03*
X570200Y51800D02*
D03*
X582000D02*
D03*
X570200Y40000D02*
D03*
X582000D02*
D03*
X133500Y47800D02*
D03*
X145300D02*
D03*
Y36000D02*
D03*
X133500D02*
D03*
X157100D02*
D03*
X168900D02*
D03*
Y47800D02*
D03*
X157100D02*
D03*
X19600Y50300D02*
D03*
X31400D02*
D03*
X19600Y38500D02*
D03*
X31400D02*
D03*
X38905Y304000D02*
D03*
X50705D02*
D03*
X265000Y36500D02*
D03*
Y48300D02*
D03*
X411500Y36500D02*
D03*
Y48300D02*
D03*
X38905Y380500D02*
D03*
X50705D02*
D03*
D76*
X208400Y19000D02*
D03*
X226900D02*
D03*
X22000Y205100D02*
D03*
X21905Y241000D02*
D03*
X534600Y23000D02*
D03*
X295500Y19500D02*
D03*
X22000Y341600D02*
D03*
X332400Y19500D02*
D03*
X21905Y272500D02*
D03*
X374600Y19500D02*
D03*
X576100Y23000D02*
D03*
X142000Y19000D02*
D03*
X160500D02*
D03*
X25500Y21500D02*
D03*
X21905Y304000D02*
D03*
X265000Y19500D02*
D03*
X411500D02*
D03*
X21905Y380500D02*
D03*
D77*
X109000Y13000D02*
D03*
Y52000D02*
D03*
X95500D02*
D03*
Y13000D02*
D03*
X85500Y115500D02*
D03*
Y76500D02*
D03*
X99000D02*
D03*
Y115500D02*
D03*
M02*
