G04*
G04 #@! TF.GenerationSoftware,Altium Limited,Altium Designer,22.1.2 (22)*
G04*
G04 Layer_Color=128*
%FSLAX25Y25*%
%MOIN*%
G70*
G04*
G04 #@! TF.SameCoordinates,44F9B7A4-E995-4014-B581-63E438F0E3DA*
G04*
G04*
G04 #@! TF.FilePolarity,Positive*
G04*
G01*
G75*
%ADD11C,0.01000*%
%ADD14C,0.00394*%
%ADD15C,0.00197*%
D11*
Y400000D02*
X501000D01*
Y143000D02*
Y400000D01*
Y143000D02*
X600000D01*
Y0D02*
Y143000D01*
X0Y0D02*
X600000D01*
X0D02*
Y400000D01*
D14*
X145031Y259000D02*
X148969D01*
X147000Y257031D02*
Y260968D01*
X533000Y118532D02*
Y122468D01*
X531032Y120500D02*
X534969D01*
X20531Y123500D02*
X24468D01*
X22500Y121531D02*
Y125469D01*
X433032Y17000D02*
X436969D01*
X435000Y15032D02*
Y18969D01*
D15*
X133614Y239512D02*
Y278390D01*
X160386Y239512D02*
Y278390D01*
X133614D02*
X160386D01*
X133614Y239512D02*
X160386D01*
X519614Y101012D02*
X546386D01*
X519614Y139890D02*
X546386D01*
Y101012D02*
Y139890D01*
X519614Y101012D02*
Y139890D01*
X41988Y110114D02*
Y136886D01*
X3110Y110114D02*
Y136886D01*
X41988D01*
X3110Y110114D02*
X41988D01*
X454488Y3614D02*
Y30386D01*
X415610Y3614D02*
Y30386D01*
X454488D01*
X415610Y3614D02*
X454488D01*
M02*
