G04*
G04 #@! TF.GenerationSoftware,Altium Limited,Altium Designer,22.9.1 (49)*
G04*
G04 Layer_Physical_Order=4*
G04 Layer_Color=16711680*
%FSLAX25Y25*%
%MOIN*%
G70*
G04*
G04 #@! TF.SameCoordinates,3F179E76-7137-4DFB-B845-8D42032AEADC*
G04*
G04*
G04 #@! TF.FilePolarity,Positive*
G04*
G01*
G75*
%ADD11C,0.01000*%
%ADD34C,0.03000*%
%ADD79C,0.07080*%
%ADD80C,0.16929*%
%ADD81C,0.07087*%
%ADD82C,0.07000*%
%ADD83C,0.14800*%
%ADD84C,0.08000*%
D11*
X189000Y296500D02*
Y311500D01*
X180000Y235000D02*
X193000Y222000D01*
X189000Y311500D02*
X191000Y313500D01*
X189000Y296500D02*
X197500Y288000D01*
X180000Y235000D02*
Y316000D01*
X191000Y313500D02*
X195661Y308839D01*
X221838D01*
X214500Y292000D02*
X262500Y244000D01*
Y220000D02*
Y244000D01*
X84000Y135500D02*
X104500Y156000D01*
X62000Y135500D02*
X84000D01*
X252500Y139000D02*
Y139250D01*
X262000Y148750D01*
Y149000D01*
X232000Y96500D02*
X235500Y93000D01*
X330500D01*
X222500Y116000D02*
X264500Y158000D01*
X275500D01*
X222500Y68000D02*
Y116000D01*
X267207Y163707D02*
X295560D01*
X209500Y106000D02*
X267207Y163707D01*
X209500Y51386D02*
Y106000D01*
X222500Y68000D02*
X249000Y41500D01*
X288700D01*
X295500Y48300D01*
X269000Y58500D02*
X374000D01*
X250089Y77412D02*
Y80734D01*
Y77412D02*
X269000Y58500D01*
X249911Y80911D02*
X250089Y80734D01*
X232000Y96500D02*
Y102500D01*
X374000Y58500D02*
X472000Y156500D01*
X209500Y51386D02*
X211700Y49186D01*
Y47800D02*
Y49186D01*
X231500Y195500D02*
Y231500D01*
X101500Y65500D02*
X231500Y195500D01*
X82500Y65500D02*
X101500D01*
X205500Y257500D02*
X231500Y231500D01*
X272500Y146500D02*
X347000D01*
X243000Y330000D02*
Y335500D01*
X221838Y308839D02*
X243000Y330000D01*
X239500Y339000D02*
X243000Y335500D01*
X220000Y339000D02*
X239500D01*
X197500Y361500D02*
X220000Y339000D01*
X197500Y361500D02*
Y377057D01*
X231870Y298370D02*
X244500Y311000D01*
Y326000D01*
X263500Y322000D02*
X287500D01*
X237000Y342000D02*
X243500D01*
X263500Y322000D01*
X188879Y330000D02*
X192379Y333500D01*
X239000D01*
X142500Y330000D02*
X188879D01*
X191000Y387500D02*
X201000D01*
X263500Y325000D01*
X289500D01*
X199000Y392000D02*
X262000Y329000D01*
X335500D01*
X159000Y194500D02*
X184500Y220000D01*
X83500Y194500D02*
X159000D01*
X74000Y74000D02*
X82500Y65500D01*
X74000Y74000D02*
Y111000D01*
X99000Y76500D02*
X195500Y173000D01*
Y219414D01*
X205500Y257500D02*
Y293240D01*
X210630Y298370D02*
X231870D01*
X205500Y293240D02*
X210630Y298370D01*
X197500Y238000D02*
Y288000D01*
Y238000D02*
X215500Y220000D01*
X117500Y305000D02*
X142500Y330000D01*
X193000Y222000D02*
X194914Y220086D01*
Y220000D02*
Y220086D01*
X193000Y222000D02*
X193000D01*
X194914Y220000D02*
X195500Y219414D01*
X441500Y87044D02*
X508540Y154084D01*
X441500Y57500D02*
Y87044D01*
X508540Y154084D02*
Y183088D01*
X104500Y156000D02*
Y161000D01*
X63500Y150500D02*
Y186500D01*
X72000Y195000D01*
X110500Y240000D02*
Y265000D01*
X117500Y272000D01*
X99000Y115500D02*
X110500Y127000D01*
X99000Y115500D02*
X99000D01*
X110500Y127000D02*
Y144500D01*
X255500Y306000D02*
X292000D01*
X363500Y234500D01*
Y181000D02*
Y234500D01*
X287500Y315000D02*
X373500Y229000D01*
Y181000D02*
Y229000D01*
X255500Y315000D02*
X287500D01*
Y322000D02*
X383500Y226000D01*
Y181000D02*
Y226000D01*
X289500Y325000D02*
X433500Y181000D01*
X335500Y329000D02*
X483500Y181000D01*
X215500Y220000D02*
X224300D01*
X117500Y277000D02*
Y305000D01*
X263500Y341500D02*
Y360000D01*
X242000Y381500D02*
X263500Y360000D01*
X242000Y369500D02*
X259000Y352500D01*
X242000Y369500D02*
Y375500D01*
X259000Y346500D02*
Y352500D01*
X123000Y277000D02*
X167000Y233000D01*
X117500Y277000D02*
X123000D01*
X167000Y220000D02*
Y233000D01*
X117500Y272000D02*
Y277000D01*
X78500Y306500D02*
X103500Y331500D01*
X78500Y293500D02*
Y306500D01*
X295560Y163707D02*
X307493Y175640D01*
X318140D01*
X323500Y181000D01*
X243400Y210000D02*
X259588Y193812D01*
X243400Y220000D02*
X262881Y200519D01*
X330543D01*
X348860Y182202D01*
Y175640D02*
Y182202D01*
Y175640D02*
X353500Y171000D01*
X259588Y193812D02*
X317250D01*
X328690Y182372D01*
Y179248D02*
Y182372D01*
Y179248D02*
X331957Y175981D01*
X338519D01*
X343500Y171000D01*
X33000Y67722D02*
Y284700D01*
Y67722D02*
X93222Y7500D01*
X230500D01*
X215500Y282000D02*
X249000Y248500D01*
Y223500D02*
Y248500D01*
Y223500D02*
X262500Y210000D01*
X509000Y62500D02*
Y104392D01*
X514000Y109392D01*
X472000Y159500D02*
X483500Y171000D01*
X472000Y156500D02*
Y159500D01*
X259500Y36500D02*
X265000D01*
X33000Y284700D02*
X52300Y304000D01*
X85500Y115500D02*
Y117086D01*
X358128Y333500D02*
X508540Y183088D01*
X341500Y333500D02*
X358128D01*
X514000Y109392D02*
Y170581D01*
X510540Y174041D02*
Y183916D01*
Y174041D02*
X514000Y170581D01*
X351956Y342500D02*
X510540Y183916D01*
X341000Y342500D02*
X351956D01*
X492000Y192000D02*
X492383Y191617D01*
Y182117D02*
Y191617D01*
Y182117D02*
X493500Y181000D01*
X230500Y7500D02*
X259500Y36500D01*
X0Y399500D02*
X541500D01*
X542000Y399000D01*
Y161500D02*
Y399000D01*
Y161500D02*
X599000D01*
X599500Y161000D01*
Y500D02*
Y161000D01*
Y500D02*
X600000Y0D01*
X0D02*
X600000D01*
X0D02*
Y399500D01*
Y0D02*
X600000D01*
D34*
X191000Y313500D02*
D03*
X62000Y135500D02*
D03*
X266000Y112000D02*
D03*
X252500Y139000D02*
D03*
X299000Y97500D02*
D03*
X330500Y93000D02*
D03*
X262000Y149000D02*
D03*
X275500Y158000D02*
D03*
X249911Y80911D02*
D03*
X232000Y102500D02*
D03*
X233500Y113500D02*
D03*
X403000Y109500D02*
D03*
X217000Y102000D02*
D03*
X272500Y146500D02*
D03*
X197500Y377057D02*
D03*
X244500Y326000D02*
D03*
X239000Y333500D02*
D03*
X237000Y342000D02*
D03*
X83500Y194500D02*
D03*
X74000Y111000D02*
D03*
X169000Y335500D02*
D03*
X459000Y112500D02*
D03*
X104500Y161000D02*
D03*
X63500Y150500D02*
D03*
X72000Y195000D02*
D03*
X110500Y240000D02*
D03*
Y144500D02*
D03*
X148000Y264500D02*
D03*
X180000Y316000D02*
D03*
X196000Y320000D02*
D03*
X201500Y346000D02*
D03*
X255500Y306000D02*
D03*
Y315000D02*
D03*
X253500Y352000D02*
D03*
X115000Y250500D02*
D03*
X264000Y375500D02*
D03*
X263500Y341500D02*
D03*
X259000Y346500D02*
D03*
X242000Y375500D02*
D03*
Y381500D02*
D03*
X103500Y331500D02*
D03*
X78500Y293500D02*
D03*
X251000Y285000D02*
D03*
X72000Y336000D02*
D03*
X69000Y346500D02*
D03*
X67000Y381000D02*
D03*
X117500Y277000D02*
D03*
X215500Y282000D02*
D03*
X214500Y292000D02*
D03*
X191000Y387500D02*
D03*
X199000Y392000D02*
D03*
X509000Y62500D02*
D03*
X264500Y388500D02*
D03*
X441500Y57500D02*
D03*
X341500Y333500D02*
D03*
X341000Y342500D02*
D03*
X511000Y139500D02*
D03*
X553000Y114000D02*
D03*
X482000Y71500D02*
D03*
X151000Y333500D02*
D03*
X81000Y13500D02*
D03*
X492000Y192000D02*
D03*
X347000Y146500D02*
D03*
X27500Y153000D02*
D03*
D79*
X403500Y171000D02*
D03*
X423500D02*
D03*
Y181000D02*
D03*
X413500Y171000D02*
D03*
Y181000D02*
D03*
X503500D02*
D03*
X493500D02*
D03*
X483500D02*
D03*
X473500D02*
D03*
X463500D02*
D03*
X453500D02*
D03*
X443500D02*
D03*
X433500D02*
D03*
X403500D02*
D03*
X393500D02*
D03*
X383500D02*
D03*
X373500D02*
D03*
X363500D02*
D03*
X353500D02*
D03*
X343500D02*
D03*
X333500D02*
D03*
X323500D02*
D03*
X313500D02*
D03*
X503500Y171000D02*
D03*
X493500D02*
D03*
X483500D02*
D03*
X473500D02*
D03*
X463500D02*
D03*
X453500D02*
D03*
X443500D02*
D03*
X433500D02*
D03*
X393500D02*
D03*
X383500D02*
D03*
X373500D02*
D03*
X363500D02*
D03*
X353500D02*
D03*
X343500D02*
D03*
X333500D02*
D03*
X323500D02*
D03*
X313500D02*
D03*
D80*
X522674Y176000D02*
D03*
X294327D02*
D03*
Y368913D02*
D03*
X522674D02*
D03*
D81*
X167000Y210000D02*
D03*
Y220000D02*
D03*
X184500Y210000D02*
D03*
Y220000D02*
D03*
X205200Y210000D02*
D03*
Y220000D02*
D03*
X224300Y210000D02*
D03*
Y220000D02*
D03*
X243400D02*
D03*
Y210000D02*
D03*
X262500Y220000D02*
D03*
Y210000D02*
D03*
D82*
X199900Y47800D02*
D03*
X211700D02*
D03*
Y36000D02*
D03*
X199900D02*
D03*
X223500D02*
D03*
X235300D02*
D03*
Y47800D02*
D03*
X223500D02*
D03*
X50800Y211000D02*
D03*
Y199200D02*
D03*
X39000Y211000D02*
D03*
Y199200D02*
D03*
X38905Y241000D02*
D03*
X50705D02*
D03*
X540500Y40000D02*
D03*
X528700D02*
D03*
X540500Y51800D02*
D03*
X528700D02*
D03*
X295500Y36500D02*
D03*
Y48300D02*
D03*
X50800Y347500D02*
D03*
Y335700D02*
D03*
X39000Y347500D02*
D03*
Y335700D02*
D03*
X326500Y48300D02*
D03*
X338300D02*
D03*
X326500Y36500D02*
D03*
X338300D02*
D03*
X38905Y272500D02*
D03*
X50705D02*
D03*
X368700Y48300D02*
D03*
X380500D02*
D03*
X368700Y36500D02*
D03*
X380500D02*
D03*
X570200Y51800D02*
D03*
X582000D02*
D03*
X570200Y40000D02*
D03*
X582000D02*
D03*
X133500Y47800D02*
D03*
X145300D02*
D03*
Y36000D02*
D03*
X133500D02*
D03*
X157100D02*
D03*
X168900D02*
D03*
Y47800D02*
D03*
X157100D02*
D03*
X19600Y50300D02*
D03*
X31400D02*
D03*
X19600Y38500D02*
D03*
X31400D02*
D03*
X38905Y304000D02*
D03*
X50705D02*
D03*
X265000Y36500D02*
D03*
Y48300D02*
D03*
X411500Y36500D02*
D03*
Y48300D02*
D03*
X38905Y380500D02*
D03*
X50705D02*
D03*
D83*
X208400Y19000D02*
D03*
X226900D02*
D03*
X22000Y205100D02*
D03*
X21905Y241000D02*
D03*
X534600Y23000D02*
D03*
X295500Y19500D02*
D03*
X22000Y341600D02*
D03*
X332400Y19500D02*
D03*
X21905Y272500D02*
D03*
X374600Y19500D02*
D03*
X576100Y23000D02*
D03*
X142000Y19000D02*
D03*
X160500D02*
D03*
X25500Y21500D02*
D03*
X21905Y304000D02*
D03*
X265000Y19500D02*
D03*
X411500D02*
D03*
X21905Y380500D02*
D03*
D84*
X109000Y13000D02*
D03*
Y52000D02*
D03*
X95500D02*
D03*
Y13000D02*
D03*
X85500Y115500D02*
D03*
Y76500D02*
D03*
X99000D02*
D03*
Y115500D02*
D03*
M02*
