G04*
G04 #@! TF.GenerationSoftware,Altium Limited,Altium Designer,21.8.1 (53)*
G04*
G04 Layer_Color=65535*
%FSLAX25Y25*%
%MOIN*%
G70*
G04*
G04 #@! TF.SameCoordinates,493B7DAD-148D-4575-8712-330FBA686758*
G04*
G04*
G04 #@! TF.FilePolarity,Positive*
G04*
G01*
G75*
%ADD10C,0.01000*%
%ADD11C,0.00984*%
%ADD12C,0.02362*%
%ADD13C,0.00787*%
G36*
X248032Y308703D02*
X248094D01*
Y308641D01*
X248156D01*
Y308579D01*
X248218D01*
Y306591D01*
Y306529D01*
Y305411D01*
X248156D01*
Y305286D01*
X248032D01*
Y305224D01*
X247783D01*
Y305286D01*
X247721D01*
Y305348D01*
X247659D01*
Y305535D01*
X247597D01*
Y305659D01*
X247659D01*
Y308330D01*
X247597D01*
Y308454D01*
X247659D01*
Y308641D01*
X247721D01*
Y308703D01*
X247846D01*
Y308765D01*
X248032D01*
Y308703D01*
D02*
G37*
G36*
X241820Y307833D02*
X241882D01*
Y307771D01*
X241944D01*
Y307709D01*
X242006D01*
Y307647D01*
Y307585D01*
Y307460D01*
X242068D01*
Y307274D01*
X242130D01*
Y307088D01*
X242193D01*
Y306901D01*
X242255D01*
Y306715D01*
X242317D01*
Y306529D01*
X242379D01*
Y306342D01*
X242441D01*
Y306094D01*
X242503D01*
Y305908D01*
X242565D01*
Y305721D01*
X242627D01*
Y305535D01*
X242689D01*
Y305348D01*
X242752D01*
Y305162D01*
X242814D01*
Y304976D01*
X242876D01*
Y304665D01*
X242814D01*
Y304603D01*
X242752D01*
Y304541D01*
X242441D01*
Y304603D01*
X242379D01*
Y304665D01*
X242317D01*
Y304789D01*
X242255D01*
Y305038D01*
X242193D01*
Y305224D01*
X242130D01*
Y305411D01*
X242068D01*
Y305597D01*
X242006D01*
Y305783D01*
X241944D01*
Y305970D01*
X241882D01*
Y306156D01*
X241820D01*
Y306342D01*
X241758D01*
Y306529D01*
X241695D01*
Y306715D01*
X241633D01*
Y306901D01*
X241571D01*
Y307088D01*
X241509D01*
Y307274D01*
X241447D01*
Y307460D01*
X241385D01*
Y307709D01*
X241447D01*
Y307833D01*
X241571D01*
Y307895D01*
X241820D01*
Y307833D01*
D02*
G37*
G36*
X254306Y307771D02*
X254368D01*
Y307709D01*
X254430D01*
Y307398D01*
X254368D01*
Y307212D01*
X254306D01*
Y307026D01*
X254244D01*
Y306839D01*
X254182D01*
Y306653D01*
X254120D01*
Y306467D01*
X254058D01*
Y306218D01*
X253995D01*
Y306032D01*
X253933D01*
Y305845D01*
X253871D01*
Y305659D01*
X253809D01*
Y305473D01*
X253747D01*
Y305286D01*
X253685D01*
Y305100D01*
X253623D01*
Y304913D01*
X253561D01*
Y304665D01*
X253499D01*
Y304603D01*
X253436D01*
Y304541D01*
X253374D01*
Y304479D01*
X253064D01*
Y304541D01*
X253001D01*
Y304665D01*
X252939D01*
Y304913D01*
X253001D01*
Y305038D01*
X253064D01*
Y305286D01*
X253126D01*
Y305411D01*
Y305473D01*
X253188D01*
Y305659D01*
X253250D01*
Y305845D01*
X253312D01*
Y306032D01*
X253374D01*
Y306218D01*
X253436D01*
Y306404D01*
X253499D01*
Y306591D01*
X253561D01*
Y306777D01*
X253623D01*
Y306963D01*
X253685D01*
Y307150D01*
X253747D01*
Y307336D01*
X253809D01*
Y307585D01*
X253871D01*
Y307709D01*
X253933D01*
Y307771D01*
X253995D01*
Y307833D01*
X254306D01*
Y307771D01*
D02*
G37*
G36*
X236105Y305100D02*
X236229D01*
Y305038D01*
X236291D01*
Y304976D01*
X236353D01*
Y304851D01*
X236415D01*
Y304789D01*
X236477D01*
Y304665D01*
X236539D01*
Y304603D01*
X236601D01*
Y304541D01*
X236664D01*
Y304417D01*
X236726D01*
Y304355D01*
X236788D01*
Y304230D01*
X236850D01*
Y304168D01*
X236912D01*
Y304106D01*
X236974D01*
Y303982D01*
X237036D01*
Y303920D01*
X237099D01*
Y303857D01*
X237161D01*
Y303733D01*
X237223D01*
Y303671D01*
X237285D01*
Y303547D01*
X237347D01*
Y303485D01*
X237409D01*
Y303423D01*
X237471D01*
Y303298D01*
X237533D01*
Y303236D01*
X237596D01*
Y303174D01*
X237658D01*
Y303050D01*
X237720D01*
Y302988D01*
X237782D01*
Y302864D01*
X237844D01*
Y302801D01*
X237906D01*
Y302739D01*
X237968D01*
Y302615D01*
X238030D01*
Y302305D01*
X237968D01*
Y302242D01*
X237844D01*
Y302180D01*
X237658D01*
Y302242D01*
X237533D01*
Y302305D01*
X237471D01*
Y302429D01*
X237409D01*
Y302491D01*
X237347D01*
Y302553D01*
X237285D01*
Y302677D01*
X237223D01*
Y302739D01*
X237161D01*
Y302864D01*
X237099D01*
Y302926D01*
X237036D01*
Y302988D01*
X236974D01*
Y303112D01*
X236912D01*
Y303174D01*
X236850D01*
Y303236D01*
X236788D01*
Y303361D01*
X236726D01*
Y303423D01*
X236664D01*
Y303547D01*
X236601D01*
Y303609D01*
X236539D01*
Y303671D01*
X236477D01*
Y303795D01*
X236415D01*
Y303857D01*
X236353D01*
Y303920D01*
X236291D01*
Y304044D01*
X236229D01*
Y304106D01*
X236167D01*
Y304230D01*
X236105D01*
Y304292D01*
X236042D01*
Y304355D01*
X235980D01*
Y304479D01*
X235918D01*
Y304541D01*
X235856D01*
Y304603D01*
X235794D01*
Y304665D01*
Y304727D01*
X235732D01*
Y304976D01*
X235794D01*
Y305038D01*
X235856D01*
Y305100D01*
X235918D01*
Y305162D01*
X236105D01*
Y305100D01*
D02*
G37*
G36*
X259959Y304976D02*
X260021D01*
Y304851D01*
X260083D01*
Y304665D01*
X260021D01*
Y304541D01*
X259959D01*
Y304479D01*
X259897D01*
Y304355D01*
X259835D01*
Y304292D01*
X259773D01*
Y304230D01*
X259711D01*
Y304106D01*
X259648D01*
Y304044D01*
X259586D01*
Y303982D01*
X259524D01*
Y303857D01*
X259462D01*
Y303795D01*
X259400D01*
Y303671D01*
X259338D01*
Y303609D01*
X259276D01*
Y303547D01*
X259214D01*
Y303423D01*
X259152D01*
Y303361D01*
X259089D01*
Y303298D01*
X259027D01*
Y303174D01*
X258965D01*
Y303112D01*
X258903D01*
Y302988D01*
X258841D01*
Y302926D01*
X258779D01*
Y302864D01*
X258717D01*
Y302739D01*
X258655D01*
Y302677D01*
X258593D01*
Y302553D01*
X258530D01*
Y302491D01*
X258468D01*
Y302429D01*
X258406D01*
Y302305D01*
X258344D01*
Y302242D01*
X258282D01*
Y302180D01*
X258220D01*
Y302118D01*
X257909D01*
Y302180D01*
X257847D01*
Y302242D01*
X257785D01*
Y302553D01*
X257847D01*
Y302615D01*
X257909D01*
Y302739D01*
X257971D01*
Y302801D01*
X258033D01*
Y302864D01*
X258096D01*
Y302988D01*
X258158D01*
Y303050D01*
X258220D01*
Y303112D01*
Y303174D01*
X258282D01*
Y303236D01*
X258344D01*
Y303298D01*
X258406D01*
Y303423D01*
X258468D01*
Y303485D01*
X258530D01*
Y303547D01*
X258593D01*
Y303671D01*
X258655D01*
Y303733D01*
X258717D01*
Y303857D01*
X258779D01*
Y303920D01*
X258841D01*
Y303982D01*
X258903D01*
Y304106D01*
X258965D01*
Y304168D01*
X259027D01*
Y304230D01*
X259089D01*
Y304355D01*
X259152D01*
Y304417D01*
X259214D01*
Y304541D01*
X259276D01*
Y304603D01*
X259338D01*
Y304665D01*
X259400D01*
Y304789D01*
X259462D01*
Y304851D01*
X259524D01*
Y304976D01*
X259648D01*
Y305038D01*
X259959D01*
Y304976D01*
D02*
G37*
G36*
X231694Y300689D02*
X231756D01*
Y300627D01*
X231818D01*
Y300565D01*
X231943D01*
Y300503D01*
X232005D01*
Y300441D01*
X232129D01*
Y300379D01*
X232191D01*
Y300317D01*
X232253D01*
Y300255D01*
X232377D01*
Y300192D01*
X232439D01*
Y300130D01*
X232502D01*
Y300068D01*
X232626D01*
Y300006D01*
X232688D01*
Y299944D01*
X232812D01*
Y299882D01*
X232874D01*
Y299820D01*
X232936D01*
Y299758D01*
X233061D01*
Y299695D01*
X233123D01*
Y299633D01*
X233185D01*
Y299571D01*
X233309D01*
Y299509D01*
X233371D01*
Y299447D01*
X233495D01*
Y299385D01*
X233558D01*
Y299323D01*
X233620D01*
Y299260D01*
X233744D01*
Y299198D01*
X233806D01*
Y299136D01*
X233868D01*
Y299074D01*
X233993D01*
Y299012D01*
X234055D01*
Y298950D01*
X234117D01*
Y298826D01*
X234179D01*
Y298701D01*
X234117D01*
Y298577D01*
X234055D01*
Y298515D01*
X233868D01*
Y298453D01*
X233806D01*
Y298515D01*
X233682D01*
Y298577D01*
X233558D01*
Y298639D01*
X233495D01*
Y298701D01*
X233433D01*
Y298763D01*
X233309D01*
Y298826D01*
X233247D01*
Y298888D01*
X233185D01*
Y298950D01*
X233061D01*
Y299012D01*
X232998D01*
Y299074D01*
X232936D01*
Y299136D01*
X232812D01*
Y299198D01*
X232750D01*
Y299260D01*
X232626D01*
Y299323D01*
X232564D01*
Y299385D01*
X232502D01*
Y299447D01*
X232377D01*
Y299509D01*
X232315D01*
Y299571D01*
X232191D01*
Y299633D01*
X232129D01*
Y299695D01*
X232067D01*
Y299758D01*
X231943D01*
Y299820D01*
X231880D01*
Y299882D01*
X231818D01*
Y299944D01*
X231694D01*
Y300006D01*
X231632D01*
Y300068D01*
X231508D01*
Y300130D01*
X231446D01*
Y300192D01*
X231321D01*
Y300255D01*
X231259D01*
Y300379D01*
X231197D01*
Y300627D01*
X231259D01*
Y300689D01*
X231321D01*
Y300751D01*
X231694D01*
Y300689D01*
D02*
G37*
G36*
X264494Y300503D02*
X264556D01*
Y300192D01*
X264494D01*
Y300130D01*
X264432D01*
Y300068D01*
X264308D01*
Y300006D01*
X264246D01*
Y299944D01*
X264183D01*
Y299882D01*
X264059D01*
Y299820D01*
X263997D01*
Y299758D01*
X263873D01*
Y299695D01*
X263811D01*
Y299633D01*
X263749D01*
Y299571D01*
X263624D01*
Y299509D01*
X263562D01*
Y299447D01*
X263500D01*
Y299385D01*
X263376D01*
Y299323D01*
X263314D01*
Y299260D01*
X263189D01*
Y299198D01*
X263127D01*
Y299136D01*
X263065D01*
Y299074D01*
X262941D01*
Y299012D01*
X262879D01*
Y298950D01*
X262817D01*
Y298888D01*
X262692D01*
Y298826D01*
X262630D01*
Y298763D01*
X262506D01*
Y298701D01*
X262444D01*
Y298639D01*
X262382D01*
Y298577D01*
X262258D01*
Y298515D01*
X262195D01*
Y298453D01*
X262133D01*
Y298391D01*
X261947D01*
Y298329D01*
X261823D01*
Y298391D01*
X261699D01*
Y298453D01*
X261636D01*
Y298826D01*
X261699D01*
Y298888D01*
X261761D01*
Y298950D01*
X261885D01*
Y299012D01*
X261947D01*
Y299074D01*
X262071D01*
Y299136D01*
X262133D01*
Y299198D01*
X262195D01*
Y299260D01*
X262320D01*
Y299323D01*
X262382D01*
Y299385D01*
X262506D01*
Y299447D01*
X262568D01*
Y299509D01*
X262630D01*
Y299571D01*
X262755D01*
Y299633D01*
X262817D01*
Y299695D01*
X262879D01*
Y299758D01*
X263003D01*
Y299820D01*
X263065D01*
Y299882D01*
X263189D01*
Y299944D01*
X263251D01*
Y300006D01*
X263314D01*
Y300068D01*
X263438D01*
Y300130D01*
X263500D01*
Y300192D01*
X263562D01*
Y300255D01*
X263686D01*
Y300317D01*
X263749D01*
Y300379D01*
X263873D01*
Y300441D01*
X263935D01*
Y300503D01*
X263997D01*
Y300565D01*
X264059D01*
Y300627D01*
X264494D01*
Y300503D01*
D02*
G37*
G36*
X228712Y295161D02*
X228899D01*
Y295098D01*
X229085D01*
Y295036D01*
X229271D01*
Y294974D01*
X229458D01*
Y294912D01*
X229644D01*
Y294850D01*
X229830D01*
Y294788D01*
X230017D01*
Y294726D01*
X230265D01*
Y294664D01*
X230451D01*
Y294601D01*
X230638D01*
Y294539D01*
X230824D01*
Y294477D01*
X231011D01*
Y294415D01*
X231197D01*
Y294353D01*
X231446D01*
Y294291D01*
X231508D01*
Y294229D01*
X231570D01*
Y293856D01*
X231508D01*
Y293794D01*
X231383D01*
Y293732D01*
X231197D01*
Y293794D01*
X231011D01*
Y293856D01*
X230824D01*
Y293918D01*
X230638D01*
Y293980D01*
X230451D01*
Y294042D01*
X230265D01*
Y294105D01*
X230079D01*
Y294167D01*
X229892D01*
Y294229D01*
X229706D01*
Y294291D01*
X229520D01*
Y294353D01*
X229333D01*
Y294415D01*
X229147D01*
Y294477D01*
X228961D01*
Y294539D01*
X228712D01*
Y294601D01*
X228526D01*
Y294664D01*
X228401D01*
Y294726D01*
X228277D01*
Y294850D01*
X228215D01*
Y295036D01*
X228277D01*
Y295161D01*
X228339D01*
Y295223D01*
X228712D01*
Y295161D01*
D02*
G37*
G36*
X267476Y295036D02*
X267538D01*
Y294974D01*
X267600D01*
Y294912D01*
X267662D01*
Y294726D01*
X267600D01*
Y294601D01*
X267538D01*
Y294539D01*
X267414D01*
Y294477D01*
X267227D01*
Y294415D01*
X267041D01*
Y294353D01*
X266855D01*
Y294291D01*
X266606D01*
Y294229D01*
X266420D01*
Y294167D01*
X266233D01*
Y294105D01*
X266047D01*
Y294042D01*
X265861D01*
Y293980D01*
X265674D01*
Y293918D01*
X265488D01*
Y293856D01*
X265301D01*
Y293794D01*
X265115D01*
Y293732D01*
X264929D01*
Y293670D01*
X264742D01*
Y293607D01*
X264432D01*
Y293670D01*
X264370D01*
Y293732D01*
X264308D01*
Y294105D01*
X264432D01*
Y294167D01*
X264556D01*
Y294229D01*
X264742D01*
Y294291D01*
X264929D01*
Y294353D01*
X265115D01*
Y294415D01*
X265364D01*
Y294477D01*
X265550D01*
Y294539D01*
X265736D01*
Y294601D01*
X265923D01*
Y294664D01*
X266109D01*
Y294726D01*
X266296D01*
Y294788D01*
X266482D01*
Y294850D01*
X266668D01*
Y294912D01*
X266855D01*
Y294974D01*
X267041D01*
Y295036D01*
X267227D01*
Y295098D01*
X267476D01*
Y295036D01*
D02*
G37*
G36*
X249150Y304665D02*
X249833D01*
Y304603D01*
X250330D01*
Y304541D01*
X250765D01*
Y304479D01*
X251138D01*
Y304417D01*
X251448D01*
Y304355D01*
X251759D01*
Y304292D01*
X252008D01*
Y304230D01*
X252256D01*
Y304168D01*
X252505D01*
Y304106D01*
X252691D01*
Y304044D01*
X252939D01*
Y303982D01*
X253126D01*
Y303920D01*
X253312D01*
Y303857D01*
X253499D01*
Y303795D01*
X253685D01*
Y303733D01*
X253871D01*
Y303671D01*
X254058D01*
Y303609D01*
X254182D01*
Y303547D01*
X254368D01*
Y303485D01*
X254492D01*
Y303423D01*
X254679D01*
Y303361D01*
X254803D01*
Y303298D01*
X254927D01*
Y303236D01*
X255114D01*
Y303174D01*
X255238D01*
Y303112D01*
X255362D01*
Y303050D01*
X255486D01*
Y302988D01*
X255611D01*
Y302926D01*
X255735D01*
Y302864D01*
X255859D01*
Y302801D01*
X255983D01*
Y302739D01*
X256108D01*
Y302677D01*
X256232D01*
Y302615D01*
X256294D01*
Y302553D01*
X256418D01*
Y302491D01*
X256542D01*
Y302429D01*
X256667D01*
Y302367D01*
X256729D01*
Y302305D01*
X256853D01*
Y302242D01*
X256977D01*
Y302180D01*
X257039D01*
Y302118D01*
X257164D01*
Y302056D01*
X257226D01*
Y301994D01*
X257350D01*
Y301932D01*
X257474D01*
Y301870D01*
X257536D01*
Y301807D01*
X257661D01*
Y301745D01*
X257723D01*
Y301683D01*
X257785D01*
Y301621D01*
X257909D01*
Y301559D01*
X257971D01*
Y301497D01*
X258096D01*
Y301435D01*
X258158D01*
Y301373D01*
X258220D01*
Y301310D01*
X258344D01*
Y301248D01*
X258406D01*
Y301186D01*
X258468D01*
Y301124D01*
X258593D01*
Y301062D01*
X258655D01*
Y301000D01*
X258717D01*
Y300938D01*
X258841D01*
Y300876D01*
X258903D01*
Y300814D01*
X258965D01*
Y300751D01*
X259027D01*
Y300689D01*
X259089D01*
Y300627D01*
X259214D01*
Y300565D01*
X259276D01*
Y300503D01*
X259338D01*
Y300441D01*
X259400D01*
Y300379D01*
X259462D01*
Y300317D01*
X259524D01*
Y300255D01*
X259586D01*
Y300192D01*
X259648D01*
Y300130D01*
X259773D01*
Y300068D01*
X259835D01*
Y300006D01*
X259897D01*
Y299944D01*
X259959D01*
Y299882D01*
X260021D01*
Y299820D01*
X260083D01*
Y299758D01*
X260145D01*
Y299695D01*
X260208D01*
Y299633D01*
X260270D01*
Y299571D01*
X260332D01*
Y299509D01*
X260394D01*
Y299447D01*
X260456D01*
Y299385D01*
X260518D01*
Y299323D01*
X260580D01*
Y299260D01*
X260643D01*
Y299136D01*
X260705D01*
Y299074D01*
X260767D01*
Y299012D01*
X260829D01*
Y298950D01*
X260891D01*
Y298888D01*
X260953D01*
Y298826D01*
X261015D01*
Y298763D01*
X261077D01*
Y298701D01*
X261139D01*
Y298577D01*
X261202D01*
Y298515D01*
X261264D01*
Y298453D01*
X261326D01*
Y298391D01*
X261388D01*
Y298329D01*
X261450D01*
Y298204D01*
X261512D01*
Y298142D01*
X261574D01*
Y298080D01*
X261636D01*
Y297956D01*
X261699D01*
Y297894D01*
X261761D01*
Y297832D01*
X261823D01*
Y297708D01*
X261885D01*
Y297645D01*
X261947D01*
Y297583D01*
X262009D01*
Y297459D01*
X262071D01*
Y297397D01*
X262133D01*
Y297273D01*
X262195D01*
Y297211D01*
X262258D01*
Y297148D01*
X262320D01*
Y297024D01*
X262382D01*
Y296962D01*
X262444D01*
Y296838D01*
X262506D01*
Y296713D01*
X262568D01*
Y296651D01*
X262630D01*
Y296527D01*
X262692D01*
Y296465D01*
X262755D01*
Y296341D01*
X262817D01*
Y296217D01*
X262879D01*
Y296154D01*
X262941D01*
Y296030D01*
X263003D01*
Y295906D01*
X263065D01*
Y295782D01*
X263127D01*
Y295720D01*
X263189D01*
Y295595D01*
X263251D01*
Y295471D01*
X263314D01*
Y295347D01*
X263376D01*
Y295223D01*
X263438D01*
Y295098D01*
X263500D01*
Y294974D01*
X263562D01*
Y294850D01*
X263624D01*
Y294726D01*
X263686D01*
Y294601D01*
X263749D01*
Y294415D01*
X263811D01*
Y294291D01*
X263873D01*
Y294167D01*
X263935D01*
Y293980D01*
X263997D01*
Y293856D01*
X264059D01*
Y293670D01*
X264121D01*
Y293545D01*
X264183D01*
Y293359D01*
X264246D01*
Y293173D01*
X264308D01*
Y292986D01*
X264370D01*
Y292800D01*
X264432D01*
Y292614D01*
X264494D01*
Y292427D01*
X264556D01*
Y292241D01*
X231321D01*
Y292427D01*
X231383D01*
Y292614D01*
X231446D01*
Y292800D01*
X231508D01*
Y292986D01*
X231570D01*
Y293173D01*
X231632D01*
Y293359D01*
X231694D01*
Y293545D01*
X231756D01*
Y293670D01*
X231818D01*
Y293856D01*
X231880D01*
Y293980D01*
X231943D01*
Y294167D01*
X232005D01*
Y294291D01*
X232067D01*
Y294415D01*
X232129D01*
Y294601D01*
X232191D01*
Y294726D01*
X232253D01*
Y294850D01*
X232315D01*
Y294974D01*
X232377D01*
Y295098D01*
X232439D01*
Y295223D01*
X232502D01*
Y295347D01*
X232564D01*
Y295471D01*
X232626D01*
Y295595D01*
X232688D01*
Y295720D01*
X232750D01*
Y295782D01*
X232812D01*
Y295906D01*
X232874D01*
Y296030D01*
X232936D01*
Y296154D01*
X232998D01*
Y296217D01*
X233061D01*
Y296341D01*
X233123D01*
Y296465D01*
X233185D01*
Y296527D01*
X233247D01*
Y296651D01*
X233309D01*
Y296776D01*
X233371D01*
Y296838D01*
X233433D01*
Y296962D01*
X233495D01*
Y297024D01*
X233558D01*
Y297148D01*
X233620D01*
Y297211D01*
X233682D01*
Y297335D01*
X233744D01*
Y297397D01*
X233806D01*
Y297459D01*
X233868D01*
Y297583D01*
X233930D01*
Y297645D01*
X233993D01*
Y297708D01*
X234055D01*
Y297832D01*
X234117D01*
Y297894D01*
X234179D01*
Y297956D01*
X234241D01*
Y298080D01*
X234303D01*
Y298142D01*
X234365D01*
Y298204D01*
X234427D01*
Y298329D01*
X234489D01*
Y298391D01*
X234552D01*
Y298453D01*
X234614D01*
Y298515D01*
X234676D01*
Y298577D01*
X234738D01*
Y298701D01*
X234800D01*
Y298763D01*
X234862D01*
Y298826D01*
X234924D01*
Y298888D01*
X234986D01*
Y298950D01*
X235049D01*
Y299012D01*
X235111D01*
Y299074D01*
X235173D01*
Y299198D01*
X235235D01*
Y299260D01*
X235297D01*
Y299323D01*
X235359D01*
Y299385D01*
X235421D01*
Y299447D01*
X235483D01*
Y299509D01*
X235545D01*
Y299571D01*
X235608D01*
Y299633D01*
X235670D01*
Y299695D01*
X235732D01*
Y299758D01*
X235794D01*
Y299820D01*
X235856D01*
Y299882D01*
X235918D01*
Y299944D01*
X235980D01*
Y300006D01*
X236042D01*
Y300068D01*
X236105D01*
Y300130D01*
X236167D01*
Y300192D01*
X236291D01*
Y300255D01*
X236353D01*
Y300317D01*
X236415D01*
Y300379D01*
X236477D01*
Y300441D01*
X236539D01*
Y300503D01*
X236601D01*
Y300565D01*
X236664D01*
Y300627D01*
X236788D01*
Y300689D01*
X236850D01*
Y300751D01*
X236912D01*
Y300814D01*
X236974D01*
Y300876D01*
X237036D01*
Y300938D01*
X237161D01*
Y301000D01*
X237223D01*
Y301062D01*
X237285D01*
Y301124D01*
X237409D01*
Y301186D01*
X237471D01*
Y301248D01*
X237533D01*
Y301310D01*
X237658D01*
Y301373D01*
X237720D01*
Y301435D01*
X237782D01*
Y301497D01*
X237906D01*
Y301559D01*
X237968D01*
Y301621D01*
X238092D01*
Y301683D01*
X238155D01*
Y301745D01*
X238217D01*
Y301807D01*
X238341D01*
Y301870D01*
X238403D01*
Y301932D01*
X238527D01*
Y301994D01*
X238651D01*
Y302056D01*
X238714D01*
Y302118D01*
X238838D01*
Y302180D01*
X238900D01*
Y302242D01*
X239024D01*
Y302305D01*
X239148D01*
Y302367D01*
X239211D01*
Y302429D01*
X239335D01*
Y302491D01*
X239459D01*
Y302553D01*
X239583D01*
Y302615D01*
X239646D01*
Y302677D01*
X239770D01*
Y302739D01*
X239894D01*
Y302801D01*
X240018D01*
Y302864D01*
X240142D01*
Y302926D01*
X240267D01*
Y302988D01*
X240391D01*
Y303050D01*
X240515D01*
Y303112D01*
X240639D01*
Y303174D01*
X240764D01*
Y303236D01*
X240950D01*
Y303298D01*
X241074D01*
Y303361D01*
X241198D01*
Y303423D01*
X241385D01*
Y303485D01*
X241509D01*
Y303547D01*
X241695D01*
Y303609D01*
X241820D01*
Y303671D01*
X242006D01*
Y303733D01*
X242193D01*
Y303795D01*
X242379D01*
Y303857D01*
X242565D01*
Y303920D01*
X242752D01*
Y303982D01*
X242938D01*
Y304044D01*
X243186D01*
Y304106D01*
X243373D01*
Y304168D01*
X243621D01*
Y304230D01*
X243870D01*
Y304292D01*
X244118D01*
Y304355D01*
X244429D01*
Y304417D01*
X244739D01*
Y304479D01*
X245112D01*
Y304541D01*
X245547D01*
Y304603D01*
X246044D01*
Y304665D01*
X246727D01*
Y304727D01*
X249150D01*
Y304665D01*
D02*
G37*
G36*
X267414Y290998D02*
X267600D01*
Y290936D01*
X267724D01*
Y290874D01*
X267786D01*
Y290812D01*
X267848D01*
Y290750D01*
X267911D01*
Y290688D01*
X267973D01*
Y290564D01*
X268035D01*
Y290501D01*
Y290439D01*
Y290377D01*
X268097D01*
Y289942D01*
X268035D01*
Y289756D01*
X267973D01*
Y289632D01*
X267911D01*
Y289570D01*
X267848D01*
Y289508D01*
X267786D01*
Y289445D01*
X267724D01*
Y289383D01*
X267600D01*
Y289321D01*
X267414D01*
Y289259D01*
X265053D01*
Y288265D01*
X264618D01*
Y291060D01*
X267414D01*
Y290998D01*
D02*
G37*
G36*
X262568Y291060D02*
X262941D01*
Y290998D01*
X263189D01*
Y290936D01*
X263314D01*
Y290874D01*
X263438D01*
Y290812D01*
X263500D01*
Y290750D01*
X263624D01*
Y290688D01*
X263686D01*
Y290626D01*
X263749D01*
Y290501D01*
X263811D01*
Y290377D01*
X263873D01*
Y290253D01*
X263935D01*
Y289818D01*
X263997D01*
Y289570D01*
X263935D01*
Y289135D01*
X263873D01*
Y288948D01*
X263811D01*
Y288824D01*
X263749D01*
Y288762D01*
X263686D01*
Y288700D01*
X263624D01*
Y288638D01*
X263562D01*
Y288576D01*
X263500D01*
Y288513D01*
X263376D01*
Y288451D01*
X263251D01*
Y288389D01*
X263127D01*
Y288327D01*
X262817D01*
Y288265D01*
X261202D01*
Y288327D01*
X260953D01*
Y288389D01*
X260767D01*
Y288451D01*
X260643D01*
Y288513D01*
X260518D01*
Y288576D01*
X260456D01*
Y288638D01*
X260394D01*
Y288700D01*
X260332D01*
Y288762D01*
X260270D01*
Y288886D01*
X260208D01*
Y289011D01*
X260145D01*
Y289259D01*
X260083D01*
Y290129D01*
X260145D01*
Y290315D01*
X260208D01*
Y290439D01*
X260270D01*
Y290564D01*
X260332D01*
Y290626D01*
X260394D01*
Y290688D01*
X260456D01*
Y290750D01*
X260518D01*
Y290812D01*
X260580D01*
Y290874D01*
X260705D01*
Y290936D01*
X260891D01*
Y290998D01*
X261077D01*
Y291060D01*
X261512D01*
Y291123D01*
X262568D01*
Y291060D01*
D02*
G37*
G36*
X258220Y290998D02*
X258593D01*
Y290936D01*
X258841D01*
Y290874D01*
X258965D01*
Y290812D01*
X259089D01*
Y290750D01*
X259152D01*
Y290688D01*
X259276D01*
Y290626D01*
X259338D01*
Y290564D01*
X259400D01*
Y290439D01*
X259462D01*
Y290315D01*
X259524D01*
Y290253D01*
Y290191D01*
X259586D01*
Y289756D01*
X259648D01*
Y289508D01*
X259586D01*
Y289073D01*
X259524D01*
Y288886D01*
X259462D01*
Y288762D01*
X259400D01*
Y288700D01*
X259338D01*
Y288638D01*
X259276D01*
Y288576D01*
X259214D01*
Y288513D01*
X259152D01*
Y288451D01*
X259027D01*
Y288389D01*
X258903D01*
Y288327D01*
X258779D01*
Y288265D01*
X258468D01*
Y288203D01*
X256853D01*
Y288265D01*
X256605D01*
Y288327D01*
X256418D01*
Y288389D01*
X256294D01*
Y288451D01*
X256170D01*
Y288513D01*
X256108D01*
Y288576D01*
X256046D01*
Y288638D01*
X255983D01*
Y288700D01*
X255921D01*
Y288824D01*
X255859D01*
Y288948D01*
X255797D01*
Y289197D01*
X255735D01*
Y290067D01*
X255797D01*
Y290253D01*
X255859D01*
Y290377D01*
X255921D01*
Y290501D01*
X255983D01*
Y290564D01*
X256046D01*
Y290626D01*
X256108D01*
Y290688D01*
X256170D01*
Y290750D01*
X256232D01*
Y290812D01*
X256356D01*
Y290874D01*
X256542D01*
Y290936D01*
X256729D01*
Y290998D01*
X257164D01*
Y291060D01*
X258220D01*
Y290998D01*
D02*
G37*
G36*
X252753Y289011D02*
X252815D01*
Y288886D01*
X252877D01*
Y288824D01*
X252939D01*
Y288762D01*
X253064D01*
Y288700D01*
X253312D01*
Y288638D01*
X255486D01*
Y288203D01*
X253250D01*
Y288265D01*
X252939D01*
Y288327D01*
X252815D01*
Y288389D01*
X252691D01*
Y288451D01*
X252629D01*
Y288513D01*
X252567D01*
Y288576D01*
X252505D01*
Y288638D01*
X252443D01*
Y288762D01*
X252380D01*
Y288886D01*
X252318D01*
Y290998D01*
X252753D01*
Y289011D01*
D02*
G37*
G36*
X251076Y290936D02*
X251262D01*
Y290874D01*
X251386D01*
Y290812D01*
X251448D01*
Y290750D01*
X251511D01*
Y290688D01*
X251573D01*
Y290564D01*
X251635D01*
Y290439D01*
X251697D01*
Y289880D01*
X251635D01*
Y289756D01*
X251573D01*
Y289632D01*
X251511D01*
Y289570D01*
X251386D01*
Y289508D01*
X251262D01*
Y289445D01*
X251138D01*
Y289383D01*
X251262D01*
Y289321D01*
X251386D01*
Y289259D01*
X251448D01*
Y289197D01*
X251511D01*
Y289135D01*
X251573D01*
Y289011D01*
X251635D01*
Y288203D01*
X251200D01*
Y288824D01*
X251138D01*
Y289011D01*
X251076D01*
Y289073D01*
X251014D01*
Y289135D01*
X250889D01*
Y289197D01*
X248653D01*
Y288203D01*
X248218D01*
Y290998D01*
X251076D01*
Y290936D01*
D02*
G37*
G36*
X247535Y290626D02*
X245299D01*
Y290564D01*
X244926D01*
Y290501D01*
X244739D01*
Y290439D01*
X244677D01*
Y290377D01*
X244615D01*
Y290315D01*
X244553D01*
Y290191D01*
X244491D01*
Y289942D01*
X244429D01*
Y289818D01*
X247473D01*
Y289445D01*
X244801D01*
Y289383D01*
X244429D01*
Y289259D01*
X244491D01*
Y289073D01*
X244553D01*
Y288948D01*
X244615D01*
Y288824D01*
X244739D01*
Y288762D01*
X244801D01*
Y288700D01*
X244988D01*
Y288638D01*
X247535D01*
Y288203D01*
X244988D01*
Y288265D01*
X244677D01*
Y288327D01*
X244553D01*
Y288389D01*
X244429D01*
Y288451D01*
X244367D01*
Y288513D01*
X244305D01*
Y288576D01*
X244243D01*
Y288638D01*
X244180D01*
Y288762D01*
X244118D01*
Y288886D01*
X244056D01*
Y289197D01*
X243994D01*
Y290067D01*
X244056D01*
Y290315D01*
X244118D01*
Y290439D01*
X244180D01*
Y290564D01*
X244243D01*
Y290626D01*
X244305D01*
Y290688D01*
X244367D01*
Y290750D01*
X244429D01*
Y290812D01*
X244491D01*
Y290874D01*
X244615D01*
Y290936D01*
X244864D01*
Y290998D01*
X247535D01*
Y290626D01*
D02*
G37*
G36*
X243435Y290564D02*
X240826D01*
Y290501D01*
X240702D01*
Y290439D01*
X240577D01*
Y290377D01*
X240515D01*
Y290315D01*
X240453D01*
Y290191D01*
X240391D01*
Y289942D01*
X240329D01*
Y289321D01*
X240391D01*
Y289073D01*
X240453D01*
Y288948D01*
X240515D01*
Y288886D01*
X240577D01*
Y288824D01*
X240639D01*
Y288762D01*
X240702D01*
Y288700D01*
X240950D01*
Y288638D01*
X243000D01*
Y289694D01*
X243435D01*
Y289321D01*
Y289259D01*
Y288203D01*
X240888D01*
Y288265D01*
X240577D01*
Y288327D01*
X240453D01*
Y288389D01*
X240329D01*
Y288451D01*
X240267D01*
Y288513D01*
X240205D01*
Y288576D01*
X240142D01*
Y288638D01*
X240080D01*
Y288762D01*
X240018D01*
Y288886D01*
X239956D01*
Y289197D01*
X239894D01*
Y290067D01*
X239956D01*
Y290315D01*
X240018D01*
Y290439D01*
X240080D01*
Y290564D01*
X240142D01*
Y290626D01*
X240205D01*
Y290688D01*
X240267D01*
Y290750D01*
X240329D01*
Y290812D01*
X240391D01*
Y290874D01*
X240515D01*
Y290936D01*
X240764D01*
Y290998D01*
X243435D01*
Y290564D01*
D02*
G37*
G36*
X238527Y290936D02*
X238714D01*
Y290874D01*
X238838D01*
Y290812D01*
X238962D01*
Y290750D01*
X239024D01*
Y290688D01*
X239086D01*
Y290626D01*
X239148D01*
Y290501D01*
X239211D01*
Y290377D01*
X239273D01*
Y290191D01*
X239335D01*
Y289011D01*
X239273D01*
Y288824D01*
X239211D01*
Y288700D01*
X239148D01*
Y288638D01*
X239086D01*
Y288576D01*
X239024D01*
Y288513D01*
X238962D01*
Y288451D01*
X238900D01*
Y288389D01*
X238776D01*
Y288327D01*
X238651D01*
Y288265D01*
X238341D01*
Y288203D01*
X235732D01*
Y290998D01*
X238527D01*
Y290936D01*
D02*
G37*
G36*
X233558Y290998D02*
X233744D01*
Y290936D01*
X233806D01*
Y290874D01*
X233930D01*
Y290812D01*
X233993D01*
Y290688D01*
X234055D01*
Y290626D01*
X234117D01*
Y290501D01*
X234179D01*
Y290377D01*
X234241D01*
Y290253D01*
X234303D01*
Y290129D01*
X234365D01*
Y290004D01*
X234427D01*
Y289880D01*
X234489D01*
Y289756D01*
X234552D01*
Y289632D01*
X234614D01*
Y289508D01*
X234676D01*
Y289383D01*
X234738D01*
Y289259D01*
X234800D01*
Y289135D01*
X234862D01*
Y289011D01*
X234924D01*
Y288886D01*
X234986D01*
Y288762D01*
X235049D01*
Y288638D01*
X235111D01*
Y288513D01*
X235173D01*
Y288389D01*
X235235D01*
Y288265D01*
X235297D01*
Y288203D01*
X234800D01*
Y288327D01*
X234738D01*
Y288451D01*
X234676D01*
Y288576D01*
X234614D01*
Y288700D01*
X234552D01*
Y288824D01*
X234489D01*
Y288948D01*
X234427D01*
Y289011D01*
X232998D01*
Y288948D01*
X232191D01*
Y288824D01*
X232129D01*
Y288700D01*
X232067D01*
Y288576D01*
X232005D01*
Y288451D01*
X231943D01*
Y288327D01*
X231880D01*
Y288203D01*
X231383D01*
Y288265D01*
X231446D01*
Y288389D01*
X231508D01*
Y288513D01*
X231570D01*
Y288638D01*
X231632D01*
Y288762D01*
X231694D01*
Y288886D01*
X231756D01*
Y289073D01*
X231818D01*
Y289197D01*
X231880D01*
Y289321D01*
X231943D01*
Y289445D01*
X232005D01*
Y289570D01*
X232067D01*
Y289694D01*
X232129D01*
Y289818D01*
X232191D01*
Y289942D01*
X232253D01*
Y290067D01*
X232315D01*
Y290191D01*
X232377D01*
Y290315D01*
X232439D01*
Y290439D01*
X232502D01*
Y290564D01*
X232564D01*
Y290626D01*
X232626D01*
Y290750D01*
X232688D01*
Y290812D01*
X232750D01*
Y290874D01*
X232812D01*
Y290936D01*
X232936D01*
Y290998D01*
X233061D01*
Y291060D01*
X233558D01*
Y290998D01*
D02*
G37*
G36*
X230451Y290936D02*
X230576D01*
Y290874D01*
X230700D01*
Y290812D01*
X230762D01*
Y290750D01*
X230824D01*
Y290688D01*
X230886D01*
Y290626D01*
X230948D01*
Y290004D01*
X230886D01*
Y289880D01*
X230824D01*
Y289818D01*
X230762D01*
Y289756D01*
X230638D01*
Y289694D01*
X230514D01*
Y289632D01*
X230638D01*
Y289570D01*
X230762D01*
Y289508D01*
X230824D01*
Y289445D01*
X230886D01*
Y289383D01*
X230948D01*
Y289321D01*
X231011D01*
Y289135D01*
X231073D01*
Y288762D01*
X231011D01*
Y288638D01*
X230948D01*
Y288513D01*
X230886D01*
Y288451D01*
X230824D01*
Y288389D01*
X230700D01*
Y288327D01*
X230576D01*
Y288265D01*
X230327D01*
Y288203D01*
X227532D01*
Y288762D01*
Y288824D01*
Y290998D01*
X230451D01*
Y290936D01*
D02*
G37*
G36*
X223548Y318020D02*
X223233D01*
Y318379D01*
X223548D01*
Y318020D01*
D02*
G37*
G36*
X228550Y317713D02*
X228591Y317706D01*
X228639Y317691D01*
X228691Y317673D01*
X228750Y317647D01*
X228813Y317613D01*
X228698Y317325D01*
X228695Y317329D01*
X228680Y317336D01*
X228658Y317347D01*
X228628Y317358D01*
X228595Y317369D01*
X228554Y317380D01*
X228513Y317388D01*
X228472Y317391D01*
X228454D01*
X228435Y317388D01*
X228410Y317384D01*
X228384Y317377D01*
X228350Y317366D01*
X228317Y317351D01*
X228288Y317329D01*
X228284Y317325D01*
X228273Y317317D01*
X228262Y317303D01*
X228243Y317284D01*
X228225Y317258D01*
X228206Y317229D01*
X228188Y317195D01*
X228173Y317155D01*
X228169Y317147D01*
X228165Y317125D01*
X228158Y317092D01*
X228147Y317047D01*
X228136Y316992D01*
X228128Y316929D01*
X228125Y316862D01*
X228121Y316788D01*
Y315819D01*
X227806D01*
Y317676D01*
X228091D01*
Y317395D01*
X228095Y317399D01*
X228110Y317425D01*
X228128Y317458D01*
X228158Y317499D01*
X228188Y317539D01*
X228221Y317584D01*
X228254Y317621D01*
X228288Y317650D01*
X228291Y317654D01*
X228302Y317661D01*
X228325Y317673D01*
X228347Y317684D01*
X228376Y317695D01*
X228413Y317706D01*
X228450Y317713D01*
X228491Y317717D01*
X228517D01*
X228550Y317713D01*
D02*
G37*
G36*
X222782D02*
X222823Y317706D01*
X222871Y317691D01*
X222922Y317673D01*
X222982Y317647D01*
X223045Y317613D01*
X222930Y317325D01*
X222926Y317329D01*
X222911Y317336D01*
X222889Y317347D01*
X222860Y317358D01*
X222826Y317369D01*
X222786Y317380D01*
X222745Y317388D01*
X222704Y317391D01*
X222686D01*
X222667Y317388D01*
X222641Y317384D01*
X222615Y317377D01*
X222582Y317366D01*
X222549Y317351D01*
X222519Y317329D01*
X222516Y317325D01*
X222504Y317317D01*
X222493Y317303D01*
X222475Y317284D01*
X222456Y317258D01*
X222438Y317229D01*
X222419Y317195D01*
X222405Y317155D01*
X222401Y317147D01*
X222397Y317125D01*
X222390Y317092D01*
X222379Y317047D01*
X222368Y316992D01*
X222360Y316929D01*
X222356Y316862D01*
X222353Y316788D01*
Y315819D01*
X222038D01*
Y317676D01*
X222323D01*
Y317395D01*
X222327Y317399D01*
X222342Y317425D01*
X222360Y317458D01*
X222390Y317499D01*
X222419Y317539D01*
X222453Y317584D01*
X222486Y317621D01*
X222519Y317650D01*
X222523Y317654D01*
X222534Y317661D01*
X222556Y317673D01*
X222578Y317684D01*
X222608Y317695D01*
X222645Y317706D01*
X222682Y317713D01*
X222723Y317717D01*
X222749D01*
X222782Y317713D01*
D02*
G37*
G36*
X240146Y315819D02*
X239846D01*
X239147Y317676D01*
X239480D01*
X239880Y316563D01*
Y316559D01*
X239883Y316555D01*
X239887Y316544D01*
X239891Y316533D01*
X239902Y316496D01*
X239917Y316448D01*
X239935Y316392D01*
X239957Y316330D01*
X239976Y316259D01*
X239998Y316189D01*
X240002Y316196D01*
X240005Y316215D01*
X240017Y316244D01*
X240028Y316289D01*
X240046Y316337D01*
X240065Y316400D01*
X240090Y316466D01*
X240116Y316540D01*
X240527Y317676D01*
X240853D01*
X240146Y315819D01*
D02*
G37*
G36*
X224832D02*
X224532D01*
X223833Y317676D01*
X224166D01*
X224565Y316563D01*
Y316559D01*
X224569Y316555D01*
X224573Y316544D01*
X224576Y316533D01*
X224587Y316496D01*
X224602Y316448D01*
X224621Y316392D01*
X224643Y316330D01*
X224661Y316259D01*
X224684Y316189D01*
X224687Y316196D01*
X224691Y316215D01*
X224702Y316244D01*
X224713Y316289D01*
X224732Y316337D01*
X224750Y316400D01*
X224776Y316466D01*
X224802Y316540D01*
X225213Y317676D01*
X225538D01*
X224832Y315819D01*
D02*
G37*
G36*
X244183Y318376D02*
X244212D01*
X244279Y318368D01*
X244353Y318361D01*
X244431Y318346D01*
X244508Y318327D01*
X244579Y318302D01*
X244582D01*
X244586Y318298D01*
X244608Y318287D01*
X244641Y318268D01*
X244678Y318242D01*
X244723Y318209D01*
X244771Y318168D01*
X244815Y318117D01*
X244856Y318061D01*
X244860Y318054D01*
X244871Y318032D01*
X244889Y318002D01*
X244908Y317957D01*
X244926Y317906D01*
X244945Y317850D01*
X244956Y317787D01*
X244960Y317724D01*
Y317717D01*
Y317699D01*
X244956Y317665D01*
X244949Y317624D01*
X244937Y317576D01*
X244919Y317525D01*
X244897Y317473D01*
X244867Y317417D01*
X244864Y317410D01*
X244852Y317395D01*
X244830Y317366D01*
X244801Y317336D01*
X244764Y317299D01*
X244719Y317258D01*
X244664Y317221D01*
X244601Y317184D01*
X244604D01*
X244612Y317180D01*
X244623Y317177D01*
X244638Y317169D01*
X244682Y317155D01*
X244734Y317129D01*
X244790Y317095D01*
X244852Y317055D01*
X244908Y317007D01*
X244960Y316947D01*
X244963Y316940D01*
X244978Y316918D01*
X245000Y316884D01*
X245023Y316840D01*
X245045Y316781D01*
X245067Y316718D01*
X245082Y316644D01*
X245086Y316563D01*
Y316559D01*
Y316555D01*
Y316533D01*
X245082Y316496D01*
X245074Y316452D01*
X245067Y316400D01*
X245052Y316344D01*
X245034Y316285D01*
X245008Y316226D01*
X245004Y316218D01*
X244993Y316200D01*
X244978Y316174D01*
X244956Y316137D01*
X244926Y316100D01*
X244897Y316059D01*
X244860Y316019D01*
X244819Y315985D01*
X244815Y315982D01*
X244801Y315971D01*
X244775Y315956D01*
X244741Y315941D01*
X244701Y315919D01*
X244653Y315897D01*
X244601Y315878D01*
X244538Y315860D01*
X244531D01*
X244508Y315852D01*
X244471Y315848D01*
X244423Y315841D01*
X244364Y315834D01*
X244294Y315826D01*
X244216Y315823D01*
X244127Y315819D01*
X243150D01*
Y318379D01*
X244157D01*
X244183Y318376D01*
D02*
G37*
G36*
X241582Y315819D02*
X241223D01*
Y316178D01*
X241582D01*
Y315819D01*
D02*
G37*
G36*
X236032Y318376D02*
X236065D01*
X236143Y318372D01*
X236224Y318361D01*
X236313Y318350D01*
X236394Y318331D01*
X236435Y318320D01*
X236468Y318309D01*
X236472D01*
X236476Y318305D01*
X236498Y318294D01*
X236531Y318279D01*
X236572Y318253D01*
X236616Y318220D01*
X236664Y318176D01*
X236709Y318124D01*
X236753Y318065D01*
Y318061D01*
X236757Y318057D01*
X236772Y318035D01*
X236786Y317998D01*
X236809Y317950D01*
X236827Y317895D01*
X236846Y317828D01*
X236857Y317758D01*
X236860Y317680D01*
Y317676D01*
Y317669D01*
Y317654D01*
X236857Y317636D01*
Y317610D01*
X236853Y317584D01*
X236838Y317521D01*
X236816Y317447D01*
X236786Y317369D01*
X236742Y317291D01*
X236712Y317254D01*
X236683Y317217D01*
X236679Y317214D01*
X236675Y317210D01*
X236664Y317199D01*
X236649Y317188D01*
X236631Y317173D01*
X236609Y317158D01*
X236579Y317140D01*
X236550Y317118D01*
X236513Y317099D01*
X236472Y317081D01*
X236427Y317058D01*
X236379Y317040D01*
X236324Y317025D01*
X236268Y317007D01*
X236206Y316996D01*
X236139Y316984D01*
X236146Y316981D01*
X236161Y316973D01*
X236183Y316958D01*
X236213Y316944D01*
X236280Y316903D01*
X236313Y316877D01*
X236342Y316855D01*
X236350Y316847D01*
X236368Y316829D01*
X236398Y316799D01*
X236435Y316762D01*
X236476Y316711D01*
X236524Y316655D01*
X236572Y316588D01*
X236624Y316514D01*
X237064Y315819D01*
X236642D01*
X236305Y316352D01*
Y316355D01*
X236298Y316363D01*
X236291Y316374D01*
X236280Y316389D01*
X236254Y316429D01*
X236220Y316481D01*
X236180Y316537D01*
X236139Y316596D01*
X236098Y316651D01*
X236061Y316703D01*
X236057Y316707D01*
X236046Y316722D01*
X236028Y316744D01*
X236002Y316770D01*
X235946Y316825D01*
X235917Y316851D01*
X235887Y316873D01*
X235884Y316877D01*
X235876Y316881D01*
X235861Y316888D01*
X235839Y316899D01*
X235817Y316910D01*
X235791Y316921D01*
X235732Y316940D01*
X235728D01*
X235721Y316944D01*
X235706D01*
X235687Y316947D01*
X235662Y316951D01*
X235632D01*
X235591Y316955D01*
X235155D01*
Y315819D01*
X234814D01*
Y318379D01*
X236002D01*
X236032Y318376D01*
D02*
G37*
G36*
X230434Y315819D02*
X230093D01*
Y318379D01*
X230434D01*
Y315819D01*
D02*
G37*
G36*
X223548D02*
X223233D01*
Y317676D01*
X223548D01*
Y315819D01*
D02*
G37*
G36*
X220551Y318376D02*
X220625Y318372D01*
X220699Y318365D01*
X220773Y318353D01*
X220836Y318342D01*
X220839D01*
X220847Y318339D01*
X220858D01*
X220873Y318331D01*
X220913Y318320D01*
X220965Y318302D01*
X221024Y318276D01*
X221087Y318242D01*
X221150Y318205D01*
X221209Y318157D01*
X221213Y318154D01*
X221217Y318150D01*
X221228Y318139D01*
X221243Y318128D01*
X221280Y318091D01*
X221324Y318039D01*
X221372Y317976D01*
X221424Y317902D01*
X221472Y317817D01*
X221513Y317721D01*
Y317717D01*
X221516Y317710D01*
X221524Y317695D01*
X221528Y317673D01*
X221539Y317647D01*
X221546Y317617D01*
X221553Y317584D01*
X221565Y317543D01*
X221576Y317502D01*
X221583Y317454D01*
X221602Y317351D01*
X221613Y317236D01*
X221616Y317110D01*
Y317107D01*
Y317099D01*
Y317081D01*
Y317062D01*
X221613Y317036D01*
Y317007D01*
X221609Y316936D01*
X221598Y316855D01*
X221587Y316770D01*
X221568Y316681D01*
X221546Y316592D01*
Y316588D01*
X221542Y316581D01*
X221539Y316570D01*
X221535Y316555D01*
X221520Y316514D01*
X221498Y316463D01*
X221476Y316404D01*
X221446Y316344D01*
X221409Y316281D01*
X221372Y316222D01*
X221369Y316215D01*
X221354Y316196D01*
X221332Y316170D01*
X221302Y316137D01*
X221269Y316100D01*
X221228Y316063D01*
X221187Y316022D01*
X221139Y315989D01*
X221132Y315985D01*
X221117Y315974D01*
X221091Y315960D01*
X221054Y315941D01*
X221010Y315919D01*
X220958Y315900D01*
X220899Y315878D01*
X220832Y315860D01*
X220825D01*
X220813Y315856D01*
X220802Y315852D01*
X220765Y315848D01*
X220714Y315841D01*
X220654Y315834D01*
X220584Y315826D01*
X220506Y315823D01*
X220421Y315819D01*
X219500D01*
Y318379D01*
X220484D01*
X220551Y318376D01*
D02*
G37*
G36*
X238174Y317713D02*
X238204Y317710D01*
X238241Y317702D01*
X238281Y317695D01*
X238329Y317684D01*
X238374Y317673D01*
X238425Y317654D01*
X238474Y317636D01*
X238525Y317610D01*
X238577Y317580D01*
X238629Y317547D01*
X238677Y317506D01*
X238721Y317462D01*
X238725Y317458D01*
X238733Y317451D01*
X238744Y317436D01*
X238758Y317414D01*
X238777Y317388D01*
X238795Y317358D01*
X238818Y317321D01*
X238840Y317277D01*
X238862Y317229D01*
X238884Y317177D01*
X238903Y317118D01*
X238921Y317055D01*
X238936Y316984D01*
X238947Y316910D01*
X238955Y316833D01*
X238958Y316748D01*
Y316744D01*
Y316729D01*
Y316703D01*
X238955Y316666D01*
X237567D01*
Y316663D01*
Y316651D01*
X237571Y316637D01*
Y316614D01*
X237575Y316588D01*
X237582Y316559D01*
X237593Y316492D01*
X237615Y316418D01*
X237645Y316337D01*
X237685Y316263D01*
X237737Y316196D01*
X237741D01*
X237745Y316189D01*
X237767Y316170D01*
X237800Y316144D01*
X237845Y316119D01*
X237904Y316089D01*
X237970Y316063D01*
X238044Y316045D01*
X238085Y316041D01*
X238129Y316037D01*
X238159D01*
X238192Y316041D01*
X238233Y316048D01*
X238278Y316059D01*
X238329Y316074D01*
X238377Y316096D01*
X238425Y316126D01*
X238429Y316130D01*
X238448Y316144D01*
X238470Y316167D01*
X238496Y316196D01*
X238525Y316237D01*
X238559Y316289D01*
X238592Y316348D01*
X238622Y316418D01*
X238947Y316378D01*
Y316374D01*
X238944Y316367D01*
X238940Y316352D01*
X238932Y316330D01*
X238921Y316307D01*
X238910Y316278D01*
X238881Y316215D01*
X238844Y316144D01*
X238792Y316071D01*
X238733Y316000D01*
X238659Y315934D01*
X238655D01*
X238648Y315926D01*
X238636Y315919D01*
X238622Y315908D01*
X238599Y315897D01*
X238577Y315885D01*
X238548Y315871D01*
X238514Y315856D01*
X238477Y315841D01*
X238440Y315826D01*
X238348Y315804D01*
X238244Y315786D01*
X238129Y315778D01*
X238089D01*
X238063Y315782D01*
X238030Y315786D01*
X237989Y315793D01*
X237945Y315800D01*
X237896Y315808D01*
X237793Y315837D01*
X237737Y315860D01*
X237685Y315882D01*
X237630Y315911D01*
X237578Y315945D01*
X237530Y315982D01*
X237482Y316026D01*
X237478Y316030D01*
X237471Y316037D01*
X237460Y316052D01*
X237445Y316074D01*
X237426Y316100D01*
X237408Y316130D01*
X237386Y316167D01*
X237364Y316207D01*
X237341Y316255D01*
X237319Y316307D01*
X237301Y316367D01*
X237282Y316429D01*
X237267Y316496D01*
X237256Y316570D01*
X237249Y316648D01*
X237245Y316729D01*
Y316733D01*
Y316751D01*
Y316774D01*
X237249Y316807D01*
X237253Y316847D01*
X237256Y316892D01*
X237264Y316944D01*
X237275Y316996D01*
X237304Y317114D01*
X237323Y317173D01*
X237345Y317236D01*
X237375Y317295D01*
X237408Y317351D01*
X237445Y317406D01*
X237486Y317458D01*
X237489Y317462D01*
X237497Y317469D01*
X237512Y317480D01*
X237530Y317499D01*
X237552Y317517D01*
X237582Y317539D01*
X237615Y317565D01*
X237656Y317587D01*
X237697Y317613D01*
X237745Y317636D01*
X237796Y317658D01*
X237852Y317676D01*
X237911Y317695D01*
X237974Y317706D01*
X238041Y317713D01*
X238111Y317717D01*
X238148D01*
X238174Y317713D01*
D02*
G37*
G36*
X226641D02*
X226671Y317710D01*
X226708Y317702D01*
X226748Y317695D01*
X226796Y317684D01*
X226841Y317673D01*
X226893Y317654D01*
X226941Y317636D01*
X226993Y317610D01*
X227044Y317580D01*
X227096Y317547D01*
X227144Y317506D01*
X227189Y317462D01*
X227192Y317458D01*
X227200Y317451D01*
X227211Y317436D01*
X227226Y317414D01*
X227244Y317388D01*
X227263Y317358D01*
X227285Y317321D01*
X227307Y317277D01*
X227329Y317229D01*
X227351Y317177D01*
X227370Y317118D01*
X227388Y317055D01*
X227403Y316984D01*
X227414Y316910D01*
X227422Y316833D01*
X227425Y316748D01*
Y316744D01*
Y316729D01*
Y316703D01*
X227422Y316666D01*
X226034D01*
Y316663D01*
Y316651D01*
X226038Y316637D01*
Y316614D01*
X226042Y316588D01*
X226049Y316559D01*
X226060Y316492D01*
X226082Y316418D01*
X226112Y316337D01*
X226153Y316263D01*
X226204Y316196D01*
X226208D01*
X226212Y316189D01*
X226234Y316170D01*
X226267Y316144D01*
X226312Y316119D01*
X226371Y316089D01*
X226437Y316063D01*
X226512Y316045D01*
X226552Y316041D01*
X226597Y316037D01*
X226626D01*
X226659Y316041D01*
X226700Y316048D01*
X226745Y316059D01*
X226796Y316074D01*
X226845Y316096D01*
X226893Y316126D01*
X226896Y316130D01*
X226915Y316144D01*
X226937Y316167D01*
X226963Y316196D01*
X226993Y316237D01*
X227026Y316289D01*
X227059Y316348D01*
X227089Y316418D01*
X227414Y316378D01*
Y316374D01*
X227411Y316367D01*
X227407Y316352D01*
X227399Y316330D01*
X227388Y316307D01*
X227377Y316278D01*
X227348Y316215D01*
X227311Y316144D01*
X227259Y316071D01*
X227200Y316000D01*
X227126Y315934D01*
X227122D01*
X227115Y315926D01*
X227103Y315919D01*
X227089Y315908D01*
X227066Y315897D01*
X227044Y315885D01*
X227015Y315871D01*
X226981Y315856D01*
X226944Y315841D01*
X226907Y315826D01*
X226815Y315804D01*
X226711Y315786D01*
X226597Y315778D01*
X226556D01*
X226530Y315782D01*
X226497Y315786D01*
X226456Y315793D01*
X226412Y315800D01*
X226363Y315808D01*
X226260Y315837D01*
X226204Y315860D01*
X226153Y315882D01*
X226097Y315911D01*
X226045Y315945D01*
X225997Y315982D01*
X225949Y316026D01*
X225945Y316030D01*
X225938Y316037D01*
X225927Y316052D01*
X225912Y316074D01*
X225894Y316100D01*
X225875Y316130D01*
X225853Y316167D01*
X225831Y316207D01*
X225809Y316255D01*
X225786Y316307D01*
X225768Y316367D01*
X225749Y316429D01*
X225734Y316496D01*
X225723Y316570D01*
X225716Y316648D01*
X225712Y316729D01*
Y316733D01*
Y316751D01*
Y316774D01*
X225716Y316807D01*
X225720Y316847D01*
X225723Y316892D01*
X225731Y316944D01*
X225742Y316996D01*
X225771Y317114D01*
X225790Y317173D01*
X225812Y317236D01*
X225842Y317295D01*
X225875Y317351D01*
X225912Y317406D01*
X225953Y317458D01*
X225957Y317462D01*
X225964Y317469D01*
X225979Y317480D01*
X225997Y317499D01*
X226019Y317517D01*
X226049Y317539D01*
X226082Y317565D01*
X226123Y317587D01*
X226164Y317613D01*
X226212Y317636D01*
X226264Y317658D01*
X226319Y317676D01*
X226378Y317695D01*
X226441Y317706D01*
X226508Y317713D01*
X226578Y317717D01*
X226615D01*
X226641Y317713D01*
D02*
G37*
G36*
X232213Y318420D02*
X232246D01*
X232280Y318416D01*
X232324Y318409D01*
X232369Y318402D01*
X232465Y318383D01*
X232576Y318353D01*
X232683Y318309D01*
X232739Y318283D01*
X232794Y318253D01*
X232798Y318250D01*
X232805Y318246D01*
X232820Y318235D01*
X232842Y318224D01*
X232864Y318205D01*
X232894Y318183D01*
X232957Y318131D01*
X233024Y318065D01*
X233098Y317983D01*
X233168Y317887D01*
X233227Y317780D01*
Y317776D01*
X233234Y317765D01*
X233242Y317750D01*
X233249Y317728D01*
X233264Y317699D01*
X233275Y317665D01*
X233290Y317624D01*
X233305Y317580D01*
X233316Y317532D01*
X233331Y317480D01*
X233345Y317421D01*
X233356Y317362D01*
X233371Y317232D01*
X233379Y317092D01*
Y317088D01*
Y317073D01*
Y317055D01*
X233375Y317025D01*
Y316992D01*
X233371Y316951D01*
X233364Y316907D01*
X233360Y316859D01*
X233342Y316751D01*
X233312Y316633D01*
X233271Y316514D01*
X233249Y316455D01*
X233220Y316396D01*
Y316392D01*
X233212Y316381D01*
X233205Y316367D01*
X233190Y316344D01*
X233175Y316318D01*
X233157Y316293D01*
X233105Y316222D01*
X233042Y316148D01*
X232968Y316071D01*
X232879Y315997D01*
X232776Y315930D01*
X232772D01*
X232765Y315922D01*
X232746Y315915D01*
X232724Y315904D01*
X232698Y315893D01*
X232668Y315882D01*
X232631Y315867D01*
X232591Y315852D01*
X232546Y315837D01*
X232498Y315823D01*
X232391Y315800D01*
X232276Y315782D01*
X232154Y315774D01*
X232117D01*
X232095Y315778D01*
X232062D01*
X232025Y315786D01*
X231984Y315789D01*
X231936Y315797D01*
X231836Y315819D01*
X231729Y315848D01*
X231617Y315893D01*
X231562Y315919D01*
X231506Y315948D01*
X231503Y315952D01*
X231495Y315956D01*
X231481Y315967D01*
X231458Y315982D01*
X231436Y315997D01*
X231410Y316019D01*
X231347Y316074D01*
X231277Y316141D01*
X231203Y316222D01*
X231136Y316315D01*
X231074Y316422D01*
Y316426D01*
X231066Y316437D01*
X231059Y316452D01*
X231051Y316474D01*
X231040Y316503D01*
X231029Y316537D01*
X231014Y316574D01*
X231003Y316614D01*
X230989Y316663D01*
X230974Y316711D01*
X230951Y316822D01*
X230937Y316936D01*
X230929Y317062D01*
Y317066D01*
Y317070D01*
Y317092D01*
X230933Y317125D01*
Y317169D01*
X230940Y317221D01*
X230948Y317284D01*
X230959Y317354D01*
X230974Y317428D01*
X230989Y317506D01*
X231011Y317587D01*
X231040Y317669D01*
X231074Y317754D01*
X231111Y317835D01*
X231159Y317917D01*
X231210Y317991D01*
X231270Y318061D01*
X231273Y318065D01*
X231284Y318076D01*
X231307Y318094D01*
X231333Y318117D01*
X231366Y318146D01*
X231407Y318176D01*
X231455Y318209D01*
X231510Y318242D01*
X231569Y318276D01*
X231636Y318309D01*
X231710Y318339D01*
X231788Y318368D01*
X231873Y318390D01*
X231962Y318409D01*
X232054Y318420D01*
X232154Y318424D01*
X232187D01*
X232213Y318420D01*
D02*
G37*
G36*
X228598Y315259D02*
X228624D01*
X228695Y315251D01*
X228772Y315240D01*
X228854Y315222D01*
X228942Y315199D01*
X229024Y315170D01*
X229028D01*
X229035Y315166D01*
X229046Y315159D01*
X229061Y315151D01*
X229098Y315133D01*
X229146Y315100D01*
X229201Y315063D01*
X229257Y315015D01*
X229309Y314959D01*
X229357Y314896D01*
Y314892D01*
X229361Y314889D01*
X229368Y314878D01*
X229375Y314866D01*
X229394Y314829D01*
X229416Y314781D01*
X229442Y314722D01*
X229460Y314652D01*
X229479Y314578D01*
X229486Y314496D01*
X229161Y314471D01*
Y314474D01*
Y314482D01*
X229157Y314493D01*
X229153Y314511D01*
X229142Y314552D01*
X229127Y314608D01*
X229105Y314667D01*
X229072Y314726D01*
X229031Y314781D01*
X228979Y314833D01*
X228972Y314837D01*
X228954Y314852D01*
X228917Y314874D01*
X228868Y314896D01*
X228805Y314918D01*
X228731Y314941D01*
X228639Y314955D01*
X228535Y314959D01*
X228484D01*
X228461Y314955D01*
X228432Y314952D01*
X228365Y314944D01*
X228291Y314929D01*
X228217Y314911D01*
X228147Y314881D01*
X228117Y314863D01*
X228088Y314844D01*
X228080Y314841D01*
X228065Y314826D01*
X228043Y314800D01*
X228021Y314770D01*
X227995Y314730D01*
X227973Y314685D01*
X227958Y314633D01*
X227951Y314574D01*
Y314567D01*
Y314552D01*
X227955Y314526D01*
X227962Y314496D01*
X227973Y314459D01*
X227992Y314422D01*
X228014Y314386D01*
X228047Y314349D01*
X228051Y314345D01*
X228069Y314334D01*
X228084Y314323D01*
X228099Y314315D01*
X228121Y314304D01*
X228147Y314289D01*
X228180Y314278D01*
X228217Y314263D01*
X228258Y314249D01*
X228306Y314230D01*
X228358Y314215D01*
X228417Y314197D01*
X228484Y314182D01*
X228558Y314163D01*
X228561D01*
X228576Y314160D01*
X228598Y314156D01*
X228624Y314149D01*
X228658Y314141D01*
X228698Y314130D01*
X228739Y314119D01*
X228783Y314108D01*
X228879Y314082D01*
X228972Y314056D01*
X229016Y314041D01*
X229057Y314027D01*
X229094Y314016D01*
X229124Y314001D01*
X229127D01*
X229135Y313997D01*
X229146Y313990D01*
X229161Y313982D01*
X229201Y313960D01*
X229250Y313930D01*
X229305Y313890D01*
X229361Y313845D01*
X229412Y313793D01*
X229457Y313738D01*
X229460Y313731D01*
X229475Y313712D01*
X229490Y313679D01*
X229512Y313634D01*
X229531Y313583D01*
X229549Y313520D01*
X229560Y313449D01*
X229564Y313375D01*
Y313372D01*
Y313368D01*
Y313357D01*
Y313342D01*
X229557Y313301D01*
X229549Y313250D01*
X229534Y313190D01*
X229516Y313127D01*
X229486Y313061D01*
X229446Y312991D01*
Y312987D01*
X229442Y312983D01*
X229423Y312961D01*
X229398Y312928D01*
X229361Y312891D01*
X229312Y312846D01*
X229253Y312798D01*
X229187Y312754D01*
X229109Y312713D01*
X229105D01*
X229098Y312709D01*
X229087Y312706D01*
X229072Y312698D01*
X229050Y312691D01*
X229024Y312680D01*
X228965Y312665D01*
X228894Y312647D01*
X228809Y312628D01*
X228717Y312617D01*
X228617Y312613D01*
X228558D01*
X228528Y312617D01*
X228495D01*
X228458Y312621D01*
X228413Y312624D01*
X228321Y312639D01*
X228225Y312654D01*
X228128Y312680D01*
X228036Y312713D01*
X228032D01*
X228025Y312717D01*
X228014Y312724D01*
X227999Y312732D01*
X227955Y312754D01*
X227903Y312787D01*
X227843Y312831D01*
X227781Y312883D01*
X227721Y312946D01*
X227666Y313017D01*
Y313020D01*
X227659Y313028D01*
X227655Y313039D01*
X227644Y313053D01*
X227636Y313072D01*
X227625Y313094D01*
X227599Y313150D01*
X227573Y313220D01*
X227551Y313298D01*
X227536Y313387D01*
X227529Y313479D01*
X227847Y313509D01*
Y313505D01*
Y313501D01*
X227851Y313490D01*
Y313475D01*
X227858Y313442D01*
X227869Y313394D01*
X227884Y313346D01*
X227899Y313290D01*
X227925Y313239D01*
X227951Y313190D01*
X227955Y313187D01*
X227966Y313172D01*
X227984Y313146D01*
X228014Y313120D01*
X228051Y313087D01*
X228091Y313053D01*
X228147Y313020D01*
X228206Y312991D01*
X228210D01*
X228214Y312987D01*
X228225Y312983D01*
X228236Y312980D01*
X228273Y312968D01*
X228321Y312954D01*
X228380Y312939D01*
X228447Y312928D01*
X228521Y312920D01*
X228602Y312917D01*
X228635D01*
X228672Y312920D01*
X228717Y312924D01*
X228768Y312931D01*
X228828Y312939D01*
X228887Y312954D01*
X228942Y312972D01*
X228950Y312976D01*
X228968Y312983D01*
X228994Y312998D01*
X229028Y313013D01*
X229061Y313039D01*
X229098Y313065D01*
X229135Y313094D01*
X229164Y313131D01*
X229168Y313135D01*
X229175Y313150D01*
X229187Y313168D01*
X229201Y313198D01*
X229216Y313227D01*
X229227Y313264D01*
X229235Y313305D01*
X229238Y313350D01*
Y313353D01*
Y313372D01*
X229235Y313394D01*
X229231Y313423D01*
X229220Y313453D01*
X229209Y313490D01*
X229190Y313527D01*
X229164Y313560D01*
X229161Y313564D01*
X229150Y313575D01*
X229135Y313590D01*
X229109Y313612D01*
X229079Y313634D01*
X229039Y313660D01*
X228991Y313686D01*
X228935Y313708D01*
X228931Y313712D01*
X228913Y313716D01*
X228883Y313727D01*
X228865Y313731D01*
X228839Y313738D01*
X228813Y313749D01*
X228780Y313756D01*
X228743Y313768D01*
X228698Y313779D01*
X228654Y313790D01*
X228602Y313805D01*
X228543Y313819D01*
X228480Y313834D01*
X228476D01*
X228465Y313838D01*
X228447Y313842D01*
X228424Y313849D01*
X228395Y313856D01*
X228362Y313864D01*
X228288Y313886D01*
X228206Y313912D01*
X228121Y313938D01*
X228047Y313964D01*
X228014Y313979D01*
X227984Y313993D01*
X227980D01*
X227977Y313997D01*
X227955Y314012D01*
X227921Y314030D01*
X227884Y314060D01*
X227840Y314093D01*
X227795Y314134D01*
X227751Y314182D01*
X227714Y314234D01*
X227710Y314241D01*
X227699Y314260D01*
X227684Y314289D01*
X227670Y314326D01*
X227655Y314374D01*
X227640Y314430D01*
X227629Y314489D01*
X227625Y314552D01*
Y314556D01*
Y314559D01*
Y314570D01*
Y314585D01*
X227633Y314622D01*
X227640Y314670D01*
X227651Y314726D01*
X227670Y314789D01*
X227695Y314852D01*
X227732Y314915D01*
Y314918D01*
X227736Y314922D01*
X227755Y314944D01*
X227781Y314974D01*
X227814Y315011D01*
X227858Y315052D01*
X227914Y315096D01*
X227980Y315137D01*
X228054Y315174D01*
X228058D01*
X228065Y315177D01*
X228077Y315181D01*
X228091Y315188D01*
X228110Y315196D01*
X228136Y315203D01*
X228191Y315218D01*
X228262Y315233D01*
X228343Y315248D01*
X228428Y315259D01*
X228524Y315262D01*
X228572D01*
X228598Y315259D01*
D02*
G37*
G36*
X227200Y314789D02*
X227115Y314312D01*
X226919D01*
X226841Y314789D01*
Y315218D01*
X227200D01*
Y314789D01*
D02*
G37*
G36*
X233479Y312658D02*
X233197D01*
Y312928D01*
X233194Y312924D01*
X233186Y312913D01*
X233175Y312898D01*
X233157Y312880D01*
X233135Y312857D01*
X233109Y312828D01*
X233079Y312802D01*
X233042Y312772D01*
X233001Y312743D01*
X232957Y312717D01*
X232909Y312691D01*
X232857Y312665D01*
X232798Y312647D01*
X232739Y312632D01*
X232672Y312621D01*
X232605Y312617D01*
X232579D01*
X232546Y312621D01*
X232505Y312624D01*
X232457Y312632D01*
X232406Y312643D01*
X232354Y312658D01*
X232298Y312680D01*
X232291Y312684D01*
X232276Y312691D01*
X232250Y312706D01*
X232221Y312724D01*
X232184Y312746D01*
X232150Y312772D01*
X232117Y312802D01*
X232087Y312835D01*
X232084Y312839D01*
X232076Y312854D01*
X232065Y312872D01*
X232050Y312902D01*
X232032Y312935D01*
X232017Y312976D01*
X232002Y313020D01*
X231991Y313068D01*
Y313072D01*
X231988Y313087D01*
X231984Y313109D01*
Y313139D01*
X231980Y313183D01*
X231976Y313231D01*
X231973Y313294D01*
Y313364D01*
Y314515D01*
X232287D01*
Y313483D01*
Y313479D01*
Y313472D01*
Y313460D01*
Y313442D01*
Y313401D01*
X232291Y313350D01*
Y313294D01*
X232295Y313239D01*
X232298Y313190D01*
X232306Y313150D01*
Y313146D01*
X232313Y313131D01*
X232320Y313109D01*
X232332Y313079D01*
X232350Y313050D01*
X232372Y313017D01*
X232398Y312987D01*
X232432Y312957D01*
X232435Y312954D01*
X232450Y312946D01*
X232469Y312935D01*
X232498Y312924D01*
X232531Y312909D01*
X232572Y312898D01*
X232616Y312891D01*
X232668Y312887D01*
X232694D01*
X232720Y312891D01*
X232753Y312894D01*
X232794Y312906D01*
X232839Y312917D01*
X232887Y312935D01*
X232935Y312957D01*
X232942Y312961D01*
X232957Y312972D01*
X232979Y312987D01*
X233005Y313009D01*
X233035Y313039D01*
X233064Y313072D01*
X233090Y313109D01*
X233112Y313153D01*
X233116Y313161D01*
X233120Y313176D01*
X233127Y313205D01*
X233138Y313246D01*
X233149Y313298D01*
X233157Y313361D01*
X233160Y313435D01*
X233164Y313520D01*
Y314515D01*
X233479D01*
Y312658D01*
D02*
G37*
G36*
X236627Y314552D02*
X236683Y314548D01*
X236746Y314541D01*
X236809Y314530D01*
X236872Y314515D01*
X236931Y314496D01*
X236938Y314493D01*
X236957Y314485D01*
X236982Y314474D01*
X237016Y314459D01*
X237053Y314437D01*
X237090Y314415D01*
X237123Y314386D01*
X237153Y314356D01*
X237156Y314352D01*
X237164Y314341D01*
X237175Y314323D01*
X237190Y314300D01*
X237208Y314267D01*
X237223Y314234D01*
X237238Y314193D01*
X237249Y314145D01*
Y314141D01*
X237253Y314130D01*
X237256Y314108D01*
X237260Y314078D01*
Y314038D01*
X237264Y313990D01*
X237267Y313927D01*
Y313856D01*
Y313435D01*
Y313431D01*
Y313416D01*
Y313394D01*
Y313364D01*
Y313331D01*
Y313290D01*
X237271Y313201D01*
Y313109D01*
X237275Y313017D01*
X237279Y312976D01*
Y312939D01*
X237282Y312906D01*
X237286Y312880D01*
Y312876D01*
X237290Y312861D01*
X237293Y312839D01*
X237304Y312809D01*
X237312Y312776D01*
X237327Y312739D01*
X237345Y312698D01*
X237364Y312658D01*
X237034D01*
X237031Y312661D01*
X237027Y312676D01*
X237019Y312695D01*
X237008Y312724D01*
X236997Y312757D01*
X236990Y312798D01*
X236982Y312843D01*
X236975Y312891D01*
X236971D01*
X236968Y312883D01*
X236946Y312865D01*
X236912Y312839D01*
X236868Y312806D01*
X236812Y312772D01*
X236757Y312735D01*
X236698Y312702D01*
X236635Y312676D01*
X236627Y312672D01*
X236605Y312669D01*
X236572Y312658D01*
X236531Y312647D01*
X236479Y312635D01*
X236420Y312628D01*
X236353Y312621D01*
X236287Y312617D01*
X236257D01*
X236235Y312621D01*
X236209D01*
X236180Y312624D01*
X236113Y312635D01*
X236039Y312654D01*
X235958Y312680D01*
X235884Y312717D01*
X235817Y312765D01*
X235810Y312772D01*
X235791Y312791D01*
X235765Y312824D01*
X235736Y312868D01*
X235706Y312924D01*
X235680Y312987D01*
X235662Y313065D01*
X235658Y313102D01*
X235654Y313146D01*
Y313153D01*
Y313168D01*
X235658Y313194D01*
X235662Y313227D01*
X235669Y313268D01*
X235680Y313309D01*
X235695Y313353D01*
X235713Y313394D01*
X235717Y313398D01*
X235724Y313412D01*
X235739Y313435D01*
X235758Y313460D01*
X235780Y313490D01*
X235810Y313520D01*
X235839Y313549D01*
X235876Y313575D01*
X235880Y313579D01*
X235895Y313586D01*
X235913Y313601D01*
X235943Y313616D01*
X235976Y313631D01*
X236017Y313649D01*
X236057Y313664D01*
X236106Y313679D01*
X236109D01*
X236124Y313683D01*
X236146Y313690D01*
X236176Y313694D01*
X236213Y313701D01*
X236261Y313708D01*
X236316Y313720D01*
X236383Y313727D01*
X236387D01*
X236402Y313731D01*
X236420D01*
X236446Y313734D01*
X236476Y313738D01*
X236513Y313745D01*
X236553Y313749D01*
X236598Y313756D01*
X236686Y313775D01*
X236783Y313793D01*
X236868Y313816D01*
X236909Y313827D01*
X236946Y313838D01*
Y313842D01*
Y313849D01*
X236949Y313871D01*
Y313897D01*
Y313912D01*
Y313919D01*
Y313923D01*
Y313927D01*
Y313949D01*
X236946Y313986D01*
X236938Y314027D01*
X236927Y314071D01*
X236909Y314115D01*
X236886Y314156D01*
X236857Y314189D01*
X236853Y314193D01*
X236835Y314208D01*
X236805Y314223D01*
X236768Y314245D01*
X236716Y314263D01*
X236657Y314282D01*
X236583Y314293D01*
X236498Y314297D01*
X236461D01*
X236424Y314293D01*
X236372Y314286D01*
X236320Y314278D01*
X236265Y314263D01*
X236213Y314245D01*
X236169Y314219D01*
X236165Y314215D01*
X236150Y314204D01*
X236132Y314186D01*
X236109Y314156D01*
X236087Y314119D01*
X236061Y314071D01*
X236039Y314012D01*
X236017Y313945D01*
X235710Y313986D01*
Y313990D01*
X235713Y313993D01*
Y314004D01*
X235717Y314019D01*
X235728Y314053D01*
X235743Y314101D01*
X235761Y314149D01*
X235784Y314200D01*
X235813Y314252D01*
X235847Y314300D01*
X235850Y314304D01*
X235865Y314319D01*
X235887Y314341D01*
X235917Y314371D01*
X235958Y314400D01*
X236006Y314430D01*
X236061Y314463D01*
X236124Y314489D01*
X236128D01*
X236132Y314493D01*
X236143Y314496D01*
X236157Y314500D01*
X236194Y314511D01*
X236246Y314522D01*
X236305Y314533D01*
X236379Y314545D01*
X236457Y314552D01*
X236546Y314556D01*
X236587D01*
X236627Y314552D01*
D02*
G37*
G36*
X235388Y314304D02*
X234381Y313127D01*
X234185Y312909D01*
X234208D01*
X234222Y312913D01*
X234263Y312917D01*
X234315Y312920D01*
X234378D01*
X234444Y312924D01*
X234585Y312928D01*
X235443D01*
Y312658D01*
X233801D01*
Y312909D01*
X234981Y314271D01*
X234947D01*
X234910Y314267D01*
X234862D01*
X234807Y314263D01*
X234748D01*
X234685Y314260D01*
X233871D01*
Y314515D01*
X235388D01*
Y314304D01*
D02*
G37*
G36*
X225427Y315214D02*
X225501Y315211D01*
X225575Y315203D01*
X225649Y315192D01*
X225712Y315181D01*
X225716D01*
X225723Y315177D01*
X225734D01*
X225749Y315170D01*
X225790Y315159D01*
X225842Y315140D01*
X225901Y315114D01*
X225964Y315081D01*
X226027Y315044D01*
X226086Y314996D01*
X226090Y314992D01*
X226093Y314989D01*
X226104Y314978D01*
X226119Y314966D01*
X226156Y314929D01*
X226201Y314878D01*
X226249Y314815D01*
X226301Y314741D01*
X226349Y314656D01*
X226389Y314559D01*
Y314556D01*
X226393Y314548D01*
X226400Y314533D01*
X226404Y314511D01*
X226415Y314485D01*
X226423Y314456D01*
X226430Y314422D01*
X226441Y314382D01*
X226452Y314341D01*
X226460Y314293D01*
X226478Y314189D01*
X226489Y314075D01*
X226493Y313949D01*
Y313945D01*
Y313938D01*
Y313919D01*
Y313901D01*
X226489Y313875D01*
Y313845D01*
X226486Y313775D01*
X226474Y313694D01*
X226463Y313609D01*
X226445Y313520D01*
X226423Y313431D01*
Y313427D01*
X226419Y313420D01*
X226415Y313409D01*
X226412Y313394D01*
X226397Y313353D01*
X226375Y313301D01*
X226352Y313242D01*
X226323Y313183D01*
X226286Y313120D01*
X226249Y313061D01*
X226245Y313053D01*
X226230Y313035D01*
X226208Y313009D01*
X226179Y312976D01*
X226145Y312939D01*
X226104Y312902D01*
X226064Y312861D01*
X226016Y312828D01*
X226008Y312824D01*
X225993Y312813D01*
X225968Y312798D01*
X225931Y312780D01*
X225886Y312757D01*
X225834Y312739D01*
X225775Y312717D01*
X225709Y312698D01*
X225701D01*
X225690Y312695D01*
X225679Y312691D01*
X225642Y312687D01*
X225590Y312680D01*
X225531Y312672D01*
X225461Y312665D01*
X225383Y312661D01*
X225298Y312658D01*
X224377D01*
Y315218D01*
X225361D01*
X225427Y315214D01*
D02*
G37*
G36*
X222793Y312658D02*
X222434D01*
Y313017D01*
X222793D01*
Y312658D01*
D02*
G37*
G36*
X230803Y314552D02*
X230837Y314548D01*
X230874Y314541D01*
X230914Y314533D01*
X230963Y314526D01*
X231063Y314493D01*
X231114Y314474D01*
X231166Y314448D01*
X231218Y314422D01*
X231270Y314386D01*
X231318Y314349D01*
X231366Y314304D01*
X231370Y314300D01*
X231377Y314293D01*
X231388Y314278D01*
X231403Y314260D01*
X231421Y314234D01*
X231444Y314200D01*
X231466Y314163D01*
X231488Y314123D01*
X231510Y314078D01*
X231532Y314023D01*
X231555Y313967D01*
X231573Y313905D01*
X231588Y313838D01*
X231599Y313768D01*
X231606Y313694D01*
X231610Y313612D01*
Y313609D01*
Y313597D01*
Y313579D01*
Y313553D01*
X231606Y313523D01*
X231603Y313486D01*
Y313449D01*
X231595Y313409D01*
X231584Y313316D01*
X231562Y313224D01*
X231536Y313131D01*
X231499Y313046D01*
Y313042D01*
X231495Y313039D01*
X231488Y313028D01*
X231481Y313013D01*
X231455Y312976D01*
X231421Y312931D01*
X231377Y312880D01*
X231322Y312828D01*
X231259Y312776D01*
X231185Y312728D01*
X231181D01*
X231177Y312724D01*
X231166Y312717D01*
X231148Y312709D01*
X231129Y312702D01*
X231107Y312695D01*
X231051Y312672D01*
X230989Y312654D01*
X230911Y312635D01*
X230829Y312621D01*
X230741Y312617D01*
X230704D01*
X230674Y312621D01*
X230641Y312624D01*
X230604Y312632D01*
X230559Y312639D01*
X230515Y312647D01*
X230415Y312676D01*
X230360Y312698D01*
X230308Y312720D01*
X230256Y312750D01*
X230204Y312783D01*
X230156Y312820D01*
X230108Y312865D01*
X230104Y312868D01*
X230097Y312876D01*
X230086Y312891D01*
X230071Y312913D01*
X230052Y312939D01*
X230034Y312968D01*
X230012Y313005D01*
X229990Y313050D01*
X229967Y313098D01*
X229945Y313153D01*
X229927Y313213D01*
X229908Y313276D01*
X229893Y313346D01*
X229882Y313420D01*
X229875Y313501D01*
X229871Y313586D01*
Y313594D01*
Y313609D01*
X229875Y313634D01*
Y313671D01*
X229878Y313712D01*
X229886Y313764D01*
X229893Y313816D01*
X229908Y313875D01*
X229923Y313934D01*
X229941Y313997D01*
X229964Y314064D01*
X229993Y314126D01*
X230023Y314186D01*
X230064Y314245D01*
X230104Y314300D01*
X230156Y314349D01*
X230160Y314352D01*
X230167Y314356D01*
X230182Y314367D01*
X230200Y314382D01*
X230223Y314397D01*
X230252Y314415D01*
X230282Y314434D01*
X230319Y314452D01*
X230360Y314471D01*
X230404Y314489D01*
X230504Y314522D01*
X230619Y314548D01*
X230678Y314552D01*
X230741Y314556D01*
X230778D01*
X230803Y314552D01*
D02*
G37*
G36*
X220784Y315259D02*
X220817D01*
X220850Y315255D01*
X220895Y315248D01*
X220939Y315240D01*
X221036Y315222D01*
X221146Y315192D01*
X221254Y315148D01*
X221309Y315122D01*
X221365Y315092D01*
X221369Y315089D01*
X221376Y315085D01*
X221391Y315074D01*
X221413Y315063D01*
X221435Y315044D01*
X221465Y315022D01*
X221528Y314970D01*
X221594Y314903D01*
X221668Y314822D01*
X221739Y314726D01*
X221798Y314619D01*
Y314615D01*
X221805Y314604D01*
X221813Y314589D01*
X221820Y314567D01*
X221835Y314537D01*
X221846Y314504D01*
X221861Y314463D01*
X221875Y314419D01*
X221886Y314371D01*
X221901Y314319D01*
X221916Y314260D01*
X221927Y314200D01*
X221942Y314071D01*
X221949Y313930D01*
Y313927D01*
Y313912D01*
Y313893D01*
X221946Y313864D01*
Y313830D01*
X221942Y313790D01*
X221935Y313745D01*
X221931Y313697D01*
X221912Y313590D01*
X221883Y313472D01*
X221842Y313353D01*
X221820Y313294D01*
X221790Y313235D01*
Y313231D01*
X221783Y313220D01*
X221776Y313205D01*
X221761Y313183D01*
X221746Y313157D01*
X221727Y313131D01*
X221676Y313061D01*
X221613Y312987D01*
X221539Y312909D01*
X221450Y312835D01*
X221346Y312769D01*
X221343D01*
X221335Y312761D01*
X221317Y312754D01*
X221294Y312743D01*
X221269Y312732D01*
X221239Y312720D01*
X221202Y312706D01*
X221161Y312691D01*
X221117Y312676D01*
X221069Y312661D01*
X220961Y312639D01*
X220847Y312621D01*
X220725Y312613D01*
X220688D01*
X220666Y312617D01*
X220632D01*
X220595Y312624D01*
X220554Y312628D01*
X220506Y312635D01*
X220407Y312658D01*
X220299Y312687D01*
X220188Y312732D01*
X220133Y312757D01*
X220077Y312787D01*
X220074Y312791D01*
X220066Y312794D01*
X220051Y312806D01*
X220029Y312820D01*
X220007Y312835D01*
X219981Y312857D01*
X219918Y312913D01*
X219848Y312980D01*
X219774Y313061D01*
X219707Y313153D01*
X219644Y313261D01*
Y313264D01*
X219637Y313276D01*
X219630Y313290D01*
X219622Y313313D01*
X219611Y313342D01*
X219600Y313375D01*
X219585Y313412D01*
X219574Y313453D01*
X219559Y313501D01*
X219544Y313549D01*
X219522Y313660D01*
X219507Y313775D01*
X219500Y313901D01*
Y313905D01*
Y313908D01*
Y313930D01*
X219504Y313964D01*
Y314008D01*
X219511Y314060D01*
X219518Y314123D01*
X219530Y314193D01*
X219544Y314267D01*
X219559Y314345D01*
X219581Y314426D01*
X219611Y314508D01*
X219644Y314593D01*
X219681Y314674D01*
X219729Y314756D01*
X219781Y314829D01*
X219840Y314900D01*
X219844Y314903D01*
X219855Y314915D01*
X219877Y314933D01*
X219903Y314955D01*
X219937Y314985D01*
X219977Y315015D01*
X220025Y315048D01*
X220081Y315081D01*
X220140Y315114D01*
X220207Y315148D01*
X220281Y315177D01*
X220358Y315207D01*
X220444Y315229D01*
X220532Y315248D01*
X220625Y315259D01*
X220725Y315262D01*
X220758D01*
X220784Y315259D01*
D02*
G37*
G36*
X229361Y311435D02*
X229401Y311428D01*
X229449Y311413D01*
X229501Y311394D01*
X229560Y311368D01*
X229623Y311335D01*
X229508Y311047D01*
X229505Y311050D01*
X229490Y311058D01*
X229468Y311069D01*
X229438Y311080D01*
X229405Y311091D01*
X229364Y311102D01*
X229324Y311109D01*
X229283Y311113D01*
X229264D01*
X229246Y311109D01*
X229220Y311106D01*
X229194Y311098D01*
X229161Y311087D01*
X229127Y311072D01*
X229098Y311050D01*
X229094Y311047D01*
X229083Y311039D01*
X229072Y311024D01*
X229053Y311006D01*
X229035Y310980D01*
X229016Y310950D01*
X228998Y310917D01*
X228983Y310876D01*
X228979Y310869D01*
X228976Y310847D01*
X228968Y310813D01*
X228957Y310769D01*
X228946Y310714D01*
X228939Y310651D01*
X228935Y310584D01*
X228931Y310510D01*
Y309541D01*
X228617D01*
Y311398D01*
X228902D01*
Y311117D01*
X228905Y311121D01*
X228920Y311146D01*
X228939Y311180D01*
X228968Y311221D01*
X228998Y311261D01*
X229031Y311306D01*
X229064Y311343D01*
X229098Y311372D01*
X229101Y311376D01*
X229113Y311383D01*
X229135Y311394D01*
X229157Y311405D01*
X229187Y311417D01*
X229224Y311428D01*
X229261Y311435D01*
X229301Y311439D01*
X229327D01*
X229361Y311435D01*
D02*
G37*
G36*
X221942Y309541D02*
X221616D01*
Y311683D01*
X220869Y309541D01*
X220566D01*
X219826Y311720D01*
Y309541D01*
X219500D01*
Y312101D01*
X220007D01*
X220614Y310284D01*
Y310281D01*
X220617Y310273D01*
X220621Y310262D01*
X220628Y310244D01*
X220643Y310199D01*
X220662Y310144D01*
X220680Y310081D01*
X220703Y310018D01*
X220721Y309959D01*
X220736Y309907D01*
X220740Y309914D01*
X220743Y309933D01*
X220754Y309966D01*
X220769Y310011D01*
X220788Y310070D01*
X220813Y310140D01*
X220839Y310222D01*
X220873Y310318D01*
X221487Y312101D01*
X221942D01*
Y309541D01*
D02*
G37*
G36*
X232117Y311184D02*
X232121Y311187D01*
X232128Y311195D01*
X232139Y311206D01*
X232158Y311224D01*
X232176Y311243D01*
X232202Y311265D01*
X232235Y311287D01*
X232269Y311313D01*
X232306Y311335D01*
X232346Y311357D01*
X232443Y311398D01*
X232494Y311417D01*
X232550Y311428D01*
X232609Y311435D01*
X232668Y311439D01*
X232702D01*
X232742Y311435D01*
X232790Y311428D01*
X232846Y311420D01*
X232905Y311405D01*
X232964Y311383D01*
X233024Y311357D01*
X233031Y311354D01*
X233049Y311343D01*
X233075Y311324D01*
X233109Y311298D01*
X233142Y311265D01*
X233179Y311228D01*
X233212Y311184D01*
X233242Y311132D01*
X233245Y311124D01*
X233253Y311106D01*
X233264Y311072D01*
X233275Y311024D01*
X233286Y310965D01*
X233297Y310895D01*
X233305Y310810D01*
X233308Y310714D01*
Y309541D01*
X232994D01*
Y310717D01*
Y310721D01*
Y310728D01*
Y310739D01*
Y310754D01*
X232990Y310795D01*
X232983Y310847D01*
X232968Y310902D01*
X232949Y310958D01*
X232924Y311013D01*
X232890Y311058D01*
X232887Y311061D01*
X232872Y311076D01*
X232850Y311095D01*
X232816Y311113D01*
X232776Y311135D01*
X232728Y311150D01*
X232668Y311165D01*
X232602Y311169D01*
X232579D01*
X232554Y311165D01*
X232517Y311161D01*
X232480Y311150D01*
X232435Y311139D01*
X232391Y311121D01*
X232343Y311095D01*
X232339Y311091D01*
X232324Y311080D01*
X232302Y311065D01*
X232276Y311043D01*
X232246Y311013D01*
X232217Y310980D01*
X232191Y310939D01*
X232169Y310895D01*
X232165Y310888D01*
X232161Y310873D01*
X232154Y310843D01*
X232143Y310806D01*
X232132Y310758D01*
X232124Y310699D01*
X232121Y310632D01*
X232117Y310555D01*
Y309541D01*
X231803D01*
Y312101D01*
X232117D01*
Y311184D01*
D02*
G37*
G36*
X230678Y311435D02*
X230733Y311431D01*
X230796Y311424D01*
X230859Y311413D01*
X230922Y311398D01*
X230981Y311380D01*
X230989Y311376D01*
X231007Y311368D01*
X231033Y311357D01*
X231066Y311343D01*
X231103Y311320D01*
X231140Y311298D01*
X231173Y311269D01*
X231203Y311239D01*
X231207Y311235D01*
X231214Y311224D01*
X231225Y311206D01*
X231240Y311184D01*
X231259Y311150D01*
X231273Y311117D01*
X231288Y311076D01*
X231299Y311028D01*
Y311024D01*
X231303Y311013D01*
X231307Y310991D01*
X231310Y310962D01*
Y310921D01*
X231314Y310873D01*
X231318Y310810D01*
Y310739D01*
Y310318D01*
Y310314D01*
Y310299D01*
Y310277D01*
Y310247D01*
Y310214D01*
Y310173D01*
X231322Y310085D01*
Y309992D01*
X231325Y309900D01*
X231329Y309859D01*
Y309822D01*
X231333Y309789D01*
X231336Y309763D01*
Y309759D01*
X231340Y309744D01*
X231344Y309722D01*
X231355Y309692D01*
X231362Y309659D01*
X231377Y309622D01*
X231396Y309581D01*
X231414Y309541D01*
X231085D01*
X231081Y309544D01*
X231077Y309559D01*
X231070Y309578D01*
X231059Y309607D01*
X231048Y309641D01*
X231040Y309681D01*
X231033Y309726D01*
X231026Y309774D01*
X231022D01*
X231018Y309766D01*
X230996Y309748D01*
X230963Y309722D01*
X230918Y309689D01*
X230863Y309655D01*
X230807Y309618D01*
X230748Y309585D01*
X230685Y309559D01*
X230678Y309556D01*
X230656Y309552D01*
X230622Y309541D01*
X230581Y309530D01*
X230530Y309519D01*
X230470Y309511D01*
X230404Y309504D01*
X230337Y309500D01*
X230308D01*
X230286Y309504D01*
X230260D01*
X230230Y309507D01*
X230163Y309519D01*
X230089Y309537D01*
X230008Y309563D01*
X229934Y309600D01*
X229867Y309648D01*
X229860Y309655D01*
X229841Y309674D01*
X229816Y309707D01*
X229786Y309752D01*
X229756Y309807D01*
X229731Y309870D01*
X229712Y309948D01*
X229708Y309985D01*
X229705Y310029D01*
Y310036D01*
Y310051D01*
X229708Y310077D01*
X229712Y310110D01*
X229719Y310151D01*
X229731Y310192D01*
X229745Y310236D01*
X229764Y310277D01*
X229767Y310281D01*
X229775Y310296D01*
X229790Y310318D01*
X229808Y310344D01*
X229830Y310373D01*
X229860Y310403D01*
X229890Y310432D01*
X229927Y310458D01*
X229930Y310462D01*
X229945Y310469D01*
X229964Y310484D01*
X229993Y310499D01*
X230027Y310514D01*
X230067Y310532D01*
X230108Y310547D01*
X230156Y310562D01*
X230160D01*
X230174Y310566D01*
X230197Y310573D01*
X230226Y310577D01*
X230263Y310584D01*
X230311Y310592D01*
X230367Y310603D01*
X230434Y310610D01*
X230437D01*
X230452Y310614D01*
X230470D01*
X230496Y310617D01*
X230526Y310621D01*
X230563Y310629D01*
X230604Y310632D01*
X230648Y310640D01*
X230737Y310658D01*
X230833Y310677D01*
X230918Y310699D01*
X230959Y310710D01*
X230996Y310721D01*
Y310725D01*
Y310732D01*
X231000Y310754D01*
Y310780D01*
Y310795D01*
Y310802D01*
Y310806D01*
Y310810D01*
Y310832D01*
X230996Y310869D01*
X230989Y310910D01*
X230977Y310954D01*
X230959Y310999D01*
X230937Y311039D01*
X230907Y311072D01*
X230903Y311076D01*
X230885Y311091D01*
X230855Y311106D01*
X230818Y311128D01*
X230767Y311146D01*
X230707Y311165D01*
X230633Y311176D01*
X230548Y311180D01*
X230511D01*
X230474Y311176D01*
X230422Y311169D01*
X230371Y311161D01*
X230315Y311146D01*
X230263Y311128D01*
X230219Y311102D01*
X230215Y311098D01*
X230200Y311087D01*
X230182Y311069D01*
X230160Y311039D01*
X230137Y311002D01*
X230112Y310954D01*
X230089Y310895D01*
X230067Y310828D01*
X229760Y310869D01*
Y310873D01*
X229764Y310876D01*
Y310888D01*
X229767Y310902D01*
X229779Y310936D01*
X229793Y310984D01*
X229812Y311032D01*
X229834Y311084D01*
X229864Y311135D01*
X229897Y311184D01*
X229901Y311187D01*
X229915Y311202D01*
X229938Y311224D01*
X229967Y311254D01*
X230008Y311283D01*
X230056Y311313D01*
X230112Y311346D01*
X230174Y311372D01*
X230178D01*
X230182Y311376D01*
X230193Y311380D01*
X230208Y311383D01*
X230245Y311394D01*
X230297Y311405D01*
X230356Y311417D01*
X230430Y311428D01*
X230507Y311435D01*
X230596Y311439D01*
X230637D01*
X230678Y311435D01*
D02*
G37*
G36*
X227496D02*
X227551Y311431D01*
X227614Y311424D01*
X227677Y311413D01*
X227740Y311398D01*
X227799Y311380D01*
X227806Y311376D01*
X227825Y311368D01*
X227851Y311357D01*
X227884Y311343D01*
X227921Y311320D01*
X227958Y311298D01*
X227992Y311269D01*
X228021Y311239D01*
X228025Y311235D01*
X228032Y311224D01*
X228043Y311206D01*
X228058Y311184D01*
X228077Y311150D01*
X228091Y311117D01*
X228106Y311076D01*
X228117Y311028D01*
Y311024D01*
X228121Y311013D01*
X228125Y310991D01*
X228128Y310962D01*
Y310921D01*
X228132Y310873D01*
X228136Y310810D01*
Y310739D01*
Y310318D01*
Y310314D01*
Y310299D01*
Y310277D01*
Y310247D01*
Y310214D01*
Y310173D01*
X228139Y310085D01*
Y309992D01*
X228143Y309900D01*
X228147Y309859D01*
Y309822D01*
X228151Y309789D01*
X228154Y309763D01*
Y309759D01*
X228158Y309744D01*
X228162Y309722D01*
X228173Y309692D01*
X228180Y309659D01*
X228195Y309622D01*
X228214Y309581D01*
X228232Y309541D01*
X227903D01*
X227899Y309544D01*
X227895Y309559D01*
X227888Y309578D01*
X227877Y309607D01*
X227866Y309641D01*
X227858Y309681D01*
X227851Y309726D01*
X227843Y309774D01*
X227840D01*
X227836Y309766D01*
X227814Y309748D01*
X227781Y309722D01*
X227736Y309689D01*
X227681Y309655D01*
X227625Y309618D01*
X227566Y309585D01*
X227503Y309559D01*
X227496Y309556D01*
X227473Y309552D01*
X227440Y309541D01*
X227399Y309530D01*
X227348Y309519D01*
X227289Y309511D01*
X227222Y309504D01*
X227155Y309500D01*
X227126D01*
X227103Y309504D01*
X227078D01*
X227048Y309507D01*
X226981Y309519D01*
X226907Y309537D01*
X226826Y309563D01*
X226752Y309600D01*
X226685Y309648D01*
X226678Y309655D01*
X226659Y309674D01*
X226634Y309707D01*
X226604Y309752D01*
X226574Y309807D01*
X226549Y309870D01*
X226530Y309948D01*
X226526Y309985D01*
X226523Y310029D01*
Y310036D01*
Y310051D01*
X226526Y310077D01*
X226530Y310110D01*
X226537Y310151D01*
X226549Y310192D01*
X226563Y310236D01*
X226582Y310277D01*
X226586Y310281D01*
X226593Y310296D01*
X226608Y310318D01*
X226626Y310344D01*
X226648Y310373D01*
X226678Y310403D01*
X226708Y310432D01*
X226745Y310458D01*
X226748Y310462D01*
X226763Y310469D01*
X226782Y310484D01*
X226811Y310499D01*
X226845Y310514D01*
X226885Y310532D01*
X226926Y310547D01*
X226974Y310562D01*
X226978D01*
X226993Y310566D01*
X227015Y310573D01*
X227044Y310577D01*
X227081Y310584D01*
X227129Y310592D01*
X227185Y310603D01*
X227252Y310610D01*
X227255D01*
X227270Y310614D01*
X227289D01*
X227314Y310617D01*
X227344Y310621D01*
X227381Y310629D01*
X227422Y310632D01*
X227466Y310640D01*
X227555Y310658D01*
X227651Y310677D01*
X227736Y310699D01*
X227777Y310710D01*
X227814Y310721D01*
Y310725D01*
Y310732D01*
X227818Y310754D01*
Y310780D01*
Y310795D01*
Y310802D01*
Y310806D01*
Y310810D01*
Y310832D01*
X227814Y310869D01*
X227806Y310910D01*
X227795Y310954D01*
X227777Y310999D01*
X227755Y311039D01*
X227725Y311072D01*
X227721Y311076D01*
X227703Y311091D01*
X227673Y311106D01*
X227636Y311128D01*
X227585Y311146D01*
X227525Y311165D01*
X227451Y311176D01*
X227366Y311180D01*
X227329D01*
X227292Y311176D01*
X227240Y311169D01*
X227189Y311161D01*
X227133Y311146D01*
X227081Y311128D01*
X227037Y311102D01*
X227033Y311098D01*
X227018Y311087D01*
X227000Y311069D01*
X226978Y311039D01*
X226956Y311002D01*
X226930Y310954D01*
X226907Y310895D01*
X226885Y310828D01*
X226578Y310869D01*
Y310873D01*
X226582Y310876D01*
Y310888D01*
X226586Y310902D01*
X226597Y310936D01*
X226611Y310984D01*
X226630Y311032D01*
X226652Y311084D01*
X226682Y311135D01*
X226715Y311184D01*
X226719Y311187D01*
X226733Y311202D01*
X226756Y311224D01*
X226785Y311254D01*
X226826Y311283D01*
X226874Y311313D01*
X226930Y311346D01*
X226993Y311372D01*
X226996D01*
X227000Y311376D01*
X227011Y311380D01*
X227026Y311383D01*
X227063Y311394D01*
X227115Y311405D01*
X227174Y311417D01*
X227248Y311428D01*
X227326Y311435D01*
X227414Y311439D01*
X227455D01*
X227496Y311435D01*
D02*
G37*
G36*
X226230Y311798D02*
X224839D01*
Y311006D01*
X226042D01*
Y310702D01*
X224839D01*
Y309541D01*
X224499D01*
Y312101D01*
X226230D01*
Y311798D01*
D02*
G37*
G36*
X222900Y309541D02*
X222541D01*
Y309900D01*
X222900D01*
Y309541D01*
D02*
G37*
%LPC*%
G36*
X246727Y301124D02*
X245858D01*
Y301062D01*
X245361D01*
Y301000D01*
X245050D01*
Y300938D01*
X244801D01*
Y300876D01*
X244615D01*
Y300814D01*
X244491D01*
Y300751D01*
X244305D01*
Y300689D01*
X244180D01*
Y300627D01*
X244118D01*
Y300565D01*
X243994D01*
Y300503D01*
X243932D01*
Y300441D01*
X243808D01*
Y300379D01*
X243745D01*
Y300317D01*
X243683D01*
Y300255D01*
X243621D01*
Y300192D01*
X243559D01*
Y300068D01*
X243497D01*
Y300006D01*
X243435D01*
Y299882D01*
X243373D01*
Y299695D01*
X243311D01*
Y299571D01*
X243249D01*
Y299509D01*
X243186D01*
Y299447D01*
X243124D01*
Y299323D01*
X243062D01*
Y299260D01*
X243000D01*
Y299198D01*
X242876D01*
Y299136D01*
X242814D01*
Y299074D01*
X242752D01*
Y299012D01*
X242627D01*
Y298950D01*
X242565D01*
Y298888D01*
X242379D01*
Y298826D01*
X241758D01*
Y298763D01*
X241136D01*
Y298701D01*
X240577D01*
Y298639D01*
X240142D01*
Y298577D01*
X239708D01*
Y298515D01*
X239335D01*
Y298453D01*
X239024D01*
Y298391D01*
X238714D01*
Y298329D01*
X238403D01*
Y298267D01*
X238155D01*
Y298204D01*
X237968D01*
Y298142D01*
X237720D01*
Y298080D01*
X237533D01*
Y298018D01*
X237347D01*
Y297956D01*
X237161D01*
Y297894D01*
X236974D01*
Y297832D01*
X236850D01*
Y297770D01*
X236664D01*
Y297708D01*
X236539D01*
Y297645D01*
X236415D01*
Y297583D01*
X236291D01*
Y297521D01*
X236229D01*
Y297459D01*
X236105D01*
Y297397D01*
X235980D01*
Y297335D01*
X235918D01*
Y297273D01*
X235856D01*
Y297211D01*
X235794D01*
Y297148D01*
X235670D01*
Y297086D01*
X235608D01*
Y297024D01*
X235545D01*
Y296962D01*
X235483D01*
Y296838D01*
X235421D01*
Y296776D01*
X235359D01*
Y296651D01*
X235297D01*
Y296527D01*
X235235D01*
Y296403D01*
X235173D01*
Y295595D01*
X235235D01*
Y295409D01*
X235297D01*
Y295285D01*
X235359D01*
Y295223D01*
X235421D01*
Y295161D01*
X235483D01*
Y295098D01*
X235545D01*
Y295036D01*
X235608D01*
Y294974D01*
X235670D01*
Y294912D01*
X235732D01*
Y294850D01*
X235794D01*
Y294788D01*
X235856D01*
Y294726D01*
X235980D01*
Y294664D01*
X236105D01*
Y294601D01*
X236229D01*
Y294539D01*
X236353D01*
Y294477D01*
X236477D01*
Y294415D01*
X236601D01*
Y294353D01*
X236788D01*
Y294291D01*
X236974D01*
Y294229D01*
X237161D01*
Y294167D01*
X237347D01*
Y294105D01*
X237596D01*
Y294042D01*
X237844D01*
Y293980D01*
X238092D01*
Y293918D01*
X238403D01*
Y293856D01*
X238714D01*
Y293794D01*
X239086D01*
Y293732D01*
X239521D01*
Y293670D01*
X240018D01*
Y293607D01*
X240577D01*
Y293545D01*
X241323D01*
Y293483D01*
X242317D01*
Y293421D01*
X246665D01*
Y293483D01*
X247473D01*
Y293545D01*
X248032D01*
Y293607D01*
X248405D01*
Y293670D01*
X248777D01*
Y293732D01*
X249088D01*
Y293794D01*
X249336D01*
Y293856D01*
X249585D01*
Y293918D01*
X249833D01*
Y293980D01*
X250082D01*
Y294042D01*
X250268D01*
Y294105D01*
X250455D01*
Y294167D01*
X250641D01*
Y294229D01*
X250827D01*
Y294291D01*
X250952D01*
Y294353D01*
X250330D01*
Y294291D01*
X248653D01*
Y294229D01*
X246168D01*
Y294291D01*
X244243D01*
Y294353D01*
X243000D01*
Y294415D01*
X242130D01*
Y294477D01*
X241447D01*
Y294539D01*
X240888D01*
Y294601D01*
X240391D01*
Y294664D01*
X239956D01*
Y294726D01*
X239583D01*
Y294788D01*
X239273D01*
Y294850D01*
X239024D01*
Y294912D01*
X238776D01*
Y294974D01*
X238527D01*
Y295036D01*
X238341D01*
Y295098D01*
X238155D01*
Y295161D01*
X238030D01*
Y295223D01*
X237844D01*
Y295285D01*
X237720D01*
Y295347D01*
X237658D01*
Y295409D01*
X237533D01*
Y295471D01*
X237471D01*
Y295533D01*
X237409D01*
Y295595D01*
X237347D01*
Y295657D01*
X237285D01*
Y295720D01*
X237223D01*
Y295844D01*
X237161D01*
Y296341D01*
X237223D01*
Y296465D01*
X237285D01*
Y296527D01*
X237347D01*
Y296651D01*
X237409D01*
Y296713D01*
X237471D01*
Y296776D01*
X237596D01*
Y296838D01*
X237658D01*
Y296900D01*
X237782D01*
Y296962D01*
X237906D01*
Y297024D01*
X238030D01*
Y297086D01*
X238155D01*
Y297148D01*
X238279D01*
Y297211D01*
X238465D01*
Y297273D01*
X238651D01*
Y297335D01*
X238838D01*
Y297397D01*
X239086D01*
Y297459D01*
X239335D01*
Y297521D01*
X239583D01*
Y297583D01*
X239894D01*
Y297645D01*
X240205D01*
Y297708D01*
X240577D01*
Y297770D01*
X240950D01*
Y297832D01*
X241447D01*
Y297894D01*
X241944D01*
Y297956D01*
X242565D01*
Y298018D01*
X243373D01*
Y298080D01*
X244305D01*
Y298142D01*
X245671D01*
Y298204D01*
X251883D01*
Y298142D01*
X253561D01*
Y298080D01*
X254741D01*
Y298018D01*
X255797D01*
Y297956D01*
X256667D01*
Y297894D01*
X257412D01*
Y297832D01*
X258096D01*
Y297770D01*
X258717D01*
Y297708D01*
X259276D01*
Y297645D01*
X259773D01*
Y297583D01*
X260208D01*
Y297521D01*
X260643D01*
Y297459D01*
X260953D01*
Y297521D01*
X260705D01*
Y297583D01*
X260456D01*
Y297645D01*
X260208D01*
Y297708D01*
X259897D01*
Y297770D01*
X259648D01*
Y297832D01*
X259338D01*
Y297894D01*
X258965D01*
Y297956D01*
X258655D01*
Y298018D01*
X258282D01*
Y298080D01*
X257909D01*
Y298142D01*
X257474D01*
Y298204D01*
X257039D01*
Y298267D01*
X256605D01*
Y298329D01*
X256108D01*
Y298391D01*
X255611D01*
Y298453D01*
X255051D01*
Y298515D01*
X254492D01*
Y298577D01*
X253809D01*
Y298639D01*
X253126D01*
Y298701D01*
X252380D01*
Y298763D01*
X251511D01*
Y298826D01*
X251076D01*
Y298888D01*
X250889D01*
Y298950D01*
X250703D01*
Y299012D01*
X250641D01*
Y299074D01*
X250517D01*
Y299136D01*
X250455D01*
Y299198D01*
X250330D01*
Y299260D01*
X250268D01*
Y299323D01*
X250206D01*
Y299385D01*
X250144D01*
Y299447D01*
X250082D01*
Y299509D01*
X250020D01*
Y299633D01*
X249958D01*
Y299758D01*
X249896D01*
Y299820D01*
X249833D01*
Y299882D01*
X249771D01*
Y299944D01*
X249709D01*
Y300006D01*
X249647D01*
Y300068D01*
X249585D01*
Y300130D01*
X249523D01*
Y300192D01*
X249461D01*
Y300255D01*
X249336D01*
Y300317D01*
X249274D01*
Y300379D01*
X249150D01*
Y300441D01*
X249026D01*
Y300503D01*
X248902D01*
Y300565D01*
X248777D01*
Y300627D01*
X248591D01*
Y300689D01*
X248467D01*
Y300751D01*
X248280D01*
Y300814D01*
X248094D01*
Y300876D01*
X247846D01*
Y300938D01*
X247597D01*
Y301000D01*
X247286D01*
Y301062D01*
X246727D01*
Y301124D01*
D02*
G37*
G36*
X261139Y297459D02*
X261015D01*
Y297397D01*
X261139D01*
Y297459D01*
D02*
G37*
G36*
X260829Y297397D02*
X260767D01*
Y297335D01*
X260829D01*
Y297397D01*
D02*
G37*
G36*
X260145Y297459D02*
X257847D01*
Y297397D01*
X257164D01*
Y297335D01*
X256667D01*
Y297273D01*
X256232D01*
Y297211D01*
X255859D01*
Y297148D01*
X255486D01*
Y297086D01*
X255238D01*
Y297024D01*
X254927D01*
Y296962D01*
X254679D01*
Y296900D01*
X254430D01*
Y296838D01*
X254244D01*
Y296776D01*
X254058D01*
Y296713D01*
X253871D01*
Y296651D01*
X253685D01*
Y296589D01*
X253561D01*
Y296527D01*
X253436D01*
Y296465D01*
X253312D01*
Y296403D01*
X253188D01*
Y296341D01*
X253064D01*
Y296279D01*
X252939D01*
Y296217D01*
X252815D01*
Y296154D01*
X252753D01*
Y296092D01*
X252629D01*
Y296030D01*
X252567D01*
Y295968D01*
X252505D01*
Y295906D01*
X252380D01*
Y295844D01*
X252318D01*
Y295782D01*
X252256D01*
Y295720D01*
X252194D01*
Y295657D01*
X252132D01*
Y295595D01*
X252008D01*
Y295533D01*
X251945D01*
Y295471D01*
X251883D01*
Y295409D01*
X251821D01*
Y295347D01*
X251759D01*
Y295285D01*
X251697D01*
Y295223D01*
X251635D01*
Y295161D01*
X251573D01*
Y295036D01*
X251511D01*
Y294974D01*
X251448D01*
Y294912D01*
X251386D01*
Y294850D01*
X251324D01*
Y294788D01*
X251262D01*
Y294726D01*
X251200D01*
Y294664D01*
X251324D01*
Y294726D01*
X251386D01*
Y294788D01*
X251448D01*
Y294850D01*
X251511D01*
Y294912D01*
X251573D01*
Y294974D01*
X251635D01*
Y295036D01*
X251759D01*
Y295098D01*
X251821D01*
Y295161D01*
X251883D01*
Y295223D01*
X252008D01*
Y295285D01*
X252070D01*
Y295347D01*
X252132D01*
Y295409D01*
X252256D01*
Y295471D01*
X252380D01*
Y295533D01*
X252443D01*
Y295595D01*
X252567D01*
Y295657D01*
X252629D01*
Y295720D01*
X252753D01*
Y295782D01*
X252877D01*
Y295844D01*
X253001D01*
Y295906D01*
X253126D01*
Y295968D01*
X253250D01*
Y296030D01*
X253374D01*
Y296092D01*
X253561D01*
Y296154D01*
X253685D01*
Y296217D01*
X253871D01*
Y296279D01*
X254058D01*
Y296341D01*
X254182D01*
Y296403D01*
X254368D01*
Y296465D01*
X254617D01*
Y296527D01*
X254803D01*
Y296589D01*
X255051D01*
Y296651D01*
X255300D01*
Y296713D01*
X255549D01*
Y296776D01*
X255797D01*
Y296838D01*
X256108D01*
Y296900D01*
X256480D01*
Y296962D01*
X256853D01*
Y297024D01*
X257226D01*
Y297086D01*
X257661D01*
Y297148D01*
X258096D01*
Y297211D01*
X258593D01*
Y297273D01*
X259214D01*
Y297335D01*
X260705D01*
Y297397D01*
X260145D01*
Y297459D01*
D02*
G37*
G36*
X251200Y294664D02*
X251138D01*
Y294601D01*
X251200D01*
Y294664D01*
D02*
G37*
G36*
X251138Y294601D02*
X251076D01*
Y294539D01*
X251138D01*
Y294601D01*
D02*
G37*
%LPD*%
G36*
X246851Y300689D02*
X247286D01*
Y300627D01*
X247597D01*
Y300565D01*
X247846D01*
Y300503D01*
X248032D01*
Y300441D01*
X248218D01*
Y300379D01*
X248405D01*
Y300317D01*
X248591D01*
Y300255D01*
X248715D01*
Y300192D01*
X248839D01*
Y300130D01*
X248964D01*
Y300068D01*
X249026D01*
Y300006D01*
X249150D01*
Y299944D01*
X249274D01*
Y299882D01*
X249336D01*
Y299820D01*
X249398D01*
Y299758D01*
X249461D01*
Y299695D01*
X249523D01*
Y299633D01*
X249585D01*
Y299571D01*
X249647D01*
Y299447D01*
X249709D01*
Y299323D01*
X249771D01*
Y299012D01*
X249709D01*
Y298888D01*
X249088D01*
Y298950D01*
X243870D01*
Y299571D01*
X243932D01*
Y299633D01*
Y299758D01*
X243994D01*
Y299820D01*
X244056D01*
Y299944D01*
X244118D01*
Y300006D01*
X244180D01*
Y300068D01*
X244243D01*
Y300130D01*
X244305D01*
Y300192D01*
X244429D01*
Y300255D01*
X244491D01*
Y300317D01*
X244615D01*
Y300379D01*
X244739D01*
Y300441D01*
X244864D01*
Y300503D01*
X244988D01*
Y300565D01*
X245174D01*
Y300627D01*
X245423D01*
Y300689D01*
X245795D01*
Y300751D01*
X246851D01*
Y300689D01*
D02*
G37*
%LPC*%
G36*
X267227Y290688D02*
X265053D01*
Y289632D01*
X267227D01*
Y289694D01*
X267352D01*
Y289756D01*
X267476D01*
Y289818D01*
X267538D01*
Y289942D01*
X267600D01*
Y290004D01*
Y290129D01*
X267662D01*
Y290191D01*
X267600D01*
Y290439D01*
X267538D01*
Y290501D01*
X267476D01*
Y290564D01*
X267414D01*
Y290626D01*
X267227D01*
Y290688D01*
D02*
G37*
G36*
X262692D02*
X261388D01*
Y290626D01*
X261077D01*
Y290564D01*
X260953D01*
Y290501D01*
X260829D01*
Y290439D01*
X260767D01*
Y290377D01*
X260705D01*
Y290315D01*
X260643D01*
Y290191D01*
X260580D01*
Y289942D01*
X260518D01*
Y289383D01*
X260580D01*
Y289197D01*
X260643D01*
Y289073D01*
X260705D01*
Y288948D01*
X260829D01*
Y288886D01*
X260891D01*
Y288824D01*
X261015D01*
Y288762D01*
X261202D01*
Y288700D01*
X261574D01*
Y288638D01*
X262444D01*
Y288700D01*
X262879D01*
Y288762D01*
X263065D01*
Y288824D01*
X263189D01*
Y288886D01*
X263251D01*
Y288948D01*
X263314D01*
Y289011D01*
X263376D01*
Y289135D01*
X263438D01*
Y289321D01*
X263500D01*
Y290067D01*
X263438D01*
Y290253D01*
X263376D01*
Y290315D01*
X263314D01*
Y290377D01*
X263251D01*
Y290439D01*
X263189D01*
Y290501D01*
X263127D01*
Y290564D01*
X262941D01*
Y290626D01*
X262692D01*
Y290688D01*
D02*
G37*
G36*
X258344Y290626D02*
X257039D01*
Y290564D01*
X256729D01*
Y290501D01*
X256605D01*
Y290439D01*
X256480D01*
Y290377D01*
X256418D01*
Y290315D01*
X256356D01*
Y290253D01*
X256294D01*
Y290129D01*
X256232D01*
Y289880D01*
X256170D01*
Y289321D01*
X256232D01*
Y289135D01*
X256294D01*
Y289011D01*
X256356D01*
Y288886D01*
X256480D01*
Y288824D01*
X256542D01*
Y288762D01*
X256667D01*
Y288700D01*
X256853D01*
Y288638D01*
X257226D01*
Y288576D01*
X258096D01*
Y288638D01*
X258530D01*
Y288700D01*
X258717D01*
Y288762D01*
X258841D01*
Y288824D01*
X258903D01*
Y288886D01*
X258965D01*
Y288948D01*
X259027D01*
Y289073D01*
X259089D01*
Y289259D01*
X259152D01*
Y290004D01*
X259089D01*
Y290191D01*
X259027D01*
Y290253D01*
X258965D01*
Y290315D01*
X258903D01*
Y290377D01*
X258841D01*
Y290439D01*
X258779D01*
Y290501D01*
X258593D01*
Y290564D01*
X258344D01*
Y290626D01*
D02*
G37*
G36*
X250889D02*
X248653D01*
Y289632D01*
X248715D01*
Y289570D01*
X250765D01*
Y289632D01*
X250952D01*
Y289694D01*
X251076D01*
Y289756D01*
X251138D01*
Y289818D01*
X251200D01*
Y289942D01*
X251262D01*
Y290253D01*
X251200D01*
Y290377D01*
X251138D01*
Y290501D01*
X251014D01*
Y290564D01*
X250889D01*
Y290626D01*
D02*
G37*
G36*
X238403Y290564D02*
X236167D01*
Y288638D01*
X238279D01*
Y288700D01*
X238527D01*
Y288762D01*
X238651D01*
Y288824D01*
X238714D01*
Y288886D01*
X238776D01*
Y289011D01*
X238838D01*
Y289197D01*
X238900D01*
Y290067D01*
X238838D01*
Y290253D01*
X238776D01*
Y290315D01*
X238714D01*
Y290377D01*
X238651D01*
Y290439D01*
X238589D01*
Y290501D01*
X238403D01*
Y290564D01*
D02*
G37*
G36*
X233371Y290688D02*
X233247D01*
Y290626D01*
X233123D01*
Y290564D01*
X233061D01*
Y290501D01*
X232998D01*
Y290439D01*
X232936D01*
Y290315D01*
X232874D01*
Y290191D01*
X232812D01*
Y290067D01*
X232750D01*
Y289942D01*
X232688D01*
Y289818D01*
X232626D01*
Y289694D01*
X232564D01*
Y289570D01*
X232502D01*
Y289445D01*
X232439D01*
Y289383D01*
X234179D01*
Y289508D01*
X234117D01*
Y289632D01*
X234055D01*
Y289756D01*
X233993D01*
Y289880D01*
X233930D01*
Y290004D01*
X233868D01*
Y290129D01*
X233806D01*
Y290253D01*
X233744D01*
Y290377D01*
X233682D01*
Y290501D01*
X233620D01*
Y290564D01*
X233558D01*
Y290626D01*
X233371D01*
Y290688D01*
D02*
G37*
G36*
X230265Y290626D02*
X227967D01*
Y289880D01*
X228029D01*
Y289818D01*
X230141D01*
Y289880D01*
X230389D01*
Y289942D01*
X230451D01*
Y290004D01*
X230514D01*
Y290129D01*
X230576D01*
Y290315D01*
X230514D01*
Y290439D01*
X230451D01*
Y290501D01*
X230389D01*
Y290564D01*
X230265D01*
Y290626D01*
D02*
G37*
G36*
X230327Y289445D02*
X227967D01*
Y288638D01*
X228029D01*
Y288576D01*
X230141D01*
Y288638D01*
X230389D01*
Y288700D01*
X230514D01*
Y288762D01*
X230576D01*
Y288886D01*
X230638D01*
Y289135D01*
X230576D01*
Y289259D01*
X230514D01*
Y289321D01*
X230451D01*
Y289383D01*
X230327D01*
Y289445D01*
D02*
G37*
G36*
X244098Y318076D02*
X243491D01*
Y317306D01*
X244120D01*
X244168Y317310D01*
X244220Y317314D01*
X244271Y317317D01*
X244323Y317325D01*
X244364Y317332D01*
X244371Y317336D01*
X244386Y317340D01*
X244408Y317351D01*
X244438Y317366D01*
X244468Y317380D01*
X244501Y317403D01*
X244534Y317432D01*
X244560Y317462D01*
X244564Y317465D01*
X244571Y317477D01*
X244582Y317499D01*
X244593Y317525D01*
X244604Y317554D01*
X244616Y317591D01*
X244623Y317636D01*
X244627Y317684D01*
Y317691D01*
Y317706D01*
X244623Y317728D01*
X244619Y317758D01*
X244612Y317795D01*
X244601Y317832D01*
X244586Y317869D01*
X244564Y317906D01*
X244560Y317909D01*
X244553Y317920D01*
X244538Y317939D01*
X244519Y317957D01*
X244494Y317980D01*
X244464Y318002D01*
X244427Y318024D01*
X244386Y318039D01*
X244383D01*
X244364Y318046D01*
X244338Y318050D01*
X244297Y318057D01*
X244242Y318065D01*
X244179Y318069D01*
X244098Y318076D01*
D02*
G37*
G36*
X244164Y317003D02*
X243491D01*
Y316122D01*
X244220D01*
X244297Y316126D01*
X244331Y316130D01*
X244360Y316133D01*
X244364D01*
X244379Y316137D01*
X244401Y316141D01*
X244427Y316148D01*
X244490Y316170D01*
X244553Y316200D01*
X244556Y316204D01*
X244567Y316211D01*
X244582Y316222D01*
X244601Y316237D01*
X244619Y316259D01*
X244645Y316281D01*
X244664Y316311D01*
X244686Y316344D01*
X244690Y316348D01*
X244693Y316359D01*
X244701Y316381D01*
X244712Y316407D01*
X244723Y316437D01*
X244730Y316474D01*
X244734Y316518D01*
X244738Y316563D01*
Y316570D01*
Y316585D01*
X244734Y316614D01*
X244727Y316648D01*
X244719Y316685D01*
X244704Y316725D01*
X244686Y316766D01*
X244660Y316807D01*
X244656Y316810D01*
X244645Y316825D01*
X244630Y316844D01*
X244608Y316866D01*
X244579Y316892D01*
X244542Y316918D01*
X244501Y316940D01*
X244453Y316958D01*
X244445Y316962D01*
X244431Y316966D01*
X244397Y316973D01*
X244357Y316981D01*
X244305Y316988D01*
X244242Y316996D01*
X244164Y317003D01*
D02*
G37*
G36*
X235961Y318094D02*
X235155D01*
Y317247D01*
X235917D01*
X235961Y317251D01*
X236013Y317254D01*
X236072Y317258D01*
X236132Y317266D01*
X236191Y317277D01*
X236243Y317291D01*
X236250Y317295D01*
X236265Y317303D01*
X236287Y317314D01*
X236316Y317329D01*
X236350Y317351D01*
X236383Y317377D01*
X236416Y317410D01*
X236442Y317447D01*
X236446Y317451D01*
X236453Y317465D01*
X236465Y317488D01*
X236479Y317517D01*
X236490Y317550D01*
X236502Y317587D01*
X236509Y317632D01*
X236513Y317676D01*
Y317680D01*
Y317684D01*
X236509Y317706D01*
X236505Y317739D01*
X236498Y317784D01*
X236479Y317828D01*
X236457Y317880D01*
X236424Y317928D01*
X236379Y317976D01*
X236372Y317980D01*
X236353Y317994D01*
X236324Y318013D01*
X236276Y318035D01*
X236220Y318057D01*
X236146Y318076D01*
X236061Y318091D01*
X235961Y318094D01*
D02*
G37*
G36*
X220432Y318076D02*
X219840D01*
Y316122D01*
X220447D01*
X220473Y316126D01*
X220529Y316130D01*
X220591Y316133D01*
X220658Y316141D01*
X220725Y316152D01*
X220780Y316167D01*
X220788Y316170D01*
X220806Y316174D01*
X220832Y316185D01*
X220865Y316200D01*
X220902Y316222D01*
X220939Y316244D01*
X220976Y316270D01*
X221013Y316300D01*
X221017Y316307D01*
X221032Y316322D01*
X221054Y316348D01*
X221080Y316385D01*
X221110Y316433D01*
X221143Y316489D01*
X221172Y316551D01*
X221198Y316622D01*
Y316625D01*
X221202Y316633D01*
X221206Y316644D01*
X221209Y316659D01*
X221213Y316677D01*
X221220Y316703D01*
X221228Y316729D01*
X221235Y316759D01*
X221246Y316833D01*
X221257Y316918D01*
X221265Y317014D01*
X221269Y317118D01*
Y317121D01*
Y317136D01*
Y317155D01*
X221265Y317184D01*
Y317217D01*
X221261Y317254D01*
X221257Y317299D01*
X221254Y317343D01*
X221235Y317443D01*
X221213Y317547D01*
X221180Y317643D01*
X221158Y317691D01*
X221135Y317732D01*
Y317736D01*
X221128Y317743D01*
X221121Y317754D01*
X221113Y317769D01*
X221084Y317806D01*
X221047Y317850D01*
X220999Y317898D01*
X220943Y317946D01*
X220880Y317987D01*
X220813Y318020D01*
X220806Y318024D01*
X220788Y318028D01*
X220754Y318039D01*
X220706Y318050D01*
X220647Y318057D01*
X220573Y318069D01*
X220529Y318072D01*
X220480D01*
X220432Y318076D01*
D02*
G37*
G36*
X238115Y317458D02*
X238092D01*
X238078Y317454D01*
X238037Y317451D01*
X237989Y317440D01*
X237930Y317421D01*
X237867Y317395D01*
X237808Y317358D01*
X237748Y317310D01*
X237741Y317303D01*
X237726Y317284D01*
X237700Y317251D01*
X237674Y317206D01*
X237645Y317155D01*
X237619Y317088D01*
X237597Y317010D01*
X237586Y316925D01*
X238625D01*
Y316929D01*
Y316936D01*
X238622Y316947D01*
Y316962D01*
X238614Y317007D01*
X238603Y317055D01*
X238585Y317114D01*
X238566Y317169D01*
X238537Y317225D01*
X238503Y317273D01*
Y317277D01*
X238496Y317280D01*
X238477Y317303D01*
X238444Y317332D01*
X238400Y317366D01*
X238344Y317399D01*
X238278Y317428D01*
X238200Y317451D01*
X238159Y317454D01*
X238115Y317458D01*
D02*
G37*
G36*
X226582D02*
X226560D01*
X226545Y317454D01*
X226504Y317451D01*
X226456Y317440D01*
X226397Y317421D01*
X226334Y317395D01*
X226275Y317358D01*
X226216Y317310D01*
X226208Y317303D01*
X226193Y317284D01*
X226167Y317251D01*
X226142Y317206D01*
X226112Y317155D01*
X226086Y317088D01*
X226064Y317010D01*
X226053Y316925D01*
X227092D01*
Y316929D01*
Y316936D01*
X227089Y316947D01*
Y316962D01*
X227081Y317007D01*
X227070Y317055D01*
X227052Y317114D01*
X227033Y317169D01*
X227004Y317225D01*
X226970Y317273D01*
Y317277D01*
X226963Y317280D01*
X226944Y317303D01*
X226911Y317332D01*
X226867Y317366D01*
X226811Y317399D01*
X226745Y317428D01*
X226667Y317451D01*
X226626Y317454D01*
X226582Y317458D01*
D02*
G37*
G36*
X232154Y318131D02*
X232121D01*
X232095Y318128D01*
X232062Y318124D01*
X232028Y318117D01*
X231988Y318109D01*
X231943Y318102D01*
X231847Y318072D01*
X231795Y318050D01*
X231743Y318028D01*
X231688Y317998D01*
X231636Y317965D01*
X231584Y317928D01*
X231536Y317883D01*
X231532Y317880D01*
X231525Y317872D01*
X231514Y317858D01*
X231495Y317835D01*
X231477Y317810D01*
X231455Y317776D01*
X231433Y317736D01*
X231407Y317687D01*
X231384Y317636D01*
X231359Y317573D01*
X231336Y317506D01*
X231318Y317432D01*
X231299Y317351D01*
X231288Y317258D01*
X231281Y317162D01*
X231277Y317058D01*
Y317055D01*
Y317040D01*
Y317014D01*
X231281Y316981D01*
X231284Y316944D01*
X231292Y316899D01*
X231299Y316847D01*
X231307Y316796D01*
X231336Y316677D01*
X231359Y316618D01*
X231381Y316555D01*
X231410Y316496D01*
X231444Y316437D01*
X231481Y316381D01*
X231525Y316330D01*
X231529Y316326D01*
X231536Y316318D01*
X231551Y316304D01*
X231569Y316289D01*
X231595Y316267D01*
X231625Y316244D01*
X231658Y316222D01*
X231695Y316196D01*
X231740Y316170D01*
X231788Y316148D01*
X231839Y316126D01*
X231895Y316104D01*
X231954Y316089D01*
X232013Y316074D01*
X232080Y316067D01*
X232150Y316063D01*
X232169D01*
X232187Y316067D01*
X232213D01*
X232246Y316071D01*
X232283Y316078D01*
X232328Y316085D01*
X232372Y316096D01*
X232424Y316111D01*
X232472Y316130D01*
X232528Y316148D01*
X232579Y316174D01*
X232631Y316207D01*
X232683Y316241D01*
X232735Y316281D01*
X232783Y316330D01*
X232787Y316333D01*
X232794Y316341D01*
X232805Y316359D01*
X232824Y316381D01*
X232842Y316407D01*
X232861Y316441D01*
X232883Y316481D01*
X232909Y316526D01*
X232931Y316577D01*
X232953Y316637D01*
X232972Y316700D01*
X232994Y316766D01*
X233009Y316840D01*
X233020Y316921D01*
X233027Y317007D01*
X233031Y317095D01*
Y317099D01*
Y317110D01*
Y317125D01*
Y317147D01*
X233027Y317173D01*
Y317206D01*
X233024Y317240D01*
X233016Y317280D01*
X233005Y317366D01*
X232986Y317454D01*
X232961Y317550D01*
X232924Y317639D01*
Y317643D01*
X232920Y317650D01*
X232912Y317661D01*
X232905Y317676D01*
X232879Y317721D01*
X232846Y317773D01*
X232802Y317832D01*
X232746Y317891D01*
X232683Y317950D01*
X232613Y318002D01*
X232609D01*
X232605Y318009D01*
X232594Y318013D01*
X232576Y318024D01*
X232557Y318032D01*
X232535Y318043D01*
X232480Y318069D01*
X232413Y318091D01*
X232335Y318113D01*
X232246Y318128D01*
X232154Y318131D01*
D02*
G37*
G36*
X236949Y313590D02*
X236946D01*
X236942Y313586D01*
X236931Y313583D01*
X236916Y313579D01*
X236897Y313572D01*
X236875Y313564D01*
X236849Y313557D01*
X236820Y313549D01*
X236786Y313538D01*
X236746Y313531D01*
X236705Y313520D01*
X236657Y313509D01*
X236605Y313497D01*
X236553Y313486D01*
X236494Y313479D01*
X236431Y313468D01*
X236424D01*
X236402Y313464D01*
X236365Y313457D01*
X236324Y313449D01*
X236280Y313442D01*
X236235Y313431D01*
X236194Y313420D01*
X236157Y313405D01*
X236154D01*
X236143Y313398D01*
X236128Y313390D01*
X236113Y313379D01*
X236069Y313350D01*
X236032Y313305D01*
Y313301D01*
X236024Y313294D01*
X236020Y313279D01*
X236013Y313261D01*
X236006Y313239D01*
X235998Y313216D01*
X235995Y313187D01*
X235991Y313157D01*
Y313153D01*
Y313135D01*
X235995Y313113D01*
X236002Y313083D01*
X236013Y313050D01*
X236032Y313017D01*
X236054Y312980D01*
X236083Y312946D01*
X236087Y312943D01*
X236102Y312935D01*
X236124Y312920D01*
X236154Y312906D01*
X236194Y312891D01*
X236243Y312876D01*
X236298Y312868D01*
X236365Y312865D01*
X236394D01*
X236431Y312868D01*
X236472Y312876D01*
X236524Y312883D01*
X236576Y312898D01*
X236631Y312917D01*
X236686Y312943D01*
X236694Y312946D01*
X236709Y312957D01*
X236735Y312976D01*
X236764Y313002D01*
X236797Y313031D01*
X236835Y313068D01*
X236864Y313113D01*
X236894Y313161D01*
X236897Y313164D01*
X236901Y313179D01*
X236909Y313205D01*
X236920Y313239D01*
X236931Y313283D01*
X236938Y313335D01*
X236942Y313398D01*
X236946Y313472D01*
X236949Y313590D01*
D02*
G37*
G36*
X225309Y314915D02*
X224717D01*
Y312961D01*
X225324D01*
X225350Y312965D01*
X225405Y312968D01*
X225468Y312972D01*
X225535Y312980D01*
X225601Y312991D01*
X225657Y313005D01*
X225664Y313009D01*
X225683Y313013D01*
X225709Y313024D01*
X225742Y313039D01*
X225779Y313061D01*
X225816Y313083D01*
X225853Y313109D01*
X225890Y313139D01*
X225894Y313146D01*
X225908Y313161D01*
X225931Y313187D01*
X225957Y313224D01*
X225986Y313272D01*
X226019Y313327D01*
X226049Y313390D01*
X226075Y313460D01*
Y313464D01*
X226079Y313472D01*
X226082Y313483D01*
X226086Y313497D01*
X226090Y313516D01*
X226097Y313542D01*
X226104Y313568D01*
X226112Y313597D01*
X226123Y313671D01*
X226134Y313756D01*
X226142Y313853D01*
X226145Y313956D01*
Y313960D01*
Y313975D01*
Y313993D01*
X226142Y314023D01*
Y314056D01*
X226138Y314093D01*
X226134Y314138D01*
X226130Y314182D01*
X226112Y314282D01*
X226090Y314386D01*
X226056Y314482D01*
X226034Y314530D01*
X226012Y314570D01*
Y314574D01*
X226005Y314582D01*
X225997Y314593D01*
X225990Y314608D01*
X225960Y314645D01*
X225923Y314689D01*
X225875Y314737D01*
X225820Y314785D01*
X225757Y314826D01*
X225690Y314859D01*
X225683Y314863D01*
X225664Y314866D01*
X225631Y314878D01*
X225583Y314889D01*
X225524Y314896D01*
X225450Y314907D01*
X225405Y314911D01*
X225357D01*
X225309Y314915D01*
D02*
G37*
G36*
X230741Y314297D02*
X230718D01*
X230700Y314293D01*
X230659Y314289D01*
X230604Y314275D01*
X230541Y314252D01*
X230474Y314223D01*
X230411Y314178D01*
X230378Y314149D01*
X230348Y314119D01*
Y314115D01*
X230341Y314112D01*
X230334Y314101D01*
X230323Y314086D01*
X230311Y314067D01*
X230300Y314045D01*
X230286Y314016D01*
X230271Y313986D01*
X230256Y313949D01*
X230241Y313912D01*
X230230Y313867D01*
X230219Y313819D01*
X230208Y313768D01*
X230200Y313712D01*
X230197Y313649D01*
X230193Y313586D01*
Y313583D01*
Y313572D01*
Y313553D01*
X230197Y313527D01*
Y313497D01*
X230200Y313464D01*
X230211Y313387D01*
X230230Y313298D01*
X230260Y313209D01*
X230297Y313124D01*
X230323Y313087D01*
X230348Y313050D01*
X230352D01*
X230356Y313042D01*
X230378Y313024D01*
X230411Y312994D01*
X230456Y312965D01*
X230511Y312931D01*
X230578Y312902D01*
X230656Y312883D01*
X230696Y312880D01*
X230741Y312876D01*
X230763D01*
X230781Y312880D01*
X230822Y312887D01*
X230877Y312898D01*
X230937Y312920D01*
X231003Y312950D01*
X231066Y312994D01*
X231100Y313024D01*
X231129Y313053D01*
X231133Y313057D01*
X231136Y313061D01*
X231144Y313072D01*
X231155Y313087D01*
X231166Y313105D01*
X231181Y313127D01*
X231196Y313157D01*
X231210Y313187D01*
X231225Y313224D01*
X231236Y313264D01*
X231251Y313309D01*
X231262Y313357D01*
X231273Y313412D01*
X231281Y313468D01*
X231288Y313531D01*
Y313597D01*
Y313601D01*
Y313612D01*
Y313631D01*
X231284Y313653D01*
Y313683D01*
X231281Y313716D01*
X231270Y313793D01*
X231251Y313875D01*
X231222Y313964D01*
X231181Y314045D01*
X231159Y314086D01*
X231129Y314119D01*
Y314123D01*
X231122Y314126D01*
X231100Y314149D01*
X231066Y314175D01*
X231022Y314208D01*
X230966Y314241D01*
X230900Y314271D01*
X230826Y314289D01*
X230785Y314293D01*
X230741Y314297D01*
D02*
G37*
G36*
X220725Y314970D02*
X220691D01*
X220666Y314966D01*
X220632Y314963D01*
X220599Y314955D01*
X220558Y314948D01*
X220514Y314941D01*
X220418Y314911D01*
X220366Y314889D01*
X220314Y314866D01*
X220258Y314837D01*
X220207Y314804D01*
X220155Y314767D01*
X220107Y314722D01*
X220103Y314719D01*
X220096Y314711D01*
X220085Y314696D01*
X220066Y314674D01*
X220048Y314648D01*
X220025Y314615D01*
X220003Y314574D01*
X219977Y314526D01*
X219955Y314474D01*
X219929Y314411D01*
X219907Y314345D01*
X219888Y314271D01*
X219870Y314189D01*
X219859Y314097D01*
X219851Y314001D01*
X219848Y313897D01*
Y313893D01*
Y313879D01*
Y313853D01*
X219851Y313819D01*
X219855Y313782D01*
X219863Y313738D01*
X219870Y313686D01*
X219877Y313634D01*
X219907Y313516D01*
X219929Y313457D01*
X219951Y313394D01*
X219981Y313335D01*
X220014Y313276D01*
X220051Y313220D01*
X220096Y313168D01*
X220099Y313164D01*
X220107Y313157D01*
X220122Y313142D01*
X220140Y313127D01*
X220166Y313105D01*
X220196Y313083D01*
X220229Y313061D01*
X220266Y313035D01*
X220310Y313009D01*
X220358Y312987D01*
X220410Y312965D01*
X220466Y312943D01*
X220525Y312928D01*
X220584Y312913D01*
X220651Y312906D01*
X220721Y312902D01*
X220740D01*
X220758Y312906D01*
X220784D01*
X220817Y312909D01*
X220854Y312917D01*
X220899Y312924D01*
X220943Y312935D01*
X220995Y312950D01*
X221043Y312968D01*
X221098Y312987D01*
X221150Y313013D01*
X221202Y313046D01*
X221254Y313079D01*
X221306Y313120D01*
X221354Y313168D01*
X221357Y313172D01*
X221365Y313179D01*
X221376Y313198D01*
X221394Y313220D01*
X221413Y313246D01*
X221431Y313279D01*
X221454Y313320D01*
X221480Y313364D01*
X221502Y313416D01*
X221524Y313475D01*
X221542Y313538D01*
X221565Y313605D01*
X221579Y313679D01*
X221590Y313760D01*
X221598Y313845D01*
X221602Y313934D01*
Y313938D01*
Y313949D01*
Y313964D01*
Y313986D01*
X221598Y314012D01*
Y314045D01*
X221594Y314078D01*
X221587Y314119D01*
X221576Y314204D01*
X221557Y314293D01*
X221531Y314389D01*
X221494Y314478D01*
Y314482D01*
X221491Y314489D01*
X221483Y314500D01*
X221476Y314515D01*
X221450Y314559D01*
X221417Y314611D01*
X221372Y314670D01*
X221317Y314730D01*
X221254Y314789D01*
X221183Y314841D01*
X221180D01*
X221176Y314848D01*
X221165Y314852D01*
X221146Y314863D01*
X221128Y314870D01*
X221106Y314881D01*
X221050Y314907D01*
X220984Y314929D01*
X220906Y314952D01*
X220817Y314966D01*
X220725Y314970D01*
D02*
G37*
G36*
X231000Y310473D02*
X230996D01*
X230992Y310469D01*
X230981Y310466D01*
X230966Y310462D01*
X230948Y310455D01*
X230926Y310447D01*
X230900Y310440D01*
X230870Y310432D01*
X230837Y310421D01*
X230796Y310414D01*
X230755Y310403D01*
X230707Y310392D01*
X230656Y310381D01*
X230604Y310369D01*
X230544Y310362D01*
X230482Y310351D01*
X230474D01*
X230452Y310347D01*
X230415Y310340D01*
X230374Y310332D01*
X230330Y310325D01*
X230286Y310314D01*
X230245Y310303D01*
X230208Y310288D01*
X230204D01*
X230193Y310281D01*
X230178Y310273D01*
X230163Y310262D01*
X230119Y310233D01*
X230082Y310188D01*
Y310185D01*
X230075Y310177D01*
X230071Y310162D01*
X230064Y310144D01*
X230056Y310122D01*
X230049Y310099D01*
X230045Y310070D01*
X230041Y310040D01*
Y310036D01*
Y310018D01*
X230045Y309996D01*
X230052Y309966D01*
X230064Y309933D01*
X230082Y309900D01*
X230104Y309863D01*
X230134Y309829D01*
X230137Y309826D01*
X230152Y309818D01*
X230174Y309803D01*
X230204Y309789D01*
X230245Y309774D01*
X230293Y309759D01*
X230348Y309752D01*
X230415Y309748D01*
X230445D01*
X230482Y309752D01*
X230522Y309759D01*
X230574Y309766D01*
X230626Y309781D01*
X230681Y309800D01*
X230737Y309826D01*
X230744Y309829D01*
X230759Y309840D01*
X230785Y309859D01*
X230815Y309885D01*
X230848Y309914D01*
X230885Y309951D01*
X230914Y309996D01*
X230944Y310044D01*
X230948Y310048D01*
X230951Y310062D01*
X230959Y310088D01*
X230970Y310122D01*
X230981Y310166D01*
X230989Y310218D01*
X230992Y310281D01*
X230996Y310355D01*
X231000Y310473D01*
D02*
G37*
G36*
X227818D02*
X227814D01*
X227810Y310469D01*
X227799Y310466D01*
X227784Y310462D01*
X227766Y310455D01*
X227744Y310447D01*
X227718Y310440D01*
X227688Y310432D01*
X227655Y310421D01*
X227614Y310414D01*
X227573Y310403D01*
X227525Y310392D01*
X227473Y310381D01*
X227422Y310369D01*
X227362Y310362D01*
X227300Y310351D01*
X227292D01*
X227270Y310347D01*
X227233Y310340D01*
X227192Y310332D01*
X227148Y310325D01*
X227103Y310314D01*
X227063Y310303D01*
X227026Y310288D01*
X227022D01*
X227011Y310281D01*
X226996Y310273D01*
X226981Y310262D01*
X226937Y310233D01*
X226900Y310188D01*
Y310185D01*
X226893Y310177D01*
X226889Y310162D01*
X226882Y310144D01*
X226874Y310122D01*
X226867Y310099D01*
X226863Y310070D01*
X226859Y310040D01*
Y310036D01*
Y310018D01*
X226863Y309996D01*
X226870Y309966D01*
X226882Y309933D01*
X226900Y309900D01*
X226922Y309863D01*
X226952Y309829D01*
X226956Y309826D01*
X226970Y309818D01*
X226993Y309803D01*
X227022Y309789D01*
X227063Y309774D01*
X227111Y309759D01*
X227166Y309752D01*
X227233Y309748D01*
X227263D01*
X227300Y309752D01*
X227340Y309759D01*
X227392Y309766D01*
X227444Y309781D01*
X227499Y309800D01*
X227555Y309826D01*
X227562Y309829D01*
X227577Y309840D01*
X227603Y309859D01*
X227633Y309885D01*
X227666Y309914D01*
X227703Y309951D01*
X227732Y309996D01*
X227762Y310044D01*
X227766Y310048D01*
X227769Y310062D01*
X227777Y310088D01*
X227788Y310122D01*
X227799Y310166D01*
X227806Y310218D01*
X227810Y310281D01*
X227814Y310355D01*
X227818Y310473D01*
D02*
G37*
%LPD*%
D10*
X306138Y176000D02*
G03*
X306138Y176000I-11811J0D01*
G01*
Y368913D02*
G03*
X306138Y368913I-11811J0D01*
G01*
X534484Y176000D02*
G03*
X534484Y176000I-11811J0D01*
G01*
Y368913D02*
G03*
X534484Y368913I-11811J0D01*
G01*
X256500Y312000D02*
G03*
X256500Y312000I-500J0D01*
G01*
X270373Y150750D02*
X632873Y150750D01*
X270373Y402250D02*
X270373Y150750D01*
X270373Y402250D02*
X632873Y402250D01*
Y150750D02*
Y402250D01*
X202500Y171500D02*
X207500D01*
X202000Y164500D02*
Y166500D01*
X208000Y164500D02*
Y166500D01*
X249900Y1405D02*
Y53905D01*
X184900Y1405D02*
Y53905D01*
X249900D01*
X184900Y1405D02*
X249900D01*
X3905Y184100D02*
Y226100D01*
X56405D01*
X3905Y184100D02*
X56405D01*
Y226100D01*
X115500Y1500D02*
Y33000D01*
X88500Y1500D02*
Y63500D01*
X98750Y1500D02*
X105250D01*
X115500Y33000D02*
Y63500D01*
X108750D02*
X115500D01*
X88500D02*
X94250D01*
X105250Y1500D02*
X115500D01*
X88500D02*
X98750D01*
X102875Y63500D02*
X108750D01*
X94250D02*
X102875D01*
X4000Y226000D02*
Y256000D01*
X56500Y226000D02*
Y256000D01*
X4000D02*
X56500D01*
X4000Y226000D02*
X56500D01*
X513600Y57405D02*
X555600D01*
Y4905D02*
Y57405D01*
X513600Y4905D02*
Y57405D01*
Y4905D02*
X555600D01*
X197000Y112000D02*
X207000D01*
X197000D02*
Y132000D01*
X207000Y112000D02*
Y132000D01*
X197000D02*
X207000D01*
Y122000D02*
Y132000D01*
X242500D02*
X252500D01*
Y112000D02*
Y132000D01*
X242500Y112000D02*
Y132000D01*
Y112000D02*
X252500D01*
X242500D02*
Y122000D01*
X183500Y112000D02*
X193500D01*
X183500D02*
Y132000D01*
X193500Y112000D02*
Y132000D01*
X183500D02*
X193500D01*
Y122000D02*
Y132000D01*
X212500Y112000D02*
X222500D01*
X212500D02*
Y132000D01*
X222500Y112000D02*
Y132000D01*
X212500D02*
X222500D01*
Y122000D02*
Y132000D01*
X257500D02*
X267500D01*
Y112000D02*
Y132000D01*
X257500Y112000D02*
Y132000D01*
Y112000D02*
X267500D01*
X257500D02*
Y122000D01*
X228000Y112000D02*
X238000D01*
X228000D02*
Y132000D01*
X238000Y112000D02*
Y132000D01*
X228000D02*
X238000D01*
Y122000D02*
Y132000D01*
X186000Y171500D02*
X191000D01*
X185500Y164500D02*
Y166500D01*
X191500Y164500D02*
Y166500D01*
X280500Y1500D02*
X310500D01*
X280500Y54000D02*
X310500D01*
X280500Y1500D02*
Y54000D01*
X310500Y1500D02*
Y54000D01*
X4905Y320600D02*
Y362600D01*
X57405D01*
X4905Y320600D02*
X57405D01*
Y362600D01*
X311400Y1405D02*
X353400D01*
X311400D02*
Y53905D01*
X353400Y1405D02*
Y53905D01*
X311400D02*
X353400D01*
X4500Y257500D02*
Y287500D01*
X57000Y257500D02*
Y287500D01*
X4500D02*
X57000D01*
X4500Y257500D02*
X57000D01*
X353600Y1405D02*
X395600D01*
X353600D02*
Y53905D01*
X395600Y1405D02*
Y53905D01*
X353600D02*
X395600D01*
X555100Y4905D02*
X597100D01*
X555100D02*
Y57405D01*
X597100Y4905D02*
Y57405D01*
X555100D02*
X597100D01*
X183500Y1405D02*
Y53905D01*
X118500Y1405D02*
Y53905D01*
X183500D01*
X118500Y1405D02*
X183500D01*
X4500Y3405D02*
X46500D01*
X4500D02*
Y55905D01*
X46500Y3405D02*
Y55905D01*
X4500D02*
X46500D01*
X5500Y289000D02*
Y319000D01*
X58000Y289000D02*
Y319000D01*
X5500D02*
X58000D01*
X5500Y289000D02*
X58000D01*
X250000Y1500D02*
X280000D01*
X250000Y54000D02*
X280000D01*
X250000Y1500D02*
Y54000D01*
X280000Y1500D02*
Y54000D01*
X79000Y95500D02*
Y127000D01*
X106000Y65000D02*
Y127000D01*
X89250D02*
X95750D01*
X79000Y65000D02*
Y95500D01*
Y65000D02*
X85750D01*
X100250D02*
X106000D01*
X79000Y127000D02*
X89250D01*
X95750D02*
X106000D01*
X85750Y65000D02*
X91625D01*
X100250D01*
X396000Y2000D02*
X426000D01*
X396000Y54500D02*
X426000D01*
X396000Y2000D02*
Y54500D01*
X426000Y2000D02*
Y54500D01*
X5200Y365500D02*
Y395500D01*
X57700Y365500D02*
Y395500D01*
X5200D02*
X57700D01*
X5200Y365500D02*
X57700D01*
X210500Y171500D02*
X215500D01*
X210000Y164500D02*
Y166500D01*
X216000Y164500D02*
Y166500D01*
X194000Y171500D02*
X199000D01*
X193500Y164500D02*
Y166500D01*
X199500Y164500D02*
Y166500D01*
X511501Y198500D02*
Y196000D01*
X512001Y195501D01*
X513000D01*
X513500Y196000D01*
Y198500D01*
X515999Y195501D02*
Y198500D01*
X514500Y197000D01*
X516499D01*
X516001Y59000D02*
Y61999D01*
X517500D01*
X518000Y61500D01*
Y60500D01*
X517500Y60000D01*
X516001D01*
X519000Y61999D02*
X520999D01*
Y61500D01*
X519000Y59500D01*
Y59000D01*
X106501Y293000D02*
Y290500D01*
X107001Y290001D01*
X108000D01*
X108500Y290500D01*
Y293000D01*
X109500Y290500D02*
X110000Y290001D01*
X110999D01*
X111499Y290500D01*
Y292500D01*
X110999Y293000D01*
X110000D01*
X109500Y292500D01*
Y292000D01*
X110000Y291500D01*
X111499D01*
X60001Y176999D02*
Y174500D01*
X60501Y174001D01*
X61500D01*
X62000Y174500D01*
Y176999D01*
X63000Y176500D02*
X63500Y176999D01*
X64499D01*
X64999Y176500D01*
Y176000D01*
X64499Y175500D01*
X64999Y175000D01*
Y174500D01*
X64499Y174001D01*
X63500D01*
X63000Y174500D01*
Y175000D01*
X63500Y175500D01*
X63000Y176000D01*
Y176500D01*
X63500Y175500D02*
X64499D01*
X525501Y90500D02*
Y88000D01*
X526001Y87501D01*
X527000D01*
X527500Y88000D01*
Y90500D01*
X528500D02*
X530499D01*
Y90000D01*
X528500Y88000D01*
Y87501D01*
X242501Y269000D02*
Y266500D01*
X243001Y266001D01*
X244000D01*
X244500Y266500D01*
Y269000D01*
X247499D02*
X246499Y268500D01*
X245500Y267500D01*
Y266500D01*
X246000Y266001D01*
X246999D01*
X247499Y266500D01*
Y267000D01*
X246999Y267500D01*
X245500D01*
X458501Y93999D02*
Y91500D01*
X459001Y91000D01*
X460000D01*
X460500Y91500D01*
Y93999D01*
X463499D02*
X461500D01*
Y92500D01*
X462500Y93000D01*
X462999D01*
X463499Y92500D01*
Y91500D01*
X462999Y91000D01*
X462000D01*
X461500Y91500D01*
X228001Y347499D02*
Y345000D01*
X228501Y344500D01*
X229500D01*
X230000Y345000D01*
Y347499D01*
X231000Y347000D02*
X231500Y347499D01*
X232499D01*
X232999Y347000D01*
Y346500D01*
X232499Y346000D01*
X231999D01*
X232499D01*
X232999Y345500D01*
Y345000D01*
X232499Y344500D01*
X231500D01*
X231000Y345000D01*
X220001Y59000D02*
Y56500D01*
X220501Y56001D01*
X221500D01*
X222000Y56500D01*
Y59000D01*
X224999Y56001D02*
X223000D01*
X224999Y58000D01*
Y58500D01*
X224499Y59000D01*
X223500D01*
X223000Y58500D01*
X319001Y89499D02*
Y87000D01*
X319500Y86501D01*
X320500D01*
X321000Y87000D01*
Y89499D01*
X322000Y86501D02*
X322999D01*
X322499D01*
Y89499D01*
X322000Y89000D01*
X109501Y119000D02*
X111501D01*
X110501D01*
Y116000D01*
X112500D02*
Y119000D01*
X114000D01*
X114500Y118500D01*
Y117500D01*
X114000Y117000D01*
X112500D01*
X116999Y116000D02*
Y119000D01*
X115499Y117500D01*
X117499D01*
X169001Y75499D02*
X171001D01*
X170001D01*
Y72500D01*
X172000D02*
Y75499D01*
X173500D01*
X174000Y75000D01*
Y74000D01*
X173500Y73500D01*
X172000D01*
X174999Y75000D02*
X175499Y75499D01*
X176499D01*
X176999Y75000D01*
Y74500D01*
X176499Y74000D01*
X175999D01*
X176499D01*
X176999Y73500D01*
Y73000D01*
X176499Y72500D01*
X175499D01*
X174999Y73000D01*
X168001Y60000D02*
X170001D01*
X169001D01*
Y57000D01*
X171000D02*
Y60000D01*
X172500D01*
X173000Y59500D01*
Y58500D01*
X172500Y58000D01*
X171000D01*
X175999Y57000D02*
X173999D01*
X175999Y59000D01*
Y59500D01*
X175499Y60000D01*
X174499D01*
X173999Y59500D01*
X175501Y103499D02*
X177500D01*
X176501D01*
Y100501D01*
X178500D02*
Y103499D01*
X180000D01*
X180499Y103000D01*
Y102000D01*
X180000Y101500D01*
X178500D01*
X181499Y100501D02*
X182499D01*
X181999D01*
Y103499D01*
X181499Y103000D01*
X416501Y74000D02*
X418501D01*
X417501D01*
Y71000D01*
X419500Y74000D02*
Y71000D01*
Y72500D01*
X421500D01*
Y74000D01*
Y71000D01*
X424499D02*
X422499D01*
X424499Y73000D01*
Y73500D01*
X423999Y74000D01*
X422999D01*
X422499Y73500D01*
X394501Y117999D02*
X396500D01*
X395501D01*
Y115000D01*
X397500Y117999D02*
Y115000D01*
Y116500D01*
X399500D01*
Y117999D01*
Y115000D01*
X400499D02*
X401499D01*
X400999D01*
Y117999D01*
X400499Y117500D01*
X3501Y149501D02*
Y152499D01*
X5001D01*
X5501Y152000D01*
Y151000D01*
X5001Y150500D01*
X3501D01*
X4501D02*
X5501Y149501D01*
X8500Y152499D02*
X7500Y152000D01*
X6500Y151000D01*
Y150000D01*
X7000Y149501D01*
X8000D01*
X8500Y150000D01*
Y150500D01*
X8000Y151000D01*
X6500D01*
X9499Y152000D02*
X9999Y152499D01*
X10999D01*
X11499Y152000D01*
Y151500D01*
X10999Y151000D01*
X10499D01*
X10999D01*
X11499Y150500D01*
Y150000D01*
X10999Y149501D01*
X9999D01*
X9499Y150000D01*
X64501Y114000D02*
Y116999D01*
X66001D01*
X66501Y116500D01*
Y115500D01*
X66001Y115000D01*
X64501D01*
X65501D02*
X66501Y114000D01*
X69500Y116999D02*
X68500Y116500D01*
X67500Y115500D01*
Y114500D01*
X68000Y114000D01*
X69000D01*
X69500Y114500D01*
Y115000D01*
X69000Y115500D01*
X67500D01*
X72499Y114000D02*
X70499D01*
X72499Y116000D01*
Y116500D01*
X71999Y116999D01*
X70999D01*
X70499Y116500D01*
X556501Y101500D02*
Y104499D01*
X558001D01*
X558500Y104000D01*
Y103000D01*
X558001Y102500D01*
X556501D01*
X557501D02*
X558500Y101500D01*
X561500Y104499D02*
X560500Y104000D01*
X559500Y103000D01*
Y102000D01*
X560000Y101500D01*
X561000D01*
X561500Y102000D01*
Y102500D01*
X561000Y103000D01*
X559500D01*
X562499Y101500D02*
X563499D01*
X562999D01*
Y104499D01*
X562499Y104000D01*
X46001Y180000D02*
Y183000D01*
X47501D01*
X48001Y182500D01*
Y181500D01*
X47501Y181000D01*
X46001D01*
X47001D02*
X48001Y180000D01*
X51000Y183000D02*
X50000Y182500D01*
X49000Y181500D01*
Y180500D01*
X49500Y180000D01*
X50500D01*
X51000Y180500D01*
Y181000D01*
X50500Y181500D01*
X49000D01*
X51999Y182500D02*
X52499Y183000D01*
X53499D01*
X53999Y182500D01*
Y180500D01*
X53499Y180000D01*
X52499D01*
X51999Y180500D01*
Y182500D01*
X557001Y82500D02*
Y85500D01*
X558501D01*
X559001Y85000D01*
Y84000D01*
X558501Y83500D01*
X557001D01*
X558001D02*
X559001Y82500D01*
X562000Y85500D02*
X560000D01*
Y84000D01*
X561000Y84500D01*
X561500D01*
X562000Y84000D01*
Y83000D01*
X561500Y82500D01*
X560500D01*
X560000Y83000D01*
X562999D02*
X563499Y82500D01*
X564499D01*
X564999Y83000D01*
Y85000D01*
X564499Y85500D01*
X563499D01*
X562999Y85000D01*
Y84500D01*
X563499Y84000D01*
X564999D01*
X507501Y82500D02*
Y85500D01*
X509001D01*
X509501Y85000D01*
Y84000D01*
X509001Y83500D01*
X507501D01*
X508501D02*
X509501Y82500D01*
X512500Y85500D02*
X510500D01*
Y84000D01*
X511500Y84500D01*
X512000D01*
X512500Y84000D01*
Y83000D01*
X512000Y82500D01*
X511000D01*
X510500Y83000D01*
X513499Y85000D02*
X513999Y85500D01*
X514999D01*
X515499Y85000D01*
Y84500D01*
X514999Y84000D01*
X515499Y83500D01*
Y83000D01*
X514999Y82500D01*
X513999D01*
X513499Y83000D01*
Y83500D01*
X513999Y84000D01*
X513499Y84500D01*
Y85000D01*
X513999Y84000D02*
X514999D01*
X433001Y65000D02*
Y68000D01*
X434501D01*
X435001Y67500D01*
Y66500D01*
X434501Y66000D01*
X433001D01*
X434001D02*
X435001Y65000D01*
X438000Y68000D02*
X436000D01*
Y66500D01*
X437000Y67000D01*
X437500D01*
X438000Y66500D01*
Y65500D01*
X437500Y65000D01*
X436500D01*
X436000Y65500D01*
X438999Y68000D02*
X440999D01*
Y67500D01*
X438999Y65500D01*
Y65000D01*
X458001Y45999D02*
X460999D01*
Y44499D01*
X460500Y43999D01*
X459500D01*
X459000Y44499D01*
Y45999D01*
Y44999D02*
X458001Y43999D01*
X460999Y41000D02*
Y43000D01*
X459500D01*
X460000Y42000D01*
Y41500D01*
X459500Y41000D01*
X458500D01*
X458001Y41500D01*
Y42500D01*
X458500Y43000D01*
X460999Y38001D02*
X460500Y39001D01*
X459500Y40001D01*
X458500D01*
X458001Y39501D01*
Y38501D01*
X458500Y38001D01*
X459000D01*
X459500Y38501D01*
Y40001D01*
X409001Y90162D02*
Y93161D01*
X410501D01*
X411001Y92661D01*
Y91661D01*
X410501Y91162D01*
X409001D01*
X410001D02*
X411001Y90162D01*
X414000Y93161D02*
X412000D01*
Y91661D01*
X413000Y92161D01*
X413500D01*
X414000Y91661D01*
Y90662D01*
X413500Y90162D01*
X412500D01*
X412000Y90662D01*
X416999Y93161D02*
X414999D01*
Y91661D01*
X415999Y92161D01*
X416499D01*
X416999Y91661D01*
Y90662D01*
X416499Y90162D01*
X415499D01*
X414999Y90662D01*
X199001Y155500D02*
Y158500D01*
X200501D01*
X201001Y158000D01*
Y157000D01*
X200501Y156500D01*
X199001D01*
X200001D02*
X201001Y155500D01*
X204000Y158500D02*
X202000D01*
Y157000D01*
X203000Y157500D01*
X203500D01*
X204000Y157000D01*
Y156000D01*
X203500Y155500D01*
X202500D01*
X202000Y156000D01*
X206499Y155500D02*
Y158500D01*
X204999Y157000D01*
X206999D01*
X94001Y148001D02*
Y150999D01*
X95501D01*
X96001Y150500D01*
Y149500D01*
X95501Y149000D01*
X94001D01*
X95001D02*
X96001Y148001D01*
X99000Y150999D02*
X97000D01*
Y149500D01*
X98000Y150000D01*
X98500D01*
X99000Y149500D01*
Y148500D01*
X98500Y148001D01*
X97500D01*
X97000Y148500D01*
X99999Y150500D02*
X100499Y150999D01*
X101499D01*
X101999Y150500D01*
Y150000D01*
X101499Y149500D01*
X100999D01*
X101499D01*
X101999Y149000D01*
Y148500D01*
X101499Y148001D01*
X100499D01*
X99999Y148500D01*
X249001Y275500D02*
Y278500D01*
X250501D01*
X251001Y278000D01*
Y277000D01*
X250501Y276500D01*
X249001D01*
X250001D02*
X251001Y275500D01*
X254000Y278500D02*
X252000D01*
Y277000D01*
X253000Y277500D01*
X253500D01*
X254000Y277000D01*
Y276000D01*
X253500Y275500D01*
X252500D01*
X252000Y276000D01*
X256999Y275500D02*
X254999D01*
X256999Y277500D01*
Y278000D01*
X256499Y278500D01*
X255499D01*
X254999Y278000D01*
X261501Y275001D02*
Y277999D01*
X263001D01*
X263500Y277500D01*
Y276500D01*
X263001Y276000D01*
X261501D01*
X262501D02*
X263500Y275001D01*
X266499Y277999D02*
X264500D01*
Y276500D01*
X265500Y277000D01*
X266000D01*
X266499Y276500D01*
Y275500D01*
X266000Y275001D01*
X265000D01*
X264500Y275500D01*
X267499Y275001D02*
X268499D01*
X267999D01*
Y277999D01*
X267499Y277500D01*
X214001Y150501D02*
Y153499D01*
X215501D01*
X216001Y153000D01*
Y152000D01*
X215501Y151500D01*
X214001D01*
X215001D02*
X216001Y150501D01*
X219000Y153499D02*
X217000D01*
Y152000D01*
X218000Y152500D01*
X218500D01*
X219000Y152000D01*
Y151000D01*
X218500Y150501D01*
X217500D01*
X217000Y151000D01*
X219999Y153000D02*
X220499Y153499D01*
X221499D01*
X221999Y153000D01*
Y151000D01*
X221499Y150501D01*
X220499D01*
X219999Y151000D01*
Y153000D01*
X216001Y179000D02*
Y182000D01*
X217501D01*
X218001Y181500D01*
Y180500D01*
X217501Y180000D01*
X216001D01*
X217001D02*
X218001Y179000D01*
X220500D02*
Y182000D01*
X219000Y180500D01*
X221000D01*
X221999Y179500D02*
X222499Y179000D01*
X223499D01*
X223999Y179500D01*
Y181500D01*
X223499Y182000D01*
X222499D01*
X221999Y181500D01*
Y181000D01*
X222499Y180500D01*
X223999D01*
X256001Y352000D02*
Y354999D01*
X257501D01*
X258001Y354500D01*
Y353500D01*
X257501Y353000D01*
X256001D01*
X257001D02*
X258001Y352000D01*
X260500D02*
Y354999D01*
X259000Y353500D01*
X261000D01*
X261999Y354500D02*
X262499Y354999D01*
X263499D01*
X263999Y354500D01*
Y354000D01*
X263499Y353500D01*
X263999Y353000D01*
Y352500D01*
X263499Y352000D01*
X262499D01*
X261999Y352500D01*
Y353000D01*
X262499Y353500D01*
X261999Y354000D01*
Y354500D01*
X262499Y353500D02*
X263499D01*
X380501Y201000D02*
Y203999D01*
X382001D01*
X382501Y203500D01*
Y202500D01*
X382001Y202000D01*
X380501D01*
X381501D02*
X382501Y201000D01*
X385000D02*
Y203999D01*
X383500Y202500D01*
X385500D01*
X386499Y203999D02*
X388499D01*
Y203500D01*
X386499Y201500D01*
Y201000D01*
X359501D02*
Y203999D01*
X361001D01*
X361501Y203500D01*
Y202500D01*
X361001Y202000D01*
X359501D01*
X360501D02*
X361501Y201000D01*
X364000D02*
Y203999D01*
X362500Y202500D01*
X364500D01*
X367499Y203999D02*
X366499Y203500D01*
X365499Y202500D01*
Y201500D01*
X365999Y201000D01*
X366999D01*
X367499Y201500D01*
Y202000D01*
X366999Y202500D01*
X365499D01*
X370001Y84500D02*
Y87499D01*
X371501D01*
X372001Y87000D01*
Y86000D01*
X371501Y85500D01*
X370001D01*
X371001D02*
X372001Y84500D01*
X374500D02*
Y87499D01*
X373000Y86000D01*
X375000D01*
X377999Y87499D02*
X375999D01*
Y86000D01*
X376999Y86500D01*
X377499D01*
X377999Y86000D01*
Y85000D01*
X377499Y84500D01*
X376499D01*
X375999Y85000D01*
X361501Y108501D02*
Y111500D01*
X363001D01*
X363501Y111000D01*
Y110000D01*
X363001Y109500D01*
X361501D01*
X362501D02*
X363501Y108501D01*
X366000D02*
Y111500D01*
X364500Y110000D01*
X366500D01*
X368999Y108501D02*
Y111500D01*
X367499Y110000D01*
X369499D01*
X369501Y201000D02*
Y203999D01*
X371001D01*
X371501Y203500D01*
Y202500D01*
X371001Y202000D01*
X369501D01*
X370501D02*
X371501Y201000D01*
X374000D02*
Y203999D01*
X372500Y202500D01*
X374500D01*
X375499Y203500D02*
X375999Y203999D01*
X376999D01*
X377499Y203500D01*
Y203000D01*
X376999Y202500D01*
X376499D01*
X376999D01*
X377499Y202000D01*
Y201500D01*
X376999Y201000D01*
X375999D01*
X375499Y201500D01*
X153001Y294001D02*
Y297000D01*
X154501D01*
X155001Y296500D01*
Y295500D01*
X154501Y295000D01*
X153001D01*
X154001D02*
X155001Y294001D01*
X157500D02*
Y297000D01*
X156000Y295500D01*
X158000D01*
X160999Y294001D02*
X158999D01*
X160999Y296000D01*
Y296500D01*
X160499Y297000D01*
X159499D01*
X158999Y296500D01*
X360501Y69500D02*
Y72500D01*
X362001D01*
X362501Y72000D01*
Y71000D01*
X362001Y70500D01*
X360501D01*
X361501D02*
X362501Y69500D01*
X365000D02*
Y72500D01*
X363500Y71000D01*
X365499D01*
X366499Y69500D02*
X367499D01*
X366999D01*
Y72500D01*
X366499Y72000D01*
X376001Y118000D02*
Y121000D01*
X377501D01*
X378001Y120500D01*
Y119500D01*
X377501Y119000D01*
X376001D01*
X377001D02*
X378001Y118000D01*
X380500D02*
Y121000D01*
X379000Y119500D01*
X381000D01*
X381999Y120500D02*
X382499Y121000D01*
X383499D01*
X383999Y120500D01*
Y118500D01*
X383499Y118000D01*
X382499D01*
X381999Y118500D01*
Y120500D01*
X109001Y305501D02*
Y308500D01*
X110501D01*
X111001Y308000D01*
Y307000D01*
X110501Y306500D01*
X109001D01*
X110001D02*
X111001Y305501D01*
X112000Y308000D02*
X112500Y308500D01*
X113500D01*
X114000Y308000D01*
Y307500D01*
X113500Y307000D01*
X113000D01*
X113500D01*
X114000Y306500D01*
Y306000D01*
X113500Y305501D01*
X112500D01*
X112000Y306000D01*
X114999D02*
X115499Y305501D01*
X116499D01*
X116999Y306000D01*
Y308000D01*
X116499Y308500D01*
X115499D01*
X114999Y308000D01*
Y307500D01*
X115499Y307000D01*
X116999D01*
X124501Y289500D02*
Y292499D01*
X126001D01*
X126501Y292000D01*
Y291000D01*
X126001Y290500D01*
X124501D01*
X125501D02*
X126501Y289500D01*
X127500Y292000D02*
X128000Y292499D01*
X129000D01*
X129500Y292000D01*
Y291500D01*
X129000Y291000D01*
X128500D01*
X129000D01*
X129500Y290500D01*
Y290000D01*
X129000Y289500D01*
X128000D01*
X127500Y290000D01*
X130499Y292000D02*
X130999Y292499D01*
X131999D01*
X132499Y292000D01*
Y291500D01*
X131999Y291000D01*
X132499Y290500D01*
Y290000D01*
X131999Y289500D01*
X130999D01*
X130499Y290000D01*
Y290500D01*
X130999Y291000D01*
X130499Y291500D01*
Y292000D01*
X130999Y291000D02*
X131999D01*
X137001Y302000D02*
Y304999D01*
X138501D01*
X139001Y304500D01*
Y303500D01*
X138501Y303000D01*
X137001D01*
X138001D02*
X139001Y302000D01*
X140000Y304500D02*
X140500Y304999D01*
X141500D01*
X142000Y304500D01*
Y304000D01*
X141500Y303500D01*
X141000D01*
X141500D01*
X142000Y303000D01*
Y302500D01*
X141500Y302000D01*
X140500D01*
X140000Y302500D01*
X142999Y304999D02*
X144999D01*
Y304500D01*
X142999Y302500D01*
Y302000D01*
X351501Y146001D02*
Y149000D01*
X353001D01*
X353501Y148500D01*
Y147500D01*
X353001Y147000D01*
X351501D01*
X352501D02*
X353501Y146001D01*
X354500Y148500D02*
X355000Y149000D01*
X356000D01*
X356500Y148500D01*
Y148000D01*
X356000Y147500D01*
X355500D01*
X356000D01*
X356500Y147000D01*
Y146500D01*
X356000Y146001D01*
X355000D01*
X354500Y146500D01*
X359499Y149000D02*
X358499Y148500D01*
X357499Y147500D01*
Y146500D01*
X357999Y146001D01*
X358999D01*
X359499Y146500D01*
Y147000D01*
X358999Y147500D01*
X357499D01*
X362001Y146501D02*
Y149499D01*
X363501D01*
X364001Y149000D01*
Y148000D01*
X363501Y147500D01*
X362001D01*
X363001D02*
X364001Y146501D01*
X365000Y149000D02*
X365500Y149499D01*
X366500D01*
X367000Y149000D01*
Y148500D01*
X366500Y148000D01*
X366000D01*
X366500D01*
X367000Y147500D01*
Y147000D01*
X366500Y146501D01*
X365500D01*
X365000Y147000D01*
X369999Y149499D02*
X367999D01*
Y148000D01*
X368999Y148500D01*
X369499D01*
X369999Y148000D01*
Y147000D01*
X369499Y146501D01*
X368499D01*
X367999Y147000D01*
X244501Y150501D02*
Y153499D01*
X246001D01*
X246501Y153000D01*
Y152000D01*
X246001Y151500D01*
X244501D01*
X245501D02*
X246501Y150501D01*
X247500Y153000D02*
X248000Y153499D01*
X249000D01*
X249500Y153000D01*
Y152500D01*
X249000Y152000D01*
X248500D01*
X249000D01*
X249500Y151500D01*
Y151000D01*
X249000Y150501D01*
X248000D01*
X247500Y151000D01*
X251999Y150501D02*
Y153499D01*
X250499Y152000D01*
X252499D01*
X259001Y150501D02*
Y153499D01*
X260501D01*
X261001Y153000D01*
Y152000D01*
X260501Y151500D01*
X259001D01*
X260001D02*
X261001Y150501D01*
X262000Y153000D02*
X262500Y153499D01*
X263500D01*
X264000Y153000D01*
Y152500D01*
X263500Y152000D01*
X263000D01*
X263500D01*
X264000Y151500D01*
Y151000D01*
X263500Y150501D01*
X262500D01*
X262000Y151000D01*
X264999Y153000D02*
X265499Y153499D01*
X266499D01*
X266999Y153000D01*
Y152500D01*
X266499Y152000D01*
X265999D01*
X266499D01*
X266999Y151500D01*
Y151000D01*
X266499Y150501D01*
X265499D01*
X264999Y151000D01*
X229001Y150501D02*
Y153499D01*
X230501D01*
X231001Y153000D01*
Y152000D01*
X230501Y151500D01*
X229001D01*
X230001D02*
X231001Y150501D01*
X232000Y153000D02*
X232500Y153499D01*
X233500D01*
X234000Y153000D01*
Y152500D01*
X233500Y152000D01*
X233000D01*
X233500D01*
X234000Y151500D01*
Y151000D01*
X233500Y150501D01*
X232500D01*
X232000Y151000D01*
X236999Y150501D02*
X234999D01*
X236999Y152500D01*
Y153000D01*
X236499Y153499D01*
X235499D01*
X234999Y153000D01*
X104001Y351000D02*
Y353999D01*
X105501D01*
X106000Y353500D01*
Y352500D01*
X105501Y352000D01*
X104001D01*
X105001D02*
X106000Y351000D01*
X107000Y353500D02*
X107500Y353999D01*
X108500D01*
X109000Y353500D01*
Y353000D01*
X108500Y352500D01*
X108000D01*
X108500D01*
X109000Y352000D01*
Y351500D01*
X108500Y351000D01*
X107500D01*
X107000Y351500D01*
X109999Y351000D02*
X110999D01*
X110499D01*
Y353999D01*
X109999Y353500D01*
X93001Y332000D02*
Y334999D01*
X94501D01*
X95001Y334500D01*
Y333500D01*
X94501Y333000D01*
X93001D01*
X94001D02*
X95001Y332000D01*
X96000Y334500D02*
X96500Y334999D01*
X97500D01*
X98000Y334500D01*
Y334000D01*
X97500Y333500D01*
X97000D01*
X97500D01*
X98000Y333000D01*
Y332500D01*
X97500Y332000D01*
X96500D01*
X96000Y332500D01*
X98999Y334500D02*
X99499Y334999D01*
X100499D01*
X100999Y334500D01*
Y332500D01*
X100499Y332000D01*
X99499D01*
X98999Y332500D01*
Y334500D01*
X292001Y67501D02*
Y70499D01*
X293501D01*
X294001Y70000D01*
Y69000D01*
X293501Y68500D01*
X292001D01*
X293001D02*
X294001Y67501D01*
X297000D02*
X295000D01*
X297000Y69500D01*
Y70000D01*
X296500Y70499D01*
X295500D01*
X295000Y70000D01*
X297999Y68000D02*
X298499Y67501D01*
X299499D01*
X299999Y68000D01*
Y70000D01*
X299499Y70499D01*
X298499D01*
X297999Y70000D01*
Y69500D01*
X298499Y69000D01*
X299999D01*
X80001Y332000D02*
Y334999D01*
X81501D01*
X82001Y334500D01*
Y333500D01*
X81501Y333000D01*
X80001D01*
X81001D02*
X82001Y332000D01*
X85000D02*
X83000D01*
X85000Y334000D01*
Y334500D01*
X84500Y334999D01*
X83500D01*
X83000Y334500D01*
X85999D02*
X86499Y334999D01*
X87499D01*
X87999Y334500D01*
Y334000D01*
X87499Y333500D01*
X87999Y333000D01*
Y332500D01*
X87499Y332000D01*
X86499D01*
X85999Y332500D01*
Y333000D01*
X86499Y333500D01*
X85999Y334000D01*
Y334500D01*
X86499Y333500D02*
X87499D01*
X149001Y386501D02*
Y389499D01*
X150501D01*
X151001Y389000D01*
Y388000D01*
X150501Y387500D01*
X149001D01*
X150001D02*
X151001Y386501D01*
X154000D02*
X152000D01*
X154000Y388500D01*
Y389000D01*
X153500Y389499D01*
X152500D01*
X152000Y389000D01*
X154999Y389499D02*
X156999D01*
Y389000D01*
X154999Y387000D01*
Y386501D01*
X71501Y351501D02*
Y354500D01*
X73001D01*
X73501Y354000D01*
Y353000D01*
X73001Y352500D01*
X71501D01*
X72501D02*
X73501Y351501D01*
X76500D02*
X74500D01*
X76500Y353500D01*
Y354000D01*
X76000Y354500D01*
X75000D01*
X74500Y354000D01*
X79499Y354500D02*
X78499Y354000D01*
X77499Y353000D01*
Y352000D01*
X77999Y351501D01*
X78999D01*
X79499Y352000D01*
Y352500D01*
X78999Y353000D01*
X77499D01*
X119001Y333501D02*
Y336500D01*
X120501D01*
X121001Y336000D01*
Y335000D01*
X120501Y334500D01*
X119001D01*
X120001D02*
X121001Y333501D01*
X124000D02*
X122000D01*
X124000Y335500D01*
Y336000D01*
X123500Y336500D01*
X122500D01*
X122000Y336000D01*
X126999Y336500D02*
X124999D01*
Y335000D01*
X125999Y335500D01*
X126499D01*
X126999Y335000D01*
Y334000D01*
X126499Y333501D01*
X125499D01*
X124999Y334000D01*
X172501Y337501D02*
Y340499D01*
X174001D01*
X174501Y340000D01*
Y339000D01*
X174001Y338500D01*
X172501D01*
X173501D02*
X174501Y337501D01*
X177500D02*
X175500D01*
X177500Y339500D01*
Y340000D01*
X177000Y340499D01*
X176000D01*
X175500Y340000D01*
X179999Y337501D02*
Y340499D01*
X178499Y339000D01*
X180499D01*
X163001Y353000D02*
Y355999D01*
X164501D01*
X165001Y355500D01*
Y354500D01*
X164501Y354000D01*
X163001D01*
X164001D02*
X165001Y353000D01*
X168000D02*
X166000D01*
X168000Y355000D01*
Y355500D01*
X167500Y355999D01*
X166500D01*
X166000Y355500D01*
X168999D02*
X169499Y355999D01*
X170499D01*
X170999Y355500D01*
Y355000D01*
X170499Y354500D01*
X169999D01*
X170499D01*
X170999Y354000D01*
Y353500D01*
X170499Y353000D01*
X169499D01*
X168999Y353500D01*
X190001Y332501D02*
Y335500D01*
X191501D01*
X192001Y335000D01*
Y334000D01*
X191501Y333500D01*
X190001D01*
X191001D02*
X192001Y332501D01*
X195000D02*
X193000D01*
X195000Y334500D01*
Y335000D01*
X194500Y335500D01*
X193500D01*
X193000Y335000D01*
X197999Y332501D02*
X195999D01*
X197999Y334500D01*
Y335000D01*
X197499Y335500D01*
X196499D01*
X195999Y335000D01*
X254501Y368001D02*
Y371000D01*
X256001D01*
X256501Y370500D01*
Y369500D01*
X256001Y369000D01*
X254501D01*
X255501D02*
X256501Y368001D01*
X259500D02*
X257500D01*
X259500Y370000D01*
Y370500D01*
X259000Y371000D01*
X258000D01*
X257500Y370500D01*
X260499Y368001D02*
X261499D01*
X260999D01*
Y371000D01*
X260499Y370500D01*
X253501Y388000D02*
Y391000D01*
X255001D01*
X255501Y390500D01*
Y389500D01*
X255001Y389000D01*
X253501D01*
X254501D02*
X255501Y388000D01*
X258500D02*
X256500D01*
X258500Y390000D01*
Y390500D01*
X258000Y391000D01*
X257000D01*
X256500Y390500D01*
X259499D02*
X259999Y391000D01*
X260999D01*
X261499Y390500D01*
Y388500D01*
X260999Y388000D01*
X259999D01*
X259499Y388500D01*
Y390500D01*
X164251Y385501D02*
Y388499D01*
X165751D01*
X166251Y388000D01*
Y387000D01*
X165751Y386500D01*
X164251D01*
X165251D02*
X166251Y385501D01*
X167250D02*
X168250D01*
X167750D01*
Y388499D01*
X167250Y388000D01*
X169749Y386000D02*
X170249Y385501D01*
X171249D01*
X171749Y386000D01*
Y388000D01*
X171249Y388499D01*
X170249D01*
X169749Y388000D01*
Y387500D01*
X170249Y387000D01*
X171749D01*
X206251Y394001D02*
Y397000D01*
X207751D01*
X208251Y396500D01*
Y395500D01*
X207751Y395000D01*
X206251D01*
X207251D02*
X208251Y394001D01*
X209250D02*
X210250D01*
X209750D01*
Y397000D01*
X209250Y396500D01*
X211749D02*
X212249Y397000D01*
X213249D01*
X213749Y396500D01*
Y396000D01*
X213249Y395500D01*
X213749Y395000D01*
Y394500D01*
X213249Y394001D01*
X212249D01*
X211749Y394500D01*
Y395000D01*
X212249Y395500D01*
X211749Y396000D01*
Y396500D01*
X212249Y395500D02*
X213249D01*
X184751Y155481D02*
Y158480D01*
X186251D01*
X186751Y157980D01*
Y156980D01*
X186251Y156481D01*
X184751D01*
X185751D02*
X186751Y155481D01*
X187750D02*
X188750D01*
X188250D01*
Y158480D01*
X187750Y157980D01*
X190249Y158480D02*
X192249D01*
Y157980D01*
X190249Y155981D01*
Y155481D01*
X109251Y128500D02*
Y131500D01*
X110751D01*
X111251Y131000D01*
Y130000D01*
X110751Y129500D01*
X109251D01*
X110251D02*
X111251Y128500D01*
X112250D02*
X113250D01*
X112750D01*
Y131500D01*
X112250Y131000D01*
X116749Y131500D02*
X115749Y131000D01*
X114749Y130000D01*
Y129000D01*
X115249Y128500D01*
X116249D01*
X116749Y129000D01*
Y129500D01*
X116249Y130000D01*
X114749D01*
X156251Y73501D02*
Y76499D01*
X157751D01*
X158251Y76000D01*
Y75000D01*
X157751Y74500D01*
X156251D01*
X157251D02*
X158251Y73501D01*
X159250D02*
X160250D01*
X159750D01*
Y76499D01*
X159250Y76000D01*
X163749Y76499D02*
X161749D01*
Y75000D01*
X162749Y75500D01*
X163249D01*
X163749Y75000D01*
Y74000D01*
X163249Y73501D01*
X162249D01*
X161749Y74000D01*
X326751Y87001D02*
Y90000D01*
X328251D01*
X328751Y89500D01*
Y88500D01*
X328251Y88000D01*
X326751D01*
X327751D02*
X328751Y87001D01*
X329750D02*
X330750D01*
X330250D01*
Y90000D01*
X329750Y89500D01*
X333749Y87001D02*
Y90000D01*
X332249Y88500D01*
X334249D01*
X306751Y88500D02*
Y91500D01*
X308251D01*
X308751Y91000D01*
Y90000D01*
X308251Y89500D01*
X306751D01*
X307751D02*
X308751Y88500D01*
X309750D02*
X310750D01*
X310250D01*
Y91500D01*
X309750Y91000D01*
X312249D02*
X312749Y91500D01*
X313749D01*
X314249Y91000D01*
Y90500D01*
X313749Y90000D01*
X313249D01*
X313749D01*
X314249Y89500D01*
Y89000D01*
X313749Y88500D01*
X312749D01*
X312249Y89000D01*
X283251Y116000D02*
Y119000D01*
X284751D01*
X285251Y118500D01*
Y117500D01*
X284751Y117000D01*
X283251D01*
X284251D02*
X285251Y116000D01*
X286250D02*
X287250D01*
X286750D01*
Y119000D01*
X286250Y118500D01*
X290749Y116000D02*
X288749D01*
X290749Y118000D01*
Y118500D01*
X290249Y119000D01*
X289249D01*
X288749Y118500D01*
X345251Y101500D02*
Y104499D01*
X346751D01*
X347250Y104000D01*
Y103000D01*
X346751Y102500D01*
X345251D01*
X346251D02*
X347250Y101500D01*
X348250D02*
X349250D01*
X348750D01*
Y104499D01*
X348250Y104000D01*
X350749Y101500D02*
X351749D01*
X351249D01*
Y104499D01*
X350749Y104000D01*
X344751Y128000D02*
Y131000D01*
X346251D01*
X346751Y130500D01*
Y129500D01*
X346251Y129000D01*
X344751D01*
X345751D02*
X346751Y128000D01*
X347750D02*
X348750D01*
X348250D01*
Y131000D01*
X347750Y130500D01*
X350249D02*
X350749Y131000D01*
X351749D01*
X352249Y130500D01*
Y128500D01*
X351749Y128000D01*
X350749D01*
X350249Y128500D01*
Y130500D01*
X358001Y127500D02*
Y130499D01*
X359500D01*
X360000Y130000D01*
Y129000D01*
X359500Y128500D01*
X358001D01*
X359000D02*
X360000Y127500D01*
X361000Y128000D02*
X361500Y127500D01*
X362499D01*
X362999Y128000D01*
Y130000D01*
X362499Y130499D01*
X361500D01*
X361000Y130000D01*
Y129500D01*
X361500Y129000D01*
X362999D01*
X286001Y129251D02*
Y132249D01*
X287500D01*
X288000Y131750D01*
Y130750D01*
X287500Y130250D01*
X286001D01*
X287000D02*
X288000Y129251D01*
X289000Y131750D02*
X289500Y132249D01*
X290499D01*
X290999Y131750D01*
Y131250D01*
X290499Y130750D01*
X290999Y130250D01*
Y129750D01*
X290499Y129251D01*
X289500D01*
X289000Y129750D01*
Y130250D01*
X289500Y130750D01*
X289000Y131250D01*
Y131750D01*
X289500Y130750D02*
X290499D01*
X319501Y137501D02*
Y140499D01*
X321000D01*
X321500Y140000D01*
Y139000D01*
X321000Y138500D01*
X319501D01*
X320500D02*
X321500Y137501D01*
X322500Y140499D02*
X324499D01*
Y140000D01*
X322500Y138000D01*
Y137501D01*
X337501Y138001D02*
Y140999D01*
X339000D01*
X339500Y140500D01*
Y139500D01*
X339000Y139000D01*
X337501D01*
X338500D02*
X339500Y138001D01*
X342499Y140999D02*
X341499Y140500D01*
X340500Y139500D01*
Y138500D01*
X341000Y138001D01*
X341999D01*
X342499Y138500D01*
Y139000D01*
X341999Y139500D01*
X340500D01*
X286001Y122376D02*
Y125374D01*
X287500D01*
X288000Y124875D01*
Y123875D01*
X287500Y123375D01*
X286001D01*
X287000D02*
X288000Y122376D01*
X290999Y125374D02*
X289000D01*
Y123875D01*
X290000Y124375D01*
X290499D01*
X290999Y123875D01*
Y122875D01*
X290499Y122376D01*
X289500D01*
X289000Y122875D01*
X285001Y144501D02*
Y147500D01*
X286500D01*
X287000Y147000D01*
Y146000D01*
X286500Y145500D01*
X285001D01*
X286000D02*
X287000Y144501D01*
X289499D02*
Y147500D01*
X288000Y146000D01*
X289999D01*
X328001Y138001D02*
Y140999D01*
X329500D01*
X330000Y140500D01*
Y139500D01*
X329500Y139000D01*
X328001D01*
X329000D02*
X330000Y138001D01*
X331000Y140500D02*
X331500Y140999D01*
X332499D01*
X332999Y140500D01*
Y140000D01*
X332499Y139500D01*
X331999D01*
X332499D01*
X332999Y139000D01*
Y138500D01*
X332499Y138001D01*
X331500D01*
X331000Y138500D01*
X310501Y143500D02*
Y146500D01*
X312000D01*
X312500Y146000D01*
Y145000D01*
X312000Y144500D01*
X310501D01*
X311501D02*
X312500Y143500D01*
X315499D02*
X313500D01*
X315499Y145500D01*
Y146000D01*
X314999Y146500D01*
X314000D01*
X313500Y146000D01*
X286501Y136626D02*
Y139625D01*
X288000D01*
X288500Y139125D01*
Y138125D01*
X288000Y137625D01*
X286501D01*
X287500D02*
X288500Y136626D01*
X289500D02*
X290499D01*
X290000D01*
Y139625D01*
X289500Y139125D01*
X185001Y107001D02*
Y110000D01*
X186501D01*
X187001Y109500D01*
Y108500D01*
X186501Y108000D01*
X185001D01*
X190000Y107001D02*
X188000D01*
X190000Y109000D01*
Y109500D01*
X189500Y110000D01*
X188500D01*
X188000Y109500D01*
X192999Y107001D02*
X190999D01*
X192999Y109000D01*
Y109500D01*
X192499Y110000D01*
X191499D01*
X190999Y109500D01*
X244001Y107001D02*
Y110000D01*
X245501D01*
X246001Y109500D01*
Y108500D01*
X245501Y108000D01*
X244001D01*
X249000Y107001D02*
X247000D01*
X249000Y109000D01*
Y109500D01*
X248500Y110000D01*
X247500D01*
X247000Y109500D01*
X249999Y107001D02*
X250999D01*
X250499D01*
Y110000D01*
X249999Y109500D01*
X198001Y107501D02*
Y110500D01*
X199501D01*
X200001Y110000D01*
Y109000D01*
X199501Y108500D01*
X198001D01*
X203000Y107501D02*
X201000D01*
X203000Y109500D01*
Y110000D01*
X202500Y110500D01*
X201500D01*
X201000Y110000D01*
X203999D02*
X204499Y110500D01*
X205499D01*
X205999Y110000D01*
Y108000D01*
X205499Y107501D01*
X204499D01*
X203999Y108000D01*
Y110000D01*
X258751Y107501D02*
Y110500D01*
X260251D01*
X260751Y110000D01*
Y109000D01*
X260251Y108500D01*
X258751D01*
X261750Y107501D02*
X262750D01*
X262250D01*
Y110500D01*
X261750Y110000D01*
X264249Y108000D02*
X264749Y107501D01*
X265749D01*
X266249Y108000D01*
Y110000D01*
X265749Y110500D01*
X264749D01*
X264249Y110000D01*
Y109500D01*
X264749Y109000D01*
X266249D01*
X215251Y107501D02*
Y110500D01*
X216751D01*
X217251Y110000D01*
Y109000D01*
X216751Y108500D01*
X215251D01*
X218250Y107501D02*
X219250D01*
X218750D01*
Y110500D01*
X218250Y110000D01*
X220749D02*
X221249Y110500D01*
X222249D01*
X222749Y110000D01*
Y109500D01*
X222249Y109000D01*
X222749Y108500D01*
Y108000D01*
X222249Y107501D01*
X221249D01*
X220749Y108000D01*
Y108500D01*
X221249Y109000D01*
X220749Y109500D01*
Y110000D01*
X221249Y109000D02*
X222249D01*
X229751Y107001D02*
Y110000D01*
X231251D01*
X231751Y109500D01*
Y108500D01*
X231251Y108000D01*
X229751D01*
X232750Y107001D02*
X233750D01*
X233250D01*
Y110000D01*
X232750Y109500D01*
X235249Y110000D02*
X237249D01*
Y109500D01*
X235249Y107500D01*
Y107001D01*
X315251Y55501D02*
Y58499D01*
X316751D01*
X317251Y58000D01*
Y57000D01*
X316751Y56500D01*
X315251D01*
X318250Y55501D02*
X319250D01*
X318750D01*
Y58499D01*
X318250Y58000D01*
X322749Y58499D02*
X321749Y58000D01*
X320749Y57000D01*
Y56000D01*
X321249Y55501D01*
X322249D01*
X322749Y56000D01*
Y56500D01*
X322249Y57000D01*
X320749D01*
X358251Y55501D02*
Y58499D01*
X359751D01*
X360251Y58000D01*
Y57000D01*
X359751Y56500D01*
X358251D01*
X361250Y55501D02*
X362250D01*
X361750D01*
Y58499D01*
X361250Y58000D01*
X365749Y58499D02*
X363749D01*
Y57000D01*
X364749Y57500D01*
X365249D01*
X365749Y57000D01*
Y56000D01*
X365249Y55501D01*
X364249D01*
X363749Y56000D01*
X400251Y56001D02*
Y59000D01*
X401751D01*
X402251Y58500D01*
Y57500D01*
X401751Y57000D01*
X400251D01*
X403250Y56001D02*
X404250D01*
X403750D01*
Y59000D01*
X403250Y58500D01*
X407249Y56001D02*
Y59000D01*
X405749Y57500D01*
X407749D01*
X186251Y55501D02*
Y58499D01*
X187751D01*
X188251Y58000D01*
Y57000D01*
X187751Y56500D01*
X186251D01*
X189250Y55501D02*
X190250D01*
X189750D01*
Y58499D01*
X189250Y58000D01*
X191749D02*
X192249Y58499D01*
X193249D01*
X193749Y58000D01*
Y57500D01*
X193249Y57000D01*
X192749D01*
X193249D01*
X193749Y56500D01*
Y56000D01*
X193249Y55501D01*
X192249D01*
X191749Y56000D01*
X284251Y55001D02*
Y57999D01*
X285751D01*
X286251Y57500D01*
Y56500D01*
X285751Y56000D01*
X284251D01*
X287250Y55001D02*
X288250D01*
X287750D01*
Y57999D01*
X287250Y57500D01*
X291749Y55001D02*
X289749D01*
X291749Y57000D01*
Y57500D01*
X291249Y57999D01*
X290249D01*
X289749Y57500D01*
X9249Y324000D02*
Y326998D01*
X10748D01*
X11248Y326499D01*
Y325499D01*
X10748Y324999D01*
X9249D01*
X12248Y324000D02*
X13248D01*
X12748D01*
Y326998D01*
X12248Y326499D01*
X14747Y324000D02*
X15747D01*
X15247D01*
Y326998D01*
X14747Y326499D01*
X9449Y400499D02*
Y403499D01*
X10948D01*
X11448Y402999D01*
Y401999D01*
X10948Y401499D01*
X9449D01*
X12448Y400499D02*
X13447D01*
X12948D01*
Y403499D01*
X12448Y402999D01*
X14947D02*
X15447Y403499D01*
X16446D01*
X16946Y402999D01*
Y400999D01*
X16446Y400499D01*
X15447D01*
X14947Y400999D01*
Y402999D01*
X7899Y367600D02*
Y370599D01*
X9399D01*
X9899Y370099D01*
Y369099D01*
X9399Y368599D01*
X7899D01*
X10898Y368099D02*
X11398Y367600D01*
X12398D01*
X12898Y368099D01*
Y370099D01*
X12398Y370599D01*
X11398D01*
X10898Y370099D01*
Y369599D01*
X11398Y369099D01*
X12898D01*
X49001Y45000D02*
Y48000D01*
X50500D01*
X51000Y47500D01*
Y46500D01*
X50500Y46000D01*
X49001D01*
X52000Y47500D02*
X52500Y48000D01*
X53499D01*
X53999Y47500D01*
Y47000D01*
X53499Y46500D01*
X53999Y46000D01*
Y45500D01*
X53499Y45000D01*
X52500D01*
X52000Y45500D01*
Y46000D01*
X52500Y46500D01*
X52000Y47000D01*
Y47500D01*
X52500Y46500D02*
X53499D01*
X148501Y55001D02*
Y57999D01*
X150000D01*
X150500Y57500D01*
Y56500D01*
X150000Y56000D01*
X148501D01*
X153499Y57999D02*
X152499Y57500D01*
X151500Y56500D01*
Y55500D01*
X152000Y55001D01*
X152999D01*
X153499Y55500D01*
Y56000D01*
X152999Y56500D01*
X151500D01*
X7499Y292499D02*
Y295498D01*
X8999D01*
X9499Y294999D01*
Y293999D01*
X8999Y293499D01*
X7499D01*
X12498Y295498D02*
X10498D01*
Y293999D01*
X11498Y294499D01*
X11998D01*
X12498Y293999D01*
Y292999D01*
X11998Y292499D01*
X10998D01*
X10498Y292999D01*
X557501Y59000D02*
Y61999D01*
X559000D01*
X559500Y61500D01*
Y60500D01*
X559000Y60000D01*
X557501D01*
X561999Y59000D02*
Y61999D01*
X560500Y60500D01*
X562499D01*
X252501Y55001D02*
Y57999D01*
X254000D01*
X254500Y57500D01*
Y56500D01*
X254000Y56000D01*
X252501D01*
X255500Y57500D02*
X256000Y57999D01*
X256999D01*
X257499Y57500D01*
Y57000D01*
X256999Y56500D01*
X256500D01*
X256999D01*
X257499Y56000D01*
Y55500D01*
X256999Y55001D01*
X256000D01*
X255500Y55500D01*
X6899Y231100D02*
Y234099D01*
X8399D01*
X8899Y233599D01*
Y232599D01*
X8399Y232099D01*
X6899D01*
X11898Y231100D02*
X9898D01*
X11898Y233099D01*
Y233599D01*
X11398Y234099D01*
X10398D01*
X9898Y233599D01*
X6499Y260999D02*
Y263999D01*
X7999D01*
X8499Y263499D01*
Y262499D01*
X7999Y261999D01*
X6499D01*
X9498Y260999D02*
X10498D01*
X9998D01*
Y263999D01*
X9498Y263499D01*
X188502Y176999D02*
Y174001D01*
X190501D01*
X193500Y176999D02*
X191501D01*
Y174001D01*
X193500D01*
X191501Y175500D02*
X192500D01*
X194500Y176999D02*
Y174001D01*
X195999D01*
X196499Y174500D01*
Y176500D01*
X195999Y176999D01*
X194500D01*
X198998Y174001D02*
Y176999D01*
X197499Y175500D01*
X199498D01*
X201502Y176999D02*
Y174001D01*
X203501D01*
X206500Y176999D02*
X204501D01*
Y174001D01*
X206500D01*
X204501Y175500D02*
X205501D01*
X207500Y176999D02*
Y174001D01*
X208999D01*
X209499Y174500D01*
Y176500D01*
X208999Y176999D01*
X207500D01*
X210499Y176500D02*
X210999Y176999D01*
X211998D01*
X212498Y176500D01*
Y176000D01*
X211998Y175500D01*
X211498D01*
X211998D01*
X212498Y175000D01*
Y174500D01*
X211998Y174001D01*
X210999D01*
X210499Y174500D01*
X219002Y166999D02*
Y164000D01*
X221001D01*
X224000Y166999D02*
X222001D01*
Y164000D01*
X224000D01*
X222001Y165500D02*
X223001D01*
X225000Y166999D02*
Y164000D01*
X226499D01*
X226999Y164500D01*
Y166500D01*
X226499Y166999D01*
X225000D01*
X229998Y164000D02*
X227999D01*
X229998Y166000D01*
Y166500D01*
X229498Y166999D01*
X228499D01*
X227999Y166500D01*
X172502Y171000D02*
Y168000D01*
X174501D01*
X177500Y171000D02*
X175501D01*
Y168000D01*
X177500D01*
X175501Y169500D02*
X176500D01*
X178500Y171000D02*
Y168000D01*
X179999D01*
X180499Y168500D01*
Y170500D01*
X179999Y171000D01*
X178500D01*
X181499Y168000D02*
X182498D01*
X181999D01*
Y171000D01*
X181499Y170500D01*
X5001Y114499D02*
Y111501D01*
X7000D01*
X9999Y114499D02*
X8999Y114000D01*
X8000Y113000D01*
Y112000D01*
X8500Y111501D01*
X9499D01*
X9999Y112000D01*
Y112500D01*
X9499Y113000D01*
X8000D01*
X583001Y104999D02*
Y102000D01*
X585000D01*
X587999Y104999D02*
X586000D01*
Y103500D01*
X587000Y104000D01*
X587499D01*
X587999Y103500D01*
Y102500D01*
X587499Y102000D01*
X586500D01*
X586000Y102500D01*
X465001Y61999D02*
Y59000D01*
X467000D01*
X469499D02*
Y61999D01*
X468000Y60500D01*
X469999D01*
X212001Y242000D02*
Y239001D01*
X214000D01*
X215000Y241500D02*
X215500Y242000D01*
X216499D01*
X216999Y241500D01*
Y241000D01*
X216499Y240500D01*
X216000D01*
X216499D01*
X216999Y240000D01*
Y239500D01*
X216499Y239001D01*
X215500D01*
X215000Y239500D01*
X111501Y100499D02*
Y97500D01*
X113500D01*
X116499D02*
X114500D01*
X116499Y99500D01*
Y100000D01*
X115999Y100499D01*
X115000D01*
X114500Y100000D01*
X159001Y103999D02*
Y101000D01*
X161000D01*
X162000D02*
X162999D01*
X162499D01*
Y103999D01*
X162000Y103500D01*
X181001Y388499D02*
X179002D01*
Y387000D01*
X180001D01*
X179002D01*
Y385501D01*
X184000Y388499D02*
X182001D01*
Y385501D01*
X184000D01*
X182001Y387000D02*
X183000D01*
X185000Y388499D02*
X186999D01*
X185999D01*
Y385501D01*
X187999D02*
X188998D01*
X188499D01*
Y388499D01*
X187999Y388000D01*
X75000Y85000D02*
X73001D01*
Y83500D01*
X74001D01*
X73001D01*
Y82000D01*
X77999D02*
X76000D01*
X77999Y84000D01*
Y84500D01*
X77499Y85000D01*
X76500D01*
X76000Y84500D01*
X84000Y38500D02*
X82001D01*
Y37000D01*
X83000D01*
X82001D01*
Y35500D01*
X85000D02*
X85999D01*
X85500D01*
Y38500D01*
X85000Y38000D01*
X6001Y137499D02*
Y134501D01*
X7500D01*
X8000Y135000D01*
Y137000D01*
X7500Y137499D01*
X6001D01*
X9000Y137000D02*
X9500Y137499D01*
X10499D01*
X10999Y137000D01*
Y136500D01*
X10499Y136000D01*
X10999Y135500D01*
Y135000D01*
X10499Y134501D01*
X9500D01*
X9000Y135000D01*
Y135500D01*
X9500Y136000D01*
X9000Y136500D01*
Y137000D01*
X9500Y136000D02*
X10499D01*
X538501Y148500D02*
Y145501D01*
X540000D01*
X540500Y146000D01*
Y148000D01*
X540000Y148500D01*
X538501D01*
X541500D02*
X543499D01*
Y148000D01*
X541500Y146000D01*
Y145501D01*
X429001Y5500D02*
Y2500D01*
X430500D01*
X431000Y3000D01*
Y5000D01*
X430500Y5500D01*
X429001D01*
X433999D02*
X433000Y5000D01*
X432000Y4000D01*
Y3000D01*
X432500Y2500D01*
X433499D01*
X433999Y3000D01*
Y3500D01*
X433499Y4000D01*
X432000D01*
X382501Y60500D02*
Y57500D01*
X384000D01*
X384500Y58000D01*
Y60000D01*
X384000Y60500D01*
X382501D01*
X386999Y57500D02*
Y60500D01*
X385500Y59000D01*
X387499D01*
X400001Y141999D02*
Y139000D01*
X401500D01*
X402000Y139500D01*
Y141500D01*
X401500Y141999D01*
X400001D01*
X403000Y141500D02*
X403500Y141999D01*
X404499D01*
X404999Y141500D01*
Y141000D01*
X404499Y140500D01*
X404000D01*
X404499D01*
X404999Y140000D01*
Y139500D01*
X404499Y139000D01*
X403500D01*
X403000Y139500D01*
X287501Y77500D02*
Y74501D01*
X289000D01*
X289500Y75000D01*
Y77000D01*
X289000Y77500D01*
X287501D01*
X292499Y74501D02*
X290500D01*
X292499Y76500D01*
Y77000D01*
X291999Y77500D01*
X291000D01*
X290500Y77000D01*
X287501Y81999D02*
Y79001D01*
X289000D01*
X289500Y79500D01*
Y81500D01*
X289000Y81999D01*
X287501D01*
X290500Y79001D02*
X291499D01*
X291000D01*
Y81999D01*
X290500Y81500D01*
X60501Y6500D02*
X60001Y7000D01*
X59001D01*
X58501Y6500D01*
Y4500D01*
X59001Y4000D01*
X60001D01*
X60501Y4500D01*
X61500Y6500D02*
X62000Y7000D01*
X63000D01*
X63500Y6500D01*
Y6000D01*
X63000Y5500D01*
X62500D01*
X63000D01*
X63500Y5000D01*
Y4500D01*
X63000Y4000D01*
X62000D01*
X61500Y4500D01*
X64499Y6500D02*
X64999Y7000D01*
X65999D01*
X66499Y6500D01*
Y6000D01*
X65999Y5500D01*
X66499Y5000D01*
Y4500D01*
X65999Y4000D01*
X64999D01*
X64499Y4500D01*
Y5000D01*
X64999Y5500D01*
X64499Y6000D01*
Y6500D01*
X64999Y5500D02*
X65999D01*
X95501Y168000D02*
X95001Y168500D01*
X94001D01*
X93501Y168000D01*
Y166000D01*
X94001Y165500D01*
X95001D01*
X95501Y166000D01*
X96500Y168000D02*
X97000Y168500D01*
X98000D01*
X98500Y168000D01*
Y167500D01*
X98000Y167000D01*
X97500D01*
X98000D01*
X98500Y166500D01*
Y166000D01*
X98000Y165500D01*
X97000D01*
X96500Y166000D01*
X99499Y168500D02*
X101499D01*
Y168000D01*
X99499Y166000D01*
Y165500D01*
X90001Y224000D02*
X89501Y224500D01*
X88501D01*
X88001Y224000D01*
Y222000D01*
X88501Y221500D01*
X89501D01*
X90001Y222000D01*
X91000Y224000D02*
X91500Y224500D01*
X92500D01*
X93000Y224000D01*
Y223500D01*
X92500Y223000D01*
X92000D01*
X92500D01*
X93000Y222500D01*
Y222000D01*
X92500Y221500D01*
X91500D01*
X91000Y222000D01*
X95999Y224500D02*
X94999Y224000D01*
X93999Y223000D01*
Y222000D01*
X94499Y221500D01*
X95499D01*
X95999Y222000D01*
Y222500D01*
X95499Y223000D01*
X93999D01*
X35501Y182000D02*
X35001Y182500D01*
X34001D01*
X33501Y182000D01*
Y180000D01*
X34001Y179500D01*
X35001D01*
X35501Y180000D01*
X36500Y182000D02*
X37000Y182500D01*
X38000D01*
X38500Y182000D01*
Y181500D01*
X38000Y181000D01*
X37500D01*
X38000D01*
X38500Y180500D01*
Y180000D01*
X38000Y179500D01*
X37000D01*
X36500Y180000D01*
X41499Y182500D02*
X39499D01*
Y181000D01*
X40499Y181500D01*
X40999D01*
X41499Y181000D01*
Y180000D01*
X40999Y179500D01*
X39999D01*
X39499Y180000D01*
X26501Y165000D02*
X26001Y165499D01*
X25001D01*
X24501Y165000D01*
Y163000D01*
X25001Y162501D01*
X26001D01*
X26501Y163000D01*
X27500Y165000D02*
X28000Y165499D01*
X29000D01*
X29500Y165000D01*
Y164500D01*
X29000Y164000D01*
X28500D01*
X29000D01*
X29500Y163500D01*
Y163000D01*
X29000Y162501D01*
X28000D01*
X27500Y163000D01*
X31999Y162501D02*
Y165499D01*
X30499Y164000D01*
X32499D01*
X15501Y182500D02*
X15001Y183000D01*
X14001D01*
X13501Y182500D01*
Y180500D01*
X14001Y180000D01*
X15001D01*
X15501Y180500D01*
X16500Y182500D02*
X17000Y183000D01*
X18000D01*
X18500Y182500D01*
Y182000D01*
X18000Y181500D01*
X17500D01*
X18000D01*
X18500Y181000D01*
Y180500D01*
X18000Y180000D01*
X17000D01*
X16500Y180500D01*
X19499Y182500D02*
X19999Y183000D01*
X20999D01*
X21499Y182500D01*
Y182000D01*
X20999Y181500D01*
X20499D01*
X20999D01*
X21499Y181000D01*
Y180500D01*
X20999Y180000D01*
X19999D01*
X19499Y180500D01*
X586501Y96000D02*
X586001Y96500D01*
X585001D01*
X584501Y96000D01*
Y94000D01*
X585001Y93501D01*
X586001D01*
X586501Y94000D01*
X587500Y96000D02*
X588000Y96500D01*
X589000D01*
X589500Y96000D01*
Y95500D01*
X589000Y95000D01*
X588500D01*
X589000D01*
X589500Y94500D01*
Y94000D01*
X589000Y93501D01*
X588000D01*
X587500Y94000D01*
X592499Y93501D02*
X590499D01*
X592499Y95500D01*
Y96000D01*
X591999Y96500D01*
X590999D01*
X590499Y96000D01*
X539001Y108759D02*
X538501Y109259D01*
X537501D01*
X537001Y108759D01*
Y106760D01*
X537501Y106260D01*
X538501D01*
X539001Y106760D01*
X540000Y108759D02*
X540500Y109259D01*
X541500D01*
X541999Y108759D01*
Y108260D01*
X541500Y107760D01*
X541000D01*
X541500D01*
X541999Y107260D01*
Y106760D01*
X541500Y106260D01*
X540500D01*
X540000Y106760D01*
X542999Y106260D02*
X543999D01*
X543499D01*
Y109259D01*
X542999Y108759D01*
X497501Y150500D02*
X497001Y150999D01*
X496001D01*
X495501Y150500D01*
Y148500D01*
X496001Y148001D01*
X497001D01*
X497501Y148500D01*
X498500Y150500D02*
X499000Y150999D01*
X500000D01*
X500500Y150500D01*
Y150000D01*
X500000Y149500D01*
X499500D01*
X500000D01*
X500500Y149000D01*
Y148500D01*
X500000Y148001D01*
X499000D01*
X498500Y148500D01*
X501499Y150500D02*
X501999Y150999D01*
X502999D01*
X503499Y150500D01*
Y148500D01*
X502999Y148001D01*
X501999D01*
X501499Y148500D01*
Y150500D01*
X526501Y111000D02*
X526001Y111500D01*
X525001D01*
X524501Y111000D01*
Y109000D01*
X525001Y108501D01*
X526001D01*
X526501Y109000D01*
X529500Y108501D02*
X527500D01*
X529500Y110500D01*
Y111000D01*
X529000Y111500D01*
X528000D01*
X527500Y111000D01*
X530499Y109000D02*
X530999Y108501D01*
X531999D01*
X532499Y109000D01*
Y111000D01*
X531999Y111500D01*
X530999D01*
X530499Y111000D01*
Y110500D01*
X530999Y110000D01*
X532499D01*
X516501Y109000D02*
X516001Y109500D01*
X515001D01*
X514501Y109000D01*
Y107000D01*
X515001Y106500D01*
X516001D01*
X516501Y107000D01*
X519500Y106500D02*
X517500D01*
X519500Y108500D01*
Y109000D01*
X519000Y109500D01*
X518000D01*
X517500Y109000D01*
X520499D02*
X520999Y109500D01*
X521999D01*
X522499Y109000D01*
Y108500D01*
X521999Y108000D01*
X522499Y107500D01*
Y107000D01*
X521999Y106500D01*
X520999D01*
X520499Y107000D01*
Y107500D01*
X520999Y108000D01*
X520499Y108500D01*
Y109000D01*
X520999Y108000D02*
X521999D01*
X510501Y91000D02*
X510001Y91500D01*
X509001D01*
X508501Y91000D01*
Y89000D01*
X509001Y88500D01*
X510001D01*
X510501Y89000D01*
X513500Y88500D02*
X511500D01*
X513500Y90500D01*
Y91000D01*
X513000Y91500D01*
X512000D01*
X511500Y91000D01*
X514499Y91500D02*
X516499D01*
Y91000D01*
X514499Y89000D01*
Y88500D01*
X494001Y90000D02*
X493501Y90500D01*
X492501D01*
X492001Y90000D01*
Y88000D01*
X492501Y87501D01*
X493501D01*
X494001Y88000D01*
X497000Y87501D02*
X495000D01*
X497000Y89500D01*
Y90000D01*
X496500Y90500D01*
X495500D01*
X495000Y90000D01*
X499999Y90500D02*
X498999Y90000D01*
X497999Y89000D01*
Y88000D01*
X498499Y87501D01*
X499499D01*
X499999Y88000D01*
Y88500D01*
X499499Y89000D01*
X497999D01*
X480501Y94500D02*
X480001Y94999D01*
X479001D01*
X478501Y94500D01*
Y92500D01*
X479001Y92001D01*
X480001D01*
X480501Y92500D01*
X483500Y92001D02*
X481500D01*
X483500Y94000D01*
Y94500D01*
X483000Y94999D01*
X482000D01*
X481500Y94500D01*
X486499Y94999D02*
X484499D01*
Y93500D01*
X485499Y94000D01*
X485999D01*
X486499Y93500D01*
Y92500D01*
X485999Y92001D01*
X484999D01*
X484499Y92500D01*
X412501Y152000D02*
X412001Y152499D01*
X411001D01*
X410501Y152000D01*
Y150000D01*
X411001Y149501D01*
X412001D01*
X412501Y150000D01*
X415500Y149501D02*
X413500D01*
X415500Y151500D01*
Y152000D01*
X415000Y152499D01*
X414000D01*
X413500Y152000D01*
X417999Y149501D02*
Y152499D01*
X416499Y151000D01*
X418499D01*
X424001Y93000D02*
X423501Y93499D01*
X422501D01*
X422001Y93000D01*
Y91000D01*
X422501Y90500D01*
X423501D01*
X424001Y91000D01*
X427000Y90500D02*
X425000D01*
X427000Y92500D01*
Y93000D01*
X426500Y93499D01*
X425500D01*
X425000Y93000D01*
X427999D02*
X428499Y93499D01*
X429499D01*
X429999Y93000D01*
Y92500D01*
X429499Y92000D01*
X428999D01*
X429499D01*
X429999Y91500D01*
Y91000D01*
X429499Y90500D01*
X428499D01*
X427999Y91000D01*
X433501Y93000D02*
X433001Y93499D01*
X432001D01*
X431501Y93000D01*
Y91000D01*
X432001Y90500D01*
X433001D01*
X433501Y91000D01*
X436500Y90500D02*
X434500D01*
X436500Y92500D01*
Y93000D01*
X436000Y93499D01*
X435000D01*
X434500Y93000D01*
X439499Y90500D02*
X437499D01*
X439499Y92500D01*
Y93000D01*
X438999Y93499D01*
X437999D01*
X437499Y93000D01*
X443501D02*
X443001Y93499D01*
X442001D01*
X441501Y93000D01*
Y91000D01*
X442001Y90500D01*
X443001D01*
X443501Y91000D01*
X446499Y90500D02*
X444500D01*
X446499Y92500D01*
Y93000D01*
X446000Y93499D01*
X445000D01*
X444500Y93000D01*
X447499Y90500D02*
X448499D01*
X447999D01*
Y93499D01*
X447499Y93000D01*
X239001Y168000D02*
X238501Y168500D01*
X237501D01*
X237001Y168000D01*
Y166000D01*
X237501Y165500D01*
X238501D01*
X239001Y166000D01*
X242000Y165500D02*
X240000D01*
X242000Y167500D01*
Y168000D01*
X241500Y168500D01*
X240500D01*
X240000Y168000D01*
X242999D02*
X243499Y168500D01*
X244499D01*
X244999Y168000D01*
Y166000D01*
X244499Y165500D01*
X243499D01*
X242999Y166000D01*
Y168000D01*
X253751Y192500D02*
X253251Y192999D01*
X252251D01*
X251751Y192500D01*
Y190500D01*
X252251Y190000D01*
X253251D01*
X253751Y190500D01*
X254750Y190000D02*
X255750D01*
X255250D01*
Y192999D01*
X254750Y192500D01*
X257249Y190500D02*
X257749Y190000D01*
X258749D01*
X259249Y190500D01*
Y192500D01*
X258749Y192999D01*
X257749D01*
X257249Y192500D01*
Y192000D01*
X257749Y191500D01*
X259249D01*
X227751Y259500D02*
X227251Y259999D01*
X226251D01*
X225751Y259500D01*
Y257500D01*
X226251Y257000D01*
X227251D01*
X227751Y257500D01*
X228750Y257000D02*
X229750D01*
X229250D01*
Y259999D01*
X228750Y259500D01*
X231249D02*
X231749Y259999D01*
X232749D01*
X233249Y259500D01*
Y259000D01*
X232749Y258500D01*
X233249Y258000D01*
Y257500D01*
X232749Y257000D01*
X231749D01*
X231249Y257500D01*
Y258000D01*
X231749Y258500D01*
X231249Y259000D01*
Y259500D01*
X231749Y258500D02*
X232749D01*
X213251Y282000D02*
X212751Y282500D01*
X211751D01*
X211251Y282000D01*
Y280000D01*
X211751Y279501D01*
X212751D01*
X213251Y280000D01*
X214250Y279501D02*
X215250D01*
X214750D01*
Y282500D01*
X214250Y282000D01*
X216749Y282500D02*
X218749D01*
Y282000D01*
X216749Y280000D01*
Y279501D01*
X222751Y282000D02*
X222251Y282500D01*
X221251D01*
X220751Y282000D01*
Y280000D01*
X221251Y279501D01*
X222251D01*
X222751Y280000D01*
X223750Y279501D02*
X224750D01*
X224250D01*
Y282500D01*
X223750Y282000D01*
X228249Y282500D02*
X227249Y282000D01*
X226249Y281000D01*
Y280000D01*
X226749Y279501D01*
X227749D01*
X228249Y280000D01*
Y280500D01*
X227749Y281000D01*
X226249D01*
X262251Y225000D02*
X261751Y225500D01*
X260751D01*
X260251Y225000D01*
Y223000D01*
X260751Y222500D01*
X261751D01*
X262251Y223000D01*
X263250Y222500D02*
X264250D01*
X263750D01*
Y225500D01*
X263250Y225000D01*
X267749Y225500D02*
X265749D01*
Y224000D01*
X266749Y224500D01*
X267249D01*
X267749Y224000D01*
Y223000D01*
X267249Y222500D01*
X266249D01*
X265749Y223000D01*
X138751Y271000D02*
X138251Y271499D01*
X137251D01*
X136751Y271000D01*
Y269000D01*
X137251Y268500D01*
X138251D01*
X138751Y269000D01*
X139750Y268500D02*
X140750D01*
X140250D01*
Y271499D01*
X139750Y271000D01*
X143749Y268500D02*
Y271499D01*
X142249Y270000D01*
X144249D01*
X397251Y97000D02*
X396751Y97500D01*
X395751D01*
X395251Y97000D01*
Y95000D01*
X395751Y94500D01*
X396751D01*
X397251Y95000D01*
X398250Y94500D02*
X399250D01*
X398750D01*
Y97500D01*
X398250Y97000D01*
X400749D02*
X401249Y97500D01*
X402249D01*
X402749Y97000D01*
Y96500D01*
X402249Y96000D01*
X401749D01*
X402249D01*
X402749Y95500D01*
Y95000D01*
X402249Y94500D01*
X401249D01*
X400749Y95000D01*
X382751Y87500D02*
X382251Y87999D01*
X381251D01*
X380751Y87500D01*
Y85500D01*
X381251Y85000D01*
X382251D01*
X382751Y85500D01*
X383750Y85000D02*
X384750D01*
X384250D01*
Y87999D01*
X383750Y87500D01*
X388249Y85000D02*
X386249D01*
X388249Y87000D01*
Y87500D01*
X387749Y87999D01*
X386749D01*
X386249Y87500D01*
X261750Y104500D02*
X261251Y104999D01*
X260251D01*
X259751Y104500D01*
Y102500D01*
X260251Y102000D01*
X261251D01*
X261750Y102500D01*
X262750Y102000D02*
X263750D01*
X263250D01*
Y104999D01*
X262750Y104500D01*
X265249Y102000D02*
X266249D01*
X265749D01*
Y104999D01*
X265249Y104500D01*
X177751Y66500D02*
X177251Y67000D01*
X176251D01*
X175751Y66500D01*
Y64500D01*
X176251Y64000D01*
X177251D01*
X177751Y64500D01*
X178750Y64000D02*
X179750D01*
X179250D01*
Y67000D01*
X178750Y66500D01*
X181249D02*
X181749Y67000D01*
X182749D01*
X183249Y66500D01*
Y64500D01*
X182749Y64000D01*
X181749D01*
X181249Y64500D01*
Y66500D01*
X180000Y92500D02*
X179500Y93000D01*
X178501D01*
X178001Y92500D01*
Y90500D01*
X178501Y90000D01*
X179500D01*
X180000Y90500D01*
X181000D02*
X181500Y90000D01*
X182499D01*
X182999Y90500D01*
Y92500D01*
X182499Y93000D01*
X181500D01*
X181000Y92500D01*
Y92000D01*
X181500Y91500D01*
X182999D01*
X180000Y79000D02*
X179500Y79500D01*
X178501D01*
X178001Y79000D01*
Y77000D01*
X178501Y76500D01*
X179500D01*
X180000Y77000D01*
X181000Y79000D02*
X181500Y79500D01*
X182499D01*
X182999Y79000D01*
Y78500D01*
X182499Y78000D01*
X182999Y77500D01*
Y77000D01*
X182499Y76500D01*
X181500D01*
X181000Y77000D01*
Y77500D01*
X181500Y78000D01*
X181000Y78500D01*
Y79000D01*
X181500Y78000D02*
X182499D01*
X180000Y85500D02*
X179500Y86000D01*
X178501D01*
X178001Y85500D01*
Y83500D01*
X178501Y83000D01*
X179500D01*
X180000Y83500D01*
X181000Y86000D02*
X182999D01*
Y85500D01*
X181000Y83500D01*
Y83000D01*
X134000Y154000D02*
X133500Y154499D01*
X132501D01*
X132001Y154000D01*
Y152000D01*
X132501Y151500D01*
X133500D01*
X134000Y152000D01*
X136999Y154499D02*
X136000Y154000D01*
X135000Y153000D01*
Y152000D01*
X135500Y151500D01*
X136499D01*
X136999Y152000D01*
Y152500D01*
X136499Y153000D01*
X135000D01*
X341500Y82500D02*
X341000Y82999D01*
X340001D01*
X339501Y82500D01*
Y80500D01*
X340001Y80001D01*
X341000D01*
X341500Y80500D01*
X344499Y82999D02*
X342500D01*
Y81500D01*
X343499Y82000D01*
X343999D01*
X344499Y81500D01*
Y80500D01*
X343999Y80001D01*
X343000D01*
X342500Y80500D01*
X363500Y86000D02*
X363000Y86500D01*
X362001D01*
X361501Y86000D01*
Y84000D01*
X362001Y83500D01*
X363000D01*
X363500Y84000D01*
X365999Y83500D02*
Y86500D01*
X364500Y85000D01*
X366499D01*
X354500Y86500D02*
X354000Y86999D01*
X353001D01*
X352501Y86500D01*
Y84500D01*
X353001Y84000D01*
X354000D01*
X354500Y84500D01*
X355500Y86500D02*
X356000Y86999D01*
X356999D01*
X357499Y86500D01*
Y86000D01*
X356999Y85500D01*
X356500D01*
X356999D01*
X357499Y85000D01*
Y84500D01*
X356999Y84000D01*
X356000D01*
X355500Y84500D01*
X294500Y93500D02*
X294000Y93999D01*
X293001D01*
X292501Y93500D01*
Y91500D01*
X293001Y91000D01*
X294000D01*
X294500Y91500D01*
X297499Y91000D02*
X295500D01*
X297499Y93000D01*
Y93500D01*
X296999Y93999D01*
X296000D01*
X295500Y93500D01*
X302240Y90330D02*
X301740Y90830D01*
X300741D01*
X300241Y90330D01*
Y88331D01*
X300741Y87831D01*
X301740D01*
X302240Y88331D01*
X303240Y87831D02*
X304240D01*
X303740D01*
Y90830D01*
X303240Y90330D01*
X0Y399500D02*
X541500D01*
X542000Y399000D01*
Y161500D02*
Y399000D01*
Y161500D02*
X599000D01*
X599500Y161000D01*
Y500D02*
Y161000D01*
Y500D02*
X600000Y0D01*
X0D02*
X600000D01*
X0D02*
Y399500D01*
Y0D02*
X600000D01*
D11*
X454425Y89965D02*
G03*
X454425Y89965I-492J0D01*
G01*
X313992Y123346D02*
G03*
X313992Y123346I-492J0D01*
G01*
X209075Y382626D02*
G03*
X209075Y382626I-492J0D01*
G01*
X522425Y86465D02*
G03*
X522425Y86465I-492J0D01*
G01*
X128311Y270831D02*
G03*
X128311Y270831I-492J0D01*
G01*
X275224Y245000D02*
G03*
X275224Y245000I-492J0D01*
G01*
X56425Y172965D02*
G03*
X56425Y172965I-492J0D01*
G01*
X182929Y285949D02*
G03*
X182929Y285949I-492J0D01*
G01*
X460941Y27563D02*
G03*
X460941Y27563I-492J0D01*
G01*
X380484Y77114D02*
G03*
X380484Y77114I-492J0D01*
G01*
X521429Y146949D02*
G03*
X521429Y146949I-492J0D01*
G01*
X382878Y125492D02*
G03*
X382878Y125492I-492J0D01*
G01*
X252878Y59992D02*
G03*
X252878Y59992I-492J0D01*
G01*
X270878D02*
G03*
X270878Y59992I-492J0D01*
G01*
X46441Y134063D02*
G03*
X46441Y134063I-492J0D01*
G01*
X204209Y101847D02*
G03*
X204209Y101847I-492J0D01*
G01*
X201973Y383437D02*
G03*
X201973Y383437I-492J0D01*
G01*
X123287Y60535D02*
G03*
X123287Y60535I-492J0D01*
G01*
D12*
X322752Y117441D02*
G03*
X322752Y117441I-1181J0D01*
G01*
X217835Y377114D02*
G03*
X217835Y377114I-1181J0D01*
G01*
X213264Y97732D02*
G03*
X213264Y97732I-1181J0D01*
G01*
D13*
X425138Y82303D02*
Y82697D01*
X429862Y82303D02*
Y82697D01*
X433638Y82303D02*
Y82697D01*
X438362Y82303D02*
Y82697D01*
X442138Y82303D02*
Y82697D01*
X446862Y82303D02*
Y82697D01*
X298909Y121611D02*
X300091D01*
X298909Y126139D02*
X300091D01*
X298909Y128986D02*
X300091D01*
X298909Y133514D02*
X300091D01*
X298909Y136361D02*
X300091D01*
X298909Y140889D02*
X300091D01*
X298909Y143736D02*
X300091D01*
X298909Y148264D02*
X300091D01*
X248302Y178185D02*
Y180547D01*
X254601Y178185D02*
Y180547D01*
X236802Y178185D02*
Y180547D01*
X243101Y178185D02*
Y180547D01*
X232002Y178185D02*
Y180547D01*
X225900Y178185D02*
Y180547D01*
X438760Y35496D02*
X446240D01*
X438760Y47504D02*
X446240D01*
X211315Y195315D02*
X220173D01*
X211315Y234685D02*
X220173D01*
X241827Y195315D02*
X250685D01*
X241827Y234685D02*
X250685D01*
X211315Y195315D02*
Y234685D01*
X250685Y195315D02*
Y234685D01*
X190803Y78638D02*
X191197D01*
X190803Y83362D02*
X191197D01*
X190063Y61138D02*
X190457D01*
X190063Y65862D02*
X190457D01*
X355236Y119409D02*
Y120591D01*
X359764Y119409D02*
Y120591D01*
X349410Y110764D02*
X350590D01*
X349410Y106236D02*
X350590D01*
X392764Y109909D02*
Y111091D01*
X388236Y109909D02*
Y111091D01*
X457969Y89039D02*
X469031D01*
X457969Y68961D02*
X469031D01*
X418236Y63410D02*
Y64591D01*
X422764Y63410D02*
Y64591D01*
X506736Y73909D02*
Y75090D01*
X511264Y73909D02*
Y75090D01*
X410236Y81571D02*
Y82752D01*
X414764Y81571D02*
Y82752D01*
X380236Y109909D02*
Y111091D01*
X384764Y109909D02*
Y111091D01*
X314409Y92736D02*
X315591D01*
X314409Y97264D02*
X315591D01*
X182236Y346346D02*
Y347528D01*
X186764Y346346D02*
Y347528D01*
X376264Y94910D02*
Y96091D01*
X371736Y94910D02*
Y96091D01*
X199949Y144319D02*
Y146681D01*
X206051Y144319D02*
Y146681D01*
X561760Y68996D02*
X569240D01*
X561760Y81004D02*
X569240D01*
X317634Y101299D02*
Y121378D01*
X332201Y101299D02*
Y121378D01*
X317634D02*
X332201D01*
X317634Y101299D02*
X332201D01*
X125075Y303620D02*
X126256D01*
X125075Y308147D02*
X126256D01*
X23760Y140996D02*
X31240D01*
X23760Y153004D02*
X31240D01*
X212409Y386736D02*
X213591D01*
X212409Y391264D02*
X213591D01*
X245569Y142409D02*
Y143591D01*
X250097Y142409D02*
Y143591D01*
X381236Y191941D02*
Y193122D01*
X385764Y191941D02*
Y193122D01*
X357764Y138409D02*
Y139591D01*
X353236Y138409D02*
Y139591D01*
X300410Y64764D02*
X301590D01*
X300410Y60236D02*
X301590D01*
X260736Y142409D02*
Y143591D01*
X265264Y142409D02*
Y143591D01*
X106764Y342409D02*
Y343590D01*
X102236Y342409D02*
Y343590D01*
X212717Y349949D02*
X227284D01*
X212717Y381051D02*
X227284D01*
Y349949D02*
Y381051D01*
X212717Y349949D02*
Y381051D01*
X138236Y293910D02*
Y295091D01*
X142764Y293910D02*
Y295091D01*
X104819Y133949D02*
X107181D01*
X104819Y140051D02*
X107181D01*
X161819Y70551D02*
X164181D01*
X161819Y64449D02*
X164181D01*
X561260Y87496D02*
X568740D01*
X561260Y99504D02*
X568740D01*
X185949Y144319D02*
Y146681D01*
X192051Y144319D02*
Y146681D01*
X93736Y342409D02*
Y343590D01*
X98264Y342409D02*
Y343590D01*
X525969Y85539D02*
X537032D01*
X525969Y65461D02*
X537032D01*
X170264Y376909D02*
Y378091D01*
X165736Y376909D02*
Y378091D01*
X153236Y376847D02*
Y378028D01*
X157764Y376847D02*
Y378028D01*
X215236Y142409D02*
Y143591D01*
X219764Y142409D02*
Y143591D01*
X251847Y386264D02*
X253028D01*
X251847Y381736D02*
X253028D01*
X330410Y97264D02*
X331591D01*
X330410Y92736D02*
X331591D01*
X370236Y68910D02*
Y70091D01*
X374764Y68910D02*
Y70091D01*
X439260Y51496D02*
X446740D01*
X439260Y63504D02*
X446740D01*
X125260Y270240D02*
Y272898D01*
X122602Y270240D02*
X125260D01*
X107740D02*
X110398D01*
X107740D02*
Y272898D01*
Y285102D02*
Y287760D01*
X110398D01*
X125260Y285102D02*
Y287760D01*
X122602D02*
X125260D01*
X178764Y351847D02*
Y353028D01*
X174236Y351847D02*
Y353028D01*
X124409Y295236D02*
X125591D01*
X124409Y299764D02*
X125591D01*
X154736Y303410D02*
Y304591D01*
X159264Y303410D02*
Y304591D01*
X255047Y242854D02*
X260953D01*
X255047Y262146D02*
X260953D01*
X88949Y135819D02*
Y138181D01*
X95051Y135819D02*
Y138181D01*
X253909Y268736D02*
X255090D01*
X253909Y273264D02*
X255090D01*
X298909Y114236D02*
X300091D01*
X298909Y118764D02*
X300091D01*
X230403Y142409D02*
Y143591D01*
X234930Y142409D02*
Y143591D01*
X361236Y191941D02*
Y193122D01*
X365764Y191941D02*
Y193122D01*
X252410Y373236D02*
X253590D01*
X252410Y377764D02*
X253590D01*
X370736Y192004D02*
Y193185D01*
X375264Y192004D02*
Y193185D01*
X116764Y326410D02*
Y327590D01*
X112236Y326410D02*
Y327590D01*
X372236Y109909D02*
Y111091D01*
X376764Y109909D02*
Y111091D01*
X362736Y138409D02*
Y139591D01*
X367264Y138409D02*
Y139591D01*
X346236Y119409D02*
Y120591D01*
X350764Y119409D02*
Y120591D01*
X59969Y172039D02*
X71031D01*
X59969Y151961D02*
X71031D01*
X44236Y172409D02*
Y173591D01*
X48764Y172409D02*
Y173591D01*
X86764Y342409D02*
Y343590D01*
X82236Y342409D02*
Y343590D01*
X77264Y342846D02*
Y344028D01*
X72736Y342846D02*
Y344028D01*
X49996Y122260D02*
Y129740D01*
X62004Y122260D02*
Y129740D01*
X271410Y268236D02*
X272590D01*
X271410Y272764D02*
X272590D01*
X191236Y342910D02*
Y344091D01*
X195764Y342910D02*
Y344091D01*
X246909Y361264D02*
X248091D01*
X246909Y356736D02*
X248091D01*
X178598Y254827D02*
Y283173D01*
X203402Y254827D02*
Y283173D01*
X178598Y254827D02*
X183028D01*
X178598Y283173D02*
X183028D01*
X198972Y254827D02*
X203402D01*
X198972Y283173D02*
X203402D01*
X315764Y129409D02*
Y130591D01*
X311236Y129409D02*
Y130591D01*
X332764Y129409D02*
Y130591D01*
X328236Y129409D02*
Y130591D01*
X263807Y234650D02*
X266169D01*
X263807Y228350D02*
X266169D01*
X97941Y177724D02*
X133276D01*
Y186976D01*
Y209024D02*
Y218276D01*
X97941D02*
X133276D01*
X92724Y182941D02*
Y186976D01*
Y182941D02*
X97941Y177724D01*
X92724Y213059D02*
X97941Y218276D01*
X92724Y209024D02*
Y213059D01*
X142862Y279303D02*
Y279697D01*
X138138Y279303D02*
Y279697D01*
X48850Y15319D02*
Y17681D01*
X55150Y15319D02*
Y17681D01*
X591150Y81819D02*
Y84181D01*
X584850Y81819D02*
Y84181D01*
X429327Y31402D02*
X457673D01*
X429327Y6598D02*
X457673D01*
X429327Y26972D02*
Y31402D01*
X457673Y26972D02*
Y31402D01*
X429327Y6598D02*
Y11028D01*
X457673Y6598D02*
Y11028D01*
X492850Y76819D02*
Y79181D01*
X499150Y76819D02*
Y79181D01*
X304602Y97303D02*
Y97697D01*
X299878Y97303D02*
Y97697D01*
X382551Y78374D02*
X401449D01*
X382551Y62626D02*
X401449D01*
X382551Y76524D02*
Y78374D01*
X401449Y76524D02*
Y78374D01*
X382551Y62626D02*
Y64476D01*
X401449Y62626D02*
Y64476D01*
X365862Y94303D02*
Y94697D01*
X361138Y94303D02*
Y94697D01*
X85638Y166563D02*
Y166957D01*
X90362Y166563D02*
Y166957D01*
X517098Y115827D02*
Y144173D01*
X541902Y115827D02*
Y144173D01*
X517098Y115827D02*
X521528D01*
X517098Y144173D02*
X521528D01*
X537472Y115827D02*
X541902D01*
X537472Y144173D02*
X541902D01*
X30862Y172803D02*
Y173197D01*
X26138Y172803D02*
Y173197D01*
X525138Y98563D02*
Y98957D01*
X529862Y98563D02*
Y98957D01*
X510138Y98563D02*
Y98957D01*
X514862Y98563D02*
Y98957D01*
X344862Y91303D02*
Y91697D01*
X340138Y91303D02*
Y91697D01*
X453776Y110941D02*
Y146276D01*
X444524D02*
X453776D01*
X413224D02*
X422476D01*
X413224Y110941D02*
Y146276D01*
X444524Y105724D02*
X448559D01*
X453776Y110941D01*
X413224D02*
X418441Y105724D01*
X422476D01*
X381126Y128051D02*
Y146949D01*
X396874Y128051D02*
Y146949D01*
X381126Y128051D02*
X382976D01*
X381126Y146949D02*
X382976D01*
X395024Y128051D02*
X396874D01*
X395024Y146949D02*
X396874D01*
X479638Y83803D02*
Y84197D01*
X484362Y83803D02*
Y84197D01*
X536138Y98563D02*
Y98957D01*
X540862Y98563D02*
Y98957D01*
X40362Y172803D02*
Y173197D01*
X35638Y172803D02*
Y173197D01*
X190803Y87638D02*
X191197D01*
X190803Y92362D02*
X191197D01*
X384862Y95303D02*
Y95697D01*
X380138Y95303D02*
Y95697D01*
X393362Y95303D02*
Y95697D01*
X388638Y95303D02*
Y95697D01*
X211138Y270803D02*
Y271197D01*
X215862Y270803D02*
Y271197D01*
X131441Y108224D02*
X166776D01*
Y117476D01*
Y139524D02*
Y148776D01*
X131441D02*
X166776D01*
X126224Y113441D02*
Y117476D01*
Y113441D02*
X131441Y108224D01*
X126224Y143559D02*
X131441Y148776D01*
X126224Y139524D02*
Y143559D01*
X357362Y94303D02*
Y94697D01*
X352638Y94303D02*
Y94697D01*
X259862Y94543D02*
Y94937D01*
X255138Y94543D02*
Y94937D01*
X251126Y62551D02*
Y81449D01*
X266874Y62551D02*
Y81449D01*
X251126Y62551D02*
X252976D01*
X251126Y81449D02*
X252976D01*
X265024Y62551D02*
X266874D01*
X265024Y81449D02*
X266874D01*
X297362Y101303D02*
Y101697D01*
X292638Y101303D02*
Y101697D01*
X190803Y68638D02*
X191197D01*
X190803Y73362D02*
X191197D01*
X517638Y98563D02*
Y98957D01*
X522362Y98563D02*
Y98957D01*
X219638Y270803D02*
Y271197D01*
X224362Y270803D02*
Y271197D01*
X234650Y269819D02*
Y272181D01*
X228350Y269819D02*
Y272181D01*
X269126Y62551D02*
Y81449D01*
X284874Y62551D02*
Y81449D01*
X269126Y62551D02*
X270976D01*
X269126Y81449D02*
X270976D01*
X283024Y62551D02*
X284874D01*
X283024Y81449D02*
X284874D01*
X14827Y137902D02*
X43173D01*
X14827Y113098D02*
X43173D01*
X14827Y133472D02*
Y137902D01*
X43173Y133472D02*
Y137902D01*
X14827Y113098D02*
Y117528D01*
X43173Y113098D02*
Y117528D01*
X504776Y110441D02*
Y145776D01*
X495524D02*
X504776D01*
X464224D02*
X473476D01*
X464224Y110441D02*
Y145776D01*
X495524Y105224D02*
X499559D01*
X504776Y110441D01*
X464224D02*
X469441Y105224D01*
X473476D01*
X20862Y172803D02*
Y173197D01*
X16138Y172803D02*
Y173197D01*
X208146Y60331D02*
Y101669D01*
X238854Y60331D02*
Y101669D01*
X208146D02*
X238854D01*
X208146Y60331D02*
X238854D01*
X342264Y129409D02*
Y130591D01*
X337736Y129409D02*
Y130591D01*
X324264Y129409D02*
Y130591D01*
X319736Y129409D02*
Y130591D01*
X199906Y376744D02*
Y380681D01*
X197150Y376744D02*
X199906D01*
X188094D02*
Y380681D01*
Y376744D02*
X190850D01*
X54606Y60394D02*
Y72795D01*
X5394Y60394D02*
Y72795D01*
X54606Y97205D02*
Y109606D01*
X5394Y97205D02*
Y109606D01*
Y60394D02*
X54606D01*
X5394Y109606D02*
X54606D01*
X545894Y106894D02*
X558295D01*
X545894Y156106D02*
X558295D01*
X582705Y106894D02*
X595106D01*
X582705Y156106D02*
X595106D01*
X545894Y106894D02*
Y156106D01*
X595106Y106894D02*
Y156106D01*
X171610Y97661D02*
X174268D01*
X171610Y80339D02*
X174268D01*
X157732Y97661D02*
X160390D01*
X157732Y80339D02*
X160390D01*
X174268D02*
Y97661D01*
X157732Y80339D02*
Y97661D01*
X146614Y98626D02*
X151142D01*
X146614Y64374D02*
X151142D01*
X118858Y98626D02*
X123386D01*
X118858Y64374D02*
X123386D01*
X151142D02*
Y98626D01*
X118858Y64374D02*
Y98626D01*
X462894Y6894D02*
X475295D01*
X462894Y56106D02*
X475295D01*
X499705Y6894D02*
X512106D01*
X499705Y56106D02*
X512106D01*
X462894Y6894D02*
Y56106D01*
X512106Y6894D02*
Y56106D01*
M02*
