G04*
G04 #@! TF.GenerationSoftware,Altium Limited,Altium Designer,21.8.1 (53)*
G04*
G04 Layer_Physical_Order=1*
G04 Layer_Color=255*
%FSLAX25Y25*%
%MOIN*%
G70*
G04*
G04 #@! TF.SameCoordinates,493B7DAD-148D-4575-8712-330FBA686758*
G04*
G04*
G04 #@! TF.FilePolarity,Positive*
G04*
G01*
G75*
%ADD10C,0.01000*%
%ADD15R,0.05512X0.04134*%
%ADD16R,0.03543X0.05315*%
%ADD17R,0.07087X0.05709*%
%ADD18R,0.06890X0.05709*%
%ADD19R,0.08661X0.12795*%
%ADD20R,0.18504X0.12598*%
%ADD21R,0.03740X0.03543*%
%ADD22R,0.04134X0.05512*%
%ADD23R,0.05315X0.03543*%
%ADD24R,0.08071X0.02598*%
%ADD25R,0.09055X0.12598*%
%ADD26C,0.03000*%
%ADD27R,0.05906X0.01772*%
%ADD28R,0.05709X0.06890*%
%ADD29R,0.03740X0.01378*%
%ADD30R,0.01378X0.03740*%
%ADD31R,0.07874X0.07874*%
%ADD32R,0.09264X0.02449*%
%ADD33R,0.12795X0.08661*%
%ADD34R,0.12795X0.09843*%
%ADD35R,0.05709X0.07087*%
%ADD36R,0.19685X0.19685*%
%ADD37R,0.09843X0.12795*%
%ADD38R,0.11024X0.08898*%
%ADD39R,0.19685X0.19685*%
%ADD40R,0.08898X0.11024*%
%ADD41R,0.05709X0.02362*%
%ADD42R,0.03150X0.03543*%
%ADD43R,0.11417X0.21260*%
%ADD44R,0.21260X0.11417*%
%ADD45R,0.08071X0.06299*%
%ADD46R,0.20079X0.13780*%
%ADD64R,0.09055X0.12205*%
%ADD86C,0.01500*%
%ADD87C,0.07080*%
%ADD88C,0.16929*%
%ADD89C,0.07000*%
%ADD90C,0.14800*%
%ADD91C,0.08000*%
%ADD92C,0.07087*%
%ADD93C,0.05000*%
D10*
X537811Y101500D02*
X538500D01*
X530976Y143012D02*
X557602D01*
X529500D02*
X530976D01*
X538500Y102500D02*
Y135488D01*
X530976Y143012D02*
X538500Y135488D01*
X520000Y102240D02*
X527500D01*
Y102500D01*
Y98933D02*
Y102240D01*
X531500Y75500D02*
Y97398D01*
X527500Y98933D02*
X528195Y98238D01*
X530660D01*
X531500Y97398D01*
X557602Y143012D02*
X565579Y150988D01*
X570500D01*
X512500Y101740D02*
X520000D01*
X520689Y102500D02*
X522256Y104067D01*
Y104756D01*
X523602Y106102D02*
Y112567D01*
X522256Y104756D02*
X523602Y106102D01*
Y112567D02*
X528024Y116988D01*
X529500D01*
X484500Y113071D02*
X491051Y106520D01*
X475157Y103728D02*
X484500Y113071D01*
Y108571D02*
X498051Y95020D01*
X512500D01*
X524669Y83000D02*
X527500Y85831D01*
X521933Y83000D02*
X524669D01*
X527500Y85831D02*
Y95020D01*
X520000D02*
X527500D01*
X512500D02*
X520000D01*
X538500D02*
X539189D01*
X546202Y88006D01*
Y80399D02*
Y88006D01*
X543803Y78000D02*
X546202Y80399D01*
X541067Y78000D02*
X543803D01*
X537532Y83799D02*
X538331Y83000D01*
X537532Y83799D02*
Y89227D01*
X534644Y92114D02*
X537532Y89227D01*
X534644Y92114D02*
Y99333D01*
X537811Y102500D01*
X538331Y83000D02*
X541067D01*
X537811Y102500D02*
X538500D01*
X553854Y73000D02*
X555854Y75000D01*
X541067Y73000D02*
X553854D01*
X541067Y68000D02*
Y73000D01*
X537818Y73799D02*
X538617Y73000D01*
X531500Y75500D02*
X537232D01*
X537818Y74914D01*
Y73799D02*
Y74914D01*
X538617Y73000D02*
X541067D01*
X509000Y78437D02*
X513158D01*
X516921Y82201D01*
X521134D01*
X521933Y83000D01*
X509886Y70563D02*
X513797Y74474D01*
X516437Y78000D02*
X521933D01*
X509000Y70563D02*
X509886D01*
X513797Y74474D02*
Y75360D01*
X516437Y78000D01*
X519197Y73000D02*
X521933D01*
X509000Y62803D02*
X519197Y73000D01*
X509000Y62500D02*
Y62803D01*
X434500Y108071D02*
X442842Y99728D01*
X434500Y108071D02*
X436000Y109571D01*
X509000Y70563D02*
X510137Y71700D01*
X363500Y90760D02*
Y91260D01*
X303765Y109092D02*
X304732Y110059D01*
X313500D01*
X288000Y111500D02*
X297378D01*
X300220Y114342D01*
X302165D01*
X194740Y71689D02*
X196307Y73256D01*
X196748D02*
X198236Y74744D01*
X198287D02*
X202043Y78500D01*
X198236Y74744D02*
X198287D01*
X196307Y73256D02*
X196748D01*
X194740Y71000D02*
Y71689D01*
X202043Y78500D02*
X203716D01*
X194740Y81000D02*
Y81689D01*
X196307Y83256D01*
X196799D02*
X202043Y88500D01*
X196307Y83256D02*
X196799D01*
X442272Y158272D02*
X447000Y163000D01*
X387390Y158272D02*
X442272D01*
X447000Y163000D02*
X485500D01*
X443500Y181000D02*
X448500Y176000D01*
X440562Y161500D02*
X448500Y169438D01*
Y176000D01*
X375079Y152130D02*
Y152130D01*
X384449Y161500D01*
X440562D01*
X365886Y142937D02*
X375079Y152130D01*
X365000Y142937D02*
X365886D01*
X370500Y141381D02*
X387390Y158272D01*
X432370Y143799D02*
X435500Y146929D01*
X484500D01*
X485500Y163000D02*
X493500Y171000D01*
X115032Y286768D02*
Y298301D01*
X121728Y304998D01*
X378650Y95673D02*
X386744D01*
X377488Y96835D02*
X377488D01*
X378650Y95673D01*
X374886Y99437D02*
X377488Y96835D01*
X403000Y37000D02*
X411000D01*
X385701Y54299D02*
Y70500D01*
Y54299D02*
X403000Y37000D01*
X348322Y112791D02*
X349335Y111779D01*
X344516Y112791D02*
X348322D01*
X330059Y110059D02*
X336335D01*
X327000Y107000D02*
X330059Y110059D01*
X329549Y104451D02*
X329549D01*
X331445Y102555D02*
X336161D01*
X329549Y104451D02*
X331445Y102555D01*
X327000Y107000D02*
X329549Y104451D01*
X436000Y86240D02*
X441303D01*
X427500D02*
X436000D01*
X442842Y99728D02*
X458772D01*
X433500Y109071D02*
X434500Y108071D01*
X458772Y99728D02*
X461000Y97500D01*
X231417Y369339D02*
X268661D01*
X295500Y342500D02*
X341000D01*
X268661Y369339D02*
X295500Y342500D01*
X231417Y366779D02*
X266220D01*
X299500Y333500D02*
X341500D01*
X266220Y366779D02*
X299500Y333500D01*
X258531Y386157D02*
X261000Y388626D01*
X264374D01*
X264500Y388500D01*
X256374Y384091D02*
Y384886D01*
Y384000D02*
Y384091D01*
Y384886D02*
X257646Y386157D01*
X258531D01*
X243461Y359102D02*
X243563Y359000D01*
X231417Y359102D02*
X243461D01*
X293500Y50300D02*
X295500Y48300D01*
X429811Y78520D02*
X443571D01*
X426516Y78465D02*
X427795D01*
X428655Y77604D02*
X429811Y78760D01*
X431854Y41500D02*
Y57500D01*
X429488Y19000D02*
Y39134D01*
X411500Y48747D02*
Y58362D01*
X195000Y246500D02*
Y255988D01*
X185520Y63500D02*
X187020Y62000D01*
X169500Y47000D02*
Y51900D01*
X265000Y48300D02*
Y51800D01*
X443571Y78520D02*
X443811Y78760D01*
X433354Y68303D02*
X443571Y78520D01*
X433354Y58567D02*
Y68303D01*
X443811Y78760D02*
X444500D01*
X441500Y57500D02*
Y66803D01*
X451197Y76500D01*
X429524Y62398D02*
X433354Y58567D01*
X420500Y67937D02*
X421386D01*
X426925Y62398D01*
X429524D01*
X433354Y57500D02*
Y58567D01*
X428655Y77604D02*
X428979Y77280D01*
X427795Y78465D02*
X428655Y77604D01*
X421461Y78169D02*
X426221D01*
X426516Y78465D01*
X121587Y306024D02*
X122335Y306772D01*
X114005Y305884D02*
X121728D01*
X107884D02*
X114005D01*
X121728Y304998D02*
Y305884D01*
X77500Y275500D02*
X107884Y305884D01*
X114000Y305878D02*
X114005Y305884D01*
X115032Y286768D02*
X115220Y286579D01*
X413386Y78563D02*
X417323Y82500D01*
X449812D02*
X450013Y82299D01*
X453134D02*
X453933Y81500D01*
X450013Y82299D02*
X453134D01*
X417323Y82500D02*
X449812D01*
X399362Y70500D02*
X413791D01*
X398299D02*
X399362D01*
X413791D02*
X421461Y78169D01*
X410189Y86240D02*
X427500D01*
X295563Y131500D02*
Y138625D01*
Y139511D01*
X293231Y141842D02*
X295563Y139511D01*
X293106Y141842D02*
X293231D01*
X292291Y142657D02*
X293106Y141842D01*
X298835Y127971D02*
Y141904D01*
X295563Y145114D02*
X297895Y142782D01*
X297956D01*
X298835Y141904D01*
X295563Y145114D02*
Y146000D01*
Y116500D02*
Y123875D01*
Y124761D01*
X293231Y127093D02*
X295563Y124761D01*
X293170Y127093D02*
X293231D01*
X284971Y135291D02*
X293170Y127093D01*
X284971Y135291D02*
Y152471D01*
X297956Y127093D02*
X298835Y127971D01*
X295563Y124761D02*
X297895Y127093D01*
X297956D01*
X302240Y89331D02*
Y93760D01*
Y89331D02*
X305000Y86571D01*
X298122Y95327D02*
X300673D01*
X295000Y97760D02*
X295689D01*
X300673Y95327D02*
X302240Y93760D01*
X295689Y97760D02*
X298122Y95327D01*
X302240Y101240D02*
X303708Y102708D01*
X307867D01*
X295760Y106000D02*
X306764D01*
X295000Y105240D02*
X295760Y106000D01*
X291908Y109092D02*
X303765D01*
X290744Y107928D02*
X291908Y109092D01*
X290744Y101327D02*
Y107928D01*
Y101327D02*
X294311Y97760D01*
X295000D01*
X305000Y71000D02*
Y86571D01*
X218041Y188500D02*
X221663Y184878D01*
X228951D01*
X217500Y188500D02*
X218041D01*
X231000Y198071D02*
X233896Y195175D01*
Y178209D02*
Y195175D01*
X229542Y173854D02*
X233896Y178209D01*
X228951Y173854D02*
X229542D01*
X239951D02*
X251451D01*
X228951D02*
X239951D01*
Y184878D02*
X251451D01*
X252073Y185500D01*
X261500D01*
X168000Y381437D02*
Y393000D01*
X277000Y108316D02*
Y226653D01*
Y108316D02*
X297063Y88253D01*
X277000Y226653D02*
X279209Y228861D01*
Y278534D01*
X246417Y162634D02*
X262114Y146937D01*
X224680Y162634D02*
X246417D01*
X205098Y162449D02*
X217500Y150047D01*
X174814Y212500D02*
X224680Y162634D01*
X216602Y162449D02*
X232614Y146437D01*
X217500D02*
Y150047D01*
X213000Y162449D02*
X216602D01*
X102500Y212500D02*
X174814D01*
X275500Y282243D02*
X279209Y278534D01*
X251485Y215603D02*
X263122D01*
X274854Y227335D02*
Y269417D01*
X263122Y215603D02*
X274854Y227335D01*
X275500Y282243D02*
Y341488D01*
X252767Y364220D02*
X275500Y341488D01*
X286500Y116500D02*
X295563D01*
X281000Y122000D02*
X286500Y116500D01*
X272500Y147500D02*
X273117Y146883D01*
X263563Y147500D02*
X272500D01*
X272500Y146265D02*
X273117Y146883D01*
X272500Y146500D02*
X273000Y147000D01*
X262500Y117000D02*
X272500Y127000D01*
Y146265D01*
X259047Y231929D02*
X259476Y231500D01*
X231000Y231929D02*
X259047D01*
X115220Y271421D02*
X115360Y271282D01*
Y256140D02*
X115500Y256000D01*
X115360Y256140D02*
Y271282D01*
X77500Y237500D02*
X102500Y212500D01*
X105000Y272421D02*
X107740Y275161D01*
X108921D01*
X105000Y222500D02*
Y272421D01*
X80000Y197500D02*
X95571D01*
X96071Y198000D01*
X94000Y144512D02*
Y195929D01*
X95571Y197500D01*
X92000Y142512D02*
X94000Y144512D01*
X385500Y41500D02*
Y50371D01*
X380500Y36500D02*
X385500Y41500D01*
X372500Y65563D02*
X373386D01*
X374658Y64291D01*
Y61214D02*
Y64291D01*
Y61214D02*
X385500Y50371D01*
X153000Y269000D02*
X179500Y295500D01*
X153000Y223500D02*
Y269000D01*
X140563Y290500D02*
X145500D01*
X150500Y295500D01*
X139563Y297500D02*
X141126Y299063D01*
X157000D01*
Y307937D02*
X157009Y307928D01*
X160572D01*
X164000Y304500D01*
Y298571D02*
Y304500D01*
X555854Y75000D02*
Y93000D01*
X555354Y93500D02*
X555854Y93000D01*
X473067Y71500D02*
Y76500D01*
X451197D02*
X453933D01*
X466000D02*
X473067D01*
X441563Y86500D02*
X453933D01*
X441303Y86240D02*
X441563Y86500D01*
X429488Y39134D02*
X431854Y41500D01*
X391689Y91760D02*
X395256Y95327D01*
X420500Y45000D02*
Y60063D01*
X399362Y70500D02*
X411500Y58362D01*
X412250Y36750D02*
X420500Y45000D01*
X473067Y71500D02*
X482000D01*
X453933Y86500D02*
X456669D01*
X463500Y79000D02*
X466000Y76500D01*
X412256Y84307D02*
Y85827D01*
X391689Y91760D02*
X398299Y85150D01*
Y70500D02*
Y85150D01*
X389000Y143799D02*
X432370D01*
X386658Y109835D02*
X402665D01*
X395256Y95327D02*
Y102693D01*
X402665Y109835D02*
X403000Y109500D01*
X391386Y106563D02*
X395256Y102693D01*
X484500Y113071D02*
X500571D01*
X456669Y86500D02*
X473898Y103728D01*
X475157D01*
X509000Y78437D02*
X509437Y78000D01*
X500571Y113071D02*
X511000Y123500D01*
X553000Y95854D02*
X555354Y93500D01*
X553000Y95854D02*
Y114000D01*
X412256Y85827D02*
X434500Y108071D01*
X491929Y139500D02*
X511000D01*
X484500Y146929D02*
X491929Y139500D01*
X363500Y65300D02*
X380500Y48300D01*
X390500Y106563D02*
X391386D01*
X391000Y91760D02*
X391689D01*
X370209Y102342D02*
X373114Y99437D01*
X374500Y106563D02*
X375386D01*
X363000Y90760D02*
X363500Y91260D01*
X373114Y99437D02*
X374886D01*
X376658Y104394D02*
Y105291D01*
X390311Y99240D02*
X391000D01*
X376658Y104394D02*
X381811Y99240D01*
X375386Y106563D02*
X376658Y105291D01*
X382500Y91760D02*
X391000D01*
X374500Y114437D02*
X382500D01*
X383386Y106563D02*
X386658Y109835D01*
X382500Y106563D02*
X383386D01*
X382500Y114437D02*
X390500D01*
X370500Y122512D02*
Y141381D01*
X387500Y133701D02*
X388500Y132701D01*
X382500Y114437D02*
X388500Y120437D01*
Y132122D01*
X372500Y73437D02*
X372728D01*
X382764D01*
X372728D02*
X374000Y74709D01*
Y91563D01*
X382764Y73437D02*
X385701Y70500D01*
X363500Y65300D02*
Y90760D01*
X363441Y139559D02*
X365000Y138000D01*
Y124887D02*
Y135063D01*
Y138000D01*
X381811Y99240D02*
X382500D01*
X386744Y95673D02*
X390311Y99240D01*
X94500Y339063D02*
X104500D01*
X143902D02*
X169059Y364220D01*
X104500Y339063D02*
X143902D01*
X87367Y366291D02*
X193410D01*
X193899Y366779D01*
X70842Y349767D02*
X87367Y366291D01*
X231417Y364220D02*
X252767D01*
X355000Y90760D02*
X363000D01*
X354311D02*
X355000D01*
X342500Y87760D02*
X351311D01*
X354311Y90760D01*
X334937Y70263D02*
X368700Y36500D01*
X334937Y70263D02*
Y95000D01*
X311063Y51937D02*
Y95000D01*
Y51937D02*
X326500Y36500D01*
X250250Y83500D02*
X250439Y83311D01*
X259000Y78299D02*
Y79362D01*
X255051Y83311D02*
X259000Y79362D01*
X250439Y83311D02*
X255051D01*
X243284Y83500D02*
X250250D01*
X259000Y77236D02*
Y78299D01*
X255051Y73287D02*
X259000Y77236D01*
X254505Y73287D02*
X255051D01*
X247638Y66421D02*
X254505Y73287D01*
X247638Y53067D02*
Y66421D01*
X236010Y41438D02*
X247638Y53067D01*
X233667Y41438D02*
X236010D01*
X228500Y36271D02*
X233667Y41438D01*
X223500Y36000D02*
X223771Y36271D01*
X228500D01*
X211700Y36000D02*
X216700Y31000D01*
X266571D01*
X282949Y47378D02*
Y71834D01*
X266571Y31000D02*
X282949Y47378D01*
X281524Y72713D02*
X282070D01*
X282949Y71834D01*
X277000Y77236D02*
X281524Y72713D01*
X277000Y77236D02*
Y78299D01*
X266070Y83311D02*
X273051D01*
X249500Y87000D02*
X262381D01*
X277000Y78299D02*
Y79362D01*
X273051Y83311D02*
X277000Y79362D01*
X262381Y87000D02*
X266070Y83311D01*
X248000Y88500D02*
X249500Y87000D01*
X243284Y88500D02*
X248000D01*
X179000Y44500D02*
Y60500D01*
X170500Y36000D02*
X179000Y44500D01*
X145300Y36000D02*
X157100D01*
X170500D01*
X133500D02*
X145300D01*
X131000Y44000D02*
X133500Y46500D01*
Y47800D01*
X95722Y44000D02*
X131000D01*
X78000Y61722D02*
X95722Y44000D01*
X23658Y135646D02*
X56000D01*
X117968Y267531D02*
Y271232D01*
Y267531D02*
X123000Y262500D01*
X111512Y137000D02*
Y164988D01*
X105500Y171000D02*
X111512Y164988D01*
X109000Y256000D02*
X112661Y259661D01*
Y271421D01*
X155500Y283500D02*
Y286586D01*
X227843Y358929D01*
X231244D01*
X231417Y359102D01*
X98000Y278500D02*
X98541D01*
X100321Y280279D02*
X108921D01*
X98541Y278500D02*
X100321Y280279D01*
X99459Y271000D02*
X100959Y272500D01*
X83000Y271000D02*
X99459D01*
X100959Y272500D02*
X101500D01*
X77500Y237500D02*
Y275500D01*
X72500Y275000D02*
X113000Y315500D01*
X72500Y220800D02*
Y275000D01*
X49800Y198100D02*
X72500Y220800D01*
X49800Y209900D02*
X67500Y227600D01*
Y274500D02*
X110791Y317791D01*
X67500Y227600D02*
Y274500D01*
X117780Y271421D02*
X117968Y271232D01*
X139500Y253000D02*
X144000Y248500D01*
Y223500D02*
Y248500D01*
X129571Y128500D02*
X135108Y122963D01*
X121071Y137000D02*
X129571Y128500D01*
X111512Y137000D02*
X121071D01*
X257500Y98480D02*
X258020Y99000D01*
X267000D01*
X112472Y286768D02*
Y287949D01*
X103541Y289000D02*
X111421D01*
X101500Y287500D02*
X102041D01*
X112472Y286768D02*
X112661Y286579D01*
X111421Y289000D02*
X112472Y287949D01*
X102041Y287500D02*
X103541Y289000D01*
X213000Y255000D02*
Y266760D01*
X191000Y272757D02*
X222248Y241509D01*
X191000Y272757D02*
Y282012D01*
X213000Y266760D02*
X213500Y267260D01*
X222248Y237728D02*
Y241509D01*
X213500Y267260D02*
X222000D01*
X222248Y237728D02*
X228047Y231929D01*
X231000D01*
X131500Y225500D02*
Y253575D01*
X93000Y284000D02*
X93541D01*
X94703Y282839D01*
X129929Y198000D02*
X158000D01*
X131500Y253575D02*
X228965Y351039D01*
X99000Y115500D02*
Y137102D01*
X85500Y115500D02*
X99000D01*
X100339Y116839D01*
X104339D02*
X110500Y123000D01*
X100339Y116839D02*
X104339D01*
X125260Y275161D02*
X131500Y268921D01*
Y268500D02*
Y268921D01*
X124079Y275161D02*
X125260D01*
X122898D02*
X124079D01*
X120339Y271421D02*
Y272602D01*
X122898Y275161D01*
X275000Y277959D02*
X275937Y277022D01*
Y270500D02*
Y277022D01*
X274854Y269417D02*
X275937Y270500D01*
X275000Y277959D02*
Y278500D01*
X233953Y198071D02*
X251485Y215603D01*
X231000Y198071D02*
X233953D01*
X124079Y277720D02*
X129238D01*
X130459Y276500D02*
X131000D01*
X129238Y277720D02*
X130459Y276500D01*
X85500Y76500D02*
X99000D01*
X85500D02*
Y101211D01*
X80000Y126500D02*
X84988Y131488D01*
X92000D01*
X80000Y106711D02*
Y126500D01*
Y106711D02*
X85500Y101211D01*
X342130Y115177D02*
X344516Y112791D01*
X349335Y109279D02*
X350228Y108386D01*
X353437D02*
X353709Y108658D01*
X350228Y108386D02*
X353437D01*
X349335Y109279D02*
Y111779D01*
X353709Y108658D02*
X356645D01*
X370500Y122512D01*
X336335Y115177D02*
X342130D01*
X303437Y116500D02*
X307303D01*
X303437Y115614D02*
Y116500D01*
X307303D02*
X308626Y115177D01*
X313500D01*
X302165Y114342D02*
X303437Y115614D01*
X297063Y62500D02*
Y88253D01*
Y61614D02*
Y62500D01*
X293500Y58051D02*
X297063Y61614D01*
X293500Y50300D02*
Y58051D01*
X166224Y97000D02*
X179500D01*
X166000Y96776D02*
X166224Y97000D01*
X135216Y96776D02*
X166000D01*
X135108Y96667D02*
X135216Y96776D01*
X135108Y96667D02*
Y122963D01*
X135000Y96559D02*
X135108Y96667D01*
X193360Y371898D02*
X208583D01*
X164721Y370291D02*
X191754D01*
X161512Y373500D02*
X164721Y370291D01*
X191754D02*
X193360Y371898D01*
X155500Y373500D02*
X161512D01*
X59000D02*
X155500D01*
X52000Y380500D02*
X59000Y373500D01*
X228965Y351563D02*
X229000Y351598D01*
X228965Y351039D02*
Y351563D01*
X46582Y161000D02*
X48082Y159500D01*
X45500Y161000D02*
X46582D01*
X48082Y159500D02*
X55933D01*
X193899Y366779D02*
X208583D01*
X74114Y339500D02*
X75000D01*
X72843Y340772D02*
Y342981D01*
Y340772D02*
X74114Y339500D01*
X55600D02*
X74114D01*
X70842Y344981D02*
Y349767D01*
Y344981D02*
X72843Y342981D01*
X51800Y335700D02*
X55600Y339500D01*
X322058Y159558D02*
X333500Y171000D01*
X256937Y375500D02*
X264000D01*
X254382Y256118D02*
X255500Y255000D01*
X302570Y159558D02*
X322058D01*
X292291Y149279D02*
X302570Y159558D01*
X292291Y142657D02*
Y149279D01*
X255500Y255000D02*
X258000Y252500D01*
X250563Y265665D02*
X254382Y261846D01*
Y256118D02*
Y261846D01*
X250563Y271000D02*
Y271886D01*
Y265665D02*
Y271000D01*
X248250Y255000D02*
X255500D01*
X314114Y102382D02*
X314500Y101996D01*
X313500Y110059D02*
Y112618D01*
Y102382D02*
X314114D01*
X258000Y90500D02*
X268500D01*
X257500Y91000D02*
X258000Y90500D01*
X314500Y86500D02*
Y101996D01*
X305000Y62563D02*
Y71000D01*
X304937Y62500D02*
X305000Y62563D01*
X259000Y65701D02*
X277000D01*
X259000Y57800D02*
Y65701D01*
Y57800D02*
X265000Y51800D01*
X206516Y351425D02*
X208583D01*
X194772Y340835D02*
X195925D01*
X190000Y383697D02*
Y393500D01*
Y383697D02*
X190260Y383437D01*
X195925Y340835D02*
X206516Y351425D01*
X193500Y339563D02*
X194772Y340835D01*
X188823Y339563D02*
X193500D01*
X177026Y383437D02*
X190260D01*
X171754Y378165D02*
X177026Y383437D01*
X185386Y343000D02*
X188823Y339563D01*
X184500Y336000D02*
Y343000D01*
X185386D01*
X231500Y276512D02*
X245937D01*
X229728Y274740D02*
X231500Y276512D01*
X222000Y274740D02*
X229728D01*
X212811D02*
X213500D01*
X222000D01*
X245937Y276512D02*
X250563Y271886D01*
X199118Y288433D02*
X212811Y274740D01*
X183981Y288433D02*
X199118D01*
X183102Y276469D02*
X191000Y268572D01*
X183102Y287554D02*
X183981Y288433D01*
X183102Y276469D02*
Y287554D01*
X191000Y255988D02*
Y268572D01*
X193524Y255988D02*
X195000D01*
X159595Y378165D02*
X171754D01*
X156386Y381374D02*
X159595Y378165D01*
X171228Y347228D02*
X175228D01*
X155500Y381374D02*
X156386D01*
X175228Y347228D02*
X176500Y348500D01*
X169000Y345000D02*
X171228Y347228D01*
X95934Y354617D02*
X103614Y346937D01*
X93500Y355000D02*
X93883Y354617D01*
X95934D01*
X93449Y355000D02*
X93500D01*
X75000Y347374D02*
X84063D01*
X85386Y346937D02*
X93449Y355000D01*
X84500Y346937D02*
X85386D01*
X84063Y347374D02*
X84500Y346937D01*
X156563Y307500D02*
X157000Y307937D01*
X148000Y307500D02*
X156563D01*
X141189Y275760D02*
X164000Y298571D01*
X139811Y275760D02*
X140500D01*
X141189D01*
X114563Y323000D02*
X122000D01*
X103614Y346937D02*
X104500D01*
X114500Y323063D02*
X114563Y323000D01*
X135291Y280279D02*
X139811Y275760D01*
X124079Y280279D02*
X135291D01*
X196500Y168551D02*
X205000D01*
X213000D01*
X188500D02*
X196500D01*
X179951Y160100D02*
X188402Y168551D01*
X188500D01*
X179951Y145022D02*
Y160100D01*
X163429Y128500D02*
X179951Y145022D01*
X163429Y128500D02*
X174929Y117000D01*
X244957Y93500D02*
X247457Y91000D01*
X257500D01*
X188500Y91240D02*
Y117000D01*
X243284Y93500D02*
X244957D01*
X187260Y90000D02*
X188500Y91240D01*
X174929Y117000D02*
X188500D01*
X174153Y59895D02*
X177757Y63500D01*
X185520D01*
X174153Y56553D02*
Y59895D01*
X169500Y51900D02*
X174153Y56553D01*
X65500Y162000D02*
X68000Y159500D01*
X75067D01*
X77201Y154500D02*
X78000Y153701D01*
X75067Y154500D02*
Y159500D01*
Y154500D02*
X77201D01*
X28500Y169260D02*
X37311D01*
X25500D02*
X28500D01*
X37311D02*
X38000D01*
X17811D02*
X18500D01*
X24909D01*
X21685Y153634D02*
X37311Y169260D01*
X55500Y136146D02*
X56000Y135646D01*
X55500Y136146D02*
Y146500D01*
X78000Y61722D02*
Y153701D01*
X17854Y147000D02*
X21685Y150831D01*
Y153634D01*
X14988Y144134D02*
X17854Y147000D01*
X14988Y126976D02*
X23658Y135646D01*
X15988Y125500D02*
X29000D01*
X14988Y126976D02*
Y144134D01*
X15988Y125500D02*
Y126976D01*
X492000Y192000D02*
Y195743D01*
X294585Y393158D02*
X492000Y195743D01*
X212544Y391158D02*
X214544Y393158D01*
X294585D01*
X210335Y391158D02*
X212544D01*
X209063Y389886D02*
X210335Y391158D01*
X209063Y389000D02*
Y389886D01*
X208677Y379575D02*
X209063Y379961D01*
Y389000D01*
X208583Y379575D02*
X208677D01*
X197500Y383677D02*
Y391000D01*
Y383677D02*
X197740Y383437D01*
X193844Y359102D02*
X208583D01*
X168702Y356374D02*
X176500D01*
X191116D02*
X193844Y359102D01*
X176500Y356374D02*
X191116D01*
X132120Y319791D02*
X168702Y356374D01*
X108291Y319791D02*
X132120D01*
X50800Y262300D02*
X108291Y319791D01*
X50800Y241000D02*
Y262300D01*
X90061Y343384D02*
X93614Y346937D01*
X94500D01*
X90061Y339561D02*
Y343384D01*
X89957Y339457D02*
X90061Y339561D01*
X89957Y337969D02*
Y339457D01*
X88657Y336670D02*
X89957Y337969D01*
X88657Y336670D02*
Y336670D01*
X57135Y305148D02*
X88657Y336670D01*
X53448Y305148D02*
X57135D01*
X52300Y304000D02*
X53448Y305148D01*
X169059Y364220D02*
X208583D01*
X171161Y361661D02*
X208583D01*
X114500Y330937D02*
X140437D01*
X171161Y361661D01*
X56500Y299000D02*
X88437Y330937D01*
X114500D01*
X56500Y277700D02*
Y299000D01*
X51300Y272500D02*
X56500Y277700D01*
X265303Y143311D02*
X267158Y141456D01*
Y136670D02*
Y141456D01*
X248886Y146437D02*
X252012Y143311D01*
X265303D01*
X352468Y137209D02*
X354614Y135063D01*
X355500D01*
X326157Y137209D02*
X352468D01*
X313000Y134437D02*
Y139500D01*
X244000Y351250D02*
Y351500D01*
X247114Y146437D02*
X248886D01*
X235883Y157117D02*
X236434D01*
X247114Y146437D01*
X322886Y133937D02*
X326157Y137209D01*
X355500Y125209D02*
Y135063D01*
X313500Y133937D02*
X322000D01*
X355500Y125209D02*
X356772Y123937D01*
X357500D01*
X322000Y133937D02*
X322886D01*
X313000Y134437D02*
X313500Y133937D01*
X262531Y132043D02*
X267158Y136670D01*
X262531Y127031D02*
Y132043D01*
X262500Y127000D02*
X262531Y127031D01*
X235130Y374630D02*
X241000Y380500D01*
X231591Y374630D02*
X235130D01*
X231417Y374457D02*
X231591Y374630D01*
X231244Y374284D02*
X231417Y374457D01*
X233500Y340750D02*
X244000Y351250D01*
X233500Y340500D02*
Y340750D01*
X227843Y374284D02*
X231244D01*
X220414Y354468D02*
Y366854D01*
X227843Y374284D01*
X177446Y311500D02*
X220414Y354468D01*
X128387Y311500D02*
X177446D01*
X125665Y302988D02*
Y308779D01*
X128387Y311500D01*
X121063Y298386D02*
X125665Y302988D01*
X121063Y296614D02*
Y297500D01*
X118000Y293551D02*
X121063Y296614D01*
X235500Y157500D02*
X235883Y157117D01*
X121063Y297500D02*
Y298386D01*
X118000Y288535D02*
Y293551D01*
X117968Y288503D02*
X118000Y288535D01*
X117968Y286763D02*
Y288503D01*
X347000Y142860D02*
Y146500D01*
Y142860D02*
X350301Y139559D01*
X363441D01*
X340000Y133937D02*
X340886D01*
X263000Y146937D02*
X263563Y147500D01*
X330500Y133937D02*
X340000D01*
X360779Y120665D02*
X365000Y124887D01*
X352221Y122665D02*
X354221Y120665D01*
X360779D01*
X348500Y123937D02*
X349772Y122665D01*
X352221D01*
X340886Y133937D02*
X346342Y128480D01*
Y125209D02*
X347614Y123937D01*
X348500D01*
X346342Y125209D02*
Y128480D01*
X231244Y376842D02*
X231417Y377016D01*
X227574Y376842D02*
X231244D01*
X218414Y367683D02*
X227574Y376842D01*
X218414Y355297D02*
Y367683D01*
X176617Y313500D02*
X218414Y355297D01*
X127558Y313500D02*
X176617D01*
X122335Y308277D02*
X127558Y313500D01*
X122335Y306772D02*
Y308277D01*
X262114Y146937D02*
X263000D01*
X208459Y353860D02*
X208583Y353984D01*
X204130Y353860D02*
X208459D01*
X181988Y347437D02*
X193500D01*
X197707D02*
X204130Y353860D01*
X193500Y347437D02*
X197707D01*
X150050Y315500D02*
X181988Y347437D01*
X113000Y315500D02*
X150050D01*
X313500Y104941D02*
X318008D01*
X327063Y95886D01*
X313327Y104768D02*
X313500Y104941D01*
X327063Y95000D02*
Y95886D01*
X309926Y104768D02*
X313327D01*
X307867Y102708D02*
X309926Y104768D01*
X329456Y99158D02*
X330335Y98279D01*
X326876Y99158D02*
X329456D01*
X320209Y92843D02*
X321094D01*
X318937Y94114D02*
Y95000D01*
Y94114D02*
X320209Y92843D01*
X330335Y91721D02*
Y98279D01*
X329456Y90842D02*
X330335Y91721D01*
X321094Y92843D02*
X323095Y90842D01*
X329456D01*
X308264Y107500D02*
X313500D01*
X318533D01*
X306764Y106000D02*
X308264Y107500D01*
X318533D02*
X326876Y99158D01*
X202043Y88500D02*
X203716D01*
X196296Y98500D02*
X203716D01*
X190827Y93031D02*
X196296Y98500D01*
X190827Y85256D02*
Y93031D01*
X187260Y81689D02*
X190827Y85256D01*
X187260Y81000D02*
Y81689D01*
X201362Y82819D02*
X202043Y83500D01*
X203716D01*
X201362Y82302D02*
Y82819D01*
X199362Y80302D02*
X201362Y82302D01*
X199362Y78678D02*
Y80302D01*
X197428Y76744D02*
X199362Y78678D01*
X187260Y71689D02*
X192315Y76744D01*
X197428D01*
X187260Y71000D02*
Y71689D01*
X202043Y93500D02*
X203716D01*
X198543Y90000D02*
X202043Y93500D01*
X194740Y90000D02*
X198543D01*
X202043Y73500D02*
X203716D01*
X198715Y70171D02*
X202043Y73500D01*
X198715Y66904D02*
Y70171D01*
X194500Y62689D02*
X198715Y66904D01*
X194500Y62000D02*
Y62689D01*
X267750Y234939D02*
X270500Y232189D01*
Y231500D02*
Y232189D01*
X267750Y234939D02*
Y245000D01*
X252382Y239283D02*
Y244275D01*
X251657Y245000D02*
X252382Y244275D01*
Y239283D02*
X259476Y232189D01*
X248250Y245000D02*
X251657D01*
X259476Y231500D02*
Y232189D01*
X179500Y70068D02*
Y73500D01*
X161500Y67500D02*
X163268Y65732D01*
X136059Y67500D02*
X157488D01*
X161500D01*
X171987Y62555D02*
X179500Y70068D01*
X163268Y64323D02*
X165036Y62555D01*
X171987D01*
X163268Y64323D02*
Y65732D01*
X135000Y66441D02*
X136059Y67500D01*
X131850Y66441D02*
X135000D01*
X95500Y52000D02*
X109000D01*
X117410D02*
X131850Y66441D01*
X109000Y52000D02*
X117410D01*
X194000Y375366D02*
Y375532D01*
Y375563D01*
X192197Y373563D02*
X194000Y375366D01*
X168000Y373563D02*
X192197D01*
X194000Y375532D02*
X195075Y374457D01*
X208583D01*
X166000Y70602D02*
Y81224D01*
X168512Y67500D02*
Y68090D01*
X166000Y70602D02*
X168512Y68090D01*
X188500Y151512D02*
Y162449D01*
Y151512D02*
X189000Y151012D01*
X232614Y146437D02*
X233500D01*
X205000Y162449D02*
X205098D01*
X202409Y151012D02*
X203000D01*
X196500Y156921D02*
X202409Y151012D01*
X196500Y156921D02*
Y162449D01*
X317657Y129335D02*
X326343D01*
X313500Y126063D02*
X314386D01*
X311343Y127335D02*
X312614Y126063D01*
X311343Y127335D02*
Y129544D01*
X312614Y126063D02*
X313500D01*
X326343Y129335D02*
X329614Y126063D01*
X330500D01*
X314386D02*
X317657Y129335D01*
X313500Y120295D02*
Y126063D01*
X304709Y136343D02*
X305145D01*
X303437Y137614D02*
Y138500D01*
Y146000D01*
Y137614D02*
X304709Y136343D01*
X308244Y132643D02*
X311343Y129544D01*
X305145Y136343D02*
X308244Y133244D01*
Y132643D02*
Y133244D01*
X339114Y126063D02*
X340000D01*
X321114D02*
X322000D01*
X319843Y124791D02*
X321114Y126063D01*
X322000D02*
X322886D01*
X335842Y122791D02*
X339114Y126063D01*
X326157Y122791D02*
X335842D01*
X322886Y126063D02*
X326157Y122791D01*
X319843Y120678D02*
Y124791D01*
X317074Y117909D02*
X319843Y120678D01*
X303437Y123114D02*
X308051Y118500D01*
X309335D01*
X303437Y124000D02*
Y131500D01*
Y123114D02*
Y124000D01*
X313500Y117736D02*
X313673Y117909D01*
X317074D01*
X309926D02*
X313327D01*
X309335Y118500D02*
X309926Y117909D01*
X313327D02*
X313500Y117736D01*
X353393Y118665D02*
X354012D01*
X351763Y120295D02*
X353393Y118665D01*
X354012D02*
X356614Y116063D01*
X336335Y120295D02*
X351763D01*
X356614Y116063D02*
X357500D01*
X344073D02*
X348500D01*
X342399Y117736D02*
X344073Y116063D01*
X336335Y117736D02*
X342399D01*
X248500Y376063D02*
X249063Y375500D01*
X248500Y376063D02*
Y384000D01*
X236943Y371898D02*
X240545Y375500D01*
X249063D01*
X231417Y371898D02*
X236943D01*
X120000Y289677D02*
X125665Y295342D01*
X120000Y287920D02*
Y289677D01*
X127665Y295342D02*
X128937Y296614D01*
X125665Y295342D02*
X127665D01*
X128937Y297500D02*
Y305500D01*
Y297500D02*
X139563D01*
X128937Y296614D02*
Y297500D01*
X267750Y270187D02*
X268063Y270500D01*
X267750Y260000D02*
Y270187D01*
X258437Y271000D02*
X258937Y270500D01*
X268063D01*
X94703Y282839D02*
X108921D01*
X373000Y188657D02*
X373500Y188157D01*
Y181000D02*
Y188157D01*
X383500Y181000D02*
Y188594D01*
X108732Y280090D02*
X108921Y280279D01*
X363500Y188594D02*
Y189500D01*
Y181000D02*
Y188594D01*
X110791Y317791D02*
X132948D01*
X166929Y351772D01*
X199315Y356543D02*
X208583D01*
X180676Y350874D02*
X184500D01*
X166929Y351772D02*
X179779D01*
X180676Y350874D01*
X193646D02*
X199315Y356543D01*
X184500Y350874D02*
X193646D01*
X193629Y369339D02*
X208583D01*
X192582Y368291D02*
X193629Y369339D01*
X72591Y368291D02*
X192582D01*
X83614Y339063D02*
X84500D01*
X51800Y347500D02*
X72591Y368291D01*
X75251Y330700D02*
X83614Y339063D01*
X51529Y347229D02*
X51800Y347500D01*
X51529Y342500D02*
Y347229D01*
X46800Y337771D02*
X51529Y342500D01*
X46800Y333629D02*
X49729Y330700D01*
X75251D01*
X46800Y333629D02*
Y337771D01*
X340178Y107327D02*
X343162Y104342D01*
X356330D01*
X336508Y107327D02*
X340178D01*
X356330Y104342D02*
X356461Y104473D01*
X356777D01*
X358867Y106563D01*
X374500D01*
X336335Y107500D02*
X336508Y107327D01*
X336508Y104768D02*
X339909D01*
X342334Y102342D01*
X336335Y104941D02*
X336508Y104768D01*
X342334Y102342D02*
X370209D01*
X238929Y108429D02*
X247500Y117000D01*
X238929Y81181D02*
Y108429D01*
X241610Y78500D02*
X243284D01*
X238929Y81181D02*
X241610Y78500D01*
X247500Y125353D02*
Y127000D01*
X238000Y115853D02*
X247500Y125353D01*
X236929Y112429D02*
X238000Y113500D01*
Y115853D01*
X236929Y78181D02*
Y112429D01*
X241610Y73500D02*
X243284D01*
X236929Y78181D02*
X241610Y73500D01*
X222000Y267260D02*
X222689D01*
X224461Y265488D02*
X231500D01*
X232189D01*
X222689Y267260D02*
X224461Y265488D01*
X234543Y260299D02*
Y263134D01*
Y260299D02*
X244842Y250000D01*
X248250D01*
X232189Y265488D02*
X234543Y263134D01*
X188500Y139488D02*
X189000Y139988D01*
X188500Y127000D02*
Y139488D01*
X108732Y277532D02*
X108921Y277720D01*
X106532Y277532D02*
X108732D01*
X101500Y272500D02*
X106532Y277532D01*
X383437Y196531D02*
X383500Y196468D01*
X373000Y196531D02*
X383437D01*
X372937Y196468D02*
X373000Y196531D01*
X363500Y196468D02*
X372937D01*
X393500Y181000D02*
Y186469D01*
X385658Y194311D02*
X393500Y186469D01*
X384386Y196468D02*
X385658Y195197D01*
X383500Y196468D02*
X384386D01*
X385658Y194311D02*
Y195197D01*
X328969Y196468D02*
X363500D01*
X313500Y181000D02*
X328969Y196468D01*
X344791Y110578D02*
X345669Y109700D01*
X343591Y110578D02*
X344791D01*
X336508Y112445D02*
X341724D01*
X343591Y110578D01*
X345669Y108500D02*
Y109700D01*
X340244Y96807D02*
X341811Y95240D01*
X342500D01*
X340244Y96807D02*
Y98776D01*
X339023Y99996D02*
X340244Y98776D01*
X327000Y116500D02*
X330882Y112618D01*
X336335D01*
X324000Y113500D02*
X327000Y116500D01*
X324000Y105757D02*
Y113500D01*
X336335Y112618D02*
X336508Y112445D01*
X330284Y101157D02*
X331446Y99996D01*
X339023D01*
X324000Y105757D02*
X328600Y101157D01*
X330284D01*
X216937Y381969D02*
Y389000D01*
X212157Y377189D02*
X216937Y381969D01*
X208583Y377016D02*
X208756Y377189D01*
X196031Y379000D02*
X198015Y377016D01*
X284971Y152471D02*
X313500Y181000D01*
X208756Y377189D02*
X212157D01*
X198015Y377016D02*
X208583D01*
X182500Y379000D02*
X196031D01*
X140500Y283240D02*
Y290563D01*
X140563Y290500D01*
X122990Y283240D02*
X140500D01*
X262500Y138563D02*
X263000Y139063D01*
X248000Y138563D02*
X262500D01*
X257480Y98500D02*
X257500Y98480D01*
X255500Y107000D02*
X257500Y105000D01*
Y98480D02*
Y105000D01*
X243284Y98500D02*
X257480D01*
X255500Y107000D02*
Y126132D01*
X233500Y138563D02*
X248000D01*
X233000Y127000D02*
Y138063D01*
X233500Y138563D01*
X249589Y132043D02*
X255500Y126132D01*
X238043Y132043D02*
X249589D01*
X233000Y127000D02*
X238043Y132043D01*
X255102Y385362D02*
X256374Y384091D01*
X250893Y388158D02*
X253688Y385362D01*
X255102D01*
X242067Y388158D02*
X250893D01*
X355000Y99500D02*
X363500D01*
X339852Y101996D02*
X342041Y99807D01*
X336720Y101996D02*
X339852D01*
X336335Y102382D02*
X336720Y101996D01*
X336161Y102555D02*
X336335Y102382D01*
X353433Y99807D02*
X355000Y98240D01*
X342041Y99807D02*
X353433D01*
X251500Y351000D02*
Y358937D01*
X251437Y359000D02*
X251500Y358937D01*
X233484Y379575D02*
X242067Y388158D01*
X231417Y379575D02*
X233484D01*
X217500Y127000D02*
Y138563D01*
X46500Y176937D02*
X47386D01*
X46303Y176740D02*
X46500Y176937D01*
X28500Y176740D02*
X38000D01*
X46303D01*
X17811D02*
X18500D01*
X28500D01*
X202000Y138988D02*
X203000Y139988D01*
X202000Y127000D02*
Y138988D01*
X52398Y170299D02*
Y171925D01*
X47386Y176937D02*
X52398Y171925D01*
X14000Y172929D02*
X17811Y176740D01*
X14000Y165500D02*
Y172929D01*
X52398Y170299D02*
X53197Y169500D01*
X55933D01*
X14000Y165500D02*
X18500Y161000D01*
X109000Y14000D02*
X134000Y39000D01*
X109000Y13000D02*
Y14000D01*
X95500Y13000D02*
X109000D01*
X356386Y142937D02*
X378617Y165168D01*
X437668D02*
X443500Y171000D01*
X378617Y165168D02*
X437668D01*
X355500Y142937D02*
X356386D01*
X51150Y165299D02*
X55134D01*
X55933Y164500D01*
X47386Y169063D02*
X51150Y165299D01*
X46500Y169063D02*
X47386D01*
X0Y399500D02*
X541500D01*
X542000Y399000D01*
Y161500D02*
Y399000D01*
Y161500D02*
X599000D01*
X599500Y161000D01*
Y500D02*
Y161000D01*
Y500D02*
X600000Y0D01*
X0D02*
X600000D01*
X0D02*
Y399500D01*
Y0D02*
X600000D01*
D15*
X427500Y78760D02*
D03*
Y86240D02*
D03*
X436000Y78760D02*
D03*
Y86240D02*
D03*
X444500Y78760D02*
D03*
Y86240D02*
D03*
X140500Y283240D02*
D03*
Y275760D02*
D03*
X302240Y101240D02*
D03*
Y93760D02*
D03*
X363500Y98240D02*
D03*
Y90760D02*
D03*
X88000Y163020D02*
D03*
Y170500D02*
D03*
X28500Y176740D02*
D03*
Y169260D02*
D03*
X527500Y95020D02*
D03*
Y102500D02*
D03*
X512500Y95020D02*
D03*
Y102500D02*
D03*
X342500Y95240D02*
D03*
Y87760D02*
D03*
X482000Y80260D02*
D03*
Y87740D02*
D03*
X538500Y95020D02*
D03*
Y102500D02*
D03*
X38000Y176740D02*
D03*
Y169260D02*
D03*
X382500Y99240D02*
D03*
Y91760D02*
D03*
X391000Y99240D02*
D03*
Y91760D02*
D03*
X213500Y267260D02*
D03*
Y274740D02*
D03*
X355000Y98240D02*
D03*
Y90760D02*
D03*
X257500Y98480D02*
D03*
Y91000D02*
D03*
X295000Y105240D02*
D03*
Y97760D02*
D03*
X520000Y95020D02*
D03*
Y102500D02*
D03*
X222000Y267260D02*
D03*
Y274740D02*
D03*
X18500Y176740D02*
D03*
Y169260D02*
D03*
D16*
X303437Y123875D02*
D03*
X295563D02*
D03*
X303437Y131250D02*
D03*
X295563D02*
D03*
X303437Y138625D02*
D03*
X295563D02*
D03*
X303437Y146000D02*
D03*
X295563D02*
D03*
X346063Y108500D02*
D03*
X353937D02*
D03*
X318937Y95000D02*
D03*
X311063D02*
D03*
X129602Y305884D02*
D03*
X121728D02*
D03*
X216937Y389000D02*
D03*
X209063D02*
D03*
X297063Y62500D02*
D03*
X304937D02*
D03*
X248500Y384000D02*
D03*
X256374D02*
D03*
X327063Y95000D02*
D03*
X334937D02*
D03*
X128937Y297500D02*
D03*
X121063D02*
D03*
X258437Y271000D02*
D03*
X250563D02*
D03*
X303437Y116500D02*
D03*
X295563D02*
D03*
X256937Y375500D02*
D03*
X249063D02*
D03*
X275937Y270500D02*
D03*
X268063D02*
D03*
X243563Y359000D02*
D03*
X251437D02*
D03*
D17*
X251451Y173854D02*
D03*
Y184878D02*
D03*
X239951Y173854D02*
D03*
Y184878D02*
D03*
X52000Y10988D02*
D03*
Y22012D02*
D03*
X588000Y88512D02*
D03*
Y77488D02*
D03*
X496000Y72488D02*
D03*
Y83512D02*
D03*
X231500Y276512D02*
D03*
Y265488D02*
D03*
D18*
X228951Y184878D02*
D03*
Y173854D02*
D03*
X203000Y139988D02*
D03*
Y151012D02*
D03*
X189000Y139988D02*
D03*
Y151012D02*
D03*
X92000Y131488D02*
D03*
Y142512D02*
D03*
D19*
X452146Y41500D02*
D03*
X432854D02*
D03*
X575146Y75000D02*
D03*
X555854D02*
D03*
X37146Y147000D02*
D03*
X17854D02*
D03*
X574646Y93500D02*
D03*
X555354D02*
D03*
X452646Y57500D02*
D03*
X433354D02*
D03*
D20*
X231000Y198071D02*
D03*
Y231929D02*
D03*
D21*
X205000Y162449D02*
D03*
Y168551D02*
D03*
X188500Y162449D02*
D03*
Y168551D02*
D03*
X213000Y162449D02*
D03*
Y168551D02*
D03*
X196500Y162449D02*
D03*
Y168551D02*
D03*
D22*
X194740Y81000D02*
D03*
X187260D02*
D03*
X194000Y63500D02*
D03*
X186520D02*
D03*
X194740Y90000D02*
D03*
X187260D02*
D03*
X194740Y71000D02*
D03*
X187260D02*
D03*
D23*
X357500Y116063D02*
D03*
Y123937D02*
D03*
X390500Y114437D02*
D03*
Y106563D02*
D03*
X420500Y60063D02*
D03*
Y67937D02*
D03*
X509000Y70563D02*
D03*
Y78437D02*
D03*
X412500Y78224D02*
D03*
Y86098D02*
D03*
X382500Y106563D02*
D03*
Y114437D02*
D03*
X184500Y343000D02*
D03*
Y350874D02*
D03*
X374000Y99437D02*
D03*
Y91563D02*
D03*
X247833Y139063D02*
D03*
Y146937D02*
D03*
X383500Y188594D02*
D03*
Y196468D02*
D03*
X355500Y142937D02*
D03*
Y135063D02*
D03*
X263000Y139063D02*
D03*
Y146937D02*
D03*
X104500Y346937D02*
D03*
Y339063D02*
D03*
X140500Y290563D02*
D03*
Y298437D02*
D03*
X96000Y339063D02*
D03*
Y346937D02*
D03*
X168000Y381437D02*
D03*
Y373563D02*
D03*
X155500Y373500D02*
D03*
Y381374D02*
D03*
X217500Y139063D02*
D03*
Y146937D02*
D03*
X372500Y65563D02*
D03*
Y73437D02*
D03*
X176500Y356374D02*
D03*
Y348500D02*
D03*
X157000Y300063D02*
D03*
Y307937D02*
D03*
X232667Y139063D02*
D03*
Y146937D02*
D03*
X363500Y188594D02*
D03*
Y196468D02*
D03*
X373000Y188657D02*
D03*
Y196531D02*
D03*
X114500Y330937D02*
D03*
Y323063D02*
D03*
X374500Y106563D02*
D03*
Y114437D02*
D03*
X365000Y135063D02*
D03*
Y142937D02*
D03*
X348500Y116063D02*
D03*
Y123937D02*
D03*
X46500Y169063D02*
D03*
Y176937D02*
D03*
X84500Y346937D02*
D03*
Y339063D02*
D03*
X75000Y347374D02*
D03*
Y339500D02*
D03*
X193500Y339563D02*
D03*
Y347437D02*
D03*
X313500Y133937D02*
D03*
Y126063D02*
D03*
X330500Y133937D02*
D03*
Y126063D02*
D03*
X340000Y133937D02*
D03*
Y126063D02*
D03*
X322000Y133937D02*
D03*
Y126063D02*
D03*
D24*
X453933Y86500D02*
D03*
Y81500D02*
D03*
Y76500D02*
D03*
Y71500D02*
D03*
X473067Y86500D02*
D03*
Y81500D02*
D03*
Y76500D02*
D03*
Y71500D02*
D03*
X521933Y83000D02*
D03*
Y78000D02*
D03*
Y73000D02*
D03*
Y68000D02*
D03*
X541067Y83000D02*
D03*
Y78000D02*
D03*
Y73000D02*
D03*
Y68000D02*
D03*
X55933Y169500D02*
D03*
Y164500D02*
D03*
Y159500D02*
D03*
Y154500D02*
D03*
X75067Y169500D02*
D03*
Y164500D02*
D03*
Y159500D02*
D03*
Y154500D02*
D03*
D25*
X463500Y79000D02*
D03*
X531500Y75500D02*
D03*
X65500Y162000D02*
D03*
D26*
X110500Y123000D02*
D03*
X179500Y73500D02*
D03*
X179000Y60500D02*
D03*
X179500Y97000D02*
D03*
X509000Y62500D02*
D03*
X461000Y97500D02*
D03*
X264500Y388500D02*
D03*
X217500Y188500D02*
D03*
X261500Y185500D02*
D03*
X168000Y393000D02*
D03*
X281000Y122000D02*
D03*
X272500Y146500D02*
D03*
X115500Y256000D02*
D03*
X105000Y222500D02*
D03*
X179500Y295500D02*
D03*
X150500D02*
D03*
X153000Y223500D02*
D03*
X105500Y171000D02*
D03*
X109000Y256000D02*
D03*
X98000Y278500D02*
D03*
X155500Y283500D02*
D03*
X83000Y271000D02*
D03*
X123000Y262500D02*
D03*
X139500Y253000D02*
D03*
X144000Y223500D02*
D03*
X267000Y99000D02*
D03*
X101500Y287500D02*
D03*
X213000Y255000D02*
D03*
X131500Y225500D02*
D03*
X101500Y272500D02*
D03*
X93000Y284000D02*
D03*
X158000Y198000D02*
D03*
X80000Y197500D02*
D03*
X131500Y268500D02*
D03*
X275000Y278500D02*
D03*
X131000Y276500D02*
D03*
X288000Y111500D02*
D03*
X441500Y57500D02*
D03*
X341500Y333500D02*
D03*
X341000Y342500D02*
D03*
X511000Y139500D02*
D03*
X553000Y114000D02*
D03*
X264000Y375500D02*
D03*
X482000Y71500D02*
D03*
X268500Y90500D02*
D03*
X314500Y86500D02*
D03*
X305000Y71000D02*
D03*
X190000Y393500D02*
D03*
X184500Y336000D02*
D03*
X195000Y246500D02*
D03*
X169000Y345000D02*
D03*
X93500Y355000D02*
D03*
X148000Y307500D02*
D03*
X122000Y323000D02*
D03*
X55500Y146500D02*
D03*
X29000Y125500D02*
D03*
X492000Y192000D02*
D03*
X197500Y391000D02*
D03*
X313000Y139500D02*
D03*
X244000Y351500D02*
D03*
X241000Y380500D02*
D03*
X233500Y340500D02*
D03*
X235500Y157500D02*
D03*
X347000Y146500D02*
D03*
X327000Y116500D02*
D03*
X182500Y379000D02*
D03*
X403000Y109500D02*
D03*
X327000Y107000D02*
D03*
X251500Y351000D02*
D03*
X511000Y123500D02*
D03*
X18500Y161000D02*
D03*
D27*
X313500Y120295D02*
D03*
Y117736D02*
D03*
Y115177D02*
D03*
Y112618D02*
D03*
Y110059D02*
D03*
Y107500D02*
D03*
Y104941D02*
D03*
Y102382D02*
D03*
X336335Y120295D02*
D03*
Y117736D02*
D03*
Y115177D02*
D03*
Y112618D02*
D03*
Y110059D02*
D03*
Y107500D02*
D03*
Y104941D02*
D03*
Y102382D02*
D03*
X231417Y351425D02*
D03*
Y353984D02*
D03*
Y356543D02*
D03*
Y359102D02*
D03*
Y361661D02*
D03*
Y364220D02*
D03*
Y366779D02*
D03*
Y369339D02*
D03*
Y371898D02*
D03*
Y374457D02*
D03*
Y377016D02*
D03*
Y379575D02*
D03*
X208583Y351425D02*
D03*
Y353984D02*
D03*
Y356543D02*
D03*
Y359102D02*
D03*
Y361661D02*
D03*
Y364220D02*
D03*
Y366779D02*
D03*
Y369339D02*
D03*
Y371898D02*
D03*
Y374457D02*
D03*
Y377016D02*
D03*
Y379575D02*
D03*
D28*
X111512Y137000D02*
D03*
X100488D02*
D03*
X157488Y67500D02*
D03*
X168512D02*
D03*
D29*
X124079Y275161D02*
D03*
Y277720D02*
D03*
Y280279D02*
D03*
Y282839D02*
D03*
X108921D02*
D03*
Y280279D02*
D03*
Y277720D02*
D03*
Y275161D02*
D03*
D30*
X120339Y286579D02*
D03*
X117780D02*
D03*
X115220D02*
D03*
X112661D02*
D03*
Y271421D02*
D03*
X115220D02*
D03*
X117780D02*
D03*
X120339D02*
D03*
D31*
X116500Y279000D02*
D03*
D32*
X267750Y245000D02*
D03*
Y250000D02*
D03*
Y255000D02*
D03*
Y260000D02*
D03*
X248250D02*
D03*
Y255000D02*
D03*
Y250000D02*
D03*
Y245000D02*
D03*
D33*
X56000Y116354D02*
D03*
Y135646D02*
D03*
D34*
X191000Y255988D02*
D03*
Y282012D02*
D03*
X529500Y116988D02*
D03*
Y143012D02*
D03*
D35*
X259476Y231500D02*
D03*
X270500D02*
D03*
D36*
X129929Y198000D02*
D03*
X96071D02*
D03*
X163429Y128500D02*
D03*
X129571D02*
D03*
D37*
X430488Y19000D02*
D03*
X456512D02*
D03*
X15988Y125500D02*
D03*
X42012D02*
D03*
D38*
X385701Y70500D02*
D03*
X398299D02*
D03*
D39*
X433500Y142929D02*
D03*
Y109071D02*
D03*
X484500Y142429D02*
D03*
Y108571D02*
D03*
D40*
X389000Y131201D02*
D03*
Y143799D02*
D03*
X259000Y65701D02*
D03*
Y78299D02*
D03*
X277000Y65701D02*
D03*
Y78299D02*
D03*
D41*
X203716Y98500D02*
D03*
Y93500D02*
D03*
Y88500D02*
D03*
Y83500D02*
D03*
Y78500D02*
D03*
Y73500D02*
D03*
Y68500D02*
D03*
Y63500D02*
D03*
X243284Y98500D02*
D03*
Y93500D02*
D03*
Y88500D02*
D03*
Y83500D02*
D03*
Y78500D02*
D03*
Y73500D02*
D03*
Y68500D02*
D03*
Y63500D02*
D03*
D42*
X197740Y383437D02*
D03*
X190260D02*
D03*
X194000Y375563D02*
D03*
D43*
X49488Y85000D02*
D03*
X10512D02*
D03*
D44*
X570500Y112012D02*
D03*
Y150988D02*
D03*
X487500Y12012D02*
D03*
Y50988D02*
D03*
D45*
X166000Y96776D02*
D03*
Y81224D02*
D03*
D46*
X135000Y96559D02*
D03*
Y66441D02*
D03*
D64*
X258000Y252500D02*
D03*
D86*
X521933Y68000D02*
X522082Y67851D01*
X532840D01*
X560690Y40000D01*
X570200D01*
X505500Y58500D02*
X533800D01*
X503000Y61000D02*
Y77201D01*
X533800Y58500D02*
X540500Y51800D01*
X503000Y61000D02*
X505500Y58500D01*
X496689Y83512D02*
X503000Y77201D01*
X498793Y59707D02*
X506700Y51800D01*
X528700D01*
X498793Y59707D02*
Y70384D01*
X496000Y72488D02*
X496689D01*
X498793Y70384D01*
X595500Y45000D02*
Y100500D01*
X582000Y40000D02*
X590500D01*
X595500Y45000D01*
X9012Y177696D02*
X12816Y181500D01*
X60331D02*
X72331Y169500D01*
X12816Y181500D02*
X60331D01*
X487500Y12012D02*
X510012D01*
X536948Y38948D01*
X539448D02*
X540500Y40000D01*
X536948Y38948D02*
X539448D01*
X19500Y39500D02*
X20088D01*
X48328Y13342D02*
X48578Y13092D01*
X20088Y39500D02*
X22704Y36884D01*
X23116D01*
X51896Y13092D02*
X54000Y10988D01*
X23116Y36884D02*
X46657Y13342D01*
X48328D01*
X48578Y13092D02*
X51896D01*
X466675Y10000D02*
X496675Y40000D01*
X528700D01*
X449969Y10000D02*
X466675D01*
X449090Y10879D02*
X449969Y10000D01*
X449090Y10879D02*
Y39445D01*
X570200Y68130D02*
X573422Y71352D01*
X573565D02*
X575146Y72933D01*
X570200Y51800D02*
Y68130D01*
X573422Y71352D02*
X573565D01*
X575146Y72933D02*
Y75000D01*
X574646Y75500D02*
Y93500D01*
Y75500D02*
X575146Y75000D01*
X570200Y40000D02*
Y51800D01*
X582000D02*
Y72177D01*
Y40000D02*
Y51800D01*
X582323Y93500D02*
X587311Y88512D01*
X582000Y72177D02*
X587311Y77488D01*
X588000D01*
X587311Y88512D02*
X588000D01*
X528700Y40000D02*
Y51800D01*
X540500Y40000D02*
Y51800D01*
X574646Y93500D02*
X582323D01*
X451945Y71500D02*
X453933D01*
X477370Y45779D02*
X482579Y50988D01*
X477043Y87740D02*
X482000D01*
X480760Y81500D02*
X482000Y80260D01*
Y87740D02*
X482689D01*
X451146Y57500D02*
Y70701D01*
X455512Y19000D02*
Y20476D01*
X477370Y42335D01*
X449090Y39445D02*
X451146Y41500D01*
Y57500D01*
X477370Y42335D02*
Y45779D01*
X475803Y86500D02*
X477043Y87740D01*
X473067Y86500D02*
X475803D01*
X473067Y81500D02*
X480760D01*
X451146Y70701D02*
X451945Y71500D01*
X570500Y113012D02*
X582988D01*
X595500Y100500D01*
X496000Y83512D02*
X496689D01*
X482579Y50988D02*
X487500D01*
X482689Y87740D02*
X487500Y82929D01*
Y50988D02*
Y82929D01*
X47988Y79579D02*
Y84500D01*
X31300Y39500D02*
Y51300D01*
X49788Y22012D02*
X55000D01*
X31300Y39500D02*
X48788Y22012D01*
X31300Y62890D02*
X47988Y79579D01*
X31300Y51300D02*
Y62890D01*
X59469Y151532D02*
Y153701D01*
X67000Y130968D02*
Y144000D01*
X59469Y151532D02*
X67000Y144000D01*
X55933Y154500D02*
X58669D01*
X53197D02*
X55933D01*
X58669D02*
X59469Y153701D01*
X61898Y120185D02*
Y125865D01*
X67000Y130968D01*
X58067Y116354D02*
X61898Y120185D01*
X56000Y116354D02*
X58067D01*
X53933D02*
X56000D01*
X45697Y147000D02*
X53197Y154500D01*
X37146Y147000D02*
X45697D01*
X19500Y81921D02*
X53933Y116354D01*
X19500Y51300D02*
Y81921D01*
Y39500D02*
Y51300D01*
X9012Y89421D02*
Y177696D01*
X87000Y169500D02*
X88000Y170500D01*
X75067Y169500D02*
X87000D01*
X72331D02*
X75067D01*
X41012Y117602D02*
Y125500D01*
X18039Y94630D02*
X41012Y117602D01*
X14220Y94630D02*
X18039D01*
X9012Y89421D02*
X14220Y94630D01*
X10512Y85000D02*
Y89921D01*
X75067Y164500D02*
X86520D01*
X88000Y163020D01*
D87*
X403500Y171000D02*
D03*
X423500D02*
D03*
Y181000D02*
D03*
X413500Y171000D02*
D03*
Y181000D02*
D03*
X503500D02*
D03*
X493500D02*
D03*
X483500D02*
D03*
X473500D02*
D03*
X463500D02*
D03*
X453500D02*
D03*
X443500D02*
D03*
X433500D02*
D03*
X403500D02*
D03*
X393500D02*
D03*
X383500D02*
D03*
X373500D02*
D03*
X363500D02*
D03*
X353500D02*
D03*
X343500D02*
D03*
X333500D02*
D03*
X323500D02*
D03*
X313500D02*
D03*
X503500Y171000D02*
D03*
X493500D02*
D03*
X483500D02*
D03*
X473500D02*
D03*
X463500D02*
D03*
X453500D02*
D03*
X443500D02*
D03*
X433500D02*
D03*
X393500D02*
D03*
X383500D02*
D03*
X373500D02*
D03*
X363500D02*
D03*
X353500D02*
D03*
X343500D02*
D03*
X333500D02*
D03*
X323500D02*
D03*
X313500D02*
D03*
D88*
X522674Y176000D02*
D03*
X294327D02*
D03*
Y368913D02*
D03*
X522674D02*
D03*
D89*
X199900Y47800D02*
D03*
X211700D02*
D03*
Y36000D02*
D03*
X199900D02*
D03*
X223500D02*
D03*
X235300D02*
D03*
Y47800D02*
D03*
X223500D02*
D03*
X50800Y211000D02*
D03*
Y199200D02*
D03*
X39000Y211000D02*
D03*
Y199200D02*
D03*
Y241000D02*
D03*
X50800D02*
D03*
X540500Y40000D02*
D03*
X528700D02*
D03*
X540500Y51800D02*
D03*
X528700D02*
D03*
X295500Y36500D02*
D03*
Y48300D02*
D03*
X51800Y347500D02*
D03*
Y335700D02*
D03*
X40000Y347500D02*
D03*
Y335700D02*
D03*
X326500Y48300D02*
D03*
X338300D02*
D03*
X326500Y36500D02*
D03*
X338300D02*
D03*
X39500Y272500D02*
D03*
X51300D02*
D03*
X368700Y48300D02*
D03*
X380500D02*
D03*
X368700Y36500D02*
D03*
X380500D02*
D03*
X570200Y51800D02*
D03*
X582000D02*
D03*
X570200Y40000D02*
D03*
X582000D02*
D03*
X133500Y47800D02*
D03*
X145300D02*
D03*
Y36000D02*
D03*
X133500D02*
D03*
X157100D02*
D03*
X168900D02*
D03*
Y47800D02*
D03*
X157100D02*
D03*
X19600Y50300D02*
D03*
X31400D02*
D03*
X19600Y38500D02*
D03*
X31400D02*
D03*
X40500Y304000D02*
D03*
X52300D02*
D03*
X265000Y36500D02*
D03*
Y48300D02*
D03*
X411000Y37000D02*
D03*
Y48800D02*
D03*
X40200Y380500D02*
D03*
X52000D02*
D03*
D90*
X208400Y19000D02*
D03*
X226900D02*
D03*
X22000Y205100D02*
D03*
Y241000D02*
D03*
X534600Y23000D02*
D03*
X295500Y19500D02*
D03*
X23000Y341600D02*
D03*
X332400Y19500D02*
D03*
X22500Y272500D02*
D03*
X374600Y19500D02*
D03*
X576100Y23000D02*
D03*
X142000Y19000D02*
D03*
X160500D02*
D03*
X25500Y21500D02*
D03*
X23500Y304000D02*
D03*
X265000Y19500D02*
D03*
X411000Y20000D02*
D03*
X23200Y380500D02*
D03*
D91*
X109000Y13000D02*
D03*
Y52000D02*
D03*
X95500D02*
D03*
Y13000D02*
D03*
X85500Y115500D02*
D03*
Y76500D02*
D03*
X99000D02*
D03*
Y115500D02*
D03*
D92*
X202000Y127000D02*
D03*
Y117000D02*
D03*
X247500D02*
D03*
Y127000D02*
D03*
X188500D02*
D03*
Y117000D02*
D03*
X217500Y127000D02*
D03*
Y117000D02*
D03*
X262500D02*
D03*
Y127000D02*
D03*
X233000D02*
D03*
Y117000D02*
D03*
D93*
X45500Y161000D02*
D03*
M02*
