G04*
G04 #@! TF.GenerationSoftware,Altium Limited,Altium Designer,22.9.1 (49)*
G04*
G04 Layer_Physical_Order=3*
G04 Layer_Color=128*
%FSLAX25Y25*%
%MOIN*%
G70*
G04*
G04 #@! TF.SameCoordinates,D4A48318-998D-472C-A6B0-EE5402D3ED7D*
G04*
G04*
G04 #@! TF.FilePolarity,Negative*
G04*
G01*
G75*
%ADD11C,0.01000*%
%ADD76C,0.15600*%
%ADD84C,0.08000*%
%ADD85C,0.04000*%
G04:AMPARAMS|DCode=86|XSize=100mil|YSize=100mil|CornerRadius=0mil|HoleSize=0mil|Usage=FLASHONLY|Rotation=0.000|XOffset=0mil|YOffset=0mil|HoleType=Round|Shape=Relief|Width=10mil|Gap=10mil|Entries=4|*
%AMTHD86*
7,0,0,0.10000,0.08000,0.01000,45*
%
%ADD86THD86*%
G04:AMPARAMS|DCode=87|XSize=99.37mil|YSize=99.37mil|CornerRadius=0mil|HoleSize=0mil|Usage=FLASHONLY|Rotation=0.000|XOffset=0mil|YOffset=0mil|HoleType=Round|Shape=Relief|Width=10mil|Gap=10mil|Entries=4|*
%AMTHD87*
7,0,0,0.09937,0.07937,0.01000,45*
%
%ADD87THD87*%
%ADD88C,0.07937*%
%ADD89C,0.15800*%
%ADD90C,0.10300*%
%ADD91C,0.05500*%
G04:AMPARAMS|DCode=92|XSize=75mil|YSize=75mil|CornerRadius=0mil|HoleSize=0mil|Usage=FLASHONLY|Rotation=0.000|XOffset=0mil|YOffset=0mil|HoleType=Round|Shape=Relief|Width=10mil|Gap=10mil|Entries=4|*
%AMTHD92*
7,0,0,0.07500,0.05500,0.01000,45*
%
%ADD92THD92*%
G36*
X603500Y166500D02*
Y161500D01*
X542000D01*
Y399000D01*
Y403000D01*
X603500D01*
Y166500D01*
D02*
G37*
D11*
X156500Y307000D02*
Y340500D01*
Y307000D02*
X173000Y290500D01*
Y211000D02*
Y290500D01*
Y211000D02*
X178500Y205500D01*
X183000D01*
X190500Y213000D01*
Y326500D01*
X176500Y340500D02*
X190500Y326500D01*
X156500Y340500D02*
X176500D01*
X579000Y33500D02*
X598500Y53000D01*
X480000Y33500D02*
X579000D01*
X479500Y33000D02*
X480000Y33500D01*
X479500Y33000D02*
Y105500D01*
X460500Y124500D02*
X479500Y105500D01*
X450000Y124500D02*
X460500D01*
X433000Y107500D02*
X450000Y124500D01*
X433000Y53500D02*
Y107500D01*
X411000Y31500D02*
X433000Y53500D01*
X52500Y31500D02*
X411000D01*
X51000Y30000D02*
X52500Y31500D01*
X51000Y30000D02*
Y162500D01*
X36000Y177500D02*
X51000Y162500D01*
X20000Y177500D02*
X36000D01*
X10500Y187000D02*
X20000Y177500D01*
X10500Y187000D02*
Y277500D01*
X14500Y281500D01*
X52500D01*
X59500Y288500D01*
Y314500D01*
X53500Y320500D02*
X59500Y314500D01*
X0Y320500D02*
X53500D01*
X0Y399500D02*
X541500D01*
X542000Y399000D01*
Y161500D02*
Y399000D01*
Y161500D02*
X599000D01*
X599500Y161000D01*
Y500D02*
Y161000D01*
Y500D02*
X600000Y0D01*
X0D02*
X600000D01*
X0D02*
Y399500D01*
Y0D02*
X600000D01*
D76*
X522674Y176000D02*
D03*
X294327D02*
D03*
Y368913D02*
D03*
X522674D02*
D03*
D84*
X403500Y171000D02*
D03*
X423500D02*
D03*
Y181000D02*
D03*
X413500Y171000D02*
D03*
Y181000D02*
D03*
X503500D02*
D03*
X493500D02*
D03*
X483500D02*
D03*
X473500D02*
D03*
X463500D02*
D03*
X453500D02*
D03*
X443500D02*
D03*
X433500D02*
D03*
X403500D02*
D03*
X393500D02*
D03*
X383500D02*
D03*
X373500D02*
D03*
X363500D02*
D03*
X353500D02*
D03*
X343500D02*
D03*
X333500D02*
D03*
X323500D02*
D03*
X313500D02*
D03*
X503500Y171000D02*
D03*
X493500D02*
D03*
X483500D02*
D03*
X473500D02*
D03*
X463500D02*
D03*
X453500D02*
D03*
X443500D02*
D03*
X433500D02*
D03*
X393500D02*
D03*
X383500D02*
D03*
X373500D02*
D03*
X363500D02*
D03*
X353500D02*
D03*
X343500D02*
D03*
X333500D02*
D03*
X211700Y47800D02*
D03*
Y36000D02*
D03*
X199900D02*
D03*
X223500D02*
D03*
X235300D02*
D03*
Y47800D02*
D03*
X223500D02*
D03*
X50800Y211000D02*
D03*
Y199200D02*
D03*
X39000Y211000D02*
D03*
X50705Y241000D02*
D03*
X540500Y40000D02*
D03*
X528700D02*
D03*
X540500Y51800D02*
D03*
X528700D02*
D03*
X295500Y48300D02*
D03*
X50800Y347500D02*
D03*
Y335700D02*
D03*
X39000Y347500D02*
D03*
X326500Y48300D02*
D03*
X338300D02*
D03*
X326500Y36500D02*
D03*
X50705Y272500D02*
D03*
X368700Y48300D02*
D03*
X380500D02*
D03*
X368700Y36500D02*
D03*
X570200Y51800D02*
D03*
X582000D02*
D03*
X570200Y40000D02*
D03*
X582000D02*
D03*
X133500Y47800D02*
D03*
X145300D02*
D03*
Y36000D02*
D03*
X133500D02*
D03*
X157100D02*
D03*
X168900D02*
D03*
Y47800D02*
D03*
X157100D02*
D03*
X19600Y50300D02*
D03*
X31400D02*
D03*
X19600Y38500D02*
D03*
X31400D02*
D03*
X50705Y304000D02*
D03*
X265000Y36500D02*
D03*
Y48300D02*
D03*
X411500Y36500D02*
D03*
Y48300D02*
D03*
X50705Y380500D02*
D03*
D85*
X542000Y399000D02*
Y400000D01*
X0D02*
X542000D01*
X600000Y0D02*
Y161500D01*
X542000D02*
X600000D01*
X542000D02*
Y399000D01*
X0Y0D02*
Y400000D01*
Y0D02*
X600000D01*
D86*
X323500Y171000D02*
D03*
X313500D02*
D03*
X199900Y47800D02*
D03*
X39000Y199200D02*
D03*
X38905Y241000D02*
D03*
X295500Y36500D02*
D03*
X39000Y335700D02*
D03*
X338300Y36500D02*
D03*
X38905Y272500D02*
D03*
X380500Y36500D02*
D03*
X38905Y304000D02*
D03*
Y380500D02*
D03*
D87*
X184500Y220000D02*
D03*
X205200D02*
D03*
D88*
X167000Y210000D02*
D03*
Y220000D02*
D03*
X184500Y210000D02*
D03*
X205200D02*
D03*
X224300D02*
D03*
Y220000D02*
D03*
X243400D02*
D03*
Y210000D02*
D03*
X262500Y220000D02*
D03*
Y210000D02*
D03*
D89*
X208400Y19000D02*
D03*
X226900D02*
D03*
X22000Y205100D02*
D03*
X21905Y241000D02*
D03*
X534600Y23000D02*
D03*
X295500Y19500D02*
D03*
X22000Y341600D02*
D03*
X332400Y19500D02*
D03*
X21905Y272500D02*
D03*
X374600Y19500D02*
D03*
X576100Y23000D02*
D03*
X142000Y19000D02*
D03*
X160500D02*
D03*
X25500Y21500D02*
D03*
X21905Y304000D02*
D03*
X265000Y19500D02*
D03*
X411500D02*
D03*
X21905Y380500D02*
D03*
D90*
X109000Y13000D02*
D03*
Y52000D02*
D03*
X95500D02*
D03*
Y13000D02*
D03*
X85500Y115500D02*
D03*
Y76500D02*
D03*
X99000D02*
D03*
Y115500D02*
D03*
D91*
X191000Y313500D02*
D03*
X62000Y135500D02*
D03*
X266000Y112000D02*
D03*
X252500Y139000D02*
D03*
X330500Y93000D02*
D03*
X262000Y149000D02*
D03*
X275500Y158000D02*
D03*
X249911Y80911D02*
D03*
X232000Y102500D02*
D03*
X233500Y113500D02*
D03*
X217000Y102000D02*
D03*
X272500Y146500D02*
D03*
X197500Y377057D02*
D03*
X244500Y326000D02*
D03*
X239000Y333500D02*
D03*
X237000Y342000D02*
D03*
X83500Y194500D02*
D03*
X74000Y111000D02*
D03*
X104500Y161000D02*
D03*
X63500Y150500D02*
D03*
X72000Y195000D02*
D03*
X110500Y240000D02*
D03*
Y144500D02*
D03*
X180000Y316000D02*
D03*
X196000Y320000D02*
D03*
X201500Y346000D02*
D03*
X255500Y306000D02*
D03*
Y315000D02*
D03*
X115000Y250500D02*
D03*
X264000Y375500D02*
D03*
X263500Y341500D02*
D03*
X259000Y346500D02*
D03*
X242000Y375500D02*
D03*
Y381500D02*
D03*
X103500Y331500D02*
D03*
X78500Y293500D02*
D03*
X251000Y285000D02*
D03*
X72000Y336000D02*
D03*
X69000Y346500D02*
D03*
X67000Y381000D02*
D03*
X117500Y277000D02*
D03*
X215500Y282000D02*
D03*
X214500Y292000D02*
D03*
X191000Y387500D02*
D03*
X199000Y392000D02*
D03*
X509000Y62500D02*
D03*
X441500Y57500D02*
D03*
X341500Y333500D02*
D03*
X341000Y342500D02*
D03*
X511000Y139500D02*
D03*
X553000Y114000D02*
D03*
X482000Y71500D02*
D03*
X151000Y333500D02*
D03*
X81000Y13500D02*
D03*
X492000Y192000D02*
D03*
X347000Y146500D02*
D03*
D92*
X299000Y97500D02*
D03*
X403000Y109500D02*
D03*
X169000Y335500D02*
D03*
X459000Y112500D02*
D03*
X148000Y264500D02*
D03*
X253500Y352000D02*
D03*
X264500Y388500D02*
D03*
X27500Y153000D02*
D03*
M02*
