G04*
G04 #@! TF.GenerationSoftware,Altium Limited,Altium Designer,21.8.1 (53)*
G04*
G04 Layer_Physical_Order=4*
G04 Layer_Color=16711680*
%FSLAX25Y25*%
%MOIN*%
G70*
G04*
G04 #@! TF.SameCoordinates,493B7DAD-148D-4575-8712-330FBA686758*
G04*
G04*
G04 #@! TF.FilePolarity,Positive*
G04*
G01*
G75*
%ADD10C,0.01000*%
%ADD26C,0.03000*%
%ADD87C,0.07080*%
%ADD88C,0.16929*%
%ADD89C,0.07000*%
%ADD90C,0.14800*%
%ADD91C,0.08000*%
%ADD92C,0.07087*%
%ADD93C,0.05000*%
D10*
X252500Y126340D02*
G03*
X252500Y127659I-5000J660D01*
G01*
X509000Y62500D02*
Y104392D01*
X514000Y109392D01*
X472000Y159500D02*
X483500Y171000D01*
X429000Y113500D02*
X472000Y156500D01*
Y159500D01*
X290243Y113500D02*
X429000D01*
X441500Y87044D02*
X508540Y154084D01*
Y183088D01*
X441500Y57500D02*
Y87044D01*
X259500Y36500D02*
X265000D01*
X211700Y47800D02*
Y52200D01*
X281000Y113000D02*
X284500Y116500D01*
X281000Y113000D02*
Y122000D01*
X267000Y99000D02*
X281000Y113000D01*
X272500Y146500D02*
X347000D01*
X93000Y257000D02*
Y284000D01*
X115000Y232000D02*
X317000D01*
X89500Y257500D02*
Y284743D01*
X115000Y229000D02*
X195500D01*
X87500Y256500D02*
Y285571D01*
X89500Y257500D02*
X115000Y232000D01*
X109000Y244000D02*
Y256000D01*
X116500Y236500D02*
X328000D01*
X109000Y244000D02*
X116500Y236500D01*
X115500Y234500D02*
X321500D01*
X93000Y257000D02*
X115500Y234500D01*
X87500Y256500D02*
X115000Y229000D01*
X195500D02*
X235500Y189000D01*
X105250Y171250D02*
X105500Y171000D01*
X105000Y222500D02*
X105250Y222250D01*
Y171250D02*
Y222250D01*
X150500Y295500D02*
X179500D01*
X150500D02*
X166000Y311000D01*
Y321743D01*
X153000Y223500D02*
X191500D01*
X227500Y187500D01*
Y132500D02*
Y187500D01*
Y132500D02*
X233000Y127000D01*
X33000Y67722D02*
Y284700D01*
X52300Y304000D01*
X33000Y67722D02*
X93222Y7500D01*
X85500Y115500D02*
Y117086D01*
X83000Y119586D02*
Y271000D01*
Y119586D02*
X85500Y117086D01*
X124250Y278500D02*
X129250Y283500D01*
X155500D01*
X98000Y278500D02*
X124250D01*
X123000Y262500D02*
X130000D01*
X139500Y253000D01*
X91500Y127051D02*
X131500Y167051D01*
X133500Y166223D02*
Y213000D01*
X144000Y223500D01*
X93500Y100836D02*
Y126223D01*
X133500Y166223D01*
X93500Y100836D02*
X99000Y95336D01*
Y76500D02*
Y95336D01*
X91500Y113722D02*
Y127051D01*
X82278Y104500D02*
X91500Y113722D01*
X62500Y104500D02*
X82278D01*
X131500Y167051D02*
Y225500D01*
X45500Y121500D02*
X62500Y104500D01*
X284500Y116500D02*
X327000D01*
X182500Y338243D02*
Y379000D01*
X166000Y321743D02*
X182500Y338243D01*
X89500Y284743D02*
X92257Y287500D01*
X101500D01*
X185000Y292000D02*
X233500Y340500D01*
X93929Y292000D02*
X185000D01*
X87500Y285571D02*
X93929Y292000D01*
X101500Y272500D02*
X195500D01*
X213000Y255000D01*
X317000Y232000D02*
X362960Y186040D01*
X321500Y234500D02*
X373500Y182500D01*
X328000Y236500D02*
X383500Y181000D01*
X45500Y121500D02*
Y161000D01*
X133243Y278500D02*
X275000D01*
X131243Y276500D02*
X133243Y278500D01*
X131000Y276500D02*
X131243D01*
X288243Y111500D02*
X290243Y113500D01*
X288000Y111500D02*
X288243D01*
X358128Y333500D02*
X508540Y183088D01*
X341500Y333500D02*
X358128D01*
X514000Y109392D02*
Y170581D01*
X510540Y174041D02*
Y183916D01*
Y174041D02*
X514000Y170581D01*
X351956Y342500D02*
X510540Y183916D01*
X341000Y342500D02*
X351956D01*
X330110Y284390D02*
X433500Y181000D01*
X299110Y284390D02*
X330110D01*
X190000Y393500D02*
X299110Y284390D01*
X492000Y192000D02*
X492383Y191617D01*
Y182117D02*
Y191617D01*
Y182117D02*
X493500Y181000D01*
X302110Y286390D02*
X378110D01*
X483500Y181000D01*
X197500Y391000D02*
X302110Y286390D01*
X230500Y7500D02*
X259500Y36500D01*
X93222Y7500D02*
X230500D01*
X241000Y354500D02*
X244000Y351500D01*
X241000Y354500D02*
Y380500D01*
X300500Y127000D02*
X313000Y139500D01*
X262500Y127000D02*
X300500D01*
X235500Y157500D02*
Y189000D01*
X240000Y80500D02*
Y156632D01*
X269408Y186040D01*
X318460D01*
X211700Y52200D02*
X240000Y80500D01*
X318460Y186040D02*
X323500Y181000D01*
X373500D02*
Y182500D01*
X362960Y181540D02*
X363500Y181000D01*
X362960Y181540D02*
Y186040D01*
X252500Y127659D02*
Y131803D01*
X275197Y154500D01*
X252500Y122000D02*
Y126340D01*
X247500Y117000D02*
X252500Y122000D01*
X275197Y154500D02*
X337000D01*
X353500Y171000D01*
X261504Y145661D02*
Y145661D01*
X247500Y131657D02*
X261504Y145661D01*
X247500Y127000D02*
Y131657D01*
X261504Y145661D02*
X274343Y158500D01*
X331000D02*
X343500Y171000D01*
X274343Y158500D02*
X331000D01*
X177000Y115500D02*
X188500Y127000D01*
X99000Y115500D02*
X177000D01*
X0Y399500D02*
X541500D01*
X542000Y399000D01*
Y161500D02*
Y399000D01*
Y161500D02*
X599000D01*
X599500Y161000D01*
Y500D02*
Y161000D01*
Y500D02*
X600000Y0D01*
X0D02*
X600000D01*
X0D02*
Y399500D01*
Y0D02*
X600000D01*
D26*
X509000Y62500D02*
D03*
X461000Y97500D02*
D03*
X264500Y388500D02*
D03*
X217500Y188500D02*
D03*
X261500Y185500D02*
D03*
X168000Y393000D02*
D03*
X281000Y122000D02*
D03*
X272500Y146500D02*
D03*
X115500Y256000D02*
D03*
X105000Y222500D02*
D03*
X179500Y295500D02*
D03*
X150500D02*
D03*
X153000Y223500D02*
D03*
X105500Y171000D02*
D03*
X109000Y256000D02*
D03*
X98000Y278500D02*
D03*
X155500Y283500D02*
D03*
X83000Y271000D02*
D03*
X123000Y262500D02*
D03*
X139500Y253000D02*
D03*
X144000Y223500D02*
D03*
X267000Y99000D02*
D03*
X101500Y287500D02*
D03*
X213000Y255000D02*
D03*
X131500Y225500D02*
D03*
X101500Y272500D02*
D03*
X93000Y284000D02*
D03*
X158000Y198000D02*
D03*
X80000Y197500D02*
D03*
X131500Y268500D02*
D03*
X275000Y278500D02*
D03*
X131000Y276500D02*
D03*
X288000Y111500D02*
D03*
X441500Y57500D02*
D03*
X341500Y333500D02*
D03*
X341000Y342500D02*
D03*
X511000Y139500D02*
D03*
X553000Y114000D02*
D03*
X264000Y375500D02*
D03*
X482000Y71500D02*
D03*
X268500Y90500D02*
D03*
X314500Y86500D02*
D03*
X305000Y71000D02*
D03*
X190000Y393500D02*
D03*
X184500Y336000D02*
D03*
X195000Y246500D02*
D03*
X169000Y345000D02*
D03*
X93500Y355000D02*
D03*
X148000Y307500D02*
D03*
X122000Y323000D02*
D03*
X55500Y146500D02*
D03*
X29000Y125500D02*
D03*
X492000Y192000D02*
D03*
X197500Y391000D02*
D03*
X313000Y139500D02*
D03*
X244000Y351500D02*
D03*
X241000Y380500D02*
D03*
X233500Y340500D02*
D03*
X235500Y157500D02*
D03*
X347000Y146500D02*
D03*
X327000Y116500D02*
D03*
X182500Y379000D02*
D03*
X403000Y109500D02*
D03*
X327000Y107000D02*
D03*
X251500Y351000D02*
D03*
X511000Y123500D02*
D03*
X18500Y161000D02*
D03*
D87*
X403500Y171000D02*
D03*
X423500D02*
D03*
Y181000D02*
D03*
X413500Y171000D02*
D03*
Y181000D02*
D03*
X503500D02*
D03*
X493500D02*
D03*
X483500D02*
D03*
X473500D02*
D03*
X463500D02*
D03*
X453500D02*
D03*
X443500D02*
D03*
X433500D02*
D03*
X403500D02*
D03*
X393500D02*
D03*
X383500D02*
D03*
X373500D02*
D03*
X363500D02*
D03*
X353500D02*
D03*
X343500D02*
D03*
X333500D02*
D03*
X323500D02*
D03*
X313500D02*
D03*
X503500Y171000D02*
D03*
X493500D02*
D03*
X483500D02*
D03*
X473500D02*
D03*
X463500D02*
D03*
X453500D02*
D03*
X443500D02*
D03*
X433500D02*
D03*
X393500D02*
D03*
X383500D02*
D03*
X373500D02*
D03*
X363500D02*
D03*
X353500D02*
D03*
X343500D02*
D03*
X333500D02*
D03*
X323500D02*
D03*
X313500D02*
D03*
D88*
X522674Y176000D02*
D03*
X294327D02*
D03*
Y368913D02*
D03*
X522674D02*
D03*
D89*
X199900Y47800D02*
D03*
X211700D02*
D03*
Y36000D02*
D03*
X199900D02*
D03*
X223500D02*
D03*
X235300D02*
D03*
Y47800D02*
D03*
X223500D02*
D03*
X50800Y211000D02*
D03*
Y199200D02*
D03*
X39000Y211000D02*
D03*
Y199200D02*
D03*
Y241000D02*
D03*
X50800D02*
D03*
X540500Y40000D02*
D03*
X528700D02*
D03*
X540500Y51800D02*
D03*
X528700D02*
D03*
X295500Y36500D02*
D03*
Y48300D02*
D03*
X51800Y347500D02*
D03*
Y335700D02*
D03*
X40000Y347500D02*
D03*
Y335700D02*
D03*
X326500Y48300D02*
D03*
X338300D02*
D03*
X326500Y36500D02*
D03*
X338300D02*
D03*
X39500Y272500D02*
D03*
X51300D02*
D03*
X368700Y48300D02*
D03*
X380500D02*
D03*
X368700Y36500D02*
D03*
X380500D02*
D03*
X570200Y51800D02*
D03*
X582000D02*
D03*
X570200Y40000D02*
D03*
X582000D02*
D03*
X133500Y47800D02*
D03*
X145300D02*
D03*
Y36000D02*
D03*
X133500D02*
D03*
X157100D02*
D03*
X168900D02*
D03*
Y47800D02*
D03*
X157100D02*
D03*
X19600Y50300D02*
D03*
X31400D02*
D03*
X19600Y38500D02*
D03*
X31400D02*
D03*
X40500Y304000D02*
D03*
X52300D02*
D03*
X265000Y36500D02*
D03*
Y48300D02*
D03*
X411000Y37000D02*
D03*
Y48800D02*
D03*
X40200Y380500D02*
D03*
X52000D02*
D03*
D90*
X208400Y19000D02*
D03*
X226900D02*
D03*
X22000Y205100D02*
D03*
Y241000D02*
D03*
X534600Y23000D02*
D03*
X295500Y19500D02*
D03*
X23000Y341600D02*
D03*
X332400Y19500D02*
D03*
X22500Y272500D02*
D03*
X374600Y19500D02*
D03*
X576100Y23000D02*
D03*
X142000Y19000D02*
D03*
X160500D02*
D03*
X25500Y21500D02*
D03*
X23500Y304000D02*
D03*
X265000Y19500D02*
D03*
X411000Y20000D02*
D03*
X23200Y380500D02*
D03*
D91*
X109000Y13000D02*
D03*
Y52000D02*
D03*
X95500D02*
D03*
Y13000D02*
D03*
X85500Y115500D02*
D03*
Y76500D02*
D03*
X99000D02*
D03*
Y115500D02*
D03*
D92*
X202000Y127000D02*
D03*
Y117000D02*
D03*
X247500D02*
D03*
Y127000D02*
D03*
X188500D02*
D03*
Y117000D02*
D03*
X217500Y127000D02*
D03*
Y117000D02*
D03*
X262500D02*
D03*
Y127000D02*
D03*
X233000D02*
D03*
Y117000D02*
D03*
D93*
X45500Y161000D02*
D03*
M02*
