G04*
G04 #@! TF.GenerationSoftware,Altium Limited,Altium Designer,23.1.1 (15)*
G04*
G04 Layer_Color=8388736*
%FSLAX25Y25*%
%MOIN*%
G70*
G04*
G04 #@! TF.SameCoordinates,17EB0E88-E117-42BD-AFE2-801CF63863C0*
G04*
G04*
G04 #@! TF.FilePolarity,Positive*
G04*
G01*
G75*
%ADD13C,0.00787*%
%ADD102C,0.00394*%
%ADD103R,0.03765X0.24488*%
%ADD104R,0.24488X0.03765*%
G36*
X485980Y131605D02*
Y131603D01*
Y131601D01*
Y131596D01*
Y131588D01*
Y131579D01*
Y131568D01*
X485978Y131543D01*
Y131510D01*
X485977Y131474D01*
X485973Y131432D01*
X485969Y131388D01*
X485964Y131341D01*
X485958Y131292D01*
X485944Y131192D01*
X485933Y131141D01*
X485922Y131093D01*
X485907Y131046D01*
X485893Y131002D01*
X485891Y131000D01*
X485889Y130993D01*
X485884Y130980D01*
X485876Y130966D01*
X485865Y130946D01*
X485854Y130924D01*
X485840Y130900D01*
X485822Y130873D01*
X485802Y130844D01*
X485780Y130815D01*
X485754Y130786D01*
X485725Y130755D01*
X485694Y130724D01*
X485662Y130695D01*
X485623Y130666D01*
X485583Y130638D01*
X485581Y130636D01*
X485572Y130633D01*
X485560Y130625D01*
X485543Y130616D01*
X485520Y130605D01*
X485494Y130595D01*
X485461Y130582D01*
X485427Y130569D01*
X485385Y130556D01*
X485341Y130544D01*
X485294Y130533D01*
X485241Y130522D01*
X485185Y130513D01*
X485125Y130505D01*
X485063Y130502D01*
X484996Y130500D01*
X484961D01*
X484937Y130502D01*
X484906Y130504D01*
X484872Y130507D01*
X484832Y130511D01*
X484790Y130515D01*
X484744Y130522D01*
X484697Y130529D01*
X484650Y130540D01*
X484601Y130551D01*
X484553Y130566D01*
X484504Y130582D01*
X484459Y130600D01*
X484415Y130622D01*
X484413Y130624D01*
X484406Y130627D01*
X484393Y130635D01*
X484378Y130644D01*
X484360Y130657D01*
X484339Y130673D01*
X484317Y130691D01*
X484291Y130711D01*
X484266Y130735D01*
X484238Y130762D01*
X484211Y130789D01*
X484186Y130822D01*
X484160Y130855D01*
X484136Y130893D01*
X484115Y130931D01*
X484095Y130973D01*
X484093Y130977D01*
X484091Y130984D01*
X484086Y130997D01*
X484080Y131015D01*
X484073Y131039D01*
X484065Y131068D01*
X484056Y131100D01*
X484047Y131139D01*
X484038Y131182D01*
X484029Y131230D01*
X484022Y131281D01*
X484015Y131337D01*
X484009Y131397D01*
X484004Y131463D01*
X484002Y131532D01*
X484000Y131605D01*
Y133061D01*
X484333D01*
Y131606D01*
Y131603D01*
Y131592D01*
Y131576D01*
X484335Y131554D01*
Y131526D01*
X484337Y131495D01*
X484339Y131461D01*
X484340Y131423D01*
X484344Y131385D01*
X484348Y131344D01*
X484359Y131264D01*
X484366Y131226D01*
X484373Y131188D01*
X484382Y131153D01*
X484393Y131122D01*
Y131121D01*
X484397Y131115D01*
X484400Y131108D01*
X484406Y131097D01*
X484411Y131084D01*
X484420Y131070D01*
X484442Y131035D01*
X484471Y130997D01*
X484488Y130977D01*
X484508Y130957D01*
X484528Y130937D01*
X484551Y130919D01*
X484575Y130900D01*
X484602Y130884D01*
X484604D01*
X484610Y130880D01*
X484617Y130877D01*
X484630Y130871D01*
X484644Y130864D01*
X484661Y130857D01*
X484681Y130849D01*
X484704Y130842D01*
X484730Y130835D01*
X484757Y130827D01*
X484786Y130820D01*
X484819Y130813D01*
X484854Y130807D01*
X484890Y130804D01*
X484926Y130802D01*
X484966Y130800D01*
X484983D01*
X485001Y130802D01*
X485026D01*
X485057Y130806D01*
X485090Y130809D01*
X485128Y130815D01*
X485170Y130820D01*
X485212Y130829D01*
X485256Y130840D01*
X485299Y130855D01*
X485343Y130869D01*
X485385Y130889D01*
X485423Y130911D01*
X485460Y130937D01*
X485491Y130966D01*
X485492Y130968D01*
X485498Y130973D01*
X485505Y130984D01*
X485514Y130999D01*
X485527Y131019D01*
X485540Y131044D01*
X485554Y131073D01*
X485569Y131110D01*
X485583Y131150D01*
X485598Y131195D01*
X485611Y131248D01*
X485623Y131306D01*
X485633Y131372D01*
X485640Y131443D01*
X485645Y131521D01*
X485647Y131606D01*
Y133061D01*
X485980D01*
Y131605D01*
D02*
G37*
G36*
X488060Y132788D02*
X488059Y132784D01*
X488049Y132777D01*
X488037Y132760D01*
X488019Y132740D01*
X487997Y132715D01*
X487971Y132684D01*
X487942Y132648D01*
X487911Y132606D01*
X487877Y132560D01*
X487838Y132509D01*
X487798Y132453D01*
X487758Y132393D01*
X487715Y132327D01*
X487673Y132258D01*
X487627Y132185D01*
X487583Y132107D01*
Y132105D01*
X487582Y132102D01*
X487578Y132096D01*
X487573Y132089D01*
X487567Y132078D01*
X487562Y132065D01*
X487553Y132051D01*
X487545Y132034D01*
X487534Y132016D01*
X487525Y131994D01*
X487502Y131949D01*
X487476Y131898D01*
X487449Y131840D01*
X487420Y131776D01*
X487391Y131707D01*
X487360Y131636D01*
X487331Y131559D01*
X487300Y131481D01*
X487272Y131401D01*
X487245Y131317D01*
X487219Y131233D01*
X487218Y131230D01*
X487216Y131219D01*
X487210Y131202D01*
X487205Y131179D01*
X487198Y131148D01*
X487189Y131113D01*
X487180Y131073D01*
X487170Y131028D01*
X487159Y130979D01*
X487150Y130926D01*
X487140Y130868D01*
X487130Y130807D01*
X487121Y130746D01*
X487114Y130680D01*
X487107Y130611D01*
X487101Y130542D01*
X486783D01*
Y130545D01*
Y130554D01*
X486785Y130573D01*
Y130595D01*
X486786Y130624D01*
X486790Y130658D01*
X486794Y130698D01*
X486799Y130742D01*
X486805Y130793D01*
X486812Y130848D01*
X486821Y130906D01*
X486832Y130970D01*
X486846Y131037D01*
X486861Y131108D01*
X486877Y131182D01*
X486897Y131259D01*
Y131261D01*
X486899Y131264D01*
X486901Y131270D01*
X486903Y131277D01*
X486906Y131288D01*
X486910Y131301D01*
X486914Y131315D01*
X486919Y131332D01*
X486930Y131368D01*
X486945Y131414D01*
X486961Y131463D01*
X486979Y131519D01*
X487001Y131579D01*
X487025Y131643D01*
X487052Y131710D01*
X487079Y131779D01*
X487110Y131850D01*
X487145Y131923D01*
X487180Y131998D01*
X487218Y132071D01*
Y132072D01*
X487219Y132074D01*
X487223Y132080D01*
X487227Y132089D01*
X487232Y132098D01*
X487240Y132109D01*
X487254Y132136D01*
X487274Y132169D01*
X487296Y132209D01*
X487323Y132253D01*
X487352Y132300D01*
X487383Y132351D01*
X487418Y132404D01*
X487456Y132458D01*
X487494Y132515D01*
X487576Y132626D01*
X487620Y132680D01*
X487664Y132731D01*
X486430D01*
Y133028D01*
X488060D01*
Y132788D01*
D02*
G37*
G36*
X388480Y125605D02*
Y125603D01*
Y125601D01*
Y125596D01*
Y125588D01*
Y125579D01*
Y125568D01*
X388478Y125543D01*
Y125510D01*
X388476Y125474D01*
X388473Y125432D01*
X388469Y125388D01*
X388464Y125341D01*
X388458Y125292D01*
X388444Y125192D01*
X388433Y125141D01*
X388422Y125093D01*
X388407Y125046D01*
X388393Y125002D01*
X388391Y125001D01*
X388389Y124993D01*
X388384Y124980D01*
X388376Y124966D01*
X388366Y124946D01*
X388354Y124924D01*
X388340Y124900D01*
X388322Y124873D01*
X388302Y124844D01*
X388280Y124815D01*
X388254Y124786D01*
X388225Y124755D01*
X388194Y124724D01*
X388162Y124695D01*
X388123Y124666D01*
X388083Y124638D01*
X388082Y124636D01*
X388072Y124633D01*
X388060Y124626D01*
X388043Y124616D01*
X388020Y124606D01*
X387994Y124595D01*
X387961Y124582D01*
X387927Y124569D01*
X387885Y124556D01*
X387841Y124544D01*
X387794Y124533D01*
X387741Y124522D01*
X387685Y124513D01*
X387625Y124505D01*
X387563Y124502D01*
X387495Y124500D01*
X387461D01*
X387437Y124502D01*
X387406Y124504D01*
X387372Y124507D01*
X387332Y124511D01*
X387290Y124514D01*
X387244Y124522D01*
X387197Y124529D01*
X387150Y124540D01*
X387101Y124551D01*
X387053Y124565D01*
X387004Y124582D01*
X386959Y124600D01*
X386915Y124622D01*
X386913Y124624D01*
X386906Y124627D01*
X386893Y124635D01*
X386878Y124644D01*
X386860Y124656D01*
X386839Y124673D01*
X386817Y124691D01*
X386791Y124711D01*
X386766Y124735D01*
X386738Y124762D01*
X386711Y124789D01*
X386686Y124822D01*
X386660Y124855D01*
X386636Y124893D01*
X386615Y124931D01*
X386595Y124973D01*
X386593Y124977D01*
X386591Y124984D01*
X386585Y124997D01*
X386580Y125015D01*
X386573Y125039D01*
X386565Y125068D01*
X386556Y125101D01*
X386547Y125139D01*
X386538Y125182D01*
X386529Y125230D01*
X386522Y125281D01*
X386514Y125337D01*
X386509Y125397D01*
X386504Y125463D01*
X386502Y125532D01*
X386500Y125605D01*
Y127061D01*
X386833D01*
Y125607D01*
Y125603D01*
Y125592D01*
Y125576D01*
X386835Y125554D01*
Y125526D01*
X386837Y125496D01*
X386839Y125461D01*
X386840Y125423D01*
X386844Y125384D01*
X386848Y125344D01*
X386859Y125264D01*
X386866Y125226D01*
X386873Y125188D01*
X386882Y125153D01*
X386893Y125122D01*
Y125121D01*
X386897Y125115D01*
X386900Y125108D01*
X386906Y125097D01*
X386911Y125084D01*
X386920Y125070D01*
X386942Y125035D01*
X386971Y124997D01*
X386988Y124977D01*
X387008Y124957D01*
X387028Y124937D01*
X387051Y124919D01*
X387075Y124900D01*
X387102Y124884D01*
X387104D01*
X387110Y124880D01*
X387117Y124877D01*
X387130Y124871D01*
X387144Y124864D01*
X387161Y124857D01*
X387181Y124849D01*
X387204Y124842D01*
X387230Y124835D01*
X387257Y124828D01*
X387286Y124820D01*
X387319Y124813D01*
X387353Y124808D01*
X387390Y124804D01*
X387426Y124802D01*
X387466Y124800D01*
X387483D01*
X387501Y124802D01*
X387526D01*
X387557Y124806D01*
X387590Y124809D01*
X387628Y124815D01*
X387670Y124820D01*
X387712Y124829D01*
X387756Y124840D01*
X387799Y124855D01*
X387843Y124869D01*
X387885Y124889D01*
X387923Y124911D01*
X387960Y124937D01*
X387990Y124966D01*
X387992Y124968D01*
X387998Y124973D01*
X388005Y124984D01*
X388014Y124999D01*
X388027Y125019D01*
X388040Y125044D01*
X388054Y125073D01*
X388069Y125110D01*
X388083Y125150D01*
X388098Y125195D01*
X388111Y125248D01*
X388123Y125306D01*
X388133Y125372D01*
X388140Y125443D01*
X388145Y125521D01*
X388147Y125607D01*
Y127061D01*
X388480D01*
Y125605D01*
D02*
G37*
G36*
X390462Y126733D02*
X389454D01*
X389319Y126054D01*
X389321Y126056D01*
X389330Y126061D01*
X389341Y126069D01*
X389359Y126080D01*
X389379Y126091D01*
X389403Y126105D01*
X389432Y126118D01*
X389463Y126134D01*
X389497Y126149D01*
X389534Y126163D01*
X389574Y126176D01*
X389614Y126187D01*
X389658Y126198D01*
X389701Y126205D01*
X389749Y126211D01*
X389794Y126213D01*
X389809D01*
X389827Y126211D01*
X389849Y126209D01*
X389878Y126205D01*
X389911Y126200D01*
X389949Y126193D01*
X389989Y126183D01*
X390031Y126172D01*
X390076Y126156D01*
X390122Y126138D01*
X390169Y126116D01*
X390216Y126089D01*
X390264Y126060D01*
X390309Y126023D01*
X390353Y125983D01*
X390355Y125981D01*
X390362Y125972D01*
X390375Y125960D01*
X390389Y125941D01*
X390406Y125920D01*
X390426Y125892D01*
X390446Y125859D01*
X390468Y125823D01*
X390488Y125783D01*
X390508Y125739D01*
X390528Y125690D01*
X390546Y125639D01*
X390559Y125583D01*
X390571Y125523D01*
X390579Y125461D01*
X390580Y125395D01*
Y125394D01*
Y125392D01*
Y125386D01*
Y125381D01*
X390579Y125363D01*
X390577Y125339D01*
X390575Y125308D01*
X390569Y125274D01*
X390564Y125235D01*
X390555Y125193D01*
X390544Y125148D01*
X390531Y125101D01*
X390515Y125051D01*
X390497Y125002D01*
X390473Y124951D01*
X390446Y124902D01*
X390415Y124853D01*
X390380Y124806D01*
X390376Y124802D01*
X390369Y124793D01*
X390355Y124778D01*
X390336Y124758D01*
X390311Y124735D01*
X390282Y124709D01*
X390247Y124682D01*
X390207Y124653D01*
X390162Y124624D01*
X390113Y124596D01*
X390058Y124571D01*
X389998Y124547D01*
X389934Y124529D01*
X389867Y124513D01*
X389794Y124504D01*
X389718Y124500D01*
X389703D01*
X389685Y124502D01*
X389661Y124504D01*
X389632Y124505D01*
X389598Y124511D01*
X389559Y124516D01*
X389519Y124524D01*
X389476Y124534D01*
X389430Y124547D01*
X389383Y124562D01*
X389335Y124580D01*
X389290Y124602D01*
X389243Y124627D01*
X389199Y124658D01*
X389157Y124691D01*
X389155Y124693D01*
X389148Y124700D01*
X389137Y124711D01*
X389123Y124726D01*
X389106Y124746D01*
X389086Y124769D01*
X389066Y124797D01*
X389044Y124828D01*
X389022Y124862D01*
X389002Y124900D01*
X388981Y124942D01*
X388961Y124988D01*
X388944Y125037D01*
X388930Y125090D01*
X388917Y125144D01*
X388910Y125203D01*
X389234Y125230D01*
Y125228D01*
X389235Y125219D01*
X389237Y125208D01*
X389241Y125192D01*
X389246Y125171D01*
X389252Y125148D01*
X389259Y125122D01*
X389268Y125095D01*
X389290Y125039D01*
X389303Y125008D01*
X389317Y124979D01*
X389335Y124950D01*
X389354Y124922D01*
X389376Y124897D01*
X389399Y124873D01*
X389401Y124871D01*
X389405Y124868D01*
X389412Y124862D01*
X389423Y124855D01*
X389436Y124846D01*
X389452Y124835D01*
X389468Y124826D01*
X389488Y124815D01*
X389510Y124802D01*
X389536Y124793D01*
X389561Y124782D01*
X389590Y124773D01*
X389619Y124766D01*
X389650Y124760D01*
X389683Y124757D01*
X389718Y124755D01*
X389729D01*
X389740Y124757D01*
X389756D01*
X389774Y124760D01*
X389798Y124764D01*
X389823Y124769D01*
X389851Y124777D01*
X389880Y124784D01*
X389911Y124795D01*
X389942Y124809D01*
X389974Y124826D01*
X390005Y124844D01*
X390038Y124868D01*
X390069Y124893D01*
X390098Y124922D01*
X390100Y124924D01*
X390105Y124929D01*
X390113Y124940D01*
X390122Y124953D01*
X390135Y124969D01*
X390147Y124989D01*
X390162Y125013D01*
X390176Y125040D01*
X390189Y125071D01*
X390204Y125104D01*
X390216Y125141D01*
X390229Y125181D01*
X390238Y125224D01*
X390246Y125270D01*
X390251Y125317D01*
X390253Y125368D01*
Y125372D01*
Y125379D01*
X390251Y125394D01*
Y125412D01*
X390249Y125434D01*
X390246Y125461D01*
X390240Y125488D01*
X390235Y125521D01*
X390226Y125554D01*
X390216Y125586D01*
X390204Y125621D01*
X390189Y125657D01*
X390173Y125692D01*
X390153Y125725D01*
X390129Y125758D01*
X390104Y125787D01*
X390102Y125788D01*
X390096Y125794D01*
X390089Y125801D01*
X390076Y125810D01*
X390062Y125823D01*
X390043Y125836D01*
X390023Y125849D01*
X390000Y125863D01*
X389972Y125878D01*
X389943Y125890D01*
X389912Y125905D01*
X389878Y125916D01*
X389840Y125925D01*
X389800Y125932D01*
X389758Y125938D01*
X389714Y125940D01*
X389700D01*
X389689Y125938D01*
X389676D01*
X389660Y125936D01*
X389643Y125934D01*
X389623Y125931D01*
X389581Y125923D01*
X389536Y125910D01*
X389488Y125894D01*
X389443Y125870D01*
X389441D01*
X389437Y125867D01*
X389432Y125863D01*
X389423Y125858D01*
X389401Y125843D01*
X389374Y125823D01*
X389345Y125798D01*
X389314Y125768D01*
X389283Y125734D01*
X389255Y125696D01*
X388964Y125734D01*
X389208Y127028D01*
X390462D01*
Y126733D01*
D02*
G37*
G36*
X328061Y152667D02*
X326606D01*
X326603D01*
X326592D01*
X326576D01*
X326554Y152665D01*
X326526D01*
X326496Y152663D01*
X326461Y152662D01*
X326423Y152660D01*
X326384Y152656D01*
X326344Y152652D01*
X326264Y152641D01*
X326226Y152634D01*
X326188Y152627D01*
X326153Y152618D01*
X326122Y152607D01*
X326121D01*
X326115Y152603D01*
X326108Y152600D01*
X326097Y152594D01*
X326084Y152589D01*
X326070Y152580D01*
X326035Y152558D01*
X325997Y152529D01*
X325977Y152512D01*
X325957Y152492D01*
X325937Y152472D01*
X325919Y152449D01*
X325900Y152425D01*
X325884Y152398D01*
Y152396D01*
X325880Y152390D01*
X325877Y152383D01*
X325871Y152370D01*
X325864Y152356D01*
X325857Y152339D01*
X325849Y152319D01*
X325842Y152296D01*
X325835Y152270D01*
X325828Y152243D01*
X325820Y152214D01*
X325813Y152181D01*
X325807Y152146D01*
X325804Y152110D01*
X325802Y152074D01*
X325800Y152034D01*
Y152017D01*
X325802Y151999D01*
Y151974D01*
X325806Y151943D01*
X325809Y151910D01*
X325815Y151872D01*
X325820Y151830D01*
X325829Y151788D01*
X325840Y151744D01*
X325855Y151700D01*
X325869Y151657D01*
X325889Y151615D01*
X325911Y151577D01*
X325937Y151540D01*
X325966Y151509D01*
X325968Y151508D01*
X325973Y151502D01*
X325984Y151495D01*
X325999Y151486D01*
X326019Y151473D01*
X326044Y151460D01*
X326073Y151446D01*
X326110Y151431D01*
X326150Y151417D01*
X326195Y151402D01*
X326248Y151389D01*
X326306Y151377D01*
X326372Y151367D01*
X326443Y151360D01*
X326521Y151355D01*
X326606Y151353D01*
X328061D01*
Y151020D01*
X326605D01*
X326603D01*
X326601D01*
X326596D01*
X326588D01*
X326579D01*
X326568D01*
X326543Y151022D01*
X326510D01*
X326474Y151023D01*
X326432Y151027D01*
X326388Y151031D01*
X326341Y151036D01*
X326292Y151042D01*
X326192Y151056D01*
X326141Y151067D01*
X326093Y151078D01*
X326046Y151093D01*
X326002Y151107D01*
X326000Y151109D01*
X325993Y151111D01*
X325980Y151116D01*
X325966Y151124D01*
X325946Y151135D01*
X325924Y151146D01*
X325900Y151160D01*
X325873Y151178D01*
X325844Y151198D01*
X325815Y151220D01*
X325786Y151246D01*
X325755Y151275D01*
X325724Y151306D01*
X325695Y151338D01*
X325666Y151377D01*
X325638Y151417D01*
X325637Y151418D01*
X325633Y151427D01*
X325625Y151440D01*
X325616Y151457D01*
X325606Y151480D01*
X325595Y151506D01*
X325582Y151539D01*
X325569Y151573D01*
X325556Y151615D01*
X325544Y151659D01*
X325533Y151706D01*
X325522Y151759D01*
X325513Y151815D01*
X325505Y151875D01*
X325502Y151937D01*
X325500Y152005D01*
Y152039D01*
X325502Y152063D01*
X325504Y152094D01*
X325507Y152128D01*
X325511Y152168D01*
X325515Y152210D01*
X325522Y152256D01*
X325529Y152303D01*
X325540Y152350D01*
X325551Y152399D01*
X325566Y152447D01*
X325582Y152496D01*
X325600Y152541D01*
X325622Y152585D01*
X325624Y152587D01*
X325627Y152594D01*
X325635Y152607D01*
X325644Y152621D01*
X325657Y152640D01*
X325673Y152662D01*
X325691Y152683D01*
X325711Y152709D01*
X325735Y152734D01*
X325762Y152762D01*
X325789Y152789D01*
X325822Y152814D01*
X325855Y152840D01*
X325893Y152864D01*
X325931Y152885D01*
X325973Y152905D01*
X325977Y152907D01*
X325984Y152909D01*
X325997Y152915D01*
X326015Y152920D01*
X326039Y152927D01*
X326068Y152935D01*
X326101Y152944D01*
X326139Y152953D01*
X326183Y152962D01*
X326230Y152971D01*
X326281Y152978D01*
X326337Y152986D01*
X326397Y152991D01*
X326463Y152996D01*
X326532Y152998D01*
X326605Y153000D01*
X328061D01*
Y152667D01*
D02*
G37*
G36*
X326768Y150601D02*
X326788D01*
X326812Y150600D01*
X326839D01*
X326867Y150598D01*
X326900Y150594D01*
X326932Y150592D01*
X326969Y150589D01*
X327043Y150581D01*
X327125Y150568D01*
X327211Y150556D01*
X327300Y150538D01*
X327387Y150516D01*
X327475Y150490D01*
X327560Y150459D01*
X327640Y150423D01*
X327678Y150403D01*
X327713Y150381D01*
X327748Y150357D01*
X327780Y150334D01*
X327784Y150330D01*
X327793Y150323D01*
X327808Y150310D01*
X327826Y150290D01*
X327848Y150266D01*
X327871Y150239D01*
X327899Y150205D01*
X327926Y150166D01*
X327952Y150123D01*
X327979Y150075D01*
X328002Y150024D01*
X328024Y149968D01*
X328043Y149906D01*
X328057Y149842D01*
X328066Y149773D01*
X328070Y149700D01*
Y149688D01*
X328068Y149671D01*
Y149651D01*
X328064Y149626D01*
X328061Y149597D01*
X328055Y149564D01*
X328050Y149528D01*
X328041Y149491D01*
X328030Y149451D01*
X328015Y149411D01*
X327999Y149371D01*
X327981Y149329D01*
X327957Y149289D01*
X327931Y149251D01*
X327902Y149214D01*
X327901Y149213D01*
X327895Y149205D01*
X327884Y149196D01*
X327871Y149183D01*
X327855Y149169D01*
X327833Y149153D01*
X327810Y149134D01*
X327782Y149114D01*
X327751Y149094D01*
X327717Y149074D01*
X327678Y149054D01*
X327637Y149038D01*
X327593Y149020D01*
X327546Y149005D01*
X327495Y148994D01*
X327442Y148985D01*
X327418Y149293D01*
X327420D01*
X327426Y149294D01*
X327436Y149296D01*
X327447Y149300D01*
X327464Y149305D01*
X327480Y149309D01*
X327520Y149324D01*
X327562Y149340D01*
X327606Y149360D01*
X327648Y149384D01*
X327666Y149396D01*
X327682Y149411D01*
X327684Y149413D01*
X327688Y149416D01*
X327695Y149424D01*
X327702Y149433D01*
X327713Y149446D01*
X327724Y149460D01*
X327737Y149477D01*
X327749Y149496D01*
X327760Y149518D01*
X327773Y149542D01*
X327784Y149566D01*
X327795Y149593D01*
X327802Y149622D01*
X327810Y149653D01*
X327813Y149686D01*
X327815Y149719D01*
Y149733D01*
X327813Y149744D01*
Y149757D01*
X327811Y149771D01*
X327808Y149788D01*
X327804Y149808D01*
X327795Y149848D01*
X327780Y149891D01*
X327759Y149935D01*
X327746Y149957D01*
X327731Y149979D01*
X327729Y149981D01*
X327726Y149984D01*
X327720Y149993D01*
X327711Y150003D01*
X327700Y150015D01*
X327688Y150030D01*
X327671Y150044D01*
X327653Y150063D01*
X327633Y150081D01*
X327609Y150099D01*
X327584Y150119D01*
X327557Y150137D01*
X327526Y150157D01*
X327493Y150175D01*
X327458Y150194D01*
X327422Y150210D01*
X327420D01*
X327413Y150214D01*
X327400Y150217D01*
X327384Y150223D01*
X327364Y150230D01*
X327338Y150237D01*
X327307Y150245D01*
X327273Y150252D01*
X327234Y150259D01*
X327191Y150268D01*
X327142Y150276D01*
X327091Y150281D01*
X327034Y150286D01*
X326974Y150292D01*
X326909Y150294D01*
X326839Y150295D01*
X326841Y150294D01*
X326847Y150290D01*
X326856Y150285D01*
X326867Y150276D01*
X326881Y150265D01*
X326898Y150252D01*
X326916Y150237D01*
X326936Y150219D01*
X326956Y150201D01*
X326976Y150181D01*
X327018Y150134D01*
X327058Y150083D01*
X327076Y150053D01*
X327093Y150024D01*
X327094Y150022D01*
X327096Y150017D01*
X327100Y150008D01*
X327105Y149997D01*
X327113Y149981D01*
X327120Y149964D01*
X327127Y149944D01*
X327134Y149921D01*
X327142Y149897D01*
X327149Y149870D01*
X327163Y149813D01*
X327172Y149750D01*
X327176Y149717D01*
Y149669D01*
X327174Y149653D01*
X327172Y149633D01*
X327169Y149606D01*
X327163Y149575D01*
X327156Y149540D01*
X327147Y149502D01*
X327136Y149462D01*
X327120Y149420D01*
X327101Y149376D01*
X327080Y149331D01*
X327052Y149287D01*
X327023Y149244D01*
X326987Y149200D01*
X326947Y149158D01*
X326945Y149156D01*
X326936Y149149D01*
X326923Y149138D01*
X326905Y149123D01*
X326883Y149107D01*
X326856Y149089D01*
X326825Y149069D01*
X326788Y149049D01*
X326748Y149029D01*
X326703Y149009D01*
X326656Y148991D01*
X326603Y148974D01*
X326547Y148960D01*
X326488Y148949D01*
X326425Y148941D01*
X326359Y148940D01*
X326357D01*
X326348D01*
X326335D01*
X326319Y148941D01*
X326297Y148943D01*
X326273Y148945D01*
X326246Y148949D01*
X326215Y148952D01*
X326183Y148958D01*
X326148Y148965D01*
X326112Y148972D01*
X326073Y148983D01*
X326035Y148996D01*
X325997Y149009D01*
X325957Y149025D01*
X325919Y149043D01*
X325917Y149045D01*
X325909Y149049D01*
X325899Y149054D01*
X325886Y149062D01*
X325868Y149073D01*
X325848Y149085D01*
X325828Y149100D01*
X325804Y149116D01*
X325778Y149136D01*
X325753Y149156D01*
X325727Y149180D01*
X325702Y149205D01*
X325676Y149231D01*
X325651Y149260D01*
X325629Y149291D01*
X325607Y149324D01*
X325606Y149326D01*
X325602Y149331D01*
X325598Y149342D01*
X325591Y149355D01*
X325582Y149373D01*
X325573Y149393D01*
X325564Y149415D01*
X325555Y149442D01*
X325544Y149469D01*
X325535Y149500D01*
X325525Y149535D01*
X325516Y149569D01*
X325509Y149608D01*
X325505Y149646D01*
X325502Y149688D01*
X325500Y149730D01*
Y149746D01*
X325502Y149755D01*
Y149766D01*
X325504Y149793D01*
X325509Y149826D01*
X325515Y149864D01*
X325524Y149906D01*
X325536Y149953D01*
X325551Y150003D01*
X325569Y150053D01*
X325593Y150104D01*
X325620Y150157D01*
X325653Y150210D01*
X325691Y150263D01*
X325735Y150312D01*
X325784Y150359D01*
X325787Y150361D01*
X325797Y150370D01*
X325815Y150381D01*
X325838Y150397D01*
X325869Y150416D01*
X325888Y150426D01*
X325908Y150436D01*
X325929Y150447D01*
X325953Y150458D01*
X325980Y150470D01*
X326008Y150481D01*
X326037Y150492D01*
X326068Y150503D01*
X326102Y150516D01*
X326137Y150527D01*
X326175Y150536D01*
X326213Y150547D01*
X326255Y150556D01*
X326299Y150565D01*
X326344Y150574D01*
X326392Y150581D01*
X326441Y150587D01*
X326492Y150592D01*
X326547Y150598D01*
X326601Y150600D01*
X326659Y150603D01*
X326719D01*
X326721D01*
X326729D01*
X326738D01*
X326752D01*
X326768Y150601D01*
D02*
G37*
%LPC*%
G36*
X326359Y150248D02*
X326357D01*
X326352D01*
X326343D01*
X326332Y150246D01*
X326317D01*
X326301Y150245D01*
X326281Y150243D01*
X326261Y150239D01*
X326213Y150232D01*
X326162Y150219D01*
X326108Y150203D01*
X326051Y150181D01*
X326050D01*
X326046Y150177D01*
X326037Y150174D01*
X326028Y150168D01*
X326015Y150161D01*
X326002Y150154D01*
X325970Y150132D01*
X325933Y150106D01*
X325897Y150074D01*
X325860Y150035D01*
X325829Y149993D01*
Y149992D01*
X325826Y149988D01*
X325822Y149981D01*
X325818Y149972D01*
X325813Y149961D01*
X325806Y149948D01*
X325798Y149933D01*
X325793Y149915D01*
X325778Y149877D01*
X325766Y149833D01*
X325758Y149786D01*
X325755Y149737D01*
Y149728D01*
X325757Y149717D01*
Y149704D01*
X325760Y149688D01*
X325764Y149668D01*
X325767Y149646D01*
X325775Y149620D01*
X325782Y149595D01*
X325793Y149567D01*
X325806Y149540D01*
X325820Y149511D01*
X325838Y149484D01*
X325860Y149455D01*
X325884Y149427D01*
X325911Y149400D01*
X325913Y149398D01*
X325919Y149395D01*
X325928Y149387D01*
X325940Y149378D01*
X325957Y149367D01*
X325975Y149355D01*
X325999Y149342D01*
X326024Y149329D01*
X326053Y149316D01*
X326086Y149304D01*
X326121Y149291D01*
X326159Y149280D01*
X326201Y149271D01*
X326244Y149264D01*
X326292Y149260D01*
X326341Y149258D01*
X326344D01*
X326352D01*
X326366D01*
X326384Y149260D01*
X326406Y149262D01*
X326432Y149265D01*
X326459Y149269D01*
X326490Y149276D01*
X326523Y149284D01*
X326555Y149293D01*
X326590Y149304D01*
X326625Y149316D01*
X326658Y149333D01*
X326690Y149353D01*
X326723Y149373D01*
X326752Y149398D01*
X326754Y149400D01*
X326759Y149404D01*
X326767Y149413D01*
X326776Y149424D01*
X326787Y149436D01*
X326799Y149453D01*
X326814Y149473D01*
X326829Y149493D01*
X326841Y149518D01*
X326856Y149544D01*
X326869Y149573D01*
X326880Y149604D01*
X326889Y149637D01*
X326896Y149671D01*
X326901Y149709D01*
X326903Y149748D01*
Y149757D01*
X326901Y149768D01*
Y149782D01*
X326898Y149801D01*
X326896Y149822D01*
X326890Y149844D01*
X326885Y149870D01*
X326876Y149897D01*
X326867Y149926D01*
X326854Y149955D01*
X326839Y149986D01*
X326823Y150015D01*
X326801Y150046D01*
X326779Y150075D01*
X326752Y150103D01*
X326750Y150104D01*
X326745Y150108D01*
X326736Y150115D01*
X326725Y150124D01*
X326710Y150137D01*
X326692Y150148D01*
X326670Y150163D01*
X326646Y150175D01*
X326619Y150188D01*
X326590Y150203D01*
X326557Y150214D01*
X326523Y150224D01*
X326485Y150235D01*
X326445Y150243D01*
X326403Y150246D01*
X326359Y150248D01*
D02*
G37*
%LPD*%
D13*
X475720Y123807D02*
Y137193D01*
Y123807D02*
X492280D01*
Y137193D01*
X475720D02*
X492280D01*
X378220Y117807D02*
Y131193D01*
Y117807D02*
X394780D01*
Y131193D01*
X378220D02*
X394780D01*
X318807Y161280D02*
X332193D01*
X318807Y144720D02*
Y161280D01*
Y144720D02*
X332193D01*
Y161280D01*
D102*
X410831Y124205D02*
X418705Y116331D01*
X410831Y124205D02*
Y157669D01*
X452169D01*
Y124205D02*
Y157669D01*
X444295Y116331D02*
X452169Y124205D01*
X418705Y116331D02*
X444295D01*
X419004Y85256D02*
X446996D01*
X419004Y109744D02*
X446996D01*
Y85256D02*
Y109744D01*
X419004Y85256D02*
Y109744D01*
X123016Y81244D02*
X151008D01*
X123016Y56756D02*
X151008D01*
X123016D02*
Y81244D01*
X151008Y56756D02*
Y81244D01*
X123504Y149244D02*
X151496D01*
X123504Y124756D02*
X151496D01*
X123504D02*
Y149244D01*
X151496Y124756D02*
Y149244D01*
X247244Y298992D02*
Y326984D01*
X222756Y298992D02*
Y326984D01*
X247244D01*
X222756Y298992D02*
X247244D01*
X246744Y139992D02*
Y167984D01*
X222256Y139992D02*
Y167984D01*
X246744D01*
X222256Y139992D02*
X246744D01*
X122992Y284213D02*
X150984D01*
X122992Y259724D02*
X150984D01*
X122992D02*
Y284213D01*
X150984Y259724D02*
Y284213D01*
X123016Y216744D02*
X151008D01*
X123016Y192256D02*
X151008D01*
X123016D02*
Y216744D01*
X151008Y192256D02*
Y216744D01*
X124504Y351744D02*
X152496D01*
X124504Y327256D02*
X152496D01*
X124504D02*
Y351744D01*
X152496Y327256D02*
Y351744D01*
D103*
X445114Y97500D02*
D03*
X124898Y69000D02*
D03*
X125386Y137000D02*
D03*
X124875Y271969D02*
D03*
X124898Y204500D02*
D03*
X126386Y339500D02*
D03*
D104*
X235000Y325102D02*
D03*
X234500Y166102D02*
D03*
M02*
