G04*
G04 #@! TF.GenerationSoftware,Altium Limited,Altium Designer,22.9.1 (49)*
G04*
G04 Layer_Color=16711935*
%FSLAX25Y25*%
%MOIN*%
G70*
G04*
G04 #@! TF.SameCoordinates,3F179E76-7137-4DFB-B845-8D42032AEADC*
G04*
G04*
G04 #@! TF.FilePolarity,Negative*
G04*
G01*
G75*
%ADD11C,0.01000*%
%ADD62C,0.03800*%
%ADD72C,0.07880*%
%ADD73C,0.17729*%
%ADD74C,0.07887*%
%ADD75C,0.07800*%
%ADD76C,0.15600*%
%ADD77C,0.08800*%
D11*
Y399500D02*
X541500D01*
X542000Y399000D01*
Y161500D02*
Y399000D01*
Y161500D02*
X599000D01*
X599500Y161000D01*
Y500D02*
Y161000D01*
Y500D02*
X600000Y0D01*
X0D02*
X600000D01*
X0D02*
Y399500D01*
Y0D02*
X600000D01*
D62*
X191000Y313500D02*
D03*
X62000Y135500D02*
D03*
X266000Y112000D02*
D03*
X252500Y139000D02*
D03*
X299000Y97500D02*
D03*
X330500Y93000D02*
D03*
X262000Y149000D02*
D03*
X275500Y158000D02*
D03*
X249911Y80911D02*
D03*
X232000Y102500D02*
D03*
X233500Y113500D02*
D03*
X403000Y109500D02*
D03*
X217000Y102000D02*
D03*
X272500Y146500D02*
D03*
X197500Y377057D02*
D03*
X244500Y326000D02*
D03*
X239000Y333500D02*
D03*
X237000Y342000D02*
D03*
X83500Y194500D02*
D03*
X74000Y111000D02*
D03*
X169000Y335500D02*
D03*
X459000Y112500D02*
D03*
X104500Y161000D02*
D03*
X63500Y150500D02*
D03*
X72000Y195000D02*
D03*
X110500Y240000D02*
D03*
Y144500D02*
D03*
X148000Y264500D02*
D03*
X180000Y316000D02*
D03*
X196000Y320000D02*
D03*
X201500Y346000D02*
D03*
X255500Y306000D02*
D03*
Y315000D02*
D03*
X253500Y352000D02*
D03*
X115000Y250500D02*
D03*
X264000Y375500D02*
D03*
X263500Y341500D02*
D03*
X259000Y346500D02*
D03*
X242000Y375500D02*
D03*
Y381500D02*
D03*
X103500Y331500D02*
D03*
X78500Y293500D02*
D03*
X251000Y285000D02*
D03*
X72000Y336000D02*
D03*
X69000Y346500D02*
D03*
X67000Y381000D02*
D03*
X117500Y277000D02*
D03*
X215500Y282000D02*
D03*
X214500Y292000D02*
D03*
X191000Y387500D02*
D03*
X199000Y392000D02*
D03*
X509000Y62500D02*
D03*
X264500Y388500D02*
D03*
X441500Y57500D02*
D03*
X341500Y333500D02*
D03*
X341000Y342500D02*
D03*
X511000Y139500D02*
D03*
X553000Y114000D02*
D03*
X482000Y71500D02*
D03*
X151000Y333500D02*
D03*
X81000Y13500D02*
D03*
X492000Y192000D02*
D03*
X347000Y146500D02*
D03*
X27500Y153000D02*
D03*
D72*
X403500Y171000D02*
D03*
X423500D02*
D03*
Y181000D02*
D03*
X413500Y171000D02*
D03*
Y181000D02*
D03*
X503500D02*
D03*
X493500D02*
D03*
X483500D02*
D03*
X473500D02*
D03*
X463500D02*
D03*
X453500D02*
D03*
X443500D02*
D03*
X433500D02*
D03*
X403500D02*
D03*
X393500D02*
D03*
X383500D02*
D03*
X373500D02*
D03*
X363500D02*
D03*
X353500D02*
D03*
X343500D02*
D03*
X333500D02*
D03*
X323500D02*
D03*
X313500D02*
D03*
X503500Y171000D02*
D03*
X493500D02*
D03*
X483500D02*
D03*
X473500D02*
D03*
X463500D02*
D03*
X453500D02*
D03*
X443500D02*
D03*
X433500D02*
D03*
X393500D02*
D03*
X383500D02*
D03*
X373500D02*
D03*
X363500D02*
D03*
X353500D02*
D03*
X343500D02*
D03*
X333500D02*
D03*
X323500D02*
D03*
X313500D02*
D03*
D73*
X522674Y176000D02*
D03*
X294327D02*
D03*
Y368913D02*
D03*
X522674D02*
D03*
D74*
X167000Y210000D02*
D03*
Y220000D02*
D03*
X184500Y210000D02*
D03*
Y220000D02*
D03*
X205200Y210000D02*
D03*
Y220000D02*
D03*
X224300Y210000D02*
D03*
Y220000D02*
D03*
X243400D02*
D03*
Y210000D02*
D03*
X262500Y220000D02*
D03*
Y210000D02*
D03*
D75*
X199900Y47800D02*
D03*
X211700D02*
D03*
Y36000D02*
D03*
X199900D02*
D03*
X223500D02*
D03*
X235300D02*
D03*
Y47800D02*
D03*
X223500D02*
D03*
X50800Y211000D02*
D03*
Y199200D02*
D03*
X39000Y211000D02*
D03*
Y199200D02*
D03*
X38905Y241000D02*
D03*
X50705D02*
D03*
X540500Y40000D02*
D03*
X528700D02*
D03*
X540500Y51800D02*
D03*
X528700D02*
D03*
X295500Y36500D02*
D03*
Y48300D02*
D03*
X50800Y347500D02*
D03*
Y335700D02*
D03*
X39000Y347500D02*
D03*
Y335700D02*
D03*
X326500Y48300D02*
D03*
X338300D02*
D03*
X326500Y36500D02*
D03*
X338300D02*
D03*
X38905Y272500D02*
D03*
X50705D02*
D03*
X368700Y48300D02*
D03*
X380500D02*
D03*
X368700Y36500D02*
D03*
X380500D02*
D03*
X570200Y51800D02*
D03*
X582000D02*
D03*
X570200Y40000D02*
D03*
X582000D02*
D03*
X133500Y47800D02*
D03*
X145300D02*
D03*
Y36000D02*
D03*
X133500D02*
D03*
X157100D02*
D03*
X168900D02*
D03*
Y47800D02*
D03*
X157100D02*
D03*
X19600Y50300D02*
D03*
X31400D02*
D03*
X19600Y38500D02*
D03*
X31400D02*
D03*
X38905Y304000D02*
D03*
X50705D02*
D03*
X265000Y36500D02*
D03*
Y48300D02*
D03*
X411500Y36500D02*
D03*
Y48300D02*
D03*
X38905Y380500D02*
D03*
X50705D02*
D03*
D76*
X208400Y19000D02*
D03*
X226900D02*
D03*
X22000Y205100D02*
D03*
X21905Y241000D02*
D03*
X534600Y23000D02*
D03*
X295500Y19500D02*
D03*
X22000Y341600D02*
D03*
X332400Y19500D02*
D03*
X21905Y272500D02*
D03*
X374600Y19500D02*
D03*
X576100Y23000D02*
D03*
X142000Y19000D02*
D03*
X160500D02*
D03*
X25500Y21500D02*
D03*
X21905Y304000D02*
D03*
X265000Y19500D02*
D03*
X411500D02*
D03*
X21905Y380500D02*
D03*
D77*
X109000Y13000D02*
D03*
Y52000D02*
D03*
X95500D02*
D03*
Y13000D02*
D03*
X85500Y115500D02*
D03*
Y76500D02*
D03*
X99000D02*
D03*
Y115500D02*
D03*
M02*
