G04*
G04 #@! TF.GenerationSoftware,Altium Limited,Altium Designer,23.1.1 (15)*
G04*
G04 Layer_Physical_Order=1*
G04 Layer_Color=255*
%FSLAX25Y25*%
%MOIN*%
G70*
G04*
G04 #@! TF.SameCoordinates,6B6AD537-89E2-49BE-BCD0-2355F65E075C*
G04*
G04*
G04 #@! TF.FilePolarity,Positive*
G04*
G01*
G75*
%ADD10C,0.01000*%
%ADD15R,0.03543X0.05315*%
%ADD16R,0.05512X0.04134*%
%ADD17R,0.11417X0.21260*%
%ADD18R,0.06890X0.05709*%
%ADD19R,0.01772X0.05906*%
%ADD20R,0.18504X0.12598*%
%ADD21R,0.05315X0.03543*%
%ADD22R,0.03150X0.03543*%
%ADD23R,0.04134X0.05512*%
%ADD24R,0.08898X0.11024*%
%ADD25R,0.03543X0.03740*%
%ADD26R,0.02362X0.05709*%
%ADD27R,0.05709X0.06890*%
%ADD28R,0.11024X0.08898*%
G04:AMPARAMS|DCode=29|XSize=59.26mil|YSize=17.91mil|CornerRadius=8.96mil|HoleSize=0mil|Usage=FLASHONLY|Rotation=0.000|XOffset=0mil|YOffset=0mil|HoleType=Round|Shape=RoundedRectangle|*
%AMROUNDEDRECTD29*
21,1,0.05926,0.00000,0,0,0.0*
21,1,0.04135,0.01791,0,0,0.0*
1,1,0.01791,0.02068,0.00000*
1,1,0.01791,-0.02068,0.00000*
1,1,0.01791,-0.02068,0.00000*
1,1,0.01791,0.02068,0.00000*
%
%ADD29ROUNDEDRECTD29*%
%ADD30R,0.05926X0.01791*%
%ADD31R,0.19685X0.19685*%
%ADD32R,0.09843X0.16339*%
%ADD33R,0.07087X0.05709*%
%ADD34R,0.09843X0.12795*%
%ADD35R,0.09264X0.02449*%
%ADD36R,0.20079X0.13780*%
G04:AMPARAMS|DCode=37|XSize=59.26mil|YSize=17.91mil|CornerRadius=8.96mil|HoleSize=0mil|Usage=FLASHONLY|Rotation=270.000|XOffset=0mil|YOffset=0mil|HoleType=Round|Shape=RoundedRectangle|*
%AMROUNDEDRECTD37*
21,1,0.05926,0.00000,0,0,270.0*
21,1,0.04135,0.01791,0,0,270.0*
1,1,0.01791,0.00000,-0.02068*
1,1,0.01791,0.00000,0.02068*
1,1,0.01791,0.00000,0.02068*
1,1,0.01791,0.00000,-0.02068*
%
%ADD37ROUNDEDRECTD37*%
%ADD38R,0.01791X0.05926*%
%ADD39C,0.03000*%
%ADD40R,0.08071X0.06299*%
%ADD41R,0.19685X0.19685*%
%ADD42R,0.09055X0.12598*%
%ADD43R,0.08071X0.02598*%
%ADD44R,0.12795X0.08661*%
%ADD45R,0.21260X0.11417*%
%ADD46R,0.12795X0.09843*%
%ADD47R,0.12598X0.09055*%
%ADD48R,0.02598X0.08071*%
%ADD49R,0.05709X0.07087*%
%ADD50R,0.08661X0.12795*%
%ADD69R,0.09055X0.12205*%
%ADD90C,0.07000*%
%ADD91C,0.14800*%
%ADD92C,0.16929*%
%ADD93C,0.07080*%
%ADD94C,0.07087*%
%ADD95C,0.08000*%
%ADD96C,0.05000*%
G36*
X169000Y383500D02*
X159500D01*
X156000Y380000D01*
Y377880D01*
X155624Y377550D01*
X154500Y377701D01*
X152689D01*
Y383604D01*
X152767Y384000D01*
X152682Y384429D01*
X152439Y384793D01*
X152075Y385036D01*
X151646Y385122D01*
X151216Y385036D01*
X150853Y384793D01*
X150774Y384714D01*
X150531Y384350D01*
X150445Y383921D01*
X150445Y383921D01*
Y377701D01*
X147201D01*
X147000Y377784D01*
Y387500D01*
X143000Y391500D01*
Y391584D01*
X118584D01*
X108500Y381500D01*
X48500D01*
X47000Y380000D01*
Y364000D01*
X55000Y356000D01*
Y349500D01*
X52500Y347000D01*
X35500D01*
X33500Y349000D01*
Y386000D01*
X42000Y396500D01*
X169000D01*
Y383500D01*
D02*
G37*
G36*
X287500Y393000D02*
Y381000D01*
X281500Y375000D01*
X236500D01*
X236000Y375500D01*
Y392000D01*
X239000Y395000D01*
X285500D01*
X287500Y393000D01*
D02*
G37*
G36*
X137000Y377500D02*
X128000D01*
X126500Y376000D01*
X126500Y375000D01*
X124500Y373000D01*
X118000Y373000D01*
X116000Y375000D01*
X116000Y387500D01*
X119000Y390500D01*
X137000D01*
Y377500D01*
D02*
G37*
G36*
X202000Y392500D02*
Y370500D01*
X200000Y368500D01*
X193500D01*
X190500Y371500D01*
Y382000D01*
X189000Y383500D01*
X179500D01*
Y396500D01*
X198000D01*
X202000Y392500D01*
D02*
G37*
G36*
X74500Y342500D02*
X67000Y335000D01*
X35500D01*
X34500Y336000D01*
X34000D01*
Y343000D01*
X35000Y344000D01*
X56000D01*
X62500Y350500D01*
Y362694D01*
X62962Y362885D01*
X67390Y358457D01*
Y354000D01*
X67476Y353571D01*
X67719Y353207D01*
X68083Y352964D01*
X68512Y352878D01*
X68941Y352964D01*
X69305Y353207D01*
X69548Y353571D01*
X69633Y354000D01*
Y358921D01*
X69548Y359350D01*
X69305Y359714D01*
X69305Y359714D01*
X64481Y364538D01*
X64672Y365000D01*
X74500D01*
Y342500D01*
D02*
G37*
G36*
X113500Y361500D02*
X116000Y359000D01*
X136500D01*
Y356000D01*
X133000D01*
X131000Y354000D01*
Y333000D01*
X120000D01*
Y336500D01*
X113500Y343000D01*
X101500D01*
Y365000D01*
X113500D01*
Y361500D01*
D02*
G37*
G36*
X257500Y336000D02*
X254000Y332500D01*
Y315000D01*
X251000D01*
Y319500D01*
X249000Y321500D01*
X229000Y321500D01*
Y330147D01*
X229353Y330500D01*
X230000Y330500D01*
X236500Y337000D01*
Y347000D01*
X257500D01*
X257500Y336000D01*
D02*
G37*
G36*
X167000Y322500D02*
Y303000D01*
X166500Y302500D01*
X157500D01*
X157000Y303000D01*
Y307000D01*
X155567Y308433D01*
Y308492D01*
X147008D01*
X145500Y310000D01*
Y323500D01*
X144000Y325000D01*
X123000D01*
X120500Y322500D01*
X62500D01*
X58500Y318500D01*
Y308000D01*
X53500Y303000D01*
X35500D01*
X34000Y304500D01*
Y311000D01*
X51500Y328500D01*
X115469D01*
X115559Y328410D01*
X118150Y331000D01*
X157500D01*
X158000Y331500D01*
X167000Y322500D01*
D02*
G37*
G36*
X298000Y333000D02*
X301500Y329500D01*
Y315000D01*
X272500D01*
Y330000D01*
X275500Y333000D01*
X298000Y333000D01*
D02*
G37*
G36*
X136000Y323000D02*
Y310500D01*
X135500Y310000D01*
X126500D01*
X125000Y308500D01*
X115500D01*
X110000Y314000D01*
Y320000D01*
X111500Y321500D01*
X125000D01*
X127000Y323500D01*
X135500D01*
X136000Y323000D01*
D02*
G37*
G36*
X186000Y322949D02*
Y322122D01*
X182500D01*
X182071Y322036D01*
X181707Y321793D01*
X181464Y321429D01*
X181378Y321000D01*
X181464Y320571D01*
X181707Y320207D01*
X182071Y319964D01*
X182500Y319879D01*
X186000D01*
Y303500D01*
X185500Y303000D01*
X177000D01*
X176500Y303500D01*
Y309000D01*
X172000Y313500D01*
Y323500D01*
X172650Y324150D01*
Y324224D01*
X184724D01*
X186000Y322949D01*
D02*
G37*
G36*
X327000Y301500D02*
X327500D01*
Y286000D01*
X324500Y283000D01*
X272500D01*
Y304000D01*
X324500D01*
X327000Y301500D01*
D02*
G37*
G36*
X75500Y295500D02*
Y274000D01*
X75000Y273500D01*
X63000D01*
X62500Y274000D01*
Y284000D01*
X55000Y291500D01*
X35500D01*
X34000Y293000D01*
Y298500D01*
X35000Y299500D01*
X71500D01*
X75500Y295500D01*
D02*
G37*
G36*
X118500Y291500D02*
X135500D01*
Y288500D01*
X130000D01*
X129000Y287500D01*
Y265500D01*
X119000D01*
Y268500D01*
X114000Y273500D01*
X102000D01*
Y295500D01*
X114500D01*
X118500Y291500D01*
D02*
G37*
G36*
X329000Y270000D02*
Y263000D01*
X328000Y262000D01*
X286500D01*
X284000Y264500D01*
X272500D01*
Y273000D01*
X326000D01*
X329000Y270000D01*
D02*
G37*
G36*
X154000Y256000D02*
Y251500D01*
X156500Y249000D01*
X166000D01*
Y236000D01*
X157000D01*
Y239500D01*
X154500Y242000D01*
X145500D01*
Y255000D01*
X144000Y256500D01*
X111500D01*
X107000Y252000D01*
X73524D01*
X53000Y231476D01*
Y216500D01*
X51000Y214500D01*
X36500D01*
X34000Y217000D01*
Y228000D01*
X66000Y260000D01*
X66500Y259500D01*
X101500D01*
Y260000D01*
X106000Y264500D01*
X145500D01*
X154000Y256000D01*
D02*
G37*
G36*
X185500Y255449D02*
Y252622D01*
X182465D01*
X181793Y253293D01*
X181429Y253536D01*
X181000Y253622D01*
X181000Y253622D01*
X180500D01*
X180071Y253536D01*
X179707Y253293D01*
X179464Y252929D01*
X179378Y252500D01*
X179464Y252071D01*
X179707Y251707D01*
X180071Y251464D01*
X180500Y251378D01*
X180535D01*
X181207Y250707D01*
X181207Y250707D01*
X181571Y250464D01*
X182000Y250378D01*
X185500D01*
Y236000D01*
X185000Y235500D01*
X176500D01*
X176000Y236000D01*
Y241500D01*
X171500Y246000D01*
Y256000D01*
X172150Y256650D01*
Y256724D01*
X184224D01*
X185500Y255449D01*
D02*
G37*
G36*
X135000Y255000D02*
Y242500D01*
X134500Y242000D01*
X125500D01*
X124000Y240500D01*
X114500D01*
X109000Y246000D01*
Y252000D01*
X110500Y253500D01*
X124000D01*
X126000Y255500D01*
X134500D01*
X135000Y255000D01*
D02*
G37*
G36*
X270713Y238287D02*
Y217713D01*
X268000Y215000D01*
X230000D01*
X218500Y226500D01*
Y240500D01*
X219000Y241000D01*
X230500D01*
X234000Y237500D01*
Y229000D01*
X235500Y227500D01*
X257000D01*
X259000Y229500D01*
Y240000D01*
X260000Y241000D01*
X268000D01*
X270713Y238287D01*
D02*
G37*
G36*
X74042Y227538D02*
X68719Y222214D01*
X68476Y221850D01*
X68390Y221421D01*
X68390Y221421D01*
Y216500D01*
X68476Y216071D01*
X68719Y215707D01*
X69083Y215464D01*
X69512Y215378D01*
X69941Y215464D01*
X70305Y215707D01*
X70548Y216071D01*
X70633Y216500D01*
Y220957D01*
X75538Y225861D01*
X76000Y225670D01*
Y205500D01*
X73000Y202500D01*
X35500D01*
X33500Y204500D01*
Y208500D01*
X35500Y210500D01*
X61500D01*
X63500Y212500D01*
Y227500D01*
X64000Y228000D01*
X73851D01*
X74042Y227538D01*
D02*
G37*
G36*
X114000Y227000D02*
X117500Y223500D01*
X135000D01*
Y220500D01*
X130500D01*
X128500Y218500D01*
X128500Y198500D01*
X119853D01*
X119500Y198854D01*
X119500Y199500D01*
X113000Y206000D01*
X103000D01*
Y227000D01*
X114000Y227000D01*
D02*
G37*
G36*
X257000Y177000D02*
X253500Y173500D01*
Y156000D01*
X250500D01*
Y160500D01*
X248500Y162500D01*
X228500Y162500D01*
Y171147D01*
X228854Y171500D01*
X229500Y171500D01*
X236000Y178000D01*
Y188000D01*
X257000D01*
X257000Y177000D01*
D02*
G37*
G36*
X166500Y189500D02*
Y169500D01*
X166000Y169000D01*
X158000D01*
Y181500D01*
X154500Y185000D01*
X70500D01*
X61000Y175500D01*
X56500Y171000D01*
X48000D01*
X45500Y173500D01*
Y182000D01*
X54500Y191000D01*
X114000D01*
X120000Y197000D01*
X159000D01*
X166500Y189500D01*
D02*
G37*
G36*
X186000Y187949D02*
Y168500D01*
X185500Y168000D01*
X177000D01*
X176500Y168500D01*
Y174000D01*
X172000Y178500D01*
Y188500D01*
X172650Y189150D01*
Y189224D01*
X184724D01*
X186000Y187949D01*
D02*
G37*
G36*
X286500Y171500D02*
X286500Y168500D01*
X290500Y164500D01*
X300500D01*
Y156000D01*
X272000D01*
Y164500D01*
X271500Y165000D01*
X265000D01*
X263000Y167000D01*
Y173500D01*
X265000Y175500D01*
X282500D01*
X286500Y171500D01*
D02*
G37*
G36*
X469500Y149500D02*
Y147282D01*
X469408Y147210D01*
X468793Y147230D01*
X468230Y147793D01*
X467866Y148036D01*
X467437Y148122D01*
X467008Y148036D01*
X466644Y147793D01*
X466401Y147429D01*
X466315Y147000D01*
X466401Y146571D01*
X466644Y146207D01*
X467207Y145644D01*
X467571Y145401D01*
X468000Y145316D01*
X468429Y145401D01*
X468793Y145644D01*
X469408Y145664D01*
X469500Y145592D01*
Y142000D01*
X471500Y140000D01*
Y134155D01*
X471445Y134100D01*
X464555D01*
X464500Y134155D01*
Y143500D01*
X465500Y144500D01*
Y149500D01*
X466000Y150000D01*
X469000D01*
X469500Y149500D01*
D02*
G37*
G36*
X348500Y165500D02*
Y145500D01*
X346000Y143000D01*
X334586D01*
X334293Y143293D01*
X334293Y143293D01*
X333021Y144565D01*
Y156747D01*
X333000Y156855D01*
Y165500D01*
X334500Y167000D01*
X347000D01*
X348500Y165500D01*
D02*
G37*
G36*
X461000Y155500D02*
Y150724D01*
X460835Y150279D01*
X460405Y150194D01*
X460042Y149951D01*
X460042Y149951D01*
X458770Y148679D01*
X458527Y148315D01*
X458441Y147886D01*
X458441Y147886D01*
Y147000D01*
X458527Y146571D01*
X458770Y146207D01*
X459134Y145964D01*
X459563Y145879D01*
X459992Y145964D01*
X460356Y146207D01*
X460500Y146422D01*
X461000Y146271D01*
Y144500D01*
X452500D01*
X450000Y142000D01*
X445000D01*
X444500Y142500D01*
Y155500D01*
X447000Y158000D01*
X458500D01*
X461000Y155500D01*
D02*
G37*
G36*
X42500Y177500D02*
Y172000D01*
X55000Y159500D01*
X73351Y159500D01*
X73542Y159038D01*
X69219Y154714D01*
X68976Y154350D01*
X68890Y153921D01*
X68890Y153921D01*
Y149000D01*
X68976Y148571D01*
X69219Y148207D01*
X69583Y147964D01*
X70012Y147878D01*
X70441Y147964D01*
X70805Y148207D01*
X71048Y148571D01*
X71133Y149000D01*
Y153457D01*
X75538Y157861D01*
X76000Y157670D01*
Y138500D01*
X63000D01*
X32000Y169500D01*
Y177500D01*
X34500Y180000D01*
X40000D01*
X42500Y177500D01*
D02*
G37*
G36*
X398500Y160000D02*
X401000Y157500D01*
X401000Y134500D01*
X398500Y132000D01*
X378000D01*
X374500Y128500D01*
Y117000D01*
X373500Y116000D01*
X369000Y116000D01*
X368000Y117000D01*
X368000Y132500D01*
X373000Y137500D01*
X385000Y137500D01*
X386000Y138500D01*
Y157000D01*
X389000Y160000D01*
X398500Y160000D01*
D02*
G37*
G36*
X360000Y156500D02*
X360000Y136000D01*
X356051Y132051D01*
X334449D01*
X333500Y133000D01*
Y139000D01*
X334500Y140000D01*
X345000D01*
X349500Y144500D01*
Y157000D01*
X351000Y158500D01*
X358000D01*
X360000Y156500D01*
D02*
G37*
G36*
X114500Y159500D02*
X118000Y156000D01*
X135500D01*
Y153000D01*
X131000D01*
X129000Y151000D01*
X129000Y131000D01*
X120353D01*
X120000Y131353D01*
X120000Y132000D01*
X113500Y138500D01*
X103500D01*
Y159500D01*
X114500Y159500D01*
D02*
G37*
G36*
X472500Y128000D02*
Y123500D01*
X474370Y121630D01*
X482654D01*
Y109153D01*
X482500Y109000D01*
X463500D01*
X460500Y112000D01*
X426500D01*
X426000Y112500D01*
Y128000D01*
X426500Y128500D01*
X440500D01*
X443500Y125500D01*
X451500D01*
X455000Y129000D01*
X471500D01*
X472500Y128000D01*
D02*
G37*
G36*
X300500Y154000D02*
Y115756D01*
X299244Y114500D01*
X273256D01*
X272330Y115425D01*
X272488Y115400D01*
X272496Y115260D01*
Y154240D01*
X272496Y154240D01*
X273256Y155000D01*
X299500D01*
X300500Y154000D01*
D02*
G37*
G36*
X302386Y111500D02*
X302500D01*
Y93000D01*
X300500Y91000D01*
X300361D01*
X300000Y91149D01*
X292500D01*
X292139Y91000D01*
X288500D01*
X287000Y92500D01*
Y103559D01*
X285559Y105000D01*
X272000D01*
Y114000D01*
X272895D01*
X273256Y113851D01*
X299244D01*
X299605Y114000D01*
X299886D01*
X302386Y111500D01*
D02*
G37*
G36*
X165000Y120500D02*
Y101000D01*
X157000D01*
Y113500D01*
X153500Y117000D01*
X58000D01*
X53500Y112500D01*
Y110500D01*
X51000Y108000D01*
X48500D01*
X46000Y110500D01*
Y119000D01*
X51000Y124000D01*
X113713D01*
X117500Y127787D01*
Y128500D01*
X157000D01*
X165000Y120500D01*
D02*
G37*
G36*
X185500Y119949D02*
Y116622D01*
X181500D01*
X181071Y116536D01*
X180707Y116293D01*
X180464Y115929D01*
X180378Y115500D01*
X180464Y115071D01*
X180707Y114707D01*
X181071Y114464D01*
X181500Y114378D01*
X185500D01*
Y100500D01*
X185000Y100000D01*
X176500D01*
X176000Y100500D01*
Y106000D01*
X171500Y110500D01*
Y120500D01*
X172150Y121150D01*
Y121224D01*
X184224D01*
X185500Y119949D01*
D02*
G37*
G36*
X354787Y115213D02*
Y100287D01*
X353000Y98500D01*
X340500D01*
X338500Y100500D01*
Y115000D01*
X341000Y117500D01*
X352500Y117500D01*
X354787Y115213D01*
D02*
G37*
G36*
X330000Y131000D02*
X361500D01*
X364000Y128500D01*
Y116000D01*
X366000Y114000D01*
X374879D01*
Y106929D01*
X374878Y106929D01*
X374964Y106500D01*
X375207Y106136D01*
X378207Y103136D01*
X378571Y102893D01*
X379000Y102808D01*
X379429Y102893D01*
X379793Y103136D01*
X380036Y103500D01*
X380122Y103929D01*
X380036Y104358D01*
X379793Y104722D01*
X377121Y107394D01*
Y114000D01*
X388500D01*
X389000Y113500D01*
Y97500D01*
X371500D01*
X355437Y113563D01*
Y115213D01*
X355247Y115672D01*
X352959Y117959D01*
X352500Y118149D01*
X341000Y118149D01*
X340675Y118015D01*
X340639Y118000D01*
X329500Y118000D01*
X309000D01*
Y132000D01*
X329000D01*
X330000Y131000D01*
D02*
G37*
G36*
X451000Y104000D02*
Y91000D01*
X454000Y88000D01*
X482500D01*
Y75500D01*
X464000D01*
X462500Y77000D01*
X441000D01*
X440596Y77404D01*
Y77702D01*
X440500D01*
Y79500D01*
X441000Y80000D01*
Y104000D01*
X441500Y104500D01*
X450500D01*
X451000Y104000D01*
D02*
G37*
G36*
X502339Y85661D02*
Y73339D01*
X500500Y71500D01*
X487500D01*
X485000Y69000D01*
X468000D01*
X466512Y67512D01*
X453500Y67500D01*
X448713Y72286D01*
X440636Y72286D01*
Y74692D01*
X460308Y74692D01*
X461500Y73500D01*
X482500D01*
X484500Y75500D01*
X487500Y78500D01*
X494000D01*
X494500Y79000D01*
Y85500D01*
X495500Y86500D01*
X501500D01*
X502339Y85661D01*
D02*
G37*
G36*
X42000Y115000D02*
Y110500D01*
X61000Y91500D01*
X68390D01*
Y81000D01*
X68476Y80571D01*
X68719Y80207D01*
X69083Y79964D01*
X69512Y79878D01*
X69941Y79964D01*
X70305Y80207D01*
X70548Y80571D01*
X70633Y81000D01*
Y91500D01*
X75000D01*
Y70500D01*
X63000D01*
X54000Y79500D01*
Y84000D01*
X34000Y104000D01*
Y114500D01*
X36500Y117000D01*
X40000D01*
X42000Y115000D01*
D02*
G37*
G36*
X114000Y91500D02*
X118000Y87500D01*
X135000Y87500D01*
Y85500D01*
X131000D01*
X128500Y83000D01*
X128500Y63500D01*
X119853D01*
X119500Y63854D01*
Y64000D01*
X112500Y71000D01*
X103000D01*
Y91500D01*
X114000Y91500D01*
D02*
G37*
G36*
X336500Y96000D02*
X351000D01*
X352500Y94500D01*
Y85500D01*
X352500Y61000D01*
X350500Y59000D01*
X336000D01*
X306000Y89000D01*
X306000Y89500D01*
X306500Y90000D01*
Y101500D01*
X308500Y103500D01*
X329000D01*
X336500Y96000D01*
D02*
G37*
G36*
X440000Y76506D02*
Y75325D01*
X439987D01*
Y71675D01*
X440000D01*
Y65325D01*
X439987D01*
Y61675D01*
X440000D01*
Y57500D01*
X434500Y52000D01*
X434500Y48000D01*
X431500Y45000D01*
X430000D01*
X424000Y39000D01*
X419000D01*
X417000Y41000D01*
Y52500D01*
X419000Y54500D01*
X424500D01*
X431000Y61000D01*
Y77000D01*
X439635D01*
X440000Y76506D01*
D02*
G37*
G36*
X312000Y78500D02*
Y44500D01*
X312500Y44000D01*
X358000Y44000D01*
X359500Y42500D01*
X359500Y31000D01*
X358000Y29500D01*
X302500D01*
X290000Y42000D01*
Y48272D01*
X290135Y49300D01*
X290000Y50328D01*
Y82500D01*
Y88000D01*
X292500Y90500D01*
X300000D01*
X312000Y78500D01*
D02*
G37*
%LPC*%
G36*
X360488Y122622D02*
X360059Y122536D01*
X359695Y122293D01*
X359452Y121929D01*
X359367Y121500D01*
X359452Y121071D01*
X359695Y120707D01*
X360707Y119695D01*
X361071Y119452D01*
X361500Y119367D01*
X361929Y119452D01*
X362293Y119695D01*
X362536Y120059D01*
X362622Y120488D01*
X362536Y120917D01*
X362293Y121281D01*
X361281Y122293D01*
X360917Y122536D01*
X360488Y122622D01*
D02*
G37*
%LPD*%
D10*
X271500Y58563D02*
X272000Y59063D01*
X305500Y11000D02*
X354000D01*
X304000D02*
X305500D01*
X281000D02*
X304000D01*
X271500Y20500D02*
X281000Y11000D01*
X271500Y20500D02*
Y58563D01*
X418500Y4500D02*
X425000Y11000D01*
X354000D02*
X379000Y36000D01*
X269500Y17500D02*
X278500Y8500D01*
X275500Y4500D02*
X418500D01*
X278500Y8500D02*
X364000D01*
X267000Y16500D02*
X277000Y6500D01*
X417000D02*
X423000Y12500D01*
X264500Y15500D02*
X275500Y4500D01*
X277000Y6500D02*
X417000D01*
X264000Y59063D02*
X264386D01*
X364000Y8500D02*
X390500Y35000D01*
X269500Y17500D02*
Y51500D01*
X267000Y16500D02*
Y38500D01*
X264500Y15500D02*
Y38500D01*
X263000Y42500D02*
X267000Y38500D01*
X260500Y42500D02*
X264500Y38500D01*
X375000Y152000D02*
X397000Y174000D01*
X374500Y148000D02*
X375000Y148500D01*
Y152000D01*
X150067Y237000D02*
Y248079D01*
X149646Y248500D02*
X150067Y248079D01*
X242568Y313931D02*
X245500Y311000D01*
X258500D02*
X260000Y309500D01*
X245500Y311000D02*
X258500D01*
X242568Y306246D02*
Y313931D01*
X236299Y299976D02*
X242568Y306246D01*
X235000Y299976D02*
X236299D01*
X267012Y140854D02*
X278500D01*
X267000Y140866D02*
X267012Y140854D01*
X230500Y250000D02*
X234358Y246142D01*
X246500D01*
X245433Y150433D02*
X259500D01*
X235976Y140976D02*
X245433Y150433D01*
X234500Y140976D02*
X235976D01*
X214032Y245240D02*
X214933Y246142D01*
X232476Y143000D02*
X234500Y140976D01*
X486437Y159000D02*
Y159886D01*
X487709Y161158D01*
X492158D01*
X492500Y161500D01*
X496500Y135000D02*
Y167938D01*
Y135000D02*
X497000Y134500D01*
X491640Y172798D02*
X496500Y167938D01*
X498100Y139585D02*
X499935Y137749D01*
X498100Y165475D02*
X502500Y169875D01*
X498100Y139585D02*
Y165475D01*
X523132Y144108D02*
Y147000D01*
X516000Y144449D02*
Y147500D01*
X402360Y172798D02*
Y202123D01*
X411640Y172078D02*
Y200860D01*
X405500Y207000D02*
X411640Y200860D01*
X514000Y203000D02*
X532500D01*
X402000Y207000D02*
X405500D01*
X423000Y210000D02*
X535000D01*
X416070Y203069D02*
X423000Y210000D01*
X397500Y202500D02*
X402000Y207000D01*
X397000Y184000D02*
X397500Y184500D01*
Y202500D01*
X393500Y160500D02*
X401500Y168500D01*
Y171938D02*
X402360Y172798D01*
X401500Y168500D02*
Y171938D01*
X393500Y153000D02*
Y160500D01*
X408862Y169300D02*
X411640Y172078D01*
X422000Y196000D02*
X431500Y205500D01*
X422000Y170500D02*
Y196000D01*
X431500Y205500D02*
X488500D01*
X412000Y160500D02*
X422000Y170500D01*
X416000Y150500D02*
Y162237D01*
X421818Y168056D02*
X430914D01*
X416000Y162237D02*
X421818Y168056D01*
X412000Y149409D02*
Y160500D01*
X432360Y187360D02*
X434500Y189500D01*
X432360Y169501D02*
Y187360D01*
X430914Y168056D02*
X432360Y169501D01*
X434500Y189500D02*
X481500D01*
X408862Y137000D02*
Y169300D01*
X413862Y132000D02*
X440500D01*
X408862Y137000D02*
X413862Y132000D01*
X443000Y129500D02*
X448000D01*
X440500Y132000D02*
X443000Y129500D01*
X392000Y179000D02*
X397000Y184000D01*
X321500Y179000D02*
X392000D01*
X317000Y183500D02*
Y184000D01*
Y183500D02*
X321500Y179000D01*
X422169Y153831D02*
X431500D01*
X422000Y154000D02*
X422169Y153831D01*
X281240Y77500D02*
Y92500D01*
X290900Y97900D02*
X291000D01*
X285500Y92500D02*
X290900Y97900D01*
X212500Y95000D02*
Y102260D01*
Y95000D02*
X213000Y94500D01*
X195933Y100693D02*
X197500Y102260D01*
X321661Y142139D02*
Y148667D01*
Y142139D02*
X322000Y141800D01*
X297500Y228000D02*
X303500Y222000D01*
X302500Y206500D02*
X311500D01*
X314500Y203500D01*
X337000Y184000D02*
Y196000D01*
X314500Y203500D02*
X329500D01*
X337000Y196000D01*
X291500Y218000D02*
X347000D01*
X289937Y219563D02*
X291500Y218000D01*
X347000Y210500D02*
X347500Y210000D01*
X277500Y210500D02*
X347000D01*
X278063Y228000D02*
X297500D01*
X159531Y299969D02*
X162000Y297500D01*
X200500Y293000D02*
X203858Y289642D01*
X192000Y360900D02*
Y361000D01*
X170435Y371585D02*
X170780Y371240D01*
X170090Y371929D02*
X170435Y371585D01*
X268843Y102157D02*
X272291D01*
X258000Y113000D02*
Y134500D01*
Y113000D02*
X268843Y102157D01*
X257000Y135500D02*
X258000Y134500D01*
X262000Y116500D02*
Y140866D01*
Y116500D02*
X262500Y116000D01*
X272291Y102157D02*
X273563Y100886D01*
Y100000D02*
Y100886D01*
X231500Y66937D02*
Y72142D01*
X246000Y86642D01*
X273760Y77500D02*
Y92500D01*
X263500Y78500D02*
X264500Y77500D01*
X273760D01*
X281240Y92500D02*
X285500D01*
X281437Y99114D02*
Y100000D01*
X277079Y94756D02*
X281437Y99114D01*
X275327Y94756D02*
X277079D01*
X273760Y93189D02*
X275327Y94756D01*
X273760Y92500D02*
Y93189D01*
X257000Y135500D02*
Y140866D01*
X255791Y111158D02*
X273760Y93189D01*
X255343Y111158D02*
X255791D01*
X246000Y120500D02*
X255343Y111158D01*
X252000Y126500D02*
Y140866D01*
X246000Y120500D02*
X252000Y126500D01*
X258740Y164476D02*
Y170000D01*
X257000Y162736D02*
X258740Y164476D01*
X257000Y160000D02*
Y162736D01*
X267000Y160000D02*
X279500D01*
X262000D02*
X267000D01*
X278500Y160146D02*
X279354D01*
X279500Y160000D01*
X259500Y150433D02*
Y156165D01*
X260086Y156751D01*
X261201D01*
X262000Y157550D01*
Y160000D01*
X288000Y172500D02*
Y172500D01*
X278000Y179988D02*
X279946Y178042D01*
X282457D01*
X288000Y172500D01*
Y172500D02*
X294000Y166500D01*
X301000D02*
X302500Y165000D01*
X294000Y166500D02*
X301000D01*
X302500Y152000D02*
Y165000D01*
X294000Y150500D02*
X301000D01*
X302500Y152000D01*
X277311Y191012D02*
X278000D01*
X274957Y193366D02*
X277311Y191012D01*
X274957Y193366D02*
Y194055D01*
X267500Y201512D02*
X274957Y194055D01*
X267500Y201512D02*
Y231000D01*
X281240Y252000D02*
Y252689D01*
X288602Y260051D01*
Y264524D01*
X292433Y268354D01*
X294500D01*
X278071Y232000D02*
X291000D01*
X273760Y236311D02*
Y237000D01*
Y236311D02*
X278071Y232000D01*
X267850Y300284D02*
X279000D01*
X267500Y299933D02*
X267850Y300284D01*
X278500Y340488D02*
X280488Y338500D01*
X299000D01*
X313000Y300000D02*
Y324500D01*
X299000Y338500D02*
X313000Y324500D01*
X278500Y351512D02*
Y377343D01*
X276000Y379843D02*
X278500Y377343D01*
X276000Y379843D02*
Y380500D01*
X267500Y319067D02*
Y321803D01*
X274431Y328735D01*
X276735D01*
X277500Y329500D01*
X140500Y80000D02*
X145602Y74898D01*
X140500Y80000D02*
Y93500D01*
X138000Y96000D02*
X140500Y93500D01*
X138000Y232000D02*
X139750Y230250D01*
Y216750D02*
Y230250D01*
Y216750D02*
X141000Y215500D01*
X150024Y204500D02*
Y205976D01*
X141000Y215000D02*
X150024Y205976D01*
X141000Y215000D02*
Y215500D01*
Y147988D02*
Y161500D01*
Y147988D02*
X150512Y138476D01*
Y137000D02*
Y138476D01*
X197811Y312740D02*
X198500D01*
X189551Y321000D02*
X197811Y312740D01*
X182500Y321000D02*
X189551D01*
X181000Y252500D02*
X182000Y251500D01*
X180500Y252500D02*
X181000D01*
X182000Y251500D02*
X191083D01*
X197343Y245240D01*
X198031D01*
X182000Y185000D02*
X190083D01*
X197311Y177772D01*
X198000D01*
X203358Y75000D02*
X212701Y65658D01*
X220342D01*
X223500Y62500D01*
X181500Y115500D02*
X191051D01*
X196811Y109740D01*
X197500D01*
X203858Y143000D02*
Y155642D01*
X201000Y158500D02*
X203858Y155642D01*
Y210500D02*
Y222142D01*
X201500Y224500D02*
X203858Y222142D01*
X213000Y162500D02*
Y170291D01*
X212000Y161500D02*
X213000Y162500D01*
X214032Y228969D02*
Y237760D01*
Y228969D02*
X214500Y228500D01*
X160500Y96000D02*
X161000Y95500D01*
X150067Y96000D02*
X160500D01*
X150567Y164000D02*
X161000D01*
X161500Y163500D01*
X150067Y232000D02*
X160500D01*
X161500Y231000D01*
X85500Y256500D02*
X87512Y254488D01*
Y246500D02*
Y254488D01*
X76488Y228398D02*
Y246500D01*
X69512Y221421D02*
X76488Y228398D01*
X69512Y216500D02*
Y221421D01*
X76476Y187476D02*
X77500Y188500D01*
X76476Y179500D02*
Y187476D01*
X87500Y171409D02*
Y179500D01*
X70012Y153921D02*
X87500Y171409D01*
X70012Y149000D02*
Y153921D01*
X150567Y169000D02*
X158067D01*
X162000Y172933D01*
Y175000D01*
X150067Y101000D02*
X157421D01*
X161354Y104933D01*
Y107000D01*
X88012Y111500D02*
Y120012D01*
X88500Y120500D01*
X69512Y81000D02*
Y103335D01*
X76988Y110811D01*
Y111500D01*
X535000Y210000D02*
X535500Y209500D01*
X483912Y100412D02*
X486000Y102500D01*
X493228D02*
X501957Y93772D01*
X486000Y102500D02*
X493228D01*
X482086Y99086D02*
Y103086D01*
X484500Y105500D01*
X482000Y99000D02*
X482086Y99086D01*
X484500Y105500D02*
Y108314D01*
X486586Y110400D01*
X489491D01*
X491600Y112509D01*
Y116100D01*
X492500Y117000D01*
Y121016D01*
X495129Y123645D01*
X497645D01*
X498500Y124500D01*
X500709D01*
X504646Y120563D01*
X505532D01*
X489000Y106586D02*
Y106791D01*
X497146Y114937D01*
X488000Y115000D02*
X488333Y115333D01*
X505031Y92500D02*
Y92697D01*
X503957Y93772D02*
X505031Y92697D01*
X501957Y93772D02*
X503957D01*
X500189Y111343D02*
Y113665D01*
Y111343D02*
X501449D01*
X498917Y114937D02*
X500189Y113665D01*
X501449Y111343D02*
X502035Y110757D01*
Y110068D02*
Y110757D01*
Y110068D02*
X504843Y107260D01*
X505532D01*
X509291D01*
X513890Y99102D02*
X516689Y96304D01*
X502366Y99102D02*
X513890D01*
X501291Y100177D02*
Y100374D01*
Y100177D02*
X502366Y99102D01*
X489046Y90546D02*
X489954D01*
X502937Y87657D02*
X503823D01*
X505094Y86386D01*
X502095Y88500D02*
X502937Y87657D01*
X492000Y88500D02*
X502095D01*
X489954Y90546D02*
X492000Y88500D01*
X491640Y172798D02*
Y194860D01*
X486000Y200500D02*
X491640Y194860D01*
X488500Y205500D02*
X497000Y197000D01*
Y184000D02*
Y197000D01*
X502360Y191360D02*
X514000Y203000D01*
X502360Y172078D02*
Y191360D01*
Y172078D02*
X502500Y171938D01*
Y169875D02*
Y171938D01*
X507000Y184000D02*
X511640Y179360D01*
Y170140D02*
Y179360D01*
X507949Y166449D02*
X511640Y170140D01*
X504000Y157799D02*
X507949Y161748D01*
Y166449D01*
X514000Y191000D02*
X517500Y194500D01*
X391165Y122882D02*
X391218Y122935D01*
X533750Y195750D02*
X537500Y192000D01*
X539500Y157586D02*
Y196000D01*
X532500Y203000D02*
X539500Y196000D01*
X537500Y151307D02*
Y192000D01*
X539500Y157586D02*
X540086Y157000D01*
X542291D01*
X537500Y151307D02*
X540807Y148000D01*
X530000Y145949D02*
Y146474D01*
Y145949D02*
X535563Y140386D01*
Y139500D02*
Y140386D01*
X530972Y153063D02*
X531968D01*
X524909Y147000D02*
X530972Y153063D01*
X523132Y147000D02*
X524909D01*
X523132Y144108D02*
X527240Y140000D01*
X516000Y144449D02*
X519760Y140689D01*
X556000Y37000D02*
X559447Y40447D01*
X561000Y132000D02*
X561339Y132339D01*
X542291Y146500D02*
X543563Y147772D01*
Y148000D01*
X540807D02*
X543563D01*
Y155500D02*
Y155728D01*
X542291Y157000D02*
X543563Y155728D01*
X566760Y156000D02*
X573000D01*
X566000Y155240D02*
X566760Y156000D01*
X594500D02*
X596500Y154000D01*
Y127079D02*
Y154000D01*
X593512Y123500D02*
Y124091D01*
X596500Y127079D01*
X576933Y131000D02*
X593500D01*
X592500D02*
X593500D01*
X561339Y132339D02*
Y140417D01*
X481500Y189500D02*
X487000Y184000D01*
X415000Y142000D02*
Y146409D01*
X412000Y149409D02*
X415000Y146409D01*
X442914Y142086D02*
X447000Y138000D01*
X465063Y159000D02*
Y159886D01*
X447000Y138000D02*
X447500D01*
X448488Y137012D01*
X489000Y98000D02*
X494500Y92500D01*
X497551D01*
X430000Y93000D02*
Y115669D01*
X429000Y116669D02*
X430000Y115669D01*
X429000Y116669D02*
X432000Y119669D01*
X565000Y42500D02*
X587000D01*
X550500Y57000D02*
Y62783D01*
Y57000D02*
X565000Y42500D01*
X507000Y37000D02*
X556000D01*
X482500Y144586D02*
Y161658D01*
X483086Y144000D02*
X486437D01*
X482500Y144586D02*
X483086Y144000D01*
X469963Y163900D02*
X480258D01*
X482500Y161658D01*
X465063Y159886D02*
X466335Y161158D01*
X467220D01*
X469963Y163900D01*
X502918Y135500D02*
X504000D01*
X500668Y137749D02*
X502918Y135500D01*
X499935Y137749D02*
X500668D01*
X398000Y95000D02*
X407591D01*
X395000Y92000D02*
X398000Y95000D01*
X390000Y116000D02*
X391000Y115000D01*
Y96000D02*
X395000Y92000D01*
X391000Y96000D02*
Y115000D01*
X380500Y116000D02*
X390000D01*
X379000Y70071D02*
X388342Y79413D01*
Y85343D01*
X395000Y92000D01*
X431500Y120169D02*
X432000Y119669D01*
X396000Y72500D02*
X401000Y67500D01*
X408063D01*
X430488Y88512D02*
X440500Y78500D01*
X408500Y88512D02*
X430488D01*
X407591Y95000D02*
X410091Y97500D01*
X404000Y102500D02*
X406000Y100500D01*
X410091Y97500D02*
X419988D01*
X440500Y78500D02*
X445219D01*
X409512D02*
X425718D01*
X408500Y77488D02*
X409512Y78500D01*
X408063Y58614D02*
Y59500D01*
Y58614D02*
X409335Y57342D01*
X410220D01*
X416563Y51000D01*
X421500D01*
X415937Y60386D02*
Y67500D01*
Y59500D02*
Y60386D01*
X419051Y63500D02*
X425718D01*
X415937Y60386D02*
X419051Y63500D01*
X519760Y140000D02*
Y140689D01*
X528000Y130870D02*
X530370Y128500D01*
X529500Y124000D02*
X529870Y123630D01*
Y115917D02*
Y123630D01*
X534000Y122221D02*
Y125500D01*
X528000Y130870D02*
Y130959D01*
X531000Y128500D02*
X534000Y125500D01*
X530370Y128500D02*
X531000D01*
X504000Y135500D02*
X515583D01*
X530500Y108000D02*
X534744Y112244D01*
X534602Y93468D02*
Y96898D01*
X530500Y101000D02*
X534602Y96898D01*
X534744Y115673D02*
X534988Y115917D01*
X537500Y93130D02*
Y101000D01*
X534744Y112244D02*
Y115673D01*
X534988Y93083D02*
X535374Y92697D01*
X537547Y93083D02*
X537933Y92697D01*
X537500Y93130D02*
X537547Y93083D01*
X543563Y108500D02*
X544563Y107500D01*
X545563Y108500D01*
X538000D02*
X543563D01*
X534573Y3644D02*
X537740Y6811D01*
X522356Y3644D02*
X534573D01*
X517000Y9000D02*
X522356Y3644D01*
X556500Y125000D02*
X557000Y125500D01*
Y124528D02*
Y125500D01*
X505094Y85500D02*
Y86386D01*
X448000Y129500D02*
Y130000D01*
X440500Y137500D02*
X448000Y130000D01*
X440500Y137500D02*
Y160000D01*
X449000Y130500D02*
X472500D01*
X507770Y69868D02*
X511000Y73098D01*
X489632Y69868D02*
X507770D01*
X563320Y124959D02*
X564000D01*
X569551Y70000D02*
X575301D01*
X569551Y70598D02*
Y81500D01*
Y70500D02*
Y70598D01*
Y70098D02*
Y70500D01*
Y70598D02*
X569650Y70500D01*
X537740Y7000D02*
Y7500D01*
Y6811D02*
Y7000D01*
X544260D01*
X483400Y64699D02*
X484463D01*
X483400Y48800D02*
Y64699D01*
X170780Y379409D02*
X185780D01*
X141500Y348000D02*
Y364500D01*
Y348000D02*
X142265Y347235D01*
X523000Y59000D02*
X526784Y62783D01*
X558500Y147760D02*
X559189D01*
X465500Y71252D02*
X473000D01*
X465500Y63772D02*
X473000D01*
X461272D02*
X465500D01*
X457689Y59500D02*
X460686Y62497D01*
Y63186D02*
X461272Y63772D01*
X460686Y62497D02*
Y63186D01*
X526784Y62783D02*
X530500D01*
X534500Y81500D02*
X537000Y79000D01*
X497000Y134500D02*
X498000D01*
X492284Y129784D02*
X497000Y134500D01*
X498000D02*
X501063Y131437D01*
X513031D01*
X490614Y129220D02*
X491178Y129784D01*
X492284D01*
X515583Y135500D02*
X519646Y131437D01*
X524000Y106500D02*
X526738Y109238D01*
X521900Y109900D02*
X524366Y112366D01*
X519400Y109900D02*
X521900D01*
X526738Y109238D02*
Y112879D01*
X526925Y113066D01*
Y115532D01*
X518500Y103082D02*
Y109000D01*
X519400Y109900D01*
X521620Y112620D02*
X521807Y112807D01*
X520611Y111500D02*
X521620Y112509D01*
X515500Y111500D02*
X520611D01*
X521620Y112509D02*
Y112620D01*
X521807Y112807D02*
Y115532D01*
X514500Y110500D02*
X515500Y111500D01*
X514500Y107000D02*
X516111D01*
X514500D02*
Y110500D01*
X501291Y100374D02*
Y104689D01*
X516689Y93468D02*
Y96304D01*
X518500Y103082D02*
X520000Y101582D01*
Y100500D02*
Y101582D01*
X526925Y115532D02*
X527311Y115917D01*
X524366Y115532D02*
X524752Y115917D01*
X524366Y112366D02*
Y115532D01*
X521807D02*
X522193Y115917D01*
X522000Y79000D02*
X523500Y80500D01*
X530000Y79000D02*
X532900Y81900D01*
X522000Y79000D02*
Y79500D01*
X145602Y73421D02*
X150024Y69000D01*
X145602Y73421D02*
Y74898D01*
X134500Y48800D02*
X145602Y59902D01*
Y64579D01*
X150024Y69000D01*
X252500Y286000D02*
Y299933D01*
X246500Y280000D02*
X252500Y286000D01*
X259000Y274949D02*
Y292562D01*
Y274949D02*
X273563Y260386D01*
X257500Y294062D02*
Y299933D01*
Y294062D02*
X259000Y292562D01*
X273563Y259500D02*
Y260386D01*
X246500Y280000D02*
X272193Y254307D01*
Y253567D02*
Y254307D01*
Y253567D02*
X273760Y252000D01*
X281240Y244500D02*
Y252000D01*
Y237000D02*
Y244500D01*
X281437Y258614D02*
Y259500D01*
X277079Y254256D02*
X281437Y258614D01*
X275327Y254256D02*
X277079D01*
X273760Y252689D02*
X275327Y254256D01*
X273760Y252000D02*
Y252689D01*
Y244500D02*
Y252000D01*
Y237000D02*
Y244500D01*
X260000Y309500D02*
X262500Y312000D01*
Y319067D01*
X267500D01*
X257500D02*
Y326571D01*
X259240Y328311D01*
Y329000D01*
X189869Y101932D02*
X190000Y102063D01*
X189869Y97631D02*
Y101932D01*
X183237Y91000D02*
X189869Y97631D01*
X150067Y91000D02*
X183237D01*
X169500Y75000D02*
X195193Y100693D01*
X195933D01*
X205000Y109740D02*
X212500D01*
X197500D02*
X205000D01*
Y102260D02*
X212500D01*
X197500D02*
X205000D01*
X196811D02*
X197500D01*
X190000Y109937D02*
X190886D01*
X195244Y105579D01*
Y103827D02*
Y105579D01*
Y103827D02*
X196811Y102260D01*
X190500Y166500D02*
Y170063D01*
X150567Y159000D02*
X183000D01*
X190500Y166500D01*
X170000Y143000D02*
X195724Y168724D01*
X196433D01*
X198000Y170291D01*
X205500Y177772D02*
X213000D01*
X198000D02*
X205500D01*
Y170291D02*
X213000D01*
X198000D02*
X205500D01*
X197311D02*
X198000D01*
X190500Y177937D02*
X191386D01*
X195744Y173579D01*
Y171858D02*
Y173579D01*
Y171858D02*
X197311Y170291D01*
X190000Y245437D02*
X190886D01*
X195776Y240547D01*
Y239327D02*
Y240547D01*
Y239327D02*
X197343Y237760D01*
X198031D01*
X189500Y237063D02*
X190000Y237563D01*
X189500Y234000D02*
Y237063D01*
X150067Y227000D02*
X182500D01*
X189500Y234000D01*
X179425Y219843D02*
X197343Y237760D01*
X179342Y219843D02*
X179425D01*
X170000Y210500D02*
X179342Y219843D01*
X206031Y237760D02*
X214032D01*
X198031D02*
X206031D01*
Y245240D02*
X214032D01*
X198031D02*
X206031D01*
X203858Y277969D02*
Y289642D01*
X211500Y294000D02*
X214500Y297000D01*
Y305260D01*
X197811D02*
X198500D01*
X179862Y287311D02*
X197811Y305260D01*
X179342Y287311D02*
X179862D01*
X170000Y277969D02*
X179342Y287311D01*
X121000Y93480D02*
X125716D01*
X128197Y91000D01*
X130933D01*
X126457Y161240D02*
X128697Y159000D01*
X121500Y161240D02*
X126457D01*
X128697Y159000D02*
X131433D01*
Y164000D02*
X138500D01*
X141000Y161500D01*
X131433Y164000D02*
Y169000D01*
X130933Y96000D02*
X138000D01*
X130933D02*
Y101000D01*
X150067Y86000D02*
X158500D01*
X169500Y75000D01*
X150567Y154000D02*
X159000D01*
X170000Y143000D01*
X150067Y222000D02*
X158500D01*
X170000Y210500D01*
X150567Y289968D02*
X158000D01*
X170000Y277969D01*
X128197Y227000D02*
X130933D01*
X121000Y228740D02*
X126457D01*
X128197Y227000D01*
X130933Y232000D02*
X138000D01*
X130933D02*
Y237000D01*
X123929Y294969D02*
X131433D01*
X122189Y296709D02*
X123929Y294969D01*
X121500Y296709D02*
X122189D01*
X131433Y299969D02*
X138500D01*
X141000Y297468D01*
X131433Y299969D02*
Y304969D01*
X140500Y296969D02*
X141000Y297468D01*
X140500Y281000D02*
Y296969D01*
X150000Y271969D02*
Y273445D01*
X143210Y280235D02*
X150000Y273445D01*
X141265Y280235D02*
X143210D01*
X140500Y281000D02*
X141265Y280235D01*
X82512Y325012D02*
X83000Y325500D01*
X82512Y315000D02*
Y325012D01*
X150146Y305390D02*
Y316469D01*
Y305390D02*
X150567Y304969D01*
X69000Y284480D02*
X69012Y284469D01*
X69000Y284480D02*
Y302000D01*
X71488Y304488D02*
Y315000D01*
X69000Y302000D02*
X71488Y304488D01*
X192657Y310413D02*
X197811Y305260D01*
X192657Y310413D02*
Y311665D01*
X191386Y312937D02*
X192657Y311665D01*
X190500Y312937D02*
X191386D01*
X198500Y312740D02*
X206500D01*
X214500D01*
X206500Y305260D02*
X214500D01*
X198500D02*
X206500D01*
X150567Y294969D02*
X158012D01*
X158581Y294400D01*
X178951D01*
X189614Y305063D01*
X190500D01*
X170780Y344500D02*
Y371240D01*
X178279Y371760D02*
X186638D01*
X188035Y370362D01*
Y364965D02*
Y370362D01*
Y364965D02*
X192000Y361000D01*
X150567Y299969D02*
X159531D01*
X532000Y54000D02*
X535500Y57500D01*
X556500Y97500D02*
X559000Y100000D01*
X559719Y95370D02*
X561248Y96900D01*
X558119Y88119D02*
Y96619D01*
X559719Y88781D02*
X563449Y85051D01*
X556500Y87000D02*
X558000Y85500D01*
X558119Y88119D02*
X560000Y86237D01*
X559719Y88781D02*
Y95370D01*
X556500Y87000D02*
Y97500D01*
X558119Y96619D02*
X560000Y98500D01*
X561248Y96900D02*
X564988D01*
X329400Y133400D02*
X332000Y136000D01*
X327343Y145773D02*
X332000Y141116D01*
Y136000D02*
Y141116D01*
X327500Y138000D02*
X328000Y138500D01*
Y142000D01*
X324372Y145628D02*
X328000Y142000D01*
X324600Y133400D02*
X329400D01*
X317158Y140842D02*
X324600Y133400D01*
X457728Y71252D02*
X465500D01*
X457000Y70524D02*
X457728Y71252D01*
X451603Y70524D02*
X457000D01*
X448626Y73500D02*
X451603Y70524D01*
X445219Y73500D02*
X448626D01*
X445219Y68500D02*
X448626D01*
X453957Y63170D01*
Y61854D02*
Y63170D01*
Y61854D02*
X456311Y59500D01*
X457000D01*
X457689D01*
X360488Y121500D02*
X361500Y120488D01*
X223500Y62500D02*
X226665Y65665D01*
X230228D02*
X231500Y66937D01*
X226665Y65665D02*
X230228D01*
X352900Y48800D02*
X353071Y48971D01*
X517500Y75000D02*
Y80083D01*
X522000Y70500D02*
X529260D01*
X517500Y75000D02*
X522000Y70500D01*
X508051Y55689D02*
X511400Y59037D01*
X512000Y60500D02*
Y60701D01*
X511400Y59037D02*
X514949Y55488D01*
X511000Y59437D02*
X511400Y59037D01*
X540500Y55500D02*
Y62783D01*
X511000Y59437D02*
Y60500D01*
X514949Y55488D02*
X518230D01*
X527718Y46000D01*
X531000D01*
X540500Y55500D01*
X505162Y42000D02*
X531000D01*
X545000Y56000D02*
Y62283D01*
X531000Y42000D02*
X545000Y56000D01*
X535500Y57500D02*
Y62783D01*
X571322Y132678D02*
X575255D01*
X576933Y131000D01*
X591240Y128740D02*
X593500Y131000D01*
X569500Y134500D02*
Y144260D01*
Y134500D02*
X571322Y132678D01*
X558500Y155240D02*
X566000D01*
X564000Y124418D02*
Y124959D01*
X558779Y117583D02*
X559165Y117968D01*
Y120804D01*
X563320Y124959D01*
X566000Y147760D02*
X566689D01*
X565311D02*
X566000D01*
X568256Y145504D02*
X569500Y144260D01*
X568256Y145504D02*
Y146193D01*
X564000Y124418D02*
X566071Y122347D01*
X566689Y147760D02*
X568256Y146193D01*
X572500Y128740D02*
X591240D01*
X464563Y159500D02*
X465063Y159000D01*
X445500Y159500D02*
X464563D01*
X442914Y142086D02*
Y156914D01*
X445500Y159500D01*
X440500Y160000D02*
X446000Y165500D01*
X484914D01*
X485500Y159937D02*
X486437Y159000D01*
X485500Y159937D02*
Y164914D01*
X484914Y165500D02*
X485500Y164914D01*
X514000Y170520D02*
Y191000D01*
Y170520D02*
X523583Y160937D01*
X524469D01*
X510799Y153063D02*
X516968D01*
X504000Y146264D02*
X510799Y153063D01*
X504000Y145732D02*
Y146264D01*
X488333Y115333D02*
Y126661D01*
Y129220D02*
X490614D01*
X553276Y117968D02*
Y120804D01*
Y117968D02*
X553661Y117583D01*
X566071Y117968D02*
Y122347D01*
X553276Y120804D02*
X557000Y124528D01*
X556220Y117583D02*
X558779D01*
X566071Y117968D02*
X566457Y117583D01*
X519646Y131437D02*
X520532D01*
X491500Y137000D02*
X492500Y136000D01*
Y133616D02*
Y136000D01*
X491227Y132343D02*
X492500Y133616D01*
X488500Y137000D02*
X491500D01*
X486500Y139000D02*
X488500Y137000D01*
X480000Y139000D02*
X486500D01*
X498032Y128437D02*
X505532D01*
X506803Y127165D02*
X509188D01*
X505532Y128437D02*
X506803Y127165D01*
X509188D02*
X509918Y126435D01*
X523645D01*
X525032Y125048D01*
Y121567D02*
Y125048D01*
X491178Y132343D02*
X491227D01*
X490614Y131780D02*
X491178Y132343D01*
X488333Y131780D02*
X490614D01*
X448488Y137012D02*
X458500D01*
X497146Y114937D02*
X498032D01*
X465563Y153000D02*
X471000D01*
X473400Y135100D02*
Y150600D01*
X471000Y153000D02*
X473400Y150600D01*
X461721Y149158D02*
X465563Y153000D01*
X459563Y147000D02*
Y147886D01*
X460835Y149158D01*
X461721D01*
X467437Y147000D02*
X468000Y146437D01*
X407000Y120063D02*
X407886D01*
X411140Y116809D01*
X413691D01*
X417000Y113500D01*
X414437Y109500D02*
X420500D01*
X410886Y113937D02*
X412157Y112665D01*
Y111779D02*
X414437Y109500D01*
X412157Y111779D02*
Y112665D01*
X410000Y113937D02*
X410886D01*
X422600Y111600D02*
Y122991D01*
X420500Y109500D02*
X422600Y111600D01*
X395980Y125441D02*
X396355Y125065D01*
X417474D01*
X417509Y125100D01*
X410113Y122935D02*
X411548Y121500D01*
X419000D01*
X417509Y125100D02*
X420491D01*
X422600Y122991D01*
X307500Y120787D02*
Y136063D01*
X324220Y157333D02*
X324372Y157484D01*
Y161372D01*
X337000Y174000D01*
X328000Y162000D02*
X332000D01*
X326931Y157484D02*
Y160931D01*
X328000Y162000D01*
X326780Y157333D02*
X326931Y157484D01*
X308449Y157937D02*
X315000D01*
X308449D02*
X309658Y159146D01*
X308386Y157874D02*
X308449Y157937D01*
X307500Y157874D02*
X308386D01*
X309658Y159146D02*
Y160031D01*
X310500Y160874D01*
Y177500D01*
X317000Y184000D01*
X396500Y101000D02*
Y110257D01*
X395000Y99500D02*
X396500Y101000D01*
X399700Y108486D02*
Y113589D01*
X398000Y111491D02*
X398100Y111391D01*
X395000Y113000D02*
X396272Y111728D01*
X398100Y106288D02*
Y111391D01*
X396272Y110485D02*
Y111728D01*
Y110485D02*
X396500Y110257D01*
X399700Y108486D02*
X400851Y107335D01*
X398100Y106288D02*
X401888Y102500D01*
X399600Y113689D02*
Y119931D01*
X398000Y111491D02*
Y116595D01*
X399600Y113689D02*
X399700Y113589D01*
X395000Y113000D02*
Y113886D01*
X391218Y122935D02*
X410113D01*
X401888Y102500D02*
X404000D01*
X410000Y106063D02*
X411272Y104791D01*
X412697D01*
X414090Y103398D01*
X415567D01*
X419988Y98976D01*
Y97500D02*
Y98976D01*
X512968Y84614D02*
Y85500D01*
Y84614D02*
X517500Y80083D01*
X563500Y47500D02*
X582000D01*
X555500Y55500D02*
X563500Y47500D01*
X555500Y55500D02*
Y62783D01*
X504000Y157799D02*
X512945D01*
X516083Y160937D01*
X516968D01*
X531083D02*
X531968D01*
X529811Y159665D02*
X531083Y160937D01*
X529811Y157520D02*
Y159665D01*
X525354Y153063D02*
X529811Y157520D01*
X524469Y153063D02*
X525354D01*
X516968D02*
X524469D01*
X277500Y219563D02*
X289937D01*
X277500Y227437D02*
X278063Y228000D01*
X277500Y202626D02*
X277626Y202500D01*
X308500D01*
X327000Y184000D01*
X547454Y130954D02*
Y133026D01*
X545723Y134757D02*
X547454Y133026D01*
X542254Y85191D02*
Y96806D01*
X540306Y134757D02*
X545723D01*
X547454Y130954D02*
X550409Y128000D01*
X550563Y132937D02*
X552000D01*
X545694Y136357D02*
X547143D01*
X550563Y132937D01*
X543437Y138614D02*
X545694Y136357D01*
X553661Y134598D02*
Y140417D01*
X552000Y132937D02*
X553661Y134598D01*
X554000Y128000D02*
X556220Y130220D01*
X550409Y128000D02*
X554000D01*
X556220Y130220D02*
Y140417D01*
X535563Y131000D02*
Y138614D01*
X536835Y137343D01*
X537720D01*
X540306Y134757D01*
X543437Y138614D02*
Y139500D01*
X545237Y128842D02*
X549079Y125000D01*
X556500D01*
X545000Y114000D02*
Y124500D01*
X546226Y112774D02*
X547774D01*
X545000Y114000D02*
X546226Y112774D01*
X549408Y106236D02*
Y111141D01*
X547774Y112774D02*
X549408Y111141D01*
X552994Y108943D02*
X553437Y109386D01*
X548959Y103136D02*
X553437Y107614D01*
Y108500D01*
X545063Y100500D02*
X546335Y101772D01*
Y103163D01*
X549408Y106236D01*
X545063Y99614D02*
Y100500D01*
X543500Y126000D02*
X545000Y124500D01*
X541677Y126000D02*
X543500D01*
X535563Y130114D02*
Y131000D01*
Y130114D02*
X536835Y128842D01*
X538835D01*
X541677Y126000D01*
X538500Y123500D02*
X539720Y122280D01*
X544709Y128842D02*
X545237D01*
X543437Y130114D02*
X544709Y128842D01*
X543437Y130114D02*
Y131000D01*
X548959Y91056D02*
Y103136D01*
X551411Y111400D02*
X551423D01*
X553437Y109386D01*
X548929Y113882D02*
X551411Y111400D01*
X548929Y113882D02*
Y117197D01*
X548543Y117583D02*
X548929Y117197D01*
X550437Y85500D02*
Y89578D01*
X548959Y91056D02*
X550437Y89578D01*
X541291Y84228D02*
X542254Y85191D01*
X541291Y77291D02*
Y84228D01*
X539000Y75000D02*
X541291Y77291D01*
X545807Y81740D02*
Y92319D01*
X545126Y93000D02*
X545807Y92319D01*
X548563Y78000D02*
Y82740D01*
X550437Y84614D01*
Y85500D01*
X550687Y69364D02*
X552551Y67500D01*
X550687Y69364D02*
X550937Y69614D01*
X549665Y68343D02*
X550687Y69364D01*
X545000Y80933D02*
X545807Y81740D01*
X545000Y78422D02*
Y80933D01*
X542254Y96806D02*
X545063Y99614D01*
X545290Y66742D02*
X546890Y68343D01*
X540191Y73613D02*
X545000Y78422D01*
X546890Y68343D02*
X549665D01*
X540191Y67387D02*
Y73613D01*
Y67387D02*
X540836Y66742D01*
X550937Y69614D02*
Y70500D01*
X540836Y66742D02*
X545290D01*
X550937Y70500D02*
X551935Y71498D01*
X545563Y107614D02*
Y108500D01*
X541500Y103551D02*
X545563Y107614D01*
X541500Y98500D02*
Y103551D01*
X540106Y93083D02*
Y97106D01*
X541500Y98500D01*
X552937Y100500D02*
Y101386D01*
X558843Y107291D01*
Y109165D01*
X560114Y110437D01*
X561000D01*
X553000Y93000D02*
Y100437D01*
X552937Y100500D02*
X553000Y100437D01*
X559728Y111709D02*
X561000Y110437D01*
X557791Y111709D02*
X559728D01*
X556500Y113000D02*
X557791Y111709D01*
X551488Y113586D02*
Y117197D01*
Y113586D02*
X552074Y113000D01*
X556500D01*
X551102Y117583D02*
X551488Y117197D01*
X567614Y102563D02*
X568500D01*
X566342Y103835D02*
X567614Y102563D01*
X566342Y103835D02*
Y105980D01*
X561886Y110437D02*
X566342Y105980D01*
X561000Y110437D02*
X561886D01*
X533071Y75000D02*
X539000D01*
X529260Y71189D02*
X533071Y75000D01*
X534500Y81500D02*
Y87000D01*
X532429Y89071D02*
X534500Y87000D01*
X529870Y89130D02*
X532900Y86100D01*
Y81900D02*
Y86100D01*
X523500Y80500D02*
Y87000D01*
X519500Y85812D02*
Y86000D01*
X527406Y86094D02*
X528203Y85297D01*
X527406Y86094D02*
Y92988D01*
X498032Y114937D02*
X498917D01*
X512968Y85500D02*
X514240Y86772D01*
X511571Y90630D02*
X511957Y91016D01*
X514240Y92807D02*
X514516Y93083D01*
X511957Y91016D02*
Y93083D01*
X513031Y122563D02*
X513244D01*
X514516Y121291D01*
X522193Y88693D02*
Y93083D01*
X519634Y115917D02*
X520020Y116303D01*
X519646Y122563D02*
X520532D01*
X532429Y89071D02*
Y93083D01*
X527311D02*
X527406Y92988D01*
X529870Y89130D02*
Y93083D01*
X534602Y93468D02*
X534988Y93083D01*
X539720Y116303D02*
X540106Y115917D01*
X498032Y114937D02*
Y120563D01*
X505532Y114740D02*
Y120563D01*
X514240Y86772D02*
Y92807D01*
X514516Y115917D02*
Y121291D01*
X511957Y109925D02*
Y115917D01*
X519500Y86000D02*
X522193Y88693D01*
X520020Y119776D02*
X520606Y120362D01*
X520020Y116303D02*
Y119776D01*
X520606Y120362D02*
X523827D01*
X532429Y115917D02*
Y120650D01*
X539720Y116303D02*
Y122280D01*
X509339Y90630D02*
X511571D01*
X509291Y107260D02*
X511957Y109925D01*
X498917Y107063D02*
X501291Y104689D01*
X516689Y93468D02*
X517075Y93083D01*
Y115917D02*
X517453Y116295D01*
X532429Y120650D02*
X534000Y122221D01*
X505094Y86386D02*
X509339Y90630D01*
X523500Y87000D02*
X524752Y88252D01*
Y93083D01*
X517453Y116295D02*
Y120370D01*
X519646Y122563D01*
X523827Y120362D02*
X525032Y121567D01*
X560272Y102563D02*
X561000D01*
X559000Y101291D02*
X560272Y102563D01*
X559000Y100000D02*
Y101291D01*
X560000Y98500D02*
X564000D01*
X558000Y82000D02*
Y85500D01*
X556437Y78000D02*
X557709Y79272D01*
Y81709D01*
X558000Y82000D01*
X568500Y110437D02*
Y113709D01*
X567079Y115130D02*
X568500Y113709D01*
X566843Y115130D02*
X567079D01*
X566457Y115516D02*
X566843Y115130D01*
X566457Y115516D02*
Y117583D01*
X529260Y70500D02*
Y71189D01*
X542563Y71386D02*
X547020Y75842D01*
X547291D01*
X548563Y77114D01*
Y78000D01*
X552551Y67500D02*
X556500D01*
X556437Y78000D02*
X557709Y76728D01*
Y69291D02*
Y76728D01*
X560000Y67000D02*
X569177D01*
X570177Y66000D02*
X575000D01*
X569177Y67000D02*
X570177Y66000D01*
X557709Y69291D02*
X560000Y67000D01*
X558000Y59000D02*
Y66000D01*
X556500Y67500D02*
X558000Y66000D01*
Y59000D02*
X562643Y54357D01*
X587357D01*
X592000Y59000D01*
X575000Y66000D02*
X582000Y59000D01*
X564000Y98500D02*
X564670Y99170D01*
X565658Y97570D02*
X573070D01*
X572070Y99170D02*
X575400Y102500D01*
X573919Y95970D02*
X581063Y103114D01*
X564988Y96900D02*
X565658Y97570D01*
X573070D02*
X577051Y101551D01*
X566321Y95970D02*
X573919D01*
X563449Y93098D02*
X566321Y95970D01*
X564670Y99170D02*
X572070D01*
X548500Y140461D02*
Y151677D01*
X551437Y154614D01*
X548500Y140461D02*
X548543Y140417D01*
X551437Y154614D02*
Y155500D01*
X551102Y140417D02*
Y147665D01*
X551437Y148000D01*
X556220Y140417D02*
Y146169D01*
X557811Y147760D01*
X558500D01*
X562144Y144593D02*
X565311Y147760D01*
X560120Y144593D02*
X562144D01*
X559165Y143638D02*
X560120Y144593D01*
X558779Y140417D02*
X559165Y140803D01*
Y143638D01*
X571811Y121260D02*
X572500D01*
X569530Y118979D02*
X571811Y121260D01*
X569530Y118290D02*
Y118979D01*
X568823Y117583D02*
X569530Y118290D01*
X566457Y117583D02*
X568823D01*
X566457Y134095D02*
Y140417D01*
Y134095D02*
X571811Y128740D01*
X572500D01*
X578500Y119476D02*
Y119512D01*
X582488Y122909D02*
Y123500D01*
X579543Y120555D02*
X580134D01*
X582488Y122909D01*
X578500Y119512D02*
X579543Y120555D01*
X575400Y116376D02*
X578500Y119476D01*
X575400Y102500D02*
Y116376D01*
X316800Y49500D02*
X317500Y48800D01*
X279500Y66937D02*
X280386D01*
X271500D02*
X279500D01*
X263500D02*
X271500D01*
X255500D02*
X263500D01*
X247500D02*
X255500D01*
X239500D02*
X247500D01*
X231500D02*
X239500D01*
X434500Y32500D02*
Y43400D01*
X432500Y30500D02*
X434500Y32500D01*
Y43400D02*
X440400Y49300D01*
X429608Y30500D02*
X432500D01*
X425000Y25892D02*
X429608Y30500D01*
X425000Y11000D02*
Y25892D01*
X423000Y12500D02*
Y31900D01*
X428600Y37500D01*
X263000Y42500D02*
Y52449D01*
X260500Y42500D02*
Y51500D01*
X257500Y54500D02*
X260500Y51500D01*
X255500Y59063D02*
X256386D01*
X263000Y52449D01*
X250243Y54500D02*
X257500D01*
X249658Y55086D02*
Y57791D01*
Y55086D02*
X250243Y54500D01*
X247500Y59063D02*
X248386D01*
X249658Y57791D01*
X379000Y43700D02*
X384600Y49300D01*
X379000Y36000D02*
Y43700D01*
X272000Y59063D02*
X272386D01*
X271500D02*
X272000D01*
X390500Y43400D02*
X396400Y49300D01*
X390500Y35000D02*
Y43400D01*
X272386Y59063D02*
X273657Y57791D01*
X264386Y59063D02*
X265657Y57791D01*
Y55343D02*
Y57791D01*
Y55343D02*
X269500Y51500D01*
X230614Y59063D02*
X231500D01*
X224148Y52597D02*
X230614Y59063D01*
X224148Y50448D02*
Y52597D01*
X223000Y49300D02*
X224148Y50448D01*
X254300Y49500D02*
X254500Y49300D01*
X245500Y49500D02*
X254300D01*
X243000Y52000D02*
X245500Y49500D01*
X243000Y52000D02*
Y55563D01*
X239500Y59063D02*
X240386D01*
X241657Y57791D01*
Y56906D02*
Y57791D01*
Y56906D02*
X243000Y55563D01*
X279500Y55800D02*
Y59063D01*
Y55800D02*
X286000Y49300D01*
X48500Y25500D02*
X49728Y26728D01*
X53126Y23012D02*
Y23126D01*
X55384Y25384D02*
Y32884D01*
X53126Y23126D02*
X55384Y25384D01*
X48469Y17469D02*
Y18354D01*
X53126Y23012D01*
X40595Y10905D02*
X44500Y7000D01*
X40626Y17500D02*
Y25500D01*
X40595Y10905D02*
Y17469D01*
X49728Y26728D02*
Y50051D01*
X63921Y41421D02*
X64026D01*
X55384Y32884D02*
X63921Y41421D01*
X64026D02*
X71500Y48895D01*
X49684Y50095D02*
X49728Y50051D01*
X587000Y42500D02*
X592000Y47500D01*
X568500Y25000D02*
X574500Y31000D01*
X587000D02*
X592000Y36000D01*
X574500Y31000D02*
X587000D01*
X568500Y19410D02*
Y25000D01*
X566051Y13500D02*
Y16961D01*
X568500Y19410D01*
X581500Y35500D02*
X582000Y36000D01*
X565000Y35500D02*
X581500D01*
X563000Y33500D02*
X565000Y35500D01*
X563000Y9354D02*
X564090Y8264D01*
X563000Y9354D02*
Y33500D01*
X567437Y6000D02*
Y6886D01*
X566165Y8157D02*
X567437Y6886D01*
X565279Y8157D02*
X566165D01*
X565173Y8264D02*
X565279Y8157D01*
X564090Y8264D02*
X565173D01*
X559563Y13114D02*
X559949Y13500D01*
X559563Y6000D02*
Y13114D01*
X575301Y70000D02*
X579445Y65857D01*
X587357D01*
X592000Y70500D01*
X569551Y81500D02*
Y93000D01*
X560000Y79142D02*
Y86237D01*
X561642Y77500D02*
X562500D01*
X560000Y79142D02*
X561642Y77500D01*
X563449Y70000D02*
Y76551D01*
X562500Y77500D02*
X563449Y76551D01*
X580988Y112909D02*
Y113500D01*
X577051Y108972D02*
X580988Y112909D01*
X577051Y101551D02*
Y108972D01*
X563449Y81500D02*
Y85051D01*
X581063Y103114D02*
Y104000D01*
X563449Y93000D02*
Y93098D01*
X594500Y87500D02*
X597000Y90000D01*
X593512Y122909D02*
X597000Y119421D01*
Y90000D02*
Y119421D01*
X593512Y122909D02*
Y123500D01*
X589287Y87500D02*
X594500D01*
X586643Y84857D02*
X589287Y87500D01*
X586643Y80077D02*
Y84857D01*
X586500Y75000D02*
Y79933D01*
X586643Y80077D01*
X582000Y70500D02*
X586500Y75000D01*
X591000Y99500D02*
X592914D01*
X593500Y113488D02*
X593512Y113500D01*
X593500Y100086D02*
Y113488D01*
X592914Y99500D02*
X593500Y100086D01*
X586832Y95332D02*
X591000Y99500D01*
X582000Y82000D02*
X582110Y82110D01*
Y87043D01*
X586832Y91766D01*
Y95332D01*
X582000Y93500D02*
X587665Y99165D01*
Y102728D01*
X588937Y104000D01*
X333500Y151012D02*
Y160500D01*
X332000Y162000D02*
X333500Y160500D01*
X336910Y147012D02*
X337500D01*
X334555Y149366D02*
Y149957D01*
X333500Y151012D02*
X334555Y149957D01*
Y149366D02*
X336910Y147012D01*
X331900Y144100D02*
X333500Y142500D01*
X331900Y144100D02*
Y156747D01*
X331314Y157333D02*
X331900Y156747D01*
X329339Y157333D02*
X331314D01*
X262500Y292500D02*
X265000Y290000D01*
X262500Y292500D02*
Y299933D01*
X545000Y62283D02*
X545500Y62783D01*
X484463Y64699D02*
X489632Y69868D01*
X477500Y40000D02*
X479500Y42000D01*
X486000D01*
X477500Y34000D02*
Y40000D01*
X486000Y42000D02*
X489500Y45500D01*
X489700Y31500D02*
X495200Y37000D01*
X480000Y31500D02*
X489700D01*
X477500Y34000D02*
X480000Y31500D01*
X489500Y45500D02*
Y52500D01*
X496299Y59299D02*
Y65000D01*
X489500Y52500D02*
X496299Y59299D01*
X483400Y37000D02*
X488695D01*
X494195Y42500D01*
X499000D01*
X501000Y44500D02*
Y54000D01*
X499000Y42500D02*
X501000Y44500D01*
X502689Y55689D02*
X508051D01*
X501000Y54000D02*
X502689Y55689D01*
X500200Y37038D02*
X505162Y42000D01*
X495238Y37038D02*
X500200D01*
X495200Y37000D02*
X495238Y37038D01*
X536740Y65697D02*
Y70500D01*
X535500Y64457D02*
X536740Y65697D01*
X535500Y62783D02*
Y64457D01*
X530500Y62783D02*
Y69260D01*
X529260Y70500D02*
X530500Y69260D01*
X545500Y16240D02*
Y23216D01*
X544260Y15000D02*
X545500Y16240D01*
X540500Y18449D02*
Y23216D01*
X537740Y15689D02*
X540500Y18449D01*
X537740Y15000D02*
Y15689D01*
X555500Y11449D02*
Y23216D01*
X551740Y7689D02*
X555500Y11449D01*
X551740Y7000D02*
Y7689D01*
X550500Y16240D02*
Y23216D01*
Y16240D02*
X551740Y15000D01*
X530260Y7000D02*
Y7689D01*
X533831Y11260D01*
X534000D01*
X530500Y15240D02*
Y23216D01*
X530260Y15000D02*
X530500Y15240D01*
X534000Y20043D02*
X535500Y21543D01*
Y23216D01*
X534000Y11260D02*
Y20043D01*
X472937Y159000D02*
X478563D01*
Y144000D02*
X478572Y143991D01*
Y140428D02*
Y143991D01*
Y140428D02*
X480000Y139000D01*
X475586Y137193D02*
X483414D01*
X484000Y136607D01*
X475000Y137779D02*
X475586Y137193D01*
X486265Y134339D02*
X488333D01*
X484000Y136604D02*
X486265Y134339D01*
X484000Y136604D02*
Y136607D01*
X475000Y137779D02*
Y156051D01*
X473400Y135100D02*
X476569Y131931D01*
X472937Y158114D02*
X475000Y156051D01*
X472937Y158114D02*
Y159000D01*
X478563Y144000D02*
Y151500D01*
X486437D02*
Y159000D01*
X458500Y137012D02*
X459189D01*
X476569Y131931D02*
X479516D01*
X479667Y131780D01*
X472500Y130500D02*
X476275Y126725D01*
X479604D02*
X479667Y126661D01*
X476275Y126725D02*
X479604D01*
X463701Y132500D02*
X473500D01*
X479516Y129372D02*
X479667Y129220D01*
X476628Y129372D02*
X479516D01*
X473500Y132500D02*
X476628Y129372D01*
X459189Y137012D02*
X463701Y132500D01*
X391165Y125441D02*
X395980D01*
X473500Y115429D02*
X476453D01*
X484000Y122976D01*
Y132337D01*
X480063Y133943D02*
X482394D01*
X484000Y132337D01*
X479667Y134339D02*
X480063Y133943D01*
X400851Y107335D02*
X408728D01*
X410000Y106063D01*
X399468Y120063D02*
X399600Y119931D01*
X397403Y117191D02*
X398000Y116595D01*
X402874Y113000D02*
X409063D01*
X410000Y113937D01*
X386770Y119835D02*
X389004Y117600D01*
X391286D01*
X395000Y113886D01*
X379886Y123221D02*
X382167D01*
X379322Y122657D02*
X379886Y123221D01*
X379273Y122657D02*
X379322D01*
X378104Y121488D02*
X379273Y122657D01*
X378104Y118396D02*
Y121488D01*
Y118396D02*
X380500Y116000D01*
X376000Y106929D02*
Y126579D01*
Y106929D02*
X379000Y103929D01*
X376000Y126579D02*
X377760Y128339D01*
X382167D01*
X399468Y127937D02*
X407000D01*
X390833Y128339D02*
X399067D01*
X399468Y127937D01*
X382167Y125779D02*
X384449D01*
X385013Y126343D01*
X385586D01*
X386230Y126987D01*
Y129843D01*
X392161Y135773D01*
Y138161D01*
X393500Y139500D01*
X382167Y120661D02*
X386184D01*
X386770Y120076D01*
Y119835D02*
Y120076D01*
X390833Y120661D02*
X392885D01*
X396355Y117191D01*
X397403D01*
X437968Y68500D02*
X445219D01*
X435468Y71000D02*
X437968Y68500D01*
X337205Y136284D02*
X337500Y135988D01*
X333500Y142500D02*
X335531Y140469D01*
X333500Y142500D02*
X333500D01*
X335531Y137957D02*
X337205Y136284D01*
X335531Y137957D02*
Y140469D01*
X326780Y146386D02*
Y148667D01*
X327343Y145773D02*
Y145822D01*
X326780Y146386D02*
X327343Y145822D01*
X307500Y136063D02*
X315000D01*
X315604Y157333D02*
X321661D01*
X315000Y157937D02*
X315604Y157333D01*
X307500Y143937D02*
Y150000D01*
X315000Y143937D02*
Y150063D01*
X317158Y140842D02*
Y142665D01*
X315000Y143937D02*
X315886D01*
X317158Y142665D01*
X324372Y145628D02*
Y148516D01*
X324220Y148667D02*
X324372Y148516D01*
X307500Y150000D02*
Y151969D01*
X309531Y154000D02*
X318740D01*
X307500Y151969D02*
X309531Y154000D01*
X319959Y152781D02*
X327556D01*
X318740Y154000D02*
X319959Y152781D01*
X328775Y151513D02*
Y151561D01*
X327556Y152781D02*
X328775Y151561D01*
X329339Y148667D02*
Y150949D01*
X328775Y151513D02*
X329339Y150949D01*
X296067Y109354D02*
X307500Y120787D01*
X294000Y109354D02*
X296067D01*
X190779Y379500D02*
X192780Y377500D01*
X196500D01*
Y366878D02*
Y377500D01*
Y366878D02*
X204638Y358740D01*
X185870Y379500D02*
X190779D01*
X131433Y373500D02*
X132433Y372500D01*
X183646Y390000D02*
X193000D01*
X195000Y388000D01*
X121000Y384000D02*
X132354D01*
X151567Y372500D02*
Y383921D01*
X151646Y384000D01*
X68512Y354000D02*
Y358921D01*
X62500Y364933D02*
X68512Y358921D01*
X62500Y364933D02*
Y365000D01*
X55500Y373488D02*
X56189D01*
X58543Y371134D01*
Y368957D02*
Y371134D01*
Y368957D02*
X62500Y365000D01*
X152169Y366898D02*
X159741D01*
X162138Y364500D02*
X163000D01*
X159741Y366898D02*
X162138Y364500D01*
X156300Y362500D02*
X158800Y360000D01*
X161437Y353842D02*
X170780Y344500D01*
X159437Y353842D02*
X161437D01*
X156579Y356701D02*
X159437Y353842D01*
X204638Y344500D02*
Y358740D01*
X171638Y371760D02*
X178279D01*
X171468Y371929D02*
X171638Y371760D01*
X170780Y371929D02*
X171468D01*
X162779Y371894D02*
X163665D01*
X168500Y367059D01*
Y362500D02*
Y367059D01*
X166000Y360000D02*
X168500Y362500D01*
X158800Y360000D02*
X166000D01*
X151567Y362500D02*
X156300D01*
X151567Y367500D02*
X152169Y366898D01*
X152366Y356701D02*
X156579D01*
X151567Y357500D02*
X152366Y356701D01*
X123000Y363740D02*
X124240Y362500D01*
X161894Y371894D02*
X162779D01*
Y377000D02*
Y379768D01*
X170090Y371929D02*
X170780D01*
X204279Y344858D02*
X204638Y344500D01*
X185780Y379409D02*
X185870Y379500D01*
X132433Y367500D02*
Y372500D01*
X141500Y364500D02*
X142000Y365000D01*
X139500Y367500D02*
X142000Y365000D01*
X151512Y339500D02*
Y340976D01*
X162779Y377000D02*
X163949Y375831D01*
X166189D01*
X124240Y362500D02*
X132433D01*
X142265Y347235D02*
X145254D01*
X151512Y340976D01*
X166189Y375831D02*
X170090Y371929D01*
X132433Y367500D02*
X139500D01*
D15*
X543563Y148000D02*
D03*
X551437D02*
D03*
X543437Y139500D02*
D03*
X535563D02*
D03*
Y131000D02*
D03*
X543437D02*
D03*
X505094Y85500D02*
D03*
X512968D02*
D03*
X548563Y78000D02*
D03*
X556437D02*
D03*
X543063Y70500D02*
D03*
X550937D02*
D03*
X550437Y85500D02*
D03*
X542563D02*
D03*
X553000Y93000D02*
D03*
X545126D02*
D03*
X543563Y155500D02*
D03*
X551437D02*
D03*
X552937Y100500D02*
D03*
X545063D02*
D03*
X40595Y17469D02*
D03*
X48469D02*
D03*
X48500Y25500D02*
D03*
X40626D02*
D03*
X559563Y6000D02*
D03*
X567437D02*
D03*
X581063Y104000D02*
D03*
X588937D02*
D03*
X486437Y144000D02*
D03*
X478563D02*
D03*
Y151500D02*
D03*
X486437D02*
D03*
X478563Y159000D02*
D03*
X486437D02*
D03*
X465063D02*
D03*
X472937D02*
D03*
X467437Y147000D02*
D03*
X459563D02*
D03*
X402874Y113000D02*
D03*
X395000D02*
D03*
X415937Y67500D02*
D03*
X408063D02*
D03*
Y59500D02*
D03*
X415937D02*
D03*
X281437Y259500D02*
D03*
X273563D02*
D03*
X281437Y100000D02*
D03*
X273563D02*
D03*
X553437Y108500D02*
D03*
X545563D02*
D03*
D16*
X473000Y63772D02*
D03*
Y71252D02*
D03*
X465500Y63772D02*
D03*
Y71252D02*
D03*
X505532Y114740D02*
D03*
Y107260D02*
D03*
X558500Y155240D02*
D03*
Y147760D02*
D03*
X566000Y155240D02*
D03*
Y147760D02*
D03*
X572500Y121260D02*
D03*
Y128740D02*
D03*
X121500Y289228D02*
D03*
Y296709D02*
D03*
X198500Y312740D02*
D03*
Y305260D02*
D03*
X206500Y312740D02*
D03*
Y305260D02*
D03*
X214500Y312740D02*
D03*
Y305260D02*
D03*
X121000Y221260D02*
D03*
Y228740D02*
D03*
X198031Y245240D02*
D03*
Y237760D02*
D03*
X206031Y245240D02*
D03*
Y237760D02*
D03*
X214032Y245240D02*
D03*
Y237760D02*
D03*
X123000Y356260D02*
D03*
Y363740D02*
D03*
X170780Y379409D02*
D03*
Y371929D02*
D03*
X178279Y379240D02*
D03*
Y371760D02*
D03*
X185780Y379409D02*
D03*
Y371929D02*
D03*
X212500Y109740D02*
D03*
Y102260D02*
D03*
X205000Y109740D02*
D03*
Y102260D02*
D03*
X197500Y109740D02*
D03*
Y102260D02*
D03*
X121000Y85260D02*
D03*
Y92740D02*
D03*
X213000Y177772D02*
D03*
Y170291D02*
D03*
X198000Y177772D02*
D03*
Y170291D02*
D03*
X205500Y177772D02*
D03*
Y170291D02*
D03*
X121500Y153760D02*
D03*
Y161240D02*
D03*
D17*
X108488Y81000D02*
D03*
X69512D02*
D03*
X107988Y284469D02*
D03*
X69012D02*
D03*
X108488Y216500D02*
D03*
X69512D02*
D03*
X107488Y354000D02*
D03*
X68512D02*
D03*
X108988Y149000D02*
D03*
X70012D02*
D03*
D18*
X337500Y147012D02*
D03*
Y135988D02*
D03*
X468000Y137012D02*
D03*
Y125988D02*
D03*
X347000Y104012D02*
D03*
Y92988D02*
D03*
D19*
X566457Y140417D02*
D03*
X563898D02*
D03*
X561339D02*
D03*
X558779D02*
D03*
X556220D02*
D03*
X553661D02*
D03*
X551102D02*
D03*
X548543D02*
D03*
X566457Y117583D02*
D03*
X563898D02*
D03*
X561339D02*
D03*
X558779D02*
D03*
X556220D02*
D03*
X553661D02*
D03*
X551102D02*
D03*
X548543D02*
D03*
X511957Y93083D02*
D03*
X514516D02*
D03*
X517075D02*
D03*
X519634D02*
D03*
X522193D02*
D03*
X524752D02*
D03*
X527311D02*
D03*
X529870D02*
D03*
X532429D02*
D03*
X534988D02*
D03*
X537547D02*
D03*
X540106D02*
D03*
X511957Y115917D02*
D03*
X514516D02*
D03*
X517075D02*
D03*
X519634D02*
D03*
X522193D02*
D03*
X524752D02*
D03*
X527311D02*
D03*
X529870D02*
D03*
X532429D02*
D03*
X534988D02*
D03*
X537547D02*
D03*
X540106D02*
D03*
D20*
X473500Y81571D02*
D03*
Y115429D02*
D03*
D21*
X277500Y202626D02*
D03*
Y210500D02*
D03*
Y227437D02*
D03*
Y219563D02*
D03*
X498032Y107063D02*
D03*
Y114937D02*
D03*
Y120563D02*
D03*
Y128437D02*
D03*
X505532D02*
D03*
Y120563D02*
D03*
X513031Y123563D02*
D03*
Y131437D02*
D03*
X520532Y123563D02*
D03*
Y131437D02*
D03*
X561000Y110437D02*
D03*
Y102563D02*
D03*
X568500D02*
D03*
Y110437D02*
D03*
X531968Y160937D02*
D03*
Y153063D02*
D03*
X516968Y160937D02*
D03*
Y153063D02*
D03*
X524469D02*
D03*
Y160937D02*
D03*
X231500Y66937D02*
D03*
Y59063D02*
D03*
X239500Y66937D02*
D03*
Y59063D02*
D03*
X279500Y66937D02*
D03*
Y59063D02*
D03*
X271500D02*
D03*
Y66937D02*
D03*
X263500Y59063D02*
D03*
Y66937D02*
D03*
X255500D02*
D03*
Y59063D02*
D03*
X247500Y66937D02*
D03*
Y59063D02*
D03*
X407000Y127937D02*
D03*
Y120063D02*
D03*
X399468D02*
D03*
Y127937D02*
D03*
X410000Y106063D02*
D03*
Y113937D02*
D03*
X307500Y136063D02*
D03*
Y143937D02*
D03*
Y150000D02*
D03*
Y157874D02*
D03*
X315000Y150063D02*
D03*
Y157937D02*
D03*
Y136063D02*
D03*
Y143937D02*
D03*
X190500Y312937D02*
D03*
Y305063D02*
D03*
X190000Y245437D02*
D03*
Y237563D02*
D03*
X162779Y379768D02*
D03*
Y371894D02*
D03*
X190000Y109937D02*
D03*
Y102063D02*
D03*
X190500Y177937D02*
D03*
Y170063D02*
D03*
D22*
X501291Y100374D02*
D03*
X505031Y92500D02*
D03*
X497551D02*
D03*
D23*
X519760Y140000D02*
D03*
X527240D02*
D03*
X536740Y70500D02*
D03*
X529260D02*
D03*
X530260Y15000D02*
D03*
X537740D02*
D03*
X544260D02*
D03*
X551740D02*
D03*
X537740Y7500D02*
D03*
X530260D02*
D03*
X544260D02*
D03*
X551740D02*
D03*
X281240Y237000D02*
D03*
X273760D02*
D03*
X281240Y244500D02*
D03*
X273760D02*
D03*
X281240Y252000D02*
D03*
X273760D02*
D03*
X251760Y329000D02*
D03*
X259240D02*
D03*
X251260Y170000D02*
D03*
X258740D02*
D03*
X281209Y85000D02*
D03*
X273728D02*
D03*
X281240Y92500D02*
D03*
X273760D02*
D03*
X281240Y77500D02*
D03*
X273760D02*
D03*
D24*
X504000Y145201D02*
D03*
Y157799D02*
D03*
X511000Y73098D02*
D03*
Y60500D02*
D03*
D25*
X559949Y13500D02*
D03*
X566051D02*
D03*
X563449Y93000D02*
D03*
X569551D02*
D03*
X563449Y81500D02*
D03*
X569551D02*
D03*
X563449Y70500D02*
D03*
X569551D02*
D03*
D26*
X565500Y62783D02*
D03*
X560500D02*
D03*
X555500D02*
D03*
X550500D02*
D03*
X545500D02*
D03*
X540500D02*
D03*
X535500D02*
D03*
X530500D02*
D03*
X565500Y23216D02*
D03*
X560500D02*
D03*
X555500D02*
D03*
X550500D02*
D03*
X545500D02*
D03*
X540500D02*
D03*
X535500D02*
D03*
X530500D02*
D03*
D27*
X580988Y113500D02*
D03*
X592012D02*
D03*
X582488Y123500D02*
D03*
X593512D02*
D03*
X371512Y121500D02*
D03*
X360488D02*
D03*
D28*
X483701Y63500D02*
D03*
X496299D02*
D03*
D29*
X488333Y134339D02*
D03*
Y131780D02*
D03*
Y129220D02*
D03*
Y126661D02*
D03*
X479667D02*
D03*
Y129220D02*
D03*
Y131780D02*
D03*
X390833Y128339D02*
D03*
Y125779D02*
D03*
Y123221D02*
D03*
Y120661D02*
D03*
X382167D02*
D03*
Y123221D02*
D03*
Y125779D02*
D03*
D30*
X479667Y134339D02*
D03*
X382167Y128339D02*
D03*
D31*
X379000Y103929D02*
D03*
Y70071D02*
D03*
X246500Y280000D02*
D03*
Y246142D02*
D03*
X246000Y120500D02*
D03*
Y86642D02*
D03*
D32*
X431500Y120169D02*
D03*
Y153831D02*
D03*
D33*
X458500Y125988D02*
D03*
Y137012D02*
D03*
X408500Y77488D02*
D03*
Y88512D02*
D03*
X457000Y70524D02*
D03*
Y59500D02*
D03*
X55500Y373488D02*
D03*
Y384512D02*
D03*
X278000Y191012D02*
D03*
Y179988D02*
D03*
X278500Y351512D02*
D03*
Y340488D02*
D03*
D34*
X446012Y97500D02*
D03*
X419988D02*
D03*
X124000Y69000D02*
D03*
X150024D02*
D03*
X124488Y137000D02*
D03*
X150512D02*
D03*
X123976Y271969D02*
D03*
X150000D02*
D03*
X124000Y204500D02*
D03*
X150024D02*
D03*
X125488Y339500D02*
D03*
X151512D02*
D03*
D35*
X445219Y78500D02*
D03*
Y73500D02*
D03*
Y68500D02*
D03*
Y63500D02*
D03*
X425718D02*
D03*
Y68500D02*
D03*
Y73500D02*
D03*
Y78500D02*
D03*
D36*
X319000Y125000D02*
D03*
Y94882D02*
D03*
D37*
X329339Y148667D02*
D03*
X326780D02*
D03*
X324220D02*
D03*
X321661D02*
D03*
Y157333D02*
D03*
X324220D02*
D03*
X326780D02*
D03*
D38*
X329339D02*
D03*
D39*
X372000Y128500D02*
D03*
X359500D02*
D03*
X339000Y88000D02*
D03*
X295500D02*
D03*
D40*
X347000Y111949D02*
D03*
Y127500D02*
D03*
D41*
X169500Y75000D02*
D03*
X203358D02*
D03*
X170000Y143000D02*
D03*
X203858D02*
D03*
X170000Y277969D02*
D03*
X203858D02*
D03*
X170000Y210500D02*
D03*
X203858D02*
D03*
X170780Y344500D02*
D03*
X204638D02*
D03*
D42*
X140500Y93500D02*
D03*
X141000Y161500D02*
D03*
Y297468D02*
D03*
X140500Y229500D02*
D03*
X142000Y365000D02*
D03*
D43*
X130933Y101000D02*
D03*
Y96000D02*
D03*
Y91000D02*
D03*
Y86000D02*
D03*
X150067Y101000D02*
D03*
Y96000D02*
D03*
Y91000D02*
D03*
Y86000D02*
D03*
X131433Y169000D02*
D03*
Y164000D02*
D03*
Y159000D02*
D03*
Y154000D02*
D03*
X150567Y169000D02*
D03*
Y164000D02*
D03*
Y159000D02*
D03*
Y154000D02*
D03*
X131433Y304969D02*
D03*
Y299969D02*
D03*
Y294969D02*
D03*
Y289968D02*
D03*
X150567Y304969D02*
D03*
Y299969D02*
D03*
Y294969D02*
D03*
Y289968D02*
D03*
X130933Y237000D02*
D03*
Y232000D02*
D03*
Y227000D02*
D03*
Y222000D02*
D03*
X150067Y237000D02*
D03*
Y232000D02*
D03*
Y227000D02*
D03*
Y222000D02*
D03*
X132433Y372500D02*
D03*
Y367500D02*
D03*
Y362500D02*
D03*
Y357500D02*
D03*
X151567Y372500D02*
D03*
Y367500D02*
D03*
Y362500D02*
D03*
Y357500D02*
D03*
D44*
X279000Y287717D02*
D03*
Y268425D02*
D03*
Y300284D02*
D03*
Y319575D02*
D03*
X294500Y287646D02*
D03*
Y268354D02*
D03*
Y300354D02*
D03*
Y319646D02*
D03*
X294000Y140854D02*
D03*
Y160146D02*
D03*
X278500Y140854D02*
D03*
Y160146D02*
D03*
Y128646D02*
D03*
Y109354D02*
D03*
X294000Y128646D02*
D03*
Y109354D02*
D03*
D45*
X247000Y341512D02*
D03*
Y380488D02*
D03*
X246500Y182512D02*
D03*
Y221488D02*
D03*
D46*
X235000Y326000D02*
D03*
Y299976D02*
D03*
X234500Y167000D02*
D03*
Y140976D02*
D03*
D47*
X260000Y309500D02*
D03*
X259500Y150433D02*
D03*
D48*
X267500Y319067D02*
D03*
X262500D02*
D03*
X257500D02*
D03*
X252500D02*
D03*
X267500Y299933D02*
D03*
X262500D02*
D03*
X257500D02*
D03*
X252500D02*
D03*
X267000Y160000D02*
D03*
X262000D02*
D03*
X257000D02*
D03*
X252000D02*
D03*
X267000Y140866D02*
D03*
X262000D02*
D03*
X257000D02*
D03*
X252000D02*
D03*
D49*
X71488Y315000D02*
D03*
X82512D02*
D03*
X76488Y246500D02*
D03*
X87512D02*
D03*
X76988Y111500D02*
D03*
X88012D02*
D03*
X87500Y179500D02*
D03*
X76476D02*
D03*
D50*
X130854Y316469D02*
D03*
X150146D02*
D03*
X181146Y309968D02*
D03*
X161854D02*
D03*
X130354Y248500D02*
D03*
X149646D02*
D03*
X180646Y242500D02*
D03*
X161354D02*
D03*
X183646Y390000D02*
D03*
X164354D02*
D03*
X132354Y384000D02*
D03*
X151646D02*
D03*
X161354Y107000D02*
D03*
X180646D02*
D03*
X162000Y175000D02*
D03*
X181291D02*
D03*
D69*
X435468Y71000D02*
D03*
D90*
X317500Y48800D02*
D03*
X329300D02*
D03*
Y37000D02*
D03*
X317500D02*
D03*
X341100D02*
D03*
X352900D02*
D03*
Y48800D02*
D03*
X341100D02*
D03*
X440400Y37500D02*
D03*
X428600D02*
D03*
X440400Y49300D02*
D03*
X428600D02*
D03*
X396400Y37500D02*
D03*
X384600D02*
D03*
X396400Y49300D02*
D03*
X384600D02*
D03*
X286000D02*
D03*
Y37500D02*
D03*
X254500Y49300D02*
D03*
Y37500D02*
D03*
X223000Y49300D02*
D03*
Y37500D02*
D03*
X71500Y48895D02*
D03*
Y37095D02*
D03*
X49684Y50095D02*
D03*
X37884D02*
D03*
X49684Y81595D02*
D03*
X37884D02*
D03*
X49300Y175500D02*
D03*
X37500D02*
D03*
Y206600D02*
D03*
Y218400D02*
D03*
X49300Y206600D02*
D03*
Y218400D02*
D03*
X49800Y144500D02*
D03*
X38000D02*
D03*
Y295500D02*
D03*
Y307300D02*
D03*
X49800Y295500D02*
D03*
Y307300D02*
D03*
X38000Y339600D02*
D03*
Y351400D02*
D03*
X49800Y339600D02*
D03*
Y351400D02*
D03*
X38000Y251000D02*
D03*
Y262800D02*
D03*
X49800Y251000D02*
D03*
Y262800D02*
D03*
Y113000D02*
D03*
X38000D02*
D03*
X103000Y48895D02*
D03*
Y37095D02*
D03*
X134500Y48800D02*
D03*
Y37000D02*
D03*
X495200Y48800D02*
D03*
X507000D02*
D03*
Y37000D02*
D03*
X495200D02*
D03*
X471600D02*
D03*
X483400D02*
D03*
Y48800D02*
D03*
X471600D02*
D03*
D91*
X326000Y20000D02*
D03*
X344500D02*
D03*
X434500Y20500D02*
D03*
X390500D02*
D03*
X286000D02*
D03*
X254500D02*
D03*
X223000D02*
D03*
X71500Y20095D02*
D03*
X20884Y50095D02*
D03*
Y81595D02*
D03*
X20500Y175500D02*
D03*
Y212500D02*
D03*
X21000Y144500D02*
D03*
Y301400D02*
D03*
Y345500D02*
D03*
Y256900D02*
D03*
Y113000D02*
D03*
X103000Y20095D02*
D03*
X134500Y20000D02*
D03*
X498600D02*
D03*
X480100D02*
D03*
D92*
X582500Y143500D02*
D03*
X526173Y179000D02*
D03*
X297827D02*
D03*
Y371913D02*
D03*
X526173D02*
D03*
X582000Y18000D02*
D03*
X18000Y382000D02*
D03*
X16000Y16000D02*
D03*
D93*
X407000Y174000D02*
D03*
X427000D02*
D03*
Y184000D02*
D03*
X417000Y174000D02*
D03*
Y184000D02*
D03*
X507000D02*
D03*
X497000D02*
D03*
X487000D02*
D03*
X477000D02*
D03*
X467000D02*
D03*
X457000D02*
D03*
X447000D02*
D03*
X437000D02*
D03*
X407000D02*
D03*
X397000D02*
D03*
X387000D02*
D03*
X377000D02*
D03*
X367000D02*
D03*
X357000D02*
D03*
X347000D02*
D03*
X337000D02*
D03*
X327000D02*
D03*
X317000D02*
D03*
X507000Y174000D02*
D03*
X497000D02*
D03*
X487000D02*
D03*
X477000D02*
D03*
X467000D02*
D03*
X457000D02*
D03*
X447000D02*
D03*
X437000D02*
D03*
X397000D02*
D03*
X387000D02*
D03*
X377000D02*
D03*
X367000D02*
D03*
X357000D02*
D03*
X347000D02*
D03*
X337000D02*
D03*
X327000D02*
D03*
X317000D02*
D03*
D94*
X582000Y59000D02*
D03*
X592000D02*
D03*
X582000Y47500D02*
D03*
X592000D02*
D03*
Y36000D02*
D03*
X582000D02*
D03*
X592000Y82000D02*
D03*
X582000D02*
D03*
X592000Y93500D02*
D03*
X582000D02*
D03*
X592000Y70500D02*
D03*
X582000D02*
D03*
D95*
X393500Y153000D02*
D03*
X354500D02*
D03*
Y139500D02*
D03*
X393500D02*
D03*
X301000Y64000D02*
D03*
X340000D02*
D03*
Y77500D02*
D03*
X301000D02*
D03*
D96*
X374500Y148000D02*
D03*
X242568Y313931D02*
D03*
X230500Y250000D02*
D03*
X245433Y150433D02*
D03*
X492500Y161500D02*
D03*
X523132Y147000D02*
D03*
X516000Y147500D02*
D03*
X532409Y203091D02*
D03*
X416070Y203069D02*
D03*
X403000Y201500D02*
D03*
X422000Y154000D02*
D03*
X291000Y97900D02*
D03*
X213000Y93500D02*
D03*
X175500Y117500D02*
D03*
X322000Y141800D02*
D03*
X341000Y159000D02*
D03*
X344985Y154163D02*
D03*
X311500Y269000D02*
D03*
X317500Y265500D02*
D03*
X324000Y269000D02*
D03*
X302500Y206500D02*
D03*
X303000Y223000D02*
D03*
X347500Y210000D02*
D03*
X347000Y218000D02*
D03*
X269000Y171000D02*
D03*
X200500Y293000D02*
D03*
X192000Y360900D02*
D03*
X262500Y116000D02*
D03*
X263500Y77500D02*
D03*
X291000Y232000D02*
D03*
X295000Y329500D02*
D03*
X297000Y98500D02*
D03*
X279000Y171000D02*
D03*
X278500Y150500D02*
D03*
X294000D02*
D03*
Y119000D02*
D03*
X278500D02*
D03*
X267500Y231000D02*
D03*
X263000Y237000D02*
D03*
X228000Y231500D02*
D03*
X222500Y237000D02*
D03*
X276000Y380500D02*
D03*
X282500Y382500D02*
D03*
X283000Y390500D02*
D03*
X275500Y389000D02*
D03*
X286000Y329500D02*
D03*
X277500D02*
D03*
X312000Y290500D02*
D03*
X313000Y300000D02*
D03*
X317500Y294500D02*
D03*
X317000Y286500D02*
D03*
X322500Y291000D02*
D03*
X322000Y299000D02*
D03*
X265500Y380500D02*
D03*
X266000Y390000D02*
D03*
X142000Y77500D02*
D03*
Y145500D02*
D03*
X141500Y213500D02*
D03*
X182500Y117500D02*
D03*
X182000Y186000D02*
D03*
X175000D02*
D03*
X201000Y158500D02*
D03*
X212000Y161500D02*
D03*
X201000Y225000D02*
D03*
X214266Y228734D02*
D03*
X182000Y253000D02*
D03*
X175000D02*
D03*
X160500Y232000D02*
D03*
X161500Y163500D02*
D03*
X161000Y95500D02*
D03*
X535500Y209500D02*
D03*
X489000Y106586D02*
D03*
X488000Y114000D02*
D03*
X482000Y99000D02*
D03*
X498500Y82500D02*
D03*
X486000Y200500D02*
D03*
X517500Y194500D02*
D03*
X533750Y195750D02*
D03*
X530000Y146474D02*
D03*
X561000Y132000D02*
D03*
X573000Y156000D02*
D03*
X593500Y155500D02*
D03*
X592500Y131000D02*
D03*
X564000Y125500D02*
D03*
X416000Y150500D02*
D03*
X415000Y142000D02*
D03*
X456500Y154500D02*
D03*
X447500Y153103D02*
D03*
Y145600D02*
D03*
Y138000D02*
D03*
X489000Y98000D02*
D03*
X489046Y90546D02*
D03*
X430000Y93000D02*
D03*
X559000Y40500D02*
D03*
X395500Y73000D02*
D03*
X407000Y99500D02*
D03*
X529500Y124000D02*
D03*
X504000Y135500D02*
D03*
X537500Y101000D02*
D03*
X530500Y108000D02*
D03*
Y101000D02*
D03*
X538000Y108500D02*
D03*
X517000Y9000D02*
D03*
X557000Y125500D02*
D03*
X395000Y92000D02*
D03*
X448000Y129500D02*
D03*
X498000Y75500D02*
D03*
X491000Y75000D02*
D03*
X523000Y59000D02*
D03*
X537000Y79000D02*
D03*
X497000Y134500D02*
D03*
X421500Y43500D02*
D03*
Y51000D02*
D03*
X524000Y106500D02*
D03*
X520000Y100500D02*
D03*
X514500Y107000D02*
D03*
X530000Y79000D02*
D03*
X522000Y79500D02*
D03*
X182500Y321000D02*
D03*
X175500D02*
D03*
X212500Y294000D02*
D03*
X140500Y281000D02*
D03*
X119500Y245000D02*
D03*
X113000Y250000D02*
D03*
X114000Y318000D02*
D03*
X120000Y312000D02*
D03*
X161000Y298000D02*
D03*
X532000Y54000D02*
D03*
X337500Y154000D02*
D03*
X327500Y138000D02*
D03*
X223500Y62500D02*
D03*
X417000Y113500D02*
D03*
X419000Y121500D02*
D03*
X395000Y99500D02*
D03*
X552000Y132937D02*
D03*
X538500Y123500D02*
D03*
X519500Y85812D02*
D03*
X528203Y85297D02*
D03*
X528000Y130959D02*
D03*
X44500Y7000D02*
D03*
X265000Y290000D02*
D03*
X196500Y377500D02*
D03*
X121000D02*
D03*
X142000Y348500D02*
D03*
X121000Y384000D02*
D03*
X195500Y387000D02*
D03*
X163000Y364500D02*
D03*
M02*
