G04*
G04 #@! TF.GenerationSoftware,Altium Limited,Altium Designer,22.9.1 (49)*
G04*
G04 Layer_Color=65535*
%FSLAX25Y25*%
%MOIN*%
G70*
G04*
G04 #@! TF.SameCoordinates,3F179E76-7137-4DFB-B845-8D42032AEADC*
G04*
G04*
G04 #@! TF.FilePolarity,Positive*
G04*
G01*
G75*
%ADD10C,0.00984*%
%ADD11C,0.01000*%
%ADD12C,0.02362*%
%ADD13C,0.00787*%
%ADD14C,0.00750*%
G36*
X134444Y216815D02*
X134506D01*
Y216753D01*
X134568D01*
Y216691D01*
X134630D01*
Y214703D01*
Y214641D01*
Y213523D01*
X134568D01*
Y213399D01*
X134444D01*
Y213336D01*
X134195D01*
Y213399D01*
X134133D01*
Y213461D01*
X134071D01*
Y213647D01*
X134009D01*
Y213771D01*
X134071D01*
Y216442D01*
X134009D01*
Y216567D01*
X134071D01*
Y216753D01*
X134133D01*
Y216815D01*
X134258D01*
Y216877D01*
X134444D01*
Y216815D01*
D02*
G37*
G36*
X128232Y215946D02*
X128294D01*
Y215883D01*
X128356D01*
Y215821D01*
X128418D01*
Y215759D01*
Y215697D01*
Y215573D01*
X128480D01*
Y215386D01*
X128542D01*
Y215200D01*
X128604D01*
Y215014D01*
X128667D01*
Y214827D01*
X128729D01*
Y214641D01*
X128791D01*
Y214455D01*
X128853D01*
Y214206D01*
X128915D01*
Y214020D01*
X128977D01*
Y213833D01*
X129039D01*
Y213647D01*
X129102D01*
Y213461D01*
X129164D01*
Y213274D01*
X129226D01*
Y213088D01*
X129288D01*
Y212777D01*
X129226D01*
Y212715D01*
X129164D01*
Y212653D01*
X128853D01*
Y212715D01*
X128791D01*
Y212777D01*
X128729D01*
Y212901D01*
X128667D01*
Y213150D01*
X128604D01*
Y213336D01*
X128542D01*
Y213523D01*
X128480D01*
Y213709D01*
X128418D01*
Y213896D01*
X128356D01*
Y214082D01*
X128294D01*
Y214268D01*
X128232D01*
Y214455D01*
X128170D01*
Y214641D01*
X128108D01*
Y214827D01*
X128045D01*
Y215014D01*
X127983D01*
Y215200D01*
X127921D01*
Y215386D01*
X127859D01*
Y215573D01*
X127797D01*
Y215821D01*
X127859D01*
Y215946D01*
X127983D01*
Y216008D01*
X128232D01*
Y215946D01*
D02*
G37*
G36*
X140718Y215883D02*
X140780D01*
Y215821D01*
X140842D01*
Y215511D01*
X140780D01*
Y215324D01*
X140718D01*
Y215138D01*
X140656D01*
Y214951D01*
X140594D01*
Y214765D01*
X140532D01*
Y214579D01*
X140470D01*
Y214330D01*
X140408D01*
Y214144D01*
X140346D01*
Y213958D01*
X140283D01*
Y213771D01*
X140221D01*
Y213585D01*
X140159D01*
Y213399D01*
X140097D01*
Y213212D01*
X140035D01*
Y213026D01*
X139973D01*
Y212777D01*
X139911D01*
Y212715D01*
X139848D01*
Y212653D01*
X139786D01*
Y212591D01*
X139476D01*
Y212653D01*
X139414D01*
Y212777D01*
X139351D01*
Y213026D01*
X139414D01*
Y213150D01*
X139476D01*
Y213399D01*
X139538D01*
Y213523D01*
Y213585D01*
X139600D01*
Y213771D01*
X139662D01*
Y213958D01*
X139724D01*
Y214144D01*
X139786D01*
Y214330D01*
X139848D01*
Y214517D01*
X139911D01*
Y214703D01*
X139973D01*
Y214889D01*
X140035D01*
Y215076D01*
X140097D01*
Y215262D01*
X140159D01*
Y215448D01*
X140221D01*
Y215697D01*
X140283D01*
Y215821D01*
X140346D01*
Y215883D01*
X140408D01*
Y215946D01*
X140718D01*
Y215883D01*
D02*
G37*
G36*
X122517Y213212D02*
X122641D01*
Y213150D01*
X122703D01*
Y213088D01*
X122765D01*
Y212964D01*
X122827D01*
Y212901D01*
X122889D01*
Y212777D01*
X122951D01*
Y212715D01*
X123014D01*
Y212653D01*
X123076D01*
Y212529D01*
X123138D01*
Y212467D01*
X123200D01*
Y212342D01*
X123262D01*
Y212280D01*
X123324D01*
Y212218D01*
X123386D01*
Y212094D01*
X123449D01*
Y212032D01*
X123511D01*
Y211970D01*
X123573D01*
Y211845D01*
X123635D01*
Y211783D01*
X123697D01*
Y211659D01*
X123759D01*
Y211597D01*
X123821D01*
Y211535D01*
X123883D01*
Y211411D01*
X123945D01*
Y211349D01*
X124008D01*
Y211286D01*
X124070D01*
Y211162D01*
X124132D01*
Y211100D01*
X124194D01*
Y210976D01*
X124256D01*
Y210914D01*
X124318D01*
Y210852D01*
X124380D01*
Y210727D01*
X124442D01*
Y210417D01*
X124380D01*
Y210355D01*
X124256D01*
Y210292D01*
X124070D01*
Y210355D01*
X123945D01*
Y210417D01*
X123883D01*
Y210541D01*
X123821D01*
Y210603D01*
X123759D01*
Y210665D01*
X123697D01*
Y210789D01*
X123635D01*
Y210852D01*
X123573D01*
Y210976D01*
X123511D01*
Y211038D01*
X123449D01*
Y211100D01*
X123386D01*
Y211224D01*
X123324D01*
Y211286D01*
X123262D01*
Y211349D01*
X123200D01*
Y211473D01*
X123138D01*
Y211535D01*
X123076D01*
Y211659D01*
X123014D01*
Y211721D01*
X122951D01*
Y211783D01*
X122889D01*
Y211908D01*
X122827D01*
Y211970D01*
X122765D01*
Y212032D01*
X122703D01*
Y212156D01*
X122641D01*
Y212218D01*
X122579D01*
Y212342D01*
X122517D01*
Y212405D01*
X122455D01*
Y212467D01*
X122392D01*
Y212591D01*
X122330D01*
Y212653D01*
X122268D01*
Y212715D01*
X122206D01*
Y212777D01*
Y212839D01*
X122144D01*
Y213088D01*
X122206D01*
Y213150D01*
X122268D01*
Y213212D01*
X122330D01*
Y213274D01*
X122517D01*
Y213212D01*
D02*
G37*
G36*
X146371Y213088D02*
X146433D01*
Y212964D01*
X146495D01*
Y212777D01*
X146433D01*
Y212653D01*
X146371D01*
Y212591D01*
X146309D01*
Y212467D01*
X146247D01*
Y212405D01*
X146185D01*
Y212342D01*
X146123D01*
Y212218D01*
X146061D01*
Y212156D01*
X145999D01*
Y212094D01*
X145936D01*
Y211970D01*
X145874D01*
Y211908D01*
X145812D01*
Y211783D01*
X145750D01*
Y211721D01*
X145688D01*
Y211659D01*
X145626D01*
Y211535D01*
X145564D01*
Y211473D01*
X145501D01*
Y211411D01*
X145439D01*
Y211286D01*
X145377D01*
Y211224D01*
X145315D01*
Y211100D01*
X145253D01*
Y211038D01*
X145191D01*
Y210976D01*
X145129D01*
Y210852D01*
X145067D01*
Y210789D01*
X145004D01*
Y210665D01*
X144942D01*
Y210603D01*
X144880D01*
Y210541D01*
X144818D01*
Y210417D01*
X144756D01*
Y210355D01*
X144694D01*
Y210292D01*
X144632D01*
Y210230D01*
X144321D01*
Y210292D01*
X144259D01*
Y210355D01*
X144197D01*
Y210665D01*
X144259D01*
Y210727D01*
X144321D01*
Y210852D01*
X144383D01*
Y210914D01*
X144446D01*
Y210976D01*
X144508D01*
Y211100D01*
X144570D01*
Y211162D01*
X144632D01*
Y211224D01*
Y211286D01*
X144694D01*
Y211349D01*
X144756D01*
Y211411D01*
X144818D01*
Y211535D01*
X144880D01*
Y211597D01*
X144942D01*
Y211659D01*
X145004D01*
Y211783D01*
X145067D01*
Y211845D01*
X145129D01*
Y211970D01*
X145191D01*
Y212032D01*
X145253D01*
Y212094D01*
X145315D01*
Y212218D01*
X145377D01*
Y212280D01*
X145439D01*
Y212342D01*
X145501D01*
Y212467D01*
X145564D01*
Y212529D01*
X145626D01*
Y212653D01*
X145688D01*
Y212715D01*
X145750D01*
Y212777D01*
X145812D01*
Y212901D01*
X145874D01*
Y212964D01*
X145936D01*
Y213088D01*
X146061D01*
Y213150D01*
X146371D01*
Y213088D01*
D02*
G37*
G36*
X118106Y208802D02*
X118168D01*
Y208739D01*
X118230D01*
Y208677D01*
X118354D01*
Y208615D01*
X118417D01*
Y208553D01*
X118541D01*
Y208491D01*
X118603D01*
Y208429D01*
X118665D01*
Y208367D01*
X118789D01*
Y208305D01*
X118851D01*
Y208242D01*
X118914D01*
Y208180D01*
X119038D01*
Y208118D01*
X119100D01*
Y208056D01*
X119224D01*
Y207994D01*
X119286D01*
Y207932D01*
X119349D01*
Y207870D01*
X119473D01*
Y207808D01*
X119535D01*
Y207746D01*
X119597D01*
Y207683D01*
X119721D01*
Y207621D01*
X119783D01*
Y207559D01*
X119908D01*
Y207497D01*
X119970D01*
Y207435D01*
X120032D01*
Y207373D01*
X120156D01*
Y207311D01*
X120218D01*
Y207248D01*
X120280D01*
Y207186D01*
X120405D01*
Y207124D01*
X120467D01*
Y207062D01*
X120529D01*
Y206938D01*
X120591D01*
Y206814D01*
X120529D01*
Y206689D01*
X120467D01*
Y206627D01*
X120280D01*
Y206565D01*
X120218D01*
Y206627D01*
X120094D01*
Y206689D01*
X119970D01*
Y206751D01*
X119908D01*
Y206814D01*
X119845D01*
Y206876D01*
X119721D01*
Y206938D01*
X119659D01*
Y207000D01*
X119597D01*
Y207062D01*
X119473D01*
Y207124D01*
X119411D01*
Y207186D01*
X119349D01*
Y207248D01*
X119224D01*
Y207311D01*
X119162D01*
Y207373D01*
X119038D01*
Y207435D01*
X118976D01*
Y207497D01*
X118914D01*
Y207559D01*
X118789D01*
Y207621D01*
X118727D01*
Y207683D01*
X118603D01*
Y207746D01*
X118541D01*
Y207808D01*
X118479D01*
Y207870D01*
X118354D01*
Y207932D01*
X118292D01*
Y207994D01*
X118230D01*
Y208056D01*
X118106D01*
Y208118D01*
X118044D01*
Y208180D01*
X117920D01*
Y208242D01*
X117858D01*
Y208305D01*
X117733D01*
Y208367D01*
X117671D01*
Y208491D01*
X117609D01*
Y208739D01*
X117671D01*
Y208802D01*
X117733D01*
Y208864D01*
X118106D01*
Y208802D01*
D02*
G37*
G36*
X150906Y208615D02*
X150968D01*
Y208305D01*
X150906D01*
Y208242D01*
X150844D01*
Y208180D01*
X150720D01*
Y208118D01*
X150658D01*
Y208056D01*
X150595D01*
Y207994D01*
X150471D01*
Y207932D01*
X150409D01*
Y207870D01*
X150285D01*
Y207808D01*
X150223D01*
Y207746D01*
X150161D01*
Y207683D01*
X150036D01*
Y207621D01*
X149974D01*
Y207559D01*
X149912D01*
Y207497D01*
X149788D01*
Y207435D01*
X149726D01*
Y207373D01*
X149601D01*
Y207311D01*
X149539D01*
Y207248D01*
X149477D01*
Y207186D01*
X149353D01*
Y207124D01*
X149291D01*
Y207062D01*
X149229D01*
Y207000D01*
X149104D01*
Y206938D01*
X149042D01*
Y206876D01*
X148918D01*
Y206814D01*
X148856D01*
Y206751D01*
X148794D01*
Y206689D01*
X148670D01*
Y206627D01*
X148608D01*
Y206565D01*
X148546D01*
Y206503D01*
X148359D01*
Y206441D01*
X148235D01*
Y206503D01*
X148111D01*
Y206565D01*
X148048D01*
Y206938D01*
X148111D01*
Y207000D01*
X148173D01*
Y207062D01*
X148297D01*
Y207124D01*
X148359D01*
Y207186D01*
X148483D01*
Y207248D01*
X148546D01*
Y207311D01*
X148608D01*
Y207373D01*
X148732D01*
Y207435D01*
X148794D01*
Y207497D01*
X148918D01*
Y207559D01*
X148980D01*
Y207621D01*
X149042D01*
Y207683D01*
X149167D01*
Y207746D01*
X149229D01*
Y207808D01*
X149291D01*
Y207870D01*
X149415D01*
Y207932D01*
X149477D01*
Y207994D01*
X149601D01*
Y208056D01*
X149664D01*
Y208118D01*
X149726D01*
Y208180D01*
X149850D01*
Y208242D01*
X149912D01*
Y208305D01*
X149974D01*
Y208367D01*
X150099D01*
Y208429D01*
X150161D01*
Y208491D01*
X150285D01*
Y208553D01*
X150347D01*
Y208615D01*
X150409D01*
Y208677D01*
X150471D01*
Y208739D01*
X150906D01*
Y208615D01*
D02*
G37*
G36*
X115124Y203273D02*
X115311D01*
Y203211D01*
X115497D01*
Y203149D01*
X115683D01*
Y203086D01*
X115870D01*
Y203024D01*
X116056D01*
Y202962D01*
X116242D01*
Y202900D01*
X116429D01*
Y202838D01*
X116677D01*
Y202776D01*
X116864D01*
Y202714D01*
X117050D01*
Y202652D01*
X117236D01*
Y202589D01*
X117423D01*
Y202527D01*
X117609D01*
Y202465D01*
X117858D01*
Y202403D01*
X117920D01*
Y202341D01*
X117982D01*
Y201968D01*
X117920D01*
Y201906D01*
X117796D01*
Y201844D01*
X117609D01*
Y201906D01*
X117423D01*
Y201968D01*
X117236D01*
Y202030D01*
X117050D01*
Y202092D01*
X116864D01*
Y202154D01*
X116677D01*
Y202217D01*
X116491D01*
Y202279D01*
X116305D01*
Y202341D01*
X116118D01*
Y202403D01*
X115932D01*
Y202465D01*
X115745D01*
Y202527D01*
X115559D01*
Y202589D01*
X115373D01*
Y202652D01*
X115124D01*
Y202714D01*
X114938D01*
Y202776D01*
X114814D01*
Y202838D01*
X114689D01*
Y202962D01*
X114627D01*
Y203149D01*
X114689D01*
Y203273D01*
X114752D01*
Y203335D01*
X115124D01*
Y203273D01*
D02*
G37*
G36*
X153888Y203149D02*
X153950D01*
Y203086D01*
X154012D01*
Y203024D01*
X154074D01*
Y202838D01*
X154012D01*
Y202714D01*
X153950D01*
Y202652D01*
X153826D01*
Y202589D01*
X153639D01*
Y202527D01*
X153453D01*
Y202465D01*
X153267D01*
Y202403D01*
X153018D01*
Y202341D01*
X152832D01*
Y202279D01*
X152646D01*
Y202217D01*
X152459D01*
Y202154D01*
X152273D01*
Y202092D01*
X152086D01*
Y202030D01*
X151900D01*
Y201968D01*
X151714D01*
Y201906D01*
X151527D01*
Y201844D01*
X151341D01*
Y201782D01*
X151154D01*
Y201720D01*
X150844D01*
Y201782D01*
X150782D01*
Y201844D01*
X150720D01*
Y202217D01*
X150844D01*
Y202279D01*
X150968D01*
Y202341D01*
X151154D01*
Y202403D01*
X151341D01*
Y202465D01*
X151527D01*
Y202527D01*
X151776D01*
Y202589D01*
X151962D01*
Y202652D01*
X152148D01*
Y202714D01*
X152335D01*
Y202776D01*
X152521D01*
Y202838D01*
X152708D01*
Y202900D01*
X152894D01*
Y202962D01*
X153080D01*
Y203024D01*
X153267D01*
Y203086D01*
X153453D01*
Y203149D01*
X153639D01*
Y203211D01*
X153888D01*
Y203149D01*
D02*
G37*
G36*
X135562Y212777D02*
X136246D01*
Y212715D01*
X136742D01*
Y212653D01*
X137177D01*
Y212591D01*
X137550D01*
Y212529D01*
X137861D01*
Y212467D01*
X138171D01*
Y212405D01*
X138420D01*
Y212342D01*
X138668D01*
Y212280D01*
X138917D01*
Y212218D01*
X139103D01*
Y212156D01*
X139351D01*
Y212094D01*
X139538D01*
Y212032D01*
X139724D01*
Y211970D01*
X139911D01*
Y211908D01*
X140097D01*
Y211845D01*
X140283D01*
Y211783D01*
X140470D01*
Y211721D01*
X140594D01*
Y211659D01*
X140780D01*
Y211597D01*
X140904D01*
Y211535D01*
X141091D01*
Y211473D01*
X141215D01*
Y211411D01*
X141339D01*
Y211349D01*
X141526D01*
Y211286D01*
X141650D01*
Y211224D01*
X141774D01*
Y211162D01*
X141899D01*
Y211100D01*
X142023D01*
Y211038D01*
X142147D01*
Y210976D01*
X142271D01*
Y210914D01*
X142395D01*
Y210852D01*
X142520D01*
Y210789D01*
X142644D01*
Y210727D01*
X142706D01*
Y210665D01*
X142830D01*
Y210603D01*
X142955D01*
Y210541D01*
X143079D01*
Y210479D01*
X143141D01*
Y210417D01*
X143265D01*
Y210355D01*
X143389D01*
Y210292D01*
X143451D01*
Y210230D01*
X143576D01*
Y210168D01*
X143638D01*
Y210106D01*
X143762D01*
Y210044D01*
X143886D01*
Y209982D01*
X143948D01*
Y209920D01*
X144073D01*
Y209858D01*
X144135D01*
Y209795D01*
X144197D01*
Y209733D01*
X144321D01*
Y209671D01*
X144383D01*
Y209609D01*
X144508D01*
Y209547D01*
X144570D01*
Y209485D01*
X144632D01*
Y209423D01*
X144756D01*
Y209361D01*
X144818D01*
Y209298D01*
X144880D01*
Y209236D01*
X145004D01*
Y209174D01*
X145067D01*
Y209112D01*
X145129D01*
Y209050D01*
X145253D01*
Y208988D01*
X145315D01*
Y208926D01*
X145377D01*
Y208864D01*
X145439D01*
Y208802D01*
X145501D01*
Y208739D01*
X145626D01*
Y208677D01*
X145688D01*
Y208615D01*
X145750D01*
Y208553D01*
X145812D01*
Y208491D01*
X145874D01*
Y208429D01*
X145936D01*
Y208367D01*
X145999D01*
Y208305D01*
X146061D01*
Y208242D01*
X146185D01*
Y208180D01*
X146247D01*
Y208118D01*
X146309D01*
Y208056D01*
X146371D01*
Y207994D01*
X146433D01*
Y207932D01*
X146495D01*
Y207870D01*
X146558D01*
Y207808D01*
X146620D01*
Y207746D01*
X146682D01*
Y207683D01*
X146744D01*
Y207621D01*
X146806D01*
Y207559D01*
X146868D01*
Y207497D01*
X146930D01*
Y207435D01*
X146992D01*
Y207373D01*
X147055D01*
Y207248D01*
X147117D01*
Y207186D01*
X147179D01*
Y207124D01*
X147241D01*
Y207062D01*
X147303D01*
Y207000D01*
X147365D01*
Y206938D01*
X147427D01*
Y206876D01*
X147489D01*
Y206814D01*
X147552D01*
Y206689D01*
X147614D01*
Y206627D01*
X147676D01*
Y206565D01*
X147738D01*
Y206503D01*
X147800D01*
Y206441D01*
X147862D01*
Y206317D01*
X147924D01*
Y206255D01*
X147986D01*
Y206192D01*
X148048D01*
Y206068D01*
X148111D01*
Y206006D01*
X148173D01*
Y205944D01*
X148235D01*
Y205820D01*
X148297D01*
Y205758D01*
X148359D01*
Y205696D01*
X148421D01*
Y205571D01*
X148483D01*
Y205509D01*
X148546D01*
Y205385D01*
X148608D01*
Y205323D01*
X148670D01*
Y205261D01*
X148732D01*
Y205136D01*
X148794D01*
Y205074D01*
X148856D01*
Y204950D01*
X148918D01*
Y204826D01*
X148980D01*
Y204764D01*
X149042D01*
Y204639D01*
X149104D01*
Y204577D01*
X149167D01*
Y204453D01*
X149229D01*
Y204329D01*
X149291D01*
Y204267D01*
X149353D01*
Y204142D01*
X149415D01*
Y204018D01*
X149477D01*
Y203894D01*
X149539D01*
Y203832D01*
X149601D01*
Y203708D01*
X149664D01*
Y203583D01*
X149726D01*
Y203459D01*
X149788D01*
Y203335D01*
X149850D01*
Y203211D01*
X149912D01*
Y203086D01*
X149974D01*
Y202962D01*
X150036D01*
Y202838D01*
X150099D01*
Y202714D01*
X150161D01*
Y202527D01*
X150223D01*
Y202403D01*
X150285D01*
Y202279D01*
X150347D01*
Y202092D01*
X150409D01*
Y201968D01*
X150471D01*
Y201782D01*
X150533D01*
Y201658D01*
X150595D01*
Y201471D01*
X150658D01*
Y201285D01*
X150720D01*
Y201098D01*
X150782D01*
Y200912D01*
X150844D01*
Y200726D01*
X150906D01*
Y200539D01*
X150968D01*
Y200353D01*
X117733D01*
Y200539D01*
X117796D01*
Y200726D01*
X117858D01*
Y200912D01*
X117920D01*
Y201098D01*
X117982D01*
Y201285D01*
X118044D01*
Y201471D01*
X118106D01*
Y201658D01*
X118168D01*
Y201782D01*
X118230D01*
Y201968D01*
X118292D01*
Y202092D01*
X118354D01*
Y202279D01*
X118417D01*
Y202403D01*
X118479D01*
Y202527D01*
X118541D01*
Y202714D01*
X118603D01*
Y202838D01*
X118665D01*
Y202962D01*
X118727D01*
Y203086D01*
X118789D01*
Y203211D01*
X118851D01*
Y203335D01*
X118914D01*
Y203459D01*
X118976D01*
Y203583D01*
X119038D01*
Y203708D01*
X119100D01*
Y203832D01*
X119162D01*
Y203894D01*
X119224D01*
Y204018D01*
X119286D01*
Y204142D01*
X119349D01*
Y204267D01*
X119411D01*
Y204329D01*
X119473D01*
Y204453D01*
X119535D01*
Y204577D01*
X119597D01*
Y204639D01*
X119659D01*
Y204764D01*
X119721D01*
Y204888D01*
X119783D01*
Y204950D01*
X119845D01*
Y205074D01*
X119908D01*
Y205136D01*
X119970D01*
Y205261D01*
X120032D01*
Y205323D01*
X120094D01*
Y205447D01*
X120156D01*
Y205509D01*
X120218D01*
Y205571D01*
X120280D01*
Y205696D01*
X120342D01*
Y205758D01*
X120405D01*
Y205820D01*
X120467D01*
Y205944D01*
X120529D01*
Y206006D01*
X120591D01*
Y206068D01*
X120653D01*
Y206192D01*
X120715D01*
Y206255D01*
X120777D01*
Y206317D01*
X120839D01*
Y206441D01*
X120902D01*
Y206503D01*
X120964D01*
Y206565D01*
X121026D01*
Y206627D01*
X121088D01*
Y206689D01*
X121150D01*
Y206814D01*
X121212D01*
Y206876D01*
X121274D01*
Y206938D01*
X121336D01*
Y207000D01*
X121398D01*
Y207062D01*
X121461D01*
Y207124D01*
X121523D01*
Y207186D01*
X121585D01*
Y207311D01*
X121647D01*
Y207373D01*
X121709D01*
Y207435D01*
X121771D01*
Y207497D01*
X121833D01*
Y207559D01*
X121896D01*
Y207621D01*
X121958D01*
Y207683D01*
X122020D01*
Y207746D01*
X122082D01*
Y207808D01*
X122144D01*
Y207870D01*
X122206D01*
Y207932D01*
X122268D01*
Y207994D01*
X122330D01*
Y208056D01*
X122392D01*
Y208118D01*
X122455D01*
Y208180D01*
X122517D01*
Y208242D01*
X122579D01*
Y208305D01*
X122703D01*
Y208367D01*
X122765D01*
Y208429D01*
X122827D01*
Y208491D01*
X122889D01*
Y208553D01*
X122951D01*
Y208615D01*
X123014D01*
Y208677D01*
X123076D01*
Y208739D01*
X123200D01*
Y208802D01*
X123262D01*
Y208864D01*
X123324D01*
Y208926D01*
X123386D01*
Y208988D01*
X123449D01*
Y209050D01*
X123573D01*
Y209112D01*
X123635D01*
Y209174D01*
X123697D01*
Y209236D01*
X123821D01*
Y209298D01*
X123883D01*
Y209361D01*
X123945D01*
Y209423D01*
X124070D01*
Y209485D01*
X124132D01*
Y209547D01*
X124194D01*
Y209609D01*
X124318D01*
Y209671D01*
X124380D01*
Y209733D01*
X124504D01*
Y209795D01*
X124567D01*
Y209858D01*
X124629D01*
Y209920D01*
X124753D01*
Y209982D01*
X124815D01*
Y210044D01*
X124939D01*
Y210106D01*
X125064D01*
Y210168D01*
X125126D01*
Y210230D01*
X125250D01*
Y210292D01*
X125312D01*
Y210355D01*
X125436D01*
Y210417D01*
X125561D01*
Y210479D01*
X125623D01*
Y210541D01*
X125747D01*
Y210603D01*
X125871D01*
Y210665D01*
X125996D01*
Y210727D01*
X126058D01*
Y210789D01*
X126182D01*
Y210852D01*
X126306D01*
Y210914D01*
X126430D01*
Y210976D01*
X126555D01*
Y211038D01*
X126679D01*
Y211100D01*
X126803D01*
Y211162D01*
X126927D01*
Y211224D01*
X127051D01*
Y211286D01*
X127176D01*
Y211349D01*
X127362D01*
Y211411D01*
X127486D01*
Y211473D01*
X127611D01*
Y211535D01*
X127797D01*
Y211597D01*
X127921D01*
Y211659D01*
X128108D01*
Y211721D01*
X128232D01*
Y211783D01*
X128418D01*
Y211845D01*
X128604D01*
Y211908D01*
X128791D01*
Y211970D01*
X128977D01*
Y212032D01*
X129164D01*
Y212094D01*
X129350D01*
Y212156D01*
X129598D01*
Y212218D01*
X129785D01*
Y212280D01*
X130033D01*
Y212342D01*
X130282D01*
Y212405D01*
X130530D01*
Y212467D01*
X130841D01*
Y212529D01*
X131151D01*
Y212591D01*
X131524D01*
Y212653D01*
X131959D01*
Y212715D01*
X132456D01*
Y212777D01*
X133139D01*
Y212839D01*
X135562D01*
Y212777D01*
D02*
G37*
G36*
X153826Y199111D02*
X154012D01*
Y199048D01*
X154136D01*
Y198986D01*
X154199D01*
Y198924D01*
X154261D01*
Y198862D01*
X154323D01*
Y198800D01*
X154385D01*
Y198676D01*
X154447D01*
Y198614D01*
Y198551D01*
Y198489D01*
X154509D01*
Y198055D01*
X154447D01*
Y197868D01*
X154385D01*
Y197744D01*
X154323D01*
Y197682D01*
X154261D01*
Y197620D01*
X154199D01*
Y197558D01*
X154136D01*
Y197495D01*
X154012D01*
Y197433D01*
X153826D01*
Y197371D01*
X151465D01*
Y196377D01*
X151030D01*
Y199173D01*
X153826D01*
Y199111D01*
D02*
G37*
G36*
X148980Y199173D02*
X149353D01*
Y199111D01*
X149601D01*
Y199048D01*
X149726D01*
Y198986D01*
X149850D01*
Y198924D01*
X149912D01*
Y198862D01*
X150036D01*
Y198800D01*
X150099D01*
Y198738D01*
X150161D01*
Y198614D01*
X150223D01*
Y198489D01*
X150285D01*
Y198365D01*
X150347D01*
Y197930D01*
X150409D01*
Y197682D01*
X150347D01*
Y197247D01*
X150285D01*
Y197061D01*
X150223D01*
Y196936D01*
X150161D01*
Y196874D01*
X150099D01*
Y196812D01*
X150036D01*
Y196750D01*
X149974D01*
Y196688D01*
X149912D01*
Y196626D01*
X149788D01*
Y196564D01*
X149664D01*
Y196502D01*
X149539D01*
Y196439D01*
X149229D01*
Y196377D01*
X147614D01*
Y196439D01*
X147365D01*
Y196502D01*
X147179D01*
Y196564D01*
X147055D01*
Y196626D01*
X146930D01*
Y196688D01*
X146868D01*
Y196750D01*
X146806D01*
Y196812D01*
X146744D01*
Y196874D01*
X146682D01*
Y196999D01*
X146620D01*
Y197123D01*
X146558D01*
Y197371D01*
X146495D01*
Y198241D01*
X146558D01*
Y198427D01*
X146620D01*
Y198551D01*
X146682D01*
Y198676D01*
X146744D01*
Y198738D01*
X146806D01*
Y198800D01*
X146868D01*
Y198862D01*
X146930D01*
Y198924D01*
X146992D01*
Y198986D01*
X147117D01*
Y199048D01*
X147303D01*
Y199111D01*
X147489D01*
Y199173D01*
X147924D01*
Y199235D01*
X148980D01*
Y199173D01*
D02*
G37*
G36*
X144632Y199111D02*
X145004D01*
Y199048D01*
X145253D01*
Y198986D01*
X145377D01*
Y198924D01*
X145501D01*
Y198862D01*
X145564D01*
Y198800D01*
X145688D01*
Y198738D01*
X145750D01*
Y198676D01*
X145812D01*
Y198551D01*
X145874D01*
Y198427D01*
X145936D01*
Y198365D01*
Y198303D01*
X145999D01*
Y197868D01*
X146061D01*
Y197620D01*
X145999D01*
Y197185D01*
X145936D01*
Y196999D01*
X145874D01*
Y196874D01*
X145812D01*
Y196812D01*
X145750D01*
Y196750D01*
X145688D01*
Y196688D01*
X145626D01*
Y196626D01*
X145564D01*
Y196564D01*
X145439D01*
Y196502D01*
X145315D01*
Y196439D01*
X145191D01*
Y196377D01*
X144880D01*
Y196315D01*
X143265D01*
Y196377D01*
X143017D01*
Y196439D01*
X142830D01*
Y196502D01*
X142706D01*
Y196564D01*
X142582D01*
Y196626D01*
X142520D01*
Y196688D01*
X142458D01*
Y196750D01*
X142395D01*
Y196812D01*
X142333D01*
Y196936D01*
X142271D01*
Y197061D01*
X142209D01*
Y197309D01*
X142147D01*
Y198179D01*
X142209D01*
Y198365D01*
X142271D01*
Y198489D01*
X142333D01*
Y198614D01*
X142395D01*
Y198676D01*
X142458D01*
Y198738D01*
X142520D01*
Y198800D01*
X142582D01*
Y198862D01*
X142644D01*
Y198924D01*
X142768D01*
Y198986D01*
X142955D01*
Y199048D01*
X143141D01*
Y199111D01*
X143576D01*
Y199173D01*
X144632D01*
Y199111D01*
D02*
G37*
G36*
X139165Y197123D02*
X139227D01*
Y196999D01*
X139289D01*
Y196936D01*
X139351D01*
Y196874D01*
X139476D01*
Y196812D01*
X139724D01*
Y196750D01*
X141899D01*
Y196315D01*
X139662D01*
Y196377D01*
X139351D01*
Y196439D01*
X139227D01*
Y196502D01*
X139103D01*
Y196564D01*
X139041D01*
Y196626D01*
X138979D01*
Y196688D01*
X138917D01*
Y196750D01*
X138855D01*
Y196874D01*
X138792D01*
Y196999D01*
X138730D01*
Y199111D01*
X139165D01*
Y197123D01*
D02*
G37*
G36*
X137488Y199048D02*
X137674D01*
Y198986D01*
X137799D01*
Y198924D01*
X137861D01*
Y198862D01*
X137923D01*
Y198800D01*
X137985D01*
Y198676D01*
X138047D01*
Y198551D01*
X138109D01*
Y197992D01*
X138047D01*
Y197868D01*
X137985D01*
Y197744D01*
X137923D01*
Y197682D01*
X137799D01*
Y197620D01*
X137674D01*
Y197558D01*
X137550D01*
Y197495D01*
X137674D01*
Y197433D01*
X137799D01*
Y197371D01*
X137861D01*
Y197309D01*
X137923D01*
Y197247D01*
X137985D01*
Y197123D01*
X138047D01*
Y196315D01*
X137612D01*
Y196936D01*
X137550D01*
Y197123D01*
X137488D01*
Y197185D01*
X137426D01*
Y197247D01*
X137302D01*
Y197309D01*
X135065D01*
Y196315D01*
X134630D01*
Y199111D01*
X137488D01*
Y199048D01*
D02*
G37*
G36*
X133947Y198738D02*
X131711D01*
Y198676D01*
X131338D01*
Y198614D01*
X131151D01*
Y198551D01*
X131089D01*
Y198489D01*
X131027D01*
Y198427D01*
X130965D01*
Y198303D01*
X130903D01*
Y198055D01*
X130841D01*
Y197930D01*
X133885D01*
Y197558D01*
X131214D01*
Y197495D01*
X130841D01*
Y197371D01*
X130903D01*
Y197185D01*
X130965D01*
Y197061D01*
X131027D01*
Y196936D01*
X131151D01*
Y196874D01*
X131214D01*
Y196812D01*
X131400D01*
Y196750D01*
X133947D01*
Y196315D01*
X131400D01*
Y196377D01*
X131089D01*
Y196439D01*
X130965D01*
Y196502D01*
X130841D01*
Y196564D01*
X130779D01*
Y196626D01*
X130717D01*
Y196688D01*
X130655D01*
Y196750D01*
X130592D01*
Y196874D01*
X130530D01*
Y196999D01*
X130468D01*
Y197309D01*
X130406D01*
Y198179D01*
X130468D01*
Y198427D01*
X130530D01*
Y198551D01*
X130592D01*
Y198676D01*
X130655D01*
Y198738D01*
X130717D01*
Y198800D01*
X130779D01*
Y198862D01*
X130841D01*
Y198924D01*
X130903D01*
Y198986D01*
X131027D01*
Y199048D01*
X131276D01*
Y199111D01*
X133947D01*
Y198738D01*
D02*
G37*
G36*
X129847Y198676D02*
X127238D01*
Y198614D01*
X127114D01*
Y198551D01*
X126989D01*
Y198489D01*
X126927D01*
Y198427D01*
X126865D01*
Y198303D01*
X126803D01*
Y198055D01*
X126741D01*
Y197433D01*
X126803D01*
Y197185D01*
X126865D01*
Y197061D01*
X126927D01*
Y196999D01*
X126989D01*
Y196936D01*
X127051D01*
Y196874D01*
X127114D01*
Y196812D01*
X127362D01*
Y196750D01*
X129412D01*
Y197806D01*
X129847D01*
Y197433D01*
Y197371D01*
Y196315D01*
X127300D01*
Y196377D01*
X126989D01*
Y196439D01*
X126865D01*
Y196502D01*
X126741D01*
Y196564D01*
X126679D01*
Y196626D01*
X126617D01*
Y196688D01*
X126555D01*
Y196750D01*
X126492D01*
Y196874D01*
X126430D01*
Y196999D01*
X126368D01*
Y197309D01*
X126306D01*
Y198179D01*
X126368D01*
Y198427D01*
X126430D01*
Y198551D01*
X126492D01*
Y198676D01*
X126555D01*
Y198738D01*
X126617D01*
Y198800D01*
X126679D01*
Y198862D01*
X126741D01*
Y198924D01*
X126803D01*
Y198986D01*
X126927D01*
Y199048D01*
X127176D01*
Y199111D01*
X129847D01*
Y198676D01*
D02*
G37*
G36*
X124939Y199048D02*
X125126D01*
Y198986D01*
X125250D01*
Y198924D01*
X125374D01*
Y198862D01*
X125436D01*
Y198800D01*
X125498D01*
Y198738D01*
X125561D01*
Y198614D01*
X125623D01*
Y198489D01*
X125685D01*
Y198303D01*
X125747D01*
Y197123D01*
X125685D01*
Y196936D01*
X125623D01*
Y196812D01*
X125561D01*
Y196750D01*
X125498D01*
Y196688D01*
X125436D01*
Y196626D01*
X125374D01*
Y196564D01*
X125312D01*
Y196502D01*
X125188D01*
Y196439D01*
X125064D01*
Y196377D01*
X124753D01*
Y196315D01*
X122144D01*
Y199111D01*
X124939D01*
Y199048D01*
D02*
G37*
G36*
X119970Y199111D02*
X120156D01*
Y199048D01*
X120218D01*
Y198986D01*
X120342D01*
Y198924D01*
X120405D01*
Y198800D01*
X120467D01*
Y198738D01*
X120529D01*
Y198614D01*
X120591D01*
Y198489D01*
X120653D01*
Y198365D01*
X120715D01*
Y198241D01*
X120777D01*
Y198117D01*
X120839D01*
Y197992D01*
X120902D01*
Y197868D01*
X120964D01*
Y197744D01*
X121026D01*
Y197620D01*
X121088D01*
Y197495D01*
X121150D01*
Y197371D01*
X121212D01*
Y197247D01*
X121274D01*
Y197123D01*
X121336D01*
Y196999D01*
X121398D01*
Y196874D01*
X121461D01*
Y196750D01*
X121523D01*
Y196626D01*
X121585D01*
Y196502D01*
X121647D01*
Y196377D01*
X121709D01*
Y196315D01*
X121212D01*
Y196439D01*
X121150D01*
Y196564D01*
X121088D01*
Y196688D01*
X121026D01*
Y196812D01*
X120964D01*
Y196936D01*
X120902D01*
Y197061D01*
X120839D01*
Y197123D01*
X119411D01*
Y197061D01*
X118603D01*
Y196936D01*
X118541D01*
Y196812D01*
X118479D01*
Y196688D01*
X118417D01*
Y196564D01*
X118354D01*
Y196439D01*
X118292D01*
Y196315D01*
X117796D01*
Y196377D01*
X117858D01*
Y196502D01*
X117920D01*
Y196626D01*
X117982D01*
Y196750D01*
X118044D01*
Y196874D01*
X118106D01*
Y196999D01*
X118168D01*
Y197185D01*
X118230D01*
Y197309D01*
X118292D01*
Y197433D01*
X118354D01*
Y197558D01*
X118417D01*
Y197682D01*
X118479D01*
Y197806D01*
X118541D01*
Y197930D01*
X118603D01*
Y198055D01*
X118665D01*
Y198179D01*
X118727D01*
Y198303D01*
X118789D01*
Y198427D01*
X118851D01*
Y198551D01*
X118914D01*
Y198676D01*
X118976D01*
Y198738D01*
X119038D01*
Y198862D01*
X119100D01*
Y198924D01*
X119162D01*
Y198986D01*
X119224D01*
Y199048D01*
X119349D01*
Y199111D01*
X119473D01*
Y199173D01*
X119970D01*
Y199111D01*
D02*
G37*
G36*
X116864Y199048D02*
X116988D01*
Y198986D01*
X117112D01*
Y198924D01*
X117174D01*
Y198862D01*
X117236D01*
Y198800D01*
X117298D01*
Y198738D01*
X117361D01*
Y198117D01*
X117298D01*
Y197992D01*
X117236D01*
Y197930D01*
X117174D01*
Y197868D01*
X117050D01*
Y197806D01*
X116926D01*
Y197744D01*
X117050D01*
Y197682D01*
X117174D01*
Y197620D01*
X117236D01*
Y197558D01*
X117298D01*
Y197495D01*
X117361D01*
Y197433D01*
X117423D01*
Y197247D01*
X117485D01*
Y196874D01*
X117423D01*
Y196750D01*
X117361D01*
Y196626D01*
X117298D01*
Y196564D01*
X117236D01*
Y196502D01*
X117112D01*
Y196439D01*
X116988D01*
Y196377D01*
X116739D01*
Y196315D01*
X113944D01*
Y196874D01*
Y196936D01*
Y199111D01*
X116864D01*
Y199048D01*
D02*
G37*
G36*
X119168Y235255D02*
X118877D01*
Y235620D01*
X119168D01*
Y235255D01*
D02*
G37*
G36*
X123756Y234803D02*
X123793Y234793D01*
X123839Y234775D01*
X123881Y234747D01*
X123918Y234701D01*
X123936Y234673D01*
X123950Y234636D01*
X123955Y234599D01*
X123959Y234553D01*
Y234096D01*
X123673D01*
Y234535D01*
X123142Y234511D01*
Y232682D01*
X122855D01*
Y234793D01*
X123142D01*
Y234729D01*
X123146D01*
X123165Y234733D01*
X123192Y234738D01*
X123229Y234742D01*
X123275Y234752D01*
X123322Y234761D01*
X123428Y234780D01*
X123437D01*
X123456Y234784D01*
X123488Y234789D01*
X123530Y234793D01*
X123576Y234798D01*
X123627Y234803D01*
X123673Y234807D01*
X123728D01*
X123756Y234803D01*
D02*
G37*
G36*
X118295D02*
X118332Y234793D01*
X118378Y234775D01*
X118420Y234747D01*
X118457Y234701D01*
X118475Y234673D01*
X118489Y234636D01*
X118494Y234599D01*
X118498Y234553D01*
Y234096D01*
X118212D01*
Y234535D01*
X117681Y234511D01*
Y232682D01*
X117394D01*
Y234793D01*
X117681D01*
Y234729D01*
X117685D01*
X117704Y234733D01*
X117731Y234738D01*
X117768Y234742D01*
X117815Y234752D01*
X117861Y234761D01*
X117967Y234780D01*
X117976D01*
X117995Y234784D01*
X118027Y234789D01*
X118069Y234793D01*
X118115Y234798D01*
X118166Y234803D01*
X118212Y234807D01*
X118267D01*
X118295Y234803D01*
D02*
G37*
G36*
X130122Y236073D02*
X130150Y236069D01*
X130178Y236059D01*
X130210Y236045D01*
X130238Y236027D01*
X130265Y236004D01*
X130270Y235999D01*
X130279Y235990D01*
X130289Y235976D01*
X130303Y235958D01*
X130316Y235930D01*
X130330Y235897D01*
X130335Y235865D01*
X130339Y235824D01*
Y234553D01*
Y234548D01*
Y234544D01*
X130335Y234516D01*
X130321Y234475D01*
X130298Y234428D01*
X130279Y234405D01*
X130256Y234382D01*
X130233Y234364D01*
X130201Y234341D01*
X130159Y234327D01*
X130118Y234313D01*
X130067Y234308D01*
X130007Y234304D01*
X129901D01*
X129877Y234308D01*
X129822D01*
X129827Y234299D01*
X129836Y234271D01*
X129850Y234230D01*
X129873Y234170D01*
X129901Y234096D01*
X129928Y234008D01*
X129965Y233911D01*
X130007Y233800D01*
X130048Y233680D01*
X130095Y233555D01*
X130141Y233421D01*
X130192Y233278D01*
X130247Y233135D01*
X130298Y232987D01*
X130409Y232682D01*
X130090D01*
X129457Y234498D01*
X129494Y234562D01*
X130039D01*
Y235810D01*
X129263D01*
Y232682D01*
X128963D01*
Y236078D01*
X130104D01*
X130122Y236073D01*
D02*
G37*
G36*
X133153Y232677D02*
X132890D01*
X132363Y234793D01*
X132659D01*
X133019Y233130D01*
X133389Y234793D01*
X133675D01*
X133153Y232677D01*
D02*
G37*
G36*
X120323D02*
X120060D01*
X119533Y234793D01*
X119829D01*
X120189Y233130D01*
X120559Y234793D01*
X120845D01*
X120323Y232677D01*
D02*
G37*
G36*
X136803Y236073D02*
X136830Y236069D01*
X136858Y236059D01*
X136891Y236045D01*
X136918Y236027D01*
X136946Y236004D01*
X136951Y235999D01*
X136960Y235990D01*
X136969Y235976D01*
X136983Y235958D01*
X136997Y235930D01*
X137011Y235897D01*
X137015Y235865D01*
X137020Y235824D01*
Y234706D01*
Y234701D01*
Y234692D01*
X137015Y234673D01*
X137006Y234655D01*
X136988Y234632D01*
X136969Y234604D01*
X136937Y234576D01*
X136895Y234553D01*
X136891D01*
X136877Y234544D01*
X136849Y234535D01*
X136821Y234525D01*
X136784Y234511D01*
X136743Y234493D01*
X136655Y234456D01*
X136914Y234345D01*
X136918D01*
X136932Y234336D01*
X136951Y234327D01*
X136974Y234313D01*
X136992Y234294D01*
X137011Y234271D01*
X137025Y234239D01*
X137029Y234207D01*
Y232931D01*
Y232927D01*
Y232913D01*
X137025Y232894D01*
X137020Y232867D01*
X137011Y232839D01*
X136997Y232807D01*
X136978Y232779D01*
X136955Y232751D01*
X136951Y232747D01*
X136941Y232742D01*
X136928Y232728D01*
X136909Y232719D01*
X136881Y232705D01*
X136849Y232691D01*
X136817Y232687D01*
X136775Y232682D01*
X135671D01*
Y236078D01*
X136784D01*
X136803Y236073D01*
D02*
G37*
G36*
X134322Y232682D02*
X133994D01*
Y233066D01*
X134322D01*
Y232682D01*
D02*
G37*
G36*
X131790Y234789D02*
X131832Y234780D01*
X131878Y234761D01*
X131924Y234733D01*
X131966Y234687D01*
X131984Y234659D01*
X131993Y234622D01*
X132003Y234585D01*
X132007Y234539D01*
Y233786D01*
X131906Y233685D01*
X131106D01*
Y232922D01*
X131725D01*
Y233310D01*
X132007D01*
Y232927D01*
Y232922D01*
Y232918D01*
X132003Y232890D01*
X131993Y232848D01*
X131975Y232807D01*
X131943Y232761D01*
X131896Y232719D01*
X131869Y232705D01*
X131836Y232691D01*
X131799Y232687D01*
X131753Y232682D01*
X131065D01*
X131037Y232687D01*
X130996Y232696D01*
X130949Y232714D01*
X130903Y232742D01*
X130861Y232788D01*
X130848Y232816D01*
X130834Y232848D01*
X130829Y232890D01*
X130824Y232931D01*
Y234539D01*
Y234544D01*
Y234548D01*
X130829Y234581D01*
X130838Y234618D01*
X130857Y234669D01*
X130885Y234715D01*
X130931Y234752D01*
X130958Y234770D01*
X130991Y234784D01*
X131032Y234789D01*
X131074Y234793D01*
X131762D01*
X131790Y234789D01*
D02*
G37*
G36*
X127332Y236073D02*
X127359Y236069D01*
X127387Y236059D01*
X127420Y236045D01*
X127447Y236027D01*
X127475Y236004D01*
X127480Y235999D01*
X127489Y235990D01*
X127498Y235976D01*
X127512Y235958D01*
X127526Y235930D01*
X127540Y235897D01*
X127544Y235865D01*
X127549Y235824D01*
Y232931D01*
Y232927D01*
Y232913D01*
X127544Y232894D01*
X127540Y232867D01*
X127531Y232839D01*
X127517Y232807D01*
X127498Y232779D01*
X127475Y232751D01*
X127470Y232747D01*
X127461Y232742D01*
X127447Y232728D01*
X127429Y232719D01*
X127401Y232705D01*
X127369Y232691D01*
X127336Y232687D01*
X127295Y232682D01*
X126348D01*
X126329Y232687D01*
X126302Y232691D01*
X126274Y232700D01*
X126242Y232710D01*
X126214Y232728D01*
X126186Y232751D01*
X126181Y232756D01*
X126177Y232765D01*
X126163Y232779D01*
X126154Y232802D01*
X126140Y232825D01*
X126126Y232858D01*
X126121Y232890D01*
X126117Y232931D01*
Y235824D01*
Y235828D01*
Y235842D01*
X126121Y235861D01*
X126126Y235888D01*
X126135Y235916D01*
X126145Y235948D01*
X126163Y235976D01*
X126186Y236004D01*
X126191Y236008D01*
X126200Y236018D01*
X126214Y236027D01*
X126237Y236041D01*
X126260Y236055D01*
X126292Y236069D01*
X126325Y236073D01*
X126366Y236078D01*
X127313D01*
X127332Y236073D01*
D02*
G37*
G36*
X125544Y232682D02*
X125244D01*
Y236078D01*
X125544D01*
Y232682D01*
D02*
G37*
G36*
X122162Y234789D02*
X122204Y234780D01*
X122250Y234761D01*
X122296Y234733D01*
X122338Y234687D01*
X122356Y234659D01*
X122365Y234622D01*
X122375Y234585D01*
X122379Y234539D01*
Y233786D01*
X122277Y233685D01*
X121478D01*
Y232922D01*
X122097D01*
Y233310D01*
X122379D01*
Y232927D01*
Y232922D01*
Y232918D01*
X122375Y232890D01*
X122365Y232848D01*
X122347Y232807D01*
X122315Y232761D01*
X122268Y232719D01*
X122241Y232705D01*
X122208Y232691D01*
X122171Y232687D01*
X122125Y232682D01*
X121437D01*
X121409Y232687D01*
X121367Y232696D01*
X121321Y232714D01*
X121275Y232742D01*
X121233Y232788D01*
X121220Y232816D01*
X121206Y232848D01*
X121201Y232890D01*
X121196Y232931D01*
Y234539D01*
Y234544D01*
Y234548D01*
X121201Y234581D01*
X121210Y234618D01*
X121229Y234669D01*
X121256Y234715D01*
X121303Y234752D01*
X121330Y234770D01*
X121363Y234784D01*
X121404Y234789D01*
X121446Y234793D01*
X122134D01*
X122162Y234789D01*
D02*
G37*
G36*
X119168Y232682D02*
X118882D01*
Y234793D01*
X119168D01*
Y232682D01*
D02*
G37*
G36*
X116318Y236073D02*
X116369Y236069D01*
X116429Y236055D01*
X116502Y236036D01*
X116577Y236004D01*
X116650Y235962D01*
X116720Y235902D01*
X116729Y235893D01*
X116747Y235870D01*
X116775Y235833D01*
X116807Y235782D01*
X116840Y235722D01*
X116867Y235643D01*
X116886Y235560D01*
X116895Y235463D01*
Y233292D01*
Y233287D01*
Y233278D01*
Y233264D01*
X116891Y233246D01*
X116886Y233200D01*
X116872Y233135D01*
X116854Y233066D01*
X116821Y232992D01*
X116775Y232922D01*
X116715Y232853D01*
X116706Y232844D01*
X116683Y232825D01*
X116646Y232798D01*
X116595Y232770D01*
X116530Y232737D01*
X116456Y232710D01*
X116369Y232691D01*
X116271Y232682D01*
X115500D01*
Y236078D01*
X116299D01*
X116318Y236073D01*
D02*
G37*
G36*
X122860Y231994D02*
X122887Y231989D01*
X122915Y231980D01*
X122947Y231966D01*
X122975Y231947D01*
X123003Y231924D01*
X123008Y231920D01*
X123017Y231910D01*
X123026Y231897D01*
X123040Y231878D01*
X123054Y231850D01*
X123068Y231818D01*
X123072Y231786D01*
X123077Y231744D01*
Y230968D01*
X122776D01*
Y231730D01*
X122042D01*
Y231014D01*
X122980Y229878D01*
X122984Y229873D01*
X122994Y229859D01*
X123012Y229836D01*
X123031Y229804D01*
X123045Y229767D01*
X123063Y229725D01*
X123072Y229674D01*
X123077Y229624D01*
Y228852D01*
Y228847D01*
Y228834D01*
X123072Y228815D01*
X123068Y228787D01*
X123058Y228760D01*
X123045Y228727D01*
X123026Y228700D01*
X123003Y228672D01*
X122998Y228667D01*
X122989Y228663D01*
X122975Y228649D01*
X122957Y228640D01*
X122929Y228626D01*
X122897Y228612D01*
X122864Y228607D01*
X122823Y228603D01*
X121973D01*
X121954Y228607D01*
X121926Y228612D01*
X121899Y228621D01*
X121866Y228630D01*
X121839Y228649D01*
X121811Y228672D01*
X121806Y228677D01*
X121802Y228686D01*
X121788Y228700D01*
X121779Y228723D01*
X121765Y228746D01*
X121751Y228778D01*
X121746Y228811D01*
X121742Y228852D01*
Y229702D01*
X122042D01*
Y228871D01*
X122776D01*
Y229674D01*
X121839Y230811D01*
X121834Y230816D01*
X121825Y230829D01*
X121806Y230857D01*
X121792Y230885D01*
X121774Y230926D01*
X121756Y230968D01*
X121746Y231019D01*
X121742Y231070D01*
Y231744D01*
Y231749D01*
Y231763D01*
X121746Y231781D01*
X121751Y231809D01*
X121760Y231837D01*
X121769Y231869D01*
X121788Y231897D01*
X121811Y231924D01*
X121816Y231929D01*
X121825Y231938D01*
X121839Y231947D01*
X121862Y231961D01*
X121885Y231975D01*
X121917Y231989D01*
X121950Y231994D01*
X121991Y231998D01*
X122841D01*
X122860Y231994D01*
D02*
G37*
G36*
X121206Y230931D02*
X121016D01*
X120952Y231998D01*
X121275D01*
X121206Y230931D01*
D02*
G37*
G36*
X126477Y228603D02*
X126191D01*
Y228663D01*
X126181D01*
X126163Y228658D01*
X126126Y228653D01*
X126084Y228644D01*
X126034Y228640D01*
X125973Y228630D01*
X125849Y228612D01*
X125840D01*
X125817Y228607D01*
X125779Y228603D01*
X125729D01*
X125678Y228598D01*
X125622Y228593D01*
X125562Y228589D01*
X125502D01*
X125475Y228593D01*
X125433Y228603D01*
X125387Y228621D01*
X125341Y228653D01*
X125299Y228695D01*
X125285Y228723D01*
X125271Y228755D01*
X125267Y228797D01*
X125262Y228838D01*
Y230714D01*
X125549D01*
Y228861D01*
X126191Y228880D01*
Y230714D01*
X126477D01*
Y228603D01*
D02*
G37*
G36*
X129351Y230709D02*
X129392Y230700D01*
X129438Y230682D01*
X129485Y230649D01*
X129526Y230608D01*
X129545Y230580D01*
X129554Y230548D01*
X129563Y230506D01*
X129568Y230464D01*
Y228603D01*
X129281D01*
Y228663D01*
X129272D01*
X129254Y228658D01*
X129217Y228653D01*
X129171Y228644D01*
X129120Y228640D01*
X129060Y228630D01*
X128935Y228612D01*
X128926D01*
X128898Y228607D01*
X128861Y228603D01*
X128815D01*
X128759Y228598D01*
X128699Y228593D01*
X128644Y228589D01*
X128584D01*
X128556Y228593D01*
X128519Y228603D01*
X128478Y228621D01*
X128431Y228649D01*
X128394Y228695D01*
X128381Y228723D01*
X128367Y228755D01*
X128362Y228797D01*
X128358Y228838D01*
Y229582D01*
Y229587D01*
Y229591D01*
X128362Y229619D01*
X128371Y229661D01*
X128385Y229707D01*
X128413Y229753D01*
X128454Y229795D01*
X128478Y229813D01*
X128510Y229822D01*
X128542Y229832D01*
X128584Y229836D01*
X129286D01*
Y230474D01*
X128662D01*
Y230113D01*
X128381D01*
Y230469D01*
Y230474D01*
Y230478D01*
X128385Y230506D01*
X128394Y230548D01*
X128408Y230589D01*
X128436Y230635D01*
X128478Y230672D01*
X128501Y230691D01*
X128533Y230700D01*
X128565Y230709D01*
X128607Y230714D01*
X129323D01*
X129351Y230709D01*
D02*
G37*
G36*
X127955Y230575D02*
X127179Y228861D01*
X127955D01*
Y228603D01*
X126842D01*
Y228732D01*
X127614Y230455D01*
X126921D01*
Y230714D01*
X127955D01*
Y230575D01*
D02*
G37*
G36*
X124569Y230709D02*
X124611Y230700D01*
X124657Y230682D01*
X124703Y230654D01*
X124745Y230608D01*
X124763Y230580D01*
X124772Y230543D01*
X124782Y230506D01*
X124786Y230460D01*
Y228852D01*
Y228847D01*
Y228843D01*
X124782Y228815D01*
X124772Y228773D01*
X124754Y228727D01*
X124722Y228681D01*
X124675Y228640D01*
X124648Y228626D01*
X124615Y228612D01*
X124578Y228607D01*
X124532Y228603D01*
X123816D01*
X123788Y228607D01*
X123747Y228616D01*
X123700Y228635D01*
X123654Y228663D01*
X123613Y228709D01*
X123599Y228736D01*
X123585Y228769D01*
X123580Y228811D01*
X123576Y228852D01*
Y230460D01*
Y230464D01*
Y230469D01*
X123580Y230501D01*
X123590Y230538D01*
X123608Y230589D01*
X123636Y230635D01*
X123682Y230672D01*
X123710Y230691D01*
X123742Y230705D01*
X123784Y230709D01*
X123825Y230714D01*
X124541D01*
X124569Y230709D01*
D02*
G37*
G36*
X119903Y231994D02*
X119954Y231989D01*
X120014Y231975D01*
X120088Y231957D01*
X120162Y231924D01*
X120236Y231883D01*
X120305Y231823D01*
X120314Y231814D01*
X120333Y231790D01*
X120360Y231753D01*
X120393Y231703D01*
X120425Y231643D01*
X120453Y231564D01*
X120471Y231481D01*
X120480Y231384D01*
Y229212D01*
Y229208D01*
Y229199D01*
Y229185D01*
X120476Y229166D01*
X120471Y229120D01*
X120457Y229055D01*
X120439Y228986D01*
X120406Y228912D01*
X120360Y228843D01*
X120300Y228773D01*
X120291Y228764D01*
X120268Y228746D01*
X120231Y228718D01*
X120180Y228690D01*
X120115Y228658D01*
X120042Y228630D01*
X119954Y228612D01*
X119857Y228603D01*
X119085D01*
Y231998D01*
X119884D01*
X119903Y231994D01*
D02*
G37*
G36*
X117736Y228603D02*
X117408D01*
Y228986D01*
X117736D01*
Y228603D01*
D02*
G37*
G36*
X116715Y231994D02*
X116743Y231989D01*
X116771Y231980D01*
X116803Y231966D01*
X116831Y231947D01*
X116858Y231924D01*
X116863Y231920D01*
X116872Y231910D01*
X116881Y231897D01*
X116895Y231878D01*
X116909Y231850D01*
X116923Y231818D01*
X116928Y231786D01*
X116932Y231744D01*
Y228852D01*
Y228847D01*
Y228834D01*
X116928Y228815D01*
X116923Y228787D01*
X116914Y228760D01*
X116900Y228727D01*
X116881Y228700D01*
X116858Y228672D01*
X116854Y228667D01*
X116844Y228663D01*
X116831Y228649D01*
X116812Y228640D01*
X116784Y228626D01*
X116752Y228612D01*
X116720Y228607D01*
X116678Y228603D01*
X115731D01*
X115712Y228607D01*
X115685Y228612D01*
X115657Y228621D01*
X115625Y228630D01*
X115597Y228649D01*
X115569Y228672D01*
X115565Y228677D01*
X115560Y228686D01*
X115546Y228700D01*
X115537Y228723D01*
X115523Y228746D01*
X115509Y228778D01*
X115505Y228811D01*
X115500Y228852D01*
Y231744D01*
Y231749D01*
Y231763D01*
X115505Y231781D01*
X115509Y231809D01*
X115518Y231837D01*
X115528Y231869D01*
X115546Y231897D01*
X115569Y231924D01*
X115574Y231929D01*
X115583Y231938D01*
X115597Y231947D01*
X115620Y231961D01*
X115643Y231975D01*
X115676Y231989D01*
X115708Y231994D01*
X115750Y231998D01*
X116697D01*
X116715Y231994D01*
D02*
G37*
G36*
X123372Y226634D02*
X123409Y226625D01*
X123456Y226607D01*
X123497Y226579D01*
X123534Y226533D01*
X123553Y226505D01*
X123566Y226468D01*
X123571Y226431D01*
X123576Y226385D01*
Y225928D01*
X123289D01*
Y226366D01*
X122758Y226343D01*
Y224514D01*
X122472D01*
Y226625D01*
X122758D01*
Y226560D01*
X122763D01*
X122781Y226565D01*
X122809Y226570D01*
X122846Y226574D01*
X122892Y226584D01*
X122938Y226593D01*
X123045Y226611D01*
X123054D01*
X123072Y226616D01*
X123105Y226621D01*
X123146Y226625D01*
X123192Y226630D01*
X123243Y226634D01*
X123289Y226639D01*
X123345D01*
X123372Y226634D01*
D02*
G37*
G36*
X117186Y224514D02*
X116900D01*
Y226662D01*
Y226667D01*
Y226671D01*
Y226690D01*
X116904Y226713D01*
Y226750D01*
X116914Y226796D01*
X116918Y226856D01*
X116928Y226930D01*
X116373Y224837D01*
X116308D01*
X115754Y226930D01*
Y226925D01*
Y226921D01*
X115759Y226893D01*
X115763Y226856D01*
X115773Y226815D01*
X115777Y226768D01*
X115782Y226722D01*
X115786Y226685D01*
Y226662D01*
Y224514D01*
X115500D01*
Y227910D01*
X115782D01*
X116332Y225701D01*
Y225697D01*
X116336Y225683D01*
Y225669D01*
Y225650D01*
X116341Y225632D01*
Y225627D01*
X116346Y225660D01*
X116350Y225701D01*
X116904Y227910D01*
X117186D01*
Y224514D01*
D02*
G37*
G36*
X125895Y226560D02*
X125904D01*
X125923Y226565D01*
X125955Y226570D01*
X126001Y226574D01*
X126048Y226584D01*
X126108Y226588D01*
X126228Y226607D01*
X126237D01*
X126265Y226611D01*
X126302Y226616D01*
X126352Y226625D01*
X126408Y226630D01*
X126463Y226634D01*
X126514Y226639D01*
X126574D01*
X126607Y226634D01*
X126643Y226625D01*
X126694Y226607D01*
X126741Y226579D01*
X126777Y226533D01*
X126796Y226505D01*
X126810Y226468D01*
X126814Y226431D01*
X126819Y226385D01*
Y224514D01*
X126533D01*
Y226366D01*
X125895Y226343D01*
Y224514D01*
X125609D01*
Y227910D01*
X125895D01*
Y226560D01*
D02*
G37*
G36*
X124925Y226621D02*
X124966Y226611D01*
X125013Y226593D01*
X125059Y226560D01*
X125100Y226519D01*
X125119Y226491D01*
X125128Y226459D01*
X125137Y226417D01*
X125142Y226376D01*
Y224514D01*
X124855D01*
Y224574D01*
X124846D01*
X124828Y224569D01*
X124791Y224565D01*
X124745Y224555D01*
X124694Y224551D01*
X124634Y224542D01*
X124509Y224523D01*
X124500D01*
X124472Y224518D01*
X124435Y224514D01*
X124389D01*
X124333Y224509D01*
X124273Y224505D01*
X124218Y224500D01*
X124158D01*
X124130Y224505D01*
X124093Y224514D01*
X124052Y224532D01*
X124005Y224560D01*
X123969Y224606D01*
X123955Y224634D01*
X123941Y224666D01*
X123936Y224708D01*
X123932Y224749D01*
Y225493D01*
Y225498D01*
Y225502D01*
X123936Y225530D01*
X123945Y225572D01*
X123959Y225618D01*
X123987Y225664D01*
X124029Y225706D01*
X124052Y225724D01*
X124084Y225733D01*
X124116Y225743D01*
X124158Y225747D01*
X124860D01*
Y226385D01*
X124236D01*
Y226025D01*
X123955D01*
Y226380D01*
Y226385D01*
Y226390D01*
X123959Y226417D01*
X123969Y226459D01*
X123982Y226501D01*
X124010Y226547D01*
X124052Y226584D01*
X124075Y226602D01*
X124107Y226611D01*
X124139Y226621D01*
X124181Y226625D01*
X124897D01*
X124925Y226621D01*
D02*
G37*
G36*
X121788D02*
X121829Y226611D01*
X121876Y226593D01*
X121922Y226560D01*
X121963Y226519D01*
X121982Y226491D01*
X121991Y226459D01*
X122000Y226417D01*
X122005Y226376D01*
Y224514D01*
X121719D01*
Y224574D01*
X121709D01*
X121691Y224569D01*
X121654Y224565D01*
X121608Y224555D01*
X121557Y224551D01*
X121497Y224542D01*
X121372Y224523D01*
X121363D01*
X121335Y224518D01*
X121298Y224514D01*
X121252D01*
X121196Y224509D01*
X121136Y224505D01*
X121081Y224500D01*
X121021D01*
X120993Y224505D01*
X120956Y224514D01*
X120915Y224532D01*
X120868Y224560D01*
X120832Y224606D01*
X120818Y224634D01*
X120804Y224666D01*
X120799Y224708D01*
X120794Y224749D01*
Y225493D01*
Y225498D01*
Y225502D01*
X120799Y225530D01*
X120808Y225572D01*
X120822Y225618D01*
X120850Y225664D01*
X120891Y225706D01*
X120915Y225724D01*
X120947Y225733D01*
X120979Y225743D01*
X121021Y225747D01*
X121723D01*
Y226385D01*
X121099D01*
Y226025D01*
X120818D01*
Y226380D01*
Y226385D01*
Y226390D01*
X120822Y226417D01*
X120832Y226459D01*
X120845Y226501D01*
X120873Y226547D01*
X120915Y226584D01*
X120938Y226602D01*
X120970Y226611D01*
X121002Y226621D01*
X121044Y226625D01*
X121760D01*
X121788Y226621D01*
D02*
G37*
G36*
X120420Y227642D02*
X119630D01*
Y226357D01*
X120356D01*
Y226085D01*
X119630D01*
Y224514D01*
X119330D01*
Y227910D01*
X120420D01*
Y227642D01*
D02*
G37*
G36*
X117981Y224514D02*
X117653D01*
Y224897D01*
X117981D01*
Y224514D01*
D02*
G37*
%LPC*%
G36*
X133139Y209236D02*
X132270D01*
Y209174D01*
X131773D01*
Y209112D01*
X131462D01*
Y209050D01*
X131214D01*
Y208988D01*
X131027D01*
Y208926D01*
X130903D01*
Y208864D01*
X130717D01*
Y208802D01*
X130592D01*
Y208739D01*
X130530D01*
Y208677D01*
X130406D01*
Y208615D01*
X130344D01*
Y208553D01*
X130220D01*
Y208491D01*
X130158D01*
Y208429D01*
X130096D01*
Y208367D01*
X130033D01*
Y208305D01*
X129971D01*
Y208180D01*
X129909D01*
Y208118D01*
X129847D01*
Y207994D01*
X129785D01*
Y207808D01*
X129723D01*
Y207683D01*
X129661D01*
Y207621D01*
X129598D01*
Y207559D01*
X129536D01*
Y207435D01*
X129474D01*
Y207373D01*
X129412D01*
Y207311D01*
X129288D01*
Y207248D01*
X129226D01*
Y207186D01*
X129164D01*
Y207124D01*
X129039D01*
Y207062D01*
X128977D01*
Y207000D01*
X128791D01*
Y206938D01*
X128170D01*
Y206876D01*
X127549D01*
Y206814D01*
X126989D01*
Y206751D01*
X126555D01*
Y206689D01*
X126120D01*
Y206627D01*
X125747D01*
Y206565D01*
X125436D01*
Y206503D01*
X125126D01*
Y206441D01*
X124815D01*
Y206379D01*
X124567D01*
Y206317D01*
X124380D01*
Y206255D01*
X124132D01*
Y206192D01*
X123945D01*
Y206130D01*
X123759D01*
Y206068D01*
X123573D01*
Y206006D01*
X123386D01*
Y205944D01*
X123262D01*
Y205882D01*
X123076D01*
Y205820D01*
X122951D01*
Y205758D01*
X122827D01*
Y205696D01*
X122703D01*
Y205633D01*
X122641D01*
Y205571D01*
X122517D01*
Y205509D01*
X122392D01*
Y205447D01*
X122330D01*
Y205385D01*
X122268D01*
Y205323D01*
X122206D01*
Y205261D01*
X122082D01*
Y205199D01*
X122020D01*
Y205136D01*
X121958D01*
Y205074D01*
X121896D01*
Y204950D01*
X121833D01*
Y204888D01*
X121771D01*
Y204764D01*
X121709D01*
Y204639D01*
X121647D01*
Y204515D01*
X121585D01*
Y203708D01*
X121647D01*
Y203521D01*
X121709D01*
Y203397D01*
X121771D01*
Y203335D01*
X121833D01*
Y203273D01*
X121896D01*
Y203211D01*
X121958D01*
Y203149D01*
X122020D01*
Y203086D01*
X122082D01*
Y203024D01*
X122144D01*
Y202962D01*
X122206D01*
Y202900D01*
X122268D01*
Y202838D01*
X122392D01*
Y202776D01*
X122517D01*
Y202714D01*
X122641D01*
Y202652D01*
X122765D01*
Y202589D01*
X122889D01*
Y202527D01*
X123014D01*
Y202465D01*
X123200D01*
Y202403D01*
X123386D01*
Y202341D01*
X123573D01*
Y202279D01*
X123759D01*
Y202217D01*
X124008D01*
Y202154D01*
X124256D01*
Y202092D01*
X124504D01*
Y202030D01*
X124815D01*
Y201968D01*
X125126D01*
Y201906D01*
X125498D01*
Y201844D01*
X125933D01*
Y201782D01*
X126430D01*
Y201720D01*
X126989D01*
Y201658D01*
X127735D01*
Y201595D01*
X128729D01*
Y201533D01*
X133077D01*
Y201595D01*
X133885D01*
Y201658D01*
X134444D01*
Y201720D01*
X134817D01*
Y201782D01*
X135189D01*
Y201844D01*
X135500D01*
Y201906D01*
X135749D01*
Y201968D01*
X135997D01*
Y202030D01*
X136246D01*
Y202092D01*
X136494D01*
Y202154D01*
X136680D01*
Y202217D01*
X136867D01*
Y202279D01*
X137053D01*
Y202341D01*
X137239D01*
Y202403D01*
X137364D01*
Y202465D01*
X136742D01*
Y202403D01*
X135065D01*
Y202341D01*
X132580D01*
Y202403D01*
X130655D01*
Y202465D01*
X129412D01*
Y202527D01*
X128542D01*
Y202589D01*
X127859D01*
Y202652D01*
X127300D01*
Y202714D01*
X126803D01*
Y202776D01*
X126368D01*
Y202838D01*
X125996D01*
Y202900D01*
X125685D01*
Y202962D01*
X125436D01*
Y203024D01*
X125188D01*
Y203086D01*
X124939D01*
Y203149D01*
X124753D01*
Y203211D01*
X124567D01*
Y203273D01*
X124442D01*
Y203335D01*
X124256D01*
Y203397D01*
X124132D01*
Y203459D01*
X124070D01*
Y203521D01*
X123945D01*
Y203583D01*
X123883D01*
Y203645D01*
X123821D01*
Y203708D01*
X123759D01*
Y203770D01*
X123697D01*
Y203832D01*
X123635D01*
Y203956D01*
X123573D01*
Y204453D01*
X123635D01*
Y204577D01*
X123697D01*
Y204639D01*
X123759D01*
Y204764D01*
X123821D01*
Y204826D01*
X123883D01*
Y204888D01*
X124008D01*
Y204950D01*
X124070D01*
Y205012D01*
X124194D01*
Y205074D01*
X124318D01*
Y205136D01*
X124442D01*
Y205199D01*
X124567D01*
Y205261D01*
X124691D01*
Y205323D01*
X124877D01*
Y205385D01*
X125064D01*
Y205447D01*
X125250D01*
Y205509D01*
X125498D01*
Y205571D01*
X125747D01*
Y205633D01*
X125996D01*
Y205696D01*
X126306D01*
Y205758D01*
X126617D01*
Y205820D01*
X126989D01*
Y205882D01*
X127362D01*
Y205944D01*
X127859D01*
Y206006D01*
X128356D01*
Y206068D01*
X128977D01*
Y206130D01*
X129785D01*
Y206192D01*
X130717D01*
Y206255D01*
X132083D01*
Y206317D01*
X138295D01*
Y206255D01*
X139973D01*
Y206192D01*
X141153D01*
Y206130D01*
X142209D01*
Y206068D01*
X143079D01*
Y206006D01*
X143824D01*
Y205944D01*
X144508D01*
Y205882D01*
X145129D01*
Y205820D01*
X145688D01*
Y205758D01*
X146185D01*
Y205696D01*
X146620D01*
Y205633D01*
X147055D01*
Y205571D01*
X147365D01*
Y205633D01*
X147117D01*
Y205696D01*
X146868D01*
Y205758D01*
X146620D01*
Y205820D01*
X146309D01*
Y205882D01*
X146061D01*
Y205944D01*
X145750D01*
Y206006D01*
X145377D01*
Y206068D01*
X145067D01*
Y206130D01*
X144694D01*
Y206192D01*
X144321D01*
Y206255D01*
X143886D01*
Y206317D01*
X143451D01*
Y206379D01*
X143017D01*
Y206441D01*
X142520D01*
Y206503D01*
X142023D01*
Y206565D01*
X141464D01*
Y206627D01*
X140904D01*
Y206689D01*
X140221D01*
Y206751D01*
X139538D01*
Y206814D01*
X138792D01*
Y206876D01*
X137923D01*
Y206938D01*
X137488D01*
Y207000D01*
X137302D01*
Y207062D01*
X137115D01*
Y207124D01*
X137053D01*
Y207186D01*
X136929D01*
Y207248D01*
X136867D01*
Y207311D01*
X136742D01*
Y207373D01*
X136680D01*
Y207435D01*
X136618D01*
Y207497D01*
X136556D01*
Y207559D01*
X136494D01*
Y207621D01*
X136432D01*
Y207746D01*
X136370D01*
Y207870D01*
X136308D01*
Y207932D01*
X136246D01*
Y207994D01*
X136183D01*
Y208056D01*
X136121D01*
Y208118D01*
X136059D01*
Y208180D01*
X135997D01*
Y208242D01*
X135935D01*
Y208305D01*
X135873D01*
Y208367D01*
X135749D01*
Y208429D01*
X135686D01*
Y208491D01*
X135562D01*
Y208553D01*
X135438D01*
Y208615D01*
X135314D01*
Y208677D01*
X135189D01*
Y208739D01*
X135003D01*
Y208802D01*
X134879D01*
Y208864D01*
X134692D01*
Y208926D01*
X134506D01*
Y208988D01*
X134258D01*
Y209050D01*
X134009D01*
Y209112D01*
X133698D01*
Y209174D01*
X133139D01*
Y209236D01*
D02*
G37*
G36*
X147552Y205571D02*
X147427D01*
Y205509D01*
X147552D01*
Y205571D01*
D02*
G37*
G36*
X147241Y205509D02*
X147179D01*
Y205447D01*
X147241D01*
Y205509D01*
D02*
G37*
G36*
X146558Y205571D02*
X144259D01*
Y205509D01*
X143576D01*
Y205447D01*
X143079D01*
Y205385D01*
X142644D01*
Y205323D01*
X142271D01*
Y205261D01*
X141899D01*
Y205199D01*
X141650D01*
Y205136D01*
X141339D01*
Y205074D01*
X141091D01*
Y205012D01*
X140842D01*
Y204950D01*
X140656D01*
Y204888D01*
X140470D01*
Y204826D01*
X140283D01*
Y204764D01*
X140097D01*
Y204701D01*
X139973D01*
Y204639D01*
X139848D01*
Y204577D01*
X139724D01*
Y204515D01*
X139600D01*
Y204453D01*
X139476D01*
Y204391D01*
X139351D01*
Y204329D01*
X139227D01*
Y204267D01*
X139165D01*
Y204205D01*
X139041D01*
Y204142D01*
X138979D01*
Y204080D01*
X138917D01*
Y204018D01*
X138792D01*
Y203956D01*
X138730D01*
Y203894D01*
X138668D01*
Y203832D01*
X138606D01*
Y203770D01*
X138544D01*
Y203708D01*
X138420D01*
Y203645D01*
X138358D01*
Y203583D01*
X138295D01*
Y203521D01*
X138233D01*
Y203459D01*
X138171D01*
Y203397D01*
X138109D01*
Y203335D01*
X138047D01*
Y203273D01*
X137985D01*
Y203149D01*
X137923D01*
Y203086D01*
X137861D01*
Y203024D01*
X137799D01*
Y202962D01*
X137736D01*
Y202900D01*
X137674D01*
Y202838D01*
X137612D01*
Y202776D01*
X137736D01*
Y202838D01*
X137799D01*
Y202900D01*
X137861D01*
Y202962D01*
X137923D01*
Y203024D01*
X137985D01*
Y203086D01*
X138047D01*
Y203149D01*
X138171D01*
Y203211D01*
X138233D01*
Y203273D01*
X138295D01*
Y203335D01*
X138420D01*
Y203397D01*
X138482D01*
Y203459D01*
X138544D01*
Y203521D01*
X138668D01*
Y203583D01*
X138792D01*
Y203645D01*
X138855D01*
Y203708D01*
X138979D01*
Y203770D01*
X139041D01*
Y203832D01*
X139165D01*
Y203894D01*
X139289D01*
Y203956D01*
X139414D01*
Y204018D01*
X139538D01*
Y204080D01*
X139662D01*
Y204142D01*
X139786D01*
Y204205D01*
X139973D01*
Y204267D01*
X140097D01*
Y204329D01*
X140283D01*
Y204391D01*
X140470D01*
Y204453D01*
X140594D01*
Y204515D01*
X140780D01*
Y204577D01*
X141029D01*
Y204639D01*
X141215D01*
Y204701D01*
X141464D01*
Y204764D01*
X141712D01*
Y204826D01*
X141961D01*
Y204888D01*
X142209D01*
Y204950D01*
X142520D01*
Y205012D01*
X142892D01*
Y205074D01*
X143265D01*
Y205136D01*
X143638D01*
Y205199D01*
X144073D01*
Y205261D01*
X144508D01*
Y205323D01*
X145004D01*
Y205385D01*
X145626D01*
Y205447D01*
X147117D01*
Y205509D01*
X146558D01*
Y205571D01*
D02*
G37*
G36*
X137612Y202776D02*
X137550D01*
Y202714D01*
X137612D01*
Y202776D01*
D02*
G37*
G36*
X137550Y202714D02*
X137488D01*
Y202652D01*
X137550D01*
Y202714D01*
D02*
G37*
%LPD*%
G36*
X133264Y208802D02*
X133698D01*
Y208739D01*
X134009D01*
Y208677D01*
X134258D01*
Y208615D01*
X134444D01*
Y208553D01*
X134630D01*
Y208491D01*
X134817D01*
Y208429D01*
X135003D01*
Y208367D01*
X135127D01*
Y208305D01*
X135251D01*
Y208242D01*
X135376D01*
Y208180D01*
X135438D01*
Y208118D01*
X135562D01*
Y208056D01*
X135686D01*
Y207994D01*
X135749D01*
Y207932D01*
X135811D01*
Y207870D01*
X135873D01*
Y207808D01*
X135935D01*
Y207746D01*
X135997D01*
Y207683D01*
X136059D01*
Y207559D01*
X136121D01*
Y207435D01*
X136183D01*
Y207124D01*
X136121D01*
Y207000D01*
X135500D01*
Y207062D01*
X130282D01*
Y207683D01*
X130344D01*
Y207746D01*
Y207870D01*
X130406D01*
Y207932D01*
X130468D01*
Y208056D01*
X130530D01*
Y208118D01*
X130592D01*
Y208180D01*
X130655D01*
Y208242D01*
X130717D01*
Y208305D01*
X130841D01*
Y208367D01*
X130903D01*
Y208429D01*
X131027D01*
Y208491D01*
X131151D01*
Y208553D01*
X131276D01*
Y208615D01*
X131400D01*
Y208677D01*
X131586D01*
Y208739D01*
X131835D01*
Y208802D01*
X132208D01*
Y208864D01*
X133264D01*
Y208802D01*
D02*
G37*
%LPC*%
G36*
X153639Y198800D02*
X151465D01*
Y197744D01*
X153639D01*
Y197806D01*
X153764D01*
Y197868D01*
X153888D01*
Y197930D01*
X153950D01*
Y198055D01*
X154012D01*
Y198117D01*
Y198241D01*
X154074D01*
Y198303D01*
X154012D01*
Y198551D01*
X153950D01*
Y198614D01*
X153888D01*
Y198676D01*
X153826D01*
Y198738D01*
X153639D01*
Y198800D01*
D02*
G37*
G36*
X149104D02*
X147800D01*
Y198738D01*
X147489D01*
Y198676D01*
X147365D01*
Y198614D01*
X147241D01*
Y198551D01*
X147179D01*
Y198489D01*
X147117D01*
Y198427D01*
X147055D01*
Y198303D01*
X146992D01*
Y198055D01*
X146930D01*
Y197495D01*
X146992D01*
Y197309D01*
X147055D01*
Y197185D01*
X147117D01*
Y197061D01*
X147241D01*
Y196999D01*
X147303D01*
Y196936D01*
X147427D01*
Y196874D01*
X147614D01*
Y196812D01*
X147986D01*
Y196750D01*
X148856D01*
Y196812D01*
X149291D01*
Y196874D01*
X149477D01*
Y196936D01*
X149601D01*
Y196999D01*
X149664D01*
Y197061D01*
X149726D01*
Y197123D01*
X149788D01*
Y197247D01*
X149850D01*
Y197433D01*
X149912D01*
Y198179D01*
X149850D01*
Y198365D01*
X149788D01*
Y198427D01*
X149726D01*
Y198489D01*
X149664D01*
Y198551D01*
X149601D01*
Y198614D01*
X149539D01*
Y198676D01*
X149353D01*
Y198738D01*
X149104D01*
Y198800D01*
D02*
G37*
G36*
X144756Y198738D02*
X143451D01*
Y198676D01*
X143141D01*
Y198614D01*
X143017D01*
Y198551D01*
X142892D01*
Y198489D01*
X142830D01*
Y198427D01*
X142768D01*
Y198365D01*
X142706D01*
Y198241D01*
X142644D01*
Y197992D01*
X142582D01*
Y197433D01*
X142644D01*
Y197247D01*
X142706D01*
Y197123D01*
X142768D01*
Y196999D01*
X142892D01*
Y196936D01*
X142955D01*
Y196874D01*
X143079D01*
Y196812D01*
X143265D01*
Y196750D01*
X143638D01*
Y196688D01*
X144508D01*
Y196750D01*
X144942D01*
Y196812D01*
X145129D01*
Y196874D01*
X145253D01*
Y196936D01*
X145315D01*
Y196999D01*
X145377D01*
Y197061D01*
X145439D01*
Y197185D01*
X145501D01*
Y197371D01*
X145564D01*
Y198117D01*
X145501D01*
Y198303D01*
X145439D01*
Y198365D01*
X145377D01*
Y198427D01*
X145315D01*
Y198489D01*
X145253D01*
Y198551D01*
X145191D01*
Y198614D01*
X145004D01*
Y198676D01*
X144756D01*
Y198738D01*
D02*
G37*
G36*
X137302D02*
X135065D01*
Y197744D01*
X135127D01*
Y197682D01*
X137177D01*
Y197744D01*
X137364D01*
Y197806D01*
X137488D01*
Y197868D01*
X137550D01*
Y197930D01*
X137612D01*
Y198055D01*
X137674D01*
Y198365D01*
X137612D01*
Y198489D01*
X137550D01*
Y198614D01*
X137426D01*
Y198676D01*
X137302D01*
Y198738D01*
D02*
G37*
G36*
X124815Y198676D02*
X122579D01*
Y196750D01*
X124691D01*
Y196812D01*
X124939D01*
Y196874D01*
X125064D01*
Y196936D01*
X125126D01*
Y196999D01*
X125188D01*
Y197123D01*
X125250D01*
Y197309D01*
X125312D01*
Y198179D01*
X125250D01*
Y198365D01*
X125188D01*
Y198427D01*
X125126D01*
Y198489D01*
X125064D01*
Y198551D01*
X125002D01*
Y198614D01*
X124815D01*
Y198676D01*
D02*
G37*
G36*
X119783Y198800D02*
X119659D01*
Y198738D01*
X119535D01*
Y198676D01*
X119473D01*
Y198614D01*
X119411D01*
Y198551D01*
X119349D01*
Y198427D01*
X119286D01*
Y198303D01*
X119224D01*
Y198179D01*
X119162D01*
Y198055D01*
X119100D01*
Y197930D01*
X119038D01*
Y197806D01*
X118976D01*
Y197682D01*
X118914D01*
Y197558D01*
X118851D01*
Y197495D01*
X120591D01*
Y197620D01*
X120529D01*
Y197744D01*
X120467D01*
Y197868D01*
X120405D01*
Y197992D01*
X120342D01*
Y198117D01*
X120280D01*
Y198241D01*
X120218D01*
Y198365D01*
X120156D01*
Y198489D01*
X120094D01*
Y198614D01*
X120032D01*
Y198676D01*
X119970D01*
Y198738D01*
X119783D01*
Y198800D01*
D02*
G37*
G36*
X116677Y198738D02*
X114379D01*
Y197992D01*
X114441D01*
Y197930D01*
X116553D01*
Y197992D01*
X116802D01*
Y198055D01*
X116864D01*
Y198117D01*
X116926D01*
Y198241D01*
X116988D01*
Y198427D01*
X116926D01*
Y198551D01*
X116864D01*
Y198614D01*
X116802D01*
Y198676D01*
X116677D01*
Y198738D01*
D02*
G37*
G36*
X116739Y197558D02*
X114379D01*
Y196750D01*
X114441D01*
Y196688D01*
X116553D01*
Y196750D01*
X116802D01*
Y196812D01*
X116926D01*
Y196874D01*
X116988D01*
Y196999D01*
X117050D01*
Y197247D01*
X116988D01*
Y197371D01*
X116926D01*
Y197433D01*
X116864D01*
Y197495D01*
X116739D01*
Y197558D01*
D02*
G37*
G36*
X136715Y235810D02*
X135971D01*
Y234585D01*
X136410D01*
X136715Y234789D01*
Y235810D01*
D02*
G37*
G36*
X136415Y234322D02*
X135971D01*
Y232950D01*
X136724D01*
Y234119D01*
X136415Y234322D01*
D02*
G37*
G36*
X131725Y234553D02*
X131106D01*
Y233916D01*
X131725D01*
Y234553D01*
D02*
G37*
G36*
X127249Y235810D02*
X126417D01*
Y232950D01*
X127249D01*
Y235810D01*
D02*
G37*
G36*
X122097Y234553D02*
X121478D01*
Y233916D01*
X122097D01*
Y234553D01*
D02*
G37*
G36*
X116216Y235810D02*
X115800D01*
Y232950D01*
X116225D01*
X116258Y232955D01*
X116299Y232964D01*
X116346Y232973D01*
X116392Y232992D01*
X116438Y233015D01*
X116484Y233047D01*
X116489Y233052D01*
X116502Y233066D01*
X116521Y233089D01*
X116540Y233121D01*
X116558Y233158D01*
X116577Y233209D01*
X116590Y233264D01*
X116595Y233324D01*
Y235436D01*
Y235445D01*
Y235463D01*
X116590Y235496D01*
X116581Y235533D01*
X116567Y235574D01*
X116549Y235620D01*
X116526Y235662D01*
X116489Y235703D01*
X116484Y235708D01*
X116470Y235722D01*
X116447Y235736D01*
X116415Y235759D01*
X116378Y235777D01*
X116327Y235791D01*
X116276Y235805D01*
X116216Y235810D01*
D02*
G37*
G36*
X129286Y229610D02*
X128639D01*
Y228852D01*
X129286Y228866D01*
Y229610D01*
D02*
G37*
G36*
X124500Y230460D02*
X123862D01*
Y228857D01*
X124500D01*
Y230460D01*
D02*
G37*
G36*
X119801Y231730D02*
X119385D01*
Y228871D01*
X119810D01*
X119843Y228875D01*
X119884Y228884D01*
X119931Y228894D01*
X119977Y228912D01*
X120023Y228935D01*
X120069Y228967D01*
X120074Y228972D01*
X120088Y228986D01*
X120106Y229009D01*
X120125Y229042D01*
X120143Y229078D01*
X120162Y229129D01*
X120175Y229185D01*
X120180Y229245D01*
Y231356D01*
Y231365D01*
Y231384D01*
X120175Y231416D01*
X120166Y231453D01*
X120152Y231495D01*
X120134Y231541D01*
X120111Y231582D01*
X120074Y231624D01*
X120069Y231629D01*
X120055Y231643D01*
X120032Y231656D01*
X120000Y231680D01*
X119963Y231698D01*
X119912Y231712D01*
X119861Y231726D01*
X119801Y231730D01*
D02*
G37*
G36*
X116632D02*
X115800D01*
Y228871D01*
X116632D01*
Y231730D01*
D02*
G37*
G36*
X124860Y225521D02*
X124213D01*
Y224763D01*
X124860Y224777D01*
Y225521D01*
D02*
G37*
G36*
X121723D02*
X121076D01*
Y224763D01*
X121723Y224777D01*
Y225521D01*
D02*
G37*
%LPD*%
D10*
X109543Y324937D02*
G03*
X109543Y324937I-492J0D01*
G01*
X274575Y124508D02*
G03*
X274575Y124508I-492J0D01*
G01*
X216173Y327169D02*
G03*
X216173Y327169I-492J0D01*
G01*
X196709Y177847D02*
G03*
X196709Y177847I-492J0D01*
G01*
X77425Y164465D02*
G03*
X77425Y164465I-492J0D01*
G01*
X86010Y312500D02*
G03*
X86010Y312500I-492J0D01*
G01*
X454425Y89965D02*
G03*
X454425Y89965I-492J0D01*
G01*
X209075Y382626D02*
G03*
X209075Y382626I-492J0D01*
G01*
X522425Y86465D02*
G03*
X522425Y86465I-492J0D01*
G01*
X460941Y27563D02*
G03*
X460941Y27563I-492J0D01*
G01*
X380484Y77114D02*
G03*
X380484Y77114I-492J0D01*
G01*
X521429Y146949D02*
G03*
X521429Y146949I-492J0D01*
G01*
X382878Y125492D02*
G03*
X382878Y125492I-492J0D01*
G01*
X210878Y109992D02*
G03*
X210878Y109992I-492J0D01*
G01*
X190878Y109492D02*
G03*
X190878Y109492I-492J0D01*
G01*
X94055Y202551D02*
G03*
X94055Y202551I-492J0D01*
G01*
X175472Y391937D02*
G03*
X175472Y391937I-492J0D01*
G01*
X123287Y60535D02*
G03*
X123287Y60535I-492J0D01*
G01*
D11*
X306138Y176000D02*
G03*
X306138Y176000I-11811J0D01*
G01*
Y368913D02*
G03*
X306138Y368913I-11811J0D01*
G01*
X534484Y176000D02*
G03*
X534484Y176000I-11811J0D01*
G01*
Y368913D02*
G03*
X534484Y368913I-11811J0D01*
G01*
X308097Y162319D02*
X509180Y162319D01*
X308097Y188500D02*
X509180Y188500D01*
Y162319D02*
Y188500D01*
X308097Y162319D02*
Y188500D01*
X172000Y215000D02*
Y225000D01*
X162000D02*
X172000D01*
Y205000D02*
Y225000D01*
X162000Y205000D02*
Y225000D01*
Y205000D02*
X172000D01*
X189500Y215000D02*
Y225000D01*
X179500D02*
X189500D01*
Y205000D02*
Y225000D01*
X179500Y205000D02*
Y225000D01*
Y205000D02*
X189500D01*
X210200Y215000D02*
Y225000D01*
X200200D02*
X210200D01*
Y205000D02*
Y225000D01*
X200200Y205000D02*
Y225000D01*
Y205000D02*
X210200D01*
X229300Y215000D02*
Y225000D01*
X219300D02*
X229300D01*
Y205000D02*
Y225000D01*
X219300Y205000D02*
Y225000D01*
Y205000D02*
X229300D01*
X238400D02*
X248400D01*
X238400D02*
Y225000D01*
X248400Y205000D02*
Y225000D01*
X238400D02*
X248400D01*
Y215000D02*
Y225000D01*
X257500Y205000D02*
Y215000D01*
Y205000D02*
X267500D01*
X257500D02*
Y225000D01*
X267500Y205000D02*
Y225000D01*
X257500D02*
X267500D01*
X238500Y280000D02*
X243500D01*
X238000Y273000D02*
Y275000D01*
X244000Y273000D02*
Y275000D01*
X249900Y1405D02*
Y53905D01*
X184900Y1405D02*
Y53905D01*
X249900D01*
X184900Y1405D02*
X249900D01*
X3905Y184100D02*
Y226100D01*
X56405D01*
X3905Y184100D02*
X56405D01*
Y226100D01*
X115500Y1500D02*
Y33000D01*
X88500Y1500D02*
Y63500D01*
X98750Y1500D02*
X105250D01*
X115500Y33000D02*
Y63500D01*
X108750D02*
X115500D01*
X88500D02*
X94250D01*
X105250Y1500D02*
X115500D01*
X88500D02*
X98750D01*
X102875Y63500D02*
X108750D01*
X94250D02*
X102875D01*
X3905Y226000D02*
Y256000D01*
X56405Y226000D02*
Y256000D01*
X3905D02*
X56405D01*
X3905Y226000D02*
X56405D01*
X513600Y57405D02*
X555600D01*
Y4905D02*
Y57405D01*
X513600Y4905D02*
Y57405D01*
Y4905D02*
X555600D01*
X219000Y280000D02*
X224000D01*
X218500Y273000D02*
Y275000D01*
X224500Y273000D02*
Y275000D01*
X280500Y1500D02*
X310500D01*
X280500Y54000D02*
X310500D01*
X280500Y1500D02*
Y54000D01*
X310500Y1500D02*
Y54000D01*
X3905Y320600D02*
Y362600D01*
X56405D01*
X3905Y320600D02*
X56405D01*
Y362600D01*
X311400Y1405D02*
X353400D01*
X311400D02*
Y53905D01*
X353400Y1405D02*
Y53905D01*
X311400D02*
X353400D01*
X3905Y257500D02*
Y287500D01*
X56405Y257500D02*
Y287500D01*
X3905D02*
X56405D01*
X3905Y257500D02*
X56405D01*
X353600Y1405D02*
X395600D01*
X353600D02*
Y53905D01*
X395600Y1405D02*
Y53905D01*
X353600D02*
X395600D01*
X555100Y4905D02*
X597100D01*
X555100D02*
Y57405D01*
X597100Y4905D02*
Y57405D01*
X555100D02*
X597100D01*
X183500Y1405D02*
Y53905D01*
X118500Y1405D02*
Y53905D01*
X183500D01*
X118500Y1405D02*
X183500D01*
X4500Y3405D02*
X46500D01*
X4500D02*
Y55905D01*
X46500Y3405D02*
Y55905D01*
X4500D02*
X46500D01*
X3905Y289000D02*
Y319000D01*
X56405Y289000D02*
Y319000D01*
X3905D02*
X56405D01*
X3905Y289000D02*
X56405D01*
X250000Y1500D02*
X280000D01*
X250000Y54000D02*
X280000D01*
X250000Y1500D02*
Y54000D01*
X280000Y1500D02*
Y54000D01*
X79000Y95500D02*
Y127000D01*
X106000Y65000D02*
Y127000D01*
X89250D02*
X95750D01*
X79000Y65000D02*
Y95500D01*
Y65000D02*
X85750D01*
X100250D02*
X106000D01*
X79000Y127000D02*
X89250D01*
X95750D02*
X106000D01*
X85750Y65000D02*
X91625D01*
X100250D01*
X396500Y1500D02*
X426500D01*
X396500Y54000D02*
X426500D01*
X396500Y1500D02*
Y54000D01*
X426500Y1500D02*
Y54000D01*
X3905Y365500D02*
Y395500D01*
X56405Y365500D02*
Y395500D01*
X3905D02*
X56405D01*
X3905Y365500D02*
X56405D01*
X248500Y280500D02*
X253500D01*
X248000Y273500D02*
Y275500D01*
X254000Y273500D02*
Y275500D01*
X229500Y280000D02*
X234500D01*
X229000Y273000D02*
Y275000D01*
X235000Y273000D02*
Y275000D01*
X0Y399500D02*
X541500D01*
X542000Y399000D01*
Y161500D02*
Y399000D01*
Y161500D02*
X599000D01*
X599500Y161000D01*
Y500D02*
Y161000D01*
Y500D02*
X600000Y0D01*
X0D02*
X600000D01*
X0D02*
Y399500D01*
Y0D02*
X600000D01*
D12*
X283335Y118602D02*
G03*
X283335Y118602I-1181J0D01*
G01*
X205764Y173732D02*
G03*
X205764Y173732I-1181J0D01*
G01*
X217835Y377114D02*
G03*
X217835Y377114I-1181J0D01*
G01*
D13*
X111827Y341472D02*
Y345902D01*
X140173Y341472D02*
Y345902D01*
X111827Y321098D02*
Y325528D01*
X140173Y321098D02*
Y325528D01*
X111827Y345902D02*
X140173D01*
X111827Y321098D02*
X140173D01*
X365764Y195878D02*
Y197059D01*
X361236Y195878D02*
Y197059D01*
X375764Y195941D02*
Y197122D01*
X371236Y195941D02*
Y197122D01*
X385701Y195941D02*
Y197122D01*
X381173Y195941D02*
Y197122D01*
X281909Y82764D02*
X283090D01*
X281909Y78236D02*
X283090D01*
X278217Y102461D02*
X292783D01*
X278217Y122539D02*
X292783D01*
Y102461D02*
Y122539D01*
X278217Y102461D02*
Y122539D01*
X218240Y325102D02*
Y327760D01*
X220898D01*
X233102D02*
X235760D01*
Y325102D02*
Y327760D01*
Y310240D02*
Y312898D01*
X233102Y310240D02*
X235760D01*
X218240D02*
Y312898D01*
Y310240D02*
X220898D01*
X162185Y275815D02*
Y315185D01*
X122815Y275815D02*
Y315185D01*
X153327D02*
X162185D01*
X153327Y275815D02*
X162185D01*
X122815Y315185D02*
X131673D01*
X122815Y275815D02*
X131673D01*
X200646Y136331D02*
X231354D01*
X200646Y177669D02*
X231354D01*
Y136331D02*
Y177669D01*
X200646Y136331D02*
Y177669D01*
X80968Y143461D02*
X92032D01*
X80968Y163539D02*
X92032D01*
X99297Y295354D02*
X105203D01*
X99297Y314646D02*
X105203D01*
X39524Y172705D02*
X43559D01*
X48776Y167488D01*
X8224D02*
X13441Y172705D01*
X17476D01*
X48776Y132153D02*
Y167488D01*
X39524Y132153D02*
X48776D01*
X8224D02*
X17476D01*
X8224D02*
Y167488D01*
X204409Y295736D02*
X205591D01*
X204409Y300264D02*
X205591D01*
X204409Y287236D02*
X205591D01*
X204409Y291764D02*
X205591D01*
X208362Y318063D02*
Y318457D01*
X203638Y318063D02*
Y318457D01*
X204409Y304236D02*
X205591D01*
X204409Y308764D02*
X205591D01*
X204409Y278736D02*
X205591D01*
X204409Y283264D02*
X205591D01*
X425138Y82303D02*
Y82697D01*
X429862Y82303D02*
Y82697D01*
X433638Y82303D02*
Y82697D01*
X438362Y82303D02*
Y82697D01*
X442138Y82303D02*
Y82697D01*
X446862Y82303D02*
Y82697D01*
X245910Y95736D02*
X247091D01*
X245910Y100264D02*
X247091D01*
X245910Y105736D02*
X247091D01*
X245910Y110264D02*
X247091D01*
X245910Y115736D02*
X247091D01*
X245910Y120264D02*
X247091D01*
X245910Y125736D02*
X247091D01*
X245910Y130264D02*
X247091D01*
X139650Y259319D02*
Y261681D01*
X133350Y259319D02*
Y261681D01*
X127150Y259319D02*
Y261681D01*
X120850Y259319D02*
Y261681D01*
X160819Y268051D02*
X163181D01*
X160819Y261949D02*
X163181D01*
X438760Y35496D02*
X446240D01*
X438760Y47504D02*
X446240D01*
X156138Y170303D02*
Y170697D01*
X160862Y170303D02*
Y170697D01*
X168138Y139803D02*
Y140197D01*
X172862Y139803D02*
Y140197D01*
X317910Y123264D02*
X319091D01*
X317910Y118736D02*
X319091D01*
X317910Y105764D02*
X319091D01*
X317910Y101236D02*
X319091D01*
X392764Y109909D02*
Y111091D01*
X388236Y109909D02*
Y111091D01*
X457969Y89039D02*
X469031D01*
X457969Y68961D02*
X469031D01*
X418236Y63410D02*
Y64591D01*
X422764Y63410D02*
Y64591D01*
X506736Y73909D02*
Y75090D01*
X511264Y73909D02*
Y75090D01*
X410236Y81571D02*
Y82752D01*
X414764Y81571D02*
Y82752D01*
X380236Y109909D02*
Y111091D01*
X384764Y109909D02*
Y111091D01*
X81410Y341764D02*
X82591D01*
X81410Y337236D02*
X82591D01*
X376264Y94910D02*
Y96091D01*
X371736Y94910D02*
Y96091D01*
X189949Y244488D02*
Y246850D01*
X196051Y244488D02*
Y246850D01*
X561760Y68996D02*
X569240D01*
X561760Y81004D02*
X569240D01*
X67760Y56504D02*
X75240D01*
X67760Y44496D02*
X75240D01*
X212409Y386736D02*
X213591D01*
X212409Y391264D02*
X213591D01*
X235570Y242579D02*
Y243760D01*
X240097Y242579D02*
Y243760D01*
X334910Y133264D02*
X336090D01*
X334910Y128736D02*
X336090D01*
X274909Y61736D02*
X276091D01*
X274909Y66264D02*
X276091D01*
X250736Y242579D02*
Y243760D01*
X255264Y242579D02*
Y243760D01*
X68350Y360409D02*
Y361591D01*
X72878Y360409D02*
Y361591D01*
X212717Y349949D02*
X227284D01*
X212717Y381051D02*
X227284D01*
Y349949D02*
Y381051D01*
X212717Y349949D02*
Y381051D01*
X67819Y115449D02*
X70181D01*
X67819Y121551D02*
X70181D01*
X161819Y70551D02*
X164181D01*
X161819Y64449D02*
X164181D01*
X561260Y87496D02*
X568740D01*
X561260Y99504D02*
X568740D01*
X175949Y244488D02*
Y246850D01*
X182051Y244488D02*
Y246850D01*
X81410Y367636D02*
X82591D01*
X81410Y372164D02*
X82591D01*
X525969Y85539D02*
X537032D01*
X525969Y65461D02*
X537032D01*
X226909Y385236D02*
X228091D01*
X226909Y389764D02*
X228091D01*
X152736Y375909D02*
Y377091D01*
X157264Y375909D02*
Y377091D01*
X205236Y242579D02*
Y243760D01*
X209764Y242579D02*
Y243760D01*
X251847Y386264D02*
X253028D01*
X251847Y381736D02*
X253028D01*
X297410Y82764D02*
X298590D01*
X297410Y78236D02*
X298590D01*
X370236Y68910D02*
Y70091D01*
X374764Y68910D02*
Y70091D01*
X439260Y51496D02*
X446740D01*
X439260Y63504D02*
X446740D01*
X81410Y347036D02*
X82591D01*
X81410Y351564D02*
X82591D01*
X173319Y319949D02*
X175681D01*
X173319Y326051D02*
X175681D01*
X79409Y266764D02*
X80590D01*
X79409Y262236D02*
X80590D01*
X245910Y86236D02*
X247091D01*
X245910Y90764D02*
X247091D01*
X220403Y242579D02*
Y243760D01*
X224931Y242579D02*
Y243760D01*
X252410Y373236D02*
X253590D01*
X252410Y377764D02*
X253590D01*
X81410Y357336D02*
X82591D01*
X81410Y361864D02*
X82591D01*
X372236Y109909D02*
Y111091D01*
X376764Y109909D02*
Y111091D01*
X350410Y128236D02*
X351590D01*
X350410Y132764D02*
X351590D01*
X317910Y114264D02*
X319091D01*
X317910Y109736D02*
X319091D01*
X55910Y162236D02*
X57091D01*
X55910Y166764D02*
X57091D01*
X81410Y392764D02*
X82591D01*
X81410Y388236D02*
X82591D01*
X81410Y382464D02*
X82591D01*
X81410Y377936D02*
X82591D01*
X67760Y40504D02*
X75240D01*
X67760Y28496D02*
X75240D01*
X79409Y254236D02*
X80590D01*
X79409Y258764D02*
X80590D01*
X190409Y346736D02*
X191591D01*
X190409Y351264D02*
X191591D01*
X246909Y361264D02*
X248091D01*
X246909Y356736D02*
X248091D01*
X267409Y138264D02*
X268590D01*
X267409Y133736D02*
X268590D01*
X299909Y138264D02*
X301091D01*
X299909Y133736D02*
X301091D01*
X75850Y305319D02*
Y307681D01*
X82150Y305319D02*
Y307681D01*
X48850Y14819D02*
Y17181D01*
X55150Y14819D02*
Y17181D01*
X591150Y81819D02*
Y84181D01*
X584850Y81819D02*
Y84181D01*
X429327Y31402D02*
X457673D01*
X429327Y6598D02*
X457673D01*
X429327Y26972D02*
Y31402D01*
X457673Y26972D02*
Y31402D01*
X429327Y6598D02*
Y11028D01*
X457673Y6598D02*
Y11028D01*
X492850Y76819D02*
Y79181D01*
X499150Y76819D02*
Y79181D01*
X267862Y72803D02*
Y73197D01*
X263138Y72803D02*
Y73197D01*
X382551Y78374D02*
X401449D01*
X382551Y62626D02*
X401449D01*
X382551Y76524D02*
Y78374D01*
X401449Y76524D02*
Y78374D01*
X382551Y62626D02*
Y64476D01*
X401449Y62626D02*
Y64476D01*
X315362Y82803D02*
Y83197D01*
X310638Y82803D02*
Y83197D01*
X97362Y180303D02*
Y180697D01*
X92638Y180303D02*
Y180697D01*
X517098Y115827D02*
Y144173D01*
X541902Y115827D02*
Y144173D01*
X517098Y115827D02*
X521528D01*
X517098Y144173D02*
X521528D01*
X537472Y115827D02*
X541902D01*
X537472Y144173D02*
X541902D01*
X76862Y180303D02*
Y180697D01*
X72138Y180303D02*
Y180697D01*
X525138Y98563D02*
Y98957D01*
X529862Y98563D02*
Y98957D01*
X510138Y98563D02*
Y98957D01*
X514862Y98563D02*
Y98957D01*
X333862Y82803D02*
Y83197D01*
X329138Y82803D02*
Y83197D01*
X453776Y110941D02*
Y146276D01*
X444524D02*
X453776D01*
X413224D02*
X422476D01*
X413224Y110941D02*
Y146276D01*
X444524Y105724D02*
X448559D01*
X453776Y110941D01*
X413224D02*
X418441Y105724D01*
X422476D01*
X381126Y128051D02*
Y146949D01*
X396874Y128051D02*
Y146949D01*
X381126Y128051D02*
X382976D01*
X381126Y146949D02*
X382976D01*
X395024Y128051D02*
X396874D01*
X395024Y146949D02*
X396874D01*
X479638Y83803D02*
Y84197D01*
X484362Y83803D02*
Y84197D01*
X536138Y98563D02*
Y98957D01*
X540862Y98563D02*
Y98957D01*
X85862Y180303D02*
Y180697D01*
X81138Y180303D02*
Y180697D01*
X172862Y170303D02*
Y170697D01*
X168138Y170303D02*
Y170697D01*
X384862Y95303D02*
Y95697D01*
X380138Y95303D02*
Y95697D01*
X393362Y95303D02*
Y95697D01*
X388638Y95303D02*
Y95697D01*
X85638Y282803D02*
Y283197D01*
X90362Y282803D02*
Y283197D01*
X154776Y120441D02*
Y155776D01*
X145524D02*
X154776D01*
X114224D02*
X123476D01*
X114224Y120441D02*
Y155776D01*
X145524Y115224D02*
X149559D01*
X154776Y120441D01*
X114224D02*
X119441Y115224D01*
X123476D01*
X324862Y82803D02*
Y83197D01*
X320138Y82803D02*
Y83197D01*
X223862Y185803D02*
Y186197D01*
X219138Y185803D02*
Y186197D01*
X209126Y112551D02*
Y131449D01*
X224874Y112551D02*
Y131449D01*
X209126Y112551D02*
X210976D01*
X209126Y131449D02*
X210976D01*
X223024Y112551D02*
X224874D01*
X223024Y131449D02*
X224874D01*
X258862Y72303D02*
Y72697D01*
X254138Y72303D02*
Y72697D01*
X168138Y154803D02*
Y155197D01*
X172862Y154803D02*
Y155197D01*
X517638Y98563D02*
Y98957D01*
X522362Y98563D02*
Y98957D01*
X95138Y282303D02*
Y282697D01*
X99862Y282303D02*
Y282697D01*
X112650Y281819D02*
Y284181D01*
X106350Y281819D02*
Y284181D01*
X189126Y112051D02*
Y130949D01*
X204874Y112051D02*
Y130949D01*
X189126Y112051D02*
X190976D01*
X189126Y130949D02*
X190976D01*
X203024Y112051D02*
X204874D01*
X203024Y130949D02*
X204874D01*
X97402Y205327D02*
Y233673D01*
X72598Y205327D02*
Y233673D01*
X92972D02*
X97402D01*
X92972Y205327D02*
X97402D01*
X72598Y233673D02*
X77028D01*
X72598Y205327D02*
X77028D01*
X504776Y110441D02*
Y145776D01*
X495524D02*
X504776D01*
X464224D02*
X473476D01*
X464224Y110441D02*
Y145776D01*
X495524Y105224D02*
X499559D01*
X504776Y110441D01*
X464224D02*
X469441Y105224D01*
X473476D01*
X67362Y180303D02*
Y180697D01*
X62638Y180303D02*
Y180697D01*
X315846Y138764D02*
X317028D01*
X315846Y134236D02*
X317028D01*
X283910Y138264D02*
X285090D01*
X283910Y133736D02*
X285090D01*
X173406Y385244D02*
Y389181D01*
X170650Y385244D02*
X173406D01*
X161594D02*
Y389181D01*
Y385244D02*
X164350D01*
X54606Y68894D02*
Y81295D01*
X5394Y68894D02*
Y81295D01*
X54606Y105705D02*
Y118106D01*
X5394Y105705D02*
Y118106D01*
Y68894D02*
X54606D01*
X5394Y118106D02*
X54606D01*
X545894Y106894D02*
X558295D01*
X545894Y156106D02*
X558295D01*
X582705Y106894D02*
X595106D01*
X582705Y156106D02*
X595106D01*
X545894Y106894D02*
Y156106D01*
X595106Y106894D02*
Y156106D01*
X171610Y97661D02*
X174268D01*
X171610Y80339D02*
X174268D01*
X157732Y97661D02*
X160390D01*
X157732Y80339D02*
X160390D01*
X174268D02*
Y97661D01*
X157732Y80339D02*
Y97661D01*
X146614Y98626D02*
X151142D01*
X146614Y64374D02*
X151142D01*
X118858Y98626D02*
X123386D01*
X118858Y64374D02*
X123386D01*
X151142D02*
Y98626D01*
X118858Y64374D02*
Y98626D01*
X462894Y6894D02*
X475295D01*
X462894Y56106D02*
X475295D01*
X499705Y6894D02*
X512106D01*
X499705Y56106D02*
X512106D01*
X462894Y6894D02*
Y56106D01*
X512106Y6894D02*
Y56106D01*
D14*
X163001Y203199D02*
Y200200D01*
X164501D01*
X165001Y200700D01*
Y201200D01*
X164501Y201699D01*
X163001D01*
X164501D01*
X165001Y202199D01*
Y202699D01*
X164501Y203199D01*
X163001D01*
X166000Y202199D02*
Y200700D01*
X166500Y200200D01*
X168000D01*
Y202199D01*
X168999Y200200D02*
X170499D01*
X170999Y200700D01*
X170499Y201200D01*
X169499D01*
X168999Y201699D01*
X169499Y202199D01*
X170999D01*
X164501Y197800D02*
X162502D01*
Y196301D01*
X163501D01*
X162502D01*
Y194801D01*
X165500D02*
X166500D01*
X166000D01*
Y196800D01*
X165500D01*
X168000Y194801D02*
X168999D01*
X168500D01*
Y197800D01*
X168000D01*
X170999Y197300D02*
Y196800D01*
X170499D01*
X171499D01*
X170999D01*
Y195301D01*
X171499Y194801D01*
X255501Y275700D02*
Y278699D01*
X256501Y277699D01*
X257501Y278699D01*
Y275700D01*
X260500Y278199D02*
X260000Y278699D01*
X259000D01*
X258500Y278199D01*
Y276200D01*
X259000Y275700D01*
X260000D01*
X260500Y276200D01*
X261499Y278699D02*
Y276200D01*
X261999Y275700D01*
X262999D01*
X263499Y276200D01*
Y278699D01*
X255751Y270301D02*
Y273300D01*
X257251D01*
X257751Y272800D01*
Y271801D01*
X257251Y271301D01*
X255751D01*
X258750Y272300D02*
Y270801D01*
X259250Y270301D01*
X259750Y270801D01*
X260250Y270301D01*
X260750Y270801D01*
Y272300D01*
X261749D02*
Y270301D01*
Y271301D01*
X262249Y271801D01*
X262749Y272300D01*
X263249D01*
X104501Y323499D02*
Y320500D01*
X106000D01*
X106500Y321000D01*
Y323000D01*
X106000Y323499D01*
X104501D01*
X107500Y323000D02*
X108000Y323499D01*
X108999D01*
X109499Y323000D01*
Y322500D01*
X108999Y322000D01*
X108500D01*
X108999D01*
X109499Y321500D01*
Y321000D01*
X108999Y320500D01*
X108000D01*
X107500Y321000D01*
X359501Y204938D02*
Y207937D01*
X361001D01*
X361501Y207437D01*
Y206437D01*
X361001Y205937D01*
X359501D01*
X360501D02*
X361501Y204938D01*
X364000D02*
Y207937D01*
X362500Y206437D01*
X364500D01*
X367499Y207937D02*
X366499Y207437D01*
X365499Y206437D01*
Y205437D01*
X365999Y204938D01*
X366999D01*
X367499Y205437D01*
Y205937D01*
X366999Y206437D01*
X365499D01*
X370001Y204938D02*
Y207937D01*
X371501D01*
X372001Y207437D01*
Y206437D01*
X371501Y205937D01*
X370001D01*
X371001D02*
X372001Y204938D01*
X374500D02*
Y207937D01*
X373000Y206437D01*
X375000D01*
X375999Y207437D02*
X376499Y207937D01*
X377499D01*
X377999Y207437D01*
Y206937D01*
X377499Y206437D01*
X376999D01*
X377499D01*
X377999Y205937D01*
Y205437D01*
X377499Y204938D01*
X376499D01*
X375999Y205437D01*
X380438Y205000D02*
Y207999D01*
X381938D01*
X382438Y207500D01*
Y206500D01*
X381938Y206000D01*
X380438D01*
X381438D02*
X382438Y205000D01*
X384937D02*
Y207999D01*
X383437Y206500D01*
X385437D01*
X386436Y207999D02*
X388436D01*
Y207500D01*
X386436Y205500D01*
Y205000D01*
X511501Y198500D02*
Y196000D01*
X512001Y195501D01*
X513000D01*
X513500Y196000D01*
Y198500D01*
X515999Y195501D02*
Y198500D01*
X514500Y197000D01*
X516499D01*
X514256Y59500D02*
Y62499D01*
X515755D01*
X516255Y61999D01*
Y61000D01*
X515755Y60500D01*
X514256D01*
X517255Y62499D02*
X519254D01*
Y61999D01*
X517255Y60000D01*
Y59500D01*
X523253Y62499D02*
Y59500D01*
Y61000D01*
X525252D01*
Y62499D01*
Y59500D01*
X527752D02*
X526752D01*
X526252Y60000D01*
Y61000D01*
X526752Y61500D01*
X527752D01*
X528251Y61000D01*
Y60500D01*
X526252D01*
X529751Y61500D02*
X530751D01*
X531250Y61000D01*
Y59500D01*
X529751D01*
X529251Y60000D01*
X529751Y60500D01*
X531250D01*
X534249Y62499D02*
Y59500D01*
X532750D01*
X532250Y60000D01*
Y61000D01*
X532750Y61500D01*
X534249D01*
X535249Y59500D02*
X536249D01*
X535749D01*
Y62499D01*
X535249D01*
X537748Y59500D02*
X538748D01*
X538248D01*
Y61500D01*
X537748D01*
X541247Y58501D02*
X541747D01*
X542247Y59000D01*
Y61500D01*
X540747D01*
X540247Y61000D01*
Y60000D01*
X540747Y59500D01*
X542247D01*
X543247Y62499D02*
Y59500D01*
Y61000D01*
X543746Y61500D01*
X544746D01*
X545246Y61000D01*
Y59500D01*
X546745Y61999D02*
Y61500D01*
X546246D01*
X547245D01*
X546745D01*
Y60000D01*
X547245Y59500D01*
X548745D02*
X550244D01*
X550744Y60000D01*
X550244Y60500D01*
X549245D01*
X548745Y61000D01*
X549245Y61500D01*
X550744D01*
X211001Y324999D02*
Y322500D01*
X211501Y322001D01*
X212500D01*
X213000Y322500D01*
Y324999D01*
X214000Y322500D02*
X214500Y322001D01*
X215499D01*
X215999Y322500D01*
Y324500D01*
X215499Y324999D01*
X214500D01*
X214000Y324500D01*
Y324000D01*
X214500Y323500D01*
X215999D01*
X78501Y168500D02*
Y166000D01*
X79001Y165500D01*
X80000D01*
X80500Y166000D01*
Y168500D01*
X81500Y168000D02*
X82000Y168500D01*
X82999D01*
X83499Y168000D01*
Y167500D01*
X82999Y167000D01*
X83499Y166500D01*
Y166000D01*
X82999Y165500D01*
X82000D01*
X81500Y166000D01*
Y166500D01*
X82000Y167000D01*
X81500Y167500D01*
Y168000D01*
X82000Y167000D02*
X82999D01*
X525501Y90500D02*
Y88000D01*
X526001Y87501D01*
X527000D01*
X527500Y88000D01*
Y90500D01*
X528500D02*
X530499D01*
Y90000D01*
X528500Y88000D01*
Y87501D01*
X90501Y322000D02*
Y319500D01*
X91001Y319001D01*
X92000D01*
X92500Y319500D01*
Y322000D01*
X95499D02*
X94499Y321500D01*
X93500Y320500D01*
Y319500D01*
X94000Y319001D01*
X94999D01*
X95499Y319500D01*
Y320000D01*
X94999Y320500D01*
X93500D01*
X458501Y93999D02*
Y91500D01*
X459001Y91000D01*
X460000D01*
X460500Y91500D01*
Y93999D01*
X463499D02*
X461500D01*
Y92500D01*
X462500Y93000D01*
X462999D01*
X463499Y92500D01*
Y91500D01*
X462999Y91000D01*
X462000D01*
X461500Y91500D01*
X200001Y385500D02*
Y383000D01*
X200501Y382501D01*
X201500D01*
X202000Y383000D01*
Y385500D01*
X203000Y385000D02*
X203500Y385500D01*
X204499D01*
X204999Y385000D01*
Y384500D01*
X204499Y384000D01*
X203999D01*
X204499D01*
X204999Y383500D01*
Y383000D01*
X204499Y382501D01*
X203500D01*
X203000Y383000D01*
X200501Y183000D02*
Y180500D01*
X201001Y180000D01*
X202000D01*
X202500Y180500D01*
Y183000D01*
X205499Y180000D02*
X203500D01*
X205499Y182000D01*
Y182500D01*
X204999Y183000D01*
X204000D01*
X203500Y182500D01*
X277793Y126599D02*
Y124100D01*
X278293Y123600D01*
X279292D01*
X279792Y124100D01*
Y126599D01*
X280792Y123600D02*
X281791D01*
X281292D01*
Y126599D01*
X280792Y126099D01*
X108501Y111000D02*
X110501D01*
X109501D01*
Y108001D01*
X111500D02*
Y111000D01*
X113000D01*
X113500Y110500D01*
Y109500D01*
X113000Y109000D01*
X111500D01*
X115999Y108001D02*
Y111000D01*
X114499Y109500D01*
X116499D01*
X169001Y75499D02*
X171001D01*
X170001D01*
Y72500D01*
X172000D02*
Y75499D01*
X173500D01*
X174000Y75000D01*
Y74000D01*
X173500Y73500D01*
X172000D01*
X174999Y75000D02*
X175499Y75499D01*
X176499D01*
X176999Y75000D01*
Y74500D01*
X176499Y74000D01*
X175999D01*
X176499D01*
X176999Y73500D01*
Y73000D01*
X176499Y72500D01*
X175499D01*
X174999Y73000D01*
X177001Y66000D02*
X179001D01*
X178001D01*
Y63001D01*
X180000D02*
Y66000D01*
X181500D01*
X182000Y65500D01*
Y64500D01*
X181500Y64000D01*
X180000D01*
X184999Y63001D02*
X182999D01*
X184999Y65000D01*
Y65500D01*
X184499Y66000D01*
X183499D01*
X182999Y65500D01*
X172501Y102999D02*
X174501D01*
X173501D01*
Y100001D01*
X175500D02*
Y102999D01*
X177000D01*
X177499Y102500D01*
Y101500D01*
X177000Y101000D01*
X175500D01*
X178499Y100001D02*
X179499D01*
X178999D01*
Y102999D01*
X178499Y102500D01*
X416501Y74000D02*
X418501D01*
X417501D01*
Y71000D01*
X419500Y74000D02*
Y71000D01*
Y72500D01*
X421500D01*
Y74000D01*
Y71000D01*
X424499D02*
X422499D01*
X424499Y73000D01*
Y73500D01*
X423999Y74000D01*
X422999D01*
X422499Y73500D01*
X394501Y117999D02*
X396500D01*
X395501D01*
Y115000D01*
X397500Y117999D02*
Y115000D01*
Y116500D01*
X399500D01*
Y117999D01*
Y115000D01*
X400499D02*
X401499D01*
X400999D01*
Y117999D01*
X400499Y117500D01*
X68501Y22001D02*
Y24999D01*
X70001D01*
X70501Y24500D01*
Y23500D01*
X70001Y23000D01*
X68501D01*
X69501D02*
X70501Y22001D01*
X73500Y24999D02*
X72500Y24500D01*
X71500Y23500D01*
Y22500D01*
X72000Y22001D01*
X73000D01*
X73500Y22500D01*
Y23000D01*
X73000Y23500D01*
X71500D01*
X74499Y24500D02*
X74999Y24999D01*
X75999D01*
X76499Y24500D01*
Y24000D01*
X75999Y23500D01*
X75499D01*
X75999D01*
X76499Y23000D01*
Y22500D01*
X75999Y22001D01*
X74999D01*
X74499Y22500D01*
X67501Y58500D02*
Y61500D01*
X69001D01*
X69501Y61000D01*
Y60000D01*
X69001Y59500D01*
X67501D01*
X68501D02*
X69501Y58500D01*
X72500Y61500D02*
X71500Y61000D01*
X70500Y60000D01*
Y59000D01*
X71000Y58500D01*
X72000D01*
X72500Y59000D01*
Y59500D01*
X72000Y60000D01*
X70500D01*
X75499Y58500D02*
X73499D01*
X75499Y60500D01*
Y61000D01*
X74999Y61500D01*
X73999D01*
X73499Y61000D01*
X556501Y101500D02*
Y104499D01*
X558001D01*
X558500Y104000D01*
Y103000D01*
X558001Y102500D01*
X556501D01*
X557501D02*
X558500Y101500D01*
X561500Y104499D02*
X560500Y104000D01*
X559500Y103000D01*
Y102000D01*
X560000Y101500D01*
X561000D01*
X561500Y102000D01*
Y102500D01*
X561000Y103000D01*
X559500D01*
X562499Y101500D02*
X563499D01*
X562999D01*
Y104499D01*
X562499Y104000D01*
X52501Y170001D02*
Y173000D01*
X54001D01*
X54501Y172500D01*
Y171500D01*
X54001Y171000D01*
X52501D01*
X53501D02*
X54501Y170001D01*
X57500Y173000D02*
X56500Y172500D01*
X55500Y171500D01*
Y170500D01*
X56000Y170001D01*
X57000D01*
X57500Y170500D01*
Y171000D01*
X57000Y171500D01*
X55500D01*
X58499Y172500D02*
X58999Y173000D01*
X59999D01*
X60499Y172500D01*
Y170500D01*
X59999Y170001D01*
X58999D01*
X58499Y170500D01*
Y172500D01*
X557001Y82500D02*
Y85500D01*
X558501D01*
X559001Y85000D01*
Y84000D01*
X558501Y83500D01*
X557001D01*
X558001D02*
X559001Y82500D01*
X562000Y85500D02*
X560000D01*
Y84000D01*
X561000Y84500D01*
X561500D01*
X562000Y84000D01*
Y83000D01*
X561500Y82500D01*
X560500D01*
X560000Y83000D01*
X562999D02*
X563499Y82500D01*
X564499D01*
X564999Y83000D01*
Y85000D01*
X564499Y85500D01*
X563499D01*
X562999Y85000D01*
Y84500D01*
X563499Y84000D01*
X564999D01*
X507501Y82500D02*
Y85500D01*
X509001D01*
X509501Y85000D01*
Y84000D01*
X509001Y83500D01*
X507501D01*
X508501D02*
X509501Y82500D01*
X512500Y85500D02*
X510500D01*
Y84000D01*
X511500Y84500D01*
X512000D01*
X512500Y84000D01*
Y83000D01*
X512000Y82500D01*
X511000D01*
X510500Y83000D01*
X513499Y85000D02*
X513999Y85500D01*
X514999D01*
X515499Y85000D01*
Y84500D01*
X514999Y84000D01*
X515499Y83500D01*
Y83000D01*
X514999Y82500D01*
X513999D01*
X513499Y83000D01*
Y83500D01*
X513999Y84000D01*
X513499Y84500D01*
Y85000D01*
X513999Y84000D02*
X514999D01*
X433001Y65000D02*
Y68000D01*
X434501D01*
X435001Y67500D01*
Y66500D01*
X434501Y66000D01*
X433001D01*
X434001D02*
X435001Y65000D01*
X438000Y68000D02*
X436000D01*
Y66500D01*
X437000Y67000D01*
X437500D01*
X438000Y66500D01*
Y65500D01*
X437500Y65000D01*
X436500D01*
X436000Y65500D01*
X438999Y68000D02*
X440999D01*
Y67500D01*
X438999Y65500D01*
Y65000D01*
X458001Y45999D02*
X460999D01*
Y44499D01*
X460500Y43999D01*
X459500D01*
X459000Y44499D01*
Y45999D01*
Y44999D02*
X458001Y43999D01*
X460999Y41000D02*
Y43000D01*
X459500D01*
X460000Y42000D01*
Y41500D01*
X459500Y41000D01*
X458500D01*
X458001Y41500D01*
Y42500D01*
X458500Y43000D01*
X460999Y38001D02*
X460500Y39001D01*
X459500Y40001D01*
X458500D01*
X458001Y39501D01*
Y38501D01*
X458500Y38001D01*
X459000D01*
X459500Y38501D01*
Y40001D01*
X409001Y90162D02*
Y93161D01*
X410501D01*
X411001Y92661D01*
Y91661D01*
X410501Y91162D01*
X409001D01*
X410001D02*
X411001Y90162D01*
X414000Y93161D02*
X412000D01*
Y91661D01*
X413000Y92161D01*
X413500D01*
X414000Y91661D01*
Y90662D01*
X413500Y90162D01*
X412500D01*
X412000Y90662D01*
X416999Y93161D02*
X414999D01*
Y91661D01*
X415999Y92161D01*
X416499D01*
X416999Y91661D01*
Y90662D01*
X416499Y90162D01*
X415499D01*
X414999Y90662D01*
X189001Y255670D02*
Y258669D01*
X190501D01*
X191001Y258169D01*
Y257169D01*
X190501Y256669D01*
X189001D01*
X190001D02*
X191001Y255670D01*
X194000Y258669D02*
X192000D01*
Y257169D01*
X193000Y257669D01*
X193500D01*
X194000Y257169D01*
Y256170D01*
X193500Y255670D01*
X192500D01*
X192000Y256170D01*
X196499Y255670D02*
Y258669D01*
X194999Y257169D01*
X196999D01*
X167501Y315001D02*
Y318000D01*
X169001D01*
X169501Y317500D01*
Y316500D01*
X169001Y316000D01*
X167501D01*
X168501D02*
X169501Y315001D01*
X172500Y318000D02*
X170500D01*
Y316500D01*
X171500Y317000D01*
X172000D01*
X172500Y316500D01*
Y315500D01*
X172000Y315001D01*
X171000D01*
X170500Y315500D01*
X173499Y317500D02*
X173999Y318000D01*
X174999D01*
X175499Y317500D01*
Y317000D01*
X174999Y316500D01*
X174499D01*
X174999D01*
X175499Y316000D01*
Y315500D01*
X174999Y315001D01*
X173999D01*
X173499Y315500D01*
X88501Y263000D02*
Y266000D01*
X90001D01*
X90501Y265500D01*
Y264500D01*
X90001Y264000D01*
X88501D01*
X89501D02*
X90501Y263000D01*
X93500Y266000D02*
X91500D01*
Y264500D01*
X92500Y265000D01*
X93000D01*
X93500Y264500D01*
Y263500D01*
X93000Y263000D01*
X92000D01*
X91500Y263500D01*
X96499Y263000D02*
X94499D01*
X96499Y265000D01*
Y265500D01*
X95999Y266000D01*
X94999D01*
X94499Y265500D01*
X88064Y255000D02*
Y257999D01*
X89564D01*
X90064Y257500D01*
Y256500D01*
X89564Y256000D01*
X88064D01*
X89064D02*
X90064Y255000D01*
X93063Y257999D02*
X91063D01*
Y256500D01*
X92063Y257000D01*
X92563D01*
X93063Y256500D01*
Y255500D01*
X92563Y255000D01*
X91563D01*
X91063Y255500D01*
X94062Y255000D02*
X95062D01*
X94562D01*
Y257999D01*
X94062Y257500D01*
X204001Y250670D02*
Y253669D01*
X205501D01*
X206001Y253169D01*
Y252169D01*
X205501Y251670D01*
X204001D01*
X205001D02*
X206001Y250670D01*
X209000Y253669D02*
X207000D01*
Y252169D01*
X208000Y252669D01*
X208500D01*
X209000Y252169D01*
Y251170D01*
X208500Y250670D01*
X207500D01*
X207000Y251170D01*
X209999Y253169D02*
X210499Y253669D01*
X211499D01*
X211999Y253169D01*
Y251170D01*
X211499Y250670D01*
X210499D01*
X209999Y251170D01*
Y253169D01*
X158501Y255501D02*
Y258500D01*
X160001D01*
X160501Y258000D01*
Y257000D01*
X160001Y256500D01*
X158501D01*
X159501D02*
X160501Y255501D01*
X163000D02*
Y258500D01*
X161500Y257000D01*
X163500D01*
X164499Y256000D02*
X164999Y255501D01*
X165999D01*
X166499Y256000D01*
Y258000D01*
X165999Y258500D01*
X164999D01*
X164499Y258000D01*
Y257500D01*
X164999Y257000D01*
X166499D01*
X243281Y362721D02*
Y365720D01*
X244780D01*
X245280Y365220D01*
Y364220D01*
X244780Y363721D01*
X243281D01*
X244281D02*
X245280Y362721D01*
X247779D02*
Y365720D01*
X246280Y364220D01*
X248279D01*
X249279Y365220D02*
X249779Y365720D01*
X250778D01*
X251278Y365220D01*
Y364720D01*
X250778Y364220D01*
X251278Y363721D01*
Y363221D01*
X250778Y362721D01*
X249779D01*
X249279Y363221D01*
Y363721D01*
X249779Y364220D01*
X249279Y364720D01*
Y365220D01*
X249779Y364220D02*
X250778D01*
X370001Y84500D02*
Y87499D01*
X371501D01*
X372001Y87000D01*
Y86000D01*
X371501Y85500D01*
X370001D01*
X371001D02*
X372001Y84500D01*
X374500D02*
Y87499D01*
X373000Y86000D01*
X375000D01*
X377999Y87499D02*
X375999D01*
Y86000D01*
X376999Y86500D01*
X377499D01*
X377999Y86000D01*
Y85000D01*
X377499Y84500D01*
X376499D01*
X375999Y85000D01*
X361501Y108501D02*
Y111500D01*
X363001D01*
X363501Y111000D01*
Y110000D01*
X363001Y109500D01*
X361501D01*
X362501D02*
X363501Y108501D01*
X366000D02*
Y111500D01*
X364500Y110000D01*
X366500D01*
X368999Y108501D02*
Y111500D01*
X367499Y110000D01*
X369499D01*
X189501Y296500D02*
Y299500D01*
X191001D01*
X191501Y299000D01*
Y298000D01*
X191001Y297500D01*
X189501D01*
X190501D02*
X191501Y296500D01*
X194000D02*
Y299500D01*
X192500Y298000D01*
X194500D01*
X197499Y296500D02*
X195499D01*
X197499Y298500D01*
Y299000D01*
X196999Y299500D01*
X195999D01*
X195499Y299000D01*
X360501Y69500D02*
Y72500D01*
X362001D01*
X362501Y72000D01*
Y71000D01*
X362001Y70500D01*
X360501D01*
X361501D02*
X362501Y69500D01*
X365000D02*
Y72500D01*
X363500Y71000D01*
X365499D01*
X366499Y69500D02*
X367499D01*
X366999D01*
Y72500D01*
X366499Y72000D01*
X376001Y118000D02*
Y121000D01*
X377501D01*
X378001Y120500D01*
Y119500D01*
X377501Y119000D01*
X376001D01*
X377001D02*
X378001Y118000D01*
X380500D02*
Y121000D01*
X379000Y119500D01*
X381000D01*
X381999Y120500D02*
X382499Y121000D01*
X383499D01*
X383999Y120500D01*
Y118500D01*
X383499Y118000D01*
X382499D01*
X381999Y118500D01*
Y120500D01*
X189501Y279501D02*
Y282500D01*
X191001D01*
X191501Y282000D01*
Y281000D01*
X191001Y280500D01*
X189501D01*
X190501D02*
X191501Y279501D01*
X192500Y282000D02*
X193000Y282500D01*
X194000D01*
X194500Y282000D01*
Y281500D01*
X194000Y281000D01*
X193500D01*
X194000D01*
X194500Y280500D01*
Y280000D01*
X194000Y279501D01*
X193000D01*
X192500Y280000D01*
X195499D02*
X195999Y279501D01*
X196999D01*
X197499Y280000D01*
Y282000D01*
X196999Y282500D01*
X195999D01*
X195499Y282000D01*
Y281500D01*
X195999Y281000D01*
X197499D01*
X189501Y288000D02*
Y291000D01*
X191001D01*
X191501Y290500D01*
Y289500D01*
X191001Y289000D01*
X189501D01*
X190501D02*
X191501Y288000D01*
X192500Y290500D02*
X193000Y291000D01*
X194000D01*
X194500Y290500D01*
Y290000D01*
X194000Y289500D01*
X193500D01*
X194000D01*
X194500Y289000D01*
Y288500D01*
X194000Y288000D01*
X193000D01*
X192500Y288500D01*
X195499Y290500D02*
X195999Y291000D01*
X196999D01*
X197499Y290500D01*
Y290000D01*
X196999Y289500D01*
X197499Y289000D01*
Y288500D01*
X196999Y288000D01*
X195999D01*
X195499Y288500D01*
Y289000D01*
X195999Y289500D01*
X195499Y290000D01*
Y290500D01*
X195999Y289500D02*
X196999D01*
X189501Y305000D02*
Y307999D01*
X191001D01*
X191501Y307500D01*
Y306500D01*
X191001Y306000D01*
X189501D01*
X190501D02*
X191501Y305000D01*
X192500Y307500D02*
X193000Y307999D01*
X194000D01*
X194500Y307500D01*
Y307000D01*
X194000Y306500D01*
X193500D01*
X194000D01*
X194500Y306000D01*
Y305500D01*
X194000Y305000D01*
X193000D01*
X192500Y305500D01*
X195499Y307999D02*
X197499D01*
Y307500D01*
X195499Y305500D01*
Y305000D01*
X329064Y136001D02*
Y138999D01*
X330564D01*
X331064Y138500D01*
Y137500D01*
X330564Y137000D01*
X329064D01*
X330064D02*
X331064Y136001D01*
X332063Y138500D02*
X332563Y138999D01*
X333563D01*
X334063Y138500D01*
Y138000D01*
X333563Y137500D01*
X333063D01*
X333563D01*
X334063Y137000D01*
Y136500D01*
X333563Y136001D01*
X332563D01*
X332063Y136500D01*
X337062Y138999D02*
X336062Y138500D01*
X335062Y137500D01*
Y136500D01*
X335562Y136001D01*
X336562D01*
X337062Y136500D01*
Y137000D01*
X336562Y137500D01*
X335062D01*
X344501Y135501D02*
Y138499D01*
X346001D01*
X346501Y138000D01*
Y137000D01*
X346001Y136500D01*
X344501D01*
X345501D02*
X346501Y135501D01*
X347500Y138000D02*
X348000Y138499D01*
X349000D01*
X349500Y138000D01*
Y137500D01*
X349000Y137000D01*
X348500D01*
X349000D01*
X349500Y136500D01*
Y136000D01*
X349000Y135501D01*
X348000D01*
X347500Y136000D01*
X352499Y138499D02*
X350499D01*
Y137000D01*
X351499Y137500D01*
X351999D01*
X352499Y137000D01*
Y136000D01*
X351999Y135501D01*
X350999D01*
X350499Y136000D01*
X234501Y250670D02*
Y253669D01*
X236001D01*
X236501Y253169D01*
Y252169D01*
X236001Y251670D01*
X234501D01*
X235501D02*
X236501Y250670D01*
X237500Y253169D02*
X238000Y253669D01*
X239000D01*
X239500Y253169D01*
Y252669D01*
X239000Y252169D01*
X238500D01*
X239000D01*
X239500Y251670D01*
Y251170D01*
X239000Y250670D01*
X238000D01*
X237500Y251170D01*
X241999Y250670D02*
Y253669D01*
X240499Y252169D01*
X242499D01*
X249001Y250670D02*
Y253669D01*
X250501D01*
X251001Y253169D01*
Y252169D01*
X250501Y251670D01*
X249001D01*
X250001D02*
X251001Y250670D01*
X252000Y253169D02*
X252500Y253669D01*
X253500D01*
X254000Y253169D01*
Y252669D01*
X253500Y252169D01*
X253000D01*
X253500D01*
X254000Y251670D01*
Y251170D01*
X253500Y250670D01*
X252500D01*
X252000Y251170D01*
X254999Y253169D02*
X255499Y253669D01*
X256499D01*
X256999Y253169D01*
Y252669D01*
X256499Y252169D01*
X255999D01*
X256499D01*
X256999Y251670D01*
Y251170D01*
X256499Y250670D01*
X255499D01*
X254999Y251170D01*
X219001Y250670D02*
Y253669D01*
X220501D01*
X221001Y253169D01*
Y252169D01*
X220501Y251670D01*
X219001D01*
X220001D02*
X221001Y250670D01*
X222000Y253169D02*
X222500Y253669D01*
X223500D01*
X224000Y253169D01*
Y252669D01*
X223500Y252169D01*
X223000D01*
X223500D01*
X224000Y251670D01*
Y251170D01*
X223500Y250670D01*
X222500D01*
X222000Y251170D01*
X226999Y250670D02*
X224999D01*
X226999Y252669D01*
Y253169D01*
X226499Y253669D01*
X225499D01*
X224999Y253169D01*
X66501Y368500D02*
Y371499D01*
X68001D01*
X68501Y371000D01*
Y370000D01*
X68001Y369500D01*
X66501D01*
X67501D02*
X68501Y368500D01*
X69500Y371000D02*
X70000Y371499D01*
X71000D01*
X71500Y371000D01*
Y370500D01*
X71000Y370000D01*
X70500D01*
X71000D01*
X71500Y369500D01*
Y369000D01*
X71000Y368500D01*
X70000D01*
X69500Y369000D01*
X72499Y368500D02*
X73499D01*
X72999D01*
Y371499D01*
X72499Y371000D01*
X90001Y368500D02*
Y371499D01*
X91501D01*
X92001Y371000D01*
Y370000D01*
X91501Y369500D01*
X90001D01*
X91001D02*
X92001Y368500D01*
X93000Y371000D02*
X93500Y371499D01*
X94500D01*
X95000Y371000D01*
Y370500D01*
X94500Y370000D01*
X94000D01*
X94500D01*
X95000Y369500D01*
Y369000D01*
X94500Y368500D01*
X93500D01*
X93000Y369000D01*
X95999Y371000D02*
X96499Y371499D01*
X97499D01*
X97999Y371000D01*
Y369000D01*
X97499Y368500D01*
X96499D01*
X95999Y369000D01*
Y371000D01*
X283501Y63500D02*
Y66500D01*
X285001D01*
X285501Y66000D01*
Y65000D01*
X285001Y64500D01*
X283501D01*
X284501D02*
X285501Y63500D01*
X288500D02*
X286500D01*
X288500Y65500D01*
Y66000D01*
X288000Y66500D01*
X287000D01*
X286500Y66000D01*
X289499Y64000D02*
X289999Y63500D01*
X290999D01*
X291499Y64000D01*
Y66000D01*
X290999Y66500D01*
X289999D01*
X289499Y66000D01*
Y65500D01*
X289999Y65000D01*
X291499D01*
X89501Y388500D02*
Y391499D01*
X91001D01*
X91501Y391000D01*
Y390000D01*
X91001Y389500D01*
X89501D01*
X90501D02*
X91501Y388500D01*
X94500D02*
X92500D01*
X94500Y390500D01*
Y391000D01*
X94000Y391499D01*
X93000D01*
X92500Y391000D01*
X95499D02*
X95999Y391499D01*
X96999D01*
X97499Y391000D01*
Y390500D01*
X96999Y390000D01*
X97499Y389500D01*
Y389000D01*
X96999Y388500D01*
X95999D01*
X95499Y389000D01*
Y389500D01*
X95999Y390000D01*
X95499Y390500D01*
Y391000D01*
X95999Y390000D02*
X96999D01*
X152501Y385938D02*
Y388936D01*
X154001D01*
X154501Y388437D01*
Y387437D01*
X154001Y386937D01*
X152501D01*
X153501D02*
X154501Y385938D01*
X157500D02*
X155500D01*
X157500Y387937D01*
Y388437D01*
X157000Y388936D01*
X156000D01*
X155500Y388437D01*
X158499Y388936D02*
X160499D01*
Y388437D01*
X158499Y386437D01*
Y385938D01*
X90001Y378501D02*
Y381500D01*
X91501D01*
X92001Y381000D01*
Y380000D01*
X91501Y379500D01*
X90001D01*
X91001D02*
X92001Y378501D01*
X95000D02*
X93000D01*
X95000Y380500D01*
Y381000D01*
X94500Y381500D01*
X93500D01*
X93000Y381000D01*
X97999Y381500D02*
X96999Y381000D01*
X95999Y380000D01*
Y379000D01*
X96499Y378501D01*
X97499D01*
X97999Y379000D01*
Y379500D01*
X97499Y380000D01*
X95999D01*
X89501Y357501D02*
Y360500D01*
X91001D01*
X91501Y360000D01*
Y359000D01*
X91001Y358500D01*
X89501D01*
X90501D02*
X91501Y357501D01*
X94500D02*
X92500D01*
X94500Y359500D01*
Y360000D01*
X94000Y360500D01*
X93000D01*
X92500Y360000D01*
X97499Y360500D02*
X95499D01*
Y359000D01*
X96499Y359500D01*
X96999D01*
X97499Y359000D01*
Y358000D01*
X96999Y357501D01*
X95999D01*
X95499Y358000D01*
X89501Y337501D02*
Y340499D01*
X91001D01*
X91501Y340000D01*
Y339000D01*
X91001Y338500D01*
X89501D01*
X90501D02*
X91501Y337501D01*
X94500D02*
X92500D01*
X94500Y339500D01*
Y340000D01*
X94000Y340499D01*
X93000D01*
X92500Y340000D01*
X96999Y337501D02*
Y340499D01*
X95499Y339000D01*
X97499D01*
X89501Y348001D02*
Y350999D01*
X91001D01*
X91501Y350500D01*
Y349500D01*
X91001Y349000D01*
X89501D01*
X90501D02*
X91501Y348001D01*
X94500D02*
X92500D01*
X94500Y350000D01*
Y350500D01*
X94000Y350999D01*
X93000D01*
X92500Y350500D01*
X95499D02*
X95999Y350999D01*
X96999D01*
X97499Y350500D01*
Y350000D01*
X96999Y349500D01*
X96499D01*
X96999D01*
X97499Y349000D01*
Y348500D01*
X96999Y348001D01*
X95999D01*
X95499Y348500D01*
X175001Y348001D02*
Y350999D01*
X176501D01*
X177001Y350500D01*
Y349500D01*
X176501Y349000D01*
X175001D01*
X176001D02*
X177001Y348001D01*
X180000D02*
X178000D01*
X180000Y350000D01*
Y350500D01*
X179500Y350999D01*
X178500D01*
X178000Y350500D01*
X182999Y348001D02*
X180999D01*
X182999Y350000D01*
Y350500D01*
X182499Y350999D01*
X181499D01*
X180999Y350500D01*
X254501Y368001D02*
Y371000D01*
X256001D01*
X256501Y370500D01*
Y369500D01*
X256001Y369000D01*
X254501D01*
X255501D02*
X256501Y368001D01*
X259500D02*
X257500D01*
X259500Y370000D01*
Y370500D01*
X259000Y371000D01*
X258000D01*
X257500Y370500D01*
X260499Y368001D02*
X261499D01*
X260999D01*
Y371000D01*
X260499Y370500D01*
X253501Y388000D02*
Y391000D01*
X255001D01*
X255501Y390500D01*
Y389500D01*
X255001Y389000D01*
X253501D01*
X254501D02*
X255501Y388000D01*
X258500D02*
X256500D01*
X258500Y390000D01*
Y390500D01*
X258000Y391000D01*
X257000D01*
X256500Y390500D01*
X259499D02*
X259999Y391000D01*
X260999D01*
X261499Y390500D01*
Y388500D01*
X260999Y388000D01*
X259999D01*
X259499Y388500D01*
Y390500D01*
X223751Y392001D02*
Y395000D01*
X225251D01*
X225751Y394500D01*
Y393500D01*
X225251Y393000D01*
X223751D01*
X224751D02*
X225751Y392001D01*
X226750D02*
X227750D01*
X227250D01*
Y395000D01*
X226750Y394500D01*
X229249Y392500D02*
X229749Y392001D01*
X230749D01*
X231249Y392500D01*
Y394500D01*
X230749Y395000D01*
X229749D01*
X229249Y394500D01*
Y394000D01*
X229749Y393500D01*
X231249D01*
X206251Y394001D02*
Y397000D01*
X207751D01*
X208251Y396500D01*
Y395500D01*
X207751Y395000D01*
X206251D01*
X207251D02*
X208251Y394001D01*
X209250D02*
X210250D01*
X209750D01*
Y397000D01*
X209250Y396500D01*
X211749D02*
X212249Y397000D01*
X213249D01*
X213749Y396500D01*
Y396000D01*
X213249Y395500D01*
X213749Y395000D01*
Y394500D01*
X213249Y394001D01*
X212249D01*
X211749Y394500D01*
Y395000D01*
X212249Y395500D01*
X211749Y396000D01*
Y396500D01*
X212249Y395500D02*
X213249D01*
X174751Y255650D02*
Y258649D01*
X176251D01*
X176751Y258149D01*
Y257150D01*
X176251Y256650D01*
X174751D01*
X175751D02*
X176751Y255650D01*
X177750D02*
X178750D01*
X178250D01*
Y258649D01*
X177750Y258149D01*
X180250Y258649D02*
X182249D01*
Y258149D01*
X180250Y256150D01*
Y255650D01*
X59251Y110001D02*
Y112999D01*
X60751D01*
X61251Y112500D01*
Y111500D01*
X60751Y111000D01*
X59251D01*
X60251D02*
X61251Y110001D01*
X62250D02*
X63250D01*
X62750D01*
Y112999D01*
X62250Y112500D01*
X66749Y112999D02*
X65749Y112500D01*
X64749Y111500D01*
Y110500D01*
X65249Y110001D01*
X66249D01*
X66749Y110500D01*
Y111000D01*
X66249Y111500D01*
X64749D01*
X156251Y73501D02*
Y76499D01*
X157751D01*
X158251Y76000D01*
Y75000D01*
X157751Y74500D01*
X156251D01*
X157251D02*
X158251Y73501D01*
X159250D02*
X160250D01*
X159750D01*
Y76499D01*
X159250Y76000D01*
X163749Y76499D02*
X161749D01*
Y75000D01*
X162749Y75500D01*
X163249D01*
X163749Y75000D01*
Y74000D01*
X163249Y73501D01*
X162249D01*
X161749Y74000D01*
X293751Y72500D02*
Y75499D01*
X295251D01*
X295751Y75000D01*
Y74000D01*
X295251Y73500D01*
X293751D01*
X294751D02*
X295751Y72500D01*
X296750D02*
X297750D01*
X297250D01*
Y75499D01*
X296750Y75000D01*
X300749Y72500D02*
Y75499D01*
X299249Y74000D01*
X301249D01*
X275751Y71500D02*
Y74499D01*
X277251D01*
X277751Y74000D01*
Y73000D01*
X277251Y72500D01*
X275751D01*
X276751D02*
X277751Y71500D01*
X278750D02*
X279750D01*
X279250D01*
Y74499D01*
X278750Y74000D01*
X281249D02*
X281749Y74499D01*
X282749D01*
X283249Y74000D01*
Y73500D01*
X282749Y73000D01*
X282249D01*
X282749D01*
X283249Y72500D01*
Y72000D01*
X282749Y71500D01*
X281749D01*
X281249Y72000D01*
X231251Y87501D02*
Y90500D01*
X232751D01*
X233251Y90000D01*
Y89000D01*
X232751Y88500D01*
X231251D01*
X232251D02*
X233251Y87501D01*
X234250D02*
X235250D01*
X234750D01*
Y90500D01*
X234250Y90000D01*
X238749Y87501D02*
X236749D01*
X238749Y89500D01*
Y90000D01*
X238249Y90500D01*
X237249D01*
X236749Y90000D01*
X325751Y101500D02*
Y104499D01*
X327251D01*
X327750Y104000D01*
Y103000D01*
X327251Y102500D01*
X325751D01*
X326751D02*
X327750Y101500D01*
X328750D02*
X329750D01*
X329250D01*
Y104499D01*
X328750Y104000D01*
X331249Y101500D02*
X332249D01*
X331749D01*
Y104499D01*
X331249Y104000D01*
X326251Y110501D02*
Y113499D01*
X327751D01*
X328251Y113000D01*
Y112000D01*
X327751Y111500D01*
X326251D01*
X327251D02*
X328251Y110501D01*
X329250D02*
X330250D01*
X329750D01*
Y113499D01*
X329250Y113000D01*
X331749D02*
X332249Y113499D01*
X333249D01*
X333749Y113000D01*
Y111000D01*
X333249Y110501D01*
X332249D01*
X331749Y111000D01*
Y113000D01*
X326001Y118500D02*
Y121500D01*
X327500D01*
X328000Y121000D01*
Y120000D01*
X327500Y119500D01*
X326001D01*
X327000D02*
X328000Y118500D01*
X329000Y119000D02*
X329500Y118500D01*
X330499D01*
X330999Y119000D01*
Y121000D01*
X330499Y121500D01*
X329500D01*
X329000Y121000D01*
Y120500D01*
X329500Y120000D01*
X330999D01*
X234001Y106500D02*
Y109500D01*
X235500D01*
X236000Y109000D01*
Y108000D01*
X235500Y107500D01*
X234001D01*
X235000D02*
X236000Y106500D01*
X237000Y109000D02*
X237500Y109500D01*
X238499D01*
X238999Y109000D01*
Y108500D01*
X238499Y108000D01*
X238999Y107500D01*
Y107000D01*
X238499Y106500D01*
X237500D01*
X237000Y107000D01*
Y107500D01*
X237500Y108000D01*
X237000Y108500D01*
Y109000D01*
X237500Y108000D02*
X238499D01*
X278501Y140500D02*
Y143500D01*
X280000D01*
X280500Y143000D01*
Y142000D01*
X280000Y141500D01*
X278501D01*
X279501D02*
X280500Y140500D01*
X281500Y143500D02*
X283499D01*
Y143000D01*
X281500Y141000D01*
Y140500D01*
X310501Y140000D02*
Y142999D01*
X312000D01*
X312500Y142500D01*
Y141500D01*
X312000Y141000D01*
X310501D01*
X311501D02*
X312500Y140000D01*
X315499Y142999D02*
X314499Y142500D01*
X313500Y141500D01*
Y140500D01*
X314000Y140000D01*
X314999D01*
X315499Y140500D01*
Y141000D01*
X314999Y141500D01*
X313500D01*
X234001Y96500D02*
Y99499D01*
X235500D01*
X236000Y99000D01*
Y98000D01*
X235500Y97500D01*
X234001D01*
X235000D02*
X236000Y96500D01*
X238999Y99499D02*
X237000D01*
Y98000D01*
X238000Y98500D01*
X238499D01*
X238999Y98000D01*
Y97000D01*
X238499Y96500D01*
X237500D01*
X237000Y97000D01*
X234001Y126500D02*
Y129499D01*
X235500D01*
X236000Y129000D01*
Y128000D01*
X235500Y127500D01*
X234001D01*
X235000D02*
X236000Y126500D01*
X238499D02*
Y129499D01*
X237000Y128000D01*
X238999D01*
X294501Y128500D02*
Y131500D01*
X296000D01*
X296500Y131000D01*
Y130000D01*
X296000Y129500D01*
X294501D01*
X295500D02*
X296500Y128500D01*
X297500Y131000D02*
X298000Y131500D01*
X298999D01*
X299499Y131000D01*
Y130500D01*
X298999Y130000D01*
X298499D01*
X298999D01*
X299499Y129500D01*
Y129000D01*
X298999Y128500D01*
X298000D01*
X297500Y129000D01*
X262001Y128000D02*
Y131000D01*
X263500D01*
X264000Y130500D01*
Y129500D01*
X263500Y129000D01*
X262001D01*
X263000D02*
X264000Y128000D01*
X266999D02*
X265000D01*
X266999Y130000D01*
Y130500D01*
X266499Y131000D01*
X265500D01*
X265000Y130500D01*
X234501Y116500D02*
Y119500D01*
X236000D01*
X236500Y119000D01*
Y118000D01*
X236000Y117500D01*
X234501D01*
X235500D02*
X236500Y116500D01*
X237500D02*
X238499D01*
X238000D01*
Y119500D01*
X237500Y119000D01*
X239402Y199499D02*
Y197000D01*
X239902Y196501D01*
X240901D01*
X241401Y197000D01*
Y199499D01*
X242401Y196501D02*
Y198500D01*
X243401Y199499D01*
X244400Y198500D01*
Y196501D01*
Y198000D01*
X242401D01*
X245400Y196501D02*
Y199499D01*
X246899D01*
X247399Y199000D01*
Y198000D01*
X246899Y197500D01*
X245400D01*
X246399D02*
X247399Y196501D01*
X248399Y199499D02*
X250398D01*
X249398D01*
Y196501D01*
X180751Y200500D02*
X181751D01*
X181251D01*
Y203500D01*
X180751Y203000D01*
X185250Y200500D02*
X183250D01*
X185250Y202500D01*
Y203000D01*
X184750Y203500D01*
X183750D01*
X183250Y203000D01*
X186249Y203500D02*
Y201500D01*
X187249Y200500D01*
X188249Y201500D01*
Y203500D01*
X258751D02*
X259751D01*
X259251D01*
Y200500D01*
X258751D01*
X259751D01*
X263250D02*
X261250D01*
X263250Y202500D01*
Y203000D01*
X262750Y203500D01*
X261750D01*
X261250Y203000D01*
X266249D02*
X265749Y203500D01*
X264749D01*
X264249Y203000D01*
Y201000D01*
X264749Y200500D01*
X265749D01*
X266249Y201000D01*
X206200Y203500D02*
X204201D01*
Y202000D01*
X205201Y202500D01*
X205700D01*
X206200Y202000D01*
Y201000D01*
X205700Y200500D01*
X204701D01*
X204201Y201000D01*
X207200Y203500D02*
Y201500D01*
X208200Y200500D01*
X209199Y201500D01*
Y203500D01*
X219552Y202500D02*
X220052Y202999D01*
X221051D01*
X221551Y202500D01*
Y202000D01*
X221051Y201500D01*
X220551D01*
X221051D01*
X221551Y201000D01*
Y200500D01*
X221051Y200001D01*
X220052D01*
X219552Y200500D01*
X222551Y200001D02*
Y200500D01*
X223051D01*
Y200001D01*
X222551D01*
X225050Y202500D02*
X225550Y202999D01*
X226549D01*
X227049Y202500D01*
Y202000D01*
X226549Y201500D01*
X226050D01*
X226549D01*
X227049Y201000D01*
Y200500D01*
X226549Y200001D01*
X225550D01*
X225050Y200500D01*
X228049Y202999D02*
Y201000D01*
X229049Y200001D01*
X230048Y201000D01*
Y202999D01*
X328751Y55001D02*
Y57999D01*
X330251D01*
X330751Y57500D01*
Y56500D01*
X330251Y56000D01*
X328751D01*
X331750Y55001D02*
X332750D01*
X332250D01*
Y57999D01*
X331750Y57500D01*
X336249Y57999D02*
X335249Y57500D01*
X334249Y56500D01*
Y55500D01*
X334749Y55001D01*
X335749D01*
X336249Y55500D01*
Y56000D01*
X335749Y56500D01*
X334249D01*
X356254Y55001D02*
Y57999D01*
X357753D01*
X358253Y57500D01*
Y56500D01*
X357753Y56000D01*
X356254D01*
X359253Y55001D02*
X360253D01*
X359753D01*
Y57999D01*
X359253Y57500D01*
X363752Y57999D02*
X361752D01*
Y56500D01*
X362752Y57000D01*
X363252D01*
X363752Y56500D01*
Y55500D01*
X363252Y55001D01*
X362252D01*
X361752Y55500D01*
X367750Y55001D02*
Y57000D01*
X368750Y57999D01*
X369750Y57000D01*
Y55001D01*
Y56500D01*
X367750D01*
X372749Y57000D02*
X371249D01*
X370749Y56500D01*
Y55500D01*
X371249Y55001D01*
X372749D01*
X375748Y57000D02*
X374248D01*
X373748Y56500D01*
Y55500D01*
X374248Y55001D01*
X375748D01*
X378247D02*
X377247D01*
X376747Y55500D01*
Y56500D01*
X377247Y57000D01*
X378247D01*
X378747Y56500D01*
Y56000D01*
X376747D01*
X379746Y55001D02*
X380746D01*
X380246D01*
Y57999D01*
X379746D01*
X391754Y55501D02*
Y58499D01*
X393254D01*
X393754Y58000D01*
Y57000D01*
X393254Y56500D01*
X391754D01*
X394753Y55501D02*
X395753D01*
X395253D01*
Y58499D01*
X394753Y58000D01*
X398752Y55501D02*
Y58499D01*
X397252Y57000D01*
X399252D01*
X403250Y58499D02*
X405250D01*
X404250D01*
Y55501D01*
X406249Y58499D02*
Y55501D01*
Y57000D01*
X406749Y57500D01*
X407749D01*
X408249Y57000D01*
Y55501D01*
X410748D02*
X409748D01*
X409248Y56000D01*
Y57000D01*
X409748Y57500D01*
X410748D01*
X411248Y57000D01*
Y56500D01*
X409248D01*
X412248Y57500D02*
Y55501D01*
Y56500D01*
X412747Y57000D01*
X413247Y57500D01*
X413747D01*
X415246Y55501D02*
Y57500D01*
X415746D01*
X416246Y57000D01*
Y55501D01*
Y57000D01*
X416746Y57500D01*
X417246Y57000D01*
Y55501D01*
X188257Y56001D02*
Y59000D01*
X189756D01*
X190256Y58500D01*
Y57500D01*
X189756Y57000D01*
X188257D01*
X191256Y56001D02*
X192255D01*
X191756D01*
Y59000D01*
X191256Y58500D01*
X193755D02*
X194255Y59000D01*
X195254D01*
X195754Y58500D01*
Y58000D01*
X195254Y57500D01*
X194755D01*
X195254D01*
X195754Y57000D01*
Y56500D01*
X195254Y56001D01*
X194255D01*
X193755Y56500D01*
X199753Y56001D02*
Y59000D01*
X200753Y58000D01*
X201752Y59000D01*
Y56001D01*
X203252Y58000D02*
X204252D01*
X204751Y57500D01*
Y56001D01*
X203252D01*
X202752Y56500D01*
X203252Y57000D01*
X204751D01*
X205751Y56001D02*
X206751D01*
X206251D01*
Y58000D01*
X205751D01*
X208250Y56001D02*
Y58000D01*
X209750D01*
X210250Y57500D01*
Y56001D01*
X216248Y58500D02*
X215748Y59000D01*
X214748D01*
X214248Y58500D01*
Y58000D01*
X214748Y57500D01*
X215748D01*
X216248Y57000D01*
Y56500D01*
X215748Y56001D01*
X214748D01*
X214248Y56500D01*
X218747Y56001D02*
X217747D01*
X217247Y56500D01*
Y57500D01*
X217747Y58000D01*
X218747D01*
X219247Y57500D01*
Y57000D01*
X217247D01*
X220246Y58000D02*
Y56001D01*
Y57000D01*
X220746Y57500D01*
X221246Y58000D01*
X221746D01*
X223245Y56001D02*
X224245D01*
X223745D01*
Y58000D01*
X223245D01*
X226244D02*
X227244D01*
X227744Y57500D01*
Y56001D01*
X226244D01*
X225745Y56500D01*
X226244Y57000D01*
X227744D01*
X228744Y56001D02*
X229743D01*
X229243D01*
Y59000D01*
X228744D01*
X295254Y55501D02*
Y58499D01*
X296754D01*
X297253Y58000D01*
Y57000D01*
X296754Y56500D01*
X295254D01*
X298253Y55501D02*
X299253D01*
X298753D01*
Y58499D01*
X298253Y58000D01*
X302752Y55501D02*
X300752D01*
X302752Y57500D01*
Y58000D01*
X302252Y58499D01*
X301252D01*
X300752Y58000D01*
X306750Y58499D02*
Y55501D01*
X308250D01*
X308750Y56000D01*
Y56500D01*
X308250Y57000D01*
X306750D01*
X308250D01*
X308750Y57500D01*
Y58000D01*
X308250Y58499D01*
X306750D01*
X309749Y57500D02*
Y55501D01*
Y56500D01*
X310249Y57000D01*
X310749Y57500D01*
X311249D01*
X313248D02*
X314248D01*
X314748Y57000D01*
Y55501D01*
X313248D01*
X312749Y56000D01*
X313248Y56500D01*
X314748D01*
X315747Y55501D02*
Y58499D01*
Y56500D02*
X317247Y57500D01*
X315747Y56500D02*
X317247Y55501D01*
X320246D02*
X319246D01*
X318746Y56000D01*
Y57000D01*
X319246Y57500D01*
X320246D01*
X320746Y57000D01*
Y56500D01*
X318746D01*
X61500Y316246D02*
X58500D01*
X60000D01*
Y314247D01*
X61500D01*
X58500D01*
Y312748D02*
Y311748D01*
X59000Y311248D01*
X60000D01*
X60500Y311748D01*
Y312748D01*
X60000Y313247D01*
X59000D01*
X58500Y312748D01*
X60500Y310248D02*
X58500D01*
X59500D01*
X60000Y309749D01*
X60500Y309249D01*
Y308749D01*
X58500Y307249D02*
X60500D01*
Y305750D01*
X60000Y305250D01*
X58500D01*
Y301251D02*
X61500D01*
Y299752D01*
X61000Y299252D01*
X60000D01*
X59500Y299752D01*
Y301251D01*
X60500Y298252D02*
X59000D01*
X58500Y297752D01*
X59000Y297252D01*
X58500Y296753D01*
X59000Y296253D01*
X60500D01*
Y295253D02*
X58500D01*
X59500D01*
X60000Y294753D01*
X60500Y294253D01*
Y293754D01*
X61705Y391248D02*
Y393247D01*
X58706D01*
Y391248D01*
X60205Y393247D02*
Y392247D01*
X60705Y388248D02*
Y389748D01*
X60205Y390248D01*
X59206D01*
X58706Y389748D01*
Y388248D01*
Y386749D02*
Y385749D01*
X59206Y385249D01*
X60205D01*
X60705Y385749D01*
Y386749D01*
X60205Y387249D01*
X59206D01*
X58706Y386749D01*
Y381251D02*
X61705D01*
Y379751D01*
X61205Y379251D01*
X60205D01*
X59705Y379751D01*
Y381251D01*
X60705Y378252D02*
X59206D01*
X58706Y377752D01*
X59206Y377252D01*
X58706Y376752D01*
X59206Y376252D01*
X60705D01*
Y375253D02*
X58706D01*
X59705D01*
X60205Y374753D01*
X60705Y374253D01*
Y373753D01*
X61000Y357997D02*
Y359997D01*
X59500D01*
Y358997D01*
Y359997D01*
X58000D01*
X61000Y356998D02*
X58000D01*
X59000Y355998D01*
X58000Y354998D01*
X61000D01*
Y353999D02*
X58000D01*
Y352499D01*
X58500Y351999D01*
X60500D01*
X61000Y352499D01*
Y353999D01*
X58000Y348001D02*
X61000D01*
Y346501D01*
X60500Y346001D01*
X59500D01*
X59000Y346501D01*
Y348001D01*
Y347001D02*
X58000Y346001D01*
X61000Y343002D02*
Y345002D01*
X58000D01*
Y343002D01*
X59500Y345002D02*
Y344002D01*
X61000Y342003D02*
X59000D01*
X58000Y341003D01*
X59000Y340003D01*
X61000D01*
X4505Y57500D02*
Y60500D01*
X6005D01*
X6505Y60000D01*
Y59000D01*
X6005Y58500D01*
X4505D01*
X7504Y60000D02*
X8004Y60500D01*
X9004D01*
X9504Y60000D01*
Y59500D01*
X9004Y59000D01*
X9504Y58500D01*
Y58000D01*
X9004Y57500D01*
X8004D01*
X7504Y58000D01*
Y58500D01*
X8004Y59000D01*
X7504Y59500D01*
Y60000D01*
X8004Y59000D02*
X9004D01*
X13503Y60500D02*
Y57500D01*
X15502D01*
X18001D02*
X17002D01*
X16502Y58000D01*
Y59000D01*
X17002Y59500D01*
X18001D01*
X18501Y59000D01*
Y58500D01*
X16502D01*
X20000Y57500D02*
Y60000D01*
Y59000D01*
X19501D01*
X20500D01*
X20000D01*
Y60000D01*
X20500Y60500D01*
X22500Y60000D02*
Y59500D01*
X22000D01*
X22999D01*
X22500D01*
Y58000D01*
X22999Y57500D01*
X27498Y60500D02*
X29497D01*
X28498D01*
Y57500D01*
X30497Y59500D02*
Y58000D01*
X30997Y57500D01*
X32496D01*
Y59500D01*
X33496D02*
Y57500D01*
Y58500D01*
X33996Y59000D01*
X34496Y59500D01*
X34996D01*
X36495Y57500D02*
Y59500D01*
X37995D01*
X38495Y59000D01*
Y57500D01*
X132506Y55001D02*
Y57999D01*
X134005D01*
X134505Y57500D01*
Y56500D01*
X134005Y56000D01*
X132506D01*
X137504Y57999D02*
X136505Y57500D01*
X135505Y56500D01*
Y55500D01*
X136005Y55001D01*
X137004D01*
X137504Y55500D01*
Y56000D01*
X137004Y56500D01*
X135505D01*
X141503Y55001D02*
Y57999D01*
X142503Y57000D01*
X143502Y57999D01*
Y55001D01*
X145002Y57000D02*
X146002D01*
X146501Y56500D01*
Y55001D01*
X145002D01*
X144502Y55500D01*
X145002Y56000D01*
X146501D01*
X147501Y55001D02*
X148501D01*
X148001D01*
Y57000D01*
X147501D01*
X150000Y55001D02*
Y57000D01*
X151500D01*
X152000Y56500D01*
Y55001D01*
X155998D02*
Y57999D01*
X157498D01*
X157998Y57500D01*
Y56500D01*
X157498Y56000D01*
X155998D01*
X159497Y55001D02*
X160497D01*
X160997Y55500D01*
Y56500D01*
X160497Y57000D01*
X159497D01*
X158997Y56500D01*
Y55500D01*
X159497Y55001D01*
X161996Y57000D02*
Y55500D01*
X162496Y55001D01*
X162996Y55500D01*
X163496Y55001D01*
X163996Y55500D01*
Y57000D01*
X166495Y55001D02*
X165495D01*
X164996Y55500D01*
Y56500D01*
X165495Y57000D01*
X166495D01*
X166995Y56500D01*
Y56000D01*
X164996D01*
X167994Y57000D02*
Y55001D01*
Y56000D01*
X168494Y56500D01*
X168994Y57000D01*
X169494D01*
X61000Y283497D02*
X58000D01*
X59500D01*
Y281497D01*
X61000D01*
X58000D01*
X60000Y280498D02*
Y278498D01*
X58000Y280498D01*
Y278498D01*
X60000Y277499D02*
X58000D01*
X59000D01*
X59500Y276999D01*
X60000Y276499D01*
Y275999D01*
X61000Y272500D02*
X58000D01*
Y274000D01*
X58500Y274500D01*
X59500D01*
X60000Y274000D01*
Y272500D01*
X61000Y266502D02*
Y268502D01*
X58000D01*
Y266502D01*
X59500Y268502D02*
Y267502D01*
X58000Y265503D02*
X60000D01*
Y264003D01*
X59500Y263503D01*
X58000D01*
X557506Y59500D02*
Y62499D01*
X559005D01*
X559505Y61999D01*
Y61000D01*
X559005Y60500D01*
X557506D01*
X562005Y59500D02*
Y62499D01*
X560505Y61000D01*
X562504D01*
X566503Y59500D02*
Y62499D01*
X568003D01*
X568502Y61999D01*
Y61000D01*
X568003Y60500D01*
X566503D01*
X567503D02*
X568502Y59500D01*
X569502D02*
X570502D01*
X570002D01*
Y61500D01*
X569502D01*
X573001Y58501D02*
X573501D01*
X574001Y59000D01*
Y61500D01*
X572501D01*
X572001Y61000D01*
Y60000D01*
X572501Y59500D01*
X574001D01*
X575000Y62499D02*
Y59500D01*
Y61000D01*
X575500Y61500D01*
X576500D01*
X577000Y61000D01*
Y59500D01*
X578499Y61999D02*
Y61500D01*
X577999D01*
X578999D01*
X578499D01*
Y60000D01*
X578999Y59500D01*
X583498Y62499D02*
X585497D01*
X584497D01*
Y59500D01*
X586497Y61500D02*
Y60000D01*
X586997Y59500D01*
X588496D01*
Y61500D01*
X589496D02*
Y59500D01*
Y60500D01*
X589995Y61000D01*
X590495Y61500D01*
X590995D01*
X592495Y59500D02*
Y61500D01*
X593994D01*
X594494Y61000D01*
Y59500D01*
X255003Y55052D02*
Y58051D01*
X256503D01*
X257003Y57551D01*
Y56551D01*
X256503Y56051D01*
X255003D01*
X258002Y57551D02*
X258502Y58051D01*
X259502D01*
X260002Y57551D01*
Y57051D01*
X259502Y56551D01*
X259002D01*
X259502D01*
X260002Y56051D01*
Y55551D01*
X259502Y55052D01*
X258502D01*
X258002Y55551D01*
X264000Y58051D02*
Y55052D01*
Y56551D01*
X266000D01*
Y58051D01*
Y55052D01*
X267499D02*
X268499D01*
X268999Y55551D01*
Y56551D01*
X268499Y57051D01*
X267499D01*
X266999Y56551D01*
Y55551D01*
X267499Y55052D01*
X269998Y57051D02*
Y55052D01*
Y56051D01*
X270498Y56551D01*
X270998Y57051D01*
X271498D01*
X272997Y55052D02*
Y57051D01*
X274497D01*
X274997Y56551D01*
Y55052D01*
X60999Y223995D02*
X58000D01*
Y222496D01*
X58500Y221996D01*
X59000D01*
X59500Y222496D01*
Y223995D01*
Y222496D01*
X60000Y221996D01*
X60500D01*
X60999Y222496D01*
Y223995D01*
X58000Y220996D02*
Y219996D01*
Y220496D01*
X60999D01*
Y220996D01*
X58000Y218497D02*
X60000D01*
Y216997D01*
X59500Y216497D01*
X58000D01*
Y215498D02*
X60999D01*
X59000D02*
X60000Y213998D01*
X59000Y215498D02*
X58000Y213998D01*
X60999Y209500D02*
Y207500D01*
Y208500D01*
X58000D01*
Y206001D02*
Y205001D01*
X58500Y204501D01*
X59500D01*
X60000Y205001D01*
Y206001D01*
X59500Y206501D01*
X58500D01*
X58000Y206001D01*
X57001Y202502D02*
Y202002D01*
X57500Y201502D01*
X60000D01*
Y203002D01*
X59500Y203502D01*
X58500D01*
X58000Y203002D01*
Y201502D01*
X57001Y199503D02*
Y199003D01*
X57500Y198503D01*
X60000D01*
Y200003D01*
X59500Y200503D01*
X58500D01*
X58000Y200003D01*
Y198503D01*
Y197503D02*
Y196504D01*
Y197004D01*
X60999D01*
Y197503D01*
X58000Y193505D02*
Y194504D01*
X58500Y195004D01*
X59500D01*
X60000Y194504D01*
Y193505D01*
X59500Y193005D01*
X59000D01*
Y195004D01*
X61999Y254746D02*
X59000D01*
X60500D01*
Y252747D01*
X61999D01*
X59000D01*
X61999Y251747D02*
X59000D01*
Y249747D01*
X61999Y245749D02*
Y243749D01*
Y244749D01*
X59000D01*
Y242250D02*
Y241250D01*
X59500Y240750D01*
X60500D01*
X61000Y241250D01*
Y242250D01*
X60500Y242750D01*
X59500D01*
X59000Y242250D01*
X58001Y238751D02*
Y238251D01*
X58500Y237751D01*
X61000D01*
Y239251D01*
X60500Y239751D01*
X59500D01*
X59000Y239251D01*
Y237751D01*
X58001Y235752D02*
Y235252D01*
X58500Y234752D01*
X61000D01*
Y236252D01*
X60500Y236752D01*
X59500D01*
X59000Y236252D01*
Y234752D01*
Y233753D02*
Y232753D01*
Y233253D01*
X61999D01*
Y233753D01*
X59000Y229754D02*
Y230754D01*
X59500Y231254D01*
X60500D01*
X61000Y230754D01*
Y229754D01*
X60500Y229254D01*
X60000D01*
Y231254D01*
X227751Y282501D02*
X228751D01*
X228251D01*
Y285500D01*
X227751Y285000D01*
X232250Y282501D02*
X230250D01*
X232250Y284500D01*
Y285000D01*
X231750Y285500D01*
X230750D01*
X230250Y285000D01*
X233249Y285500D02*
Y283500D01*
X234249Y282501D01*
X235249Y283500D01*
Y285500D01*
X240500D02*
X238501D01*
Y284000D01*
X239500Y284500D01*
X240000D01*
X240500Y284000D01*
Y283000D01*
X240000Y282501D01*
X239001D01*
X238501Y283000D01*
X241500Y285500D02*
Y283500D01*
X242499Y282501D01*
X243499Y283500D01*
Y285500D01*
X190004Y274000D02*
Y271001D01*
X191504D01*
X192004Y271500D01*
Y272000D01*
X191504Y272500D01*
X190004D01*
X191504D01*
X192004Y273000D01*
Y273500D01*
X191504Y274000D01*
X190004D01*
X193003Y273000D02*
Y271500D01*
X193503Y271001D01*
X195003D01*
Y273000D01*
X196002Y271001D02*
X197502D01*
X198002Y271500D01*
X197502Y272000D01*
X196502D01*
X196002Y272500D01*
X196502Y273000D01*
X198002D01*
X204000Y274000D02*
X202000D01*
Y272500D01*
X203000D01*
X202000D01*
Y271001D01*
X204999D02*
X205999D01*
X205499D01*
Y273000D01*
X204999D01*
X207499Y271001D02*
X208498D01*
X207998D01*
Y274000D01*
X207499D01*
X210498Y273500D02*
Y273000D01*
X209998D01*
X210998D01*
X210498D01*
Y271500D01*
X210998Y271001D01*
X213997D02*
X212997D01*
X212497Y271500D01*
Y272500D01*
X212997Y273000D01*
X213997D01*
X214496Y272500D01*
Y272000D01*
X212497D01*
X215496Y273000D02*
Y271001D01*
Y272000D01*
X215996Y272500D01*
X216496Y273000D01*
X216996D01*
X5001Y123000D02*
Y120001D01*
X7000D01*
X9999Y123000D02*
X8999Y122500D01*
X8000Y121500D01*
Y120500D01*
X8500Y120001D01*
X9499D01*
X9999Y120500D01*
Y121000D01*
X9499Y121500D01*
X8000D01*
X583001Y104999D02*
Y102000D01*
X585000D01*
X587999Y104999D02*
X586000D01*
Y103500D01*
X587000Y104000D01*
X587499D01*
X587999Y103500D01*
Y102500D01*
X587499Y102000D01*
X586500D01*
X586000Y102500D01*
X465001Y61999D02*
Y59000D01*
X467000D01*
X469499D02*
Y61999D01*
X468000Y60500D01*
X469999D01*
X124501Y320000D02*
Y317001D01*
X126500D01*
X127500Y319500D02*
X128000Y320000D01*
X128999D01*
X129499Y319500D01*
Y319000D01*
X128999Y318500D01*
X128499D01*
X128999D01*
X129499Y318000D01*
Y317500D01*
X128999Y317001D01*
X128000D01*
X127500Y317500D01*
X111501Y100499D02*
Y97500D01*
X113500D01*
X116499D02*
X114500D01*
X116499Y99500D01*
Y100000D01*
X115999Y100499D01*
X115000D01*
X114500Y100000D01*
X159001Y103999D02*
Y101000D01*
X161000D01*
X162000D02*
X162999D01*
X162499D01*
Y103999D01*
X162000Y103500D01*
X166501Y399000D02*
X164502D01*
Y397500D01*
X165501D01*
X164502D01*
Y396001D01*
X169500Y399000D02*
X167501D01*
Y396001D01*
X169500D01*
X167501Y397500D02*
X168500D01*
X170500Y399000D02*
X172499D01*
X171499D01*
Y396001D01*
X173499D02*
X174498D01*
X173999D01*
Y399000D01*
X173499Y398500D01*
X75000Y85000D02*
X73001D01*
Y83500D01*
X74001D01*
X73001D01*
Y82000D01*
X77999D02*
X76000D01*
X77999Y84000D01*
Y84500D01*
X77499Y85000D01*
X76500D01*
X76000Y84500D01*
X85000Y5999D02*
X83001D01*
Y4500D01*
X84000D01*
X83001D01*
Y3001D01*
X86000D02*
X86999D01*
X86500D01*
Y5999D01*
X86000Y5500D01*
X94001Y199999D02*
Y197001D01*
X95500D01*
X96000Y197500D01*
Y199500D01*
X95500Y199999D01*
X94001D01*
X97000Y199500D02*
X97500Y199999D01*
X98499D01*
X98999Y199500D01*
Y199000D01*
X98499Y198500D01*
X98999Y198000D01*
Y197500D01*
X98499Y197001D01*
X97500D01*
X97000Y197500D01*
Y198000D01*
X97500Y198500D01*
X97000Y199000D01*
Y199500D01*
X97500Y198500D02*
X98499D01*
X538501Y148500D02*
Y145501D01*
X540000D01*
X540500Y146000D01*
Y148000D01*
X540000Y148500D01*
X538501D01*
X541500D02*
X543499D01*
Y148000D01*
X541500Y146000D01*
Y145501D01*
X429001Y5500D02*
Y2500D01*
X430500D01*
X431000Y3000D01*
Y5000D01*
X430500Y5500D01*
X429001D01*
X433999D02*
X433000Y5000D01*
X432000Y4000D01*
Y3000D01*
X432500Y2500D01*
X433499D01*
X433999Y3000D01*
Y3500D01*
X433499Y4000D01*
X432000D01*
X382501Y60500D02*
Y57500D01*
X384000D01*
X384500Y58000D01*
Y60000D01*
X384000Y60500D01*
X382501D01*
X386999Y57500D02*
Y60500D01*
X385500Y59000D01*
X387499D01*
X400001Y141999D02*
Y139000D01*
X401500D01*
X402000Y139500D01*
Y141500D01*
X401500Y141999D01*
X400001D01*
X403000Y141500D02*
X403500Y141999D01*
X404499D01*
X404999Y141500D01*
Y141000D01*
X404499Y140500D01*
X404000D01*
X404499D01*
X404999Y140000D01*
Y139500D01*
X404499Y139000D01*
X403500D01*
X403000Y139500D01*
X206501Y108000D02*
Y105000D01*
X208000D01*
X208500Y105500D01*
Y107500D01*
X208000Y108000D01*
X206501D01*
X211499Y105000D02*
X209500D01*
X211499Y107000D01*
Y107500D01*
X210999Y108000D01*
X210000D01*
X209500Y107500D01*
X187001Y107500D02*
Y104500D01*
X188500D01*
X189000Y105000D01*
Y107000D01*
X188500Y107500D01*
X187001D01*
X190000Y104500D02*
X190999D01*
X190499D01*
Y107500D01*
X190000Y107000D01*
X51001Y5000D02*
X50501Y5500D01*
X49501D01*
X49001Y5000D01*
Y3000D01*
X49501Y2500D01*
X50501D01*
X51001Y3000D01*
X52000Y5000D02*
X52500Y5500D01*
X53500D01*
X54000Y5000D01*
Y4500D01*
X53500Y4000D01*
X53000D01*
X53500D01*
X54000Y3500D01*
Y3000D01*
X53500Y2500D01*
X52500D01*
X52000Y3000D01*
X54999Y5000D02*
X55499Y5500D01*
X56499D01*
X56999Y5000D01*
Y4500D01*
X56499Y4000D01*
X56999Y3500D01*
Y3000D01*
X56499Y2500D01*
X55499D01*
X54999Y3000D01*
Y3500D01*
X55499Y4000D01*
X54999Y4500D01*
Y5000D01*
X55499Y4000D02*
X56499D01*
X93501Y190500D02*
X93001Y190999D01*
X92001D01*
X91501Y190500D01*
Y188500D01*
X92001Y188001D01*
X93001D01*
X93501Y188500D01*
X94500Y190500D02*
X95000Y190999D01*
X96000D01*
X96500Y190500D01*
Y190000D01*
X96000Y189500D01*
X95500D01*
X96000D01*
X96500Y189000D01*
Y188500D01*
X96000Y188001D01*
X95000D01*
X94500Y188500D01*
X97499Y190999D02*
X99499D01*
Y190500D01*
X97499Y188500D01*
Y188001D01*
X10001Y127858D02*
X9501Y128358D01*
X8501D01*
X8001Y127858D01*
Y125859D01*
X8501Y125359D01*
X9501D01*
X10001Y125859D01*
X11000Y127858D02*
X11500Y128358D01*
X12500D01*
X13000Y127858D01*
Y127358D01*
X12500Y126858D01*
X12000D01*
X12500D01*
X13000Y126358D01*
Y125859D01*
X12500Y125359D01*
X11500D01*
X11000Y125859D01*
X15999Y128358D02*
X14999Y127858D01*
X13999Y126858D01*
Y125859D01*
X14499Y125359D01*
X15499D01*
X15999Y125859D01*
Y126358D01*
X15499Y126858D01*
X13999D01*
X81501Y190500D02*
X81001Y190999D01*
X80001D01*
X79501Y190500D01*
Y188500D01*
X80001Y188001D01*
X81001D01*
X81501Y188500D01*
X82500Y190500D02*
X83000Y190999D01*
X84000D01*
X84500Y190500D01*
Y190000D01*
X84000Y189500D01*
X83500D01*
X84000D01*
X84500Y189000D01*
Y188500D01*
X84000Y188001D01*
X83000D01*
X82500Y188500D01*
X87499Y190999D02*
X85499D01*
Y189500D01*
X86499Y190000D01*
X86999D01*
X87499Y189500D01*
Y188500D01*
X86999Y188001D01*
X85999D01*
X85499Y188500D01*
X72001Y190500D02*
X71501Y190999D01*
X70501D01*
X70001Y190500D01*
Y188500D01*
X70501Y188001D01*
X71501D01*
X72001Y188500D01*
X73000Y190500D02*
X73500Y190999D01*
X74500D01*
X75000Y190500D01*
Y190000D01*
X74500Y189500D01*
X74000D01*
X74500D01*
X75000Y189000D01*
Y188500D01*
X74500Y188001D01*
X73500D01*
X73000Y188500D01*
X77499Y188001D02*
Y190999D01*
X75999Y189500D01*
X77999D01*
X62501Y190500D02*
X62001Y190999D01*
X61001D01*
X60501Y190500D01*
Y188500D01*
X61001Y188001D01*
X62001D01*
X62501Y188500D01*
X63500Y190500D02*
X64000Y190999D01*
X65000D01*
X65500Y190500D01*
Y190000D01*
X65000Y189500D01*
X64500D01*
X65000D01*
X65500Y189000D01*
Y188500D01*
X65000Y188001D01*
X64000D01*
X63500Y188500D01*
X66499Y190500D02*
X66999Y190999D01*
X67999D01*
X68499Y190500D01*
Y190000D01*
X67999Y189500D01*
X67499D01*
X67999D01*
X68499Y189000D01*
Y188500D01*
X67999Y188001D01*
X66999D01*
X66499Y188500D01*
X586501Y96000D02*
X586001Y96500D01*
X585001D01*
X584501Y96000D01*
Y94000D01*
X585001Y93501D01*
X586001D01*
X586501Y94000D01*
X587500Y96000D02*
X588000Y96500D01*
X589000D01*
X589500Y96000D01*
Y95500D01*
X589000Y95000D01*
X588500D01*
X589000D01*
X589500Y94500D01*
Y94000D01*
X589000Y93501D01*
X588000D01*
X587500Y94000D01*
X592499Y93501D02*
X590499D01*
X592499Y95500D01*
Y96000D01*
X591999Y96500D01*
X590999D01*
X590499Y96000D01*
X539001Y108759D02*
X538501Y109259D01*
X537501D01*
X537001Y108759D01*
Y106760D01*
X537501Y106260D01*
X538501D01*
X539001Y106760D01*
X540000Y108759D02*
X540500Y109259D01*
X541500D01*
X541999Y108759D01*
Y108260D01*
X541500Y107760D01*
X541000D01*
X541500D01*
X541999Y107260D01*
Y106760D01*
X541500Y106260D01*
X540500D01*
X540000Y106760D01*
X542999Y106260D02*
X543999D01*
X543499D01*
Y109259D01*
X542999Y108759D01*
X497501Y150500D02*
X497001Y150999D01*
X496001D01*
X495501Y150500D01*
Y148500D01*
X496001Y148001D01*
X497001D01*
X497501Y148500D01*
X498500Y150500D02*
X499000Y150999D01*
X500000D01*
X500500Y150500D01*
Y150000D01*
X500000Y149500D01*
X499500D01*
X500000D01*
X500500Y149000D01*
Y148500D01*
X500000Y148001D01*
X499000D01*
X498500Y148500D01*
X501499Y150500D02*
X501999Y150999D01*
X502999D01*
X503499Y150500D01*
Y148500D01*
X502999Y148001D01*
X501999D01*
X501499Y148500D01*
Y150500D01*
X526501Y111000D02*
X526001Y111500D01*
X525001D01*
X524501Y111000D01*
Y109000D01*
X525001Y108501D01*
X526001D01*
X526501Y109000D01*
X529500Y108501D02*
X527500D01*
X529500Y110500D01*
Y111000D01*
X529000Y111500D01*
X528000D01*
X527500Y111000D01*
X530499Y109000D02*
X530999Y108501D01*
X531999D01*
X532499Y109000D01*
Y111000D01*
X531999Y111500D01*
X530999D01*
X530499Y111000D01*
Y110500D01*
X530999Y110000D01*
X532499D01*
X516501Y109000D02*
X516001Y109500D01*
X515001D01*
X514501Y109000D01*
Y107000D01*
X515001Y106500D01*
X516001D01*
X516501Y107000D01*
X519500Y106500D02*
X517500D01*
X519500Y108500D01*
Y109000D01*
X519000Y109500D01*
X518000D01*
X517500Y109000D01*
X520499D02*
X520999Y109500D01*
X521999D01*
X522499Y109000D01*
Y108500D01*
X521999Y108000D01*
X522499Y107500D01*
Y107000D01*
X521999Y106500D01*
X520999D01*
X520499Y107000D01*
Y107500D01*
X520999Y108000D01*
X520499Y108500D01*
Y109000D01*
X520999Y108000D02*
X521999D01*
X510501Y91000D02*
X510001Y91500D01*
X509001D01*
X508501Y91000D01*
Y89000D01*
X509001Y88500D01*
X510001D01*
X510501Y89000D01*
X513500Y88500D02*
X511500D01*
X513500Y90500D01*
Y91000D01*
X513000Y91500D01*
X512000D01*
X511500Y91000D01*
X514499Y91500D02*
X516499D01*
Y91000D01*
X514499Y89000D01*
Y88500D01*
X494001Y90000D02*
X493501Y90500D01*
X492501D01*
X492001Y90000D01*
Y88000D01*
X492501Y87501D01*
X493501D01*
X494001Y88000D01*
X497000Y87501D02*
X495000D01*
X497000Y89500D01*
Y90000D01*
X496500Y90500D01*
X495500D01*
X495000Y90000D01*
X499999Y90500D02*
X498999Y90000D01*
X497999Y89000D01*
Y88000D01*
X498499Y87501D01*
X499499D01*
X499999Y88000D01*
Y88500D01*
X499499Y89000D01*
X497999D01*
X480501Y94500D02*
X480001Y94999D01*
X479001D01*
X478501Y94500D01*
Y92500D01*
X479001Y92001D01*
X480001D01*
X480501Y92500D01*
X483500Y92001D02*
X481500D01*
X483500Y94000D01*
Y94500D01*
X483000Y94999D01*
X482000D01*
X481500Y94500D01*
X486499Y94999D02*
X484499D01*
Y93500D01*
X485499Y94000D01*
X485999D01*
X486499Y93500D01*
Y92500D01*
X485999Y92001D01*
X484999D01*
X484499Y92500D01*
X446501Y103000D02*
X446001Y103499D01*
X445001D01*
X444501Y103000D01*
Y101000D01*
X445001Y100501D01*
X446001D01*
X446501Y101000D01*
X449500Y100501D02*
X447500D01*
X449500Y102500D01*
Y103000D01*
X449000Y103499D01*
X448000D01*
X447500Y103000D01*
X451999Y100501D02*
Y103499D01*
X450499Y102000D01*
X452499D01*
X424001Y93000D02*
X423501Y93499D01*
X422501D01*
X422001Y93000D01*
Y91000D01*
X422501Y90500D01*
X423501D01*
X424001Y91000D01*
X427000Y90500D02*
X425000D01*
X427000Y92500D01*
Y93000D01*
X426500Y93499D01*
X425500D01*
X425000Y93000D01*
X427999D02*
X428499Y93499D01*
X429499D01*
X429999Y93000D01*
Y92500D01*
X429499Y92000D01*
X428999D01*
X429499D01*
X429999Y91500D01*
Y91000D01*
X429499Y90500D01*
X428499D01*
X427999Y91000D01*
X433501Y93000D02*
X433001Y93499D01*
X432001D01*
X431501Y93000D01*
Y91000D01*
X432001Y90500D01*
X433001D01*
X433501Y91000D01*
X436500Y90500D02*
X434500D01*
X436500Y92500D01*
Y93000D01*
X436000Y93499D01*
X435000D01*
X434500Y93000D01*
X439499Y90500D02*
X437499D01*
X439499Y92500D01*
Y93000D01*
X438999Y93499D01*
X437999D01*
X437499Y93000D01*
X443501D02*
X443001Y93499D01*
X442001D01*
X441501Y93000D01*
Y91000D01*
X442001Y90500D01*
X443001D01*
X443501Y91000D01*
X446499Y90500D02*
X444500D01*
X446499Y92500D01*
Y93000D01*
X446000Y93499D01*
X445000D01*
X444500Y93000D01*
X447499Y90500D02*
X448499D01*
X447999D01*
Y93499D01*
X447499Y93000D01*
X119501Y250000D02*
X119001Y250500D01*
X118001D01*
X117501Y250000D01*
Y248000D01*
X118001Y247500D01*
X119001D01*
X119501Y248000D01*
X122500Y247500D02*
X120500D01*
X122500Y249500D01*
Y250000D01*
X122000Y250500D01*
X121000D01*
X120500Y250000D01*
X123499D02*
X123999Y250500D01*
X124999D01*
X125499Y250000D01*
Y248000D01*
X124999Y247500D01*
X123999D01*
X123499Y248000D01*
Y250000D01*
X134751Y249500D02*
X134251Y249999D01*
X133251D01*
X132751Y249500D01*
Y247500D01*
X133251Y247001D01*
X134251D01*
X134751Y247500D01*
X135750Y247001D02*
X136750D01*
X136250D01*
Y249999D01*
X135750Y249500D01*
X138249Y247500D02*
X138749Y247001D01*
X139749D01*
X140249Y247500D01*
Y249500D01*
X139749Y249999D01*
X138749D01*
X138249Y249500D01*
Y249000D01*
X138749Y248500D01*
X140249D01*
X107751Y271500D02*
X107251Y272000D01*
X106251D01*
X105751Y271500D01*
Y269500D01*
X106251Y269001D01*
X107251D01*
X107751Y269500D01*
X108750Y269001D02*
X109750D01*
X109250D01*
Y272000D01*
X108750Y271500D01*
X111249D02*
X111749Y272000D01*
X112749D01*
X113249Y271500D01*
Y271000D01*
X112749Y270500D01*
X113249Y270000D01*
Y269500D01*
X112749Y269001D01*
X111749D01*
X111249Y269500D01*
Y270000D01*
X111749Y270500D01*
X111249Y271000D01*
Y271500D01*
X111749Y270500D02*
X112749D01*
X86251Y273000D02*
X85751Y273499D01*
X84751D01*
X84251Y273000D01*
Y271000D01*
X84751Y270500D01*
X85751D01*
X86251Y271000D01*
X87250Y270500D02*
X88250D01*
X87750D01*
Y273499D01*
X87250Y273000D01*
X89749Y273499D02*
X91749D01*
Y273000D01*
X89749Y271000D01*
Y270500D01*
X96251Y273000D02*
X95751Y273499D01*
X94751D01*
X94251Y273000D01*
Y271000D01*
X94751Y270500D01*
X95751D01*
X96251Y271000D01*
X97250Y270500D02*
X98250D01*
X97750D01*
Y273499D01*
X97250Y273000D01*
X101749Y273499D02*
X100749Y273000D01*
X99749Y272000D01*
Y271000D01*
X100249Y270500D01*
X101249D01*
X101749Y271000D01*
Y271500D01*
X101249Y272000D01*
X99749D01*
X76751Y319500D02*
X76251Y320000D01*
X75251D01*
X74751Y319500D01*
Y317500D01*
X75251Y317001D01*
X76251D01*
X76751Y317500D01*
X77750Y317001D02*
X78750D01*
X78250D01*
Y320000D01*
X77750Y319500D01*
X82249Y320000D02*
X80249D01*
Y318500D01*
X81249Y319000D01*
X81749D01*
X82249Y318500D01*
Y317500D01*
X81749Y317001D01*
X80749D01*
X80249Y317500D01*
X196251Y323000D02*
X195751Y323499D01*
X194751D01*
X194251Y323000D01*
Y321000D01*
X194751Y320500D01*
X195751D01*
X196251Y321000D01*
X197250Y320500D02*
X198250D01*
X197750D01*
Y323499D01*
X197250Y323000D01*
X201249Y320500D02*
Y323499D01*
X199749Y322000D01*
X201749D01*
X397251Y97000D02*
X396751Y97500D01*
X395751D01*
X395251Y97000D01*
Y95000D01*
X395751Y94500D01*
X396751D01*
X397251Y95000D01*
X398250Y94500D02*
X399250D01*
X398750D01*
Y97500D01*
X398250Y97000D01*
X400749D02*
X401249Y97500D01*
X402249D01*
X402749Y97000D01*
Y96500D01*
X402249Y96000D01*
X401749D01*
X402249D01*
X402749Y95500D01*
Y95000D01*
X402249Y94500D01*
X401249D01*
X400749Y95000D01*
X382751Y87500D02*
X382251Y87999D01*
X381251D01*
X380751Y87500D01*
Y85500D01*
X381251Y85000D01*
X382251D01*
X382751Y85500D01*
X383750Y85000D02*
X384750D01*
X384250D01*
Y87999D01*
X383750Y87500D01*
X388249Y85000D02*
X386249D01*
X388249Y87000D01*
Y87500D01*
X387749Y87999D01*
X386749D01*
X386249Y87500D01*
X228750Y187500D02*
X228251Y187999D01*
X227251D01*
X226751Y187500D01*
Y185500D01*
X227251Y185001D01*
X228251D01*
X228750Y185500D01*
X229750Y185001D02*
X230750D01*
X230250D01*
Y187999D01*
X229750Y187500D01*
X232249Y185001D02*
X233249D01*
X232749D01*
Y187999D01*
X232249Y187500D01*
X158751Y144500D02*
X158251Y145000D01*
X157251D01*
X156751Y144500D01*
Y142500D01*
X157251Y142000D01*
X158251D01*
X158751Y142500D01*
X159750Y142000D02*
X160750D01*
X160250D01*
Y145000D01*
X159750Y144500D01*
X162249D02*
X162749Y145000D01*
X163749D01*
X164249Y144500D01*
Y142500D01*
X163749Y142000D01*
X162749D01*
X162249Y142500D01*
Y144500D01*
X169500Y181000D02*
X169000Y181500D01*
X168001D01*
X167501Y181000D01*
Y179000D01*
X168001Y178500D01*
X169000D01*
X169500Y179000D01*
X170500D02*
X171000Y178500D01*
X171999D01*
X172499Y179000D01*
Y181000D01*
X171999Y181500D01*
X171000D01*
X170500Y181000D01*
Y180500D01*
X171000Y180000D01*
X172499D01*
X162500Y159500D02*
X162000Y160000D01*
X161001D01*
X160501Y159500D01*
Y157500D01*
X161001Y157001D01*
X162000D01*
X162500Y157500D01*
X163500Y159500D02*
X164000Y160000D01*
X164999D01*
X165499Y159500D01*
Y159000D01*
X164999Y158500D01*
X165499Y158000D01*
Y157500D01*
X164999Y157001D01*
X164000D01*
X163500Y157500D01*
Y158000D01*
X164000Y158500D01*
X163500Y159000D01*
Y159500D01*
X164000Y158500D02*
X164999D01*
X157500Y180500D02*
X157000Y181000D01*
X156001D01*
X155501Y180500D01*
Y178500D01*
X156001Y178000D01*
X157000D01*
X157500Y178500D01*
X158500Y181000D02*
X160499D01*
Y180500D01*
X158500Y178500D01*
Y178000D01*
X109000Y123000D02*
X108501Y122500D01*
Y121501D01*
X109000Y121001D01*
X111000D01*
X111500Y121501D01*
Y122500D01*
X111000Y123000D01*
X108501Y125999D02*
X109000Y124999D01*
X110000Y124000D01*
X111000D01*
X111500Y124500D01*
Y125499D01*
X111000Y125999D01*
X110500D01*
X110000Y125499D01*
Y124000D01*
X330500Y75000D02*
X330000Y75499D01*
X329001D01*
X328501Y75000D01*
Y73000D01*
X329001Y72500D01*
X330000D01*
X330500Y73000D01*
X333499Y75499D02*
X331500D01*
Y74000D01*
X332500Y74500D01*
X332999D01*
X333499Y74000D01*
Y73000D01*
X332999Y72500D01*
X332000D01*
X331500Y73000D01*
X312500Y75000D02*
X312000Y75499D01*
X311001D01*
X310501Y75000D01*
Y73000D01*
X311001Y72500D01*
X312000D01*
X312500Y73000D01*
X314999Y72500D02*
Y75499D01*
X313500Y74000D01*
X315499D01*
X322000Y75000D02*
X321500Y75499D01*
X320501D01*
X320001Y75000D01*
Y73000D01*
X320501Y72500D01*
X321500D01*
X322000Y73000D01*
X323000Y75000D02*
X323500Y75499D01*
X324499D01*
X324999Y75000D01*
Y74500D01*
X324499Y74000D01*
X324000D01*
X324499D01*
X324999Y73500D01*
Y73000D01*
X324499Y72500D01*
X323500D01*
X323000Y73000D01*
X256000Y64500D02*
X255500Y65000D01*
X254501D01*
X254001Y64500D01*
Y62500D01*
X254501Y62001D01*
X255500D01*
X256000Y62500D01*
X258999Y62001D02*
X257000D01*
X258999Y64000D01*
Y64500D01*
X258499Y65000D01*
X257500D01*
X257000Y64500D01*
X265500Y65830D02*
X265000Y66330D01*
X264001D01*
X263501Y65830D01*
Y63831D01*
X264001Y63331D01*
X265000D01*
X265500Y63831D01*
X266500Y63331D02*
X267499D01*
X267000D01*
Y66330D01*
X266500Y65830D01*
M02*
