G04*
G04 #@! TF.GenerationSoftware,Altium Limited,Altium Designer,22.1.2 (22)*
G04*
G04 Layer_Color=8388736*
%FSLAX25Y25*%
%MOIN*%
G70*
G04*
G04 #@! TF.SameCoordinates,44F9B7A4-E995-4014-B581-63E438F0E3DA*
G04*
G04*
G04 #@! TF.FilePolarity,Negative*
G04*
G01*
G75*
%ADD11C,0.01000*%
%ADD14C,0.00394*%
%ADD15C,0.00197*%
%ADD28R,0.09264X0.02449*%
%ADD49R,0.04540X0.02178*%
%ADD50R,0.02178X0.04540*%
%ADD51R,0.09068X0.09068*%
%ADD52R,0.08871X0.03398*%
%ADD53R,0.10288X0.13792*%
%ADD54R,0.04343X0.06115*%
%ADD55R,0.06115X0.04343*%
%ADD56R,0.06312X0.04934*%
%ADD57R,0.19304X0.13398*%
%ADD58R,0.07887X0.06509*%
%ADD59R,0.13595X0.10642*%
%ADD60R,0.09055X0.12205*%
%ADD61R,0.20485X0.20485*%
%ADD62R,0.03950X0.04343*%
%ADD63R,0.06509X0.07887*%
%ADD64R,0.06706X0.02572*%
%ADD65R,0.09698X0.11824*%
%ADD66R,0.04934X0.06312*%
%ADD67R,0.11824X0.09698*%
%ADD68R,0.07690X0.06509*%
%ADD69R,0.09461X0.13595*%
%ADD70R,0.12217X0.22060*%
%ADD71C,0.03800*%
%ADD72R,0.06509X0.07690*%
%ADD73R,0.22060X0.12217*%
%ADD74R,0.06509X0.03162*%
%ADD75R,0.04540X0.04343*%
%ADD76R,0.20485X0.20485*%
%ADD77R,0.10642X0.13595*%
%ADD78R,0.13595X0.09461*%
%ADD79R,0.08871X0.07099*%
%ADD80R,0.20879X0.14580*%
%ADD81C,0.15600*%
%ADD82C,0.07800*%
%ADD83C,0.17729*%
%ADD84C,0.07880*%
%ADD85C,0.08800*%
%ADD86C,0.07887*%
%ADD87C,0.04300*%
%ADD88C,0.05800*%
D11*
Y400000D02*
X501000D01*
Y143000D02*
Y400000D01*
Y143000D02*
X600000D01*
Y0D02*
Y143000D01*
X0Y0D02*
X600000D01*
X0D02*
Y400000D01*
D14*
X145031Y259000D02*
X148969D01*
X147000Y257031D02*
Y260968D01*
X533000Y118532D02*
Y122468D01*
X531032Y120500D02*
X534969D01*
X20531Y123500D02*
X24468D01*
X22500Y121531D02*
Y125469D01*
X433032Y17000D02*
X436969D01*
X435000Y15032D02*
Y18969D01*
D15*
X133614Y239512D02*
Y278390D01*
X160386Y239512D02*
Y278390D01*
X133614D02*
X160386D01*
X133614Y239512D02*
X160386D01*
X519614Y101012D02*
X546386D01*
X519614Y139890D02*
X546386D01*
Y101012D02*
Y139890D01*
X519614Y101012D02*
Y139890D01*
X41988Y110114D02*
Y136886D01*
X3110Y110114D02*
Y136886D01*
X41988D01*
X3110Y110114D02*
X41988D01*
X454488Y3614D02*
Y30386D01*
X415610Y3614D02*
Y30386D01*
X454488D01*
X415610Y3614D02*
X454488D01*
D28*
X194250Y244500D02*
D03*
Y249500D02*
D03*
Y254500D02*
D03*
Y259500D02*
D03*
X213750D02*
D03*
Y254500D02*
D03*
Y249500D02*
D03*
Y244500D02*
D03*
D49*
X102157Y253823D02*
D03*
Y256382D02*
D03*
Y258941D02*
D03*
Y261500D02*
D03*
X87000D02*
D03*
Y258941D02*
D03*
Y256382D02*
D03*
Y253823D02*
D03*
D50*
X98417Y265240D02*
D03*
X95858D02*
D03*
X93299D02*
D03*
X90740D02*
D03*
Y250083D02*
D03*
X93299D02*
D03*
X95858D02*
D03*
X98417D02*
D03*
D51*
X94579Y257661D02*
D03*
D52*
X522933Y79000D02*
D03*
Y74000D02*
D03*
Y69000D02*
D03*
Y64000D02*
D03*
X542067Y79000D02*
D03*
Y74000D02*
D03*
Y69000D02*
D03*
Y64000D02*
D03*
X481067Y62000D02*
D03*
Y67000D02*
D03*
Y72000D02*
D03*
Y77000D02*
D03*
X461933Y62000D02*
D03*
Y67000D02*
D03*
Y72000D02*
D03*
Y77000D02*
D03*
X67067Y156000D02*
D03*
Y161000D02*
D03*
Y166000D02*
D03*
Y171000D02*
D03*
X47933Y156000D02*
D03*
Y161000D02*
D03*
Y166000D02*
D03*
Y171000D02*
D03*
D53*
X532500Y71500D02*
D03*
X471500Y69500D02*
D03*
X57500Y163500D02*
D03*
D54*
X96500Y285000D02*
D03*
X104374D02*
D03*
X96563Y273000D02*
D03*
X104437D02*
D03*
X194626Y270500D02*
D03*
X202500D02*
D03*
X210563D02*
D03*
X218437D02*
D03*
X210563Y383000D02*
D03*
X218437D02*
D03*
X210563Y375000D02*
D03*
X218437D02*
D03*
X284437Y64000D02*
D03*
X276563D02*
D03*
X170563Y389000D02*
D03*
X178437D02*
D03*
X360374Y86000D02*
D03*
X352500D02*
D03*
X338063D02*
D03*
X345937D02*
D03*
X322626Y103000D02*
D03*
X330500D02*
D03*
X330437Y111000D02*
D03*
X322563D02*
D03*
X330500Y127000D02*
D03*
X322626D02*
D03*
X322563Y135000D02*
D03*
X330437D02*
D03*
X378437Y101500D02*
D03*
X370563D02*
D03*
X330500Y119000D02*
D03*
X322626D02*
D03*
X201626Y360500D02*
D03*
X209500D02*
D03*
D55*
X121500Y290437D02*
D03*
Y282563D02*
D03*
X112500Y280937D02*
D03*
Y273063D02*
D03*
X83500Y349063D02*
D03*
Y356937D02*
D03*
X91500D02*
D03*
Y349063D02*
D03*
X66500D02*
D03*
Y356937D02*
D03*
X75000Y349063D02*
D03*
Y356937D02*
D03*
X145000Y377126D02*
D03*
Y385000D02*
D03*
X137000Y384937D02*
D03*
Y377063D02*
D03*
X104000Y343063D02*
D03*
Y350937D02*
D03*
X147000Y348937D02*
D03*
Y341063D02*
D03*
X155500Y349063D02*
D03*
Y356937D02*
D03*
X139000Y339437D02*
D03*
Y331563D02*
D03*
X418500Y49937D02*
D03*
Y42063D02*
D03*
X392500Y71500D02*
D03*
Y63626D02*
D03*
X394000Y83063D02*
D03*
Y90937D02*
D03*
X407500Y99500D02*
D03*
Y107374D02*
D03*
X399500D02*
D03*
Y99500D02*
D03*
X391500Y107437D02*
D03*
Y99563D02*
D03*
X338500Y118000D02*
D03*
Y125874D02*
D03*
X354500Y118000D02*
D03*
Y125874D02*
D03*
X362500Y118000D02*
D03*
Y125874D02*
D03*
X371000Y117500D02*
D03*
Y109626D02*
D03*
X346500Y118000D02*
D03*
Y125874D02*
D03*
X379500Y117437D02*
D03*
Y109563D02*
D03*
X452500Y76937D02*
D03*
Y69063D02*
D03*
X513500Y79437D02*
D03*
Y71563D02*
D03*
X190000Y149563D02*
D03*
Y157437D02*
D03*
X337000Y186563D02*
D03*
Y194437D02*
D03*
X327000Y186563D02*
D03*
Y194437D02*
D03*
X347000Y186563D02*
D03*
Y194437D02*
D03*
X201000Y149626D02*
D03*
Y157500D02*
D03*
X220500Y149563D02*
D03*
Y157437D02*
D03*
X211500Y149563D02*
D03*
Y157437D02*
D03*
X376500Y138937D02*
D03*
Y131063D02*
D03*
X385500Y131563D02*
D03*
Y139437D02*
D03*
X37500Y164563D02*
D03*
Y172437D02*
D03*
D56*
X111500Y266240D02*
D03*
Y258760D02*
D03*
X173000Y252760D02*
D03*
Y260240D02*
D03*
X164500Y252760D02*
D03*
Y260240D02*
D03*
X402000Y90240D02*
D03*
Y82760D02*
D03*
X410000Y90740D02*
D03*
Y83260D02*
D03*
X386000Y90740D02*
D03*
Y83260D02*
D03*
X378000Y90740D02*
D03*
Y83260D02*
D03*
X427000Y76740D02*
D03*
Y69260D02*
D03*
X435500Y76740D02*
D03*
Y69260D02*
D03*
X444000Y76740D02*
D03*
Y69260D02*
D03*
X491000Y68260D02*
D03*
Y75740D02*
D03*
X516000Y86520D02*
D03*
Y94000D02*
D03*
X533000Y86520D02*
D03*
Y94000D02*
D03*
X524500Y86760D02*
D03*
Y94240D02*
D03*
X542500Y86520D02*
D03*
Y94000D02*
D03*
X224500Y96760D02*
D03*
Y104240D02*
D03*
X12000Y164760D02*
D03*
Y172240D02*
D03*
X20500Y164760D02*
D03*
Y172240D02*
D03*
X29000Y164760D02*
D03*
Y172240D02*
D03*
X76500Y171740D02*
D03*
Y164260D02*
D03*
X370000Y81020D02*
D03*
Y88500D02*
D03*
D57*
X178000Y199571D02*
D03*
Y233429D02*
D03*
D58*
X182000Y261012D02*
D03*
Y249988D02*
D03*
X52500Y7988D02*
D03*
Y19012D02*
D03*
X502000Y61488D02*
D03*
Y72512D02*
D03*
X151000Y208988D02*
D03*
Y220012D02*
D03*
X141000Y209000D02*
D03*
Y220024D02*
D03*
X589000Y66488D02*
D03*
Y77512D02*
D03*
D59*
X147000Y245988D02*
D03*
Y272012D02*
D03*
X533000Y133512D02*
D03*
Y107488D02*
D03*
D60*
X204000Y252000D02*
D03*
D61*
X111500Y183000D02*
D03*
X145358D02*
D03*
X111571Y134000D02*
D03*
X145429D02*
D03*
D62*
X160740Y385437D02*
D03*
X153260D02*
D03*
X157000Y377563D02*
D03*
D63*
X205488Y233500D02*
D03*
X216512D02*
D03*
D64*
X193917Y352925D02*
D03*
Y355484D02*
D03*
Y358043D02*
D03*
Y360602D02*
D03*
Y363161D02*
D03*
Y365721D02*
D03*
Y368280D02*
D03*
Y370839D02*
D03*
Y373398D02*
D03*
Y375957D02*
D03*
Y378516D02*
D03*
Y381075D02*
D03*
X171083Y352925D02*
D03*
Y355484D02*
D03*
Y358043D02*
D03*
Y360602D02*
D03*
Y363161D02*
D03*
Y365721D02*
D03*
Y368280D02*
D03*
Y370839D02*
D03*
Y373398D02*
D03*
Y375957D02*
D03*
Y378516D02*
D03*
Y381075D02*
D03*
X361917Y93043D02*
D03*
Y95602D02*
D03*
Y98161D02*
D03*
Y100721D02*
D03*
Y103279D02*
D03*
Y105839D02*
D03*
Y108398D02*
D03*
Y110957D02*
D03*
X339083Y93043D02*
D03*
Y95602D02*
D03*
Y98161D02*
D03*
Y100721D02*
D03*
Y103279D02*
D03*
Y105839D02*
D03*
Y108398D02*
D03*
Y110957D02*
D03*
D65*
X235500Y84299D02*
D03*
Y71701D02*
D03*
X254000Y84098D02*
D03*
Y71500D02*
D03*
X399500Y130299D02*
D03*
Y117701D02*
D03*
D66*
X168240Y100000D02*
D03*
X160760D02*
D03*
X168000Y91500D02*
D03*
X160520D02*
D03*
X167740Y72000D02*
D03*
X160260D02*
D03*
X167740Y82000D02*
D03*
X160260D02*
D03*
X330240Y91500D02*
D03*
X322760D02*
D03*
X330240Y83500D02*
D03*
X322760D02*
D03*
D67*
X415799Y70000D02*
D03*
X403201D02*
D03*
D68*
X83000Y137488D02*
D03*
Y148512D02*
D03*
X178000Y158512D02*
D03*
Y147488D02*
D03*
X131000Y220012D02*
D03*
Y208988D02*
D03*
X165500Y158512D02*
D03*
Y147488D02*
D03*
X93000Y137476D02*
D03*
Y148500D02*
D03*
D69*
X33000Y148000D02*
D03*
X13709D02*
D03*
X448146Y38500D02*
D03*
X428854D02*
D03*
X448146Y54500D02*
D03*
X428854D02*
D03*
X576146Y64500D02*
D03*
X556854D02*
D03*
X576146Y79500D02*
D03*
X556854D02*
D03*
D70*
X49488Y83500D02*
D03*
X10512D02*
D03*
D71*
X146000Y105500D02*
D03*
X134000Y63049D02*
D03*
X61500Y11000D02*
D03*
X102500Y116000D02*
D03*
D72*
X139988Y70000D02*
D03*
X151012D02*
D03*
D73*
X481000Y10012D02*
D03*
Y48988D02*
D03*
X572500Y95512D02*
D03*
Y134488D02*
D03*
D74*
X176216Y103000D02*
D03*
Y98000D02*
D03*
Y93000D02*
D03*
Y88000D02*
D03*
Y83000D02*
D03*
Y78000D02*
D03*
Y73000D02*
D03*
Y68000D02*
D03*
X215784Y103000D02*
D03*
Y98000D02*
D03*
Y93000D02*
D03*
Y88000D02*
D03*
Y83000D02*
D03*
Y78000D02*
D03*
Y73000D02*
D03*
Y68000D02*
D03*
D75*
X177500Y181051D02*
D03*
Y174949D02*
D03*
X190000Y181051D02*
D03*
Y174949D02*
D03*
X201000Y181051D02*
D03*
Y174949D02*
D03*
X165500Y181051D02*
D03*
Y174949D02*
D03*
D76*
X488000Y94071D02*
D03*
Y127929D02*
D03*
X438500Y94000D02*
D03*
Y127858D02*
D03*
D77*
X9488Y123500D02*
D03*
X35512D02*
D03*
X421988Y17000D02*
D03*
X448012D02*
D03*
D78*
X53500Y137146D02*
D03*
Y117854D02*
D03*
D79*
X146000Y99276D02*
D03*
Y83724D02*
D03*
D80*
X117000Y70382D02*
D03*
Y100500D02*
D03*
D81*
X315000Y22500D02*
D03*
X21000Y201600D02*
D03*
Y240500D02*
D03*
Y273000D02*
D03*
Y305500D02*
D03*
Y343500D02*
D03*
Y381500D02*
D03*
X575600Y21500D02*
D03*
X24500D02*
D03*
X529000D02*
D03*
X244500Y22500D02*
D03*
X136100Y22000D02*
D03*
X117600D02*
D03*
X204100D02*
D03*
X185600D02*
D03*
X276500Y22500D02*
D03*
X398000D02*
D03*
X359500D02*
D03*
D82*
X309100Y51300D02*
D03*
X320900D02*
D03*
X309100Y39500D02*
D03*
X320900D02*
D03*
X49800Y207500D02*
D03*
Y195700D02*
D03*
X38000Y207500D02*
D03*
Y195700D02*
D03*
Y240500D02*
D03*
X49800D02*
D03*
X38000Y273000D02*
D03*
X49800D02*
D03*
X38000Y305500D02*
D03*
X49800D02*
D03*
Y349400D02*
D03*
Y337600D02*
D03*
X38000Y349400D02*
D03*
Y337600D02*
D03*
Y381500D02*
D03*
X49800D02*
D03*
X569700Y50300D02*
D03*
X581500D02*
D03*
X569700Y38500D02*
D03*
X581500D02*
D03*
X30400D02*
D03*
X18600D02*
D03*
X30400Y50300D02*
D03*
X18600D02*
D03*
X534900Y38500D02*
D03*
X523100D02*
D03*
X534900Y50300D02*
D03*
X523100D02*
D03*
X244500Y51300D02*
D03*
Y39500D02*
D03*
X132700Y50800D02*
D03*
X144500D02*
D03*
Y39000D02*
D03*
X132700D02*
D03*
X109100D02*
D03*
X120900D02*
D03*
Y50800D02*
D03*
X109100D02*
D03*
X200700D02*
D03*
X212500D02*
D03*
Y39000D02*
D03*
X200700D02*
D03*
X177100D02*
D03*
X188900D02*
D03*
Y50800D02*
D03*
X177100D02*
D03*
X276500Y51300D02*
D03*
Y39500D02*
D03*
X398000Y51300D02*
D03*
Y39500D02*
D03*
X365400D02*
D03*
X353600D02*
D03*
X365400Y51300D02*
D03*
X353600D02*
D03*
D83*
X486173Y360913D02*
D03*
X257827D02*
D03*
Y168000D02*
D03*
X486173D02*
D03*
D84*
X277000Y163000D02*
D03*
X287000D02*
D03*
X297000D02*
D03*
X307000D02*
D03*
X317000D02*
D03*
X327000D02*
D03*
X337000D02*
D03*
X347000D02*
D03*
X357000D02*
D03*
X397000D02*
D03*
X407000D02*
D03*
X417000D02*
D03*
X427000D02*
D03*
X437000D02*
D03*
X447000D02*
D03*
X457000D02*
D03*
X467000D02*
D03*
X277000Y173000D02*
D03*
X287000D02*
D03*
X297000D02*
D03*
X307000D02*
D03*
X317000D02*
D03*
X327000D02*
D03*
X337000D02*
D03*
X347000D02*
D03*
X357000D02*
D03*
X367000D02*
D03*
X397000D02*
D03*
X407000D02*
D03*
X417000D02*
D03*
X427000D02*
D03*
X437000D02*
D03*
X447000D02*
D03*
X457000D02*
D03*
X467000D02*
D03*
X377000D02*
D03*
Y163000D02*
D03*
X387000Y173000D02*
D03*
Y163000D02*
D03*
X367000D02*
D03*
D85*
X89500Y119500D02*
D03*
Y80500D02*
D03*
X76000D02*
D03*
Y119500D02*
D03*
X85000Y15500D02*
D03*
Y54500D02*
D03*
X71500D02*
D03*
Y15500D02*
D03*
D86*
X202000Y121500D02*
D03*
Y131500D02*
D03*
X190000Y121500D02*
D03*
Y131500D02*
D03*
X226000D02*
D03*
Y121500D02*
D03*
X178000D02*
D03*
Y131500D02*
D03*
X214000D02*
D03*
Y121500D02*
D03*
X166000D02*
D03*
Y131500D02*
D03*
D87*
X490500Y61500D02*
D03*
X130500Y302000D02*
D03*
D88*
X112000Y248500D02*
D03*
X86500Y184500D02*
D03*
X80000Y187500D02*
D03*
X86500Y191000D02*
D03*
X97000Y242500D02*
D03*
X76500Y236500D02*
D03*
X87500Y243000D02*
D03*
X187000Y266500D02*
D03*
X188500Y274000D02*
D03*
X129000Y195500D02*
D03*
X120000Y251500D02*
D03*
X122500Y215500D02*
D03*
Y223000D02*
D03*
X99500Y215500D02*
D03*
X107500D02*
D03*
X115000D02*
D03*
Y223000D02*
D03*
X107500D02*
D03*
X99500D02*
D03*
X137000Y232500D02*
D03*
X228000Y255000D02*
D03*
X117000Y165000D02*
D03*
X193000Y300500D02*
D03*
X23500Y147500D02*
D03*
X24000Y158000D02*
D03*
X284500Y74000D02*
D03*
X322880Y74120D02*
D03*
X143500Y393500D02*
D03*
X163000Y393000D02*
D03*
X153500D02*
D03*
X91500Y363500D02*
D03*
X228000Y371000D02*
D03*
X123000Y389000D02*
D03*
X181298Y340299D02*
D03*
X174000Y331500D02*
D03*
X159000Y338500D02*
D03*
X130000Y334000D02*
D03*
X115500Y313000D02*
D03*
X88000Y325000D02*
D03*
X205500Y352500D02*
D03*
X414500Y103000D02*
D03*
X238500Y99500D02*
D03*
X87500Y276000D02*
D03*
X78500Y268000D02*
D03*
X229500Y173500D02*
D03*
X220500Y168500D02*
D03*
X264000Y145500D02*
D03*
X298500Y337000D02*
D03*
Y346500D02*
D03*
X198500Y393500D02*
D03*
X461500Y152000D02*
D03*
X449500Y150500D02*
D03*
X188000Y389500D02*
D03*
X211000Y169000D02*
D03*
X110000Y297000D02*
D03*
X313000Y140500D02*
D03*
X307500Y146000D02*
D03*
X75500Y253500D02*
D03*
Y136000D02*
D03*
X81000Y247000D02*
D03*
X103000Y149500D02*
D03*
X114500Y352000D02*
D03*
X163500Y349500D02*
D03*
X69500Y364000D02*
D03*
X203000Y383000D02*
D03*
X315500Y97000D02*
D03*
X313000Y127000D02*
D03*
X298372Y135000D02*
D03*
X353455Y100125D02*
D03*
X353500Y108000D02*
D03*
X342500Y78500D02*
D03*
X75500Y152000D02*
D03*
X84500Y159500D02*
D03*
X72500Y144500D02*
D03*
X66000Y148000D02*
D03*
X65500Y139500D02*
D03*
X22500Y123928D02*
D03*
X39500Y158000D02*
D03*
X466000Y86000D02*
D03*
X438500Y54500D02*
D03*
X513500Y64500D02*
D03*
X554500Y96500D02*
D03*
X516000Y112000D02*
D03*
Y123500D02*
D03*
M02*
