G04*
G04 #@! TF.GenerationSoftware,Altium Limited,Altium Designer,23.1.1 (15)*
G04*
G04 Layer_Color=8421504*
%FSLAX25Y25*%
%MOIN*%
G70*
G04*
G04 #@! TF.SameCoordinates,6B6AD537-89E2-49BE-BCD0-2355F65E075C*
G04*
G04*
G04 #@! TF.FilePolarity,Positive*
G04*
G01*
G75*
%ADD14R,0.05258X0.08407*%
%ADD15R,0.03543X0.05315*%
%ADD16R,0.05512X0.04134*%
%ADD17R,0.11417X0.21260*%
%ADD18R,0.06890X0.05709*%
%ADD19R,0.01772X0.05906*%
%ADD20R,0.18504X0.12598*%
%ADD21R,0.05315X0.03543*%
%ADD22R,0.03150X0.03543*%
%ADD23R,0.04134X0.05512*%
%ADD24R,0.08898X0.11024*%
%ADD25R,0.03543X0.03740*%
%ADD26R,0.02362X0.05709*%
%ADD27R,0.05709X0.06890*%
%ADD28R,0.11024X0.08898*%
G04:AMPARAMS|DCode=29|XSize=59.26mil|YSize=17.91mil|CornerRadius=8.96mil|HoleSize=0mil|Usage=FLASHONLY|Rotation=0.000|XOffset=0mil|YOffset=0mil|HoleType=Round|Shape=RoundedRectangle|*
%AMROUNDEDRECTD29*
21,1,0.05926,0.00000,0,0,0.0*
21,1,0.04135,0.01791,0,0,0.0*
1,1,0.01791,0.02068,0.00000*
1,1,0.01791,-0.02068,0.00000*
1,1,0.01791,-0.02068,0.00000*
1,1,0.01791,0.02068,0.00000*
%
%ADD29ROUNDEDRECTD29*%
%ADD30R,0.05926X0.01791*%
%ADD31R,0.19685X0.19685*%
%ADD32R,0.09843X0.16339*%
%ADD33R,0.07087X0.05709*%
%ADD34R,0.09843X0.12795*%
%ADD35R,0.09264X0.02449*%
%ADD36R,0.20079X0.13780*%
G04:AMPARAMS|DCode=37|XSize=59.26mil|YSize=17.91mil|CornerRadius=8.96mil|HoleSize=0mil|Usage=FLASHONLY|Rotation=270.000|XOffset=0mil|YOffset=0mil|HoleType=Round|Shape=RoundedRectangle|*
%AMROUNDEDRECTD37*
21,1,0.05926,0.00000,0,0,270.0*
21,1,0.04135,0.01791,0,0,270.0*
1,1,0.01791,0.00000,-0.02068*
1,1,0.01791,0.00000,0.02068*
1,1,0.01791,0.00000,0.02068*
1,1,0.01791,0.00000,-0.02068*
%
%ADD37ROUNDEDRECTD37*%
%ADD38R,0.01791X0.05926*%
%ADD39C,0.03000*%
%ADD40R,0.08071X0.06299*%
%ADD41R,0.19685X0.19685*%
%ADD42R,0.09055X0.12598*%
%ADD43R,0.08071X0.02598*%
%ADD44R,0.12795X0.08661*%
%ADD45R,0.21260X0.11417*%
%ADD46R,0.12795X0.09843*%
%ADD47R,0.12598X0.09055*%
%ADD48R,0.02598X0.08071*%
%ADD49R,0.05709X0.07087*%
%ADD50R,0.08661X0.12795*%
D14*
X435468Y71000D02*
D03*
D15*
X543563Y148000D02*
D03*
X551437D02*
D03*
X543437Y139500D02*
D03*
X535563D02*
D03*
Y131000D02*
D03*
X543437D02*
D03*
X505094Y85500D02*
D03*
X512968D02*
D03*
X548563Y78000D02*
D03*
X556437D02*
D03*
X543063Y70500D02*
D03*
X550937D02*
D03*
X550437Y85500D02*
D03*
X542563D02*
D03*
X553000Y93000D02*
D03*
X545126D02*
D03*
X543563Y155500D02*
D03*
X551437D02*
D03*
X552937Y100500D02*
D03*
X545063D02*
D03*
X40595Y17469D02*
D03*
X48469D02*
D03*
X48500Y25500D02*
D03*
X40626D02*
D03*
X559563Y6000D02*
D03*
X567437D02*
D03*
X581063Y104000D02*
D03*
X588937D02*
D03*
X486437Y144000D02*
D03*
X478563D02*
D03*
Y151500D02*
D03*
X486437D02*
D03*
X478563Y159000D02*
D03*
X486437D02*
D03*
X465063D02*
D03*
X472937D02*
D03*
X467437Y147000D02*
D03*
X459563D02*
D03*
X402874Y113000D02*
D03*
X395000D02*
D03*
X415937Y67500D02*
D03*
X408063D02*
D03*
Y59500D02*
D03*
X415937D02*
D03*
X281437Y259500D02*
D03*
X273563D02*
D03*
X281437Y100000D02*
D03*
X273563D02*
D03*
X553437Y108500D02*
D03*
X545563D02*
D03*
D16*
X473000Y63772D02*
D03*
Y71252D02*
D03*
X465500Y63772D02*
D03*
Y71252D02*
D03*
X505532Y114740D02*
D03*
Y107260D02*
D03*
X558500Y155240D02*
D03*
Y147760D02*
D03*
X566000Y155240D02*
D03*
Y147760D02*
D03*
X572500Y121260D02*
D03*
Y128740D02*
D03*
X121500Y289228D02*
D03*
Y296709D02*
D03*
X198500Y312740D02*
D03*
Y305260D02*
D03*
X206500Y312740D02*
D03*
Y305260D02*
D03*
X214500Y312740D02*
D03*
Y305260D02*
D03*
X121000Y221260D02*
D03*
Y228740D02*
D03*
X198031Y245240D02*
D03*
Y237760D02*
D03*
X206031Y245240D02*
D03*
Y237760D02*
D03*
X214032Y245240D02*
D03*
Y237760D02*
D03*
X123000Y356260D02*
D03*
Y363740D02*
D03*
X170780Y379409D02*
D03*
Y371929D02*
D03*
X178279Y379240D02*
D03*
Y371760D02*
D03*
X185780Y379409D02*
D03*
Y371929D02*
D03*
X212500Y109740D02*
D03*
Y102260D02*
D03*
X205000Y109740D02*
D03*
Y102260D02*
D03*
X197500Y109740D02*
D03*
Y102260D02*
D03*
X121000Y85260D02*
D03*
Y92740D02*
D03*
X213000Y177772D02*
D03*
Y170291D02*
D03*
X198000Y177772D02*
D03*
Y170291D02*
D03*
X205500Y177772D02*
D03*
Y170291D02*
D03*
X121500Y153760D02*
D03*
Y161240D02*
D03*
D17*
X108488Y81000D02*
D03*
X69512D02*
D03*
X107988Y284469D02*
D03*
X69012D02*
D03*
X108488Y216500D02*
D03*
X69512D02*
D03*
X107488Y354000D02*
D03*
X68512D02*
D03*
X108988Y149000D02*
D03*
X70012D02*
D03*
D18*
X337500Y147012D02*
D03*
Y135988D02*
D03*
X468000Y137012D02*
D03*
Y125988D02*
D03*
X347000Y104012D02*
D03*
Y92988D02*
D03*
D19*
X566457Y140417D02*
D03*
X563898D02*
D03*
X561339D02*
D03*
X558779D02*
D03*
X556220D02*
D03*
X553661D02*
D03*
X551102D02*
D03*
X548543D02*
D03*
X566457Y117583D02*
D03*
X563898D02*
D03*
X561339D02*
D03*
X558779D02*
D03*
X556220D02*
D03*
X553661D02*
D03*
X551102D02*
D03*
X548543D02*
D03*
X511957Y93083D02*
D03*
X514516D02*
D03*
X517075D02*
D03*
X519634D02*
D03*
X522193D02*
D03*
X524752D02*
D03*
X527311D02*
D03*
X529870D02*
D03*
X532429D02*
D03*
X534988D02*
D03*
X537547D02*
D03*
X540106D02*
D03*
X511957Y115917D02*
D03*
X514516D02*
D03*
X517075D02*
D03*
X519634D02*
D03*
X522193D02*
D03*
X524752D02*
D03*
X527311D02*
D03*
X529870D02*
D03*
X532429D02*
D03*
X534988D02*
D03*
X537547D02*
D03*
X540106D02*
D03*
D20*
X473500Y81571D02*
D03*
Y115429D02*
D03*
D21*
X277500Y202626D02*
D03*
Y210500D02*
D03*
Y227437D02*
D03*
Y219563D02*
D03*
X498032Y107063D02*
D03*
Y114937D02*
D03*
Y120563D02*
D03*
Y128437D02*
D03*
X505532D02*
D03*
Y120563D02*
D03*
X513031Y123563D02*
D03*
Y131437D02*
D03*
X520532Y123563D02*
D03*
Y131437D02*
D03*
X561000Y110437D02*
D03*
Y102563D02*
D03*
X568500D02*
D03*
Y110437D02*
D03*
X531968Y160937D02*
D03*
Y153063D02*
D03*
X516968Y160937D02*
D03*
Y153063D02*
D03*
X524469D02*
D03*
Y160937D02*
D03*
X231500Y66937D02*
D03*
Y59063D02*
D03*
X239500Y66937D02*
D03*
Y59063D02*
D03*
X279500Y66937D02*
D03*
Y59063D02*
D03*
X271500D02*
D03*
Y66937D02*
D03*
X263500Y59063D02*
D03*
Y66937D02*
D03*
X255500D02*
D03*
Y59063D02*
D03*
X247500Y66937D02*
D03*
Y59063D02*
D03*
X407000Y127937D02*
D03*
Y120063D02*
D03*
X399468D02*
D03*
Y127937D02*
D03*
X410000Y106063D02*
D03*
Y113937D02*
D03*
X307500Y136063D02*
D03*
Y143937D02*
D03*
Y150000D02*
D03*
Y157874D02*
D03*
X315000Y150063D02*
D03*
Y157937D02*
D03*
Y136063D02*
D03*
Y143937D02*
D03*
X190500Y312937D02*
D03*
Y305063D02*
D03*
X190000Y245437D02*
D03*
Y237563D02*
D03*
X162779Y379768D02*
D03*
Y371894D02*
D03*
X190000Y109937D02*
D03*
Y102063D02*
D03*
X190500Y177937D02*
D03*
Y170063D02*
D03*
D22*
X501291Y100374D02*
D03*
X505031Y92500D02*
D03*
X497551D02*
D03*
D23*
X519760Y140000D02*
D03*
X527240D02*
D03*
X536740Y70500D02*
D03*
X529260D02*
D03*
X530260Y15000D02*
D03*
X537740D02*
D03*
X544260D02*
D03*
X551740D02*
D03*
X537740Y7500D02*
D03*
X530260D02*
D03*
X544260D02*
D03*
X551740D02*
D03*
X281240Y237000D02*
D03*
X273760D02*
D03*
X281240Y244500D02*
D03*
X273760D02*
D03*
X281240Y252000D02*
D03*
X273760D02*
D03*
X251760Y329000D02*
D03*
X259240D02*
D03*
X251260Y170000D02*
D03*
X258740D02*
D03*
X281209Y85000D02*
D03*
X273728D02*
D03*
X281240Y92500D02*
D03*
X273760D02*
D03*
X281240Y77500D02*
D03*
X273760D02*
D03*
D24*
X504000Y145201D02*
D03*
Y157799D02*
D03*
X511000Y73098D02*
D03*
Y60500D02*
D03*
D25*
X559949Y13500D02*
D03*
X566051D02*
D03*
X563449Y93000D02*
D03*
X569551D02*
D03*
X563449Y81500D02*
D03*
X569551D02*
D03*
X563449Y70500D02*
D03*
X569551D02*
D03*
D26*
X565500Y62783D02*
D03*
X560500D02*
D03*
X555500D02*
D03*
X550500D02*
D03*
X545500D02*
D03*
X540500D02*
D03*
X535500D02*
D03*
X530500D02*
D03*
X565500Y23216D02*
D03*
X560500D02*
D03*
X555500D02*
D03*
X550500D02*
D03*
X545500D02*
D03*
X540500D02*
D03*
X535500D02*
D03*
X530500D02*
D03*
D27*
X580988Y113500D02*
D03*
X592012D02*
D03*
X582488Y123500D02*
D03*
X593512D02*
D03*
X371512Y121500D02*
D03*
X360488D02*
D03*
D28*
X483701Y63500D02*
D03*
X496299D02*
D03*
D29*
X488333Y134339D02*
D03*
Y131780D02*
D03*
Y129220D02*
D03*
Y126661D02*
D03*
X479667D02*
D03*
Y129220D02*
D03*
Y131780D02*
D03*
X390833Y128339D02*
D03*
Y125779D02*
D03*
Y123221D02*
D03*
Y120661D02*
D03*
X382167D02*
D03*
Y123221D02*
D03*
Y125779D02*
D03*
D30*
X479667Y134339D02*
D03*
X382167Y128339D02*
D03*
D31*
X379000Y103929D02*
D03*
Y70071D02*
D03*
X246500Y280000D02*
D03*
Y246142D02*
D03*
X246000Y120500D02*
D03*
Y86642D02*
D03*
D32*
X431500Y120169D02*
D03*
Y153831D02*
D03*
D33*
X458500Y125988D02*
D03*
Y137012D02*
D03*
X408500Y77488D02*
D03*
Y88512D02*
D03*
X457000Y70524D02*
D03*
Y59500D02*
D03*
X55500Y373488D02*
D03*
Y384512D02*
D03*
X278000Y191012D02*
D03*
Y179988D02*
D03*
X278500Y351512D02*
D03*
Y340488D02*
D03*
D34*
X446012Y97500D02*
D03*
X419988D02*
D03*
X124000Y69000D02*
D03*
X150024D02*
D03*
X124488Y137000D02*
D03*
X150512D02*
D03*
X123976Y271969D02*
D03*
X150000D02*
D03*
X124000Y204500D02*
D03*
X150024D02*
D03*
X125488Y339500D02*
D03*
X151512D02*
D03*
D35*
X445219Y78500D02*
D03*
Y73500D02*
D03*
Y68500D02*
D03*
Y63500D02*
D03*
X425718D02*
D03*
Y68500D02*
D03*
Y73500D02*
D03*
Y78500D02*
D03*
D36*
X319000Y125000D02*
D03*
Y94882D02*
D03*
D37*
X329339Y148667D02*
D03*
X326780D02*
D03*
X324220D02*
D03*
X321661D02*
D03*
Y157333D02*
D03*
X324220D02*
D03*
X326780D02*
D03*
D38*
X329339D02*
D03*
D39*
X372000Y128500D02*
D03*
X359500D02*
D03*
X339000Y88000D02*
D03*
X295500D02*
D03*
D40*
X347000Y111949D02*
D03*
Y127500D02*
D03*
D41*
X169500Y75000D02*
D03*
X203358D02*
D03*
X170000Y143000D02*
D03*
X203858D02*
D03*
X170000Y277969D02*
D03*
X203858D02*
D03*
X170000Y210500D02*
D03*
X203858D02*
D03*
X170780Y344500D02*
D03*
X204638D02*
D03*
D42*
X140500Y93500D02*
D03*
X141000Y161500D02*
D03*
Y297468D02*
D03*
X140500Y229500D02*
D03*
X142000Y365000D02*
D03*
D43*
X130933Y101000D02*
D03*
Y96000D02*
D03*
Y91000D02*
D03*
Y86000D02*
D03*
X150067Y101000D02*
D03*
Y96000D02*
D03*
Y91000D02*
D03*
Y86000D02*
D03*
X131433Y169000D02*
D03*
Y164000D02*
D03*
Y159000D02*
D03*
Y154000D02*
D03*
X150567Y169000D02*
D03*
Y164000D02*
D03*
Y159000D02*
D03*
Y154000D02*
D03*
X131433Y304969D02*
D03*
Y299969D02*
D03*
Y294969D02*
D03*
Y289968D02*
D03*
X150567Y304969D02*
D03*
Y299969D02*
D03*
Y294969D02*
D03*
Y289968D02*
D03*
X130933Y237000D02*
D03*
Y232000D02*
D03*
Y227000D02*
D03*
Y222000D02*
D03*
X150067Y237000D02*
D03*
Y232000D02*
D03*
Y227000D02*
D03*
Y222000D02*
D03*
X132433Y372500D02*
D03*
Y367500D02*
D03*
Y362500D02*
D03*
Y357500D02*
D03*
X151567Y372500D02*
D03*
Y367500D02*
D03*
Y362500D02*
D03*
Y357500D02*
D03*
D44*
X279000Y287717D02*
D03*
Y268425D02*
D03*
Y300284D02*
D03*
Y319575D02*
D03*
X294500Y287646D02*
D03*
Y268354D02*
D03*
Y300354D02*
D03*
Y319646D02*
D03*
X294000Y140854D02*
D03*
Y160146D02*
D03*
X278500Y140854D02*
D03*
Y160146D02*
D03*
Y128646D02*
D03*
Y109354D02*
D03*
X294000Y128646D02*
D03*
Y109354D02*
D03*
D45*
X247000Y341512D02*
D03*
Y380488D02*
D03*
X246500Y182512D02*
D03*
Y221488D02*
D03*
D46*
X235000Y326000D02*
D03*
Y299976D02*
D03*
X234500Y167000D02*
D03*
Y140976D02*
D03*
D47*
X260000Y309500D02*
D03*
X259500Y150433D02*
D03*
D48*
X267500Y319067D02*
D03*
X262500D02*
D03*
X257500D02*
D03*
X252500D02*
D03*
X267500Y299933D02*
D03*
X262500D02*
D03*
X257500D02*
D03*
X252500D02*
D03*
X267000Y160000D02*
D03*
X262000D02*
D03*
X257000D02*
D03*
X252000D02*
D03*
X267000Y140866D02*
D03*
X262000D02*
D03*
X257000D02*
D03*
X252000D02*
D03*
D49*
X71488Y315000D02*
D03*
X82512D02*
D03*
X76488Y246500D02*
D03*
X87512D02*
D03*
X76988Y111500D02*
D03*
X88012D02*
D03*
X87500Y179500D02*
D03*
X76476D02*
D03*
D50*
X130854Y316469D02*
D03*
X150146D02*
D03*
X181146Y309968D02*
D03*
X161854D02*
D03*
X130354Y248500D02*
D03*
X149646D02*
D03*
X180646Y242500D02*
D03*
X161354D02*
D03*
X183646Y390000D02*
D03*
X164354D02*
D03*
X132354Y384000D02*
D03*
X151646D02*
D03*
X161354Y107000D02*
D03*
X180646D02*
D03*
X162000Y175000D02*
D03*
X181291D02*
D03*
M02*
