G04*
G04 #@! TF.GenerationSoftware,Altium Limited,Altium Designer,21.8.1 (53)*
G04*
G04 Layer_Color=8388736*
%FSLAX25Y25*%
%MOIN*%
G70*
G04*
G04 #@! TF.SameCoordinates,493B7DAD-148D-4575-8712-330FBA686758*
G04*
G04*
G04 #@! TF.FilePolarity,Negative*
G04*
G01*
G75*
%ADD10C,0.01000*%
%ADD32R,0.09264X0.02449*%
%ADD47R,0.06312X0.04934*%
%ADD48R,0.04343X0.06115*%
%ADD49R,0.07887X0.06509*%
%ADD50R,0.07690X0.06509*%
%ADD51R,0.09461X0.13595*%
%ADD52R,0.19304X0.13398*%
%ADD53R,0.04540X0.04343*%
%ADD54R,0.04934X0.06312*%
%ADD55R,0.06115X0.04343*%
%ADD56R,0.08871X0.03398*%
%ADD57R,0.09855X0.13398*%
%ADD58C,0.03800*%
%ADD59R,0.06706X0.02572*%
%ADD60R,0.06509X0.07690*%
%ADD61R,0.04540X0.02178*%
%ADD62R,0.02178X0.04540*%
%ADD63R,0.08674X0.08674*%
%ADD64R,0.09055X0.12205*%
%ADD65R,0.13595X0.09461*%
%ADD66R,0.13595X0.10642*%
%ADD67R,0.06509X0.07887*%
%ADD68R,0.20485X0.20485*%
%ADD69R,0.10642X0.13595*%
%ADD70R,0.11824X0.09698*%
%ADD71R,0.20485X0.20485*%
%ADD72R,0.09698X0.11824*%
%ADD73R,0.06509X0.03162*%
%ADD74R,0.03950X0.04343*%
%ADD75R,0.12217X0.22060*%
%ADD76R,0.22060X0.12217*%
%ADD77R,0.08871X0.07099*%
%ADD78R,0.20879X0.14580*%
%ADD79C,0.07880*%
%ADD80C,0.17729*%
%ADD81C,0.07800*%
%ADD82C,0.15600*%
%ADD83C,0.08800*%
%ADD84C,0.07887*%
%ADD85C,0.05800*%
D10*
Y399500D02*
X541500D01*
X542000Y399000D01*
Y161500D02*
Y399000D01*
Y161500D02*
X599000D01*
X599500Y161000D01*
Y500D02*
Y161000D01*
Y500D02*
X600000Y0D01*
X0D02*
X600000D01*
X0D02*
Y399500D01*
Y0D02*
X600000D01*
D32*
X267750Y245000D02*
D03*
Y250000D02*
D03*
Y255000D02*
D03*
Y260000D02*
D03*
X248250D02*
D03*
Y255000D02*
D03*
Y250000D02*
D03*
Y245000D02*
D03*
D47*
X427500Y78760D02*
D03*
Y86240D02*
D03*
X436000Y78760D02*
D03*
Y86240D02*
D03*
X444500Y78760D02*
D03*
Y86240D02*
D03*
X140500Y283240D02*
D03*
Y275760D02*
D03*
X302240Y101240D02*
D03*
Y93760D02*
D03*
X363500Y98240D02*
D03*
Y90760D02*
D03*
X88000Y163020D02*
D03*
Y170500D02*
D03*
X28500Y176740D02*
D03*
Y169260D02*
D03*
X527500Y95020D02*
D03*
Y102500D02*
D03*
X512500Y95020D02*
D03*
Y102500D02*
D03*
X342500Y95240D02*
D03*
Y87760D02*
D03*
X482000Y80260D02*
D03*
Y87740D02*
D03*
X538500Y95020D02*
D03*
Y102500D02*
D03*
X38000Y176740D02*
D03*
Y169260D02*
D03*
X382500Y99240D02*
D03*
Y91760D02*
D03*
X391000Y99240D02*
D03*
Y91760D02*
D03*
X213500Y267260D02*
D03*
Y274740D02*
D03*
X355000Y98240D02*
D03*
Y90760D02*
D03*
X257500Y98480D02*
D03*
Y91000D02*
D03*
X295000Y105240D02*
D03*
Y97760D02*
D03*
X520000Y95020D02*
D03*
Y102500D02*
D03*
X222000Y267260D02*
D03*
Y274740D02*
D03*
X18500Y176740D02*
D03*
Y169260D02*
D03*
D48*
X303437Y123875D02*
D03*
X295563D02*
D03*
X303437Y131250D02*
D03*
X295563D02*
D03*
X303437Y138625D02*
D03*
X295563D02*
D03*
X303437Y146000D02*
D03*
X295563D02*
D03*
X346063Y108500D02*
D03*
X353937D02*
D03*
X318937Y95000D02*
D03*
X311063D02*
D03*
X129602Y305884D02*
D03*
X121728D02*
D03*
X216937Y389000D02*
D03*
X209063D02*
D03*
X297063Y62500D02*
D03*
X304937D02*
D03*
X248500Y384000D02*
D03*
X256374D02*
D03*
X327063Y95000D02*
D03*
X334937D02*
D03*
X128937Y297500D02*
D03*
X121063D02*
D03*
X258437Y271000D02*
D03*
X250563D02*
D03*
X303437Y116500D02*
D03*
X295563D02*
D03*
X256937Y375500D02*
D03*
X249063D02*
D03*
X275937Y270500D02*
D03*
X268063D02*
D03*
X243563Y359000D02*
D03*
X251437D02*
D03*
D49*
X251451Y173854D02*
D03*
Y184878D02*
D03*
X239951Y173854D02*
D03*
Y184878D02*
D03*
X52000Y10988D02*
D03*
Y22012D02*
D03*
X588000Y88512D02*
D03*
Y77488D02*
D03*
X496000Y72488D02*
D03*
Y83512D02*
D03*
X231500Y276512D02*
D03*
Y265488D02*
D03*
D50*
X228951Y184878D02*
D03*
Y173854D02*
D03*
X203000Y139988D02*
D03*
Y151012D02*
D03*
X189000Y139988D02*
D03*
Y151012D02*
D03*
X92000Y131488D02*
D03*
Y142512D02*
D03*
D51*
X452146Y41500D02*
D03*
X432854D02*
D03*
X575146Y75000D02*
D03*
X555854D02*
D03*
X37146Y147000D02*
D03*
X17854D02*
D03*
X574646Y93500D02*
D03*
X555354D02*
D03*
X452646Y57500D02*
D03*
X433354D02*
D03*
D52*
X231000Y198071D02*
D03*
Y231929D02*
D03*
D53*
X205000Y162449D02*
D03*
Y168551D02*
D03*
X188500Y162449D02*
D03*
Y168551D02*
D03*
X213000Y162449D02*
D03*
Y168551D02*
D03*
X196500Y162449D02*
D03*
Y168551D02*
D03*
D54*
X194740Y81000D02*
D03*
X187260D02*
D03*
X194000Y63500D02*
D03*
X186520D02*
D03*
X194740Y90000D02*
D03*
X187260D02*
D03*
X194740Y71000D02*
D03*
X187260D02*
D03*
D55*
X357500Y116063D02*
D03*
Y123937D02*
D03*
X390500Y114437D02*
D03*
Y106563D02*
D03*
X420500Y60063D02*
D03*
Y67937D02*
D03*
X509000Y70563D02*
D03*
Y78437D02*
D03*
X412500Y78224D02*
D03*
Y86098D02*
D03*
X382500Y106563D02*
D03*
Y114437D02*
D03*
X184500Y343000D02*
D03*
Y350874D02*
D03*
X374000Y99437D02*
D03*
Y91563D02*
D03*
X247833Y139063D02*
D03*
Y146937D02*
D03*
X383500Y188594D02*
D03*
Y196468D02*
D03*
X355500Y142937D02*
D03*
Y135063D02*
D03*
X263000Y139063D02*
D03*
Y146937D02*
D03*
X104500Y346937D02*
D03*
Y339063D02*
D03*
X140500Y290563D02*
D03*
Y298437D02*
D03*
X96000Y339063D02*
D03*
Y346937D02*
D03*
X168000Y381437D02*
D03*
Y373563D02*
D03*
X155500Y373500D02*
D03*
Y381374D02*
D03*
X217500Y139063D02*
D03*
Y146937D02*
D03*
X372500Y65563D02*
D03*
Y73437D02*
D03*
X176500Y356374D02*
D03*
Y348500D02*
D03*
X157000Y300063D02*
D03*
Y307937D02*
D03*
X232667Y139063D02*
D03*
Y146937D02*
D03*
X363500Y188594D02*
D03*
Y196468D02*
D03*
X373000Y188657D02*
D03*
Y196531D02*
D03*
X114500Y330937D02*
D03*
Y323063D02*
D03*
X374500Y106563D02*
D03*
Y114437D02*
D03*
X365000Y135063D02*
D03*
Y142937D02*
D03*
X348500Y116063D02*
D03*
Y123937D02*
D03*
X46500Y169063D02*
D03*
Y176937D02*
D03*
X84500Y346937D02*
D03*
Y339063D02*
D03*
X75000Y347374D02*
D03*
Y339500D02*
D03*
X193500Y339563D02*
D03*
Y347437D02*
D03*
X313500Y133937D02*
D03*
Y126063D02*
D03*
X330500Y133937D02*
D03*
Y126063D02*
D03*
X340000Y133937D02*
D03*
Y126063D02*
D03*
X322000Y133937D02*
D03*
Y126063D02*
D03*
D56*
X453933Y86500D02*
D03*
Y81500D02*
D03*
Y76500D02*
D03*
Y71500D02*
D03*
X473067Y86500D02*
D03*
Y81500D02*
D03*
Y76500D02*
D03*
Y71500D02*
D03*
X521933Y83000D02*
D03*
Y78000D02*
D03*
Y73000D02*
D03*
Y68000D02*
D03*
X541067Y83000D02*
D03*
Y78000D02*
D03*
Y73000D02*
D03*
Y68000D02*
D03*
X55933Y169500D02*
D03*
Y164500D02*
D03*
Y159500D02*
D03*
Y154500D02*
D03*
X75067Y169500D02*
D03*
Y164500D02*
D03*
Y159500D02*
D03*
Y154500D02*
D03*
D57*
X463500Y79000D02*
D03*
X531500Y75500D02*
D03*
X65500Y162000D02*
D03*
D58*
X110500Y123000D02*
D03*
X179500Y73500D02*
D03*
X179000Y60500D02*
D03*
X179500Y97000D02*
D03*
X509000Y62500D02*
D03*
X461000Y97500D02*
D03*
X264500Y388500D02*
D03*
X217500Y188500D02*
D03*
X261500Y185500D02*
D03*
X168000Y393000D02*
D03*
X281000Y122000D02*
D03*
X272500Y146500D02*
D03*
X115500Y256000D02*
D03*
X105000Y222500D02*
D03*
X179500Y295500D02*
D03*
X150500D02*
D03*
X153000Y223500D02*
D03*
X105500Y171000D02*
D03*
X109000Y256000D02*
D03*
X98000Y278500D02*
D03*
X155500Y283500D02*
D03*
X83000Y271000D02*
D03*
X123000Y262500D02*
D03*
X139500Y253000D02*
D03*
X144000Y223500D02*
D03*
X267000Y99000D02*
D03*
X101500Y287500D02*
D03*
X213000Y255000D02*
D03*
X131500Y225500D02*
D03*
X101500Y272500D02*
D03*
X93000Y284000D02*
D03*
X158000Y198000D02*
D03*
X80000Y197500D02*
D03*
X131500Y268500D02*
D03*
X275000Y278500D02*
D03*
X131000Y276500D02*
D03*
X288000Y111500D02*
D03*
X441500Y57500D02*
D03*
X341500Y333500D02*
D03*
X341000Y342500D02*
D03*
X511000Y139500D02*
D03*
X553000Y114000D02*
D03*
X264000Y375500D02*
D03*
X482000Y71500D02*
D03*
X268500Y90500D02*
D03*
X314500Y86500D02*
D03*
X305000Y71000D02*
D03*
X190000Y393500D02*
D03*
X184500Y336000D02*
D03*
X195000Y246500D02*
D03*
X169000Y345000D02*
D03*
X93500Y355000D02*
D03*
X148000Y307500D02*
D03*
X122000Y323000D02*
D03*
X55500Y146500D02*
D03*
X29000Y125500D02*
D03*
X492000Y192000D02*
D03*
X197500Y391000D02*
D03*
X313000Y139500D02*
D03*
X244000Y351500D02*
D03*
X241000Y380500D02*
D03*
X233500Y340500D02*
D03*
X235500Y157500D02*
D03*
X347000Y146500D02*
D03*
X327000Y116500D02*
D03*
X182500Y379000D02*
D03*
X403000Y109500D02*
D03*
X327000Y107000D02*
D03*
X251500Y351000D02*
D03*
X511000Y123500D02*
D03*
X18500Y161000D02*
D03*
D59*
X313500Y120295D02*
D03*
Y117736D02*
D03*
Y115177D02*
D03*
Y112618D02*
D03*
Y110059D02*
D03*
Y107500D02*
D03*
Y104941D02*
D03*
Y102382D02*
D03*
X336335Y120295D02*
D03*
Y117736D02*
D03*
Y115177D02*
D03*
Y112618D02*
D03*
Y110059D02*
D03*
Y107500D02*
D03*
Y104941D02*
D03*
Y102382D02*
D03*
X231417Y351425D02*
D03*
Y353984D02*
D03*
Y356543D02*
D03*
Y359102D02*
D03*
Y361661D02*
D03*
Y364220D02*
D03*
Y366779D02*
D03*
Y369339D02*
D03*
Y371898D02*
D03*
Y374457D02*
D03*
Y377016D02*
D03*
Y379575D02*
D03*
X208583Y351425D02*
D03*
Y353984D02*
D03*
Y356543D02*
D03*
Y359102D02*
D03*
Y361661D02*
D03*
Y364220D02*
D03*
Y366779D02*
D03*
Y369339D02*
D03*
Y371898D02*
D03*
Y374457D02*
D03*
Y377016D02*
D03*
Y379575D02*
D03*
D60*
X111512Y137000D02*
D03*
X100488D02*
D03*
X157488Y67500D02*
D03*
X168512D02*
D03*
D61*
X124079Y275161D02*
D03*
Y277720D02*
D03*
Y280279D02*
D03*
Y282839D02*
D03*
X108921D02*
D03*
Y280279D02*
D03*
Y277720D02*
D03*
Y275161D02*
D03*
D62*
X120339Y286579D02*
D03*
X117780D02*
D03*
X115220D02*
D03*
X112661D02*
D03*
Y271421D02*
D03*
X115220D02*
D03*
X117780D02*
D03*
X120339D02*
D03*
D63*
X116500Y279000D02*
D03*
D64*
X258000Y252500D02*
D03*
D65*
X56000Y116354D02*
D03*
Y135646D02*
D03*
D66*
X191000Y255988D02*
D03*
Y282012D02*
D03*
X529500Y116988D02*
D03*
Y143012D02*
D03*
D67*
X259476Y231500D02*
D03*
X270500D02*
D03*
D68*
X129929Y198000D02*
D03*
X96071D02*
D03*
X163429Y128500D02*
D03*
X129571D02*
D03*
D69*
X430488Y19000D02*
D03*
X456512D02*
D03*
X15988Y125500D02*
D03*
X42012D02*
D03*
D70*
X385701Y70500D02*
D03*
X398299D02*
D03*
D71*
X433500Y142929D02*
D03*
Y109071D02*
D03*
X484500Y142429D02*
D03*
Y108571D02*
D03*
D72*
X389000Y131201D02*
D03*
Y143799D02*
D03*
X259000Y65701D02*
D03*
Y78299D02*
D03*
X277000Y65701D02*
D03*
Y78299D02*
D03*
D73*
X203716Y98500D02*
D03*
Y93500D02*
D03*
Y88500D02*
D03*
Y83500D02*
D03*
Y78500D02*
D03*
Y73500D02*
D03*
Y68500D02*
D03*
Y63500D02*
D03*
X243284Y98500D02*
D03*
Y93500D02*
D03*
Y88500D02*
D03*
Y83500D02*
D03*
Y78500D02*
D03*
Y73500D02*
D03*
Y68500D02*
D03*
Y63500D02*
D03*
D74*
X197740Y383437D02*
D03*
X190260D02*
D03*
X194000Y375563D02*
D03*
D75*
X49488Y85000D02*
D03*
X10512D02*
D03*
D76*
X570500Y112012D02*
D03*
Y150988D02*
D03*
X487500Y12012D02*
D03*
Y50988D02*
D03*
D77*
X166000Y96776D02*
D03*
Y81224D02*
D03*
D78*
X135000Y96559D02*
D03*
Y66441D02*
D03*
D79*
X403500Y171000D02*
D03*
X423500D02*
D03*
Y181000D02*
D03*
X413500Y171000D02*
D03*
Y181000D02*
D03*
X503500D02*
D03*
X493500D02*
D03*
X483500D02*
D03*
X473500D02*
D03*
X463500D02*
D03*
X453500D02*
D03*
X443500D02*
D03*
X433500D02*
D03*
X403500D02*
D03*
X393500D02*
D03*
X383500D02*
D03*
X373500D02*
D03*
X363500D02*
D03*
X353500D02*
D03*
X343500D02*
D03*
X333500D02*
D03*
X323500D02*
D03*
X313500D02*
D03*
X503500Y171000D02*
D03*
X493500D02*
D03*
X483500D02*
D03*
X473500D02*
D03*
X463500D02*
D03*
X453500D02*
D03*
X443500D02*
D03*
X433500D02*
D03*
X393500D02*
D03*
X383500D02*
D03*
X373500D02*
D03*
X363500D02*
D03*
X353500D02*
D03*
X343500D02*
D03*
X333500D02*
D03*
X323500D02*
D03*
X313500D02*
D03*
D80*
X522674Y176000D02*
D03*
X294327D02*
D03*
Y368913D02*
D03*
X522674D02*
D03*
D81*
X199900Y47800D02*
D03*
X211700D02*
D03*
Y36000D02*
D03*
X199900D02*
D03*
X223500D02*
D03*
X235300D02*
D03*
Y47800D02*
D03*
X223500D02*
D03*
X50800Y211000D02*
D03*
Y199200D02*
D03*
X39000Y211000D02*
D03*
Y199200D02*
D03*
Y241000D02*
D03*
X50800D02*
D03*
X540500Y40000D02*
D03*
X528700D02*
D03*
X540500Y51800D02*
D03*
X528700D02*
D03*
X295500Y36500D02*
D03*
Y48300D02*
D03*
X51800Y347500D02*
D03*
Y335700D02*
D03*
X40000Y347500D02*
D03*
Y335700D02*
D03*
X326500Y48300D02*
D03*
X338300D02*
D03*
X326500Y36500D02*
D03*
X338300D02*
D03*
X39500Y272500D02*
D03*
X51300D02*
D03*
X368700Y48300D02*
D03*
X380500D02*
D03*
X368700Y36500D02*
D03*
X380500D02*
D03*
X570200Y51800D02*
D03*
X582000D02*
D03*
X570200Y40000D02*
D03*
X582000D02*
D03*
X133500Y47800D02*
D03*
X145300D02*
D03*
Y36000D02*
D03*
X133500D02*
D03*
X157100D02*
D03*
X168900D02*
D03*
Y47800D02*
D03*
X157100D02*
D03*
X19600Y50300D02*
D03*
X31400D02*
D03*
X19600Y38500D02*
D03*
X31400D02*
D03*
X40500Y304000D02*
D03*
X52300D02*
D03*
X265000Y36500D02*
D03*
Y48300D02*
D03*
X411000Y37000D02*
D03*
Y48800D02*
D03*
X40200Y380500D02*
D03*
X52000D02*
D03*
D82*
X208400Y19000D02*
D03*
X226900D02*
D03*
X22000Y205100D02*
D03*
Y241000D02*
D03*
X534600Y23000D02*
D03*
X295500Y19500D02*
D03*
X23000Y341600D02*
D03*
X332400Y19500D02*
D03*
X22500Y272500D02*
D03*
X374600Y19500D02*
D03*
X576100Y23000D02*
D03*
X142000Y19000D02*
D03*
X160500D02*
D03*
X25500Y21500D02*
D03*
X23500Y304000D02*
D03*
X265000Y19500D02*
D03*
X411000Y20000D02*
D03*
X23200Y380500D02*
D03*
D83*
X109000Y13000D02*
D03*
Y52000D02*
D03*
X95500D02*
D03*
Y13000D02*
D03*
X85500Y115500D02*
D03*
Y76500D02*
D03*
X99000D02*
D03*
Y115500D02*
D03*
D84*
X202000Y127000D02*
D03*
Y117000D02*
D03*
X247500D02*
D03*
Y127000D02*
D03*
X188500D02*
D03*
Y117000D02*
D03*
X217500Y127000D02*
D03*
Y117000D02*
D03*
X262500D02*
D03*
Y127000D02*
D03*
X233000D02*
D03*
Y117000D02*
D03*
D85*
X45500Y161000D02*
D03*
M02*
