G04*
G04 #@! TF.GenerationSoftware,Altium Limited,Altium Designer,23.1.1 (15)*
G04*
G04 Layer_Physical_Order=3*
G04 Layer_Color=128*
%FSLAX25Y25*%
%MOIN*%
G70*
G04*
G04 #@! TF.SameCoordinates,6B6AD537-89E2-49BE-BCD0-2355F65E075C*
G04*
G04*
G04 #@! TF.FilePolarity,Negative*
G04*
G01*
G75*
%ADD10C,0.01000*%
%ADD84C,0.15600*%
%ADD95C,0.08000*%
%ADD97C,0.04000*%
%ADD98C,0.15800*%
%ADD99C,0.07937*%
%ADD100C,0.10300*%
%ADD101C,0.06800*%
G36*
X603500Y166500D02*
Y161500D01*
X542000D01*
Y399000D01*
Y403000D01*
X603500D01*
Y166500D01*
D02*
G37*
D10*
X387000Y138500D02*
Y156500D01*
X376250Y127750D02*
X387000Y138500D01*
X376250Y75250D02*
Y127750D01*
Y75250D02*
X382500Y69000D01*
X497075D01*
X502339Y74264D01*
Y85661D01*
X501500Y86500D02*
X502339Y85661D01*
X392873Y86500D02*
X501500D01*
X390000Y89373D02*
X392873Y86500D01*
X390000Y89373D02*
Y119829D01*
X400000Y129829D01*
Y157000D01*
X398000Y159000D02*
X400000Y157000D01*
X389500Y159000D02*
X398000D01*
X387000Y156500D02*
X389500Y159000D01*
X387000Y155000D02*
Y156500D01*
X56500Y0D02*
Y45500D01*
X67500Y56500D01*
X260437D01*
X323437Y119500D01*
X356500D01*
X366000Y129000D01*
Y155000D01*
X356000Y165000D02*
X366000Y155000D01*
X282000Y165000D02*
X356000D01*
X271000Y176000D02*
X282000Y165000D01*
X271000Y176000D02*
Y196500D01*
X308000Y233500D01*
Y338500D01*
X285000Y361500D02*
X308000Y338500D01*
X285000Y361500D02*
Y400000D01*
D84*
X582500Y143500D02*
D03*
X526173Y179000D02*
D03*
X297827D02*
D03*
Y371913D02*
D03*
X526173D02*
D03*
X582000Y18000D02*
D03*
X18000Y382000D02*
D03*
X16000Y16000D02*
D03*
D95*
X317500Y48800D02*
D03*
X329300D02*
D03*
Y37000D02*
D03*
X317500D02*
D03*
X341100D02*
D03*
X352900D02*
D03*
Y48800D02*
D03*
X341100D02*
D03*
X428600Y37500D02*
D03*
X440400Y49300D02*
D03*
X428600D02*
D03*
X407000Y174000D02*
D03*
X427000D02*
D03*
Y184000D02*
D03*
X417000Y174000D02*
D03*
Y184000D02*
D03*
X507000D02*
D03*
X497000D02*
D03*
X487000D02*
D03*
X477000D02*
D03*
X467000D02*
D03*
X457000D02*
D03*
X447000D02*
D03*
X437000D02*
D03*
X407000D02*
D03*
X397000D02*
D03*
X387000D02*
D03*
X377000D02*
D03*
X367000D02*
D03*
X357000D02*
D03*
X347000D02*
D03*
X337000D02*
D03*
X327000D02*
D03*
X317000D02*
D03*
X507000Y174000D02*
D03*
X497000D02*
D03*
X487000D02*
D03*
X477000D02*
D03*
X467000D02*
D03*
X457000D02*
D03*
X447000D02*
D03*
X437000D02*
D03*
X397000D02*
D03*
X387000D02*
D03*
X377000D02*
D03*
X367000D02*
D03*
X357000D02*
D03*
X347000D02*
D03*
X337000D02*
D03*
X384600Y37500D02*
D03*
X396400Y49300D02*
D03*
X384600D02*
D03*
X286000D02*
D03*
X254500D02*
D03*
X223000D02*
D03*
X71500Y48895D02*
D03*
X49684Y50095D02*
D03*
Y81595D02*
D03*
X37884D02*
D03*
X49300Y175500D02*
D03*
X37500D02*
D03*
Y206600D02*
D03*
Y218400D02*
D03*
X49300Y206600D02*
D03*
Y218400D02*
D03*
X49800Y144500D02*
D03*
X38000Y295500D02*
D03*
Y307300D02*
D03*
X49800Y295500D02*
D03*
Y307300D02*
D03*
X38000Y339600D02*
D03*
Y351400D02*
D03*
X49800Y339600D02*
D03*
Y351400D02*
D03*
X38000Y251000D02*
D03*
Y262800D02*
D03*
X49800Y251000D02*
D03*
Y262800D02*
D03*
Y113000D02*
D03*
X38000D02*
D03*
X103000Y48895D02*
D03*
X134500Y48800D02*
D03*
X495200D02*
D03*
X507000D02*
D03*
Y37000D02*
D03*
X495200D02*
D03*
X471600D02*
D03*
X483400D02*
D03*
Y48800D02*
D03*
X471600D02*
D03*
D97*
X542000Y399000D02*
Y400000D01*
X0D02*
X542000D01*
X600000Y0D02*
Y161500D01*
X542000D02*
X600000D01*
X542000D02*
Y399000D01*
X0Y0D02*
Y400000D01*
Y0D02*
X600000D01*
D98*
X326000Y20000D02*
D03*
X344500D02*
D03*
X434500Y20500D02*
D03*
X390500D02*
D03*
X286000D02*
D03*
X254500D02*
D03*
X223000D02*
D03*
X71500Y20095D02*
D03*
X20884Y50095D02*
D03*
Y81595D02*
D03*
X20500Y175500D02*
D03*
Y212500D02*
D03*
X21000Y144500D02*
D03*
Y301400D02*
D03*
Y345500D02*
D03*
Y256900D02*
D03*
Y113000D02*
D03*
X103000Y20095D02*
D03*
X134500Y20000D02*
D03*
X498600D02*
D03*
X480100D02*
D03*
D99*
X582000Y59000D02*
D03*
X592000D02*
D03*
X582000Y47500D02*
D03*
X592000D02*
D03*
Y36000D02*
D03*
X582000D02*
D03*
X592000Y82000D02*
D03*
X582000D02*
D03*
X592000Y93500D02*
D03*
Y70500D02*
D03*
X582000D02*
D03*
D100*
X354500Y153000D02*
D03*
Y139500D02*
D03*
X301000Y64000D02*
D03*
X340000D02*
D03*
Y77500D02*
D03*
X301000D02*
D03*
D101*
X374500Y148000D02*
D03*
X242568Y313931D02*
D03*
X230500Y250000D02*
D03*
X245433Y150433D02*
D03*
X492500Y161500D02*
D03*
X523132Y147000D02*
D03*
X516000Y147500D02*
D03*
X532409Y203091D02*
D03*
X416070Y203069D02*
D03*
X403000Y201500D02*
D03*
X422000Y154000D02*
D03*
X291000Y97900D02*
D03*
X175500Y117500D02*
D03*
X322000Y141800D02*
D03*
X311500Y269000D02*
D03*
X317500Y265500D02*
D03*
X324000Y269000D02*
D03*
X302500Y206500D02*
D03*
X303000Y223000D02*
D03*
X347500Y210000D02*
D03*
X347000Y218000D02*
D03*
X269000Y171000D02*
D03*
X200500Y293000D02*
D03*
X262500Y116000D02*
D03*
X295000Y329500D02*
D03*
X297000Y98500D02*
D03*
X279000Y171000D02*
D03*
X278500Y150500D02*
D03*
X294000D02*
D03*
Y119000D02*
D03*
X278500D02*
D03*
X267500Y231000D02*
D03*
X263000Y237000D02*
D03*
X228000Y231500D02*
D03*
X222500Y237000D02*
D03*
X276000Y380500D02*
D03*
X282500Y382500D02*
D03*
X283000Y390500D02*
D03*
X275500Y389000D02*
D03*
X286000Y329500D02*
D03*
X277500D02*
D03*
X312000Y290500D02*
D03*
X313000Y300000D02*
D03*
X317500Y294500D02*
D03*
X317000Y286500D02*
D03*
X322500Y291000D02*
D03*
X322000Y299000D02*
D03*
X265500Y380500D02*
D03*
X266000Y390000D02*
D03*
X142000Y77500D02*
D03*
Y145500D02*
D03*
X141500Y213500D02*
D03*
X182500Y117500D02*
D03*
X182000Y186000D02*
D03*
X175000D02*
D03*
X201000Y158500D02*
D03*
Y225000D02*
D03*
X182000Y253000D02*
D03*
X175000D02*
D03*
X160500Y232000D02*
D03*
X161500Y163500D02*
D03*
X161000Y95500D02*
D03*
X535500Y209500D02*
D03*
X488000Y114000D02*
D03*
X482000Y99000D02*
D03*
X486000Y200500D02*
D03*
X533750Y195750D02*
D03*
X530000Y146474D02*
D03*
X561000Y132000D02*
D03*
X573000Y156000D02*
D03*
X593500Y155500D02*
D03*
X564000Y125500D02*
D03*
X416000Y150500D02*
D03*
X415000Y142000D02*
D03*
X447500Y138000D02*
D03*
X489000Y98000D02*
D03*
X489046Y90546D02*
D03*
X430000Y93000D02*
D03*
X559000Y40500D02*
D03*
X395500Y73000D02*
D03*
X407000Y99500D02*
D03*
X529500Y124000D02*
D03*
X504000Y135500D02*
D03*
X537500Y101000D02*
D03*
X530500Y108000D02*
D03*
Y101000D02*
D03*
X538000Y108500D02*
D03*
X517000Y9000D02*
D03*
X557000Y125500D02*
D03*
X395000Y92000D02*
D03*
X448000Y129500D02*
D03*
X523000Y59000D02*
D03*
X537000Y79000D02*
D03*
X497000Y134500D02*
D03*
X421500Y43500D02*
D03*
Y51000D02*
D03*
X524000Y106500D02*
D03*
X520000Y100500D02*
D03*
X514500Y107000D02*
D03*
X530000Y79000D02*
D03*
X522000Y79500D02*
D03*
X182500Y321000D02*
D03*
X175500D02*
D03*
X140500Y281000D02*
D03*
X119500Y245000D02*
D03*
X113000Y250000D02*
D03*
X114000Y318000D02*
D03*
X120000Y312000D02*
D03*
X161000Y298000D02*
D03*
X532000Y54000D02*
D03*
X327500Y138000D02*
D03*
X223500Y62500D02*
D03*
X417000Y113500D02*
D03*
X419000Y121500D02*
D03*
X395000Y99500D02*
D03*
X552000Y132937D02*
D03*
X538500Y123500D02*
D03*
X519500Y85812D02*
D03*
X528203Y85297D02*
D03*
X528000Y130959D02*
D03*
X44500Y7000D02*
D03*
X265000Y290000D02*
D03*
X196500Y377500D02*
D03*
X121000D02*
D03*
X142000Y348500D02*
D03*
X121000Y384000D02*
D03*
X195500Y387000D02*
D03*
X163000Y364500D02*
D03*
M02*
