G04*
G04 #@! TF.GenerationSoftware,Altium Limited,Altium Designer,22.1.2 (22)*
G04*
G04 Layer_Physical_Order=2*
G04 Layer_Color=32768*
%FSLAX25Y25*%
%MOIN*%
G70*
G04*
G04 #@! TF.SameCoordinates,44F9B7A4-E995-4014-B581-63E438F0E3DA*
G04*
G04*
G04 #@! TF.FilePolarity,Negative*
G04*
G01*
G75*
%ADD11C,0.01000*%
%ADD14C,0.00394*%
%ADD15C,0.00197*%
%ADD81C,0.15600*%
%ADD93C,0.08000*%
%ADD97C,0.04000*%
%ADD98C,0.15800*%
G04:AMPARAMS|DCode=99|XSize=100mil|YSize=100mil|CornerRadius=0mil|HoleSize=0mil|Usage=FLASHONLY|Rotation=0.000|XOffset=0mil|YOffset=0mil|HoleType=Round|Shape=Relief|Width=10mil|Gap=10mil|Entries=4|*
%AMTHD99*
7,0,0,0.10000,0.08000,0.01000,45*
%
%ADD99THD99*%
%ADD100C,0.10300*%
G04:AMPARAMS|DCode=101|XSize=99.37mil|YSize=99.37mil|CornerRadius=0mil|HoleSize=0mil|Usage=FLASHONLY|Rotation=0.000|XOffset=0mil|YOffset=0mil|HoleType=Round|Shape=Relief|Width=10mil|Gap=10mil|Entries=4|*
%AMTHD101*
7,0,0,0.09937,0.07937,0.01000,45*
%
%ADD101THD101*%
%ADD102C,0.07937*%
G04:AMPARAMS|DCode=103|XSize=75mil|YSize=75mil|CornerRadius=0mil|HoleSize=0mil|Usage=FLASHONLY|Rotation=0.000|XOffset=0mil|YOffset=0mil|HoleType=Round|Shape=Relief|Width=10mil|Gap=10mil|Entries=4|*
%AMTHD103*
7,0,0,0.07500,0.05500,0.01000,45*
%
%ADD103THD103*%
%ADD104C,0.06800*%
G04:AMPARAMS|DCode=105|XSize=88mil|YSize=88mil|CornerRadius=0mil|HoleSize=0mil|Usage=FLASHONLY|Rotation=0.000|XOffset=0mil|YOffset=0mil|HoleType=Round|Shape=Relief|Width=10mil|Gap=10mil|Entries=4|*
%AMTHD105*
7,0,0,0.08800,0.06800,0.01000,45*
%
%ADD105THD105*%
G36*
X501500Y401500D02*
X601500D01*
Y143000D01*
X501000D01*
Y402000D01*
X501500Y401500D01*
D02*
G37*
D11*
X0Y400000D02*
X501000D01*
Y143000D02*
Y400000D01*
Y143000D02*
X600000D01*
Y0D02*
Y143000D01*
X0Y0D02*
X600000D01*
X0D02*
Y400000D01*
D14*
X145031Y259000D02*
X148969D01*
X147000Y257031D02*
Y260968D01*
X533000Y118532D02*
Y122468D01*
X531032Y120500D02*
X534969D01*
X20531Y123500D02*
X24468D01*
X22500Y121531D02*
Y125469D01*
X433032Y17000D02*
X436969D01*
X435000Y15032D02*
Y18969D01*
D15*
X133614Y239512D02*
Y278390D01*
X160386Y239512D02*
Y278390D01*
X133614D02*
X160386D01*
X133614Y239512D02*
X160386D01*
X519614Y101012D02*
X546386D01*
X519614Y139890D02*
X546386D01*
Y101012D02*
Y139890D01*
X519614Y101012D02*
Y139890D01*
X41988Y110114D02*
Y136886D01*
X3110Y110114D02*
Y136886D01*
X41988D01*
X3110Y110114D02*
X41988D01*
X454488Y3614D02*
Y30386D01*
X415610Y3614D02*
Y30386D01*
X454488D01*
X415610Y3614D02*
X454488D01*
D81*
X486173Y360913D02*
D03*
X257827D02*
D03*
Y168000D02*
D03*
X486173D02*
D03*
D93*
X309100Y51300D02*
D03*
Y39500D02*
D03*
X320900D02*
D03*
X277000Y163000D02*
D03*
X287000D02*
D03*
X307000D02*
D03*
X317000D02*
D03*
X327000D02*
D03*
X347000D02*
D03*
X357000D02*
D03*
X397000D02*
D03*
X407000D02*
D03*
X427000D02*
D03*
X447000D02*
D03*
X457000D02*
D03*
X467000D02*
D03*
X277000Y173000D02*
D03*
X287000D02*
D03*
X297000D02*
D03*
X307000D02*
D03*
X327000D02*
D03*
X337000D02*
D03*
X347000D02*
D03*
X357000D02*
D03*
X367000D02*
D03*
X407000D02*
D03*
X417000D02*
D03*
X427000D02*
D03*
X437000D02*
D03*
X447000D02*
D03*
X457000D02*
D03*
X377000D02*
D03*
Y163000D02*
D03*
X387000Y173000D02*
D03*
Y163000D02*
D03*
X49800Y207500D02*
D03*
Y195700D02*
D03*
X38000Y207500D02*
D03*
Y195700D02*
D03*
Y240500D02*
D03*
X49800D02*
D03*
X38000Y273000D02*
D03*
X49800D02*
D03*
X38000Y305500D02*
D03*
X49800D02*
D03*
Y349400D02*
D03*
Y337600D02*
D03*
X38000Y349400D02*
D03*
Y337600D02*
D03*
Y381500D02*
D03*
X49800D02*
D03*
X569700Y50300D02*
D03*
X581500D02*
D03*
X569700Y38500D02*
D03*
X581500D02*
D03*
X30400D02*
D03*
X18600D02*
D03*
X30400Y50300D02*
D03*
X18600D02*
D03*
X534900Y38500D02*
D03*
X523100D02*
D03*
X534900Y50300D02*
D03*
X523100D02*
D03*
X244500Y39500D02*
D03*
X144500Y39000D02*
D03*
X132700D02*
D03*
X109100D02*
D03*
X120900D02*
D03*
X212500D02*
D03*
X200700D02*
D03*
X188900D02*
D03*
Y50800D02*
D03*
X177100D02*
D03*
X276500Y51300D02*
D03*
Y39500D02*
D03*
X398000D02*
D03*
X365400D02*
D03*
X353600D02*
D03*
Y51300D02*
D03*
D97*
X501000Y143000D02*
Y400000D01*
X0D02*
X501000D01*
X600000Y0D02*
Y143000D01*
X501000D02*
X600000D01*
X0Y0D02*
Y400000D01*
Y0D02*
X600000D01*
D98*
X315000Y22500D02*
D03*
X21000Y201600D02*
D03*
Y240500D02*
D03*
Y273000D02*
D03*
Y305500D02*
D03*
Y343500D02*
D03*
Y381500D02*
D03*
X575600Y21500D02*
D03*
X24500D02*
D03*
X529000D02*
D03*
X244500Y22500D02*
D03*
X136100Y22000D02*
D03*
X117600D02*
D03*
X204100D02*
D03*
X185600D02*
D03*
X276500Y22500D02*
D03*
X398000D02*
D03*
X359500D02*
D03*
D99*
X320900Y51300D02*
D03*
X297000Y163000D02*
D03*
X337000D02*
D03*
X417000D02*
D03*
X437000D02*
D03*
X317000Y173000D02*
D03*
X397000D02*
D03*
X467000D02*
D03*
X367000Y163000D02*
D03*
X244500Y51300D02*
D03*
X132700Y50800D02*
D03*
X144500D02*
D03*
X120900D02*
D03*
X109100D02*
D03*
X200700D02*
D03*
X212500D02*
D03*
X177100Y39000D02*
D03*
X398000Y51300D02*
D03*
X365400D02*
D03*
D100*
X89500Y119500D02*
D03*
Y80500D02*
D03*
X76000D02*
D03*
Y119500D02*
D03*
X85000Y15500D02*
D03*
Y54500D02*
D03*
X71500D02*
D03*
Y15500D02*
D03*
D101*
X202000Y121500D02*
D03*
X190000D02*
D03*
X178000D02*
D03*
X166000D02*
D03*
D102*
X202000Y131500D02*
D03*
X190000D02*
D03*
X226000D02*
D03*
Y121500D02*
D03*
X178000Y131500D02*
D03*
X214000D02*
D03*
Y121500D02*
D03*
X166000Y131500D02*
D03*
D103*
X490500Y61500D02*
D03*
X130500Y302000D02*
D03*
D104*
X112000Y248500D02*
D03*
X86500Y184500D02*
D03*
X80000Y187500D02*
D03*
X86500Y191000D02*
D03*
X97000Y242500D02*
D03*
X76500Y236500D02*
D03*
X87500Y243000D02*
D03*
X129000Y195500D02*
D03*
X120000Y251500D02*
D03*
X122500Y215500D02*
D03*
Y223000D02*
D03*
X99500Y215500D02*
D03*
X107500D02*
D03*
X115000D02*
D03*
Y223000D02*
D03*
X107500D02*
D03*
X99500D02*
D03*
X228000Y255000D02*
D03*
X117000Y165000D02*
D03*
X193000Y300500D02*
D03*
X23500Y147500D02*
D03*
X143500Y393500D02*
D03*
X163000Y393000D02*
D03*
X181298Y340299D02*
D03*
X174000Y331500D02*
D03*
X159000Y338500D02*
D03*
X115500Y313000D02*
D03*
X88000Y325000D02*
D03*
X205500Y352500D02*
D03*
X414500Y103000D02*
D03*
X87500Y276000D02*
D03*
X78500Y268000D02*
D03*
X229500Y173500D02*
D03*
X220500Y168500D02*
D03*
X264000Y145500D02*
D03*
X298500Y337000D02*
D03*
Y346500D02*
D03*
X198500Y393500D02*
D03*
X461500Y152000D02*
D03*
X449500Y150500D02*
D03*
X188000Y389500D02*
D03*
X211000Y169000D02*
D03*
X110000Y297000D02*
D03*
X313000Y140500D02*
D03*
X307500Y146000D02*
D03*
X75500Y253500D02*
D03*
Y136000D02*
D03*
X81000Y247000D02*
D03*
X103000Y149500D02*
D03*
X203000Y383000D02*
D03*
X315500Y97000D02*
D03*
X298372Y135000D02*
D03*
X353455Y100125D02*
D03*
X353500Y108000D02*
D03*
X75500Y152000D02*
D03*
X72500Y144500D02*
D03*
X66000Y148000D02*
D03*
X65500Y139500D02*
D03*
X39500Y158000D02*
D03*
X466000Y86000D02*
D03*
X438500Y54500D02*
D03*
X513500Y64500D02*
D03*
X516000Y112000D02*
D03*
D105*
X187000Y266500D02*
D03*
X188500Y274000D02*
D03*
X137000Y232500D02*
D03*
X24000Y158000D02*
D03*
X284500Y74000D02*
D03*
X322880Y74120D02*
D03*
X153500Y393000D02*
D03*
X91500Y363500D02*
D03*
X228000Y371000D02*
D03*
X123000Y389000D02*
D03*
X130000Y334000D02*
D03*
X238500Y99500D02*
D03*
X114500Y352000D02*
D03*
X163500Y349500D02*
D03*
X69500Y364000D02*
D03*
X313000Y127000D02*
D03*
X342500Y78500D02*
D03*
X84500Y159500D02*
D03*
X22500Y123928D02*
D03*
X554500Y96500D02*
D03*
X516000Y123500D02*
D03*
M02*
