G04*
G04 #@! TF.GenerationSoftware,Altium Limited,Altium Designer,22.1.2 (22)*
G04*
G04 Layer_Physical_Order=2*
G04 Layer_Color=16711680*
%FSLAX25Y25*%
%MOIN*%
G70*
G04*
G04 #@! TF.SameCoordinates,85E22B33-0606-49F9-AEB4-7B2C3894542D*
G04*
G04*
G04 #@! TF.FilePolarity,Positive*
G04*
G01*
G75*
%ADD10C,0.01000*%
%ADD41C,0.16929*%
%ADD42C,0.11811*%
%ADD43C,0.05000*%
G36*
X231500Y0D02*
X14500D01*
Y223500D01*
X231500D01*
Y0D01*
D02*
G37*
%LPC*%
G36*
X144180Y218406D02*
X144000D01*
Y212000D01*
X150406D01*
Y212180D01*
X150140Y213514D01*
X149620Y214771D01*
X148864Y215902D01*
X147902Y216864D01*
X146771Y217620D01*
X145514Y218140D01*
X144180Y218406D01*
D02*
G37*
G36*
X143000D02*
X142820D01*
X141486Y218140D01*
X140229Y217620D01*
X139098Y216864D01*
X138136Y215902D01*
X137380Y214771D01*
X136860Y213514D01*
X136594Y212180D01*
Y212000D01*
X143000D01*
Y218406D01*
D02*
G37*
G36*
X61680Y217905D02*
X61500D01*
Y211500D01*
X67905D01*
Y211680D01*
X67640Y213014D01*
X67120Y214271D01*
X66364Y215402D01*
X65402Y216364D01*
X64271Y217120D01*
X63014Y217640D01*
X61680Y217905D01*
D02*
G37*
G36*
X60500D02*
X60320D01*
X58986Y217640D01*
X57729Y217120D01*
X56598Y216364D01*
X55636Y215402D01*
X54880Y214271D01*
X54360Y213014D01*
X54094Y211680D01*
Y211500D01*
X60500D01*
Y217905D01*
D02*
G37*
G36*
X150406Y211000D02*
X144000D01*
Y204594D01*
X144180D01*
X145514Y204860D01*
X146771Y205380D01*
X147902Y206136D01*
X148864Y207098D01*
X149620Y208229D01*
X150140Y209486D01*
X150406Y210820D01*
Y211000D01*
D02*
G37*
G36*
X143000D02*
X136594D01*
Y210820D01*
X136860Y209486D01*
X137380Y208229D01*
X138136Y207098D01*
X139098Y206136D01*
X140229Y205380D01*
X141486Y204860D01*
X142820Y204594D01*
X143000D01*
Y211000D01*
D02*
G37*
G36*
X67905Y210500D02*
X61500D01*
Y204095D01*
X61680D01*
X63014Y204360D01*
X64271Y204880D01*
X65402Y205636D01*
X66364Y206598D01*
X67120Y207729D01*
X67640Y208986D01*
X67905Y210320D01*
Y210500D01*
D02*
G37*
G36*
X60500D02*
X54094D01*
Y210320D01*
X54360Y208986D01*
X54880Y207729D01*
X55636Y206598D01*
X56598Y205636D01*
X57729Y204880D01*
X58986Y204360D01*
X60320Y204095D01*
X60500D01*
Y210500D01*
D02*
G37*
G36*
X160180Y218406D02*
X158820D01*
X157486Y218140D01*
X156229Y217620D01*
X155098Y216864D01*
X154136Y215902D01*
X153380Y214771D01*
X152860Y213514D01*
X152594Y212180D01*
Y210820D01*
X152860Y209486D01*
X153380Y208229D01*
X154136Y207098D01*
X155098Y206136D01*
X156229Y205380D01*
X157486Y204860D01*
X157971Y204763D01*
Y187634D01*
X138866Y168529D01*
X75659D01*
X75301Y169149D01*
X74649Y169801D01*
X73851Y170262D01*
X72961Y170500D01*
X72039D01*
X71149Y170262D01*
X70351Y169801D01*
X69699Y169149D01*
X69239Y168351D01*
X69000Y167461D01*
Y166539D01*
X69239Y165649D01*
X69699Y164851D01*
X70351Y164199D01*
X71149Y163739D01*
X72039Y163500D01*
X72961D01*
X73851Y163739D01*
X74649Y164199D01*
X75301Y164851D01*
X75659Y165471D01*
X105154D01*
X105346Y165009D01*
X104419Y164081D01*
X104087Y163585D01*
X103971Y163000D01*
Y158159D01*
X103351Y157801D01*
X102699Y157149D01*
X102239Y156351D01*
X102000Y155461D01*
Y154539D01*
X102239Y153649D01*
X102699Y152851D01*
X103351Y152199D01*
X104149Y151739D01*
X105039Y151500D01*
X105961D01*
X106851Y151739D01*
X107649Y152199D01*
X108301Y152851D01*
X108762Y153649D01*
X109000Y154539D01*
Y155461D01*
X108762Y156351D01*
X108301Y157149D01*
X107649Y157801D01*
X107029Y158159D01*
Y162366D01*
X110134Y165471D01*
X139500D01*
X140085Y165587D01*
X140581Y165919D01*
X160581Y185919D01*
X160913Y186415D01*
X161029Y187000D01*
Y204763D01*
X161514Y204860D01*
X162771Y205380D01*
X163902Y206136D01*
X164864Y207098D01*
X165620Y208229D01*
X166140Y209486D01*
X166405Y210820D01*
Y212180D01*
X166140Y213514D01*
X165620Y214771D01*
X164864Y215902D01*
X163902Y216864D01*
X162771Y217620D01*
X161514Y218140D01*
X160180Y218406D01*
D02*
G37*
G36*
X101000Y143990D02*
Y141000D01*
X103990D01*
X103761Y141851D01*
X103301Y142649D01*
X102649Y143301D01*
X101851Y143762D01*
X101000Y143990D01*
D02*
G37*
G36*
X100000D02*
X99149Y143762D01*
X98351Y143301D01*
X97699Y142649D01*
X97238Y141851D01*
X97010Y141000D01*
X100000D01*
Y143990D01*
D02*
G37*
G36*
X164461Y146000D02*
X163539D01*
X162649Y145762D01*
X161851Y145301D01*
X161199Y144649D01*
X161130Y144529D01*
X154000D01*
X153415Y144413D01*
X152919Y144081D01*
X136652Y127815D01*
X135961Y128000D01*
X135039D01*
X134149Y127761D01*
X133351Y127301D01*
X132699Y126649D01*
X132238Y125851D01*
X132000Y124961D01*
Y124039D01*
X132238Y123149D01*
X132699Y122351D01*
X133351Y121699D01*
X134149Y121239D01*
X135039Y121000D01*
X135961D01*
X136851Y121239D01*
X137649Y121699D01*
X138301Y122351D01*
X138761Y123149D01*
X139000Y124039D01*
Y124961D01*
X138815Y125652D01*
X154633Y141471D01*
X160652D01*
X160739Y141149D01*
X161199Y140351D01*
X161851Y139699D01*
X162649Y139239D01*
X163539Y139000D01*
X164461D01*
X165351Y139239D01*
X166149Y139699D01*
X166801Y140351D01*
X167262Y141149D01*
X167500Y142039D01*
Y142961D01*
X167262Y143851D01*
X166801Y144649D01*
X166149Y145301D01*
X165351Y145762D01*
X164461Y146000D01*
D02*
G37*
G36*
X103990Y140000D02*
X101000D01*
Y137011D01*
X101851Y137239D01*
X102649Y137699D01*
X103301Y138351D01*
X103761Y139149D01*
X103990Y140000D01*
D02*
G37*
G36*
X100000D02*
X97010D01*
X97238Y139149D01*
X97699Y138351D01*
X98351Y137699D01*
X99149Y137239D01*
X100000Y137011D01*
Y140000D01*
D02*
G37*
G36*
X128500Y134990D02*
Y132000D01*
X131490D01*
X131262Y132851D01*
X130801Y133649D01*
X130149Y134301D01*
X129351Y134762D01*
X128500Y134990D01*
D02*
G37*
G36*
X127500D02*
X126649Y134762D01*
X125851Y134301D01*
X125199Y133649D01*
X124739Y132851D01*
X124511Y132000D01*
X127500D01*
Y134990D01*
D02*
G37*
G36*
X213461Y137500D02*
X212539D01*
X211649Y137261D01*
X210851Y136801D01*
X210199Y136149D01*
X209738Y135351D01*
X209500Y134461D01*
Y133539D01*
X209685Y132848D01*
X184866Y108029D01*
X184221D01*
X183864Y108649D01*
X183212Y109301D01*
X182414Y109762D01*
X181524Y110000D01*
X180602D01*
X179712Y109762D01*
X178914Y109301D01*
X178262Y108649D01*
X177802Y107851D01*
X177563Y106961D01*
Y106039D01*
X177802Y105149D01*
X178262Y104351D01*
X178914Y103699D01*
X179712Y103238D01*
X180602Y103000D01*
X181524D01*
X182414Y103238D01*
X183212Y103699D01*
X183864Y104351D01*
X184221Y104971D01*
X185500D01*
X186085Y105087D01*
X186581Y105419D01*
X211848Y130685D01*
X212539Y130500D01*
X213461D01*
X214351Y130738D01*
X215149Y131199D01*
X215801Y131851D01*
X216262Y132649D01*
X216500Y133539D01*
Y134461D01*
X216262Y135351D01*
X215801Y136149D01*
X215149Y136801D01*
X214351Y137261D01*
X213461Y137500D01*
D02*
G37*
G36*
X131490Y131000D02*
X128500D01*
Y128010D01*
X129351Y128238D01*
X130149Y128699D01*
X130801Y129351D01*
X131262Y130149D01*
X131490Y131000D01*
D02*
G37*
G36*
X127500D02*
X124511D01*
X124739Y130149D01*
X125199Y129351D01*
X125851Y128699D01*
X126649Y128238D01*
X127500Y128010D01*
Y131000D01*
D02*
G37*
G36*
X22000Y129990D02*
Y127000D01*
X24990D01*
X24761Y127851D01*
X24301Y128649D01*
X23649Y129301D01*
X22851Y129762D01*
X22000Y129990D01*
D02*
G37*
G36*
X21000D02*
X20149Y129762D01*
X19351Y129301D01*
X18699Y128649D01*
X18238Y127851D01*
X18011Y127000D01*
X21000D01*
Y129990D01*
D02*
G37*
G36*
X77680Y217905D02*
X76320D01*
X74986Y217640D01*
X73729Y217120D01*
X72598Y216364D01*
X71636Y215402D01*
X70880Y214271D01*
X70360Y213014D01*
X70095Y211680D01*
Y210320D01*
X70360Y208986D01*
X70880Y207729D01*
X71636Y206598D01*
X72598Y205636D01*
X73095Y205304D01*
X73144Y204807D01*
X42419Y174081D01*
X42087Y173585D01*
X41971Y173000D01*
Y133159D01*
X41351Y132801D01*
X40699Y132149D01*
X40238Y131351D01*
X40000Y130461D01*
Y129539D01*
X40238Y128649D01*
X40699Y127851D01*
X41351Y127199D01*
X42149Y126739D01*
X43039Y126500D01*
X43961D01*
X44851Y126739D01*
X45649Y127199D01*
X46301Y127851D01*
X46762Y128649D01*
X47000Y129539D01*
Y130461D01*
X46762Y131351D01*
X46301Y132149D01*
X45649Y132801D01*
X45029Y133159D01*
Y172366D01*
X76095Y203432D01*
X76427Y203928D01*
X76460Y204095D01*
X77680D01*
X79014Y204360D01*
X80271Y204880D01*
X81402Y205636D01*
X82364Y206598D01*
X83120Y207729D01*
X83640Y208986D01*
X83906Y210320D01*
Y211680D01*
X83640Y213014D01*
X83120Y214271D01*
X82364Y215402D01*
X81402Y216364D01*
X80271Y217120D01*
X79014Y217640D01*
X77680Y217905D01*
D02*
G37*
G36*
X161961Y131000D02*
X161039D01*
X160149Y130762D01*
X159351Y130301D01*
X158699Y129649D01*
X158238Y128851D01*
X158117Y128397D01*
X148867D01*
X148282Y128280D01*
X147786Y127949D01*
X144419Y124581D01*
X144087Y124085D01*
X143971Y123500D01*
Y121659D01*
X143351Y121301D01*
X142699Y120649D01*
X142238Y119851D01*
X142000Y118961D01*
Y118039D01*
X142238Y117149D01*
X142699Y116351D01*
X143351Y115699D01*
X144149Y115238D01*
X145039Y115000D01*
X145961D01*
X146851Y115238D01*
X147649Y115699D01*
X148301Y116351D01*
X148761Y117149D01*
X149000Y118039D01*
Y118961D01*
X148761Y119851D01*
X148301Y120649D01*
X147649Y121301D01*
X147029Y121659D01*
Y122866D01*
X149501Y125338D01*
X158712D01*
X159351Y124699D01*
X160149Y124239D01*
X161039Y124000D01*
X161961D01*
X162851Y124239D01*
X163649Y124699D01*
X164301Y125351D01*
X164761Y126149D01*
X165000Y127039D01*
Y127961D01*
X164761Y128851D01*
X164301Y129649D01*
X163649Y130301D01*
X162851Y130762D01*
X161961Y131000D01*
D02*
G37*
G36*
X24990Y126000D02*
X22000D01*
Y123011D01*
X22851Y123239D01*
X23649Y123699D01*
X24301Y124351D01*
X24761Y125149D01*
X24990Y126000D01*
D02*
G37*
G36*
X21000D02*
X18011D01*
X18238Y125149D01*
X18699Y124351D01*
X19351Y123699D01*
X20149Y123239D01*
X21000Y123011D01*
Y126000D01*
D02*
G37*
G36*
X163461Y118500D02*
X162539D01*
X161649Y118262D01*
X160851Y117801D01*
X160199Y117149D01*
X159739Y116351D01*
X159500Y115461D01*
Y114539D01*
X159670Y113903D01*
X159347Y113529D01*
X135652D01*
X135330Y113903D01*
X135500Y114539D01*
Y115461D01*
X135261Y116351D01*
X134801Y117149D01*
X134149Y117801D01*
X133351Y118262D01*
X132461Y118500D01*
X131539D01*
X130649Y118262D01*
X129851Y117801D01*
X129199Y117149D01*
X128738Y116351D01*
X128500Y115461D01*
Y114539D01*
X128738Y113649D01*
X129199Y112851D01*
X129851Y112199D01*
X130649Y111739D01*
X131539Y111500D01*
X132461D01*
X133152Y111685D01*
X133919Y110919D01*
X134415Y110587D01*
X135000Y110471D01*
X160000D01*
X160585Y110587D01*
X161081Y110919D01*
X161848Y111685D01*
X162539Y111500D01*
X163461D01*
X164351Y111739D01*
X165149Y112199D01*
X165801Y112851D01*
X166261Y113649D01*
X166500Y114539D01*
Y115461D01*
X166261Y116351D01*
X165801Y117149D01*
X165149Y117801D01*
X164351Y118262D01*
X163461Y118500D01*
D02*
G37*
G36*
X124000Y79489D02*
Y76500D01*
X126989D01*
X126761Y77351D01*
X126301Y78149D01*
X125649Y78801D01*
X124851Y79261D01*
X124000Y79489D01*
D02*
G37*
G36*
X123000D02*
X122149Y79261D01*
X121351Y78801D01*
X120699Y78149D01*
X120238Y77351D01*
X120010Y76500D01*
X123000D01*
Y79489D01*
D02*
G37*
G36*
X126989Y75500D02*
X124000D01*
Y72510D01*
X124851Y72738D01*
X125649Y73199D01*
X126301Y73851D01*
X126761Y74649D01*
X126989Y75500D01*
D02*
G37*
G36*
X123000D02*
X120010D01*
X120238Y74649D01*
X120699Y73851D01*
X121351Y73199D01*
X122149Y72738D01*
X123000Y72510D01*
Y75500D01*
D02*
G37*
G36*
X205680Y25405D02*
X205500D01*
Y19000D01*
X211906D01*
Y19180D01*
X211640Y20514D01*
X211120Y21771D01*
X210364Y22902D01*
X209402Y23864D01*
X208271Y24620D01*
X207014Y25140D01*
X205680Y25405D01*
D02*
G37*
G36*
X204500D02*
X204320D01*
X202986Y25140D01*
X201729Y24620D01*
X200598Y23864D01*
X199636Y22902D01*
X198880Y21771D01*
X198360Y20514D01*
X198094Y19180D01*
Y19000D01*
X204500D01*
Y25405D01*
D02*
G37*
G36*
X68680Y31405D02*
X67320D01*
X65986Y31140D01*
X64729Y30620D01*
X63598Y29864D01*
X62636Y28902D01*
X61880Y27771D01*
X61360Y26514D01*
X61094Y25180D01*
Y23820D01*
X61360Y22486D01*
X61880Y21229D01*
X62636Y20098D01*
X63598Y19136D01*
X64729Y18380D01*
X65986Y17860D01*
X67320Y17594D01*
X68680D01*
X70014Y17860D01*
X71271Y18380D01*
X72402Y19136D01*
X73364Y20098D01*
X74120Y21229D01*
X74640Y22486D01*
X74906Y23820D01*
Y25180D01*
X74640Y26514D01*
X74120Y27771D01*
X73364Y28902D01*
X72402Y29864D01*
X71271Y30620D01*
X70014Y31140D01*
X68680Y31405D01*
D02*
G37*
G36*
X52680D02*
X51320D01*
X49986Y31140D01*
X48729Y30620D01*
X47598Y29864D01*
X46636Y28902D01*
X45880Y27771D01*
X45360Y26514D01*
X45094Y25180D01*
Y23820D01*
X45360Y22486D01*
X45880Y21229D01*
X46636Y20098D01*
X47598Y19136D01*
X48729Y18380D01*
X49986Y17860D01*
X51320Y17594D01*
X52680D01*
X54014Y17860D01*
X55271Y18380D01*
X56402Y19136D01*
X57364Y20098D01*
X58120Y21229D01*
X58640Y22486D01*
X58906Y23820D01*
Y25180D01*
X58640Y26514D01*
X58120Y27771D01*
X57364Y28902D01*
X56402Y29864D01*
X55271Y30620D01*
X54014Y31140D01*
X52680Y31405D01*
D02*
G37*
G36*
X112000Y18489D02*
Y15500D01*
X114989D01*
X114761Y16351D01*
X114301Y17149D01*
X113649Y17801D01*
X112851Y18261D01*
X112000Y18489D01*
D02*
G37*
G36*
X111000D02*
X110149Y18261D01*
X109351Y17801D01*
X108699Y17149D01*
X108238Y16351D01*
X108010Y15500D01*
X111000D01*
Y18489D01*
D02*
G37*
G36*
X221680Y25405D02*
X220320D01*
X218986Y25140D01*
X217729Y24620D01*
X216598Y23864D01*
X215636Y22902D01*
X214880Y21771D01*
X214360Y20514D01*
X214094Y19180D01*
Y17820D01*
X214360Y16486D01*
X214880Y15229D01*
X215636Y14098D01*
X216598Y13136D01*
X217729Y12380D01*
X218986Y11860D01*
X220320Y11594D01*
X221680D01*
X223014Y11860D01*
X224271Y12380D01*
X225402Y13136D01*
X226364Y14098D01*
X227120Y15229D01*
X227640Y16486D01*
X227906Y17820D01*
Y19180D01*
X227640Y20514D01*
X227120Y21771D01*
X226364Y22902D01*
X225402Y23864D01*
X224271Y24620D01*
X223014Y25140D01*
X221680Y25405D01*
D02*
G37*
G36*
X211906Y18000D02*
X205500D01*
Y11594D01*
X205680D01*
X207014Y11860D01*
X208271Y12380D01*
X209402Y13136D01*
X210364Y14098D01*
X211120Y15229D01*
X211640Y16486D01*
X211906Y17820D01*
Y18000D01*
D02*
G37*
G36*
X204500D02*
X198094D01*
Y17820D01*
X198360Y16486D01*
X198880Y15229D01*
X199636Y14098D01*
X200598Y13136D01*
X201729Y12380D01*
X202986Y11860D01*
X204320Y11594D01*
X204500D01*
Y18000D01*
D02*
G37*
G36*
X114989Y14500D02*
X112000D01*
Y11511D01*
X112851Y11738D01*
X113649Y12199D01*
X114301Y12851D01*
X114761Y13649D01*
X114989Y14500D01*
D02*
G37*
G36*
X111000D02*
X108010D01*
X108238Y13649D01*
X108699Y12851D01*
X109351Y12199D01*
X110149Y11738D01*
X111000Y11511D01*
Y14500D01*
D02*
G37*
%LPD*%
D10*
X109500Y167000D02*
X139500D01*
X72500D02*
X109500D01*
X105500Y163000D02*
X109500Y167000D01*
X105500Y155000D02*
Y163000D01*
X154000Y143000D02*
X163500D01*
X164000Y142500D01*
X135500Y124500D02*
X154000Y143000D01*
X135000Y112000D02*
X160000D01*
X163000Y115000D01*
X132000D02*
X135000Y112000D01*
X148867Y126867D02*
X160867D01*
X161500Y127500D01*
X145500Y123500D02*
X148867Y126867D01*
X145500Y118500D02*
Y123500D01*
X181500Y106500D02*
X185500D01*
X213000Y134000D01*
X75014Y209014D02*
X77000Y211000D01*
X43500Y173000D02*
X75014Y204514D01*
Y209014D01*
X43500Y130000D02*
Y173000D01*
X159500Y187000D02*
Y211500D01*
X139500Y167000D02*
X159500Y187000D01*
D41*
X255000Y228000D02*
D03*
X4500D02*
D03*
Y1000D02*
D03*
X256500Y2000D02*
D03*
D42*
X221000Y18500D02*
D03*
X205000D02*
D03*
X159500Y211500D02*
D03*
X143500D02*
D03*
X77000Y211000D02*
D03*
X61000D02*
D03*
X52000Y24500D02*
D03*
X68000D02*
D03*
D43*
X100500Y140500D02*
D03*
X105500Y155000D02*
D03*
X164000Y142500D02*
D03*
X163000Y115000D02*
D03*
X132000D02*
D03*
X135500Y124500D02*
D03*
X161500Y127500D02*
D03*
X145500Y118500D02*
D03*
X128000Y131500D02*
D03*
X123500Y76000D02*
D03*
X213000Y134000D02*
D03*
X181063Y106500D02*
D03*
X72500Y167000D02*
D03*
X43500Y130000D02*
D03*
X111500Y15000D02*
D03*
X21500Y126500D02*
D03*
M02*
