G04*
G04 #@! TF.GenerationSoftware,Altium Limited,Altium Designer,22.1.2 (22)*
G04*
G04 Layer_Color=8388736*
%FSLAX25Y25*%
%MOIN*%
G70*
G04*
G04 #@! TF.SameCoordinates,85E22B33-0606-49F9-AEB4-7B2C3894542D*
G04*
G04*
G04 #@! TF.FilePolarity,Negative*
G04*
G01*
G75*
%ADD26C,0.03800*%
%ADD27O,0.04147X0.06509*%
%ADD28R,0.04343X0.06115*%
%ADD29R,0.06115X0.04343*%
%ADD30R,0.10642X0.17139*%
%ADD31R,0.07690X0.06509*%
%ADD32O,0.08280X0.02178*%
%ADD33R,0.04934X0.06312*%
%ADD34R,0.06509X0.07690*%
%ADD35C,0.17729*%
%ADD36C,0.12611*%
%ADD37C,0.05800*%
D26*
X171500Y84500D02*
D03*
X99000Y211000D02*
D03*
X64500Y158500D02*
D03*
X179000Y59500D02*
D03*
X69000Y126000D02*
D03*
X167500Y107000D02*
D03*
X35500Y96500D02*
D03*
X23000Y24500D02*
D03*
X215500Y101500D02*
D03*
X41000Y159500D02*
D03*
X90500Y24500D02*
D03*
X43000Y75500D02*
D03*
X133000Y86500D02*
D03*
X180000Y211500D02*
D03*
D27*
X191000Y68575D02*
D03*
X196000D02*
D03*
X201000D02*
D03*
X206000D02*
D03*
X191000Y90425D02*
D03*
X196000D02*
D03*
X201000D02*
D03*
X206000D02*
D03*
X176000Y138075D02*
D03*
X181000D02*
D03*
X186000D02*
D03*
X191000D02*
D03*
X176000Y159925D02*
D03*
X181000D02*
D03*
X186000D02*
D03*
X191000D02*
D03*
X156000Y83925D02*
D03*
X151000D02*
D03*
X146000D02*
D03*
X141000D02*
D03*
X156000Y62075D02*
D03*
X151000D02*
D03*
X146000D02*
D03*
X141000D02*
D03*
X150000Y158425D02*
D03*
X145000D02*
D03*
X140000D02*
D03*
X135000D02*
D03*
X150000Y136575D02*
D03*
X145000D02*
D03*
X140000D02*
D03*
X135000D02*
D03*
D28*
X178500Y117500D02*
D03*
X170626D02*
D03*
X138000Y96000D02*
D03*
X130126D02*
D03*
X57437Y150500D02*
D03*
X49563D02*
D03*
X64563D02*
D03*
X72437D02*
D03*
D29*
X49500Y75437D02*
D03*
Y67563D02*
D03*
Y107063D02*
D03*
Y114937D02*
D03*
Y95937D02*
D03*
Y88063D02*
D03*
D30*
X160000Y11169D02*
D03*
Y44831D02*
D03*
D31*
X78500Y138012D02*
D03*
Y126988D02*
D03*
D32*
X91248Y122250D02*
D03*
Y119750D02*
D03*
Y117250D02*
D03*
Y114750D02*
D03*
Y112250D02*
D03*
Y109750D02*
D03*
Y107250D02*
D03*
Y104750D02*
D03*
Y102250D02*
D03*
Y99750D02*
D03*
Y97250D02*
D03*
Y94750D02*
D03*
X109752Y122250D02*
D03*
Y119750D02*
D03*
Y117250D02*
D03*
Y114750D02*
D03*
Y112250D02*
D03*
Y109750D02*
D03*
Y107250D02*
D03*
Y104750D02*
D03*
Y102250D02*
D03*
Y99750D02*
D03*
Y97250D02*
D03*
Y94750D02*
D03*
D33*
X121020Y125500D02*
D03*
X128500D02*
D03*
X112000Y132000D02*
D03*
X104520D02*
D03*
D34*
X40512Y151000D02*
D03*
X29488D02*
D03*
X90012Y180000D02*
D03*
X78988D02*
D03*
D35*
X255000Y228000D02*
D03*
X4500D02*
D03*
Y1000D02*
D03*
X256500Y2000D02*
D03*
D36*
X221000Y18500D02*
D03*
X205000D02*
D03*
X159500Y211500D02*
D03*
X143500D02*
D03*
X77000Y211000D02*
D03*
X61000D02*
D03*
X52000Y24500D02*
D03*
X68000D02*
D03*
D37*
X100500Y140500D02*
D03*
X105500Y155000D02*
D03*
X164000Y142500D02*
D03*
X163000Y115000D02*
D03*
X132000D02*
D03*
X135500Y124500D02*
D03*
X161500Y127500D02*
D03*
X145500Y118500D02*
D03*
X128000Y131500D02*
D03*
X123500Y76000D02*
D03*
X213000Y134000D02*
D03*
X181063Y106500D02*
D03*
X72500Y167000D02*
D03*
X43500Y130000D02*
D03*
X111500Y15000D02*
D03*
X21500Y126500D02*
D03*
M02*
