G04*
G04 #@! TF.GenerationSoftware,Altium Limited,Altium Designer,22.1.2 (22)*
G04*
G04 Layer_Color=16711935*
%FSLAX25Y25*%
%MOIN*%
G70*
G04*
G04 #@! TF.SameCoordinates,85E22B33-0606-49F9-AEB4-7B2C3894542D*
G04*
G04*
G04 #@! TF.FilePolarity,Positive*
G04*
G01*
G75*
%ADD45C,0.00394*%
D45*
X207161Y84028D02*
G03*
X207161Y84028I-1969J0D01*
G01*
X178776Y144472D02*
G03*
X178776Y144472I-1969J0D01*
G01*
X157161Y77528D02*
G03*
X157161Y77528I-1969J0D01*
G01*
X98138Y122083D02*
G03*
X98138Y122083I-1969J0D01*
G01*
X137776Y142972D02*
G03*
X137776Y142972I-1969J0D01*
G01*
X188264Y71429D02*
Y87571D01*
X208736Y71429D02*
Y87571D01*
X188264Y71429D02*
X208736D01*
X188264Y87571D02*
X208736D01*
X170232Y114842D02*
X178894D01*
X170232Y120158D02*
X178894D01*
Y114842D02*
Y120158D01*
X170232Y114842D02*
Y120158D01*
X173264Y140929D02*
X193736D01*
X173264Y157071D02*
X193736D01*
X173264Y140929D02*
Y157071D01*
X193736Y140929D02*
Y157071D01*
X52157Y67169D02*
Y75831D01*
X46843Y67169D02*
Y75831D01*
X52157D01*
X46843Y67169D02*
X52157D01*
X129732Y93343D02*
X138394D01*
X129732Y98658D02*
X138394D01*
Y93343D02*
Y98658D01*
X129732Y93343D02*
Y98658D01*
X138264Y81071D02*
X158736D01*
X138264Y64929D02*
X158736D01*
Y81071D01*
X138264Y64929D02*
Y81071D01*
X46843Y106669D02*
Y115331D01*
X52157Y106669D02*
Y115331D01*
X46843Y106669D02*
X52157D01*
X46843Y115331D02*
X52157D01*
X75055Y139488D02*
X81945D01*
X75055Y125512D02*
X81945D01*
Y139488D01*
X75055Y125512D02*
Y139488D01*
X52157Y87669D02*
Y96331D01*
X46843Y87669D02*
Y96331D01*
X52157D01*
X46843Y87669D02*
X52157D01*
X49169Y147843D02*
X57831D01*
X49169Y153157D02*
X57831D01*
Y147843D02*
Y153157D01*
X49169Y147843D02*
Y153157D01*
X64169D02*
X72831D01*
X64169Y147843D02*
X72831D01*
X64169D02*
Y153157D01*
X72831Y147843D02*
Y153157D01*
X92626Y91374D02*
Y125626D01*
X108374Y91374D02*
Y125626D01*
X92626D02*
X108374D01*
X92626Y91374D02*
X108374D01*
X120429Y122843D02*
Y128157D01*
X129091Y122843D02*
Y128157D01*
X120429D02*
X129091D01*
X120429Y122843D02*
X129091D01*
X112591Y129342D02*
Y134658D01*
X103929Y129342D02*
Y134658D01*
Y129342D02*
X112591D01*
X103929Y134658D02*
X112591D01*
X152736Y139429D02*
Y155571D01*
X132264Y139429D02*
Y155571D01*
X152736D01*
X132264Y139429D02*
X152736D01*
X28012Y147555D02*
X41988D01*
X28012Y154445D02*
X41988D01*
Y147555D02*
Y154445D01*
X28012Y147555D02*
Y154445D01*
X77512Y176555D02*
X91488D01*
X77512Y183445D02*
X91488D01*
Y176555D02*
Y183445D01*
X77512Y176555D02*
Y183445D01*
M02*
