G04*
G04 #@! TF.GenerationSoftware,Altium Limited,Altium Designer,22.1.2 (22)*
G04*
G04 Layer_Color=32768*
%FSLAX25Y25*%
%MOIN*%
G70*
G04*
G04 #@! TF.SameCoordinates,85E22B33-0606-49F9-AEB4-7B2C3894542D*
G04*
G04*
G04 #@! TF.FilePolarity,Positive*
G04*
G01*
G75*
%ADD45C,0.00394*%
%ADD46C,0.00197*%
D45*
X196531Y79500D02*
X200468D01*
X198500Y77531D02*
Y81468D01*
X174563Y115532D02*
Y119468D01*
X172594Y117500D02*
X176532D01*
X183500Y147031D02*
Y150969D01*
X181532Y149000D02*
X185468D01*
X47532Y71500D02*
X51468D01*
X49500Y69532D02*
Y73469D01*
X134063Y94032D02*
Y97969D01*
X132095Y96000D02*
X136031D01*
X148500Y71031D02*
Y74968D01*
X146531Y73000D02*
X150469D01*
X47532Y111000D02*
X51468D01*
X49500Y109031D02*
Y112969D01*
X78500Y130532D02*
Y134468D01*
X76531Y132500D02*
X80468D01*
X47532Y92000D02*
X51468D01*
X49500Y90031D02*
Y93968D01*
X53500Y148531D02*
Y152469D01*
X51531Y150500D02*
X55468D01*
X68500Y148531D02*
Y152469D01*
X66531Y150500D02*
X70468D01*
X98532Y108500D02*
X102469D01*
X100500Y106532D02*
Y110468D01*
X122791Y125500D02*
X126728D01*
X124760Y123531D02*
Y127469D01*
X106291Y132000D02*
X110228D01*
X108260Y130032D02*
Y133968D01*
X140532Y147500D02*
X144468D01*
X142500Y145531D02*
Y149469D01*
X35000Y149031D02*
Y152969D01*
X33031Y151000D02*
X36968D01*
X84500Y178032D02*
Y181968D01*
X82531Y180000D02*
X86468D01*
D46*
X187279Y64736D02*
Y94264D01*
X209720Y64736D02*
Y94264D01*
X187279Y64736D02*
X209720D01*
X187279Y94264D02*
X209720D01*
X167870Y113760D02*
X181256D01*
X167870Y121240D02*
X181256D01*
Y113760D02*
Y121240D01*
X167870Y113760D02*
Y121240D01*
X172280Y134236D02*
X194720D01*
X172280Y163764D02*
X194720D01*
X172280Y134236D02*
Y163764D01*
X194720Y134236D02*
Y163764D01*
X53240Y64807D02*
Y78193D01*
X45760Y64807D02*
Y78193D01*
X53240D01*
X45760Y64807D02*
X53240D01*
X127370Y92260D02*
X140756D01*
X127370Y99740D02*
X140756D01*
Y92260D02*
Y99740D01*
X127370Y92260D02*
Y99740D01*
X137279Y87764D02*
X159721D01*
X137279Y58236D02*
X159721D01*
Y87764D01*
X137279Y58236D02*
Y87764D01*
X45760Y104307D02*
Y117693D01*
X53240Y104307D02*
Y117693D01*
X45760Y104307D02*
X53240D01*
X45760Y117693D02*
X53240D01*
X73972Y141949D02*
X83028D01*
X73972Y123051D02*
X83028D01*
Y141949D01*
X73972Y123051D02*
Y141949D01*
X53240Y85307D02*
Y98693D01*
X45760Y85307D02*
Y98693D01*
X53240D01*
X45760Y85307D02*
X53240D01*
X46807Y146760D02*
X60193D01*
X46807Y154240D02*
X60193D01*
Y146760D02*
Y154240D01*
X46807Y146760D02*
Y154240D01*
X61807D02*
X75193D01*
X61807Y146760D02*
X75193D01*
X61807D02*
Y154240D01*
X75193Y146760D02*
Y154240D01*
X87114Y90784D02*
Y126216D01*
X113886Y90784D02*
Y126216D01*
X87114D02*
X113886D01*
X87114Y90784D02*
X113886D01*
X118067Y121760D02*
Y129240D01*
X131453Y121760D02*
Y129240D01*
X118067D02*
X131453D01*
X118067Y121760D02*
X131453D01*
X114953Y128260D02*
Y135740D01*
X101567Y128260D02*
Y135740D01*
Y128260D02*
X114953D01*
X101567Y135740D02*
X114953D01*
X153720Y132736D02*
Y162264D01*
X131280Y132736D02*
Y162264D01*
X153720D01*
X131280Y132736D02*
X153720D01*
X25551Y146472D02*
X44449D01*
X25551Y155528D02*
X44449D01*
Y146472D02*
Y155528D01*
X25551Y146472D02*
Y155528D01*
X75051Y175472D02*
X93949D01*
X75051Y184528D02*
X93949D01*
Y175472D02*
Y184528D01*
X75051Y175472D02*
Y184528D01*
M02*
