G04*
G04 #@! TF.GenerationSoftware,Altium Limited,Altium Designer,22.1.2 (22)*
G04*
G04 Layer_Color=8421504*
%FSLAX25Y25*%
%MOIN*%
G70*
G04*
G04 #@! TF.SameCoordinates,85E22B33-0606-49F9-AEB4-7B2C3894542D*
G04*
G04*
G04 #@! TF.FilePolarity,Positive*
G04*
G01*
G75*
%ADD17C,0.03000*%
%ADD18O,0.03347X0.05709*%
%ADD19R,0.03543X0.05315*%
%ADD20R,0.05315X0.03543*%
%ADD21R,0.09843X0.16339*%
%ADD22R,0.06890X0.05709*%
%ADD23O,0.07480X0.01378*%
%ADD24R,0.04134X0.05512*%
%ADD25R,0.05709X0.06890*%
D17*
X171500Y84500D02*
D03*
X99000Y211000D02*
D03*
X64500Y158500D02*
D03*
X179000Y59500D02*
D03*
X69000Y126000D02*
D03*
X167500Y107000D02*
D03*
X35500Y96500D02*
D03*
X23000Y24500D02*
D03*
X215500Y101500D02*
D03*
X41000Y159500D02*
D03*
X90500Y24500D02*
D03*
X43000Y75500D02*
D03*
X133000Y86500D02*
D03*
X180000Y211500D02*
D03*
D18*
X191000Y68575D02*
D03*
X196000D02*
D03*
X201000D02*
D03*
X206000D02*
D03*
X191000Y90425D02*
D03*
X196000D02*
D03*
X201000D02*
D03*
X206000D02*
D03*
X176000Y138075D02*
D03*
X181000D02*
D03*
X186000D02*
D03*
X191000D02*
D03*
X176000Y159925D02*
D03*
X181000D02*
D03*
X186000D02*
D03*
X191000D02*
D03*
X156000Y83925D02*
D03*
X151000D02*
D03*
X146000D02*
D03*
X141000D02*
D03*
X156000Y62075D02*
D03*
X151000D02*
D03*
X146000D02*
D03*
X141000D02*
D03*
X150000Y158425D02*
D03*
X145000D02*
D03*
X140000D02*
D03*
X135000D02*
D03*
X150000Y136575D02*
D03*
X145000D02*
D03*
X140000D02*
D03*
X135000D02*
D03*
D19*
X178500Y117500D02*
D03*
X170626D02*
D03*
X138000Y96000D02*
D03*
X130126D02*
D03*
X57437Y150500D02*
D03*
X49563D02*
D03*
X64563D02*
D03*
X72437D02*
D03*
D20*
X49500Y75437D02*
D03*
Y67563D02*
D03*
Y107063D02*
D03*
Y114937D02*
D03*
Y95937D02*
D03*
Y88063D02*
D03*
D21*
X160000Y11169D02*
D03*
Y44831D02*
D03*
D22*
X78500Y138012D02*
D03*
Y126988D02*
D03*
D23*
X91248Y122250D02*
D03*
Y119750D02*
D03*
Y117250D02*
D03*
Y114750D02*
D03*
Y112250D02*
D03*
Y109750D02*
D03*
Y107250D02*
D03*
Y104750D02*
D03*
Y102250D02*
D03*
Y99750D02*
D03*
Y97250D02*
D03*
Y94750D02*
D03*
X109752Y122250D02*
D03*
Y119750D02*
D03*
Y117250D02*
D03*
Y114750D02*
D03*
Y112250D02*
D03*
Y109750D02*
D03*
Y107250D02*
D03*
Y104750D02*
D03*
Y102250D02*
D03*
Y99750D02*
D03*
Y97250D02*
D03*
Y94750D02*
D03*
D24*
X121020Y125500D02*
D03*
X128500D02*
D03*
X112000Y132000D02*
D03*
X104520D02*
D03*
D25*
X40512Y151000D02*
D03*
X29488D02*
D03*
X90012Y180000D02*
D03*
X78988D02*
D03*
M02*
