G04*
G04 #@! TF.GenerationSoftware,Altium Limited,Altium Designer,22.1.2 (22)*
G04*
G04 Layer_Physical_Order=1*
G04 Layer_Color=255*
%FSLAX25Y25*%
%MOIN*%
G70*
G04*
G04 #@! TF.SameCoordinates,85E22B33-0606-49F9-AEB4-7B2C3894542D*
G04*
G04*
G04 #@! TF.FilePolarity,Positive*
G04*
G01*
G75*
%ADD10C,0.01000*%
%ADD17C,0.03000*%
%ADD18O,0.03347X0.05709*%
%ADD19R,0.03543X0.05315*%
%ADD20R,0.05315X0.03543*%
%ADD21R,0.09843X0.16339*%
%ADD22R,0.06890X0.05709*%
%ADD23O,0.07480X0.01378*%
%ADD24R,0.04134X0.05512*%
%ADD25R,0.05709X0.06890*%
%ADD38C,0.05000*%
%ADD39C,0.10000*%
%ADD40C,0.12000*%
%ADD41C,0.16929*%
%ADD42C,0.11811*%
%ADD43C,0.05000*%
D10*
X155000Y84241D02*
X155551Y84792D01*
X155000Y94500D02*
X165000Y84500D01*
X171500D01*
X105750Y155250D02*
X112000Y149000D01*
X100500Y140500D02*
X104520Y136480D01*
X203500Y104000D02*
X205000D01*
X203500Y111500D02*
X205500D01*
X215500Y101500D01*
X168425Y138075D02*
X176000D01*
X164000Y142500D02*
X168425Y138075D01*
X171000Y110500D02*
Y117500D01*
X163000Y115000D02*
X163657D01*
X166157Y117500D02*
X170626D01*
X163657Y115000D02*
X166157Y117500D01*
X179772Y115342D02*
X181063Y114051D01*
X178500Y116614D02*
X179772Y115342D01*
X178500Y116614D02*
Y117500D01*
X191000Y90425D02*
Y97000D01*
X181063Y106500D02*
Y114051D01*
X181500Y106500D02*
X191000Y97000D01*
X167500Y107000D02*
X171000Y110500D01*
X129250Y112250D02*
X132000Y115000D01*
X126061Y115061D02*
X135500Y124500D01*
X140500Y116500D02*
Y131075D01*
X130500Y106500D02*
X140500Y116500D01*
X136630Y134945D02*
X140500Y131075D01*
X161264Y127736D02*
Y131500D01*
Y127736D02*
X161500Y127500D01*
X156414Y136349D02*
X161264Y131500D01*
X150225Y136349D02*
X156414D01*
X150000Y136575D02*
X150225Y136349D01*
X138000Y96886D02*
X145500Y104386D01*
Y118500D01*
X135000Y136029D02*
Y136575D01*
X136084Y134945D02*
X136630D01*
X121828Y106500D02*
X130500D01*
X135000Y136029D02*
X136084Y134945D01*
X118889Y109439D02*
X121828Y106500D01*
X112905Y109750D02*
X113216Y109439D01*
X109752Y109750D02*
X112905D01*
X113216Y109439D02*
X118889D01*
X145000Y135500D02*
Y136575D01*
X109752Y112250D02*
X129250D01*
X112905Y114750D02*
X113216Y115061D01*
X126061D01*
X109752Y114750D02*
X112905D01*
X128000Y126000D02*
Y131500D01*
Y126000D02*
X128500Y125500D01*
X134000Y136575D02*
X135000D01*
X109752Y117250D02*
X122990D01*
X128611Y123285D02*
X130026D01*
X128570Y123244D02*
X128611Y123285D01*
X122990Y117250D02*
X129070Y123330D01*
X119000Y121500D02*
X120500D01*
X121520Y122520D01*
Y127000D01*
X155551Y84792D02*
Y86190D01*
X155000Y86741D02*
X155551Y86190D01*
X179000Y59500D02*
X191500Y47000D01*
Y44831D02*
Y47000D01*
X205169Y44831D02*
X206000Y45661D01*
X89512Y200012D02*
X90012Y199512D01*
Y180000D02*
Y199512D01*
X88500Y178488D02*
X90012Y180000D01*
X126675Y62075D02*
X141000D01*
X118000Y70750D02*
X126675Y62075D01*
X118000Y70750D02*
Y96500D01*
X123500Y76000D02*
Y94000D01*
X115250Y102250D02*
X123500Y94000D01*
X160000Y44831D02*
X162500Y47331D01*
X199500Y134000D02*
X213000D01*
X195425Y138075D02*
X199500Y134000D01*
X191000Y138075D02*
X195425D01*
X68000Y24500D02*
X90500D01*
X159500Y211500D02*
X180000D01*
X77000Y211000D02*
X99000D01*
X68000Y24500D02*
X84000Y40500D01*
X90250Y24250D02*
X90500Y24500D01*
X84000Y40500D02*
Y95000D01*
X72500Y150563D02*
Y167000D01*
X72437Y150500D02*
X72500Y150563D01*
X104520Y132000D02*
Y136480D01*
X79000Y138512D02*
Y180000D01*
X78988D02*
Y180591D01*
X61000Y198579D02*
X78988Y180591D01*
X61000Y198579D02*
Y211000D01*
X158680Y210680D02*
X159500Y211500D01*
X112000Y132000D02*
Y149000D01*
X84500Y120500D02*
Y154500D01*
X88500Y158500D02*
Y178488D01*
X84500Y154500D02*
X88500Y158500D01*
X49500Y114937D02*
Y124000D01*
X43500Y130000D02*
X49500Y124000D01*
X49563Y128937D02*
X66250Y112250D01*
X49563Y128937D02*
Y150500D01*
X66250Y112250D02*
X91248D01*
X64500Y150563D02*
X64563Y150500D01*
X64500Y150563D02*
Y158500D01*
X41000Y151488D02*
Y159500D01*
X40512Y151000D02*
X41000Y151488D01*
X117250Y153250D02*
X122500Y158500D01*
X117250Y119750D02*
Y153250D01*
Y119750D02*
X119000Y121500D01*
X138000Y95114D02*
Y96886D01*
X118250Y107250D02*
X129813Y95687D01*
X130126Y89374D02*
Y96000D01*
Y89374D02*
X133000Y86500D01*
X43000Y75500D02*
X49437D01*
X49500Y75437D01*
X21500Y87500D02*
Y126500D01*
Y87500D02*
X41437Y67563D01*
X49500D02*
X65063D01*
X41437D02*
X49500D01*
X35500Y96500D02*
X48937D01*
X49500Y95937D01*
X69000Y126000D02*
X77512D01*
X78500Y126988D01*
X58000Y129000D02*
Y142500D01*
X64563Y149063D01*
X58000Y129000D02*
X72250Y114750D01*
X64563Y149063D02*
Y150500D01*
X72250Y114750D02*
X91248D01*
X49500Y88063D02*
X62063D01*
X81250Y107250D01*
X84000Y95000D02*
X86250Y97250D01*
X52500Y24500D02*
Y40500D01*
X80000Y68000D02*
Y94000D01*
X52500Y40500D02*
X80000Y68000D01*
X23000Y24500D02*
X52500D01*
X86250Y97250D02*
X91248D01*
X80000Y94000D02*
X85750Y99750D01*
X91248D01*
X91176Y99678D02*
X91248Y99750D01*
X138000Y95114D02*
X141000Y92114D01*
Y83925D02*
Y92114D01*
X109752Y107250D02*
X118250D01*
X109752Y102250D02*
X115250D01*
X114750Y99750D02*
X118000Y96500D01*
X109752Y99750D02*
X114750D01*
X21500Y126500D02*
Y142421D01*
X109752Y119750D02*
X117250D01*
X78500Y138012D02*
X79000Y138512D01*
X29488Y150409D02*
Y151000D01*
X21500Y142421D02*
X29488Y150409D01*
X109752Y17830D02*
X111500Y16082D01*
X109752Y17830D02*
Y94750D01*
X111500Y15000D02*
Y16082D01*
X115331Y11169D02*
X160000D01*
X111500Y15000D02*
X115331Y11169D01*
X109752Y102250D02*
Y104750D01*
X74000Y76500D02*
Y91500D01*
X65063Y67563D02*
X74000Y76500D01*
Y91500D02*
X84750Y102250D01*
X91248D01*
Y104750D01*
X85250Y119750D02*
X91248D01*
X84500Y120500D02*
X85250Y119750D01*
X57437Y150500D02*
X63927D01*
X78500Y120500D02*
X81750Y117250D01*
X91248D01*
X78500Y120500D02*
Y126988D01*
X49500Y107063D02*
X74405D01*
X77092Y109750D01*
X81250Y107250D02*
X91248D01*
X41012Y150500D02*
X49563D01*
X40512Y151000D02*
X41012Y150500D01*
X77092Y109750D02*
X91248D01*
X176000Y159925D02*
X181000D01*
X49500Y75437D02*
Y88063D01*
Y95937D02*
Y107063D01*
X109752Y122250D02*
X111825D01*
X112000Y122425D02*
Y132000D01*
X111825Y122250D02*
X112000Y122425D01*
X122500Y158500D02*
X134925D01*
X135000Y158425D01*
D17*
X171500Y84500D02*
D03*
X99000Y211000D02*
D03*
X64500Y158500D02*
D03*
X179000Y59500D02*
D03*
X69000Y126000D02*
D03*
X167500Y107000D02*
D03*
X35500Y96500D02*
D03*
X23000Y24500D02*
D03*
X215500Y101500D02*
D03*
X41000Y159500D02*
D03*
X90500Y24500D02*
D03*
X43000Y75500D02*
D03*
X133000Y86500D02*
D03*
X180000Y211500D02*
D03*
D18*
X191000Y68575D02*
D03*
X196000D02*
D03*
X201000D02*
D03*
X206000D02*
D03*
X191000Y90425D02*
D03*
X196000D02*
D03*
X201000D02*
D03*
X206000D02*
D03*
X176000Y138075D02*
D03*
X181000D02*
D03*
X186000D02*
D03*
X191000D02*
D03*
X176000Y159925D02*
D03*
X181000D02*
D03*
X186000D02*
D03*
X191000D02*
D03*
X156000Y83925D02*
D03*
X151000D02*
D03*
X146000D02*
D03*
X141000D02*
D03*
X156000Y62075D02*
D03*
X151000D02*
D03*
X146000D02*
D03*
X141000D02*
D03*
X150000Y158425D02*
D03*
X145000D02*
D03*
X140000D02*
D03*
X135000D02*
D03*
X150000Y136575D02*
D03*
X145000D02*
D03*
X140000D02*
D03*
X135000D02*
D03*
D19*
X178500Y117500D02*
D03*
X170626D02*
D03*
X138000Y96000D02*
D03*
X130126D02*
D03*
X57437Y150500D02*
D03*
X49563D02*
D03*
X64563D02*
D03*
X72437D02*
D03*
D20*
X49500Y75437D02*
D03*
Y67563D02*
D03*
Y107063D02*
D03*
Y114937D02*
D03*
Y95937D02*
D03*
Y88063D02*
D03*
D21*
X160000Y11169D02*
D03*
Y44831D02*
D03*
D22*
X78500Y138012D02*
D03*
Y126988D02*
D03*
D23*
X91248Y122250D02*
D03*
Y119750D02*
D03*
Y117250D02*
D03*
Y114750D02*
D03*
Y112250D02*
D03*
Y109750D02*
D03*
Y107250D02*
D03*
Y104750D02*
D03*
Y102250D02*
D03*
Y99750D02*
D03*
Y97250D02*
D03*
Y94750D02*
D03*
X109752Y122250D02*
D03*
Y119750D02*
D03*
Y117250D02*
D03*
Y114750D02*
D03*
Y112250D02*
D03*
Y109750D02*
D03*
Y107250D02*
D03*
Y104750D02*
D03*
Y102250D02*
D03*
Y99750D02*
D03*
Y97250D02*
D03*
Y94750D02*
D03*
D24*
X121020Y125500D02*
D03*
X128500D02*
D03*
X112000Y132000D02*
D03*
X104520D02*
D03*
D25*
X40512Y151000D02*
D03*
X29488D02*
D03*
X90012Y180000D02*
D03*
X78988D02*
D03*
D38*
X140750Y136250D02*
X155000Y122000D01*
X151000Y61901D02*
X156000D01*
X146000D02*
X151000D01*
X142000D02*
X146000D01*
X155000Y94500D02*
Y122000D01*
Y86741D02*
Y94500D01*
X135000Y136575D02*
X140000D01*
X144000D01*
X203500Y90425D02*
X206000D01*
X201000D02*
X203500D01*
X181000Y138075D02*
X185173D01*
X176000D02*
X181000D01*
X135000Y158425D02*
X140000D01*
X197000Y90425D02*
X201000D01*
X151000Y83925D02*
X156000D01*
X147000D02*
X151000D01*
X201000Y68575D02*
X206000D01*
X196000D02*
X201000D01*
X191000D02*
X196000D01*
X186000Y159925D02*
X191000D01*
X181000D02*
X186000D01*
X145000Y158425D02*
X150000D01*
X140000D02*
X145000D01*
D39*
X195669Y44831D02*
X220094Y20405D01*
Y19896D02*
Y20405D01*
Y19896D02*
X221837Y18154D01*
X206000Y45661D02*
Y68575D01*
X176000Y159925D02*
Y195000D01*
X203500Y104000D02*
Y111500D01*
Y90425D02*
Y104000D01*
X137142Y184000D02*
X143000Y178142D01*
X90012Y199512D02*
X105524Y184000D01*
X143000Y160425D02*
Y178142D01*
X105524Y184000D02*
X137142D01*
X78870Y210653D02*
X89512Y200012D01*
X77346Y210653D02*
X78870D01*
X77000Y211000D02*
X77346Y210653D01*
X159500Y52599D02*
Y61500D01*
Y52599D02*
X160000Y52099D01*
Y44831D02*
Y52099D01*
X181500Y133500D02*
Y136000D01*
Y133500D02*
X203500Y111500D01*
X159500Y211500D02*
X176000Y195000D01*
D40*
X191500Y44831D02*
X205169D01*
X160000D02*
X191500D01*
D41*
X255000Y228000D02*
D03*
X4500D02*
D03*
Y1000D02*
D03*
X256500Y2000D02*
D03*
D42*
X221000Y18500D02*
D03*
X205000D02*
D03*
X159500Y211500D02*
D03*
X143500D02*
D03*
X77000Y211000D02*
D03*
X61000D02*
D03*
X52000Y24500D02*
D03*
X68000D02*
D03*
D43*
X100500Y140500D02*
D03*
X105500Y155000D02*
D03*
X164000Y142500D02*
D03*
X163000Y115000D02*
D03*
X132000D02*
D03*
X135500Y124500D02*
D03*
X161500Y127500D02*
D03*
X145500Y118500D02*
D03*
X128000Y131500D02*
D03*
X123500Y76000D02*
D03*
X213000Y134000D02*
D03*
X181063Y106500D02*
D03*
X72500Y167000D02*
D03*
X43500Y130000D02*
D03*
X111500Y15000D02*
D03*
X21500Y126500D02*
D03*
M02*
