G04*
G04 #@! TF.GenerationSoftware,Altium Limited,Altium Designer,21.6.4 (81)*
G04*
G04 Layer_Color=16711935*
%FSLAX23Y23*%
%MOIN*%
G70*
G04*
G04 #@! TF.SameCoordinates,B6067EDE-423B-4814-945A-A302FF207E3A*
G04*
G04*
G04 #@! TF.FilePolarity,Negative*
G04*
G01*
G75*
%ADD52C,0.038*%
%ADD64C,0.177*%
%ADD65C,0.323*%
%ADD66C,0.078*%
%ADD67C,0.165*%
%ADD68C,0.087*%
%ADD69C,0.134*%
%ADD70C,0.102*%
%ADD71C,0.156*%
%ADD72C,0.158*%
%ADD73C,0.110*%
%ADD74C,0.181*%
D52*
X6570Y4267D02*
D03*
X6801Y4311D02*
D03*
X6398Y3947D02*
D03*
X6496D02*
D03*
X6634Y3996D02*
D03*
X6358Y4114D02*
D03*
X6585Y4055D02*
D03*
X6211Y4390D02*
D03*
X6190Y4055D02*
D03*
X6713Y3996D02*
D03*
X6535D02*
D03*
X6309Y4055D02*
D03*
X6752D02*
D03*
X6663D02*
D03*
X6526Y4114D02*
D03*
X6437D02*
D03*
X6348Y3996D02*
D03*
X7146Y4154D02*
D03*
X6299Y2618D02*
D03*
X6870Y2352D02*
D03*
X5846Y2096D02*
D03*
X6093Y2283D02*
D03*
X5128Y2470D02*
D03*
X7136Y2264D02*
D03*
X7628Y2224D02*
D03*
X6230Y4469D02*
D03*
X6083Y4596D02*
D03*
X6161Y4124D02*
D03*
X6699Y3635D02*
D03*
X6880Y3986D02*
D03*
X6398Y4055D02*
D03*
X6486D02*
D03*
X6083Y4400D02*
D03*
X6624Y3799D02*
D03*
X6594Y3947D02*
D03*
X6447Y3996D02*
D03*
D64*
X9626Y5413D02*
D03*
X217Y217D02*
D03*
X9626D02*
D03*
X217Y5413D02*
D03*
D65*
X3071Y1142D02*
D03*
X382D02*
D03*
X4488Y3043D02*
D03*
Y354D02*
D03*
X8661Y3043D02*
D03*
Y354D02*
D03*
D66*
X311Y1736D02*
D03*
Y1854D02*
D03*
X7539Y374D02*
D03*
Y256D02*
D03*
X1870Y2421D02*
D03*
Y2539D02*
D03*
X5709Y409D02*
D03*
Y291D02*
D03*
X7777Y3602D02*
D03*
Y3484D02*
D03*
X7659Y3602D02*
D03*
Y3484D02*
D03*
X5513Y3602D02*
D03*
Y3484D02*
D03*
X5395Y3602D02*
D03*
Y3484D02*
D03*
X8179Y5187D02*
D03*
X8061D02*
D03*
Y5305D02*
D03*
X8179D02*
D03*
X7943D02*
D03*
X7825D02*
D03*
Y5187D02*
D03*
X7943D02*
D03*
X3366Y2766D02*
D03*
Y2648D02*
D03*
X3248Y2766D02*
D03*
Y2648D02*
D03*
D67*
X1953Y4972D02*
D03*
Y3572D02*
D03*
X3854Y4972D02*
D03*
Y3572D02*
D03*
X7244Y2972D02*
D03*
X6949D02*
D03*
X6201D02*
D03*
X5906D02*
D03*
D68*
X1953Y4572D02*
D03*
Y4272D02*
D03*
Y3972D02*
D03*
X3854Y4572D02*
D03*
Y4272D02*
D03*
Y3972D02*
D03*
D69*
X7429Y1516D02*
D03*
X7028D02*
D03*
X7126Y484D02*
D03*
Y886D02*
D03*
X6043Y433D02*
D03*
Y835D02*
D03*
X5740Y1555D02*
D03*
X6142D02*
D03*
D70*
X6831Y197D02*
D03*
Y787D02*
D03*
X6358Y236D02*
D03*
Y827D02*
D03*
D71*
X8094Y5475D02*
D03*
X7909D02*
D03*
D72*
X5443Y5522D02*
D03*
X4774D02*
D03*
X7254D02*
D03*
X6585D02*
D03*
D73*
X5256Y5005D02*
D03*
X4961Y4880D02*
D03*
X5256D02*
D03*
X4961Y5005D02*
D03*
X7067D02*
D03*
X6772Y4880D02*
D03*
X7067D02*
D03*
X6772Y5005D02*
D03*
D74*
X856Y4833D02*
D03*
Y4439D02*
D03*
X846Y2785D02*
D03*
Y3179D02*
D03*
M02*
