G04*
G04 #@! TF.GenerationSoftware,Altium Limited,Altium Designer,21.6.4 (81)*
G04*
G04 Layer_Color=32768*
%FSLAX23Y23*%
%MOIN*%
G70*
G04*
G04 #@! TF.SameCoordinates,B6067EDE-423B-4814-945A-A302FF207E3A*
G04*
G04*
G04 #@! TF.FilePolarity,Positive*
G04*
G01*
G75*
%ADD94C,0.004*%
%ADD95C,0.002*%
D94*
X1998Y2923D02*
Y2963D01*
X1978Y2943D02*
X2018D01*
X7835Y3858D02*
Y3898D01*
X7815Y3878D02*
X7854D01*
X7736Y3839D02*
Y3878D01*
X7717Y3858D02*
X7756D01*
X7638Y3878D02*
Y3917D01*
X7618Y3898D02*
X7657D01*
X7539Y3843D02*
Y3874D01*
X7524Y3858D02*
X7555D01*
X7863Y3075D02*
Y3106D01*
X7847Y3091D02*
X7879D01*
X7673Y3091D02*
Y3130D01*
X7654Y3110D02*
X7693D01*
X7095Y2445D02*
Y2476D01*
X7080Y2461D02*
X7111D01*
X6890Y2441D02*
Y2480D01*
X6870Y2461D02*
X6909D01*
X7402Y591D02*
Y630D01*
X7382Y610D02*
X7421D01*
X7165Y1220D02*
X7205D01*
X7185Y1201D02*
Y1240D01*
X6024Y1201D02*
X6063D01*
X6043Y1181D02*
Y1220D01*
X6831Y984D02*
Y1024D01*
X6811Y1004D02*
X6850D01*
X6354Y984D02*
Y1024D01*
X6335Y1004D02*
X6374D01*
X5571Y3169D02*
Y3209D01*
X5551Y3189D02*
X5591D01*
X5571Y3839D02*
Y3878D01*
X5551Y3858D02*
X5591D01*
X5472Y3819D02*
Y3858D01*
X5453Y3839D02*
X5492D01*
X5374Y3839D02*
Y3878D01*
X5354Y3858D02*
X5394D01*
X5276Y3813D02*
Y3844D01*
X5260Y3829D02*
X5291D01*
X6102Y4242D02*
Y4281D01*
X6083Y4262D02*
X6122D01*
X6142Y4518D02*
X6181D01*
X6161Y4498D02*
Y4537D01*
X5984Y4518D02*
X6024D01*
X6004Y4498D02*
Y4537D01*
X5837Y4272D02*
X5876D01*
X5856Y4252D02*
Y4291D01*
X5719Y4311D02*
Y4350D01*
X5699Y4331D02*
X5738D01*
X5541Y4311D02*
Y4350D01*
X5522Y4331D02*
X5561D01*
X5384Y4360D02*
Y4400D01*
X5364Y4380D02*
X5404D01*
X5148Y4343D02*
X5187D01*
X5167Y4323D02*
Y4362D01*
X4193Y4449D02*
X4232D01*
X4213Y4429D02*
Y4469D01*
X3498Y2392D02*
X3530D01*
X3514Y2376D02*
Y2407D01*
X3386Y2372D02*
X3425D01*
X3406Y2352D02*
Y2392D01*
X3287D02*
X3327D01*
X3307Y2372D02*
Y2411D01*
X3189Y2372D02*
X3228D01*
X3209Y2352D02*
Y2392D01*
X6850Y2205D02*
Y2244D01*
X6831Y2224D02*
X6870D01*
X4344Y4665D02*
Y4705D01*
X4325Y4685D02*
X4364D01*
X7244Y2102D02*
X7283D01*
X7264Y2083D02*
Y2122D01*
X7126Y2102D02*
X7165D01*
X7146Y2083D02*
Y2122D01*
X7598Y591D02*
Y630D01*
X7579Y610D02*
X7618D01*
X5581Y650D02*
X5620D01*
X5600Y630D02*
Y669D01*
X5856Y630D02*
X5896D01*
X5876Y610D02*
Y650D01*
X6112Y2093D02*
X6152D01*
X6132Y2073D02*
Y2112D01*
X5984Y2093D02*
X6024D01*
X6004Y2073D02*
Y2112D01*
X5610Y4213D02*
Y4252D01*
X5591Y4232D02*
X5630D01*
X2362Y2795D02*
Y2835D01*
X2343Y2815D02*
X2382D01*
X4491Y4685D02*
X4523D01*
X4507Y4669D02*
Y4701D01*
X5728Y4173D02*
Y4213D01*
X5709Y4193D02*
X5748D01*
X5443Y4232D02*
X5482D01*
X5463Y4213D02*
Y4252D01*
X6506Y3799D02*
X6545D01*
X6526Y3780D02*
Y3819D01*
X6319Y4252D02*
X6358D01*
X6339Y4232D02*
Y4272D01*
X6398Y2224D02*
X6437D01*
X6417Y2205D02*
Y2244D01*
X6378Y2441D02*
X6417D01*
X6398Y2421D02*
Y2461D01*
X6205Y2441D02*
X6236D01*
X6220Y2425D02*
Y2457D01*
X5378Y3169D02*
X5409D01*
X5394Y3154D02*
Y3185D01*
D95*
X1931Y2906D02*
X2065D01*
X1931Y2980D02*
X2065D01*
Y2906D02*
Y2980D01*
X1931Y2906D02*
Y2980D01*
X7789Y3783D02*
X7880D01*
X7789Y3972D02*
X7880D01*
X7789Y3783D02*
Y3972D01*
X7880Y3783D02*
Y3972D01*
X7699Y3791D02*
X7774D01*
X7699Y3925D02*
X7774D01*
X7699Y3791D02*
Y3925D01*
X7774Y3791D02*
Y3925D01*
X7593Y3992D02*
X7683D01*
X7593Y3803D02*
X7683D01*
Y3992D01*
X7593Y3803D02*
Y3992D01*
X7510Y3917D02*
X7569D01*
X7510Y3799D02*
X7569D01*
Y3917D01*
X7510Y3799D02*
Y3917D01*
X7804Y3061D02*
X7922D01*
X7804Y3120D02*
X7922D01*
Y3061D02*
Y3120D01*
X7804Y3061D02*
Y3120D01*
X7579Y3065D02*
X7768D01*
X7579Y3156D02*
X7768D01*
Y3065D02*
Y3156D01*
X7579Y3065D02*
Y3156D01*
X7036Y2431D02*
X7155D01*
X7036Y2490D02*
X7155D01*
Y2431D02*
Y2490D01*
X7036Y2431D02*
Y2490D01*
X6795Y2415D02*
X6984D01*
X6795Y2506D02*
X6984D01*
Y2415D02*
Y2506D01*
X6795Y2415D02*
Y2506D01*
X7335Y648D02*
X7469D01*
X7335Y573D02*
X7469D01*
X7335D02*
Y648D01*
X7469Y573D02*
Y648D01*
X7140Y1126D02*
Y1315D01*
X7230Y1126D02*
Y1315D01*
X7140Y1126D02*
X7230D01*
X7140Y1315D02*
X7230D01*
X5998Y1106D02*
Y1295D01*
X6089Y1106D02*
Y1295D01*
X5998Y1106D02*
X6089D01*
X5998Y1295D02*
X6089D01*
X6736Y1049D02*
X6925D01*
X6736Y959D02*
X6925D01*
X6736D02*
Y1049D01*
X6925Y959D02*
Y1049D01*
X6260Y959D02*
X6449D01*
X6260Y1049D02*
X6449D01*
Y959D02*
Y1049D01*
X6260Y959D02*
Y1049D01*
X5476Y3234D02*
X5665D01*
X5476Y3144D02*
X5665D01*
X5476D02*
Y3234D01*
X5665Y3144D02*
Y3234D01*
X5526Y3764D02*
X5616D01*
X5526Y3953D02*
X5616D01*
X5526Y3764D02*
Y3953D01*
X5616Y3764D02*
Y3953D01*
X5435Y3772D02*
X5510D01*
X5435Y3906D02*
X5510D01*
X5435Y3772D02*
Y3906D01*
X5510Y3772D02*
Y3906D01*
X5329Y3953D02*
X5419D01*
X5329Y3764D02*
X5419D01*
Y3953D01*
X5329Y3764D02*
Y3953D01*
X5246Y3888D02*
X5305D01*
X5246Y3770D02*
X5305D01*
Y3888D01*
X5246Y3770D02*
Y3888D01*
X5983Y4159D02*
X6205D01*
X5983Y4364D02*
X6205D01*
Y4159D02*
Y4364D01*
X5983Y4159D02*
Y4364D01*
X6116Y4423D02*
Y4612D01*
X6207Y4423D02*
Y4612D01*
X6116Y4423D02*
X6207D01*
X6116Y4612D02*
X6207D01*
X5959Y4423D02*
Y4612D01*
X6049Y4423D02*
Y4612D01*
X5959Y4423D02*
X6049D01*
X5959Y4612D02*
X6049D01*
X5902Y4177D02*
Y4366D01*
X5811Y4177D02*
Y4366D01*
X5902D01*
X5811Y4177D02*
X5902D01*
X5652Y4368D02*
X5785D01*
X5652Y4293D02*
X5785D01*
X5652D02*
Y4368D01*
X5785Y4293D02*
Y4368D01*
X5474Y4293D02*
X5608D01*
X5474Y4368D02*
X5608D01*
Y4293D02*
Y4368D01*
X5474Y4293D02*
Y4368D01*
X5317Y4417D02*
X5451D01*
X5317Y4343D02*
X5451D01*
X5317D02*
Y4417D01*
X5451Y4343D02*
Y4417D01*
X5205Y4276D02*
Y4409D01*
X5130Y4276D02*
Y4409D01*
X5205D01*
X5130Y4276D02*
X5205D01*
X4258Y4354D02*
Y4543D01*
X4167Y4354D02*
Y4543D01*
X4258D01*
X4167Y4354D02*
X4258D01*
X3543Y2333D02*
Y2451D01*
X3484Y2333D02*
Y2451D01*
X3543D01*
X3484Y2333D02*
X3543D01*
X3451Y2278D02*
Y2467D01*
X3360Y2278D02*
Y2467D01*
X3451D01*
X3360Y2278D02*
X3451D01*
X3270Y2325D02*
Y2459D01*
X3344Y2325D02*
Y2459D01*
X3270Y2325D02*
X3344D01*
X3270Y2459D02*
X3344D01*
X3163Y2278D02*
Y2467D01*
X3254Y2278D02*
Y2467D01*
X3163Y2278D02*
X3254D01*
X3163Y2467D02*
X3254D01*
X6780Y2316D02*
X6933D01*
X6780Y2133D02*
X6933D01*
Y2316D01*
X6780Y2133D02*
Y2316D01*
X4250Y4640D02*
X4439D01*
X4250Y4730D02*
X4439D01*
Y4640D02*
Y4730D01*
X4250Y4640D02*
Y4730D01*
X7309Y2008D02*
Y2197D01*
X7219Y2008D02*
Y2197D01*
X7309D01*
X7219Y2008D02*
X7309D01*
X7100D02*
Y2197D01*
X7191Y2008D02*
Y2197D01*
X7100Y2008D02*
X7191D01*
X7100Y2197D02*
X7191D01*
X7531Y573D02*
X7665D01*
X7531Y648D02*
X7665D01*
Y573D02*
Y648D01*
X7531Y573D02*
Y648D01*
X5563Y583D02*
Y717D01*
X5638Y583D02*
Y717D01*
X5563Y583D02*
X5638D01*
X5563Y717D02*
X5638D01*
X5839Y563D02*
Y697D01*
X5913Y563D02*
Y697D01*
X5839Y563D02*
X5913D01*
X5839Y697D02*
X5913D01*
X6087Y1998D02*
Y2187D01*
X6177Y1998D02*
Y2187D01*
X6087Y1998D02*
X6177D01*
X6087Y2187D02*
X6177D01*
X6049Y1998D02*
Y2187D01*
X5959Y1998D02*
Y2187D01*
X6049D01*
X5959Y1998D02*
X6049D01*
X5543Y4270D02*
X5677D01*
X5543Y4195D02*
X5677D01*
X5543D02*
Y4270D01*
X5677Y4195D02*
Y4270D01*
X2317Y2720D02*
X2407D01*
X2317Y2909D02*
X2407D01*
X2317Y2720D02*
Y2909D01*
X2407Y2720D02*
Y2909D01*
X4448Y4656D02*
Y4715D01*
X4566Y4656D02*
Y4715D01*
X4448D02*
X4566D01*
X4448Y4656D02*
X4566D01*
X5691Y4126D02*
X5766D01*
X5691Y4260D02*
X5766D01*
X5691Y4126D02*
Y4260D01*
X5766Y4126D02*
Y4260D01*
X5396Y4195D02*
Y4270D01*
X5530Y4195D02*
Y4270D01*
X5396D02*
X5530D01*
X5396Y4195D02*
X5530D01*
X6459Y3762D02*
Y3837D01*
X6593Y3762D02*
Y3837D01*
X6459D02*
X6593D01*
X6459Y3762D02*
X6593D01*
X6272Y4215D02*
Y4289D01*
X6406Y4215D02*
Y4289D01*
X6272D02*
X6406D01*
X6272Y4215D02*
X6406D01*
X6346Y2133D02*
Y2316D01*
X6500Y2133D02*
Y2316D01*
X6346Y2133D02*
X6500D01*
X6346Y2316D02*
X6500D01*
X6492Y2396D02*
Y2486D01*
X6303Y2396D02*
Y2486D01*
Y2396D02*
X6492D01*
X6303Y2486D02*
X6492D01*
X6280Y2411D02*
Y2470D01*
X6161Y2411D02*
Y2470D01*
Y2411D02*
X6280D01*
X6161Y2470D02*
X6280D01*
X5453Y3140D02*
Y3199D01*
X5335Y3140D02*
Y3199D01*
Y3140D02*
X5453D01*
X5335Y3199D02*
X5453D01*
M02*
