G04*
G04 #@! TF.GenerationSoftware,Altium Limited,Altium Designer,21.6.4 (81)*
G04*
G04 Layer_Color=8388736*
%FSLAX23Y23*%
%MOIN*%
G70*
G04*
G04 #@! TF.SameCoordinates,B6067EDE-423B-4814-945A-A302FF207E3A*
G04*
G04*
G04 #@! TF.FilePolarity,Negative*
G04*
G01*
G75*
%ADD41R,0.056X0.044*%
%ADD42O,0.036X0.087*%
%ADD43R,0.044X0.056*%
%ADD44R,0.085X0.132*%
%ADD45R,0.091X0.063*%
%ADD46R,0.043X0.061*%
%ADD47R,0.101X0.075*%
%ADD48R,0.025X0.036*%
%ADD49R,0.077X0.065*%
%ADD50R,0.061X0.043*%
%ADD51R,0.045X0.043*%
%ADD52C,0.038*%
%ADD53R,0.043X0.045*%
%ADD54R,0.065X0.077*%
%ADD55O,0.087X0.036*%
%ADD56R,0.039X0.047*%
%ADD57R,0.171X0.106*%
%ADD58R,0.018X0.036*%
%ADD59R,0.104X0.104*%
%ADD60R,0.036X0.018*%
%ADD61R,0.049X0.063*%
%ADD62R,0.063X0.049*%
%ADD63R,0.032X0.047*%
%ADD64C,0.177*%
%ADD65C,0.323*%
%ADD66C,0.078*%
%ADD67C,0.165*%
%ADD68C,0.087*%
%ADD69C,0.134*%
%ADD70C,0.102*%
%ADD71C,0.156*%
%ADD72C,0.158*%
%ADD73C,0.110*%
%ADD74C,0.181*%
D41*
X7992Y2882D02*
D03*
Y2753D02*
D03*
X6988Y2291D02*
D03*
Y2161D02*
D03*
X7756Y2562D02*
D03*
Y2433D02*
D03*
X5185Y2865D02*
D03*
Y2994D02*
D03*
X6264Y2289D02*
D03*
Y2160D02*
D03*
X5453Y2573D02*
D03*
Y2702D02*
D03*
D42*
X7846Y2933D02*
D03*
X7720D02*
D03*
X7634D02*
D03*
X7547D02*
D03*
X7846Y2697D02*
D03*
X7720Y2697D02*
D03*
X7634D02*
D03*
X7547D02*
D03*
X7630Y2559D02*
D03*
X7504D02*
D03*
X7417D02*
D03*
X7331D02*
D03*
X7630Y2323D02*
D03*
X7504Y2323D02*
D03*
X7417D02*
D03*
X7331D02*
D03*
X5898Y2559D02*
D03*
X5811D02*
D03*
X5724D02*
D03*
X5598Y2559D02*
D03*
X5898Y2323D02*
D03*
X5811D02*
D03*
X5724D02*
D03*
X5598D02*
D03*
X5622Y3071D02*
D03*
X5535D02*
D03*
X5449D02*
D03*
X5323Y3071D02*
D03*
X5622Y2835D02*
D03*
X5535D02*
D03*
X5449D02*
D03*
X5323D02*
D03*
D43*
X7927Y646D02*
D03*
X7798D02*
D03*
X7423Y1261D02*
D03*
X7552D02*
D03*
X5443Y634D02*
D03*
X5313D02*
D03*
X5672Y1260D02*
D03*
X5801D02*
D03*
D44*
X2360Y2520D02*
D03*
X2167D02*
D03*
D45*
X2205Y2929D02*
D03*
Y2756D02*
D03*
D46*
X2037Y2943D02*
D03*
X1959D02*
D03*
X7362Y610D02*
D03*
X7441D02*
D03*
X5679Y4331D02*
D03*
X5758D02*
D03*
X5581D02*
D03*
X5502D02*
D03*
X7638Y610D02*
D03*
X7559D02*
D03*
X5571Y4232D02*
D03*
X5650D02*
D03*
X5423D02*
D03*
X5502D02*
D03*
X6486Y3799D02*
D03*
X6565D02*
D03*
X6299Y4252D02*
D03*
X6378D02*
D03*
D47*
X6926Y4412D02*
D03*
X6634Y4405D02*
D03*
X6969Y4070D02*
D03*
X6721Y3901D02*
D03*
D48*
X6939Y4459D02*
D03*
X6965D02*
D03*
X6913D02*
D03*
X6888D02*
D03*
Y4341D02*
D03*
X6913D02*
D03*
X6939D02*
D03*
X6965D02*
D03*
X6647Y4451D02*
D03*
X6672D02*
D03*
X6621D02*
D03*
X6595D02*
D03*
Y4333D02*
D03*
X6621D02*
D03*
X6647D02*
D03*
X6672D02*
D03*
X6981Y4116D02*
D03*
X7007D02*
D03*
X6956D02*
D03*
X6930D02*
D03*
Y3998D02*
D03*
X6956D02*
D03*
X6981D02*
D03*
X7007D02*
D03*
X6734Y3947D02*
D03*
X6760D02*
D03*
X6709D02*
D03*
X6683D02*
D03*
Y3829D02*
D03*
X6709D02*
D03*
X6734D02*
D03*
X6760D02*
D03*
D49*
X7835Y3823D02*
D03*
Y3933D02*
D03*
X7638Y3953D02*
D03*
Y3843D02*
D03*
X7185Y1165D02*
D03*
Y1276D02*
D03*
X6043Y1146D02*
D03*
Y1256D02*
D03*
X5571Y3803D02*
D03*
Y3913D02*
D03*
X5374D02*
D03*
Y3803D02*
D03*
X6161Y4463D02*
D03*
Y4573D02*
D03*
X6004Y4463D02*
D03*
Y4573D02*
D03*
X5856Y4327D02*
D03*
Y4217D02*
D03*
X4213Y4504D02*
D03*
Y4394D02*
D03*
X3406Y2427D02*
D03*
Y2317D02*
D03*
X3209D02*
D03*
Y2427D02*
D03*
X7264Y2157D02*
D03*
Y2047D02*
D03*
X7146D02*
D03*
Y2157D02*
D03*
X6132Y2037D02*
D03*
Y2148D02*
D03*
X6004D02*
D03*
Y2037D02*
D03*
X2362Y2760D02*
D03*
Y2870D02*
D03*
D50*
X7736Y3819D02*
D03*
Y3898D02*
D03*
X5472Y3799D02*
D03*
Y3878D02*
D03*
X3307Y2352D02*
D03*
Y2431D02*
D03*
X5600Y610D02*
D03*
Y689D02*
D03*
X5876Y591D02*
D03*
Y669D02*
D03*
X5728Y4154D02*
D03*
Y4232D02*
D03*
D51*
X7539Y3889D02*
D03*
Y3828D02*
D03*
X5276Y3859D02*
D03*
Y3798D02*
D03*
X3514Y2422D02*
D03*
Y2361D02*
D03*
D52*
X7659Y3284D02*
D03*
X7972Y3022D02*
D03*
X6742Y1437D02*
D03*
X5640Y2136D02*
D03*
X5177Y3484D02*
D03*
X6821Y2057D02*
D03*
X7244Y2411D02*
D03*
X5709Y640D02*
D03*
X6526Y1053D02*
D03*
X6378Y2028D02*
D03*
X3366Y2963D02*
D03*
X4439Y5079D02*
D03*
X2165Y2362D02*
D03*
X7077Y4557D02*
D03*
X6033Y2382D02*
D03*
X6570Y4267D02*
D03*
X6801Y4311D02*
D03*
X6398Y3947D02*
D03*
X6496D02*
D03*
X6634Y3996D02*
D03*
X6358Y4114D02*
D03*
X6585Y4055D02*
D03*
X6211Y4390D02*
D03*
X6190Y4055D02*
D03*
X6713Y3996D02*
D03*
X6535D02*
D03*
X6309Y4055D02*
D03*
X6752D02*
D03*
X6663D02*
D03*
X6526Y4114D02*
D03*
X6437D02*
D03*
X6348Y3996D02*
D03*
X7146Y4154D02*
D03*
X6299Y2618D02*
D03*
X6870Y2352D02*
D03*
X5846Y2096D02*
D03*
X6093Y2283D02*
D03*
X5128Y2470D02*
D03*
X7136Y2264D02*
D03*
X7628Y2224D02*
D03*
X6230Y4469D02*
D03*
X6083Y4596D02*
D03*
X6161Y4124D02*
D03*
X6699Y3635D02*
D03*
X6880Y3986D02*
D03*
X6398Y4055D02*
D03*
X6486D02*
D03*
X6083Y4400D02*
D03*
X6624Y3799D02*
D03*
X6594Y3947D02*
D03*
X6447Y3996D02*
D03*
D53*
X7894Y3091D02*
D03*
X7833D02*
D03*
X7126Y2461D02*
D03*
X7065D02*
D03*
X4476Y4685D02*
D03*
X4537D02*
D03*
X6251Y2441D02*
D03*
X6190D02*
D03*
X5424Y3169D02*
D03*
X5363D02*
D03*
D54*
X7728Y3110D02*
D03*
X7618D02*
D03*
X6945Y2461D02*
D03*
X6835D02*
D03*
X6776Y1004D02*
D03*
X6886D02*
D03*
X6409D02*
D03*
X6299D02*
D03*
X5516Y3189D02*
D03*
X5626D02*
D03*
X4400Y4685D02*
D03*
X4289D02*
D03*
X6453Y2441D02*
D03*
X6343D02*
D03*
D55*
X8051Y189D02*
D03*
Y276D02*
D03*
Y362D02*
D03*
X8051Y488D02*
D03*
X7815Y189D02*
D03*
Y276D02*
D03*
Y362D02*
D03*
Y488D02*
D03*
X5453Y205D02*
D03*
Y291D02*
D03*
Y378D02*
D03*
X5453Y504D02*
D03*
X5217Y205D02*
D03*
Y291D02*
D03*
Y378D02*
D03*
Y504D02*
D03*
X5846Y815D02*
D03*
Y902D02*
D03*
Y988D02*
D03*
X5846Y1114D02*
D03*
X5610Y815D02*
D03*
Y902D02*
D03*
Y988D02*
D03*
Y1114D02*
D03*
X7598Y776D02*
D03*
Y862D02*
D03*
Y949D02*
D03*
X7598Y1075D02*
D03*
X7362Y776D02*
D03*
Y862D02*
D03*
Y949D02*
D03*
Y1075D02*
D03*
D56*
X6998Y1190D02*
D03*
Y1290D02*
D03*
X6742Y1190D02*
D03*
Y1290D02*
D03*
X6270D02*
D03*
Y1190D02*
D03*
X6526Y1290D02*
D03*
Y1190D02*
D03*
D57*
X7322Y4439D02*
D03*
X7658D02*
D03*
D58*
X6112Y4187D02*
D03*
X6152D02*
D03*
X6073D02*
D03*
X6132D02*
D03*
X6093D02*
D03*
X6053D02*
D03*
X6112Y4337D02*
D03*
X6093D02*
D03*
X6053D02*
D03*
X6073D02*
D03*
X6132D02*
D03*
X6152D02*
D03*
D59*
X6102Y4262D02*
D03*
D60*
X6177Y4311D02*
D03*
Y4291D02*
D03*
Y4272D02*
D03*
Y4252D02*
D03*
Y4232D02*
D03*
Y4213D02*
D03*
X6028D02*
D03*
Y4232D02*
D03*
Y4252D02*
D03*
Y4272D02*
D03*
Y4291D02*
D03*
Y4311D02*
D03*
D61*
X5346Y4380D02*
D03*
X5421D02*
D03*
D62*
X5167D02*
D03*
Y4305D02*
D03*
D63*
X6850Y2283D02*
D03*
X6888Y2165D02*
D03*
X6813D02*
D03*
X6888Y2283D02*
D03*
X6813D02*
D03*
X6380D02*
D03*
X6455D02*
D03*
X6380Y2165D02*
D03*
X6455D02*
D03*
X6417Y2283D02*
D03*
D64*
X9626Y5413D02*
D03*
X217Y217D02*
D03*
X9626D02*
D03*
X217Y5413D02*
D03*
D65*
X3071Y1142D02*
D03*
X382D02*
D03*
X4488Y3043D02*
D03*
Y354D02*
D03*
X8661Y3043D02*
D03*
Y354D02*
D03*
D66*
X311Y1736D02*
D03*
Y1854D02*
D03*
X7539Y374D02*
D03*
Y256D02*
D03*
X1870Y2421D02*
D03*
Y2539D02*
D03*
X5709Y409D02*
D03*
Y291D02*
D03*
X7777Y3602D02*
D03*
Y3484D02*
D03*
X7659Y3602D02*
D03*
Y3484D02*
D03*
X5513Y3602D02*
D03*
Y3484D02*
D03*
X5395Y3602D02*
D03*
Y3484D02*
D03*
X8179Y5187D02*
D03*
X8061D02*
D03*
Y5305D02*
D03*
X8179D02*
D03*
X7943D02*
D03*
X7825D02*
D03*
Y5187D02*
D03*
X7943D02*
D03*
X3366Y2766D02*
D03*
Y2648D02*
D03*
X3248Y2766D02*
D03*
Y2648D02*
D03*
D67*
X1953Y4972D02*
D03*
Y3572D02*
D03*
X3854Y4972D02*
D03*
Y3572D02*
D03*
X7244Y2972D02*
D03*
X6949D02*
D03*
X6201D02*
D03*
X5906D02*
D03*
D68*
X1953Y4572D02*
D03*
Y4272D02*
D03*
Y3972D02*
D03*
X3854Y4572D02*
D03*
Y4272D02*
D03*
Y3972D02*
D03*
D69*
X7429Y1516D02*
D03*
X7028D02*
D03*
X7126Y484D02*
D03*
Y886D02*
D03*
X6043Y433D02*
D03*
Y835D02*
D03*
X5740Y1555D02*
D03*
X6142D02*
D03*
D70*
X6831Y197D02*
D03*
Y787D02*
D03*
X6358Y236D02*
D03*
Y827D02*
D03*
D71*
X8094Y5475D02*
D03*
X7909D02*
D03*
D72*
X5443Y5522D02*
D03*
X4774D02*
D03*
X7254D02*
D03*
X6585D02*
D03*
D73*
X5256Y5005D02*
D03*
X4961Y4880D02*
D03*
X5256D02*
D03*
X4961Y5005D02*
D03*
X7067D02*
D03*
X6772Y4880D02*
D03*
X7067D02*
D03*
X6772Y5005D02*
D03*
D74*
X856Y4833D02*
D03*
Y4439D02*
D03*
X846Y2785D02*
D03*
Y3179D02*
D03*
M02*
