G04*
G04 #@! TF.GenerationSoftware,Altium Limited,Altium Designer,21.6.4 (81)*
G04*
G04 Layer_Color=8388736*
%FSLAX23Y23*%
%MOIN*%
G70*
G04*
G04 #@! TF.SameCoordinates,B6067EDE-423B-4814-945A-A302FF207E3A*
G04*
G04*
G04 #@! TF.FilePolarity,Positive*
G04*
G01*
G75*
%ADD13C,0.008*%
%ADD94C,0.004*%
D13*
X2251Y2772D02*
Y2912D01*
X2159Y2772D02*
Y2911D01*
D94*
X7880Y2900D02*
G03*
X7880Y2900I-20J0D01*
G01*
X7663Y2526D02*
G03*
X7663Y2526I-20J0D01*
G01*
X7868Y502D02*
G03*
X7868Y502I-20J0D01*
G01*
X6945Y1193D02*
G03*
X6945Y1193I-20J0D01*
G01*
X5270Y518D02*
G03*
X5270Y518I-20J0D01*
G01*
X6362Y1287D02*
G03*
X6362Y1287I-20J0D01*
G01*
X5663Y1128D02*
G03*
X5663Y1128I-20J0D01*
G01*
X5604Y2356D02*
G03*
X5604Y2356I-20J0D01*
G01*
X5329Y2868D02*
G03*
X5329Y2868I-20J0D01*
G01*
X7415Y1089D02*
G03*
X7415Y1089I-20J0D01*
G01*
X7957Y2762D02*
Y2872D01*
Y2762D02*
X8028D01*
X7957Y2872D02*
X8028D01*
Y2762D02*
Y2872D01*
X6953Y2171D02*
Y2281D01*
Y2171D02*
X7024D01*
X6953Y2281D02*
X7024D01*
Y2171D02*
Y2281D01*
X7720Y2443D02*
Y2553D01*
Y2443D02*
X7791D01*
X7720Y2553D02*
X7791D01*
Y2443D02*
Y2553D01*
X7498Y2935D02*
X7896D01*
X7498Y2695D02*
X7896D01*
Y2935D01*
X7498Y2695D02*
Y2935D01*
X7807Y681D02*
X7917D01*
X7807Y610D02*
Y681D01*
X7917Y610D02*
Y681D01*
X7807Y610D02*
X7917D01*
X7432Y1226D02*
X7542D01*
Y1297D01*
X7432Y1226D02*
Y1297D01*
X7542D01*
X5220Y2874D02*
Y2984D01*
X5150D02*
X5220D01*
X5150Y2874D02*
X5220D01*
X5150D02*
Y2984D01*
X5323Y669D02*
X5433D01*
X5323Y598D02*
Y669D01*
X5433Y598D02*
Y669D01*
X5323Y598D02*
X5433D01*
X6228Y2169D02*
Y2280D01*
Y2169D02*
X6299D01*
X6228Y2280D02*
X6299D01*
Y2169D02*
Y2280D01*
X5488Y2583D02*
Y2693D01*
X5417D02*
X5488D01*
X5417Y2583D02*
X5488D01*
X5417D02*
Y2693D01*
X5681Y1224D02*
X5791D01*
Y1295D01*
X5681Y1224D02*
Y1295D01*
X5791D01*
X2139Y2465D02*
X2389D01*
X2139Y2575D02*
X2389D01*
Y2465D02*
Y2575D01*
X2139Y2465D02*
Y2575D01*
X7281Y2561D02*
X7679D01*
X7281Y2321D02*
X7679D01*
Y2561D01*
X7281Y2321D02*
Y2561D01*
X7813Y140D02*
X8053D01*
X7813Y537D02*
X8053D01*
Y140D02*
Y537D01*
X7813Y140D02*
Y537D01*
X6961Y1157D02*
Y1323D01*
X6780Y1157D02*
Y1323D01*
Y1157D02*
X6961D01*
X6780Y1323D02*
X6961D01*
X5215Y156D02*
X5455D01*
X5215Y553D02*
X5455D01*
Y156D02*
Y553D01*
X5215Y156D02*
Y553D01*
X6307Y1157D02*
Y1323D01*
X6488Y1157D02*
Y1323D01*
X6307D02*
X6488D01*
X6307Y1157D02*
X6488D01*
X5608Y766D02*
X5848D01*
X5608Y1163D02*
X5848D01*
Y766D02*
Y1163D01*
X5608Y766D02*
Y1163D01*
X5947Y2321D02*
Y2561D01*
X5549Y2321D02*
Y2561D01*
X5947D01*
X5549Y2321D02*
X5947D01*
X5671Y2833D02*
Y3073D01*
X5274Y2833D02*
Y3073D01*
X5671D01*
X5274Y2833D02*
X5671D01*
X7283Y4567D02*
X7362Y4646D01*
X7697D01*
Y4232D02*
Y4646D01*
X7362Y4232D02*
X7697D01*
X7283Y4311D02*
X7362Y4232D01*
X7283Y4311D02*
Y4567D01*
X7360Y726D02*
X7600D01*
X7360Y1124D02*
X7600D01*
Y726D02*
Y1124D01*
X7360Y726D02*
Y1124D01*
M02*
