G04*
G04 #@! TF.GenerationSoftware,Altium Limited,Altium Designer,21.6.4 (81)*
G04*
G04 Layer_Color=128*
%FSLAX23Y23*%
%MOIN*%
G70*
G04*
G04 #@! TF.SameCoordinates,B6067EDE-423B-4814-945A-A302FF207E3A*
G04*
G04*
G04 #@! TF.FilePolarity,Positive*
G04*
G01*
G75*
%ADD97C,0.002*%
D97*
X9568Y5413D02*
X9684D01*
X9626Y5355D02*
Y5471D01*
X2933Y1142D02*
X3209D01*
X3071Y1004D02*
Y1280D01*
X244Y1142D02*
X520D01*
X382Y1004D02*
Y1280D01*
X159Y217D02*
X275D01*
X217Y159D02*
Y275D01*
X4350Y3043D02*
X4626D01*
X4488Y2906D02*
Y3181D01*
X4350Y354D02*
X4626D01*
X4488Y217D02*
Y492D01*
X291Y1736D02*
X331D01*
X311Y1716D02*
Y1756D01*
X291Y1854D02*
X331D01*
X311Y1834D02*
Y1874D01*
X7519Y374D02*
X7559D01*
X7539Y354D02*
Y394D01*
X7519Y256D02*
X7559D01*
X7539Y236D02*
Y276D01*
X1850Y2421D02*
X1890D01*
X1870Y2401D02*
Y2441D01*
X1850Y2539D02*
X1890D01*
X1870Y2519D02*
Y2559D01*
X5689Y409D02*
X5729D01*
X5709Y389D02*
Y429D01*
X5689Y291D02*
X5729D01*
X5709Y271D02*
Y311D01*
X8524Y3043D02*
X8799D01*
X8661Y2906D02*
Y3181D01*
X8524Y354D02*
X8799D01*
X8661Y217D02*
Y492D01*
X1909Y4972D02*
X1996D01*
X1953Y4928D02*
Y5015D01*
X1927Y4572D02*
X1978D01*
X1953Y4546D02*
Y4597D01*
X1927Y4272D02*
X1978D01*
X1953Y4246D02*
Y4297D01*
X1927Y3972D02*
X1978D01*
X1953Y3946D02*
Y3997D01*
X1909Y3572D02*
X1996D01*
X1953Y3528D02*
Y3615D01*
X3811Y4972D02*
X3898D01*
X3854Y4928D02*
Y5015D01*
X3829Y4572D02*
X3880D01*
X3854Y4546D02*
Y4597D01*
X3829Y4272D02*
X3880D01*
X3854Y4246D02*
Y4297D01*
X3829Y3972D02*
X3880D01*
X3854Y3946D02*
Y3997D01*
X3811Y3572D02*
X3898D01*
X3854Y3528D02*
Y3615D01*
X7757Y3602D02*
X7797D01*
X7777Y3582D02*
Y3622D01*
X7757Y3484D02*
X7797D01*
X7777Y3464D02*
Y3504D01*
X7639Y3602D02*
X7679D01*
X7659Y3582D02*
Y3622D01*
X7639Y3484D02*
X7679D01*
X7659Y3464D02*
Y3504D01*
X7205Y2972D02*
X7283D01*
X7244Y2933D02*
Y3012D01*
X6909Y2972D02*
X6988D01*
X6949Y2933D02*
Y3012D01*
X7380Y1516D02*
X7478D01*
X7429Y1467D02*
Y1565D01*
X6978Y1516D02*
X7077D01*
X7028Y1467D02*
Y1565D01*
X7077Y484D02*
X7175D01*
X7126Y435D02*
Y533D01*
X7077Y886D02*
X7175D01*
X7126Y837D02*
Y935D01*
X6807Y197D02*
X6854D01*
X6831Y173D02*
Y220D01*
X6807Y787D02*
X6854D01*
X6831Y764D02*
Y811D01*
X6335Y236D02*
X6382D01*
X6358Y213D02*
Y260D01*
X6335Y827D02*
X6382D01*
X6358Y803D02*
Y850D01*
X5994Y433D02*
X6093D01*
X6043Y384D02*
Y482D01*
X5994Y835D02*
X6093D01*
X6043Y785D02*
Y884D01*
X5691Y1555D02*
X5789D01*
X5740Y1506D02*
Y1604D01*
X6093Y1555D02*
X6191D01*
X6142Y1506D02*
Y1604D01*
X5493Y3602D02*
X5533D01*
X5513Y3582D02*
Y3622D01*
X5493Y3484D02*
X5533D01*
X5513Y3464D02*
Y3504D01*
X5375Y3602D02*
X5415D01*
X5395Y3582D02*
Y3622D01*
X5375Y3484D02*
X5415D01*
X5395Y3464D02*
Y3504D01*
X8159Y5187D02*
X8199D01*
X8179Y5167D02*
Y5207D01*
X8041Y5187D02*
X8081D01*
X8061Y5167D02*
Y5207D01*
X8035Y5475D02*
X8153D01*
X8094Y5416D02*
Y5534D01*
X8041Y5305D02*
X8081D01*
X8061Y5285D02*
Y5325D01*
X8159Y5305D02*
X8199D01*
X8179Y5285D02*
Y5325D01*
X7923Y5305D02*
X7963D01*
X7943Y5285D02*
Y5325D01*
X7805Y5305D02*
X7845D01*
X7825Y5285D02*
Y5325D01*
X7850Y5475D02*
X7968D01*
X7909Y5416D02*
Y5534D01*
X7805Y5187D02*
X7845D01*
X7825Y5167D02*
Y5207D01*
X7923Y5187D02*
X7963D01*
X7943Y5167D02*
Y5207D01*
X5380Y5522D02*
X5505D01*
X5443Y5459D02*
Y5584D01*
X4711Y5522D02*
X4836D01*
X4774Y5459D02*
Y5584D01*
X5217Y5005D02*
X5295D01*
X5256Y4966D02*
Y5044D01*
X4922Y4880D02*
X5000D01*
X4961Y4841D02*
Y4919D01*
X5217Y4880D02*
X5295D01*
X5256Y4841D02*
Y4919D01*
X4922Y5005D02*
X5000D01*
X4961Y4966D02*
Y5044D01*
X7191Y5522D02*
X7316D01*
X7254Y5459D02*
Y5584D01*
X6522Y5522D02*
X6647D01*
X6585Y5459D02*
Y5584D01*
X7028Y5005D02*
X7106D01*
X7067Y4966D02*
Y5044D01*
X6733Y4880D02*
X6811D01*
X6772Y4841D02*
Y4919D01*
X7028Y4880D02*
X7106D01*
X7067Y4841D02*
Y4919D01*
X6733Y5005D02*
X6811D01*
X6772Y4966D02*
Y5044D01*
X813Y4833D02*
X900D01*
X856Y4789D02*
Y4876D01*
X813Y4439D02*
X900D01*
X856Y4396D02*
Y4482D01*
X803Y2785D02*
X890D01*
X846Y2742D02*
Y2829D01*
X803Y3179D02*
X890D01*
X846Y3136D02*
Y3222D01*
X3346Y2766D02*
X3386D01*
X3366Y2746D02*
Y2786D01*
X3346Y2648D02*
X3386D01*
X3366Y2628D02*
Y2668D01*
X3228Y2766D02*
X3268D01*
X3248Y2746D02*
Y2786D01*
X3228Y2648D02*
X3268D01*
X3248Y2628D02*
Y2668D01*
X9568Y217D02*
X9684D01*
X9626Y159D02*
Y275D01*
X159Y5413D02*
X275D01*
X217Y5355D02*
Y5471D01*
X6161Y2972D02*
X6240D01*
X6201Y2933D02*
Y3012D01*
X5866Y2972D02*
X5945D01*
X5906Y2933D02*
Y3012D01*
X6563Y4267D02*
X6578D01*
X6570Y4259D02*
Y4274D01*
X6794Y4311D02*
X6809D01*
X6801Y4304D02*
Y4319D01*
X6390Y3947D02*
X6405D01*
X6398Y3939D02*
Y3954D01*
X6489Y3947D02*
X6504D01*
X6496Y3939D02*
Y3954D01*
X6626Y3996D02*
X6641D01*
X6634Y3989D02*
Y4004D01*
X6351Y4114D02*
X6366D01*
X6358Y4107D02*
Y4122D01*
X6577Y4055D02*
X6592D01*
X6585Y4048D02*
Y4063D01*
X6203Y4390D02*
X6218D01*
X6211Y4382D02*
Y4397D01*
X6183Y4055D02*
X6198D01*
X6190Y4048D02*
Y4063D01*
X6705Y3996D02*
X6720D01*
X6713Y3989D02*
Y4004D01*
X6528Y3996D02*
X6543D01*
X6535Y3989D02*
Y4004D01*
X6302Y4055D02*
X6317D01*
X6309Y4048D02*
Y4063D01*
X6744Y4055D02*
X6759D01*
X6752Y4048D02*
Y4063D01*
X6656Y4055D02*
X6671D01*
X6663Y4048D02*
Y4063D01*
X6518Y4114D02*
X6533D01*
X6526Y4107D02*
Y4122D01*
X6430Y4114D02*
X6445D01*
X6437Y4107D02*
Y4122D01*
X6341Y3996D02*
X6356D01*
X6348Y3989D02*
Y4004D01*
X7138Y4154D02*
X7153D01*
X7146Y4146D02*
Y4161D01*
X6292Y2618D02*
X6307D01*
X6299Y2611D02*
Y2626D01*
X6863Y2352D02*
X6878D01*
X6870Y2345D02*
Y2360D01*
X5839Y2096D02*
X5854D01*
X5846Y2089D02*
Y2104D01*
X6085Y2283D02*
X6100D01*
X6093Y2276D02*
Y2291D01*
X5120Y2470D02*
X5135D01*
X5128Y2463D02*
Y2478D01*
X7128Y2264D02*
X7143D01*
X7136Y2256D02*
Y2271D01*
X7620Y2224D02*
X7635D01*
X7628Y2217D02*
Y2232D01*
X6223Y4469D02*
X6238D01*
X6230Y4461D02*
Y4476D01*
X6075Y4596D02*
X6090D01*
X6083Y4589D02*
Y4604D01*
X6154Y4124D02*
X6169D01*
X6161Y4117D02*
Y4132D01*
X6692Y3635D02*
X6707D01*
X6699Y3628D02*
Y3643D01*
X6872Y3986D02*
X6887D01*
X6880Y3979D02*
Y3994D01*
X6390Y4055D02*
X6405D01*
X6398Y4048D02*
Y4063D01*
X6479Y4055D02*
X6494D01*
X6486Y4048D02*
Y4063D01*
X6075Y4400D02*
X6090D01*
X6083Y4392D02*
Y4407D01*
X6617Y3799D02*
X6632D01*
X6624Y3792D02*
Y3807D01*
X6587Y3947D02*
X6602D01*
X6594Y3939D02*
Y3954D01*
X6439Y3996D02*
X6454D01*
X6447Y3989D02*
Y4004D01*
M02*
