G04*
G04 #@! TF.GenerationSoftware,Altium Limited,Altium Designer,21.6.4 (81)*
G04*
G04 Layer_Physical_Order=2*
G04 Layer_Color=16711680*
%FSLAX23Y23*%
%MOIN*%
G70*
G04*
G04 #@! TF.SameCoordinates,B6067EDE-423B-4814-945A-A302FF207E3A*
G04*
G04*
G04 #@! TF.FilePolarity,Positive*
G04*
G01*
G75*
%ADD10C,0.010*%
%ADD29C,0.030*%
%ADD75C,0.025*%
%ADD76C,0.020*%
%ADD78C,0.008*%
%ADD82C,0.169*%
%ADD83C,0.315*%
%ADD84C,0.070*%
%ADD85C,0.157*%
%ADD86C,0.079*%
%ADD87C,0.126*%
%ADD88C,0.094*%
%ADD89C,0.148*%
%ADD90C,0.150*%
%ADD91C,0.102*%
%ADD92C,0.173*%
%ADD93C,0.236*%
G36*
X9685Y5541D02*
Y5488D01*
X9680Y5485D01*
X9668Y5493D01*
X9652Y5500D01*
X9635Y5503D01*
X9617D01*
X9600Y5500D01*
X9584Y5493D01*
X9569Y5483D01*
X9556Y5471D01*
X9547Y5456D01*
X9540Y5440D01*
X9536Y5422D01*
Y5405D01*
X9540Y5387D01*
X9547Y5371D01*
X9556Y5356D01*
X9569Y5344D01*
X9584Y5334D01*
X9600Y5327D01*
X9617Y5324D01*
X9635D01*
X9652Y5327D01*
X9668Y5334D01*
X9680Y5342D01*
X9685Y5339D01*
Y1299D01*
X8701D01*
X8661Y1260D01*
X7756Y2165D01*
X3209D01*
X3041Y2333D01*
Y5591D01*
X4724D01*
X4726Y5586D01*
X4723Y5584D01*
X4711Y5573D01*
X4703Y5560D01*
X4697Y5545D01*
X4694Y5530D01*
Y5514D01*
X4697Y5498D01*
X4703Y5484D01*
X4711Y5471D01*
X4723Y5460D01*
X4736Y5451D01*
X4750Y5445D01*
X4766Y5442D01*
X4782D01*
X4797Y5445D01*
X4812Y5451D01*
X4825Y5460D01*
X4836Y5471D01*
X4845Y5484D01*
X4851Y5498D01*
X4854Y5514D01*
Y5530D01*
X4851Y5545D01*
X4845Y5560D01*
X4836Y5573D01*
X4825Y5584D01*
X4822Y5586D01*
X4823Y5591D01*
X5393D01*
X5395Y5586D01*
X5392Y5584D01*
X5380Y5573D01*
X5372Y5560D01*
X5366Y5545D01*
X5363Y5530D01*
Y5514D01*
X5366Y5498D01*
X5372Y5484D01*
X5380Y5471D01*
X5392Y5460D01*
X5405Y5451D01*
X5419Y5445D01*
X5435Y5442D01*
X5451D01*
X5466Y5445D01*
X5481Y5451D01*
X5494Y5460D01*
X5505Y5471D01*
X5514Y5484D01*
X5520Y5498D01*
X5523Y5514D01*
Y5530D01*
X5520Y5545D01*
X5514Y5560D01*
X5505Y5573D01*
X5494Y5584D01*
X5491Y5586D01*
X5492Y5591D01*
X6535D01*
X6537Y5586D01*
X6534Y5584D01*
X6523Y5573D01*
X6514Y5560D01*
X6508Y5545D01*
X6505Y5530D01*
Y5514D01*
X6508Y5498D01*
X6514Y5484D01*
X6523Y5471D01*
X6534Y5460D01*
X6547Y5451D01*
X6562Y5445D01*
X6577Y5442D01*
X6593D01*
X6608Y5445D01*
X6623Y5451D01*
X6636Y5460D01*
X6647Y5471D01*
X6656Y5484D01*
X6662Y5498D01*
X6665Y5514D01*
Y5530D01*
X6662Y5545D01*
X6656Y5560D01*
X6647Y5573D01*
X6636Y5584D01*
X6633Y5586D01*
X6634Y5591D01*
X7204D01*
X7206Y5586D01*
X7203Y5584D01*
X7192Y5573D01*
X7183Y5560D01*
X7177Y5545D01*
X7174Y5530D01*
Y5514D01*
X7177Y5498D01*
X7183Y5484D01*
X7192Y5471D01*
X7203Y5460D01*
X7216Y5451D01*
X7231Y5445D01*
X7246Y5442D01*
X7262D01*
X7277Y5445D01*
X7292Y5451D01*
X7305Y5460D01*
X7316Y5471D01*
X7325Y5484D01*
X7331Y5498D01*
X7334Y5514D01*
Y5530D01*
X7331Y5545D01*
X7325Y5560D01*
X7316Y5573D01*
X7305Y5584D01*
X7302Y5586D01*
X7303Y5591D01*
X9616D01*
X9626Y5600D01*
X9685Y5541D01*
D02*
G37*
G36*
X69Y5581D02*
X2490D01*
Y2352D01*
X2963Y1880D01*
X7628D01*
X8337Y1171D01*
Y79D01*
X79D01*
X59Y59D01*
X49Y69D01*
Y5594D01*
X54Y5596D01*
X69Y5581D01*
D02*
G37*
%LPC*%
G36*
X8102Y5554D02*
X8086D01*
X8071Y5551D01*
X8057Y5545D01*
X8044Y5536D01*
X8033Y5525D01*
X8024Y5513D01*
X8018Y5498D01*
X8015Y5483D01*
Y5467D01*
X8018Y5452D01*
X8024Y5438D01*
X8033Y5425D01*
X8044Y5414D01*
X8057Y5405D01*
X8071Y5399D01*
X8086Y5396D01*
X8102D01*
X8117Y5399D01*
X8132Y5405D01*
X8144Y5414D01*
X8155Y5425D01*
X8164Y5438D01*
X8170Y5452D01*
X8173Y5467D01*
Y5483D01*
X8170Y5498D01*
X8164Y5513D01*
X8155Y5525D01*
X8144Y5536D01*
X8132Y5545D01*
X8117Y5551D01*
X8102Y5554D01*
D02*
G37*
G36*
X7917D02*
X7901D01*
X7886Y5551D01*
X7872Y5545D01*
X7859Y5536D01*
X7848Y5525D01*
X7839Y5513D01*
X7833Y5498D01*
X7830Y5483D01*
Y5467D01*
X7833Y5452D01*
X7839Y5438D01*
X7848Y5425D01*
X7859Y5414D01*
X7872Y5405D01*
X7886Y5399D01*
X7901Y5396D01*
X7917D01*
X7932Y5399D01*
X7947Y5405D01*
X7959Y5414D01*
X7970Y5425D01*
X7979Y5438D01*
X7985Y5452D01*
X7988Y5467D01*
Y5483D01*
X7985Y5498D01*
X7979Y5513D01*
X7970Y5525D01*
X7959Y5536D01*
X7947Y5545D01*
X7932Y5551D01*
X7917Y5554D01*
D02*
G37*
G36*
X8184Y5345D02*
X8174D01*
X8164Y5342D01*
X8155Y5337D01*
X8147Y5330D01*
X8142Y5321D01*
X8139Y5310D01*
Y5300D01*
X8142Y5290D01*
X8147Y5281D01*
X8155Y5273D01*
X8164Y5268D01*
X8174Y5265D01*
X8184D01*
X8195Y5268D01*
X8204Y5273D01*
X8211Y5281D01*
X8216Y5290D01*
X8219Y5300D01*
Y5310D01*
X8216Y5321D01*
X8211Y5330D01*
X8204Y5337D01*
X8195Y5342D01*
X8184Y5345D01*
D02*
G37*
G36*
X8066D02*
X8056D01*
X8046Y5342D01*
X8037Y5337D01*
X8029Y5330D01*
X8024Y5321D01*
X8021Y5310D01*
Y5300D01*
X8024Y5290D01*
X8029Y5281D01*
X8037Y5273D01*
X8046Y5268D01*
X8056Y5265D01*
X8066D01*
X8077Y5268D01*
X8086Y5273D01*
X8093Y5281D01*
X8098Y5290D01*
X8101Y5300D01*
Y5310D01*
X8098Y5321D01*
X8093Y5330D01*
X8086Y5337D01*
X8077Y5342D01*
X8066Y5345D01*
D02*
G37*
G36*
X7948D02*
X7938D01*
X7928Y5342D01*
X7919Y5337D01*
X7911Y5330D01*
X7906Y5321D01*
X7903Y5310D01*
Y5300D01*
X7906Y5290D01*
X7911Y5281D01*
X7919Y5273D01*
X7928Y5268D01*
X7938Y5265D01*
X7948D01*
X7959Y5268D01*
X7968Y5273D01*
X7975Y5281D01*
X7980Y5290D01*
X7983Y5300D01*
Y5310D01*
X7980Y5321D01*
X7975Y5330D01*
X7968Y5337D01*
X7959Y5342D01*
X7948Y5345D01*
D02*
G37*
G36*
X7830D02*
X7820D01*
X7810Y5342D01*
X7801Y5337D01*
X7793Y5330D01*
X7788Y5321D01*
X7785Y5310D01*
Y5300D01*
X7788Y5290D01*
X7793Y5281D01*
X7801Y5273D01*
X7810Y5268D01*
X7820Y5265D01*
X7830D01*
X7841Y5268D01*
X7850Y5273D01*
X7857Y5281D01*
X7862Y5290D01*
X7865Y5300D01*
Y5310D01*
X7862Y5321D01*
X7857Y5330D01*
X7850Y5337D01*
X7841Y5342D01*
X7830Y5345D01*
D02*
G37*
G36*
X8184Y5227D02*
X8174D01*
X8164Y5224D01*
X8155Y5219D01*
X8147Y5212D01*
X8142Y5203D01*
X8139Y5192D01*
Y5182D01*
X8142Y5172D01*
X8147Y5163D01*
X8155Y5155D01*
X8164Y5150D01*
X8174Y5147D01*
X8184D01*
X8195Y5150D01*
X8204Y5155D01*
X8211Y5163D01*
X8216Y5172D01*
X8219Y5182D01*
Y5192D01*
X8216Y5203D01*
X8211Y5212D01*
X8204Y5219D01*
X8195Y5224D01*
X8184Y5227D01*
D02*
G37*
G36*
X8066D02*
X8056D01*
X8046Y5224D01*
X8037Y5219D01*
X8029Y5212D01*
X8024Y5203D01*
X8021Y5192D01*
Y5182D01*
X8024Y5172D01*
X8029Y5163D01*
X8037Y5155D01*
X8046Y5150D01*
X8056Y5147D01*
X8066D01*
X8077Y5150D01*
X8086Y5155D01*
X8093Y5163D01*
X8098Y5172D01*
X8101Y5182D01*
Y5192D01*
X8098Y5203D01*
X8093Y5212D01*
X8086Y5219D01*
X8077Y5224D01*
X8066Y5227D01*
D02*
G37*
G36*
X7948D02*
X7938D01*
X7928Y5224D01*
X7919Y5219D01*
X7911Y5212D01*
X7906Y5203D01*
X7903Y5192D01*
Y5182D01*
X7906Y5172D01*
X7911Y5163D01*
X7919Y5155D01*
X7928Y5150D01*
X7938Y5147D01*
X7948D01*
X7959Y5150D01*
X7968Y5155D01*
X7975Y5163D01*
X7980Y5172D01*
X7983Y5182D01*
Y5192D01*
X7980Y5203D01*
X7975Y5212D01*
X7968Y5219D01*
X7959Y5224D01*
X7948Y5227D01*
D02*
G37*
G36*
X7830D02*
X7820D01*
X7810Y5224D01*
X7801Y5219D01*
X7793Y5212D01*
X7788Y5203D01*
X7785Y5192D01*
Y5182D01*
X7788Y5172D01*
X7793Y5163D01*
X7801Y5155D01*
X7810Y5150D01*
X7820Y5147D01*
X7830D01*
X7841Y5150D01*
X7850Y5155D01*
X7857Y5163D01*
X7862Y5172D01*
X7865Y5182D01*
Y5192D01*
X7862Y5203D01*
X7857Y5212D01*
X7850Y5219D01*
X7841Y5224D01*
X7830Y5227D01*
D02*
G37*
G36*
X7074Y5061D02*
X7060D01*
X7045Y5057D01*
X7033Y5049D01*
X7022Y5039D01*
X7015Y5026D01*
X7011Y5012D01*
Y4997D01*
X7015Y4983D01*
X7022Y4970D01*
X7033Y4960D01*
X7045Y4953D01*
X7060Y4949D01*
X7074D01*
X7088Y4953D01*
X7101Y4960D01*
X7112Y4970D01*
X7119Y4983D01*
X7123Y4997D01*
Y5012D01*
X7119Y5026D01*
X7112Y5039D01*
X7101Y5049D01*
X7088Y5057D01*
X7074Y5061D01*
D02*
G37*
G36*
X3863Y5055D02*
X3846D01*
X3830Y5052D01*
X3815Y5046D01*
X3801Y5037D01*
X3789Y5025D01*
X3780Y5011D01*
X3774Y4996D01*
X3771Y4980D01*
Y4963D01*
X3774Y4947D01*
X3780Y4932D01*
X3789Y4918D01*
X3801Y4907D01*
X3815Y4897D01*
X3830Y4891D01*
X3846Y4888D01*
X3863D01*
X3879Y4891D01*
X3894Y4897D01*
X3908Y4907D01*
X3919Y4918D01*
X3929Y4932D01*
X3935Y4947D01*
X3938Y4963D01*
Y4980D01*
X3935Y4996D01*
X3929Y5011D01*
X3919Y5025D01*
X3908Y5037D01*
X3894Y5046D01*
X3879Y5052D01*
X3863Y5055D01*
D02*
G37*
G36*
X7074Y4935D02*
X7060D01*
X7045Y4932D01*
X7033Y4924D01*
X7022Y4914D01*
X7015Y4901D01*
X7011Y4887D01*
Y4872D01*
X7015Y4858D01*
X7022Y4845D01*
X7033Y4835D01*
X7045Y4828D01*
X7060Y4824D01*
X7074D01*
X7088Y4828D01*
X7101Y4835D01*
X7112Y4845D01*
X7119Y4858D01*
X7123Y4872D01*
Y4887D01*
X7119Y4901D01*
X7112Y4914D01*
X7101Y4924D01*
X7088Y4932D01*
X7074Y4935D01*
D02*
G37*
G36*
X3860Y4616D02*
X3848D01*
X3837Y4613D01*
X3827Y4607D01*
X3819Y4599D01*
X3813Y4589D01*
X3810Y4577D01*
Y4566D01*
X3813Y4555D01*
X3819Y4544D01*
X3827Y4536D01*
X3837Y4530D01*
X3848Y4527D01*
X3860D01*
X3871Y4530D01*
X3882Y4536D01*
X3890Y4544D01*
X3896Y4555D01*
X3899Y4566D01*
Y4577D01*
X3896Y4589D01*
X3890Y4599D01*
X3882Y4607D01*
X3871Y4613D01*
X3860Y4616D01*
D02*
G37*
G36*
X5256Y5128D02*
X5236Y5127D01*
X5217Y5122D01*
X5200Y5115D01*
X5183Y5105D01*
X5168Y5092D01*
X5156Y5077D01*
X5146Y5061D01*
X5138Y5043D01*
X5134Y5024D01*
X5132Y5005D01*
Y4880D01*
X5134Y4860D01*
X5138Y4841D01*
X5146Y4823D01*
X5155Y4809D01*
X5156Y4806D01*
X5166Y4790D01*
X5178Y4775D01*
X5193Y4762D01*
X5210Y4752D01*
X5228Y4745D01*
X5246Y4740D01*
X5266Y4739D01*
X6169D01*
X6264Y4644D01*
Y4455D01*
X6260Y4454D01*
X6250Y4463D01*
X6250Y4465D01*
Y4472D01*
X6247Y4480D01*
X6242Y4485D01*
X6234Y4489D01*
X6226D01*
X6219Y4485D01*
X6213Y4480D01*
X6212Y4478D01*
X6152D01*
X6148Y4477D01*
X6145Y4475D01*
X6089Y4419D01*
X6087Y4420D01*
X6079D01*
X6071Y4417D01*
X6066Y4411D01*
X6063Y4404D01*
Y4396D01*
X6066Y4388D01*
X6071Y4383D01*
X6079Y4380D01*
X6087D01*
X6094Y4383D01*
X6100Y4388D01*
X6103Y4396D01*
Y4404D01*
X6102Y4406D01*
X6155Y4459D01*
X6212D01*
X6213Y4457D01*
X6219Y4452D01*
X6226Y4449D01*
X6234D01*
X6235Y4449D01*
X6264Y4420D01*
Y4400D01*
Y4203D01*
X6266Y4183D01*
X6267Y4178D01*
X6231Y4143D01*
X6230Y4139D01*
X6230Y4139D01*
Y3937D01*
X6231Y3933D01*
X6231Y3933D01*
X6271Y3894D01*
X6275Y3892D01*
X6275Y3892D01*
X6781D01*
X6785Y3894D01*
X6787Y3898D01*
Y4114D01*
X6787Y4115D01*
X6787Y4116D01*
X6786Y4117D01*
X6785Y4118D01*
X6784Y4118D01*
X6784Y4119D01*
X6515Y4247D01*
X6514Y4247D01*
X6513Y4248D01*
X6511D01*
Y4400D01*
Y4695D01*
X6511Y4695D01*
X6510Y4714D01*
X6505Y4733D01*
X6498Y4751D01*
X6488Y4767D01*
X6475Y4782D01*
X6475Y4782D01*
X6308Y4950D01*
X6293Y4962D01*
X6277Y4972D01*
X6259Y4980D01*
X6240Y4984D01*
X6220Y4986D01*
X6220Y4986D01*
X5379D01*
Y5005D01*
X5378Y5024D01*
X5373Y5043D01*
X5366Y5061D01*
X5356Y5077D01*
X5343Y5092D01*
X5328Y5105D01*
X5312Y5115D01*
X5294Y5122D01*
X5275Y5127D01*
X5256Y5128D01*
D02*
G37*
G36*
X6805Y4331D02*
X6797D01*
X6790Y4328D01*
X6784Y4322D01*
X6781Y4315D01*
Y4307D01*
X6782Y4306D01*
X6753Y4277D01*
X6588D01*
X6587Y4278D01*
X6581Y4284D01*
X6574Y4287D01*
X6566D01*
X6559Y4284D01*
X6553Y4278D01*
X6550Y4271D01*
Y4263D01*
X6553Y4256D01*
X6559Y4250D01*
X6566Y4247D01*
X6574D01*
X6581Y4250D01*
X6587Y4256D01*
X6588Y4257D01*
X6757D01*
X6761Y4258D01*
X6764Y4260D01*
X6796Y4291D01*
X6797Y4291D01*
X6805D01*
X6813Y4294D01*
X6818Y4300D01*
X6821Y4307D01*
Y4315D01*
X6818Y4322D01*
X6813Y4328D01*
X6805Y4331D01*
D02*
G37*
G36*
X3860Y4316D02*
X3848D01*
X3837Y4313D01*
X3827Y4307D01*
X3819Y4299D01*
X3813Y4289D01*
X3810Y4277D01*
Y4266D01*
X3813Y4255D01*
X3819Y4244D01*
X3827Y4236D01*
X3837Y4230D01*
X3848Y4227D01*
X3860D01*
X3871Y4230D01*
X3882Y4236D01*
X3890Y4244D01*
X3896Y4255D01*
X3899Y4266D01*
Y4277D01*
X3896Y4289D01*
X3890Y4299D01*
X3882Y4307D01*
X3871Y4313D01*
X3860Y4316D01*
D02*
G37*
G36*
Y4016D02*
X3848D01*
X3837Y4013D01*
X3827Y4007D01*
X3819Y3999D01*
X3813Y3989D01*
X3810Y3977D01*
Y3966D01*
X3813Y3955D01*
X3819Y3944D01*
X3827Y3936D01*
X3837Y3930D01*
X3848Y3927D01*
X3860D01*
X3871Y3930D01*
X3882Y3936D01*
X3890Y3944D01*
X3896Y3955D01*
X3899Y3966D01*
Y3977D01*
X3896Y3989D01*
X3890Y3999D01*
X3882Y4007D01*
X3871Y4013D01*
X3860Y4016D01*
D02*
G37*
G36*
X6884Y4006D02*
X6876D01*
X6869Y4003D01*
X6863Y3998D01*
X6860Y3990D01*
Y3982D01*
X6863Y3975D01*
X6869Y3969D01*
X6870Y3969D01*
Y3892D01*
X6787Y3809D01*
X6641D01*
X6641Y3811D01*
X6635Y3816D01*
X6628Y3819D01*
X6620D01*
X6613Y3816D01*
X6607Y3811D01*
X6604Y3803D01*
Y3795D01*
X6607Y3788D01*
X6613Y3782D01*
X6620Y3779D01*
X6628D01*
X6635Y3782D01*
X6641Y3788D01*
X6641Y3789D01*
X6791D01*
X6795Y3790D01*
X6799Y3792D01*
X6887Y3881D01*
X6889Y3884D01*
X6890Y3888D01*
Y3969D01*
X6891Y3969D01*
X6897Y3975D01*
X6900Y3982D01*
Y3990D01*
X6897Y3998D01*
X6891Y4003D01*
X6884Y4006D01*
D02*
G37*
G36*
X7150Y4174D02*
X7142D01*
X7134Y4170D01*
X7129Y4165D01*
X7126Y4158D01*
Y4150D01*
X7129Y4142D01*
X7130Y4141D01*
Y4088D01*
X6698Y3655D01*
X6695D01*
X6690Y3653D01*
X6441D01*
X6160Y3934D01*
Y4067D01*
X6169Y4076D01*
X6173Y4082D01*
X6174Y4089D01*
Y4109D01*
X6178Y4113D01*
X6181Y4120D01*
Y4128D01*
X6178Y4135D01*
X6173Y4141D01*
X6165Y4144D01*
X6157D01*
X6150Y4141D01*
X6144Y4135D01*
X6141Y4128D01*
Y4128D01*
X6140Y4126D01*
X6139Y4119D01*
Y4096D01*
X6130Y4087D01*
X6126Y4082D01*
X6125Y4075D01*
Y3926D01*
X6126Y3920D01*
X6130Y3914D01*
X6421Y3623D01*
X6427Y3619D01*
X6434Y3617D01*
X6690D01*
X6695Y3615D01*
X6703D01*
X6711Y3618D01*
X6716Y3624D01*
X6719Y3631D01*
Y3634D01*
X7156Y4071D01*
X7160Y4076D01*
X7161Y4082D01*
Y4133D01*
X7184D01*
X7706Y3611D01*
Y3539D01*
X7707Y3533D01*
X7711Y3528D01*
X7739Y3500D01*
X7739Y3500D01*
X7737Y3490D01*
Y3479D01*
X7739Y3469D01*
X7745Y3460D01*
X7752Y3452D01*
X7761Y3447D01*
X7771Y3444D01*
X7782D01*
X7792Y3447D01*
X7801Y3452D01*
X7809Y3460D01*
X7814Y3469D01*
X7817Y3479D01*
Y3490D01*
X7814Y3500D01*
X7809Y3509D01*
X7801Y3516D01*
X7792Y3522D01*
X7782Y3524D01*
X7771D01*
X7761Y3522D01*
X7761Y3522D01*
X7737Y3546D01*
Y3581D01*
X7742Y3582D01*
X7745Y3578D01*
X7752Y3570D01*
X7761Y3565D01*
X7771Y3562D01*
X7782D01*
X7792Y3565D01*
X7801Y3570D01*
X7809Y3578D01*
X7814Y3587D01*
X7817Y3597D01*
Y3608D01*
X7814Y3618D01*
X7809Y3627D01*
X7801Y3634D01*
X7792Y3640D01*
X7782Y3642D01*
X7771D01*
X7761Y3640D01*
X7752Y3634D01*
X7745Y3627D01*
X7741Y3621D01*
X7736Y3622D01*
X7736Y3623D01*
X7732Y3628D01*
X7202Y4159D01*
X7197Y4162D01*
X7191Y4163D01*
X7163D01*
X7163Y4165D01*
X7157Y4170D01*
X7150Y4174D01*
D02*
G37*
G36*
X5518Y3642D02*
X5507D01*
X5497Y3640D01*
X5488Y3634D01*
X5481Y3627D01*
X5475Y3618D01*
X5473Y3608D01*
Y3597D01*
X5475Y3587D01*
X5481Y3578D01*
X5488Y3570D01*
X5497Y3565D01*
X5507Y3562D01*
X5518D01*
X5528Y3565D01*
X5537Y3570D01*
X5545Y3578D01*
X5550Y3587D01*
X5553Y3597D01*
Y3608D01*
X5550Y3618D01*
X5545Y3627D01*
X5537Y3634D01*
X5528Y3640D01*
X5518Y3642D01*
D02*
G37*
G36*
X7664Y3524D02*
X7653D01*
X7643Y3522D01*
X7634Y3516D01*
X7627Y3509D01*
X7621Y3500D01*
X7619Y3490D01*
Y3479D01*
X7621Y3469D01*
X7627Y3460D01*
X7634Y3452D01*
X7643Y3447D01*
X7653Y3444D01*
X7664D01*
X7674Y3447D01*
X7683Y3452D01*
X7691Y3460D01*
X7696Y3469D01*
X7699Y3479D01*
Y3490D01*
X7696Y3500D01*
X7691Y3509D01*
X7683Y3516D01*
X7674Y3522D01*
X7664Y3524D01*
D02*
G37*
G36*
X5518D02*
X5507D01*
X5497Y3522D01*
X5488Y3516D01*
X5481Y3509D01*
X5475Y3500D01*
X5473Y3490D01*
Y3479D01*
X5475Y3469D01*
X5481Y3460D01*
X5488Y3452D01*
X5497Y3447D01*
X5507Y3444D01*
X5518D01*
X5528Y3447D01*
X5537Y3452D01*
X5545Y3460D01*
X5550Y3469D01*
X5553Y3479D01*
Y3490D01*
X5550Y3500D01*
X5545Y3509D01*
X5537Y3516D01*
X5528Y3522D01*
X5518Y3524D01*
D02*
G37*
G36*
X5400D02*
X5389D01*
X5379Y3522D01*
X5370Y3516D01*
X5363Y3509D01*
X5357Y3500D01*
X5355Y3490D01*
Y3479D01*
X5357Y3469D01*
X5363Y3460D01*
X5370Y3452D01*
X5379Y3447D01*
X5389Y3444D01*
X5400D01*
X5410Y3447D01*
X5419Y3452D01*
X5427Y3460D01*
X5432Y3469D01*
X5435Y3479D01*
Y3490D01*
X5432Y3500D01*
X5427Y3509D01*
X5419Y3516D01*
X5410Y3522D01*
X5400Y3524D01*
D02*
G37*
G36*
X7252Y3056D02*
X7236D01*
X7220Y3053D01*
X7204Y3047D01*
X7191Y3037D01*
X7179Y3026D01*
X7170Y3012D01*
X7164Y2997D01*
X7160Y2981D01*
Y2964D01*
X7164Y2948D01*
X7170Y2933D01*
X7179Y2919D01*
X7191Y2907D01*
X7204Y2898D01*
X7220Y2892D01*
X7236Y2889D01*
X7252D01*
X7269Y2892D01*
X7284Y2898D01*
X7297Y2907D01*
X7309Y2919D01*
X7318Y2933D01*
X7325Y2948D01*
X7328Y2964D01*
Y2981D01*
X7325Y2997D01*
X7318Y3012D01*
X7309Y3026D01*
X7297Y3037D01*
X7284Y3047D01*
X7269Y3053D01*
X7252Y3056D01*
D02*
G37*
G36*
X6957D02*
X6941D01*
X6924Y3053D01*
X6909Y3047D01*
X6895Y3037D01*
X6884Y3026D01*
X6875Y3012D01*
X6868Y2997D01*
X6865Y2981D01*
Y2964D01*
X6868Y2948D01*
X6875Y2933D01*
X6884Y2919D01*
X6895Y2907D01*
X6909Y2898D01*
X6924Y2892D01*
X6941Y2889D01*
X6957D01*
X6973Y2892D01*
X6988Y2898D01*
X7002Y2907D01*
X7014Y2919D01*
X7023Y2933D01*
X7029Y2948D01*
X7033Y2964D01*
Y2981D01*
X7029Y2997D01*
X7023Y3012D01*
X7014Y3026D01*
X7002Y3037D01*
X6988Y3047D01*
X6973Y3053D01*
X6957Y3056D01*
D02*
G37*
G36*
X6209D02*
X6193D01*
X6176Y3053D01*
X6161Y3047D01*
X6147Y3037D01*
X6136Y3026D01*
X6127Y3012D01*
X6120Y2997D01*
X6117Y2981D01*
Y2964D01*
X6120Y2948D01*
X6127Y2933D01*
X6136Y2919D01*
X6147Y2907D01*
X6161Y2898D01*
X6176Y2892D01*
X6193Y2889D01*
X6209D01*
X6225Y2892D01*
X6240Y2898D01*
X6254Y2907D01*
X6266Y2919D01*
X6275Y2933D01*
X6281Y2948D01*
X6285Y2964D01*
Y2981D01*
X6281Y2997D01*
X6275Y3012D01*
X6266Y3026D01*
X6254Y3037D01*
X6240Y3047D01*
X6225Y3053D01*
X6209Y3056D01*
D02*
G37*
G36*
X5914D02*
X5897D01*
X5881Y3053D01*
X5866Y3047D01*
X5852Y3037D01*
X5840Y3026D01*
X5831Y3012D01*
X5825Y2997D01*
X5822Y2981D01*
Y2964D01*
X5825Y2948D01*
X5831Y2933D01*
X5840Y2919D01*
X5852Y2907D01*
X5866Y2898D01*
X5881Y2892D01*
X5897Y2889D01*
X5914D01*
X5930Y2892D01*
X5945Y2898D01*
X5959Y2907D01*
X5971Y2919D01*
X5980Y2933D01*
X5986Y2948D01*
X5989Y2964D01*
Y2981D01*
X5986Y2997D01*
X5980Y3012D01*
X5971Y3026D01*
X5959Y3037D01*
X5945Y3047D01*
X5930Y3053D01*
X5914Y3056D01*
D02*
G37*
G36*
X8672Y3206D02*
X8651D01*
X8630Y3203D01*
X8609Y3197D01*
X8589Y3189D01*
X8571Y3179D01*
X8554Y3166D01*
X8539Y3151D01*
X8526Y3134D01*
X8515Y3115D01*
X8507Y3096D01*
X8502Y3075D01*
X8499Y3054D01*
Y3033D01*
X8502Y3012D01*
X8507Y2991D01*
X8515Y2971D01*
X8526Y2953D01*
X8539Y2936D01*
X8554Y2921D01*
X8571Y2908D01*
X8589Y2897D01*
X8609Y2889D01*
X8630Y2884D01*
X8651Y2881D01*
X8672D01*
X8693Y2884D01*
X8714Y2889D01*
X8733Y2897D01*
X8752Y2908D01*
X8769Y2921D01*
X8784Y2936D01*
X8797Y2953D01*
X8807Y2971D01*
X8816Y2991D01*
X8821Y3012D01*
X8824Y3033D01*
Y3054D01*
X8821Y3075D01*
X8816Y3096D01*
X8807Y3115D01*
X8797Y3134D01*
X8784Y3151D01*
X8769Y3166D01*
X8752Y3179D01*
X8733Y3189D01*
X8714Y3197D01*
X8693Y3203D01*
X8672Y3206D01*
D02*
G37*
G36*
X4499D02*
X4478D01*
X4456Y3203D01*
X4436Y3197D01*
X4416Y3189D01*
X4398Y3179D01*
X4381Y3166D01*
X4366Y3151D01*
X4353Y3134D01*
X4342Y3115D01*
X4334Y3096D01*
X4328Y3075D01*
X4326Y3054D01*
Y3033D01*
X4328Y3012D01*
X4334Y2991D01*
X4342Y2971D01*
X4353Y2953D01*
X4366Y2936D01*
X4381Y2921D01*
X4398Y2908D01*
X4416Y2897D01*
X4436Y2889D01*
X4456Y2884D01*
X4478Y2881D01*
X4499D01*
X4520Y2884D01*
X4541Y2889D01*
X4560Y2897D01*
X4579Y2908D01*
X4596Y2921D01*
X4611Y2936D01*
X4624Y2953D01*
X4634Y2971D01*
X4642Y2991D01*
X4648Y3012D01*
X4651Y3033D01*
Y3054D01*
X4648Y3075D01*
X4642Y3096D01*
X4634Y3115D01*
X4624Y3134D01*
X4611Y3151D01*
X4596Y3166D01*
X4579Y3179D01*
X4560Y3189D01*
X4541Y3197D01*
X4520Y3203D01*
X4499Y3206D01*
D02*
G37*
G36*
X3371Y2806D02*
X3361D01*
X3351Y2803D01*
X3342Y2798D01*
X3334Y2790D01*
X3329Y2781D01*
X3326Y2771D01*
Y2760D01*
X3329Y2750D01*
X3334Y2741D01*
X3342Y2734D01*
X3351Y2728D01*
X3361Y2726D01*
X3371D01*
X3382Y2728D01*
X3391Y2734D01*
X3398Y2741D01*
X3403Y2750D01*
X3406Y2760D01*
Y2771D01*
X3403Y2781D01*
X3398Y2790D01*
X3391Y2798D01*
X3382Y2803D01*
X3371Y2806D01*
D02*
G37*
G36*
X3253D02*
X3243D01*
X3233Y2803D01*
X3224Y2798D01*
X3216Y2790D01*
X3211Y2781D01*
X3208Y2771D01*
Y2760D01*
X3211Y2750D01*
X3216Y2741D01*
X3224Y2734D01*
X3233Y2728D01*
X3243Y2726D01*
X3253D01*
X3264Y2728D01*
X3273Y2734D01*
X3280Y2741D01*
X3285Y2750D01*
X3288Y2760D01*
Y2771D01*
X3285Y2781D01*
X3280Y2790D01*
X3273Y2798D01*
X3264Y2803D01*
X3253Y2806D01*
D02*
G37*
G36*
Y2688D02*
X3243D01*
X3233Y2685D01*
X3224Y2680D01*
X3216Y2672D01*
X3211Y2663D01*
X3208Y2653D01*
Y2642D01*
X3211Y2632D01*
X3216Y2623D01*
X3224Y2616D01*
X3233Y2610D01*
X3243Y2608D01*
X3253D01*
X3264Y2610D01*
X3273Y2616D01*
X3280Y2623D01*
X3285Y2632D01*
X3288Y2642D01*
Y2653D01*
X3285Y2663D01*
X3280Y2672D01*
X3273Y2680D01*
X3264Y2685D01*
X3253Y2688D01*
D02*
G37*
%LPD*%
G36*
X6781Y4114D02*
Y3898D01*
X6275D01*
X6235Y3937D01*
Y4139D01*
X6339Y4242D01*
X6513D01*
X6781Y4114D01*
D02*
G37*
%LPC*%
G36*
X225Y5503D02*
X208D01*
X190Y5500D01*
X174Y5493D01*
X159Y5483D01*
X147Y5471D01*
X137Y5456D01*
X130Y5440D01*
X127Y5422D01*
Y5405D01*
X130Y5387D01*
X137Y5371D01*
X147Y5356D01*
X159Y5344D01*
X174Y5334D01*
X190Y5327D01*
X208Y5324D01*
X225D01*
X243Y5327D01*
X259Y5334D01*
X274Y5344D01*
X286Y5356D01*
X296Y5371D01*
X303Y5387D01*
X306Y5405D01*
Y5422D01*
X303Y5440D01*
X296Y5456D01*
X286Y5471D01*
X274Y5483D01*
X259Y5493D01*
X243Y5500D01*
X225Y5503D01*
D02*
G37*
G36*
X1961Y5055D02*
X1945D01*
X1928Y5052D01*
X1913Y5046D01*
X1899Y5037D01*
X1888Y5025D01*
X1879Y5011D01*
X1872Y4996D01*
X1869Y4980D01*
Y4963D01*
X1872Y4947D01*
X1879Y4932D01*
X1888Y4918D01*
X1899Y4907D01*
X1913Y4897D01*
X1928Y4891D01*
X1945Y4888D01*
X1961D01*
X1977Y4891D01*
X1992Y4897D01*
X2006Y4907D01*
X2018Y4918D01*
X2027Y4932D01*
X2033Y4947D01*
X2036Y4963D01*
Y4980D01*
X2033Y4996D01*
X2027Y5011D01*
X2018Y5025D01*
X2006Y5037D01*
X1992Y5046D01*
X1977Y5052D01*
X1961Y5055D01*
D02*
G37*
G36*
X1959Y4616D02*
X1947D01*
X1936Y4613D01*
X1926Y4607D01*
X1917Y4599D01*
X1911Y4589D01*
X1908Y4577D01*
Y4566D01*
X1911Y4555D01*
X1917Y4544D01*
X1926Y4536D01*
X1936Y4530D01*
X1947Y4527D01*
X1959D01*
X1970Y4530D01*
X1980Y4536D01*
X1988Y4544D01*
X1994Y4555D01*
X1997Y4566D01*
Y4577D01*
X1994Y4589D01*
X1988Y4599D01*
X1980Y4607D01*
X1970Y4613D01*
X1959Y4616D01*
D02*
G37*
G36*
X865Y4531D02*
X847D01*
X830Y4527D01*
X813Y4520D01*
X798Y4510D01*
X785Y4497D01*
X775Y4482D01*
X768Y4466D01*
X765Y4448D01*
Y4430D01*
X768Y4412D01*
X775Y4396D01*
X785Y4381D01*
X798Y4368D01*
X813Y4358D01*
X830Y4351D01*
X847Y4347D01*
X865D01*
X883Y4351D01*
X900Y4358D01*
X915Y4368D01*
X927Y4381D01*
X937Y4396D01*
X944Y4412D01*
X948Y4430D01*
Y4448D01*
X944Y4466D01*
X937Y4482D01*
X927Y4497D01*
X915Y4510D01*
X900Y4520D01*
X883Y4527D01*
X865Y4531D01*
D02*
G37*
G36*
X1959Y4316D02*
X1947D01*
X1936Y4313D01*
X1926Y4307D01*
X1917Y4299D01*
X1911Y4289D01*
X1908Y4277D01*
Y4266D01*
X1911Y4255D01*
X1917Y4244D01*
X1926Y4236D01*
X1936Y4230D01*
X1947Y4227D01*
X1959D01*
X1970Y4230D01*
X1980Y4236D01*
X1988Y4244D01*
X1994Y4255D01*
X1997Y4266D01*
Y4277D01*
X1994Y4289D01*
X1988Y4299D01*
X1980Y4307D01*
X1970Y4313D01*
X1959Y4316D01*
D02*
G37*
G36*
Y4016D02*
X1947D01*
X1936Y4013D01*
X1926Y4007D01*
X1917Y3999D01*
X1911Y3989D01*
X1908Y3977D01*
Y3966D01*
X1911Y3955D01*
X1917Y3944D01*
X1926Y3936D01*
X1936Y3930D01*
X1947Y3927D01*
X1959D01*
X1970Y3930D01*
X1980Y3936D01*
X1988Y3944D01*
X1994Y3955D01*
X1997Y3966D01*
Y3977D01*
X1994Y3989D01*
X1988Y3999D01*
X1980Y4007D01*
X1970Y4013D01*
X1959Y4016D01*
D02*
G37*
G36*
X855Y3271D02*
X837D01*
X820Y3267D01*
X803Y3260D01*
X788Y3250D01*
X775Y3238D01*
X765Y3223D01*
X758Y3206D01*
X755Y3188D01*
Y3170D01*
X758Y3152D01*
X765Y3136D01*
X775Y3121D01*
X788Y3108D01*
X803Y3098D01*
X820Y3091D01*
X837Y3088D01*
X855D01*
X873Y3091D01*
X890Y3098D01*
X905Y3108D01*
X918Y3121D01*
X928Y3136D01*
X935Y3152D01*
X938Y3170D01*
Y3188D01*
X935Y3206D01*
X928Y3223D01*
X918Y3238D01*
X905Y3250D01*
X890Y3260D01*
X873Y3267D01*
X855Y3271D01*
D02*
G37*
G36*
X1875Y2579D02*
X1865D01*
X1855Y2577D01*
X1846Y2571D01*
X1838Y2564D01*
X1833Y2555D01*
X1830Y2545D01*
Y2534D01*
X1833Y2524D01*
X1838Y2515D01*
X1846Y2507D01*
X1855Y2502D01*
X1865Y2499D01*
X1875D01*
X1886Y2502D01*
X1895Y2507D01*
X1902Y2515D01*
X1907Y2524D01*
X1910Y2534D01*
Y2545D01*
X1907Y2555D01*
X1902Y2564D01*
X1895Y2571D01*
X1886Y2577D01*
X1875Y2579D01*
D02*
G37*
G36*
X5747Y1623D02*
X5733D01*
X5720Y1620D01*
X5708Y1615D01*
X5697Y1608D01*
X5687Y1598D01*
X5680Y1587D01*
X5675Y1575D01*
X5672Y1562D01*
Y1548D01*
X5675Y1535D01*
X5680Y1523D01*
X5687Y1512D01*
X5697Y1502D01*
X5708Y1495D01*
X5720Y1490D01*
X5733Y1487D01*
X5747D01*
X5760Y1490D01*
X5772Y1495D01*
X5784Y1502D01*
X5793Y1512D01*
X5800Y1523D01*
X5806Y1535D01*
X5808Y1548D01*
Y1562D01*
X5806Y1575D01*
X5800Y1587D01*
X5793Y1598D01*
X5784Y1608D01*
X5772Y1615D01*
X5760Y1620D01*
X5747Y1623D01*
D02*
G37*
G36*
X7436Y1584D02*
X7422D01*
X7409Y1581D01*
X7397Y1576D01*
X7386Y1569D01*
X7376Y1559D01*
X7369Y1548D01*
X7364Y1536D01*
X7361Y1522D01*
Y1509D01*
X7364Y1496D01*
X7369Y1484D01*
X7376Y1472D01*
X7386Y1463D01*
X7397Y1455D01*
X7409Y1450D01*
X7422Y1448D01*
X7436D01*
X7449Y1450D01*
X7461Y1455D01*
X7472Y1463D01*
X7482Y1472D01*
X7489Y1484D01*
X7495Y1496D01*
X7497Y1509D01*
Y1522D01*
X7495Y1536D01*
X7489Y1548D01*
X7482Y1559D01*
X7472Y1569D01*
X7461Y1576D01*
X7449Y1581D01*
X7436Y1584D01*
D02*
G37*
G36*
X3082Y1304D02*
X3060D01*
X3039Y1301D01*
X3019Y1296D01*
X2999Y1288D01*
X2980Y1277D01*
X2964Y1264D01*
X2948Y1249D01*
X2935Y1232D01*
X2925Y1214D01*
X2917Y1194D01*
X2911Y1173D01*
X2908Y1152D01*
Y1131D01*
X2911Y1110D01*
X2917Y1089D01*
X2925Y1070D01*
X2935Y1051D01*
X2948Y1034D01*
X2964Y1019D01*
X2980Y1006D01*
X2999Y996D01*
X3019Y988D01*
X3039Y982D01*
X3060Y979D01*
X3082D01*
X3103Y982D01*
X3123Y988D01*
X3143Y996D01*
X3161Y1006D01*
X3178Y1019D01*
X3193Y1034D01*
X3206Y1051D01*
X3217Y1070D01*
X3225Y1089D01*
X3231Y1110D01*
X3233Y1131D01*
Y1152D01*
X3231Y1173D01*
X3225Y1194D01*
X3217Y1214D01*
X3206Y1232D01*
X3193Y1249D01*
X3178Y1264D01*
X3161Y1277D01*
X3143Y1288D01*
X3123Y1296D01*
X3103Y1301D01*
X3082Y1304D01*
D02*
G37*
G36*
X393D02*
X371D01*
X350Y1301D01*
X330Y1296D01*
X310Y1288D01*
X291Y1277D01*
X275Y1264D01*
X259Y1249D01*
X247Y1232D01*
X236Y1214D01*
X228Y1194D01*
X222Y1173D01*
X219Y1152D01*
Y1131D01*
X222Y1110D01*
X228Y1089D01*
X236Y1070D01*
X247Y1051D01*
X259Y1034D01*
X275Y1019D01*
X291Y1006D01*
X310Y996D01*
X330Y988D01*
X350Y982D01*
X371Y979D01*
X393D01*
X414Y982D01*
X434Y988D01*
X454Y996D01*
X472Y1006D01*
X489Y1019D01*
X504Y1034D01*
X517Y1051D01*
X528Y1070D01*
X536Y1089D01*
X542Y1110D01*
X544Y1131D01*
Y1152D01*
X542Y1173D01*
X536Y1194D01*
X528Y1214D01*
X517Y1232D01*
X504Y1249D01*
X489Y1264D01*
X472Y1277D01*
X454Y1288D01*
X434Y1296D01*
X414Y1301D01*
X393Y1304D01*
D02*
G37*
G36*
X7133Y954D02*
X7119D01*
X7106Y951D01*
X7094Y946D01*
X7083Y939D01*
X7073Y929D01*
X7066Y918D01*
X7061Y906D01*
X7058Y893D01*
Y879D01*
X7061Y866D01*
X7066Y854D01*
X7073Y842D01*
X7083Y833D01*
X7094Y826D01*
X7106Y820D01*
X7119Y818D01*
X7133D01*
X7146Y820D01*
X7158Y826D01*
X7169Y833D01*
X7179Y842D01*
X7186Y854D01*
X7191Y866D01*
X7194Y879D01*
Y893D01*
X7191Y906D01*
X7186Y918D01*
X7179Y929D01*
X7169Y939D01*
X7158Y946D01*
X7146Y951D01*
X7133Y954D01*
D02*
G37*
G36*
X6365Y879D02*
X6351D01*
X6338Y875D01*
X6326Y869D01*
X6316Y859D01*
X6310Y847D01*
X6306Y834D01*
Y820D01*
X6310Y807D01*
X6316Y795D01*
X6326Y785D01*
X6338Y778D01*
X6351Y775D01*
X6365D01*
X6378Y778D01*
X6390Y785D01*
X6400Y795D01*
X6407Y807D01*
X6411Y820D01*
Y834D01*
X6407Y847D01*
X6400Y859D01*
X6390Y869D01*
X6378Y875D01*
X6365Y879D01*
D02*
G37*
G36*
X6050Y903D02*
X6037D01*
X6023Y900D01*
X6011Y895D01*
X6000Y887D01*
X5990Y878D01*
X5983Y867D01*
X5978Y854D01*
X5975Y841D01*
Y828D01*
X5978Y815D01*
X5983Y802D01*
X5990Y791D01*
X6000Y782D01*
X6011Y774D01*
X6023Y769D01*
X6037Y767D01*
X6050D01*
X6063Y769D01*
X6076Y774D01*
X6087Y782D01*
X6096Y791D01*
X6104Y802D01*
X6109Y815D01*
X6111Y828D01*
Y841D01*
X6109Y854D01*
X6104Y867D01*
X6096Y878D01*
X6087Y887D01*
X6076Y895D01*
X6063Y900D01*
X6050Y903D01*
D02*
G37*
G36*
X6838Y840D02*
X6824D01*
X6811Y836D01*
X6799Y829D01*
X6789Y819D01*
X6782Y808D01*
X6778Y794D01*
Y781D01*
X6782Y767D01*
X6789Y755D01*
X6799Y746D01*
X6811Y739D01*
X6824Y735D01*
X6838D01*
X6851Y739D01*
X6863Y746D01*
X6873Y755D01*
X6879Y767D01*
X6883Y781D01*
Y794D01*
X6879Y808D01*
X6873Y819D01*
X6863Y829D01*
X6851Y836D01*
X6838Y840D01*
D02*
G37*
G36*
X7133Y552D02*
X7119D01*
X7106Y550D01*
X7094Y545D01*
X7083Y537D01*
X7073Y528D01*
X7066Y516D01*
X7061Y504D01*
X7058Y491D01*
Y478D01*
X7061Y464D01*
X7066Y452D01*
X7073Y441D01*
X7083Y431D01*
X7094Y424D01*
X7106Y419D01*
X7119Y416D01*
X7133D01*
X7146Y419D01*
X7158Y424D01*
X7169Y431D01*
X7179Y441D01*
X7186Y452D01*
X7191Y464D01*
X7194Y478D01*
Y491D01*
X7191Y504D01*
X7186Y516D01*
X7179Y528D01*
X7169Y537D01*
X7158Y545D01*
X7146Y550D01*
X7133Y552D01*
D02*
G37*
G36*
X5714Y449D02*
X5703D01*
X5693Y447D01*
X5684Y441D01*
X5677Y434D01*
X5671Y425D01*
X5669Y415D01*
Y404D01*
X5671Y394D01*
X5677Y385D01*
X5684Y377D01*
X5693Y372D01*
X5703Y369D01*
X5714D01*
X5724Y372D01*
X5733Y377D01*
X5741Y385D01*
X5746Y394D01*
X5749Y404D01*
Y415D01*
X5746Y425D01*
X5741Y434D01*
X5733Y441D01*
X5724Y447D01*
X5714Y449D01*
D02*
G37*
G36*
X6050Y501D02*
X6037D01*
X6023Y498D01*
X6011Y493D01*
X6000Y486D01*
X5990Y476D01*
X5983Y465D01*
X5978Y453D01*
X5975Y440D01*
Y426D01*
X5978Y413D01*
X5983Y401D01*
X5990Y390D01*
X6000Y380D01*
X6011Y373D01*
X6023Y368D01*
X6037Y365D01*
X6050D01*
X6063Y368D01*
X6076Y373D01*
X6087Y380D01*
X6096Y390D01*
X6104Y401D01*
X6109Y413D01*
X6111Y426D01*
Y440D01*
X6109Y453D01*
X6104Y465D01*
X6096Y476D01*
X6087Y486D01*
X6076Y493D01*
X6063Y498D01*
X6050Y501D01*
D02*
G37*
G36*
X7545Y414D02*
X7534D01*
X7524Y411D01*
X7515Y406D01*
X7507Y399D01*
X7502Y389D01*
X7499Y379D01*
Y369D01*
X7502Y359D01*
X7507Y349D01*
X7515Y342D01*
X7524Y337D01*
X7534Y334D01*
X7545D01*
X7555Y337D01*
X7564Y342D01*
X7571Y349D01*
X7577Y359D01*
X7579Y369D01*
Y379D01*
X7577Y389D01*
X7571Y399D01*
X7564Y406D01*
X7555Y411D01*
X7545Y414D01*
D02*
G37*
G36*
X5714Y331D02*
X5703D01*
X5693Y329D01*
X5684Y323D01*
X5677Y316D01*
X5671Y307D01*
X5669Y297D01*
Y286D01*
X5671Y276D01*
X5677Y267D01*
X5684Y259D01*
X5693Y254D01*
X5703Y251D01*
X5714D01*
X5724Y254D01*
X5733Y259D01*
X5741Y267D01*
X5746Y276D01*
X5749Y286D01*
Y297D01*
X5746Y307D01*
X5741Y316D01*
X5733Y323D01*
X5724Y329D01*
X5714Y331D01*
D02*
G37*
G36*
X7545Y296D02*
X7534D01*
X7524Y293D01*
X7515Y288D01*
X7507Y280D01*
X7502Y271D01*
X7499Y261D01*
Y251D01*
X7502Y240D01*
X7507Y231D01*
X7515Y224D01*
X7524Y219D01*
X7534Y216D01*
X7545D01*
X7555Y219D01*
X7564Y224D01*
X7571Y231D01*
X7577Y240D01*
X7579Y251D01*
Y261D01*
X7577Y271D01*
X7571Y280D01*
X7564Y288D01*
X7555Y293D01*
X7545Y296D01*
D02*
G37*
G36*
X4499Y517D02*
X4478D01*
X4456Y514D01*
X4436Y509D01*
X4416Y500D01*
X4398Y490D01*
X4381Y477D01*
X4366Y462D01*
X4353Y445D01*
X4342Y426D01*
X4334Y407D01*
X4328Y386D01*
X4326Y365D01*
Y344D01*
X4328Y323D01*
X4334Y302D01*
X4342Y282D01*
X4353Y264D01*
X4366Y247D01*
X4381Y232D01*
X4398Y219D01*
X4416Y208D01*
X4436Y200D01*
X4456Y195D01*
X4478Y192D01*
X4499D01*
X4520Y195D01*
X4541Y200D01*
X4560Y208D01*
X4579Y219D01*
X4596Y232D01*
X4611Y247D01*
X4624Y264D01*
X4634Y282D01*
X4642Y302D01*
X4648Y323D01*
X4651Y344D01*
Y365D01*
X4648Y386D01*
X4642Y407D01*
X4634Y426D01*
X4624Y445D01*
X4611Y462D01*
X4596Y477D01*
X4579Y490D01*
X4560Y500D01*
X4541Y509D01*
X4520Y514D01*
X4499Y517D01*
D02*
G37*
G36*
X6365Y288D02*
X6351D01*
X6338Y285D01*
X6326Y278D01*
X6316Y268D01*
X6310Y256D01*
X6306Y243D01*
Y229D01*
X6310Y216D01*
X6316Y204D01*
X6326Y194D01*
X6338Y188D01*
X6351Y184D01*
X6365D01*
X6378Y188D01*
X6390Y194D01*
X6400Y204D01*
X6407Y216D01*
X6411Y229D01*
Y243D01*
X6407Y256D01*
X6400Y268D01*
X6390Y278D01*
X6378Y285D01*
X6365Y288D01*
D02*
G37*
G36*
X6838Y249D02*
X6824D01*
X6811Y246D01*
X6799Y239D01*
X6789Y229D01*
X6782Y217D01*
X6778Y204D01*
Y190D01*
X6782Y177D01*
X6789Y165D01*
X6799Y155D01*
X6811Y148D01*
X6824Y145D01*
X6838D01*
X6851Y148D01*
X6863Y155D01*
X6873Y165D01*
X6879Y177D01*
X6883Y190D01*
Y204D01*
X6879Y217D01*
X6873Y229D01*
X6863Y239D01*
X6851Y246D01*
X6838Y249D01*
D02*
G37*
G36*
X225Y306D02*
X208D01*
X190Y303D01*
X174Y296D01*
X159Y286D01*
X147Y274D01*
X137Y259D01*
X130Y243D01*
X127Y225D01*
Y208D01*
X130Y190D01*
X137Y174D01*
X147Y159D01*
X159Y147D01*
X174Y137D01*
X190Y130D01*
X208Y127D01*
X225D01*
X243Y130D01*
X259Y137D01*
X274Y147D01*
X286Y159D01*
X296Y174D01*
X303Y190D01*
X306Y208D01*
Y225D01*
X303Y243D01*
X296Y259D01*
X286Y274D01*
X274Y286D01*
X259Y296D01*
X243Y303D01*
X225Y306D01*
D02*
G37*
%LPD*%
D10*
X6570Y4267D02*
X6757D01*
X6801Y4311D01*
X6230Y4469D02*
X6299Y4400D01*
X6388D01*
X6791Y3799D02*
X6880Y3888D01*
X6624Y3799D02*
X6791D01*
X6880Y3888D02*
Y3986D01*
D29*
X6570Y4267D02*
D03*
X6801Y4311D02*
D03*
X6398Y3947D02*
D03*
X6496D02*
D03*
X6634Y3996D02*
D03*
X6358Y4114D02*
D03*
X6585Y4055D02*
D03*
X6211Y4390D02*
D03*
X6190Y4055D02*
D03*
X6713Y3996D02*
D03*
X6535D02*
D03*
X6309Y4055D02*
D03*
X6752D02*
D03*
X6663D02*
D03*
X6526Y4114D02*
D03*
X6437D02*
D03*
X6348Y3996D02*
D03*
X7146Y4154D02*
D03*
X6299Y2618D02*
D03*
X6870Y2352D02*
D03*
X5846Y2096D02*
D03*
X6093Y2283D02*
D03*
X5128Y2470D02*
D03*
X7136Y2264D02*
D03*
X7628Y2224D02*
D03*
X6230Y4469D02*
D03*
X6083Y4596D02*
D03*
X6161Y4124D02*
D03*
X6699Y3635D02*
D03*
X6880Y3986D02*
D03*
X6398Y4055D02*
D03*
X6486D02*
D03*
X6083Y4400D02*
D03*
X6624Y3799D02*
D03*
X6594Y3947D02*
D03*
X6447Y3996D02*
D03*
D75*
X6142Y3926D02*
Y4075D01*
X6157Y4089D01*
Y4119D01*
X6142Y3926D02*
X6434Y3635D01*
X6699D01*
X6157Y4119D02*
X6161Y4124D01*
D76*
X7191Y4148D02*
X7722Y3617D01*
X7146Y4082D02*
Y4154D01*
X7151Y4148D01*
X7191D01*
X6699Y3635D02*
X7146Y4082D01*
X5787Y2195D02*
X5846Y2136D01*
Y2096D02*
Y2136D01*
X7722Y3539D02*
X7777Y3484D01*
X7722Y3539D02*
Y3617D01*
D78*
X6083Y4400D02*
X6152Y4469D01*
X6230D01*
D82*
X9626Y5413D02*
D03*
X217Y217D02*
D03*
X9626D02*
D03*
X217Y5413D02*
D03*
D83*
X3071Y1142D02*
D03*
X382D02*
D03*
X4488Y3043D02*
D03*
Y354D02*
D03*
X8661Y3043D02*
D03*
Y354D02*
D03*
D84*
X311Y1736D02*
D03*
Y1854D02*
D03*
X7539Y374D02*
D03*
Y256D02*
D03*
X1870Y2421D02*
D03*
Y2539D02*
D03*
X5709Y409D02*
D03*
Y291D02*
D03*
X7777Y3602D02*
D03*
Y3484D02*
D03*
X7659Y3602D02*
D03*
Y3484D02*
D03*
X5513Y3602D02*
D03*
Y3484D02*
D03*
X5395Y3602D02*
D03*
Y3484D02*
D03*
X8179Y5187D02*
D03*
X8061D02*
D03*
Y5305D02*
D03*
X8179D02*
D03*
X7943D02*
D03*
X7825D02*
D03*
Y5187D02*
D03*
X7943D02*
D03*
X3366Y2766D02*
D03*
Y2648D02*
D03*
X3248Y2766D02*
D03*
Y2648D02*
D03*
D85*
X1953Y4972D02*
D03*
Y3572D02*
D03*
X3854Y4972D02*
D03*
Y3572D02*
D03*
X7244Y2972D02*
D03*
X6949D02*
D03*
X6201D02*
D03*
X5906D02*
D03*
D86*
X1953Y4572D02*
D03*
Y4272D02*
D03*
Y3972D02*
D03*
X3854Y4572D02*
D03*
Y4272D02*
D03*
Y3972D02*
D03*
D87*
X7429Y1516D02*
D03*
X7028D02*
D03*
X7126Y484D02*
D03*
Y886D02*
D03*
X6043Y433D02*
D03*
Y835D02*
D03*
X5740Y1555D02*
D03*
X6142D02*
D03*
D88*
X6831Y197D02*
D03*
Y787D02*
D03*
X6358Y236D02*
D03*
Y827D02*
D03*
D89*
X8094Y5475D02*
D03*
X7909D02*
D03*
D90*
X5443Y5522D02*
D03*
X4774D02*
D03*
X7254D02*
D03*
X6585D02*
D03*
D91*
X5256Y5005D02*
D03*
X4961Y4880D02*
D03*
X5256D02*
D03*
X4961Y5005D02*
D03*
X7067D02*
D03*
X6772Y4880D02*
D03*
X7067D02*
D03*
X6772Y5005D02*
D03*
D92*
X856Y4833D02*
D03*
Y4439D02*
D03*
X846Y2785D02*
D03*
Y3179D02*
D03*
D93*
X6388Y4203D02*
Y4400D01*
X5256Y4880D02*
Y5005D01*
X6388Y4400D02*
Y4695D01*
X5266Y4862D02*
X6220D01*
X6388Y4695D01*
M02*
