G04*
G04 #@! TF.GenerationSoftware,Altium Limited,Altium Designer,21.9.2 (33)*
G04*
G04 Layer_Color=8388736*
%FSLAX25Y25*%
%MOIN*%
G70*
G04*
G04 #@! TF.SameCoordinates,20C0D9CC-F100-46A5-AC51-F6AD6B347EFB*
G04*
G04*
G04 #@! TF.FilePolarity,Negative*
G04*
G01*
G75*
%ADD12C,0.01000*%
%ADD15C,0.00500*%
%ADD17C,0.00600*%
%ADD41R,0.06312X0.04934*%
%ADD42R,0.04934X0.06312*%
%ADD43R,0.04343X0.06115*%
%ADD44R,0.34265X0.32296*%
%ADD45R,0.06509X0.07887*%
%ADD46R,0.01981X0.06115*%
%ADD47R,0.06115X0.04343*%
%ADD48R,0.03359X0.06902*%
%ADD49O,0.03162X0.06706*%
%ADD50C,0.03800*%
%ADD51R,0.10642X0.03556*%
%ADD52R,0.03950X0.04343*%
%ADD53R,0.07887X0.06509*%
%ADD54R,0.09698X0.11824*%
%ADD55R,0.22060X0.12217*%
%ADD56R,0.20485X0.20485*%
%ADD57R,0.02375X0.04343*%
%ADD58R,0.07690X0.06509*%
%ADD59R,0.03162X0.08674*%
%ADD60R,0.12414X0.09658*%
%ADD61R,0.07493X0.11430*%
%ADD62R,0.11430X0.07493*%
%ADD63R,0.03162X0.06706*%
%ADD64C,0.07887*%
%ADD65C,0.06400*%
%ADD66C,0.10958*%
%ADD67C,0.15800*%
%ADD68C,0.17729*%
%ADD69C,0.06824*%
%ADD70R,0.06824X0.06824*%
%ADD71C,0.07800*%
%ADD72C,0.15600*%
%ADD73C,0.05524*%
%ADD74C,0.13800*%
%ADD75R,0.07099X0.07099*%
%ADD76C,0.07099*%
%ADD77R,0.07099X0.07099*%
%ADD78C,0.08800*%
D12*
Y0D02*
Y489500D01*
X700000D01*
Y0D02*
Y489500D01*
X0Y0D02*
X700000D01*
X712000Y6000D02*
X714000Y0D01*
X716000Y6000D01*
X714000Y489500D02*
X716000Y483500D01*
X712000D02*
X714000Y489500D01*
Y0D02*
Y222056D01*
Y264244D02*
Y489500D01*
X701500Y0D02*
X715000D01*
X701500Y489500D02*
X715000D01*
X0Y496500D02*
X6000Y498500D01*
X0Y496500D02*
X6000Y494500D01*
X694000D02*
X700000Y496500D01*
X694000Y498500D02*
X700000Y496500D01*
X0D02*
X700000D01*
X0D02*
X700000D01*
X0Y491000D02*
Y497500D01*
X700000Y491000D02*
Y497500D01*
D15*
X17504Y181004D02*
X90496D01*
Y378996D01*
X17504D02*
X90496D01*
X17504Y181004D02*
Y378996D01*
Y181004D02*
X90496D01*
Y378996D01*
X17504D02*
X90496D01*
X17504Y181004D02*
Y378996D01*
D17*
X717599Y226655D02*
X711601D01*
X714600Y223656D01*
Y227655D01*
X712601Y229654D02*
X711601Y230654D01*
Y232653D01*
X712601Y233653D01*
X713600D01*
X714600Y232653D01*
X715600Y233653D01*
X716599D01*
X717599Y232653D01*
Y230654D01*
X716599Y229654D01*
X715600D01*
X714600Y230654D01*
X713600Y229654D01*
X712601D01*
X714600Y230654D02*
Y232653D01*
X716599Y235652D02*
X717599Y236652D01*
Y238651D01*
X716599Y239651D01*
X712601D01*
X711601Y238651D01*
Y236652D01*
X712601Y235652D01*
X713600D01*
X714600Y236652D01*
Y239651D01*
X711601Y245649D02*
Y241651D01*
X714600D01*
X713600Y243650D01*
Y244650D01*
X714600Y245649D01*
X716599D01*
X717599Y244650D01*
Y242650D01*
X716599Y241651D01*
X717599Y247649D02*
X716599D01*
Y248648D01*
X717599D01*
Y247649D01*
X712601Y252647D02*
X711601Y253647D01*
Y255646D01*
X712601Y256646D01*
X716599D01*
X717599Y255646D01*
Y253647D01*
X716599Y252647D01*
X712601D01*
Y258645D02*
X711601Y259645D01*
Y261644D01*
X712601Y262644D01*
X716599D01*
X717599Y261644D01*
Y259645D01*
X716599Y258645D01*
X712601D01*
X328100Y504098D02*
X332099D01*
Y503098D01*
X328100Y499100D01*
Y498100D01*
X334098Y503098D02*
X335098Y504098D01*
X337097D01*
X338097Y503098D01*
Y499100D01*
X337097Y498100D01*
X335098D01*
X334098Y499100D01*
Y503098D01*
X340096D02*
X341096Y504098D01*
X343095D01*
X344095Y503098D01*
Y499100D01*
X343095Y498100D01*
X341096D01*
X340096Y499100D01*
Y503098D01*
X346094D02*
X347094Y504098D01*
X349093D01*
X350093Y503098D01*
Y499100D01*
X349093Y498100D01*
X347094D01*
X346094Y499100D01*
Y503098D01*
X352092Y498100D02*
Y499100D01*
X353092D01*
Y498100D01*
X352092D01*
X357091Y503098D02*
X358090Y504098D01*
X360090D01*
X361089Y503098D01*
Y499100D01*
X360090Y498100D01*
X358090D01*
X357091Y499100D01*
Y503098D01*
X363089D02*
X364088Y504098D01*
X366088D01*
X367087Y503098D01*
Y499100D01*
X366088Y498100D01*
X364088D01*
X363089Y499100D01*
Y503098D01*
D41*
X165000Y470240D02*
D03*
Y462760D02*
D03*
X574000Y338240D02*
D03*
Y330760D02*
D03*
X686000Y384240D02*
D03*
Y376760D02*
D03*
X514000Y383740D02*
D03*
Y376260D02*
D03*
X227000Y331260D02*
D03*
Y338740D02*
D03*
X402000Y330760D02*
D03*
Y338240D02*
D03*
X339000Y376760D02*
D03*
Y384240D02*
D03*
X366816Y329961D02*
D03*
Y322480D02*
D03*
X401816Y323461D02*
D03*
Y315980D02*
D03*
X120000Y472240D02*
D03*
Y464760D02*
D03*
X138500Y153760D02*
D03*
Y161240D02*
D03*
X110500Y129740D02*
D03*
Y122260D02*
D03*
X191900Y329940D02*
D03*
Y322460D02*
D03*
X226900Y323440D02*
D03*
Y315960D02*
D03*
X539000Y329740D02*
D03*
Y322260D02*
D03*
X574000Y323240D02*
D03*
Y315760D02*
D03*
X31500Y45740D02*
D03*
Y38260D02*
D03*
D42*
X148760Y451000D02*
D03*
X156240D02*
D03*
X25760Y101500D02*
D03*
X33240D02*
D03*
X489576Y404720D02*
D03*
X497056D02*
D03*
X322140Y404700D02*
D03*
X314660D02*
D03*
X661760Y404500D02*
D03*
X669240D02*
D03*
X62240Y100000D02*
D03*
X54760D02*
D03*
X62740Y158000D02*
D03*
X55260D02*
D03*
X558260Y102500D02*
D03*
X565740D02*
D03*
X620240Y156000D02*
D03*
X612760D02*
D03*
X543760Y110000D02*
D03*
X551240D02*
D03*
X273201Y156020D02*
D03*
X265721D02*
D03*
X211221Y102520D02*
D03*
X218701D02*
D03*
X196721Y110020D02*
D03*
X204201D02*
D03*
X448059Y156000D02*
D03*
X440579D02*
D03*
X386079Y102500D02*
D03*
X393559D02*
D03*
X371579Y110000D02*
D03*
X379059D02*
D03*
D43*
X219063Y347000D02*
D03*
X226937D02*
D03*
X394563Y347500D02*
D03*
X402437D02*
D03*
X573937Y348500D02*
D03*
X566063D02*
D03*
X506879Y396220D02*
D03*
X514753D02*
D03*
X365379Y301720D02*
D03*
X373253D02*
D03*
X393253D02*
D03*
X385379D02*
D03*
X134437Y100500D02*
D03*
X126563D02*
D03*
X331963Y396200D02*
D03*
X339837D02*
D03*
X190463Y301700D02*
D03*
X198337D02*
D03*
X218337D02*
D03*
X210463D02*
D03*
X686937Y396000D02*
D03*
X679063D02*
D03*
X537563Y301500D02*
D03*
X545437D02*
D03*
X565437D02*
D03*
X557563D02*
D03*
X139937Y483500D02*
D03*
X132063D02*
D03*
X111937Y400000D02*
D03*
X104063D02*
D03*
X12437Y58000D02*
D03*
X4563D02*
D03*
X18937Y30500D02*
D03*
X11063D02*
D03*
X560063Y150000D02*
D03*
X567937D02*
D03*
X583563Y102000D02*
D03*
X591437D02*
D03*
X236524Y102020D02*
D03*
X244398D02*
D03*
X213024Y150020D02*
D03*
X220898D02*
D03*
X411382Y102000D02*
D03*
X419256D02*
D03*
X387882Y150000D02*
D03*
X395756D02*
D03*
D44*
X290461Y352984D02*
D03*
Y284020D02*
D03*
X465319Y352965D02*
D03*
Y284000D02*
D03*
X637500D02*
D03*
Y352965D02*
D03*
D45*
X17012Y77500D02*
D03*
X5988D02*
D03*
X94488Y380500D02*
D03*
X105512D02*
D03*
X105012Y370000D02*
D03*
X93988D02*
D03*
X55488Y90500D02*
D03*
X66512D02*
D03*
X54988Y167500D02*
D03*
X66012D02*
D03*
X5988Y67500D02*
D03*
X17012D02*
D03*
X612988Y165500D02*
D03*
X624012D02*
D03*
X539488Y101000D02*
D03*
X550512D02*
D03*
X265949Y165520D02*
D03*
X276972D02*
D03*
X192449Y101020D02*
D03*
X203472D02*
D03*
X440807Y165500D02*
D03*
X451831D02*
D03*
X367307Y101000D02*
D03*
X378331D02*
D03*
D46*
X123563Y149240D02*
D03*
X125531D02*
D03*
X127500D02*
D03*
X129469D02*
D03*
X131437D02*
D03*
X123563Y166760D02*
D03*
X125531D02*
D03*
X127500D02*
D03*
X129469D02*
D03*
X131437D02*
D03*
D47*
X119000Y93563D02*
D03*
Y101437D02*
D03*
X409316Y198658D02*
D03*
Y190784D02*
D03*
X234400Y198637D02*
D03*
Y190763D02*
D03*
X172461Y132083D02*
D03*
Y139957D02*
D03*
X347319Y132063D02*
D03*
Y139937D02*
D03*
X519500D02*
D03*
Y132063D02*
D03*
X581500Y198437D02*
D03*
Y190563D02*
D03*
X74500Y330874D02*
D03*
Y323000D02*
D03*
X14500Y108063D02*
D03*
Y115937D02*
D03*
X6500D02*
D03*
Y108063D02*
D03*
X37000Y81437D02*
D03*
Y73563D02*
D03*
X46000Y81437D02*
D03*
Y73563D02*
D03*
X10000Y38563D02*
D03*
Y46437D02*
D03*
X545000Y144563D02*
D03*
Y152437D02*
D03*
X562000Y358563D02*
D03*
Y366437D02*
D03*
X575000D02*
D03*
Y358563D02*
D03*
X227961Y366457D02*
D03*
Y358583D02*
D03*
X214961D02*
D03*
Y366457D02*
D03*
X197961Y144583D02*
D03*
Y152457D02*
D03*
X402819Y366437D02*
D03*
Y358563D02*
D03*
X389819D02*
D03*
Y366437D02*
D03*
X372819Y144563D02*
D03*
Y152437D02*
D03*
X34000Y322063D02*
D03*
Y329937D02*
D03*
D48*
X134000Y132630D02*
D03*
X129000D02*
D03*
X124000D02*
D03*
X119000D02*
D03*
X134000Y111370D02*
D03*
X129000D02*
D03*
X124000D02*
D03*
X119000D02*
D03*
X393316Y337850D02*
D03*
X388316D02*
D03*
X383316D02*
D03*
X378316D02*
D03*
X393316Y316590D02*
D03*
X388316D02*
D03*
X383316D02*
D03*
X378316D02*
D03*
X218400Y337830D02*
D03*
X213400D02*
D03*
X208400D02*
D03*
X203400D02*
D03*
X218400Y316570D02*
D03*
X213400D02*
D03*
X208400D02*
D03*
X203400D02*
D03*
X565500Y337630D02*
D03*
X560500D02*
D03*
X555500D02*
D03*
X550500D02*
D03*
X565500Y316370D02*
D03*
X560500D02*
D03*
X555500D02*
D03*
X550500D02*
D03*
D49*
X483816Y374590D02*
D03*
X488816D02*
D03*
X493816D02*
D03*
X498816D02*
D03*
X483816Y395850D02*
D03*
X488816D02*
D03*
X493816D02*
D03*
X498816D02*
D03*
X308900Y374570D02*
D03*
X313900D02*
D03*
X318900D02*
D03*
X323900D02*
D03*
X308900Y395830D02*
D03*
X313900D02*
D03*
X318900D02*
D03*
X323900D02*
D03*
X656000Y374370D02*
D03*
X661000D02*
D03*
X666000D02*
D03*
X671000D02*
D03*
X656000Y395630D02*
D03*
X661000D02*
D03*
X666000D02*
D03*
X671000D02*
D03*
D50*
X379816Y301720D02*
D03*
X388500Y309000D02*
D03*
X388316Y346220D02*
D03*
X108500Y111500D02*
D03*
X204900Y301700D02*
D03*
X214000Y310000D02*
D03*
X213400Y346200D02*
D03*
X523000Y125000D02*
D03*
X524500Y111500D02*
D03*
X552000Y301500D02*
D03*
X561000Y309000D02*
D03*
X560500Y346000D02*
D03*
X147000Y440500D02*
D03*
X4500Y30000D02*
D03*
X557000Y354000D02*
D03*
X209961Y354020D02*
D03*
X384819Y354000D02*
D03*
X177461Y111520D02*
D03*
X175961Y125020D02*
D03*
X352319Y111500D02*
D03*
X350819Y125000D02*
D03*
X173100Y484400D02*
D03*
X119000Y400000D02*
D03*
X16000Y88000D02*
D03*
X581500Y323000D02*
D03*
Y330760D02*
D03*
X234500Y331500D02*
D03*
Y323000D02*
D03*
X409500D02*
D03*
Y331000D02*
D03*
X233500Y351000D02*
D03*
X409000Y348000D02*
D03*
X580500D02*
D03*
X340000Y404000D02*
D03*
X173000Y472000D02*
D03*
X158500Y479000D02*
D03*
X206500Y147500D02*
D03*
X381000Y148500D02*
D03*
X553000Y149500D02*
D03*
X179461Y329000D02*
D03*
X99000Y166500D02*
D03*
X112500Y149500D02*
D03*
X72681Y159181D02*
D03*
X54931Y176931D02*
D03*
X141500Y111500D02*
D03*
X98500Y129500D02*
D03*
Y122500D02*
D03*
X129500Y141000D02*
D03*
X125500Y157000D02*
D03*
X146000Y152500D02*
D03*
X146500Y161000D02*
D03*
X19000Y101000D02*
D03*
X33000Y93500D02*
D03*
X18000Y149500D02*
D03*
X69000Y100000D02*
D03*
X73500Y90500D02*
D03*
X48000Y100000D02*
D03*
Y90500D02*
D03*
X6000Y85500D02*
D03*
X45000Y300000D02*
D03*
X6500Y101000D02*
D03*
X19500Y56500D02*
D03*
X39000Y45500D02*
D03*
Y38000D02*
D03*
X131000Y332000D02*
D03*
Y303500D02*
D03*
X114000Y318000D02*
D03*
X119500Y141000D02*
D03*
X553500Y309000D02*
D03*
X125500Y176000D02*
D03*
X381500Y309000D02*
D03*
X207500Y309500D02*
D03*
X73500Y167500D02*
D03*
X66500Y323000D02*
D03*
X42000Y322000D02*
D03*
X73500Y202000D02*
D03*
X172461Y151520D02*
D03*
X85000Y370500D02*
D03*
Y380500D02*
D03*
X514500Y409500D02*
D03*
X375819Y349000D02*
D03*
X526500Y329000D02*
D03*
X354319D02*
D03*
X432158Y367433D02*
D03*
X419158Y367933D02*
D03*
X401819Y302000D02*
D03*
X400819Y190500D02*
D03*
X505569Y408931D02*
D03*
X389319Y376000D02*
D03*
X493819Y362500D02*
D03*
X513816Y362720D02*
D03*
X548000Y349000D02*
D03*
X200961Y349020D02*
D03*
X226961Y302020D02*
D03*
X687000Y409000D02*
D03*
X145762Y371800D02*
D03*
X138500D02*
D03*
X130500D02*
D03*
Y380883D02*
D03*
Y389000D02*
D03*
X195500Y460000D02*
D03*
X211000Y475000D02*
D03*
X102500Y476000D02*
D03*
X140000Y426000D02*
D03*
X131500D02*
D03*
X126500Y410000D02*
D03*
X389819Y110000D02*
D03*
X378319Y91500D02*
D03*
X348319Y117000D02*
D03*
X359819Y100000D02*
D03*
X363657Y108933D02*
D03*
X184961Y100020D02*
D03*
X188799Y108953D02*
D03*
X203461Y81020D02*
D03*
X221461Y159520D02*
D03*
X212961D02*
D03*
X225961Y190520D02*
D03*
X338961Y362520D02*
D03*
X330653Y408910D02*
D03*
X314400Y413200D02*
D03*
X318961Y362520D02*
D03*
X214461Y376020D02*
D03*
X257242Y367413D02*
D03*
X203461Y91520D02*
D03*
X173461Y117020D02*
D03*
X196461Y122020D02*
D03*
X227461Y104520D02*
D03*
X214961Y110020D02*
D03*
X378319Y81000D02*
D03*
X396319Y159500D02*
D03*
X387819D02*
D03*
X371319Y122000D02*
D03*
X347319Y151500D02*
D03*
X402319Y104500D02*
D03*
X489316Y413221D02*
D03*
X244241Y367913D02*
D03*
X520500Y117000D02*
D03*
X519500Y151500D02*
D03*
X573000Y190500D02*
D03*
X568500Y159500D02*
D03*
X560000D02*
D03*
X543500Y122000D02*
D03*
X550500Y81000D02*
D03*
Y91500D02*
D03*
X532000Y100000D02*
D03*
X536000Y109000D02*
D03*
X562000Y110000D02*
D03*
X574500Y104500D02*
D03*
X561500Y376000D02*
D03*
X574000Y302000D02*
D03*
X604500Y367500D02*
D03*
X591500Y368000D02*
D03*
X686000Y362500D02*
D03*
X666000D02*
D03*
X677753Y408710D02*
D03*
X661500Y413000D02*
D03*
D51*
X130854Y475500D02*
D03*
Y470500D02*
D03*
Y465500D02*
D03*
Y460500D02*
D03*
X150146Y475500D02*
D03*
Y470500D02*
D03*
Y465500D02*
D03*
Y460500D02*
D03*
D52*
X185961Y124957D02*
D03*
X189701Y117083D02*
D03*
X182220D02*
D03*
X360819Y124937D02*
D03*
X364559Y117063D02*
D03*
X357079D02*
D03*
X529260D02*
D03*
X536740D02*
D03*
X533000Y124937D02*
D03*
D53*
X111000Y464988D02*
D03*
Y476012D02*
D03*
X597000Y390512D02*
D03*
Y379488D02*
D03*
X618000D02*
D03*
Y390512D02*
D03*
X587000Y390524D02*
D03*
Y379500D02*
D03*
X607500Y379488D02*
D03*
Y390512D02*
D03*
X249961Y390531D02*
D03*
Y379508D02*
D03*
X239961Y390543D02*
D03*
Y379520D02*
D03*
X260461Y379508D02*
D03*
Y390531D02*
D03*
X270961Y379508D02*
D03*
Y390531D02*
D03*
X424819Y390512D02*
D03*
Y379488D02*
D03*
X414819Y390524D02*
D03*
Y379500D02*
D03*
X435319Y379488D02*
D03*
Y390512D02*
D03*
X445819Y379488D02*
D03*
Y390512D02*
D03*
X73500Y351012D02*
D03*
Y339988D02*
D03*
Y221012D02*
D03*
Y209988D02*
D03*
D54*
X133000Y448799D02*
D03*
Y436201D02*
D03*
X554000Y422299D02*
D03*
Y409701D02*
D03*
X379500Y420598D02*
D03*
Y408000D02*
D03*
X204000Y421299D02*
D03*
Y408701D02*
D03*
D55*
X97000Y450595D02*
D03*
Y412405D02*
D03*
D56*
X156000Y423410D02*
D03*
Y389551D02*
D03*
X131000Y317571D02*
D03*
Y351429D02*
D03*
X195500Y474929D02*
D03*
Y441071D02*
D03*
D57*
X18941Y46528D02*
D03*
X24059D02*
D03*
Y37472D02*
D03*
X21500D02*
D03*
X18941D02*
D03*
D58*
X294961Y391032D02*
D03*
Y380008D02*
D03*
X469819Y391012D02*
D03*
Y379988D02*
D03*
X642000Y391012D02*
D03*
Y379988D02*
D03*
D59*
X567000Y138842D02*
D03*
X562000D02*
D03*
X557000D02*
D03*
X552000D02*
D03*
X567000Y119158D02*
D03*
X562000D02*
D03*
X557000D02*
D03*
X552000D02*
D03*
X219961Y138862D02*
D03*
X214961D02*
D03*
X209961D02*
D03*
X204961D02*
D03*
X219961Y119177D02*
D03*
X214961D02*
D03*
X209961D02*
D03*
X204961D02*
D03*
X394819Y138842D02*
D03*
X389819D02*
D03*
X384819D02*
D03*
X379819D02*
D03*
X394819Y119158D02*
D03*
X389819D02*
D03*
X384819D02*
D03*
X379819D02*
D03*
D60*
X559500Y129000D02*
D03*
X212461Y129020D02*
D03*
X387319Y129000D02*
D03*
D61*
X532500Y149874D02*
D03*
Y134126D02*
D03*
X185461Y149894D02*
D03*
Y134146D02*
D03*
X360319Y149874D02*
D03*
Y134126D02*
D03*
D62*
X596374Y115500D02*
D03*
X580626D02*
D03*
X249335Y115520D02*
D03*
X233587D02*
D03*
X424193Y115500D02*
D03*
X408445D02*
D03*
D63*
X24000Y109343D02*
D03*
X29000D02*
D03*
X34000D02*
D03*
X39000D02*
D03*
X44000D02*
D03*
X49000D02*
D03*
X54000D02*
D03*
X59000D02*
D03*
X24000Y149657D02*
D03*
X29000D02*
D03*
X34000D02*
D03*
X39000D02*
D03*
X44000D02*
D03*
X49000D02*
D03*
X54000D02*
D03*
X59000D02*
D03*
D64*
X72000Y120000D02*
D03*
X82000D02*
D03*
X72000Y138000D02*
D03*
X82000D02*
D03*
X488500Y424000D02*
D03*
X498500D02*
D03*
X311500Y423000D02*
D03*
X321500D02*
D03*
X675000Y422000D02*
D03*
X665000D02*
D03*
X540000Y10000D02*
D03*
X550000D02*
D03*
X539500Y47000D02*
D03*
X549500D02*
D03*
X47000Y64000D02*
D03*
X37000D02*
D03*
D65*
X394658Y282221D02*
D03*
X384816D02*
D03*
X374974D02*
D03*
X365132D02*
D03*
X219742Y282200D02*
D03*
X209900D02*
D03*
X200058D02*
D03*
X190216D02*
D03*
X566842Y282000D02*
D03*
X557000D02*
D03*
X547158D02*
D03*
X537316D02*
D03*
D66*
X599000Y426000D02*
D03*
X628500Y413480D02*
D03*
X599000D02*
D03*
X628500Y426000D02*
D03*
X423000Y425000D02*
D03*
X452500Y412480D02*
D03*
X423000D02*
D03*
X452500Y425000D02*
D03*
X246500D02*
D03*
X276000Y412480D02*
D03*
X246500D02*
D03*
X276000Y425000D02*
D03*
X119500Y67000D02*
D03*
X149000Y79520D02*
D03*
X119500D02*
D03*
X149000Y67000D02*
D03*
D67*
X580299Y477693D02*
D03*
X647201D02*
D03*
X404299Y476693D02*
D03*
X471201D02*
D03*
X227799D02*
D03*
X294701D02*
D03*
X100799Y15307D02*
D03*
X167701D02*
D03*
D68*
X17000Y470000D02*
D03*
X18500Y13500D02*
D03*
X587000Y17500D02*
D03*
X682500Y470000D02*
D03*
D69*
X84000Y210000D02*
D03*
X24000D02*
D03*
X84000Y220000D02*
D03*
X24000D02*
D03*
X84000Y230000D02*
D03*
X24000D02*
D03*
X84000Y240000D02*
D03*
X24000D02*
D03*
X84000Y250000D02*
D03*
X24000D02*
D03*
X84000Y260000D02*
D03*
X24000D02*
D03*
X84000Y270000D02*
D03*
X24000D02*
D03*
X84000Y280000D02*
D03*
X24000D02*
D03*
X84000Y290000D02*
D03*
X24000D02*
D03*
X84000Y300000D02*
D03*
X24000D02*
D03*
X84000Y310000D02*
D03*
X24000D02*
D03*
X84000Y320000D02*
D03*
X24000D02*
D03*
X84000Y330000D02*
D03*
X24000D02*
D03*
X84000Y340000D02*
D03*
X24000D02*
D03*
D70*
X84000Y350000D02*
D03*
X24000D02*
D03*
D71*
X59700Y48800D02*
D03*
X71500D02*
D03*
Y37000D02*
D03*
X59700D02*
D03*
D72*
X65600Y20000D02*
D03*
D73*
X292433Y40520D02*
D03*
X321961D02*
D03*
X639472Y40500D02*
D03*
X669000D02*
D03*
X321988Y114520D02*
D03*
X292461D02*
D03*
X496846Y114500D02*
D03*
X467319D02*
D03*
X467291Y40500D02*
D03*
X496819D02*
D03*
X669028Y114500D02*
D03*
X639500D02*
D03*
D74*
X313461Y209020D02*
D03*
X213461D02*
D03*
X488319Y209000D02*
D03*
X388319D02*
D03*
X660500D02*
D03*
X560500D02*
D03*
D75*
X585000Y137500D02*
D03*
X412819D02*
D03*
X237961Y137520D02*
D03*
D76*
X585000Y157500D02*
D03*
Y147500D02*
D03*
X611000Y191000D02*
D03*
X621000D02*
D03*
X237961Y147520D02*
D03*
X412819Y147500D02*
D03*
Y157500D02*
D03*
X448819Y191000D02*
D03*
X438819D02*
D03*
X237961Y157520D02*
D03*
X273961Y191020D02*
D03*
X263961D02*
D03*
D77*
X601000Y191000D02*
D03*
X428819D02*
D03*
X253961Y191020D02*
D03*
D78*
X248000Y29500D02*
D03*
X209000D02*
D03*
Y16000D02*
D03*
X248000D02*
D03*
M02*
