G04*
G04 #@! TF.GenerationSoftware,Altium Limited,Altium Designer,22.8.2 (66)*
G04*
G04 Layer_Color=32768*
%FSLAX25Y25*%
%MOIN*%
G70*
G04*
G04 #@! TF.SameCoordinates,BEF1E4EC-90C0-4ACD-898C-557356F843F1*
G04*
G04*
G04 #@! TF.FilePolarity,Positive*
G04*
G01*
G75*
%ADD14C,0.01000*%
%ADD16C,0.00500*%
%ADD19C,0.00197*%
%ADD20C,0.00394*%
D14*
X0Y0D02*
X700000D01*
Y450000D01*
X0D02*
X700000D01*
X0Y0D02*
Y450000D01*
D16*
X164941Y338764D02*
Y411756D01*
Y338764D02*
X362933D01*
Y411756D01*
X164941D02*
X362933D01*
X164941Y338764D02*
Y411756D01*
Y338764D02*
X362933D01*
Y411756D01*
X164941D02*
X362933D01*
D19*
X264921Y307732D02*
Y324268D01*
X255079Y307732D02*
Y324268D01*
X264921D01*
X255079Y307732D02*
X264921D01*
X248921D02*
Y324268D01*
X239079Y307732D02*
Y324268D01*
X248921D01*
X239079Y307732D02*
X248921D01*
X87307Y230260D02*
X100693D01*
X87307Y237740D02*
X100693D01*
Y230260D02*
Y237740D01*
X87307Y230260D02*
Y237740D01*
X87504Y227221D02*
X100496D01*
X87504Y204780D02*
X100496D01*
Y227221D01*
X87504Y204780D02*
Y227221D01*
X119327Y296346D02*
Y339653D01*
X72673Y296346D02*
Y339653D01*
Y296346D02*
X119327D01*
X72673Y339653D02*
X119327D01*
X35307Y346260D02*
Y353740D01*
X48693Y346260D02*
Y353740D01*
X35307D02*
X48693D01*
X35307Y346260D02*
X48693D01*
X66756D02*
Y353740D01*
X53370Y346260D02*
Y353740D01*
Y346260D02*
X66756D01*
X53370Y353740D02*
X66756D01*
X35472Y303449D02*
X44528D01*
X35472Y284551D02*
X44528D01*
Y303449D01*
X35472Y284551D02*
Y303449D01*
X36260Y309307D02*
Y322693D01*
X43740Y309307D02*
Y322693D01*
X36260Y309307D02*
X43740D01*
X36260Y322693D02*
X43740D01*
X143079Y241732D02*
X152921D01*
X143079Y258268D02*
X152921D01*
X143079Y241732D02*
Y258268D01*
X152921Y241732D02*
Y258268D01*
X176268Y245079D02*
Y254921D01*
X159732Y245079D02*
Y254921D01*
Y245079D02*
X176268D01*
X159732Y254921D02*
X176268D01*
X177472Y295449D02*
X186528D01*
X177472Y276551D02*
X186528D01*
Y295449D01*
X177472Y276551D02*
Y295449D01*
X173449Y299472D02*
Y308528D01*
X154551Y299472D02*
Y308528D01*
Y299472D02*
X173449D01*
X154551Y308528D02*
X173449D01*
X152205Y259079D02*
Y268921D01*
X135669Y259079D02*
Y268921D01*
Y259079D02*
X152205D01*
X135669Y268921D02*
X152205D01*
X162268Y271079D02*
Y280921D01*
X145732Y271079D02*
Y280921D01*
Y271079D02*
X162268D01*
X145732Y280921D02*
X162268D01*
X139307Y227740D02*
X152693D01*
X139307Y220260D02*
X152693D01*
X139307D02*
Y227740D01*
X152693Y220260D02*
Y227740D01*
X159307Y220260D02*
X172693D01*
X159307Y227740D02*
X172693D01*
Y220260D02*
Y227740D01*
X159307Y220260D02*
Y227740D01*
X100693Y192260D02*
Y199740D01*
X87307Y192260D02*
Y199740D01*
Y192260D02*
X100693D01*
X87307Y199740D02*
X100693D01*
X60260Y297307D02*
X67740D01*
X60260Y310693D02*
X67740D01*
X60260Y297307D02*
Y310693D01*
X67740Y297307D02*
Y310693D01*
X124260Y291307D02*
X131740D01*
X124260Y304693D02*
X131740D01*
X124260Y291307D02*
Y304693D01*
X131740Y291307D02*
Y304693D01*
X216098Y353209D02*
X223579D01*
X216098Y366595D02*
X223579D01*
X216098Y353209D02*
Y366595D01*
X223579Y353209D02*
Y366595D01*
X336693Y314260D02*
Y321740D01*
X323307Y314260D02*
Y321740D01*
Y314260D02*
X336693D01*
X323307Y321740D02*
X336693D01*
X419307Y288260D02*
Y295740D01*
X432693Y288260D02*
Y295740D01*
X419307D02*
X432693D01*
X419307Y288260D02*
X432693D01*
X529732Y78921D02*
X546268D01*
X529732Y69079D02*
X546268D01*
X529732D02*
Y78921D01*
X546268Y69079D02*
Y78921D01*
X531732Y276921D02*
X548268D01*
X531732Y267079D02*
X548268D01*
X531732D02*
Y276921D01*
X548268Y267079D02*
Y276921D01*
X516780Y183087D02*
X539221D01*
X516780Y153165D02*
X539221D01*
Y183087D01*
X516780Y153165D02*
Y183087D01*
X459433Y145457D02*
X488567D01*
X459433Y186795D02*
X488567D01*
Y145457D02*
Y186795D01*
X459433Y145457D02*
Y186795D01*
X433732Y161047D02*
X450268D01*
X433732Y151205D02*
X450268D01*
X433732D02*
Y161047D01*
X450268Y151205D02*
Y161047D01*
X433732Y149047D02*
X450268D01*
X433732Y139205D02*
X450268D01*
X433732D02*
Y149047D01*
X450268Y139205D02*
Y149047D01*
X547472Y190677D02*
Y209575D01*
X556528Y190677D02*
Y209575D01*
X547472Y190677D02*
X556528D01*
X547472Y209575D02*
X556528D01*
X433732Y137047D02*
X450268D01*
X433732Y127205D02*
X450268D01*
X433732D02*
Y137047D01*
X450268Y127205D02*
Y137047D01*
X433732Y185047D02*
X450268D01*
X433732Y175205D02*
X450268D01*
X433732D02*
Y185047D01*
X450268Y175205D02*
Y185047D01*
X426528Y117165D02*
Y136063D01*
X417472Y117165D02*
Y136063D01*
X426528D01*
X417472Y117165D02*
X426528D01*
X433732Y173047D02*
X450268D01*
X433732Y163205D02*
X450268D01*
X433732D02*
Y173047D01*
X450268Y163205D02*
Y173047D01*
X504528Y136551D02*
Y155449D01*
X495472Y136551D02*
Y155449D01*
X504528D01*
X495472Y136551D02*
X504528D01*
X432063Y191598D02*
X450961D01*
X432063Y200654D02*
X450961D01*
Y191598D02*
Y200654D01*
X432063Y191598D02*
Y200654D01*
X525732Y191205D02*
X542268D01*
X525732Y201047D02*
X542268D01*
Y191205D02*
Y201047D01*
X525732Y191205D02*
Y201047D01*
X532921Y133858D02*
Y150394D01*
X523079Y133858D02*
Y150394D01*
X532921D01*
X523079Y133858D02*
X532921D01*
X547740Y143693D02*
Y157079D01*
X540260Y143693D02*
Y157079D01*
X547740D01*
X540260Y143693D02*
X547740D01*
X494260Y173433D02*
Y186819D01*
X501740Y173433D02*
Y186819D01*
X494260Y173433D02*
X501740D01*
X494260Y186819D02*
X501740D01*
X488693Y248260D02*
Y255740D01*
X475307Y248260D02*
Y255740D01*
Y248260D02*
X488693D01*
X475307Y255740D02*
X488693D01*
X454260Y273433D02*
X461740D01*
X454260Y286819D02*
X461740D01*
X454260Y273433D02*
Y286819D01*
X461740Y273433D02*
Y286819D01*
X514260Y261370D02*
X521740D01*
X514260Y274756D02*
X521740D01*
X514260Y261370D02*
Y274756D01*
X521740Y261370D02*
Y274756D01*
X458693Y238386D02*
Y245866D01*
X445307Y238386D02*
Y245866D01*
Y238386D02*
X458693D01*
X445307Y245866D02*
X458693D01*
X424260Y261433D02*
X431740D01*
X424260Y274819D02*
X431740D01*
X424260Y261433D02*
Y274819D01*
X431740Y261433D02*
Y274819D01*
X480693Y272260D02*
Y279740D01*
X467307Y272260D02*
Y279740D01*
Y272260D02*
X480693D01*
X467307Y279740D02*
X480693D01*
X560260Y261307D02*
X567740D01*
X560260Y274693D02*
X567740D01*
X560260Y261307D02*
Y274693D01*
X567740Y261307D02*
Y274693D01*
X426102Y236130D02*
Y249122D01*
X438898Y236130D02*
Y249122D01*
X426102D02*
X438898D01*
X426102Y236130D02*
X438898D01*
X490520Y265630D02*
X505480D01*
X490520Y278622D02*
X505480D01*
Y265630D02*
Y278622D01*
X490520Y265630D02*
Y278622D01*
X451504Y253496D02*
X464496D01*
X451504Y266291D02*
X464496D01*
X451504Y253496D02*
Y266291D01*
X464496Y253496D02*
Y266291D01*
X561047Y257906D02*
X566953D01*
X561047Y246094D02*
X566953D01*
Y257906D01*
X561047Y246094D02*
Y257906D01*
X519677Y65496D02*
Y78882D01*
X512197Y65496D02*
Y78882D01*
X519677D01*
X512197Y65496D02*
X519677D01*
X437677Y63433D02*
Y76819D01*
X430197Y63433D02*
Y76819D01*
X437677D01*
X430197Y63433D02*
X437677D01*
X561740Y65307D02*
Y78693D01*
X554260Y65307D02*
Y78693D01*
X561740D01*
X554260Y65307D02*
X561740D01*
X475181Y63866D02*
X488567D01*
X475181Y56386D02*
X488567D01*
X475181D02*
Y63866D01*
X488567Y56386D02*
Y63866D01*
X447244Y47866D02*
X460630D01*
X447244Y40386D02*
X460630D01*
X447244D02*
Y47866D01*
X460630Y40386D02*
Y47866D01*
X409307Y90260D02*
X422693D01*
X409307Y97740D02*
X422693D01*
Y90260D02*
Y97740D01*
X409307Y90260D02*
Y97740D01*
X467244Y83866D02*
X480630D01*
X467244Y76386D02*
X480630D01*
X467244D02*
Y83866D01*
X480630Y76386D02*
Y83866D01*
X459677Y77496D02*
Y90882D01*
X452197Y77496D02*
Y90882D01*
X459677D01*
X452197Y77496D02*
X459677D01*
X427307Y39630D02*
X440102D01*
X427307Y52622D02*
X440102D01*
Y39630D02*
Y52622D01*
X427307Y39630D02*
Y52622D01*
X466433Y59496D02*
Y72291D01*
X453441Y59496D02*
Y72291D01*
X466433D01*
X453441Y59496D02*
X466433D01*
X486457Y69630D02*
Y82622D01*
X501417Y69630D02*
Y82622D01*
X486457D02*
X501417D01*
X486457Y69630D02*
X501417D01*
X555047Y48094D02*
Y59905D01*
X560953Y48094D02*
Y59905D01*
X555047Y48094D02*
X560953D01*
X555047Y59905D02*
X560953D01*
X205433Y109710D02*
Y131364D01*
X234567Y109710D02*
Y131364D01*
X205433D02*
X234567D01*
X205433Y109710D02*
X234567D01*
X339173Y197104D02*
X360827D01*
X339173Y167970D02*
X360827D01*
Y197104D01*
X339173Y167970D02*
Y197104D01*
X360260Y223230D02*
X367740D01*
X360260Y209844D02*
X367740D01*
Y223230D01*
X360260Y209844D02*
Y223230D01*
X254551Y95065D02*
X273449D01*
X254551Y86010D02*
X273449D01*
X254551D02*
Y95065D01*
X273449Y86010D02*
Y95065D01*
X179307Y154797D02*
Y162277D01*
X192693Y154797D02*
Y162277D01*
X179307D02*
X192693D01*
X179307Y154797D02*
X192693D01*
X200260Y153844D02*
X207740D01*
X200260Y167230D02*
X207740D01*
X200260Y153844D02*
Y167230D01*
X207740Y153844D02*
Y167230D01*
X212551Y95065D02*
X231449D01*
X212551Y86010D02*
X231449D01*
X212551D02*
Y95065D01*
X231449Y86010D02*
Y95065D01*
X248693Y86797D02*
Y94277D01*
X235307Y86797D02*
Y94277D01*
Y86797D02*
X248693D01*
X235307Y94277D02*
X248693D01*
X270260Y171230D02*
X277740D01*
X270260Y157844D02*
X277740D01*
Y171230D01*
X270260Y157844D02*
Y171230D01*
X201307Y186797D02*
Y194277D01*
X214693Y186797D02*
Y194277D01*
X201307D02*
X214693D01*
X201307Y186797D02*
X214693D01*
X284551Y166009D02*
X303449D01*
X284551Y175065D02*
X303449D01*
Y166009D02*
Y175065D01*
X284551Y166009D02*
Y175065D01*
X274260Y123844D02*
X281740D01*
X274260Y137230D02*
X281740D01*
X274260Y123844D02*
Y137230D01*
X281740Y123844D02*
Y137230D01*
X274260Y139844D02*
X281740D01*
X274260Y153230D02*
X281740D01*
X274260Y139844D02*
Y153230D01*
X281740Y139844D02*
Y153230D01*
X361047Y227580D02*
X366953D01*
X361047Y239391D02*
X366953D01*
X361047Y227580D02*
Y239391D01*
X366953Y227580D02*
Y239391D01*
X197906Y187584D02*
Y193490D01*
X186094Y187584D02*
Y193490D01*
Y187584D02*
X197906D01*
X186094Y193490D02*
X197906D01*
X175906Y155047D02*
Y160953D01*
X164094Y155047D02*
Y160953D01*
Y155047D02*
X175906D01*
X164094Y160953D02*
X175906D01*
X291787Y163529D02*
X340213D01*
X291787Y103687D02*
X340213D01*
Y163529D01*
X291787Y103687D02*
Y163529D01*
X357307Y156797D02*
Y164277D01*
X370693Y156797D02*
Y164277D01*
X357307D02*
X370693D01*
X357307Y156797D02*
X370693D01*
X364260Y109844D02*
X371740D01*
X364260Y123230D02*
X371740D01*
X364260Y109844D02*
Y123230D01*
X371740Y109844D02*
Y123230D01*
X365047Y103454D02*
X370953D01*
X365047Y91643D02*
X370953D01*
Y103454D01*
X365047Y91643D02*
Y103454D01*
X180551Y105065D02*
X199449D01*
X180551Y96009D02*
X199449D01*
X180551D02*
Y105065D01*
X199449Y96009D02*
Y105065D01*
X270260Y173844D02*
X277740D01*
X270260Y187230D02*
X277740D01*
X270260Y173844D02*
Y187230D01*
X277740Y173844D02*
Y187230D01*
X284551Y188009D02*
Y197065D01*
X303449Y188009D02*
Y197065D01*
X284551D02*
X303449D01*
X284551Y188009D02*
X303449D01*
X180260Y107844D02*
X187740D01*
X180260Y121230D02*
X187740D01*
X180260Y107844D02*
Y121230D01*
X187740Y107844D02*
Y121230D01*
X218260Y187844D02*
X225740D01*
X218260Y201230D02*
X225740D01*
X218260Y187844D02*
Y201230D01*
X225740Y187844D02*
Y201230D01*
X188528Y125088D02*
Y143986D01*
X179472Y125088D02*
Y143986D01*
X188528D01*
X179472Y125088D02*
X188528D01*
X276260Y229844D02*
X283740D01*
X276260Y243230D02*
X283740D01*
X276260Y229844D02*
Y243230D01*
X283740Y229844D02*
Y243230D01*
X276260Y227230D02*
X283740D01*
X276260Y213844D02*
X283740D01*
Y227230D01*
X276260Y213844D02*
Y227230D01*
X340213Y200616D02*
Y260458D01*
X291787Y200616D02*
Y260458D01*
X340213D01*
X291787Y200616D02*
X340213D01*
X243740Y125844D02*
Y139230D01*
X236260Y125844D02*
Y139230D01*
X243740D01*
X236260Y125844D02*
X243740D01*
X643307Y153740D02*
X656693D01*
X643307Y146260D02*
X656693D01*
X643307D02*
Y153740D01*
X656693Y146260D02*
Y153740D01*
X502260Y378433D02*
X509740D01*
X502260Y365047D02*
X509740D01*
Y378433D01*
X502260Y365047D02*
Y378433D01*
X543558Y417160D02*
Y424640D01*
X556944Y417160D02*
Y424640D01*
X543558D02*
X556944D01*
X543558Y417160D02*
X556944D01*
X400760Y401142D02*
X408240D01*
X400760Y387756D02*
X408240D01*
Y401142D01*
X400760Y387756D02*
Y401142D01*
X538157Y417947D02*
Y423853D01*
X526346Y417947D02*
Y423853D01*
Y417947D02*
X538157D01*
X526346Y423853D02*
X538157D01*
X401347Y412094D02*
X407253D01*
X401347Y423906D02*
X407253D01*
X401347Y412094D02*
Y423906D01*
X407253Y412094D02*
Y423906D01*
X592480Y403536D02*
X614921D01*
X592480Y433064D02*
X614921D01*
X592480Y403536D02*
Y433064D01*
X614921Y403536D02*
Y433064D01*
X619087Y351747D02*
Y370054D01*
X603732Y351747D02*
Y370054D01*
X619087D01*
X603732Y351747D02*
X619087D01*
X627449Y381472D02*
Y390528D01*
X608551Y381472D02*
Y390528D01*
Y381472D02*
X627449D01*
X608551Y390528D02*
X627449D01*
X593960Y358907D02*
X601440D01*
X593960Y372293D02*
X601440D01*
X593960Y358907D02*
Y372293D01*
X601440Y358907D02*
Y372293D01*
X610528Y122551D02*
Y141449D01*
X601472Y122551D02*
Y141449D01*
X610528D01*
X601472Y122551D02*
X610528D01*
X628756Y158260D02*
Y165740D01*
X615370Y158260D02*
Y165740D01*
Y158260D02*
X628756D01*
X615370Y165740D02*
X628756D01*
X634158Y159047D02*
Y164953D01*
X645968Y159047D02*
Y164953D01*
X634158D02*
X645968D01*
X634158Y159047D02*
X645968D01*
X617039Y120780D02*
X646961D01*
X617039Y143220D02*
X646961D01*
Y120780D02*
Y143220D01*
X617039Y120780D02*
Y143220D01*
X663307Y104260D02*
X676693D01*
X663307Y111740D02*
X676693D01*
Y104260D02*
Y111740D01*
X663307Y104260D02*
Y111740D01*
X666260Y137307D02*
Y150693D01*
X673740Y137307D02*
Y150693D01*
X666260Y137307D02*
X673740D01*
X666260Y150693D02*
X673740D01*
X670496Y119370D02*
Y132165D01*
X657504Y119370D02*
Y132165D01*
X670496D01*
X657504Y119370D02*
X670496D01*
X217465Y151285D02*
Y169789D01*
X250535Y151285D02*
Y169789D01*
X217465D02*
X250535D01*
X217465Y151285D02*
X250535D01*
X231465Y181285D02*
Y199789D01*
X264535Y181285D02*
Y199789D01*
X231465D02*
X264535D01*
X231465Y181285D02*
X264535D01*
D20*
X258032Y316000D02*
X261968D01*
X260000Y314032D02*
Y317969D01*
X242032Y316000D02*
X245969D01*
X244000Y314032D02*
Y317969D01*
X94000Y232031D02*
Y235968D01*
X92032Y234000D02*
X95969D01*
X94000Y214032D02*
Y217969D01*
X92032Y216000D02*
X95969D01*
X94032Y318000D02*
X97969D01*
X96000Y316032D02*
Y319969D01*
X40031Y350000D02*
X43968D01*
X42000Y348031D02*
Y351969D01*
X58095Y350000D02*
X62032D01*
X60063Y348031D02*
Y351969D01*
X40000Y292032D02*
Y295969D01*
X38032Y294000D02*
X41969D01*
X38032Y316000D02*
X41969D01*
X40000Y314032D02*
Y317969D01*
X148000Y248031D02*
Y251969D01*
X146031Y250000D02*
X149969D01*
X166032D02*
X169968D01*
X168000Y248031D02*
Y251969D01*
X182000Y284032D02*
Y287968D01*
X180032Y286000D02*
X183968D01*
X162031Y304000D02*
X165969D01*
X164000Y302031D02*
Y305968D01*
X141969Y264000D02*
X145905D01*
X143937Y262032D02*
Y265968D01*
X152032Y276000D02*
X155968D01*
X154000Y274031D02*
Y277969D01*
X146000Y222031D02*
Y225969D01*
X144032Y224000D02*
X147968D01*
X166000Y222031D02*
Y225969D01*
X164032Y224000D02*
X167968D01*
X92032Y196000D02*
X95969D01*
X94000Y194032D02*
Y197968D01*
X64000Y302031D02*
Y305968D01*
X62032Y304000D02*
X65969D01*
X128000Y296031D02*
Y299969D01*
X126031Y298000D02*
X129969D01*
X219839Y357933D02*
Y361870D01*
X217870Y359902D02*
X221807D01*
X328031Y318000D02*
X331968D01*
X330000Y316032D02*
Y319969D01*
X424031Y292000D02*
X427969D01*
X426000Y290032D02*
Y293969D01*
X538000Y72031D02*
Y75968D01*
X536031Y74000D02*
X539968D01*
X540000Y270031D02*
Y273969D01*
X538031Y272000D02*
X541968D01*
X528000Y166157D02*
Y170095D01*
X526031Y168126D02*
X529969D01*
X474000Y164157D02*
Y168095D01*
X472031Y166126D02*
X475969D01*
X442000Y154157D02*
Y158095D01*
X440031Y156126D02*
X443968D01*
X442000Y142157D02*
Y146095D01*
X440031Y144126D02*
X443968D01*
X550032Y200126D02*
X553968D01*
X552000Y198158D02*
Y202095D01*
X442000Y130157D02*
Y134095D01*
X440031Y132126D02*
X443968D01*
X442000Y178157D02*
Y182095D01*
X440031Y180126D02*
X443968D01*
X420031Y126614D02*
X423969D01*
X422000Y124646D02*
Y128583D01*
X442000Y166157D02*
Y170095D01*
X440031Y168126D02*
X443968D01*
X498032Y146000D02*
X501968D01*
X500000Y144032D02*
Y147968D01*
X441512Y194158D02*
Y198094D01*
X439543Y196126D02*
X443480D01*
X534000Y194158D02*
Y198094D01*
X532031Y196126D02*
X535968D01*
X526031Y142126D02*
X529969D01*
X528000Y140157D02*
Y144095D01*
X542031Y150386D02*
X545968D01*
X544000Y148417D02*
Y152354D01*
X496032Y180126D02*
X499968D01*
X498000Y178157D02*
Y182095D01*
X480031Y252000D02*
X483968D01*
X482000Y250031D02*
Y253969D01*
X458000Y278157D02*
Y282095D01*
X456032Y280126D02*
X459969D01*
X518000Y266094D02*
Y270031D01*
X516032Y268063D02*
X519969D01*
X450032Y242126D02*
X453968D01*
X452000Y240158D02*
Y244094D01*
X428000Y266158D02*
Y270094D01*
X426031Y268126D02*
X429969D01*
X472031Y276000D02*
X475969D01*
X474000Y274031D02*
Y277969D01*
X564000Y266032D02*
Y269969D01*
X562032Y268000D02*
X565969D01*
X430532Y242626D02*
X434469D01*
X432500Y240657D02*
Y244595D01*
X498000Y270158D02*
Y274095D01*
X496032Y272126D02*
X499968D01*
X458000Y257925D02*
Y261862D01*
X456032Y259894D02*
X459969D01*
X564000Y250425D02*
Y253575D01*
X562425Y252000D02*
X565575D01*
X513969Y72189D02*
X517906D01*
X515937Y70221D02*
Y74158D01*
X431968Y70126D02*
X435906D01*
X433937Y68158D02*
Y72095D01*
X556032Y72000D02*
X559969D01*
X558000Y70031D02*
Y73968D01*
X481874Y58157D02*
Y62094D01*
X479906Y60126D02*
X483843D01*
X453937Y42158D02*
Y46095D01*
X451968Y44126D02*
X455905D01*
X416000Y92032D02*
Y95969D01*
X414032Y94000D02*
X417969D01*
X473937Y78158D02*
Y82095D01*
X471969Y80126D02*
X475906D01*
X453968Y84189D02*
X457905D01*
X455937Y82221D02*
Y86158D01*
X433705Y44157D02*
Y48094D01*
X431736Y46126D02*
X435673D01*
X457969Y65894D02*
X461905D01*
X459937Y63925D02*
Y67862D01*
X491968Y76126D02*
X495905D01*
X493937Y74158D02*
Y78095D01*
X556425Y54000D02*
X559575D01*
X558000Y52425D02*
Y55575D01*
X218032Y120537D02*
X221969D01*
X220000Y118569D02*
Y122505D01*
X350000Y180569D02*
Y184505D01*
X348031Y182537D02*
X351969D01*
X364000Y214568D02*
Y218506D01*
X362032Y216537D02*
X365968D01*
X264000Y88569D02*
Y92506D01*
X262032Y90537D02*
X265968D01*
X184031Y158537D02*
X187969D01*
X186000Y156569D02*
Y160505D01*
X204000Y158569D02*
Y162505D01*
X202031Y160537D02*
X205968D01*
X222000Y88569D02*
Y92506D01*
X220031Y90537D02*
X223969D01*
X240032D02*
X243969D01*
X242000Y88569D02*
Y92506D01*
X274000Y162568D02*
Y166506D01*
X272031Y164537D02*
X275969D01*
X206031Y190537D02*
X209968D01*
X208000Y188568D02*
Y192506D01*
X294000Y168569D02*
Y172505D01*
X292032Y170537D02*
X295969D01*
X278000Y128568D02*
Y132506D01*
X276031Y130537D02*
X279969D01*
X278000Y144569D02*
Y148505D01*
X276031Y146537D02*
X279969D01*
X364000Y231911D02*
Y235061D01*
X362425Y233486D02*
X365575D01*
X190425Y190537D02*
X193575D01*
X192000Y188962D02*
Y192112D01*
X168425Y158000D02*
X171575D01*
X170000Y156425D02*
Y159575D01*
X316000Y131639D02*
Y135576D01*
X314032Y133608D02*
X317969D01*
X362032Y160537D02*
X365968D01*
X364000Y158569D02*
Y162505D01*
X368000Y114568D02*
Y118506D01*
X366032Y116537D02*
X369969D01*
X368000Y95974D02*
Y99124D01*
X366425Y97549D02*
X369575D01*
X190000Y98568D02*
Y102506D01*
X188031Y100537D02*
X191969D01*
X274000Y178568D02*
Y182506D01*
X272031Y180537D02*
X275969D01*
X292032Y192537D02*
X295969D01*
X294000Y190568D02*
Y194506D01*
X184000Y112568D02*
Y116506D01*
X182032Y114537D02*
X185968D01*
X222000Y192569D02*
Y196505D01*
X220031Y194537D02*
X223969D01*
X182032Y134537D02*
X185968D01*
X184000Y132569D02*
Y136505D01*
X280000Y234569D02*
Y238506D01*
X278031Y236537D02*
X281968D01*
X280000Y218568D02*
Y222505D01*
X278031Y220537D02*
X281968D01*
X314032Y230537D02*
X317969D01*
X316000Y228569D02*
Y232505D01*
X238032Y132537D02*
X241968D01*
X240000Y130569D02*
Y134505D01*
X650000Y148031D02*
Y151969D01*
X648032Y150000D02*
X651968D01*
X506000Y369772D02*
Y373709D01*
X504032Y371740D02*
X507969D01*
X548283Y420900D02*
X552220D01*
X550251Y418931D02*
Y422868D01*
X404500Y392480D02*
Y396417D01*
X402531Y394449D02*
X406468D01*
X530676Y420900D02*
X533826D01*
X532251Y419325D02*
Y422475D01*
X404300Y416425D02*
Y419575D01*
X402725Y418000D02*
X405875D01*
X603700Y416331D02*
Y420268D01*
X601731Y418300D02*
X605668D01*
X610032Y360900D02*
X613969D01*
X612000Y358931D02*
Y362868D01*
X616032Y386000D02*
X619969D01*
X618000Y384032D02*
Y387968D01*
X597700Y363632D02*
Y367568D01*
X595731Y365600D02*
X599669D01*
X604032Y132000D02*
X607969D01*
X606000Y130032D02*
Y133968D01*
X620094Y162000D02*
X624031D01*
X622063Y160031D02*
Y163969D01*
X638488Y162000D02*
X641638D01*
X640063Y160425D02*
Y163575D01*
X632000Y130032D02*
Y133968D01*
X630031Y132000D02*
X633968D01*
X670000Y106032D02*
Y109968D01*
X668032Y108000D02*
X671969D01*
X668032Y144000D02*
X671969D01*
X670000Y142032D02*
Y145968D01*
X662032Y125768D02*
X665969D01*
X664000Y123799D02*
Y127736D01*
X232031Y160537D02*
X235968D01*
X234000Y158569D02*
Y162505D01*
X246031Y190537D02*
X249969D01*
X248000Y188568D02*
Y192506D01*
M02*
