G04*
G04 #@! TF.GenerationSoftware,Altium Limited,Altium Designer,22.8.2 (66)*
G04*
G04 Layer_Physical_Order=1*
G04 Layer_Color=255*
%FSLAX25Y25*%
%MOIN*%
G70*
G04*
G04 #@! TF.SameCoordinates,BEF1E4EC-90C0-4ACD-898C-557356F843F1*
G04*
G04*
G04 #@! TF.FilePolarity,Positive*
G04*
G01*
G75*
%ADD14C,0.01000*%
%ADD16C,0.00500*%
%ADD17C,0.00600*%
%ADD19C,0.00197*%
%ADD20C,0.00394*%
%ADD21R,0.05709X0.04724*%
%ADD22R,0.04134X0.05512*%
%ADD23O,0.00984X0.05512*%
%ADD24R,0.05906X0.02362*%
%ADD25C,0.06000*%
%ADD26R,0.03543X0.05315*%
%ADD27R,0.06890X0.05709*%
%ADD28R,0.05315X0.03543*%
%ADD29R,0.04724X0.05709*%
%ADD30R,0.05709X0.06890*%
%ADD31R,0.05512X0.04134*%
%ADD32R,0.02992X0.04331*%
%ADD33O,0.05709X0.02362*%
%ADD34R,0.03937X0.02756*%
%ADD35R,0.05512X0.03937*%
%ADD36R,0.02756X0.03937*%
%ADD37R,0.03740X0.03543*%
%ADD38R,0.03150X0.03937*%
%ADD39R,0.06102X0.02559*%
%ADD40R,0.02559X0.06102*%
%ADD41R,0.03543X0.03740*%
%ADD42R,0.19685X0.19685*%
%ADD43O,0.03347X0.05709*%
%ADD44R,0.02362X0.03937*%
%ADD45R,0.04331X0.02992*%
%ADD79C,0.04000*%
%ADD80C,0.01500*%
%ADD81C,0.07087*%
%ADD82C,0.06024*%
%ADD83R,0.06024X0.06024*%
%ADD84C,0.07000*%
%ADD85C,0.14800*%
%ADD86C,0.11811*%
%ADD87R,0.06000X0.06000*%
%ADD88C,0.02500*%
G36*
X460000Y412000D02*
Y340000D01*
X432000D01*
X382000Y290000D01*
X256000D01*
X244000Y278000D01*
Y180000D01*
X232000Y168000D01*
Y150000D01*
X242194Y139806D01*
X242003Y139344D01*
X236244D01*
Y137603D01*
X232272D01*
X232250Y137625D01*
Y138448D01*
X231908Y139275D01*
X231275Y139908D01*
X230448Y140250D01*
X229552D01*
X228726Y139908D01*
X228093Y139275D01*
X227750Y138448D01*
Y137552D01*
X228093Y136725D01*
X228726Y136092D01*
X229552Y135750D01*
X230376D01*
X230786Y135340D01*
X231216Y135053D01*
X231723Y134952D01*
X236244D01*
Y133210D01*
X243756D01*
Y137591D01*
X244218Y137782D01*
X262668Y119332D01*
X262539Y118849D01*
X262246Y118771D01*
X261210Y118173D01*
X260365Y117327D01*
X259766Y116291D01*
X259457Y115135D01*
Y113939D01*
X259766Y112783D01*
X260365Y111747D01*
X261210Y110901D01*
X262246Y110303D01*
X263402Y109994D01*
X264598D01*
X265754Y110303D01*
X266790Y110901D01*
X267635Y111747D01*
X268234Y112783D01*
X268312Y113076D01*
X268795Y113205D01*
X284000Y98000D01*
Y2774D01*
X2774D01*
Y268000D01*
X28000D01*
X31784Y264216D01*
X32364Y263210D01*
X33210Y262365D01*
X34216Y261784D01*
X52000Y244000D01*
X84000D01*
X94000Y254000D01*
Y344000D01*
X114000Y364000D01*
Y416000D01*
X124000Y426000D01*
X162823D01*
X163015Y425538D01*
X122738Y385262D01*
X122352Y384683D01*
X122216Y384000D01*
Y370216D01*
X121210Y369636D01*
X120364Y368790D01*
X119766Y367754D01*
X119457Y366598D01*
Y365402D01*
X119766Y364246D01*
X120364Y363210D01*
X121210Y362365D01*
X122216Y361784D01*
Y332310D01*
X120572Y330666D01*
X120110Y330858D01*
Y332681D01*
X114372D01*
X114273Y332819D01*
X114530Y333319D01*
X120110D01*
Y337681D01*
X117529D01*
Y344347D01*
X117908Y344725D01*
X118250Y345552D01*
Y346448D01*
X117908Y347274D01*
X117274Y347907D01*
X116448Y348250D01*
X115552D01*
X114725Y347907D01*
X114093Y347274D01*
X113750Y346448D01*
Y345552D01*
X114093Y344725D01*
X114471Y344347D01*
Y337681D01*
X112205D01*
Y335209D01*
X111743Y335017D01*
X109823Y336937D01*
X109393Y337225D01*
X108886Y337326D01*
X107325D01*
Y344144D01*
X107907Y344725D01*
X108250Y345552D01*
Y346448D01*
X107907Y347274D01*
X107274Y347907D01*
X106448Y348250D01*
X105552D01*
X104726Y347907D01*
X104093Y347274D01*
X103750Y346448D01*
Y345552D01*
X104093Y344725D01*
X104674Y344144D01*
Y336351D01*
X104775Y335844D01*
X105063Y335414D01*
X105414Y335063D01*
X105844Y334775D01*
X106351Y334675D01*
X108337D01*
X112205Y330807D01*
Y328319D01*
X117136D01*
X117393Y327819D01*
X117294Y327681D01*
X112205D01*
Y323319D01*
X120110D01*
Y325158D01*
X125262Y330309D01*
X125262Y330309D01*
X125648Y330888D01*
X125784Y331571D01*
Y361784D01*
X126790Y362365D01*
X127636Y363210D01*
X128234Y364246D01*
X128543Y365402D01*
Y366598D01*
X128234Y367754D01*
X127636Y368790D01*
X126790Y369636D01*
X125784Y370216D01*
Y383261D01*
X168523Y426000D01*
X270673D01*
X290128Y406545D01*
X289925Y405788D01*
Y404732D01*
X290199Y403711D01*
X290727Y402797D01*
X291474Y402050D01*
X292389Y401521D01*
X293409Y401248D01*
X294465D01*
X295485Y401521D01*
X296400Y402050D01*
X297147Y402797D01*
X297675Y403711D01*
X297949Y404732D01*
Y405788D01*
X297675Y406808D01*
X297147Y407723D01*
X296400Y408470D01*
X295485Y408998D01*
X294465Y409272D01*
X293409D01*
X292652Y409069D01*
X276182Y425538D01*
X276374Y426000D01*
X446000D01*
X460000Y412000D01*
D02*
G37*
G36*
X697226Y197644D02*
X696726Y197437D01*
X683529Y210633D01*
Y260000D01*
X683413Y260585D01*
X683081Y261081D01*
X629081Y315081D01*
X628585Y315413D01*
X628000Y315529D01*
X625653D01*
X625275Y315908D01*
X624447Y316250D01*
X623553D01*
X622725Y315908D01*
X622092Y315275D01*
X621750Y314448D01*
Y313552D01*
X622092Y312725D01*
X622725Y312092D01*
X623553Y311750D01*
X624447D01*
X625275Y312092D01*
X625653Y312471D01*
X627366D01*
X680471Y259366D01*
Y210000D01*
X680587Y209415D01*
X680919Y208919D01*
X694471Y195367D01*
Y88634D01*
X693366Y87529D01*
X670000D01*
X669415Y87413D01*
X668919Y87081D01*
X659955Y78118D01*
X659754Y78234D01*
X658598Y78543D01*
X657402D01*
X656246Y78234D01*
X655210Y77636D01*
X654364Y76790D01*
X653766Y75754D01*
X653457Y74598D01*
Y73402D01*
X653766Y72246D01*
X654364Y71210D01*
X655210Y70364D01*
X656246Y69766D01*
X656471Y69706D01*
Y51685D01*
X656587Y51100D01*
X656919Y50604D01*
X667840Y39682D01*
X667565Y39271D01*
X667045Y38014D01*
X666780Y36680D01*
Y35320D01*
X667045Y33986D01*
X667565Y32729D01*
X668321Y31598D01*
X669283Y30636D01*
X670414Y29880D01*
X671671Y29360D01*
X673005Y29094D01*
X674365D01*
X675699Y29360D01*
X676956Y29880D01*
X678087Y30636D01*
X679049Y31598D01*
X679805Y32729D01*
X680325Y33986D01*
X680590Y35320D01*
Y36680D01*
X680325Y38014D01*
X679805Y39271D01*
X679049Y40402D01*
X678087Y41364D01*
X676956Y42120D01*
X675699Y42640D01*
X674365Y42906D01*
X673005D01*
X671671Y42640D01*
X670414Y42120D01*
X670003Y41845D01*
X659529Y52319D01*
Y69706D01*
X659754Y69766D01*
X660790Y70364D01*
X661635Y71210D01*
X662234Y72246D01*
X662543Y73402D01*
Y74598D01*
X662234Y75754D01*
X662118Y75955D01*
X670634Y84471D01*
X694000D01*
X694585Y84587D01*
X695081Y84919D01*
X696726Y86563D01*
X697226Y86356D01*
X697226Y2774D01*
X290000D01*
Y97472D01*
X290462Y97664D01*
X300526Y87600D01*
X300956Y87312D01*
X301463Y87212D01*
X307652D01*
X307766Y86783D01*
X308365Y85747D01*
X309210Y84901D01*
X310246Y84303D01*
X311402Y83994D01*
X312598D01*
X313754Y84303D01*
X314790Y84901D01*
X315635Y85747D01*
X316234Y86783D01*
X316543Y87939D01*
Y89135D01*
X316234Y90291D01*
X315635Y91327D01*
X314790Y92173D01*
X313754Y92771D01*
X312598Y93080D01*
X311402D01*
X310246Y92771D01*
X309210Y92173D01*
X308365Y91327D01*
X307766Y90291D01*
X307652Y89863D01*
X302012D01*
X268586Y123288D01*
X268719Y123863D01*
X269274Y124092D01*
X269907Y124725D01*
X270050Y125071D01*
X274342D01*
Y123828D01*
X281658D01*
Y129372D01*
X274342D01*
Y128129D01*
X269006D01*
X268825Y128094D01*
X268448Y128250D01*
X267552D01*
X266725Y127908D01*
X266092Y127275D01*
X265862Y126719D01*
X265288Y126586D01*
X257326Y134549D01*
Y142751D01*
X257544Y142810D01*
X258456Y143336D01*
X259201Y144081D01*
X259727Y144993D01*
X259786Y145212D01*
X273177D01*
X273684Y145312D01*
X273869Y145436D01*
X274342Y145151D01*
X274342Y144976D01*
Y139828D01*
X276471D01*
Y137246D01*
X274342D01*
Y131702D01*
X281658D01*
Y137246D01*
X279529D01*
Y139375D01*
X280029Y139582D01*
X286549Y133063D01*
X286979Y132775D01*
X287486Y132675D01*
X331648D01*
X332156Y132775D01*
X332586Y133063D01*
X340022Y140499D01*
X340175Y140727D01*
X340674Y140576D01*
Y132000D01*
X340775Y131493D01*
X341063Y131063D01*
X350526Y121600D01*
X350956Y121312D01*
X351463Y121212D01*
X352179D01*
X352361Y120772D01*
X324137Y92549D01*
X323754Y92771D01*
X322598Y93080D01*
X321402D01*
X320246Y92771D01*
X319210Y92173D01*
X318365Y91327D01*
X317766Y90291D01*
X317457Y89135D01*
Y87939D01*
X317766Y86783D01*
X318365Y85747D01*
X319210Y84901D01*
X320246Y84303D01*
X321402Y83994D01*
X322598D01*
X323754Y84303D01*
X324790Y84901D01*
X325636Y85747D01*
X326234Y86783D01*
X326543Y87939D01*
Y89135D01*
X326234Y90291D01*
X326012Y90675D01*
X354260Y118923D01*
X354456Y118810D01*
X355473Y118537D01*
X356527D01*
X357544Y118810D01*
X358456Y119336D01*
X359201Y120081D01*
X359727Y120993D01*
X359786Y121212D01*
X364342D01*
Y117702D01*
X371657D01*
Y118675D01*
X387271D01*
X387370Y118175D01*
X386725Y117908D01*
X386092Y117274D01*
X385750Y116448D01*
Y115552D01*
X386092Y114725D01*
X386725Y114093D01*
X387552Y113750D01*
X388448D01*
X389275Y114093D01*
X389857Y114674D01*
X398144D01*
X398726Y114093D01*
X399552Y113750D01*
X400448D01*
X401274Y114093D01*
X401907Y114725D01*
X402250Y115552D01*
Y116448D01*
X401907Y117274D01*
X401274Y117908D01*
X400630Y118175D01*
X400729Y118675D01*
X407451D01*
X410738Y115388D01*
Y97658D01*
X409291D01*
Y90342D01*
X414835D01*
Y97658D01*
X413388D01*
Y115937D01*
X413288Y116444D01*
X413000Y116874D01*
X408937Y120937D01*
X408507Y121225D01*
X408000Y121326D01*
X400729D01*
X400630Y121826D01*
X401274Y122092D01*
X401907Y122725D01*
X402250Y123552D01*
Y124448D01*
X401907Y125275D01*
X401274Y125908D01*
X400448Y126250D01*
X399552D01*
X398726Y125908D01*
X398144Y125326D01*
X389857D01*
X389275Y125908D01*
X388448Y126250D01*
X387552D01*
X386725Y125908D01*
X386092Y125275D01*
X385750Y124448D01*
Y123552D01*
X386092Y122725D01*
X386725Y122092D01*
X387370Y121826D01*
X387271Y121326D01*
X371657D01*
Y123246D01*
X369325D01*
Y138674D01*
X387271D01*
X387370Y138174D01*
X386725Y137908D01*
X386092Y137275D01*
X385750Y136448D01*
Y135552D01*
X386092Y134725D01*
X386725Y134092D01*
X387552Y133750D01*
X388448D01*
X389275Y134092D01*
X389857Y134675D01*
X398144D01*
X398726Y134092D01*
X399552Y133750D01*
X400448D01*
X401274Y134092D01*
X401907Y134725D01*
X402250Y135552D01*
Y136448D01*
X401907Y137275D01*
X401274Y137908D01*
X400630Y138174D01*
X400729Y138674D01*
X433937D01*
X434444Y138775D01*
X434874Y139063D01*
X436072Y140260D01*
X436129Y140272D01*
X441425D01*
Y147980D01*
X434701D01*
Y142595D01*
X434571Y142509D01*
X433388Y141325D01*
X400729D01*
X400630Y141825D01*
X401274Y142093D01*
X401907Y142726D01*
X402250Y143552D01*
Y144448D01*
X401907Y145274D01*
X401274Y145907D01*
X400448Y146250D01*
X399552D01*
X398726Y145907D01*
X398144Y145326D01*
X389857D01*
X389275Y145907D01*
X388448Y146250D01*
X387552D01*
X386725Y145907D01*
X386092Y145274D01*
X385750Y144448D01*
Y143552D01*
X386092Y142726D01*
X386725Y142093D01*
X387370Y141825D01*
X387271Y141325D01*
X368352D01*
X367844Y141225D01*
X367414Y140937D01*
X367063Y140586D01*
X366775Y140156D01*
X366674Y139648D01*
Y123348D01*
X366175Y123288D01*
X365988Y123474D01*
X365558Y123762D01*
X365051Y123863D01*
X359786D01*
X359727Y124081D01*
X359201Y124993D01*
X358456Y125738D01*
X357544Y126264D01*
X356527Y126537D01*
X355473D01*
X354456Y126264D01*
X353544Y125738D01*
X352799Y124993D01*
X352356Y124225D01*
X351920Y124102D01*
X351763Y124111D01*
X343325Y132549D01*
Y155451D01*
X353437Y165563D01*
X353725Y165993D01*
X353825Y166500D01*
Y167856D01*
X354720D01*
X354780Y167856D01*
X355221D01*
X355279Y167856D01*
X355971D01*
Y163986D01*
X356087Y163401D01*
X356419Y162904D01*
X357193Y162130D01*
Y159118D01*
X357164Y158970D01*
Y157263D01*
X351155Y151255D01*
X350954Y151371D01*
X349798Y151680D01*
X348602D01*
X347446Y151371D01*
X346410Y150773D01*
X345565Y149927D01*
X344966Y148891D01*
X344657Y147735D01*
Y146539D01*
X344966Y145383D01*
X345565Y144347D01*
X346410Y143501D01*
X347446Y142903D01*
X348602Y142594D01*
X349798D01*
X350954Y142903D01*
X351990Y143501D01*
X352835Y144347D01*
X353434Y145383D01*
X353743Y146539D01*
Y147735D01*
X353434Y148891D01*
X353318Y149092D01*
X359774Y155549D01*
X360106Y156045D01*
X360222Y156630D01*
Y156781D01*
X363327D01*
Y164293D01*
X359356D01*
X359029Y164619D01*
Y167856D01*
X359780D01*
Y175958D01*
X355279D01*
X355221Y175958D01*
X354780D01*
X354720Y175958D01*
X350279D01*
X350220Y175958D01*
X349780D01*
X349721Y175958D01*
X345280D01*
X345220Y175958D01*
Y175958D01*
X344779D01*
Y175958D01*
X340220D01*
Y171862D01*
X333786D01*
X333727Y172081D01*
X333201Y172993D01*
X332456Y173738D01*
X331544Y174264D01*
X330527Y174537D01*
X329473D01*
X328456Y174264D01*
X327544Y173738D01*
X326799Y172993D01*
X326273Y172081D01*
X326000Y171064D01*
Y170010D01*
X326273Y168993D01*
X326386Y168797D01*
X324605Y167017D01*
X324318Y166587D01*
X324217Y166079D01*
Y161380D01*
X307032D01*
X303392Y165020D01*
Y167983D01*
X303366Y168111D01*
Y174982D01*
X295657D01*
Y166092D01*
X300741D01*
Y164471D01*
X300842Y163964D01*
X301129Y163534D01*
X305157Y159505D01*
Y139694D01*
X326842D01*
Y159951D01*
X326868Y160080D01*
Y165531D01*
X328260Y166923D01*
X328456Y166810D01*
X329473Y166537D01*
X330527D01*
X331544Y166810D01*
X332456Y167336D01*
X333201Y168081D01*
X333727Y168993D01*
X333786Y169211D01*
X340220D01*
Y167856D01*
X342693D01*
X342884Y167394D01*
X338147Y162657D01*
X337860Y162227D01*
X337759Y161720D01*
Y141985D01*
X331100Y135326D01*
X288035D01*
X281658Y141703D01*
Y145372D01*
X274754D01*
X274593Y145372D01*
X274386Y145872D01*
X276217Y147702D01*
X281658D01*
Y153246D01*
X279326D01*
Y157486D01*
X279225Y157993D01*
X278937Y158423D01*
X277658Y159703D01*
Y161497D01*
X281483Y165323D01*
X281662Y165591D01*
X284172Y168101D01*
X284634Y167909D01*
Y166092D01*
X292342D01*
Y174982D01*
X284634D01*
Y171843D01*
X284227Y171762D01*
X283797Y171474D01*
X279608Y167286D01*
X279429Y167018D01*
X278157Y165746D01*
X277658Y165953D01*
X277658Y166098D01*
Y171246D01*
X270342D01*
Y169325D01*
X265857D01*
X265275Y169907D01*
X264448Y170250D01*
X263552D01*
X262725Y169907D01*
X262092Y169274D01*
X261750Y168448D01*
Y167552D01*
X262092Y166726D01*
X262725Y166093D01*
X263552Y165750D01*
X264448D01*
X265275Y166093D01*
X265857Y166674D01*
X270342D01*
Y165702D01*
X277255D01*
X277407Y165702D01*
X277614Y165202D01*
X275783Y163372D01*
X270342D01*
Y157828D01*
X275783D01*
X276675Y156937D01*
Y153246D01*
X274342D01*
Y149577D01*
X272628Y147863D01*
X259786D01*
X259727Y148081D01*
X259201Y148993D01*
X258456Y149738D01*
X257544Y150264D01*
X256527Y150537D01*
X255473D01*
X254456Y150264D01*
X253881Y149932D01*
X249370Y154443D01*
Y158505D01*
X244220D01*
Y152568D01*
X247496D01*
X252211Y147853D01*
X252000Y147064D01*
Y146010D01*
X252273Y144993D01*
X252799Y144081D01*
X253544Y143336D01*
X254456Y142810D01*
X254675Y142751D01*
Y135979D01*
X254213Y135787D01*
X238000Y152000D01*
Y164000D01*
X250000Y176000D01*
Y274000D01*
X260000Y284000D01*
X384000D01*
X434000Y334000D01*
X466000D01*
Y414000D01*
X448000Y432000D01*
X122000D01*
X106000Y416000D01*
Y368000D01*
X88000Y350000D01*
Y256000D01*
X82000Y250000D01*
X54000D01*
X40058Y263942D01*
X40234Y264246D01*
X40543Y265402D01*
Y266598D01*
X40234Y267754D01*
X39636Y268790D01*
X38790Y269636D01*
X37754Y270234D01*
X36598Y270543D01*
X35402D01*
X34246Y270234D01*
X33942Y270058D01*
X30000Y274000D01*
X2774D01*
Y447226D01*
X697226D01*
X697226Y197644D01*
D02*
G37*
G36*
X351174Y167049D02*
X341063Y156937D01*
X340910Y156709D01*
X340410Y156860D01*
Y161171D01*
X347095Y167856D01*
X349721D01*
X349780Y167856D01*
X350220D01*
X350279Y167856D01*
X351174D01*
Y167049D01*
D02*
G37*
%LPC*%
G36*
X414447Y424250D02*
X413553D01*
X412725Y423908D01*
X412092Y423275D01*
X411805Y422581D01*
X407170D01*
Y423823D01*
X401430D01*
Y418280D01*
X407170D01*
Y419522D01*
X412645D01*
X413231Y419638D01*
X413457Y419790D01*
X413553Y419750D01*
X414447D01*
X415274Y420092D01*
X415907Y420725D01*
X416250Y421553D01*
Y422447D01*
X415907Y423275D01*
X415274Y423908D01*
X414447Y424250D01*
D02*
G37*
G36*
X337949Y409272D02*
X329925D01*
Y401248D01*
X337949D01*
Y409272D01*
D02*
G37*
G36*
X324465D02*
X323409D01*
X322389Y408998D01*
X321474Y408470D01*
X320727Y407723D01*
X320199Y406808D01*
X319925Y405788D01*
Y404732D01*
X320199Y403711D01*
X320727Y402797D01*
X321474Y402050D01*
X322389Y401521D01*
X323409Y401248D01*
X324465D01*
X325485Y401521D01*
X326400Y402050D01*
X327147Y402797D01*
X327675Y403711D01*
X327949Y404732D01*
Y405788D01*
X327675Y406808D01*
X327147Y407723D01*
X326400Y408470D01*
X325485Y408998D01*
X324465Y409272D01*
D02*
G37*
G36*
X314465D02*
X313409D01*
X312388Y408998D01*
X311474Y408470D01*
X310727Y407723D01*
X310199Y406808D01*
X309925Y405788D01*
Y404732D01*
X310199Y403711D01*
X310727Y402797D01*
X311474Y402050D01*
X312388Y401521D01*
X313409Y401248D01*
X314465D01*
X315486Y401521D01*
X316400Y402050D01*
X317147Y402797D01*
X317675Y403711D01*
X317949Y404732D01*
Y405788D01*
X317675Y406808D01*
X317147Y407723D01*
X316400Y408470D01*
X315486Y408998D01*
X314465Y409272D01*
D02*
G37*
G36*
X304465D02*
X303409D01*
X302389Y408998D01*
X301474Y408470D01*
X300727Y407723D01*
X300199Y406808D01*
X299925Y405788D01*
Y404732D01*
X300199Y403711D01*
X300727Y402797D01*
X301474Y402050D01*
X302389Y401521D01*
X303409Y401248D01*
X304465D01*
X305486Y401521D01*
X306400Y402050D01*
X307147Y402797D01*
X307675Y403711D01*
X307949Y404732D01*
Y405788D01*
X307675Y406808D01*
X307147Y407723D01*
X306400Y408470D01*
X305486Y408998D01*
X304465Y409272D01*
D02*
G37*
G36*
X284465D02*
X283409D01*
X282388Y408998D01*
X281474Y408470D01*
X280727Y407723D01*
X280199Y406808D01*
X279925Y405788D01*
Y404732D01*
X280199Y403711D01*
X280727Y402797D01*
X281474Y402050D01*
X282388Y401521D01*
X283409Y401248D01*
X284465D01*
X285486Y401521D01*
X286400Y402050D01*
X287147Y402797D01*
X287675Y403711D01*
X287949Y404732D01*
Y405788D01*
X287675Y406808D01*
X287147Y407723D01*
X286400Y408470D01*
X285486Y408998D01*
X284465Y409272D01*
D02*
G37*
G36*
X244465D02*
X243409D01*
X242389Y408998D01*
X241474Y408470D01*
X240727Y407723D01*
X240199Y406808D01*
X239925Y405788D01*
Y404732D01*
X240199Y403711D01*
X240727Y402797D01*
X241474Y402050D01*
X242389Y401521D01*
X243409Y401248D01*
X244465D01*
X245485Y401521D01*
X246400Y402050D01*
X247147Y402797D01*
X247675Y403711D01*
X247949Y404732D01*
Y405788D01*
X247675Y406808D01*
X247147Y407723D01*
X246400Y408470D01*
X245485Y408998D01*
X244465Y409272D01*
D02*
G37*
G36*
X234465D02*
X233409D01*
X232388Y408998D01*
X231474Y408470D01*
X230727Y407723D01*
X230199Y406808D01*
X229925Y405788D01*
Y404732D01*
X230199Y403711D01*
X230727Y402797D01*
X231474Y402050D01*
X232388Y401521D01*
X233409Y401248D01*
X234465D01*
X235486Y401521D01*
X236400Y402050D01*
X237147Y402797D01*
X237675Y403711D01*
X237949Y404732D01*
Y405788D01*
X237675Y406808D01*
X237147Y407723D01*
X236400Y408470D01*
X235486Y408998D01*
X234465Y409272D01*
D02*
G37*
G36*
X184000Y417784D02*
X183317Y417649D01*
X182738Y417262D01*
X135720Y370243D01*
X134598Y370543D01*
X133402D01*
X132246Y370234D01*
X131210Y369636D01*
X130365Y368790D01*
X129766Y367754D01*
X129457Y366598D01*
Y365402D01*
X129766Y364246D01*
X130365Y363210D01*
X131210Y362365D01*
X132216Y361784D01*
Y327310D01*
X120572Y315666D01*
X120110Y315858D01*
Y317681D01*
X112205D01*
Y313319D01*
X117136D01*
X117393Y312819D01*
X117294Y312681D01*
X112205D01*
Y308319D01*
X120110D01*
Y310158D01*
X135262Y325309D01*
X135649Y325888D01*
X135784Y326571D01*
X135784Y326571D01*
Y361784D01*
X136790Y362365D01*
X137636Y363210D01*
X138234Y364246D01*
X138543Y365402D01*
Y366598D01*
X138243Y367720D01*
X184739Y414216D01*
X205261D01*
X207751Y411725D01*
Y409661D01*
X207887Y408978D01*
X208274Y408399D01*
X210128Y406545D01*
X209925Y405788D01*
Y404732D01*
X210199Y403711D01*
X210727Y402797D01*
X211474Y402050D01*
X212388Y401521D01*
X213409Y401248D01*
X214465D01*
X215486Y401521D01*
X216400Y402050D01*
X217147Y402797D01*
X217675Y403711D01*
X217949Y404732D01*
Y405788D01*
X217675Y406808D01*
X217147Y407723D01*
X216400Y408470D01*
X215486Y408998D01*
X214465Y409272D01*
X213409D01*
X212651Y409069D01*
X211320Y410400D01*
Y412464D01*
X211320Y412464D01*
X211184Y413147D01*
X210797Y413726D01*
X210797Y413726D01*
X207262Y417262D01*
X206683Y417649D01*
X206000Y417784D01*
X184000D01*
X184000Y417784D01*
D02*
G37*
G36*
X204465Y409272D02*
X203409D01*
X202389Y408998D01*
X201474Y408470D01*
X200727Y407723D01*
X200199Y406808D01*
X199925Y405788D01*
Y404732D01*
X200199Y403711D01*
X200727Y402797D01*
X201474Y402050D01*
X202389Y401521D01*
X203409Y401248D01*
X204465D01*
X205486Y401521D01*
X206400Y402050D01*
X207147Y402797D01*
X207675Y403711D01*
X207949Y404732D01*
Y405788D01*
X207675Y406808D01*
X207147Y407723D01*
X206400Y408470D01*
X205486Y408998D01*
X204465Y409272D01*
D02*
G37*
G36*
X194465D02*
X193409D01*
X192388Y408998D01*
X191474Y408470D01*
X190727Y407723D01*
X190199Y406808D01*
X189925Y405788D01*
Y404732D01*
X190199Y403711D01*
X190727Y402797D01*
X191474Y402050D01*
X192388Y401521D01*
X193409Y401248D01*
X194465D01*
X195485Y401521D01*
X196400Y402050D01*
X197147Y402797D01*
X197675Y403711D01*
X197949Y404732D01*
Y405788D01*
X197675Y406808D01*
X197147Y407723D01*
X196400Y408470D01*
X195485Y408998D01*
X194465Y409272D01*
D02*
G37*
G36*
X254465D02*
X253409D01*
X252389Y408998D01*
X251474Y408470D01*
X250727Y407723D01*
X250199Y406808D01*
X249925Y405788D01*
Y404732D01*
X250199Y403711D01*
X250727Y402797D01*
X251474Y402050D01*
X252389Y401521D01*
X252611Y401462D01*
Y400486D01*
X252376Y400250D01*
X251552D01*
X250726Y399907D01*
X250093Y399274D01*
X249750Y398448D01*
Y397552D01*
X250093Y396726D01*
X250726Y396093D01*
X251552Y395750D01*
X252448D01*
X253274Y396093D01*
X253907Y396726D01*
X254250Y397552D01*
Y398376D01*
X254874Y399000D01*
X255162Y399430D01*
X255262Y399937D01*
Y401462D01*
X255486Y401521D01*
X256400Y402050D01*
X257147Y402797D01*
X257675Y403711D01*
X257949Y404732D01*
Y405788D01*
X257675Y406808D01*
X257147Y407723D01*
X256400Y408470D01*
X255486Y408998D01*
X254465Y409272D01*
D02*
G37*
G36*
X224465D02*
X223409D01*
X222389Y408998D01*
X221474Y408470D01*
X220727Y407723D01*
X220199Y406808D01*
X219925Y405788D01*
Y404732D01*
X220199Y403711D01*
X220727Y402797D01*
X221474Y402050D01*
X222389Y401521D01*
X222611Y401462D01*
Y400486D01*
X222375Y400250D01*
X221552D01*
X220725Y399907D01*
X220093Y399274D01*
X219750Y398448D01*
Y397552D01*
X220093Y396726D01*
X220725Y396093D01*
X221552Y395750D01*
X222448D01*
X223274Y396093D01*
X223907Y396726D01*
X224250Y397552D01*
Y398376D01*
X224874Y399000D01*
X225162Y399430D01*
X225262Y399937D01*
Y401462D01*
X225485Y401521D01*
X226400Y402050D01*
X227147Y402797D01*
X227675Y403711D01*
X227949Y404732D01*
Y405788D01*
X227675Y406808D01*
X227147Y407723D01*
X226400Y408470D01*
X225485Y408998D01*
X224465Y409272D01*
D02*
G37*
G36*
X407170Y417721D02*
X401430D01*
Y412177D01*
X402971D01*
Y401158D01*
X400843D01*
Y395614D01*
X408157D01*
Y401158D01*
X406029D01*
Y412177D01*
X407170D01*
Y417721D01*
D02*
G37*
G36*
X264465Y409272D02*
X263409D01*
X262388Y408998D01*
X261474Y408470D01*
X260727Y407723D01*
X260199Y406808D01*
X259925Y405788D01*
Y404732D01*
X260199Y403711D01*
X260727Y402797D01*
X261474Y402050D01*
X262388Y401521D01*
X262643Y401453D01*
Y395825D01*
X262092Y395274D01*
X261750Y394448D01*
Y393552D01*
X262092Y392725D01*
X262725Y392092D01*
X263552Y391750D01*
X264448D01*
X265275Y392092D01*
X265908Y392725D01*
X266250Y393552D01*
Y394448D01*
X265908Y395274D01*
X265294Y395888D01*
Y401470D01*
X265486Y401521D01*
X266400Y402050D01*
X267147Y402797D01*
X267675Y403711D01*
X267949Y404732D01*
Y405788D01*
X267675Y406808D01*
X267147Y407723D01*
X266400Y408470D01*
X265486Y408998D01*
X264465Y409272D01*
D02*
G37*
G36*
X444401Y380438D02*
X436401D01*
Y372438D01*
X444401D01*
Y380438D01*
D02*
G37*
G36*
X399927Y372100D02*
X399900D01*
Y368600D01*
X403400D01*
Y368627D01*
X403127Y369644D01*
X402601Y370556D01*
X401856Y371301D01*
X400944Y371827D01*
X399927Y372100D01*
D02*
G37*
G36*
X398900D02*
X398873D01*
X397856Y371827D01*
X396944Y371301D01*
X396199Y370556D01*
X395673Y369644D01*
X395400Y368627D01*
Y368600D01*
X398900D01*
Y372100D01*
D02*
G37*
G36*
X403400Y367600D02*
X399900D01*
Y364100D01*
X399927D01*
X400944Y364373D01*
X401856Y364899D01*
X402601Y365644D01*
X403127Y366556D01*
X403400Y367573D01*
Y367600D01*
D02*
G37*
G36*
X398900D02*
X395400D01*
Y367573D01*
X395673Y366556D01*
X396199Y365644D01*
X396944Y364899D01*
X397856Y364373D01*
X398873Y364100D01*
X398900D01*
Y367600D01*
D02*
G37*
G36*
X454401Y380438D02*
X446401D01*
Y372438D01*
X448471D01*
Y367653D01*
X448093Y367274D01*
X447750Y366448D01*
Y365552D01*
X448093Y364725D01*
X448726Y364092D01*
X449552Y363750D01*
X450448D01*
X451274Y364092D01*
X451907Y364725D01*
X452250Y365552D01*
Y366448D01*
X451907Y367274D01*
X451529Y367653D01*
Y372438D01*
X454401D01*
Y380438D01*
D02*
G37*
G36*
X418298Y366743D02*
X418200D01*
Y362700D01*
X422243D01*
Y362798D01*
X421934Y363954D01*
X421336Y364990D01*
X420490Y365835D01*
X419454Y366434D01*
X418298Y366743D01*
D02*
G37*
G36*
X417200D02*
X417102D01*
X415946Y366434D01*
X414910Y365835D01*
X414065Y364990D01*
X413466Y363954D01*
X413157Y362798D01*
Y362700D01*
X417200D01*
Y366743D01*
D02*
G37*
G36*
X223594Y366709D02*
X216083D01*
Y360575D01*
X223594D01*
Y362674D01*
X228144D01*
X228726Y362092D01*
X229552Y361750D01*
X230448D01*
X231275Y362092D01*
X231908Y362725D01*
X232250Y363552D01*
Y364448D01*
X231908Y365275D01*
X231275Y365908D01*
X230448Y366250D01*
X229552D01*
X228726Y365908D01*
X228144Y365325D01*
X223594D01*
Y366709D01*
D02*
G37*
G36*
X408157Y393284D02*
X400843D01*
Y387740D01*
X408157D01*
Y388982D01*
X415693D01*
X426401Y378275D01*
Y372438D01*
X427375D01*
Y366989D01*
X427129Y366743D01*
X427102D01*
X425946Y366434D01*
X424910Y365835D01*
X424064Y364990D01*
X423466Y363954D01*
X423157Y362798D01*
Y361602D01*
X423466Y360446D01*
X424064Y359410D01*
X424910Y358564D01*
X425946Y357966D01*
X427102Y357657D01*
X428298D01*
X429454Y357966D01*
X430490Y358564D01*
X431335Y359410D01*
X431934Y360446D01*
X432243Y361602D01*
Y362798D01*
X432137Y363193D01*
X432540Y363596D01*
X432540Y363596D01*
X433021Y364223D01*
X433324Y364953D01*
X433427Y365736D01*
Y372438D01*
X434401D01*
Y380438D01*
X428564D01*
X417408Y391593D01*
X416912Y391925D01*
X416327Y392041D01*
X408157D01*
Y393284D01*
D02*
G37*
G36*
X422243Y361700D02*
X418200D01*
Y357657D01*
X418298D01*
X419454Y357966D01*
X420490Y358564D01*
X421336Y359410D01*
X421934Y360446D01*
X422243Y361602D01*
Y361700D01*
D02*
G37*
G36*
X417200D02*
X413157D01*
Y361602D01*
X413466Y360446D01*
X414065Y359410D01*
X414910Y358564D01*
X415946Y357966D01*
X417102Y357657D01*
X417200D01*
Y361700D01*
D02*
G37*
G36*
X337949Y349272D02*
X334437D01*
Y345760D01*
X337949D01*
Y349272D01*
D02*
G37*
G36*
X333437D02*
X329925D01*
Y345760D01*
X333437D01*
Y349272D01*
D02*
G37*
G36*
X337949Y344760D02*
X334437D01*
Y341248D01*
X337949D01*
Y344760D01*
D02*
G37*
G36*
X333437D02*
X329925D01*
Y341248D01*
X333437D01*
Y344760D01*
D02*
G37*
G36*
X324465Y349272D02*
X323409D01*
X322389Y348998D01*
X321474Y348470D01*
X320727Y347723D01*
X320199Y346808D01*
X319925Y345788D01*
Y344732D01*
X320199Y343711D01*
X320727Y342796D01*
X321474Y342050D01*
X322389Y341521D01*
X323409Y341248D01*
X324465D01*
X325485Y341521D01*
X326400Y342050D01*
X327147Y342796D01*
X327675Y343711D01*
X327949Y344732D01*
Y345788D01*
X327675Y346808D01*
X327147Y347723D01*
X326400Y348470D01*
X325485Y348998D01*
X324465Y349272D01*
D02*
G37*
G36*
X314465D02*
X313409D01*
X312388Y348998D01*
X311474Y348470D01*
X310727Y347723D01*
X310199Y346808D01*
X309925Y345788D01*
Y344732D01*
X310199Y343711D01*
X310727Y342796D01*
X311474Y342050D01*
X312388Y341521D01*
X313409Y341248D01*
X314465D01*
X315486Y341521D01*
X316400Y342050D01*
X317147Y342796D01*
X317675Y343711D01*
X317949Y344732D01*
Y345788D01*
X317675Y346808D01*
X317147Y347723D01*
X316400Y348470D01*
X315486Y348998D01*
X314465Y349272D01*
D02*
G37*
G36*
X294465D02*
X293409D01*
X292389Y348998D01*
X291474Y348470D01*
X290727Y347723D01*
X290199Y346808D01*
X289925Y345788D01*
Y344732D01*
X290199Y343711D01*
X290727Y342796D01*
X291474Y342050D01*
X292389Y341521D01*
X293409Y341248D01*
X294465D01*
X295485Y341521D01*
X296400Y342050D01*
X297147Y342796D01*
X297675Y343711D01*
X297949Y344732D01*
Y345788D01*
X297675Y346808D01*
X297147Y347723D01*
X296400Y348470D01*
X295485Y348998D01*
X294465Y349272D01*
D02*
G37*
G36*
X284465D02*
X283409D01*
X282388Y348998D01*
X281474Y348470D01*
X280727Y347723D01*
X280199Y346808D01*
X279925Y345788D01*
Y344732D01*
X280199Y343711D01*
X280727Y342796D01*
X281474Y342050D01*
X282388Y341521D01*
X283409Y341248D01*
X284465D01*
X285486Y341521D01*
X286400Y342050D01*
X287147Y342796D01*
X287675Y343711D01*
X287949Y344732D01*
Y345788D01*
X287675Y346808D01*
X287147Y347723D01*
X286400Y348470D01*
X285486Y348998D01*
X284465Y349272D01*
D02*
G37*
G36*
X274465D02*
X273409D01*
X272389Y348998D01*
X271474Y348470D01*
X270727Y347723D01*
X270199Y346808D01*
X269925Y345788D01*
Y344732D01*
X270199Y343711D01*
X270727Y342796D01*
X271474Y342050D01*
X272389Y341521D01*
X273409Y341248D01*
X274465D01*
X275485Y341521D01*
X276400Y342050D01*
X277147Y342796D01*
X277675Y343711D01*
X277949Y344732D01*
Y345788D01*
X277675Y346808D01*
X277147Y347723D01*
X276400Y348470D01*
X275485Y348998D01*
X274465Y349272D01*
D02*
G37*
G36*
X264465D02*
X263409D01*
X262388Y348998D01*
X261474Y348470D01*
X260727Y347723D01*
X260199Y346808D01*
X259925Y345788D01*
Y344732D01*
X260199Y343711D01*
X260314Y343511D01*
X259063Y342260D01*
X258775Y341830D01*
X258675Y341323D01*
Y323299D01*
X256146D01*
Y316575D01*
X263854D01*
Y323299D01*
X261326D01*
Y340774D01*
X262189Y341637D01*
X262388Y341521D01*
X263409Y341248D01*
X264465D01*
X265486Y341521D01*
X266400Y342050D01*
X267147Y342796D01*
X267675Y343711D01*
X267949Y344732D01*
Y345788D01*
X267675Y346808D01*
X267147Y347723D01*
X266400Y348470D01*
X265486Y348998D01*
X264465Y349272D01*
D02*
G37*
G36*
X254465D02*
X253409D01*
X252389Y348998D01*
X251474Y348470D01*
X250727Y347723D01*
X250199Y346808D01*
X249925Y345788D01*
Y344732D01*
X250199Y343711D01*
X250727Y342796D01*
X250930Y342594D01*
X250775Y342362D01*
X250675Y341855D01*
Y308549D01*
X247451Y305326D01*
X244000D01*
X243493Y305225D01*
X243063Y304937D01*
X221063Y282937D01*
X220775Y282507D01*
X220674Y282000D01*
Y256549D01*
X219763Y255638D01*
X219302Y255884D01*
X219325Y256000D01*
X219325Y256000D01*
Y285514D01*
X242512Y308701D01*
X247854D01*
Y315425D01*
X240146D01*
Y310083D01*
X217063Y287000D01*
X216775Y286570D01*
X216674Y286063D01*
Y256549D01*
X215787Y255662D01*
X215325Y255853D01*
Y324774D01*
X232189Y341637D01*
X232388Y341521D01*
X233409Y341248D01*
X234465D01*
X235486Y341521D01*
X236400Y342050D01*
X237147Y342796D01*
X237675Y343711D01*
X237949Y344732D01*
Y345788D01*
X237675Y346808D01*
X237147Y347723D01*
X236400Y348470D01*
X235486Y348998D01*
X234465Y349272D01*
X233409D01*
X232388Y348998D01*
X231474Y348470D01*
X230727Y347723D01*
X230199Y346808D01*
X229925Y345788D01*
Y344732D01*
X230199Y343711D01*
X230314Y343511D01*
X213063Y326260D01*
X212775Y325830D01*
X212674Y325323D01*
Y254812D01*
X147063Y189200D01*
X146775Y188770D01*
X146675Y188263D01*
Y179857D01*
X146092Y179274D01*
X145750Y178448D01*
Y177552D01*
X146092Y176725D01*
X146725Y176093D01*
X147552Y175750D01*
X148448D01*
X149275Y176093D01*
X149908Y176725D01*
X150174Y177370D01*
X150674Y177271D01*
Y176549D01*
X148375Y174250D01*
X147552D01*
X146725Y173907D01*
X146092Y173275D01*
X145750Y172448D01*
Y171552D01*
X146092Y170726D01*
X146725Y170092D01*
X147099Y169938D01*
X147216Y169348D01*
X147063Y169194D01*
X146775Y168764D01*
X146675Y168257D01*
Y167857D01*
X146092Y167274D01*
X145750Y166448D01*
Y165552D01*
X146092Y164725D01*
X146725Y164093D01*
X147087Y163943D01*
X147184Y163452D01*
X147063Y163331D01*
X146775Y162901D01*
X146675Y162394D01*
Y161856D01*
X146092Y161275D01*
X145750Y160448D01*
Y159552D01*
X146092Y158726D01*
X146725Y158092D01*
X147552Y157750D01*
X148448D01*
X149275Y158092D01*
X149908Y158726D01*
X150250Y159552D01*
Y160448D01*
X149908Y161275D01*
X149331Y161851D01*
X156937Y169457D01*
X157225Y169887D01*
X157325Y170394D01*
Y181451D01*
X227937Y252063D01*
X228225Y252493D01*
X228326Y253000D01*
Y280451D01*
X232549Y284675D01*
X233445D01*
X233952Y284775D01*
X234382Y285063D01*
X258020Y308701D01*
X263854D01*
Y315425D01*
X256146D01*
Y310575D01*
X253825Y308255D01*
X253326Y308462D01*
Y341184D01*
X253409Y341248D01*
X254465D01*
X255486Y341521D01*
X256400Y342050D01*
X257147Y342796D01*
X257675Y343711D01*
X257949Y344732D01*
Y345788D01*
X257675Y346808D01*
X257147Y347723D01*
X256400Y348470D01*
X255486Y348998D01*
X254465Y349272D01*
D02*
G37*
G36*
X224465D02*
X223409D01*
X222389Y348998D01*
X221474Y348470D01*
X220727Y347723D01*
X220199Y346808D01*
X219925Y345788D01*
Y344732D01*
X220199Y343711D01*
X220727Y342796D01*
X221474Y342050D01*
X222389Y341521D01*
X223409Y341248D01*
X224465D01*
X225485Y341521D01*
X226400Y342050D01*
X227147Y342796D01*
X227675Y343711D01*
X227949Y344732D01*
Y345788D01*
X227675Y346808D01*
X227147Y347723D01*
X226400Y348470D01*
X225485Y348998D01*
X224465Y349272D01*
D02*
G37*
G36*
X194465D02*
X193409D01*
X192388Y348998D01*
X191474Y348470D01*
X190727Y347723D01*
X190199Y346808D01*
X189925Y345788D01*
Y344732D01*
X190199Y343711D01*
X190727Y342796D01*
X191474Y342050D01*
X192388Y341521D01*
X193409Y341248D01*
X194465D01*
X195485Y341521D01*
X196400Y342050D01*
X197147Y342796D01*
X197675Y343711D01*
X197949Y344732D01*
Y345788D01*
X197675Y346808D01*
X197147Y347723D01*
X196400Y348470D01*
X195485Y348998D01*
X194465Y349272D01*
D02*
G37*
G36*
X398098Y342943D02*
X398000D01*
Y338900D01*
X402043D01*
Y338998D01*
X401734Y340154D01*
X401135Y341190D01*
X400290Y342036D01*
X399254Y342634D01*
X398098Y342943D01*
D02*
G37*
G36*
X397000D02*
X396902D01*
X395746Y342634D01*
X394710Y342036D01*
X393864Y341190D01*
X393266Y340154D01*
X392957Y338998D01*
Y338900D01*
X397000D01*
Y342943D01*
D02*
G37*
G36*
X408098D02*
X406902D01*
X405746Y342634D01*
X404710Y342036D01*
X403864Y341190D01*
X403266Y340154D01*
X402957Y338998D01*
Y337802D01*
X403266Y336646D01*
X403864Y335610D01*
X404710Y334765D01*
X405746Y334166D01*
X406902Y333857D01*
X408098D01*
X409254Y334166D01*
X410290Y334765D01*
X411135Y335610D01*
X411734Y336646D01*
X412043Y337802D01*
Y338998D01*
X411734Y340154D01*
X411135Y341190D01*
X410290Y342036D01*
X409254Y342634D01*
X408098Y342943D01*
D02*
G37*
G36*
X402043Y337900D02*
X398000D01*
Y333857D01*
X398098D01*
X399254Y334166D01*
X400290Y334765D01*
X401135Y335610D01*
X401734Y336646D01*
X402043Y337802D01*
Y337900D01*
D02*
G37*
G36*
X397000D02*
X392957D01*
Y337802D01*
X393266Y336646D01*
X393864Y335610D01*
X394710Y334765D01*
X395746Y334166D01*
X396902Y333857D01*
X397000D01*
Y337900D01*
D02*
G37*
G36*
X274465Y409272D02*
X273409D01*
X272389Y408998D01*
X271474Y408470D01*
X270727Y407723D01*
X270199Y406808D01*
X269925Y405788D01*
Y404732D01*
X270199Y403711D01*
X270727Y402797D01*
X271474Y402050D01*
X272389Y401521D01*
X272611Y401462D01*
Y392486D01*
X259451Y379326D01*
X220000D01*
X219493Y379225D01*
X219063Y378937D01*
X205063Y364937D01*
X204775Y364507D01*
X204675Y364000D01*
Y354000D01*
X204775Y353493D01*
X205063Y353063D01*
X207675Y350451D01*
Y350049D01*
X207312Y349686D01*
X207024Y349256D01*
X206923Y348749D01*
Y348600D01*
X206461Y348409D01*
X206400Y348470D01*
X205486Y348998D01*
X204465Y349272D01*
X203409D01*
X202389Y348998D01*
X201474Y348470D01*
X200727Y347723D01*
X200199Y346808D01*
X199925Y345788D01*
Y344732D01*
X200128Y343974D01*
X169938Y313784D01*
X162000D01*
X162000Y313784D01*
X161317Y313649D01*
X160738Y313262D01*
X160738Y313262D01*
X159331Y311854D01*
X158944Y311275D01*
X158808Y310593D01*
Y308445D01*
X154634D01*
Y302079D01*
X148801Y296246D01*
X148415Y295667D01*
X148279Y294984D01*
Y279854D01*
X146701D01*
Y274560D01*
X146667Y274388D01*
Y273682D01*
X140839Y267854D01*
X136638D01*
Y262669D01*
X131641Y257672D01*
X131544Y257727D01*
X130527Y258000D01*
X129473D01*
X128456Y257727D01*
X127544Y257201D01*
X126799Y256456D01*
X126411Y255784D01*
X115784D01*
Y257784D01*
X116790Y258365D01*
X117636Y259210D01*
X118234Y260246D01*
X118543Y261402D01*
Y262598D01*
X118234Y263754D01*
X117636Y264790D01*
X116790Y265635D01*
X115784Y266216D01*
Y271261D01*
X118280Y273757D01*
X119402Y273457D01*
X120598D01*
X121754Y273766D01*
X122790Y274364D01*
X123635Y275210D01*
X124234Y276246D01*
X124543Y277402D01*
Y278598D01*
X124234Y279754D01*
X123635Y280790D01*
X122790Y281635D01*
X121754Y282234D01*
X120598Y282543D01*
X119402D01*
X118246Y282234D01*
X118030Y282109D01*
X117723Y282509D01*
X126407Y291193D01*
X131756D01*
Y297327D01*
X124244D01*
Y296576D01*
X123782Y296385D01*
X120110Y300057D01*
Y302681D01*
X112205D01*
Y298319D01*
X117524D01*
X117529Y298312D01*
X122663Y293178D01*
X123080Y292899D01*
X123247Y292358D01*
X112621Y281733D01*
X111754Y282234D01*
X110598Y282543D01*
X109402D01*
X108246Y282234D01*
X107210Y281635D01*
X106365Y280790D01*
X105766Y279754D01*
X105457Y278598D01*
Y277402D01*
X105766Y276246D01*
X106365Y275210D01*
X107210Y274364D01*
X108246Y273766D01*
X109402Y273457D01*
X110598D01*
X111754Y273766D01*
X112790Y274364D01*
X113636Y275210D01*
X114234Y276246D01*
X114543Y277402D01*
Y278598D01*
X114389Y279175D01*
X115491Y280277D01*
X115891Y279970D01*
X115766Y279754D01*
X115457Y278598D01*
Y277402D01*
X115757Y276280D01*
X112738Y273262D01*
X112352Y272683D01*
X112216Y272000D01*
Y266216D01*
X111210Y265635D01*
X110364Y264790D01*
X109766Y263754D01*
X109457Y262598D01*
Y261402D01*
X109766Y260246D01*
X110364Y259210D01*
X111210Y258365D01*
X112216Y257784D01*
Y254739D01*
X107720Y250243D01*
X106598Y250543D01*
X105402D01*
X104246Y250234D01*
X103210Y249636D01*
X102365Y248790D01*
X101766Y247754D01*
X101457Y246598D01*
Y245402D01*
X101766Y244246D01*
X102365Y243210D01*
X103210Y242365D01*
X104246Y241766D01*
X105402Y241457D01*
X106598D01*
X107754Y241766D01*
X108790Y242365D01*
X109635Y243210D01*
X110234Y244246D01*
X110543Y245402D01*
Y246598D01*
X110243Y247720D01*
X114739Y252216D01*
X126411D01*
X126799Y251544D01*
X127544Y250799D01*
X128456Y250273D01*
X129473Y250000D01*
X130527D01*
X131544Y250273D01*
X132456Y250799D01*
X133201Y251544D01*
X133727Y252456D01*
X134000Y253473D01*
Y254527D01*
X133903Y254888D01*
X139161Y260146D01*
X143362D01*
Y265331D01*
X144050Y266019D01*
X144512Y265827D01*
Y260146D01*
X146549D01*
Y257299D01*
X144146D01*
Y250575D01*
X151854D01*
Y257299D01*
X149199D01*
Y260146D01*
X151236D01*
Y262674D01*
X156143D01*
X156726Y262092D01*
X157552Y261750D01*
X158448D01*
X159274Y262092D01*
X159907Y262725D01*
X160250Y263552D01*
Y264448D01*
X159907Y265275D01*
X159274Y265908D01*
X158448Y266250D01*
X157552D01*
X156726Y265908D01*
X156143Y265325D01*
X151236D01*
Y267854D01*
X146539D01*
X146347Y268316D01*
X149712Y271681D01*
X149713Y271681D01*
X150023Y272146D01*
X153425D01*
Y279854D01*
X151847D01*
Y294245D01*
X157157Y299555D01*
X159819D01*
X177555Y281819D01*
Y276634D01*
X185419D01*
Y251294D01*
X165451Y231326D01*
X132000D01*
X131493Y231225D01*
X131063Y230937D01*
X121451Y221325D01*
X116348D01*
X116234Y221754D01*
X115636Y222790D01*
X114790Y223636D01*
X113754Y224234D01*
X112598Y224543D01*
X111402D01*
X110246Y224234D01*
X109210Y223636D01*
X108364Y222790D01*
X107766Y221754D01*
X107652Y221325D01*
X100293D01*
X99458Y222160D01*
Y226335D01*
X99343Y226917D01*
X99013Y227410D01*
X98519Y227740D01*
X97937Y227856D01*
X97794Y227828D01*
X97294Y228238D01*
Y230244D01*
X100807D01*
Y232675D01*
X104144D01*
X104726Y232092D01*
X105552Y231750D01*
X106448D01*
X107274Y232092D01*
X107907Y232726D01*
X108250Y233552D01*
Y234448D01*
X107907Y235275D01*
X107274Y235908D01*
X106448Y236250D01*
X105552D01*
X104726Y235908D01*
X104144Y235326D01*
X100807D01*
Y237756D01*
X94673D01*
Y231691D01*
X94643Y231539D01*
Y229080D01*
X94181Y228888D01*
X93180Y229889D01*
X93327Y230244D01*
X93327D01*
Y237756D01*
X91529D01*
Y239367D01*
X94045Y241882D01*
X94246Y241766D01*
X95402Y241457D01*
X96598D01*
X97754Y241766D01*
X98790Y242365D01*
X99635Y243210D01*
X100234Y244246D01*
X100543Y245402D01*
Y246598D01*
X100234Y247754D01*
X99635Y248790D01*
X98790Y249636D01*
X97754Y250234D01*
X96598Y250543D01*
X95402D01*
X94246Y250234D01*
X93210Y249636D01*
X92365Y248790D01*
X91766Y247754D01*
X91457Y246598D01*
Y245402D01*
X91766Y244246D01*
X91882Y244045D01*
X88919Y241081D01*
X88587Y240585D01*
X88471Y240000D01*
Y237756D01*
X87193D01*
Y230244D01*
X88638D01*
X88804Y229925D01*
X88527Y229452D01*
X84422D01*
X84250Y229625D01*
Y230448D01*
X83908Y231275D01*
X83275Y231908D01*
X82448Y232250D01*
X81552D01*
X80726Y231908D01*
X80093Y231275D01*
X79750Y230448D01*
Y229552D01*
X80093Y228726D01*
X80726Y228093D01*
X81370Y227825D01*
X81271Y227326D01*
X77856D01*
X77275Y227907D01*
X76448Y228250D01*
X75552D01*
X74726Y227907D01*
X74093Y227274D01*
X73750Y226448D01*
Y225552D01*
X74093Y224726D01*
X74726Y224093D01*
X75552Y223750D01*
X76448D01*
X77275Y224093D01*
X77856Y224675D01*
X88542D01*
Y221807D01*
X88657Y221225D01*
X88987Y220731D01*
X89481Y220402D01*
X90063Y220286D01*
X90645Y220402D01*
X91047Y220670D01*
X91449Y220402D01*
X92032Y220286D01*
X92614Y220402D01*
X93016Y220670D01*
X93418Y220402D01*
X94000Y220286D01*
X94582Y220402D01*
X94984Y220670D01*
X95386Y220402D01*
X95969Y220286D01*
X96551Y220402D01*
X96953Y220670D01*
X97355Y220402D01*
X97496Y220373D01*
X98807Y219063D01*
X99237Y218775D01*
X99744Y218674D01*
X107652D01*
X107766Y218246D01*
X108364Y217210D01*
X109210Y216365D01*
X110246Y215766D01*
X111402Y215457D01*
X112598D01*
X113754Y215766D01*
X114790Y216365D01*
X115636Y217210D01*
X116234Y218246D01*
X116348Y218674D01*
X122000D01*
X122507Y218775D01*
X122937Y219063D01*
X132549Y228675D01*
X166000D01*
X166507Y228775D01*
X166937Y229063D01*
X187682Y249808D01*
X187970Y250238D01*
X188070Y250745D01*
Y283881D01*
X187970Y284388D01*
X187682Y284818D01*
X186470Y286030D01*
Y288958D01*
X186445Y289086D01*
Y295366D01*
X183948D01*
X183741Y295866D01*
X196798Y308923D01*
X208249D01*
X208756Y309024D01*
X209186Y309312D01*
X209473Y309742D01*
X209574Y310249D01*
Y344109D01*
X210074Y344175D01*
X210199Y343711D01*
X210727Y342796D01*
X211474Y342050D01*
X212388Y341521D01*
X213409Y341248D01*
X214465D01*
X215486Y341521D01*
X216400Y342050D01*
X217147Y342796D01*
X217675Y343711D01*
X217949Y344732D01*
Y345788D01*
X217746Y346545D01*
X221100Y349900D01*
X221100Y349900D01*
X221487Y350479D01*
X221623Y351161D01*
Y353095D01*
X223594D01*
Y354476D01*
X292198Y354476D01*
X300128Y346545D01*
X299925Y345788D01*
Y344732D01*
X300199Y343711D01*
X300727Y342796D01*
X301474Y342050D01*
X302153Y341658D01*
Y323917D01*
X300741Y322505D01*
X300598Y322543D01*
X299402D01*
X298246Y322234D01*
X297210Y321636D01*
X296364Y320790D01*
X295784Y319784D01*
X287589D01*
X287201Y320456D01*
X286456Y321201D01*
X285544Y321727D01*
X284527Y322000D01*
X283473D01*
X282456Y321727D01*
X281544Y321201D01*
X280799Y320456D01*
X280273Y319544D01*
X280000Y318527D01*
Y317473D01*
X280273Y316456D01*
X280799Y315544D01*
X281544Y314799D01*
X282456Y314273D01*
X283473Y314000D01*
X284527D01*
X285544Y314273D01*
X286456Y314799D01*
X287201Y315544D01*
X287589Y316216D01*
X295784D01*
X296364Y315210D01*
X297210Y314365D01*
X298246Y313766D01*
X299402Y313457D01*
X300598D01*
X301754Y313766D01*
X302790Y314365D01*
X303636Y315210D01*
X304234Y316246D01*
X304543Y317402D01*
Y318598D01*
X304234Y319754D01*
X303795Y320513D01*
X305199Y321916D01*
X305199Y321917D01*
X305586Y322495D01*
X305721Y323178D01*
Y341658D01*
X306400Y342050D01*
X307147Y342796D01*
X307675Y343711D01*
X307949Y344732D01*
Y345788D01*
X307675Y346808D01*
X307147Y347723D01*
X306400Y348470D01*
X305486Y348998D01*
X304465Y349272D01*
X303409D01*
X302652Y349069D01*
X294199Y357522D01*
X293620Y357908D01*
X292937Y358044D01*
X223594Y358044D01*
Y359228D01*
X216083D01*
Y353095D01*
X218054D01*
Y351901D01*
X215223Y349069D01*
X214465Y349272D01*
X213409D01*
X212388Y348998D01*
X211474Y348470D01*
X210727Y347723D01*
X210199Y346808D01*
X210074Y346344D01*
X209574Y346410D01*
Y348200D01*
X209937Y348563D01*
X210225Y348993D01*
X210326Y349500D01*
Y351000D01*
X210225Y351507D01*
X209937Y351937D01*
X207326Y354549D01*
Y363451D01*
X220549Y376675D01*
X260000D01*
X260507Y376775D01*
X260937Y377063D01*
X274874Y391000D01*
X275162Y391430D01*
X275262Y391937D01*
Y401462D01*
X275485Y401521D01*
X276400Y402050D01*
X277147Y402797D01*
X277675Y403711D01*
X277949Y404732D01*
Y405788D01*
X277675Y406808D01*
X277147Y407723D01*
X276400Y408470D01*
X275485Y408998D01*
X274465Y409272D01*
D02*
G37*
G36*
X336807Y321756D02*
X334240D01*
Y318500D01*
X336807D01*
Y321756D01*
D02*
G37*
G36*
X333240D02*
X330673D01*
Y318500D01*
X333240D01*
Y321756D01*
D02*
G37*
G36*
X120110Y322681D02*
X112205D01*
Y318319D01*
X120110D01*
Y322681D01*
D02*
G37*
G36*
X244465Y349272D02*
X243409D01*
X242389Y348998D01*
X241474Y348470D01*
X240727Y347723D01*
X240199Y346808D01*
X239925Y345788D01*
Y344732D01*
X240199Y343711D01*
X240727Y342796D01*
X241474Y342050D01*
X242389Y341521D01*
X242612Y341462D01*
Y323299D01*
X240146D01*
Y316575D01*
X247854D01*
Y323299D01*
X245263D01*
Y341462D01*
X245485Y341521D01*
X246400Y342050D01*
X247147Y342796D01*
X247675Y343711D01*
X247949Y344732D01*
Y345788D01*
X247675Y346808D01*
X247147Y347723D01*
X246400Y348470D01*
X245485Y348998D01*
X244465Y349272D01*
D02*
G37*
G36*
X336807Y317500D02*
X334240D01*
Y314244D01*
X336807D01*
Y317500D01*
D02*
G37*
G36*
X333240D02*
X330673D01*
Y314244D01*
X333240D01*
Y317500D01*
D02*
G37*
G36*
X310598Y322543D02*
X309402D01*
X308246Y322234D01*
X307210Y321636D01*
X306364Y320790D01*
X305766Y319754D01*
X305457Y318598D01*
Y317402D01*
X305766Y316246D01*
X306364Y315210D01*
X307210Y314365D01*
X308246Y313766D01*
X309402Y313457D01*
X310598D01*
X311754Y313766D01*
X312790Y314365D01*
X313635Y315210D01*
X314234Y316246D01*
X314543Y317402D01*
Y318598D01*
X314234Y319754D01*
X313635Y320790D01*
X312790Y321636D01*
X311754Y322234D01*
X310598Y322543D01*
D02*
G37*
G36*
X329327Y321756D02*
X323193D01*
Y314244D01*
X324675D01*
Y311857D01*
X324093Y311275D01*
X323750Y310448D01*
Y309552D01*
X324093Y308726D01*
X324726Y308092D01*
X325552Y307750D01*
X326448D01*
X327274Y308092D01*
X327907Y308726D01*
X328250Y309552D01*
Y310448D01*
X327907Y311275D01*
X327326Y311857D01*
Y314244D01*
X329327D01*
Y321756D01*
D02*
G37*
G36*
X120110Y307681D02*
X112205D01*
Y303319D01*
X120110D01*
Y303971D01*
X122918D01*
X124244Y302644D01*
Y298673D01*
X131756D01*
Y300211D01*
X135740D01*
X136325Y300327D01*
X136822Y300659D01*
X137913Y301750D01*
X138448D01*
X139275Y302093D01*
X139908Y302726D01*
X140250Y303552D01*
Y304448D01*
X139908Y305275D01*
X139275Y305908D01*
X138448Y306250D01*
X137552D01*
X136725Y305908D01*
X136092Y305275D01*
X135750Y304448D01*
Y303913D01*
X135107Y303270D01*
X131756D01*
Y304807D01*
X126407D01*
X124633Y306581D01*
X124136Y306913D01*
X123551Y307029D01*
X120110D01*
Y307681D01*
D02*
G37*
G36*
X130598Y282543D02*
X129402D01*
X128246Y282234D01*
X127210Y281635D01*
X126365Y280790D01*
X125766Y279754D01*
X125457Y278598D01*
Y277402D01*
X125766Y276246D01*
X126365Y275210D01*
X127210Y274364D01*
X128246Y273766D01*
X129402Y273457D01*
X130598D01*
X131754Y273766D01*
X132790Y274364D01*
X133635Y275210D01*
X134234Y276246D01*
X134543Y277402D01*
Y278598D01*
X134234Y279754D01*
X133635Y280790D01*
X132790Y281635D01*
X131754Y282234D01*
X130598Y282543D01*
D02*
G37*
G36*
X104598Y266543D02*
X103402D01*
X102246Y266234D01*
X101210Y265635D01*
X100364Y264790D01*
X99766Y263754D01*
X99457Y262598D01*
Y261402D01*
X99766Y260246D01*
X100364Y259210D01*
X101210Y258365D01*
X102246Y257766D01*
X103402Y257457D01*
X104598D01*
X105754Y257766D01*
X106790Y258365D01*
X107635Y259210D01*
X108234Y260246D01*
X108543Y261402D01*
Y262598D01*
X108234Y263754D01*
X107635Y264790D01*
X106790Y265635D01*
X105754Y266234D01*
X104598Y266543D01*
D02*
G37*
G36*
X172448Y262250D02*
X171552D01*
X170726Y261908D01*
X170092Y261275D01*
X169750Y260448D01*
Y259552D01*
X170092Y258726D01*
X170675Y258143D01*
Y253854D01*
X168575D01*
Y246146D01*
X175299D01*
Y253854D01*
X173326D01*
Y258143D01*
X173907Y258726D01*
X174250Y259552D01*
Y260448D01*
X173907Y261275D01*
X173275Y261908D01*
X172448Y262250D01*
D02*
G37*
G36*
X116598Y250543D02*
X115402D01*
X114246Y250234D01*
X113210Y249636D01*
X112364Y248790D01*
X111766Y247754D01*
X111457Y246598D01*
Y245402D01*
X111766Y244246D01*
X112364Y243210D01*
X113210Y242365D01*
X114246Y241766D01*
X115402Y241457D01*
X116598D01*
X117754Y241766D01*
X118790Y242365D01*
X119635Y243210D01*
X120234Y244246D01*
X120543Y245402D01*
Y246598D01*
X120234Y247754D01*
X119635Y248790D01*
X118790Y249636D01*
X117754Y250234D01*
X116598Y250543D01*
D02*
G37*
G36*
X158448Y292250D02*
X157552D01*
X156726Y291908D01*
X156093Y291274D01*
X155750Y290448D01*
Y289552D01*
X156093Y288725D01*
X156675Y288143D01*
Y279854D01*
X154575D01*
Y272146D01*
X159917D01*
X164674Y267388D01*
Y253854D01*
X160701D01*
Y246146D01*
X162674D01*
Y243857D01*
X162092Y243274D01*
X161750Y242448D01*
Y241552D01*
X162092Y240725D01*
X162725Y240092D01*
X163552Y239750D01*
X164448D01*
X165275Y240092D01*
X165908Y240725D01*
X166250Y241552D01*
Y242448D01*
X165908Y243274D01*
X165325Y243857D01*
Y246146D01*
X167425D01*
Y253854D01*
X167325D01*
Y267937D01*
X167225Y268444D01*
X166937Y268874D01*
X161299Y274512D01*
Y279854D01*
X159326D01*
Y288143D01*
X159907Y288725D01*
X160250Y289552D01*
Y290448D01*
X159907Y291274D01*
X159274Y291908D01*
X158448Y292250D01*
D02*
G37*
G36*
X151854Y249425D02*
X144146D01*
Y242701D01*
X146675D01*
Y239857D01*
X146092Y239275D01*
X145750Y238448D01*
Y237552D01*
X146092Y236725D01*
X146725Y236092D01*
X147552Y235750D01*
X148448D01*
X149275Y236092D01*
X149908Y236725D01*
X150250Y237552D01*
Y238448D01*
X149908Y239275D01*
X149326Y239857D01*
Y242701D01*
X151854D01*
Y249425D01*
D02*
G37*
G36*
X164835Y227658D02*
X159291D01*
Y225529D01*
X152709D01*
Y227658D01*
X147165D01*
Y222505D01*
X145335Y220675D01*
X144835Y220882D01*
Y227658D01*
X139291D01*
Y225325D01*
X136000D01*
X135493Y225225D01*
X135063Y224937D01*
X134376Y224250D01*
X133552D01*
X132726Y223907D01*
X132092Y223274D01*
X131750Y222448D01*
Y221552D01*
X132092Y220725D01*
X132726Y220093D01*
X133552Y219750D01*
X134448D01*
X135275Y220093D01*
X135907Y220725D01*
X136250Y221552D01*
Y222375D01*
X136549Y222674D01*
X139291D01*
Y220342D01*
X144295D01*
X144502Y219843D01*
X144105Y219445D01*
X141915D01*
X141330Y219328D01*
X140834Y218997D01*
X137955Y216118D01*
X137754Y216234D01*
X136598Y216543D01*
X135402D01*
X134246Y216234D01*
X133210Y215635D01*
X132364Y214790D01*
X131766Y213754D01*
X131457Y212598D01*
Y211402D01*
X131766Y210246D01*
X132364Y209210D01*
X133210Y208365D01*
X134246Y207766D01*
X135402Y207457D01*
X136598D01*
X137754Y207766D01*
X138790Y208365D01*
X139636Y209210D01*
X140234Y210246D01*
X140543Y211402D01*
Y212598D01*
X140234Y213754D01*
X140118Y213955D01*
X142549Y216386D01*
X143510D01*
X143644Y215886D01*
X143210Y215635D01*
X142365Y214790D01*
X141766Y213754D01*
X141457Y212598D01*
Y211402D01*
X141766Y210246D01*
X142365Y209210D01*
X143210Y208365D01*
X144246Y207766D01*
X144675Y207652D01*
Y202348D01*
X144246Y202234D01*
X143210Y201636D01*
X142365Y200790D01*
X141766Y199754D01*
X141457Y198598D01*
Y197402D01*
X141766Y196246D01*
X141988Y195862D01*
X135063Y188937D01*
X134775Y188507D01*
X134675Y188000D01*
Y178729D01*
X134175Y178630D01*
X133907Y179274D01*
X133274Y179908D01*
X132448Y180250D01*
X131552D01*
X130726Y179908D01*
X130093Y179274D01*
X129750Y178448D01*
Y177552D01*
X130093Y176725D01*
X130675Y176144D01*
Y163856D01*
X130093Y163275D01*
X129750Y162448D01*
Y161552D01*
X130093Y160725D01*
X130726Y160092D01*
X131552Y159750D01*
X132448D01*
X133274Y160092D01*
X133907Y160725D01*
X134175Y161370D01*
X134675Y161271D01*
Y156000D01*
X134775Y155493D01*
X135063Y155063D01*
X143063Y147063D01*
X143493Y146775D01*
X144000Y146675D01*
X186595D01*
X194675Y138595D01*
Y128000D01*
X194775Y127493D01*
X195063Y127063D01*
X200026Y122100D01*
X200456Y121812D01*
X200963Y121712D01*
X205319D01*
Y120817D01*
X205319Y120757D01*
Y120299D01*
X205218Y119799D01*
X187657D01*
Y121246D01*
X185326D01*
Y125171D01*
X188445D01*
Y132879D01*
X179555D01*
Y125171D01*
X182675D01*
Y121246D01*
X181989D01*
X181588Y121326D01*
X169786D01*
X169727Y121544D01*
X169201Y122456D01*
X168456Y123201D01*
X167544Y123727D01*
X166527Y124000D01*
X165473D01*
X164456Y123727D01*
X163544Y123201D01*
X162799Y122456D01*
X162273Y121544D01*
X162214Y121326D01*
X160549D01*
X160250Y121625D01*
Y122448D01*
X159907Y123275D01*
X159274Y123907D01*
X158448Y124250D01*
X157552D01*
X156726Y123907D01*
X156093Y123275D01*
X155750Y122448D01*
Y121552D01*
X156093Y120726D01*
X156726Y120092D01*
X157552Y119750D01*
X158376D01*
X159063Y119063D01*
X159493Y118775D01*
X160000Y118675D01*
X162214D01*
X162273Y118456D01*
X162799Y117544D01*
X163544Y116799D01*
X164456Y116273D01*
X165473Y116000D01*
X166527D01*
X167544Y116273D01*
X168456Y116799D01*
X169201Y117544D01*
X169727Y118456D01*
X169786Y118675D01*
X180342D01*
Y115702D01*
X187657D01*
Y117149D01*
X205319D01*
Y115817D01*
X205319Y115758D01*
Y115316D01*
X205319Y115258D01*
Y114363D01*
X199551D01*
X199044Y114262D01*
X198805Y114102D01*
X198448Y114250D01*
X197552D01*
X196725Y113908D01*
X196092Y113275D01*
X195750Y112448D01*
Y111552D01*
X196092Y110725D01*
X196725Y110092D01*
X197552Y109750D01*
X198448D01*
X199275Y110092D01*
X199908Y110725D01*
X200250Y111552D01*
Y111712D01*
X205319D01*
Y110758D01*
X213421D01*
Y115258D01*
X213421Y115316D01*
Y115758D01*
X213421Y115817D01*
Y120257D01*
X213421Y120317D01*
Y120757D01*
X213421Y120817D01*
Y121712D01*
X223309D01*
X226579Y118442D01*
Y115817D01*
X226579Y115758D01*
Y115316D01*
X226579Y115258D01*
Y112920D01*
X226430Y112772D01*
X226099Y112276D01*
X225982Y111691D01*
Y94982D01*
X223657D01*
Y86092D01*
X231366D01*
Y89008D01*
X235291D01*
Y86879D01*
X236471D01*
Y82268D01*
X236456Y82264D01*
X235544Y81738D01*
X234799Y80993D01*
X234273Y80081D01*
X234000Y79064D01*
Y78010D01*
X234273Y76993D01*
X234799Y76081D01*
X235544Y75336D01*
X236456Y74810D01*
X237473Y74537D01*
X238527D01*
X239544Y74810D01*
X239740Y74923D01*
X268674Y45988D01*
Y36549D01*
X251451Y19326D01*
X132549D01*
X117325Y34549D01*
Y124147D01*
X117787Y124338D01*
X131750Y110375D01*
Y109552D01*
X132092Y108726D01*
X132726Y108092D01*
X133552Y107750D01*
X134448D01*
X135275Y108092D01*
X135907Y108726D01*
X136250Y109552D01*
Y110448D01*
X135907Y111275D01*
X135275Y111907D01*
X134448Y112250D01*
X133624D01*
X119325Y126549D01*
Y161451D01*
X120549Y162674D01*
X122000D01*
X122507Y162775D01*
X122937Y163063D01*
X123625Y163750D01*
X124448D01*
X125275Y164093D01*
X125908Y164725D01*
X126250Y165552D01*
Y166448D01*
X125908Y167274D01*
X125275Y167908D01*
X124448Y168250D01*
X123552D01*
X122725Y167908D01*
X122092Y167274D01*
X121750Y166448D01*
Y165624D01*
X121451Y165325D01*
X120000D01*
X119493Y165225D01*
X119063Y164937D01*
X117787Y163662D01*
X117325Y163853D01*
Y166001D01*
X121999Y170675D01*
X122143D01*
X122725Y170092D01*
X123552Y169750D01*
X124448D01*
X125275Y170092D01*
X125908Y170726D01*
X126250Y171552D01*
Y172448D01*
X125908Y173275D01*
X125275Y173907D01*
X124448Y174250D01*
X123552D01*
X122725Y173907D01*
X122143Y173326D01*
X121450D01*
X120943Y173225D01*
X120513Y172937D01*
X115063Y167487D01*
X114775Y167057D01*
X114674Y166550D01*
Y34000D01*
X114698Y33884D01*
X114237Y33638D01*
X113326Y34549D01*
Y167188D01*
X118937Y172800D01*
X119225Y173230D01*
X119325Y173737D01*
Y175451D01*
X120549Y176674D01*
X122143D01*
X122725Y176093D01*
X123552Y175750D01*
X124448D01*
X125275Y176093D01*
X125908Y176725D01*
X126250Y177552D01*
Y178448D01*
X125908Y179274D01*
X125275Y179908D01*
X124448Y180250D01*
X123552D01*
X122725Y179908D01*
X122143Y179325D01*
X120000D01*
X119493Y179225D01*
X119063Y178937D01*
X117063Y176937D01*
X116775Y176507D01*
X116674Y176000D01*
Y174286D01*
X115787Y173399D01*
X115325Y173591D01*
Y189451D01*
X122549Y196675D01*
X131652D01*
X131766Y196246D01*
X132364Y195210D01*
X133210Y194365D01*
X134246Y193766D01*
X135402Y193457D01*
X136598D01*
X137754Y193766D01*
X138790Y194365D01*
X139636Y195210D01*
X140234Y196246D01*
X140543Y197402D01*
Y198598D01*
X140234Y199754D01*
X139636Y200790D01*
X138790Y201636D01*
X137754Y202234D01*
X136598Y202543D01*
X135402D01*
X134246Y202234D01*
X133210Y201636D01*
X132364Y200790D01*
X131766Y199754D01*
X131652Y199326D01*
X122000D01*
X121493Y199225D01*
X121063Y198937D01*
X113063Y190937D01*
X112775Y190507D01*
X112674Y190000D01*
Y172549D01*
X107451Y167325D01*
X74549D01*
X64258Y177617D01*
Y191451D01*
X72507Y199700D01*
X87193D01*
Y194870D01*
X83544D01*
X83037Y194769D01*
X82607Y194481D01*
X76376Y188250D01*
X75552D01*
X74726Y187908D01*
X74093Y187275D01*
X73750Y186448D01*
Y185552D01*
X74093Y184725D01*
X74726Y184092D01*
X75552Y183750D01*
X76448D01*
X77275Y184092D01*
X77908Y184725D01*
X78250Y185552D01*
Y186375D01*
X84093Y192219D01*
X88493D01*
X88621Y192244D01*
X92146D01*
X92337Y191782D01*
X81935Y181381D01*
X81648Y180950D01*
X81567Y180543D01*
X81402D01*
X80246Y180234D01*
X79210Y179636D01*
X78364Y178790D01*
X77766Y177754D01*
X77457Y176598D01*
Y175402D01*
X77766Y174246D01*
X78364Y173210D01*
X79210Y172364D01*
X80246Y171766D01*
X81402Y171457D01*
X82598D01*
X83754Y171766D01*
X84790Y172364D01*
X85636Y173210D01*
X86234Y174246D01*
X86543Y175402D01*
Y176598D01*
X86234Y177754D01*
X85636Y178790D01*
X84790Y179636D01*
X84606Y179742D01*
X84541Y180237D01*
X96548Y192244D01*
X100807D01*
Y199756D01*
X99066D01*
Y201123D01*
X98965Y201630D01*
X98677Y202060D01*
X97420Y203318D01*
X97440Y203854D01*
X97829Y204166D01*
X97937Y204144D01*
X98519Y204260D01*
X99013Y204590D01*
X99343Y205083D01*
X99458Y205665D01*
Y208621D01*
X107666D01*
X107766Y208246D01*
X108364Y207210D01*
X109210Y206364D01*
X110246Y205766D01*
X111402Y205457D01*
X112598D01*
X113754Y205766D01*
X114790Y206364D01*
X115636Y207210D01*
X116234Y208246D01*
X116543Y209402D01*
Y210598D01*
X116234Y211754D01*
X115636Y212790D01*
X114790Y213635D01*
X113754Y214234D01*
X112598Y214543D01*
X111402D01*
X110246Y214234D01*
X109210Y213635D01*
X108364Y212790D01*
X107766Y211754D01*
X107637Y211272D01*
X99008D01*
X98519Y211598D01*
X97937Y211714D01*
X97355Y211598D01*
X96953Y211330D01*
X96551Y211598D01*
X95969Y211714D01*
X95386Y211598D01*
X94984Y211330D01*
X94582Y211598D01*
X94000Y211714D01*
X93418Y211598D01*
X93016Y211330D01*
X92614Y211598D01*
X92032Y211714D01*
X91449Y211598D01*
X91047Y211330D01*
X90645Y211598D01*
X90563Y211615D01*
Y210460D01*
X90510Y210193D01*
Y207929D01*
X90063D01*
Y207429D01*
X88542D01*
Y205665D01*
X88657Y205083D01*
X88987Y204590D01*
X89055Y204544D01*
X89104Y204047D01*
X87409Y202351D01*
X71958D01*
X71451Y202251D01*
X71021Y201963D01*
X61995Y192937D01*
X61708Y192507D01*
X61607Y192000D01*
Y177068D01*
X61708Y176561D01*
X61995Y176131D01*
X73063Y165063D01*
X73493Y164775D01*
X74000Y164674D01*
X108000D01*
X108507Y164775D01*
X108937Y165063D01*
X110213Y166338D01*
X110675Y166147D01*
Y34000D01*
X110775Y33493D01*
X111063Y33063D01*
X129063Y15063D01*
X129493Y14775D01*
X130000Y14674D01*
X254000D01*
X254507Y14775D01*
X254937Y15063D01*
X275111Y35236D01*
X275398Y35666D01*
X275499Y36173D01*
Y62363D01*
X275398Y62871D01*
X275111Y63301D01*
X261614Y76797D01*
X261727Y76993D01*
X262000Y78010D01*
Y79064D01*
X261727Y80081D01*
X261201Y80993D01*
X260456Y81738D01*
X259544Y82264D01*
X259326Y82323D01*
Y86092D01*
X262343D01*
Y94982D01*
X254634D01*
Y91862D01*
X248709D01*
Y94195D01*
X243165D01*
Y86879D01*
X248709D01*
Y89211D01*
X254634D01*
Y86092D01*
X256675D01*
Y82323D01*
X256456Y82264D01*
X255544Y81738D01*
X254799Y80993D01*
X254273Y80081D01*
X254000Y79064D01*
Y78010D01*
X254273Y76993D01*
X254799Y76081D01*
X255544Y75336D01*
X256456Y74810D01*
X257473Y74537D01*
X258527D01*
X259544Y74810D01*
X259740Y74923D01*
X272848Y61814D01*
Y36722D01*
X271763Y35638D01*
X271302Y35884D01*
X271325Y36000D01*
Y46537D01*
X271225Y47044D01*
X270937Y47474D01*
X241614Y76797D01*
X241727Y76993D01*
X242000Y78010D01*
Y79064D01*
X241727Y80081D01*
X241201Y80993D01*
X240456Y81738D01*
X239544Y82264D01*
X239529Y82268D01*
Y86879D01*
X240835D01*
Y94195D01*
X235291D01*
Y92066D01*
X231366D01*
Y94982D01*
X229041D01*
Y110758D01*
X234681D01*
Y115258D01*
X234681Y115316D01*
Y115758D01*
X234681Y115817D01*
Y120257D01*
X234681Y120317D01*
X234681D01*
Y120757D01*
X234681D01*
Y125258D01*
X234681Y125317D01*
X234681D01*
Y125758D01*
X234681D01*
Y126508D01*
X236244D01*
Y125730D01*
X241593D01*
X242471Y124852D01*
Y118831D01*
X242246Y118771D01*
X241210Y118173D01*
X240365Y117327D01*
X239766Y116291D01*
X239457Y115135D01*
Y113939D01*
X239766Y112783D01*
X240365Y111747D01*
X241210Y110901D01*
X242246Y110303D01*
X243402Y109994D01*
X244598D01*
X245754Y110303D01*
X246790Y110901D01*
X247636Y111747D01*
X248234Y112783D01*
X248543Y113939D01*
Y115135D01*
X248234Y116291D01*
X247636Y117327D01*
X246790Y118173D01*
X245754Y118771D01*
X245529Y118831D01*
Y125486D01*
X245413Y126071D01*
X245081Y126567D01*
X243756Y127893D01*
Y131864D01*
X236244D01*
Y129566D01*
X234681D01*
Y130316D01*
X226579D01*
Y127662D01*
X226079Y127289D01*
X225895Y127325D01*
X222549D01*
X213326Y136549D01*
Y144000D01*
X213225Y144507D01*
X212937Y144937D01*
X205326Y152549D01*
Y153828D01*
X207658D01*
Y159372D01*
X200342D01*
Y157925D01*
X192709D01*
Y162195D01*
X188593D01*
X188465Y162220D01*
X187335D01*
X176617Y172937D01*
X176187Y173225D01*
X175680Y173326D01*
X171786D01*
X171727Y173544D01*
X171201Y174456D01*
X170456Y175201D01*
X169544Y175727D01*
X168527Y176000D01*
X167473D01*
X166456Y175727D01*
X165544Y175201D01*
X164799Y174456D01*
X164273Y173544D01*
X164000Y172527D01*
Y171473D01*
X164273Y170456D01*
X164799Y169544D01*
X165544Y168799D01*
X166456Y168273D01*
X167473Y168000D01*
X168527D01*
X169544Y168273D01*
X170456Y168799D01*
X171201Y169544D01*
X171727Y170456D01*
X171786Y170675D01*
X175131D01*
X183149Y162656D01*
X182958Y162195D01*
X179291D01*
Y159326D01*
X175823D01*
Y160870D01*
X170280D01*
Y155130D01*
X175823D01*
Y156675D01*
X179291D01*
Y154879D01*
X184835D01*
Y160318D01*
X185297Y160509D01*
X185848Y159957D01*
X186278Y159670D01*
X186785Y159569D01*
X187165D01*
Y154879D01*
X192709D01*
Y155274D01*
X200342D01*
Y153828D01*
X202675D01*
Y152000D01*
X202775Y151493D01*
X203063Y151063D01*
X210675Y143451D01*
Y136000D01*
X210775Y135493D01*
X211063Y135063D01*
X221063Y125063D01*
X221362Y124863D01*
X221211Y124363D01*
X213421D01*
Y125258D01*
X213421Y125317D01*
Y125758D01*
X213421Y125817D01*
Y130316D01*
X207944D01*
Y133381D01*
X207843Y133888D01*
X207556Y134318D01*
X188937Y152937D01*
X188507Y153225D01*
X188000Y153325D01*
X161326D01*
Y179188D01*
X164812Y182675D01*
X203794D01*
X204301Y182775D01*
X204731Y183063D01*
X208522Y186854D01*
X210465D01*
X210593Y186880D01*
X214709D01*
Y189211D01*
X218342D01*
Y187828D01*
X225658D01*
Y193372D01*
X218342D01*
Y191862D01*
X214709D01*
Y194194D01*
X213263D01*
Y200600D01*
X213162Y201107D01*
X212874Y201537D01*
X207614Y206797D01*
X207727Y206993D01*
X208000Y208010D01*
Y209064D01*
X207727Y210081D01*
X207201Y210993D01*
X206456Y211738D01*
X205544Y212264D01*
X204527Y212537D01*
X203473D01*
X202456Y212264D01*
X201544Y211738D01*
X200799Y210993D01*
X200273Y210081D01*
X200000Y209064D01*
Y208010D01*
X200273Y206993D01*
X200799Y206081D01*
X201544Y205336D01*
X202456Y204810D01*
X203473Y204537D01*
X204527D01*
X205544Y204810D01*
X205740Y204923D01*
X210612Y200051D01*
Y194194D01*
X209165D01*
Y189505D01*
X207973D01*
X207466Y189404D01*
X207335Y189316D01*
X206835Y189584D01*
Y194194D01*
X201291D01*
Y191862D01*
X197823D01*
Y193407D01*
X192280D01*
Y187667D01*
X197823D01*
Y189211D01*
X201291D01*
Y186880D01*
X204145D01*
X204337Y186418D01*
X203245Y185326D01*
X164263D01*
X163756Y185225D01*
X163326Y184937D01*
X159063Y180675D01*
X158775Y180245D01*
X158675Y179737D01*
Y152351D01*
X158775Y151844D01*
X159063Y151414D01*
X159414Y151063D01*
X159844Y150775D01*
X160352Y150674D01*
X187451D01*
X205293Y132832D01*
Y129016D01*
X205319Y128888D01*
Y125817D01*
X205319Y125758D01*
Y125317D01*
X205319Y125258D01*
Y124363D01*
X201512D01*
X197326Y128549D01*
Y139144D01*
X197225Y139652D01*
X196937Y140082D01*
X188082Y148937D01*
X187652Y149225D01*
X187144Y149326D01*
X144549D01*
X137326Y156549D01*
Y161271D01*
X137826Y161370D01*
X138093Y160725D01*
X138725Y160092D01*
X139552Y159750D01*
X140448D01*
X141274Y160092D01*
X141908Y160725D01*
X142250Y161552D01*
Y162448D01*
X141908Y163275D01*
X141325Y163856D01*
Y176144D01*
X141908Y176725D01*
X142250Y177552D01*
Y178448D01*
X141908Y179274D01*
X141274Y179908D01*
X140448Y180250D01*
X139552D01*
X138725Y179908D01*
X138093Y179274D01*
X137826Y178630D01*
X137326Y178729D01*
Y187451D01*
X143862Y193988D01*
X144246Y193766D01*
X145402Y193457D01*
X146598D01*
X147754Y193766D01*
X148790Y194365D01*
X149636Y195210D01*
X150234Y196246D01*
X150543Y197402D01*
Y198598D01*
X150234Y199754D01*
X149636Y200790D01*
X148790Y201636D01*
X147754Y202234D01*
X147326Y202348D01*
Y207652D01*
X147754Y207766D01*
X148790Y208365D01*
X149636Y209210D01*
X150234Y210246D01*
X150543Y211402D01*
Y212598D01*
X150234Y213754D01*
X149636Y214790D01*
X148790Y215635D01*
X147754Y216234D01*
X146598Y216543D01*
X146236D01*
X146029Y217043D01*
X149328Y220342D01*
X152709D01*
Y222471D01*
X159291D01*
Y220342D01*
X164835D01*
Y227658D01*
D02*
G37*
G36*
X172709D02*
X170437D01*
Y224500D01*
X172709D01*
Y227658D01*
D02*
G37*
G36*
X169437D02*
X167165D01*
Y224500D01*
X169437D01*
Y227658D01*
D02*
G37*
G36*
X172709Y223500D02*
X170437D01*
Y220342D01*
X172709D01*
Y223500D01*
D02*
G37*
G36*
X169437D02*
X167165D01*
Y220342D01*
X169437D01*
Y223500D01*
D02*
G37*
G36*
X89563Y211615D02*
X89481Y211598D01*
X88987Y211269D01*
X88657Y210775D01*
X88542Y210193D01*
Y208429D01*
X89563D01*
Y211615D01*
D02*
G37*
G36*
X225658Y201246D02*
X218342D01*
Y195702D01*
X225658D01*
Y197149D01*
X232112D01*
X232630Y196631D01*
Y192569D01*
X237779D01*
Y198505D01*
X234504D01*
X233599Y199411D01*
X233169Y199699D01*
X232661Y199800D01*
X225658D01*
Y201246D01*
D02*
G37*
G36*
X191720Y193407D02*
X186177D01*
Y191325D01*
X179857D01*
X179274Y191908D01*
X178448Y192250D01*
X177552D01*
X176725Y191908D01*
X176093Y191274D01*
X175750Y190448D01*
Y189552D01*
X176093Y188725D01*
X176725Y188093D01*
X177552Y187750D01*
X178448D01*
X179274Y188093D01*
X179857Y188674D01*
X186177D01*
Y187667D01*
X191720D01*
Y193407D01*
D02*
G37*
G36*
X237779Y188505D02*
X232630D01*
Y186863D01*
X227537D01*
X227030Y186762D01*
X226600Y186474D01*
X224376Y184250D01*
X223552D01*
X222726Y183907D01*
X222093Y183274D01*
X221750Y182448D01*
Y181552D01*
X222093Y180726D01*
X222726Y180093D01*
X223552Y179750D01*
X224448D01*
X225274Y180093D01*
X225907Y180726D01*
X226250Y181552D01*
Y182376D01*
X228086Y184212D01*
X232630D01*
Y182569D01*
X237779D01*
Y188505D01*
D02*
G37*
G36*
X92598Y180543D02*
X92500D01*
Y176500D01*
X96543D01*
Y176598D01*
X96234Y177754D01*
X95635Y178790D01*
X94790Y179636D01*
X93754Y180234D01*
X92598Y180543D01*
D02*
G37*
G36*
X91500D02*
X91402D01*
X90246Y180234D01*
X89210Y179636D01*
X88364Y178790D01*
X87766Y177754D01*
X87457Y176598D01*
Y176500D01*
X91500D01*
Y180543D01*
D02*
G37*
G36*
X102598D02*
X101402D01*
X100246Y180234D01*
X99210Y179636D01*
X98365Y178790D01*
X97766Y177754D01*
X97457Y176598D01*
Y175402D01*
X97766Y174246D01*
X98365Y173210D01*
X99210Y172364D01*
X100246Y171766D01*
X101402Y171457D01*
X102598D01*
X103754Y171766D01*
X104790Y172364D01*
X105635Y173210D01*
X106234Y174246D01*
X106543Y175402D01*
Y176598D01*
X106234Y177754D01*
X105635Y178790D01*
X104790Y179636D01*
X103754Y180234D01*
X102598Y180543D01*
D02*
G37*
G36*
X96543Y175500D02*
X92500D01*
Y171457D01*
X92598D01*
X93754Y171766D01*
X94790Y172364D01*
X95635Y173210D01*
X96234Y174246D01*
X96543Y175402D01*
Y175500D01*
D02*
G37*
G36*
X91500D02*
X87457D01*
Y175402D01*
X87766Y174246D01*
X88364Y173210D01*
X89210Y172364D01*
X90246Y171766D01*
X91402Y171457D01*
X91500D01*
Y175500D01*
D02*
G37*
G36*
X223780Y168506D02*
X218630D01*
Y165799D01*
X207658D01*
Y167246D01*
X200342D01*
Y161702D01*
X207658D01*
Y163149D01*
X218630D01*
Y162568D01*
X223780D01*
Y168506D01*
D02*
G37*
G36*
Y158505D02*
X218630D01*
Y155325D01*
X213857D01*
X213275Y155907D01*
X212448Y156250D01*
X211552D01*
X210725Y155907D01*
X210092Y155274D01*
X209750Y154448D01*
Y153552D01*
X210092Y152726D01*
X210725Y152093D01*
X211552Y151750D01*
X212448D01*
X213275Y152093D01*
X213857Y152674D01*
X218630D01*
Y152568D01*
X223780D01*
Y158505D01*
D02*
G37*
G36*
X168448Y165713D02*
X167552D01*
X166726Y165371D01*
X166093Y164737D01*
X165750Y163910D01*
Y163015D01*
X165896Y162662D01*
X165724Y162405D01*
X165623Y161898D01*
Y160870D01*
X164177D01*
Y155130D01*
X169720D01*
Y160870D01*
X168926D01*
X168827Y161370D01*
X169274Y161556D01*
X169907Y162188D01*
X170250Y163015D01*
Y163910D01*
X169907Y164737D01*
X169274Y165371D01*
X168448Y165713D01*
D02*
G37*
G36*
X188445Y143903D02*
X179555D01*
Y141578D01*
X152049D01*
X151464Y141462D01*
X150967Y141130D01*
X144919Y135081D01*
X144587Y134585D01*
X144471Y134000D01*
Y121221D01*
X143971Y121122D01*
X143907Y121274D01*
X143274Y121907D01*
X142448Y122250D01*
X141552D01*
X140726Y121907D01*
X140093Y121274D01*
X139750Y120448D01*
Y119552D01*
X140093Y118726D01*
X140674Y118143D01*
Y109856D01*
X140093Y109274D01*
X139750Y108448D01*
Y107552D01*
X140093Y106726D01*
X140726Y106093D01*
X141552Y105750D01*
X142448D01*
X143274Y106093D01*
X143907Y106726D01*
X143971Y106878D01*
X144471Y106779D01*
Y92000D01*
X144587Y91415D01*
X144919Y90919D01*
X197784Y38053D01*
X198280Y37722D01*
X198779Y37622D01*
Y37320D01*
X199045Y35986D01*
X199565Y34729D01*
X200321Y33598D01*
X201283Y32636D01*
X202414Y31880D01*
X203671Y31360D01*
X205005Y31095D01*
X206365D01*
X207699Y31360D01*
X208956Y31880D01*
X210087Y32636D01*
X211049Y33598D01*
X211805Y34729D01*
X212325Y35986D01*
X212591Y37320D01*
Y38680D01*
X212325Y40014D01*
X211805Y41271D01*
X211049Y42402D01*
X210087Y43364D01*
X208956Y44120D01*
X207699Y44640D01*
X206365Y44905D01*
X205005D01*
X204057Y44717D01*
X203529Y45244D01*
Y60269D01*
X203544Y60273D01*
X204456Y60799D01*
X205201Y61544D01*
X205727Y62456D01*
X206000Y63473D01*
Y64527D01*
X205727Y65544D01*
X205201Y66456D01*
X204456Y67201D01*
X203544Y67727D01*
X202527Y68000D01*
X201473D01*
X200456Y67727D01*
X199544Y67201D01*
X198799Y66456D01*
X198273Y65544D01*
X198000Y64527D01*
Y63473D01*
X198273Y62456D01*
X198799Y61544D01*
X199544Y60799D01*
X200456Y60273D01*
X200471Y60269D01*
Y44611D01*
X200587Y44025D01*
X200919Y43529D01*
X201183Y43264D01*
X200321Y42402D01*
X199579Y41291D01*
X199509Y41212D01*
X199012Y41151D01*
X147529Y92633D01*
Y106779D01*
X148029Y106878D01*
X148092Y106726D01*
X148725Y106093D01*
X149552Y105750D01*
X150448D01*
X151275Y106093D01*
X151908Y106726D01*
X152250Y107552D01*
Y108448D01*
X151908Y109274D01*
X151326Y109856D01*
Y118143D01*
X151908Y118726D01*
X152250Y119552D01*
Y120448D01*
X151908Y121274D01*
X151275Y121907D01*
X150448Y122250D01*
X149552D01*
X148725Y121907D01*
X148092Y121274D01*
X148029Y121122D01*
X147529Y121221D01*
Y133367D01*
X152682Y138519D01*
X179555D01*
Y136195D01*
X188445D01*
Y143903D01*
D02*
G37*
G36*
X124448Y162250D02*
X123552D01*
X122725Y161907D01*
X122092Y161275D01*
X121750Y160448D01*
Y159552D01*
X122092Y158726D01*
X122675Y158143D01*
Y130000D01*
X122775Y129493D01*
X123063Y129063D01*
X131750Y120376D01*
Y119552D01*
X132092Y118726D01*
X132726Y118093D01*
X133552Y117750D01*
X134448D01*
X135275Y118093D01*
X135907Y118726D01*
X136250Y119552D01*
Y120448D01*
X135907Y121274D01*
X135275Y121907D01*
X134448Y122250D01*
X133624D01*
X125326Y130549D01*
Y158143D01*
X125908Y158726D01*
X126250Y159552D01*
Y160448D01*
X125908Y161275D01*
X125275Y161907D01*
X124448Y162250D01*
D02*
G37*
G36*
X254598Y119080D02*
X254500D01*
Y115037D01*
X258543D01*
Y115135D01*
X258234Y116291D01*
X257635Y117327D01*
X256790Y118173D01*
X255754Y118771D01*
X254598Y119080D01*
D02*
G37*
G36*
X253500D02*
X253402D01*
X252246Y118771D01*
X251210Y118173D01*
X250364Y117327D01*
X249766Y116291D01*
X249457Y115135D01*
Y115037D01*
X253500D01*
Y119080D01*
D02*
G37*
G36*
X258543Y114037D02*
X254500D01*
Y109994D01*
X254598D01*
X255754Y110303D01*
X256790Y110901D01*
X257635Y111747D01*
X258234Y112783D01*
X258543Y113939D01*
Y114037D01*
D02*
G37*
G36*
X253500D02*
X249457D01*
Y113939D01*
X249766Y112783D01*
X250364Y111747D01*
X251210Y110901D01*
X252246Y110303D01*
X253402Y109994D01*
X253500D01*
Y114037D01*
D02*
G37*
G36*
X187657Y113372D02*
X180342D01*
Y109703D01*
X179965Y109326D01*
X169786D01*
X169727Y109544D01*
X169201Y110456D01*
X168456Y111201D01*
X167544Y111727D01*
X166527Y112000D01*
X165473D01*
X164456Y111727D01*
X163544Y111201D01*
X162799Y110456D01*
X162273Y109544D01*
X162214Y109326D01*
X160549D01*
X160250Y109625D01*
Y110448D01*
X159907Y111275D01*
X159274Y111907D01*
X158448Y112250D01*
X157552D01*
X156726Y111907D01*
X156093Y111275D01*
X155750Y110448D01*
Y109552D01*
X156093Y108726D01*
X156726Y108092D01*
X157552Y107750D01*
X158376D01*
X159063Y107063D01*
X159493Y106775D01*
X160000Y106675D01*
X162214D01*
X162273Y106456D01*
X162799Y105544D01*
X163544Y104799D01*
X164456Y104273D01*
X165473Y104000D01*
X166527D01*
X167544Y104273D01*
X168456Y104799D01*
X169201Y105544D01*
X169727Y106456D01*
X169786Y106675D01*
X180514D01*
X181021Y106775D01*
X181451Y107063D01*
X182175Y107786D01*
X182675Y107726D01*
Y104982D01*
X180634D01*
Y96092D01*
X188342D01*
Y104982D01*
X185326D01*
Y107828D01*
X187657D01*
Y113372D01*
D02*
G37*
G36*
X199366Y104982D02*
X191657D01*
Y96092D01*
X199366D01*
Y98674D01*
X202144D01*
X202726Y98093D01*
X203552Y97750D01*
X204448D01*
X205275Y98093D01*
X205908Y98725D01*
X206250Y99552D01*
Y100448D01*
X205908Y101275D01*
X205275Y101908D01*
X204448Y102250D01*
X203552D01*
X202726Y101908D01*
X202144Y101326D01*
X199366D01*
Y104982D01*
D02*
G37*
G36*
X273366Y94982D02*
X265657D01*
Y86092D01*
X273366D01*
Y88674D01*
X278144D01*
X278726Y88092D01*
X279552Y87750D01*
X280448D01*
X281275Y88092D01*
X281908Y88726D01*
X282250Y89552D01*
Y90448D01*
X281908Y91274D01*
X281275Y91908D01*
X280448Y92250D01*
X279552D01*
X278726Y91908D01*
X278144Y91325D01*
X273366D01*
Y94982D01*
D02*
G37*
G36*
X178527Y76000D02*
X177473D01*
X176456Y75727D01*
X175544Y75201D01*
X174799Y74456D01*
X174273Y73544D01*
X174000Y72527D01*
Y71473D01*
X174273Y70456D01*
X174799Y69544D01*
X175544Y68799D01*
X176456Y68273D01*
X177473Y68000D01*
X178527D01*
X179544Y68273D01*
X179740Y68386D01*
X182675Y65451D01*
Y63857D01*
X182092Y63275D01*
X181750Y62448D01*
Y61552D01*
X182092Y60725D01*
X182726Y60093D01*
X183552Y59750D01*
X184448D01*
X185275Y60093D01*
X185907Y60725D01*
X186250Y61552D01*
Y62448D01*
X185907Y63275D01*
X185326Y63857D01*
Y66000D01*
X185225Y66507D01*
X184937Y66937D01*
X181614Y70260D01*
X181727Y70456D01*
X182000Y71473D01*
Y72527D01*
X181727Y73544D01*
X181201Y74456D01*
X180456Y75201D01*
X179544Y75727D01*
X178527Y76000D01*
D02*
G37*
G36*
X220342Y94982D02*
X212634D01*
Y86092D01*
X218180D01*
X223841Y80431D01*
Y44737D01*
X223356Y44640D01*
X222099Y44120D01*
X220968Y43364D01*
X220006Y42402D01*
X219250Y41271D01*
X218730Y40014D01*
X218465Y38680D01*
Y37320D01*
X218730Y35986D01*
X219250Y34729D01*
X220006Y33598D01*
X220968Y32636D01*
X222099Y31880D01*
X223356Y31360D01*
X224690Y31095D01*
X226050D01*
X227384Y31360D01*
X228641Y31880D01*
X229772Y32636D01*
X230734Y33598D01*
X231490Y34729D01*
X232010Y35986D01*
X232107Y36471D01*
X236000D01*
X236585Y36587D01*
X237081Y36919D01*
X244443Y44280D01*
X244456Y44273D01*
X245473Y44000D01*
X246527D01*
X247544Y44273D01*
X248456Y44799D01*
X249201Y45544D01*
X249727Y46456D01*
X250000Y47473D01*
Y48527D01*
X249727Y49544D01*
X249201Y50456D01*
X248456Y51201D01*
X247544Y51727D01*
X246527Y52000D01*
X245473D01*
X244456Y51727D01*
X243544Y51201D01*
X242799Y50456D01*
X242273Y49544D01*
X242000Y48527D01*
Y47473D01*
X242273Y46456D01*
X242280Y46443D01*
X235367Y39529D01*
X232107D01*
X232010Y40014D01*
X231490Y41271D01*
X230734Y42402D01*
X229772Y43364D01*
X228641Y44120D01*
X227384Y44640D01*
X226900Y44737D01*
Y81065D01*
X226783Y81650D01*
X226451Y82146D01*
X220342Y88255D01*
Y94982D01*
D02*
G37*
G36*
X186680Y44905D02*
X185320D01*
X183986Y44640D01*
X182729Y44120D01*
X181598Y43364D01*
X180636Y42402D01*
X179880Y41271D01*
X179360Y40014D01*
X179095Y38680D01*
Y37320D01*
X179360Y35986D01*
X179880Y34729D01*
X180636Y33598D01*
X181598Y32636D01*
X182729Y31880D01*
X183986Y31360D01*
X185320Y31095D01*
X186680D01*
X188014Y31360D01*
X189271Y31880D01*
X190402Y32636D01*
X191364Y33598D01*
X192120Y34729D01*
X192640Y35986D01*
X192905Y37320D01*
Y38680D01*
X192640Y40014D01*
X192120Y41271D01*
X191364Y42402D01*
X190402Y43364D01*
X189271Y44120D01*
X188014Y44640D01*
X186680Y44905D01*
D02*
G37*
G36*
X166995D02*
X165635D01*
X164301Y44640D01*
X163044Y44120D01*
X161913Y43364D01*
X160951Y42402D01*
X160195Y41271D01*
X159675Y40014D01*
X159409Y38680D01*
Y37320D01*
X159675Y35986D01*
X160195Y34729D01*
X160951Y33598D01*
X161913Y32636D01*
X163044Y31880D01*
X164301Y31360D01*
X165635Y31095D01*
X166995D01*
X168329Y31360D01*
X169586Y31880D01*
X170717Y32636D01*
X171679Y33598D01*
X172434Y34729D01*
X172955Y35986D01*
X173221Y37320D01*
Y38680D01*
X172955Y40014D01*
X172434Y41271D01*
X171679Y42402D01*
X170717Y43364D01*
X169586Y44120D01*
X168329Y44640D01*
X166995Y44905D01*
D02*
G37*
%LPD*%
G36*
X247745Y302174D02*
X232896Y287326D01*
X232000D01*
X231493Y287225D01*
X231063Y286937D01*
X226063Y281937D01*
X225775Y281507D01*
X225675Y281000D01*
Y253549D01*
X155787Y183662D01*
X155325Y183853D01*
Y187451D01*
X222937Y255063D01*
X223225Y255493D01*
X223325Y256000D01*
Y281451D01*
X244549Y302675D01*
X247538D01*
X247745Y302174D01*
D02*
G37*
G36*
X206923Y341919D02*
Y311574D01*
X196249D01*
X195742Y311473D01*
X195312Y311186D01*
X181063Y296937D01*
X180775Y296507D01*
X180675Y296000D01*
Y295366D01*
X177555D01*
Y287657D01*
X183819D01*
Y285481D01*
X183920Y284974D01*
X184008Y284842D01*
X183741Y284343D01*
X180078D01*
X162343Y302079D01*
Y305932D01*
X162377Y306104D01*
Y309853D01*
X162739Y310216D01*
X170677D01*
X171360Y310351D01*
X171939Y310738D01*
X202652Y341451D01*
X203409Y341248D01*
X204465D01*
X205486Y341521D01*
X206400Y342050D01*
X206461Y342111D01*
X206923Y341919D01*
D02*
G37*
%LPC*%
G36*
X173366Y308445D02*
X165657D01*
Y299555D01*
X173366D01*
Y302675D01*
X180143D01*
X180726Y302093D01*
X181552Y301750D01*
X182448D01*
X183274Y302093D01*
X183907Y302726D01*
X184250Y303552D01*
Y304448D01*
X183907Y305275D01*
X183274Y305908D01*
X182448Y306250D01*
X181552D01*
X180726Y305908D01*
X180143Y305326D01*
X173366D01*
Y308445D01*
D02*
G37*
G36*
X611200Y433103D02*
X610502Y433011D01*
X609852Y432741D01*
X609293Y432313D01*
X609246Y432251D01*
X608154D01*
X608107Y432313D01*
X607548Y432741D01*
X606898Y433011D01*
X606200Y433103D01*
X605502Y433011D01*
X604852Y432741D01*
X604293Y432313D01*
X604246Y432251D01*
X603154D01*
X603107Y432313D01*
X602548Y432741D01*
X601898Y433011D01*
X601200Y433103D01*
X600502Y433011D01*
X599852Y432741D01*
X599293Y432313D01*
X599246Y432251D01*
X598154D01*
X598107Y432313D01*
X597548Y432741D01*
X596898Y433011D01*
X596200Y433103D01*
X595502Y433011D01*
X594852Y432741D01*
X594293Y432313D01*
X594246Y432251D01*
X562084D01*
X562084Y432251D01*
X561301Y432148D01*
X560571Y431846D01*
X559945Y431365D01*
X553137Y424557D01*
X551416D01*
Y422477D01*
X551265Y422112D01*
X551162Y421329D01*
Y411242D01*
X537464Y397543D01*
X536602D01*
X535446Y397234D01*
X534410Y396636D01*
X533565Y395790D01*
X532966Y394754D01*
X532657Y393598D01*
Y392402D01*
X532966Y391246D01*
X533565Y390210D01*
X534410Y389365D01*
X535446Y388766D01*
X536602Y388457D01*
X537798D01*
X538954Y388766D01*
X539990Y389365D01*
X540836Y390210D01*
X541434Y391246D01*
X541743Y392402D01*
Y393264D01*
X556328Y407849D01*
X556809Y408475D01*
X557111Y409205D01*
X557214Y409988D01*
Y420076D01*
X563338Y426199D01*
X594246D01*
X594293Y426137D01*
X594852Y425709D01*
X595502Y425440D01*
X596200Y425348D01*
X596898Y425440D01*
X597548Y425709D01*
X598107Y426137D01*
X598154Y426199D01*
X599246D01*
X599293Y426137D01*
X599852Y425709D01*
X600502Y425440D01*
X601200Y425348D01*
X601898Y425440D01*
X602548Y425709D01*
X603107Y426137D01*
X603154Y426199D01*
X604246D01*
X604293Y426137D01*
X604852Y425709D01*
X605502Y425440D01*
X606200Y425348D01*
X606898Y425440D01*
X607548Y425709D01*
X608107Y426137D01*
X608154Y426199D01*
X609246D01*
X609293Y426137D01*
X609852Y425709D01*
X610502Y425440D01*
X611200Y425348D01*
X611898Y425440D01*
X612548Y425709D01*
X613107Y426137D01*
X613535Y426696D01*
X613804Y427346D01*
X613868Y427826D01*
X614123Y428442D01*
X614226Y429225D01*
X614123Y430008D01*
X613868Y430624D01*
X613804Y431104D01*
X613535Y431754D01*
X613107Y432313D01*
X612548Y432741D01*
X611898Y433011D01*
X611200Y433103D01*
D02*
G37*
G36*
X664680Y430905D02*
X664500D01*
Y424500D01*
X670905D01*
Y424680D01*
X670640Y426014D01*
X670120Y427271D01*
X669364Y428402D01*
X668402Y429364D01*
X667271Y430120D01*
X666014Y430640D01*
X664680Y430905D01*
D02*
G37*
G36*
X663500D02*
X663320D01*
X661986Y430640D01*
X660729Y430120D01*
X659598Y429364D01*
X658636Y428402D01*
X657880Y427271D01*
X657360Y426014D01*
X657094Y424680D01*
Y424500D01*
X663500D01*
Y430905D01*
D02*
G37*
G36*
X549086Y424557D02*
X543542D01*
Y422429D01*
X538074D01*
Y423770D01*
X532531D01*
Y418030D01*
X538074D01*
Y419371D01*
X543542D01*
Y417242D01*
X549086D01*
Y424557D01*
D02*
G37*
G36*
X531972Y423770D02*
X526428D01*
Y422429D01*
X519306D01*
X518721Y422313D01*
X518558Y422204D01*
X518447Y422250D01*
X517553D01*
X516725Y421908D01*
X516092Y421275D01*
X515750Y420447D01*
Y419553D01*
X516092Y418725D01*
X516725Y418092D01*
X517553Y417750D01*
X518447D01*
X519275Y418092D01*
X519908Y418725D01*
X520175Y419371D01*
X526428D01*
Y418030D01*
X531972D01*
Y423770D01*
D02*
G37*
G36*
X670905Y423500D02*
X664500D01*
Y417095D01*
X664680D01*
X666014Y417360D01*
X667271Y417880D01*
X668402Y418636D01*
X669364Y419598D01*
X670120Y420729D01*
X670640Y421986D01*
X670905Y423320D01*
Y423500D01*
D02*
G37*
G36*
X663500D02*
X657094D01*
Y423320D01*
X657360Y421986D01*
X657880Y420729D01*
X658636Y419598D01*
X659598Y418636D01*
X660729Y417880D01*
X661986Y417360D01*
X663320Y417095D01*
X663500D01*
Y423500D01*
D02*
G37*
G36*
X50927Y429400D02*
X49273D01*
X47650Y429077D01*
X46121Y428444D01*
X44745Y427525D01*
X43575Y426355D01*
X42656Y424979D01*
X42023Y423450D01*
X41700Y421827D01*
Y420173D01*
X42023Y418550D01*
X42656Y417021D01*
X43575Y415645D01*
X44745Y414475D01*
X46121Y413556D01*
X47650Y412923D01*
X49273Y412600D01*
X50927D01*
X52550Y412923D01*
X54079Y413556D01*
X55455Y414475D01*
X56625Y415645D01*
X57544Y417021D01*
X58177Y418550D01*
X58500Y420173D01*
Y421827D01*
X58177Y423450D01*
X57544Y424979D01*
X56625Y426355D01*
X55455Y427525D01*
X54079Y428444D01*
X52550Y429077D01*
X50927Y429400D01*
D02*
G37*
G36*
X611200Y411252D02*
X610502Y411160D01*
X609852Y410891D01*
X609293Y410463D01*
X609002Y410083D01*
X608909Y410047D01*
X608491D01*
X608398Y410083D01*
X608107Y410463D01*
X607548Y410891D01*
X606898Y411160D01*
X606700Y411186D01*
Y407375D01*
Y403563D01*
X606898Y403589D01*
X607548Y403859D01*
X608107Y404287D01*
X608398Y404667D01*
X608491Y404702D01*
X608909D01*
X609002Y404667D01*
X609293Y404287D01*
X609852Y403859D01*
X609874Y403849D01*
Y390445D01*
X608634D01*
Y381555D01*
X611163D01*
Y370845D01*
X611264Y370338D01*
X611551Y369908D01*
X613559Y367899D01*
Y363837D01*
X617921D01*
Y364475D01*
X627214D01*
X627273Y364256D01*
X627799Y363344D01*
X628544Y362599D01*
X629456Y362073D01*
X630473Y361800D01*
X631527D01*
X632544Y362073D01*
X633456Y362599D01*
X634201Y363344D01*
X634727Y364256D01*
X635000Y365273D01*
Y366327D01*
X634727Y367344D01*
X634201Y368256D01*
X633456Y369001D01*
X632544Y369527D01*
X631527Y369800D01*
X630473D01*
X629456Y369527D01*
X628544Y369001D01*
X627799Y368256D01*
X627273Y367344D01*
X627214Y367126D01*
X617921D01*
Y369774D01*
X615434D01*
X613814Y371394D01*
Y381555D01*
X616342D01*
Y390445D01*
X612526D01*
Y403849D01*
X612548Y403859D01*
X613107Y404287D01*
X613535Y404846D01*
X613804Y405496D01*
X613896Y406194D01*
Y408556D01*
X613804Y409254D01*
X613535Y409904D01*
X613107Y410463D01*
X612548Y410891D01*
X611898Y411160D01*
X611200Y411252D01*
D02*
G37*
G36*
X601700Y411186D02*
Y407375D01*
Y403563D01*
X601898Y403589D01*
X602548Y403859D01*
X603107Y404287D01*
X603154Y404349D01*
X604246D01*
X604293Y404287D01*
X604852Y403859D01*
X605502Y403589D01*
X605700Y403563D01*
Y407375D01*
Y411186D01*
X605502Y411160D01*
X604852Y410891D01*
X604293Y410463D01*
X604246Y410401D01*
X603154D01*
X603107Y410463D01*
X602548Y410891D01*
X601898Y411160D01*
X601700Y411186D01*
D02*
G37*
G36*
X596700D02*
Y407375D01*
Y403563D01*
X596898Y403589D01*
X597548Y403859D01*
X598107Y404287D01*
X598154Y404349D01*
X599246D01*
X599293Y404287D01*
X599852Y403859D01*
X600502Y403589D01*
X600700Y403563D01*
Y407375D01*
Y411186D01*
X600502Y411160D01*
X599852Y410891D01*
X599293Y410463D01*
X599246Y410401D01*
X598154D01*
X598107Y410463D01*
X597548Y410891D01*
X596898Y411160D01*
X596700Y411186D01*
D02*
G37*
G36*
X595700D02*
X595502Y411160D01*
X594852Y410891D01*
X594293Y410463D01*
X593865Y409904D01*
X593596Y409254D01*
X593532Y408774D01*
X593277Y408158D01*
X593174Y407375D01*
X593277Y406592D01*
X593532Y405975D01*
X593596Y405496D01*
X593865Y404846D01*
X594293Y404287D01*
X594852Y403859D01*
X595502Y403589D01*
X595700Y403563D01*
Y407375D01*
Y411186D01*
D02*
G37*
G36*
X664680Y414906D02*
X663320D01*
X661986Y414640D01*
X660729Y414120D01*
X659598Y413364D01*
X658636Y412402D01*
X657880Y411271D01*
X657360Y410014D01*
X657094Y408680D01*
Y407320D01*
X657360Y405986D01*
X657880Y404729D01*
X658636Y403598D01*
X659598Y402636D01*
X660729Y401880D01*
X661986Y401360D01*
X663320Y401094D01*
X664680D01*
X666014Y401360D01*
X667271Y401880D01*
X668402Y402636D01*
X669364Y403598D01*
X670120Y404729D01*
X670640Y405986D01*
X670905Y407320D01*
Y408680D01*
X670640Y410014D01*
X670120Y411271D01*
X669364Y412402D01*
X668402Y413364D01*
X667271Y414120D01*
X666014Y414640D01*
X664680Y414906D01*
D02*
G37*
G36*
X56592Y408500D02*
X55408D01*
X54263Y408193D01*
X53237Y407601D01*
X52399Y406763D01*
X51807Y405737D01*
X51500Y404592D01*
Y403408D01*
X51807Y402263D01*
X52399Y401237D01*
X53237Y400399D01*
X54263Y399807D01*
X55408Y399500D01*
X56592D01*
X57737Y399807D01*
X58763Y400399D01*
X59601Y401237D01*
X60193Y402263D01*
X60500Y403408D01*
Y404592D01*
X60193Y405737D01*
X59601Y406763D01*
X58763Y407601D01*
X57737Y408193D01*
X56592Y408500D01*
D02*
G37*
G36*
X44792D02*
X43608D01*
X42463Y408193D01*
X41437Y407601D01*
X40599Y406763D01*
X40007Y405737D01*
X39700Y404592D01*
Y403408D01*
X40007Y402263D01*
X40599Y401237D01*
X41437Y400399D01*
X42463Y399807D01*
X43608Y399500D01*
X44792D01*
X45937Y399807D01*
X46963Y400399D01*
X47801Y401237D01*
X48393Y402263D01*
X48700Y403408D01*
Y404592D01*
X48393Y405737D01*
X47801Y406763D01*
X46963Y407601D01*
X45937Y408193D01*
X44792Y408500D01*
D02*
G37*
G36*
X56592Y396700D02*
X55408D01*
X54263Y396393D01*
X53237Y395801D01*
X52399Y394963D01*
X51807Y393937D01*
X51500Y392792D01*
Y391608D01*
X51793Y390516D01*
X50100Y388823D01*
X48408Y390516D01*
X48700Y391608D01*
Y392792D01*
X48393Y393937D01*
X47801Y394963D01*
X46963Y395801D01*
X45937Y396393D01*
X44792Y396700D01*
X43608D01*
X42463Y396393D01*
X41437Y395801D01*
X40599Y394963D01*
X40007Y393937D01*
X39700Y392792D01*
Y391608D01*
X40007Y390463D01*
X40599Y389437D01*
X41437Y388599D01*
X42463Y388007D01*
X43608Y387700D01*
X44792D01*
X45884Y387993D01*
X47066Y386811D01*
Y376829D01*
X46669Y376524D01*
X46598Y376543D01*
X45402D01*
X44246Y376234D01*
X43210Y375636D01*
X42364Y374790D01*
X41766Y373754D01*
X41457Y372598D01*
Y371402D01*
X41766Y370246D01*
X42364Y369210D01*
X43210Y368365D01*
X44246Y367766D01*
X45402Y367457D01*
X46598D01*
X47549Y367711D01*
X47966Y367364D01*
Y357960D01*
X44675Y354669D01*
X44289Y354090D01*
X44203Y353658D01*
X43165D01*
Y346342D01*
X44203D01*
X44289Y345910D01*
X44675Y345331D01*
X47997Y342009D01*
Y320965D01*
X48133Y320282D01*
X48520Y319703D01*
X52734Y315488D01*
X52734Y315488D01*
X53313Y315102D01*
X53996Y314966D01*
X53996Y314966D01*
X70511D01*
X70807Y314669D01*
X70807Y314669D01*
X71386Y314283D01*
X71890Y314182D01*
Y313319D01*
X79795D01*
Y317681D01*
X75584D01*
X75411Y317715D01*
X73394D01*
X73230Y318000D01*
X73394Y318285D01*
X75411D01*
X75584Y318319D01*
X79795D01*
Y322681D01*
X71890D01*
Y321818D01*
X71386Y321717D01*
X70807Y321331D01*
X70807Y321330D01*
X70511Y321034D01*
X55771D01*
X54066Y322739D01*
Y342009D01*
X57388Y345331D01*
X57388Y345331D01*
X57774Y345910D01*
X57860Y346342D01*
X58898D01*
Y353658D01*
X57860D01*
X57774Y354090D01*
X57388Y354669D01*
X57388Y354669D01*
X54034Y358022D01*
Y367364D01*
X54451Y367711D01*
X55402Y367457D01*
X56598D01*
X57754Y367766D01*
X58790Y368365D01*
X59636Y369210D01*
X60234Y370246D01*
X60543Y371402D01*
Y372598D01*
X60234Y373754D01*
X59636Y374790D01*
X58790Y375636D01*
X57754Y376234D01*
X56598Y376543D01*
X55402D01*
X54246Y376234D01*
X53862Y376012D01*
X53134Y376739D01*
Y386811D01*
X54316Y387993D01*
X55408Y387700D01*
X56592D01*
X57737Y388007D01*
X58763Y388599D01*
X59601Y389437D01*
X60193Y390463D01*
X60500Y391608D01*
Y392792D01*
X60193Y393937D01*
X59601Y394963D01*
X58763Y395801D01*
X57737Y396393D01*
X56592Y396700D01*
D02*
G37*
G36*
X579227Y391800D02*
X579200D01*
Y388300D01*
X582700D01*
Y388327D01*
X582427Y389344D01*
X581901Y390256D01*
X581156Y391001D01*
X580244Y391527D01*
X579227Y391800D01*
D02*
G37*
G36*
X578200D02*
X578173D01*
X577156Y391527D01*
X576244Y391001D01*
X575499Y390256D01*
X574973Y389344D01*
X574700Y388327D01*
Y388300D01*
X578200D01*
Y391800D01*
D02*
G37*
G36*
X582700Y387300D02*
X579200D01*
Y383800D01*
X579227D01*
X580244Y384073D01*
X581156Y384599D01*
X581901Y385344D01*
X582427Y386256D01*
X582700Y387273D01*
Y387300D01*
D02*
G37*
G36*
X578200D02*
X574700D01*
Y387273D01*
X574973Y386256D01*
X575499Y385344D01*
X576244Y384599D01*
X577156Y384073D01*
X578173Y383800D01*
X578200D01*
Y387300D01*
D02*
G37*
G36*
X627366Y390445D02*
X619658D01*
Y381555D01*
X627366D01*
Y384471D01*
X634347D01*
X634726Y384092D01*
X635553Y383750D01*
X636447D01*
X637275Y384092D01*
X637908Y384725D01*
X638250Y385552D01*
Y386448D01*
X637908Y387275D01*
X637275Y387908D01*
X636447Y388250D01*
X635553D01*
X634726Y387908D01*
X634347Y387529D01*
X627366D01*
Y390445D01*
D02*
G37*
G36*
X527798Y397543D02*
X526602D01*
X525446Y397234D01*
X524410Y396636D01*
X523564Y395790D01*
X522966Y394754D01*
X522657Y393598D01*
Y392736D01*
X508494Y378573D01*
X506067D01*
X506000Y378564D01*
X505933Y378573D01*
X494401D01*
Y380438D01*
X486401D01*
Y372438D01*
X494401D01*
Y372521D01*
X502244D01*
Y372413D01*
X509756D01*
Y372522D01*
X510530Y372624D01*
X511260Y372927D01*
X511887Y373408D01*
X526936Y388457D01*
X527798D01*
X528954Y388766D01*
X529990Y389365D01*
X530835Y390210D01*
X531434Y391246D01*
X531743Y392402D01*
Y393598D01*
X531434Y394754D01*
X530835Y395790D01*
X529990Y396636D01*
X528954Y397234D01*
X527798Y397543D01*
D02*
G37*
G36*
X72000Y443784D02*
X28879D01*
X28196Y443648D01*
X27617Y443262D01*
X12738Y428383D01*
X12352Y427804D01*
X12216Y427121D01*
Y374949D01*
X12352Y374266D01*
X12738Y373687D01*
X35291Y351134D01*
Y346342D01*
X40835D01*
Y353658D01*
X37815D01*
X15784Y375688D01*
Y426382D01*
X29618Y440216D01*
X71261D01*
X90216Y421261D01*
Y384216D01*
X89210Y383635D01*
X88364Y382790D01*
X87766Y381754D01*
X87457Y380598D01*
Y379402D01*
X87766Y378246D01*
X88364Y377210D01*
X89210Y376364D01*
X90246Y375766D01*
X91402Y375457D01*
X92598D01*
X93754Y375766D01*
X94790Y376364D01*
X95635Y377210D01*
X96234Y378246D01*
X96543Y379402D01*
Y380598D01*
X96234Y381754D01*
X95635Y382790D01*
X94790Y383635D01*
X93784Y384216D01*
Y422000D01*
X93648Y422683D01*
X93262Y423262D01*
X73262Y443262D01*
X72683Y443648D01*
X72000Y443784D01*
D02*
G37*
G36*
X92598Y374543D02*
X91402D01*
X90246Y374234D01*
X89210Y373636D01*
X88364Y372790D01*
X87784Y371784D01*
X84000D01*
X84000Y371784D01*
X83317Y371649D01*
X82738Y371262D01*
X82738Y371262D01*
X65168Y353692D01*
X65022D01*
X65022Y353692D01*
X64849Y353658D01*
X61228D01*
Y346342D01*
X66772D01*
Y350380D01*
X67169Y350646D01*
X84739Y368216D01*
X87784D01*
X88364Y367210D01*
X89210Y366365D01*
X90246Y365766D01*
X91402Y365457D01*
X92598D01*
X93754Y365766D01*
X94790Y366365D01*
X95635Y367210D01*
X96234Y368246D01*
X96543Y369402D01*
Y370598D01*
X96234Y371754D01*
X95635Y372790D01*
X94790Y373636D01*
X93754Y374234D01*
X92598Y374543D01*
D02*
G37*
G36*
X601456Y372407D02*
X593944D01*
Y370869D01*
X593340D01*
X592755Y370753D01*
X592259Y370422D01*
X590167Y368329D01*
X588594D01*
X588534Y368554D01*
X587935Y369590D01*
X587090Y370436D01*
X586054Y371034D01*
X584898Y371343D01*
X583702D01*
X582546Y371034D01*
X581510Y370436D01*
X580664Y369590D01*
X580066Y368554D01*
X579757Y367398D01*
Y366202D01*
X580066Y365046D01*
X580664Y364010D01*
X581510Y363164D01*
X582546Y362566D01*
X583702Y362257D01*
X584898D01*
X586054Y362566D01*
X587090Y363164D01*
X587935Y364010D01*
X588534Y365046D01*
X588594Y365271D01*
X590800D01*
X591385Y365387D01*
X591881Y365719D01*
X593482Y367319D01*
X593944Y367128D01*
Y366273D01*
X601456D01*
Y367811D01*
X605879D01*
X606079Y367611D01*
Y363837D01*
X610441D01*
Y369774D01*
X608242D01*
X607594Y370422D01*
X607098Y370753D01*
X606513Y370869D01*
X601456D01*
Y372407D01*
D02*
G37*
G36*
X484401Y380438D02*
X476401D01*
Y372438D01*
X478471D01*
Y365653D01*
X478092Y365275D01*
X477750Y364448D01*
Y363552D01*
X478092Y362725D01*
X478725Y362092D01*
X479553Y361750D01*
X480447D01*
X481275Y362092D01*
X481908Y362725D01*
X482250Y363552D01*
Y364448D01*
X481908Y365275D01*
X481529Y365653D01*
Y372438D01*
X484401D01*
Y380438D01*
D02*
G37*
G36*
X584898Y361343D02*
X584800D01*
Y357300D01*
X588843D01*
Y357398D01*
X588534Y358554D01*
X587935Y359590D01*
X587090Y360436D01*
X586054Y361034D01*
X584898Y361343D01*
D02*
G37*
G36*
X583800D02*
X583702D01*
X582546Y361034D01*
X581510Y360436D01*
X580664Y359590D01*
X580066Y358554D01*
X579757Y357398D01*
Y357300D01*
X583800D01*
Y361343D01*
D02*
G37*
G36*
X509756Y371067D02*
X502244D01*
Y364933D01*
X504471D01*
Y359653D01*
X504093Y359275D01*
X503750Y358448D01*
Y357552D01*
X504093Y356726D01*
X504726Y356093D01*
X505552Y355750D01*
X506448D01*
X507274Y356093D01*
X507907Y356726D01*
X508250Y357552D01*
Y358448D01*
X507907Y359275D01*
X507529Y359653D01*
Y364933D01*
X509756D01*
Y371067D01*
D02*
G37*
G36*
X588843Y356300D02*
X584800D01*
Y352257D01*
X584898D01*
X586054Y352566D01*
X587090Y353165D01*
X587935Y354010D01*
X588534Y355046D01*
X588843Y356202D01*
Y356300D01*
D02*
G37*
G36*
X583800D02*
X579757D01*
Y356202D01*
X580066Y355046D01*
X580664Y354010D01*
X581510Y353165D01*
X582546Y352566D01*
X583702Y352257D01*
X583800D01*
Y356300D01*
D02*
G37*
G36*
X617921Y357963D02*
X606079D01*
Y354189D01*
X571367Y319477D01*
X569947D01*
X569362Y319360D01*
X568866Y319029D01*
X557557Y307720D01*
X557544Y307727D01*
X556527Y308000D01*
X555473D01*
X554456Y307727D01*
X553544Y307201D01*
X552799Y306456D01*
X552273Y305544D01*
X552000Y304527D01*
Y303473D01*
X552273Y302456D01*
X552799Y301544D01*
X553544Y300799D01*
X554456Y300273D01*
X554471Y300269D01*
Y298000D01*
X554587Y297415D01*
X554919Y296919D01*
X562471Y289367D01*
Y274709D01*
X560343D01*
Y273529D01*
X547299D01*
Y275854D01*
X540575D01*
Y268146D01*
X547299D01*
Y270471D01*
X560343D01*
Y269165D01*
X567658D01*
Y274709D01*
X565529D01*
Y290000D01*
X565413Y290585D01*
X565081Y291081D01*
X557529Y298634D01*
Y299601D01*
X558029Y299808D01*
X566919Y290919D01*
X567415Y290587D01*
X568000Y290471D01*
X574471D01*
Y208633D01*
X564335Y198498D01*
X554354D01*
X554207Y198468D01*
X547555D01*
Y197655D01*
X541299D01*
Y199980D01*
X534575D01*
Y192272D01*
X541299D01*
Y194597D01*
X547555D01*
Y190760D01*
X556445D01*
Y195439D01*
X564968D01*
X565554Y195555D01*
X566050Y195887D01*
X577081Y206919D01*
X577413Y207415D01*
X577529Y208000D01*
Y290471D01*
X578000D01*
X578585Y290587D01*
X579081Y290919D01*
X599913Y311750D01*
X600448D01*
X601274Y312092D01*
X601907Y312725D01*
X602250Y313552D01*
Y314448D01*
X601907Y315275D01*
X601274Y315908D01*
X600448Y316250D01*
X599552D01*
X598726Y315908D01*
X598093Y315275D01*
X597750Y314448D01*
Y313913D01*
X577366Y293529D01*
X568634D01*
X559720Y302443D01*
X559727Y302456D01*
X560000Y303473D01*
Y304527D01*
X559727Y305544D01*
X559720Y305557D01*
X570581Y316418D01*
X572000D01*
X572585Y316534D01*
X573081Y316866D01*
X608242Y352026D01*
X610471D01*
Y321221D01*
X609971Y321122D01*
X609907Y321274D01*
X609274Y321907D01*
X608448Y322250D01*
X607552D01*
X606726Y321907D01*
X606093Y321274D01*
X605750Y320448D01*
Y319552D01*
X606093Y318725D01*
X606674Y318144D01*
Y309857D01*
X606093Y309275D01*
X605750Y308448D01*
Y307552D01*
X606093Y306726D01*
X606726Y306093D01*
X607552Y305750D01*
X608448D01*
X609274Y306093D01*
X609907Y306726D01*
X609971Y306878D01*
X610471Y306779D01*
Y301731D01*
X610456Y301727D01*
X609544Y301201D01*
X608799Y300456D01*
X608273Y299544D01*
X608000Y298527D01*
Y297473D01*
X608273Y296456D01*
X608280Y296443D01*
X607367Y295529D01*
X606000D01*
X605415Y295413D01*
X604918Y295081D01*
X586918Y277081D01*
X586587Y276585D01*
X586471Y276000D01*
X586471Y131529D01*
X537315D01*
X531854Y136990D01*
Y141551D01*
X524146D01*
Y134827D01*
X529691D01*
X535600Y128919D01*
X536096Y128587D01*
X536681Y128471D01*
X586471D01*
Y106570D01*
X559076Y79176D01*
X558764Y78709D01*
X554343D01*
Y75529D01*
X545299D01*
Y77854D01*
X538575D01*
Y70146D01*
X545299D01*
Y72471D01*
X555177D01*
X555762Y72587D01*
X556259Y72919D01*
X556505Y73165D01*
X561657D01*
Y77061D01*
X561687Y77209D01*
Y77461D01*
X589081Y104856D01*
X589413Y105352D01*
X589529Y105937D01*
Y130000D01*
X589529Y275366D01*
X606634Y292471D01*
X608000D01*
X608585Y292587D01*
X609081Y292919D01*
X609971Y293808D01*
X610471Y293601D01*
Y266000D01*
X610587Y265415D01*
X610919Y264919D01*
X688471Y187366D01*
Y97529D01*
X670000D01*
X669415Y97413D01*
X668919Y97081D01*
X649955Y78118D01*
X649754Y78234D01*
X648598Y78543D01*
X648182D01*
X647991Y79005D01*
X673328Y104342D01*
X676709D01*
Y111658D01*
X671165D01*
Y106505D01*
X669335Y104675D01*
X668835Y104882D01*
Y111658D01*
X665454D01*
X661474Y115637D01*
Y118567D01*
X662323D01*
Y124504D01*
X657567D01*
Y118567D01*
X658416D01*
Y115004D01*
X658532Y114419D01*
X658863Y113923D01*
X663291Y109495D01*
Y104342D01*
X668295D01*
X668503Y103842D01*
X641543Y76883D01*
X640790Y77636D01*
X639754Y78234D01*
X638598Y78543D01*
X637402D01*
X636246Y78234D01*
X635210Y77636D01*
X634365Y76790D01*
X633766Y75754D01*
X633457Y74598D01*
Y73402D01*
X633766Y72246D01*
X634365Y71210D01*
X635210Y70364D01*
X636246Y69766D01*
X636471Y69706D01*
Y43244D01*
X635944Y42717D01*
X634995Y42906D01*
X633635D01*
X632301Y42640D01*
X631044Y42120D01*
X629913Y41364D01*
X628951Y40402D01*
X628195Y39271D01*
X627675Y38014D01*
X627410Y36680D01*
Y35320D01*
X627675Y33986D01*
X628195Y32729D01*
X628470Y32318D01*
X611682Y15529D01*
X432633D01*
X399529Y48634D01*
Y72534D01*
X430279D01*
Y71291D01*
X437595D01*
Y76835D01*
X430279D01*
Y75592D01*
X399529D01*
Y106000D01*
X399413Y106585D01*
X399081Y107081D01*
X396250Y109913D01*
Y110448D01*
X395907Y111275D01*
X395274Y111907D01*
X394448Y112250D01*
X393552D01*
X392725Y111907D01*
X392092Y111275D01*
X391750Y110448D01*
Y109552D01*
X392092Y108726D01*
X392725Y108092D01*
X393552Y107750D01*
X394087D01*
X396471Y105367D01*
Y74000D01*
Y48000D01*
X396587Y47415D01*
X396919Y46919D01*
X430919Y12919D01*
X431415Y12587D01*
X432000Y12471D01*
X612315D01*
X612900Y12587D01*
X613396Y12919D01*
X630633Y30155D01*
X631044Y29880D01*
X632301Y29360D01*
X633635Y29094D01*
X634995D01*
X636329Y29360D01*
X637586Y29880D01*
X638717Y30636D01*
X639679Y31598D01*
X640435Y32729D01*
X640955Y33986D01*
X641221Y35320D01*
Y36680D01*
X640955Y38014D01*
X640435Y39271D01*
X639679Y40402D01*
X638817Y41264D01*
X639081Y41529D01*
X639413Y42025D01*
X639529Y42610D01*
Y69706D01*
X639754Y69766D01*
X640790Y70364D01*
X641636Y71210D01*
X642234Y72246D01*
X642543Y73402D01*
Y73746D01*
X642573Y73752D01*
X642957Y74008D01*
X643457Y73832D01*
Y73402D01*
X643766Y72246D01*
X644365Y71210D01*
X645210Y70364D01*
X646246Y69766D01*
X646471Y69706D01*
Y42000D01*
X646587Y41415D01*
X646919Y40919D01*
X648155Y39682D01*
X647880Y39271D01*
X647360Y38014D01*
X647094Y36680D01*
Y35320D01*
X647360Y33986D01*
X647880Y32729D01*
X648636Y31598D01*
X649598Y30636D01*
X650729Y29880D01*
X651986Y29360D01*
X653320Y29094D01*
X654680D01*
X656014Y29360D01*
X657271Y29880D01*
X658402Y30636D01*
X659364Y31598D01*
X660120Y32729D01*
X660640Y33986D01*
X660906Y35320D01*
Y36680D01*
X660640Y38014D01*
X660120Y39271D01*
X659364Y40402D01*
X658402Y41364D01*
X657271Y42120D01*
X656014Y42640D01*
X654680Y42906D01*
X653320D01*
X651986Y42640D01*
X650729Y42120D01*
X650318Y41845D01*
X649529Y42634D01*
Y69706D01*
X649754Y69766D01*
X650790Y70364D01*
X651636Y71210D01*
X652234Y72246D01*
X652543Y73402D01*
Y74598D01*
X652234Y75754D01*
X652118Y75955D01*
X670634Y94471D01*
X690000D01*
X690585Y94587D01*
X691081Y94919D01*
X691413Y95415D01*
X691529Y96000D01*
Y188000D01*
X691413Y188585D01*
X691081Y189081D01*
X613529Y266634D01*
Y294269D01*
X613544Y294273D01*
X614456Y294799D01*
X615201Y295544D01*
X615727Y296456D01*
X616000Y297473D01*
Y298527D01*
X615727Y299544D01*
X615201Y300456D01*
X614456Y301201D01*
X613544Y301727D01*
X613529Y301731D01*
Y306779D01*
X614029Y306878D01*
X614092Y306726D01*
X614725Y306093D01*
X615553Y305750D01*
X616447D01*
X617275Y306093D01*
X617907Y306726D01*
X618250Y307552D01*
Y308448D01*
X617907Y309275D01*
X617325Y309857D01*
Y318144D01*
X617907Y318725D01*
X618250Y319552D01*
Y320448D01*
X617907Y321274D01*
X617275Y321907D01*
X616447Y322250D01*
X615553D01*
X614725Y321907D01*
X614092Y321274D01*
X614029Y321122D01*
X613529Y321221D01*
Y352026D01*
X617921D01*
Y353465D01*
X623786D01*
X624092Y352726D01*
X624725Y352093D01*
X625553Y351750D01*
X626447D01*
X627275Y352093D01*
X627908Y352726D01*
X628250Y353552D01*
Y354448D01*
X627908Y355275D01*
X627275Y355908D01*
X626447Y356250D01*
X625553D01*
X625471Y356216D01*
X625185Y356407D01*
X624600Y356524D01*
X617921D01*
Y357963D01*
D02*
G37*
G36*
X601456Y364927D02*
X593944D01*
Y358793D01*
X596471D01*
Y355653D01*
X596093Y355275D01*
X595750Y354448D01*
Y353552D01*
X596093Y352726D01*
X596726Y352093D01*
X597552Y351750D01*
X598448D01*
X599274Y352093D01*
X599907Y352726D01*
X600250Y353552D01*
Y354448D01*
X599907Y355275D01*
X599529Y355653D01*
Y358793D01*
X601456D01*
Y364927D01*
D02*
G37*
G36*
X584898Y351343D02*
X583702D01*
X582546Y351034D01*
X581510Y350435D01*
X580664Y349590D01*
X580066Y348554D01*
X579757Y347398D01*
Y346202D01*
X580066Y345046D01*
X580664Y344010D01*
X581510Y343164D01*
X582546Y342566D01*
X583702Y342257D01*
X584898D01*
X586054Y342566D01*
X587090Y343164D01*
X587935Y344010D01*
X588534Y345046D01*
X588843Y346202D01*
Y347398D01*
X588534Y348554D01*
X587935Y349590D01*
X587090Y350435D01*
X586054Y351034D01*
X584898Y351343D01*
D02*
G37*
G36*
X78448Y346250D02*
X77552D01*
X76726Y345907D01*
X76092Y345274D01*
X75750Y344448D01*
Y343913D01*
X74761Y342924D01*
X74430Y342428D01*
X74313Y341843D01*
Y337681D01*
X71890D01*
Y333319D01*
X79795D01*
Y337681D01*
X77372D01*
Y341209D01*
X77913Y341750D01*
X78448D01*
X79274Y342092D01*
X79908Y342725D01*
X80250Y343552D01*
Y344448D01*
X79908Y345274D01*
X79274Y345907D01*
X78448Y346250D01*
D02*
G37*
G36*
X64448Y334250D02*
X63552D01*
X62726Y333908D01*
X62093Y333275D01*
X61750Y332448D01*
Y331552D01*
X62093Y330726D01*
X62726Y330093D01*
X63552Y329750D01*
X64087D01*
X64419Y329419D01*
X64915Y329087D01*
X65500Y328971D01*
X71890D01*
Y328319D01*
X79795D01*
Y332681D01*
X71890D01*
Y332029D01*
X66250D01*
Y332448D01*
X65908Y333275D01*
X65275Y333908D01*
X64448Y334250D01*
D02*
G37*
G36*
X79795Y327681D02*
X71890D01*
Y323319D01*
X79795D01*
Y327681D01*
D02*
G37*
G36*
X43657Y322709D02*
X40500D01*
Y320437D01*
X43657D01*
Y322709D01*
D02*
G37*
G36*
X39500D02*
X36342D01*
Y320437D01*
X39500D01*
Y322709D01*
D02*
G37*
G36*
X43657Y319437D02*
X40500D01*
Y317165D01*
X43657D01*
Y319437D01*
D02*
G37*
G36*
X39500D02*
X36342D01*
Y317165D01*
X39500D01*
Y319437D01*
D02*
G37*
G36*
X67756Y310807D02*
X60244D01*
Y309529D01*
X55653D01*
X55274Y309908D01*
X54448Y310250D01*
X53552D01*
X52725Y309908D01*
X52092Y309275D01*
X51750Y308448D01*
Y307552D01*
X52092Y306726D01*
X52725Y306093D01*
X53552Y305750D01*
X54448D01*
X55274Y306093D01*
X55653Y306471D01*
X60244D01*
Y304673D01*
X65593D01*
X65848Y304419D01*
X66344Y304087D01*
X66929Y303971D01*
X71890D01*
Y303319D01*
X79795D01*
Y307681D01*
X71890D01*
Y307029D01*
X67756D01*
Y310807D01*
D02*
G37*
G36*
X79795Y312681D02*
X71890D01*
Y308319D01*
X79795D01*
Y312681D01*
D02*
G37*
G36*
X67756Y303327D02*
X60244D01*
Y297193D01*
X62471D01*
Y296000D01*
X62587Y295415D01*
X62919Y294919D01*
X77882Y279955D01*
X77766Y279754D01*
X77457Y278598D01*
Y277402D01*
X77766Y276246D01*
X78364Y275210D01*
X79210Y274364D01*
X80246Y273766D01*
X81402Y273457D01*
X82598D01*
X83754Y273766D01*
X84790Y274364D01*
X85636Y275210D01*
X86234Y276246D01*
X86543Y277402D01*
Y278598D01*
X86234Y279754D01*
X85636Y280790D01*
X84790Y281635D01*
X83754Y282234D01*
X82598Y282543D01*
X81402D01*
X80246Y282234D01*
X80045Y282118D01*
X65529Y296634D01*
Y297193D01*
X67756D01*
Y298971D01*
X71890D01*
Y298319D01*
X79795D01*
Y302681D01*
X71890D01*
Y302029D01*
X67756D01*
Y303327D01*
D02*
G37*
G36*
X424835Y295657D02*
X419291D01*
Y295529D01*
X402000D01*
X401415Y295413D01*
X400919Y295081D01*
X385367Y279529D01*
X356000D01*
X355415Y279413D01*
X354919Y279081D01*
X353366Y277529D01*
X324294D01*
X324234Y277754D01*
X323636Y278790D01*
X322790Y279636D01*
X321754Y280234D01*
X320598Y280543D01*
X319402D01*
X318246Y280234D01*
X317210Y279636D01*
X316365Y278790D01*
X315766Y277754D01*
X315457Y276598D01*
Y275402D01*
X315766Y274246D01*
X316365Y273210D01*
X317210Y272364D01*
X318246Y271766D01*
X319402Y271457D01*
X320598D01*
X321754Y271766D01*
X322790Y272364D01*
X323636Y273210D01*
X324234Y274246D01*
X324294Y274471D01*
X353366D01*
X374471Y253366D01*
Y239222D01*
X373971Y239122D01*
X373907Y239275D01*
X373274Y239908D01*
X372448Y240250D01*
X371552D01*
X370725Y239908D01*
X370093Y239275D01*
X369750Y238448D01*
Y238319D01*
X369498Y238066D01*
X366870D01*
Y239309D01*
X361130D01*
Y233765D01*
X366870D01*
Y235008D01*
X370131D01*
X370716Y235124D01*
X371213Y235456D01*
X371520Y235763D01*
X371552Y235750D01*
X372448D01*
X373274Y236092D01*
X373907Y236725D01*
X373971Y236878D01*
X374471Y236778D01*
Y201170D01*
X371557Y198257D01*
X371544Y198264D01*
X370527Y198537D01*
X369473D01*
X368456Y198264D01*
X367544Y197738D01*
X366799Y196993D01*
X366273Y196081D01*
X366269Y196066D01*
X361444D01*
X361253Y196528D01*
X365081Y200357D01*
X365413Y200853D01*
X365529Y201439D01*
Y209828D01*
X367657D01*
Y215372D01*
X360343D01*
Y209828D01*
X362471D01*
Y202072D01*
X357617Y197218D01*
X355279D01*
X355221Y197218D01*
X354780D01*
X354720Y197218D01*
X354029D01*
Y197866D01*
X355081Y198919D01*
X355413Y199415D01*
X355529Y200000D01*
Y216000D01*
X355413Y216585D01*
X355081Y217081D01*
X338481Y233681D01*
X337985Y234013D01*
X337400Y234129D01*
X283658D01*
Y235372D01*
X276343D01*
Y229828D01*
X278471D01*
Y227246D01*
X276343D01*
Y221702D01*
X283658D01*
Y227246D01*
X281529D01*
Y229828D01*
X283658D01*
Y231071D01*
X336767D01*
X352471Y215367D01*
Y207239D01*
X351971Y207173D01*
X351727Y208081D01*
X351201Y208993D01*
X350456Y209738D01*
X349544Y210264D01*
X348527Y210537D01*
X347473D01*
X346456Y210264D01*
X346443Y210257D01*
X342011Y214689D01*
X341514Y215021D01*
X340929Y215137D01*
X326842D01*
Y224450D01*
X305157D01*
Y204928D01*
X298430Y198201D01*
X298099Y197705D01*
X297982Y197120D01*
Y196982D01*
X295657D01*
Y188092D01*
X303366D01*
Y196982D01*
X302190D01*
X301999Y197444D01*
X307320Y202765D01*
X326842D01*
Y212078D01*
X340296D01*
X344280Y208094D01*
X344273Y208081D01*
X344000Y207064D01*
Y206010D01*
X344273Y204993D01*
X344799Y204081D01*
X345544Y203336D01*
X346221Y202945D01*
Y197218D01*
X345280D01*
X345220Y197218D01*
X344779D01*
X344721Y197218D01*
X340220D01*
Y195529D01*
X333653D01*
X333275Y195907D01*
X332448Y196250D01*
X331552D01*
X330726Y195907D01*
X330093Y195274D01*
X329750Y194448D01*
Y193552D01*
X330093Y192726D01*
X330726Y192093D01*
X331552Y191750D01*
X332448D01*
X333275Y192093D01*
X333653Y192471D01*
X340220D01*
Y189116D01*
X344721D01*
X344779Y189116D01*
X345220D01*
X345280Y189116D01*
X349721D01*
X349780Y189116D01*
X350220D01*
X350279Y189116D01*
X354720D01*
X354780Y189116D01*
X355221D01*
X355279Y189116D01*
X359780D01*
Y193008D01*
X366269D01*
X366273Y192993D01*
X366799Y192081D01*
X367544Y191336D01*
X368456Y190810D01*
X369473Y190537D01*
X370527D01*
X371544Y190810D01*
X372456Y191336D01*
X373201Y192081D01*
X373727Y192993D01*
X373731Y193008D01*
X416471D01*
Y174000D01*
X416587Y173415D01*
X416919Y172919D01*
X422793Y167044D01*
X423289Y166713D01*
X423874Y166597D01*
X434701D01*
Y164272D01*
X441425D01*
Y171980D01*
X434701D01*
Y169655D01*
X424508D01*
X419529Y174634D01*
Y194000D01*
X419413Y194585D01*
X419081Y195081D01*
X418544Y195618D01*
X418048Y195950D01*
X417463Y196066D01*
X401956D01*
X401748Y196566D01*
X401907Y196725D01*
X402250Y197552D01*
Y198448D01*
X401907Y199275D01*
X401274Y199908D01*
X401122Y199971D01*
X401222Y200471D01*
X415367D01*
X420471Y195367D01*
Y190000D01*
X420587Y189415D01*
X420919Y188919D01*
X430793Y179044D01*
X431289Y178713D01*
X431874Y178597D01*
X434701D01*
Y176272D01*
X441425D01*
Y183980D01*
X434701D01*
Y181655D01*
X432508D01*
X423529Y190633D01*
Y194779D01*
X424029Y194878D01*
X424092Y194726D01*
X424725Y194093D01*
X425553Y193750D01*
X426447D01*
X427275Y194093D01*
X427856Y194675D01*
X432146D01*
Y191681D01*
X439854D01*
Y200571D01*
X432146D01*
Y197326D01*
X427856D01*
X427275Y197907D01*
X426447Y198250D01*
X425553D01*
X424725Y197907D01*
X424092Y197274D01*
X423869Y196734D01*
X423800Y196712D01*
X423322Y196721D01*
X423081Y197081D01*
X417081Y203081D01*
X416585Y203413D01*
X416000Y203529D01*
X395653D01*
X395529Y203653D01*
Y257366D01*
X408697Y270534D01*
X424342D01*
Y269291D01*
X431658D01*
Y274835D01*
X424342D01*
Y273592D01*
X408063D01*
X407478Y273476D01*
X406982Y273144D01*
X392919Y259081D01*
X392587Y258585D01*
X392471Y258000D01*
Y203653D01*
X392092Y203274D01*
X391750Y202448D01*
Y201552D01*
X392092Y200726D01*
X392725Y200093D01*
X393370Y199826D01*
X393271Y199326D01*
X389857D01*
X389275Y199908D01*
X388448Y200250D01*
X387552D01*
X386725Y199908D01*
X386092Y199275D01*
X385750Y198448D01*
Y197552D01*
X386092Y196725D01*
X386252Y196566D01*
X386045Y196066D01*
X374399D01*
X374192Y196566D01*
X377081Y199456D01*
X377413Y199952D01*
X377529Y200537D01*
Y254000D01*
X377413Y254585D01*
X377081Y255081D01*
X356163Y276000D01*
X356633Y276471D01*
X386000D01*
X386585Y276587D01*
X387081Y276919D01*
X402633Y292471D01*
X419291D01*
Y288342D01*
X424835D01*
Y295657D01*
D02*
G37*
G36*
X461657Y286835D02*
X458500D01*
Y284563D01*
X461657D01*
Y286835D01*
D02*
G37*
G36*
X457500D02*
X454343D01*
Y284563D01*
X457500D01*
Y286835D01*
D02*
G37*
G36*
X461657Y283563D02*
X458500D01*
Y281291D01*
X461657D01*
Y283563D01*
D02*
G37*
G36*
X457500D02*
X454343D01*
Y281291D01*
X457500D01*
Y283563D01*
D02*
G37*
G36*
X44445Y292342D02*
X35555D01*
Y284634D01*
X38471D01*
Y281653D01*
X38092Y281275D01*
X37750Y280448D01*
Y279552D01*
X38092Y278726D01*
X38726Y278093D01*
X39552Y277750D01*
X40448D01*
X41274Y278093D01*
X41908Y278726D01*
X42250Y279552D01*
Y280448D01*
X41908Y281275D01*
X41529Y281653D01*
Y284634D01*
X44445D01*
Y292342D01*
D02*
G37*
G36*
X470527Y298126D02*
X469473D01*
X468456Y297853D01*
X467544Y297327D01*
X466799Y296582D01*
X466273Y295670D01*
X466000Y294653D01*
Y293599D01*
X466273Y292582D01*
X466799Y291670D01*
X467544Y290925D01*
X468456Y290399D01*
X468471Y290395D01*
Y279658D01*
X467291D01*
Y277718D01*
X461657D01*
Y278961D01*
X454343D01*
Y273417D01*
X456471D01*
Y267094D01*
X455622D01*
Y261157D01*
X460378D01*
Y267094D01*
X459529D01*
Y273417D01*
X461657D01*
Y274660D01*
X467291D01*
Y272342D01*
X472835D01*
Y279658D01*
X471529D01*
Y290395D01*
X471544Y290399D01*
X472456Y290925D01*
X473201Y291670D01*
X473727Y292582D01*
X474000Y293599D01*
Y294653D01*
X473727Y295670D01*
X473201Y296582D01*
X472456Y297327D01*
X471544Y297853D01*
X470527Y298126D01*
D02*
G37*
G36*
X539425Y275854D02*
X532701D01*
Y273529D01*
X521658D01*
Y274772D01*
X514342D01*
Y273655D01*
X506087D01*
Y275095D01*
X498575D01*
Y269158D01*
X500014D01*
X500206Y268695D01*
X497887Y266377D01*
X497425Y266568D01*
Y267886D01*
X494169D01*
Y265417D01*
X496274D01*
X496466Y264955D01*
X494444Y262934D01*
X493873Y262820D01*
X493377Y262489D01*
X486546Y255658D01*
X483165D01*
Y248342D01*
X488709D01*
Y253495D01*
X495095Y259881D01*
X495666Y259995D01*
X496162Y260326D01*
X503412Y267576D01*
X503744Y268072D01*
X503860Y268657D01*
Y269158D01*
X506087D01*
Y270597D01*
X514342D01*
Y269228D01*
X521658D01*
Y270471D01*
X532701D01*
Y268146D01*
X539425D01*
Y275854D01*
D02*
G37*
G36*
X62598Y282543D02*
X61402D01*
X60246Y282234D01*
X59210Y281635D01*
X58364Y280790D01*
X57766Y279754D01*
X57457Y278598D01*
Y277402D01*
X57766Y276246D01*
X58364Y275210D01*
X59210Y274364D01*
X60246Y273766D01*
X61402Y273457D01*
X62598D01*
X63754Y273766D01*
X64790Y274364D01*
X65636Y275210D01*
X66234Y276246D01*
X66543Y277402D01*
Y278598D01*
X66234Y279754D01*
X65636Y280790D01*
X64790Y281635D01*
X63754Y282234D01*
X62598Y282543D01*
D02*
G37*
G36*
X480709Y279658D02*
X475165D01*
Y272342D01*
X480709D01*
Y274471D01*
X489913D01*
Y272898D01*
X497425D01*
Y278835D01*
X489913D01*
Y277529D01*
X480709D01*
Y279658D01*
D02*
G37*
G36*
X310598Y280543D02*
X309402D01*
X308246Y280234D01*
X307210Y279636D01*
X306364Y278790D01*
X305766Y277754D01*
X305706Y277529D01*
X304000D01*
X303415Y277413D01*
X302919Y277081D01*
X258919Y233081D01*
X258587Y232585D01*
X258471Y232000D01*
Y216268D01*
X258456Y216264D01*
X257544Y215738D01*
X256799Y214993D01*
X256273Y214081D01*
X256000Y213064D01*
Y212010D01*
X256273Y210993D01*
X256799Y210081D01*
X257544Y209336D01*
X258456Y208810D01*
X259473Y208537D01*
X260527D01*
X261544Y208810D01*
X262456Y209336D01*
X263201Y210081D01*
X263727Y210993D01*
X263731Y211008D01*
X275051D01*
X275637Y211124D01*
X276133Y211456D01*
X278505Y213828D01*
X281495D01*
X286959Y208364D01*
Y196982D01*
X284634D01*
Y190255D01*
X280382Y186003D01*
X277658D01*
Y187246D01*
X270342D01*
Y187066D01*
X263370D01*
Y188505D01*
X258221D01*
Y182569D01*
X263370D01*
Y184008D01*
X270342D01*
Y181702D01*
X277658D01*
Y182945D01*
X281016D01*
X281601Y183061D01*
X282097Y183393D01*
X286797Y188092D01*
X292342D01*
Y196982D01*
X290018D01*
Y208998D01*
X289901Y209583D01*
X289570Y210079D01*
X283658Y215991D01*
Y219372D01*
X276343D01*
Y215991D01*
X274418Y214066D01*
X263731D01*
X263727Y214081D01*
X263201Y214993D01*
X262456Y215738D01*
X261544Y216264D01*
X261529Y216268D01*
Y231366D01*
X277357Y247194D01*
X277947Y247077D01*
X278093Y246726D01*
X278675Y246144D01*
Y243246D01*
X276343D01*
Y237702D01*
X283658D01*
Y243246D01*
X281326D01*
Y246144D01*
X281908Y246726D01*
X282250Y247552D01*
Y248448D01*
X281908Y249274D01*
X281275Y249907D01*
X280923Y250053D01*
X280806Y250643D01*
X304633Y274471D01*
X305706D01*
X305766Y274246D01*
X306364Y273210D01*
X307210Y272364D01*
X308246Y271766D01*
X309402Y271457D01*
X310598D01*
X311754Y271766D01*
X312790Y272364D01*
X313635Y273210D01*
X314234Y274246D01*
X314543Y275402D01*
Y276598D01*
X314234Y277754D01*
X313635Y278790D01*
X312790Y279636D01*
X311754Y280234D01*
X310598Y280543D01*
D02*
G37*
G36*
X43657Y314835D02*
X36342D01*
Y309291D01*
X38471D01*
Y303366D01*
X35555D01*
Y295657D01*
X42282D01*
X50860Y287080D01*
X51356Y286748D01*
X51941Y286632D01*
X61206D01*
X67882Y279955D01*
X67766Y279754D01*
X67457Y278598D01*
Y277402D01*
X67766Y276246D01*
X68365Y275210D01*
X69210Y274364D01*
X70246Y273766D01*
X70471Y273706D01*
Y271529D01*
X50000D01*
X49415Y271413D01*
X48919Y271081D01*
X47955Y270118D01*
X47754Y270234D01*
X46598Y270543D01*
X45402D01*
X44246Y270234D01*
X43210Y269636D01*
X42364Y268790D01*
X41766Y267754D01*
X41457Y266598D01*
Y265402D01*
X41766Y264246D01*
X42364Y263210D01*
X43210Y262365D01*
X44246Y261766D01*
X45402Y261457D01*
X46598D01*
X47754Y261766D01*
X48790Y262365D01*
X49635Y263210D01*
X50234Y264246D01*
X50543Y265402D01*
Y266598D01*
X50234Y267754D01*
X50118Y267955D01*
X50634Y268471D01*
X72000D01*
X72585Y268587D01*
X73081Y268919D01*
X73413Y269415D01*
X73529Y270000D01*
Y273706D01*
X73754Y273766D01*
X74790Y274364D01*
X75635Y275210D01*
X76234Y276246D01*
X76543Y277402D01*
Y278598D01*
X76234Y279754D01*
X75635Y280790D01*
X74790Y281635D01*
X73754Y282234D01*
X72598Y282543D01*
X71402D01*
X70246Y282234D01*
X70045Y282118D01*
X62920Y289243D01*
X62424Y289574D01*
X61839Y289690D01*
X52575D01*
X44445Y297820D01*
Y303366D01*
X41529D01*
Y309291D01*
X43657D01*
Y314835D01*
D02*
G37*
G36*
X497425Y271354D02*
X494169D01*
Y268886D01*
X497425D01*
Y271354D01*
D02*
G37*
G36*
X493169D02*
X489913D01*
Y268886D01*
X493169D01*
Y271354D01*
D02*
G37*
G36*
Y267886D02*
X489913D01*
Y265417D01*
X493169D01*
Y267886D01*
D02*
G37*
G36*
X521658Y266898D02*
X514342D01*
Y261354D01*
X516675D01*
Y257856D01*
X516092Y257275D01*
X515750Y256448D01*
Y255552D01*
X516092Y254726D01*
X516725Y254093D01*
X517553Y253750D01*
X518447D01*
X519275Y254093D01*
X519908Y254726D01*
X520250Y255552D01*
Y256448D01*
X519908Y257275D01*
X519325Y257856D01*
Y261354D01*
X521658D01*
Y266898D01*
D02*
G37*
G36*
X567658Y266835D02*
X560343D01*
Y261291D01*
X562471D01*
Y257823D01*
X561130D01*
Y252279D01*
X566870D01*
Y257823D01*
X565529D01*
Y261291D01*
X567658D01*
Y266835D01*
D02*
G37*
G36*
X431658Y266961D02*
X424342D01*
Y261417D01*
X426471D01*
Y249059D01*
X425299D01*
Y244303D01*
X431236D01*
Y249059D01*
X429529D01*
Y261417D01*
X431658D01*
Y266961D01*
D02*
G37*
G36*
X431236Y240949D02*
X425299D01*
Y239325D01*
X421856D01*
X421275Y239908D01*
X420447Y240250D01*
X419553D01*
X418725Y239908D01*
X418092Y239275D01*
X417750Y238448D01*
Y237552D01*
X418092Y236725D01*
X418725Y236092D01*
X419553Y235750D01*
X420447D01*
X421275Y236092D01*
X421856Y236674D01*
X425299D01*
Y236193D01*
X431236D01*
Y240949D01*
D02*
G37*
G36*
X566870Y251720D02*
X561130D01*
Y246177D01*
X562471D01*
Y241653D01*
X562092Y241274D01*
X561750Y240448D01*
Y239552D01*
X562092Y238725D01*
X562725Y238092D01*
X563553Y237750D01*
X564447D01*
X565274Y238092D01*
X565907Y238725D01*
X566250Y239552D01*
Y240448D01*
X565907Y241274D01*
X565529Y241653D01*
Y246177D01*
X566870D01*
Y251720D01*
D02*
G37*
G36*
X316448Y266250D02*
X315552D01*
X314725Y265908D01*
X314092Y265275D01*
X313750Y264448D01*
Y263552D01*
X314092Y262725D01*
X314471Y262347D01*
Y258309D01*
X305157D01*
Y236624D01*
X326842D01*
Y258309D01*
X317529D01*
Y262347D01*
X317908Y262725D01*
X318250Y263552D01*
Y264448D01*
X317908Y265275D01*
X317274Y265908D01*
X316448Y266250D01*
D02*
G37*
G36*
X432709Y295657D02*
X427165D01*
Y288342D01*
X430546D01*
X434471Y284418D01*
Y245004D01*
X433764D01*
Y240248D01*
X439701D01*
Y241097D01*
X445291D01*
Y238469D01*
X450835D01*
Y245783D01*
X449592D01*
Y248555D01*
X453730Y252693D01*
X454160D01*
X468069Y238784D01*
X468000Y238527D01*
Y237473D01*
X468273Y236456D01*
X468799Y235544D01*
X469544Y234799D01*
X470456Y234273D01*
X471473Y234000D01*
X472527D01*
X473544Y234273D01*
X474456Y234799D01*
X475201Y235544D01*
X475727Y236456D01*
X476000Y237473D01*
Y238527D01*
X475727Y239544D01*
X475720Y239557D01*
X479144Y242982D01*
X479476Y243478D01*
X479592Y244063D01*
Y248342D01*
X480835D01*
Y255658D01*
X475291D01*
Y248342D01*
X476534D01*
Y244696D01*
X473557Y241720D01*
X473544Y241727D01*
X472527Y242000D01*
X471473D01*
X470456Y241727D01*
X469819Y241360D01*
X465929Y245250D01*
X466136Y245750D01*
X466447D01*
X467275Y246093D01*
X467907Y246726D01*
X468250Y247552D01*
Y248448D01*
X467907Y249274D01*
X467275Y249907D01*
X466447Y250250D01*
X465625D01*
X463682Y252193D01*
X463889Y252693D01*
X464433D01*
Y258630D01*
X459677D01*
Y252693D01*
X460730D01*
Y251945D01*
X460831Y251438D01*
X461118Y251008D01*
X463537Y248589D01*
X463502Y248384D01*
X462964Y248214D01*
X456323Y254856D01*
Y258630D01*
X451567D01*
Y254856D01*
X446981Y250270D01*
X446650Y249774D01*
X446534Y249189D01*
Y245783D01*
X445291D01*
Y244155D01*
X439701D01*
Y245004D01*
X437529D01*
Y285051D01*
X437413Y285636D01*
X437081Y286133D01*
X432709Y290505D01*
Y295657D01*
D02*
G37*
G36*
X458709Y245783D02*
X453165D01*
Y238469D01*
X454674D01*
Y235857D01*
X454093Y235275D01*
X453750Y234448D01*
Y233552D01*
X454093Y232726D01*
X454726Y232092D01*
X455552Y231750D01*
X456448D01*
X457274Y232092D01*
X457907Y232726D01*
X458250Y233552D01*
Y234448D01*
X457907Y235275D01*
X457326Y235857D01*
Y238469D01*
X458709D01*
Y245783D01*
D02*
G37*
G36*
X366870Y233206D02*
X361130D01*
Y227663D01*
X362471D01*
Y223246D01*
X360343D01*
Y217702D01*
X367657D01*
Y223246D01*
X365529D01*
Y227663D01*
X366870D01*
Y233206D01*
D02*
G37*
G36*
X556445Y209492D02*
X547555D01*
Y201783D01*
X556445D01*
Y204471D01*
X562347D01*
X562725Y204093D01*
X563553Y203750D01*
X564447D01*
X565274Y204093D01*
X565907Y204726D01*
X566250Y205552D01*
Y206448D01*
X565907Y207275D01*
X565274Y207908D01*
X564447Y208250D01*
X563553D01*
X562725Y207908D01*
X562347Y207529D01*
X556445D01*
Y209492D01*
D02*
G37*
G36*
X488598Y200669D02*
X488500D01*
Y196626D01*
X492543D01*
Y196724D01*
X492234Y197880D01*
X491636Y198916D01*
X490790Y199761D01*
X489754Y200360D01*
X488598Y200669D01*
D02*
G37*
G36*
X487500D02*
X487402D01*
X486246Y200360D01*
X485210Y199761D01*
X484365Y198916D01*
X483766Y197880D01*
X483457Y196724D01*
Y196626D01*
X487500D01*
Y200669D01*
D02*
G37*
G36*
X263370Y198505D02*
X261295D01*
Y196037D01*
X263370D01*
Y198505D01*
D02*
G37*
G36*
X260295D02*
X258221D01*
Y196037D01*
X260295D01*
Y198505D01*
D02*
G37*
G36*
X263370Y195037D02*
X261295D01*
Y192569D01*
X263370D01*
Y195037D01*
D02*
G37*
G36*
X260295D02*
X258221D01*
Y192569D01*
X260295D01*
Y195037D01*
D02*
G37*
G36*
X492543Y195626D02*
X488500D01*
Y191583D01*
X488598D01*
X489754Y191892D01*
X490790Y192490D01*
X491636Y193336D01*
X492234Y194372D01*
X492543Y195528D01*
Y195626D01*
D02*
G37*
G36*
X487500D02*
X483457D01*
Y195528D01*
X483766Y194372D01*
X484365Y193336D01*
X485210Y192490D01*
X486246Y191892D01*
X487402Y191583D01*
X487500D01*
Y195626D01*
D02*
G37*
G36*
X478598Y200669D02*
X477402D01*
X476246Y200360D01*
X475210Y199761D01*
X474365Y198916D01*
X473766Y197880D01*
X473457Y196724D01*
Y195528D01*
X473766Y194372D01*
X474365Y193336D01*
X475210Y192490D01*
X476246Y191892D01*
X477402Y191583D01*
X478598D01*
X479754Y191892D01*
X480790Y192490D01*
X481636Y193336D01*
X482234Y194372D01*
X482543Y195528D01*
Y196724D01*
X482234Y197880D01*
X481636Y198916D01*
X480790Y199761D01*
X479754Y200360D01*
X478598Y200669D01*
D02*
G37*
G36*
X400448Y192250D02*
X399552D01*
X398726Y191908D01*
X398144Y191325D01*
X389857D01*
X389275Y191908D01*
X388448Y192250D01*
X387552D01*
X386725Y191908D01*
X386092Y191274D01*
X385750Y190448D01*
Y189552D01*
X386092Y188725D01*
X386725Y188093D01*
X387552Y187750D01*
X388448D01*
X389275Y188093D01*
X389857Y188674D01*
X393271D01*
X393370Y188174D01*
X392725Y187908D01*
X392092Y187275D01*
X391750Y186448D01*
Y185552D01*
X392092Y184725D01*
X392471Y184347D01*
Y151653D01*
X392092Y151275D01*
X391750Y150448D01*
Y149552D01*
X392092Y148725D01*
X392725Y148092D01*
X393552Y147750D01*
X394448D01*
X395274Y148092D01*
X395907Y148725D01*
X396250Y149552D01*
Y150448D01*
X395907Y151275D01*
X395529Y151653D01*
Y184347D01*
X395907Y184725D01*
X396250Y185552D01*
Y186448D01*
X395907Y187275D01*
X395274Y187908D01*
X394630Y188174D01*
X394729Y188674D01*
X398144D01*
X398726Y188093D01*
X399552Y187750D01*
X400448D01*
X401274Y188093D01*
X401907Y188725D01*
X402250Y189552D01*
Y190448D01*
X401907Y191274D01*
X401274Y191908D01*
X400448Y192250D01*
D02*
G37*
G36*
X498598Y200669D02*
X497402D01*
X496246Y200360D01*
X495210Y199761D01*
X494365Y198916D01*
X493766Y197880D01*
X493457Y196724D01*
Y195528D01*
X493766Y194372D01*
X494365Y193336D01*
X495210Y192490D01*
X496246Y191892D01*
X496471Y191832D01*
Y186933D01*
X494244D01*
Y185155D01*
X488003D01*
X487974Y185198D01*
X487253Y185680D01*
X486402Y185850D01*
X483055D01*
X482204Y185680D01*
X481483Y185198D01*
X481001Y184477D01*
X480831Y183626D01*
X481001Y182775D01*
X481483Y182053D01*
X482204Y181571D01*
X483055Y181402D01*
X486402D01*
X487253Y181571D01*
X487974Y182053D01*
X488003Y182097D01*
X494244D01*
Y180799D01*
X501756D01*
Y186933D01*
X499529D01*
Y191832D01*
X499754Y191892D01*
X500790Y192490D01*
X501636Y193336D01*
X502234Y194372D01*
X502543Y195528D01*
Y196724D01*
X502234Y197880D01*
X501636Y198916D01*
X500790Y199761D01*
X499754Y200360D01*
X498598Y200669D01*
D02*
G37*
G36*
X500000Y213326D02*
X462898D01*
X462390Y213225D01*
X461960Y212937D01*
X449619Y200596D01*
X449578D01*
X449450Y200571D01*
X443169D01*
Y191681D01*
X448715D01*
X453828Y186568D01*
Y184866D01*
X453945Y184281D01*
X454276Y183785D01*
X456399Y181662D01*
X456081Y181274D01*
X455684Y181539D01*
X455098Y181655D01*
X449299D01*
Y183980D01*
X442575D01*
Y176272D01*
X449299D01*
Y178597D01*
X454465D01*
X459385Y173677D01*
X459375Y173626D01*
X459544Y172775D01*
X460026Y172054D01*
X460747Y171571D01*
X461598Y171402D01*
X464945D01*
X465796Y171571D01*
X466517Y172054D01*
X466999Y172775D01*
X467169Y173626D01*
X466999Y174477D01*
X466517Y175198D01*
X465796Y175680D01*
X464945Y175850D01*
X461920D01*
X461893Y175902D01*
X462194Y176402D01*
X464945D01*
X465796Y176571D01*
X466517Y177053D01*
X466999Y177775D01*
X467169Y178626D01*
X466999Y179477D01*
X466517Y180199D01*
X465796Y180681D01*
X464945Y180850D01*
X461920D01*
X461893Y180902D01*
X462194Y181402D01*
X464945D01*
X465796Y181571D01*
X466517Y182053D01*
X466999Y182775D01*
X467169Y183626D01*
X466999Y184477D01*
X466517Y185198D01*
X465796Y185680D01*
X464945Y185850D01*
X461598D01*
X460747Y185680D01*
X460026Y185198D01*
X459544Y184477D01*
X459390Y183704D01*
X458939Y183448D01*
X456887Y185500D01*
Y187201D01*
X456771Y187786D01*
X456439Y188283D01*
X450878Y193844D01*
Y198181D01*
X451106Y198334D01*
X463447Y210675D01*
X499451D01*
X524174Y185951D01*
Y182865D01*
X523821Y182512D01*
X523004Y182512D01*
X522504Y182512D01*
X520167D01*
X517529Y185149D01*
Y186347D01*
X517907Y186725D01*
X518250Y187552D01*
Y188448D01*
X517907Y189275D01*
X517275Y189908D01*
X516447Y190250D01*
X515553D01*
X514725Y189908D01*
X514092Y189275D01*
X513750Y188448D01*
Y187552D01*
X514092Y186725D01*
X514471Y186347D01*
Y184516D01*
X514587Y183931D01*
X514919Y183434D01*
X518004Y180349D01*
Y176181D01*
X522504D01*
X522996Y176181D01*
X523496Y176181D01*
X527504D01*
X527996Y176181D01*
X528496Y176181D01*
X532996D01*
Y176181D01*
X533004D01*
Y176181D01*
X537996D01*
Y182512D01*
X533004D01*
Y182512D01*
X532996D01*
Y182512D01*
X531825D01*
Y192272D01*
X533425D01*
Y199980D01*
X526701D01*
Y192272D01*
X529175D01*
Y182865D01*
X528821Y182512D01*
X528004Y182512D01*
X527504Y182512D01*
X526826D01*
Y186500D01*
X526725Y187007D01*
X526437Y187437D01*
X500937Y212937D01*
X500507Y213225D01*
X500000Y213326D01*
D02*
G37*
G36*
X277658Y179372D02*
X270342D01*
Y177325D01*
X265857D01*
X265275Y177908D01*
X264448Y178250D01*
X263552D01*
X262725Y177908D01*
X262092Y177275D01*
X261750Y176448D01*
Y175552D01*
X262092Y174725D01*
X262725Y174092D01*
X263552Y173750D01*
X264448D01*
X265275Y174092D01*
X265857Y174674D01*
X270342D01*
Y173828D01*
X277658D01*
Y179372D01*
D02*
G37*
G36*
X486402Y180850D02*
X483055D01*
X482204Y180681D01*
X481483Y180199D01*
X481001Y179477D01*
X480831Y178626D01*
X481001Y177775D01*
X481483Y177053D01*
X482204Y176571D01*
X483055Y176402D01*
X486402D01*
X487253Y176571D01*
X487974Y177053D01*
X488456Y177775D01*
X488625Y178626D01*
X488456Y179477D01*
X487974Y180199D01*
X487253Y180681D01*
X486402Y180850D01*
D02*
G37*
G36*
Y175850D02*
X483055D01*
X482204Y175680D01*
X481483Y175198D01*
X481001Y174477D01*
X480831Y173626D01*
X481001Y172775D01*
X481483Y172054D01*
X482204Y171571D01*
X483055Y171402D01*
X486402D01*
X487253Y171571D01*
X487974Y172054D01*
X488456Y172775D01*
X488625Y173626D01*
X488456Y174477D01*
X487974Y175198D01*
X487253Y175680D01*
X486402Y175850D01*
D02*
G37*
G36*
X558598Y178669D02*
X557402D01*
X556246Y178360D01*
X555210Y177761D01*
X554364Y176916D01*
X553766Y175880D01*
X553457Y174724D01*
Y173528D01*
X553766Y172372D01*
X554364Y171336D01*
X555210Y170490D01*
X556246Y169892D01*
X557402Y169583D01*
X558598D01*
X559754Y169892D01*
X560790Y170490D01*
X561635Y171336D01*
X562234Y172372D01*
X562543Y173528D01*
Y174724D01*
X562234Y175880D01*
X561635Y176916D01*
X560790Y177761D01*
X559754Y178360D01*
X558598Y178669D01*
D02*
G37*
G36*
X668598Y172543D02*
X668500D01*
Y168500D01*
X672543D01*
Y168598D01*
X672234Y169754D01*
X671635Y170790D01*
X670790Y171635D01*
X669754Y172234D01*
X668598Y172543D01*
D02*
G37*
G36*
X667500D02*
X667402D01*
X666246Y172234D01*
X665210Y171635D01*
X664364Y170790D01*
X663766Y169754D01*
X663457Y168598D01*
Y168500D01*
X667500D01*
Y172543D01*
D02*
G37*
G36*
X486402Y170850D02*
X483055D01*
X482204Y170680D01*
X481483Y170199D01*
X481001Y169477D01*
X480831Y168626D01*
X481001Y167775D01*
X481483Y167053D01*
X482204Y166571D01*
X483055Y166402D01*
X486402D01*
X487253Y166571D01*
X487974Y167053D01*
X488456Y167775D01*
X488625Y168626D01*
X488456Y169477D01*
X487974Y170199D01*
X487253Y170680D01*
X486402Y170850D01*
D02*
G37*
G36*
X449299Y171980D02*
X442575D01*
Y164272D01*
X449299D01*
Y167097D01*
X459997D01*
X460026Y167053D01*
X460747Y166571D01*
X461598Y166402D01*
X464945D01*
X465796Y166571D01*
X466517Y167053D01*
X466999Y167775D01*
X467169Y168626D01*
X466999Y169477D01*
X466517Y170199D01*
X465796Y170680D01*
X464945Y170850D01*
X461598D01*
X460747Y170680D01*
X460026Y170199D01*
X459997Y170155D01*
X449299D01*
Y171980D01*
D02*
G37*
G36*
X249370Y168506D02*
X247295D01*
Y166037D01*
X249370D01*
Y168506D01*
D02*
G37*
G36*
X246295D02*
X244220D01*
Y166037D01*
X246295D01*
Y168506D01*
D02*
G37*
G36*
X501756Y179453D02*
X494244D01*
Y173319D01*
X496674D01*
Y169857D01*
X496093Y169274D01*
X495750Y168448D01*
Y167552D01*
X496093Y166726D01*
X496726Y166093D01*
X497552Y165750D01*
X498448D01*
X499274Y166093D01*
X499907Y166726D01*
X500250Y167552D01*
Y168448D01*
X499907Y169274D01*
X499326Y169857D01*
Y173319D01*
X501756D01*
Y179453D01*
D02*
G37*
G36*
X558598Y168669D02*
X558500D01*
Y164626D01*
X562543D01*
Y164724D01*
X562234Y165880D01*
X561635Y166916D01*
X560790Y167762D01*
X559754Y168360D01*
X558598Y168669D01*
D02*
G37*
G36*
X557500D02*
X557402D01*
X556246Y168360D01*
X555210Y167762D01*
X554364Y166916D01*
X553766Y165880D01*
X553457Y164724D01*
Y164626D01*
X557500D01*
Y168669D01*
D02*
G37*
G36*
X678598Y172543D02*
X677402D01*
X676246Y172234D01*
X675210Y171635D01*
X674365Y170790D01*
X673766Y169754D01*
X673457Y168598D01*
Y167402D01*
X673766Y166246D01*
X674365Y165210D01*
X675210Y164365D01*
X676246Y163766D01*
X677402Y163457D01*
X678598D01*
X679754Y163766D01*
X680790Y164365D01*
X681636Y165210D01*
X682234Y166246D01*
X682543Y167402D01*
Y168598D01*
X682234Y169754D01*
X681636Y170790D01*
X680790Y171635D01*
X679754Y172234D01*
X678598Y172543D01*
D02*
G37*
G36*
X672543Y167500D02*
X668500D01*
Y163457D01*
X668598D01*
X669754Y163766D01*
X670790Y164365D01*
X671635Y165210D01*
X672234Y166246D01*
X672543Y167402D01*
Y167500D01*
D02*
G37*
G36*
X667500D02*
X663457D01*
Y167402D01*
X663766Y166246D01*
X664364Y165210D01*
X665210Y164365D01*
X666246Y163766D01*
X667402Y163457D01*
X667500D01*
Y167500D01*
D02*
G37*
G36*
X249370Y165037D02*
X247295D01*
Y162568D01*
X249370D01*
Y165037D01*
D02*
G37*
G36*
X246295D02*
X244220D01*
Y162568D01*
X246295D01*
Y165037D01*
D02*
G37*
G36*
X486402Y165850D02*
X483055D01*
X482204Y165681D01*
X481483Y165199D01*
X481001Y164477D01*
X480831Y163626D01*
X481001Y162775D01*
X481483Y162054D01*
X482204Y161571D01*
X483055Y161402D01*
X486402D01*
X487253Y161571D01*
X487974Y162054D01*
X488456Y162775D01*
X488625Y163626D01*
X488456Y164477D01*
X487974Y165199D01*
X487253Y165681D01*
X486402Y165850D01*
D02*
G37*
G36*
X527996Y160071D02*
Y160071D01*
X523496D01*
X523004Y160071D01*
X522504Y160071D01*
X518004D01*
Y155903D01*
X515142Y153041D01*
X504445D01*
Y155366D01*
X495555D01*
Y150155D01*
X488003D01*
X487974Y150198D01*
X487253Y150680D01*
X486402Y150850D01*
X483055D01*
X482204Y150680D01*
X481483Y150198D01*
X481001Y149477D01*
X480831Y148626D01*
X481001Y147775D01*
X481483Y147054D01*
X482204Y146571D01*
X483055Y146402D01*
X486402D01*
X487253Y146571D01*
X487974Y147054D01*
X488003Y147097D01*
X496524D01*
X497109Y147213D01*
X497605Y147545D01*
X497718Y147658D01*
X504445D01*
Y149982D01*
X515776D01*
X516361Y150099D01*
X516857Y150430D01*
X520167Y153740D01*
X522996Y153740D01*
X523496Y153740D01*
X527996D01*
Y153740D01*
X528004D01*
Y153740D01*
X529175D01*
Y149425D01*
X524146D01*
Y142701D01*
X531854D01*
Y149425D01*
X531825D01*
Y153387D01*
X532179Y153740D01*
X532996Y153740D01*
X533496Y153740D01*
X535833D01*
X536529Y153044D01*
X537025Y152713D01*
X537610Y152597D01*
X540244D01*
Y151059D01*
X547756D01*
Y152597D01*
X553706D01*
X553766Y152372D01*
X554364Y151336D01*
X555210Y150490D01*
X556246Y149892D01*
X557402Y149583D01*
X558598D01*
X559754Y149892D01*
X560790Y150490D01*
X561635Y151336D01*
X562234Y152372D01*
X562543Y153528D01*
Y154724D01*
X562234Y155880D01*
X561635Y156916D01*
X560790Y157762D01*
X559754Y158360D01*
X558598Y158669D01*
X557402D01*
X556246Y158360D01*
X555210Y157762D01*
X554364Y156916D01*
X553766Y155880D01*
X553706Y155655D01*
X547756D01*
Y157193D01*
X540244D01*
Y155655D01*
X538244D01*
X537996Y155903D01*
Y160071D01*
X533004Y160071D01*
X532504Y160071D01*
X528004D01*
Y160071D01*
X527996D01*
D02*
G37*
G36*
X562543Y163626D02*
X558500D01*
Y159583D01*
X558598D01*
X559754Y159892D01*
X560790Y160490D01*
X561635Y161336D01*
X562234Y162372D01*
X562543Y163528D01*
Y163626D01*
D02*
G37*
G36*
X557500D02*
X553457D01*
Y163528D01*
X553766Y162372D01*
X554364Y161336D01*
X555210Y160490D01*
X556246Y159892D01*
X557402Y159583D01*
X557500D01*
Y163626D01*
D02*
G37*
G36*
X628772Y165657D02*
X623228D01*
Y158343D01*
X628772D01*
Y160471D01*
X634240D01*
Y159130D01*
X639783D01*
Y164870D01*
X634240D01*
Y163529D01*
X628772D01*
Y165657D01*
D02*
G37*
G36*
X370807Y164293D02*
X364673D01*
Y156781D01*
X370807D01*
Y158675D01*
X374144D01*
X374726Y158092D01*
X375552Y157750D01*
X376448D01*
X377274Y158092D01*
X377907Y158726D01*
X378250Y159552D01*
Y160448D01*
X377907Y161275D01*
X377274Y161907D01*
X376448Y162250D01*
X375552D01*
X374726Y161907D01*
X374144Y161326D01*
X370807D01*
Y164293D01*
D02*
G37*
G36*
X464945Y165850D02*
X461598D01*
X460747Y165681D01*
X460026Y165199D01*
X459544Y164477D01*
X459375Y163626D01*
X459385Y163575D01*
X453465Y157655D01*
X449299D01*
Y159980D01*
X442575D01*
Y152272D01*
X449299D01*
Y154597D01*
X453099D01*
X453291Y154135D01*
X447136Y147980D01*
X442575D01*
Y140272D01*
X446604D01*
X446796Y139810D01*
X444856Y137870D01*
X444524Y137373D01*
X444408Y136788D01*
Y135980D01*
X442575D01*
Y128272D01*
X449299D01*
Y135980D01*
X447999D01*
X447792Y136480D01*
X454719Y143407D01*
X455050Y143903D01*
X455167Y144489D01*
Y145031D01*
X458939Y148804D01*
X459390Y148548D01*
X459544Y147775D01*
X460026Y147054D01*
X460747Y146571D01*
X461598Y146402D01*
X461946D01*
Y141243D01*
X461989Y141025D01*
X461750Y140448D01*
Y139552D01*
X462092Y138725D01*
X462725Y138093D01*
X463553Y137750D01*
X464447D01*
X465274Y138093D01*
X465907Y138725D01*
X466250Y139552D01*
Y140448D01*
X465907Y141274D01*
X465274Y141908D01*
X464597Y142188D01*
Y146402D01*
X464945D01*
X465796Y146571D01*
X466517Y147054D01*
X466999Y147775D01*
X467169Y148626D01*
X466999Y149477D01*
X466517Y150198D01*
X465796Y150680D01*
X464945Y150850D01*
X462194D01*
X461893Y151350D01*
X461920Y151402D01*
X464945D01*
X465796Y151571D01*
X466517Y152053D01*
X466999Y152775D01*
X467169Y153626D01*
X466999Y154477D01*
X466517Y155199D01*
X465796Y155681D01*
X464945Y155850D01*
X461598D01*
X460747Y155681D01*
X460026Y155199D01*
X459544Y154477D01*
X459375Y153626D01*
X459385Y153575D01*
X452556Y146746D01*
X452224Y146250D01*
X452108Y145665D01*
Y145122D01*
X449761Y142775D01*
X449299Y142966D01*
Y145817D01*
X460318Y156836D01*
X460352D01*
X460747Y156571D01*
X461598Y156402D01*
X464945D01*
X465796Y156571D01*
X466517Y157053D01*
X466999Y157775D01*
X467169Y158626D01*
X466999Y159477D01*
X466517Y160198D01*
X465796Y160680D01*
X464945Y160850D01*
X462194D01*
X461893Y161350D01*
X461920Y161402D01*
X464945D01*
X465796Y161571D01*
X466517Y162054D01*
X466999Y162775D01*
X467169Y163626D01*
X466999Y164477D01*
X466517Y165199D01*
X465796Y165681D01*
X464945Y165850D01*
D02*
G37*
G36*
X441425Y159980D02*
X438563D01*
Y156626D01*
X441425D01*
Y159980D01*
D02*
G37*
G36*
X437563D02*
X434701D01*
Y156626D01*
X437563D01*
Y159980D01*
D02*
G37*
G36*
X486402Y160850D02*
X483055D01*
X482204Y160680D01*
X481483Y160198D01*
X481001Y159477D01*
X480831Y158626D01*
X481001Y157775D01*
X481483Y157053D01*
X482204Y156571D01*
X483055Y156402D01*
X486402D01*
X487253Y156571D01*
X487974Y157053D01*
X488456Y157775D01*
X488625Y158626D01*
X488456Y159477D01*
X487974Y160198D01*
X487253Y160680D01*
X486402Y160850D01*
D02*
G37*
G36*
X441425Y155626D02*
X438563D01*
Y152272D01*
X441425D01*
Y155626D01*
D02*
G37*
G36*
X437563D02*
X434701D01*
Y152272D01*
X437563D01*
Y155626D01*
D02*
G37*
G36*
X486402Y155850D02*
X483055D01*
X482204Y155681D01*
X481483Y155199D01*
X481001Y154477D01*
X480831Y153626D01*
X481001Y152775D01*
X481483Y152053D01*
X482204Y151571D01*
X483055Y151402D01*
X486402D01*
X487253Y151571D01*
X487974Y152053D01*
X488456Y152775D01*
X488625Y153626D01*
X488456Y154477D01*
X487974Y155199D01*
X487253Y155681D01*
X486402Y155850D01*
D02*
G37*
G36*
X673658Y150709D02*
X670500D01*
Y148437D01*
X673658D01*
Y150709D01*
D02*
G37*
G36*
X669500D02*
X666342D01*
Y148437D01*
X669500D01*
Y150709D01*
D02*
G37*
G36*
X359798Y151680D02*
X359700D01*
Y147637D01*
X363743D01*
Y147735D01*
X363434Y148891D01*
X362836Y149927D01*
X361990Y150773D01*
X360954Y151371D01*
X359798Y151680D01*
D02*
G37*
G36*
X358700D02*
X358602D01*
X357446Y151371D01*
X356410Y150773D01*
X355564Y149927D01*
X354966Y148891D01*
X354657Y147735D01*
Y147637D01*
X358700D01*
Y151680D01*
D02*
G37*
G36*
X658598Y172543D02*
X657402D01*
X656246Y172234D01*
X655210Y171635D01*
X654364Y170790D01*
X653766Y169754D01*
X653457Y168598D01*
Y167402D01*
X653766Y166246D01*
X653882Y166045D01*
X652659Y164822D01*
X652327Y164325D01*
X652211Y163740D01*
Y153756D01*
X650673D01*
Y148446D01*
X649789Y147562D01*
X649327Y147753D01*
Y153756D01*
X643193D01*
Y151529D01*
X639221D01*
X639122Y152029D01*
X639275Y152093D01*
X639908Y152726D01*
X640250Y153552D01*
Y154087D01*
X644196Y158033D01*
X644527Y158529D01*
X644644Y159114D01*
Y159130D01*
X645886D01*
Y164870D01*
X640343D01*
Y159130D01*
X640343D01*
X640525Y158688D01*
X638087Y156250D01*
X637552D01*
X636726Y155907D01*
X636093Y155274D01*
X635750Y154448D01*
Y153552D01*
X636093Y152726D01*
X636726Y152093D01*
X637265Y151869D01*
X637288Y151800D01*
X637279Y151322D01*
X636919Y151081D01*
X636087Y150250D01*
X635553D01*
X634726Y149908D01*
X634093Y149275D01*
X633750Y148448D01*
Y147552D01*
X634093Y146725D01*
X634726Y146092D01*
X635553Y145750D01*
X636447D01*
X637275Y146092D01*
X637908Y146725D01*
X638250Y147552D01*
Y148087D01*
X638633Y148471D01*
X643193D01*
Y146244D01*
X647818D01*
X648009Y145782D01*
X644223Y141996D01*
X640055D01*
Y137496D01*
X640055Y137004D01*
X640055Y136504D01*
Y132496D01*
X640055Y132004D01*
X640055Y131504D01*
Y127496D01*
X640055Y127004D01*
X640055Y126504D01*
Y122004D01*
X646386D01*
Y126504D01*
X646386Y126996D01*
X646386Y127496D01*
Y131504D01*
X646386Y131996D01*
X646386Y132496D01*
Y136504D01*
X646386Y136996D01*
X646386Y137496D01*
Y139833D01*
X652797Y146244D01*
X656807D01*
Y153756D01*
X655269D01*
Y163107D01*
X656045Y163882D01*
X656246Y163766D01*
X657402Y163457D01*
X658598D01*
X659754Y163766D01*
X660790Y164365D01*
X661635Y165210D01*
X662234Y166246D01*
X662543Y167402D01*
Y168598D01*
X662234Y169754D01*
X661635Y170790D01*
X660790Y171635D01*
X659754Y172234D01*
X658598Y172543D01*
D02*
G37*
G36*
X673658Y147437D02*
X670500D01*
Y145165D01*
X673658D01*
Y147437D01*
D02*
G37*
G36*
X669500D02*
X666342D01*
Y145165D01*
X669500D01*
Y147437D01*
D02*
G37*
G36*
X369798Y151680D02*
X368602D01*
X367446Y151371D01*
X366410Y150773D01*
X365564Y149927D01*
X364966Y148891D01*
X364657Y147735D01*
Y146539D01*
X364966Y145383D01*
X365564Y144347D01*
X366410Y143501D01*
X367446Y142903D01*
X368602Y142594D01*
X369798D01*
X370954Y142903D01*
X371990Y143501D01*
X372835Y144347D01*
X373434Y145383D01*
X373743Y146539D01*
Y147735D01*
X373434Y148891D01*
X372835Y149927D01*
X371990Y150773D01*
X370954Y151371D01*
X369798Y151680D01*
D02*
G37*
G36*
X363743Y146637D02*
X359700D01*
Y142594D01*
X359798D01*
X360954Y142903D01*
X361990Y143501D01*
X362836Y144347D01*
X363434Y145383D01*
X363743Y146539D01*
Y146637D01*
D02*
G37*
G36*
X358700D02*
X354657D01*
Y146539D01*
X354966Y145383D01*
X355564Y144347D01*
X356410Y143501D01*
X357446Y142903D01*
X358602Y142594D01*
X358700D01*
Y146637D01*
D02*
G37*
G36*
X547756Y149713D02*
X540244D01*
Y143579D01*
X542674D01*
Y139857D01*
X542093Y139275D01*
X541750Y138448D01*
Y137552D01*
X542093Y136725D01*
X542726Y136092D01*
X543552Y135750D01*
X544448D01*
X545274Y136092D01*
X545907Y136725D01*
X546250Y137552D01*
Y138448D01*
X545907Y139275D01*
X545326Y139857D01*
Y143579D01*
X547756D01*
Y149713D01*
D02*
G37*
G36*
X441425Y135980D02*
X434701D01*
Y133655D01*
X426445D01*
Y135980D01*
X417555D01*
Y131529D01*
X395653D01*
X395274Y131907D01*
X394448Y132250D01*
X393552D01*
X392725Y131907D01*
X392092Y131274D01*
X391750Y130448D01*
Y129552D01*
X392092Y128726D01*
X392725Y128093D01*
X393552Y127750D01*
X394448D01*
X395274Y128093D01*
X395653Y128471D01*
X417555D01*
Y128272D01*
X426445D01*
Y130597D01*
X434701D01*
Y128272D01*
X441425D01*
Y135980D01*
D02*
G37*
G36*
X618527Y190000D02*
X617473D01*
X616456Y189727D01*
X615544Y189201D01*
X614799Y188456D01*
X614273Y187544D01*
X614000Y186527D01*
Y185473D01*
X614273Y184456D01*
X614799Y183544D01*
X615544Y182799D01*
X616456Y182273D01*
X616471Y182269D01*
Y165657D01*
X615354D01*
Y160505D01*
X604919Y150070D01*
X604587Y149574D01*
X604471Y148988D01*
Y141366D01*
X601555D01*
Y133658D01*
X610445D01*
Y135982D01*
X613512D01*
X614097Y136099D01*
X614593Y136430D01*
X616634Y138471D01*
X617614D01*
Y137004D01*
X617614D01*
Y136996D01*
X617614D01*
Y134167D01*
X617253Y133806D01*
X616911Y133578D01*
X612919Y129585D01*
X612587Y129088D01*
X612471Y128503D01*
Y107824D01*
X612587Y107238D01*
X612919Y106742D01*
X626471Y93190D01*
Y78294D01*
X626246Y78234D01*
X625210Y77636D01*
X624365Y76790D01*
X623766Y75754D01*
X623457Y74598D01*
Y73402D01*
X623766Y72246D01*
X624365Y71210D01*
X625210Y70364D01*
X626246Y69766D01*
X626471Y69706D01*
Y50004D01*
X618312Y41845D01*
X617901Y42120D01*
X616644Y42640D01*
X615310Y42906D01*
X613950D01*
X612616Y42640D01*
X611359Y42120D01*
X610228Y41364D01*
X609266Y40402D01*
X608510Y39271D01*
X607990Y38014D01*
X607724Y36680D01*
Y35320D01*
X607990Y33986D01*
X608510Y32729D01*
X609266Y31598D01*
X610228Y30636D01*
X611359Y29880D01*
X612616Y29360D01*
X613950Y29094D01*
X615310D01*
X616644Y29360D01*
X617901Y29880D01*
X619032Y30636D01*
X619994Y31598D01*
X620750Y32729D01*
X621270Y33986D01*
X621535Y35320D01*
Y36680D01*
X621270Y38014D01*
X620750Y39271D01*
X620475Y39682D01*
X629081Y48289D01*
X629413Y48785D01*
X629529Y49370D01*
Y69706D01*
X629754Y69766D01*
X630790Y70364D01*
X631636Y71210D01*
X632234Y72246D01*
X632543Y73402D01*
Y74598D01*
X632234Y75754D01*
X631636Y76790D01*
X630790Y77636D01*
X629754Y78234D01*
X629529Y78294D01*
Y93823D01*
X629413Y94409D01*
X629081Y94905D01*
X615529Y108457D01*
Y127870D01*
X617152Y129493D01*
X617614Y129301D01*
Y127496D01*
X617614Y127004D01*
X617614D01*
Y126996D01*
X617614D01*
Y122004D01*
X618471D01*
Y117653D01*
X618092Y117274D01*
X617750Y116448D01*
Y115552D01*
X618092Y114725D01*
X618725Y114093D01*
X619553Y113750D01*
X620447D01*
X621275Y114093D01*
X621908Y114725D01*
X622250Y115552D01*
Y116448D01*
X621908Y117274D01*
X621529Y117653D01*
Y122004D01*
X623945D01*
Y125239D01*
X624407Y125430D01*
X632919Y116919D01*
X633415Y116587D01*
X634000Y116471D01*
X646000D01*
X646585Y116587D01*
X647081Y116919D01*
X658634Y128471D01*
X661622D01*
Y127032D01*
X666378D01*
Y130806D01*
X671081Y135509D01*
X671413Y136005D01*
X671529Y136591D01*
Y137291D01*
X673658D01*
Y142835D01*
X666342D01*
Y137291D01*
X667831D01*
X668038Y136791D01*
X664215Y132968D01*
X661622D01*
Y131529D01*
X658000D01*
X657415Y131413D01*
X656919Y131081D01*
X645366Y119529D01*
X634633D01*
X625585Y128577D01*
X625089Y128909D01*
X624504Y129025D01*
X624086D01*
X623945Y129167D01*
Y131996D01*
X623945Y131996D01*
Y132004D01*
X623945D01*
X623945Y132496D01*
Y136996D01*
X623945D01*
Y137004D01*
X623945D01*
Y141996D01*
X617614D01*
Y141529D01*
X616000D01*
X615415Y141413D01*
X614919Y141081D01*
X612878Y139041D01*
X610445D01*
Y141366D01*
X607529D01*
Y148355D01*
X617517Y158343D01*
X620898D01*
Y165657D01*
X619529D01*
Y182269D01*
X619544Y182273D01*
X620456Y182799D01*
X621201Y183544D01*
X621727Y184456D01*
X622000Y185473D01*
Y186527D01*
X621727Y187544D01*
X621201Y188456D01*
X620456Y189201D01*
X619544Y189727D01*
X618527Y190000D01*
D02*
G37*
G36*
X504445Y144343D02*
X495555D01*
Y136634D01*
X498674D01*
Y125856D01*
X498093Y125275D01*
X497750Y124448D01*
Y123552D01*
X498093Y122725D01*
X498726Y122092D01*
X499552Y121750D01*
X500448D01*
X501274Y122092D01*
X501907Y122725D01*
X502250Y123552D01*
Y124448D01*
X501907Y125275D01*
X501326Y125856D01*
Y136634D01*
X504445D01*
Y144343D01*
D02*
G37*
G36*
X670433Y124504D02*
X665677D01*
Y118567D01*
X670433D01*
Y120006D01*
X671831D01*
X673750Y118087D01*
Y117552D01*
X674092Y116726D01*
X674725Y116093D01*
X675553Y115750D01*
X676447D01*
X677275Y116093D01*
X677908Y116726D01*
X678250Y117552D01*
Y118448D01*
X677908Y119274D01*
X677275Y119907D01*
X676447Y120250D01*
X675913D01*
X673546Y122617D01*
X673050Y122948D01*
X672465Y123065D01*
X670433D01*
Y124504D01*
D02*
G37*
G36*
X610445Y130342D02*
X601555D01*
Y122634D01*
X604471D01*
Y117653D01*
X604093Y117274D01*
X603750Y116448D01*
Y115552D01*
X604093Y114725D01*
X604726Y114093D01*
X605552Y113750D01*
X606448D01*
X607274Y114093D01*
X607907Y114725D01*
X608250Y115552D01*
Y116448D01*
X607907Y117274D01*
X607529Y117653D01*
Y122634D01*
X610445D01*
Y130342D01*
D02*
G37*
G36*
X426445Y124957D02*
X417555D01*
Y117248D01*
X420675D01*
Y111856D01*
X420092Y111275D01*
X419750Y110448D01*
Y109552D01*
X420092Y108726D01*
X420725Y108092D01*
X421553Y107750D01*
X422447D01*
X423275Y108092D01*
X423908Y108726D01*
X424250Y109552D01*
Y110448D01*
X423908Y111275D01*
X423325Y111856D01*
Y117248D01*
X426445D01*
Y124957D01*
D02*
G37*
G36*
X371657Y115372D02*
X364342D01*
Y109828D01*
X366674D01*
Y103372D01*
X365130D01*
Y97828D01*
X370870D01*
Y103372D01*
X369325D01*
Y109828D01*
X371657D01*
Y115372D01*
D02*
G37*
G36*
X326842Y127521D02*
X305157D01*
Y105836D01*
X314471D01*
Y101653D01*
X314092Y101275D01*
X313750Y100448D01*
Y99552D01*
X314092Y98725D01*
X314725Y98093D01*
X315552Y97750D01*
X316448D01*
X317274Y98093D01*
X317908Y98725D01*
X318250Y99552D01*
Y100448D01*
X317908Y101275D01*
X317529Y101653D01*
Y105836D01*
X326842D01*
Y127521D01*
D02*
G37*
G36*
X459594Y90898D02*
X456437D01*
Y88626D01*
X459594D01*
Y90898D01*
D02*
G37*
G36*
X455437D02*
X452280D01*
Y88626D01*
X455437D01*
Y90898D01*
D02*
G37*
G36*
X459594Y87626D02*
X456437D01*
Y85354D01*
X459594D01*
Y87626D01*
D02*
G37*
G36*
X455437D02*
X452280D01*
Y85354D01*
X455437D01*
Y87626D01*
D02*
G37*
G36*
X370870Y97269D02*
X365130D01*
Y91726D01*
X366471D01*
Y87653D01*
X366092Y87274D01*
X365750Y86448D01*
Y85552D01*
X366092Y84725D01*
X366725Y84092D01*
X367552Y83750D01*
X368448D01*
X369274Y84092D01*
X369907Y84725D01*
X370250Y85552D01*
Y86448D01*
X369907Y87274D01*
X369529Y87653D01*
Y91726D01*
X370870D01*
Y97269D01*
D02*
G37*
G36*
X470464Y104126D02*
X469410D01*
X468393Y103853D01*
X467481Y103327D01*
X466736Y102582D01*
X466210Y101670D01*
X465937Y100653D01*
Y99599D01*
X466210Y98582D01*
X466736Y97670D01*
X467481Y96925D01*
X468393Y96399D01*
X468611Y96340D01*
Y83784D01*
X467228D01*
Y79325D01*
X466000D01*
X465493Y79225D01*
X465063Y78937D01*
X464589Y78463D01*
X460486D01*
X459594Y79355D01*
Y83024D01*
X452280D01*
Y77480D01*
X457720D01*
X458611Y76589D01*
Y73094D01*
X457559D01*
Y67158D01*
X462315D01*
Y73094D01*
X461263D01*
Y75812D01*
X465138D01*
X465645Y75913D01*
X466075Y76200D01*
X466549Y76674D01*
X467228D01*
Y76468D01*
X472772D01*
Y83784D01*
X471263D01*
Y96340D01*
X471481Y96399D01*
X472393Y96925D01*
X473138Y97670D01*
X473664Y98582D01*
X473937Y99599D01*
Y100653D01*
X473664Y101670D01*
X473138Y102582D01*
X472393Y103327D01*
X471481Y103853D01*
X470464Y104126D01*
D02*
G37*
G36*
X480646Y83784D02*
X475102D01*
Y76468D01*
X480646D01*
Y78800D01*
X485850D01*
Y77655D01*
X484126D01*
X483541Y77539D01*
X483044Y77207D01*
X480919Y75081D01*
X480587Y74585D01*
X480471Y74000D01*
Y70047D01*
X480587Y69462D01*
X480919Y68966D01*
X484282Y65603D01*
Y63784D01*
X483039D01*
Y56468D01*
X488583D01*
Y63784D01*
X487340D01*
Y66236D01*
X487224Y66821D01*
X486893Y67318D01*
X483529Y70681D01*
Y73366D01*
X484760Y74597D01*
X485850D01*
Y72886D01*
X489606D01*
X493362D01*
Y74597D01*
X494512D01*
Y73158D01*
X502024D01*
Y74597D01*
X512280D01*
Y73354D01*
X519594D01*
Y74597D01*
X530701D01*
Y70146D01*
X537425D01*
Y77854D01*
X530701D01*
Y77655D01*
X519594D01*
Y78898D01*
X512280D01*
Y77655D01*
X502024D01*
Y79094D01*
X494512D01*
Y77655D01*
X493362D01*
Y82835D01*
X485850D01*
Y81451D01*
X480646D01*
Y83784D01*
D02*
G37*
G36*
X493362Y71886D02*
X490106D01*
Y69417D01*
X493362D01*
Y71886D01*
D02*
G37*
G36*
X489106D02*
X485850D01*
Y69417D01*
X489106D01*
Y71886D01*
D02*
G37*
G36*
X519594Y71024D02*
X512280D01*
Y65480D01*
X514471D01*
Y61653D01*
X514092Y61274D01*
X513750Y60448D01*
Y59552D01*
X514092Y58726D01*
X514725Y58092D01*
X515553Y57750D01*
X516447D01*
X517275Y58092D01*
X517907Y58726D01*
X518250Y59552D01*
Y60448D01*
X517907Y61274D01*
X517529Y61653D01*
Y65480D01*
X519594D01*
Y71024D01*
D02*
G37*
G36*
X561657Y70835D02*
X554343D01*
Y65291D01*
X556471D01*
Y59823D01*
X555130D01*
Y54280D01*
X560870D01*
Y59823D01*
X559529D01*
Y65291D01*
X561657D01*
Y70835D01*
D02*
G37*
G36*
X466370Y64630D02*
X461614D01*
Y58693D01*
X464207D01*
X466661Y56239D01*
Y55810D01*
X466777Y55225D01*
X467109Y54729D01*
X469750Y52087D01*
Y51552D01*
X470092Y50726D01*
X470725Y50093D01*
X471553Y49750D01*
X472447D01*
X473275Y50093D01*
X473908Y50726D01*
X474250Y51552D01*
Y52448D01*
X473908Y53275D01*
X473275Y53908D01*
X472447Y54250D01*
X471913D01*
X469720Y56443D01*
Y56873D01*
X469603Y57458D01*
X469272Y57954D01*
X466370Y60856D01*
Y64630D01*
D02*
G37*
G36*
X437595Y68961D02*
X430279D01*
Y65580D01*
X428391Y63692D01*
X428059Y63196D01*
X427943Y62610D01*
Y52559D01*
X426504D01*
Y47803D01*
X432441D01*
Y52559D01*
X431002D01*
Y61977D01*
X432442Y63417D01*
X437595D01*
Y68961D01*
D02*
G37*
G36*
X432441Y44449D02*
X426504D01*
Y43565D01*
X423617D01*
X423275Y43907D01*
X422447Y44250D01*
X421553D01*
X420725Y43907D01*
X420092Y43275D01*
X419750Y42448D01*
Y41552D01*
X420092Y40725D01*
X420725Y40093D01*
X421553Y39750D01*
X422447D01*
X423275Y40093D01*
X423688Y40506D01*
X426504D01*
Y39693D01*
X432441D01*
Y44449D01*
D02*
G37*
G36*
X560870Y53720D02*
X555130D01*
Y48177D01*
X556471D01*
Y43653D01*
X556093Y43275D01*
X555750Y42448D01*
Y41552D01*
X556093Y40725D01*
X556726Y40093D01*
X557552Y39750D01*
X558448D01*
X559274Y40093D01*
X559907Y40725D01*
X560250Y41552D01*
Y42448D01*
X559907Y43275D01*
X559529Y43653D01*
Y48177D01*
X560870D01*
Y53720D01*
D02*
G37*
G36*
X422709Y97658D02*
X417165D01*
Y90342D01*
X422709D01*
Y92674D01*
X429451D01*
X438674Y83451D01*
Y56549D01*
X437063Y54937D01*
X436775Y54507D01*
X436674Y54000D01*
Y48504D01*
X434969D01*
Y43748D01*
X440906D01*
Y44800D01*
X447228D01*
Y40468D01*
X452772D01*
Y47783D01*
X451326D01*
Y54640D01*
X455378Y58693D01*
X456832D01*
X456960Y58667D01*
X457001D01*
X470606Y45063D01*
X471036Y44775D01*
X471543Y44675D01*
X473451D01*
X474675Y43451D01*
Y42351D01*
X474775Y41844D01*
X475063Y41414D01*
X475414Y41063D01*
X475844Y40775D01*
X476351Y40674D01*
X482214D01*
X482273Y40456D01*
X482799Y39544D01*
X483544Y38799D01*
X484456Y38273D01*
X485473Y38000D01*
X486527D01*
X487544Y38273D01*
X488456Y38799D01*
X489201Y39544D01*
X489727Y40456D01*
X490000Y41473D01*
Y42527D01*
X489727Y43544D01*
X489201Y44456D01*
X488456Y45201D01*
X487544Y45727D01*
X486527Y46000D01*
X485473D01*
X484456Y45727D01*
X483544Y45201D01*
X482799Y44456D01*
X482273Y43544D01*
X482214Y43325D01*
X477325D01*
Y44000D01*
X477225Y44507D01*
X476937Y44937D01*
X475875Y46000D01*
X478874Y49000D01*
X479162Y49430D01*
X479262Y49937D01*
Y56468D01*
X480709D01*
Y63784D01*
X475165D01*
Y56468D01*
X476612D01*
Y50486D01*
X473451Y47326D01*
X472092D01*
X458488Y60930D01*
X458260Y61082D01*
Y64630D01*
X453504D01*
Y60567D01*
X449063Y56126D01*
X448775Y55696D01*
X448674Y55189D01*
Y47783D01*
X447228D01*
Y47451D01*
X440906D01*
Y48504D01*
X439326D01*
Y53451D01*
X440937Y55063D01*
X441225Y55493D01*
X441326Y56000D01*
Y84000D01*
X441225Y84507D01*
X440937Y84937D01*
X430937Y94937D01*
X430507Y95225D01*
X430000Y95325D01*
X422709D01*
Y97658D01*
D02*
G37*
G36*
X460646Y47783D02*
X455102D01*
Y40468D01*
X456345D01*
Y38126D01*
X456461Y37541D01*
X456793Y37045D01*
X459750Y34087D01*
Y33552D01*
X460092Y32726D01*
X460725Y32092D01*
X461552Y31750D01*
X462448D01*
X463274Y32092D01*
X463907Y32726D01*
X464250Y33552D01*
Y34448D01*
X463907Y35274D01*
X463274Y35908D01*
X462448Y36250D01*
X461913D01*
X459403Y38759D01*
Y40468D01*
X460646D01*
Y47783D01*
D02*
G37*
%LPD*%
G36*
X53354Y353656D02*
Y346344D01*
X51032Y344021D01*
X48709Y346344D01*
Y353656D01*
X50678Y355625D01*
X51377Y355633D01*
X53354Y353656D01*
D02*
G37*
D14*
X146000Y92000D02*
Y134000D01*
X198865Y39135D02*
X204550D01*
X146000Y92000D02*
X198865Y39135D01*
X204550D02*
X205685Y38000D01*
Y40925D01*
X202000Y44611D02*
X205685Y40925D01*
X202000Y44611D02*
Y64000D01*
X624600Y354995D02*
X625594Y354000D01*
X626000D01*
X615740Y354995D02*
X624600D01*
X64000Y332000D02*
X65500Y330500D01*
X75842D01*
X535302Y420900D02*
X546314D01*
X354000Y276000D02*
X356000Y278000D01*
X402000Y294000D02*
X420791D01*
X356000Y278000D02*
X386000D01*
X402000Y294000D01*
X149937Y224000D02*
X162063D01*
X141915Y217915D02*
X144738D01*
X136000Y212000D02*
X141915Y217915D01*
X144738D02*
X149937Y223114D01*
Y224000D01*
X90000Y234260D02*
X90260Y234000D01*
X90000Y240000D02*
X96000Y246000D01*
X90000Y234260D02*
Y240000D01*
X110000Y278000D02*
X111051D01*
X40000Y280000D02*
Y288488D01*
X40591Y299512D02*
X51941Y288161D01*
X46000Y266000D02*
X50000Y270000D01*
X64000Y296000D02*
Y300260D01*
X51941Y288161D02*
X61839D01*
X72000Y278000D01*
X50000Y270000D02*
X72000D01*
X40000Y299512D02*
X40591D01*
X40000D02*
Y312063D01*
X64000Y300260D02*
X64240Y300500D01*
X66929Y305500D02*
X75842D01*
X64240Y300500D02*
X75842D01*
X54000Y308000D02*
X63740D01*
X64000Y307740D02*
X64689D01*
X63740Y308000D02*
X64000Y307740D01*
X64689D02*
X66929Y305500D01*
X72000Y270000D02*
Y278000D01*
X64000Y296000D02*
X82000Y278000D01*
X116000Y335658D02*
Y346000D01*
Y335658D02*
X116157Y335500D01*
Y300500D02*
X117929D01*
X118610Y299819D01*
X75842Y335500D02*
Y341843D01*
X78000Y344000D01*
X111051Y278000D02*
X127311Y294260D01*
X128000D01*
X123744D02*
X127311D01*
X118610Y299394D02*
X123744Y294260D01*
X118610Y299394D02*
Y299819D01*
X128000Y301740D02*
X135740D01*
X127311D02*
X128000D01*
X135740D02*
X138000Y304000D01*
X123551Y305500D02*
X127311Y301740D01*
X116157Y305500D02*
X123551D01*
X316000Y100000D02*
Y116679D01*
X432000Y14000D02*
X612315D01*
X398000Y48000D02*
Y74000D01*
Y48000D02*
X432000Y14000D01*
X394000Y130000D02*
X419874D01*
X422000Y132126D01*
X431874Y180126D02*
X438063D01*
X422000Y190000D02*
X431874Y180126D01*
X422000Y190000D02*
Y196000D01*
X416000Y202000D02*
X422000Y196000D01*
X394000Y202000D02*
X416000D01*
X398000Y74000D02*
Y106000D01*
Y74000D02*
X398063Y74063D01*
X433937D01*
X408063Y272063D02*
X428000D01*
X394000Y258000D02*
X408063Y272063D01*
X394000Y202000D02*
Y258000D01*
Y150000D02*
Y186000D01*
X417463Y194537D02*
X418000Y194000D01*
X422063Y291114D02*
Y292000D01*
X370000Y194537D02*
X417463D01*
X418000Y174000D02*
Y194000D01*
X394000Y110000D02*
X398000Y106000D01*
X420791Y294000D02*
X422063Y292728D01*
Y292000D02*
Y292728D01*
X418000Y174000D02*
X423874Y168126D01*
X436000Y243358D02*
X436732Y242626D01*
X436000Y243358D02*
Y285051D01*
X429937Y291114D02*
X436000Y285051D01*
X429937Y291114D02*
Y292000D01*
X468190Y55810D02*
X472000Y52000D01*
X520500Y179347D02*
Y180016D01*
X516000Y184516D02*
X520500Y180016D01*
X484728Y183626D02*
X497760D01*
X516000Y184516D02*
Y188000D01*
X484728Y148626D02*
X496524D01*
X499409Y151512D01*
X500000D01*
X515776D01*
X520500Y156236D01*
X470000Y276063D02*
Y294126D01*
Y276063D02*
X470063Y276000D01*
X477937D02*
X493535D01*
X493669Y275866D01*
X447024Y195535D02*
X455358Y187201D01*
X446437Y168626D02*
X463272D01*
X455358Y184866D02*
Y187201D01*
X455098Y180126D02*
X461598Y173626D01*
X455358Y184866D02*
X461598Y178626D01*
X463272D01*
X461598Y173626D02*
X463272D01*
X422000Y42000D02*
X422035Y42035D01*
X429437D01*
X433051Y66189D02*
X433937D01*
X429437Y42035D02*
X429472Y42071D01*
Y50181D02*
Y62610D01*
X433051Y66189D01*
X453945Y255071D02*
Y255661D01*
X458000Y264126D02*
Y276189D01*
X453945Y255071D02*
X471016Y238000D01*
X458000Y276189D02*
X469874D01*
X470000Y276063D01*
X423874Y168126D02*
X438063D01*
X422000Y132126D02*
X438063D01*
X457874Y38126D02*
Y44126D01*
Y38126D02*
X462000Y34000D01*
X463992Y61071D02*
Y61661D01*
Y61071D02*
X468190Y56873D01*
Y55810D02*
Y56873D01*
X445937Y132126D02*
Y136788D01*
Y144126D02*
Y144618D01*
Y136788D02*
X453637Y144489D01*
X445937Y156126D02*
X454098D01*
X445937Y144618D02*
X459684Y158365D01*
X453637Y144489D02*
Y145665D01*
X461598Y153626D01*
X454098Y156126D02*
X461598Y163626D01*
X459684Y158365D02*
X463011D01*
X461598Y153626D02*
X463272D01*
X461598Y163626D02*
X463272D01*
X463011Y158365D02*
X463272Y158626D01*
X436732Y242626D02*
X447563D01*
X448063Y242126D01*
Y249189D01*
X453945Y255071D01*
X428000Y246949D02*
Y264189D01*
Y246949D02*
X428268Y246681D01*
X445937Y168126D02*
X446437Y168626D01*
X447024Y195535D02*
Y196126D01*
X445937Y180126D02*
X455098D01*
X502331Y272126D02*
X517874D01*
X518000Y272000D02*
X536063D01*
X517874Y272126D02*
X518000Y272000D01*
X543937D02*
X563937D01*
X471016Y238000D02*
X472000D01*
X498000Y183866D02*
Y196126D01*
X537610Y154126D02*
X544000D01*
X558000D01*
X535500Y156236D02*
X537610Y154126D01*
X535500Y156236D02*
Y156905D01*
X564968Y196968D02*
X576000Y208000D01*
X485937Y252000D02*
Y252886D01*
X494459Y261407D02*
X495081D01*
X485937Y252886D02*
X494459Y261407D01*
X502331Y268657D02*
Y272126D01*
X495081Y261407D02*
X502331Y268657D01*
X564000Y240000D02*
Y248949D01*
X563937Y272000D02*
X564000Y271937D01*
Y290000D01*
Y255051D02*
Y264063D01*
X552000Y194614D02*
X554354Y196968D01*
X564968D01*
X485811Y60126D02*
Y66236D01*
X482000Y70047D02*
X485811Y66236D01*
X482000Y70047D02*
Y74000D01*
X484126Y76126D02*
X498268D01*
X482000Y74000D02*
X484126Y76126D01*
X498268D02*
X515937D01*
X528492Y138189D02*
X536681Y130000D01*
X520500Y156236D02*
Y156905D01*
X528000Y138189D02*
X528492D01*
X478063Y244063D02*
Y252000D01*
X550488Y196126D02*
X552000Y194614D01*
X537937Y196126D02*
X550488D01*
X552000Y205638D02*
X552362Y206000D01*
X564000D01*
X516000Y60000D02*
Y68189D01*
X558000Y50949D02*
X558063Y50886D01*
X558000Y57051D02*
Y68063D01*
Y42000D02*
Y50949D01*
X515937Y68252D02*
X516000Y68189D01*
X515937Y76126D02*
X532201D01*
X534063Y74000D02*
Y74264D01*
X532201Y76126D02*
X534063Y74264D01*
X541937Y74000D02*
X555177D01*
X569947Y317947D02*
X572000D01*
X588000Y276000D02*
X588000Y130000D01*
X576000Y208000D02*
Y292000D01*
X556000Y298000D02*
X564000Y290000D01*
X556000Y304000D02*
X569947Y317947D01*
X568000Y292000D02*
X576000D01*
X556000Y304000D02*
X568000Y292000D01*
X576000D02*
X578000D01*
X472000Y238000D02*
X478063Y244063D01*
X556000Y298000D02*
Y304000D01*
X555177Y74000D02*
X557114Y75937D01*
X558000D01*
X560157Y77209D02*
Y78095D01*
X558886Y75937D02*
X560157Y77209D01*
X558000Y75937D02*
X558886D01*
X560157Y78095D02*
X588000Y105937D01*
Y130000D01*
X536681D02*
X588000D01*
X612315Y14000D02*
X634315Y36000D01*
X618106Y132496D02*
X620110Y134500D01*
X620780D01*
X617993Y132496D02*
X618106D01*
X614000Y128503D02*
X617993Y132496D01*
X614000Y107824D02*
Y128503D01*
Y107824D02*
X628000Y93823D01*
Y74000D02*
Y93823D01*
Y49370D02*
Y74000D01*
X614630Y36000D02*
X628000Y49370D01*
X658000Y51685D02*
X673685Y36000D01*
X658000Y51685D02*
Y74000D01*
X670000Y86000D01*
X694000D01*
X696000Y88000D01*
X648000Y42000D02*
X654000Y36000D01*
X648000Y42000D02*
Y74000D01*
X670000Y96000D01*
X690000D01*
X634315Y38925D02*
X638000Y42610D01*
Y74000D01*
X634315Y36000D02*
Y38925D01*
X673937Y107114D02*
Y108000D01*
X641987Y75165D02*
X673937Y107114D01*
X639165Y75165D02*
X641987D01*
X638000Y74000D02*
X639165Y75165D01*
X690000Y96000D02*
Y188000D01*
X668055Y121535D02*
X672465D01*
X676000Y118000D01*
X612000Y266000D02*
Y298000D01*
Y266000D02*
X690000Y188000D01*
X696000Y88000D02*
Y196000D01*
X682000Y210000D02*
X696000Y196000D01*
X624000Y314000D02*
X628000D01*
X682000Y210000D02*
Y260000D01*
X628000Y314000D02*
X682000Y260000D01*
X578000Y292000D02*
X600000Y314000D01*
X588000Y276000D02*
X606000Y294000D01*
X608000D02*
X612000Y298000D01*
X606000Y294000D02*
X608000D01*
X612000Y298000D02*
Y354995D01*
X341721Y194000D02*
X342500Y193220D01*
Y193167D02*
Y193220D01*
X332000Y194000D02*
X341721D01*
X225370Y38000D02*
X236000D01*
X246000Y48000D01*
X152049Y140049D02*
X184000D01*
X146000Y134000D02*
X152049Y140049D01*
X349200Y147137D02*
X358693Y156630D01*
X357500Y163986D02*
Y171907D01*
X268000Y126000D02*
X268406D01*
X269006Y126600D01*
X278000D01*
Y134474D02*
Y142600D01*
X225370Y38000D02*
Y81065D01*
X238000Y78537D02*
Y90474D01*
X238063Y90537D01*
X244000Y114537D02*
Y125486D01*
X240689Y128797D02*
X244000Y125486D01*
X230630Y128037D02*
X239240D01*
X240000Y128797D01*
X240689D01*
X227512Y90537D02*
X238063D01*
X227512D02*
Y111691D01*
X228858Y113037D01*
X230630D01*
X216488Y89947D02*
Y90537D01*
Y89947D02*
X225370Y81065D01*
X368000Y86000D02*
Y94498D01*
X358693Y156630D02*
Y158970D01*
X357500Y163986D02*
X360260Y161226D01*
X358693Y158970D02*
X360260Y160537D01*
Y161226D01*
X357500Y194939D02*
X364000Y201439D01*
Y220474D02*
Y230435D01*
Y201439D02*
Y212600D01*
X358279Y194537D02*
X370000D01*
X364000Y236537D02*
X370131D01*
X371594Y238000D01*
X372000D01*
X370000Y194537D02*
X376000Y200537D01*
X354000Y276000D02*
X376000Y254000D01*
X347500Y193167D02*
X347750Y193417D01*
X357500Y193167D02*
Y193757D01*
X358279Y194537D01*
X357500Y193757D02*
Y194939D01*
X352500Y193167D02*
Y198500D01*
X354000Y200000D01*
X347750Y193417D02*
Y206287D01*
X299512Y197120D02*
X316000Y213608D01*
X347750Y206287D02*
X348000Y206537D01*
X299512Y192537D02*
Y197120D01*
X260000Y212537D02*
X275051D01*
X279114Y216600D01*
X280000D01*
X260000Y212537D02*
Y232000D01*
X280000Y224474D02*
Y232600D01*
X260000Y232000D02*
X304000Y276000D01*
X354000Y200000D02*
Y216000D01*
X340929Y213608D02*
X348000Y206537D01*
X316000Y213608D02*
X340929D01*
X337400Y232600D02*
X354000Y216000D01*
X280000Y232600D02*
X337400D01*
X316000Y247466D02*
Y264000D01*
X304000Y276000D02*
X310000D01*
X320000D02*
X354000D01*
X281016Y184474D02*
X288488Y191946D01*
Y192537D01*
Y208998D01*
X280000Y216600D02*
X280886D01*
X288488Y208998D01*
X260795Y185537D02*
X272937D01*
X274000Y184474D02*
X281016D01*
X272937Y185537D02*
X274000Y184474D01*
X618000Y162126D02*
Y186000D01*
Y162126D02*
X618126Y162000D01*
X666063Y108000D02*
Y108886D01*
X659945Y115004D02*
Y121535D01*
Y115004D02*
X666063Y108886D01*
X664000Y130000D02*
Y130591D01*
X670000Y136591D02*
Y140063D01*
X664000Y130591D02*
X670000Y136591D01*
X646000Y118000D02*
X658000Y130000D01*
X664000D01*
X634000Y118000D02*
X646000D01*
X623453Y127496D02*
X624504D01*
X620780Y129500D02*
X621449D01*
X623453Y127496D01*
X624504D02*
X634000Y118000D01*
X653740Y163740D02*
X658000Y168000D01*
X653740Y150000D02*
Y163740D01*
X643890Y139500D02*
X652134Y147744D01*
X653740Y149311D02*
Y150000D01*
X643221Y139500D02*
X643890D01*
X652134Y147744D02*
X652173D01*
X653740Y149311D01*
X636000Y148000D02*
X638000Y150000D01*
X646260D01*
X638000Y154000D02*
X643114Y159114D01*
Y162000D01*
X626000D02*
X637012D01*
X606000Y148988D02*
X618126Y161114D01*
X606000Y137512D02*
Y148988D01*
X618126Y161114D02*
Y162000D01*
X620780Y134500D02*
Y139500D01*
X616000Y140000D02*
X620280D01*
X620780Y139500D01*
X613512Y137512D02*
X616000Y140000D01*
X606000Y137512D02*
X613512D01*
X620000Y123721D02*
X620780Y124500D01*
X620000Y116000D02*
Y123721D01*
X606000Y116000D02*
Y126488D01*
X572000Y317947D02*
X608260Y354207D01*
Y354995D01*
X376000Y200537D02*
Y254000D01*
X518406Y420000D02*
X519306Y420900D01*
X518000Y420000D02*
X518406D01*
X519306Y420900D02*
X529200D01*
X450000Y366000D02*
Y376037D01*
X450401Y376438D01*
X480000Y364000D02*
Y376037D01*
X480401Y376438D01*
X506000Y358000D02*
Y368000D01*
X597700Y361860D02*
X598000Y361560D01*
Y354000D02*
Y361560D01*
X623512Y386000D02*
X636000D01*
X412645Y421051D02*
X413594Y422000D01*
X414000D01*
X404300Y421051D02*
X412645D01*
X404500Y398386D02*
Y414749D01*
X404300Y414949D02*
X404500Y414749D01*
Y390512D02*
X416327D01*
X430401Y376438D01*
X597700Y369340D02*
X606513D01*
X608260Y367593D01*
Y366806D02*
Y367593D01*
X590800Y366800D02*
X593340Y369340D01*
X597700D01*
X584300Y366800D02*
X590800D01*
D16*
X164941Y338764D02*
Y411756D01*
Y338764D02*
X362933D01*
Y411756D01*
X164941D02*
X362933D01*
X164941Y338764D02*
Y411756D01*
Y338764D02*
X362933D01*
Y411756D01*
X164941D02*
X362933D01*
D17*
X326000Y310000D02*
Y317740D01*
X326260Y318000D01*
X112000Y220000D02*
X122000D01*
X99744D02*
X112000D01*
X97937Y221807D02*
X99744Y220000D01*
X97937Y221807D02*
Y224071D01*
X98115Y209946D02*
X111946D01*
X112000Y210000D01*
X122000Y220000D02*
X132000Y230000D01*
X97937Y207929D02*
Y209769D01*
X98115Y209946D01*
X132000Y230000D02*
X166000D01*
X134000Y222000D02*
X136000Y224000D01*
X142063D01*
X146000Y198000D02*
Y212000D01*
X91958Y205026D02*
Y207856D01*
X87958Y201026D02*
X91958Y205026D01*
Y207856D02*
X92032Y207929D01*
X71958Y201026D02*
X87958D01*
X76000Y186000D02*
X83544Y193544D01*
X90260Y195311D02*
Y196000D01*
X88493Y193544D02*
X90260Y195311D01*
X83544Y193544D02*
X88493D01*
X90260Y196000D02*
Y200139D01*
X94000Y203879D01*
Y207929D01*
X95969Y202894D02*
X97740Y201123D01*
Y196000D02*
Y201123D01*
X95969Y202894D02*
Y207929D01*
X97740Y195311D02*
Y196000D01*
X82000Y176000D02*
X82872Y176873D01*
Y180443D01*
X97740Y195311D01*
X76000Y226000D02*
X89885D01*
X90063Y224071D02*
Y225822D01*
X89885Y226000D02*
X90063Y225822D01*
X82000Y230000D02*
X83873Y228127D01*
X90805D02*
X91958Y226974D01*
Y224144D02*
X92032Y224071D01*
X91468Y229727D02*
X93927Y227268D01*
Y224144D02*
Y227268D01*
X90877Y229727D02*
X91468D01*
X83873Y228127D02*
X90805D01*
X90260Y230344D02*
X90877Y229727D01*
X91958Y224144D02*
Y226974D01*
X90260Y230344D02*
Y234000D01*
X93927Y224144D02*
X94000Y224071D01*
X164000Y242000D02*
Y249937D01*
X164063Y250000D01*
X97740Y234000D02*
X106000D01*
X95969Y231539D02*
X97740Y233311D01*
Y234000D01*
X95969Y224071D02*
Y231539D01*
X62932Y177068D02*
Y192000D01*
X71958Y201026D01*
X114000Y190000D02*
X122000Y198000D01*
X114000Y172000D02*
Y190000D01*
X222000Y398000D02*
X223937Y399937D01*
Y405260D01*
X253937Y343792D02*
Y345260D01*
X252000Y308000D02*
Y341855D01*
X260000Y319937D02*
Y341323D01*
X252000Y341855D02*
X253937Y343792D01*
X260000Y341323D02*
X263937Y345260D01*
Y405260D02*
X263968Y405228D01*
X218000Y256000D02*
Y286063D01*
X227000Y281000D02*
X232000Y286000D01*
X227000Y253000D02*
Y281000D01*
X222000Y256000D02*
Y282000D01*
X259000Y311063D02*
X260000Y312063D01*
X259508D02*
X260000D01*
X243937Y320000D02*
X244000Y319937D01*
X218000Y286063D02*
X244000Y312063D01*
X214000Y254263D02*
Y325323D01*
X260000Y378000D02*
X273937Y391937D01*
X263968Y394032D02*
X264000Y394000D01*
X273937Y391937D02*
Y405260D01*
X252000Y398000D02*
X253937Y399937D01*
X263968Y394032D02*
Y405228D01*
X253937Y399937D02*
Y405260D01*
X206000Y354000D02*
Y364000D01*
X219839Y363642D02*
X220197Y364000D01*
X230000D01*
X206000D02*
X220000Y378000D01*
X260000D01*
X106000Y336351D02*
X106351Y336000D01*
X106000Y336351D02*
Y346000D01*
X106351Y336000D02*
X108886D01*
X114386Y330500D02*
X116157D01*
X108886Y336000D02*
X114386Y330500D01*
X118000Y176000D02*
X120000Y178000D01*
X116000Y166550D02*
X121450Y172000D01*
X132000Y162000D02*
Y178000D01*
X140000Y162000D02*
Y178000D01*
X121450Y172000D02*
X124000D01*
X120000Y178000D02*
X124000D01*
X118000Y162000D02*
X120000Y164000D01*
X122000D01*
X124000Y166000D01*
X136000Y188000D02*
X146000Y198000D01*
X122000D02*
X136000D01*
X147874Y254063D02*
Y264000D01*
Y254063D02*
X148000Y253937D01*
Y188263D02*
X214000Y254263D01*
X154000Y188000D02*
X222000Y256000D01*
X152000Y190000D02*
X218000Y256000D01*
X166000Y230000D02*
X186745Y250745D01*
X148000Y238000D02*
Y246063D01*
X171937Y250000D02*
X172000Y250063D01*
X164063Y250000D02*
X166000Y251937D01*
X172000Y250063D02*
Y260000D01*
X147874Y264000D02*
X158000D01*
X166000Y251937D02*
Y267937D01*
X186745Y250745D02*
Y283881D01*
X157937Y276000D02*
X166000Y267937D01*
X157937Y276000D02*
X158000Y276063D01*
Y290000D01*
X185145Y285481D02*
X186745Y283881D01*
X185145Y285481D02*
Y288958D01*
X182591Y291512D02*
X185145Y288958D01*
X182000Y291512D02*
X182591D01*
X182000D02*
Y296000D01*
X196249Y310249D01*
X169512Y304000D02*
X182000D01*
X196249Y310249D02*
X208249D01*
Y348749D01*
X243937Y320000D02*
Y345260D01*
X214000Y325323D02*
X233937Y345260D01*
X208249Y348749D02*
X209000Y349500D01*
Y351000D01*
X206000Y354000D02*
X209000Y351000D01*
X232000Y286000D02*
X233445D01*
X222000Y282000D02*
X244000Y304000D01*
X233445Y286000D02*
X259508Y312063D01*
X244000Y304000D02*
X248000D01*
X252000Y308000D01*
X62932Y177068D02*
X74000Y166000D01*
X108000D01*
X114000Y172000D01*
X112000Y167737D02*
X118000Y173737D01*
Y176000D01*
X156000Y182000D02*
X227000Y253000D01*
X156000Y170394D02*
Y182000D01*
X166000Y108000D02*
X180514D01*
X160000D02*
X166000D01*
X152000Y176000D02*
Y190000D01*
X154000Y174257D02*
Y188000D01*
X148000Y178000D02*
Y188263D01*
X388000Y190000D02*
X400000D01*
X388000Y198000D02*
X400000D01*
X388000Y136000D02*
X400000D01*
X388000Y144000D02*
X400000D01*
X388000Y124000D02*
X400000D01*
X388000Y116000D02*
X400000D01*
X435509Y141572D02*
X436001D01*
X433937Y140000D02*
X435509Y141572D01*
X438063Y143634D02*
Y144126D01*
X436001Y141572D02*
X438063Y143634D01*
X368000Y139648D02*
X368352Y140000D01*
X368000Y120474D02*
Y139648D01*
X368352Y140000D02*
X433937D01*
X412063Y94000D02*
Y115937D01*
X408000Y120000D02*
X412063Y115937D01*
X368474Y120000D02*
X408000D01*
X368000Y120474D02*
X368474Y120000D01*
X438000Y46189D02*
Y54000D01*
X437937Y46126D02*
X438000Y46189D01*
Y54000D02*
X440000Y56000D01*
Y84000D01*
X419937Y94000D02*
X430000D01*
X440000Y84000D01*
X476351Y42000D02*
X486000D01*
X476000Y42351D02*
X476351Y42000D01*
X476000Y42351D02*
Y44000D01*
X474000Y46000D02*
X476000Y44000D01*
X471543Y46000D02*
X474000D01*
X477937Y49937D01*
Y60126D01*
X500000Y124000D02*
Y140488D01*
X498000Y168000D02*
Y176386D01*
X498386Y176000D01*
X497760Y183626D02*
X498000Y183866D01*
X499763Y140251D02*
X500000Y140488D01*
X489347Y80126D02*
X489606Y79866D01*
X470000Y79472D02*
Y80126D01*
X477874D02*
X489347D01*
X455937Y242126D02*
X456000Y242063D01*
Y234000D02*
Y242063D01*
X450169Y199271D02*
X462898Y212000D01*
X462055Y251945D02*
Y255661D01*
Y251945D02*
X466000Y248000D01*
X437937Y46126D02*
X448528D01*
X450000Y44654D01*
Y55189D01*
Y44126D02*
Y44654D01*
Y55189D02*
X455882Y61071D01*
Y61661D01*
X455937Y80252D02*
X456823D01*
X455882Y61071D02*
X456960Y59993D01*
X457550D01*
X456823Y80252D02*
X459937Y77138D01*
Y70126D02*
Y77138D01*
X465138D01*
X457550Y59993D02*
X471543Y46000D01*
X465138Y77138D02*
X466000Y78000D01*
X468528D01*
X470000Y79472D01*
X463272Y141243D02*
Y148626D01*
Y141243D02*
X464000Y140514D01*
Y140000D02*
Y140514D01*
X420000Y238000D02*
X427697D01*
X428268Y238571D01*
X426000Y196000D02*
X435874D01*
X436000Y196126D01*
X447024D02*
Y196716D01*
X449578Y199271D01*
X450169D01*
X544000Y138000D02*
Y146646D01*
X525500Y156905D02*
X530500D01*
Y179347D02*
X535500D01*
X525500D02*
Y186500D01*
X530500Y179347D02*
Y195689D01*
X528000Y146063D02*
X528438D01*
X530500Y148125D01*
Y156905D01*
X462898Y212000D02*
X500000D01*
X530063Y196126D02*
X530500Y195689D01*
X500000Y212000D02*
X525500Y186500D01*
X518000Y256000D02*
Y264126D01*
X469937Y80189D02*
X470000Y80126D01*
X469937Y80189D02*
Y100126D01*
X422000Y110000D02*
Y121102D01*
X616000Y308000D02*
Y320000D01*
X608000Y308000D02*
Y320000D01*
X178000Y72000D02*
X184000Y66000D01*
Y62000D02*
Y66000D01*
X148000Y160000D02*
Y162394D01*
X156000Y170394D01*
X164263Y184000D02*
X203794D01*
X160000Y152351D02*
Y179737D01*
X164263Y184000D01*
X148000Y168257D02*
X154000Y174257D01*
X148000Y166000D02*
Y168257D01*
Y172000D02*
X152000Y176000D01*
X160352Y152000D02*
X188000D01*
X160000Y152351D02*
X160352Y152000D01*
X124000Y130000D02*
Y160000D01*
Y130000D02*
X134000Y120000D01*
X118000Y126000D02*
Y162000D01*
Y126000D02*
X134000Y110000D01*
X112000Y34000D02*
Y167737D01*
X116000Y34000D02*
Y166550D01*
Y34000D02*
X132000Y18000D01*
X130000Y16000D02*
X254000D01*
X112000Y34000D02*
X130000Y16000D01*
X132000Y18000D02*
X252000D01*
X270000Y36000D01*
Y46537D01*
X238000Y78537D02*
X270000Y46537D01*
X274173Y36173D02*
Y62363D01*
X254000Y16000D02*
X274173Y36173D01*
X173051Y158000D02*
X181526D01*
X182063Y158537D01*
X166949Y158000D02*
Y161898D01*
X168000Y162949D02*
Y163463D01*
X166949Y161898D02*
X168000Y162949D01*
X136000Y156000D02*
Y188000D01*
X158000Y110000D02*
X160000Y108000D01*
X150000D02*
Y120000D01*
X142000Y108000D02*
Y120000D01*
X160000D02*
X166000D01*
X158000Y122000D02*
X160000Y120000D01*
X183114Y118474D02*
X184000D01*
X166000Y120000D02*
X181588D01*
X183114Y118474D01*
X184000Y101025D02*
X184488Y100537D01*
X184000Y101025D02*
Y110600D01*
X183114D02*
X184000D01*
X180514Y108000D02*
X183114Y110600D01*
X184000Y118474D02*
X208933D01*
X209370Y118037D01*
X184000Y118474D02*
Y129025D01*
X339085Y141436D02*
Y161720D01*
X316000Y150537D02*
X325542Y160080D01*
X302066Y164471D02*
X316000Y150537D01*
X342000Y156000D02*
X352500Y166500D01*
X284734Y170537D02*
X288488D01*
X325542Y160080D02*
Y166079D01*
X339085Y161720D02*
X347500Y170135D01*
X302066Y164471D02*
Y167983D01*
X325542Y166079D02*
X330000Y170537D01*
X352500Y166500D02*
Y171907D01*
X299512Y170537D02*
X302066Y167983D01*
X301463Y88537D02*
X312000D01*
X270049Y90000D02*
X280000D01*
X269512Y90537D02*
X270049Y90000D01*
X322000Y88537D02*
X356000Y122537D01*
X256000Y134000D02*
X301463Y88537D01*
X351463Y122537D02*
X356000D01*
X342000Y132000D02*
X351463Y122537D01*
X287486Y134000D02*
X331648D01*
X339085Y141436D01*
X278886Y142600D02*
X287486Y134000D01*
X278000Y142600D02*
X278886D01*
X342000Y132000D02*
Y156000D01*
X210465Y188180D02*
X211937Y189651D01*
X258000Y90049D02*
X258488Y90537D01*
X245937D02*
X258488D01*
X196049Y100000D02*
X204000D01*
X195512Y100537D02*
X196049Y100000D01*
X198514Y112000D02*
X199551Y113037D01*
X198000Y112000D02*
X198514D01*
X258000Y78537D02*
Y90049D01*
X231723Y136277D02*
X240000D01*
X256000Y134000D02*
Y146537D01*
X255402D02*
X256000D01*
X273177D01*
X277114Y150474D01*
X278000D01*
X246795Y155143D02*
X255402Y146537D01*
X278000Y150474D02*
Y157486D01*
X246795Y155143D02*
Y155537D01*
X274886Y160600D02*
X278000Y157486D01*
X274000Y160600D02*
X274886D01*
X280546Y166260D01*
Y166349D01*
X264000Y168000D02*
X273526D01*
X223858Y123037D02*
X228858Y118037D01*
X230630D01*
X368000Y100600D02*
Y112600D01*
X356000Y122537D02*
X365051D01*
X367114Y120474D01*
X368000D01*
X367740Y160537D02*
X368277Y160000D01*
X376000D01*
X235205Y195537D02*
Y195931D01*
X232661Y198474D02*
X235205Y195931D01*
X222000Y198474D02*
X232661D01*
X280000Y240474D02*
Y248000D01*
X330000Y170537D02*
X341521D01*
X347500Y170135D02*
Y171907D01*
X341521Y170537D02*
X342500Y171517D01*
Y171907D01*
X273526Y168000D02*
X274000Y168474D01*
X280546Y166349D02*
X284734Y170537D01*
X264000Y176000D02*
X273400D01*
X274000Y176600D01*
X227537Y185537D02*
X235205D01*
X224000Y182000D02*
X227537Y185537D01*
X203794Y184000D02*
X207973Y188180D01*
X210465D01*
X221937Y190537D02*
X222000Y190600D01*
X211937Y190537D02*
X221937D01*
X211937Y189651D02*
Y190537D01*
X189937Y158537D02*
Y159423D01*
X191409Y156600D02*
X204000D01*
X189937Y158072D02*
X191409Y156600D01*
X188000Y152000D02*
X206619Y133381D01*
X187144Y148000D02*
X196000Y139144D01*
X189937Y158072D02*
Y158537D01*
X188465Y160895D02*
X189937Y159423D01*
X196000Y128000D02*
Y139144D01*
Y128000D02*
X200963Y123037D01*
X209370D01*
X199551Y113037D02*
X209370D01*
X228858Y123037D02*
X230630D01*
X209370D02*
X223858D01*
X225895Y126000D02*
X228858Y123037D01*
X222000Y126000D02*
X225895D01*
X207598Y128037D02*
X209370D01*
X206619Y129016D02*
X207598Y128037D01*
X212000Y136000D02*
X222000Y126000D01*
X195051Y190537D02*
X204063D01*
X175680Y172000D02*
X186785Y160895D01*
X168000Y172000D02*
X175680D01*
X178000Y190000D02*
X188412D01*
X188949Y190537D01*
X221205Y155275D02*
Y155537D01*
X204000Y152000D02*
X212000Y144000D01*
Y154000D02*
X219930D01*
X204000Y152000D02*
Y156600D01*
X219930Y154000D02*
X221205Y155275D01*
X204000Y164474D02*
X220142D01*
X221205Y165537D01*
X186785Y160895D02*
X188465D01*
X206619Y129016D02*
Y133381D01*
X230000Y138000D02*
X231723Y136277D01*
X212000Y136000D02*
Y144000D01*
X258000Y78537D02*
X274173Y62363D01*
X211937Y190537D02*
Y200600D01*
X204000Y208537D02*
X211937Y200600D01*
X136000Y156000D02*
X144000Y148000D01*
X187144D01*
X615740Y366681D02*
Y366806D01*
Y366681D02*
X616621Y365800D01*
X631000D01*
X615740Y366806D02*
Y367593D01*
X612488Y370845D02*
Y386000D01*
Y370845D02*
X615740Y367593D01*
X611200Y387288D02*
X612488Y386000D01*
X611200Y387288D02*
Y407375D01*
D19*
X217465Y151285D02*
Y169789D01*
X250535Y151285D02*
Y169789D01*
X217465D02*
X250535D01*
X217465Y151285D02*
X250535D01*
X231465Y181285D02*
Y199789D01*
X264535Y181285D02*
Y199789D01*
X231465D02*
X264535D01*
X231465Y181285D02*
X264535D01*
D20*
X232031Y160537D02*
X235968D01*
X234000Y158569D02*
Y162505D01*
X246031Y190537D02*
X249969D01*
X248000Y188568D02*
Y192506D01*
D21*
X260000Y319937D02*
D03*
Y312063D02*
D03*
X244000Y319937D02*
D03*
Y312063D02*
D03*
X148000Y246063D02*
D03*
Y253937D02*
D03*
X528000Y146063D02*
D03*
Y138189D02*
D03*
D22*
X97740Y234000D02*
D03*
X90260D02*
D03*
X97740Y196000D02*
D03*
X90260D02*
D03*
X333740Y318000D02*
D03*
X326260D02*
D03*
X360260Y160537D02*
D03*
X367740D02*
D03*
X646260Y150000D02*
D03*
X653740D02*
D03*
D23*
X97937Y224071D02*
D03*
X95969D02*
D03*
X94000D02*
D03*
X92032D02*
D03*
X90063D02*
D03*
X97937Y207929D02*
D03*
X95969D02*
D03*
X94000D02*
D03*
X92032D02*
D03*
X90063D02*
D03*
D24*
X116157Y300500D02*
D03*
Y305500D02*
D03*
Y310500D02*
D03*
Y315500D02*
D03*
Y320500D02*
D03*
Y325500D02*
D03*
Y330500D02*
D03*
Y335500D02*
D03*
X75842Y300500D02*
D03*
Y305500D02*
D03*
Y310500D02*
D03*
Y315500D02*
D03*
Y320500D02*
D03*
Y325500D02*
D03*
Y330500D02*
D03*
Y335500D02*
D03*
D25*
X284000Y318000D02*
D03*
X130000Y254000D02*
D03*
X472000Y238000D02*
D03*
X556000Y304000D02*
D03*
X470000Y294126D02*
D03*
X612000Y298000D02*
D03*
X469937Y100126D02*
D03*
X486000Y42000D02*
D03*
X178000Y72000D02*
D03*
X246000Y48000D02*
D03*
X202000Y64000D02*
D03*
X256000Y146537D02*
D03*
X168000Y172000D02*
D03*
X238000Y78537D02*
D03*
X258000D02*
D03*
X356000Y122537D02*
D03*
X330000Y170537D02*
D03*
X348000Y206537D02*
D03*
X166000Y108000D02*
D03*
X370000Y194537D02*
D03*
X260000Y212537D02*
D03*
X166000Y120000D02*
D03*
X204000Y208537D02*
D03*
X399400Y368100D02*
D03*
X578700Y387800D02*
D03*
X631000Y365800D02*
D03*
X618000Y186000D02*
D03*
D26*
X45937Y350000D02*
D03*
X38063D02*
D03*
X56126D02*
D03*
X64000D02*
D03*
X142063Y224000D02*
D03*
X149937D02*
D03*
X169937D02*
D03*
X162063D02*
D03*
X422063Y292000D02*
D03*
X429937D02*
D03*
X485937Y252000D02*
D03*
X478063D02*
D03*
X455937Y242126D02*
D03*
X448063D02*
D03*
X477937Y276000D02*
D03*
X470063D02*
D03*
X477937Y60126D02*
D03*
X485811D02*
D03*
X450000Y44126D02*
D03*
X457874D02*
D03*
X419937Y94000D02*
D03*
X412063D02*
D03*
X470000Y80126D02*
D03*
X477874D02*
D03*
X182063Y158537D02*
D03*
X189937D02*
D03*
X245937Y90537D02*
D03*
X238063D02*
D03*
X204063Y190537D02*
D03*
X211937D02*
D03*
X546314Y420900D02*
D03*
X554188D02*
D03*
X626000Y162000D02*
D03*
X618126D02*
D03*
X673937Y108000D02*
D03*
X666063D02*
D03*
D27*
X40000Y299512D02*
D03*
Y288488D02*
D03*
X182000Y291512D02*
D03*
Y280488D02*
D03*
X552000Y194614D02*
D03*
Y205638D02*
D03*
X422000Y132126D02*
D03*
Y121102D02*
D03*
X500000Y151512D02*
D03*
Y140488D02*
D03*
X184000Y140049D02*
D03*
Y129025D02*
D03*
X606000Y137512D02*
D03*
Y126488D02*
D03*
D28*
X40000Y312063D02*
D03*
Y319937D02*
D03*
X458000Y276189D02*
D03*
Y284063D02*
D03*
X518000Y264126D02*
D03*
Y272000D02*
D03*
X428000Y264189D02*
D03*
Y272063D02*
D03*
X564000Y264063D02*
D03*
Y271937D02*
D03*
X515937Y76126D02*
D03*
Y68252D02*
D03*
X433937Y74063D02*
D03*
Y66189D02*
D03*
X558000Y75937D02*
D03*
Y68063D02*
D03*
X455937Y88126D02*
D03*
Y80252D02*
D03*
X364000Y220474D02*
D03*
Y212600D02*
D03*
X204000Y156600D02*
D03*
Y164474D02*
D03*
X274000Y168474D02*
D03*
Y160600D02*
D03*
X278000Y126600D02*
D03*
Y134474D02*
D03*
Y142600D02*
D03*
Y150474D02*
D03*
X368000Y112600D02*
D03*
Y120474D02*
D03*
X274000Y176600D02*
D03*
Y184474D02*
D03*
X184000Y110600D02*
D03*
Y118474D02*
D03*
X222000Y190600D02*
D03*
Y198474D02*
D03*
X280000Y232600D02*
D03*
Y240474D02*
D03*
Y224474D02*
D03*
Y216600D02*
D03*
X404500Y398386D02*
D03*
Y390512D02*
D03*
X670000Y140063D02*
D03*
Y147937D02*
D03*
D29*
X171937Y250000D02*
D03*
X164063D02*
D03*
X147874Y264000D02*
D03*
X140000D02*
D03*
X157937Y276000D02*
D03*
X150063D02*
D03*
X534063Y74000D02*
D03*
X541937D02*
D03*
X536063Y272000D02*
D03*
X543937D02*
D03*
X438063Y156126D02*
D03*
X445937D02*
D03*
X438063Y144126D02*
D03*
X445937D02*
D03*
X438063Y132126D02*
D03*
X445937D02*
D03*
X438063Y180126D02*
D03*
X445937D02*
D03*
X438063Y168126D02*
D03*
X445937D02*
D03*
X537937Y196126D02*
D03*
X530063D02*
D03*
D30*
X169512Y304000D02*
D03*
X158488D02*
D03*
X447024Y196126D02*
D03*
X436000D02*
D03*
X258488Y90537D02*
D03*
X269512D02*
D03*
X216488D02*
D03*
X227512D02*
D03*
X299512Y170537D02*
D03*
X288488D02*
D03*
X184488Y100537D02*
D03*
X195512D02*
D03*
X288488Y192537D02*
D03*
X299512D02*
D03*
X623512Y386000D02*
D03*
X612488D02*
D03*
D31*
X64000Y300260D02*
D03*
Y307740D02*
D03*
X128000Y294260D02*
D03*
Y301740D02*
D03*
X219839Y356161D02*
D03*
Y363642D02*
D03*
X544000Y154126D02*
D03*
Y146646D02*
D03*
X498000Y176386D02*
D03*
Y183866D02*
D03*
X240000Y136277D02*
D03*
Y128797D02*
D03*
X506000Y375480D02*
D03*
Y368000D02*
D03*
X597700Y361860D02*
D03*
Y369340D02*
D03*
D32*
X535500Y179347D02*
D03*
X530500D02*
D03*
X525500D02*
D03*
X520500D02*
D03*
X535500Y156905D02*
D03*
X530500D02*
D03*
X525500D02*
D03*
X520500D02*
D03*
D33*
X484728Y148626D02*
D03*
Y153626D02*
D03*
Y158626D02*
D03*
Y163626D02*
D03*
Y168626D02*
D03*
Y173626D02*
D03*
Y178626D02*
D03*
Y183626D02*
D03*
X463272Y148626D02*
D03*
Y153626D02*
D03*
Y158626D02*
D03*
Y163626D02*
D03*
Y168626D02*
D03*
Y173626D02*
D03*
Y178626D02*
D03*
Y183626D02*
D03*
D34*
X428268Y246681D02*
D03*
Y238571D02*
D03*
X436732Y242626D02*
D03*
X437937Y46126D02*
D03*
X429472Y42071D02*
D03*
Y50181D02*
D03*
D35*
X502331Y272126D02*
D03*
X493669Y268386D02*
D03*
Y275866D02*
D03*
X489606Y79866D02*
D03*
Y72386D02*
D03*
X498268Y76126D02*
D03*
D36*
X453945Y255661D02*
D03*
X462055D02*
D03*
X458000Y264126D02*
D03*
X459937Y70126D02*
D03*
X463992Y61661D02*
D03*
X455882D02*
D03*
X664000Y130000D02*
D03*
X668055Y121535D02*
D03*
X659945D02*
D03*
D37*
X564000Y255051D02*
D03*
Y248949D02*
D03*
X558000Y50949D02*
D03*
Y57051D02*
D03*
X364000Y230435D02*
D03*
Y236537D02*
D03*
X368000Y100600D02*
D03*
Y94498D02*
D03*
X404300Y414949D02*
D03*
Y421051D02*
D03*
D38*
X221205Y165537D02*
D03*
Y155537D02*
D03*
X246795Y165537D02*
D03*
Y155537D02*
D03*
X235205Y195537D02*
D03*
Y185537D02*
D03*
X260795Y195537D02*
D03*
Y185537D02*
D03*
D39*
X209370Y128037D02*
D03*
Y123037D02*
D03*
Y118037D02*
D03*
Y113037D02*
D03*
X230630Y128037D02*
D03*
Y123037D02*
D03*
Y118037D02*
D03*
Y113037D02*
D03*
D40*
X357500Y193167D02*
D03*
X352500D02*
D03*
X347500D02*
D03*
X342500D02*
D03*
X357500Y171907D02*
D03*
X352500D02*
D03*
X347500D02*
D03*
X342500D02*
D03*
D41*
X195051Y190537D02*
D03*
X188949D02*
D03*
X173051Y158000D02*
D03*
X166949D02*
D03*
X535302Y420900D02*
D03*
X529200D02*
D03*
X637012Y162000D02*
D03*
X643114D02*
D03*
D42*
X316000Y150537D02*
D03*
Y116679D02*
D03*
Y247466D02*
D03*
Y213608D02*
D03*
D43*
X596200Y407375D02*
D03*
X601200D02*
D03*
X606200D02*
D03*
X611200D02*
D03*
X596200Y429225D02*
D03*
X601200D02*
D03*
X606200D02*
D03*
X611200D02*
D03*
D44*
X615740Y354995D02*
D03*
X608260D02*
D03*
X615740Y366806D02*
D03*
X608260D02*
D03*
X612000Y354995D02*
D03*
D45*
X643221Y124500D02*
D03*
Y129500D02*
D03*
Y134500D02*
D03*
Y139500D02*
D03*
X620780Y124500D02*
D03*
Y129500D02*
D03*
Y134500D02*
D03*
Y139500D02*
D03*
D79*
X601200Y407375D02*
X606200D01*
X596200D02*
X601200D01*
X427700Y362200D02*
Y363035D01*
X430401Y365736D02*
Y376438D01*
X427700Y363035D02*
X430401Y365736D01*
X491291Y375547D02*
X505933D01*
X490401Y376438D02*
X491291Y375547D01*
X505933D02*
X506000Y375480D01*
X509747Y375547D02*
X527200Y393000D01*
X506067Y375547D02*
X509747D01*
X506000Y375480D02*
X506067Y375547D01*
X554188Y409988D02*
Y420900D01*
X537200Y393000D02*
X554188Y409988D01*
X562084Y429225D02*
X596200D01*
X554188Y421329D02*
X562084Y429225D01*
X554188Y420900D02*
Y421329D01*
X596200Y429225D02*
X601200D01*
X606200D01*
X611200D01*
D80*
X114000Y262000D02*
Y272000D01*
Y254000D02*
Y262000D01*
X106000Y246000D02*
X114000Y254000D01*
Y272000D02*
X120000Y278000D01*
X269197Y430000D02*
X293937Y405260D01*
X170000Y430000D02*
X269197D01*
X184000Y416000D02*
X206000D01*
X209536Y412464D01*
Y409661D02*
Y412464D01*
X219839Y356260D02*
X292937Y356260D01*
X209536Y409661D02*
X213937Y405260D01*
X284000Y318000D02*
X300000D01*
Y319241D01*
X303937Y323178D01*
Y345260D01*
X292937Y356260D02*
X303937Y345260D01*
X84000Y370000D02*
X92000D01*
X65908Y351907D02*
X84000Y370000D01*
X134000Y366000D02*
X184000Y416000D01*
X92000Y380000D02*
Y422000D01*
X72069Y315931D02*
X75411D01*
X117929Y310500D02*
X134000Y326571D01*
X116157Y310500D02*
X117929D01*
X72069Y320069D02*
X75411D01*
X52281Y322000D02*
Y342748D01*
X55032Y319250D02*
X71250D01*
X52281Y322000D02*
X55032Y319250D01*
X134000Y326571D02*
Y366000D01*
X124000D02*
Y384000D01*
X117929Y325500D02*
X124000Y331571D01*
Y366000D01*
X116157Y325500D02*
X117929D01*
X14000Y374949D02*
X38063Y350886D01*
X75411Y320069D02*
X75842Y320500D01*
X75411Y315931D02*
X75842Y315500D01*
X28879Y442000D02*
X72000D01*
X14000Y427121D02*
X28879Y442000D01*
X72000D02*
X92000Y422000D01*
X14000Y374949D02*
Y427121D01*
X124000Y384000D02*
X170000Y430000D01*
X38063Y350000D02*
Y350886D01*
X52250Y368250D02*
X56000Y372000D01*
X48850Y374850D02*
Y387550D01*
X46000Y372000D02*
X49750Y368250D01*
X51350Y376000D02*
X55350Y372000D01*
X51350Y376000D02*
Y387550D01*
X56000Y392200D01*
X55350Y372000D02*
X56000D01*
X46000D02*
X48850Y374850D01*
X44200Y392200D02*
X48850Y387550D01*
X49782Y320965D02*
Y342748D01*
X52281Y342748D02*
X56126Y346592D01*
X71250Y319250D02*
X72069Y320069D01*
X56126Y346592D02*
Y350000D01*
X45937Y346592D02*
Y350000D01*
Y346592D02*
X49782Y342748D01*
X71250Y316750D02*
X72069Y315931D01*
X53996Y316750D02*
X71250D01*
X49782Y320965D02*
X53996Y316750D01*
X56126Y350000D02*
Y353408D01*
X45937Y350000D02*
Y353408D01*
X64000Y350000D02*
Y350886D01*
X65022Y351907D02*
X65908D01*
X64000Y350886D02*
X65022Y351907D01*
X52250Y357283D02*
Y368250D01*
Y357283D02*
X56126Y353408D01*
X45937D02*
X49750Y357221D01*
Y368250D01*
X114000Y254000D02*
X130000D01*
X130492D01*
X140000Y263508D01*
Y264000D01*
Y264492D01*
X148451Y272943D01*
Y274388D01*
X150063Y276000D01*
Y294984D01*
X158488Y303410D01*
X181409Y280488D02*
X182000D01*
X158488Y303410D02*
X181409Y280488D01*
X158488Y303410D02*
Y304000D01*
X160592Y306104D01*
Y310593D01*
X162000Y312000D01*
X170677D01*
X203937Y345260D01*
X213937D02*
X219839Y351161D01*
Y356161D01*
D81*
X112000Y220000D02*
D03*
Y210000D02*
D03*
X102000Y176000D02*
D03*
X92000D02*
D03*
X82000D02*
D03*
X96000Y246000D02*
D03*
X106000D02*
D03*
X116000D02*
D03*
X82000Y278000D02*
D03*
X72000D02*
D03*
X62000D02*
D03*
X110000D02*
D03*
X120000D02*
D03*
X130000D02*
D03*
X46000Y266000D02*
D03*
X36000D02*
D03*
X124000Y366000D02*
D03*
X134000D02*
D03*
X56000Y372000D02*
D03*
X46000D02*
D03*
X300000Y318000D02*
D03*
X310000D02*
D03*
X92000Y370000D02*
D03*
Y380000D02*
D03*
X114000Y262000D02*
D03*
X104000D02*
D03*
X136000Y198000D02*
D03*
X146000D02*
D03*
X136000Y212000D02*
D03*
X146000D02*
D03*
X558000Y154126D02*
D03*
Y164126D02*
D03*
Y174126D02*
D03*
X498000Y196126D02*
D03*
X488000D02*
D03*
X478000D02*
D03*
X628000Y74000D02*
D03*
X638000D02*
D03*
X648000D02*
D03*
X658000D02*
D03*
X322000Y88537D02*
D03*
X312000D02*
D03*
X369200Y147137D02*
D03*
X359200D02*
D03*
X349200D02*
D03*
X264000Y114537D02*
D03*
X254000D02*
D03*
X244000D02*
D03*
X320000Y276000D02*
D03*
X310000D02*
D03*
X427700Y362200D02*
D03*
X417700D02*
D03*
X537200Y393000D02*
D03*
X527200D02*
D03*
X584300Y366800D02*
D03*
Y356800D02*
D03*
Y346800D02*
D03*
X397500Y338400D02*
D03*
X407500D02*
D03*
X658000Y168000D02*
D03*
X668000D02*
D03*
X678000D02*
D03*
D82*
X193937Y345260D02*
D03*
Y405260D02*
D03*
X203937Y345260D02*
D03*
Y405260D02*
D03*
X213937Y345260D02*
D03*
Y405260D02*
D03*
X223937Y345260D02*
D03*
Y405260D02*
D03*
X233937Y345260D02*
D03*
Y405260D02*
D03*
X243937Y345260D02*
D03*
Y405260D02*
D03*
X253937Y345260D02*
D03*
Y405260D02*
D03*
X263937Y345260D02*
D03*
Y405260D02*
D03*
X273937Y345260D02*
D03*
Y405260D02*
D03*
X283937Y345260D02*
D03*
Y405260D02*
D03*
X293937Y345260D02*
D03*
Y405260D02*
D03*
X303937Y345260D02*
D03*
Y405260D02*
D03*
X313937Y345260D02*
D03*
Y405260D02*
D03*
X323937Y345260D02*
D03*
Y405260D02*
D03*
D83*
X333937Y345260D02*
D03*
Y405260D02*
D03*
D84*
X56000Y392200D02*
D03*
X44200D02*
D03*
Y404000D02*
D03*
X56000D02*
D03*
D85*
X50100Y421000D02*
D03*
D86*
X166315Y38000D02*
D03*
X225370D02*
D03*
X205685D02*
D03*
X186000D02*
D03*
X614630Y36000D02*
D03*
X673685D02*
D03*
X654000D02*
D03*
X634315D02*
D03*
X664000Y424000D02*
D03*
Y408000D02*
D03*
D87*
X490401Y376438D02*
D03*
X480401D02*
D03*
X450401D02*
D03*
X440401D02*
D03*
X430401D02*
D03*
D88*
X626000Y354000D02*
D03*
X64000Y332000D02*
D03*
X76000Y186000D02*
D03*
X82000Y230000D02*
D03*
X76000Y226000D02*
D03*
X164000Y242000D02*
D03*
X106000Y234000D02*
D03*
X78000Y344000D02*
D03*
X116000Y346000D02*
D03*
X230000Y364000D02*
D03*
X264000Y394000D02*
D03*
X222000Y398000D02*
D03*
X252000D02*
D03*
X124000Y172000D02*
D03*
Y166000D02*
D03*
Y160000D02*
D03*
Y178000D02*
D03*
X132000D02*
D03*
Y162000D02*
D03*
X140000D02*
D03*
Y178000D02*
D03*
X134000Y222000D02*
D03*
X148000Y238000D02*
D03*
X172000Y260000D02*
D03*
X158000Y264000D02*
D03*
Y290000D02*
D03*
X138000Y304000D02*
D03*
X182000D02*
D03*
X326000Y310000D02*
D03*
X40000Y280000D02*
D03*
X54000Y308000D02*
D03*
X106000Y346000D02*
D03*
X394000Y130000D02*
D03*
X388000Y198000D02*
D03*
X394000Y110000D02*
D03*
Y202000D02*
D03*
Y186000D02*
D03*
Y150000D02*
D03*
X400000Y198000D02*
D03*
Y190000D02*
D03*
X388000D02*
D03*
X400000Y136000D02*
D03*
X388000D02*
D03*
X400000Y144000D02*
D03*
X388000D02*
D03*
X400000Y124000D02*
D03*
X388000D02*
D03*
X400000Y116000D02*
D03*
X388000D02*
D03*
X608000Y320000D02*
D03*
X466000Y248000D02*
D03*
X516000Y188000D02*
D03*
X564000Y206000D02*
D03*
Y240000D02*
D03*
X518000Y256000D02*
D03*
X422000Y110000D02*
D03*
X464000Y140000D02*
D03*
X462000Y34000D02*
D03*
X422000Y42000D02*
D03*
X456000Y234000D02*
D03*
X420000Y238000D02*
D03*
X426000Y196000D02*
D03*
X500000Y124000D02*
D03*
X498000Y168000D02*
D03*
X472000Y52000D02*
D03*
X516000Y60000D02*
D03*
X558000Y42000D02*
D03*
X544000Y138000D02*
D03*
X676000Y118000D02*
D03*
X624000Y314000D02*
D03*
X600000D02*
D03*
X616000Y320000D02*
D03*
Y308000D02*
D03*
X608000D02*
D03*
X184000Y62000D02*
D03*
X168000Y163463D02*
D03*
X148000Y160000D02*
D03*
Y166000D02*
D03*
Y172000D02*
D03*
Y178000D02*
D03*
X134000Y120000D02*
D03*
X158000Y110000D02*
D03*
X134000D02*
D03*
X142000Y108000D02*
D03*
Y120000D02*
D03*
X150000Y108000D02*
D03*
Y120000D02*
D03*
X158000Y122000D02*
D03*
X316000Y264000D02*
D03*
X280000Y248000D02*
D03*
Y90000D02*
D03*
X316000Y100000D02*
D03*
X204000D02*
D03*
X198000Y112000D02*
D03*
X268000Y126000D02*
D03*
X230000Y138000D02*
D03*
X212000Y154000D02*
D03*
X264000Y168000D02*
D03*
Y176000D02*
D03*
X224000Y182000D02*
D03*
X178000Y190000D02*
D03*
X332000Y194000D02*
D03*
X368000Y86000D02*
D03*
X372000Y238000D02*
D03*
X606000Y116000D02*
D03*
X376000Y160000D02*
D03*
X638000Y154000D02*
D03*
X636000Y148000D02*
D03*
X620000Y116000D02*
D03*
X518000Y420000D02*
D03*
X450000Y366000D02*
D03*
X636000Y386000D02*
D03*
X480000Y364000D02*
D03*
X506000Y358000D02*
D03*
X414000Y422000D02*
D03*
X598000Y354000D02*
D03*
M02*
