G04*
G04 #@! TF.GenerationSoftware,Altium Limited,Altium Designer,22.8.2 (66)*
G04*
G04 Layer_Color=16711935*
%FSLAX25Y25*%
%MOIN*%
G70*
G04*
G04 #@! TF.SameCoordinates,BEF1E4EC-90C0-4ACD-898C-557356F843F1*
G04*
G04*
G04 #@! TF.FilePolarity,Positive*
G04*
G01*
G75*
%ADD14C,0.01000*%
%ADD16C,0.00500*%
%ADD17C,0.00600*%
%ADD19C,0.00197*%
%ADD20C,0.00394*%
D14*
X0Y478000D02*
X6000Y480000D01*
X0Y478000D02*
X6000Y476000D01*
X694000D02*
X700000Y478000D01*
X694000Y480000D02*
X700000Y478000D01*
X0D02*
X323308D01*
X373492D02*
X700000D01*
X0Y451000D02*
Y479000D01*
X700000Y451000D02*
Y479000D01*
X-38000Y6000D02*
X-36000Y0D01*
X-34000Y6000D01*
X-36000Y450000D02*
X-34000Y444000D01*
X-38000D02*
X-36000Y450000D01*
Y0D02*
Y198308D01*
Y248492D02*
Y450000D01*
X-37000Y0D02*
X-1000D01*
X-37000Y450000D02*
X-1000D01*
D16*
X164941Y338764D02*
Y411756D01*
Y338764D02*
X362933D01*
Y411756D01*
X164941D02*
X362933D01*
X164941Y338764D02*
Y411756D01*
Y338764D02*
X362933D01*
Y411756D01*
X164941D02*
X362933D01*
D17*
X324908Y480399D02*
X328906D01*
Y479399D01*
X324908Y475401D01*
Y474401D01*
X330906D02*
Y475401D01*
X331905D01*
Y474401D01*
X330906D01*
X335904Y479399D02*
X336904Y480399D01*
X338903D01*
X339903Y479399D01*
Y475401D01*
X338903Y474401D01*
X336904D01*
X335904Y475401D01*
Y479399D01*
X341902D02*
X342902Y480399D01*
X344901D01*
X345901Y479399D01*
Y475401D01*
X344901Y474401D01*
X342902D01*
X341902Y475401D01*
Y479399D01*
X355898Y474401D02*
X353898Y476400D01*
Y478400D01*
X355898Y480399D01*
X358897Y474401D02*
X360896D01*
X359896D01*
Y478400D01*
X358897D01*
X363895Y474401D02*
Y478400D01*
X366894D01*
X367894Y477400D01*
Y474401D01*
X369893D02*
X371892Y476400D01*
Y478400D01*
X369893Y480399D01*
X-32401Y202907D02*
X-38399D01*
X-35400Y199908D01*
Y203906D01*
X-32401Y205906D02*
X-33401D01*
Y206905D01*
X-32401D01*
Y205906D01*
X-38399Y214903D02*
Y210904D01*
X-35400D01*
X-36400Y212903D01*
Y213903D01*
X-35400Y214903D01*
X-33401D01*
X-32401Y213903D01*
Y211904D01*
X-33401Y210904D01*
X-37399Y216902D02*
X-38399Y217902D01*
Y219901D01*
X-37399Y220901D01*
X-33401D01*
X-32401Y219901D01*
Y217902D01*
X-33401Y216902D01*
X-37399D01*
X-32401Y230898D02*
X-34400Y228898D01*
X-36400D01*
X-38399Y230898D01*
X-32401Y233897D02*
Y235896D01*
Y234896D01*
X-36400D01*
Y233897D01*
X-32401Y238895D02*
X-36400D01*
Y241894D01*
X-35400Y242894D01*
X-32401D01*
Y244893D02*
X-34400Y246892D01*
X-36400D01*
X-38399Y244893D01*
D19*
X217465Y151285D02*
Y169789D01*
X250535Y151285D02*
Y169789D01*
X217465D02*
X250535D01*
X217465Y151285D02*
X250535D01*
X231465Y181285D02*
Y199789D01*
X264535Y181285D02*
Y199789D01*
X231465D02*
X264535D01*
X231465Y181285D02*
X264535D01*
D20*
X232031Y160537D02*
X235968D01*
X234000Y158569D02*
Y162505D01*
X246031Y190537D02*
X249969D01*
X248000Y188568D02*
Y192506D01*
M02*
