G04*
G04 #@! TF.GenerationSoftware,Altium Limited,Altium Designer,22.8.2 (66)*
G04*
G04 Layer_Color=12632256*
%FSLAX25Y25*%
%MOIN*%
G70*
G04*
G04 #@! TF.SameCoordinates,BEF1E4EC-90C0-4ACD-898C-557356F843F1*
G04*
G04*
G04 #@! TF.FilePolarity,Positive*
G04*
G01*
G75*
%ADD16C,0.00500*%
%ADD19C,0.00197*%
%ADD20C,0.00394*%
%ADD81C,0.07087*%
%ADD82C,0.06024*%
%ADD83R,0.06024X0.06024*%
%ADD84C,0.07000*%
%ADD85C,0.14800*%
%ADD86C,0.11811*%
%ADD87R,0.06000X0.06000*%
D16*
X164941Y338764D02*
Y411756D01*
Y338764D02*
X362933D01*
Y411756D01*
X164941D02*
X362933D01*
X164941Y338764D02*
Y411756D01*
Y338764D02*
X362933D01*
Y411756D01*
X164941D02*
X362933D01*
D19*
X217465Y151285D02*
Y169789D01*
X250535Y151285D02*
Y169789D01*
X217465D02*
X250535D01*
X217465Y151285D02*
X250535D01*
X231465Y181285D02*
Y199789D01*
X264535Y181285D02*
Y199789D01*
X231465D02*
X264535D01*
X231465Y181285D02*
X264535D01*
D20*
X232031Y160537D02*
X235968D01*
X234000Y158569D02*
Y162505D01*
X246031Y190537D02*
X249969D01*
X248000Y188568D02*
Y192506D01*
D81*
X112000Y220000D02*
D03*
Y210000D02*
D03*
X102000Y176000D02*
D03*
X92000D02*
D03*
X82000D02*
D03*
X96000Y246000D02*
D03*
X106000D02*
D03*
X116000D02*
D03*
X82000Y278000D02*
D03*
X72000D02*
D03*
X62000D02*
D03*
X110000D02*
D03*
X120000D02*
D03*
X130000D02*
D03*
X46000Y266000D02*
D03*
X36000D02*
D03*
X124000Y366000D02*
D03*
X134000D02*
D03*
X56000Y372000D02*
D03*
X46000D02*
D03*
X300000Y318000D02*
D03*
X310000D02*
D03*
X92000Y370000D02*
D03*
Y380000D02*
D03*
X114000Y262000D02*
D03*
X104000D02*
D03*
X136000Y198000D02*
D03*
X146000D02*
D03*
X136000Y212000D02*
D03*
X146000D02*
D03*
X558000Y154126D02*
D03*
Y164126D02*
D03*
Y174126D02*
D03*
X498000Y196126D02*
D03*
X488000D02*
D03*
X478000D02*
D03*
X628000Y74000D02*
D03*
X638000D02*
D03*
X648000D02*
D03*
X658000D02*
D03*
X322000Y88537D02*
D03*
X312000D02*
D03*
X369200Y147137D02*
D03*
X359200D02*
D03*
X349200D02*
D03*
X264000Y114537D02*
D03*
X254000D02*
D03*
X244000D02*
D03*
X320000Y276000D02*
D03*
X310000D02*
D03*
X427700Y362200D02*
D03*
X417700D02*
D03*
X537200Y393000D02*
D03*
X527200D02*
D03*
X584300Y366800D02*
D03*
Y356800D02*
D03*
Y346800D02*
D03*
X397500Y338400D02*
D03*
X407500D02*
D03*
X658000Y168000D02*
D03*
X668000D02*
D03*
X678000D02*
D03*
D82*
X193937Y345260D02*
D03*
Y405260D02*
D03*
X203937Y345260D02*
D03*
Y405260D02*
D03*
X213937Y345260D02*
D03*
Y405260D02*
D03*
X223937Y345260D02*
D03*
Y405260D02*
D03*
X233937Y345260D02*
D03*
Y405260D02*
D03*
X243937Y345260D02*
D03*
Y405260D02*
D03*
X253937Y345260D02*
D03*
Y405260D02*
D03*
X263937Y345260D02*
D03*
Y405260D02*
D03*
X273937Y345260D02*
D03*
Y405260D02*
D03*
X283937Y345260D02*
D03*
Y405260D02*
D03*
X293937Y345260D02*
D03*
Y405260D02*
D03*
X303937Y345260D02*
D03*
Y405260D02*
D03*
X313937Y345260D02*
D03*
Y405260D02*
D03*
X323937Y345260D02*
D03*
Y405260D02*
D03*
D83*
X333937Y345260D02*
D03*
Y405260D02*
D03*
D84*
X56000Y392200D02*
D03*
X44200D02*
D03*
Y404000D02*
D03*
X56000D02*
D03*
D85*
X50100Y421000D02*
D03*
D86*
X166315Y38000D02*
D03*
X225370D02*
D03*
X205685D02*
D03*
X186000D02*
D03*
X614630Y36000D02*
D03*
X673685D02*
D03*
X654000D02*
D03*
X634315D02*
D03*
X664000Y424000D02*
D03*
Y408000D02*
D03*
D87*
X490401Y376438D02*
D03*
X480401D02*
D03*
X450401D02*
D03*
X440401D02*
D03*
X430401D02*
D03*
M02*
