G04*
G04 #@! TF.GenerationSoftware,Altium Limited,Altium Designer,22.8.2 (66)*
G04*
G04 Layer_Color=32768*
%FSLAX25Y25*%
%MOIN*%
G70*
G04*
G04 #@! TF.SameCoordinates,BEF1E4EC-90C0-4ACD-898C-557356F843F1*
G04*
G04*
G04 #@! TF.FilePolarity,Positive*
G04*
G01*
G75*
%ADD14C,0.01000*%
%ADD16C,0.00500*%
%ADD19C,0.00197*%
%ADD20C,0.00394*%
D14*
X107000Y205000D02*
Y215000D01*
Y205000D02*
X117000D01*
X107000D02*
Y225000D01*
X117000Y205000D02*
Y225000D01*
X107000D02*
X117000D01*
X87000Y171000D02*
Y181000D01*
X77000D02*
X87000D01*
X77000Y171000D02*
Y181000D01*
Y171000D02*
X107000D01*
Y181000D01*
X77000D02*
X107000D01*
X111000Y241000D02*
Y251000D01*
Y241000D02*
X121000D01*
Y251000D01*
X91000D02*
X121000D01*
X91000Y241000D02*
Y251000D01*
Y241000D02*
X121000D01*
X67000Y273000D02*
Y283000D01*
X57000D02*
X67000D01*
X57000Y273000D02*
Y283000D01*
Y273000D02*
X87000D01*
Y283000D01*
X57000D02*
X87000D01*
X125000Y273000D02*
Y283000D01*
Y273000D02*
X135000D01*
Y283000D01*
X105000D02*
X135000D01*
X105000Y273000D02*
Y283000D01*
Y273000D02*
X135000D01*
X31000Y271000D02*
X41000D01*
X31000Y261000D02*
Y271000D01*
X51000D01*
X31000Y261000D02*
X51000D01*
Y271000D01*
X139000Y361000D02*
Y371000D01*
X119000Y361000D02*
X139000D01*
X119000Y371000D02*
X139000D01*
X119000Y361000D02*
Y371000D01*
X129000D01*
X51000Y367000D02*
X61000D01*
Y377000D01*
X41000Y367000D02*
X61000D01*
X41000Y377000D02*
X61000D01*
X41000Y367000D02*
Y377000D01*
X305000Y313000D02*
X315000D01*
Y323000D01*
X295000Y313000D02*
X315000D01*
X295000Y323000D02*
X315000D01*
X295000Y313000D02*
Y323000D01*
X97000Y375000D02*
Y385000D01*
X87000D02*
X97000D01*
Y365000D02*
Y385000D01*
X87000Y365000D02*
Y385000D01*
Y365000D02*
X97000D01*
X99000Y267000D02*
X109000D01*
X99000Y257000D02*
Y267000D01*
X119000D01*
X99000Y257000D02*
X119000D01*
Y267000D01*
X151000Y193000D02*
Y203000D01*
X131000Y193000D02*
X151000D01*
X131000Y203000D02*
X151000D01*
X131000Y193000D02*
Y203000D01*
X141000D01*
X151000Y207000D02*
Y217000D01*
X131000Y207000D02*
X151000D01*
X131000Y217000D02*
X151000D01*
X131000Y207000D02*
Y217000D01*
X141000D01*
X553000Y169126D02*
X563000D01*
Y179126D01*
X553000D02*
X563000D01*
X553000Y149126D02*
Y179126D01*
Y149126D02*
X563000D01*
Y179126D01*
X483000Y191126D02*
Y201126D01*
X473000D02*
X483000D01*
X473000Y191126D02*
Y201126D01*
Y191126D02*
X503000D01*
Y201126D01*
X473000D02*
X503000D01*
X623000Y79000D02*
X663000D01*
Y69000D02*
Y79000D01*
X623000Y69000D02*
X663000D01*
X623000D02*
Y79000D01*
X633000D01*
Y69000D02*
Y79000D01*
X307000Y93537D02*
X317000D01*
X307000Y83537D02*
Y93537D01*
X327000D01*
X307000Y83537D02*
X327000D01*
Y93537D01*
X344200Y142137D02*
X374200D01*
X344200D02*
Y152137D01*
X374200D01*
Y142137D02*
Y152137D01*
X364200Y142137D02*
X374200D01*
X364200D02*
Y152137D01*
X239000Y109537D02*
X269000D01*
X239000D02*
Y119537D01*
X269000D01*
Y109537D02*
Y119537D01*
X259000Y109537D02*
X269000D01*
X259000D02*
Y119537D01*
X305000Y281000D02*
X315000D01*
X305000Y271000D02*
Y281000D01*
X325000D01*
X305000Y271000D02*
X325000D01*
Y281000D01*
X412700Y367200D02*
X422700D01*
X412700Y357200D02*
Y367200D01*
X432700D01*
X412700Y357200D02*
X432700D01*
Y367200D01*
X522200Y398000D02*
X532200D01*
X522200Y388000D02*
Y398000D01*
X542200D01*
X522200Y388000D02*
X542200D01*
Y398000D01*
X579300Y351800D02*
X589300D01*
X579300Y341800D02*
Y351800D01*
Y341800D02*
X589300D01*
Y371800D01*
X579300D02*
X589300D01*
X579300Y341800D02*
Y371800D01*
X402500Y333400D02*
X412500D01*
Y343400D01*
X392500Y333400D02*
X412500D01*
X392500Y343400D02*
X412500D01*
X392500Y333400D02*
Y343400D01*
X673000Y163000D02*
Y173000D01*
Y163000D02*
X683000D01*
Y173000D01*
X653000D02*
X683000D01*
X653000Y163000D02*
Y173000D01*
Y163000D02*
X683000D01*
D16*
X164941Y338764D02*
Y411756D01*
Y338764D02*
X362933D01*
Y411756D01*
X164941D02*
X362933D01*
X164941Y338764D02*
Y411756D01*
Y338764D02*
X362933D01*
Y411756D01*
X164941D02*
X362933D01*
D19*
X217465Y151285D02*
Y169789D01*
X250535Y151285D02*
Y169789D01*
X217465D02*
X250535D01*
X217465Y151285D02*
X250535D01*
X231465Y181285D02*
Y199789D01*
X264535Y181285D02*
Y199789D01*
X231465D02*
X264535D01*
X231465Y181285D02*
X264535D01*
D20*
X232031Y160537D02*
X235968D01*
X234000Y158569D02*
Y162505D01*
X246031Y190537D02*
X249969D01*
X248000Y188568D02*
Y192506D01*
M02*
