G04*
G04 #@! TF.GenerationSoftware,Altium Limited,Altium Designer,22.8.2 (66)*
G04*
G04 Layer_Physical_Order=2*
G04 Layer_Color=16711680*
%FSLAX25Y25*%
%MOIN*%
G70*
G04*
G04 #@! TF.SameCoordinates,BEF1E4EC-90C0-4ACD-898C-557356F843F1*
G04*
G04*
G04 #@! TF.FilePolarity,Positive*
G04*
G01*
G75*
%ADD14C,0.01000*%
%ADD16C,0.00500*%
%ADD17C,0.00600*%
%ADD19C,0.00197*%
%ADD20C,0.00394*%
%ADD81C,0.07087*%
%ADD82C,0.06024*%
%ADD83R,0.06024X0.06024*%
%ADD84C,0.07000*%
%ADD85C,0.14800*%
%ADD86C,0.11811*%
%ADD87R,0.06000X0.06000*%
%ADD88C,0.02500*%
G36*
X460000Y412000D02*
Y340000D01*
X432000D01*
X382000Y290000D01*
X256000D01*
X244000Y278000D01*
Y180000D01*
X232000Y168000D01*
Y150000D01*
X262668Y119332D01*
X262539Y118849D01*
X262246Y118771D01*
X261210Y118173D01*
X260365Y117327D01*
X259766Y116291D01*
X259457Y115135D01*
Y113939D01*
X259766Y112783D01*
X260365Y111747D01*
X261210Y110901D01*
X262246Y110303D01*
X263402Y109994D01*
X264598D01*
X265754Y110303D01*
X266790Y110901D01*
X267635Y111747D01*
X268234Y112783D01*
X268312Y113076D01*
X268795Y113205D01*
X284000Y98000D01*
Y2774D01*
X2774D01*
Y268000D01*
X28000D01*
X31784Y264216D01*
X32364Y263210D01*
X33210Y262365D01*
X34216Y261784D01*
X52000Y244000D01*
X84000D01*
X94000Y254000D01*
Y344000D01*
X114000Y364000D01*
Y416000D01*
X124000Y426000D01*
X446000D01*
X460000Y412000D01*
D02*
G37*
G36*
X697226Y2774D02*
X290000D01*
Y100000D01*
X238000Y152000D01*
Y164000D01*
X250000Y176000D01*
Y274000D01*
X260000Y284000D01*
X384000D01*
X434000Y334000D01*
X466000D01*
Y414000D01*
X448000Y432000D01*
X122000D01*
X106000Y416000D01*
Y368000D01*
X88000Y350000D01*
Y256000D01*
X82000Y250000D01*
X54000D01*
X40058Y263942D01*
X40234Y264246D01*
X40543Y265402D01*
Y265500D01*
X36000D01*
Y266000D01*
X35500D01*
Y270543D01*
X35402D01*
X34246Y270234D01*
X33942Y270058D01*
X30000Y274000D01*
X2774D01*
Y447226D01*
X697226D01*
X697226Y2774D01*
D02*
G37*
%LPC*%
G36*
X414500Y424228D02*
Y422500D01*
X416228D01*
X415907Y423275D01*
X415274Y423908D01*
X414500Y424228D01*
D02*
G37*
G36*
X413500D02*
X412725Y423908D01*
X412092Y423275D01*
X411772Y422500D01*
X413500D01*
Y424228D01*
D02*
G37*
G36*
X416228Y421500D02*
X414500D01*
Y419772D01*
X415274Y420092D01*
X415907Y420725D01*
X416228Y421500D01*
D02*
G37*
G36*
X413500D02*
X411772D01*
X412092Y420725D01*
X412725Y420092D01*
X413500Y419772D01*
Y421500D01*
D02*
G37*
G36*
X304465Y409272D02*
X304437D01*
Y405760D01*
X307949D01*
Y405788D01*
X307675Y406808D01*
X307147Y407723D01*
X306400Y408470D01*
X305486Y408998D01*
X304465Y409272D01*
D02*
G37*
G36*
X303437D02*
X303409D01*
X302389Y408998D01*
X301474Y408470D01*
X300727Y407723D01*
X300199Y406808D01*
X299925Y405788D01*
Y405760D01*
X303437D01*
Y409272D01*
D02*
G37*
G36*
X337949D02*
X329925D01*
Y401248D01*
X337949D01*
Y409272D01*
D02*
G37*
G36*
X324465D02*
X323409D01*
X322389Y408998D01*
X321474Y408470D01*
X320727Y407723D01*
X320199Y406808D01*
X319925Y405788D01*
Y404732D01*
X320199Y403711D01*
X320727Y402797D01*
X321474Y402050D01*
X322389Y401521D01*
X323409Y401248D01*
X324465D01*
X325485Y401521D01*
X326400Y402050D01*
X327147Y402797D01*
X327675Y403711D01*
X327949Y404732D01*
Y405788D01*
X327675Y406808D01*
X327147Y407723D01*
X326400Y408470D01*
X325485Y408998D01*
X324465Y409272D01*
D02*
G37*
G36*
X314465D02*
X313409D01*
X312388Y408998D01*
X311474Y408470D01*
X310727Y407723D01*
X310199Y406808D01*
X309925Y405788D01*
Y404732D01*
X310199Y403711D01*
X310727Y402797D01*
X311474Y402050D01*
X312388Y401521D01*
X313409Y401248D01*
X314465D01*
X315486Y401521D01*
X316400Y402050D01*
X317147Y402797D01*
X317675Y403711D01*
X317949Y404732D01*
Y405788D01*
X317675Y406808D01*
X317147Y407723D01*
X316400Y408470D01*
X315486Y408998D01*
X314465Y409272D01*
D02*
G37*
G36*
X307949Y404760D02*
X304437D01*
Y401248D01*
X304465D01*
X305486Y401521D01*
X306400Y402050D01*
X307147Y402797D01*
X307675Y403711D01*
X307949Y404732D01*
Y404760D01*
D02*
G37*
G36*
X303437D02*
X299925D01*
Y404732D01*
X300199Y403711D01*
X300727Y402797D01*
X301474Y402050D01*
X302389Y401521D01*
X303409Y401248D01*
X303437D01*
Y404760D01*
D02*
G37*
G36*
X294465Y409272D02*
X293409D01*
X292389Y408998D01*
X291474Y408470D01*
X290727Y407723D01*
X290199Y406808D01*
X289925Y405788D01*
Y404732D01*
X290199Y403711D01*
X290727Y402797D01*
X291474Y402050D01*
X292389Y401521D01*
X293409Y401248D01*
X294465D01*
X295485Y401521D01*
X296400Y402050D01*
X297147Y402797D01*
X297675Y403711D01*
X297949Y404732D01*
Y405788D01*
X297675Y406808D01*
X297147Y407723D01*
X296400Y408470D01*
X295485Y408998D01*
X294465Y409272D01*
D02*
G37*
G36*
X284465D02*
X283409D01*
X282388Y408998D01*
X281474Y408470D01*
X280727Y407723D01*
X280199Y406808D01*
X279925Y405788D01*
Y404732D01*
X280199Y403711D01*
X280727Y402797D01*
X281474Y402050D01*
X282388Y401521D01*
X283409Y401248D01*
X284465D01*
X285486Y401521D01*
X286400Y402050D01*
X287147Y402797D01*
X287675Y403711D01*
X287949Y404732D01*
Y405788D01*
X287675Y406808D01*
X287147Y407723D01*
X286400Y408470D01*
X285486Y408998D01*
X284465Y409272D01*
D02*
G37*
G36*
X274465D02*
X273409D01*
X272389Y408998D01*
X271474Y408470D01*
X270727Y407723D01*
X270199Y406808D01*
X269925Y405788D01*
Y404732D01*
X270199Y403711D01*
X270727Y402797D01*
X271474Y402050D01*
X272389Y401521D01*
X273409Y401248D01*
X274465D01*
X275485Y401521D01*
X276400Y402050D01*
X277147Y402797D01*
X277675Y403711D01*
X277949Y404732D01*
Y405788D01*
X277675Y406808D01*
X277147Y407723D01*
X276400Y408470D01*
X275485Y408998D01*
X274465Y409272D01*
D02*
G37*
G36*
X264465D02*
X263409D01*
X262388Y408998D01*
X261474Y408470D01*
X260727Y407723D01*
X260199Y406808D01*
X259925Y405788D01*
Y404732D01*
X260199Y403711D01*
X260727Y402797D01*
X261474Y402050D01*
X262388Y401521D01*
X263409Y401248D01*
X264465D01*
X265486Y401521D01*
X266400Y402050D01*
X267147Y402797D01*
X267675Y403711D01*
X267949Y404732D01*
Y405788D01*
X267675Y406808D01*
X267147Y407723D01*
X266400Y408470D01*
X265486Y408998D01*
X264465Y409272D01*
D02*
G37*
G36*
X254465D02*
X253409D01*
X252389Y408998D01*
X251474Y408470D01*
X250727Y407723D01*
X250199Y406808D01*
X249925Y405788D01*
Y404732D01*
X250199Y403711D01*
X250727Y402797D01*
X251474Y402050D01*
X252389Y401521D01*
X253409Y401248D01*
X254465D01*
X255486Y401521D01*
X256400Y402050D01*
X257147Y402797D01*
X257675Y403711D01*
X257949Y404732D01*
Y405788D01*
X257675Y406808D01*
X257147Y407723D01*
X256400Y408470D01*
X255486Y408998D01*
X254465Y409272D01*
D02*
G37*
G36*
X244465D02*
X243409D01*
X242389Y408998D01*
X241474Y408470D01*
X240727Y407723D01*
X240199Y406808D01*
X239925Y405788D01*
Y404732D01*
X240199Y403711D01*
X240727Y402797D01*
X241474Y402050D01*
X242389Y401521D01*
X243409Y401248D01*
X244465D01*
X245485Y401521D01*
X246400Y402050D01*
X247147Y402797D01*
X247675Y403711D01*
X247949Y404732D01*
Y405788D01*
X247675Y406808D01*
X247147Y407723D01*
X246400Y408470D01*
X245485Y408998D01*
X244465Y409272D01*
D02*
G37*
G36*
X234465D02*
X233409D01*
X232388Y408998D01*
X231474Y408470D01*
X230727Y407723D01*
X230199Y406808D01*
X229925Y405788D01*
Y404732D01*
X230199Y403711D01*
X230727Y402797D01*
X231474Y402050D01*
X232388Y401521D01*
X233409Y401248D01*
X234465D01*
X235486Y401521D01*
X236400Y402050D01*
X237147Y402797D01*
X237675Y403711D01*
X237949Y404732D01*
Y405788D01*
X237675Y406808D01*
X237147Y407723D01*
X236400Y408470D01*
X235486Y408998D01*
X234465Y409272D01*
D02*
G37*
G36*
X224465D02*
X223409D01*
X222389Y408998D01*
X221474Y408470D01*
X220727Y407723D01*
X220199Y406808D01*
X219925Y405788D01*
Y404732D01*
X220199Y403711D01*
X220727Y402797D01*
X221474Y402050D01*
X222389Y401521D01*
X223409Y401248D01*
X224465D01*
X225485Y401521D01*
X226400Y402050D01*
X227147Y402797D01*
X227675Y403711D01*
X227949Y404732D01*
Y405788D01*
X227675Y406808D01*
X227147Y407723D01*
X226400Y408470D01*
X225485Y408998D01*
X224465Y409272D01*
D02*
G37*
G36*
X214465D02*
X213409D01*
X212388Y408998D01*
X211474Y408470D01*
X210727Y407723D01*
X210199Y406808D01*
X209925Y405788D01*
Y404732D01*
X210199Y403711D01*
X210727Y402797D01*
X211474Y402050D01*
X212388Y401521D01*
X213409Y401248D01*
X214465D01*
X215486Y401521D01*
X216400Y402050D01*
X217147Y402797D01*
X217675Y403711D01*
X217949Y404732D01*
Y405788D01*
X217675Y406808D01*
X217147Y407723D01*
X216400Y408470D01*
X215486Y408998D01*
X214465Y409272D01*
D02*
G37*
G36*
X204465D02*
X203409D01*
X202389Y408998D01*
X201474Y408470D01*
X200727Y407723D01*
X200199Y406808D01*
X199925Y405788D01*
Y404732D01*
X200199Y403711D01*
X200727Y402797D01*
X201474Y402050D01*
X202389Y401521D01*
X203409Y401248D01*
X204465D01*
X205486Y401521D01*
X206400Y402050D01*
X207147Y402797D01*
X207675Y403711D01*
X207949Y404732D01*
Y405788D01*
X207675Y406808D01*
X207147Y407723D01*
X206400Y408470D01*
X205486Y408998D01*
X204465Y409272D01*
D02*
G37*
G36*
X194465D02*
X193409D01*
X192388Y408998D01*
X191474Y408470D01*
X190727Y407723D01*
X190199Y406808D01*
X189925Y405788D01*
Y404732D01*
X190199Y403711D01*
X190727Y402797D01*
X191474Y402050D01*
X192388Y401521D01*
X193409Y401248D01*
X194465D01*
X195485Y401521D01*
X196400Y402050D01*
X197147Y402797D01*
X197675Y403711D01*
X197949Y404732D01*
Y405788D01*
X197675Y406808D01*
X197147Y407723D01*
X196400Y408470D01*
X195485Y408998D01*
X194465Y409272D01*
D02*
G37*
G36*
X252448Y400250D02*
X251552D01*
X250726Y399907D01*
X250144Y399325D01*
X230000D01*
X229493Y399225D01*
X229063Y398937D01*
X151063Y320937D01*
X150775Y320507D01*
X150674Y320000D01*
Y296000D01*
X150775Y295493D01*
X151063Y295063D01*
X155750Y290375D01*
Y289552D01*
X156093Y288725D01*
X156726Y288092D01*
X157552Y287750D01*
X158448D01*
X159274Y288092D01*
X159907Y288725D01*
X160250Y289552D01*
Y290448D01*
X159907Y291274D01*
X159274Y291908D01*
X158448Y292250D01*
X157624D01*
X153325Y296549D01*
Y319451D01*
X230549Y396674D01*
X250144D01*
X250726Y396093D01*
X251552Y395750D01*
X252448D01*
X253274Y396093D01*
X253907Y396726D01*
X254250Y397552D01*
Y398448D01*
X253907Y399274D01*
X253274Y399907D01*
X252448Y400250D01*
D02*
G37*
G36*
X454401Y380438D02*
X450901D01*
Y376938D01*
X454401D01*
Y380438D01*
D02*
G37*
G36*
X449901D02*
X446401D01*
Y376938D01*
X449901D01*
Y380438D01*
D02*
G37*
G36*
X454401Y375938D02*
X450901D01*
Y372438D01*
X454401D01*
Y375938D01*
D02*
G37*
G36*
X449901D02*
X446401D01*
Y372438D01*
X449901D01*
Y375938D01*
D02*
G37*
G36*
X444401Y380438D02*
X436401D01*
Y372438D01*
X444401D01*
Y380438D01*
D02*
G37*
G36*
X434401D02*
X426401D01*
Y372438D01*
X434401D01*
Y380438D01*
D02*
G37*
G36*
X450500Y368228D02*
Y366500D01*
X452228D01*
X451907Y367274D01*
X451274Y367908D01*
X450500Y368228D01*
D02*
G37*
G36*
X449500D02*
X448726Y367908D01*
X448093Y367274D01*
X447772Y366500D01*
X449500D01*
Y368228D01*
D02*
G37*
G36*
X230500Y366228D02*
Y364500D01*
X232228D01*
X231908Y365275D01*
X231275Y365908D01*
X230500Y366228D01*
D02*
G37*
G36*
X229500D02*
X228726Y365908D01*
X228093Y365275D01*
X227772Y364500D01*
X229500D01*
Y366228D01*
D02*
G37*
G36*
X452228Y365500D02*
X450500D01*
Y363772D01*
X451274Y364092D01*
X451907Y364725D01*
X452228Y365500D01*
D02*
G37*
G36*
X449500D02*
X447772D01*
X448093Y364725D01*
X448726Y364092D01*
X449500Y363772D01*
Y365500D01*
D02*
G37*
G36*
X232228Y363500D02*
X230500D01*
Y361772D01*
X231275Y362092D01*
X231908Y362725D01*
X232228Y363500D01*
D02*
G37*
G36*
X229500D02*
X227772D01*
X228093Y362725D01*
X228726Y362092D01*
X229500Y361772D01*
Y363500D01*
D02*
G37*
G36*
X134598Y370543D02*
X133402D01*
X132246Y370234D01*
X131210Y369636D01*
X130365Y368790D01*
X129766Y367754D01*
X129457Y366598D01*
Y365402D01*
X129766Y364246D01*
X130365Y363210D01*
X131210Y362365D01*
X132246Y361766D01*
X133402Y361457D01*
X134598D01*
X135754Y361766D01*
X136790Y362365D01*
X137636Y363210D01*
X138234Y364246D01*
X138543Y365402D01*
Y366598D01*
X138234Y367754D01*
X137636Y368790D01*
X136790Y369636D01*
X135754Y370234D01*
X134598Y370543D01*
D02*
G37*
G36*
X124598D02*
X123402D01*
X122246Y370234D01*
X121210Y369636D01*
X120364Y368790D01*
X119766Y367754D01*
X119457Y366598D01*
Y365402D01*
X119766Y364246D01*
X120364Y363210D01*
X121210Y362365D01*
X122246Y361766D01*
X123402Y361457D01*
X124598D01*
X125754Y361766D01*
X126790Y362365D01*
X127636Y363210D01*
X128234Y364246D01*
X128543Y365402D01*
Y366598D01*
X128234Y367754D01*
X127636Y368790D01*
X126790Y369636D01*
X125754Y370234D01*
X124598Y370543D01*
D02*
G37*
G36*
X428298Y366743D02*
X427102D01*
X425946Y366434D01*
X424910Y365835D01*
X424064Y364990D01*
X423466Y363954D01*
X423157Y362798D01*
Y361602D01*
X423466Y360446D01*
X424064Y359410D01*
X424910Y358564D01*
X425946Y357966D01*
X427102Y357657D01*
X428298D01*
X429454Y357966D01*
X430490Y358564D01*
X431335Y359410D01*
X431934Y360446D01*
X432243Y361602D01*
Y362798D01*
X431934Y363954D01*
X431335Y364990D01*
X430490Y365835D01*
X429454Y366434D01*
X428298Y366743D01*
D02*
G37*
G36*
X418298D02*
X417102D01*
X415946Y366434D01*
X414910Y365835D01*
X414065Y364990D01*
X413466Y363954D01*
X413157Y362798D01*
Y361602D01*
X413466Y360446D01*
X414065Y359410D01*
X414910Y358564D01*
X415946Y357966D01*
X417102Y357657D01*
X418298D01*
X419454Y357966D01*
X420490Y358564D01*
X421336Y359410D01*
X421934Y360446D01*
X422243Y361602D01*
Y362798D01*
X421934Y363954D01*
X421336Y364990D01*
X420490Y365835D01*
X419454Y366434D01*
X418298Y366743D01*
D02*
G37*
G36*
X116500Y348228D02*
Y346500D01*
X118228D01*
X117908Y347274D01*
X117274Y347907D01*
X116500Y348228D01*
D02*
G37*
G36*
X115500D02*
X114725Y347907D01*
X114093Y347274D01*
X113772Y346500D01*
X115500D01*
Y348228D01*
D02*
G37*
G36*
X106500D02*
Y346500D01*
X108228D01*
X107907Y347274D01*
X107274Y347907D01*
X106500Y348228D01*
D02*
G37*
G36*
X105500D02*
X104726Y347907D01*
X104093Y347274D01*
X103772Y346500D01*
X105500D01*
Y348228D01*
D02*
G37*
G36*
X324465Y349272D02*
X324437D01*
Y345760D01*
X327949D01*
Y345788D01*
X327675Y346808D01*
X327147Y347723D01*
X326400Y348470D01*
X325485Y348998D01*
X324465Y349272D01*
D02*
G37*
G36*
X323437D02*
X323409D01*
X322389Y348998D01*
X321474Y348470D01*
X320727Y347723D01*
X320199Y346808D01*
X319925Y345788D01*
Y345760D01*
X323437D01*
Y349272D01*
D02*
G37*
G36*
X118228Y345500D02*
X116500D01*
Y343772D01*
X117274Y344092D01*
X117908Y344725D01*
X118228Y345500D01*
D02*
G37*
G36*
X115500D02*
X113772D01*
X114093Y344725D01*
X114725Y344092D01*
X115500Y343772D01*
Y345500D01*
D02*
G37*
G36*
X108228D02*
X106500D01*
Y343772D01*
X107274Y344092D01*
X107907Y344725D01*
X108228Y345500D01*
D02*
G37*
G36*
X105500D02*
X103772D01*
X104093Y344725D01*
X104726Y344092D01*
X105500Y343772D01*
Y345500D01*
D02*
G37*
G36*
X337949Y349272D02*
X329925D01*
Y341248D01*
X337949D01*
Y349272D01*
D02*
G37*
G36*
X327949Y344760D02*
X324437D01*
Y341248D01*
X324465D01*
X325485Y341521D01*
X326400Y342050D01*
X327147Y342796D01*
X327675Y343711D01*
X327949Y344732D01*
Y344760D01*
D02*
G37*
G36*
X323437D02*
X319925D01*
Y344732D01*
X320199Y343711D01*
X320727Y342796D01*
X321474Y342050D01*
X322389Y341521D01*
X323409Y341248D01*
X323437D01*
Y344760D01*
D02*
G37*
G36*
X314465Y349272D02*
X313409D01*
X312388Y348998D01*
X311474Y348470D01*
X310727Y347723D01*
X310199Y346808D01*
X309925Y345788D01*
Y344732D01*
X310199Y343711D01*
X310727Y342796D01*
X311474Y342050D01*
X312388Y341521D01*
X313409Y341248D01*
X314465D01*
X315486Y341521D01*
X316400Y342050D01*
X317147Y342796D01*
X317675Y343711D01*
X317949Y344732D01*
Y345788D01*
X317675Y346808D01*
X317147Y347723D01*
X316400Y348470D01*
X315486Y348998D01*
X314465Y349272D01*
D02*
G37*
G36*
X304465D02*
X303409D01*
X302389Y348998D01*
X301474Y348470D01*
X300727Y347723D01*
X300199Y346808D01*
X299925Y345788D01*
Y344732D01*
X300199Y343711D01*
X300727Y342796D01*
X301474Y342050D01*
X302389Y341521D01*
X303409Y341248D01*
X304465D01*
X305486Y341521D01*
X306400Y342050D01*
X307147Y342796D01*
X307675Y343711D01*
X307949Y344732D01*
Y345788D01*
X307675Y346808D01*
X307147Y347723D01*
X306400Y348470D01*
X305486Y348998D01*
X304465Y349272D01*
D02*
G37*
G36*
X294465D02*
X293409D01*
X292389Y348998D01*
X291474Y348470D01*
X290727Y347723D01*
X290199Y346808D01*
X289925Y345788D01*
Y344732D01*
X290199Y343711D01*
X290727Y342796D01*
X291474Y342050D01*
X292389Y341521D01*
X293409Y341248D01*
X294465D01*
X295485Y341521D01*
X296400Y342050D01*
X297147Y342796D01*
X297675Y343711D01*
X297949Y344732D01*
Y345788D01*
X297675Y346808D01*
X297147Y347723D01*
X296400Y348470D01*
X295485Y348998D01*
X294465Y349272D01*
D02*
G37*
G36*
X284465D02*
X283409D01*
X282388Y348998D01*
X281474Y348470D01*
X280727Y347723D01*
X280199Y346808D01*
X279925Y345788D01*
Y344732D01*
X280199Y343711D01*
X280727Y342796D01*
X281474Y342050D01*
X282388Y341521D01*
X283409Y341248D01*
X284465D01*
X285486Y341521D01*
X286400Y342050D01*
X287147Y342796D01*
X287675Y343711D01*
X287949Y344732D01*
Y345788D01*
X287675Y346808D01*
X287147Y347723D01*
X286400Y348470D01*
X285486Y348998D01*
X284465Y349272D01*
D02*
G37*
G36*
X274465D02*
X273409D01*
X272389Y348998D01*
X271474Y348470D01*
X270727Y347723D01*
X270199Y346808D01*
X269925Y345788D01*
Y344732D01*
X270199Y343711D01*
X270727Y342796D01*
X271474Y342050D01*
X272389Y341521D01*
X273409Y341248D01*
X274465D01*
X275485Y341521D01*
X276400Y342050D01*
X277147Y342796D01*
X277675Y343711D01*
X277949Y344732D01*
Y345788D01*
X277675Y346808D01*
X277147Y347723D01*
X276400Y348470D01*
X275485Y348998D01*
X274465Y349272D01*
D02*
G37*
G36*
X264465D02*
X263409D01*
X262388Y348998D01*
X261474Y348470D01*
X260727Y347723D01*
X260199Y346808D01*
X259925Y345788D01*
Y344732D01*
X260199Y343711D01*
X260727Y342796D01*
X261474Y342050D01*
X262388Y341521D01*
X263409Y341248D01*
X264465D01*
X265486Y341521D01*
X266400Y342050D01*
X267147Y342796D01*
X267675Y343711D01*
X267949Y344732D01*
Y345788D01*
X267675Y346808D01*
X267147Y347723D01*
X266400Y348470D01*
X265486Y348998D01*
X264465Y349272D01*
D02*
G37*
G36*
X254465D02*
X253409D01*
X252389Y348998D01*
X251474Y348470D01*
X250727Y347723D01*
X250199Y346808D01*
X249925Y345788D01*
Y344732D01*
X250199Y343711D01*
X250727Y342796D01*
X251474Y342050D01*
X252389Y341521D01*
X253409Y341248D01*
X254465D01*
X255486Y341521D01*
X256400Y342050D01*
X257147Y342796D01*
X257675Y343711D01*
X257949Y344732D01*
Y345788D01*
X257675Y346808D01*
X257147Y347723D01*
X256400Y348470D01*
X255486Y348998D01*
X254465Y349272D01*
D02*
G37*
G36*
X244465D02*
X243409D01*
X242389Y348998D01*
X241474Y348470D01*
X240727Y347723D01*
X240199Y346808D01*
X239925Y345788D01*
Y344732D01*
X240199Y343711D01*
X240727Y342796D01*
X241474Y342050D01*
X242389Y341521D01*
X243409Y341248D01*
X244465D01*
X245485Y341521D01*
X246400Y342050D01*
X247147Y342796D01*
X247675Y343711D01*
X247949Y344732D01*
Y345788D01*
X247675Y346808D01*
X247147Y347723D01*
X246400Y348470D01*
X245485Y348998D01*
X244465Y349272D01*
D02*
G37*
G36*
X234465D02*
X233409D01*
X232388Y348998D01*
X231474Y348470D01*
X230727Y347723D01*
X230199Y346808D01*
X229925Y345788D01*
Y344732D01*
X230199Y343711D01*
X230727Y342796D01*
X231474Y342050D01*
X232388Y341521D01*
X233409Y341248D01*
X234465D01*
X235486Y341521D01*
X236400Y342050D01*
X237147Y342796D01*
X237675Y343711D01*
X237949Y344732D01*
Y345788D01*
X237675Y346808D01*
X237147Y347723D01*
X236400Y348470D01*
X235486Y348998D01*
X234465Y349272D01*
D02*
G37*
G36*
X224465D02*
X223409D01*
X222389Y348998D01*
X221474Y348470D01*
X220727Y347723D01*
X220199Y346808D01*
X219925Y345788D01*
Y344732D01*
X220199Y343711D01*
X220727Y342796D01*
X221474Y342050D01*
X222389Y341521D01*
X223409Y341248D01*
X224465D01*
X225485Y341521D01*
X226400Y342050D01*
X227147Y342796D01*
X227675Y343711D01*
X227949Y344732D01*
Y345788D01*
X227675Y346808D01*
X227147Y347723D01*
X226400Y348470D01*
X225485Y348998D01*
X224465Y349272D01*
D02*
G37*
G36*
X214465D02*
X213409D01*
X212388Y348998D01*
X211474Y348470D01*
X210727Y347723D01*
X210199Y346808D01*
X209925Y345788D01*
Y344732D01*
X210199Y343711D01*
X210727Y342796D01*
X211474Y342050D01*
X212388Y341521D01*
X213409Y341248D01*
X214465D01*
X215486Y341521D01*
X216400Y342050D01*
X217147Y342796D01*
X217675Y343711D01*
X217949Y344732D01*
Y345788D01*
X217675Y346808D01*
X217147Y347723D01*
X216400Y348470D01*
X215486Y348998D01*
X214465Y349272D01*
D02*
G37*
G36*
X204465D02*
X203409D01*
X202389Y348998D01*
X201474Y348470D01*
X200727Y347723D01*
X200199Y346808D01*
X199925Y345788D01*
Y344732D01*
X200199Y343711D01*
X200727Y342796D01*
X201474Y342050D01*
X202389Y341521D01*
X203409Y341248D01*
X204465D01*
X205486Y341521D01*
X206400Y342050D01*
X207147Y342796D01*
X207675Y343711D01*
X207949Y344732D01*
Y345788D01*
X207675Y346808D01*
X207147Y347723D01*
X206400Y348470D01*
X205486Y348998D01*
X204465Y349272D01*
D02*
G37*
G36*
X194465D02*
X193409D01*
X192388Y348998D01*
X191474Y348470D01*
X190727Y347723D01*
X190199Y346808D01*
X189925Y345788D01*
Y344732D01*
X190199Y343711D01*
X190727Y342796D01*
X191474Y342050D01*
X192388Y341521D01*
X193409Y341248D01*
X194465D01*
X195485Y341521D01*
X196400Y342050D01*
X197147Y342796D01*
X197675Y343711D01*
X197949Y344732D01*
Y345788D01*
X197675Y346808D01*
X197147Y347723D01*
X196400Y348470D01*
X195485Y348998D01*
X194465Y349272D01*
D02*
G37*
G36*
X408098Y342943D02*
X408000D01*
Y338900D01*
X412043D01*
Y338998D01*
X411734Y340154D01*
X411135Y341190D01*
X410290Y342036D01*
X409254Y342634D01*
X408098Y342943D01*
D02*
G37*
G36*
X407000D02*
X406902D01*
X405746Y342634D01*
X404710Y342036D01*
X403864Y341190D01*
X403266Y340154D01*
X402957Y338998D01*
Y338900D01*
X407000D01*
Y342943D01*
D02*
G37*
G36*
X412043Y337900D02*
X408000D01*
Y333857D01*
X408098D01*
X409254Y334166D01*
X410290Y334765D01*
X411135Y335610D01*
X411734Y336646D01*
X412043Y337802D01*
Y337900D01*
D02*
G37*
G36*
X407000D02*
X402957D01*
Y337802D01*
X403266Y336646D01*
X403864Y335610D01*
X404710Y334765D01*
X405746Y334166D01*
X406902Y333857D01*
X407000D01*
Y337900D01*
D02*
G37*
G36*
X398098Y342943D02*
X396902D01*
X395746Y342634D01*
X394710Y342036D01*
X393864Y341190D01*
X393266Y340154D01*
X392957Y338998D01*
Y337802D01*
X393266Y336646D01*
X393864Y335610D01*
X394710Y334765D01*
X395746Y334166D01*
X396902Y333857D01*
X398098D01*
X399254Y334166D01*
X400290Y334765D01*
X401135Y335610D01*
X401734Y336646D01*
X402043Y337802D01*
Y338998D01*
X401734Y340154D01*
X401135Y341190D01*
X400290Y342036D01*
X399254Y342634D01*
X398098Y342943D01*
D02*
G37*
G36*
X310598Y322543D02*
X310500D01*
Y318500D01*
X314543D01*
Y318598D01*
X314234Y319754D01*
X313635Y320790D01*
X312790Y321636D01*
X311754Y322234D01*
X310598Y322543D01*
D02*
G37*
G36*
X309500D02*
X309402D01*
X308246Y322234D01*
X307210Y321636D01*
X306364Y320790D01*
X305766Y319754D01*
X305457Y318598D01*
Y318500D01*
X309500D01*
Y322543D01*
D02*
G37*
G36*
X314543Y317500D02*
X310500D01*
Y313457D01*
X310598D01*
X311754Y313766D01*
X312790Y314365D01*
X313635Y315210D01*
X314234Y316246D01*
X314543Y317402D01*
Y317500D01*
D02*
G37*
G36*
X309500D02*
X305457D01*
Y317402D01*
X305766Y316246D01*
X306364Y315210D01*
X307210Y314365D01*
X308246Y313766D01*
X309402Y313457D01*
X309500D01*
Y317500D01*
D02*
G37*
G36*
X300598Y322543D02*
X299402D01*
X298246Y322234D01*
X297210Y321636D01*
X296364Y320790D01*
X295766Y319754D01*
X295457Y318598D01*
Y317402D01*
X295766Y316246D01*
X296364Y315210D01*
X297210Y314365D01*
X298246Y313766D01*
X299402Y313457D01*
X300598D01*
X301754Y313766D01*
X302790Y314365D01*
X303636Y315210D01*
X304234Y316246D01*
X304543Y317402D01*
Y318598D01*
X304234Y319754D01*
X303636Y320790D01*
X302790Y321636D01*
X301754Y322234D01*
X300598Y322543D01*
D02*
G37*
G36*
X326500Y312228D02*
Y310500D01*
X328228D01*
X327907Y311275D01*
X327274Y311908D01*
X326500Y312228D01*
D02*
G37*
G36*
X325500D02*
X324726Y311908D01*
X324093Y311275D01*
X323772Y310500D01*
X325500D01*
Y312228D01*
D02*
G37*
G36*
X328228Y309500D02*
X326500D01*
Y307772D01*
X327274Y308092D01*
X327907Y308726D01*
X328228Y309500D01*
D02*
G37*
G36*
X325500D02*
X323772D01*
X324093Y308726D01*
X324726Y308092D01*
X325500Y307772D01*
Y309500D01*
D02*
G37*
G36*
X222448Y400250D02*
X221552D01*
X220725Y399907D01*
X220093Y399274D01*
X219750Y398448D01*
Y397624D01*
X141063Y318937D01*
X140775Y318507D01*
X140674Y318000D01*
Y304729D01*
X140174Y304630D01*
X139908Y305275D01*
X139275Y305908D01*
X138500Y306228D01*
Y304000D01*
Y301772D01*
X139275Y302093D01*
X139908Y302726D01*
X140174Y303370D01*
X140674Y303271D01*
Y272352D01*
X140775Y271844D01*
X141063Y271414D01*
X145057Y267420D01*
X145487Y267133D01*
X145994Y267032D01*
X153094D01*
X155750Y264375D01*
Y263625D01*
X151451Y259326D01*
X142000D01*
X141493Y259225D01*
X141063Y258937D01*
X123451Y241325D01*
X117944D01*
X117856Y241826D01*
X118790Y242365D01*
X119635Y243210D01*
X120234Y244246D01*
X120543Y245402D01*
Y246598D01*
X120234Y247754D01*
X119635Y248790D01*
X118790Y249636D01*
X117754Y250234D01*
X116598Y250543D01*
X115402D01*
X114246Y250234D01*
X113210Y249636D01*
X112364Y248790D01*
X111766Y247754D01*
X111457Y246598D01*
Y245402D01*
X111766Y244246D01*
X112364Y243210D01*
X113210Y242365D01*
X114144Y241826D01*
X114056Y241325D01*
X107944D01*
X107856Y241826D01*
X108790Y242365D01*
X109635Y243210D01*
X110234Y244246D01*
X110543Y245402D01*
Y246598D01*
X110234Y247754D01*
X109635Y248790D01*
X108790Y249636D01*
X107754Y250234D01*
X106598Y250543D01*
X105402D01*
X104246Y250234D01*
X103210Y249636D01*
X102365Y248790D01*
X101766Y247754D01*
X101457Y246598D01*
Y245402D01*
X101766Y244246D01*
X102365Y243210D01*
X103210Y242365D01*
X104144Y241826D01*
X104056Y241325D01*
X97944D01*
X97856Y241826D01*
X98790Y242365D01*
X99635Y243210D01*
X100234Y244246D01*
X100543Y245402D01*
Y246598D01*
X100234Y247754D01*
X99635Y248790D01*
X98790Y249636D01*
X97754Y250234D01*
X96598Y250543D01*
X95402D01*
X94246Y250234D01*
X93210Y249636D01*
X92365Y248790D01*
X91766Y247754D01*
X91457Y246598D01*
Y245402D01*
X91766Y244246D01*
X92365Y243210D01*
X93210Y242365D01*
X94144Y241826D01*
X94056Y241325D01*
X76351D01*
X75844Y241225D01*
X75414Y240937D01*
X75063Y240586D01*
X74775Y240156D01*
X74674Y239649D01*
Y227856D01*
X74093Y227274D01*
X73750Y226448D01*
Y225552D01*
X74093Y224726D01*
X74726Y224093D01*
X75552Y223750D01*
X76448D01*
X77275Y224093D01*
X77908Y224726D01*
X78250Y225552D01*
Y226448D01*
X77908Y227274D01*
X77325Y227856D01*
Y238674D01*
X80521D01*
X80788Y238175D01*
X80775Y238156D01*
X80674Y237649D01*
Y231856D01*
X80093Y231275D01*
X79750Y230448D01*
Y229552D01*
X80093Y228726D01*
X80726Y228093D01*
X81552Y227750D01*
X82448D01*
X83275Y228093D01*
X83908Y228726D01*
X84250Y229552D01*
Y230448D01*
X83908Y231275D01*
X83325Y231856D01*
Y236674D01*
X105271D01*
X105370Y236175D01*
X104726Y235908D01*
X104093Y235275D01*
X103772Y234500D01*
X108228D01*
X107907Y235275D01*
X107274Y235908D01*
X106630Y236175D01*
X106729Y236674D01*
X108451D01*
X110063Y235063D01*
X110493Y234775D01*
X111000Y234675D01*
X137451D01*
X137613Y234513D01*
X138043Y234225D01*
X138550Y234124D01*
X157450D01*
X157957Y234225D01*
X158387Y234513D01*
X163625Y239750D01*
X164448D01*
X165275Y240092D01*
X165908Y240725D01*
X166250Y241552D01*
Y242448D01*
X165908Y243274D01*
X165275Y243907D01*
X164448Y244250D01*
X163552D01*
X162725Y243907D01*
X162092Y243274D01*
X161750Y242448D01*
Y241624D01*
X156901Y236775D01*
X150378D01*
X150100Y237191D01*
X150228Y237500D01*
X145772D01*
X145900Y237191D01*
X145622Y236775D01*
X139099D01*
X138937Y236937D01*
X138507Y237225D01*
X138000Y237326D01*
X111549D01*
X110662Y238213D01*
X110853Y238674D01*
X124000D01*
X124507Y238775D01*
X124937Y239063D01*
X142549Y256675D01*
X152000D01*
X152507Y256775D01*
X152937Y257063D01*
X157624Y261750D01*
X158448D01*
X159274Y262092D01*
X159907Y262725D01*
X160250Y263552D01*
Y264448D01*
X159907Y265275D01*
X159274Y265908D01*
X158448Y266250D01*
X157624D01*
X154580Y269295D01*
X154150Y269582D01*
X153642Y269683D01*
X146543D01*
X143325Y272901D01*
Y317451D01*
X221624Y395750D01*
X222448D01*
X223274Y396093D01*
X223907Y396726D01*
X224250Y397552D01*
Y398448D01*
X223907Y399274D01*
X223274Y399907D01*
X222448Y400250D01*
D02*
G37*
G36*
X137500Y306228D02*
X136725Y305908D01*
X136092Y305275D01*
X135772Y304500D01*
X137500D01*
Y306228D01*
D02*
G37*
G36*
Y303500D02*
X135772D01*
X136092Y302726D01*
X136725Y302093D01*
X137500Y301772D01*
Y303500D01*
D02*
G37*
G36*
X130598Y282543D02*
X129402D01*
X128246Y282234D01*
X127210Y281635D01*
X126365Y280790D01*
X125766Y279754D01*
X125457Y278598D01*
Y277402D01*
X125766Y276246D01*
X126365Y275210D01*
X127210Y274364D01*
X128246Y273766D01*
X129402Y273457D01*
X130598D01*
X131754Y273766D01*
X132790Y274364D01*
X133635Y275210D01*
X134234Y276246D01*
X134543Y277402D01*
Y278598D01*
X134234Y279754D01*
X133635Y280790D01*
X132790Y281635D01*
X131754Y282234D01*
X130598Y282543D01*
D02*
G37*
G36*
X120598D02*
X119402D01*
X118246Y282234D01*
X117210Y281635D01*
X116365Y280790D01*
X115766Y279754D01*
X115457Y278598D01*
Y277402D01*
X115766Y276246D01*
X116365Y275210D01*
X117210Y274364D01*
X118246Y273766D01*
X119402Y273457D01*
X120598D01*
X121754Y273766D01*
X122790Y274364D01*
X123635Y275210D01*
X124234Y276246D01*
X124543Y277402D01*
Y278598D01*
X124234Y279754D01*
X123635Y280790D01*
X122790Y281635D01*
X121754Y282234D01*
X120598Y282543D01*
D02*
G37*
G36*
X110598D02*
X109402D01*
X108246Y282234D01*
X107210Y281635D01*
X106365Y280790D01*
X105766Y279754D01*
X105457Y278598D01*
Y277402D01*
X105766Y276246D01*
X106365Y275210D01*
X107210Y274364D01*
X108246Y273766D01*
X109402Y273457D01*
X110598D01*
X111754Y273766D01*
X112790Y274364D01*
X113636Y275210D01*
X114234Y276246D01*
X114543Y277402D01*
Y278598D01*
X114234Y279754D01*
X113636Y280790D01*
X112790Y281635D01*
X111754Y282234D01*
X110598Y282543D01*
D02*
G37*
G36*
X104598Y266543D02*
X104500D01*
Y262500D01*
X108543D01*
Y262598D01*
X108234Y263754D01*
X107635Y264790D01*
X106790Y265635D01*
X105754Y266234D01*
X104598Y266543D01*
D02*
G37*
G36*
X103500D02*
X103402D01*
X102246Y266234D01*
X101210Y265635D01*
X100364Y264790D01*
X99766Y263754D01*
X99457Y262598D01*
Y262500D01*
X103500D01*
Y266543D01*
D02*
G37*
G36*
X172500Y262228D02*
Y260500D01*
X174228D01*
X173907Y261275D01*
X173275Y261908D01*
X172500Y262228D01*
D02*
G37*
G36*
X171500D02*
X170726Y261908D01*
X170092Y261275D01*
X169772Y260500D01*
X171500D01*
Y262228D01*
D02*
G37*
G36*
X174228Y259500D02*
X172500D01*
Y257772D01*
X173275Y258092D01*
X173907Y258726D01*
X174228Y259500D01*
D02*
G37*
G36*
X171500D02*
X169772D01*
X170092Y258726D01*
X170726Y258092D01*
X171500Y257772D01*
Y259500D01*
D02*
G37*
G36*
X114598Y266543D02*
X113402D01*
X112246Y266234D01*
X111210Y265635D01*
X110364Y264790D01*
X109766Y263754D01*
X109457Y262598D01*
Y261402D01*
X109766Y260246D01*
X110364Y259210D01*
X111210Y258365D01*
X112246Y257766D01*
X113402Y257457D01*
X114598D01*
X115754Y257766D01*
X116790Y258365D01*
X117636Y259210D01*
X118234Y260246D01*
X118543Y261402D01*
Y262598D01*
X118234Y263754D01*
X117636Y264790D01*
X116790Y265635D01*
X115754Y266234D01*
X114598Y266543D01*
D02*
G37*
G36*
X108543Y261500D02*
X104500D01*
Y257457D01*
X104598D01*
X105754Y257766D01*
X106790Y258365D01*
X107635Y259210D01*
X108234Y260246D01*
X108543Y261402D01*
Y261500D01*
D02*
G37*
G36*
X103500D02*
X99457D01*
Y261402D01*
X99766Y260246D01*
X100364Y259210D01*
X101210Y258365D01*
X102246Y257766D01*
X103402Y257457D01*
X103500D01*
Y261500D01*
D02*
G37*
G36*
X148500Y240228D02*
Y238500D01*
X150228D01*
X149908Y239275D01*
X149275Y239908D01*
X148500Y240228D01*
D02*
G37*
G36*
X147500D02*
X146725Y239908D01*
X146092Y239275D01*
X145772Y238500D01*
X147500D01*
Y240228D01*
D02*
G37*
G36*
X108228Y233500D02*
X106500D01*
Y231772D01*
X107274Y232092D01*
X107907Y232726D01*
X108228Y233500D01*
D02*
G37*
G36*
X105500D02*
X103772D01*
X104093Y232726D01*
X104726Y232092D01*
X105500Y231772D01*
Y233500D01*
D02*
G37*
G36*
X134500Y224228D02*
Y222500D01*
X136228D01*
X135907Y223274D01*
X135275Y223907D01*
X134500Y224228D01*
D02*
G37*
G36*
X133500D02*
X132726Y223907D01*
X132092Y223274D01*
X131772Y222500D01*
X133500D01*
Y224228D01*
D02*
G37*
G36*
X136228Y221500D02*
X134500D01*
Y219772D01*
X135275Y220093D01*
X135907Y220725D01*
X136228Y221500D01*
D02*
G37*
G36*
X133500D02*
X131772D01*
X132092Y220725D01*
X132726Y220093D01*
X133500Y219772D01*
Y221500D01*
D02*
G37*
G36*
X112598Y224543D02*
X111402D01*
X110246Y224234D01*
X109210Y223636D01*
X108364Y222790D01*
X107766Y221754D01*
X107457Y220598D01*
Y219402D01*
X107766Y218246D01*
X108364Y217210D01*
X109210Y216365D01*
X110246Y215766D01*
X111402Y215457D01*
X112598D01*
X113754Y215766D01*
X114790Y216365D01*
X115636Y217210D01*
X116234Y218246D01*
X116543Y219402D01*
Y220598D01*
X116234Y221754D01*
X115636Y222790D01*
X114790Y223636D01*
X113754Y224234D01*
X112598Y224543D01*
D02*
G37*
G36*
X264448Y396250D02*
X263552D01*
X262725Y395907D01*
X262092Y395274D01*
X261750Y394448D01*
Y393913D01*
X255366Y387529D01*
X224000D01*
X223415Y387413D01*
X222919Y387081D01*
X180919Y345081D01*
X180587Y344585D01*
X180471Y344000D01*
Y305653D01*
X180093Y305275D01*
X179750Y304448D01*
Y303913D01*
X165919Y290081D01*
X165587Y289585D01*
X165471Y289000D01*
Y277000D01*
X165587Y276415D01*
X165919Y275919D01*
X178471Y263367D01*
Y250634D01*
X161366Y233529D01*
X122000D01*
X121415Y233413D01*
X120919Y233081D01*
X120587Y232585D01*
X120471Y232000D01*
Y220634D01*
X113955Y214118D01*
X113754Y214234D01*
X112598Y214543D01*
X111402D01*
X110246Y214234D01*
X109210Y213635D01*
X108364Y212790D01*
X107766Y211754D01*
X107457Y210598D01*
Y209402D01*
X107766Y208246D01*
X108364Y207210D01*
X109210Y206364D01*
X110246Y205766D01*
X111402Y205457D01*
X112598D01*
X113754Y205766D01*
X114790Y206364D01*
X115636Y207210D01*
X116234Y208246D01*
X116543Y209402D01*
Y210598D01*
X116234Y211754D01*
X116118Y211955D01*
X123081Y218919D01*
X123413Y219415D01*
X123529Y220000D01*
Y230471D01*
X162000D01*
X162585Y230587D01*
X163081Y230919D01*
X181081Y248919D01*
X181413Y249415D01*
X181529Y250000D01*
Y264000D01*
X181413Y264585D01*
X181081Y265081D01*
X168529Y277634D01*
Y288367D01*
X181913Y301750D01*
X182448D01*
X183274Y302093D01*
X183907Y302726D01*
X184250Y303552D01*
Y304448D01*
X183907Y305275D01*
X183529Y305653D01*
Y343367D01*
X224634Y384471D01*
X256000D01*
X256585Y384587D01*
X257081Y384919D01*
X263913Y391750D01*
X264448D01*
X265275Y392092D01*
X265908Y392725D01*
X266250Y393552D01*
Y394448D01*
X265908Y395274D01*
X265275Y395907D01*
X264448Y396250D01*
D02*
G37*
G36*
X146598Y216543D02*
X145402D01*
X144246Y216234D01*
X143210Y215635D01*
X142365Y214790D01*
X141766Y213754D01*
X141457Y212598D01*
Y211402D01*
X141766Y210246D01*
X142365Y209210D01*
X143210Y208365D01*
X144246Y207766D01*
X145402Y207457D01*
X146598D01*
X147754Y207766D01*
X148790Y208365D01*
X149636Y209210D01*
X150234Y210246D01*
X150543Y211402D01*
Y212598D01*
X150234Y213754D01*
X149636Y214790D01*
X148790Y215635D01*
X147754Y216234D01*
X146598Y216543D01*
D02*
G37*
G36*
X136598D02*
X135402D01*
X134246Y216234D01*
X133210Y215635D01*
X132364Y214790D01*
X131766Y213754D01*
X131457Y212598D01*
Y211402D01*
X131766Y210246D01*
X132364Y209210D01*
X133210Y208365D01*
X134246Y207766D01*
X135402Y207457D01*
X136598D01*
X137754Y207766D01*
X138790Y208365D01*
X139636Y209210D01*
X140234Y210246D01*
X140543Y211402D01*
Y212598D01*
X140234Y213754D01*
X139636Y214790D01*
X138790Y215635D01*
X137754Y216234D01*
X136598Y216543D01*
D02*
G37*
G36*
X146598Y202543D02*
X145402D01*
X144246Y202234D01*
X143210Y201636D01*
X142365Y200790D01*
X141766Y199754D01*
X141457Y198598D01*
Y197402D01*
X141766Y196246D01*
X142365Y195210D01*
X143210Y194365D01*
X144246Y193766D01*
X145402Y193457D01*
X146598D01*
X147754Y193766D01*
X148790Y194365D01*
X149636Y195210D01*
X150234Y196246D01*
X150543Y197402D01*
Y198598D01*
X150234Y199754D01*
X149636Y200790D01*
X148790Y201636D01*
X147754Y202234D01*
X146598Y202543D01*
D02*
G37*
G36*
X136598D02*
X135402D01*
X134246Y202234D01*
X133210Y201636D01*
X132364Y200790D01*
X131766Y199754D01*
X131457Y198598D01*
Y197402D01*
X131766Y196246D01*
X132364Y195210D01*
X133210Y194365D01*
X134246Y193766D01*
X135402Y193457D01*
X136598D01*
X137754Y193766D01*
X138790Y194365D01*
X139636Y195210D01*
X140234Y196246D01*
X140543Y197402D01*
Y198598D01*
X140234Y199754D01*
X139636Y200790D01*
X138790Y201636D01*
X137754Y202234D01*
X136598Y202543D01*
D02*
G37*
G36*
X178500Y192228D02*
Y190500D01*
X180228D01*
X179908Y191274D01*
X179274Y191908D01*
X178500Y192228D01*
D02*
G37*
G36*
X177500D02*
X176725Y191908D01*
X176093Y191274D01*
X175772Y190500D01*
X177500D01*
Y192228D01*
D02*
G37*
G36*
X180228Y189500D02*
X178500D01*
Y187772D01*
X179274Y188093D01*
X179908Y188725D01*
X180228Y189500D01*
D02*
G37*
G36*
X177500D02*
X175772D01*
X176093Y188725D01*
X176725Y188093D01*
X177500Y187772D01*
Y189500D01*
D02*
G37*
G36*
X76500Y188228D02*
Y186500D01*
X78228D01*
X77908Y187275D01*
X77275Y187908D01*
X76500Y188228D01*
D02*
G37*
G36*
X75500D02*
X74726Y187908D01*
X74093Y187275D01*
X73772Y186500D01*
X75500D01*
Y188228D01*
D02*
G37*
G36*
X78228Y185500D02*
X76500D01*
Y183772D01*
X77275Y184092D01*
X77908Y184725D01*
X78228Y185500D01*
D02*
G37*
G36*
X75500D02*
X73772D01*
X74093Y184725D01*
X74726Y184092D01*
X75500Y183772D01*
Y185500D01*
D02*
G37*
G36*
X224500Y184228D02*
Y182500D01*
X226228D01*
X225907Y183274D01*
X225274Y183907D01*
X224500Y184228D01*
D02*
G37*
G36*
X223500D02*
X222726Y183907D01*
X222093Y183274D01*
X221772Y182500D01*
X223500D01*
Y184228D01*
D02*
G37*
G36*
X226228Y181500D02*
X224500D01*
Y179772D01*
X225274Y180093D01*
X225907Y180726D01*
X226228Y181500D01*
D02*
G37*
G36*
X223500D02*
X221772D01*
X222093Y180726D01*
X222726Y180093D01*
X223500Y179772D01*
Y181500D01*
D02*
G37*
G36*
X140500Y180228D02*
Y178500D01*
X142228D01*
X141908Y179274D01*
X141274Y179908D01*
X140500Y180228D01*
D02*
G37*
G36*
X139500D02*
X138725Y179908D01*
X138093Y179274D01*
X137772Y178500D01*
X139500D01*
Y180228D01*
D02*
G37*
G36*
X132500D02*
Y178500D01*
X134228D01*
X133907Y179274D01*
X133274Y179908D01*
X132500Y180228D01*
D02*
G37*
G36*
X131500D02*
X130726Y179908D01*
X130093Y179274D01*
X129772Y178500D01*
X131500D01*
Y180228D01*
D02*
G37*
G36*
X142228Y177500D02*
X140500D01*
Y175772D01*
X141274Y176093D01*
X141908Y176725D01*
X142228Y177500D01*
D02*
G37*
G36*
X139500D02*
X137772D01*
X138093Y176725D01*
X138725Y176093D01*
X139500Y175772D01*
Y177500D01*
D02*
G37*
G36*
X134228D02*
X132500D01*
Y175772D01*
X133274Y176093D01*
X133907Y176725D01*
X134228Y177500D01*
D02*
G37*
G36*
X131500D02*
X129772D01*
X130093Y176725D01*
X130726Y176093D01*
X131500Y175772D01*
Y177500D01*
D02*
G37*
G36*
X148448Y180250D02*
X147552D01*
X146725Y179908D01*
X146092Y179274D01*
X145750Y178448D01*
Y177624D01*
X143051Y174925D01*
X128949D01*
X126250Y177624D01*
Y178448D01*
X125908Y179274D01*
X125275Y179908D01*
X124448Y180250D01*
X123552D01*
X122725Y179908D01*
X122092Y179274D01*
X121750Y178448D01*
Y177552D01*
X122092Y176725D01*
X122725Y176093D01*
X123552Y175750D01*
X124375D01*
X126068Y174057D01*
X125891Y173527D01*
X125685Y173497D01*
X125275Y173907D01*
X124448Y174250D01*
X123552D01*
X122725Y173907D01*
X122092Y173275D01*
X121750Y172448D01*
Y171552D01*
X122092Y170726D01*
X122725Y170092D01*
X123552Y169750D01*
X124448D01*
X125275Y170092D01*
X125856Y170675D01*
X146143D01*
X146725Y170092D01*
X147552Y169750D01*
X148448D01*
X149275Y170092D01*
X149908Y170726D01*
X150250Y171552D01*
Y172448D01*
X149908Y173275D01*
X149275Y173907D01*
X148448Y174250D01*
X147552D01*
X146725Y173907D01*
X146315Y173497D01*
X146108Y173527D01*
X145932Y174057D01*
X147625Y175750D01*
X148448D01*
X149275Y176093D01*
X149908Y176725D01*
X150250Y177552D01*
Y178448D01*
X149908Y179274D01*
X149275Y179908D01*
X148448Y180250D01*
D02*
G37*
G36*
X102598Y180543D02*
X101402D01*
X100246Y180234D01*
X99210Y179636D01*
X98365Y178790D01*
X97766Y177754D01*
X97457Y176598D01*
Y175402D01*
X97766Y174246D01*
X98365Y173210D01*
X99210Y172364D01*
X100246Y171766D01*
X101402Y171457D01*
X102598D01*
X103754Y171766D01*
X104790Y172364D01*
X105635Y173210D01*
X106234Y174246D01*
X106543Y175402D01*
Y176598D01*
X106234Y177754D01*
X105635Y178790D01*
X104790Y179636D01*
X103754Y180234D01*
X102598Y180543D01*
D02*
G37*
G36*
X92598D02*
X91402D01*
X90246Y180234D01*
X89210Y179636D01*
X88364Y178790D01*
X87766Y177754D01*
X87457Y176598D01*
Y175402D01*
X87766Y174246D01*
X88364Y173210D01*
X89210Y172364D01*
X90246Y171766D01*
X91402Y171457D01*
X92598D01*
X93754Y171766D01*
X94790Y172364D01*
X95635Y173210D01*
X96234Y174246D01*
X96543Y175402D01*
Y176598D01*
X96234Y177754D01*
X95635Y178790D01*
X94790Y179636D01*
X93754Y180234D01*
X92598Y180543D01*
D02*
G37*
G36*
X82598D02*
X81402D01*
X80246Y180234D01*
X79210Y179636D01*
X78364Y178790D01*
X77766Y177754D01*
X77457Y176598D01*
Y175402D01*
X77766Y174246D01*
X78364Y173210D01*
X79210Y172364D01*
X80246Y171766D01*
X81402Y171457D01*
X82598D01*
X83754Y171766D01*
X84790Y172364D01*
X85636Y173210D01*
X86234Y174246D01*
X86543Y175402D01*
Y176598D01*
X86234Y177754D01*
X85636Y178790D01*
X84790Y179636D01*
X83754Y180234D01*
X82598Y180543D01*
D02*
G37*
G36*
X168500Y165691D02*
Y163963D01*
X170228D01*
X169907Y164737D01*
X169274Y165371D01*
X168500Y165691D01*
D02*
G37*
G36*
X167500D02*
X166726Y165371D01*
X166093Y164737D01*
X165772Y163963D01*
X167500D01*
Y165691D01*
D02*
G37*
G36*
X145850Y169475D02*
X130150D01*
X129643Y169375D01*
X129569Y169325D01*
X126000D01*
X125493Y169225D01*
X125063Y168937D01*
X124375Y168250D01*
X123552D01*
X122725Y167908D01*
X122092Y167274D01*
X121750Y166448D01*
Y165552D01*
X122092Y164725D01*
X122725Y164093D01*
X123552Y163750D01*
X124448D01*
X125275Y164093D01*
X125908Y164725D01*
X126250Y165552D01*
Y166376D01*
X126549Y166674D01*
X128147D01*
X128338Y166213D01*
X124375Y162250D01*
X123552D01*
X122725Y161907D01*
X122092Y161275D01*
X121750Y160448D01*
Y159552D01*
X122092Y158726D01*
X122725Y158092D01*
X123552Y157750D01*
X124448D01*
X125275Y158092D01*
X125908Y158726D01*
X126250Y159552D01*
Y160375D01*
X130588Y164713D01*
X130901Y164775D01*
X131331Y165063D01*
X131493Y165225D01*
X140901D01*
X145750Y160375D01*
Y159552D01*
X146092Y158726D01*
X146725Y158092D01*
X147552Y157750D01*
X148448D01*
X149275Y158092D01*
X149908Y158726D01*
X150250Y159552D01*
Y160448D01*
X149908Y161275D01*
X149275Y161907D01*
X148448Y162250D01*
X147625D01*
X143512Y166363D01*
X143703Y166824D01*
X145301D01*
X145750Y166376D01*
Y165552D01*
X146092Y164725D01*
X146725Y164093D01*
X147552Y163750D01*
X148448D01*
X149275Y164093D01*
X149908Y164725D01*
X150250Y165552D01*
Y166448D01*
X149908Y167274D01*
X149275Y167908D01*
X148448Y168250D01*
X147625D01*
X146787Y169087D01*
X146357Y169375D01*
X145850Y169475D01*
D02*
G37*
G36*
X140500Y164228D02*
Y162500D01*
X142228D01*
X141908Y163275D01*
X141274Y163908D01*
X140500Y164228D01*
D02*
G37*
G36*
X139500D02*
X138725Y163908D01*
X138093Y163275D01*
X137772Y162500D01*
X139500D01*
Y164228D01*
D02*
G37*
G36*
X132500D02*
Y162500D01*
X134228D01*
X133907Y163275D01*
X133274Y163908D01*
X132500Y164228D01*
D02*
G37*
G36*
X131500D02*
X130726Y163908D01*
X130093Y163275D01*
X129772Y162500D01*
X131500D01*
Y164228D01*
D02*
G37*
G36*
X170228Y162963D02*
X168500D01*
Y161235D01*
X169274Y161556D01*
X169907Y162188D01*
X170228Y162963D01*
D02*
G37*
G36*
X167500D02*
X165772D01*
X166093Y162188D01*
X166726Y161556D01*
X167500Y161235D01*
Y162963D01*
D02*
G37*
G36*
X142228Y161500D02*
X140500D01*
Y159772D01*
X141274Y160092D01*
X141908Y160725D01*
X142228Y161500D01*
D02*
G37*
G36*
X139500D02*
X137772D01*
X138093Y160725D01*
X138725Y160092D01*
X139500Y159772D01*
Y161500D01*
D02*
G37*
G36*
X134228D02*
X132500D01*
Y159772D01*
X133274Y160092D01*
X133907Y160725D01*
X134228Y161500D01*
D02*
G37*
G36*
X131500D02*
X129772D01*
X130093Y160725D01*
X130726Y160092D01*
X131500Y159772D01*
Y161500D01*
D02*
G37*
G36*
X212500Y156228D02*
Y154500D01*
X214228D01*
X213908Y155274D01*
X213275Y155907D01*
X212500Y156228D01*
D02*
G37*
G36*
X211500D02*
X210725Y155907D01*
X210092Y155274D01*
X209772Y154500D01*
X211500D01*
Y156228D01*
D02*
G37*
G36*
X214228Y153500D02*
X212500D01*
Y151772D01*
X213275Y152093D01*
X213908Y152726D01*
X214228Y153500D01*
D02*
G37*
G36*
X211500D02*
X209772D01*
X210092Y152726D01*
X210725Y152093D01*
X211500Y151772D01*
Y153500D01*
D02*
G37*
G36*
X230500Y140228D02*
Y138500D01*
X232228D01*
X231908Y139275D01*
X231275Y139908D01*
X230500Y140228D01*
D02*
G37*
G36*
X229500D02*
X228726Y139908D01*
X228093Y139275D01*
X227772Y138500D01*
X229500D01*
Y140228D01*
D02*
G37*
G36*
X232228Y137500D02*
X230500D01*
Y135772D01*
X231275Y136092D01*
X231908Y136725D01*
X232228Y137500D01*
D02*
G37*
G36*
X229500D02*
X227772D01*
X228093Y136725D01*
X228726Y136092D01*
X229500Y135772D01*
Y137500D01*
D02*
G37*
G36*
X150500Y122228D02*
Y120500D01*
X152228D01*
X151908Y121274D01*
X151275Y121907D01*
X150500Y122228D01*
D02*
G37*
G36*
X149500D02*
X148725Y121907D01*
X148092Y121274D01*
X147772Y120500D01*
X149500D01*
Y122228D01*
D02*
G37*
G36*
X142500D02*
Y120500D01*
X144228D01*
X143907Y121274D01*
X143274Y121907D01*
X142500Y122228D01*
D02*
G37*
G36*
X141500D02*
X140726Y121907D01*
X140093Y121274D01*
X139772Y120500D01*
X141500D01*
Y122228D01*
D02*
G37*
G36*
X158448Y124250D02*
X157552D01*
X156726Y123907D01*
X156093Y123275D01*
X155750Y122448D01*
Y121625D01*
X151451Y117325D01*
X150729D01*
X150630Y117825D01*
X151275Y118093D01*
X151908Y118726D01*
X152228Y119500D01*
X147772D01*
X148092Y118726D01*
X148725Y118093D01*
X149370Y117825D01*
X149271Y117325D01*
X142729D01*
X142630Y117825D01*
X143274Y118093D01*
X143907Y118726D01*
X144228Y119500D01*
X139772D01*
X140093Y118726D01*
X140726Y118093D01*
X141370Y117825D01*
X141271Y117325D01*
X138549D01*
X136250Y119624D01*
Y120448D01*
X135907Y121274D01*
X135275Y121907D01*
X134448Y122250D01*
X133552D01*
X132726Y121907D01*
X132092Y121274D01*
X131750Y120448D01*
Y119552D01*
X132092Y118726D01*
X132726Y118093D01*
X133552Y117750D01*
X134376D01*
X136780Y115346D01*
X137019Y115000D01*
X136780Y114655D01*
X134376Y112250D01*
X133552D01*
X132726Y111907D01*
X132092Y111275D01*
X131750Y110448D01*
Y109552D01*
X132092Y108726D01*
X132726Y108092D01*
X133552Y107750D01*
X134448D01*
X135275Y108092D01*
X135907Y108726D01*
X136250Y109552D01*
Y110375D01*
X138549Y112674D01*
X153451D01*
X155750Y110375D01*
Y109552D01*
X156093Y108726D01*
X156726Y108092D01*
X157552Y107750D01*
X158448D01*
X159274Y108092D01*
X159907Y108726D01*
X160250Y109552D01*
Y110448D01*
X159907Y111275D01*
X159274Y111907D01*
X158448Y112250D01*
X157624D01*
X154937Y114937D01*
X154507Y115225D01*
X154000Y115325D01*
X153853D01*
X153662Y115787D01*
X157624Y119750D01*
X158448D01*
X159274Y120092D01*
X159907Y120726D01*
X160250Y121552D01*
Y122448D01*
X159907Y123275D01*
X159274Y123907D01*
X158448Y124250D01*
D02*
G37*
G36*
X198500Y114228D02*
Y112500D01*
X200228D01*
X199908Y113275D01*
X199275Y113908D01*
X198500Y114228D01*
D02*
G37*
G36*
X197500D02*
X196725Y113908D01*
X196092Y113275D01*
X195772Y112500D01*
X197500D01*
Y114228D01*
D02*
G37*
G36*
X254598Y119080D02*
X253402D01*
X252246Y118771D01*
X251210Y118173D01*
X250364Y117327D01*
X249766Y116291D01*
X249457Y115135D01*
Y113939D01*
X249766Y112783D01*
X250364Y111747D01*
X251210Y110901D01*
X252246Y110303D01*
X253402Y109994D01*
X254598D01*
X255754Y110303D01*
X256790Y110901D01*
X257635Y111747D01*
X258234Y112783D01*
X258543Y113939D01*
Y115135D01*
X258234Y116291D01*
X257635Y117327D01*
X256790Y118173D01*
X255754Y118771D01*
X254598Y119080D01*
D02*
G37*
G36*
X244598D02*
X243402D01*
X242246Y118771D01*
X241210Y118173D01*
X240365Y117327D01*
X239766Y116291D01*
X239457Y115135D01*
Y113939D01*
X239766Y112783D01*
X240365Y111747D01*
X241210Y110901D01*
X242246Y110303D01*
X243402Y109994D01*
X244598D01*
X245754Y110303D01*
X246790Y110901D01*
X247636Y111747D01*
X248234Y112783D01*
X248543Y113939D01*
Y115135D01*
X248234Y116291D01*
X247636Y117327D01*
X246790Y118173D01*
X245754Y118771D01*
X244598Y119080D01*
D02*
G37*
G36*
X200228Y111500D02*
X198500D01*
Y109772D01*
X199275Y110092D01*
X199908Y110725D01*
X200228Y111500D01*
D02*
G37*
G36*
X197500D02*
X195772D01*
X196092Y110725D01*
X196725Y110092D01*
X197500Y109772D01*
Y111500D01*
D02*
G37*
G36*
X150500Y110228D02*
Y108500D01*
X152228D01*
X151908Y109274D01*
X151275Y109907D01*
X150500Y110228D01*
D02*
G37*
G36*
X149500D02*
X148725Y109907D01*
X148092Y109274D01*
X147772Y108500D01*
X149500D01*
Y110228D01*
D02*
G37*
G36*
X142500D02*
Y108500D01*
X144228D01*
X143907Y109274D01*
X143274Y109907D01*
X142500Y110228D01*
D02*
G37*
G36*
X141500D02*
X140726Y109907D01*
X140093Y109274D01*
X139772Y108500D01*
X141500D01*
Y110228D01*
D02*
G37*
G36*
X152228Y107500D02*
X150500D01*
Y105772D01*
X151275Y106093D01*
X151908Y106726D01*
X152228Y107500D01*
D02*
G37*
G36*
X149500D02*
X147772D01*
X148092Y106726D01*
X148725Y106093D01*
X149500Y105772D01*
Y107500D01*
D02*
G37*
G36*
X144228D02*
X142500D01*
Y105772D01*
X143274Y106093D01*
X143907Y106726D01*
X144228Y107500D01*
D02*
G37*
G36*
X141500D02*
X139772D01*
X140093Y106726D01*
X140726Y106093D01*
X141500Y105772D01*
Y107500D01*
D02*
G37*
G36*
X204500Y102228D02*
Y100500D01*
X206228D01*
X205908Y101275D01*
X205275Y101908D01*
X204500Y102228D01*
D02*
G37*
G36*
X203500D02*
X202726Y101908D01*
X202093Y101275D01*
X201772Y100500D01*
X203500D01*
Y102228D01*
D02*
G37*
G36*
X206228Y99500D02*
X204500D01*
Y97772D01*
X205275Y98093D01*
X205908Y98725D01*
X206228Y99500D01*
D02*
G37*
G36*
X203500D02*
X201772D01*
X202093Y98725D01*
X202726Y98093D01*
X203500Y97772D01*
Y99500D01*
D02*
G37*
G36*
X280500Y92228D02*
Y90500D01*
X282228D01*
X281908Y91274D01*
X281275Y91908D01*
X280500Y92228D01*
D02*
G37*
G36*
X279500D02*
X278726Y91908D01*
X278093Y91274D01*
X277772Y90500D01*
X279500D01*
Y92228D01*
D02*
G37*
G36*
X282228Y89500D02*
X280500D01*
Y87772D01*
X281275Y88092D01*
X281908Y88726D01*
X282228Y89500D01*
D02*
G37*
G36*
X279500D02*
X277772D01*
X278093Y88726D01*
X278726Y88092D01*
X279500Y87772D01*
Y89500D01*
D02*
G37*
G36*
X184500Y64228D02*
Y62500D01*
X186228D01*
X185907Y63275D01*
X185275Y63907D01*
X184500Y64228D01*
D02*
G37*
G36*
X183500D02*
X182726Y63907D01*
X182092Y63275D01*
X181772Y62500D01*
X183500D01*
Y64228D01*
D02*
G37*
G36*
X186228Y61500D02*
X184500D01*
Y59772D01*
X185275Y60093D01*
X185907Y60725D01*
X186228Y61500D01*
D02*
G37*
G36*
X183500D02*
X181772D01*
X182092Y60725D01*
X182726Y60093D01*
X183500Y59772D01*
Y61500D01*
D02*
G37*
G36*
X186680Y44905D02*
X186500D01*
Y38500D01*
X192905D01*
Y38680D01*
X192640Y40014D01*
X192120Y41271D01*
X191364Y42402D01*
X190402Y43364D01*
X189271Y44120D01*
X188014Y44640D01*
X186680Y44905D01*
D02*
G37*
G36*
X185500D02*
X185320D01*
X183986Y44640D01*
X182729Y44120D01*
X181598Y43364D01*
X180636Y42402D01*
X179880Y41271D01*
X179360Y40014D01*
X179095Y38680D01*
Y38500D01*
X185500D01*
Y44905D01*
D02*
G37*
G36*
X226050D02*
X224690D01*
X223356Y44640D01*
X222099Y44120D01*
X220968Y43364D01*
X220006Y42402D01*
X219250Y41271D01*
X218730Y40014D01*
X218465Y38680D01*
Y37320D01*
X218730Y35986D01*
X219250Y34729D01*
X220006Y33598D01*
X220968Y32636D01*
X222099Y31880D01*
X223356Y31360D01*
X224690Y31095D01*
X226050D01*
X227384Y31360D01*
X228641Y31880D01*
X229772Y32636D01*
X230734Y33598D01*
X231490Y34729D01*
X232010Y35986D01*
X232276Y37320D01*
Y38680D01*
X232010Y40014D01*
X231490Y41271D01*
X230734Y42402D01*
X229772Y43364D01*
X228641Y44120D01*
X227384Y44640D01*
X226050Y44905D01*
D02*
G37*
G36*
X206365D02*
X205005D01*
X203671Y44640D01*
X202414Y44120D01*
X201283Y43364D01*
X200321Y42402D01*
X199565Y41271D01*
X199045Y40014D01*
X198779Y38680D01*
Y37320D01*
X199045Y35986D01*
X199565Y34729D01*
X200321Y33598D01*
X201283Y32636D01*
X202414Y31880D01*
X203671Y31360D01*
X205005Y31095D01*
X206365D01*
X207699Y31360D01*
X208956Y31880D01*
X210087Y32636D01*
X211049Y33598D01*
X211805Y34729D01*
X212325Y35986D01*
X212591Y37320D01*
Y38680D01*
X212325Y40014D01*
X211805Y41271D01*
X211049Y42402D01*
X210087Y43364D01*
X208956Y44120D01*
X207699Y44640D01*
X206365Y44905D01*
D02*
G37*
G36*
X192905Y37500D02*
X186500D01*
Y31095D01*
X186680D01*
X188014Y31360D01*
X189271Y31880D01*
X190402Y32636D01*
X191364Y33598D01*
X192120Y34729D01*
X192640Y35986D01*
X192905Y37320D01*
Y37500D01*
D02*
G37*
G36*
X185500D02*
X179095D01*
Y37320D01*
X179360Y35986D01*
X179880Y34729D01*
X180636Y33598D01*
X181598Y32636D01*
X182729Y31880D01*
X183986Y31360D01*
X185320Y31095D01*
X185500D01*
Y37500D01*
D02*
G37*
G36*
X166995Y44905D02*
X165635D01*
X164301Y44640D01*
X163044Y44120D01*
X161913Y43364D01*
X160951Y42402D01*
X160195Y41271D01*
X159675Y40014D01*
X159409Y38680D01*
Y37320D01*
X159675Y35986D01*
X160195Y34729D01*
X160951Y33598D01*
X161913Y32636D01*
X163044Y31880D01*
X164301Y31360D01*
X165635Y31095D01*
X166995D01*
X168329Y31360D01*
X169586Y31880D01*
X170717Y32636D01*
X171679Y33598D01*
X172434Y34729D01*
X172955Y35986D01*
X173221Y37320D01*
Y38680D01*
X172955Y40014D01*
X172434Y41271D01*
X171679Y42402D01*
X170717Y43364D01*
X169586Y44120D01*
X168329Y44640D01*
X166995Y44905D01*
D02*
G37*
G36*
X518500Y422228D02*
Y420500D01*
X520228D01*
X519908Y421275D01*
X519275Y421908D01*
X518500Y422228D01*
D02*
G37*
G36*
X517500D02*
X516725Y421908D01*
X516092Y421275D01*
X515772Y420500D01*
X517500D01*
Y422228D01*
D02*
G37*
G36*
X520228Y419500D02*
X518500D01*
Y417772D01*
X519275Y418092D01*
X519908Y418725D01*
X520228Y419500D01*
D02*
G37*
G36*
X517500D02*
X515772D01*
X516092Y418725D01*
X516725Y418092D01*
X517500Y417772D01*
Y419500D01*
D02*
G37*
G36*
X664680Y430905D02*
X663320D01*
X661986Y430640D01*
X660729Y430120D01*
X659598Y429364D01*
X658636Y428402D01*
X657880Y427271D01*
X657360Y426014D01*
X657094Y424680D01*
Y423320D01*
X657360Y421986D01*
X657880Y420729D01*
X658636Y419598D01*
X659598Y418636D01*
X660729Y417880D01*
X661986Y417360D01*
X663320Y417095D01*
X664680D01*
X666014Y417360D01*
X667271Y417880D01*
X668402Y418636D01*
X669364Y419598D01*
X670120Y420729D01*
X670640Y421986D01*
X670905Y423320D01*
Y424680D01*
X670640Y426014D01*
X670120Y427271D01*
X669364Y428402D01*
X668402Y429364D01*
X667271Y430120D01*
X666014Y430640D01*
X664680Y430905D01*
D02*
G37*
G36*
X50927Y429400D02*
X49273D01*
X47650Y429077D01*
X46121Y428444D01*
X44745Y427525D01*
X43575Y426355D01*
X42656Y424979D01*
X42023Y423450D01*
X41700Y421827D01*
Y420173D01*
X42023Y418550D01*
X42656Y417021D01*
X43575Y415645D01*
X44745Y414475D01*
X46121Y413556D01*
X47650Y412923D01*
X49273Y412600D01*
X50927D01*
X52550Y412923D01*
X54079Y413556D01*
X55455Y414475D01*
X56625Y415645D01*
X57544Y417021D01*
X58177Y418550D01*
X58500Y420173D01*
Y421827D01*
X58177Y423450D01*
X57544Y424979D01*
X56625Y426355D01*
X55455Y427525D01*
X54079Y428444D01*
X52550Y429077D01*
X50927Y429400D01*
D02*
G37*
G36*
X664680Y414906D02*
X664500D01*
Y408500D01*
X670905D01*
Y408680D01*
X670640Y410014D01*
X670120Y411271D01*
X669364Y412402D01*
X668402Y413364D01*
X667271Y414120D01*
X666014Y414640D01*
X664680Y414906D01*
D02*
G37*
G36*
X663500D02*
X663320D01*
X661986Y414640D01*
X660729Y414120D01*
X659598Y413364D01*
X658636Y412402D01*
X657880Y411271D01*
X657360Y410014D01*
X657094Y408680D01*
Y408500D01*
X663500D01*
Y414906D01*
D02*
G37*
G36*
X670905Y407500D02*
X664500D01*
Y401094D01*
X664680D01*
X666014Y401360D01*
X667271Y401880D01*
X668402Y402636D01*
X669364Y403598D01*
X670120Y404729D01*
X670640Y405986D01*
X670905Y407320D01*
Y407500D01*
D02*
G37*
G36*
X663500D02*
X657094D01*
Y407320D01*
X657360Y405986D01*
X657880Y404729D01*
X658636Y403598D01*
X659598Y402636D01*
X660729Y401880D01*
X661986Y401360D01*
X663320Y401094D01*
X663500D01*
Y407500D01*
D02*
G37*
G36*
X56592Y408500D02*
X55408D01*
X54263Y408193D01*
X53237Y407601D01*
X52399Y406763D01*
X51807Y405737D01*
X51500Y404592D01*
Y403408D01*
X51807Y402263D01*
X52399Y401237D01*
X53237Y400399D01*
X54263Y399807D01*
X55408Y399500D01*
X56592D01*
X57737Y399807D01*
X58763Y400399D01*
X59601Y401237D01*
X60193Y402263D01*
X60500Y403408D01*
Y404592D01*
X60193Y405737D01*
X59601Y406763D01*
X58763Y407601D01*
X57737Y408193D01*
X56592Y408500D01*
D02*
G37*
G36*
X44792D02*
X43608D01*
X42463Y408193D01*
X41437Y407601D01*
X40599Y406763D01*
X40007Y405737D01*
X39700Y404592D01*
Y403408D01*
X40007Y402263D01*
X40599Y401237D01*
X41437Y400399D01*
X42463Y399807D01*
X43608Y399500D01*
X44792D01*
X45937Y399807D01*
X46963Y400399D01*
X47801Y401237D01*
X48393Y402263D01*
X48700Y403408D01*
Y404592D01*
X48393Y405737D01*
X47801Y406763D01*
X46963Y407601D01*
X45937Y408193D01*
X44792Y408500D01*
D02*
G37*
G36*
X537798Y397543D02*
X536602D01*
X535446Y397234D01*
X534410Y396636D01*
X533565Y395790D01*
X532966Y394754D01*
X532657Y393598D01*
Y392402D01*
X532966Y391246D01*
X533565Y390210D01*
X534410Y389365D01*
X535446Y388766D01*
X536602Y388457D01*
X537798D01*
X538954Y388766D01*
X539990Y389365D01*
X540836Y390210D01*
X541434Y391246D01*
X541743Y392402D01*
Y393598D01*
X541434Y394754D01*
X540836Y395790D01*
X539990Y396636D01*
X538954Y397234D01*
X537798Y397543D01*
D02*
G37*
G36*
X527798D02*
X526602D01*
X525446Y397234D01*
X524410Y396636D01*
X523564Y395790D01*
X522966Y394754D01*
X522657Y393598D01*
Y392402D01*
X522966Y391246D01*
X523564Y390210D01*
X524410Y389365D01*
X525446Y388766D01*
X526602Y388457D01*
X527798D01*
X528954Y388766D01*
X529990Y389365D01*
X530835Y390210D01*
X531434Y391246D01*
X531743Y392402D01*
Y393598D01*
X531434Y394754D01*
X530835Y395790D01*
X529990Y396636D01*
X528954Y397234D01*
X527798Y397543D01*
D02*
G37*
G36*
X56592Y396700D02*
X55408D01*
X54263Y396393D01*
X53237Y395801D01*
X52399Y394963D01*
X51807Y393937D01*
X51500Y392792D01*
Y391608D01*
X51807Y390463D01*
X52399Y389437D01*
X53237Y388599D01*
X54263Y388007D01*
X55408Y387700D01*
X56592D01*
X57737Y388007D01*
X58763Y388599D01*
X59601Y389437D01*
X60193Y390463D01*
X60500Y391608D01*
Y392792D01*
X60193Y393937D01*
X59601Y394963D01*
X58763Y395801D01*
X57737Y396393D01*
X56592Y396700D01*
D02*
G37*
G36*
X44792D02*
X43608D01*
X42463Y396393D01*
X41437Y395801D01*
X40599Y394963D01*
X40007Y393937D01*
X39700Y392792D01*
Y391608D01*
X40007Y390463D01*
X40599Y389437D01*
X41437Y388599D01*
X42463Y388007D01*
X43608Y387700D01*
X44792D01*
X45937Y388007D01*
X46963Y388599D01*
X47801Y389437D01*
X48393Y390463D01*
X48700Y391608D01*
Y392792D01*
X48393Y393937D01*
X47801Y394963D01*
X46963Y395801D01*
X45937Y396393D01*
X44792Y396700D01*
D02*
G37*
G36*
X636500Y388228D02*
Y386500D01*
X638228D01*
X637908Y387275D01*
X637275Y387908D01*
X636500Y388228D01*
D02*
G37*
G36*
X635500D02*
X634726Y387908D01*
X634093Y387275D01*
X633772Y386500D01*
X635500D01*
Y388228D01*
D02*
G37*
G36*
X638228Y385500D02*
X636500D01*
Y383772D01*
X637275Y384092D01*
X637908Y384725D01*
X638228Y385500D01*
D02*
G37*
G36*
X635500D02*
X633772D01*
X634093Y384725D01*
X634726Y384092D01*
X635500Y383772D01*
Y385500D01*
D02*
G37*
G36*
X484401Y380438D02*
X480901D01*
Y376938D01*
X484401D01*
Y380438D01*
D02*
G37*
G36*
X479901D02*
X476401D01*
Y376938D01*
X479901D01*
Y380438D01*
D02*
G37*
G36*
X92598Y384543D02*
X91402D01*
X90246Y384234D01*
X89210Y383635D01*
X88364Y382790D01*
X87766Y381754D01*
X87457Y380598D01*
Y379402D01*
X87766Y378246D01*
X88364Y377210D01*
X89210Y376364D01*
X90246Y375766D01*
X91402Y375457D01*
X92598D01*
X93754Y375766D01*
X94790Y376364D01*
X95635Y377210D01*
X96234Y378246D01*
X96543Y379402D01*
Y380598D01*
X96234Y381754D01*
X95635Y382790D01*
X94790Y383635D01*
X93754Y384234D01*
X92598Y384543D01*
D02*
G37*
G36*
X494401Y380438D02*
X486401D01*
Y372438D01*
X494401D01*
Y380438D01*
D02*
G37*
G36*
X484401Y375938D02*
X480901D01*
Y372438D01*
X484401D01*
Y375938D01*
D02*
G37*
G36*
X479901D02*
X476401D01*
Y372438D01*
X479901D01*
Y375938D01*
D02*
G37*
G36*
X56598Y376543D02*
X55402D01*
X54246Y376234D01*
X53210Y375636D01*
X52364Y374790D01*
X51766Y373754D01*
X51457Y372598D01*
Y371402D01*
X51766Y370246D01*
X52364Y369210D01*
X53210Y368365D01*
X54246Y367766D01*
X55402Y367457D01*
X56598D01*
X57754Y367766D01*
X58790Y368365D01*
X59636Y369210D01*
X60234Y370246D01*
X60543Y371402D01*
Y372598D01*
X60234Y373754D01*
X59636Y374790D01*
X58790Y375636D01*
X57754Y376234D01*
X56598Y376543D01*
D02*
G37*
G36*
X46598D02*
X45402D01*
X44246Y376234D01*
X43210Y375636D01*
X42364Y374790D01*
X41766Y373754D01*
X41457Y372598D01*
Y371402D01*
X41766Y370246D01*
X42364Y369210D01*
X43210Y368365D01*
X44246Y367766D01*
X45402Y367457D01*
X46598D01*
X47754Y367766D01*
X48790Y368365D01*
X49635Y369210D01*
X50234Y370246D01*
X50543Y371402D01*
Y372598D01*
X50234Y373754D01*
X49635Y374790D01*
X48790Y375636D01*
X47754Y376234D01*
X46598Y376543D01*
D02*
G37*
G36*
X92598Y374543D02*
X91402D01*
X90246Y374234D01*
X89210Y373636D01*
X88364Y372790D01*
X87766Y371754D01*
X87457Y370598D01*
Y369402D01*
X87766Y368246D01*
X88364Y367210D01*
X89210Y366365D01*
X90246Y365766D01*
X91402Y365457D01*
X92598D01*
X93754Y365766D01*
X94790Y366365D01*
X95635Y367210D01*
X96234Y368246D01*
X96543Y369402D01*
Y370598D01*
X96234Y371754D01*
X95635Y372790D01*
X94790Y373636D01*
X93754Y374234D01*
X92598Y374543D01*
D02*
G37*
G36*
X480500Y366228D02*
Y364500D01*
X482228D01*
X481908Y365275D01*
X481275Y365908D01*
X480500Y366228D01*
D02*
G37*
G36*
X479500D02*
X478725Y365908D01*
X478092Y365275D01*
X477772Y364500D01*
X479500D01*
Y366228D01*
D02*
G37*
G36*
X584898Y371343D02*
X583702D01*
X582546Y371034D01*
X581510Y370436D01*
X580664Y369590D01*
X580066Y368554D01*
X579757Y367398D01*
Y366202D01*
X580066Y365046D01*
X580664Y364010D01*
X581510Y363164D01*
X582546Y362566D01*
X583702Y362257D01*
X584898D01*
X586054Y362566D01*
X587090Y363164D01*
X587935Y364010D01*
X588534Y365046D01*
X588843Y366202D01*
Y367398D01*
X588534Y368554D01*
X587935Y369590D01*
X587090Y370436D01*
X586054Y371034D01*
X584898Y371343D01*
D02*
G37*
G36*
X482228Y363500D02*
X480500D01*
Y361772D01*
X481275Y362092D01*
X481908Y362725D01*
X482228Y363500D01*
D02*
G37*
G36*
X479500D02*
X477772D01*
X478092Y362725D01*
X478725Y362092D01*
X479500Y361772D01*
Y363500D01*
D02*
G37*
G36*
X506500Y360228D02*
Y358500D01*
X508228D01*
X507907Y359275D01*
X507274Y359908D01*
X506500Y360228D01*
D02*
G37*
G36*
X505500D02*
X504726Y359908D01*
X504093Y359275D01*
X503772Y358500D01*
X505500D01*
Y360228D01*
D02*
G37*
G36*
X508228Y357500D02*
X506500D01*
Y355772D01*
X507274Y356093D01*
X507907Y356726D01*
X508228Y357500D01*
D02*
G37*
G36*
X505500D02*
X503772D01*
X504093Y356726D01*
X504726Y356093D01*
X505500Y355772D01*
Y357500D01*
D02*
G37*
G36*
X626500Y356228D02*
Y354500D01*
X628228D01*
X627908Y355275D01*
X627275Y355908D01*
X626500Y356228D01*
D02*
G37*
G36*
X625500D02*
X624725Y355908D01*
X624092Y355275D01*
X623772Y354500D01*
X625500D01*
Y356228D01*
D02*
G37*
G36*
X598500D02*
Y354500D01*
X600228D01*
X599907Y355275D01*
X599274Y355908D01*
X598500Y356228D01*
D02*
G37*
G36*
X597500D02*
X596726Y355908D01*
X596093Y355275D01*
X595772Y354500D01*
X597500D01*
Y356228D01*
D02*
G37*
G36*
X584898Y361343D02*
X583702D01*
X582546Y361034D01*
X581510Y360436D01*
X580664Y359590D01*
X580066Y358554D01*
X579757Y357398D01*
Y356202D01*
X580066Y355046D01*
X580664Y354010D01*
X581510Y353165D01*
X582546Y352566D01*
X583702Y352257D01*
X584898D01*
X586054Y352566D01*
X587090Y353165D01*
X587935Y354010D01*
X588534Y355046D01*
X588843Y356202D01*
Y357398D01*
X588534Y358554D01*
X587935Y359590D01*
X587090Y360436D01*
X586054Y361034D01*
X584898Y361343D01*
D02*
G37*
G36*
X628228Y353500D02*
X626500D01*
Y351772D01*
X627275Y352093D01*
X627908Y352726D01*
X628228Y353500D01*
D02*
G37*
G36*
X625500D02*
X623772D01*
X624092Y352726D01*
X624725Y352093D01*
X625500Y351772D01*
Y353500D01*
D02*
G37*
G36*
X600228D02*
X598500D01*
Y351772D01*
X599274Y352093D01*
X599907Y352726D01*
X600228Y353500D01*
D02*
G37*
G36*
X597500D02*
X595772D01*
X596093Y352726D01*
X596726Y352093D01*
X597500Y351772D01*
Y353500D01*
D02*
G37*
G36*
X78500Y346228D02*
Y344500D01*
X80228D01*
X79908Y345274D01*
X79274Y345907D01*
X78500Y346228D01*
D02*
G37*
G36*
X77500D02*
X76726Y345907D01*
X76092Y345274D01*
X75772Y344500D01*
X77500D01*
Y346228D01*
D02*
G37*
G36*
X584898Y351343D02*
X583702D01*
X582546Y351034D01*
X581510Y350435D01*
X580664Y349590D01*
X580066Y348554D01*
X579757Y347398D01*
Y346202D01*
X580066Y345046D01*
X580664Y344010D01*
X581510Y343164D01*
X582546Y342566D01*
X583702Y342257D01*
X584898D01*
X586054Y342566D01*
X587090Y343164D01*
X587935Y344010D01*
X588534Y345046D01*
X588843Y346202D01*
Y347398D01*
X588534Y348554D01*
X587935Y349590D01*
X587090Y350435D01*
X586054Y351034D01*
X584898Y351343D01*
D02*
G37*
G36*
X80228Y343500D02*
X78500D01*
Y341772D01*
X79274Y342092D01*
X79908Y342725D01*
X80228Y343500D01*
D02*
G37*
G36*
X77500D02*
X75772D01*
X76092Y342725D01*
X76726Y342092D01*
X77500Y341772D01*
Y343500D01*
D02*
G37*
G36*
X64500Y334228D02*
Y332500D01*
X66228D01*
X65908Y333275D01*
X65275Y333908D01*
X64500Y334228D01*
D02*
G37*
G36*
X63500D02*
X62726Y333908D01*
X62093Y333275D01*
X61772Y332500D01*
X63500D01*
Y334228D01*
D02*
G37*
G36*
X66228Y331500D02*
X64500D01*
Y329772D01*
X65275Y330093D01*
X65908Y330726D01*
X66228Y331500D01*
D02*
G37*
G36*
X63500D02*
X61772D01*
X62093Y330726D01*
X62726Y330093D01*
X63500Y329772D01*
Y331500D01*
D02*
G37*
G36*
X616500Y322228D02*
Y320500D01*
X618228D01*
X617907Y321274D01*
X617275Y321907D01*
X616500Y322228D01*
D02*
G37*
G36*
X615500D02*
X614725Y321907D01*
X614092Y321274D01*
X613772Y320500D01*
X615500D01*
Y322228D01*
D02*
G37*
G36*
X608500D02*
Y320500D01*
X610228D01*
X609907Y321274D01*
X609274Y321907D01*
X608500Y322228D01*
D02*
G37*
G36*
X607500D02*
X606726Y321907D01*
X606093Y321274D01*
X605772Y320500D01*
X607500D01*
Y322228D01*
D02*
G37*
G36*
X618228Y319500D02*
X616500D01*
Y317772D01*
X617275Y318092D01*
X617907Y318725D01*
X618228Y319500D01*
D02*
G37*
G36*
X615500D02*
X613772D01*
X614092Y318725D01*
X614725Y318092D01*
X615500Y317772D01*
Y319500D01*
D02*
G37*
G36*
X610228D02*
X608500D01*
Y317772D01*
X609274Y318092D01*
X609907Y318725D01*
X610228Y319500D01*
D02*
G37*
G36*
X607500D02*
X605772D01*
X606093Y318725D01*
X606726Y318092D01*
X607500Y317772D01*
Y319500D01*
D02*
G37*
G36*
X624447Y316250D02*
X623553D01*
X622725Y315908D01*
X622347Y315529D01*
X601653D01*
X601274Y315908D01*
X600448Y316250D01*
X599552D01*
X598726Y315908D01*
X598093Y315275D01*
X597750Y314448D01*
Y313552D01*
X598093Y312725D01*
X598726Y312092D01*
X599552Y311750D01*
X600448D01*
X601274Y312092D01*
X601653Y312471D01*
X622347D01*
X622725Y312092D01*
X623553Y311750D01*
X624447D01*
X625275Y312092D01*
X625908Y312725D01*
X626250Y313552D01*
Y314448D01*
X625908Y315275D01*
X625275Y315908D01*
X624447Y316250D01*
D02*
G37*
G36*
X616500Y310228D02*
Y308500D01*
X618228D01*
X617907Y309275D01*
X617275Y309908D01*
X616500Y310228D01*
D02*
G37*
G36*
X615500D02*
X614725Y309908D01*
X614092Y309275D01*
X613772Y308500D01*
X615500D01*
Y310228D01*
D02*
G37*
G36*
X608500D02*
Y308500D01*
X610228D01*
X609907Y309275D01*
X609274Y309908D01*
X608500Y310228D01*
D02*
G37*
G36*
X607500D02*
X606726Y309908D01*
X606093Y309275D01*
X605772Y308500D01*
X607500D01*
Y310228D01*
D02*
G37*
G36*
X54500D02*
Y308500D01*
X56228D01*
X55907Y309275D01*
X55274Y309908D01*
X54500Y310228D01*
D02*
G37*
G36*
X53500D02*
X52725Y309908D01*
X52092Y309275D01*
X51772Y308500D01*
X53500D01*
Y310228D01*
D02*
G37*
G36*
X618228Y307500D02*
X616500D01*
Y305772D01*
X617275Y306093D01*
X617907Y306726D01*
X618228Y307500D01*
D02*
G37*
G36*
X615500D02*
X613772D01*
X614092Y306726D01*
X614725Y306093D01*
X615500Y305772D01*
Y307500D01*
D02*
G37*
G36*
X610228D02*
X608500D01*
Y305772D01*
X609274Y306093D01*
X609907Y306726D01*
X610228Y307500D01*
D02*
G37*
G36*
X607500D02*
X605772D01*
X606093Y306726D01*
X606726Y306093D01*
X607500Y305772D01*
Y307500D01*
D02*
G37*
G36*
X56228D02*
X54500D01*
Y305772D01*
X55274Y306093D01*
X55907Y306726D01*
X56228Y307500D01*
D02*
G37*
G36*
X53500D02*
X51772D01*
X52092Y306726D01*
X52725Y306093D01*
X53500Y305772D01*
Y307500D01*
D02*
G37*
G36*
X40500Y282228D02*
Y280500D01*
X42228D01*
X41908Y281275D01*
X41274Y281908D01*
X40500Y282228D01*
D02*
G37*
G36*
X39500D02*
X38726Y281908D01*
X38092Y281275D01*
X37772Y280500D01*
X39500D01*
Y282228D01*
D02*
G37*
G36*
X42228Y279500D02*
X40500D01*
Y277772D01*
X41274Y278093D01*
X41908Y278726D01*
X42228Y279500D01*
D02*
G37*
G36*
X39500D02*
X37772D01*
X38092Y278726D01*
X38726Y278093D01*
X39500Y277772D01*
Y279500D01*
D02*
G37*
G36*
X82598Y282543D02*
X81402D01*
X80246Y282234D01*
X79210Y281635D01*
X78364Y280790D01*
X77766Y279754D01*
X77457Y278598D01*
Y277402D01*
X77766Y276246D01*
X78364Y275210D01*
X79210Y274364D01*
X80246Y273766D01*
X81402Y273457D01*
X82598D01*
X83754Y273766D01*
X84790Y274364D01*
X85636Y275210D01*
X86234Y276246D01*
X86543Y277402D01*
Y278598D01*
X86234Y279754D01*
X85636Y280790D01*
X84790Y281635D01*
X83754Y282234D01*
X82598Y282543D01*
D02*
G37*
G36*
X72598D02*
X71402D01*
X70246Y282234D01*
X69210Y281635D01*
X68365Y280790D01*
X67766Y279754D01*
X67457Y278598D01*
Y277402D01*
X67766Y276246D01*
X68365Y275210D01*
X69210Y274364D01*
X70246Y273766D01*
X71402Y273457D01*
X72598D01*
X73754Y273766D01*
X74790Y274364D01*
X75635Y275210D01*
X76234Y276246D01*
X76543Y277402D01*
Y278598D01*
X76234Y279754D01*
X75635Y280790D01*
X74790Y281635D01*
X73754Y282234D01*
X72598Y282543D01*
D02*
G37*
G36*
X62598D02*
X61402D01*
X60246Y282234D01*
X59210Y281635D01*
X58364Y280790D01*
X57766Y279754D01*
X57457Y278598D01*
Y277402D01*
X57766Y276246D01*
X58364Y275210D01*
X59210Y274364D01*
X60246Y273766D01*
X61402Y273457D01*
X62598D01*
X63754Y273766D01*
X64790Y274364D01*
X65636Y275210D01*
X66234Y276246D01*
X66543Y277402D01*
Y278598D01*
X66234Y279754D01*
X65636Y280790D01*
X64790Y281635D01*
X63754Y282234D01*
X62598Y282543D01*
D02*
G37*
G36*
X320598Y280543D02*
X319402D01*
X318246Y280234D01*
X317210Y279636D01*
X316365Y278790D01*
X315766Y277754D01*
X315457Y276598D01*
Y275402D01*
X315766Y274246D01*
X316365Y273210D01*
X317210Y272364D01*
X318246Y271766D01*
X319402Y271457D01*
X320598D01*
X321754Y271766D01*
X322790Y272364D01*
X323636Y273210D01*
X324234Y274246D01*
X324543Y275402D01*
Y276598D01*
X324234Y277754D01*
X323636Y278790D01*
X322790Y279636D01*
X321754Y280234D01*
X320598Y280543D01*
D02*
G37*
G36*
X310598D02*
X309402D01*
X308246Y280234D01*
X307210Y279636D01*
X306364Y278790D01*
X305766Y277754D01*
X305457Y276598D01*
Y275402D01*
X305766Y274246D01*
X306364Y273210D01*
X307210Y272364D01*
X308246Y271766D01*
X309402Y271457D01*
X310598D01*
X311754Y271766D01*
X312790Y272364D01*
X313635Y273210D01*
X314234Y274246D01*
X314543Y275402D01*
Y276598D01*
X314234Y277754D01*
X313635Y278790D01*
X312790Y279636D01*
X311754Y280234D01*
X310598Y280543D01*
D02*
G37*
G36*
X36598Y270543D02*
X36500D01*
Y266500D01*
X40543D01*
Y266598D01*
X40234Y267754D01*
X39636Y268790D01*
X38790Y269636D01*
X37754Y270234D01*
X36598Y270543D01*
D02*
G37*
G36*
X316500Y266228D02*
Y264500D01*
X318228D01*
X317908Y265275D01*
X317274Y265908D01*
X316500Y266228D01*
D02*
G37*
G36*
X315500D02*
X314725Y265908D01*
X314092Y265275D01*
X313772Y264500D01*
X315500D01*
Y266228D01*
D02*
G37*
G36*
X318228Y263500D02*
X316500D01*
Y261772D01*
X317274Y262092D01*
X317908Y262725D01*
X318228Y263500D01*
D02*
G37*
G36*
X315500D02*
X313772D01*
X314092Y262725D01*
X314725Y262092D01*
X315500Y261772D01*
Y263500D01*
D02*
G37*
G36*
X46598Y270543D02*
X45402D01*
X44246Y270234D01*
X43210Y269636D01*
X42364Y268790D01*
X41766Y267754D01*
X41457Y266598D01*
Y265402D01*
X41766Y264246D01*
X42364Y263210D01*
X43210Y262365D01*
X44246Y261766D01*
X45402Y261457D01*
X46598D01*
X47754Y261766D01*
X48790Y262365D01*
X49635Y263210D01*
X50234Y264246D01*
X50543Y265402D01*
Y266598D01*
X50234Y267754D01*
X49635Y268790D01*
X48790Y269636D01*
X47754Y270234D01*
X46598Y270543D01*
D02*
G37*
G36*
X518500Y258228D02*
Y256500D01*
X520228D01*
X519908Y257275D01*
X519275Y257908D01*
X518500Y258228D01*
D02*
G37*
G36*
X517500D02*
X516725Y257908D01*
X516092Y257275D01*
X515772Y256500D01*
X517500D01*
Y258228D01*
D02*
G37*
G36*
X520228Y255500D02*
X518500D01*
Y253772D01*
X519275Y254093D01*
X519908Y254726D01*
X520228Y255500D01*
D02*
G37*
G36*
X517500D02*
X515772D01*
X516092Y254726D01*
X516725Y254093D01*
X517500Y253772D01*
Y255500D01*
D02*
G37*
G36*
X466500Y250228D02*
Y248500D01*
X468228D01*
X467907Y249274D01*
X467275Y249907D01*
X466500Y250228D01*
D02*
G37*
G36*
X465500D02*
X464725Y249907D01*
X464092Y249274D01*
X463772Y248500D01*
X465500D01*
Y250228D01*
D02*
G37*
G36*
X280500D02*
Y248500D01*
X282228D01*
X281908Y249274D01*
X281275Y249907D01*
X280500Y250228D01*
D02*
G37*
G36*
X279500D02*
X278726Y249907D01*
X278093Y249274D01*
X277772Y248500D01*
X279500D01*
Y250228D01*
D02*
G37*
G36*
X468228Y247500D02*
X466500D01*
Y245772D01*
X467275Y246093D01*
X467907Y246726D01*
X468228Y247500D01*
D02*
G37*
G36*
X465500D02*
X463772D01*
X464092Y246726D01*
X464725Y246093D01*
X465500Y245772D01*
Y247500D01*
D02*
G37*
G36*
X282228D02*
X280500D01*
Y245772D01*
X281275Y246093D01*
X281908Y246726D01*
X282228Y247500D01*
D02*
G37*
G36*
X279500D02*
X277772D01*
X278093Y246726D01*
X278726Y246093D01*
X279500Y245772D01*
Y247500D01*
D02*
G37*
G36*
X564500Y242228D02*
Y240500D01*
X566228D01*
X565907Y241274D01*
X565274Y241908D01*
X564500Y242228D01*
D02*
G37*
G36*
X563500D02*
X562725Y241908D01*
X562092Y241274D01*
X561772Y240500D01*
X563500D01*
Y242228D01*
D02*
G37*
G36*
X420500Y240228D02*
Y238500D01*
X422228D01*
X421908Y239275D01*
X421275Y239908D01*
X420500Y240228D01*
D02*
G37*
G36*
X419500D02*
X418725Y239908D01*
X418092Y239275D01*
X417772Y238500D01*
X419500D01*
Y240228D01*
D02*
G37*
G36*
X372500D02*
Y238500D01*
X374228D01*
X373907Y239275D01*
X373274Y239908D01*
X372500Y240228D01*
D02*
G37*
G36*
X371500D02*
X370725Y239908D01*
X370093Y239275D01*
X369772Y238500D01*
X371500D01*
Y240228D01*
D02*
G37*
G36*
X566228Y239500D02*
X564500D01*
Y237772D01*
X565274Y238092D01*
X565907Y238725D01*
X566228Y239500D01*
D02*
G37*
G36*
X563500D02*
X561772D01*
X562092Y238725D01*
X562725Y238092D01*
X563500Y237772D01*
Y239500D01*
D02*
G37*
G36*
X422228Y237500D02*
X420500D01*
Y235772D01*
X421275Y236092D01*
X421908Y236725D01*
X422228Y237500D01*
D02*
G37*
G36*
X419500D02*
X417772D01*
X418092Y236725D01*
X418725Y236092D01*
X419500Y235772D01*
Y237500D01*
D02*
G37*
G36*
X374228D02*
X372500D01*
Y235772D01*
X373274Y236092D01*
X373907Y236725D01*
X374228Y237500D01*
D02*
G37*
G36*
X371500D02*
X369772D01*
X370093Y236725D01*
X370725Y236092D01*
X371500Y235772D01*
Y237500D01*
D02*
G37*
G36*
X456500Y236228D02*
Y234500D01*
X458228D01*
X457907Y235275D01*
X457274Y235908D01*
X456500Y236228D01*
D02*
G37*
G36*
X455500D02*
X454726Y235908D01*
X454093Y235275D01*
X453772Y234500D01*
X455500D01*
Y236228D01*
D02*
G37*
G36*
X458228Y233500D02*
X456500D01*
Y231772D01*
X457274Y232092D01*
X457907Y232726D01*
X458228Y233500D01*
D02*
G37*
G36*
X455500D02*
X453772D01*
X454093Y232726D01*
X454726Y232092D01*
X455500Y231772D01*
Y233500D01*
D02*
G37*
G36*
X564500Y208228D02*
Y206500D01*
X566228D01*
X565907Y207275D01*
X565274Y207908D01*
X564500Y208228D01*
D02*
G37*
G36*
X563500D02*
X562725Y207908D01*
X562092Y207275D01*
X561772Y206500D01*
X563500D01*
Y208228D01*
D02*
G37*
G36*
X566228Y205500D02*
X564500D01*
Y203772D01*
X565274Y204093D01*
X565907Y204726D01*
X566228Y205500D01*
D02*
G37*
G36*
X563500D02*
X561772D01*
X562092Y204726D01*
X562725Y204093D01*
X563500Y203772D01*
Y205500D01*
D02*
G37*
G36*
X400500Y200228D02*
Y198500D01*
X402228D01*
X401907Y199275D01*
X401274Y199908D01*
X400500Y200228D01*
D02*
G37*
G36*
X399500D02*
X398726Y199908D01*
X398093Y199275D01*
X397772Y198500D01*
X399500D01*
Y200228D01*
D02*
G37*
G36*
X388500D02*
Y198500D01*
X390228D01*
X389908Y199275D01*
X389275Y199908D01*
X388500Y200228D01*
D02*
G37*
G36*
X387500D02*
X386725Y199908D01*
X386092Y199275D01*
X385772Y198500D01*
X387500D01*
Y200228D01*
D02*
G37*
G36*
X426500Y198228D02*
Y196500D01*
X428228D01*
X427908Y197274D01*
X427275Y197907D01*
X426500Y198228D01*
D02*
G37*
G36*
X425500D02*
X424725Y197907D01*
X424092Y197274D01*
X423772Y196500D01*
X425500D01*
Y198228D01*
D02*
G37*
G36*
X402228Y197500D02*
X400500D01*
Y195772D01*
X401274Y196092D01*
X401907Y196725D01*
X402228Y197500D01*
D02*
G37*
G36*
X399500D02*
X397772D01*
X398093Y196725D01*
X398726Y196092D01*
X399500Y195772D01*
Y197500D01*
D02*
G37*
G36*
X390228D02*
X388500D01*
Y195772D01*
X389275Y196092D01*
X389908Y196725D01*
X390228Y197500D01*
D02*
G37*
G36*
X387500D02*
X385772D01*
X386092Y196725D01*
X386725Y196092D01*
X387500Y195772D01*
Y197500D01*
D02*
G37*
G36*
X332500Y196228D02*
Y194500D01*
X334228D01*
X333908Y195274D01*
X333275Y195907D01*
X332500Y196228D01*
D02*
G37*
G36*
X331500D02*
X330726Y195907D01*
X330093Y195274D01*
X329772Y194500D01*
X331500D01*
Y196228D01*
D02*
G37*
G36*
X428228Y195500D02*
X426500D01*
Y193772D01*
X427275Y194093D01*
X427908Y194726D01*
X428228Y195500D01*
D02*
G37*
G36*
X425500D02*
X423772D01*
X424092Y194726D01*
X424725Y194093D01*
X425500Y193772D01*
Y195500D01*
D02*
G37*
G36*
X334228Y193500D02*
X332500D01*
Y191772D01*
X333275Y192093D01*
X333908Y192726D01*
X334228Y193500D01*
D02*
G37*
G36*
X331500D02*
X329772D01*
X330093Y192726D01*
X330726Y192093D01*
X331500Y191772D01*
Y193500D01*
D02*
G37*
G36*
X498598Y200669D02*
X497402D01*
X496246Y200360D01*
X495210Y199761D01*
X494365Y198916D01*
X493766Y197880D01*
X493457Y196724D01*
Y195528D01*
X493766Y194372D01*
X494365Y193336D01*
X495210Y192490D01*
X496246Y191892D01*
X497402Y191583D01*
X498598D01*
X499754Y191892D01*
X500790Y192490D01*
X501636Y193336D01*
X502234Y194372D01*
X502543Y195528D01*
Y196724D01*
X502234Y197880D01*
X501636Y198916D01*
X500790Y199761D01*
X499754Y200360D01*
X498598Y200669D01*
D02*
G37*
G36*
X488598D02*
X487402D01*
X486246Y200360D01*
X485210Y199761D01*
X484365Y198916D01*
X483766Y197880D01*
X483457Y196724D01*
Y195528D01*
X483766Y194372D01*
X484365Y193336D01*
X485210Y192490D01*
X486246Y191892D01*
X487402Y191583D01*
X488598D01*
X489754Y191892D01*
X490790Y192490D01*
X491636Y193336D01*
X492234Y194372D01*
X492543Y195528D01*
Y196724D01*
X492234Y197880D01*
X491636Y198916D01*
X490790Y199761D01*
X489754Y200360D01*
X488598Y200669D01*
D02*
G37*
G36*
X478598D02*
X477402D01*
X476246Y200360D01*
X475210Y199761D01*
X474365Y198916D01*
X473766Y197880D01*
X473457Y196724D01*
Y195528D01*
X473766Y194372D01*
X474365Y193336D01*
X475210Y192490D01*
X476246Y191892D01*
X477402Y191583D01*
X478598D01*
X479754Y191892D01*
X480790Y192490D01*
X481636Y193336D01*
X482234Y194372D01*
X482543Y195528D01*
Y196724D01*
X482234Y197880D01*
X481636Y198916D01*
X480790Y199761D01*
X479754Y200360D01*
X478598Y200669D01*
D02*
G37*
G36*
X400500Y192228D02*
Y190500D01*
X402228D01*
X401907Y191274D01*
X401274Y191908D01*
X400500Y192228D01*
D02*
G37*
G36*
X399500D02*
X398726Y191908D01*
X398093Y191274D01*
X397772Y190500D01*
X399500D01*
Y192228D01*
D02*
G37*
G36*
X388500D02*
Y190500D01*
X390228D01*
X389908Y191274D01*
X389275Y191908D01*
X388500Y192228D01*
D02*
G37*
G36*
X387500D02*
X386725Y191908D01*
X386092Y191274D01*
X385772Y190500D01*
X387500D01*
Y192228D01*
D02*
G37*
G36*
X516500Y190228D02*
Y188500D01*
X518228D01*
X517907Y189275D01*
X517275Y189908D01*
X516500Y190228D01*
D02*
G37*
G36*
X515500D02*
X514725Y189908D01*
X514092Y189275D01*
X513772Y188500D01*
X515500D01*
Y190228D01*
D02*
G37*
G36*
X402228Y189500D02*
X400500D01*
Y187772D01*
X401274Y188093D01*
X401907Y188725D01*
X402228Y189500D01*
D02*
G37*
G36*
X399500D02*
X397772D01*
X398093Y188725D01*
X398726Y188093D01*
X399500Y187772D01*
Y189500D01*
D02*
G37*
G36*
X390228D02*
X388500D01*
Y187772D01*
X389275Y188093D01*
X389908Y188725D01*
X390228Y189500D01*
D02*
G37*
G36*
X387500D02*
X385772D01*
X386092Y188725D01*
X386725Y188093D01*
X387500Y187772D01*
Y189500D01*
D02*
G37*
G36*
X518228Y187500D02*
X516500D01*
Y185772D01*
X517275Y186092D01*
X517907Y186725D01*
X518228Y187500D01*
D02*
G37*
G36*
X515500D02*
X513772D01*
X514092Y186725D01*
X514725Y186092D01*
X515500Y185772D01*
Y187500D01*
D02*
G37*
G36*
X394448Y204250D02*
X393552D01*
X392725Y203907D01*
X392092Y203274D01*
X391750Y202448D01*
Y201552D01*
X392092Y200726D01*
X392471Y200347D01*
Y187653D01*
X392092Y187275D01*
X391750Y186448D01*
Y185552D01*
X392092Y184725D01*
X392725Y184092D01*
X393552Y183750D01*
X394448D01*
X395274Y184092D01*
X395907Y184725D01*
X396250Y185552D01*
Y186448D01*
X395907Y187275D01*
X395529Y187653D01*
Y200347D01*
X395907Y200726D01*
X396250Y201552D01*
Y202448D01*
X395907Y203274D01*
X395274Y203907D01*
X394448Y204250D01*
D02*
G37*
G36*
X264500Y178228D02*
Y176500D01*
X266228D01*
X265908Y177275D01*
X265275Y177908D01*
X264500Y178228D01*
D02*
G37*
G36*
X263500D02*
X262725Y177908D01*
X262092Y177275D01*
X261772Y176500D01*
X263500D01*
Y178228D01*
D02*
G37*
G36*
X266228Y175500D02*
X264500D01*
Y173772D01*
X265275Y174092D01*
X265908Y174725D01*
X266228Y175500D01*
D02*
G37*
G36*
X263500D02*
X261772D01*
X262092Y174725D01*
X262725Y174092D01*
X263500Y173772D01*
Y175500D01*
D02*
G37*
G36*
X558598Y178669D02*
X557402D01*
X556246Y178360D01*
X555210Y177761D01*
X554364Y176916D01*
X553766Y175880D01*
X553457Y174724D01*
Y173528D01*
X553766Y172372D01*
X554364Y171336D01*
X555210Y170490D01*
X556246Y169892D01*
X557402Y169583D01*
X558598D01*
X559754Y169892D01*
X560790Y170490D01*
X561635Y171336D01*
X562234Y172372D01*
X562543Y173528D01*
Y174724D01*
X562234Y175880D01*
X561635Y176916D01*
X560790Y177761D01*
X559754Y178360D01*
X558598Y178669D01*
D02*
G37*
G36*
X498500Y170228D02*
Y168500D01*
X500228D01*
X499907Y169274D01*
X499274Y169907D01*
X498500Y170228D01*
D02*
G37*
G36*
X497500D02*
X496726Y169907D01*
X496093Y169274D01*
X495772Y168500D01*
X497500D01*
Y170228D01*
D02*
G37*
G36*
X264500D02*
Y168500D01*
X266228D01*
X265908Y169274D01*
X265275Y169907D01*
X264500Y170228D01*
D02*
G37*
G36*
X263500D02*
X262725Y169907D01*
X262092Y169274D01*
X261772Y168500D01*
X263500D01*
Y170228D01*
D02*
G37*
G36*
X500228Y167500D02*
X498500D01*
Y165772D01*
X499274Y166093D01*
X499907Y166726D01*
X500228Y167500D01*
D02*
G37*
G36*
X497500D02*
X495772D01*
X496093Y166726D01*
X496726Y166093D01*
X497500Y165772D01*
Y167500D01*
D02*
G37*
G36*
X266228D02*
X264500D01*
Y165772D01*
X265275Y166093D01*
X265908Y166726D01*
X266228Y167500D01*
D02*
G37*
G36*
X263500D02*
X261772D01*
X262092Y166726D01*
X262725Y166093D01*
X263500Y165772D01*
Y167500D01*
D02*
G37*
G36*
X678598Y172543D02*
X677402D01*
X676246Y172234D01*
X675210Y171635D01*
X674365Y170790D01*
X673766Y169754D01*
X673457Y168598D01*
Y167402D01*
X673766Y166246D01*
X674365Y165210D01*
X675210Y164365D01*
X676246Y163766D01*
X677402Y163457D01*
X678598D01*
X679754Y163766D01*
X680790Y164365D01*
X681636Y165210D01*
X682234Y166246D01*
X682543Y167402D01*
Y168598D01*
X682234Y169754D01*
X681636Y170790D01*
X680790Y171635D01*
X679754Y172234D01*
X678598Y172543D01*
D02*
G37*
G36*
X668598D02*
X667402D01*
X666246Y172234D01*
X665210Y171635D01*
X664364Y170790D01*
X663766Y169754D01*
X663457Y168598D01*
Y167402D01*
X663766Y166246D01*
X664364Y165210D01*
X665210Y164365D01*
X666246Y163766D01*
X667402Y163457D01*
X668598D01*
X669754Y163766D01*
X670790Y164365D01*
X671635Y165210D01*
X672234Y166246D01*
X672543Y167402D01*
Y168598D01*
X672234Y169754D01*
X671635Y170790D01*
X670790Y171635D01*
X669754Y172234D01*
X668598Y172543D01*
D02*
G37*
G36*
X658598D02*
X657402D01*
X656246Y172234D01*
X655210Y171635D01*
X654364Y170790D01*
X653766Y169754D01*
X653457Y168598D01*
Y167402D01*
X653766Y166246D01*
X654364Y165210D01*
X655210Y164365D01*
X656246Y163766D01*
X657402Y163457D01*
X658598D01*
X659754Y163766D01*
X660790Y164365D01*
X661635Y165210D01*
X662234Y166246D01*
X662543Y167402D01*
Y168598D01*
X662234Y169754D01*
X661635Y170790D01*
X660790Y171635D01*
X659754Y172234D01*
X658598Y172543D01*
D02*
G37*
G36*
X376500Y162228D02*
Y160500D01*
X378228D01*
X377907Y161275D01*
X377274Y161907D01*
X376500Y162228D01*
D02*
G37*
G36*
X375500D02*
X374726Y161907D01*
X374093Y161275D01*
X373772Y160500D01*
X375500D01*
Y162228D01*
D02*
G37*
G36*
X558598Y168669D02*
X557402D01*
X556246Y168360D01*
X555210Y167762D01*
X554364Y166916D01*
X553766Y165880D01*
X553457Y164724D01*
Y163528D01*
X553766Y162372D01*
X554364Y161336D01*
X555210Y160490D01*
X556246Y159892D01*
X557402Y159583D01*
X558598D01*
X559754Y159892D01*
X560790Y160490D01*
X561635Y161336D01*
X562234Y162372D01*
X562543Y163528D01*
Y164724D01*
X562234Y165880D01*
X561635Y166916D01*
X560790Y167762D01*
X559754Y168360D01*
X558598Y168669D01*
D02*
G37*
G36*
X378228Y159500D02*
X376500D01*
Y157772D01*
X377274Y158092D01*
X377907Y158726D01*
X378228Y159500D01*
D02*
G37*
G36*
X375500D02*
X373772D01*
X374093Y158726D01*
X374726Y158092D01*
X375500Y157772D01*
Y159500D01*
D02*
G37*
G36*
X638500Y156228D02*
Y154500D01*
X640228D01*
X639908Y155274D01*
X639275Y155907D01*
X638500Y156228D01*
D02*
G37*
G36*
X637500D02*
X636726Y155907D01*
X636093Y155274D01*
X635772Y154500D01*
X637500D01*
Y156228D01*
D02*
G37*
G36*
X640228Y153500D02*
X638500D01*
Y151772D01*
X639275Y152093D01*
X639908Y152726D01*
X640228Y153500D01*
D02*
G37*
G36*
X637500D02*
X635772D01*
X636093Y152726D01*
X636726Y152093D01*
X637500Y151772D01*
Y153500D01*
D02*
G37*
G36*
X558598Y158669D02*
X557402D01*
X556246Y158360D01*
X555210Y157762D01*
X554364Y156916D01*
X553766Y155880D01*
X553457Y154724D01*
Y153528D01*
X553766Y152372D01*
X554364Y151336D01*
X555210Y150490D01*
X556246Y149892D01*
X557402Y149583D01*
X558598D01*
X559754Y149892D01*
X560790Y150490D01*
X561635Y151336D01*
X562234Y152372D01*
X562543Y153528D01*
Y154724D01*
X562234Y155880D01*
X561635Y156916D01*
X560790Y157762D01*
X559754Y158360D01*
X558598Y158669D01*
D02*
G37*
G36*
X636500Y150228D02*
Y148500D01*
X638228D01*
X637908Y149275D01*
X637275Y149908D01*
X636500Y150228D01*
D02*
G37*
G36*
X635500D02*
X634726Y149908D01*
X634093Y149275D01*
X633772Y148500D01*
X635500D01*
Y150228D01*
D02*
G37*
G36*
X638228Y147500D02*
X636500D01*
Y145772D01*
X637275Y146092D01*
X637908Y146725D01*
X638228Y147500D01*
D02*
G37*
G36*
X635500D02*
X633772D01*
X634093Y146725D01*
X634726Y146092D01*
X635500Y145772D01*
Y147500D01*
D02*
G37*
G36*
X400500Y146228D02*
Y144500D01*
X402228D01*
X401907Y145274D01*
X401274Y145907D01*
X400500Y146228D01*
D02*
G37*
G36*
X399500D02*
X398726Y145907D01*
X398093Y145274D01*
X397772Y144500D01*
X399500D01*
Y146228D01*
D02*
G37*
G36*
X388500D02*
Y144500D01*
X390228D01*
X389908Y145274D01*
X389275Y145907D01*
X388500Y146228D01*
D02*
G37*
G36*
X387500D02*
X386725Y145907D01*
X386092Y145274D01*
X385772Y144500D01*
X387500D01*
Y146228D01*
D02*
G37*
G36*
X369798Y151680D02*
X368602D01*
X367446Y151371D01*
X366410Y150773D01*
X365564Y149927D01*
X364966Y148891D01*
X364657Y147735D01*
Y146539D01*
X364966Y145383D01*
X365564Y144347D01*
X366410Y143501D01*
X367446Y142903D01*
X368602Y142594D01*
X369798D01*
X370954Y142903D01*
X371990Y143501D01*
X372835Y144347D01*
X373434Y145383D01*
X373743Y146539D01*
Y147735D01*
X373434Y148891D01*
X372835Y149927D01*
X371990Y150773D01*
X370954Y151371D01*
X369798Y151680D01*
D02*
G37*
G36*
X359798D02*
X358602D01*
X357446Y151371D01*
X356410Y150773D01*
X355564Y149927D01*
X354966Y148891D01*
X354657Y147735D01*
Y146539D01*
X354966Y145383D01*
X355564Y144347D01*
X356410Y143501D01*
X357446Y142903D01*
X358602Y142594D01*
X359798D01*
X360954Y142903D01*
X361990Y143501D01*
X362836Y144347D01*
X363434Y145383D01*
X363743Y146539D01*
Y147735D01*
X363434Y148891D01*
X362836Y149927D01*
X361990Y150773D01*
X360954Y151371D01*
X359798Y151680D01*
D02*
G37*
G36*
X349798D02*
X348602D01*
X347446Y151371D01*
X346410Y150773D01*
X345565Y149927D01*
X344966Y148891D01*
X344657Y147735D01*
Y146539D01*
X344966Y145383D01*
X345565Y144347D01*
X346410Y143501D01*
X347446Y142903D01*
X348602Y142594D01*
X349798D01*
X350954Y142903D01*
X351990Y143501D01*
X352835Y144347D01*
X353434Y145383D01*
X353743Y146539D01*
Y147735D01*
X353434Y148891D01*
X352835Y149927D01*
X351990Y150773D01*
X350954Y151371D01*
X349798Y151680D01*
D02*
G37*
G36*
X402228Y143500D02*
X400500D01*
Y141772D01*
X401274Y142093D01*
X401907Y142726D01*
X402228Y143500D01*
D02*
G37*
G36*
X399500D02*
X397772D01*
X398093Y142726D01*
X398726Y142093D01*
X399500Y141772D01*
Y143500D01*
D02*
G37*
G36*
X390228D02*
X388500D01*
Y141772D01*
X389275Y142093D01*
X389908Y142726D01*
X390228Y143500D01*
D02*
G37*
G36*
X387500D02*
X385772D01*
X386092Y142726D01*
X386725Y142093D01*
X387500Y141772D01*
Y143500D01*
D02*
G37*
G36*
X464500Y142228D02*
Y140500D01*
X466228D01*
X465907Y141274D01*
X465274Y141908D01*
X464500Y142228D01*
D02*
G37*
G36*
X463500D02*
X462725Y141908D01*
X462092Y141274D01*
X461772Y140500D01*
X463500D01*
Y142228D01*
D02*
G37*
G36*
X544500Y140228D02*
Y138500D01*
X546228D01*
X545907Y139275D01*
X545274Y139908D01*
X544500Y140228D01*
D02*
G37*
G36*
X543500D02*
X542726Y139908D01*
X542093Y139275D01*
X541772Y138500D01*
X543500D01*
Y140228D01*
D02*
G37*
G36*
X466228Y139500D02*
X464500D01*
Y137772D01*
X465274Y138093D01*
X465907Y138725D01*
X466228Y139500D01*
D02*
G37*
G36*
X463500D02*
X461772D01*
X462092Y138725D01*
X462725Y138093D01*
X463500Y137772D01*
Y139500D01*
D02*
G37*
G36*
X400500Y138228D02*
Y136500D01*
X402228D01*
X401907Y137275D01*
X401274Y137908D01*
X400500Y138228D01*
D02*
G37*
G36*
X399500D02*
X398726Y137908D01*
X398093Y137275D01*
X397772Y136500D01*
X399500D01*
Y138228D01*
D02*
G37*
G36*
X388500D02*
Y136500D01*
X390228D01*
X389908Y137275D01*
X389275Y137908D01*
X388500Y138228D01*
D02*
G37*
G36*
X387500D02*
X386725Y137908D01*
X386092Y137275D01*
X385772Y136500D01*
X387500D01*
Y138228D01*
D02*
G37*
G36*
X546228Y137500D02*
X544500D01*
Y135772D01*
X545274Y136092D01*
X545907Y136725D01*
X546228Y137500D01*
D02*
G37*
G36*
X543500D02*
X541772D01*
X542093Y136725D01*
X542726Y136092D01*
X543500Y135772D01*
Y137500D01*
D02*
G37*
G36*
X402228Y135500D02*
X400500D01*
Y133772D01*
X401274Y134092D01*
X401907Y134725D01*
X402228Y135500D01*
D02*
G37*
G36*
X399500D02*
X397772D01*
X398093Y134725D01*
X398726Y134092D01*
X399500Y133772D01*
Y135500D01*
D02*
G37*
G36*
X390228D02*
X388500D01*
Y133772D01*
X389275Y134092D01*
X389908Y134725D01*
X390228Y135500D01*
D02*
G37*
G36*
X387500D02*
X385772D01*
X386092Y134725D01*
X386725Y134092D01*
X387500Y133772D01*
Y135500D01*
D02*
G37*
G36*
X268500Y128228D02*
Y126500D01*
X270228D01*
X269907Y127275D01*
X269274Y127908D01*
X268500Y128228D01*
D02*
G37*
G36*
X267500D02*
X266725Y127908D01*
X266092Y127275D01*
X265772Y126500D01*
X267500D01*
Y128228D01*
D02*
G37*
G36*
X500500Y126228D02*
Y124500D01*
X502228D01*
X501907Y125275D01*
X501274Y125908D01*
X500500Y126228D01*
D02*
G37*
G36*
X499500D02*
X498726Y125908D01*
X498093Y125275D01*
X497772Y124500D01*
X499500D01*
Y126228D01*
D02*
G37*
G36*
X400500D02*
Y124500D01*
X402228D01*
X401907Y125275D01*
X401274Y125908D01*
X400500Y126228D01*
D02*
G37*
G36*
X399500D02*
X398726Y125908D01*
X398093Y125275D01*
X397772Y124500D01*
X399500D01*
Y126228D01*
D02*
G37*
G36*
X388500D02*
Y124500D01*
X390228D01*
X389908Y125275D01*
X389275Y125908D01*
X388500Y126228D01*
D02*
G37*
G36*
X387500D02*
X386725Y125908D01*
X386092Y125275D01*
X385772Y124500D01*
X387500D01*
Y126228D01*
D02*
G37*
G36*
X270228Y125500D02*
X268500D01*
Y123772D01*
X269274Y124092D01*
X269907Y124725D01*
X270228Y125500D01*
D02*
G37*
G36*
X267500D02*
X265772D01*
X266092Y124725D01*
X266725Y124092D01*
X267500Y123772D01*
Y125500D01*
D02*
G37*
G36*
X502228Y123500D02*
X500500D01*
Y121772D01*
X501274Y122092D01*
X501907Y122725D01*
X502228Y123500D01*
D02*
G37*
G36*
X499500D02*
X497772D01*
X498093Y122725D01*
X498726Y122092D01*
X499500Y121772D01*
Y123500D01*
D02*
G37*
G36*
X402228D02*
X400500D01*
Y121772D01*
X401274Y122092D01*
X401907Y122725D01*
X402228Y123500D01*
D02*
G37*
G36*
X399500D02*
X397772D01*
X398093Y122725D01*
X398726Y122092D01*
X399500Y121772D01*
Y123500D01*
D02*
G37*
G36*
X390228D02*
X388500D01*
Y121772D01*
X389275Y122092D01*
X389908Y122725D01*
X390228Y123500D01*
D02*
G37*
G36*
X387500D02*
X385772D01*
X386092Y122725D01*
X386725Y122092D01*
X387500Y121772D01*
Y123500D01*
D02*
G37*
G36*
X676500Y120228D02*
Y118500D01*
X678228D01*
X677908Y119274D01*
X677275Y119907D01*
X676500Y120228D01*
D02*
G37*
G36*
X675500D02*
X674725Y119907D01*
X674092Y119274D01*
X673772Y118500D01*
X675500D01*
Y120228D01*
D02*
G37*
G36*
X620500Y118228D02*
Y116500D01*
X622228D01*
X621908Y117274D01*
X621275Y117908D01*
X620500Y118228D01*
D02*
G37*
G36*
X619500D02*
X618725Y117908D01*
X618092Y117274D01*
X617772Y116500D01*
X619500D01*
Y118228D01*
D02*
G37*
G36*
X606500D02*
Y116500D01*
X608228D01*
X607907Y117274D01*
X607274Y117908D01*
X606500Y118228D01*
D02*
G37*
G36*
X605500D02*
X604726Y117908D01*
X604093Y117274D01*
X603772Y116500D01*
X605500D01*
Y118228D01*
D02*
G37*
G36*
X400500D02*
Y116500D01*
X402228D01*
X401907Y117274D01*
X401274Y117908D01*
X400500Y118228D01*
D02*
G37*
G36*
X399500D02*
X398726Y117908D01*
X398093Y117274D01*
X397772Y116500D01*
X399500D01*
Y118228D01*
D02*
G37*
G36*
X388500D02*
Y116500D01*
X390228D01*
X389908Y117274D01*
X389275Y117908D01*
X388500Y118228D01*
D02*
G37*
G36*
X387500D02*
X386725Y117908D01*
X386092Y117274D01*
X385772Y116500D01*
X387500D01*
Y118228D01*
D02*
G37*
G36*
X678228Y117500D02*
X676500D01*
Y115772D01*
X677275Y116093D01*
X677908Y116726D01*
X678228Y117500D01*
D02*
G37*
G36*
X675500D02*
X673772D01*
X674092Y116726D01*
X674725Y116093D01*
X675500Y115772D01*
Y117500D01*
D02*
G37*
G36*
X622228Y115500D02*
X620500D01*
Y113772D01*
X621275Y114093D01*
X621908Y114725D01*
X622228Y115500D01*
D02*
G37*
G36*
X619500D02*
X617772D01*
X618092Y114725D01*
X618725Y114093D01*
X619500Y113772D01*
Y115500D01*
D02*
G37*
G36*
X608228D02*
X606500D01*
Y113772D01*
X607274Y114093D01*
X607907Y114725D01*
X608228Y115500D01*
D02*
G37*
G36*
X605500D02*
X603772D01*
X604093Y114725D01*
X604726Y114093D01*
X605500Y113772D01*
Y115500D01*
D02*
G37*
G36*
X402228D02*
X400500D01*
Y113772D01*
X401274Y114093D01*
X401907Y114725D01*
X402228Y115500D01*
D02*
G37*
G36*
X399500D02*
X397772D01*
X398093Y114725D01*
X398726Y114093D01*
X399500Y113772D01*
Y115500D01*
D02*
G37*
G36*
X390228D02*
X388500D01*
Y113772D01*
X389275Y114093D01*
X389908Y114725D01*
X390228Y115500D01*
D02*
G37*
G36*
X387500D02*
X385772D01*
X386092Y114725D01*
X386725Y114093D01*
X387500Y113772D01*
Y115500D01*
D02*
G37*
G36*
X422500Y112228D02*
Y110500D01*
X424228D01*
X423908Y111275D01*
X423275Y111907D01*
X422500Y112228D01*
D02*
G37*
G36*
X421500D02*
X420725Y111907D01*
X420092Y111275D01*
X419772Y110500D01*
X421500D01*
Y112228D01*
D02*
G37*
G36*
X424228Y109500D02*
X422500D01*
Y107772D01*
X423275Y108092D01*
X423908Y108726D01*
X424228Y109500D01*
D02*
G37*
G36*
X421500D02*
X419772D01*
X420092Y108726D01*
X420725Y108092D01*
X421500Y107772D01*
Y109500D01*
D02*
G37*
G36*
X394448Y152250D02*
X393552D01*
X392725Y151908D01*
X392092Y151275D01*
X391750Y150448D01*
Y149552D01*
X392092Y148725D01*
X392471Y148347D01*
Y131653D01*
X392092Y131274D01*
X391750Y130448D01*
Y129552D01*
X392092Y128726D01*
X392471Y128347D01*
Y111653D01*
X392092Y111275D01*
X391750Y110448D01*
Y109552D01*
X392092Y108726D01*
X392725Y108092D01*
X393552Y107750D01*
X394448D01*
X395274Y108092D01*
X395907Y108726D01*
X396250Y109552D01*
Y110448D01*
X395907Y111275D01*
X395529Y111653D01*
Y128347D01*
X395907Y128726D01*
X396250Y129552D01*
Y130448D01*
X395907Y131274D01*
X395529Y131653D01*
Y148347D01*
X395907Y148725D01*
X396250Y149552D01*
Y150448D01*
X395907Y151275D01*
X395274Y151908D01*
X394448Y152250D01*
D02*
G37*
G36*
X316500Y102228D02*
Y100500D01*
X318228D01*
X317908Y101275D01*
X317274Y101908D01*
X316500Y102228D01*
D02*
G37*
G36*
X315500D02*
X314725Y101908D01*
X314092Y101275D01*
X313772Y100500D01*
X315500D01*
Y102228D01*
D02*
G37*
G36*
X318228Y99500D02*
X316500D01*
Y97772D01*
X317274Y98093D01*
X317908Y98725D01*
X318228Y99500D01*
D02*
G37*
G36*
X315500D02*
X313772D01*
X314092Y98725D01*
X314725Y98093D01*
X315500Y97772D01*
Y99500D01*
D02*
G37*
G36*
X368500Y88228D02*
Y86500D01*
X370228D01*
X369907Y87274D01*
X369274Y87907D01*
X368500Y88228D01*
D02*
G37*
G36*
X367500D02*
X366725Y87907D01*
X366092Y87274D01*
X365772Y86500D01*
X367500D01*
Y88228D01*
D02*
G37*
G36*
X322598Y93080D02*
X321402D01*
X320246Y92771D01*
X319210Y92173D01*
X318365Y91327D01*
X317766Y90291D01*
X317457Y89135D01*
Y87939D01*
X317766Y86783D01*
X318365Y85747D01*
X319210Y84901D01*
X320246Y84303D01*
X321402Y83994D01*
X322598D01*
X323754Y84303D01*
X324790Y84901D01*
X325636Y85747D01*
X326234Y86783D01*
X326543Y87939D01*
Y89135D01*
X326234Y90291D01*
X325636Y91327D01*
X324790Y92173D01*
X323754Y92771D01*
X322598Y93080D01*
D02*
G37*
G36*
X312598D02*
X311402D01*
X310246Y92771D01*
X309210Y92173D01*
X308365Y91327D01*
X307766Y90291D01*
X307457Y89135D01*
Y87939D01*
X307766Y86783D01*
X308365Y85747D01*
X309210Y84901D01*
X310246Y84303D01*
X311402Y83994D01*
X312598D01*
X313754Y84303D01*
X314790Y84901D01*
X315635Y85747D01*
X316234Y86783D01*
X316543Y87939D01*
Y89135D01*
X316234Y90291D01*
X315635Y91327D01*
X314790Y92173D01*
X313754Y92771D01*
X312598Y93080D01*
D02*
G37*
G36*
X370228Y85500D02*
X368500D01*
Y83772D01*
X369274Y84092D01*
X369907Y84725D01*
X370228Y85500D01*
D02*
G37*
G36*
X367500D02*
X365772D01*
X366092Y84725D01*
X366725Y84092D01*
X367500Y83772D01*
Y85500D01*
D02*
G37*
G36*
X658598Y78543D02*
X657402D01*
X656246Y78234D01*
X655210Y77636D01*
X654364Y76790D01*
X653766Y75754D01*
X653457Y74598D01*
Y73402D01*
X653766Y72246D01*
X654364Y71210D01*
X655210Y70364D01*
X656246Y69766D01*
X657402Y69457D01*
X658598D01*
X659754Y69766D01*
X660790Y70364D01*
X661635Y71210D01*
X662234Y72246D01*
X662543Y73402D01*
Y74598D01*
X662234Y75754D01*
X661635Y76790D01*
X660790Y77636D01*
X659754Y78234D01*
X658598Y78543D01*
D02*
G37*
G36*
X648598D02*
X647402D01*
X646246Y78234D01*
X645210Y77636D01*
X644365Y76790D01*
X643766Y75754D01*
X643457Y74598D01*
Y73402D01*
X643766Y72246D01*
X644365Y71210D01*
X645210Y70364D01*
X646246Y69766D01*
X647402Y69457D01*
X648598D01*
X649754Y69766D01*
X650790Y70364D01*
X651636Y71210D01*
X652234Y72246D01*
X652543Y73402D01*
Y74598D01*
X652234Y75754D01*
X651636Y76790D01*
X650790Y77636D01*
X649754Y78234D01*
X648598Y78543D01*
D02*
G37*
G36*
X638598D02*
X637402D01*
X636246Y78234D01*
X635210Y77636D01*
X634365Y76790D01*
X633766Y75754D01*
X633457Y74598D01*
Y73402D01*
X633766Y72246D01*
X634365Y71210D01*
X635210Y70364D01*
X636246Y69766D01*
X637402Y69457D01*
X638598D01*
X639754Y69766D01*
X640790Y70364D01*
X641636Y71210D01*
X642234Y72246D01*
X642543Y73402D01*
Y74598D01*
X642234Y75754D01*
X641636Y76790D01*
X640790Y77636D01*
X639754Y78234D01*
X638598Y78543D01*
D02*
G37*
G36*
X628598D02*
X627402D01*
X626246Y78234D01*
X625210Y77636D01*
X624365Y76790D01*
X623766Y75754D01*
X623457Y74598D01*
Y73402D01*
X623766Y72246D01*
X624365Y71210D01*
X625210Y70364D01*
X626246Y69766D01*
X627402Y69457D01*
X628598D01*
X629754Y69766D01*
X630790Y70364D01*
X631636Y71210D01*
X632234Y72246D01*
X632543Y73402D01*
Y74598D01*
X632234Y75754D01*
X631636Y76790D01*
X630790Y77636D01*
X629754Y78234D01*
X628598Y78543D01*
D02*
G37*
G36*
X516500Y62228D02*
Y60500D01*
X518228D01*
X517907Y61274D01*
X517275Y61908D01*
X516500Y62228D01*
D02*
G37*
G36*
X515500D02*
X514725Y61908D01*
X514092Y61274D01*
X513772Y60500D01*
X515500D01*
Y62228D01*
D02*
G37*
G36*
X518228Y59500D02*
X516500D01*
Y57772D01*
X517275Y58092D01*
X517907Y58726D01*
X518228Y59500D01*
D02*
G37*
G36*
X515500D02*
X513772D01*
X514092Y58726D01*
X514725Y58092D01*
X515500Y57772D01*
Y59500D01*
D02*
G37*
G36*
X472500Y54228D02*
Y52500D01*
X474228D01*
X473908Y53275D01*
X473275Y53908D01*
X472500Y54228D01*
D02*
G37*
G36*
X471500D02*
X470725Y53908D01*
X470092Y53275D01*
X469772Y52500D01*
X471500D01*
Y54228D01*
D02*
G37*
G36*
X474228Y51500D02*
X472500D01*
Y49772D01*
X473275Y50093D01*
X473908Y50726D01*
X474228Y51500D01*
D02*
G37*
G36*
X471500D02*
X469772D01*
X470092Y50726D01*
X470725Y50093D01*
X471500Y49772D01*
Y51500D01*
D02*
G37*
G36*
X558500Y44228D02*
Y42500D01*
X560228D01*
X559907Y43275D01*
X559274Y43907D01*
X558500Y44228D01*
D02*
G37*
G36*
X557500D02*
X556726Y43907D01*
X556093Y43275D01*
X555772Y42500D01*
X557500D01*
Y44228D01*
D02*
G37*
G36*
X422500D02*
Y42500D01*
X424228D01*
X423908Y43275D01*
X423275Y43907D01*
X422500Y44228D01*
D02*
G37*
G36*
X421500D02*
X420725Y43907D01*
X420092Y43275D01*
X419772Y42500D01*
X421500D01*
Y44228D01*
D02*
G37*
G36*
X560228Y41500D02*
X558500D01*
Y39772D01*
X559274Y40093D01*
X559907Y40725D01*
X560228Y41500D01*
D02*
G37*
G36*
X557500D02*
X555772D01*
X556093Y40725D01*
X556726Y40093D01*
X557500Y39772D01*
Y41500D01*
D02*
G37*
G36*
X424228D02*
X422500D01*
Y39772D01*
X423275Y40093D01*
X423908Y40725D01*
X424228Y41500D01*
D02*
G37*
G36*
X421500D02*
X419772D01*
X420092Y40725D01*
X420725Y40093D01*
X421500Y39772D01*
Y41500D01*
D02*
G37*
G36*
X462500Y36228D02*
Y34500D01*
X464228D01*
X463907Y35274D01*
X463274Y35908D01*
X462500Y36228D01*
D02*
G37*
G36*
X461500D02*
X460725Y35908D01*
X460092Y35274D01*
X459772Y34500D01*
X461500D01*
Y36228D01*
D02*
G37*
G36*
X464228Y33500D02*
X462500D01*
Y31772D01*
X463274Y32092D01*
X463907Y32726D01*
X464228Y33500D01*
D02*
G37*
G36*
X461500D02*
X459772D01*
X460092Y32726D01*
X460725Y32092D01*
X461500Y31772D01*
Y33500D01*
D02*
G37*
G36*
X674365Y42906D02*
X673005D01*
X671671Y42640D01*
X670414Y42120D01*
X669283Y41364D01*
X668321Y40402D01*
X667565Y39271D01*
X667045Y38014D01*
X666780Y36680D01*
Y35320D01*
X667045Y33986D01*
X667565Y32729D01*
X668321Y31598D01*
X669283Y30636D01*
X670414Y29880D01*
X671671Y29360D01*
X673005Y29094D01*
X674365D01*
X675699Y29360D01*
X676956Y29880D01*
X678087Y30636D01*
X679049Y31598D01*
X679805Y32729D01*
X680325Y33986D01*
X680590Y35320D01*
Y36680D01*
X680325Y38014D01*
X679805Y39271D01*
X679049Y40402D01*
X678087Y41364D01*
X676956Y42120D01*
X675699Y42640D01*
X674365Y42906D01*
D02*
G37*
G36*
X654680D02*
X653320D01*
X651986Y42640D01*
X650729Y42120D01*
X649598Y41364D01*
X648636Y40402D01*
X647880Y39271D01*
X647360Y38014D01*
X647094Y36680D01*
Y35320D01*
X647360Y33986D01*
X647880Y32729D01*
X648636Y31598D01*
X649598Y30636D01*
X650729Y29880D01*
X651986Y29360D01*
X653320Y29094D01*
X654680D01*
X656014Y29360D01*
X657271Y29880D01*
X658402Y30636D01*
X659364Y31598D01*
X660120Y32729D01*
X660640Y33986D01*
X660906Y35320D01*
Y36680D01*
X660640Y38014D01*
X660120Y39271D01*
X659364Y40402D01*
X658402Y41364D01*
X657271Y42120D01*
X656014Y42640D01*
X654680Y42906D01*
D02*
G37*
G36*
X634995D02*
X633635D01*
X632301Y42640D01*
X631044Y42120D01*
X629913Y41364D01*
X628951Y40402D01*
X628195Y39271D01*
X627675Y38014D01*
X627410Y36680D01*
Y35320D01*
X627675Y33986D01*
X628195Y32729D01*
X628951Y31598D01*
X629913Y30636D01*
X631044Y29880D01*
X632301Y29360D01*
X633635Y29094D01*
X634995D01*
X636329Y29360D01*
X637586Y29880D01*
X638717Y30636D01*
X639679Y31598D01*
X640435Y32729D01*
X640955Y33986D01*
X641221Y35320D01*
Y36680D01*
X640955Y38014D01*
X640435Y39271D01*
X639679Y40402D01*
X638717Y41364D01*
X637586Y42120D01*
X636329Y42640D01*
X634995Y42906D01*
D02*
G37*
G36*
X615310D02*
X613950D01*
X612616Y42640D01*
X611359Y42120D01*
X610228Y41364D01*
X609266Y40402D01*
X608510Y39271D01*
X607990Y38014D01*
X607724Y36680D01*
Y35320D01*
X607990Y33986D01*
X608510Y32729D01*
X609266Y31598D01*
X610228Y30636D01*
X611359Y29880D01*
X612616Y29360D01*
X613950Y29094D01*
X615310D01*
X616644Y29360D01*
X617901Y29880D01*
X619032Y30636D01*
X619994Y31598D01*
X620750Y32729D01*
X621270Y33986D01*
X621535Y35320D01*
Y36680D01*
X621270Y38014D01*
X620750Y39271D01*
X619994Y40402D01*
X619032Y41364D01*
X617901Y42120D01*
X616644Y42640D01*
X615310Y42906D01*
D02*
G37*
%LPD*%
D14*
X112000Y210000D02*
X122000Y220000D01*
Y232000D01*
X162000D01*
X180000Y250000D02*
Y264000D01*
X162000Y232000D02*
X180000Y250000D01*
X167000Y277000D02*
Y289000D01*
Y277000D02*
X180000Y264000D01*
X167000Y289000D02*
X182000Y304000D01*
Y344000D01*
X224000Y386000D01*
X256000D01*
X264000Y394000D01*
X394000Y130000D02*
Y150000D01*
Y110000D02*
Y130000D01*
Y186000D02*
Y202000D01*
X600000Y314000D02*
X624000D01*
D16*
X164941Y338764D02*
Y411756D01*
Y338764D02*
X362933D01*
Y411756D01*
X164941D02*
X362933D01*
X164941Y338764D02*
Y411756D01*
Y338764D02*
X362933D01*
Y411756D01*
X164941D02*
X362933D01*
D17*
X157450Y235450D02*
X164000Y242000D01*
X138550Y235450D02*
X157450D01*
X82000Y230000D02*
Y237649D01*
X82351Y238000D01*
X109000D01*
X111000Y236000D01*
X76000Y239649D02*
X76351Y240000D01*
X124000D01*
X142000Y258000D01*
Y272352D02*
X145994Y268357D01*
X142000Y272352D02*
Y318000D01*
X153642Y268357D02*
X158000Y264000D01*
X145994Y268357D02*
X153642D01*
X142000Y318000D02*
X222000Y398000D01*
X76000Y226000D02*
Y239649D01*
X152000Y258000D02*
X158000Y264000D01*
X142000Y258000D02*
X152000D01*
X111000Y236000D02*
X138000D01*
X138550Y235450D01*
X124000Y160000D02*
X130000Y166000D01*
X130394D01*
X124000Y178000D02*
X128400Y173600D01*
X124000Y166000D02*
X126000Y168000D01*
X130000D01*
X130150Y168150D01*
X130394Y166000D02*
X130944Y166550D01*
X128400Y173600D02*
X143600D01*
X130944Y166550D02*
X141450D01*
X152000Y296000D02*
Y320000D01*
Y296000D02*
X158000Y290000D01*
X152000Y320000D02*
X230000Y398000D01*
X252000D01*
X143600Y173600D02*
X148000Y178000D01*
X124000Y172000D02*
X148000D01*
X130150Y168150D02*
X145850D01*
X141450Y166550D02*
X148000Y160000D01*
X145850Y168150D02*
X148000Y166000D01*
X134000Y120000D02*
X138000Y116000D01*
Y114000D02*
X154000D01*
X158000Y110000D01*
X134000D02*
X138000Y114000D01*
Y116000D02*
X152000D01*
X158000Y122000D01*
D19*
X217465Y151285D02*
Y169789D01*
X250535Y151285D02*
Y169789D01*
X217465D02*
X250535D01*
X217465Y151285D02*
X250535D01*
X231465Y181285D02*
Y199789D01*
X264535Y181285D02*
Y199789D01*
X231465D02*
X264535D01*
X231465Y181285D02*
X264535D01*
D20*
X232031Y160537D02*
X235968D01*
X234000Y158569D02*
Y162505D01*
X246031Y190537D02*
X249969D01*
X248000Y188568D02*
Y192506D01*
D81*
X112000Y220000D02*
D03*
Y210000D02*
D03*
X102000Y176000D02*
D03*
X92000D02*
D03*
X82000D02*
D03*
X96000Y246000D02*
D03*
X106000D02*
D03*
X116000D02*
D03*
X82000Y278000D02*
D03*
X72000D02*
D03*
X62000D02*
D03*
X110000D02*
D03*
X120000D02*
D03*
X130000D02*
D03*
X46000Y266000D02*
D03*
X36000D02*
D03*
X124000Y366000D02*
D03*
X134000D02*
D03*
X56000Y372000D02*
D03*
X46000D02*
D03*
X300000Y318000D02*
D03*
X310000D02*
D03*
X92000Y370000D02*
D03*
Y380000D02*
D03*
X114000Y262000D02*
D03*
X104000D02*
D03*
X136000Y198000D02*
D03*
X146000D02*
D03*
X136000Y212000D02*
D03*
X146000D02*
D03*
X558000Y154126D02*
D03*
Y164126D02*
D03*
Y174126D02*
D03*
X498000Y196126D02*
D03*
X488000D02*
D03*
X478000D02*
D03*
X628000Y74000D02*
D03*
X638000D02*
D03*
X648000D02*
D03*
X658000D02*
D03*
X322000Y88537D02*
D03*
X312000D02*
D03*
X369200Y147137D02*
D03*
X359200D02*
D03*
X349200D02*
D03*
X264000Y114537D02*
D03*
X254000D02*
D03*
X244000D02*
D03*
X320000Y276000D02*
D03*
X310000D02*
D03*
X427700Y362200D02*
D03*
X417700D02*
D03*
X537200Y393000D02*
D03*
X527200D02*
D03*
X584300Y366800D02*
D03*
Y356800D02*
D03*
Y346800D02*
D03*
X397500Y338400D02*
D03*
X407500D02*
D03*
X658000Y168000D02*
D03*
X668000D02*
D03*
X678000D02*
D03*
D82*
X193937Y345260D02*
D03*
Y405260D02*
D03*
X203937Y345260D02*
D03*
Y405260D02*
D03*
X213937Y345260D02*
D03*
Y405260D02*
D03*
X223937Y345260D02*
D03*
Y405260D02*
D03*
X233937Y345260D02*
D03*
Y405260D02*
D03*
X243937Y345260D02*
D03*
Y405260D02*
D03*
X253937Y345260D02*
D03*
Y405260D02*
D03*
X263937Y345260D02*
D03*
Y405260D02*
D03*
X273937Y345260D02*
D03*
Y405260D02*
D03*
X283937Y345260D02*
D03*
Y405260D02*
D03*
X293937Y345260D02*
D03*
Y405260D02*
D03*
X303937Y345260D02*
D03*
Y405260D02*
D03*
X313937Y345260D02*
D03*
Y405260D02*
D03*
X323937Y345260D02*
D03*
Y405260D02*
D03*
D83*
X333937Y345260D02*
D03*
Y405260D02*
D03*
D84*
X56000Y392200D02*
D03*
X44200D02*
D03*
Y404000D02*
D03*
X56000D02*
D03*
D85*
X50100Y421000D02*
D03*
D86*
X166315Y38000D02*
D03*
X225370D02*
D03*
X205685D02*
D03*
X186000D02*
D03*
X614630Y36000D02*
D03*
X673685D02*
D03*
X654000D02*
D03*
X634315D02*
D03*
X664000Y424000D02*
D03*
Y408000D02*
D03*
D87*
X490401Y376438D02*
D03*
X480401D02*
D03*
X450401D02*
D03*
X440401D02*
D03*
X430401D02*
D03*
D88*
X626000Y354000D02*
D03*
X64000Y332000D02*
D03*
X76000Y186000D02*
D03*
X82000Y230000D02*
D03*
X76000Y226000D02*
D03*
X164000Y242000D02*
D03*
X106000Y234000D02*
D03*
X78000Y344000D02*
D03*
X116000Y346000D02*
D03*
X230000Y364000D02*
D03*
X264000Y394000D02*
D03*
X222000Y398000D02*
D03*
X252000D02*
D03*
X124000Y172000D02*
D03*
Y166000D02*
D03*
Y160000D02*
D03*
Y178000D02*
D03*
X132000D02*
D03*
Y162000D02*
D03*
X140000D02*
D03*
Y178000D02*
D03*
X134000Y222000D02*
D03*
X148000Y238000D02*
D03*
X172000Y260000D02*
D03*
X158000Y264000D02*
D03*
Y290000D02*
D03*
X138000Y304000D02*
D03*
X182000D02*
D03*
X326000Y310000D02*
D03*
X40000Y280000D02*
D03*
X54000Y308000D02*
D03*
X106000Y346000D02*
D03*
X394000Y130000D02*
D03*
X388000Y198000D02*
D03*
X394000Y110000D02*
D03*
Y202000D02*
D03*
Y186000D02*
D03*
Y150000D02*
D03*
X400000Y198000D02*
D03*
Y190000D02*
D03*
X388000D02*
D03*
X400000Y136000D02*
D03*
X388000D02*
D03*
X400000Y144000D02*
D03*
X388000D02*
D03*
X400000Y124000D02*
D03*
X388000D02*
D03*
X400000Y116000D02*
D03*
X388000D02*
D03*
X608000Y320000D02*
D03*
X466000Y248000D02*
D03*
X516000Y188000D02*
D03*
X564000Y206000D02*
D03*
Y240000D02*
D03*
X518000Y256000D02*
D03*
X422000Y110000D02*
D03*
X464000Y140000D02*
D03*
X462000Y34000D02*
D03*
X422000Y42000D02*
D03*
X456000Y234000D02*
D03*
X420000Y238000D02*
D03*
X426000Y196000D02*
D03*
X500000Y124000D02*
D03*
X498000Y168000D02*
D03*
X472000Y52000D02*
D03*
X516000Y60000D02*
D03*
X558000Y42000D02*
D03*
X544000Y138000D02*
D03*
X676000Y118000D02*
D03*
X624000Y314000D02*
D03*
X600000D02*
D03*
X616000Y320000D02*
D03*
Y308000D02*
D03*
X608000D02*
D03*
X184000Y62000D02*
D03*
X168000Y163463D02*
D03*
X148000Y160000D02*
D03*
Y166000D02*
D03*
Y172000D02*
D03*
Y178000D02*
D03*
X134000Y120000D02*
D03*
X158000Y110000D02*
D03*
X134000D02*
D03*
X142000Y108000D02*
D03*
Y120000D02*
D03*
X150000Y108000D02*
D03*
Y120000D02*
D03*
X158000Y122000D02*
D03*
X316000Y264000D02*
D03*
X280000Y248000D02*
D03*
Y90000D02*
D03*
X316000Y100000D02*
D03*
X204000D02*
D03*
X198000Y112000D02*
D03*
X268000Y126000D02*
D03*
X230000Y138000D02*
D03*
X212000Y154000D02*
D03*
X264000Y168000D02*
D03*
Y176000D02*
D03*
X224000Y182000D02*
D03*
X178000Y190000D02*
D03*
X332000Y194000D02*
D03*
X368000Y86000D02*
D03*
X372000Y238000D02*
D03*
X606000Y116000D02*
D03*
X376000Y160000D02*
D03*
X638000Y154000D02*
D03*
X636000Y148000D02*
D03*
X620000Y116000D02*
D03*
X518000Y420000D02*
D03*
X450000Y366000D02*
D03*
X636000Y386000D02*
D03*
X480000Y364000D02*
D03*
X506000Y358000D02*
D03*
X414000Y422000D02*
D03*
X598000Y354000D02*
D03*
M02*
