G04*
G04 #@! TF.GenerationSoftware,Altium Limited,Altium Designer,22.8.2 (66)*
G04*
G04 Layer_Color=65535*
%FSLAX25Y25*%
%MOIN*%
G70*
G04*
G04 #@! TF.SameCoordinates,BEF1E4EC-90C0-4ACD-898C-557356F843F1*
G04*
G04*
G04 #@! TF.FilePolarity,Positive*
G04*
G01*
G75*
%ADD10C,0.00984*%
%ADD11C,0.01575*%
%ADD12C,0.02362*%
%ADD13C,0.00945*%
%ADD14C,0.01000*%
%ADD15C,0.00787*%
%ADD16C,0.00500*%
%ADD17C,0.00600*%
%ADD18C,0.00700*%
%ADD19C,0.00197*%
%ADD20C,0.00394*%
G36*
X118054Y100914D02*
X118713D01*
Y100749D01*
X119043D01*
Y100584D01*
X119372D01*
Y100420D01*
X119537D01*
Y100255D01*
X119701D01*
Y100090D01*
X119866D01*
Y99761D01*
X120031D01*
Y99431D01*
X120196D01*
Y97784D01*
X120031D01*
Y97454D01*
X119866D01*
Y97125D01*
X119701D01*
Y96960D01*
X119537D01*
Y96795D01*
X119372D01*
Y96631D01*
X119207D01*
Y96466D01*
X118878D01*
Y96301D01*
X118548D01*
Y96136D01*
X117395D01*
Y95972D01*
X111959D01*
Y93336D01*
X110641D01*
Y101078D01*
X118054D01*
Y100914D01*
D02*
G37*
G36*
X105864D02*
X106523D01*
Y100749D01*
X107017D01*
Y100584D01*
X107346D01*
Y100420D01*
X107676D01*
Y100255D01*
X107840D01*
Y100090D01*
X108005D01*
Y99925D01*
X108170D01*
Y99761D01*
X108335D01*
Y99596D01*
X108499D01*
Y99266D01*
X108664D01*
Y98937D01*
X108829D01*
Y98278D01*
X108994D01*
Y96136D01*
X108829D01*
Y95477D01*
X108664D01*
Y95148D01*
X108499D01*
Y94819D01*
X108335D01*
Y94654D01*
X108170D01*
Y94489D01*
X108005D01*
Y94324D01*
X107840D01*
Y94160D01*
X107676D01*
Y93995D01*
X107346D01*
Y93830D01*
X107017D01*
Y93665D01*
X106523D01*
Y93501D01*
X105864D01*
Y93336D01*
X101416D01*
Y93501D01*
X100592D01*
Y93665D01*
X100262D01*
Y93830D01*
X99933D01*
Y93995D01*
X99604D01*
Y94160D01*
X99439D01*
Y94324D01*
X99274D01*
Y94489D01*
X99109D01*
Y94654D01*
X98945D01*
Y94819D01*
X98780D01*
Y95148D01*
X98615D01*
Y95477D01*
X98450D01*
Y96136D01*
X98286D01*
Y98278D01*
X98450D01*
Y98937D01*
X98615D01*
Y99266D01*
X98780D01*
Y99596D01*
X98945D01*
Y99761D01*
X99109D01*
Y99925D01*
X99274D01*
Y100090D01*
X99439D01*
Y100255D01*
X99604D01*
Y100420D01*
X99933D01*
Y100584D01*
X100262D01*
Y100749D01*
X100757D01*
Y100914D01*
X101416D01*
Y101078D01*
X105864D01*
Y100914D01*
D02*
G37*
G36*
X93838D02*
X94497D01*
Y100749D01*
X94991D01*
Y100584D01*
X95320D01*
Y100420D01*
X95650D01*
Y100255D01*
X95815D01*
Y100090D01*
X95979D01*
Y99925D01*
X96144D01*
Y99761D01*
X96309D01*
Y99596D01*
X96474D01*
Y99266D01*
X96638D01*
Y98937D01*
X96803D01*
Y98278D01*
X96968D01*
Y96136D01*
X96803D01*
Y95477D01*
X96638D01*
Y95148D01*
X96474D01*
Y94819D01*
X96309D01*
Y94654D01*
X96144D01*
Y94489D01*
X95979D01*
Y94324D01*
X95815D01*
Y94160D01*
X95650D01*
Y93995D01*
X95320D01*
Y93830D01*
X94991D01*
Y93665D01*
X94497D01*
Y93501D01*
X93838D01*
Y93336D01*
X89390D01*
Y93501D01*
X88566D01*
Y93665D01*
X88237D01*
Y93830D01*
X87907D01*
Y93995D01*
X87578D01*
Y94160D01*
X87413D01*
Y94324D01*
X87248D01*
Y94489D01*
X87084D01*
Y94654D01*
X86919D01*
Y94819D01*
X86754D01*
Y95148D01*
X86589D01*
Y95477D01*
X86425D01*
Y96136D01*
X86260D01*
Y98278D01*
X86425D01*
Y98937D01*
X86589D01*
Y99266D01*
X86754D01*
Y99596D01*
X86919D01*
Y99761D01*
X87084D01*
Y99925D01*
X87248D01*
Y100090D01*
X87413D01*
Y100255D01*
X87578D01*
Y100420D01*
X87907D01*
Y100584D01*
X88237D01*
Y100749D01*
X88731D01*
Y100914D01*
X89390D01*
Y101078D01*
X93838D01*
Y100914D01*
D02*
G37*
G36*
X78023Y95972D02*
X78188D01*
Y95477D01*
X78353D01*
Y95148D01*
X78517D01*
Y94983D01*
X78682D01*
Y94819D01*
X79012D01*
Y94654D01*
X79835D01*
Y94489D01*
X85601D01*
Y93336D01*
X79506D01*
Y93501D01*
X78682D01*
Y93665D01*
X78188D01*
Y93830D01*
X78023D01*
Y93995D01*
X77694D01*
Y94160D01*
X77529D01*
Y94324D01*
X77364D01*
Y94654D01*
X77200D01*
Y94983D01*
X77035D01*
Y95477D01*
X76870D01*
Y101078D01*
X78023D01*
Y95972D01*
D02*
G37*
G36*
X73081Y100914D02*
X73740D01*
Y100749D01*
X74069D01*
Y100584D01*
X74234D01*
Y100420D01*
X74564D01*
Y100255D01*
X74728D01*
Y99925D01*
X74893D01*
Y99596D01*
X75058D01*
Y97784D01*
X74893D01*
Y97454D01*
X74728D01*
Y97290D01*
X74564D01*
Y97125D01*
X74399D01*
Y96960D01*
X74069D01*
Y96795D01*
X73740D01*
Y96466D01*
X74069D01*
Y96301D01*
X74234D01*
Y96136D01*
X74564D01*
Y95807D01*
X74728D01*
Y95477D01*
X74893D01*
Y93336D01*
X73740D01*
Y94983D01*
X73575D01*
Y95477D01*
X73411D01*
Y95642D01*
X73246D01*
Y95807D01*
X73081D01*
Y95972D01*
X72587D01*
Y96136D01*
X66821D01*
Y95972D01*
Y95807D01*
Y93336D01*
X65503D01*
Y101078D01*
X73081D01*
Y100914D01*
D02*
G37*
G36*
X63691Y99925D02*
X56937D01*
Y99761D01*
X56278D01*
Y99596D01*
X56113D01*
Y99431D01*
X55784D01*
Y99266D01*
X55619D01*
Y98937D01*
X55454D01*
Y98607D01*
X55290D01*
Y97784D01*
X63526D01*
Y96631D01*
X55290D01*
Y95807D01*
X55454D01*
Y95477D01*
X55619D01*
Y95148D01*
X55784D01*
Y94983D01*
X56113D01*
Y94819D01*
X56443D01*
Y94654D01*
X56937D01*
Y94489D01*
X63691D01*
Y93336D01*
X56772D01*
Y93501D01*
X55949D01*
Y93665D01*
X55619D01*
Y93830D01*
X55290D01*
Y93995D01*
X55125D01*
Y94160D01*
X54960D01*
Y94324D01*
X54795D01*
Y94489D01*
X54631D01*
Y94654D01*
X54466D01*
Y94983D01*
X54301D01*
Y95313D01*
X54136D01*
Y96136D01*
X53972D01*
Y98278D01*
X54136D01*
Y99102D01*
X54301D01*
Y99431D01*
X54466D01*
Y99761D01*
X54631D01*
Y99925D01*
X54795D01*
Y100255D01*
X55125D01*
Y100420D01*
X55290D01*
Y100584D01*
X55619D01*
Y100749D01*
X55949D01*
Y100914D01*
X56772D01*
Y101078D01*
X63691D01*
Y99925D01*
D02*
G37*
G36*
X52489Y99761D02*
X45900D01*
Y99596D01*
X45241D01*
Y99431D01*
X44911D01*
Y99266D01*
X44582D01*
Y99102D01*
X44417D01*
Y98772D01*
X44252D01*
Y98278D01*
X44087D01*
Y95807D01*
X44252D01*
Y95642D01*
Y95477D01*
Y95313D01*
X44417D01*
Y95148D01*
X44582D01*
Y94819D01*
X44911D01*
Y94654D01*
X45241D01*
Y94489D01*
X45900D01*
Y94324D01*
X51336D01*
Y97125D01*
X52489D01*
Y93171D01*
X45570D01*
Y93336D01*
X44747D01*
Y93501D01*
X44417D01*
Y93665D01*
X44087D01*
Y93830D01*
X43923D01*
Y93995D01*
X43758D01*
Y94160D01*
X43593D01*
Y94324D01*
X43429D01*
Y94489D01*
X43264D01*
Y94819D01*
X43099D01*
Y95148D01*
X42934D01*
Y95972D01*
X42770D01*
Y98113D01*
X42934D01*
Y98937D01*
X43099D01*
Y99266D01*
X43264D01*
Y99596D01*
X43429D01*
Y99761D01*
X43593D01*
Y100090D01*
X43923D01*
Y100255D01*
X44087D01*
Y100420D01*
X44417D01*
Y100584D01*
X44747D01*
Y100749D01*
X45405D01*
Y100914D01*
X52489D01*
Y99761D01*
D02*
G37*
G36*
X38816Y100749D02*
X39475D01*
Y100584D01*
X39804D01*
Y100420D01*
X40134D01*
Y100255D01*
X40299D01*
Y100090D01*
X40463D01*
Y99925D01*
X40628D01*
Y99761D01*
X40793D01*
Y99596D01*
X40957D01*
Y99266D01*
X41122D01*
Y98772D01*
X41287D01*
Y97948D01*
X41452D01*
Y96136D01*
X41287D01*
Y95313D01*
X41122D01*
Y94819D01*
X40957D01*
Y94489D01*
X40793D01*
Y94324D01*
X40628D01*
Y94160D01*
X40463D01*
Y93995D01*
X40299D01*
Y93830D01*
X40134D01*
Y93665D01*
X39804D01*
Y93501D01*
X39475D01*
Y93336D01*
X38651D01*
Y93171D01*
X31403D01*
Y94983D01*
Y95148D01*
Y100914D01*
X38816D01*
Y100749D01*
D02*
G37*
G36*
X25637D02*
X25967D01*
Y100584D01*
X26296D01*
Y100420D01*
X26461D01*
Y100255D01*
X26625D01*
Y99925D01*
X26790D01*
Y99761D01*
X26955D01*
Y99431D01*
X27120D01*
Y99102D01*
X27284D01*
Y98772D01*
X27449D01*
Y98443D01*
X27614D01*
Y98113D01*
X27779D01*
Y97784D01*
X27943D01*
Y97454D01*
X28108D01*
Y97125D01*
X28273D01*
Y96795D01*
X28438D01*
Y96466D01*
X28602D01*
Y96136D01*
X28767D01*
Y95807D01*
X28932D01*
Y95477D01*
X29096D01*
Y95148D01*
X29261D01*
Y94819D01*
X29426D01*
Y94489D01*
X29591D01*
Y94160D01*
X29755D01*
Y93830D01*
X29920D01*
Y93501D01*
X30085D01*
Y93171D01*
X28767D01*
Y93501D01*
X28602D01*
Y93830D01*
X28438D01*
Y94160D01*
X28273D01*
Y94489D01*
X28108D01*
Y94819D01*
X27943D01*
Y95148D01*
X27779D01*
Y95313D01*
X21683D01*
Y94983D01*
X21519D01*
Y94654D01*
X21354D01*
Y94324D01*
X21189D01*
Y93995D01*
X21024D01*
Y93665D01*
X20860D01*
Y93336D01*
X20695D01*
Y93171D01*
X19377D01*
Y93336D01*
X19542D01*
Y93665D01*
X19707D01*
Y93995D01*
X19871D01*
Y94324D01*
X20036D01*
Y94654D01*
X20201D01*
Y94983D01*
X20366D01*
Y95313D01*
X20530D01*
Y95642D01*
X20695D01*
Y95972D01*
X20860D01*
Y96301D01*
X21024D01*
Y96631D01*
X21189D01*
Y96960D01*
X21354D01*
Y97290D01*
X21519D01*
Y97619D01*
X21683D01*
Y97948D01*
X21848D01*
Y98278D01*
X22013D01*
Y98607D01*
X22178D01*
Y98937D01*
X22342D01*
Y99266D01*
X22507D01*
Y99596D01*
X22672D01*
Y99925D01*
X22837D01*
Y100090D01*
X23001D01*
Y100420D01*
X23166D01*
Y100584D01*
X23495D01*
Y100749D01*
X23825D01*
Y100914D01*
X25637D01*
Y100749D01*
D02*
G37*
G36*
X16577D02*
X17071D01*
Y100584D01*
X17400D01*
Y100420D01*
X17730D01*
Y100255D01*
X17895D01*
Y100090D01*
X18059D01*
Y99761D01*
X18224D01*
Y99266D01*
X18389D01*
Y98443D01*
X18224D01*
Y97948D01*
X18059D01*
Y97784D01*
X17895D01*
Y97619D01*
X17730D01*
Y97454D01*
X17565D01*
Y97290D01*
X17235D01*
Y97125D01*
X17400D01*
Y96960D01*
X17730D01*
Y96795D01*
X17895D01*
Y96631D01*
X18059D01*
Y96466D01*
X18224D01*
Y96301D01*
X18389D01*
Y95972D01*
X18553D01*
Y94654D01*
X18389D01*
Y94324D01*
X18224D01*
Y93995D01*
X18059D01*
Y93830D01*
X17895D01*
Y93665D01*
X17565D01*
Y93501D01*
X17235D01*
Y93336D01*
X16577D01*
Y93171D01*
X8834D01*
Y100914D01*
X16577D01*
Y100749D01*
D02*
G37*
G36*
X118600Y80300D02*
X119500D01*
Y80000D01*
X120100D01*
Y79700D01*
X120400D01*
Y79400D01*
X120700D01*
Y79100D01*
X121000D01*
Y78500D01*
X121300D01*
Y75500D01*
X121000D01*
Y74300D01*
X120700D01*
Y73100D01*
X120400D01*
Y71900D01*
X120100D01*
Y70700D01*
X119800D01*
Y69500D01*
X119500D01*
Y68300D01*
X119200D01*
Y67100D01*
X118900D01*
Y65900D01*
X118600D01*
Y64700D01*
X118300D01*
Y63500D01*
X118000D01*
Y62600D01*
X117700D01*
Y62300D01*
X117400D01*
Y61700D01*
X117100D01*
Y61400D01*
X116500D01*
Y61100D01*
X116200D01*
Y60800D01*
X115600D01*
Y60500D01*
X115000D01*
Y60200D01*
X113800D01*
Y59900D01*
X110200D01*
Y60200D01*
X109900D01*
Y60500D01*
X110200D01*
Y61700D01*
X110500D01*
Y62900D01*
X110800D01*
Y64100D01*
X111100D01*
Y65600D01*
X111400D01*
Y66800D01*
X111700D01*
Y68000D01*
X112000D01*
Y69200D01*
X112300D01*
Y70400D01*
X112600D01*
Y71600D01*
X112900D01*
Y72800D01*
X113200D01*
Y75200D01*
X112900D01*
Y75500D01*
X112000D01*
Y75800D01*
X111400D01*
Y75500D01*
X110200D01*
Y75200D01*
X109900D01*
Y74900D01*
X109600D01*
Y74600D01*
X109300D01*
Y74000D01*
X109000D01*
Y73100D01*
X108700D01*
Y72800D01*
Y71900D01*
X108400D01*
Y70700D01*
X108100D01*
Y69500D01*
X107800D01*
Y68300D01*
X107500D01*
Y67100D01*
X107200D01*
Y65900D01*
X106900D01*
Y64400D01*
X106600D01*
Y63200D01*
X106300D01*
Y62000D01*
X106000D01*
Y60800D01*
X105700D01*
Y60200D01*
X105400D01*
Y59900D01*
X98500D01*
Y60200D01*
X98200D01*
Y60500D01*
X98500D01*
Y61700D01*
X98800D01*
Y62900D01*
X99100D01*
Y64100D01*
X99400D01*
Y65300D01*
X99700D01*
Y66500D01*
X100000D01*
Y67700D01*
X100300D01*
Y68900D01*
X100600D01*
Y70100D01*
X100900D01*
Y71300D01*
X101200D01*
Y72800D01*
X101500D01*
Y74000D01*
X101800D01*
Y74600D01*
X101500D01*
Y75200D01*
X101200D01*
Y75500D01*
X100300D01*
Y75800D01*
X99700D01*
Y75500D01*
X98800D01*
Y75200D01*
X98200D01*
Y74900D01*
X97900D01*
Y74300D01*
X97600D01*
Y73700D01*
X97300D01*
Y72500D01*
X97000D01*
Y71300D01*
X96700D01*
Y70100D01*
X96400D01*
Y68900D01*
X96100D01*
Y67700D01*
X95800D01*
Y66500D01*
X95500D01*
Y65300D01*
X95200D01*
Y64100D01*
X94900D01*
Y62900D01*
X94600D01*
Y61700D01*
X94300D01*
Y60500D01*
X94000D01*
Y59900D01*
X86800D01*
Y61400D01*
X87100D01*
Y62600D01*
X87400D01*
Y63800D01*
X87700D01*
Y65000D01*
X88000D01*
Y66200D01*
X88300D01*
Y67400D01*
X88600D01*
Y68600D01*
X88900D01*
Y69800D01*
X89200D01*
Y71000D01*
X89500D01*
Y72200D01*
X89800D01*
Y73400D01*
X90100D01*
Y74600D01*
X90400D01*
Y75800D01*
X90700D01*
Y77000D01*
X91000D01*
Y78200D01*
X91300D01*
Y79700D01*
X91600D01*
Y80000D01*
X99100D01*
Y79700D01*
X98800D01*
Y78500D01*
X98500D01*
Y77900D01*
X98800D01*
Y78200D01*
X99100D01*
Y78500D01*
X99400D01*
Y78800D01*
X99700D01*
Y79100D01*
X100000D01*
Y79400D01*
X100600D01*
Y79700D01*
X101200D01*
Y80000D01*
X101800D01*
Y80300D01*
X102700D01*
Y80600D01*
X107200D01*
Y80300D01*
X108100D01*
Y80000D01*
X108400D01*
Y79700D01*
X108700D01*
Y79400D01*
X109000D01*
Y79100D01*
X109300D01*
Y78800D01*
X109600D01*
Y77900D01*
X110200D01*
Y78200D01*
X110500D01*
Y78500D01*
X110800D01*
Y78800D01*
X111100D01*
Y79100D01*
X111400D01*
Y79400D01*
X112000D01*
Y79700D01*
X112600D01*
Y80000D01*
X113200D01*
Y80300D01*
X114400D01*
Y80600D01*
X118600D01*
Y80300D01*
D02*
G37*
G36*
X88000Y79700D02*
X87700D01*
Y78500D01*
X87400D01*
Y77000D01*
X87100D01*
Y75800D01*
X86800D01*
Y74600D01*
X86500D01*
Y73400D01*
X86200D01*
Y72200D01*
X85900D01*
Y71000D01*
X85600D01*
Y69800D01*
X85300D01*
Y68600D01*
X85000D01*
Y67400D01*
X84700D01*
Y66200D01*
X84400D01*
Y65000D01*
X84100D01*
Y63800D01*
X83800D01*
Y62600D01*
X83500D01*
Y61400D01*
X83200D01*
Y60200D01*
X82900D01*
Y59900D01*
X75700D01*
Y60800D01*
X76000D01*
Y62000D01*
X75700D01*
Y61700D01*
X75400D01*
Y61400D01*
X75100D01*
Y61100D01*
X74800D01*
Y60800D01*
X74200D01*
Y60500D01*
X73600D01*
Y60200D01*
X73000D01*
Y59900D01*
X72100D01*
Y59600D01*
X67600D01*
Y59900D01*
X67000D01*
Y60200D01*
X66400D01*
Y60500D01*
X65800D01*
Y60800D01*
X65500D01*
Y61400D01*
X65200D01*
Y62300D01*
X64900D01*
Y64100D01*
X65200D01*
Y65300D01*
X65500D01*
Y66800D01*
X65800D01*
Y68000D01*
X66100D01*
Y69200D01*
X66400D01*
Y70400D01*
X66700D01*
Y71600D01*
X67000D01*
Y72800D01*
X67300D01*
Y74000D01*
X67600D01*
Y75200D01*
X67900D01*
Y76400D01*
X68200D01*
Y77600D01*
X68500D01*
Y78800D01*
X68800D01*
Y80000D01*
X76300D01*
Y79100D01*
X76000D01*
Y77900D01*
X75700D01*
Y76700D01*
X75400D01*
Y75500D01*
X75100D01*
Y74300D01*
X74800D01*
Y73100D01*
X74500D01*
Y71900D01*
X74200D01*
Y70700D01*
X73900D01*
Y69500D01*
X73600D01*
Y68300D01*
X73300D01*
Y67100D01*
X73000D01*
Y65000D01*
X73300D01*
Y64700D01*
X73900D01*
Y64400D01*
X75400D01*
Y64700D01*
X76000D01*
Y65000D01*
X76300D01*
Y65300D01*
X76600D01*
Y65600D01*
X76900D01*
Y66200D01*
X77200D01*
Y67100D01*
X77500D01*
Y68300D01*
X77800D01*
Y69500D01*
X78100D01*
Y70700D01*
X78400D01*
Y71900D01*
X78700D01*
Y73100D01*
X79000D01*
Y74300D01*
X79300D01*
Y75500D01*
X79600D01*
Y76700D01*
X79900D01*
Y77900D01*
X80200D01*
Y79400D01*
X80500D01*
Y80000D01*
X88000D01*
Y79700D01*
D02*
G37*
G36*
X65500Y78800D02*
X65200D01*
Y77600D01*
X64900D01*
Y76400D01*
X64600D01*
Y75200D01*
X64300D01*
Y74000D01*
X64000D01*
Y72800D01*
X63700D01*
Y71600D01*
X63400D01*
Y70400D01*
X63100D01*
Y69200D01*
X62800D01*
Y68000D01*
X62500D01*
Y66800D01*
X62200D01*
Y65600D01*
X61900D01*
Y64400D01*
X61600D01*
Y63200D01*
X61300D01*
Y62000D01*
X61000D01*
Y61100D01*
Y60800D01*
X60700D01*
Y59900D01*
X53500D01*
Y60200D01*
X53200D01*
Y60500D01*
X53500D01*
Y61400D01*
X53800D01*
Y62600D01*
X54100D01*
Y63800D01*
X54400D01*
Y65300D01*
X54700D01*
Y66500D01*
X55000D01*
Y67700D01*
X55300D01*
Y68900D01*
X55600D01*
Y70100D01*
X55900D01*
Y71300D01*
X56200D01*
Y72500D01*
X56500D01*
Y73700D01*
X56800D01*
Y74900D01*
X57100D01*
Y76100D01*
X57400D01*
Y77300D01*
X57700D01*
Y78500D01*
X58000D01*
Y79700D01*
X58300D01*
Y80000D01*
X65500D01*
Y78800D01*
D02*
G37*
G36*
X54100Y86000D02*
X53800D01*
Y84800D01*
X53500D01*
Y83600D01*
X53200D01*
Y82400D01*
X52900D01*
Y81200D01*
X52600D01*
Y80000D01*
X55600D01*
Y79700D01*
X55300D01*
Y78500D01*
X55000D01*
Y77300D01*
X54700D01*
Y76100D01*
X54400D01*
Y75500D01*
X51400D01*
Y75200D01*
X51100D01*
Y74000D01*
X50800D01*
Y72800D01*
X50500D01*
Y71600D01*
X50200D01*
Y70400D01*
X49900D01*
Y69200D01*
X49600D01*
Y68000D01*
X49300D01*
Y66500D01*
X49000D01*
Y65000D01*
X49300D01*
Y64700D01*
X49600D01*
Y64400D01*
X51700D01*
Y63800D01*
X51400D01*
Y62600D01*
X51100D01*
Y61400D01*
X50800D01*
Y60200D01*
X50500D01*
Y59900D01*
X43300D01*
Y60200D01*
X42400D01*
Y60500D01*
X41800D01*
Y60800D01*
X41500D01*
Y61100D01*
X41200D01*
Y62000D01*
X40900D01*
Y63500D01*
X41200D01*
Y65000D01*
X41500D01*
Y66200D01*
X41800D01*
Y67400D01*
X42100D01*
Y68600D01*
X42400D01*
Y69800D01*
X42700D01*
Y71000D01*
X43000D01*
Y72200D01*
X43300D01*
Y73400D01*
X43600D01*
Y74600D01*
X43900D01*
Y75800D01*
X44200D01*
Y77000D01*
X44500D01*
Y78200D01*
X44800D01*
Y79700D01*
X45100D01*
Y80900D01*
X45400D01*
Y82100D01*
X45700D01*
Y83300D01*
X46000D01*
Y84500D01*
X46300D01*
Y85700D01*
X46600D01*
Y86300D01*
X54100D01*
Y86000D01*
D02*
G37*
G36*
X43000Y85400D02*
X42700D01*
Y84200D01*
X42400D01*
Y82700D01*
X42100D01*
Y81500D01*
X41800D01*
Y80300D01*
X41500D01*
Y79100D01*
X41200D01*
Y77900D01*
X40900D01*
Y76700D01*
X40600D01*
Y75500D01*
X40300D01*
Y74300D01*
X40000D01*
Y73100D01*
X39700D01*
Y71900D01*
X39400D01*
Y70700D01*
X39100D01*
Y69500D01*
X38800D01*
Y68300D01*
X38500D01*
Y67100D01*
X38200D01*
Y65900D01*
X37900D01*
Y64700D01*
X37600D01*
Y63500D01*
X37300D01*
Y62300D01*
X37000D01*
Y61100D01*
X36700D01*
Y60200D01*
X36400D01*
Y59900D01*
X29500D01*
Y60200D01*
X29200D01*
Y60500D01*
X29500D01*
Y61700D01*
X29800D01*
Y62900D01*
X30100D01*
Y64100D01*
X30400D01*
Y65300D01*
X30700D01*
Y66800D01*
X31000D01*
Y68000D01*
X31300D01*
Y69200D01*
X31600D01*
Y70400D01*
X31900D01*
Y71600D01*
X32200D01*
Y72800D01*
X32500D01*
Y74000D01*
X32800D01*
Y75200D01*
X33100D01*
Y76400D01*
X33400D01*
Y77600D01*
X33700D01*
Y78800D01*
X34000D01*
Y80000D01*
X34300D01*
Y81200D01*
X34600D01*
Y82400D01*
X34900D01*
Y83600D01*
X35200D01*
Y84800D01*
X35500D01*
Y86300D01*
X35800D01*
Y86600D01*
X43000D01*
Y85400D01*
D02*
G37*
G36*
X26500Y86300D02*
X26800D01*
Y79700D01*
X27100D01*
Y71600D01*
X27400D01*
Y63500D01*
X27700D01*
Y59900D01*
X19300D01*
Y60200D01*
X19000D01*
Y60500D01*
X19300D01*
Y64700D01*
X13000D01*
Y64100D01*
X12700D01*
Y63500D01*
X12400D01*
Y62600D01*
X12100D01*
Y62000D01*
X11800D01*
Y61400D01*
X11500D01*
Y60800D01*
X11200D01*
Y60200D01*
X10900D01*
Y59900D01*
X2800D01*
Y60800D01*
X3100D01*
Y61400D01*
X3400D01*
Y62000D01*
X3700D01*
Y62600D01*
X4000D01*
Y62900D01*
X4300D01*
Y63500D01*
X4600D01*
Y64100D01*
X4900D01*
Y64700D01*
X5200D01*
Y65300D01*
X5500D01*
Y65900D01*
X5800D01*
Y66500D01*
X6100D01*
Y67100D01*
X6400D01*
Y67400D01*
Y67700D01*
X6700D01*
Y68300D01*
X7000D01*
Y68600D01*
X7300D01*
Y69200D01*
X7600D01*
Y69800D01*
X7900D01*
Y70400D01*
X8200D01*
Y71000D01*
X8500D01*
Y71600D01*
X8800D01*
Y72200D01*
X9100D01*
Y72800D01*
X9400D01*
Y73400D01*
X9700D01*
Y74000D01*
X10000D01*
Y74300D01*
X10300D01*
Y74900D01*
X10600D01*
Y75500D01*
X10900D01*
Y76100D01*
X11200D01*
Y76700D01*
X11500D01*
Y77300D01*
X11800D01*
Y77900D01*
X12100D01*
Y78500D01*
X12400D01*
Y78800D01*
X12700D01*
Y79400D01*
X13000D01*
Y80000D01*
X13300D01*
Y80600D01*
X13600D01*
Y81200D01*
X13900D01*
Y81800D01*
X14200D01*
Y82100D01*
X14500D01*
Y82700D01*
X14800D01*
Y83000D01*
X15100D01*
Y83300D01*
X15400D01*
Y83600D01*
X15700D01*
Y83900D01*
X16000D01*
Y84200D01*
X16300D01*
Y84500D01*
X16600D01*
Y84800D01*
X17200D01*
Y85100D01*
X17500D01*
Y85400D01*
X18100D01*
Y85700D01*
X19000D01*
Y86000D01*
X19900D01*
Y86300D01*
X21100D01*
Y86600D01*
X26500D01*
Y86300D01*
D02*
G37*
G36*
X291600Y422400D02*
X292467D01*
Y422333D01*
X293000D01*
Y422267D01*
X293400D01*
Y422200D01*
X293733D01*
Y422133D01*
X294067D01*
Y422067D01*
X294333D01*
Y422000D01*
X294600D01*
Y421933D01*
X294867D01*
Y421867D01*
X295067D01*
Y421800D01*
X295333D01*
Y421733D01*
X295533D01*
Y421667D01*
X295600D01*
Y421600D01*
X295533D01*
Y421533D01*
X295467D01*
Y421467D01*
X295400D01*
Y421400D01*
X295333D01*
Y421333D01*
X295267D01*
Y421267D01*
X295133D01*
Y421333D01*
X294933D01*
Y421400D01*
X294733D01*
Y421467D01*
X294533D01*
Y421533D01*
X294267D01*
Y421600D01*
X294000D01*
Y421667D01*
X293733D01*
Y421733D01*
X293400D01*
Y421800D01*
X293000D01*
Y421867D01*
X292467D01*
Y421933D01*
X291733D01*
Y422000D01*
X289133D01*
Y421933D01*
X288333D01*
Y421867D01*
X287800D01*
Y421800D01*
X287400D01*
Y421733D01*
X287067D01*
Y421667D01*
X286800D01*
Y421600D01*
X286533D01*
Y421533D01*
X286267D01*
Y421467D01*
X286067D01*
Y421400D01*
X285867D01*
Y421333D01*
X285667D01*
Y421267D01*
X285533D01*
Y421333D01*
X285467D01*
Y421400D01*
X285400D01*
Y421467D01*
X285333D01*
Y421533D01*
X285267D01*
Y421600D01*
X285200D01*
Y421667D01*
X285267D01*
Y421733D01*
X285467D01*
Y421800D01*
X285733D01*
Y421867D01*
X285933D01*
Y421933D01*
X286200D01*
Y422000D01*
X286467D01*
Y422067D01*
X286733D01*
Y422133D01*
X287067D01*
Y422200D01*
X287400D01*
Y422267D01*
X287800D01*
Y422333D01*
X288333D01*
Y422400D01*
X289200D01*
Y422467D01*
X291600D01*
Y422400D01*
D02*
G37*
G36*
X293067Y421200D02*
X293600D01*
Y421133D01*
X294000D01*
Y421067D01*
X294267D01*
Y421000D01*
X294533D01*
Y420933D01*
X294733D01*
Y420867D01*
X294800D01*
Y420800D01*
X294733D01*
Y420733D01*
X294667D01*
Y420667D01*
X294600D01*
Y420600D01*
X294533D01*
Y420533D01*
X294467D01*
Y420467D01*
X294400D01*
Y420400D01*
X294267D01*
Y420333D01*
X294133D01*
Y420267D01*
X294000D01*
Y420200D01*
X293867D01*
Y420133D01*
X293733D01*
Y420067D01*
X293600D01*
Y420267D01*
X293533D01*
Y420400D01*
X293467D01*
Y420467D01*
X293400D01*
Y420533D01*
X293267D01*
Y420600D01*
X293133D01*
Y420667D01*
X293000D01*
Y420733D01*
X292733D01*
Y420800D01*
X292333D01*
Y420867D01*
X291600D01*
Y420667D01*
X291533D01*
Y420200D01*
X291467D01*
Y419733D01*
X291400D01*
Y419267D01*
X291333D01*
Y418800D01*
X291267D01*
Y418333D01*
X291200D01*
Y417867D01*
X291133D01*
Y417400D01*
X291067D01*
Y417333D01*
Y416933D01*
X291000D01*
Y416467D01*
X290933D01*
Y416000D01*
X290867D01*
Y415533D01*
X290800D01*
Y415067D01*
X290733D01*
Y414600D01*
X290667D01*
Y414133D01*
X290600D01*
Y413667D01*
X290533D01*
Y413200D01*
X290467D01*
Y412733D01*
X290333D01*
Y413200D01*
X290267D01*
Y413667D01*
X290200D01*
Y414133D01*
X290133D01*
Y414600D01*
X290067D01*
Y415067D01*
X290000D01*
Y415533D01*
X289933D01*
Y416000D01*
X289867D01*
Y416467D01*
X289800D01*
Y416933D01*
X289733D01*
Y417400D01*
X289667D01*
Y417867D01*
X289600D01*
Y418333D01*
X289533D01*
Y418800D01*
X289467D01*
Y419267D01*
X289400D01*
Y419733D01*
X289333D01*
Y420200D01*
X289267D01*
Y420667D01*
X289200D01*
Y420867D01*
X288467D01*
Y420800D01*
X288067D01*
Y420733D01*
X287800D01*
Y420667D01*
X287667D01*
Y420600D01*
X287533D01*
Y420533D01*
X287400D01*
Y420467D01*
X287333D01*
Y420400D01*
X287267D01*
Y420267D01*
X287200D01*
Y420067D01*
X287133D01*
Y420133D01*
X286933D01*
Y420200D01*
X286800D01*
Y420267D01*
X286667D01*
Y420333D01*
X286533D01*
Y420400D01*
X286400D01*
Y420467D01*
X286333D01*
Y420533D01*
X286267D01*
Y420600D01*
X286200D01*
Y420667D01*
X286133D01*
Y420733D01*
X286067D01*
Y420800D01*
X286000D01*
Y420867D01*
X286067D01*
Y420933D01*
X286267D01*
Y421000D01*
X286533D01*
Y421067D01*
X286800D01*
Y421133D01*
X287200D01*
Y421200D01*
X287733D01*
Y421267D01*
X290000D01*
Y421200D01*
X290067D01*
Y421133D01*
X290133D01*
Y421067D01*
X290200D01*
Y421000D01*
X290267D01*
Y420933D01*
X290333D01*
Y420867D01*
X290467D01*
Y420933D01*
X290533D01*
Y421000D01*
X290600D01*
Y421067D01*
X290667D01*
Y421133D01*
X290733D01*
Y421200D01*
X290800D01*
Y421267D01*
X293067D01*
Y421200D01*
D02*
G37*
G36*
X295381Y417984D02*
X295460D01*
Y417905D01*
X295619D01*
Y417825D01*
X295698D01*
Y417746D01*
X295857D01*
Y417667D01*
X295936D01*
Y417587D01*
X296016D01*
Y417508D01*
X296175D01*
Y417429D01*
X296254D01*
Y417349D01*
X296333D01*
Y417270D01*
X296492D01*
Y417191D01*
X296571D01*
Y417111D01*
X296730D01*
Y417032D01*
X296651D01*
Y416952D01*
X296492D01*
Y416873D01*
X296333D01*
Y416794D01*
X296175D01*
Y416714D01*
X296016D01*
Y416635D01*
X295936D01*
Y416556D01*
X295778D01*
Y416476D01*
X295619D01*
Y416397D01*
X295381D01*
Y416476D01*
X295302D01*
Y416556D01*
X295143D01*
Y416635D01*
X295063D01*
Y416714D01*
X294984D01*
Y416794D01*
X294825D01*
Y416873D01*
X294746D01*
Y416952D01*
X294667D01*
Y417032D01*
X294508D01*
Y417111D01*
X294429D01*
Y417191D01*
X294270D01*
Y417270D01*
X294191D01*
Y417349D01*
X294111D01*
Y417429D01*
X293952D01*
Y417508D01*
X293873D01*
Y417587D01*
X293794D01*
Y417667D01*
X293635D01*
Y417746D01*
X293555D01*
Y417825D01*
X293476D01*
Y417905D01*
X293555D01*
Y417984D01*
X293635D01*
Y418063D01*
X293714D01*
Y417984D01*
X295302D01*
Y418063D01*
X295381D01*
Y417984D01*
D02*
G37*
G36*
X298238Y415921D02*
X298318D01*
Y415841D01*
X298397D01*
Y415762D01*
X298555D01*
Y415683D01*
X298635D01*
Y415603D01*
X298714D01*
Y415524D01*
X298873D01*
Y415444D01*
X298952D01*
Y415365D01*
X299111D01*
Y415286D01*
X299190D01*
Y415206D01*
X299270D01*
Y415127D01*
X299429D01*
Y415048D01*
X299508D01*
Y414968D01*
X299587D01*
Y414889D01*
X299746D01*
Y414810D01*
X299825D01*
Y414730D01*
X299984D01*
Y414651D01*
X300063D01*
Y414571D01*
X300143D01*
Y414492D01*
X300302D01*
Y414413D01*
X300381D01*
Y414333D01*
X300460D01*
Y414254D01*
X300619D01*
Y414175D01*
X300698D01*
Y413937D01*
X298794D01*
Y414016D01*
X298635D01*
Y414095D01*
X298555D01*
Y414175D01*
X298476D01*
Y414254D01*
X298318D01*
Y414333D01*
X298238D01*
Y414413D01*
X298159D01*
Y414492D01*
X298000D01*
Y414571D01*
X297921D01*
Y414651D01*
X297841D01*
Y414730D01*
X297682D01*
Y414810D01*
X297603D01*
Y414889D01*
X297444D01*
Y414968D01*
X297365D01*
Y415048D01*
X297286D01*
Y415127D01*
X297127D01*
Y415206D01*
X297048D01*
Y415286D01*
X297127D01*
Y415365D01*
X297286D01*
Y415444D01*
X297365D01*
Y415524D01*
X297444D01*
Y415603D01*
X297524D01*
Y415683D01*
X297682D01*
Y415762D01*
X297762D01*
Y415841D01*
X297841D01*
Y415921D01*
X298000D01*
Y416000D01*
X298238D01*
Y415921D01*
D02*
G37*
G36*
X309032Y420286D02*
X308952D01*
Y420206D01*
X308397D01*
Y420127D01*
X307841D01*
Y420048D01*
X307444D01*
Y419968D01*
X306968D01*
Y419889D01*
X306571D01*
Y419809D01*
X306254D01*
Y419730D01*
X305937D01*
Y419651D01*
X305619D01*
Y419571D01*
X305381D01*
Y419492D01*
X304984D01*
Y419413D01*
X304746D01*
Y419333D01*
X304508D01*
Y419254D01*
X304270D01*
Y419175D01*
X304032D01*
Y419095D01*
X303714D01*
Y419016D01*
X303476D01*
Y418936D01*
X303317D01*
Y418857D01*
X303079D01*
Y418778D01*
X302841D01*
Y418698D01*
X302603D01*
Y418619D01*
X302444D01*
Y418540D01*
X302206D01*
Y418460D01*
X302048D01*
Y418381D01*
X301889D01*
Y418302D01*
X301651D01*
Y418222D01*
X301492D01*
Y418143D01*
X301333D01*
Y418063D01*
X301095D01*
Y417984D01*
X300937D01*
Y417905D01*
X300778D01*
Y417825D01*
X300619D01*
Y417746D01*
X300460D01*
Y417667D01*
X300302D01*
Y417587D01*
X300143D01*
Y417508D01*
X299984D01*
Y417429D01*
X299825D01*
Y417349D01*
X299667D01*
Y417270D01*
X299587D01*
Y417191D01*
X299429D01*
Y417111D01*
X299270D01*
Y417032D01*
X299111D01*
Y416952D01*
X299032D01*
Y416873D01*
X298873D01*
Y416794D01*
X298714D01*
Y416714D01*
X298635D01*
Y416635D01*
X298476D01*
Y416556D01*
X298397D01*
Y416476D01*
X298238D01*
Y416397D01*
X298159D01*
Y416318D01*
X298000D01*
Y416238D01*
X297841D01*
Y416159D01*
X297762D01*
Y416079D01*
X297682D01*
Y416000D01*
X297524D01*
Y415921D01*
X297444D01*
Y415841D01*
X297286D01*
Y415762D01*
X297206D01*
Y415683D01*
X297127D01*
Y415603D01*
X296968D01*
Y415524D01*
X296889D01*
Y415444D01*
X296810D01*
Y415365D01*
X296730D01*
Y415286D01*
X296571D01*
Y415206D01*
X296492D01*
Y415127D01*
X296413D01*
Y415048D01*
X296333D01*
Y414968D01*
X296254D01*
Y414889D01*
X296095D01*
Y414810D01*
X296016D01*
Y414730D01*
X295936D01*
Y414651D01*
X295857D01*
Y414571D01*
X295778D01*
Y414492D01*
X295698D01*
Y414413D01*
X295619D01*
Y414333D01*
X295540D01*
Y414254D01*
X295460D01*
Y414175D01*
X295381D01*
Y414095D01*
X295302D01*
Y414016D01*
X295222D01*
Y413937D01*
X293397D01*
Y414095D01*
X293318D01*
Y414175D01*
X293397D01*
Y414254D01*
X293476D01*
Y414333D01*
X293555D01*
Y414413D01*
X293635D01*
Y414492D01*
X293714D01*
Y414571D01*
X293794D01*
Y414651D01*
X293873D01*
Y414730D01*
X293952D01*
Y414810D01*
X294111D01*
Y414889D01*
X294191D01*
Y414968D01*
X294270D01*
Y415048D01*
X294349D01*
Y415127D01*
X294429D01*
Y415206D01*
X294587D01*
Y415286D01*
X294667D01*
Y415365D01*
X294746D01*
Y415444D01*
X294905D01*
Y415524D01*
X294984D01*
Y415603D01*
X295063D01*
Y415683D01*
X295222D01*
Y415762D01*
X295302D01*
Y415841D01*
X295381D01*
Y415921D01*
X295540D01*
Y416000D01*
X295619D01*
Y416079D01*
X295778D01*
Y416159D01*
X295857D01*
Y416238D01*
X296016D01*
Y416318D01*
X296095D01*
Y416397D01*
X296254D01*
Y416476D01*
X296413D01*
Y416556D01*
X296492D01*
Y416635D01*
X296651D01*
Y416714D01*
X296810D01*
Y416794D01*
X296968D01*
Y416873D01*
X297048D01*
Y416952D01*
X297206D01*
Y417032D01*
X297365D01*
Y417111D01*
X297444D01*
Y417191D01*
X297603D01*
Y417270D01*
X297762D01*
Y417349D01*
X297921D01*
Y417429D01*
X298079D01*
Y417508D01*
X298238D01*
Y417587D01*
X298397D01*
Y417667D01*
X298635D01*
Y417746D01*
X298794D01*
Y417825D01*
X298952D01*
Y417905D01*
X299111D01*
Y417984D01*
X299270D01*
Y418063D01*
X299508D01*
Y418143D01*
X299667D01*
Y418222D01*
X299905D01*
Y418302D01*
X300063D01*
Y418381D01*
X300302D01*
Y418460D01*
X300460D01*
Y418540D01*
X300698D01*
Y418619D01*
X300937D01*
Y418698D01*
X301095D01*
Y418778D01*
X301413D01*
Y418857D01*
X301651D01*
Y418936D01*
X301889D01*
Y419016D01*
X302127D01*
Y419095D01*
X302444D01*
Y419175D01*
X302682D01*
Y419254D01*
X302921D01*
Y419333D01*
X303238D01*
Y419413D01*
X303555D01*
Y419492D01*
X303952D01*
Y419571D01*
X304270D01*
Y419651D01*
X304587D01*
Y419730D01*
X304984D01*
Y419809D01*
X305381D01*
Y419889D01*
X305857D01*
Y419968D01*
X306333D01*
Y420048D01*
X306809D01*
Y420127D01*
X307444D01*
Y420206D01*
X308079D01*
Y420286D01*
X308873D01*
Y420365D01*
X309032D01*
Y420286D01*
D02*
G37*
G36*
X65174Y149511D02*
X65338D01*
Y149346D01*
X65503D01*
Y149017D01*
X65668D01*
Y142921D01*
Y142757D01*
Y140615D01*
X65503D01*
Y140286D01*
X65338D01*
Y140121D01*
X65009D01*
Y139956D01*
X64515D01*
Y140121D01*
X64185D01*
Y140451D01*
X64021D01*
Y149346D01*
X64185D01*
Y149511D01*
X64350D01*
Y149676D01*
X65174D01*
Y149511D01*
D02*
G37*
G36*
X47876Y147205D02*
X48206D01*
Y147040D01*
X48371D01*
Y146875D01*
X48535D01*
Y146216D01*
X48700D01*
Y145722D01*
X48865D01*
Y145228D01*
X49030D01*
Y144734D01*
X49194D01*
Y144239D01*
X49359D01*
Y143745D01*
X49524D01*
Y143251D01*
X49689D01*
Y142757D01*
X49853D01*
Y142263D01*
X50018D01*
Y141604D01*
X50183D01*
Y141109D01*
X50348D01*
Y140615D01*
X50512D01*
Y140121D01*
X50677D01*
Y139627D01*
X50842D01*
Y139297D01*
X51006D01*
Y138638D01*
X50842D01*
Y138309D01*
X50677D01*
Y138144D01*
X50348D01*
Y137979D01*
X50018D01*
Y138144D01*
X49689D01*
Y138309D01*
X49524D01*
Y138474D01*
X49359D01*
Y138968D01*
X49194D01*
Y139462D01*
X49030D01*
Y139956D01*
X48865D01*
Y140451D01*
X48700D01*
Y140945D01*
X48535D01*
Y141439D01*
X48371D01*
Y141933D01*
X48206D01*
Y142592D01*
X48041D01*
Y143086D01*
X47876D01*
Y143580D01*
X47712D01*
Y144075D01*
X47547D01*
Y144569D01*
X47382D01*
Y145063D01*
X47218D01*
Y145557D01*
X47053D01*
Y146052D01*
X46888D01*
Y146875D01*
X47053D01*
Y147040D01*
Y147205D01*
X47382D01*
Y147369D01*
X47876D01*
Y147205D01*
D02*
G37*
G36*
X82306Y147040D02*
X82471D01*
Y146875D01*
X82636D01*
Y145887D01*
X82471D01*
Y145228D01*
X82306D01*
Y144734D01*
X82142D01*
Y144239D01*
X81977D01*
Y143745D01*
X81812D01*
Y143251D01*
X81647D01*
Y142757D01*
X81483D01*
Y142263D01*
X81318D01*
Y141768D01*
X81153D01*
Y141274D01*
X80988D01*
Y140780D01*
X80824D01*
Y140286D01*
X80659D01*
Y139792D01*
X80494D01*
Y139133D01*
X80330D01*
Y138638D01*
X80165D01*
Y138309D01*
X80000D01*
Y138144D01*
X79835D01*
Y137979D01*
X79506D01*
Y137815D01*
X79341D01*
Y137979D01*
X78847D01*
Y138144D01*
X78682D01*
Y138638D01*
X78517D01*
Y138803D01*
X78682D01*
Y139462D01*
X78847D01*
Y139956D01*
X79012D01*
Y140121D01*
Y140451D01*
X79176D01*
Y140945D01*
X79341D01*
Y141439D01*
X79506D01*
Y141933D01*
X79671D01*
Y142427D01*
X79835D01*
Y142921D01*
X80000D01*
Y143416D01*
X80165D01*
Y143910D01*
X80330D01*
Y144404D01*
X80494D01*
Y144898D01*
X80659D01*
Y145557D01*
X80824D01*
Y146052D01*
X80988D01*
Y146546D01*
X81153D01*
Y146875D01*
X81318D01*
Y147040D01*
X81483D01*
Y147205D01*
X82306D01*
Y147040D01*
D02*
G37*
G36*
X32556Y139627D02*
X32721D01*
Y139462D01*
X32885D01*
Y139133D01*
X33050D01*
Y138968D01*
X33215D01*
Y138803D01*
X33380D01*
Y138474D01*
X33544D01*
Y138309D01*
X33709D01*
Y138144D01*
X33874D01*
Y137815D01*
X34039D01*
Y137650D01*
X34203D01*
Y137320D01*
X34368D01*
Y137156D01*
X34533D01*
Y136991D01*
X34698D01*
Y136662D01*
X34862D01*
Y136497D01*
X35027D01*
Y136332D01*
X35192D01*
Y136003D01*
X35357D01*
Y135838D01*
X35521D01*
Y135508D01*
X35686D01*
Y135344D01*
X35851D01*
Y135179D01*
X36015D01*
Y134849D01*
X36180D01*
Y134685D01*
X36345D01*
Y134520D01*
X36510D01*
Y134190D01*
X36674D01*
Y134026D01*
X36839D01*
Y133696D01*
X37004D01*
Y133531D01*
X37169D01*
Y133367D01*
X37333D01*
Y133037D01*
X37498D01*
Y132873D01*
X37663D01*
Y132049D01*
X37498D01*
Y131884D01*
X37333D01*
Y131719D01*
X36345D01*
Y131884D01*
X36180D01*
Y132049D01*
X36015D01*
Y132378D01*
X35851D01*
Y132543D01*
X35686D01*
Y132873D01*
X35521D01*
Y133037D01*
X35357D01*
Y133202D01*
X35192D01*
Y133531D01*
X35027D01*
Y133696D01*
X34862D01*
Y133861D01*
X34698D01*
Y134190D01*
X34533D01*
Y134355D01*
X34368D01*
Y134685D01*
X34203D01*
Y134849D01*
X34039D01*
Y135014D01*
X33874D01*
Y135344D01*
X33709D01*
Y135508D01*
X33544D01*
Y135673D01*
X33380D01*
Y136003D01*
X33215D01*
Y136167D01*
X33050D01*
Y136497D01*
X32885D01*
Y136662D01*
X32721D01*
Y136826D01*
X32556D01*
Y137156D01*
X32391D01*
Y137320D01*
X32226D01*
Y137485D01*
X32062D01*
Y137815D01*
X31897D01*
Y137979D01*
X31732D01*
Y138309D01*
X31568D01*
Y138474D01*
X31403D01*
Y138803D01*
X31238D01*
Y139133D01*
X31403D01*
Y139462D01*
X31568D01*
Y139627D01*
X31732D01*
Y139792D01*
X32556D01*
Y139627D01*
D02*
G37*
G36*
X97462Y139462D02*
X97956D01*
Y139297D01*
X98121D01*
Y138803D01*
X98286D01*
Y138638D01*
X98121D01*
Y138144D01*
X97956D01*
Y137979D01*
X97791D01*
Y137815D01*
X97627D01*
Y137650D01*
X97462D01*
Y137320D01*
X97297D01*
Y137156D01*
X97133D01*
Y136826D01*
X96968D01*
Y136662D01*
X96803D01*
Y136497D01*
X96638D01*
Y136167D01*
X96474D01*
Y136003D01*
X96309D01*
Y135673D01*
X96144D01*
Y135508D01*
X95979D01*
Y135344D01*
X95815D01*
Y135014D01*
X95650D01*
Y134849D01*
X95485D01*
Y134685D01*
X95320D01*
Y134355D01*
X95156D01*
Y134190D01*
X94991D01*
Y133861D01*
X94826D01*
Y133696D01*
X94661D01*
Y133531D01*
X94497D01*
Y133202D01*
X94332D01*
Y133037D01*
X94167D01*
Y132873D01*
X94003D01*
Y132543D01*
X93838D01*
Y132378D01*
X93673D01*
Y132049D01*
X93508D01*
Y131884D01*
X93344D01*
Y131719D01*
X93179D01*
Y131555D01*
X93014D01*
Y131390D01*
X92355D01*
Y131555D01*
X92026D01*
Y131719D01*
X91861D01*
Y132708D01*
X92026D01*
Y132873D01*
X92190D01*
Y133037D01*
X92355D01*
Y133367D01*
X92520D01*
Y133531D01*
X92685D01*
Y133696D01*
X92849D01*
Y134026D01*
X93014D01*
Y134190D01*
X93179D01*
Y134520D01*
X93344D01*
Y134685D01*
X93508D01*
Y134849D01*
X93673D01*
Y135179D01*
X93838D01*
Y135344D01*
X94003D01*
Y135508D01*
X94167D01*
Y135838D01*
X94332D01*
Y136003D01*
X94497D01*
Y136332D01*
X94661D01*
Y136497D01*
X94826D01*
Y136662D01*
X94991D01*
Y136991D01*
X95156D01*
Y137156D01*
X95320D01*
Y137320D01*
X95485D01*
Y137650D01*
X95650D01*
Y137815D01*
X95815D01*
Y138144D01*
X95979D01*
Y138309D01*
X96144D01*
Y138474D01*
X96309D01*
Y138803D01*
X96474D01*
Y138968D01*
X96638D01*
Y139297D01*
X96803D01*
Y139462D01*
X97297D01*
Y139627D01*
X97462D01*
Y139462D01*
D02*
G37*
G36*
X20201Y127601D02*
X20366D01*
Y127436D01*
X20530D01*
Y127272D01*
X20860D01*
Y127107D01*
X21024D01*
Y126942D01*
X21189D01*
Y126777D01*
X21519D01*
Y126613D01*
X21683D01*
Y126448D01*
X22013D01*
Y126283D01*
X22178D01*
Y126118D01*
X22342D01*
Y125954D01*
X22672D01*
Y125789D01*
X22837D01*
Y125624D01*
X23001D01*
Y125460D01*
X23331D01*
Y125295D01*
X23495D01*
Y125130D01*
X23825D01*
Y124965D01*
X23990D01*
Y124801D01*
X24154D01*
Y124636D01*
X24484D01*
Y124471D01*
X24649D01*
Y124306D01*
X24813D01*
Y124142D01*
X25143D01*
Y123977D01*
X25308D01*
Y123812D01*
X25637D01*
Y123647D01*
X25802D01*
Y123483D01*
X25967D01*
Y123318D01*
X26296D01*
Y123153D01*
X26461D01*
Y122988D01*
X26625D01*
Y122824D01*
X26790D01*
Y122659D01*
X26955D01*
Y121835D01*
X26790D01*
Y121670D01*
X26625D01*
Y121506D01*
X25637D01*
Y121670D01*
X25472D01*
Y121835D01*
X25308D01*
Y122000D01*
X24978D01*
Y122165D01*
X24813D01*
Y122329D01*
X24649D01*
Y122494D01*
X24319D01*
Y122659D01*
X24154D01*
Y122824D01*
X23990D01*
Y122988D01*
X23660D01*
Y123153D01*
X23495D01*
Y123318D01*
X23166D01*
Y123483D01*
X23001D01*
Y123647D01*
X22837D01*
Y123812D01*
X22507D01*
Y123977D01*
X22342D01*
Y124142D01*
X22178D01*
Y124306D01*
X21848D01*
Y124471D01*
X21683D01*
Y124636D01*
X21354D01*
Y124801D01*
X21189D01*
Y124965D01*
X21024D01*
Y125130D01*
X20695D01*
Y125295D01*
X20530D01*
Y125460D01*
X20366D01*
Y125624D01*
X20036D01*
Y125789D01*
X19871D01*
Y125954D01*
X19542D01*
Y126118D01*
X19377D01*
Y126283D01*
X19212D01*
Y126448D01*
X19048D01*
Y126613D01*
X18883D01*
Y127436D01*
X19048D01*
Y127601D01*
X19212D01*
Y127766D01*
X20201D01*
Y127601D01*
D02*
G37*
G36*
X110147Y127272D02*
X110311D01*
Y127107D01*
X110476D01*
Y126777D01*
X110641D01*
Y126613D01*
X110476D01*
Y126118D01*
X110311D01*
Y125954D01*
X109982D01*
Y125789D01*
X109817D01*
Y125624D01*
X109652D01*
Y125460D01*
X109323D01*
Y125295D01*
X109158D01*
Y125130D01*
X108994D01*
Y124965D01*
X108664D01*
Y124801D01*
X108499D01*
Y124636D01*
X108170D01*
Y124471D01*
X108005D01*
Y124306D01*
X107840D01*
Y124142D01*
X107511D01*
Y123977D01*
X107346D01*
Y123812D01*
X107182D01*
Y123647D01*
X106852D01*
Y123483D01*
X106687D01*
Y123318D01*
X106358D01*
Y123153D01*
X106193D01*
Y122988D01*
X106028D01*
Y122824D01*
X105699D01*
Y122659D01*
X105534D01*
Y122494D01*
X105369D01*
Y122329D01*
X105040D01*
Y122165D01*
X104875D01*
Y122000D01*
X104546D01*
Y121835D01*
X104381D01*
Y121670D01*
X104216D01*
Y121506D01*
X103887D01*
Y121341D01*
X103722D01*
Y121176D01*
X102734D01*
Y121341D01*
X102569D01*
Y121506D01*
X102404D01*
Y122329D01*
X102569D01*
Y122494D01*
X102734D01*
Y122659D01*
X102898D01*
Y122824D01*
X103228D01*
Y122988D01*
X103393D01*
Y123153D01*
X103722D01*
Y123318D01*
X103887D01*
Y123483D01*
X104051D01*
Y123647D01*
X104381D01*
Y123812D01*
X104546D01*
Y123977D01*
X104710D01*
Y124142D01*
X105040D01*
Y124306D01*
X105205D01*
Y124471D01*
X105534D01*
Y124636D01*
X105699D01*
Y124801D01*
X105864D01*
Y124965D01*
X106193D01*
Y125130D01*
X106358D01*
Y125295D01*
X106523D01*
Y125460D01*
X106852D01*
Y125624D01*
X107017D01*
Y125789D01*
X107346D01*
Y125954D01*
X107511D01*
Y126118D01*
X107676D01*
Y126283D01*
X108005D01*
Y126448D01*
X108170D01*
Y126613D01*
X108335D01*
Y126777D01*
X108664D01*
Y126942D01*
X108829D01*
Y127107D01*
X108994D01*
Y127272D01*
X109323D01*
Y127436D01*
X110147D01*
Y127272D01*
D02*
G37*
G36*
X11799Y112445D02*
X12293D01*
Y112281D01*
X12788D01*
Y112116D01*
X13282D01*
Y111951D01*
X13776D01*
Y111786D01*
X14270D01*
Y111622D01*
X14764D01*
Y111457D01*
X15423D01*
Y111292D01*
X15918D01*
Y111127D01*
X16412D01*
Y110963D01*
X16906D01*
Y110798D01*
X17400D01*
Y110633D01*
X17895D01*
Y110468D01*
X18389D01*
Y110304D01*
X18883D01*
Y110139D01*
X19377D01*
Y109974D01*
X19707D01*
Y109810D01*
X19871D01*
Y109480D01*
X20036D01*
Y108986D01*
X19871D01*
Y108821D01*
X19707D01*
Y108656D01*
X19542D01*
Y108492D01*
X18718D01*
Y108656D01*
X18224D01*
Y108821D01*
X17730D01*
Y108986D01*
X17235D01*
Y109151D01*
X16741D01*
Y109315D01*
X16247D01*
Y109480D01*
X15753D01*
Y109645D01*
X15094D01*
Y109810D01*
X14600D01*
Y109974D01*
X14106D01*
Y110139D01*
X13611D01*
Y110304D01*
X13117D01*
Y110468D01*
X12623D01*
Y110633D01*
X12129D01*
Y110798D01*
X11635D01*
Y110963D01*
X11140D01*
Y111127D01*
X10976D01*
Y111292D01*
X10811D01*
Y111622D01*
X10646D01*
Y111951D01*
X10811D01*
Y112281D01*
X10976D01*
Y112445D01*
X11140D01*
Y112610D01*
X11799D01*
Y112445D01*
D02*
G37*
G36*
X118713Y111951D02*
X118878D01*
Y111622D01*
X119043D01*
Y111127D01*
X118878D01*
Y110798D01*
X118713D01*
Y110633D01*
X118384D01*
Y110468D01*
X117725D01*
Y110304D01*
X117230D01*
Y110139D01*
X116736D01*
Y109974D01*
X116242D01*
Y109810D01*
X115748D01*
Y109645D01*
X115253D01*
Y109480D01*
X114759D01*
Y109315D01*
X114265D01*
Y109151D01*
X113771D01*
Y108986D01*
X113277D01*
Y108821D01*
X112783D01*
Y108656D01*
X112288D01*
Y108492D01*
X111794D01*
Y108327D01*
X111135D01*
Y108162D01*
X110806D01*
Y107997D01*
X110311D01*
Y108162D01*
X109982D01*
Y108327D01*
X109817D01*
Y108656D01*
X109652D01*
Y109151D01*
X109817D01*
Y109480D01*
X110147D01*
Y109645D01*
X110476D01*
Y109810D01*
X110970D01*
Y109974D01*
X111465D01*
Y110139D01*
X112124D01*
Y110304D01*
X112618D01*
Y110468D01*
X113112D01*
Y110633D01*
X113606D01*
Y110798D01*
X114100D01*
Y110963D01*
X114595D01*
Y111127D01*
X115089D01*
Y111292D01*
X115583D01*
Y111457D01*
X116077D01*
Y111622D01*
X116571D01*
Y111786D01*
X117066D01*
Y111951D01*
X117560D01*
Y112116D01*
X118713D01*
Y111951D01*
D02*
G37*
G36*
X68633Y138474D02*
X70281D01*
Y138309D01*
X71599D01*
Y138144D01*
X72587D01*
Y137979D01*
X73575D01*
Y137815D01*
X74399D01*
Y137650D01*
X75223D01*
Y137485D01*
X75882D01*
Y137320D01*
X76540D01*
Y137156D01*
X77200D01*
Y136991D01*
X77858D01*
Y136826D01*
X78353D01*
Y136662D01*
X78847D01*
Y136497D01*
X79506D01*
Y136332D01*
X80000D01*
Y136167D01*
X80494D01*
Y136003D01*
X80824D01*
Y135838D01*
X81318D01*
Y135673D01*
X81812D01*
Y135508D01*
X82142D01*
Y135344D01*
X82636D01*
Y135179D01*
X82965D01*
Y135014D01*
X83460D01*
Y134849D01*
X83789D01*
Y134685D01*
X84118D01*
Y134520D01*
X84613D01*
Y134355D01*
X84942D01*
Y134190D01*
X85272D01*
Y134026D01*
X85601D01*
Y133861D01*
X85931D01*
Y133696D01*
X86260D01*
Y133531D01*
X86589D01*
Y133367D01*
X86919D01*
Y133202D01*
X87248D01*
Y133037D01*
X87578D01*
Y132873D01*
X87907D01*
Y132708D01*
X88072D01*
Y132543D01*
X88402D01*
Y132378D01*
X88731D01*
Y132214D01*
X89060D01*
Y132049D01*
X89225D01*
Y131884D01*
X89555D01*
Y131719D01*
X89884D01*
Y131555D01*
X90049D01*
Y131390D01*
X90378D01*
Y131225D01*
X90543D01*
Y131061D01*
X90873D01*
Y130896D01*
X91037D01*
Y130731D01*
X91367D01*
Y130566D01*
X91531D01*
Y130402D01*
X91861D01*
Y130237D01*
X92026D01*
Y130072D01*
X92355D01*
Y129907D01*
X92520D01*
Y129743D01*
X92685D01*
Y129578D01*
X93014D01*
Y129413D01*
X93179D01*
Y129248D01*
X93344D01*
Y129084D01*
X93673D01*
Y128919D01*
X93838D01*
Y128754D01*
X94003D01*
Y128589D01*
X94332D01*
Y128425D01*
X94497D01*
Y128260D01*
X94661D01*
Y128095D01*
X94826D01*
Y127930D01*
X95156D01*
Y127766D01*
X95320D01*
Y127601D01*
X95485D01*
Y127436D01*
X95650D01*
Y127272D01*
X95815D01*
Y127107D01*
X96144D01*
Y126942D01*
X96309D01*
Y126777D01*
X96474D01*
Y126613D01*
X96638D01*
Y126448D01*
X96803D01*
Y126283D01*
X96968D01*
Y126118D01*
X97133D01*
Y125954D01*
X97297D01*
Y125789D01*
X97462D01*
Y125624D01*
X97627D01*
Y125460D01*
X97791D01*
Y125295D01*
X97956D01*
Y125130D01*
X98121D01*
Y124965D01*
X98286D01*
Y124801D01*
X98450D01*
Y124636D01*
X98615D01*
Y124471D01*
X98780D01*
Y124306D01*
X98945D01*
Y124142D01*
X99109D01*
Y123977D01*
X99274D01*
Y123812D01*
X99439D01*
Y123647D01*
X99604D01*
Y123483D01*
X99768D01*
Y123318D01*
X99933D01*
Y123153D01*
X100098D01*
Y122988D01*
X100262D01*
Y122824D01*
X100427D01*
Y122659D01*
X100592D01*
Y122494D01*
X100757D01*
Y122165D01*
X100921D01*
Y122000D01*
X101086D01*
Y121835D01*
X101251D01*
Y121670D01*
X101416D01*
Y121506D01*
X101580D01*
Y121341D01*
X101745D01*
Y121012D01*
X101910D01*
Y120847D01*
X102075D01*
Y120682D01*
X102239D01*
Y120517D01*
X102404D01*
Y120188D01*
X102569D01*
Y120023D01*
X102734D01*
Y119858D01*
X102898D01*
Y119529D01*
X103063D01*
Y119364D01*
X103228D01*
Y119200D01*
X103393D01*
Y118870D01*
X103557D01*
Y118705D01*
X103722D01*
Y118376D01*
X103887D01*
Y118211D01*
X104051D01*
Y118046D01*
X104216D01*
Y117717D01*
X104381D01*
Y117552D01*
X104546D01*
Y117223D01*
X104710D01*
Y117058D01*
X104875D01*
Y116728D01*
X105040D01*
Y116399D01*
X105205D01*
Y116234D01*
X105369D01*
Y115905D01*
X105534D01*
Y115740D01*
X105699D01*
Y115411D01*
X105864D01*
Y115081D01*
X106028D01*
Y114752D01*
X106193D01*
Y114587D01*
X106358D01*
Y114257D01*
X106523D01*
Y113928D01*
X106687D01*
Y113599D01*
X106852D01*
Y113269D01*
X107017D01*
Y113104D01*
X107182D01*
Y112775D01*
X107346D01*
Y112445D01*
X107511D01*
Y112116D01*
X107676D01*
Y111786D01*
X107840D01*
Y111292D01*
X108005D01*
Y110963D01*
X108170D01*
Y110633D01*
X108335D01*
Y110304D01*
X108499D01*
Y109974D01*
X108664D01*
Y109480D01*
X108829D01*
Y109151D01*
X108994D01*
Y108656D01*
X109158D01*
Y108327D01*
X109323D01*
Y107833D01*
X109488D01*
Y107339D01*
X109652D01*
Y107009D01*
X109817D01*
Y106515D01*
X109982D01*
Y106021D01*
X110147D01*
Y105526D01*
X110311D01*
Y104867D01*
X110476D01*
Y104209D01*
X19212D01*
Y104867D01*
X19377D01*
Y105526D01*
X19542D01*
Y106021D01*
X19707D01*
Y106515D01*
X19871D01*
Y107009D01*
X20036D01*
Y107339D01*
X20201D01*
Y107833D01*
X20366D01*
Y108327D01*
X20530D01*
Y108656D01*
X20695D01*
Y109151D01*
X20860D01*
Y109480D01*
X21024D01*
Y109974D01*
X21189D01*
Y110304D01*
X21354D01*
Y110633D01*
X21519D01*
Y110963D01*
X21683D01*
Y111292D01*
X21848D01*
Y111786D01*
X22013D01*
Y112116D01*
X22178D01*
Y112445D01*
X22342D01*
Y112775D01*
X22507D01*
Y113104D01*
X22672D01*
Y113269D01*
X22837D01*
Y113599D01*
X23001D01*
Y113928D01*
X23166D01*
Y114257D01*
X23331D01*
Y114587D01*
X23495D01*
Y114916D01*
X23660D01*
Y115081D01*
X23825D01*
Y115411D01*
X23990D01*
Y115740D01*
X24154D01*
Y115905D01*
X24319D01*
Y116234D01*
X24484D01*
Y116399D01*
X24649D01*
Y116728D01*
X24813D01*
Y117058D01*
X24978D01*
Y117223D01*
X25143D01*
Y117552D01*
X25308D01*
Y117717D01*
X25472D01*
Y118046D01*
X25637D01*
Y118211D01*
X25802D01*
Y118376D01*
X25967D01*
Y118705D01*
X26131D01*
Y118870D01*
X26296D01*
Y119200D01*
X26461D01*
Y119364D01*
X26625D01*
Y119529D01*
X26790D01*
Y119858D01*
X26955D01*
Y120023D01*
X27120D01*
Y120188D01*
X27284D01*
Y120517D01*
X27449D01*
Y120682D01*
X27614D01*
Y120847D01*
X27779D01*
Y121012D01*
X27943D01*
Y121341D01*
X28108D01*
Y121506D01*
X28273D01*
Y121670D01*
X28438D01*
Y121835D01*
X28602D01*
Y122000D01*
X28767D01*
Y122165D01*
X28932D01*
Y122494D01*
X29096D01*
Y122659D01*
X29261D01*
Y122824D01*
X29426D01*
Y122988D01*
X29591D01*
Y123153D01*
X29755D01*
Y123318D01*
X29920D01*
Y123483D01*
X30085D01*
Y123647D01*
X30250D01*
Y123812D01*
X30414D01*
Y123977D01*
X30579D01*
Y124142D01*
X30744D01*
Y124306D01*
X30909D01*
Y124471D01*
X31073D01*
Y124636D01*
X31238D01*
Y124801D01*
X31403D01*
Y124965D01*
X31568D01*
Y125130D01*
X31732D01*
Y125295D01*
X31897D01*
Y125460D01*
X32062D01*
Y125624D01*
X32226D01*
Y125789D01*
X32391D01*
Y125954D01*
X32556D01*
Y126118D01*
X32721D01*
Y126283D01*
X32885D01*
Y126448D01*
X33050D01*
Y126613D01*
X33215D01*
Y126777D01*
X33380D01*
Y126942D01*
X33544D01*
Y127107D01*
X33874D01*
Y127272D01*
X34039D01*
Y127436D01*
X34203D01*
Y127601D01*
X34368D01*
Y127766D01*
X34533D01*
Y127930D01*
X34862D01*
Y128095D01*
X35027D01*
Y128260D01*
X35192D01*
Y128425D01*
X35357D01*
Y128589D01*
X35686D01*
Y128754D01*
X35851D01*
Y128919D01*
X36015D01*
Y129084D01*
X36345D01*
Y129248D01*
X36510D01*
Y129413D01*
X36674D01*
Y129578D01*
X37004D01*
Y129743D01*
X37169D01*
Y129907D01*
X37333D01*
Y130072D01*
X37663D01*
Y130237D01*
X37828D01*
Y130402D01*
X38157D01*
Y130566D01*
X38322D01*
Y130731D01*
X38651D01*
Y130896D01*
X38816D01*
Y131061D01*
X39145D01*
Y131225D01*
X39310D01*
Y131390D01*
X39640D01*
Y131555D01*
X39804D01*
Y131719D01*
X40134D01*
Y131884D01*
X40463D01*
Y132049D01*
X40628D01*
Y132214D01*
X40957D01*
Y132378D01*
X41287D01*
Y132543D01*
X41616D01*
Y132708D01*
X41781D01*
Y132873D01*
X42111D01*
Y133037D01*
X42440D01*
Y133202D01*
X42770D01*
Y133367D01*
X43099D01*
Y133531D01*
X43429D01*
Y133696D01*
X43758D01*
Y133861D01*
X44087D01*
Y134026D01*
X44417D01*
Y134190D01*
X44747D01*
Y134355D01*
X45076D01*
Y134520D01*
X45570D01*
Y134685D01*
X45900D01*
Y134849D01*
X46229D01*
Y135014D01*
X46723D01*
Y135179D01*
X47053D01*
Y135344D01*
X47547D01*
Y135508D01*
X47876D01*
Y135673D01*
X48371D01*
Y135838D01*
X48865D01*
Y136003D01*
X49194D01*
Y136167D01*
X49689D01*
Y136332D01*
X50183D01*
Y136497D01*
X50842D01*
Y136662D01*
X51336D01*
Y136826D01*
X51830D01*
Y136991D01*
X52489D01*
Y137156D01*
X53148D01*
Y137320D01*
X53807D01*
Y137485D01*
X54466D01*
Y137650D01*
X55290D01*
Y137815D01*
X56113D01*
Y137979D01*
X57102D01*
Y138144D01*
X58090D01*
Y138309D01*
X59408D01*
Y138474D01*
X61055D01*
Y138638D01*
X68633D01*
Y138474D01*
D02*
G37*
G36*
X361278Y379249D02*
X359058D01*
X359052D01*
X359035D01*
X359008D01*
X358974D01*
X358935Y379244D01*
X358886D01*
X358780Y379238D01*
X358658Y379227D01*
X358536Y379210D01*
X358419Y379188D01*
X358369Y379177D01*
X358319Y379160D01*
X358308Y379155D01*
X358281Y379144D01*
X358242Y379116D01*
X358186Y379083D01*
X358131Y379044D01*
X358070Y378988D01*
X358009Y378922D01*
X357959Y378844D01*
X357953Y378833D01*
X357937Y378805D01*
X357920Y378755D01*
X357898Y378689D01*
X357870Y378611D01*
X357853Y378511D01*
X357837Y378406D01*
X357831Y378289D01*
Y378234D01*
X357837Y378200D01*
Y378150D01*
X357842Y378100D01*
X357864Y377978D01*
X357892Y377845D01*
X357937Y377717D01*
X357998Y377595D01*
X358036Y377540D01*
X358081Y377490D01*
X358086Y377484D01*
X358092Y377479D01*
X358109Y377468D01*
X358131Y377451D01*
X358164Y377434D01*
X358197Y377412D01*
X358247Y377390D01*
X358297Y377368D01*
X358358Y377346D01*
X358431Y377329D01*
X358514Y377307D01*
X358602Y377290D01*
X358702Y377273D01*
X358808Y377262D01*
X358930Y377251D01*
X359058D01*
X361278D01*
Y376741D01*
X359058D01*
X359052D01*
X359030D01*
X359002D01*
X358963D01*
X358913Y376746D01*
X358858D01*
X358791Y376752D01*
X358725Y376757D01*
X358575Y376774D01*
X358419Y376796D01*
X358270Y376829D01*
X358197Y376852D01*
X358131Y376874D01*
X358125D01*
X358114Y376879D01*
X358098Y376890D01*
X358075Y376902D01*
X358014Y376935D01*
X357937Y376985D01*
X357848Y377051D01*
X357759Y377129D01*
X357665Y377229D01*
X357581Y377351D01*
Y377357D01*
X357570Y377368D01*
X357565Y377384D01*
X357548Y377412D01*
X357531Y377446D01*
X357515Y377490D01*
X357498Y377534D01*
X357476Y377590D01*
X357454Y377651D01*
X357437Y377717D01*
X357420Y377790D01*
X357404Y377873D01*
X357393Y377956D01*
X357382Y378045D01*
X357370Y378245D01*
Y378295D01*
X357376Y378333D01*
Y378378D01*
X357382Y378433D01*
X357387Y378494D01*
X357393Y378555D01*
X357415Y378694D01*
X357448Y378844D01*
X357492Y378988D01*
X357554Y379127D01*
Y379133D01*
X357565Y379144D01*
X357576Y379160D01*
X357587Y379183D01*
X357631Y379244D01*
X357692Y379316D01*
X357770Y379399D01*
X357859Y379477D01*
X357970Y379555D01*
X358092Y379615D01*
X358098D01*
X358109Y379621D01*
X358131Y379627D01*
X358158Y379638D01*
X358192Y379649D01*
X358236Y379660D01*
X358286Y379677D01*
X358347Y379688D01*
X358414Y379699D01*
X358486Y379715D01*
X358564Y379727D01*
X358647Y379738D01*
X358741Y379749D01*
X358841Y379754D01*
X358947Y379760D01*
X359058D01*
X361278D01*
Y379249D01*
D02*
G37*
G36*
X358714Y375586D02*
X358708D01*
X358702D01*
X358686Y375581D01*
X358664D01*
X358614Y375570D01*
X358541Y375553D01*
X358469Y375531D01*
X358386Y375508D01*
X358308Y375470D01*
X358236Y375431D01*
X358231Y375425D01*
X358208Y375409D01*
X358170Y375381D01*
X358131Y375337D01*
X358081Y375281D01*
X358031Y375220D01*
X357981Y375137D01*
X357937Y375048D01*
Y375042D01*
X357931Y375037D01*
X357925Y375020D01*
X357920Y375004D01*
X357903Y374948D01*
X357881Y374876D01*
X357859Y374787D01*
X357842Y374687D01*
X357831Y374576D01*
X357825Y374454D01*
Y374404D01*
X357831Y374349D01*
X357837Y374282D01*
X357848Y374204D01*
X357859Y374115D01*
X357881Y374027D01*
X357909Y373943D01*
X357914Y373932D01*
X357925Y373905D01*
X357948Y373866D01*
X357970Y373816D01*
X358009Y373766D01*
X358048Y373710D01*
X358092Y373655D01*
X358147Y373610D01*
X358153Y373605D01*
X358175Y373594D01*
X358203Y373577D01*
X358247Y373555D01*
X358292Y373533D01*
X358347Y373516D01*
X358408Y373505D01*
X358475Y373499D01*
X358480D01*
X358508D01*
X358541Y373505D01*
X358586Y373511D01*
X358630Y373527D01*
X358686Y373544D01*
X358741Y373572D01*
X358791Y373610D01*
X358797Y373616D01*
X358813Y373633D01*
X358836Y373655D01*
X358869Y373694D01*
X358902Y373738D01*
X358941Y373799D01*
X358980Y373871D01*
X359013Y373955D01*
X359019Y373960D01*
X359024Y373988D01*
X359041Y374032D01*
X359047Y374060D01*
X359058Y374099D01*
X359074Y374138D01*
X359085Y374188D01*
X359102Y374243D01*
X359119Y374310D01*
X359135Y374376D01*
X359157Y374454D01*
X359180Y374543D01*
X359202Y374637D01*
Y374643D01*
X359208Y374659D01*
X359213Y374687D01*
X359224Y374720D01*
X359235Y374765D01*
X359246Y374815D01*
X359280Y374926D01*
X359318Y375048D01*
X359357Y375175D01*
X359396Y375287D01*
X359418Y375337D01*
X359441Y375381D01*
Y375386D01*
X359446Y375392D01*
X359468Y375425D01*
X359496Y375475D01*
X359541Y375531D01*
X359590Y375597D01*
X359651Y375664D01*
X359724Y375730D01*
X359801Y375786D01*
X359812Y375792D01*
X359840Y375808D01*
X359885Y375830D01*
X359940Y375853D01*
X360012Y375875D01*
X360096Y375897D01*
X360184Y375914D01*
X360279Y375919D01*
X360284D01*
X360290D01*
X360306D01*
X360329D01*
X360384Y375908D01*
X360456Y375897D01*
X360540Y375880D01*
X360634Y375853D01*
X360728Y375814D01*
X360823Y375758D01*
X360828D01*
X360834Y375753D01*
X360867Y375725D01*
X360911Y375686D01*
X360967Y375636D01*
X361028Y375570D01*
X361094Y375486D01*
X361156Y375386D01*
X361211Y375275D01*
Y375270D01*
X361217Y375259D01*
X361222Y375242D01*
X361233Y375220D01*
X361244Y375192D01*
X361255Y375153D01*
X361278Y375070D01*
X361300Y374965D01*
X361322Y374843D01*
X361339Y374715D01*
X361344Y374571D01*
Y374498D01*
X361339Y374460D01*
Y374421D01*
X361328Y374315D01*
X361311Y374199D01*
X361283Y374077D01*
X361250Y373943D01*
X361206Y373821D01*
Y373816D01*
X361200Y373805D01*
X361189Y373788D01*
X361178Y373766D01*
X361150Y373710D01*
X361100Y373638D01*
X361045Y373555D01*
X360972Y373472D01*
X360889Y373394D01*
X360795Y373322D01*
X360789D01*
X360784Y373316D01*
X360767Y373305D01*
X360750Y373294D01*
X360695Y373266D01*
X360623Y373233D01*
X360534Y373194D01*
X360429Y373166D01*
X360317Y373139D01*
X360195Y373128D01*
X360156Y373616D01*
X360162D01*
X360173D01*
X360190Y373622D01*
X360218Y373627D01*
X360279Y373644D01*
X360362Y373666D01*
X360451Y373699D01*
X360540Y373749D01*
X360623Y373810D01*
X360700Y373888D01*
X360706Y373899D01*
X360728Y373927D01*
X360761Y373982D01*
X360795Y374054D01*
X360828Y374149D01*
X360861Y374260D01*
X360884Y374398D01*
X360889Y374554D01*
Y374632D01*
X360884Y374665D01*
X360878Y374709D01*
X360867Y374809D01*
X360845Y374920D01*
X360817Y375031D01*
X360773Y375137D01*
X360745Y375181D01*
X360717Y375225D01*
X360712Y375237D01*
X360689Y375259D01*
X360650Y375292D01*
X360606Y375325D01*
X360545Y375364D01*
X360478Y375397D01*
X360401Y375420D01*
X360312Y375431D01*
X360301D01*
X360279D01*
X360240Y375425D01*
X360195Y375414D01*
X360140Y375397D01*
X360084Y375370D01*
X360029Y375337D01*
X359973Y375287D01*
X359968Y375281D01*
X359951Y375253D01*
X359934Y375231D01*
X359923Y375209D01*
X359907Y375175D01*
X359885Y375137D01*
X359868Y375087D01*
X359846Y375031D01*
X359823Y374970D01*
X359796Y374898D01*
X359774Y374820D01*
X359746Y374731D01*
X359724Y374632D01*
X359696Y374521D01*
Y374515D01*
X359690Y374493D01*
X359685Y374460D01*
X359674Y374421D01*
X359663Y374371D01*
X359646Y374310D01*
X359629Y374249D01*
X359613Y374182D01*
X359574Y374038D01*
X359535Y373899D01*
X359513Y373832D01*
X359490Y373771D01*
X359474Y373716D01*
X359452Y373672D01*
Y373666D01*
X359446Y373655D01*
X359435Y373638D01*
X359424Y373616D01*
X359391Y373555D01*
X359346Y373483D01*
X359285Y373399D01*
X359219Y373316D01*
X359141Y373239D01*
X359058Y373172D01*
X359047Y373166D01*
X359019Y373144D01*
X358969Y373122D01*
X358902Y373089D01*
X358824Y373061D01*
X358730Y373033D01*
X358625Y373017D01*
X358514Y373011D01*
X358508D01*
X358503D01*
X358486D01*
X358464D01*
X358403Y373022D01*
X358325Y373033D01*
X358236Y373055D01*
X358142Y373083D01*
X358042Y373128D01*
X357937Y373189D01*
X357931D01*
X357925Y373194D01*
X357892Y373222D01*
X357842Y373261D01*
X357787Y373316D01*
X357720Y373388D01*
X357648Y373477D01*
X357581Y373577D01*
X357520Y373694D01*
Y373699D01*
X357515Y373710D01*
X357509Y373727D01*
X357498Y373749D01*
X357487Y373782D01*
X357470Y373821D01*
X357448Y373910D01*
X357420Y374016D01*
X357393Y374143D01*
X357376Y374282D01*
X357370Y374432D01*
Y374521D01*
X357376Y374565D01*
Y374615D01*
X357382Y374671D01*
X357387Y374737D01*
X357409Y374876D01*
X357432Y375020D01*
X357470Y375164D01*
X357520Y375303D01*
Y375309D01*
X357526Y375320D01*
X357537Y375337D01*
X357548Y375359D01*
X357581Y375425D01*
X357631Y375503D01*
X357698Y375592D01*
X357776Y375686D01*
X357870Y375775D01*
X357975Y375858D01*
X357981D01*
X357992Y375869D01*
X358009Y375875D01*
X358031Y375891D01*
X358059Y375903D01*
X358092Y375919D01*
X358175Y375958D01*
X358281Y375997D01*
X358397Y376030D01*
X358530Y376052D01*
X358669Y376063D01*
X358714Y375586D01*
D02*
G37*
G36*
X361278Y370824D02*
X361272Y370785D01*
Y370741D01*
X361261Y370641D01*
X361250Y370530D01*
X361228Y370414D01*
X361200Y370297D01*
X361161Y370192D01*
Y370186D01*
X361156Y370181D01*
X361139Y370147D01*
X361111Y370097D01*
X361072Y370042D01*
X361022Y369975D01*
X360961Y369903D01*
X360884Y369836D01*
X360800Y369775D01*
X360789Y369770D01*
X360756Y369753D01*
X360712Y369725D01*
X360645Y369698D01*
X360567Y369670D01*
X360484Y369642D01*
X360390Y369625D01*
X360295Y369620D01*
X360284D01*
X360256D01*
X360207Y369625D01*
X360145Y369637D01*
X360073Y369653D01*
X359996Y369681D01*
X359918Y369714D01*
X359835Y369759D01*
X359823Y369764D01*
X359801Y369781D01*
X359757Y369814D01*
X359713Y369859D01*
X359657Y369914D01*
X359596Y369981D01*
X359541Y370064D01*
X359485Y370158D01*
Y370153D01*
X359479Y370142D01*
X359474Y370125D01*
X359463Y370103D01*
X359441Y370036D01*
X359402Y369958D01*
X359352Y369875D01*
X359291Y369781D01*
X359219Y369698D01*
X359130Y369620D01*
X359119Y369614D01*
X359085Y369592D01*
X359035Y369559D01*
X358969Y369526D01*
X358880Y369492D01*
X358786Y369459D01*
X358675Y369437D01*
X358553Y369431D01*
X358547D01*
X358541D01*
X358508D01*
X358453Y369437D01*
X358386Y369448D01*
X358308Y369459D01*
X358225Y369481D01*
X358136Y369509D01*
X358048Y369548D01*
X358036Y369553D01*
X358009Y369570D01*
X357970Y369592D01*
X357914Y369625D01*
X357859Y369670D01*
X357798Y369714D01*
X357737Y369770D01*
X357687Y369831D01*
X357681Y369836D01*
X357665Y369859D01*
X357642Y369898D01*
X357620Y369947D01*
X357587Y370008D01*
X357554Y370081D01*
X357526Y370158D01*
X357498Y370253D01*
Y370264D01*
X357487Y370297D01*
X357481Y370353D01*
X357470Y370425D01*
X357459Y370514D01*
X357448Y370619D01*
X357443Y370736D01*
X357437Y370869D01*
Y372334D01*
X361278D01*
Y370824D01*
D02*
G37*
%LPC*%
G36*
X118054Y99925D02*
X111959D01*
Y97290D01*
Y97125D01*
X117889D01*
Y97290D01*
X118384D01*
Y97454D01*
X118548D01*
Y97619D01*
X118713D01*
Y97948D01*
X118878D01*
Y98443D01*
X119043D01*
Y98607D01*
X118878D01*
Y99266D01*
X118713D01*
Y99431D01*
X118548D01*
Y99596D01*
X118384D01*
Y99761D01*
X118054D01*
Y99925D01*
D02*
G37*
G36*
X104546Y100090D02*
X102898D01*
Y99925D01*
X101416D01*
Y99761D01*
X100921D01*
Y99596D01*
X100592D01*
Y99431D01*
X100262D01*
Y99266D01*
X100098D01*
Y98937D01*
X99933D01*
Y98772D01*
X99768D01*
Y98278D01*
X99604D01*
Y96136D01*
X99768D01*
Y95642D01*
X99933D01*
Y95477D01*
X100098D01*
Y95148D01*
X100262D01*
Y94983D01*
X100592D01*
Y94819D01*
X100921D01*
Y94654D01*
X101580D01*
Y94489D01*
X103063D01*
Y94324D01*
X104051D01*
Y94489D01*
X105699D01*
Y94654D01*
X106358D01*
Y94819D01*
X106687D01*
Y94983D01*
X106852D01*
Y95148D01*
X107017D01*
Y95313D01*
X107182D01*
Y95477D01*
X107346D01*
Y95642D01*
X107511D01*
Y96136D01*
X107676D01*
Y98278D01*
X107511D01*
Y98772D01*
X107346D01*
Y98937D01*
X107182D01*
Y99266D01*
X106852D01*
Y99431D01*
X106687D01*
Y99596D01*
X106358D01*
Y99761D01*
X105864D01*
Y99925D01*
X104546D01*
Y100090D01*
D02*
G37*
G36*
X92520D02*
X90873D01*
Y99925D01*
X89390D01*
Y99761D01*
X88896D01*
Y99596D01*
X88566D01*
Y99431D01*
X88237D01*
Y99266D01*
X88072D01*
Y98937D01*
X87907D01*
Y98772D01*
X87743D01*
Y98278D01*
X87578D01*
Y96136D01*
X87743D01*
Y95642D01*
X87907D01*
Y95477D01*
X88072D01*
Y95148D01*
X88237D01*
Y94983D01*
X88566D01*
Y94819D01*
X88896D01*
Y94654D01*
X89555D01*
Y94489D01*
X91037D01*
Y94324D01*
X92026D01*
Y94489D01*
X93673D01*
Y94654D01*
X94332D01*
Y94819D01*
X94661D01*
Y94983D01*
X94826D01*
Y95148D01*
X94991D01*
Y95313D01*
X95156D01*
Y95477D01*
X95320D01*
Y95642D01*
X95485D01*
Y95807D01*
Y95972D01*
Y96136D01*
X95650D01*
Y98278D01*
X95485D01*
Y98772D01*
X95320D01*
Y98937D01*
X95156D01*
Y99266D01*
X94826D01*
Y99431D01*
X94661D01*
Y99596D01*
X94332D01*
Y99761D01*
X93838D01*
Y99925D01*
X92520D01*
Y100090D01*
D02*
G37*
G36*
X73081Y99925D02*
X66821D01*
Y97125D01*
X72752D01*
Y97290D01*
X73246D01*
Y97454D01*
X73411D01*
Y97619D01*
X73575D01*
Y97784D01*
X73740D01*
Y98278D01*
X73905D01*
Y98937D01*
X73740D01*
Y99431D01*
X73575D01*
Y99596D01*
X73411D01*
Y99761D01*
X73081D01*
Y99925D01*
D02*
G37*
G36*
X38322Y99761D02*
X32721D01*
Y94324D01*
X38157D01*
Y94489D01*
X38981D01*
Y94654D01*
X39310D01*
Y94819D01*
X39475D01*
Y94983D01*
X39640D01*
Y95148D01*
X39804D01*
Y95313D01*
X39969D01*
Y95807D01*
X40134D01*
Y98278D01*
X39969D01*
Y98772D01*
X39804D01*
Y98937D01*
X39640D01*
Y99102D01*
X39475D01*
Y99266D01*
X39310D01*
Y99431D01*
X38981D01*
Y99596D01*
X38322D01*
Y99761D01*
D02*
G37*
G36*
X25143Y99925D02*
X24319D01*
Y99761D01*
X23990D01*
Y99596D01*
X23825D01*
Y99266D01*
X23660D01*
Y98937D01*
X23495D01*
Y98607D01*
X23331D01*
Y98278D01*
X23166D01*
Y97948D01*
X23001D01*
Y97619D01*
X22837D01*
Y97290D01*
X22672D01*
Y96960D01*
X22507D01*
Y96631D01*
X22342D01*
Y96301D01*
X27120D01*
Y96795D01*
X26955D01*
Y97125D01*
X26790D01*
Y97454D01*
X26625D01*
Y97784D01*
X26461D01*
Y98113D01*
X26296D01*
Y98443D01*
X26131D01*
Y98772D01*
X25967D01*
Y99102D01*
X25802D01*
Y99266D01*
X25637D01*
Y99596D01*
X25472D01*
Y99761D01*
X25143D01*
Y99925D01*
D02*
G37*
G36*
X16577Y99761D02*
X9987D01*
Y97784D01*
X10152D01*
Y97619D01*
X16082D01*
Y97784D01*
X16741D01*
Y97948D01*
X16906D01*
Y98113D01*
X17071D01*
Y98443D01*
X17235D01*
Y98937D01*
X17071D01*
Y99431D01*
X16906D01*
Y99596D01*
X16577D01*
Y99761D01*
D02*
G37*
G36*
X16412Y96631D02*
X10152D01*
Y96466D01*
X9987D01*
Y95642D01*
X10152D01*
Y94324D01*
X16577D01*
Y94489D01*
X16906D01*
Y94654D01*
X17071D01*
Y94819D01*
X17235D01*
Y95148D01*
X17400D01*
Y95642D01*
X17235D01*
Y96136D01*
X17071D01*
Y96301D01*
X16906D01*
Y96466D01*
X16412D01*
Y96631D01*
D02*
G37*
G36*
X20200Y80300D02*
X19900D01*
Y79700D01*
X19600D01*
Y78800D01*
X19300D01*
Y78200D01*
X19000D01*
Y77600D01*
X18700D01*
Y77000D01*
X18400D01*
Y76400D01*
X18100D01*
Y75500D01*
X17800D01*
Y74900D01*
X17500D01*
Y74300D01*
X17200D01*
Y73700D01*
X16900D01*
Y73100D01*
X16600D01*
Y72200D01*
X16300D01*
Y71600D01*
X16000D01*
Y71000D01*
X15700D01*
Y70400D01*
X15400D01*
Y69800D01*
X19600D01*
Y71300D01*
X19900D01*
Y77000D01*
X20200D01*
Y80300D01*
D02*
G37*
G36*
X61220Y128754D02*
X59573D01*
Y128589D01*
X57925D01*
Y128425D01*
X57102D01*
Y128260D01*
X56443D01*
Y128095D01*
X55949D01*
Y127930D01*
X55454D01*
Y127766D01*
X55125D01*
Y127601D01*
X54631D01*
Y127436D01*
X54466D01*
Y127272D01*
X54136D01*
Y127107D01*
X53807D01*
Y126942D01*
X53642D01*
Y126777D01*
X53478D01*
Y126613D01*
X53313D01*
Y126448D01*
X53148D01*
Y126283D01*
X52983D01*
Y126118D01*
X52819D01*
Y125954D01*
X52654D01*
Y125624D01*
X52489D01*
Y125295D01*
X52324D01*
Y124801D01*
X52160D01*
Y124636D01*
X51995D01*
Y124306D01*
X51830D01*
Y124142D01*
X51665D01*
Y123977D01*
X51501D01*
Y123647D01*
X51171D01*
Y123483D01*
X51006D01*
Y123318D01*
X50842D01*
Y123153D01*
X50677D01*
Y122988D01*
X50348D01*
Y122824D01*
X50183D01*
Y122659D01*
X49853D01*
Y122494D01*
X48865D01*
Y122329D01*
X47053D01*
Y122165D01*
X45405D01*
Y122000D01*
X44087D01*
Y121835D01*
X42934D01*
Y121670D01*
X41946D01*
Y121506D01*
X40957D01*
Y121341D01*
X40134D01*
Y121176D01*
X39310D01*
Y121012D01*
X38651D01*
Y120847D01*
X37992D01*
Y120682D01*
X37333D01*
Y120517D01*
X36674D01*
Y120353D01*
X36180D01*
Y120188D01*
X35686D01*
Y120023D01*
X35192D01*
Y119858D01*
X34862D01*
Y119694D01*
X34368D01*
Y119529D01*
X34039D01*
Y119364D01*
X33544D01*
Y119200D01*
X33215D01*
Y119035D01*
X33050D01*
Y118870D01*
X32721D01*
Y118705D01*
X32391D01*
Y118541D01*
X32226D01*
Y118376D01*
X31897D01*
Y118211D01*
X31732D01*
Y118046D01*
X31568D01*
Y117882D01*
X31238D01*
Y117717D01*
X31073D01*
Y117552D01*
X30909D01*
Y117387D01*
X30744D01*
Y117223D01*
X30579D01*
Y116893D01*
X30414D01*
Y116728D01*
X30250D01*
Y116399D01*
X30085D01*
Y116069D01*
X29920D01*
Y115575D01*
X29755D01*
Y113599D01*
X29920D01*
Y113104D01*
X30085D01*
Y112775D01*
X30250D01*
Y112610D01*
X30414D01*
Y112281D01*
X30579D01*
Y112116D01*
X30744D01*
Y111951D01*
X30909D01*
Y111786D01*
X31073D01*
Y111622D01*
X31403D01*
Y111457D01*
X31568D01*
Y111292D01*
X31897D01*
Y111127D01*
X32062D01*
Y110963D01*
X32391D01*
Y110798D01*
X32721D01*
Y110633D01*
X33050D01*
Y110468D01*
X33380D01*
Y110304D01*
X33874D01*
Y110139D01*
X34203D01*
Y109974D01*
X34698D01*
Y109810D01*
X35192D01*
Y109645D01*
X35686D01*
Y109480D01*
X36345D01*
Y109315D01*
X37004D01*
Y109151D01*
X37663D01*
Y108986D01*
X38486D01*
Y108821D01*
X39310D01*
Y108656D01*
X40299D01*
Y108492D01*
X41287D01*
Y108327D01*
X42605D01*
Y108162D01*
X44087D01*
Y107997D01*
X45735D01*
Y107833D01*
X48041D01*
Y107668D01*
X51501D01*
Y107503D01*
X58914D01*
Y107668D01*
X62538D01*
Y107833D01*
X64185D01*
Y107997D01*
X65503D01*
Y108162D01*
X66492D01*
Y108327D01*
X67315D01*
Y108492D01*
X68139D01*
Y108656D01*
X68798D01*
Y108821D01*
X69457D01*
Y108986D01*
X70116D01*
Y109151D01*
X70775D01*
Y109315D01*
X71269D01*
Y109480D01*
X71763D01*
Y109645D01*
X72257D01*
Y109810D01*
X72752D01*
Y109974D01*
X73081D01*
Y110139D01*
X71599D01*
Y109974D01*
X67151D01*
Y109810D01*
X59573D01*
Y109974D01*
X54466D01*
Y110139D01*
X51336D01*
Y110304D01*
X48865D01*
Y110468D01*
X47053D01*
Y110633D01*
X45570D01*
Y110798D01*
X44252D01*
Y110963D01*
X43099D01*
Y111127D01*
X42111D01*
Y111292D01*
X41287D01*
Y111457D01*
X40463D01*
Y111622D01*
X39804D01*
Y111786D01*
X39145D01*
Y111951D01*
X38651D01*
Y112116D01*
X38157D01*
Y112281D01*
X37663D01*
Y112445D01*
X37333D01*
Y112610D01*
X37004D01*
Y112775D01*
X36674D01*
Y112940D01*
X36510D01*
Y113104D01*
X36180D01*
Y113269D01*
X36015D01*
Y113434D01*
X35851D01*
Y113599D01*
X35686D01*
Y113763D01*
X35521D01*
Y113928D01*
X35357D01*
Y114422D01*
X35192D01*
Y115575D01*
X35357D01*
Y115905D01*
X35521D01*
Y116069D01*
X35686D01*
Y116399D01*
X35851D01*
Y116564D01*
X36015D01*
Y116728D01*
X36345D01*
Y116893D01*
X36510D01*
Y117058D01*
X36839D01*
Y117223D01*
X37004D01*
Y117387D01*
X37333D01*
Y117552D01*
X37663D01*
Y117717D01*
X38157D01*
Y117882D01*
X38486D01*
Y118046D01*
X38981D01*
Y118211D01*
X39475D01*
Y118376D01*
X39969D01*
Y118541D01*
X40628D01*
Y118705D01*
X41287D01*
Y118870D01*
X41946D01*
Y119035D01*
X42770D01*
Y119200D01*
X43593D01*
Y119364D01*
X44582D01*
Y119529D01*
X45735D01*
Y119694D01*
X46888D01*
Y119858D01*
X48371D01*
Y120023D01*
X49853D01*
Y120188D01*
X51830D01*
Y120353D01*
X54301D01*
Y120517D01*
X57596D01*
Y120682D01*
X64679D01*
Y120847D01*
X69127D01*
Y120682D01*
X76870D01*
Y120517D01*
X80988D01*
Y120353D01*
X84118D01*
Y120188D01*
X86754D01*
Y120023D01*
X88896D01*
Y119858D01*
X91037D01*
Y119694D01*
X92849D01*
Y119529D01*
X94497D01*
Y119364D01*
X95979D01*
Y119200D01*
X97297D01*
Y119035D01*
X98450D01*
Y118870D01*
X99604D01*
Y118705D01*
X100427D01*
Y118870D01*
X99768D01*
Y119035D01*
X99109D01*
Y119200D01*
X98450D01*
Y119364D01*
X97627D01*
Y119529D01*
X96968D01*
Y119694D01*
X96144D01*
Y119858D01*
X95156D01*
Y120023D01*
X94332D01*
Y120188D01*
X93344D01*
Y120353D01*
X92355D01*
Y120517D01*
X91202D01*
Y120682D01*
X90049D01*
Y120847D01*
X88896D01*
Y121012D01*
X87743D01*
Y121176D01*
X86260D01*
Y121341D01*
X84942D01*
Y121506D01*
X83460D01*
Y121670D01*
X81812D01*
Y121835D01*
X80000D01*
Y122000D01*
X78023D01*
Y122165D01*
X75882D01*
Y122329D01*
X73905D01*
Y122494D01*
X73081D01*
Y122659D01*
X72752D01*
Y122824D01*
X72422D01*
Y122988D01*
X72093D01*
Y123153D01*
X71928D01*
Y123318D01*
X71599D01*
Y123483D01*
X71434D01*
Y123647D01*
X71269D01*
Y123812D01*
X71104D01*
Y123977D01*
X70939D01*
Y124142D01*
X70775D01*
Y124306D01*
X70610D01*
Y124471D01*
X70445D01*
Y124801D01*
X70281D01*
Y125130D01*
X70116D01*
Y125295D01*
X69951D01*
Y125460D01*
X69786D01*
Y125624D01*
X69622D01*
Y125789D01*
X69457D01*
Y125954D01*
X69292D01*
Y126118D01*
X68963D01*
Y126283D01*
X68798D01*
Y126448D01*
X68633D01*
Y126613D01*
X68304D01*
Y126777D01*
X67974D01*
Y126942D01*
X67645D01*
Y127107D01*
X67315D01*
Y127272D01*
X66986D01*
Y127436D01*
X66492D01*
Y127601D01*
X66162D01*
Y127766D01*
X65668D01*
Y127930D01*
X65009D01*
Y128095D01*
X64515D01*
Y128260D01*
X63691D01*
Y128425D01*
X62867D01*
Y128589D01*
X61220D01*
Y128754D01*
D02*
G37*
G36*
X101086Y118705D02*
X100592D01*
Y118541D01*
X101086D01*
Y118705D01*
D02*
G37*
G36*
X97791D02*
X92849D01*
Y118541D01*
X90708D01*
Y118376D01*
X89225D01*
Y118211D01*
X88072D01*
Y118046D01*
X86919D01*
Y117882D01*
X86095D01*
Y117717D01*
X85272D01*
Y117552D01*
X84448D01*
Y117387D01*
X83789D01*
Y117223D01*
X83130D01*
Y117058D01*
X82471D01*
Y116893D01*
X81977D01*
Y116728D01*
X81483D01*
Y116564D01*
X80988D01*
Y116399D01*
X80659D01*
Y116234D01*
X80165D01*
Y116069D01*
X79835D01*
Y115905D01*
X79506D01*
Y115740D01*
X79176D01*
Y115575D01*
X78847D01*
Y115411D01*
X78517D01*
Y115246D01*
X78353D01*
Y115081D01*
X78023D01*
Y114916D01*
X77858D01*
Y114752D01*
X77529D01*
Y114587D01*
X77364D01*
Y114422D01*
X77200D01*
Y114257D01*
X76870D01*
Y114093D01*
X76705D01*
Y113928D01*
X76540D01*
Y113763D01*
X76376D01*
Y113599D01*
X76211D01*
Y113434D01*
X76046D01*
Y113269D01*
X75882D01*
Y113104D01*
X75717D01*
Y112940D01*
X75552D01*
Y112775D01*
X75387D01*
Y112610D01*
X75223D01*
Y112445D01*
X75058D01*
Y112281D01*
X74893D01*
Y112116D01*
X74728D01*
Y111951D01*
X74564D01*
Y111786D01*
X74399D01*
Y111622D01*
X74234D01*
Y111457D01*
X74069D01*
Y111292D01*
X73905D01*
Y111127D01*
X73740D01*
Y110798D01*
X73905D01*
Y110963D01*
X74069D01*
Y111127D01*
X74234D01*
Y111292D01*
X74399D01*
Y111457D01*
X74564D01*
Y111622D01*
X74728D01*
Y111786D01*
X74893D01*
Y111951D01*
X75223D01*
Y112116D01*
X75387D01*
Y112281D01*
X75552D01*
Y112445D01*
X75882D01*
Y112610D01*
X76046D01*
Y112775D01*
X76211D01*
Y112940D01*
X76540D01*
Y113104D01*
X76705D01*
Y113269D01*
X77035D01*
Y113434D01*
X77364D01*
Y113599D01*
X77529D01*
Y113763D01*
X77858D01*
Y113928D01*
X78188D01*
Y114093D01*
X78517D01*
Y114257D01*
X78847D01*
Y114422D01*
X79176D01*
Y114587D01*
X79506D01*
Y114752D01*
X79835D01*
Y114916D01*
X80165D01*
Y115081D01*
X80659D01*
Y115246D01*
X80988D01*
Y115411D01*
X81483D01*
Y115575D01*
X81977D01*
Y115740D01*
X82471D01*
Y115905D01*
X82965D01*
Y116069D01*
X83460D01*
Y116234D01*
X84118D01*
Y116399D01*
X84777D01*
Y116564D01*
X85436D01*
Y116728D01*
X86095D01*
Y116893D01*
X86919D01*
Y117058D01*
X87743D01*
Y117223D01*
X88731D01*
Y117387D01*
X89719D01*
Y117552D01*
X90873D01*
Y117717D01*
X91861D01*
Y117882D01*
X93179D01*
Y118046D01*
X94497D01*
Y118211D01*
X96309D01*
Y118376D01*
X99933D01*
Y118541D01*
X97791D01*
Y118705D01*
D02*
G37*
G36*
X73740Y110798D02*
X73575D01*
Y110633D01*
X73740D01*
Y110798D01*
D02*
G37*
G36*
X73575Y110633D02*
X73411D01*
Y110468D01*
X73575D01*
Y110633D01*
D02*
G37*
G36*
X73411Y110468D02*
X73246D01*
Y110304D01*
X73411D01*
Y110468D01*
D02*
G37*
%LPD*%
G36*
X61385Y127601D02*
X62703D01*
Y127436D01*
X63691D01*
Y127272D01*
X64350D01*
Y127107D01*
X65009D01*
Y126942D01*
X65503D01*
Y126777D01*
X65997D01*
Y126613D01*
X66327D01*
Y126448D01*
X66821D01*
Y126283D01*
X67151D01*
Y126118D01*
X67480D01*
Y125954D01*
X67809D01*
Y125789D01*
X67974D01*
Y125624D01*
X68304D01*
Y125460D01*
X68468D01*
Y125295D01*
X68798D01*
Y125130D01*
X68963D01*
Y124965D01*
X69127D01*
Y124801D01*
X69292D01*
Y124636D01*
X69457D01*
Y124306D01*
X69622D01*
Y123977D01*
X69786D01*
Y122659D01*
X66162D01*
Y122824D01*
X54960D01*
Y122659D01*
X53642D01*
Y124471D01*
X53807D01*
Y124801D01*
X53972D01*
Y125130D01*
X54136D01*
Y125460D01*
X54301D01*
Y125624D01*
X54466D01*
Y125789D01*
X54631D01*
Y125954D01*
X54795D01*
Y126118D01*
X54960D01*
Y126283D01*
X55290D01*
Y126448D01*
X55454D01*
Y126613D01*
X55784D01*
Y126777D01*
X56113D01*
Y126942D01*
X56443D01*
Y127107D01*
X56937D01*
Y127272D01*
X57431D01*
Y127436D01*
X58255D01*
Y127601D01*
X59573D01*
Y127766D01*
X61385D01*
Y127601D01*
D02*
G37*
%LPC*%
G36*
X360823Y371823D02*
X359668D01*
Y370880D01*
X359674Y370808D01*
X359679Y370730D01*
X359685Y370652D01*
X359696Y370575D01*
X359707Y370514D01*
X359713Y370502D01*
X359718Y370480D01*
X359735Y370447D01*
X359757Y370403D01*
X359779Y370358D01*
X359812Y370308D01*
X359857Y370258D01*
X359901Y370219D01*
X359907Y370214D01*
X359923Y370203D01*
X359957Y370186D01*
X359996Y370169D01*
X360040Y370153D01*
X360096Y370136D01*
X360162Y370125D01*
X360234Y370120D01*
X360245D01*
X360267D01*
X360301Y370125D01*
X360345Y370131D01*
X360401Y370142D01*
X360456Y370158D01*
X360512Y370181D01*
X360567Y370214D01*
X360573Y370219D01*
X360589Y370231D01*
X360617Y370253D01*
X360645Y370280D01*
X360678Y370319D01*
X360712Y370364D01*
X360745Y370419D01*
X360767Y370480D01*
Y370486D01*
X360778Y370514D01*
X360784Y370552D01*
X360795Y370613D01*
X360806Y370697D01*
X360811Y370791D01*
X360823Y370913D01*
Y371823D01*
D02*
G37*
G36*
X359213D02*
X357892D01*
Y370730D01*
X357898Y370613D01*
X357903Y370564D01*
X357909Y370519D01*
Y370514D01*
X357914Y370491D01*
X357920Y370458D01*
X357931Y370419D01*
X357964Y370325D01*
X358009Y370231D01*
X358014Y370225D01*
X358025Y370208D01*
X358042Y370186D01*
X358064Y370158D01*
X358098Y370131D01*
X358131Y370092D01*
X358175Y370064D01*
X358225Y370031D01*
X358231Y370025D01*
X358247Y370020D01*
X358281Y370008D01*
X358319Y369992D01*
X358364Y369975D01*
X358419Y369964D01*
X358486Y369958D01*
X358553Y369953D01*
X358564D01*
X358586D01*
X358630Y369958D01*
X358680Y369970D01*
X358736Y369981D01*
X358797Y370003D01*
X358858Y370031D01*
X358919Y370070D01*
X358924Y370075D01*
X358947Y370092D01*
X358974Y370114D01*
X359008Y370147D01*
X359047Y370192D01*
X359085Y370247D01*
X359119Y370308D01*
X359146Y370380D01*
X359152Y370391D01*
X359157Y370414D01*
X359169Y370464D01*
X359180Y370525D01*
X359191Y370602D01*
X359202Y370697D01*
X359213Y370813D01*
Y371823D01*
D02*
G37*
%LPD*%
D10*
X101087Y224071D02*
G03*
X101087Y224071I-492J0D01*
G01*
X116650Y297153D02*
G03*
X116650Y297153I-492J0D01*
G01*
X539653Y179347D02*
G03*
X539653Y179347I-492J0D01*
G01*
X463764Y186972D02*
G03*
X463764Y186972I-492J0D01*
G01*
X428760Y250224D02*
G03*
X428760Y250224I-492J0D01*
G01*
X494161Y280000D02*
G03*
X494161Y280000I-492J0D01*
G01*
X450894Y255661D02*
G03*
X450894Y255661I-492J0D01*
G01*
X429965Y53724D02*
G03*
X429965Y53724I-492J0D01*
G01*
X452831Y61661D02*
G03*
X452831Y61661I-492J0D01*
G01*
X490098Y84000D02*
G03*
X490098Y84000I-492J0D01*
G01*
X209862Y131482D02*
G03*
X209862Y131482I-492J0D01*
G01*
X361437Y193167D02*
G03*
X361437Y193167I-492J0D01*
G01*
X592853Y407375D02*
G03*
X592853Y407375I-492J0D01*
G01*
X605602Y356077D02*
G03*
X605602Y356077I-492J0D01*
G01*
X621272Y143161D02*
G03*
X621272Y143161I-492J0D01*
G01*
X656894Y121535D02*
G03*
X656894Y121535I-492J0D01*
G01*
D11*
X97642Y216591D02*
G03*
X97642Y216591I-787J0D01*
G01*
X334724Y415260D02*
G03*
X334724Y415260I-787J0D01*
G01*
D12*
X106630Y301268D02*
G03*
X106630Y301268I-1181J0D01*
G01*
X535480Y171669D02*
G03*
X535480Y171669I-1181J0D01*
G01*
X472819Y181874D02*
G03*
X472819Y181874I-1181J0D01*
G01*
X231638Y164868D02*
G03*
X231638Y164868I-1181J0D01*
G01*
X218622Y126443D02*
G03*
X218622Y126443I-1181J0D01*
G01*
X357087Y185096D02*
G03*
X357087Y185096I-1181J0D01*
G01*
X245638Y194868D02*
G03*
X245638Y194868I-1181J0D01*
G01*
X598582Y415741D02*
G03*
X598582Y415741I-1181J0D01*
G01*
X629638Y138299D02*
G03*
X629638Y138299I-1181J0D01*
G01*
D13*
X286000Y10000D02*
Y100000D01*
X274000Y112000D02*
X286000Y100000D01*
X242000Y172000D02*
X246000Y176000D01*
Y180000D01*
Y204000D02*
Y274000D01*
X258000Y286000D01*
X382000D01*
X432000Y336000D01*
X462000D01*
Y368000D01*
X464000Y398000D02*
Y412000D01*
X446000Y430000D02*
X464000Y412000D01*
X420000Y430000D02*
X446000D01*
X160000D02*
X382000D01*
X124000D02*
X144000D01*
X110000Y416000D02*
X124000Y430000D01*
X110000Y366000D02*
Y416000D01*
X90000Y346000D02*
X110000Y366000D01*
X90000Y342000D02*
Y346000D01*
Y268000D02*
Y294000D01*
X54000Y246000D02*
X68000D01*
X50000Y250000D02*
X54000Y246000D01*
X0Y270000D02*
X26000D01*
D14*
X107000Y205000D02*
Y215000D01*
Y205000D02*
X117000D01*
X107000D02*
Y225000D01*
X117000Y205000D02*
Y225000D01*
X107000D02*
X117000D01*
X87000Y171000D02*
Y181000D01*
X77000D02*
X87000D01*
X77000Y171000D02*
Y181000D01*
Y171000D02*
X107000D01*
Y181000D01*
X77000D02*
X107000D01*
X111000Y241000D02*
Y251000D01*
Y241000D02*
X121000D01*
Y251000D01*
X91000D02*
X121000D01*
X91000Y241000D02*
Y251000D01*
Y241000D02*
X121000D01*
X67000Y273000D02*
Y283000D01*
X57000D02*
X67000D01*
X57000Y273000D02*
Y283000D01*
Y273000D02*
X87000D01*
Y283000D01*
X57000D02*
X87000D01*
X125000Y273000D02*
Y283000D01*
Y273000D02*
X135000D01*
Y283000D01*
X105000D02*
X135000D01*
X105000Y273000D02*
Y283000D01*
Y273000D02*
X135000D01*
X31000Y271000D02*
X41000D01*
X31000Y261000D02*
Y271000D01*
X51000D01*
X31000Y261000D02*
X51000D01*
Y271000D01*
X139000Y361000D02*
Y371000D01*
X119000Y361000D02*
X139000D01*
X119000Y371000D02*
X139000D01*
X119000Y361000D02*
Y371000D01*
X129000D01*
X51000Y367000D02*
X61000D01*
Y377000D01*
X41000Y367000D02*
X61000D01*
X41000Y377000D02*
X61000D01*
X41000Y367000D02*
Y377000D01*
X29100Y386595D02*
X71100D01*
X29100D02*
Y439095D01*
X71100Y386595D02*
Y439095D01*
X29100D02*
X71100D01*
X305000Y313000D02*
X315000D01*
Y323000D01*
X295000Y313000D02*
X315000D01*
X295000Y323000D02*
X315000D01*
X295000Y313000D02*
Y323000D01*
X97000Y375000D02*
Y385000D01*
X87000D02*
X97000D01*
Y365000D02*
Y385000D01*
X87000Y365000D02*
Y385000D01*
Y365000D02*
X97000D01*
X99000Y267000D02*
X109000D01*
X99000Y257000D02*
Y267000D01*
X119000D01*
X99000Y257000D02*
X119000D01*
Y267000D01*
X151000Y193000D02*
Y203000D01*
X131000Y193000D02*
X151000D01*
X131000Y203000D02*
X151000D01*
X131000Y193000D02*
Y203000D01*
X141000D01*
X151000Y207000D02*
Y217000D01*
X131000Y207000D02*
X151000D01*
X131000Y217000D02*
X151000D01*
X131000Y207000D02*
Y217000D01*
X141000D01*
X553000Y169126D02*
X563000D01*
Y179126D01*
X553000D02*
X563000D01*
X553000Y149126D02*
Y179126D01*
Y149126D02*
X563000D01*
Y179126D01*
X483000Y191126D02*
Y201126D01*
X473000D02*
X483000D01*
X473000Y191126D02*
Y201126D01*
Y191126D02*
X503000D01*
Y201126D01*
X473000D02*
X503000D01*
X561500Y246000D02*
X566500D01*
X567000Y251000D02*
Y253000D01*
X561000Y251000D02*
Y253000D01*
X555000Y53000D02*
Y55000D01*
X561000Y53000D02*
Y55000D01*
X555500Y48000D02*
X560500D01*
X623000Y79000D02*
X663000D01*
Y69000D02*
Y79000D01*
X623000Y69000D02*
X663000D01*
X623000D02*
Y79000D01*
X633000D01*
Y69000D02*
Y79000D01*
X154370Y56000D02*
X235213D01*
X154370Y20500D02*
X235213D01*
Y56000D01*
X154370Y20500D02*
Y56000D01*
X307000Y93537D02*
X317000D01*
X307000Y83537D02*
Y93537D01*
X327000D01*
X307000Y83537D02*
X327000D01*
Y93537D01*
X361500Y239486D02*
X366500D01*
X361000Y232486D02*
Y234486D01*
X367000Y232486D02*
Y234486D01*
X186000Y188037D02*
Y193037D01*
X191000Y187537D02*
X193000D01*
X191000Y193537D02*
X193000D01*
X164000Y155500D02*
Y160500D01*
X169000Y155000D02*
X171000D01*
X169000Y161000D02*
X171000D01*
X344200Y142137D02*
X374200D01*
X344200D02*
Y152137D01*
X374200D01*
Y142137D02*
Y152137D01*
X364200Y142137D02*
X374200D01*
X364200D02*
Y152137D01*
X239000Y109537D02*
X269000D01*
X239000D02*
Y119537D01*
X269000D01*
Y109537D02*
Y119537D01*
X259000Y109537D02*
X269000D01*
X259000D02*
Y119537D01*
X365500Y91549D02*
X370500D01*
X371000Y96549D02*
Y98549D01*
X365000Y96549D02*
Y98549D01*
X305000Y281000D02*
X315000D01*
X305000Y271000D02*
Y281000D01*
X325000D01*
X305000Y271000D02*
X325000D01*
Y281000D01*
X602685Y54000D02*
X683528D01*
X602685Y18500D02*
X683528D01*
Y54000D01*
X602685Y18500D02*
Y54000D01*
X412700Y367200D02*
X422700D01*
X412700Y357200D02*
Y367200D01*
X432700D01*
X412700Y357200D02*
X432700D01*
Y367200D01*
X522200Y398000D02*
X532200D01*
X522200Y388000D02*
Y398000D01*
X542200D01*
X522200Y388000D02*
X542200D01*
Y398000D01*
X579300Y351800D02*
X589300D01*
X579300Y341800D02*
Y351800D01*
Y341800D02*
X589300D01*
Y371800D01*
X579300D02*
X589300D01*
X579300Y341800D02*
Y371800D01*
X526251Y418400D02*
Y423400D01*
X531251Y417900D02*
X533251D01*
X531251Y423900D02*
X533251D01*
X401800Y424000D02*
X406800D01*
X401300Y417000D02*
Y419000D01*
X407300Y417000D02*
Y419000D01*
X425834Y371792D02*
X498668D01*
X425834Y395808D02*
X498668D01*
X425834Y371792D02*
Y395808D01*
X498668Y371792D02*
Y395808D01*
X402500Y333400D02*
X412500D01*
Y343400D01*
X392500Y333400D02*
X412500D01*
X392500Y343400D02*
X412500D01*
X392500Y333400D02*
Y343400D01*
X646000Y393500D02*
Y433843D01*
X681500Y393500D02*
Y433843D01*
X646000D02*
X681500D01*
X646000Y393500D02*
X681500D01*
X673000Y163000D02*
Y173000D01*
Y163000D02*
X683000D01*
Y173000D01*
X653000D02*
X683000D01*
X653000Y163000D02*
Y173000D01*
Y163000D02*
X683000D01*
X646063Y159500D02*
Y164500D01*
X639063Y165000D02*
X641063D01*
X639063Y159000D02*
X641063D01*
X221000Y5000D02*
Y10998D01*
X222999Y8999D01*
X224999Y10998D01*
Y5000D01*
X226998D02*
Y10998D01*
X229997D01*
X230997Y9998D01*
Y7999D01*
X229997Y6999D01*
X226998D01*
X232996Y5000D02*
Y10998D01*
X235995D01*
X236995Y9998D01*
Y7999D01*
X235995Y6999D01*
X232996D01*
X238994Y10998D02*
X242993D01*
X240993D01*
Y5000D01*
X181492Y9715D02*
X180493Y10715D01*
X178493D01*
X177494Y9715D01*
Y5717D01*
X178493Y4717D01*
X180493D01*
X181492Y5717D01*
Y7716D01*
X179493D01*
X183492Y4717D02*
Y10715D01*
X187490Y4717D01*
Y10715D01*
X189490D02*
Y4717D01*
X192489D01*
X193488Y5717D01*
Y9715D01*
X192489Y10715D01*
X189490D01*
X686402Y394848D02*
X685402Y393848D01*
Y391848D01*
X686402Y390849D01*
X690400D01*
X691400Y391848D01*
Y393848D01*
X690400Y394848D01*
X688401D01*
Y392848D01*
X691400Y396847D02*
X685402D01*
X691400Y400846D01*
X685402D01*
Y402845D02*
X691400D01*
Y405844D01*
X690400Y406844D01*
X686402D01*
X685402Y405844D01*
Y402845D01*
X348524Y11998D02*
X352522Y7999D01*
X348524D02*
X352522Y11998D01*
X348524Y9998D02*
X352522D01*
X350523Y7999D02*
Y11998D01*
X354522Y6999D02*
Y12997D01*
X356521Y10998D01*
X358521Y12997D01*
Y6999D01*
X361520Y10998D02*
X363519D01*
X364519Y9998D01*
Y6999D01*
X361520D01*
X360520Y7999D01*
X361520Y8999D01*
X364519D01*
X370517Y12997D02*
Y6999D01*
X367518D01*
X366518Y7999D01*
Y9998D01*
X367518Y10998D01*
X370517D01*
X375515Y6999D02*
X373516D01*
X372516Y7999D01*
Y9998D01*
X373516Y10998D01*
X375515D01*
X376515Y9998D01*
Y8999D01*
X372516D01*
X385512Y6999D02*
X387511D01*
X388511Y7999D01*
Y9998D01*
X387511Y10998D01*
X385512D01*
X384512Y9998D01*
Y7999D01*
X385512Y6999D01*
X390510D02*
Y10998D01*
X393509D01*
X394509Y9998D01*
Y6999D01*
X406505Y12997D02*
X402506D01*
Y6999D01*
X406505D01*
X402506Y9998D02*
X404506D01*
X409504Y10998D02*
X411503D01*
X412503Y9998D01*
Y6999D01*
X409504D01*
X408504Y7999D01*
X409504Y8999D01*
X412503D01*
X414502Y10998D02*
Y6999D01*
Y8999D01*
X415502Y9998D01*
X416502Y10998D01*
X417501D01*
X421500Y11998D02*
Y10998D01*
X420501D01*
X422500D01*
X421500D01*
Y7999D01*
X422500Y6999D01*
X425499Y12997D02*
Y6999D01*
Y9998D01*
X426499Y10998D01*
X428498D01*
X429498Y9998D01*
Y6999D01*
X437495Y12997D02*
Y6999D01*
X440494D01*
X441494Y7999D01*
Y8999D01*
Y9998D01*
X440494Y10998D01*
X437495D01*
X443493D02*
Y7999D01*
X444493Y6999D01*
X447492D01*
Y6000D01*
X446492Y5000D01*
X445492D01*
X447492Y6999D02*
Y10998D01*
X455489Y12997D02*
Y6999D01*
Y9998D01*
X456489Y10998D01*
X458488D01*
X459488Y9998D01*
Y6999D01*
X461487Y10998D02*
Y7999D01*
X462487Y6999D01*
X465486D01*
Y10998D01*
X467485Y6999D02*
Y10998D01*
X468485D01*
X469485Y9998D01*
Y6999D01*
Y9998D01*
X470484Y10998D01*
X471484Y9998D01*
Y6999D01*
X474483Y10998D02*
X476482D01*
X477482Y9998D01*
Y6999D01*
X474483D01*
X473483Y7999D01*
X474483Y8999D01*
X477482D01*
X479481Y6999D02*
Y10998D01*
X482480D01*
X483480Y9998D01*
Y6999D01*
X485479D02*
X488479D01*
X489478Y7999D01*
X488479Y8999D01*
X486479D01*
X485479Y9998D01*
X486479Y10998D01*
X489478D01*
X491477Y11998D02*
X495476Y7999D01*
X491477D02*
X495476Y11998D01*
X491477Y9998D02*
X495476D01*
X493477Y7999D02*
Y11998D01*
X203000Y5000D02*
Y10998D01*
X204999Y8999D01*
X206999Y10998D01*
Y5000D01*
X212997Y9998D02*
X211997Y10998D01*
X209998D01*
X208998Y9998D01*
Y6000D01*
X209998Y5000D01*
X211997D01*
X212997Y6000D01*
X9093Y52595D02*
Y46597D01*
Y49596D01*
X13092D01*
Y52595D01*
Y46597D01*
X15091D02*
X17090D01*
X16091D01*
Y50596D01*
X15091D01*
X22089Y44598D02*
X23088D01*
X24088Y45597D01*
Y50596D01*
X21089D01*
X20089Y49596D01*
Y47597D01*
X21089Y46597D01*
X24088D01*
X26087Y52595D02*
Y46597D01*
Y49596D01*
X27087Y50596D01*
X29087D01*
X30086Y49596D01*
Y46597D01*
X38084Y52595D02*
Y48596D01*
X40083Y46597D01*
X42082Y48596D01*
Y52595D01*
X45081Y46597D02*
X47081D01*
X48080Y47597D01*
Y49596D01*
X47081Y50596D01*
X45081D01*
X44082Y49596D01*
Y47597D01*
X45081Y46597D01*
X50080D02*
X52079D01*
X51079D01*
Y52595D01*
X50080D01*
X56078Y51595D02*
Y50596D01*
X55078D01*
X57077D01*
X56078D01*
Y47597D01*
X57077Y46597D01*
X61076Y50596D02*
X63076D01*
X64075Y49596D01*
Y46597D01*
X61076D01*
X60076Y47597D01*
X61076Y48596D01*
X64075D01*
X68074Y44598D02*
X69074D01*
X70073Y45597D01*
Y50596D01*
X67074D01*
X66075Y49596D01*
Y47597D01*
X67074Y46597D01*
X70073D01*
X75072D02*
X73072D01*
X72073Y47597D01*
Y49596D01*
X73072Y50596D01*
X75072D01*
X76071Y49596D01*
Y48596D01*
X72073D01*
X88068Y51595D02*
X87068Y52595D01*
X85069D01*
X84069Y51595D01*
Y50596D01*
X85069Y49596D01*
X87068D01*
X88068Y48596D01*
Y47597D01*
X87068Y46597D01*
X85069D01*
X84069Y47597D01*
X93066Y46597D02*
X91066D01*
X90067Y47597D01*
Y49596D01*
X91066Y50596D01*
X93066D01*
X94066Y49596D01*
Y48596D01*
X90067D01*
X96065Y46597D02*
Y50596D01*
X99064D01*
X100064Y49596D01*
Y46597D01*
X102063D02*
X105062D01*
X106062Y47597D01*
X105062Y48596D01*
X103063D01*
X102063Y49596D01*
X103063Y50596D01*
X106062D01*
X109061Y46597D02*
X111060D01*
X112060Y47597D01*
Y49596D01*
X111060Y50596D01*
X109061D01*
X108061Y49596D01*
Y47597D01*
X109061Y46597D01*
X114059Y50596D02*
Y46597D01*
Y48596D01*
X115059Y49596D01*
X116058Y50596D01*
X117058D01*
X10593Y40998D02*
Y35000D01*
X13592D01*
X14591Y36000D01*
Y36999D01*
X13592Y37999D01*
X10593D01*
X13592D01*
X14591Y38999D01*
Y39998D01*
X13592Y40998D01*
X10593D01*
X16591Y38999D02*
Y35000D01*
Y36999D01*
X17590Y37999D01*
X18590Y38999D01*
X19590D01*
X25588Y35000D02*
X23588D01*
X22589Y36000D01*
Y37999D01*
X23588Y38999D01*
X25588D01*
X26587Y37999D01*
Y36999D01*
X22589D01*
X29586Y38999D02*
X31586D01*
X32585Y37999D01*
Y35000D01*
X29586D01*
X28587Y36000D01*
X29586Y36999D01*
X32585D01*
X34585Y35000D02*
Y40998D01*
Y36999D02*
X37584Y38999D01*
X34585Y36999D02*
X37584Y35000D01*
X41583D02*
X43582D01*
X44582Y36000D01*
Y37999D01*
X43582Y38999D01*
X41583D01*
X40583Y37999D01*
Y36000D01*
X41583Y35000D01*
X46581Y38999D02*
Y36000D01*
X47581Y35000D01*
X50580D01*
Y38999D01*
X53579Y39998D02*
Y38999D01*
X52579D01*
X54578D01*
X53579D01*
Y36000D01*
X54578Y35000D01*
X63575D02*
Y40998D01*
X66575D01*
X67574Y39998D01*
Y37999D01*
X66575Y36999D01*
X63575D01*
X73572Y39998D02*
X72572Y40998D01*
X70573D01*
X69573Y39998D01*
Y36000D01*
X70573Y35000D01*
X72572D01*
X73572Y36000D01*
X75572Y40998D02*
Y35000D01*
X78571D01*
X79570Y36000D01*
Y36999D01*
X78571Y37999D01*
X75572D01*
X78571D01*
X79570Y38999D01*
Y39998D01*
X78571Y40998D01*
X75572D01*
X87568Y35000D02*
Y40998D01*
X90567D01*
X91566Y39998D01*
Y37999D01*
X90567Y36999D01*
X87568D01*
X89567D02*
X91566Y35000D01*
X96565D02*
X94565D01*
X93566Y36000D01*
Y37999D01*
X94565Y38999D01*
X96565D01*
X97564Y37999D01*
Y36999D01*
X93566D01*
X99564Y38999D02*
X101563Y35000D01*
X103562Y38999D01*
X111560Y35000D02*
Y38999D01*
X113559Y40998D01*
X115559Y38999D01*
Y35000D01*
Y37999D01*
X111560D01*
X691800Y415849D02*
Y417848D01*
Y416849D01*
X685802D01*
X686802Y415849D01*
X691800Y424846D02*
Y420847D01*
X687801Y424846D01*
X686802D01*
X685802Y423846D01*
Y421847D01*
X686802Y420847D01*
X685802Y426845D02*
X689801D01*
X691800Y428845D01*
X689801Y430844D01*
X685802D01*
X246001Y129038D02*
X245001Y128039D01*
Y126039D01*
X246001Y125039D01*
X249999D01*
X250999Y126039D01*
Y128039D01*
X249999Y129038D01*
X250999Y131037D02*
Y133037D01*
Y132037D01*
X245001D01*
X246001Y131037D01*
Y136036D02*
X245001Y137036D01*
Y139035D01*
X246001Y140035D01*
X249999D01*
X250999Y139035D01*
Y137036D01*
X249999Y136036D01*
X246001D01*
X229503Y149536D02*
X233502D01*
X231503D01*
Y143538D01*
X235502D02*
Y149536D01*
X238500D01*
X239500Y148536D01*
Y146537D01*
X238500Y145537D01*
X235502D01*
X241499Y143538D02*
X243499D01*
X242499D01*
Y149536D01*
X241499Y148536D01*
X246498D02*
X247498Y149536D01*
X249497D01*
X250497Y148536D01*
Y147537D01*
X249497Y146537D01*
X250497Y145537D01*
Y144538D01*
X249497Y143538D01*
X247498D01*
X246498Y144538D01*
Y145537D01*
X247498Y146537D01*
X246498Y147537D01*
Y148536D01*
X247498Y146537D02*
X249497D01*
X104502Y195001D02*
Y200999D01*
X107501D01*
X108501Y199999D01*
Y198000D01*
X107501Y197000D01*
X104502D01*
X110501Y195001D02*
X112500D01*
X111500D01*
Y200999D01*
X110501Y199999D01*
X119498Y200999D02*
X115499D01*
Y198000D01*
X117498Y199000D01*
X118498D01*
X119498Y198000D01*
Y196001D01*
X118498Y195001D01*
X116499D01*
X115499Y196001D01*
X236999Y308003D02*
X231001D01*
Y311002D01*
X232001Y312001D01*
X234000D01*
X235000Y311002D01*
Y308003D01*
Y310002D02*
X236999Y312001D01*
X231001Y317999D02*
Y314001D01*
X234000D01*
X233000Y316000D01*
Y317000D01*
X234000Y317999D01*
X235999D01*
X236999Y317000D01*
Y315000D01*
X235999Y314001D01*
X231001Y323997D02*
Y319999D01*
X234000D01*
X233000Y321998D01*
Y322998D01*
X234000Y323997D01*
X235999D01*
X236999Y322998D01*
Y320998D01*
X235999Y319999D01*
X100999Y271002D02*
X95001D01*
Y274001D01*
X96001Y275001D01*
X98000D01*
X99000Y274001D01*
Y271002D01*
X100999Y280999D02*
Y277000D01*
X97000Y280999D01*
X96001D01*
X95001Y279999D01*
Y278000D01*
X96001Y277000D01*
X100999Y282998D02*
Y284998D01*
Y283998D01*
X95001D01*
X96001Y282998D01*
X27001Y300498D02*
X32999D01*
Y297499D01*
X31999Y296499D01*
X30000D01*
X29000Y297499D01*
Y300498D01*
Y298499D02*
X27001Y296499D01*
Y294500D02*
Y292500D01*
Y293500D01*
X32999D01*
X31999Y294500D01*
X27001Y289502D02*
Y287502D01*
Y288502D01*
X32999D01*
X31999Y289502D01*
X27001Y325498D02*
X32999D01*
Y322498D01*
X31999Y321499D01*
X30000D01*
X29000Y322498D01*
Y325498D01*
Y323498D02*
X27001Y321499D01*
Y319499D02*
Y317500D01*
Y318500D01*
X32999D01*
X31999Y319499D01*
Y314501D02*
X32999Y313502D01*
Y311502D01*
X31999Y310502D01*
X28001D01*
X27001Y311502D01*
Y313502D01*
X28001Y314501D01*
X31999D01*
X26999Y404502D02*
X21001D01*
Y407502D01*
X22001Y408501D01*
X24000D01*
X25000Y407502D01*
Y404502D01*
X26999Y410500D02*
Y412500D01*
Y411500D01*
X21001D01*
X22001Y410500D01*
Y415499D02*
X21001Y416499D01*
Y418498D01*
X22001Y419498D01*
X23000D01*
X24000Y418498D01*
Y417498D01*
Y418498D01*
X25000Y419498D01*
X25999D01*
X26999Y418498D01*
Y416499D01*
X25999Y415499D01*
X94999Y389502D02*
X89001D01*
Y392501D01*
X90001Y393501D01*
X92000D01*
X93000Y392501D01*
Y389502D01*
X94999Y395500D02*
Y397499D01*
Y396500D01*
X89001D01*
X90001Y395500D01*
X94999Y400498D02*
Y402498D01*
Y401498D01*
X89001D01*
X90001Y400498D01*
X254003Y299001D02*
Y304999D01*
X257002D01*
X258001Y303999D01*
Y302000D01*
X257002Y301000D01*
X254003D01*
X256002D02*
X258001Y299001D01*
X263999Y304999D02*
X260001D01*
Y302000D01*
X262000Y303000D01*
X263000D01*
X263999Y302000D01*
Y300001D01*
X263000Y299001D01*
X261000D01*
X260001Y300001D01*
X269997Y304999D02*
X267998Y303999D01*
X265999Y302000D01*
Y300001D01*
X266998Y299001D01*
X268998D01*
X269997Y300001D01*
Y301000D01*
X268998Y302000D01*
X265999D01*
X90003Y185001D02*
Y190999D01*
X93002D01*
X94001Y189999D01*
Y188000D01*
X93002Y187000D01*
X90003D01*
X99999Y185001D02*
X96001D01*
X99999Y189000D01*
Y189999D01*
X99000Y190999D01*
X97000D01*
X96001Y189999D01*
X104998Y185001D02*
Y190999D01*
X101999Y188000D01*
X105997D01*
X72003Y245001D02*
Y250999D01*
X75002D01*
X76001Y249999D01*
Y248000D01*
X75002Y247000D01*
X72003D01*
X81999Y245001D02*
X78001D01*
X81999Y249000D01*
Y249999D01*
X81000Y250999D01*
X79000D01*
X78001Y249999D01*
X83999D02*
X84998Y250999D01*
X86998D01*
X87997Y249999D01*
Y249000D01*
X86998Y248000D01*
X85998D01*
X86998D01*
X87997Y247000D01*
Y246001D01*
X86998Y245001D01*
X84998D01*
X83999Y246001D01*
X72003Y287001D02*
Y292999D01*
X75002D01*
X76001Y291999D01*
Y290000D01*
X75002Y289000D01*
X72003D01*
X81999Y287001D02*
X78001D01*
X81999Y291000D01*
Y291999D01*
X81000Y292999D01*
X79000D01*
X78001Y291999D01*
X87997Y287001D02*
X83999D01*
X87997Y291000D01*
Y291999D01*
X86998Y292999D01*
X84998D01*
X83999Y291999D01*
X74501Y239999D02*
X73501Y240999D01*
X71502D01*
X70502Y239999D01*
Y236001D01*
X71502Y235001D01*
X73501D01*
X74501Y236001D01*
X76500Y235001D02*
X78500D01*
X77500D01*
Y240999D01*
X76500Y239999D01*
X84498Y235001D02*
Y240999D01*
X81499Y238000D01*
X85498D01*
X50998Y258999D02*
Y253001D01*
X47999D01*
X47000Y254001D01*
Y256000D01*
X47999Y257000D01*
X50998D01*
X45000Y257999D02*
X44001Y258999D01*
X42001D01*
X41002Y257999D01*
Y254001D01*
X42001Y253001D01*
X44001D01*
X45000Y254001D01*
Y255000D01*
X44001Y256000D01*
X41002D01*
X119500Y374500D02*
Y380498D01*
X122499D01*
X123499Y379498D01*
Y377499D01*
X122499Y376499D01*
X119500D01*
X125498Y379498D02*
X126498Y380498D01*
X128497D01*
X129497Y379498D01*
Y378499D01*
X128497Y377499D01*
X127497D01*
X128497D01*
X129497Y376499D01*
Y375500D01*
X128497Y374500D01*
X126498D01*
X125498Y375500D01*
X84999Y218998D02*
X80001D01*
X79001Y217999D01*
Y215999D01*
X80001Y215000D01*
X84999D01*
X83999Y213000D02*
X84999Y212001D01*
Y210001D01*
X83999Y209002D01*
X83000D01*
X82000Y210001D01*
Y211001D01*
Y210001D01*
X81000Y209002D01*
X80001D01*
X79001Y210001D01*
Y212001D01*
X80001Y213000D01*
X119998Y287001D02*
Y291999D01*
X118999Y292999D01*
X116999D01*
X116000Y291999D01*
Y287001D01*
X110002Y292999D02*
X114000D01*
X110002Y289000D01*
Y288001D01*
X111001Y287001D01*
X113001D01*
X114000Y288001D01*
X149300Y434498D02*
Y429500D01*
X150300Y428500D01*
X152299D01*
X153299Y429500D01*
Y434498D01*
X155298Y428500D02*
X157297D01*
X156298D01*
Y434498D01*
X155298Y433498D01*
X274003Y310999D02*
X278001D01*
X276002D01*
Y305001D01*
X280001D02*
Y310999D01*
X283000D01*
X283999Y309999D01*
Y308000D01*
X283000Y307000D01*
X280001D01*
X285999Y306001D02*
X286998Y305001D01*
X288998D01*
X289997Y306001D01*
Y309999D01*
X288998Y310999D01*
X286998D01*
X285999Y309999D01*
Y309000D01*
X286998Y308000D01*
X289997D01*
X124003Y248999D02*
X128001D01*
X126002D01*
Y243001D01*
X130001D02*
Y248999D01*
X133000D01*
X133999Y247999D01*
Y246000D01*
X133000Y245000D01*
X130001D01*
X135999Y247999D02*
X136998Y248999D01*
X138998D01*
X139997Y247999D01*
Y247000D01*
X138998Y246000D01*
X139997Y245000D01*
Y244001D01*
X138998Y243001D01*
X136998D01*
X135999Y244001D01*
Y245000D01*
X136998Y246000D01*
X135999Y247000D01*
Y247999D01*
X136998Y246000D02*
X138998D01*
X18439Y347001D02*
Y352999D01*
X21439D01*
X22438Y351999D01*
Y350000D01*
X21439Y349000D01*
X18439D01*
X20439D02*
X22438Y347001D01*
X24438D02*
X26437D01*
X25437D01*
Y352999D01*
X24438Y351999D01*
X32435Y347001D02*
Y352999D01*
X29436Y350000D01*
X33435D01*
X70502Y349001D02*
Y354999D01*
X73501D01*
X74501Y353999D01*
Y352000D01*
X73501Y351000D01*
X70502D01*
X72502D02*
X74501Y349001D01*
X76500D02*
X78500D01*
X77500D01*
Y354999D01*
X76500Y353999D01*
X85498Y349001D02*
X81499D01*
X85498Y353000D01*
Y353999D01*
X84498Y354999D01*
X82499D01*
X81499Y353999D01*
X153002Y233001D02*
Y238999D01*
X156001D01*
X157000Y237999D01*
Y236000D01*
X156001Y235000D01*
X153002D01*
X155001D02*
X157000Y233001D01*
X159000Y237999D02*
X159999Y238999D01*
X161999D01*
X162998Y237999D01*
Y237000D01*
X161999Y236000D01*
X162998Y235000D01*
Y234001D01*
X161999Y233001D01*
X159999D01*
X159000Y234001D01*
Y235000D01*
X159999Y236000D01*
X159000Y237000D01*
Y237999D01*
X159999Y236000D02*
X161999D01*
X179002Y247001D02*
Y252999D01*
X182001D01*
X183000Y251999D01*
Y250000D01*
X182001Y249000D01*
X179002D01*
X181001D02*
X183000Y247001D01*
X185000Y252999D02*
X188998D01*
Y251999D01*
X185000Y248001D01*
Y247001D01*
X191002Y283001D02*
Y288999D01*
X194001D01*
X195000Y287999D01*
Y286000D01*
X194001Y285000D01*
X191002D01*
X193001D02*
X195000Y283001D01*
X200998Y288999D02*
X198999Y287999D01*
X197000Y286000D01*
Y284001D01*
X197999Y283001D01*
X199999D01*
X200998Y284001D01*
Y285000D01*
X199999Y286000D01*
X197000D01*
X189002Y301001D02*
Y306999D01*
X192001D01*
X193000Y305999D01*
Y304000D01*
X192001Y303000D01*
X189002D01*
X191001D02*
X193000Y301001D01*
X198998Y306999D02*
X195000D01*
Y304000D01*
X196999Y305000D01*
X197999D01*
X198998Y304000D01*
Y302001D01*
X197999Y301001D01*
X195999D01*
X195000Y302001D01*
X123002Y263001D02*
Y268999D01*
X126001D01*
X127000Y267999D01*
Y266000D01*
X126001Y265000D01*
X123002D01*
X125001D02*
X127000Y263001D01*
X131999D02*
Y268999D01*
X129000Y266000D01*
X132998D01*
X139002Y283001D02*
Y288999D01*
X142001D01*
X143000Y287999D01*
Y286000D01*
X142001Y285000D01*
X139002D01*
X141001D02*
X143000Y283001D01*
X145000Y287999D02*
X145999Y288999D01*
X147999D01*
X148998Y287999D01*
Y287000D01*
X147999Y286000D01*
X146999D01*
X147999D01*
X148998Y285000D01*
Y284001D01*
X147999Y283001D01*
X145999D01*
X145000Y284001D01*
X125002Y227001D02*
Y232999D01*
X128001D01*
X129000Y231999D01*
Y230000D01*
X128001Y229000D01*
X125002D01*
X127001D02*
X129000Y227001D01*
X134998D02*
X131000D01*
X134998Y231000D01*
Y231999D01*
X133999Y232999D01*
X131999D01*
X131000Y231999D01*
X176001Y221001D02*
Y226999D01*
X179000D01*
X180000Y225999D01*
Y224000D01*
X179000Y223000D01*
X176001D01*
X178001D02*
X180000Y221001D01*
X181999D02*
X183999D01*
X182999D01*
Y226999D01*
X181999Y225999D01*
X22502Y369001D02*
Y374999D01*
X25501D01*
X26501Y373999D01*
Y372000D01*
X25501Y371000D01*
X22502D01*
X28501Y369001D02*
X30500D01*
X29500D01*
Y374999D01*
X28501Y373999D01*
X37498Y374999D02*
X35498Y373999D01*
X33499Y372000D01*
Y370001D01*
X34499Y369001D01*
X36498D01*
X37498Y370001D01*
Y371000D01*
X36498Y372000D01*
X33499D01*
X296502Y303001D02*
Y308999D01*
X299501D01*
X300501Y307999D01*
Y306000D01*
X299501Y305000D01*
X296502D01*
X302501Y303001D02*
X304500D01*
X303500D01*
Y308999D01*
X302501Y307999D01*
X311498Y303001D02*
X307499D01*
X311498Y307000D01*
Y307999D01*
X310498Y308999D01*
X308499D01*
X307499Y307999D01*
X82502Y259001D02*
Y264999D01*
X85501D01*
X86501Y263999D01*
Y262000D01*
X85501Y261000D01*
X82502D01*
X88500Y259001D02*
X90500D01*
X89500D01*
Y264999D01*
X88500Y263999D01*
X93499D02*
X94499Y264999D01*
X96498D01*
X97498Y263999D01*
Y260001D01*
X96498Y259001D01*
X94499D01*
X93499Y260001D01*
Y263999D01*
X160999Y193002D02*
X155001D01*
Y196001D01*
X156001Y197000D01*
X158000D01*
X159000Y196001D01*
Y193002D01*
X160999Y202998D02*
Y199000D01*
X157000Y202998D01*
X156001D01*
X155001Y201999D01*
Y199999D01*
X156001Y199000D01*
X160999Y208001D02*
X155001D01*
Y211000D01*
X156001Y212000D01*
X158000D01*
X159000Y211000D01*
Y208001D01*
X160999Y213999D02*
Y215999D01*
Y214999D01*
X155001D01*
X156001Y213999D01*
X80001Y195000D02*
X79001Y194001D01*
Y192001D01*
X80001Y191002D01*
X83999D01*
X84999Y192001D01*
Y194001D01*
X83999Y195000D01*
X79001Y200998D02*
Y197000D01*
X82000D01*
X81000Y198999D01*
Y199999D01*
X82000Y200998D01*
X83999D01*
X84999Y199999D01*
Y197999D01*
X83999Y197000D01*
X63000Y293999D02*
X62001Y294999D01*
X60001D01*
X59002Y293999D01*
Y290001D01*
X60001Y289001D01*
X62001D01*
X63000Y290001D01*
X67999Y289001D02*
Y294999D01*
X65000Y292000D01*
X68998D01*
X137000Y300259D02*
X136001Y301259D01*
X134001D01*
X133002Y300259D01*
Y296260D01*
X134001Y295261D01*
X136001D01*
X137000Y296260D01*
X139000Y300259D02*
X139999Y301259D01*
X141999D01*
X142998Y300259D01*
Y299259D01*
X141999Y298260D01*
X140999D01*
X141999D01*
X142998Y297260D01*
Y296260D01*
X141999Y295261D01*
X139999D01*
X139000Y296260D01*
X220999Y374698D02*
X219999Y375698D01*
X218000D01*
X217000Y374698D01*
Y370700D01*
X218000Y369700D01*
X219999D01*
X220999Y370700D01*
X226997Y369700D02*
X222998D01*
X226997Y373699D01*
Y374698D01*
X225997Y375698D01*
X223998D01*
X222998Y374698D01*
X344000Y319999D02*
X343000Y320999D01*
X341001D01*
X340001Y319999D01*
Y316001D01*
X341001Y315001D01*
X343000D01*
X344000Y316001D01*
X345999Y315001D02*
X347999D01*
X346999D01*
Y320999D01*
X345999Y319999D01*
X175600Y84398D02*
X179599D01*
X177599D01*
Y78400D01*
X181598D02*
Y84398D01*
X184597D01*
X185597Y83398D01*
Y81399D01*
X184597Y80399D01*
X181598D01*
X187596Y83398D02*
X188596Y84398D01*
X190595D01*
X191595Y83398D01*
Y82399D01*
X190595Y81399D01*
X189595D01*
X190595D01*
X191595Y80399D01*
Y79400D01*
X190595Y78400D01*
X188596D01*
X187596Y79400D01*
X245100Y58898D02*
X249099D01*
X247099D01*
Y52900D01*
X251098D02*
Y58898D01*
X254097D01*
X255097Y57898D01*
Y55899D01*
X254097Y54899D01*
X251098D01*
X261095Y52900D02*
X257096D01*
X261095Y56899D01*
Y57898D01*
X260095Y58898D01*
X258096D01*
X257096Y57898D01*
X201100Y74898D02*
X205099D01*
X203099D01*
Y68900D01*
X207098D02*
Y74898D01*
X210097D01*
X211097Y73898D01*
Y71899D01*
X210097Y70899D01*
X207098D01*
X213096Y68900D02*
X215095D01*
X214096D01*
Y74898D01*
X213096Y73898D01*
X530003Y61001D02*
Y66999D01*
X533002D01*
X534001Y65999D01*
Y64000D01*
X533002Y63000D01*
X530003D01*
X532002D02*
X534001Y61001D01*
X536001Y65999D02*
X537000Y66999D01*
X539000D01*
X539999Y65999D01*
Y65000D01*
X539000Y64000D01*
X539999Y63000D01*
Y62001D01*
X539000Y61001D01*
X537000D01*
X536001Y62001D01*
Y63000D01*
X537000Y64000D01*
X536001Y65000D01*
Y65999D01*
X537000Y64000D02*
X539000D01*
X541999Y65999D02*
X542998Y66999D01*
X544998D01*
X545997Y65999D01*
Y62001D01*
X544998Y61001D01*
X542998D01*
X541999Y62001D01*
Y65999D01*
X532003Y259001D02*
Y264999D01*
X535002D01*
X536001Y263999D01*
Y262000D01*
X535002Y261000D01*
X532003D01*
X534002D02*
X536001Y259001D01*
X538001Y264999D02*
X541999D01*
Y263999D01*
X538001Y260001D01*
Y259001D01*
X543999Y260001D02*
X544998Y259001D01*
X546998D01*
X547997Y260001D01*
Y263999D01*
X546998Y264999D01*
X544998D01*
X543999Y263999D01*
Y263000D01*
X544998Y262000D01*
X547997D01*
X603200Y57500D02*
Y63498D01*
X606199D01*
X607199Y62498D01*
Y60499D01*
X606199Y59499D01*
X603200D01*
X609198Y62498D02*
X610198Y63498D01*
X612197D01*
X613197Y62498D01*
Y61499D01*
X612197Y60499D01*
X611197D01*
X612197D01*
X613197Y59499D01*
Y58500D01*
X612197Y57500D01*
X610198D01*
X609198Y58500D01*
X615196Y57500D02*
X617196D01*
X616196D01*
Y63498D01*
X615196Y62498D01*
X623500Y82500D02*
Y88498D01*
X626499D01*
X627499Y87498D01*
Y85499D01*
X626499Y84499D01*
X623500D01*
X633497Y88498D02*
X629498D01*
Y85499D01*
X631497Y86499D01*
X632497D01*
X633497Y85499D01*
Y83500D01*
X632497Y82500D01*
X630498D01*
X629498Y83500D01*
X154900Y59500D02*
Y65498D01*
X157899D01*
X158899Y64498D01*
Y62499D01*
X157899Y61499D01*
X154900D01*
X163897Y59500D02*
Y65498D01*
X160898Y62499D01*
X164897D01*
X546999Y174624D02*
X542001D01*
X541001Y173624D01*
Y171625D01*
X542001Y170625D01*
X546999D01*
X541001Y168626D02*
Y166627D01*
Y167626D01*
X546999D01*
X545999Y168626D01*
X541001Y163627D02*
Y161628D01*
Y162628D01*
X546999D01*
X545999Y163627D01*
X454502Y195125D02*
Y190127D01*
X455502Y189127D01*
X457502D01*
X458501Y190127D01*
Y195125D01*
X460500Y189127D02*
X462500D01*
X461500D01*
Y195125D01*
X460500Y194125D01*
X469498Y189127D02*
X465499D01*
X469498Y193126D01*
Y194125D01*
X468498Y195125D01*
X466499D01*
X465499Y194125D01*
X416003Y153127D02*
Y159125D01*
X419002D01*
X420001Y158125D01*
Y156126D01*
X419002Y155126D01*
X416003D01*
X418002D02*
X420001Y153127D01*
X425999Y159125D02*
X424000Y158125D01*
X422001Y156126D01*
Y154127D01*
X423000Y153127D01*
X425000D01*
X425999Y154127D01*
Y155126D01*
X425000Y156126D01*
X422001D01*
X430998Y153127D02*
Y159125D01*
X427999Y156126D01*
X431997D01*
X416003Y141127D02*
Y147125D01*
X419002D01*
X420001Y146125D01*
Y144126D01*
X419002Y143126D01*
X416003D01*
X418002D02*
X420001Y141127D01*
X425999Y147125D02*
X424000Y146125D01*
X422001Y144126D01*
Y142127D01*
X423000Y141127D01*
X425000D01*
X425999Y142127D01*
Y143126D01*
X425000Y144126D01*
X422001D01*
X431997Y147125D02*
X429998Y146125D01*
X427999Y144126D01*
Y142127D01*
X428998Y141127D01*
X430998D01*
X431997Y142127D01*
Y143126D01*
X430998Y144126D01*
X427999D01*
X594003Y143001D02*
Y148999D01*
X597002D01*
X598001Y147999D01*
Y146000D01*
X597002Y145000D01*
X594003D01*
X596002D02*
X598001Y143001D01*
X603999Y148999D02*
X600001D01*
Y146000D01*
X602000Y147000D01*
X603000D01*
X603999Y146000D01*
Y144001D01*
X603000Y143001D01*
X601000D01*
X600001Y144001D01*
X605999Y148999D02*
X609997D01*
Y147999D01*
X605999Y144001D01*
Y143001D01*
X548400Y212700D02*
Y218698D01*
X551399D01*
X552399Y217698D01*
Y215699D01*
X551399Y214699D01*
X548400D01*
X550399D02*
X552399Y212700D01*
X558397Y218698D02*
X554398D01*
Y215699D01*
X556397Y216699D01*
X557397D01*
X558397Y215699D01*
Y213700D01*
X557397Y212700D01*
X555398D01*
X554398Y213700D01*
X560396Y217698D02*
X561396Y218698D01*
X563395D01*
X564395Y217698D01*
Y216699D01*
X563395Y215699D01*
X564395Y214699D01*
Y213700D01*
X563395Y212700D01*
X561396D01*
X560396Y213700D01*
Y214699D01*
X561396Y215699D01*
X560396Y216699D01*
Y217698D01*
X561396Y215699D02*
X563395D01*
X452003Y129127D02*
Y135125D01*
X455002D01*
X456001Y134125D01*
Y132126D01*
X455002Y131126D01*
X452003D01*
X454002D02*
X456001Y129127D01*
X461999Y135125D02*
X460000Y134125D01*
X458001Y132126D01*
Y130127D01*
X459000Y129127D01*
X461000D01*
X461999Y130127D01*
Y131126D01*
X461000Y132126D01*
X458001D01*
X463999Y135125D02*
X467997D01*
Y134125D01*
X463999Y130127D01*
Y129127D01*
X416003Y177127D02*
Y183125D01*
X419002D01*
X420001Y182125D01*
Y180126D01*
X419002Y179126D01*
X416003D01*
X418002D02*
X420001Y177127D01*
X425999Y183125D02*
X424000Y182125D01*
X422001Y180126D01*
Y178127D01*
X423000Y177127D01*
X425000D01*
X425999Y178127D01*
Y179126D01*
X425000Y180126D01*
X422001D01*
X431997Y177127D02*
X427999D01*
X431997Y181126D01*
Y182125D01*
X430998Y183125D01*
X428998D01*
X427999Y182125D01*
X430003Y117127D02*
Y123125D01*
X433002D01*
X434001Y122125D01*
Y120126D01*
X433002Y119126D01*
X430003D01*
X432002D02*
X434001Y117127D01*
X439999Y123125D02*
X438000Y122125D01*
X436001Y120126D01*
Y118127D01*
X437000Y117127D01*
X439000D01*
X439999Y118127D01*
Y119126D01*
X439000Y120126D01*
X436001D01*
X441999Y122125D02*
X442998Y123125D01*
X444998D01*
X445997Y122125D01*
Y121126D01*
X444998Y120126D01*
X445997Y119126D01*
Y118127D01*
X444998Y117127D01*
X442998D01*
X441999Y118127D01*
Y119126D01*
X442998Y120126D01*
X441999Y121126D01*
Y122125D01*
X442998Y120126D02*
X444998D01*
X416003Y165127D02*
Y171125D01*
X419002D01*
X420001Y170125D01*
Y168126D01*
X419002Y167126D01*
X416003D01*
X418002D02*
X420001Y165127D01*
X425999Y171125D02*
X424000Y170125D01*
X422001Y168126D01*
Y166127D01*
X423000Y165127D01*
X425000D01*
X425999Y166127D01*
Y167126D01*
X425000Y168126D01*
X422001D01*
X427999Y170125D02*
X428998Y171125D01*
X430998D01*
X431997Y170125D01*
Y169126D01*
X430998Y168126D01*
X429998D01*
X430998D01*
X431997Y167126D01*
Y166127D01*
X430998Y165127D01*
X428998D01*
X427999Y166127D01*
X492003Y129001D02*
Y134999D01*
X495002D01*
X496001Y133999D01*
Y132000D01*
X495002Y131000D01*
X492003D01*
X494002D02*
X496001Y129001D01*
X501999Y134999D02*
X500000Y133999D01*
X498001Y132000D01*
Y130001D01*
X499000Y129001D01*
X501000D01*
X501999Y130001D01*
Y131000D01*
X501000Y132000D01*
X498001D01*
X503999Y130001D02*
X504998Y129001D01*
X506998D01*
X507997Y130001D01*
Y133999D01*
X506998Y134999D01*
X504998D01*
X503999Y133999D01*
Y133000D01*
X504998Y132000D01*
X507997D01*
X433000Y203800D02*
Y209798D01*
X435999D01*
X436999Y208798D01*
Y206799D01*
X435999Y205799D01*
X433000D01*
X434999D02*
X436999Y203800D01*
X442997Y209798D02*
X440997Y208798D01*
X438998Y206799D01*
Y204800D01*
X439998Y203800D01*
X441997D01*
X442997Y204800D01*
Y205799D01*
X441997Y206799D01*
X438998D01*
X444996Y208798D02*
X445996Y209798D01*
X447995D01*
X448995Y208798D01*
Y204800D01*
X447995Y203800D01*
X445996D01*
X444996Y204800D01*
Y208798D01*
X526600Y204100D02*
Y210098D01*
X529599D01*
X530599Y209098D01*
Y207099D01*
X529599Y206099D01*
X526600D01*
X528599D02*
X530599Y204100D01*
X536597Y210098D02*
X532598D01*
Y207099D01*
X534597Y208099D01*
X535597D01*
X536597Y207099D01*
Y205100D01*
X535597Y204100D01*
X533598D01*
X532598Y205100D01*
X538596D02*
X539596Y204100D01*
X541595D01*
X542595Y205100D01*
Y209098D01*
X541595Y210098D01*
X539596D01*
X538596Y209098D01*
Y208099D01*
X539596Y207099D01*
X542595D01*
X520999Y131128D02*
X515001D01*
Y134127D01*
X516001Y135127D01*
X518000D01*
X519000Y134127D01*
Y131128D01*
Y133128D02*
X520999Y135127D01*
X515001Y141125D02*
X516001Y139126D01*
X518000Y137126D01*
X519999D01*
X520999Y138126D01*
Y140125D01*
X519999Y141125D01*
X519000D01*
X518000Y140125D01*
Y137126D01*
X520999Y143124D02*
Y145124D01*
Y144124D01*
X515001D01*
X516001Y143124D01*
X553500Y182600D02*
Y188598D01*
X556499D01*
X557499Y187598D01*
Y185599D01*
X556499Y184599D01*
X553500D01*
X559498Y187598D02*
X560498Y188598D01*
X562497D01*
X563497Y187598D01*
Y186599D01*
X562497Y185599D01*
X561497D01*
X562497D01*
X563497Y184599D01*
Y183600D01*
X562497Y182600D01*
X560498D01*
X559498Y183600D01*
X565496Y187598D02*
X566496Y188598D01*
X568495D01*
X569495Y187598D01*
Y183600D01*
X568495Y182600D01*
X566496D01*
X565496Y183600D01*
Y187598D01*
X473500Y204600D02*
Y210598D01*
X476499D01*
X477499Y209598D01*
Y207599D01*
X476499Y206599D01*
X473500D01*
X483497Y204600D02*
X479498D01*
X483497Y208599D01*
Y209598D01*
X482497Y210598D01*
X480498D01*
X479498Y209598D01*
X485496Y205600D02*
X486496Y204600D01*
X488495D01*
X489495Y205600D01*
Y209598D01*
X488495Y210598D01*
X486496D01*
X485496Y209598D01*
Y208599D01*
X486496Y207599D01*
X489495D01*
X554501Y143999D02*
X553502Y144999D01*
X551502D01*
X550502Y143999D01*
Y140001D01*
X551502Y139001D01*
X553502D01*
X554501Y140001D01*
X556500Y139001D02*
X558500D01*
X557500D01*
Y144999D01*
X556500Y143999D01*
X565498Y144999D02*
X561499D01*
Y142000D01*
X563498Y143000D01*
X564498D01*
X565498Y142000D01*
Y140001D01*
X564498Y139001D01*
X562499D01*
X561499Y140001D01*
X507999Y183499D02*
X508999Y184499D01*
Y186498D01*
X507999Y187498D01*
X504001D01*
X503001Y186498D01*
Y184499D01*
X504001Y183499D01*
X503001Y181500D02*
Y179500D01*
Y180500D01*
X508999D01*
X507999Y181500D01*
Y176501D02*
X508999Y175501D01*
Y173502D01*
X507999Y172502D01*
X507000D01*
X506000Y173502D01*
Y174502D01*
Y173502D01*
X505000Y172502D01*
X504001D01*
X503001Y173502D01*
Y175501D01*
X504001Y176501D01*
X218502Y177536D02*
Y172538D01*
X219502Y171538D01*
X221501D01*
X222501Y172538D01*
Y177536D01*
X224500Y171538D02*
X226500D01*
X225500D01*
Y177536D01*
X224500Y176536D01*
X229499D02*
X230499Y177536D01*
X232498D01*
X233498Y176536D01*
Y172538D01*
X232498Y171538D01*
X230499D01*
X229499Y172538D01*
Y176536D01*
X206300Y141498D02*
Y136500D01*
X207300Y135500D01*
X209299D01*
X210299Y136500D01*
Y141498D01*
X212298D02*
X216297D01*
Y140498D01*
X212298Y136500D01*
Y135500D01*
X368999Y187535D02*
X364001D01*
X363001Y186536D01*
Y184536D01*
X364001Y183537D01*
X368999D01*
X364001Y181537D02*
X363001Y180538D01*
Y178538D01*
X364001Y177539D01*
X367999D01*
X368999Y178538D01*
Y180538D01*
X367999Y181537D01*
X367000D01*
X366000Y180538D01*
Y177539D01*
X477004Y238999D02*
X481002D01*
X479003D01*
Y233001D01*
X483002D02*
Y238999D01*
X486001D01*
X487000Y237999D01*
Y236000D01*
X486001Y235000D01*
X483002D01*
X492998Y233001D02*
X489000D01*
X492998Y237000D01*
Y237999D01*
X491999Y238999D01*
X489999D01*
X489000Y237999D01*
X494998D02*
X495997Y238999D01*
X497997D01*
X498996Y237999D01*
Y237000D01*
X497997Y236000D01*
X496997D01*
X497997D01*
X498996Y235000D01*
Y234001D01*
X497997Y233001D01*
X495997D01*
X494998Y234001D01*
X529004Y312999D02*
X533002D01*
X531003D01*
Y307001D01*
X535002D02*
Y312999D01*
X538001D01*
X539000Y311999D01*
Y310000D01*
X538001Y309000D01*
X535002D01*
X544998Y307001D02*
X541000D01*
X544998Y311000D01*
Y311999D01*
X543999Y312999D01*
X541999D01*
X541000Y311999D01*
X550996Y312999D02*
X546998D01*
Y310000D01*
X548997Y311000D01*
X549997D01*
X550996Y310000D01*
Y308001D01*
X549997Y307001D01*
X547997D01*
X546998Y308001D01*
X443004Y299125D02*
X447002D01*
X445003D01*
Y293127D01*
X449002D02*
Y299125D01*
X452001D01*
X453000Y298125D01*
Y296126D01*
X452001Y295126D01*
X449002D01*
X458998Y293127D02*
X455000D01*
X458998Y297126D01*
Y298125D01*
X457999Y299125D01*
X455999D01*
X455000Y298125D01*
X463997Y293127D02*
Y299125D01*
X460998Y296126D01*
X464996D01*
X165600Y184398D02*
X169599D01*
X167599D01*
Y178400D01*
X171598D02*
Y184398D01*
X174597D01*
X175597Y183398D01*
Y181399D01*
X174597Y180399D01*
X171598D01*
X181595Y178400D02*
X177596D01*
X181595Y182399D01*
Y183398D01*
X180595Y184398D01*
X178596D01*
X177596Y183398D01*
X187593Y178400D02*
X183594D01*
X187593Y182399D01*
Y183398D01*
X186593Y184398D01*
X184594D01*
X183594Y183398D01*
X227503Y73536D02*
X231502D01*
X229503D01*
Y67538D01*
X233502D02*
Y73536D01*
X236501D01*
X237500Y72536D01*
Y70537D01*
X236501Y69537D01*
X233502D01*
X239499Y67538D02*
X241499D01*
X240499D01*
Y73536D01*
X239499Y72536D01*
X244498Y73536D02*
X248497D01*
Y72536D01*
X244498Y68538D01*
Y67538D01*
X253004Y73536D02*
X257002D01*
X255003D01*
Y67538D01*
X259002D02*
Y73536D01*
X262001D01*
X263000Y72536D01*
Y70537D01*
X262001Y69537D01*
X259002D01*
X268998Y67538D02*
X265000D01*
X268998Y71537D01*
Y72536D01*
X267999Y73536D01*
X265999D01*
X265000Y72536D01*
X270998D02*
X271997Y73536D01*
X273997D01*
X274996Y72536D01*
Y68538D01*
X273997Y67538D01*
X271997D01*
X270998Y68538D01*
Y72536D01*
X339503Y112999D02*
X343502D01*
X341503D01*
Y107001D01*
X345501D02*
Y112999D01*
X348500D01*
X349500Y111999D01*
Y110000D01*
X348500Y109000D01*
X345501D01*
X351500Y107001D02*
X353499D01*
X352499D01*
Y112999D01*
X351500Y111999D01*
X356498Y108001D02*
X357498Y107001D01*
X359497D01*
X360497Y108001D01*
Y111999D01*
X359497Y112999D01*
X357498D01*
X356498Y111999D01*
Y111000D01*
X357498Y110000D01*
X360497D01*
X314003Y181536D02*
X318002D01*
X316003D01*
Y175538D01*
X320001D02*
Y181536D01*
X323000D01*
X324000Y180536D01*
Y178537D01*
X323000Y177537D01*
X320001D01*
X329998Y175538D02*
X325999D01*
X329998Y179537D01*
Y180536D01*
X328998Y181536D01*
X326999D01*
X325999Y180536D01*
X331997Y175538D02*
X333997D01*
X332997D01*
Y181536D01*
X331997Y180536D01*
X470003Y259001D02*
Y264999D01*
X473002D01*
X474001Y263999D01*
Y262000D01*
X473002Y261000D01*
X470003D01*
X472002D02*
X474001Y259001D01*
X476001Y263999D02*
X477000Y264999D01*
X479000D01*
X479999Y263999D01*
Y263000D01*
X479000Y262000D01*
X478000D01*
X479000D01*
X479999Y261000D01*
Y260001D01*
X479000Y259001D01*
X477000D01*
X476001Y260001D01*
X481999Y263999D02*
X482998Y264999D01*
X484998D01*
X485997Y263999D01*
Y263000D01*
X484998Y262000D01*
X485997Y261000D01*
Y260001D01*
X484998Y259001D01*
X482998D01*
X481999Y260001D01*
Y261000D01*
X482998Y262000D01*
X481999Y263000D01*
Y263999D01*
X482998Y262000D02*
X484998D01*
X450999Y274129D02*
X445001D01*
Y277128D01*
X446001Y278127D01*
X448000D01*
X449000Y277128D01*
Y274129D01*
Y276128D02*
X450999Y278127D01*
X446001Y280127D02*
X445001Y281126D01*
Y283126D01*
X446001Y284125D01*
X447000D01*
X448000Y283126D01*
Y282126D01*
Y283126D01*
X449000Y284125D01*
X449999D01*
X450999Y283126D01*
Y281126D01*
X449999Y280127D01*
X450999Y289124D02*
X445001D01*
X448000Y286125D01*
Y290123D01*
X510003Y277127D02*
Y283125D01*
X513002D01*
X514001Y282125D01*
Y280126D01*
X513002Y279126D01*
X510003D01*
X512002D02*
X514001Y277127D01*
X519999Y283125D02*
X516001D01*
Y280126D01*
X518000Y281126D01*
X519000D01*
X519999Y280126D01*
Y278127D01*
X519000Y277127D01*
X517000D01*
X516001Y278127D01*
X525997Y277127D02*
X521999D01*
X525997Y281126D01*
Y282125D01*
X524998Y283125D01*
X522998D01*
X521999Y282125D01*
X420003Y299001D02*
Y304999D01*
X423002D01*
X424001Y303999D01*
Y302000D01*
X423002Y301000D01*
X420003D01*
X422002D02*
X424001Y299001D01*
X426001Y303999D02*
X427000Y304999D01*
X429000D01*
X429999Y303999D01*
Y303000D01*
X429000Y302000D01*
X428000D01*
X429000D01*
X429999Y301000D01*
Y300001D01*
X429000Y299001D01*
X427000D01*
X426001Y300001D01*
X435997Y304999D02*
X433998Y303999D01*
X431999Y302000D01*
Y300001D01*
X432998Y299001D01*
X434998D01*
X435997Y300001D01*
Y301000D01*
X434998Y302000D01*
X431999D01*
X450999Y220003D02*
X445001D01*
Y223002D01*
X446001Y224001D01*
X448000D01*
X449000Y223002D01*
Y220003D01*
Y222002D02*
X450999Y224001D01*
X446001Y226001D02*
X445001Y227000D01*
Y229000D01*
X446001Y229999D01*
X447000D01*
X448000Y229000D01*
Y228000D01*
Y229000D01*
X449000Y229999D01*
X449999D01*
X450999Y229000D01*
Y227000D01*
X449999Y226001D01*
X445001Y231999D02*
Y235997D01*
X446001D01*
X449999Y231999D01*
X450999D01*
X425200Y277900D02*
Y283898D01*
X428199D01*
X429199Y282898D01*
Y280899D01*
X428199Y279899D01*
X425200D01*
X427199D02*
X429199Y277900D01*
X435197Y283898D02*
X431198D01*
Y280899D01*
X433197Y281899D01*
X434197D01*
X435197Y280899D01*
Y278900D01*
X434197Y277900D01*
X432198D01*
X431198Y278900D01*
X437196Y277900D02*
X439195D01*
X438196D01*
Y283898D01*
X437196Y282898D01*
X468200Y282800D02*
Y288798D01*
X471199D01*
X472199Y287798D01*
Y285799D01*
X471199Y284799D01*
X468200D01*
X470199D02*
X472199Y282800D01*
X474198Y287798D02*
X475198Y288798D01*
X477197D01*
X478197Y287798D01*
Y286799D01*
X477197Y285799D01*
X476197D01*
X477197D01*
X478197Y284799D01*
Y283800D01*
X477197Y282800D01*
X475198D01*
X474198Y283800D01*
X484195Y288798D02*
X480196D01*
Y285799D01*
X482196Y286799D01*
X483195D01*
X484195Y285799D01*
Y283800D01*
X483195Y282800D01*
X481196D01*
X480196Y283800D01*
X561200Y277800D02*
Y283798D01*
X564199D01*
X565199Y282798D01*
Y280799D01*
X564199Y279799D01*
X561200D01*
X563199D02*
X565199Y277800D01*
X567198Y282798D02*
X568198Y283798D01*
X570197D01*
X571197Y282798D01*
Y281799D01*
X570197Y280799D01*
X569197D01*
X570197D01*
X571197Y279799D01*
Y278800D01*
X570197Y277800D01*
X568198D01*
X567198Y278800D01*
X573196D02*
X574196Y277800D01*
X576195D01*
X577195Y278800D01*
Y282798D01*
X576195Y283798D01*
X574196D01*
X573196Y282798D01*
Y281799D01*
X574196Y280799D01*
X577195D01*
X370003Y223538D02*
Y229536D01*
X373002D01*
X374001Y228536D01*
Y226537D01*
X373002Y225537D01*
X370003D01*
X372002D02*
X374001Y223538D01*
X379999Y229536D02*
X376001D01*
Y226537D01*
X378000Y227537D01*
X379000D01*
X379999Y226537D01*
Y224538D01*
X379000Y223538D01*
X377000D01*
X376001Y224538D01*
X384998Y223538D02*
Y229536D01*
X381999Y226537D01*
X385997D01*
X266003Y77538D02*
Y83536D01*
X269002D01*
X270001Y82536D01*
Y80537D01*
X269002Y79537D01*
X266003D01*
X268002D02*
X270001Y77538D01*
X272001Y82536D02*
X273000Y83536D01*
X275000D01*
X275999Y82536D01*
Y81537D01*
X275000Y80537D01*
X274000D01*
X275000D01*
X275999Y79537D01*
Y78538D01*
X275000Y77538D01*
X273000D01*
X272001Y78538D01*
X277999Y82536D02*
X278998Y83536D01*
X280998D01*
X281997Y82536D01*
Y81537D01*
X280998Y80537D01*
X279998D01*
X280998D01*
X281997Y79537D01*
Y78538D01*
X280998Y77538D01*
X278998D01*
X277999Y78538D01*
X173940Y165538D02*
Y171536D01*
X176939D01*
X177938Y170536D01*
Y168537D01*
X176939Y167537D01*
X173940D01*
X175939D02*
X177938Y165538D01*
X183936D02*
X179938D01*
X183936Y169537D01*
Y170536D01*
X182937Y171536D01*
X180937D01*
X179938Y170536D01*
X189934Y171536D02*
X185936D01*
Y168537D01*
X187935Y169537D01*
X188935D01*
X189934Y168537D01*
Y166538D01*
X188935Y165538D01*
X186935D01*
X185936Y166538D01*
X194003Y173538D02*
Y179536D01*
X197002D01*
X198001Y178536D01*
Y176537D01*
X197002Y175537D01*
X194003D01*
X196002D02*
X198001Y173538D01*
X203999D02*
X200001D01*
X203999Y177537D01*
Y178536D01*
X203000Y179536D01*
X201000D01*
X200001Y178536D01*
X205999Y174538D02*
X206998Y173538D01*
X208998D01*
X209997Y174538D01*
Y178536D01*
X208998Y179536D01*
X206998D01*
X205999Y178536D01*
Y177537D01*
X206998Y176537D01*
X209997D01*
X213500Y98200D02*
Y104198D01*
X216499D01*
X217499Y103198D01*
Y101199D01*
X216499Y100199D01*
X213500D01*
X215499D02*
X217499Y98200D01*
X223497D02*
X219498D01*
X223497Y102199D01*
Y103198D01*
X222497Y104198D01*
X220498D01*
X219498Y103198D01*
X225496D02*
X226496Y104198D01*
X228495D01*
X229495Y103198D01*
Y102199D01*
X228495Y101199D01*
X229495Y100199D01*
Y99200D01*
X228495Y98200D01*
X226496D01*
X225496Y99200D01*
Y100199D01*
X226496Y101199D01*
X225496Y102199D01*
Y103198D01*
X226496Y101199D02*
X228495D01*
X234003Y97538D02*
Y103536D01*
X237002D01*
X238001Y102536D01*
Y100537D01*
X237002Y99537D01*
X234003D01*
X236002D02*
X238001Y97538D01*
X240001Y102536D02*
X241000Y103536D01*
X243000D01*
X243999Y102536D01*
Y101537D01*
X243000Y100537D01*
X242000D01*
X243000D01*
X243999Y99537D01*
Y98538D01*
X243000Y97538D01*
X241000D01*
X240001Y98538D01*
X245999Y102536D02*
X246998Y103536D01*
X248998D01*
X249997Y102536D01*
Y98538D01*
X248998Y97538D01*
X246998D01*
X245999Y98538D01*
Y102536D01*
X252003Y157001D02*
Y162999D01*
X255002D01*
X256001Y161999D01*
Y160000D01*
X255002Y159000D01*
X252003D01*
X254002D02*
X256001Y157001D01*
X258001Y161999D02*
X259000Y162999D01*
X261000D01*
X261999Y161999D01*
Y161000D01*
X261000Y160000D01*
X260000D01*
X261000D01*
X261999Y159000D01*
Y158001D01*
X261000Y157001D01*
X259000D01*
X258001Y158001D01*
X267997Y157001D02*
X263999D01*
X267997Y161000D01*
Y161999D01*
X266998Y162999D01*
X264998D01*
X263999Y161999D01*
X198003Y197538D02*
Y203536D01*
X201002D01*
X202001Y202536D01*
Y200537D01*
X201002Y199537D01*
X198003D01*
X200002D02*
X202001Y197538D01*
X207999D02*
X204001D01*
X207999Y201537D01*
Y202536D01*
X207000Y203536D01*
X205000D01*
X204001Y202536D01*
X212998Y197538D02*
Y203536D01*
X209999Y200537D01*
X213997D01*
X285500Y178200D02*
Y184198D01*
X288499D01*
X289499Y183198D01*
Y181199D01*
X288499Y180199D01*
X285500D01*
X287499D02*
X289499Y178200D01*
X291498Y183198D02*
X292498Y184198D01*
X294497D01*
X295497Y183198D01*
Y182199D01*
X294497Y181199D01*
X293497D01*
X294497D01*
X295497Y180199D01*
Y179200D01*
X294497Y178200D01*
X292498D01*
X291498Y179200D01*
X297496Y178200D02*
X299496D01*
X298496D01*
Y184198D01*
X297496Y183198D01*
X274003Y115538D02*
Y121536D01*
X277002D01*
X278001Y120536D01*
Y118537D01*
X277002Y117537D01*
X274003D01*
X276002D02*
X278001Y115538D01*
X283999D02*
X280001D01*
X283999Y119537D01*
Y120536D01*
X283000Y121536D01*
X281000D01*
X280001Y120536D01*
X285999Y121536D02*
X289997D01*
Y120536D01*
X285999Y116538D01*
Y115538D01*
X265001Y151997D02*
X270999D01*
Y148998D01*
X269999Y147999D01*
X268000D01*
X267000Y148998D01*
Y151997D01*
Y149998D02*
X265001Y147999D01*
Y142001D02*
Y145999D01*
X269000Y142001D01*
X269999D01*
X270999Y143000D01*
Y145000D01*
X269999Y145999D01*
X270999Y136003D02*
X269999Y138002D01*
X268000Y140001D01*
X266001D01*
X265001Y139002D01*
Y137002D01*
X266001Y136003D01*
X267000D01*
X268000Y137002D01*
Y140001D01*
X425000Y254127D02*
Y258125D01*
X424001Y259125D01*
X422001D01*
X421002Y258125D01*
Y254127D01*
X422001Y253127D01*
X424001D01*
X423001Y255126D02*
X425000Y253127D01*
X424001D02*
X425000Y254127D01*
X429999Y253127D02*
Y259125D01*
X427000Y256126D01*
X430998D01*
X495399Y285000D02*
Y288998D01*
X494399Y289998D01*
X492400D01*
X491400Y288998D01*
Y285000D01*
X492400Y284000D01*
X494399D01*
X493399Y285999D02*
X495399Y284000D01*
X494399D02*
X495399Y285000D01*
X501397Y284000D02*
X497398D01*
X501397Y287999D01*
Y288998D01*
X500397Y289998D01*
X498398D01*
X497398Y288998D01*
X445999Y255126D02*
X442001D01*
X441001Y254127D01*
Y252127D01*
X442001Y251128D01*
X445999D01*
X446999Y252127D01*
Y254127D01*
X445000Y253127D02*
X446999Y255126D01*
Y254127D02*
X445999Y255126D01*
X442001Y257126D02*
X441001Y258125D01*
Y260125D01*
X442001Y261124D01*
X443000D01*
X444000Y260125D01*
Y259125D01*
Y260125D01*
X445000Y261124D01*
X445999D01*
X446999Y260125D01*
Y258125D01*
X445999Y257126D01*
X310502Y73538D02*
Y79536D01*
X313502D01*
X314501Y78536D01*
Y76537D01*
X313502Y75537D01*
X310502D01*
X316500Y73538D02*
X318500D01*
X317500D01*
Y79536D01*
X316500Y78536D01*
X321499D02*
X322498Y79536D01*
X324498D01*
X325498Y78536D01*
Y77537D01*
X324498Y76537D01*
X325498Y75537D01*
Y74538D01*
X324498Y73538D01*
X322498D01*
X321499Y74538D01*
Y75537D01*
X322498Y76537D01*
X321499Y77537D01*
Y78536D01*
X322498Y76537D02*
X324498D01*
X571004Y256999D02*
Y251001D01*
X575002D01*
X581000Y256999D02*
X577002D01*
Y251001D01*
X581000D01*
X577002Y254000D02*
X579001D01*
X583000Y256999D02*
Y251001D01*
X585999D01*
X586998Y252001D01*
Y255999D01*
X585999Y256999D01*
X583000D01*
X588998Y252001D02*
X589997Y251001D01*
X591997D01*
X592997Y252001D01*
Y255999D01*
X591997Y256999D01*
X589997D01*
X588998Y255999D01*
Y255000D01*
X589997Y254000D01*
X592997D01*
X355004Y249536D02*
Y243538D01*
X359002D01*
X365000Y249536D02*
X361002D01*
Y243538D01*
X365000D01*
X361002Y246537D02*
X363001D01*
X367000Y249536D02*
Y243538D01*
X369999D01*
X370998Y244538D01*
Y248536D01*
X369999Y249536D01*
X367000D01*
X372998D02*
X376996D01*
Y248536D01*
X372998Y244538D01*
Y243538D01*
X170003Y203536D02*
Y197538D01*
X174002D01*
X180000Y203536D02*
X176001D01*
Y197538D01*
X180000D01*
X176001Y200537D02*
X178001D01*
X181999Y203536D02*
Y197538D01*
X184998D01*
X185998Y198538D01*
Y202536D01*
X184998Y203536D01*
X181999D01*
X187997Y197538D02*
X189997D01*
X188997D01*
Y203536D01*
X187997Y202536D01*
X161004Y152999D02*
Y147001D01*
X165002D01*
X171000Y152999D02*
X167002D01*
Y147001D01*
X171000D01*
X167002Y150000D02*
X169001D01*
X173000Y152999D02*
Y147001D01*
X175999D01*
X176998Y148001D01*
Y151999D01*
X175999Y152999D01*
X173000D01*
X182996D02*
X180997Y151999D01*
X178998Y150000D01*
Y148001D01*
X179997Y147001D01*
X181997D01*
X182996Y148001D01*
Y149000D01*
X181997Y150000D01*
X178998D01*
X313501Y171607D02*
X312501Y172607D01*
X310502D01*
X309502Y171607D01*
Y167608D01*
X310502Y166609D01*
X312501D01*
X313501Y167608D01*
X315500Y166609D02*
X317499D01*
X316500D01*
Y172607D01*
X315500Y171607D01*
X320498Y166609D02*
X322498D01*
X321498D01*
Y172607D01*
X320498Y171607D01*
X345203Y134138D02*
Y140136D01*
X348202D01*
X349201Y139136D01*
Y137137D01*
X348202Y136137D01*
X345203D01*
X355199Y134138D02*
X351201D01*
X355199Y138137D01*
Y139136D01*
X354200Y140136D01*
X352200D01*
X351201Y139136D01*
X357199D02*
X358198Y140136D01*
X360198D01*
X361197Y139136D01*
Y135138D01*
X360198Y134138D01*
X358198D01*
X357199Y135138D01*
Y139136D01*
X367000Y170536D02*
X366001Y171536D01*
X364001D01*
X363002Y170536D01*
Y166538D01*
X364001Y165538D01*
X366001D01*
X367000Y166538D01*
X369000Y170536D02*
X369999Y171536D01*
X371999D01*
X372998Y170536D01*
Y169537D01*
X371999Y168537D01*
X372998Y167537D01*
Y166538D01*
X371999Y165538D01*
X369999D01*
X369000Y166538D01*
Y167537D01*
X369999Y168537D01*
X369000Y169537D01*
Y170536D01*
X369999Y168537D02*
X371999D01*
X375001Y126534D02*
X380999D01*
Y123535D01*
X379999Y122536D01*
X378000D01*
X377000Y123535D01*
Y126534D01*
Y124535D02*
X375001Y122536D01*
X380999Y116538D02*
Y120536D01*
X378000D01*
X379000Y118537D01*
Y117537D01*
X378000Y116538D01*
X376001D01*
X375001Y117537D01*
Y119537D01*
X376001Y120536D01*
X379999Y114538D02*
X380999Y113539D01*
Y111539D01*
X379999Y110540D01*
X379000D01*
X378000Y111539D01*
Y112539D01*
Y111539D01*
X377000Y110540D01*
X376001D01*
X375001Y111539D01*
Y113539D01*
X376001Y114538D01*
X610999Y156003D02*
X605001D01*
Y159002D01*
X606001Y160001D01*
X608000D01*
X609000Y159002D01*
Y156003D01*
Y158002D02*
X610999Y160001D01*
X605001Y165999D02*
Y162001D01*
X608000D01*
X607000Y164000D01*
Y165000D01*
X608000Y165999D01*
X609999D01*
X610999Y165000D01*
Y163000D01*
X609999Y162001D01*
X606001Y167999D02*
X605001Y168998D01*
Y170998D01*
X606001Y171997D01*
X609999D01*
X610999Y170998D01*
Y168998D01*
X609999Y167999D01*
X606001D01*
X542303Y426401D02*
Y432399D01*
X545302D01*
X546301Y431399D01*
Y429400D01*
X545302Y428400D01*
X542303D01*
X544302D02*
X546301Y426401D01*
X551300D02*
Y432399D01*
X548301Y429400D01*
X552299D01*
X554299Y427401D02*
X555298Y426401D01*
X557298D01*
X558297Y427401D01*
Y431399D01*
X557298Y432399D01*
X555298D01*
X554299Y431399D01*
Y430400D01*
X555298Y429400D01*
X558297D01*
X397103Y403401D02*
Y409399D01*
X400102D01*
X401101Y408399D01*
Y406400D01*
X400102Y405400D01*
X397103D01*
X399102D02*
X401101Y403401D01*
X406100D02*
Y409399D01*
X403101Y406400D01*
X407099D01*
X409099Y408399D02*
X410098Y409399D01*
X412098D01*
X413097Y408399D01*
Y407400D01*
X412098Y406400D01*
X413097Y405400D01*
Y404401D01*
X412098Y403401D01*
X410098D01*
X409099Y404401D01*
Y405400D01*
X410098Y406400D01*
X409099Y407400D01*
Y408399D01*
X410098Y406400D02*
X412098D01*
X653500Y176500D02*
Y182498D01*
X656499D01*
X657499Y181498D01*
Y179499D01*
X656499Y178499D01*
X653500D01*
X663497Y176500D02*
X659498D01*
X663497Y180499D01*
Y181498D01*
X662497Y182498D01*
X660498D01*
X659498Y181498D01*
X665496D02*
X666496Y182498D01*
X668495D01*
X669495Y181498D01*
Y180499D01*
X668495Y179499D01*
X669495Y178499D01*
Y177500D01*
X668495Y176500D01*
X666496D01*
X665496Y177500D01*
Y178499D01*
X666496Y179499D01*
X665496Y180499D01*
Y181498D01*
X666496Y179499D02*
X668495D01*
X435601Y371697D02*
X441599D01*
Y368698D01*
X440599Y367699D01*
X438600D01*
X437600Y368698D01*
Y371697D01*
X435601Y361701D02*
Y365699D01*
X439600Y361701D01*
X440599D01*
X441599Y362700D01*
Y364700D01*
X440599Y365699D01*
X441599Y359701D02*
Y355703D01*
X440599D01*
X436601Y359701D01*
X435601D01*
X539197Y383999D02*
Y378001D01*
X536198D01*
X535199Y379001D01*
Y381000D01*
X536198Y382000D01*
X539197D01*
X529201Y383999D02*
X533199D01*
X529201Y380000D01*
Y379001D01*
X530200Y378001D01*
X532200D01*
X533199Y379001D01*
X523203Y378001D02*
X525202Y379001D01*
X527201Y381000D01*
Y382999D01*
X526202Y383999D01*
X524202D01*
X523203Y382999D01*
Y382000D01*
X524202Y381000D01*
X527201D01*
X569803Y374901D02*
Y380899D01*
X572802D01*
X573801Y379899D01*
Y377900D01*
X572802Y376900D01*
X569803D01*
X579799Y374901D02*
X575801D01*
X579799Y378900D01*
Y379899D01*
X578800Y380899D01*
X576800D01*
X575801Y379899D01*
X585797Y380899D02*
X581799D01*
Y377900D01*
X583798Y378900D01*
X584798D01*
X585797Y377900D01*
Y375901D01*
X584798Y374901D01*
X582798D01*
X581799Y375901D01*
X256502Y99538D02*
Y105536D01*
X259502D01*
X260501Y104536D01*
Y102537D01*
X259502Y101537D01*
X256502D01*
X262501Y99538D02*
X264500D01*
X263500D01*
Y105536D01*
X262501Y104536D01*
X267499Y100538D02*
X268498Y99538D01*
X270498D01*
X271498Y100538D01*
Y104536D01*
X270498Y105536D01*
X268498D01*
X267499Y104536D01*
Y103537D01*
X268498Y102537D01*
X271498D01*
X380999Y105494D02*
X375001D01*
Y101495D01*
X380999Y95497D02*
Y99496D01*
X375001D01*
Y95497D01*
X378000Y99496D02*
Y97497D01*
X380999Y93498D02*
X375001D01*
Y90499D01*
X376001Y89499D01*
X379999D01*
X380999Y90499D01*
Y93498D01*
X379999Y87500D02*
X380999Y86500D01*
Y84501D01*
X379999Y83501D01*
X379000D01*
X378000Y84501D01*
X377000Y83501D01*
X376001D01*
X375001Y84501D01*
Y86500D01*
X376001Y87500D01*
X377000D01*
X378000Y86500D01*
X379000Y87500D01*
X379999D01*
X378000Y86500D02*
Y84501D01*
X623004Y174999D02*
Y169001D01*
X627002D01*
X633000Y174999D02*
X629002D01*
Y169001D01*
X633000D01*
X629002Y172000D02*
X631001D01*
X635000Y174999D02*
Y169001D01*
X637999D01*
X638998Y170001D01*
Y173999D01*
X637999Y174999D01*
X635000D01*
X644997D02*
X640998D01*
Y172000D01*
X642997Y173000D01*
X643997D01*
X644997Y172000D01*
Y170001D01*
X643997Y169001D01*
X641997D01*
X640998Y170001D01*
X510904Y433199D02*
Y427201D01*
X514902D01*
X520900Y433199D02*
X516902D01*
Y427201D01*
X520900D01*
X516902Y430200D02*
X518901D01*
X522900Y433199D02*
Y427201D01*
X525899D01*
X526898Y428201D01*
Y432199D01*
X525899Y433199D01*
X522900D01*
X531897Y427201D02*
Y433199D01*
X528898Y430200D01*
X532897D01*
X394004Y433399D02*
Y427401D01*
X398002D01*
X404000Y433399D02*
X400002D01*
Y427401D01*
X404000D01*
X400002Y430400D02*
X402001D01*
X406000Y433399D02*
Y427401D01*
X408999D01*
X409998Y428401D01*
Y432399D01*
X408999Y433399D01*
X406000D01*
X411998Y432399D02*
X412997Y433399D01*
X414997D01*
X415997Y432399D01*
Y431400D01*
X414997Y430400D01*
X413997D01*
X414997D01*
X415997Y429400D01*
Y428401D01*
X414997Y427401D01*
X412997D01*
X411998Y428401D01*
X584701Y414302D02*
Y410303D01*
X587700D01*
Y412303D01*
Y410303D01*
X590699D01*
X584701Y420300D02*
Y416301D01*
X590699D01*
Y420300D01*
X587700Y416301D02*
Y418301D01*
X584701Y422299D02*
Y426298D01*
Y424299D01*
X590699D01*
Y428297D02*
Y430297D01*
Y429297D01*
X584701D01*
X585701Y428297D01*
X231002Y207536D02*
Y202538D01*
X232001Y201538D01*
X234001D01*
X235000Y202538D01*
Y207536D01*
X237000Y206536D02*
X237999Y207536D01*
X239999D01*
X240998Y206536D01*
Y205537D01*
X239999Y204537D01*
X240998Y203537D01*
Y202538D01*
X239999Y201538D01*
X237999D01*
X237000Y202538D01*
Y203537D01*
X237999Y204537D01*
X237000Y205537D01*
Y206536D01*
X237999Y204537D02*
X239999D01*
X617900Y153098D02*
Y148100D01*
X618900Y147100D01*
X620899D01*
X621899Y148100D01*
Y153098D01*
X627897D02*
X625897Y152098D01*
X623898Y150099D01*
Y148100D01*
X624898Y147100D01*
X626897D01*
X627897Y148100D01*
Y149099D01*
X626897Y150099D01*
X623898D01*
X426300Y405298D02*
Y400300D01*
X427300Y399300D01*
X429299D01*
X430299Y400300D01*
Y405298D01*
X436297D02*
X432298D01*
Y402299D01*
X434297Y403299D01*
X435297D01*
X436297Y402299D01*
Y400300D01*
X435297Y399300D01*
X433298D01*
X432298Y400300D01*
X605301Y339402D02*
X610299D01*
X611299Y340401D01*
Y342401D01*
X610299Y343400D01*
X605301D01*
X611299Y348399D02*
X605301D01*
X608300Y345400D01*
Y349398D01*
X619004Y300999D02*
X623002D01*
X621003D01*
Y295001D01*
X625002D02*
Y300999D01*
X628001D01*
X629000Y299999D01*
Y298000D01*
X628001Y297000D01*
X625002D01*
X634998Y295001D02*
X631000D01*
X634998Y299000D01*
Y299999D01*
X633999Y300999D01*
X631999D01*
X631000Y299999D01*
X636998D02*
X637997Y300999D01*
X639997D01*
X640997Y299999D01*
Y299000D01*
X639997Y298000D01*
X640997Y297000D01*
Y296001D01*
X639997Y295001D01*
X637997D01*
X636998Y296001D01*
Y297000D01*
X637997Y298000D01*
X636998Y299000D01*
Y299999D01*
X637997Y298000D02*
X639997D01*
X475004Y106999D02*
X479002D01*
X477003D01*
Y101001D01*
X481002D02*
Y106999D01*
X484001D01*
X485000Y105999D01*
Y104000D01*
X484001Y103000D01*
X481002D01*
X490998Y101001D02*
X487000D01*
X490998Y105000D01*
Y105999D01*
X489999Y106999D01*
X487999D01*
X487000Y105999D01*
X492998Y106999D02*
X496996D01*
Y105999D01*
X492998Y102001D01*
Y101001D01*
X493004Y44999D02*
X497002D01*
X495003D01*
Y39001D01*
X499002D02*
Y44999D01*
X502001D01*
X503000Y43999D01*
Y42000D01*
X502001Y41000D01*
X499002D01*
X508998Y39001D02*
X505000D01*
X508998Y43000D01*
Y43999D01*
X507999Y44999D01*
X505999D01*
X505000Y43999D01*
X514996Y44999D02*
X512997Y43999D01*
X510998Y42000D01*
Y40001D01*
X511997Y39001D01*
X513997D01*
X514996Y40001D01*
Y41000D01*
X513997Y42000D01*
X510998D01*
X345001Y212040D02*
Y216039D01*
Y214040D01*
X350999D01*
Y218039D02*
X345001D01*
Y221038D01*
X346001Y222037D01*
X348000D01*
X349000Y221038D01*
Y218039D01*
X350999Y224037D02*
Y226036D01*
Y225036D01*
X345001D01*
X346001Y224037D01*
X345001Y233034D02*
X346001Y231034D01*
X348000Y229035D01*
X349999D01*
X350999Y230035D01*
Y232034D01*
X349999Y233034D01*
X349000D01*
X348000Y232034D01*
Y229035D01*
X147503Y100999D02*
X151502D01*
X149503D01*
Y95001D01*
X153501D02*
Y100999D01*
X156500D01*
X157500Y99999D01*
Y98000D01*
X156500Y97000D01*
X153501D01*
X159500Y95001D02*
X161499D01*
X160499D01*
Y100999D01*
X159500Y99999D01*
X168497Y100999D02*
X164498D01*
Y98000D01*
X166497Y99000D01*
X167497D01*
X168497Y98000D01*
Y96001D01*
X167497Y95001D01*
X165498D01*
X164498Y96001D01*
X380999Y203034D02*
Y199035D01*
Y201034D01*
X375001D01*
Y197036D02*
X380999D01*
Y194036D01*
X379999Y193037D01*
X378000D01*
X377000Y194036D01*
Y197036D01*
X375001Y191037D02*
Y189038D01*
Y190038D01*
X380999D01*
X379999Y191037D01*
X375001Y183040D02*
X380999D01*
X378000Y186039D01*
Y182040D01*
X255001Y216040D02*
Y220039D01*
Y218040D01*
X260999D01*
Y222039D02*
X255001D01*
Y225038D01*
X256001Y226037D01*
X258000D01*
X259000Y225038D01*
Y222039D01*
X260999Y228036D02*
Y230036D01*
Y229036D01*
X255001D01*
X256001Y228036D01*
Y233035D02*
X255001Y234035D01*
Y236034D01*
X256001Y237034D01*
X257000D01*
X258000Y236034D01*
Y235034D01*
Y236034D01*
X259000Y237034D01*
X259999D01*
X260999Y236034D01*
Y234035D01*
X259999Y233035D01*
X145503Y132999D02*
X149502D01*
X147503D01*
Y127001D01*
X151502D02*
Y132999D01*
X154500D01*
X155500Y131999D01*
Y130000D01*
X154500Y129000D01*
X151502D01*
X157500Y127001D02*
X159499D01*
X158499D01*
Y132999D01*
X157500Y131999D01*
X166497Y127001D02*
X162498D01*
X166497Y131000D01*
Y131999D01*
X165497Y132999D01*
X163498D01*
X162498Y131999D01*
X192503Y219536D02*
X196502D01*
X194502D01*
Y213538D01*
X198501D02*
Y219536D01*
X201500D01*
X202500Y218536D01*
Y216537D01*
X201500Y215537D01*
X198501D01*
X204499Y213538D02*
X206499D01*
X205499D01*
Y219536D01*
X204499Y218536D01*
X209498Y213538D02*
X211497D01*
X210497D01*
Y219536D01*
X209498Y218536D01*
X622003Y190999D02*
X626001D01*
X624002D01*
Y185001D01*
X628001D02*
Y190999D01*
X631000D01*
X631999Y189999D01*
Y188000D01*
X631000Y187000D01*
X628001D01*
X633999Y190999D02*
X637997D01*
Y189999D01*
X633999Y186001D01*
Y185001D01*
X389403Y377099D02*
X393401D01*
X391402D01*
Y371101D01*
X395401D02*
Y377099D01*
X398400D01*
X399399Y376099D01*
Y374100D01*
X398400Y373100D01*
X395401D01*
X405397Y377099D02*
X403398Y376099D01*
X401399Y374100D01*
Y372101D01*
X402398Y371101D01*
X404398D01*
X405397Y372101D01*
Y373100D01*
X404398Y374100D01*
X401399D01*
X513100Y82000D02*
Y87998D01*
X516099D01*
X517099Y86998D01*
Y84999D01*
X516099Y83999D01*
X513100D01*
X515099D02*
X517099Y82000D01*
X522097D02*
Y87998D01*
X519098Y84999D01*
X523097D01*
X525096Y87998D02*
X529095D01*
Y86998D01*
X525096Y83000D01*
Y82000D01*
X417940Y79127D02*
Y85125D01*
X420939D01*
X421938Y84125D01*
Y82126D01*
X420939Y81126D01*
X417940D01*
X419939D02*
X421938Y79127D01*
X426937D02*
Y85125D01*
X423938Y82126D01*
X427936D01*
X433934Y85125D02*
X431935Y84125D01*
X429936Y82126D01*
Y80127D01*
X430935Y79127D01*
X432935D01*
X433934Y80127D01*
Y81126D01*
X432935Y82126D01*
X429936D01*
X555200Y81800D02*
Y87798D01*
X558199D01*
X559199Y86798D01*
Y84799D01*
X558199Y83799D01*
X555200D01*
X557199D02*
X559199Y81800D01*
X564197D02*
Y87798D01*
X561198Y84799D01*
X565197D01*
X571195Y87798D02*
X567196D01*
Y84799D01*
X569196Y85799D01*
X570195D01*
X571195Y84799D01*
Y82800D01*
X570195Y81800D01*
X568196D01*
X567196Y82800D01*
X491940Y57127D02*
Y63125D01*
X494939D01*
X495938Y62125D01*
Y60126D01*
X494939Y59126D01*
X491940D01*
X493939D02*
X495938Y57127D01*
X500937D02*
Y63125D01*
X497938Y60126D01*
X501936D01*
X506935Y57127D02*
Y63125D01*
X503936Y60126D01*
X507934D01*
X464003Y41127D02*
Y47125D01*
X467002D01*
X468001Y46125D01*
Y44126D01*
X467002Y43126D01*
X464003D01*
X466002D02*
X468001Y41127D01*
X473000D02*
Y47125D01*
X470001Y44126D01*
X473999D01*
X475999Y46125D02*
X476998Y47125D01*
X478998D01*
X479997Y46125D01*
Y45126D01*
X478998Y44126D01*
X477998D01*
X478998D01*
X479997Y43126D01*
Y42127D01*
X478998Y41127D01*
X476998D01*
X475999Y42127D01*
X424003Y99001D02*
Y104999D01*
X427002D01*
X428001Y103999D01*
Y102000D01*
X427002Y101000D01*
X424003D01*
X426002D02*
X428001Y99001D01*
X433000D02*
Y104999D01*
X430001Y102000D01*
X433999D01*
X439997Y99001D02*
X435999D01*
X439997Y103000D01*
Y103999D01*
X438998Y104999D01*
X436998D01*
X435999Y103999D01*
X466939Y87127D02*
Y93125D01*
X469938D01*
X470938Y92125D01*
Y90126D01*
X469938Y89126D01*
X466939D01*
X468939D02*
X470938Y87127D01*
X475936D02*
Y93125D01*
X472937Y90126D01*
X476936D01*
X478935Y87127D02*
X480935D01*
X479935D01*
Y93125D01*
X478935Y92125D01*
X448936Y78192D02*
X442938D01*
Y81191D01*
X443938Y82190D01*
X445937D01*
X446937Y81191D01*
Y78192D01*
Y80191D02*
X448936Y82190D01*
Y87189D02*
X442938D01*
X445937Y84190D01*
Y88188D01*
X443938Y90188D02*
X442938Y91187D01*
Y93187D01*
X443938Y94186D01*
X447936D01*
X448936Y93187D01*
Y91187D01*
X447936Y90188D01*
X443938D01*
X182003Y87538D02*
Y93536D01*
X185002D01*
X186001Y92536D01*
Y90537D01*
X185002Y89537D01*
X182003D01*
X184002D02*
X186001Y87538D01*
X191999D02*
X188001D01*
X191999Y91537D01*
Y92536D01*
X191000Y93536D01*
X189000D01*
X188001Y92536D01*
X193999D02*
X194998Y93536D01*
X196998D01*
X197997Y92536D01*
Y91537D01*
X196998Y90537D01*
X195998D01*
X196998D01*
X197997Y89537D01*
Y88538D01*
X196998Y87538D01*
X194998D01*
X193999Y88538D01*
X266003Y189538D02*
Y195536D01*
X269002D01*
X270001Y194536D01*
Y192537D01*
X269002Y191537D01*
X266003D01*
X268002D02*
X270001Y189538D01*
X275999D02*
X272001D01*
X275999Y193537D01*
Y194536D01*
X275000Y195536D01*
X273000D01*
X272001Y194536D01*
X281997Y189538D02*
X277999D01*
X281997Y193537D01*
Y194536D01*
X280998Y195536D01*
X278998D01*
X277999Y194536D01*
X275002Y199538D02*
Y205536D01*
X278001D01*
X279001Y204536D01*
Y202537D01*
X278001Y201537D01*
X275002D01*
X277002D02*
X279001Y199538D01*
X284999D02*
X281000D01*
X284999Y203537D01*
Y204536D01*
X283999Y205536D01*
X282000D01*
X281000Y204536D01*
X286998Y199538D02*
X288998D01*
X287998D01*
Y205536D01*
X286998Y204536D01*
X176999Y106003D02*
X171001D01*
Y109002D01*
X172001Y110001D01*
X174000D01*
X175000Y109002D01*
Y106003D01*
Y108002D02*
X176999Y110001D01*
Y115999D02*
Y112001D01*
X173000Y115999D01*
X172001D01*
X171001Y115000D01*
Y113000D01*
X172001Y112001D01*
Y117999D02*
X171001Y118998D01*
Y120998D01*
X172001Y121997D01*
X175999D01*
X176999Y120998D01*
Y118998D01*
X175999Y117999D01*
X172001D01*
X224999Y205039D02*
X219001D01*
Y208038D01*
X220001Y209038D01*
X222000D01*
X223000Y208038D01*
Y205039D01*
Y207039D02*
X224999Y209038D01*
Y211037D02*
Y213037D01*
Y212037D01*
X219001D01*
X220001Y211037D01*
X223999Y216036D02*
X224999Y217036D01*
Y219035D01*
X223999Y220035D01*
X220001D01*
X219001Y219035D01*
Y217036D01*
X220001Y216036D01*
X221000D01*
X222000Y217036D01*
Y220035D01*
X176999Y126502D02*
X171001D01*
Y129501D01*
X172001Y130501D01*
X174000D01*
X175000Y129501D01*
Y126502D01*
Y128502D02*
X176999Y130501D01*
Y132501D02*
Y134500D01*
Y133500D01*
X171001D01*
X172001Y132501D01*
Y137499D02*
X171001Y138499D01*
Y140498D01*
X172001Y141498D01*
X173000D01*
X174000Y140498D01*
X175000Y141498D01*
X175999D01*
X176999Y140498D01*
Y138499D01*
X175999Y137499D01*
X175000D01*
X174000Y138499D01*
X173000Y137499D01*
X172001D01*
X174000Y138499D02*
Y140498D01*
X274999Y231039D02*
X269001D01*
Y234038D01*
X270001Y235038D01*
X272000D01*
X273000Y234038D01*
Y231039D01*
Y233039D02*
X274999Y235038D01*
Y237037D02*
Y239037D01*
Y238037D01*
X269001D01*
X270001Y237037D01*
X269001Y242036D02*
Y246035D01*
X270001D01*
X273999Y242036D01*
X274999D01*
X274999Y211039D02*
X269001D01*
Y214038D01*
X270001Y215038D01*
X272000D01*
X273000Y214038D01*
Y211039D01*
Y213039D02*
X274999Y215038D01*
Y217038D02*
Y219037D01*
Y218037D01*
X269001D01*
X270001Y217038D01*
X269001Y226035D02*
X270001Y224035D01*
X272000Y222036D01*
X273999D01*
X274999Y223036D01*
Y225035D01*
X273999Y226035D01*
X273000D01*
X272000Y225035D01*
Y222036D01*
X646502Y105001D02*
Y110999D01*
X649502D01*
X650501Y109999D01*
Y108000D01*
X649502Y107000D01*
X646502D01*
X648502D02*
X650501Y105001D01*
X652500D02*
X654500D01*
X653500D01*
Y110999D01*
X652500Y109999D01*
X661498Y110999D02*
X657499D01*
Y108000D01*
X659498Y109000D01*
X660498D01*
X661498Y108000D01*
Y106001D01*
X660498Y105001D01*
X658498D01*
X657499Y106001D01*
X677001Y151498D02*
X682999D01*
Y148498D01*
X681999Y147499D01*
X680000D01*
X679000Y148498D01*
Y151498D01*
Y149498D02*
X677001Y147499D01*
Y145500D02*
Y143500D01*
Y144500D01*
X682999D01*
X681999Y145500D01*
Y140501D02*
X682999Y139501D01*
Y137502D01*
X681999Y136502D01*
X681000D01*
X680000Y137502D01*
Y138502D01*
Y137502D01*
X679000Y136502D01*
X678001D01*
X677001Y137502D01*
Y139501D01*
X678001Y140501D01*
X613301Y377798D02*
X619299D01*
Y374799D01*
X618299Y373800D01*
X616300D01*
X615300Y374799D01*
Y377798D01*
Y375799D02*
X613301Y373800D01*
X614301Y371800D02*
X613301Y370801D01*
Y368801D01*
X614301Y367802D01*
X618299D01*
X619299Y368801D01*
Y370801D01*
X618299Y371800D01*
X617300D01*
X616300Y370801D01*
Y367802D01*
X420473Y54182D02*
Y58180D01*
X419473Y59180D01*
X417474D01*
X416474Y58180D01*
Y54182D01*
X417474Y53182D01*
X419473D01*
X418473Y55181D02*
X420473Y53182D01*
X419473D02*
X420473Y54182D01*
X422472Y59180D02*
X426471D01*
Y58180D01*
X422472Y54182D01*
Y53182D01*
X459000Y52001D02*
Y55999D01*
X458001Y56999D01*
X456001D01*
X455002Y55999D01*
Y52001D01*
X456001Y51001D01*
X458001D01*
X457001Y53000D02*
X459000Y51001D01*
X458001D02*
X459000Y52001D01*
X464998Y56999D02*
X462999Y55999D01*
X461000Y54000D01*
Y52001D01*
X461999Y51001D01*
X463999D01*
X464998Y52001D01*
Y53000D01*
X463999Y54000D01*
X461000D01*
X496607Y88386D02*
Y92385D01*
X495607Y93385D01*
X493608D01*
X492608Y92385D01*
Y88386D01*
X493608Y87387D01*
X495607D01*
X494607Y89386D02*
X496607Y87387D01*
X495607D02*
X496607Y88386D01*
X502605Y93385D02*
X498606D01*
Y90386D01*
X500605Y91386D01*
X501605D01*
X502605Y90386D01*
Y88386D01*
X501605Y87387D01*
X499606D01*
X498606Y88386D01*
X678000Y124001D02*
Y127999D01*
X677000Y128999D01*
X675001D01*
X674001Y127999D01*
Y124001D01*
X675001Y123001D01*
X677000D01*
X676001Y125000D02*
X678000Y123001D01*
X677000D02*
X678000Y124001D01*
X679999Y123001D02*
X681999D01*
X680999D01*
Y128999D01*
X679999Y127999D01*
X286502Y273001D02*
Y278999D01*
X289502D01*
X290501Y277999D01*
Y276000D01*
X289502Y275000D01*
X286502D01*
X292500Y273001D02*
X294500D01*
X293500D01*
Y278999D01*
X292500Y277999D01*
X297499Y278999D02*
X301498D01*
Y277999D01*
X297499Y274001D01*
Y273001D01*
X393000Y346900D02*
Y352898D01*
X395999D01*
X396999Y351898D01*
Y349899D01*
X395999Y348899D01*
X393000D01*
X398998Y346900D02*
X400997D01*
X399998D01*
Y352898D01*
X398998Y351898D01*
X406995Y346900D02*
Y352898D01*
X403996Y349899D01*
X407995D01*
X643399Y395153D02*
X637401D01*
Y398152D01*
X638401Y399151D01*
X640400D01*
X641400Y398152D01*
Y395153D01*
X637401Y405150D02*
X638401Y403150D01*
X640400Y401151D01*
X642399D01*
X643399Y402150D01*
Y404150D01*
X642399Y405150D01*
X641400D01*
X640400Y404150D01*
Y401151D01*
X565004Y56999D02*
Y51001D01*
X569002D01*
X575000Y56999D02*
X571002D01*
Y51001D01*
X575000D01*
X571002Y54000D02*
X573001D01*
X577000Y56999D02*
Y51001D01*
X579999D01*
X580998Y52001D01*
Y55999D01*
X579999Y56999D01*
X577000D01*
X586997Y51001D02*
X582998D01*
X586997Y55000D01*
Y55999D01*
X585997Y56999D01*
X583997D01*
X582998Y55999D01*
X312501Y196536D02*
X311502Y197536D01*
X309502D01*
X308502Y196536D01*
Y192538D01*
X309502Y191538D01*
X311502D01*
X312501Y192538D01*
X314500Y191538D02*
X316500D01*
X315500D01*
Y197536D01*
X314500Y196536D01*
X323498Y191538D02*
X319499D01*
X323498Y195537D01*
Y196536D01*
X322498Y197536D01*
X320498D01*
X319499Y196536D01*
X655000Y143999D02*
X654001Y144999D01*
X652001D01*
X651002Y143999D01*
Y140001D01*
X652001Y139001D01*
X654001D01*
X655000Y140001D01*
X657000D02*
X657999Y139001D01*
X659999D01*
X660998Y140001D01*
Y143999D01*
X659999Y144999D01*
X657999D01*
X657000Y143999D01*
Y143000D01*
X657999Y142000D01*
X660998D01*
X517000Y371999D02*
X516001Y372999D01*
X514001D01*
X513002Y371999D01*
Y368001D01*
X514001Y367001D01*
X516001D01*
X517000Y368001D01*
X519000Y372999D02*
X522998D01*
Y371999D01*
X519000Y368001D01*
Y367001D01*
X597000Y379999D02*
X596001Y380999D01*
X594001D01*
X593002Y379999D01*
Y376001D01*
X594001Y375001D01*
X596001D01*
X597000Y376001D01*
X602998Y380999D02*
X600999Y379999D01*
X599000Y378000D01*
Y376001D01*
X599999Y375001D01*
X601999D01*
X602998Y376001D01*
Y377000D01*
X601999Y378000D01*
X599000D01*
D15*
X262461Y315606D02*
Y316394D01*
X257539Y315606D02*
Y316394D01*
X246461Y315606D02*
Y316394D01*
X241539Y315606D02*
Y316394D01*
X93803Y231638D02*
X94197D01*
X93803Y236362D02*
X94197D01*
X87996Y219740D02*
X100004D01*
X87996Y212260D02*
X100004D01*
Y219740D01*
X87996Y212260D02*
Y219740D01*
X109386Y297331D02*
Y338669D01*
X82614Y297331D02*
Y338669D01*
Y297331D02*
X109386D01*
X82614Y338669D02*
X109386D01*
X41409Y352264D02*
X42591D01*
X41409Y347736D02*
X42591D01*
X59472D02*
X60654D01*
X59472Y352264D02*
X60654D01*
X43051Y292819D02*
Y295181D01*
X36949Y292819D02*
Y295181D01*
X37736Y315409D02*
Y316590D01*
X42264Y315409D02*
Y316590D01*
X145539Y249606D02*
Y250394D01*
X150461Y249606D02*
Y250394D01*
X167606Y247539D02*
X168394D01*
X167606Y252461D02*
X168394D01*
X185051Y284819D02*
Y287181D01*
X178949Y284819D02*
Y287181D01*
X162819Y300949D02*
X165181D01*
X162819Y307051D02*
X165181D01*
X143543Y261539D02*
X144331D01*
X143543Y266461D02*
X144331D01*
X153606Y273539D02*
X154394D01*
X153606Y278461D02*
X154394D01*
X145409Y226264D02*
X146591D01*
X145409Y221736D02*
X146591D01*
X165409D02*
X166591D01*
X165409Y226264D02*
X166591D01*
X93803Y193638D02*
X94197D01*
X93803Y198362D02*
X94197D01*
X61638Y303803D02*
Y304197D01*
X66362Y303803D02*
Y304197D01*
X125638Y297803D02*
Y298197D01*
X130362Y297803D02*
Y298197D01*
X217476Y359705D02*
Y360098D01*
X222201Y359705D02*
Y360098D01*
X329803Y315638D02*
X330197D01*
X329803Y320362D02*
X330197D01*
X425410Y294264D02*
X426590D01*
X425410Y289736D02*
X426590D01*
X537606Y76461D02*
X538394D01*
X537606Y71539D02*
X538394D01*
X539606Y274461D02*
X540394D01*
X539606Y269539D02*
X540394D01*
X517764Y175606D02*
X538236D01*
X517764Y160646D02*
X538236D01*
Y175606D01*
X517764Y160646D02*
Y175606D01*
X467701Y146441D02*
X480299D01*
X467701Y185811D02*
X480299D01*
Y146441D02*
Y185811D01*
X467701Y146441D02*
Y185811D01*
X441606Y158587D02*
X442394D01*
X441606Y153665D02*
X442394D01*
X441606Y146587D02*
X442394D01*
X441606Y141665D02*
X442394D01*
X548949Y198945D02*
Y201307D01*
X555051Y198945D02*
Y201307D01*
X441606Y134587D02*
X442394D01*
X441606Y129665D02*
X442394D01*
X441606Y182587D02*
X442394D01*
X441606Y177665D02*
X442394D01*
X425051Y125433D02*
Y127795D01*
X418949Y125433D02*
Y127795D01*
X441606Y170587D02*
X442394D01*
X441606Y165665D02*
X442394D01*
X503051Y144819D02*
Y147181D01*
X496949Y144819D02*
Y147181D01*
X440331Y193075D02*
X442693D01*
X440331Y199177D02*
X442693D01*
X533606Y193665D02*
X534394D01*
X533606Y198587D02*
X534394D01*
X530461Y141732D02*
Y142520D01*
X525539Y141732D02*
Y142520D01*
X546362Y150189D02*
Y150583D01*
X541638Y150189D02*
Y150583D01*
X495638Y179929D02*
Y180323D01*
X500362Y179929D02*
Y180323D01*
X481410Y249736D02*
X482590D01*
X481410Y254264D02*
X482590D01*
X455736Y279535D02*
Y280716D01*
X460264Y279535D02*
Y280716D01*
X515736Y267472D02*
Y268653D01*
X520264Y267472D02*
Y268653D01*
X451409Y239862D02*
X452591D01*
X451409Y244390D02*
X452591D01*
X425736Y267535D02*
Y268717D01*
X430264Y267535D02*
Y268717D01*
X473410Y273736D02*
X474590D01*
X473410Y278264D02*
X474590D01*
X561736Y267409D02*
Y268590D01*
X566264Y267409D02*
Y268590D01*
X431319Y248532D02*
X435256D01*
Y245579D02*
Y248532D01*
X431319Y236720D02*
X435256D01*
Y239673D01*
X500953Y266024D02*
Y268583D01*
X497949Y266024D02*
X500953D01*
Y275669D02*
Y278228D01*
X497949D02*
X500953D01*
X452095Y258713D02*
Y262650D01*
X455047D01*
X463905Y258713D02*
Y262650D01*
X460953D02*
X463905D01*
X518201Y71598D02*
Y72780D01*
X513673Y71598D02*
Y72780D01*
X436201Y69535D02*
Y70717D01*
X431673Y69535D02*
Y70717D01*
X560264Y71409D02*
Y72591D01*
X555736Y71409D02*
Y72591D01*
X481284Y62390D02*
X482465D01*
X481284Y57862D02*
X482465D01*
X453346Y46390D02*
X454528D01*
X453346Y41862D02*
X454528D01*
X415410Y91736D02*
X416590D01*
X415410Y96264D02*
X416590D01*
X473347Y82390D02*
X474528D01*
X473347Y77862D02*
X474528D01*
X458201Y83598D02*
Y84780D01*
X453673Y83598D02*
Y84780D01*
X436461Y40220D02*
Y43173D01*
X432524Y40220D02*
X436461D01*
Y49079D02*
Y52031D01*
X432524D02*
X436461D01*
X462890Y68650D02*
X465842D01*
Y64713D02*
Y68650D01*
X454032D02*
X456984D01*
X454032Y64713D02*
Y68650D01*
X493886Y82228D02*
X496890D01*
Y79669D02*
Y82228D01*
X493886Y70024D02*
X496890D01*
Y72583D01*
X226520Y152269D02*
Y168805D01*
X241480Y152269D02*
Y168805D01*
X226520D02*
X241480D01*
X226520Y152269D02*
X241480D01*
X213504Y110695D02*
Y130379D01*
X226496Y110695D02*
Y130379D01*
X213504D02*
X226496D01*
X213504Y110695D02*
X226496D01*
X340158Y189033D02*
X359842D01*
X340158Y176041D02*
X359842D01*
Y189033D01*
X340158Y176041D02*
Y189033D01*
X366264Y215947D02*
Y217128D01*
X361736Y215947D02*
Y217128D01*
X262819Y93588D02*
X265181D01*
X262819Y87486D02*
X265181D01*
X185409Y160801D02*
X186591D01*
X185409Y156273D02*
X186591D01*
X201736Y159947D02*
Y161128D01*
X206264Y159947D02*
Y161128D01*
X220819Y93588D02*
X223181D01*
X220819Y87486D02*
X223181D01*
X241409Y88273D02*
X242590D01*
X241409Y92801D02*
X242590D01*
X276264Y163946D02*
Y165128D01*
X271736Y163946D02*
Y165128D01*
X207410Y192801D02*
X208591D01*
X207410Y188273D02*
X208591D01*
X292819Y167486D02*
X295181D01*
X292819Y173588D02*
X295181D01*
X275736Y129946D02*
Y131128D01*
X280264Y129946D02*
Y131128D01*
X275736Y145947D02*
Y147128D01*
X280264Y145947D02*
Y147128D01*
X327024Y153884D02*
X331059D01*
X336276Y148667D01*
X295724D02*
X300941Y153884D01*
X304976D01*
X336276Y113332D02*
Y148667D01*
X327024Y113332D02*
X336276D01*
X295724D02*
X304976D01*
X295724D02*
Y148667D01*
X363803Y162899D02*
X364197D01*
X363803Y158175D02*
X364197D01*
X365736Y115946D02*
Y117128D01*
X370264Y115946D02*
Y117128D01*
X240520Y182269D02*
Y198805D01*
X255480Y182269D02*
Y198805D01*
X240520D02*
X255480D01*
X240520Y182269D02*
X255480D01*
X188819Y103588D02*
X191181D01*
X188819Y97486D02*
X191181D01*
X271736Y179946D02*
Y181128D01*
X276264Y179946D02*
Y181128D01*
X292819Y195588D02*
X295181D01*
X292819Y189486D02*
X295181D01*
X181736Y113946D02*
Y115128D01*
X186264Y113946D02*
Y115128D01*
X219736Y193947D02*
Y195128D01*
X224264Y193947D02*
Y195128D01*
X187051Y133356D02*
Y135718D01*
X180949Y133356D02*
Y135718D01*
X277736Y235946D02*
Y237128D01*
X282264Y235946D02*
Y237128D01*
Y219947D02*
Y221128D01*
X277736Y219947D02*
Y221128D01*
X336276Y215478D02*
Y250813D01*
X327024D02*
X336276D01*
X295724D02*
X304976D01*
X295724Y215478D02*
Y250813D01*
X327024Y210261D02*
X331059D01*
X336276Y215478D01*
X295724D02*
X300941Y210261D01*
X304976D01*
X242362Y132340D02*
Y132734D01*
X237638Y132340D02*
Y132734D01*
X649803Y152362D02*
X650197D01*
X649803Y147638D02*
X650197D01*
X508362Y371543D02*
Y371937D01*
X503638Y371543D02*
Y371937D01*
X549661Y423164D02*
X550842D01*
X549661Y418636D02*
X550842D01*
X406764Y393858D02*
Y395039D01*
X402236Y393858D02*
Y395039D01*
X593464Y411804D02*
X613936D01*
X593464Y424796D02*
X613936D01*
X593464Y411804D02*
Y424796D01*
X613936Y411804D02*
Y424796D01*
X618102Y358931D02*
Y362868D01*
X605898Y358931D02*
Y362868D01*
X618102D01*
X605898Y358931D02*
X618102D01*
X616819Y382949D02*
X619181D01*
X616819Y389051D02*
X619181D01*
X595338Y365403D02*
Y365797D01*
X600062Y365403D02*
Y365797D01*
X609051Y130819D02*
Y133181D01*
X602949Y130819D02*
Y133181D01*
X621472Y159736D02*
X622653D01*
X621472Y164264D02*
X622653D01*
X624520Y121764D02*
X639480D01*
X624520Y142236D02*
X639480D01*
Y121764D02*
Y142236D01*
X624520Y121764D02*
Y142236D01*
X669410Y105736D02*
X670590D01*
X669410Y110264D02*
X670590D01*
X667736Y143409D02*
Y144591D01*
X672264Y143409D02*
Y144591D01*
X666953Y128524D02*
X669906D01*
Y124587D02*
Y128524D01*
X658095D02*
X661047D01*
X658095Y124587D02*
Y128524D01*
D16*
X164941Y338764D02*
Y411756D01*
Y338764D02*
X362933D01*
Y411756D01*
X164941D02*
X362933D01*
X164941Y338764D02*
Y411756D01*
Y338764D02*
X362933D01*
Y411756D01*
X164941D02*
X362933D01*
X164941Y338764D02*
Y411756D01*
Y338764D02*
X362933D01*
Y411756D01*
X164941D02*
X362933D01*
D17*
X612600Y9848D02*
Y5350D01*
X615599D01*
X619348Y9848D02*
X617848D01*
X617099Y9099D01*
Y6100D01*
X617848Y5350D01*
X619348D01*
X620098Y6100D01*
Y9099D01*
X619348Y9848D01*
X621597Y4600D02*
X624596D01*
X629095Y9099D02*
X628345Y9848D01*
X626845D01*
X626096Y9099D01*
Y6100D01*
X626845Y5350D01*
X628345D01*
X629095Y6100D01*
X632843Y9848D02*
X631344D01*
X630594Y9099D01*
Y6100D01*
X631344Y5350D01*
X632843D01*
X633593Y6100D01*
Y9099D01*
X632843Y9848D01*
X635093Y5350D02*
Y9848D01*
X638092Y5350D01*
Y9848D01*
X639591D02*
X642590D01*
X641091D01*
Y5350D01*
X29599Y445098D02*
X28849Y445848D01*
X27350D01*
X26600Y445098D01*
Y442100D01*
X27350Y441350D01*
X28849D01*
X29599Y442100D01*
X31099Y441350D02*
Y444349D01*
X32598Y445848D01*
X34098Y444349D01*
Y441350D01*
Y443599D01*
X31099D01*
X35597Y441350D02*
Y445848D01*
X38596Y441350D01*
Y445848D01*
X40096Y440600D02*
X43095D01*
X44594Y441350D02*
Y445848D01*
X46843D01*
X47593Y445098D01*
Y443599D01*
X46843Y442849D01*
X44594D01*
X648600Y2600D02*
Y7099D01*
X650100Y5599D01*
X651599Y7099D01*
Y2600D01*
X653098D02*
Y7099D01*
X655348D01*
X656098Y6349D01*
Y4849D01*
X655348Y4100D01*
X653098D01*
X657597Y2600D02*
Y7099D01*
X659846D01*
X660596Y6349D01*
Y4849D01*
X659846Y4100D01*
X657597D01*
X662096Y7099D02*
X665095D01*
X663595D01*
Y2600D01*
X672600D02*
Y7099D01*
X674099Y5599D01*
X675599Y7099D01*
Y2600D01*
X680098Y6349D02*
X679348Y7099D01*
X677848D01*
X677099Y6349D01*
Y3350D01*
X677848Y2600D01*
X679348D01*
X680098Y3350D01*
X657599Y14349D02*
X656849Y15099D01*
X655350D01*
X654600Y14349D01*
Y11350D01*
X655350Y10600D01*
X656849D01*
X657599Y11350D01*
X659098Y15099D02*
Y10600D01*
X662098D01*
X665846Y15099D02*
X664347D01*
X663597Y14349D01*
Y11350D01*
X664347Y10600D01*
X665846D01*
X666596Y11350D01*
Y14349D01*
X665846Y15099D01*
X671095Y14349D02*
X670345Y15099D01*
X668845D01*
X668096Y14349D01*
Y13599D01*
X668845Y12849D01*
X670345D01*
X671095Y12100D01*
Y11350D01*
X670345Y10600D01*
X668845D01*
X668096Y11350D01*
X675593Y15099D02*
X672594D01*
Y10600D01*
X675593D01*
X672594Y12849D02*
X674094D01*
X53599Y445098D02*
X52849Y445848D01*
X51350D01*
X50600Y445098D01*
Y442100D01*
X51350Y441350D01*
X52849D01*
X53599Y442100D01*
X55099Y441350D02*
Y444349D01*
X56598Y445848D01*
X58098Y444349D01*
Y441350D01*
Y443599D01*
X55099D01*
X59597Y441350D02*
Y445848D01*
X62596Y441350D01*
Y445848D01*
X64096Y440600D02*
X67095D01*
X68594Y441350D02*
Y445848D01*
X71593Y441350D01*
Y445848D01*
X580600Y5350D02*
Y9848D01*
X582099Y8349D01*
X583599Y9848D01*
Y5350D01*
X585099D02*
Y9848D01*
X587348D01*
X588098Y9099D01*
Y7599D01*
X587348Y6849D01*
X585099D01*
X592596Y9099D02*
X591846Y9848D01*
X590347D01*
X589597Y9099D01*
Y8349D01*
X590347Y7599D01*
X591846D01*
X592596Y6849D01*
Y6100D01*
X591846Y5350D01*
X590347D01*
X589597Y6100D01*
X594096Y4600D02*
X597095D01*
X601593Y9848D02*
X598594D01*
Y5350D01*
X601593D01*
X598594Y7599D02*
X600094D01*
X603093Y5350D02*
Y9848D01*
X606092Y5350D01*
Y9848D01*
X568368Y396799D02*
X571034D01*
X569701D01*
Y392801D01*
X572367D02*
Y396799D01*
X574366D01*
X575033Y396133D01*
Y394800D01*
X574366Y394134D01*
X572367D01*
X579032Y396799D02*
X576366D01*
Y394800D01*
X577699Y395466D01*
X578365D01*
X579032Y394800D01*
Y393467D01*
X578365Y392801D01*
X577032D01*
X576366Y393467D01*
X640668Y367999D02*
X643334D01*
X642001D01*
Y364001D01*
X644667D02*
Y367999D01*
X646666D01*
X647333Y367333D01*
Y366000D01*
X646666Y365334D01*
X644667D01*
X650665Y364001D02*
Y367999D01*
X648666Y366000D01*
X651332D01*
D18*
X57511Y22700D02*
Y27199D01*
X59011Y25699D01*
X60510Y27199D01*
Y22700D01*
X62010Y25699D02*
Y22700D01*
Y24200D01*
X62759Y24949D01*
X63509Y25699D01*
X64259D01*
X66508Y22700D02*
X68008D01*
X67258D01*
Y25699D01*
X66508D01*
X73256Y27199D02*
Y22700D01*
X71007D01*
X70257Y23450D01*
Y24949D01*
X71007Y25699D01*
X73256D01*
X74756Y27199D02*
Y22700D01*
Y24949D01*
X75505Y25699D01*
X77005D01*
X77755Y24949D01*
Y22700D01*
X79254Y25699D02*
Y23450D01*
X80004Y22700D01*
X82253D01*
Y25699D01*
X83753Y22700D02*
X85252D01*
X84502D01*
Y27199D01*
X83753D01*
X92000D02*
Y22700D01*
X94249D01*
X94999Y23450D01*
Y24200D01*
X94249Y24949D01*
X92000D01*
X94249D01*
X94999Y25699D01*
Y26449D01*
X94249Y27199D01*
X92000D01*
X97248Y25699D02*
X98748D01*
X99498Y24949D01*
Y22700D01*
X97248D01*
X96499Y23450D01*
X97248Y24200D01*
X99498D01*
X100997Y22700D02*
X103246D01*
X103996Y23450D01*
X103246Y24200D01*
X101747D01*
X100997Y24949D01*
X101747Y25699D01*
X103996D01*
X105496Y22700D02*
Y27199D01*
Y24200D02*
X107745Y25699D01*
X105496Y24200D02*
X107745Y22700D01*
X110744Y25699D02*
X112243D01*
X112993Y24949D01*
Y22700D01*
X110744D01*
X109994Y23450D01*
X110744Y24200D01*
X112993D01*
X114493Y25699D02*
Y22700D01*
Y24200D01*
X115243Y24949D01*
X115992Y25699D01*
X116742D01*
X119741D02*
X121241D01*
X121990Y24949D01*
Y22700D01*
X119741D01*
X118991Y23450D01*
X119741Y24200D01*
X121990D01*
X123490Y22700D02*
Y25699D01*
X125739D01*
X126489Y24949D01*
Y22700D01*
X78506Y12698D02*
X81505D01*
Y11948D01*
X78506Y8949D01*
Y8200D01*
X81505D01*
X83755Y11199D02*
X85254D01*
X86004Y10449D01*
Y8200D01*
X83755D01*
X83005Y8949D01*
X83755Y9699D01*
X86004D01*
X90502Y11199D02*
X88253D01*
X87503Y10449D01*
Y8949D01*
X88253Y8200D01*
X90502D01*
X92002Y12698D02*
Y8200D01*
Y10449D01*
X92752Y11199D01*
X94251D01*
X95001Y10449D01*
Y8200D01*
X100999Y12698D02*
Y8200D01*
X103998D01*
X107747D02*
X106247D01*
X105498Y8949D01*
Y10449D01*
X106247Y11199D01*
X107747D01*
X108497Y10449D01*
Y9699D01*
X105498D01*
X109996Y11199D02*
X111496Y8200D01*
X112995Y11199D01*
X114495D02*
Y8949D01*
X115244Y8200D01*
X117494D01*
Y7450D01*
X116744Y6700D01*
X115994D01*
X117494Y8200D02*
Y11199D01*
X10881Y22199D02*
Y26698D01*
X13130D01*
X13880Y25948D01*
Y24449D01*
X13130Y23699D01*
X10881D01*
X12381D02*
X13880Y22199D01*
X15380Y25199D02*
Y22949D01*
X16129Y22199D01*
X18379D01*
Y21450D01*
X17629Y20700D01*
X16879D01*
X18379Y22199D02*
Y25199D01*
X20628D02*
X22128D01*
X22877Y24449D01*
Y22199D01*
X20628D01*
X19878Y22949D01*
X20628Y23699D01*
X22877D01*
X24377Y22199D02*
Y25199D01*
X26626D01*
X27376Y24449D01*
Y22199D01*
X33374Y26698D02*
Y22199D01*
X35623D01*
X36373Y22949D01*
Y23699D01*
X35623Y24449D01*
X33374D01*
X35623D01*
X36373Y25199D01*
Y25948D01*
X35623Y26698D01*
X33374D01*
X40122Y22199D02*
X38622D01*
X37872Y22949D01*
Y24449D01*
X38622Y25199D01*
X40122D01*
X40872Y24449D01*
Y23699D01*
X37872D01*
X43121Y25199D02*
X44620D01*
X45370Y24449D01*
Y22199D01*
X43121D01*
X42371Y22949D01*
X43121Y23699D01*
X45370D01*
X46870Y25199D02*
Y22199D01*
Y23699D01*
X47619Y24449D01*
X48369Y25199D01*
X49119D01*
X17759Y13199D02*
Y8700D01*
X20757D01*
X22257Y11699D02*
Y9450D01*
X23007Y8700D01*
X25256D01*
Y11699D01*
X29755D02*
X27505D01*
X26756Y10949D01*
Y9450D01*
X27505Y8700D01*
X29755D01*
X32004Y11699D02*
X33503D01*
X34253Y10949D01*
Y8700D01*
X32004D01*
X31254Y9450D01*
X32004Y10199D01*
X34253D01*
X35753Y8700D02*
X38002D01*
X38752Y9450D01*
X38002Y10199D01*
X36502D01*
X35753Y10949D01*
X36502Y11699D01*
X38752D01*
X44750Y8700D02*
Y13199D01*
X46249Y11699D01*
X47749Y13199D01*
Y8700D01*
X49998Y11699D02*
X51498D01*
X52247Y10949D01*
Y8700D01*
X49998D01*
X49248Y9450D01*
X49998Y10199D01*
X52247D01*
X56746Y13199D02*
Y8700D01*
X54497D01*
X53747Y9450D01*
Y10949D01*
X54497Y11699D01*
X56746D01*
X61244Y13199D02*
Y8700D01*
X58995D01*
X58245Y9450D01*
Y10949D01*
X58995Y11699D01*
X61244D01*
X63494Y8700D02*
X64993D01*
X65743Y9450D01*
Y10949D01*
X64993Y11699D01*
X63494D01*
X62744Y10949D01*
Y9450D01*
X63494Y8700D01*
X67242Y11699D02*
X70241Y8700D01*
X68742Y10199D01*
X70241Y11699D01*
X67242Y8700D01*
D19*
X217465Y151285D02*
Y169789D01*
X250535Y151285D02*
Y169789D01*
X217465D02*
X250535D01*
X217465Y151285D02*
X250535D01*
X231465Y181285D02*
Y199789D01*
X264535Y181285D02*
Y199789D01*
X231465D02*
X264535D01*
X231465Y181285D02*
X264535D01*
D20*
X232031Y160537D02*
X235968D01*
X234000Y158569D02*
Y162505D01*
X246031Y190537D02*
X249969D01*
X248000Y188568D02*
Y192506D01*
M02*
