G04*
G04 #@! TF.GenerationSoftware,Altium Limited,Altium Designer,22.8.2 (66)*
G04*
G04 Layer_Color=255*
%FSLAX25Y25*%
%MOIN*%
G70*
G04*
G04 #@! TF.SameCoordinates,BEF1E4EC-90C0-4ACD-898C-557356F843F1*
G04*
G04*
G04 #@! TF.FilePolarity,Positive*
G04*
G01*
G75*
%ADD16C,0.00500*%
%ADD19C,0.00197*%
%ADD20C,0.00394*%
%ADD21R,0.05709X0.04724*%
%ADD22R,0.04134X0.05512*%
%ADD23O,0.00984X0.05512*%
%ADD24R,0.05906X0.02362*%
%ADD25C,0.06000*%
%ADD26R,0.03543X0.05315*%
%ADD27R,0.06890X0.05709*%
%ADD28R,0.05315X0.03543*%
%ADD29R,0.04724X0.05709*%
%ADD30R,0.05709X0.06890*%
%ADD31R,0.05512X0.04134*%
%ADD32R,0.02992X0.04331*%
%ADD33O,0.05709X0.02362*%
%ADD34R,0.03937X0.02756*%
%ADD35R,0.05512X0.03937*%
%ADD36R,0.02756X0.03937*%
%ADD37R,0.03740X0.03543*%
%ADD38R,0.03150X0.03937*%
%ADD39R,0.06102X0.02559*%
%ADD40R,0.02559X0.06102*%
%ADD41R,0.03543X0.03740*%
%ADD42R,0.19685X0.19685*%
%ADD43O,0.03347X0.05709*%
%ADD44R,0.02362X0.03937*%
%ADD45R,0.04331X0.02992*%
%ADD81C,0.07087*%
%ADD82C,0.06024*%
%ADD83R,0.06024X0.06024*%
%ADD84C,0.07000*%
%ADD85C,0.14800*%
%ADD86C,0.11811*%
%ADD87R,0.06000X0.06000*%
D16*
X164941Y338764D02*
Y411756D01*
Y338764D02*
X362933D01*
Y411756D01*
X164941D02*
X362933D01*
X164941Y338764D02*
Y411756D01*
Y338764D02*
X362933D01*
Y411756D01*
X164941D02*
X362933D01*
D19*
X217465Y151285D02*
Y169789D01*
X250535Y151285D02*
Y169789D01*
X217465D02*
X250535D01*
X217465Y151285D02*
X250535D01*
X231465Y181285D02*
Y199789D01*
X264535Y181285D02*
Y199789D01*
X231465D02*
X264535D01*
X231465Y181285D02*
X264535D01*
D20*
X232031Y160537D02*
X235968D01*
X234000Y158569D02*
Y162505D01*
X246031Y190537D02*
X249969D01*
X248000Y188568D02*
Y192506D01*
D21*
X260000Y319937D02*
D03*
Y312063D02*
D03*
X244000Y319937D02*
D03*
Y312063D02*
D03*
X148000Y246063D02*
D03*
Y253937D02*
D03*
X528000Y146063D02*
D03*
Y138189D02*
D03*
D22*
X97740Y234000D02*
D03*
X90260D02*
D03*
X97740Y196000D02*
D03*
X90260D02*
D03*
X333740Y318000D02*
D03*
X326260D02*
D03*
X360260Y160537D02*
D03*
X367740D02*
D03*
X646260Y150000D02*
D03*
X653740D02*
D03*
D23*
X97937Y224071D02*
D03*
X95969D02*
D03*
X94000D02*
D03*
X92032D02*
D03*
X90063D02*
D03*
X97937Y207929D02*
D03*
X95969D02*
D03*
X94000D02*
D03*
X92032D02*
D03*
X90063D02*
D03*
D24*
X116157Y300500D02*
D03*
Y305500D02*
D03*
Y310500D02*
D03*
Y315500D02*
D03*
Y320500D02*
D03*
Y325500D02*
D03*
Y330500D02*
D03*
Y335500D02*
D03*
X75842Y300500D02*
D03*
Y305500D02*
D03*
Y310500D02*
D03*
Y315500D02*
D03*
Y320500D02*
D03*
Y325500D02*
D03*
Y330500D02*
D03*
Y335500D02*
D03*
D25*
X284000Y318000D02*
D03*
X130000Y254000D02*
D03*
X472000Y238000D02*
D03*
X556000Y304000D02*
D03*
X470000Y294126D02*
D03*
X612000Y298000D02*
D03*
X469937Y100126D02*
D03*
X486000Y42000D02*
D03*
X178000Y72000D02*
D03*
X246000Y48000D02*
D03*
X202000Y64000D02*
D03*
X256000Y146537D02*
D03*
X168000Y172000D02*
D03*
X238000Y78537D02*
D03*
X258000D02*
D03*
X356000Y122537D02*
D03*
X330000Y170537D02*
D03*
X348000Y206537D02*
D03*
X166000Y108000D02*
D03*
X370000Y194537D02*
D03*
X260000Y212537D02*
D03*
X166000Y120000D02*
D03*
X204000Y208537D02*
D03*
X399400Y368100D02*
D03*
X578700Y387800D02*
D03*
X631000Y365800D02*
D03*
X618000Y186000D02*
D03*
D26*
X45937Y350000D02*
D03*
X38063D02*
D03*
X56126D02*
D03*
X64000D02*
D03*
X142063Y224000D02*
D03*
X149937D02*
D03*
X169937D02*
D03*
X162063D02*
D03*
X422063Y292000D02*
D03*
X429937D02*
D03*
X485937Y252000D02*
D03*
X478063D02*
D03*
X455937Y242126D02*
D03*
X448063D02*
D03*
X477937Y276000D02*
D03*
X470063D02*
D03*
X477937Y60126D02*
D03*
X485811D02*
D03*
X450000Y44126D02*
D03*
X457874D02*
D03*
X419937Y94000D02*
D03*
X412063D02*
D03*
X470000Y80126D02*
D03*
X477874D02*
D03*
X182063Y158537D02*
D03*
X189937D02*
D03*
X245937Y90537D02*
D03*
X238063D02*
D03*
X204063Y190537D02*
D03*
X211937D02*
D03*
X546314Y420900D02*
D03*
X554188D02*
D03*
X626000Y162000D02*
D03*
X618126D02*
D03*
X673937Y108000D02*
D03*
X666063D02*
D03*
D27*
X40000Y299512D02*
D03*
Y288488D02*
D03*
X182000Y291512D02*
D03*
Y280488D02*
D03*
X552000Y194614D02*
D03*
Y205638D02*
D03*
X422000Y132126D02*
D03*
Y121102D02*
D03*
X500000Y151512D02*
D03*
Y140488D02*
D03*
X184000Y140049D02*
D03*
Y129025D02*
D03*
X606000Y137512D02*
D03*
Y126488D02*
D03*
D28*
X40000Y312063D02*
D03*
Y319937D02*
D03*
X458000Y276189D02*
D03*
Y284063D02*
D03*
X518000Y264126D02*
D03*
Y272000D02*
D03*
X428000Y264189D02*
D03*
Y272063D02*
D03*
X564000Y264063D02*
D03*
Y271937D02*
D03*
X515937Y76126D02*
D03*
Y68252D02*
D03*
X433937Y74063D02*
D03*
Y66189D02*
D03*
X558000Y75937D02*
D03*
Y68063D02*
D03*
X455937Y88126D02*
D03*
Y80252D02*
D03*
X364000Y220474D02*
D03*
Y212600D02*
D03*
X204000Y156600D02*
D03*
Y164474D02*
D03*
X274000Y168474D02*
D03*
Y160600D02*
D03*
X278000Y126600D02*
D03*
Y134474D02*
D03*
Y142600D02*
D03*
Y150474D02*
D03*
X368000Y112600D02*
D03*
Y120474D02*
D03*
X274000Y176600D02*
D03*
Y184474D02*
D03*
X184000Y110600D02*
D03*
Y118474D02*
D03*
X222000Y190600D02*
D03*
Y198474D02*
D03*
X280000Y232600D02*
D03*
Y240474D02*
D03*
Y224474D02*
D03*
Y216600D02*
D03*
X404500Y398386D02*
D03*
Y390512D02*
D03*
X670000Y140063D02*
D03*
Y147937D02*
D03*
D29*
X171937Y250000D02*
D03*
X164063D02*
D03*
X147874Y264000D02*
D03*
X140000D02*
D03*
X157937Y276000D02*
D03*
X150063D02*
D03*
X534063Y74000D02*
D03*
X541937D02*
D03*
X536063Y272000D02*
D03*
X543937D02*
D03*
X438063Y156126D02*
D03*
X445937D02*
D03*
X438063Y144126D02*
D03*
X445937D02*
D03*
X438063Y132126D02*
D03*
X445937D02*
D03*
X438063Y180126D02*
D03*
X445937D02*
D03*
X438063Y168126D02*
D03*
X445937D02*
D03*
X537937Y196126D02*
D03*
X530063D02*
D03*
D30*
X169512Y304000D02*
D03*
X158488D02*
D03*
X447024Y196126D02*
D03*
X436000D02*
D03*
X258488Y90537D02*
D03*
X269512D02*
D03*
X216488D02*
D03*
X227512D02*
D03*
X299512Y170537D02*
D03*
X288488D02*
D03*
X184488Y100537D02*
D03*
X195512D02*
D03*
X288488Y192537D02*
D03*
X299512D02*
D03*
X623512Y386000D02*
D03*
X612488D02*
D03*
D31*
X64000Y300260D02*
D03*
Y307740D02*
D03*
X128000Y294260D02*
D03*
Y301740D02*
D03*
X219839Y356161D02*
D03*
Y363642D02*
D03*
X544000Y154126D02*
D03*
Y146646D02*
D03*
X498000Y176386D02*
D03*
Y183866D02*
D03*
X240000Y136277D02*
D03*
Y128797D02*
D03*
X506000Y375480D02*
D03*
Y368000D02*
D03*
X597700Y361860D02*
D03*
Y369340D02*
D03*
D32*
X535500Y179347D02*
D03*
X530500D02*
D03*
X525500D02*
D03*
X520500D02*
D03*
X535500Y156905D02*
D03*
X530500D02*
D03*
X525500D02*
D03*
X520500D02*
D03*
D33*
X484728Y148626D02*
D03*
Y153626D02*
D03*
Y158626D02*
D03*
Y163626D02*
D03*
Y168626D02*
D03*
Y173626D02*
D03*
Y178626D02*
D03*
Y183626D02*
D03*
X463272Y148626D02*
D03*
Y153626D02*
D03*
Y158626D02*
D03*
Y163626D02*
D03*
Y168626D02*
D03*
Y173626D02*
D03*
Y178626D02*
D03*
Y183626D02*
D03*
D34*
X428268Y246681D02*
D03*
Y238571D02*
D03*
X436732Y242626D02*
D03*
X437937Y46126D02*
D03*
X429472Y42071D02*
D03*
Y50181D02*
D03*
D35*
X502331Y272126D02*
D03*
X493669Y268386D02*
D03*
Y275866D02*
D03*
X489606Y79866D02*
D03*
Y72386D02*
D03*
X498268Y76126D02*
D03*
D36*
X453945Y255661D02*
D03*
X462055D02*
D03*
X458000Y264126D02*
D03*
X459937Y70126D02*
D03*
X463992Y61661D02*
D03*
X455882D02*
D03*
X664000Y130000D02*
D03*
X668055Y121535D02*
D03*
X659945D02*
D03*
D37*
X564000Y255051D02*
D03*
Y248949D02*
D03*
X558000Y50949D02*
D03*
Y57051D02*
D03*
X364000Y230435D02*
D03*
Y236537D02*
D03*
X368000Y100600D02*
D03*
Y94498D02*
D03*
X404300Y414949D02*
D03*
Y421051D02*
D03*
D38*
X221205Y165537D02*
D03*
Y155537D02*
D03*
X246795Y165537D02*
D03*
Y155537D02*
D03*
X235205Y195537D02*
D03*
Y185537D02*
D03*
X260795Y195537D02*
D03*
Y185537D02*
D03*
D39*
X209370Y128037D02*
D03*
Y123037D02*
D03*
Y118037D02*
D03*
Y113037D02*
D03*
X230630Y128037D02*
D03*
Y123037D02*
D03*
Y118037D02*
D03*
Y113037D02*
D03*
D40*
X357500Y193167D02*
D03*
X352500D02*
D03*
X347500D02*
D03*
X342500D02*
D03*
X357500Y171907D02*
D03*
X352500D02*
D03*
X347500D02*
D03*
X342500D02*
D03*
D41*
X195051Y190537D02*
D03*
X188949D02*
D03*
X173051Y158000D02*
D03*
X166949D02*
D03*
X535302Y420900D02*
D03*
X529200D02*
D03*
X637012Y162000D02*
D03*
X643114D02*
D03*
D42*
X316000Y150537D02*
D03*
Y116679D02*
D03*
Y247466D02*
D03*
Y213608D02*
D03*
D43*
X596200Y407375D02*
D03*
X601200D02*
D03*
X606200D02*
D03*
X611200D02*
D03*
X596200Y429225D02*
D03*
X601200D02*
D03*
X606200D02*
D03*
X611200D02*
D03*
D44*
X615740Y354995D02*
D03*
X608260D02*
D03*
X615740Y366806D02*
D03*
X608260D02*
D03*
X612000Y354995D02*
D03*
D45*
X643221Y124500D02*
D03*
Y129500D02*
D03*
Y134500D02*
D03*
Y139500D02*
D03*
X620780Y124500D02*
D03*
Y129500D02*
D03*
Y134500D02*
D03*
Y139500D02*
D03*
D81*
X112000Y220000D02*
D03*
Y210000D02*
D03*
X102000Y176000D02*
D03*
X92000D02*
D03*
X82000D02*
D03*
X96000Y246000D02*
D03*
X106000D02*
D03*
X116000D02*
D03*
X82000Y278000D02*
D03*
X72000D02*
D03*
X62000D02*
D03*
X110000D02*
D03*
X120000D02*
D03*
X130000D02*
D03*
X46000Y266000D02*
D03*
X36000D02*
D03*
X124000Y366000D02*
D03*
X134000D02*
D03*
X56000Y372000D02*
D03*
X46000D02*
D03*
X300000Y318000D02*
D03*
X310000D02*
D03*
X92000Y370000D02*
D03*
Y380000D02*
D03*
X114000Y262000D02*
D03*
X104000D02*
D03*
X136000Y198000D02*
D03*
X146000D02*
D03*
X136000Y212000D02*
D03*
X146000D02*
D03*
X558000Y154126D02*
D03*
Y164126D02*
D03*
Y174126D02*
D03*
X498000Y196126D02*
D03*
X488000D02*
D03*
X478000D02*
D03*
X628000Y74000D02*
D03*
X638000D02*
D03*
X648000D02*
D03*
X658000D02*
D03*
X322000Y88537D02*
D03*
X312000D02*
D03*
X369200Y147137D02*
D03*
X359200D02*
D03*
X349200D02*
D03*
X264000Y114537D02*
D03*
X254000D02*
D03*
X244000D02*
D03*
X320000Y276000D02*
D03*
X310000D02*
D03*
X427700Y362200D02*
D03*
X417700D02*
D03*
X537200Y393000D02*
D03*
X527200D02*
D03*
X584300Y366800D02*
D03*
Y356800D02*
D03*
Y346800D02*
D03*
X397500Y338400D02*
D03*
X407500D02*
D03*
X658000Y168000D02*
D03*
X668000D02*
D03*
X678000D02*
D03*
D82*
X193937Y345260D02*
D03*
Y405260D02*
D03*
X203937Y345260D02*
D03*
Y405260D02*
D03*
X213937Y345260D02*
D03*
Y405260D02*
D03*
X223937Y345260D02*
D03*
Y405260D02*
D03*
X233937Y345260D02*
D03*
Y405260D02*
D03*
X243937Y345260D02*
D03*
Y405260D02*
D03*
X253937Y345260D02*
D03*
Y405260D02*
D03*
X263937Y345260D02*
D03*
Y405260D02*
D03*
X273937Y345260D02*
D03*
Y405260D02*
D03*
X283937Y345260D02*
D03*
Y405260D02*
D03*
X293937Y345260D02*
D03*
Y405260D02*
D03*
X303937Y345260D02*
D03*
Y405260D02*
D03*
X313937Y345260D02*
D03*
Y405260D02*
D03*
X323937Y345260D02*
D03*
Y405260D02*
D03*
D83*
X333937Y345260D02*
D03*
Y405260D02*
D03*
D84*
X56000Y392200D02*
D03*
X44200D02*
D03*
Y404000D02*
D03*
X56000D02*
D03*
D85*
X50100Y421000D02*
D03*
D86*
X166315Y38000D02*
D03*
X225370D02*
D03*
X205685D02*
D03*
X186000D02*
D03*
X614630Y36000D02*
D03*
X673685D02*
D03*
X654000D02*
D03*
X634315D02*
D03*
X664000Y424000D02*
D03*
Y408000D02*
D03*
D87*
X490401Y376438D02*
D03*
X480401D02*
D03*
X450401D02*
D03*
X440401D02*
D03*
X430401D02*
D03*
M02*
