G04*
G04 #@! TF.GenerationSoftware,Altium Limited,Altium Designer,22.8.2 (66)*
G04*
G04 Layer_Color=16711935*
%FSLAX25Y25*%
%MOIN*%
G70*
G04*
G04 #@! TF.SameCoordinates,BEF1E4EC-90C0-4ACD-898C-557356F843F1*
G04*
G04*
G04 #@! TF.FilePolarity,Positive*
G04*
G01*
G75*
%ADD14C,0.01000*%
%ADD16C,0.00500*%
%ADD19C,0.00197*%
%ADD20C,0.00394*%
D14*
X0Y0D02*
X700000D01*
Y450000D01*
X0D02*
X700000D01*
X0Y0D02*
Y450000D01*
D16*
X164941Y338764D02*
Y411756D01*
Y338764D02*
X362933D01*
Y411756D01*
X164941D02*
X362933D01*
X164941Y338764D02*
Y411756D01*
Y338764D02*
X362933D01*
Y411756D01*
X164941D02*
X362933D01*
D19*
X217465Y151285D02*
Y169789D01*
X250535Y151285D02*
Y169789D01*
X217465D02*
X250535D01*
X217465Y151285D02*
X250535D01*
X231465Y181285D02*
Y199789D01*
X264535Y181285D02*
Y199789D01*
X231465D02*
X264535D01*
X231465Y181285D02*
X264535D01*
D20*
X98528Y218559D02*
G03*
X98528Y218559I-1969J0D01*
G01*
X109386Y300874D02*
G03*
X109386Y300874I-1969J0D01*
G01*
X536661Y173638D02*
G03*
X536661Y173638I-1969J0D01*
G01*
X471638Y182268D02*
G03*
X471638Y182268I-1969J0D01*
G01*
X217638Y126836D02*
G03*
X217638Y126836I-1969J0D01*
G01*
X358268Y186868D02*
G03*
X358268Y186868I-1969J0D01*
G01*
X598976Y413772D02*
G03*
X598976Y413772I-1969J0D01*
G01*
X628457Y138693D02*
G03*
X628457Y138693I-1969J0D01*
G01*
X262657Y311866D02*
Y320134D01*
X257343Y311866D02*
Y320134D01*
X262657D01*
X257343Y311866D02*
X262657D01*
X246657D02*
Y320134D01*
X241342Y311866D02*
Y320134D01*
X246657D01*
X241342Y311866D02*
X246657D01*
X89669Y231343D02*
X98331D01*
X89669Y236658D02*
X98331D01*
Y231343D02*
Y236658D01*
X89669Y231343D02*
Y236658D01*
X87898Y222102D02*
X100102D01*
X87898Y209898D02*
X100102D01*
Y222102D01*
X87898Y209898D02*
Y222102D01*
X110961Y297331D02*
Y338669D01*
X81039Y297331D02*
Y338669D01*
Y297331D02*
X110961D01*
X81039Y338669D02*
X110961D01*
X37669Y347342D02*
Y352658D01*
X46331Y347342D02*
Y352658D01*
X37669D02*
X46331D01*
X37669Y347342D02*
X46331D01*
X64394D02*
Y352658D01*
X55732Y347342D02*
Y352658D01*
Y347342D02*
X64394D01*
X55732Y352658D02*
X64394D01*
X36555Y300988D02*
X43445D01*
X36555Y287012D02*
X43445D01*
Y300988D01*
X36555Y287012D02*
Y300988D01*
X37343Y311669D02*
Y320331D01*
X42658Y311669D02*
Y320331D01*
X37343Y311669D02*
X42658D01*
X37343Y320331D02*
X42658D01*
X145343Y245866D02*
X150657D01*
X145343Y254134D02*
X150657D01*
X145343Y245866D02*
Y254134D01*
X150657Y245866D02*
Y254134D01*
X172134Y247342D02*
Y252658D01*
X163866Y247342D02*
Y252658D01*
Y247342D02*
X172134D01*
X163866Y252658D02*
X172134D01*
X178555Y292988D02*
X185445D01*
X178555Y279012D02*
X185445D01*
Y292988D01*
X178555Y279012D02*
Y292988D01*
X170988Y300555D02*
Y307445D01*
X157012Y300555D02*
Y307445D01*
Y300555D02*
X170988D01*
X157012Y307445D02*
X170988D01*
X148071Y261343D02*
Y266657D01*
X139803Y261343D02*
Y266657D01*
Y261343D02*
X148071D01*
X139803Y266657D02*
X148071D01*
X158134Y273342D02*
Y278658D01*
X149866Y273342D02*
Y278658D01*
Y273342D02*
X158134D01*
X149866Y278658D02*
X158134D01*
X141669Y226658D02*
X150331D01*
X141669Y221342D02*
X150331D01*
X141669D02*
Y226658D01*
X150331Y221342D02*
Y226658D01*
X161669Y221342D02*
X170331D01*
X161669Y226658D02*
X170331D01*
Y221342D02*
Y226658D01*
X161669Y221342D02*
Y226658D01*
X98331Y193342D02*
Y198658D01*
X89669Y193342D02*
Y198658D01*
Y193342D02*
X98331D01*
X89669Y198658D02*
X98331D01*
X61343Y299669D02*
X66658D01*
X61343Y308331D02*
X66658D01*
X61343Y299669D02*
Y308331D01*
X66658Y299669D02*
Y308331D01*
X125343Y293669D02*
X130657D01*
X125343Y302331D02*
X130657D01*
X125343Y293669D02*
Y302331D01*
X130657Y293669D02*
Y302331D01*
X217181Y355571D02*
X222496D01*
X217181Y364232D02*
X222496D01*
X217181Y355571D02*
Y364232D01*
X222496Y355571D02*
Y364232D01*
X334331Y315342D02*
Y320657D01*
X325669Y315342D02*
Y320657D01*
Y315342D02*
X334331D01*
X325669Y320657D02*
X334331D01*
X421669Y289342D02*
Y294657D01*
X430331Y289342D02*
Y294657D01*
X421669D02*
X430331D01*
X421669Y289342D02*
X430331D01*
X533866Y76657D02*
X542134D01*
X533866Y71342D02*
X542134D01*
X533866D02*
Y76657D01*
X542134Y71342D02*
Y76657D01*
X535866Y274658D02*
X544134D01*
X535866Y269342D02*
X544134D01*
X535866D02*
Y274658D01*
X544134Y269342D02*
Y274658D01*
X517764Y177181D02*
X538236D01*
X517764Y159071D02*
X538236D01*
Y177181D01*
X517764Y159071D02*
Y177181D01*
X466126Y146441D02*
X481874D01*
X466126Y185811D02*
X481874D01*
Y146441D02*
Y185811D01*
X466126Y146441D02*
Y185811D01*
X437866Y158783D02*
X446134D01*
X437866Y153469D02*
X446134D01*
X437866D02*
Y158783D01*
X446134Y153469D02*
Y158783D01*
X437866Y146783D02*
X446134D01*
X437866Y141469D02*
X446134D01*
X437866D02*
Y146783D01*
X446134Y141469D02*
Y146783D01*
X548555Y193138D02*
Y207114D01*
X555445Y193138D02*
Y207114D01*
X548555Y193138D02*
X555445D01*
X548555Y207114D02*
X555445D01*
X437866Y134783D02*
X446134D01*
X437866Y129469D02*
X446134D01*
X437866D02*
Y134783D01*
X446134Y129469D02*
Y134783D01*
X437866Y182783D02*
X446134D01*
X437866Y177469D02*
X446134D01*
X437866D02*
Y182783D01*
X446134Y177469D02*
Y182783D01*
X425445Y119626D02*
Y133602D01*
X418555Y119626D02*
Y133602D01*
X425445D01*
X418555Y119626D02*
X425445D01*
X437866Y170783D02*
X446134D01*
X437866Y165469D02*
X446134D01*
X437866D02*
Y170783D01*
X446134Y165469D02*
Y170783D01*
X503445Y139012D02*
Y152988D01*
X496555Y139012D02*
Y152988D01*
X503445D01*
X496555Y139012D02*
X503445D01*
X434524Y192681D02*
X448500D01*
X434524Y199571D02*
X448500D01*
Y192681D02*
Y199571D01*
X434524Y192681D02*
Y199571D01*
X529866Y193468D02*
X538134D01*
X529866Y198784D02*
X538134D01*
Y193468D02*
Y198784D01*
X529866Y193468D02*
Y198784D01*
X530657Y137992D02*
Y146260D01*
X525343Y137992D02*
Y146260D01*
X530657D01*
X525343Y137992D02*
X530657D01*
X546658Y146055D02*
Y154717D01*
X541342Y146055D02*
Y154717D01*
X546658D01*
X541342Y146055D02*
X546658D01*
X495342Y175795D02*
Y184457D01*
X500658Y175795D02*
Y184457D01*
X495342Y175795D02*
X500658D01*
X495342Y184457D02*
X500658D01*
X486331Y249342D02*
Y254658D01*
X477669Y249342D02*
Y254658D01*
Y249342D02*
X486331D01*
X477669Y254658D02*
X486331D01*
X455342Y275795D02*
X460658D01*
X455342Y284457D02*
X460658D01*
X455342Y275795D02*
Y284457D01*
X460658Y275795D02*
Y284457D01*
X515343Y263732D02*
X520657D01*
X515343Y272394D02*
X520657D01*
X515343Y263732D02*
Y272394D01*
X520657Y263732D02*
Y272394D01*
X456331Y239469D02*
Y244783D01*
X447669Y239469D02*
Y244783D01*
Y239469D02*
X456331D01*
X447669Y244783D02*
X456331D01*
X425343Y263795D02*
X430657D01*
X425343Y272457D02*
X430657D01*
X425343Y263795D02*
Y272457D01*
X430657Y263795D02*
Y272457D01*
X478331Y273342D02*
Y278658D01*
X469669Y273342D02*
Y278658D01*
Y273342D02*
X478331D01*
X469669Y278658D02*
X478331D01*
X561342Y263669D02*
X566657D01*
X561342Y272331D02*
X566657D01*
X561342Y263669D02*
Y272331D01*
X566657Y263669D02*
Y272331D01*
X429744Y236720D02*
Y248532D01*
X435256Y236720D02*
Y248532D01*
X429744D02*
X435256D01*
X429744Y236720D02*
X435256D01*
X495047Y265984D02*
X500953D01*
X495047Y278268D02*
X500953D01*
Y265984D02*
Y278268D01*
X495047Y265984D02*
Y278268D01*
X452095Y257138D02*
X463905D01*
X452095Y262650D02*
X463905D01*
X452095Y257138D02*
Y262650D01*
X463905Y257138D02*
Y262650D01*
X562425Y255150D02*
X565575D01*
X562425Y248850D02*
X565575D01*
Y255150D01*
X562425Y248850D02*
Y255150D01*
X518595Y67858D02*
Y76520D01*
X513279Y67858D02*
Y76520D01*
X518595D01*
X513279Y67858D02*
X518595D01*
X436594Y65795D02*
Y74457D01*
X431280Y65795D02*
Y74457D01*
X436594D01*
X431280Y65795D02*
X436594D01*
X560658Y67669D02*
Y76331D01*
X555342Y67669D02*
Y76331D01*
X560658D01*
X555342Y67669D02*
X560658D01*
X477543Y62783D02*
X486205D01*
X477543Y57468D02*
X486205D01*
X477543D02*
Y62783D01*
X486205Y57468D02*
Y62783D01*
X449606Y46784D02*
X458268D01*
X449606Y41469D02*
X458268D01*
X449606D02*
Y46784D01*
X458268Y41469D02*
Y46784D01*
X411669Y91343D02*
X420331D01*
X411669Y96658D02*
X420331D01*
Y91343D02*
Y96658D01*
X411669Y91343D02*
Y96658D01*
X469606Y82784D02*
X478268D01*
X469606Y77469D02*
X478268D01*
X469606D02*
Y82784D01*
X478268Y77469D02*
Y82784D01*
X458595Y79858D02*
Y88520D01*
X453279Y79858D02*
Y88520D01*
X458595D01*
X453279Y79858D02*
X458595D01*
X430949Y40220D02*
X436461D01*
X430949Y52031D02*
X436461D01*
Y40220D02*
Y52031D01*
X430949Y40220D02*
Y52031D01*
X465842Y63138D02*
Y68650D01*
X454032Y63138D02*
Y68650D01*
X465842D01*
X454032Y63138D02*
X465842D01*
X490984Y69984D02*
Y82268D01*
X496890Y69984D02*
Y82268D01*
X490984D02*
X496890D01*
X490984Y69984D02*
X496890D01*
X556425Y50850D02*
Y57150D01*
X559575Y50850D02*
Y57150D01*
X556425Y50850D02*
X559575D01*
X556425Y57150D02*
X559575D01*
X212126Y110695D02*
Y130379D01*
X227874Y110695D02*
Y130379D01*
X212126D02*
X227874D01*
X212126Y110695D02*
X227874D01*
X340158Y190411D02*
X359842D01*
X340158Y174663D02*
X359842D01*
Y190411D01*
X340158Y174663D02*
Y190411D01*
X361343Y220868D02*
X366657D01*
X361343Y212206D02*
X366657D01*
Y220868D01*
X361343Y212206D02*
Y220868D01*
X257012Y93982D02*
X270988D01*
X257012Y87092D02*
X270988D01*
X257012D02*
Y93982D01*
X270988Y87092D02*
Y93982D01*
X181669Y155879D02*
Y161195D01*
X190331Y155879D02*
Y161195D01*
X181669D02*
X190331D01*
X181669Y155879D02*
X190331D01*
X201343Y156206D02*
X206658D01*
X201343Y164868D02*
X206658D01*
X201343Y156206D02*
Y164868D01*
X206658Y156206D02*
Y164868D01*
X215012Y93982D02*
X228988D01*
X215012Y87092D02*
X228988D01*
X215012D02*
Y93982D01*
X228988Y87092D02*
Y93982D01*
X246331Y87880D02*
Y93195D01*
X237669Y87880D02*
Y93195D01*
Y87880D02*
X246331D01*
X237669Y93195D02*
X246331D01*
X271342Y168868D02*
X276658D01*
X271342Y160206D02*
X276658D01*
Y168868D01*
X271342Y160206D02*
Y168868D01*
X203669Y187880D02*
Y193194D01*
X212331Y187880D02*
Y193194D01*
X203669D02*
X212331D01*
X203669Y187880D02*
X212331D01*
X287012Y167092D02*
X300988D01*
X287012Y173982D02*
X300988D01*
Y167092D02*
Y173982D01*
X287012Y167092D02*
Y173982D01*
X275342Y126206D02*
X280658D01*
X275342Y134868D02*
X280658D01*
X275342Y126206D02*
Y134868D01*
X280658Y126206D02*
Y134868D01*
X275342Y142206D02*
X280658D01*
X275342Y150868D02*
X280658D01*
X275342Y142206D02*
Y150868D01*
X280658Y142206D02*
Y150868D01*
X362425Y230336D02*
X365575D01*
X362425Y236635D02*
X365575D01*
X362425Y230336D02*
Y236635D01*
X365575Y230336D02*
Y236635D01*
X195150Y188962D02*
Y192112D01*
X188850Y188962D02*
Y192112D01*
Y188962D02*
X195150D01*
X188850Y192112D02*
X195150D01*
X173150Y156425D02*
Y159575D01*
X166850Y156425D02*
Y159575D01*
Y156425D02*
X173150D01*
X166850Y159575D02*
X173150D01*
X331059Y153884D02*
X336276Y148667D01*
Y113332D02*
Y148667D01*
X295724Y113332D02*
X336276D01*
X295724D02*
Y148667D01*
X300941Y153884D01*
X331059D01*
X359669Y157879D02*
Y163195D01*
X368331Y157879D02*
Y163195D01*
X359669D02*
X368331D01*
X359669Y157879D02*
X368331D01*
X365342Y112206D02*
X370657D01*
X365342Y120868D02*
X370657D01*
X365342Y112206D02*
Y120868D01*
X370657Y112206D02*
Y120868D01*
X366425Y100698D02*
X369575D01*
X366425Y94399D02*
X369575D01*
Y100698D01*
X366425Y94399D02*
Y100698D01*
X183012Y103982D02*
X196988D01*
X183012Y97092D02*
X196988D01*
X183012D02*
Y103982D01*
X196988Y97092D02*
Y103982D01*
X271342Y176206D02*
X276658D01*
X271342Y184868D02*
X276658D01*
X271342Y176206D02*
Y184868D01*
X276658Y176206D02*
Y184868D01*
X287012Y189092D02*
Y195982D01*
X300988Y189092D02*
Y195982D01*
X287012D02*
X300988D01*
X287012Y189092D02*
X300988D01*
X181342Y110206D02*
X186658D01*
X181342Y118868D02*
X186658D01*
X181342Y110206D02*
Y118868D01*
X186658Y110206D02*
Y118868D01*
X219342Y190206D02*
X224658D01*
X219342Y198868D02*
X224658D01*
X219342Y190206D02*
Y198868D01*
X224658Y190206D02*
Y198868D01*
X187445Y127549D02*
Y141525D01*
X180555Y127549D02*
Y141525D01*
X187445D01*
X180555Y127549D02*
X187445D01*
X277343Y232206D02*
X282658D01*
X277343Y240868D02*
X282658D01*
X277343Y232206D02*
Y240868D01*
X282658Y232206D02*
Y240868D01*
X277343Y224868D02*
X282658D01*
X277343Y216206D02*
X282658D01*
Y224868D01*
X277343Y216206D02*
Y224868D01*
X300941Y210261D02*
X331059D01*
X336276Y215478D01*
Y250813D01*
X295724D02*
X336276D01*
X295724Y215478D02*
Y250813D01*
Y215478D02*
X300941Y210261D01*
X242657Y128206D02*
Y136868D01*
X237343Y128206D02*
Y136868D01*
X242657D01*
X237343Y128206D02*
X242657D01*
X645669Y152657D02*
X654331D01*
X645669Y147343D02*
X654331D01*
X645669D02*
Y152657D01*
X654331Y147343D02*
Y152657D01*
X503342Y376071D02*
X508658D01*
X503342Y367409D02*
X508658D01*
Y376071D01*
X503342Y367409D02*
Y376071D01*
X545921Y418243D02*
Y423558D01*
X554582Y418243D02*
Y423558D01*
X545921D02*
X554582D01*
X545921Y418243D02*
X554582D01*
X401842Y398780D02*
X407158D01*
X401842Y390118D02*
X407158D01*
Y398780D01*
X401842Y390118D02*
Y398780D01*
X535401Y419325D02*
Y422475D01*
X529102Y419325D02*
Y422475D01*
Y419325D02*
X535401D01*
X529102Y422475D02*
X535401D01*
X402725Y414850D02*
X405875D01*
X402725Y421150D02*
X405875D01*
X402725Y414850D02*
Y421150D01*
X405875Y414850D02*
Y421150D01*
X593464Y410229D02*
X613936D01*
X593464Y426371D02*
X613936D01*
X593464Y410229D02*
Y426371D01*
X613936Y410229D02*
Y426371D01*
X618102Y357357D02*
Y364443D01*
X605898Y357357D02*
Y364443D01*
X618102D01*
X605898Y357357D02*
X618102D01*
X624988Y382555D02*
Y389445D01*
X611012Y382555D02*
Y389445D01*
Y382555D02*
X624988D01*
X611012Y389445D02*
X624988D01*
X595043Y361269D02*
X600357D01*
X595043Y369931D02*
X600357D01*
X595043Y361269D02*
Y369931D01*
X600357Y361269D02*
Y369931D01*
X609445Y125012D02*
Y138988D01*
X602555Y125012D02*
Y138988D01*
X609445D01*
X602555Y125012D02*
X609445D01*
X626394Y159343D02*
Y164657D01*
X617732Y159343D02*
Y164657D01*
Y159343D02*
X626394D01*
X617732Y164657D02*
X626394D01*
X636913Y160425D02*
Y163575D01*
X643213Y160425D02*
Y163575D01*
X636913D02*
X643213D01*
X636913Y160425D02*
X643213D01*
X622945Y121764D02*
X641055D01*
X622945Y142236D02*
X641055D01*
Y121764D02*
Y142236D01*
X622945Y121764D02*
Y142236D01*
X665669Y105342D02*
X674331D01*
X665669Y110658D02*
X674331D01*
Y105342D02*
Y110658D01*
X665669Y105342D02*
Y110658D01*
X667343Y139669D02*
Y148331D01*
X672657Y139669D02*
Y148331D01*
X667343Y139669D02*
X672657D01*
X667343Y148331D02*
X672657D01*
X669906Y123012D02*
Y128524D01*
X658095Y123012D02*
Y128524D01*
X669906D01*
X658095Y123012D02*
X669906D01*
X232031Y160537D02*
X235968D01*
X234000Y158569D02*
Y162505D01*
X246031Y190537D02*
X249969D01*
X248000Y188568D02*
Y192506D01*
M02*
