G04*
G04 #@! TF.GenerationSoftware,Altium Limited,Altium Designer,22.8.2 (66)*
G04*
G04 Layer_Color=16711935*
%FSLAX25Y25*%
%MOIN*%
G70*
G04*
G04 #@! TF.SameCoordinates,BEF1E4EC-90C0-4ACD-898C-557356F843F1*
G04*
G04*
G04 #@! TF.FilePolarity,Negative*
G04*
G01*
G75*
%ADD16C,0.00500*%
%ADD19C,0.00197*%
%ADD20C,0.00394*%
%ADD71C,0.07887*%
%ADD72C,0.06824*%
%ADD73R,0.06824X0.06824*%
%ADD74C,0.07800*%
%ADD75C,0.15600*%
%ADD76C,0.12611*%
%ADD77R,0.06800X0.06800*%
%ADD78C,0.03300*%
D16*
X164941Y338764D02*
Y411756D01*
Y338764D02*
X362933D01*
Y411756D01*
X164941D02*
X362933D01*
X164941Y338764D02*
Y411756D01*
Y338764D02*
X362933D01*
Y411756D01*
X164941D02*
X362933D01*
D19*
X217465Y151285D02*
Y169789D01*
X250535Y151285D02*
Y169789D01*
X217465D02*
X250535D01*
X217465Y151285D02*
X250535D01*
X231465Y181285D02*
Y199789D01*
X264535Y181285D02*
Y199789D01*
X231465D02*
X264535D01*
X231465Y181285D02*
X264535D01*
D20*
X232031Y160537D02*
X235968D01*
X234000Y158569D02*
Y162505D01*
X246031Y190537D02*
X249969D01*
X248000Y188568D02*
Y192506D01*
D71*
X112000Y220000D02*
D03*
Y210000D02*
D03*
X102000Y176000D02*
D03*
X92000D02*
D03*
X82000D02*
D03*
X96000Y246000D02*
D03*
X106000D02*
D03*
X116000D02*
D03*
X82000Y278000D02*
D03*
X72000D02*
D03*
X62000D02*
D03*
X110000D02*
D03*
X120000D02*
D03*
X130000D02*
D03*
X46000Y266000D02*
D03*
X36000D02*
D03*
X124000Y366000D02*
D03*
X134000D02*
D03*
X56000Y372000D02*
D03*
X46000D02*
D03*
X300000Y318000D02*
D03*
X310000D02*
D03*
X92000Y370000D02*
D03*
Y380000D02*
D03*
X114000Y262000D02*
D03*
X104000D02*
D03*
X136000Y198000D02*
D03*
X146000D02*
D03*
X136000Y212000D02*
D03*
X146000D02*
D03*
X558000Y154126D02*
D03*
Y164126D02*
D03*
Y174126D02*
D03*
X498000Y196126D02*
D03*
X488000D02*
D03*
X478000D02*
D03*
X628000Y74000D02*
D03*
X638000D02*
D03*
X648000D02*
D03*
X658000D02*
D03*
X322000Y88537D02*
D03*
X312000D02*
D03*
X369200Y147137D02*
D03*
X359200D02*
D03*
X349200D02*
D03*
X264000Y114537D02*
D03*
X254000D02*
D03*
X244000D02*
D03*
X320000Y276000D02*
D03*
X310000D02*
D03*
X427700Y362200D02*
D03*
X417700D02*
D03*
X537200Y393000D02*
D03*
X527200D02*
D03*
X584300Y366800D02*
D03*
Y356800D02*
D03*
Y346800D02*
D03*
X397500Y338400D02*
D03*
X407500D02*
D03*
X658000Y168000D02*
D03*
X668000D02*
D03*
X678000D02*
D03*
D72*
X193937Y345260D02*
D03*
Y405260D02*
D03*
X203937Y345260D02*
D03*
Y405260D02*
D03*
X213937Y345260D02*
D03*
Y405260D02*
D03*
X223937Y345260D02*
D03*
Y405260D02*
D03*
X233937Y345260D02*
D03*
Y405260D02*
D03*
X243937Y345260D02*
D03*
Y405260D02*
D03*
X253937Y345260D02*
D03*
Y405260D02*
D03*
X263937Y345260D02*
D03*
Y405260D02*
D03*
X273937Y345260D02*
D03*
Y405260D02*
D03*
X283937Y345260D02*
D03*
Y405260D02*
D03*
X293937Y345260D02*
D03*
Y405260D02*
D03*
X303937Y345260D02*
D03*
Y405260D02*
D03*
X313937Y345260D02*
D03*
Y405260D02*
D03*
X323937Y345260D02*
D03*
Y405260D02*
D03*
D73*
X333937Y345260D02*
D03*
Y405260D02*
D03*
D74*
X56000Y392200D02*
D03*
X44200D02*
D03*
Y404000D02*
D03*
X56000D02*
D03*
D75*
X50100Y421000D02*
D03*
D76*
X166315Y38000D02*
D03*
X225370D02*
D03*
X205685D02*
D03*
X186000D02*
D03*
X614630Y36000D02*
D03*
X673685D02*
D03*
X654000D02*
D03*
X634315D02*
D03*
X664000Y424000D02*
D03*
Y408000D02*
D03*
D77*
X490401Y376438D02*
D03*
X480401D02*
D03*
X450401D02*
D03*
X440401D02*
D03*
X430401D02*
D03*
D78*
X626000Y354000D02*
D03*
X64000Y332000D02*
D03*
X76000Y186000D02*
D03*
X82000Y230000D02*
D03*
X76000Y226000D02*
D03*
X164000Y242000D02*
D03*
X106000Y234000D02*
D03*
X78000Y344000D02*
D03*
X116000Y346000D02*
D03*
X230000Y364000D02*
D03*
X264000Y394000D02*
D03*
X222000Y398000D02*
D03*
X252000D02*
D03*
X124000Y172000D02*
D03*
Y166000D02*
D03*
Y160000D02*
D03*
Y178000D02*
D03*
X132000D02*
D03*
Y162000D02*
D03*
X140000D02*
D03*
Y178000D02*
D03*
X134000Y222000D02*
D03*
X148000Y238000D02*
D03*
X172000Y260000D02*
D03*
X158000Y264000D02*
D03*
Y290000D02*
D03*
X138000Y304000D02*
D03*
X182000D02*
D03*
X326000Y310000D02*
D03*
X40000Y280000D02*
D03*
X54000Y308000D02*
D03*
X106000Y346000D02*
D03*
X394000Y130000D02*
D03*
X388000Y198000D02*
D03*
X394000Y110000D02*
D03*
Y202000D02*
D03*
Y186000D02*
D03*
Y150000D02*
D03*
X400000Y198000D02*
D03*
Y190000D02*
D03*
X388000D02*
D03*
X400000Y136000D02*
D03*
X388000D02*
D03*
X400000Y144000D02*
D03*
X388000D02*
D03*
X400000Y124000D02*
D03*
X388000D02*
D03*
X400000Y116000D02*
D03*
X388000D02*
D03*
X608000Y320000D02*
D03*
X466000Y248000D02*
D03*
X516000Y188000D02*
D03*
X564000Y206000D02*
D03*
Y240000D02*
D03*
X518000Y256000D02*
D03*
X422000Y110000D02*
D03*
X464000Y140000D02*
D03*
X462000Y34000D02*
D03*
X422000Y42000D02*
D03*
X456000Y234000D02*
D03*
X420000Y238000D02*
D03*
X426000Y196000D02*
D03*
X500000Y124000D02*
D03*
X498000Y168000D02*
D03*
X472000Y52000D02*
D03*
X516000Y60000D02*
D03*
X558000Y42000D02*
D03*
X544000Y138000D02*
D03*
X676000Y118000D02*
D03*
X624000Y314000D02*
D03*
X600000D02*
D03*
X616000Y320000D02*
D03*
Y308000D02*
D03*
X608000D02*
D03*
X184000Y62000D02*
D03*
X168000Y163463D02*
D03*
X148000Y160000D02*
D03*
Y166000D02*
D03*
Y172000D02*
D03*
Y178000D02*
D03*
X134000Y120000D02*
D03*
X158000Y110000D02*
D03*
X134000D02*
D03*
X142000Y108000D02*
D03*
Y120000D02*
D03*
X150000Y108000D02*
D03*
Y120000D02*
D03*
X158000Y122000D02*
D03*
X316000Y264000D02*
D03*
X280000Y248000D02*
D03*
Y90000D02*
D03*
X316000Y100000D02*
D03*
X204000D02*
D03*
X198000Y112000D02*
D03*
X268000Y126000D02*
D03*
X230000Y138000D02*
D03*
X212000Y154000D02*
D03*
X264000Y168000D02*
D03*
Y176000D02*
D03*
X224000Y182000D02*
D03*
X178000Y190000D02*
D03*
X332000Y194000D02*
D03*
X368000Y86000D02*
D03*
X372000Y238000D02*
D03*
X606000Y116000D02*
D03*
X376000Y160000D02*
D03*
X638000Y154000D02*
D03*
X636000Y148000D02*
D03*
X620000Y116000D02*
D03*
X518000Y420000D02*
D03*
X450000Y366000D02*
D03*
X636000Y386000D02*
D03*
X480000Y364000D02*
D03*
X506000Y358000D02*
D03*
X414000Y422000D02*
D03*
X598000Y354000D02*
D03*
M02*
