G04*
G04 #@! TF.GenerationSoftware,Altium Limited,Altium Designer,23.3.1 (30)*
G04*
G04 Layer_Color=8388736*
%FSLAX25Y25*%
%MOIN*%
G70*
G04*
G04 #@! TF.SameCoordinates,B9ADD834-6C2E-4723-A052-446894AFEB0A*
G04*
G04*
G04 #@! TF.FilePolarity,Negative*
G04*
G01*
G75*
%ADD30R,0.06901X0.01004*%
G04:AMPARAMS|DCode=31|XSize=69.01mil|YSize=10.04mil|CornerRadius=5.02mil|HoleSize=0mil|Usage=FLASHONLY|Rotation=0.000|XOffset=0mil|YOffset=0mil|HoleType=Round|Shape=RoundedRectangle|*
%AMROUNDEDRECTD31*
21,1,0.06901,0.00000,0,0,0.0*
21,1,0.05897,0.01004,0,0,0.0*
1,1,0.01004,0.02949,0.00000*
1,1,0.01004,-0.02949,0.00000*
1,1,0.01004,-0.02949,0.00000*
1,1,0.01004,0.02949,0.00000*
%
%ADD31ROUNDEDRECTD31*%
%ADD32R,0.06732X0.04000*%
%ADD35R,0.08000X0.04500*%
G04:AMPARAMS|DCode=36|XSize=53.36mil|YSize=22.14mil|CornerRadius=11.07mil|HoleSize=0mil|Usage=FLASHONLY|Rotation=180.000|XOffset=0mil|YOffset=0mil|HoleType=Round|Shape=RoundedRectangle|*
%AMROUNDEDRECTD36*
21,1,0.05336,0.00000,0,0,180.0*
21,1,0.03121,0.02214,0,0,180.0*
1,1,0.02214,-0.01561,0.00000*
1,1,0.02214,0.01561,0.00000*
1,1,0.02214,0.01561,0.00000*
1,1,0.02214,-0.01561,0.00000*
%
%ADD36ROUNDEDRECTD36*%
%ADD37R,0.05336X0.02214*%
G04:AMPARAMS|DCode=38|XSize=67.04mil|YSize=20.95mil|CornerRadius=10.48mil|HoleSize=0mil|Usage=FLASHONLY|Rotation=180.000|XOffset=0mil|YOffset=0mil|HoleType=Round|Shape=RoundedRectangle|*
%AMROUNDEDRECTD38*
21,1,0.06704,0.00000,0,0,180.0*
21,1,0.04609,0.02095,0,0,180.0*
1,1,0.02095,-0.02305,0.00000*
1,1,0.02095,0.02305,0.00000*
1,1,0.02095,0.02305,0.00000*
1,1,0.02095,-0.02305,0.00000*
%
%ADD38ROUNDEDRECTD38*%
%ADD39R,0.06704X0.02095*%
%ADD40R,0.13410X0.04560*%
%ADD48R,0.05131X0.03162*%
%ADD49O,0.02178X0.08083*%
%ADD50C,0.03800*%
%ADD51R,0.06509X0.05524*%
%ADD52R,0.06115X0.04343*%
%ADD53R,0.04343X0.06115*%
%ADD54R,0.06312X0.04934*%
%ADD55R,0.04934X0.06312*%
%ADD56R,0.05721X0.04540*%
%ADD57R,0.05524X0.06509*%
%ADD58R,0.04383X0.05603*%
%ADD59R,0.13200X0.08500*%
%ADD60R,0.04540X0.04343*%
%ADD61R,0.09265X0.13595*%
%ADD62R,0.09265X0.04737*%
%ADD63R,0.07887X0.06509*%
%ADD64R,0.04343X0.04540*%
%ADD65O,0.06509X0.03162*%
%ADD66C,0.07887*%
%ADD67C,0.07800*%
%ADD68C,0.15600*%
%ADD69C,0.12611*%
%ADD70C,0.16548*%
%ADD71C,0.03300*%
D30*
X122000Y573685D02*
D03*
D31*
Y571716D02*
D03*
Y569748D02*
D03*
Y567779D02*
D03*
Y565811D02*
D03*
Y563842D02*
D03*
Y561874D02*
D03*
Y559905D02*
D03*
Y557937D02*
D03*
Y555969D02*
D03*
Y554000D02*
D03*
Y552032D02*
D03*
Y550063D02*
D03*
Y548095D02*
D03*
Y546126D02*
D03*
Y544158D02*
D03*
Y542189D02*
D03*
Y540220D02*
D03*
Y538252D02*
D03*
Y536283D02*
D03*
Y534315D02*
D03*
Y532346D02*
D03*
Y530378D02*
D03*
Y528409D02*
D03*
X148576D02*
D03*
Y530378D02*
D03*
Y532346D02*
D03*
Y534315D02*
D03*
Y536283D02*
D03*
Y538252D02*
D03*
Y540220D02*
D03*
Y542189D02*
D03*
Y544158D02*
D03*
Y546126D02*
D03*
Y548095D02*
D03*
Y550063D02*
D03*
Y552032D02*
D03*
Y554000D02*
D03*
Y555969D02*
D03*
Y557937D02*
D03*
Y559905D02*
D03*
Y561874D02*
D03*
Y563842D02*
D03*
Y565811D02*
D03*
Y567779D02*
D03*
Y569748D02*
D03*
Y571716D02*
D03*
Y573685D02*
D03*
D32*
X46874Y633685D02*
D03*
Y625811D02*
D03*
Y617937D02*
D03*
Y610063D02*
D03*
Y602189D02*
D03*
Y594315D02*
D03*
X101126D02*
D03*
Y602189D02*
D03*
Y610063D02*
D03*
Y617937D02*
D03*
Y625811D02*
D03*
Y633685D02*
D03*
D35*
X314000Y341250D02*
D03*
Y330750D02*
D03*
X390000Y335250D02*
D03*
Y324750D02*
D03*
X190000Y341250D02*
D03*
Y330750D02*
D03*
X64000D02*
D03*
Y341250D02*
D03*
D36*
X382356Y444000D02*
D03*
X389644Y447740D02*
D03*
X224713Y453740D02*
D03*
X232000Y457480D02*
D03*
X84356Y454000D02*
D03*
X91644Y457740D02*
D03*
D37*
X389644Y440260D02*
D03*
X232000Y450000D02*
D03*
X91644Y450260D02*
D03*
D38*
X188188Y419500D02*
D03*
Y424500D02*
D03*
X211812D02*
D03*
X48188Y421500D02*
D03*
Y426500D02*
D03*
X71812D02*
D03*
X346188Y409500D02*
D03*
Y414500D02*
D03*
X369812D02*
D03*
D39*
X211812Y419500D02*
D03*
X71812Y421500D02*
D03*
X369812Y409500D02*
D03*
D40*
X386000Y429819D02*
D03*
Y406181D02*
D03*
X404000Y429819D02*
D03*
Y406181D02*
D03*
X246000Y439819D02*
D03*
Y416181D02*
D03*
X228000Y439819D02*
D03*
Y416181D02*
D03*
X90000Y437819D02*
D03*
Y414181D02*
D03*
X108000Y437819D02*
D03*
Y414181D02*
D03*
D48*
X296465Y553740D02*
D03*
Y546260D02*
D03*
X287016D02*
D03*
Y550000D02*
D03*
Y553740D02*
D03*
D49*
X322697Y531516D02*
D03*
X320138D02*
D03*
X317579D02*
D03*
X315020D02*
D03*
X312461D02*
D03*
X309902D02*
D03*
X307343D02*
D03*
X304783D02*
D03*
X322697Y508484D02*
D03*
X320138D02*
D03*
X317579D02*
D03*
X315020D02*
D03*
X312461D02*
D03*
X309902D02*
D03*
X307343D02*
D03*
X304783D02*
D03*
D50*
X294000Y532000D02*
D03*
X265740Y568000D02*
D03*
X220000Y548000D02*
D03*
X218000Y528000D02*
D03*
X32000Y618000D02*
D03*
Y610000D02*
D03*
X30000Y634000D02*
D03*
X32000Y594000D02*
D03*
X134000Y640000D02*
D03*
Y592000D02*
D03*
Y630000D02*
D03*
Y602000D02*
D03*
X142000Y390000D02*
D03*
X130000D02*
D03*
X210000Y504000D02*
D03*
X418000Y440000D02*
D03*
X380000Y384000D02*
D03*
X336000Y376000D02*
D03*
X12000Y384000D02*
D03*
X266000Y440000D02*
D03*
X130000Y438000D02*
D03*
X254484Y672000D02*
D03*
X314063Y638000D02*
D03*
D51*
X308000Y546063D02*
D03*
Y553937D02*
D03*
D52*
X277740Y561937D02*
D03*
Y554063D02*
D03*
X379740Y482063D02*
D03*
Y489937D02*
D03*
Y500063D02*
D03*
Y507937D02*
D03*
Y516063D02*
D03*
Y523937D02*
D03*
Y532063D02*
D03*
Y539937D02*
D03*
X208000Y520063D02*
D03*
Y527937D02*
D03*
X198000Y545937D02*
D03*
Y538063D02*
D03*
X314000Y352063D02*
D03*
Y359937D02*
D03*
X390000Y346126D02*
D03*
Y354000D02*
D03*
X190000Y352126D02*
D03*
Y360000D02*
D03*
X194000Y494063D02*
D03*
Y501937D02*
D03*
X202000Y494063D02*
D03*
Y501937D02*
D03*
X64000Y359874D02*
D03*
Y352000D02*
D03*
D53*
X357803Y490000D02*
D03*
X365677D02*
D03*
X357740Y506000D02*
D03*
X365614D02*
D03*
X357803Y520000D02*
D03*
X365677D02*
D03*
X357803Y536000D02*
D03*
X365677D02*
D03*
X172000Y593736D02*
D03*
X164126D02*
D03*
X178063Y570000D02*
D03*
X185937D02*
D03*
X171937Y582000D02*
D03*
X164063D02*
D03*
X185937Y593736D02*
D03*
X178063D02*
D03*
X164063Y570000D02*
D03*
X171937D02*
D03*
X173937Y605736D02*
D03*
X166063D02*
D03*
X181937Y615736D02*
D03*
X174063D02*
D03*
X400000Y440000D02*
D03*
X407874D02*
D03*
X205937Y436000D02*
D03*
X198063D02*
D03*
X242063Y450000D02*
D03*
X249937D02*
D03*
X67874Y440000D02*
D03*
X60000D02*
D03*
X363937Y428000D02*
D03*
X356063D02*
D03*
X102000Y450000D02*
D03*
X109874D02*
D03*
X220063Y676000D02*
D03*
X227937D02*
D03*
X340000Y638000D02*
D03*
X332126D02*
D03*
D54*
X277740Y568260D02*
D03*
Y575740D02*
D03*
X108000Y572000D02*
D03*
Y564520D02*
D03*
X326000Y368520D02*
D03*
Y376000D02*
D03*
X200000Y368260D02*
D03*
Y375740D02*
D03*
X184000Y494260D02*
D03*
Y501740D02*
D03*
X74000Y375740D02*
D03*
Y368260D02*
D03*
X242484Y707740D02*
D03*
Y700260D02*
D03*
X324063Y645740D02*
D03*
Y638260D02*
D03*
D55*
X288000Y564000D02*
D03*
X295480D02*
D03*
X315740Y498000D02*
D03*
X323220D02*
D03*
X349480Y536000D02*
D03*
X342000D02*
D03*
X349480Y520000D02*
D03*
X342000D02*
D03*
X349480Y506000D02*
D03*
X342000D02*
D03*
X349740Y490000D02*
D03*
X342260D02*
D03*
X389480Y552000D02*
D03*
X382000D02*
D03*
X112260Y620000D02*
D03*
X119740D02*
D03*
X119740Y612000D02*
D03*
X112260D02*
D03*
X343740Y622000D02*
D03*
X336260D02*
D03*
D56*
X112000Y596949D02*
D03*
Y603051D02*
D03*
Y635051D02*
D03*
Y628949D02*
D03*
D57*
X173937Y538000D02*
D03*
X166063D02*
D03*
X173937Y528000D02*
D03*
X166063D02*
D03*
X174000Y510000D02*
D03*
X166126D02*
D03*
X173937Y500000D02*
D03*
X166063D02*
D03*
X173937Y548000D02*
D03*
X166063D02*
D03*
X173937Y558000D02*
D03*
X166063D02*
D03*
X402000Y74000D02*
D03*
X409874D02*
D03*
X22000Y330000D02*
D03*
X14126D02*
D03*
X362000Y622000D02*
D03*
X354126D02*
D03*
D58*
X266437Y376000D02*
D03*
X253563D02*
D03*
X366437D02*
D03*
X353563D02*
D03*
X142437D02*
D03*
X129563D02*
D03*
D59*
X420000Y100700D02*
D03*
Y120000D02*
D03*
X12000Y369300D02*
D03*
Y350000D02*
D03*
D60*
X194000Y486000D02*
D03*
Y479898D02*
D03*
D61*
X278000Y690000D02*
D03*
D62*
X254969Y680945D02*
D03*
Y690000D02*
D03*
Y699055D02*
D03*
D63*
X242484Y683512D02*
D03*
Y672488D02*
D03*
D64*
X211051Y676000D02*
D03*
X204949D02*
D03*
D65*
X349335Y647500D02*
D03*
Y642500D02*
D03*
Y637500D02*
D03*
Y632500D02*
D03*
X370791Y647500D02*
D03*
Y642500D02*
D03*
Y637500D02*
D03*
Y632500D02*
D03*
D66*
X73500Y536500D02*
D03*
Y526500D02*
D03*
Y516500D02*
D03*
X226000Y647000D02*
D03*
Y637000D02*
D03*
Y627000D02*
D03*
Y612000D02*
D03*
Y602000D02*
D03*
Y592000D02*
D03*
X285740Y496000D02*
D03*
X295740D02*
D03*
X305740D02*
D03*
X309740Y566000D02*
D03*
X319740D02*
D03*
X329740D02*
D03*
X96000Y570000D02*
D03*
X86000D02*
D03*
X76000D02*
D03*
X322000Y610000D02*
D03*
X332000D02*
D03*
X342000D02*
D03*
X230484Y716000D02*
D03*
Y706000D02*
D03*
Y696000D02*
D03*
D67*
X395877Y494000D02*
D03*
Y505800D02*
D03*
X407677D02*
D03*
Y494000D02*
D03*
Y517600D02*
D03*
Y529400D02*
D03*
X395877D02*
D03*
Y517600D02*
D03*
D68*
X424677Y502500D02*
D03*
Y521000D02*
D03*
D69*
X30000Y688000D02*
D03*
Y672000D02*
D03*
X32000Y560000D02*
D03*
Y544000D02*
D03*
X110000Y710000D02*
D03*
X126000D02*
D03*
X174000D02*
D03*
X158000D02*
D03*
X428000Y34000D02*
D03*
X412000D02*
D03*
X426000Y616630D02*
D03*
Y675685D02*
D03*
Y656000D02*
D03*
Y636315D02*
D03*
D70*
X314000Y16000D02*
D03*
Y309701D02*
D03*
X190000Y16650D02*
D03*
Y310350D02*
D03*
X64000D02*
D03*
Y16650D02*
D03*
D71*
X278000Y414000D02*
D03*
X304000D02*
D03*
X48000D02*
D03*
X20000Y428000D02*
D03*
X242000Y538000D02*
D03*
X248000Y590000D02*
D03*
X234000Y504000D02*
D03*
X138000Y536000D02*
D03*
Y542000D02*
D03*
X108000Y552000D02*
D03*
X316000Y516000D02*
D03*
X278000Y584000D02*
D03*
X284000Y570000D02*
D03*
X278000Y548000D02*
D03*
X336000Y542000D02*
D03*
Y526000D02*
D03*
X320000Y516000D02*
D03*
X326000D02*
D03*
X396000Y556000D02*
D03*
X336000Y512000D02*
D03*
Y496000D02*
D03*
X256000Y566000D02*
D03*
X328000Y492000D02*
D03*
X170000Y520000D02*
D03*
X286000Y694000D02*
D03*
Y690000D02*
D03*
X136000Y612000D02*
D03*
Y620000D02*
D03*
X196000Y676000D02*
D03*
X244000Y664000D02*
D03*
X248000Y714000D02*
D03*
X286000Y686000D02*
D03*
X356000Y644000D02*
D03*
Y654000D02*
D03*
X324000Y652000D02*
D03*
X330000Y622000D02*
D03*
X188000D02*
D03*
X158000Y596000D02*
D03*
X186000Y578000D02*
D03*
X216000Y486000D02*
D03*
X180000Y488000D02*
D03*
X186000Y478000D02*
D03*
X48000Y432000D02*
D03*
X188188Y429812D02*
D03*
X346188Y421812D02*
D03*
X312000Y428000D02*
D03*
X300000Y440000D02*
D03*
X302000Y376000D02*
D03*
X286000D02*
D03*
X240000D02*
D03*
X223740Y375740D02*
D03*
X174000Y376000D02*
D03*
X160000D02*
D03*
X114000D02*
D03*
X99740Y375740D02*
D03*
X28000Y400000D02*
D03*
X42000D02*
D03*
X334000Y368000D02*
D03*
X208000D02*
D03*
X82000D02*
D03*
X420000Y132000D02*
D03*
Y128000D02*
D03*
M02*
