G04*
G04 #@! TF.GenerationSoftware,Altium Limited,Altium Designer,23.3.1 (30)*
G04*
G04 Layer_Color=16711935*
%FSLAX25Y25*%
%MOIN*%
G70*
G04*
G04 #@! TF.SameCoordinates,B9ADD834-6C2E-4723-A052-446894AFEB0A*
G04*
G04*
G04 #@! TF.FilePolarity,Positive*
G04*
G01*
G75*
%ADD13C,0.01000*%
%ADD82C,0.00394*%
D13*
X0Y0D02*
X452000D01*
Y738000D01*
X0D02*
X452000D01*
X0Y0D02*
Y738000D01*
D82*
X322205Y525315D02*
G03*
X322205Y525315I-1969J0D01*
G01*
X366362Y633701D02*
G03*
X366362Y633701I-1969J0D01*
G01*
X288394Y544095D02*
X295087D01*
X288394Y555905D02*
X295087D01*
Y544095D02*
Y555905D01*
X288394Y544095D02*
Y555905D01*
X303701Y528858D02*
X323780D01*
X303701Y511142D02*
X323780D01*
Y528858D01*
X303701Y511142D02*
Y528858D01*
X305343Y545866D02*
X310658D01*
X305343Y554134D02*
X310658D01*
X305343Y545866D02*
Y554134D01*
X310658Y545866D02*
Y554134D01*
X280398Y553669D02*
Y562331D01*
X275083Y553669D02*
Y562331D01*
X280398D01*
X275083Y553669D02*
X280398D01*
X357409Y492658D02*
X366071D01*
X357409Y487343D02*
X366071D01*
X357409D02*
Y492658D01*
X366071Y487343D02*
Y492658D01*
X357347Y508658D02*
X366008D01*
X357347Y503342D02*
X366008D01*
X357347D02*
Y508658D01*
X366008Y503342D02*
Y508658D01*
X357409Y522657D02*
X366071D01*
X357409Y517343D02*
X366071D01*
X357409D02*
Y522657D01*
X366071Y517343D02*
Y522657D01*
X357409Y538658D02*
X366071D01*
X357409Y533343D02*
X366071D01*
X357409D02*
Y538658D01*
X366071Y533343D02*
Y538658D01*
X377083Y481669D02*
Y490331D01*
X382398Y481669D02*
Y490331D01*
X377083Y481669D02*
X382398D01*
X377083Y490331D02*
X382398D01*
X377083Y499669D02*
Y508331D01*
X382398Y499669D02*
Y508331D01*
X377083Y499669D02*
X382398D01*
X377083Y508331D02*
X382398D01*
X377083Y515669D02*
Y524331D01*
X382398Y515669D02*
Y524331D01*
X377083Y515669D02*
X382398D01*
X377083Y524331D02*
X382398D01*
X377083Y531669D02*
Y540331D01*
X382398Y531669D02*
Y540331D01*
X377083Y531669D02*
X382398D01*
X377083Y540331D02*
X382398D01*
X275083Y567669D02*
X280398D01*
X275083Y576331D02*
X280398D01*
X275083Y567669D02*
Y576331D01*
X280398Y567669D02*
Y576331D01*
X287409Y561342D02*
Y566657D01*
X296071Y561342D02*
Y566657D01*
X287409D02*
X296071D01*
X287409Y561342D02*
X296071D01*
X315150Y495342D02*
Y500658D01*
X323811Y495342D02*
Y500658D01*
X315150D02*
X323811D01*
X315150Y495342D02*
X323811D01*
X350071Y533343D02*
Y538658D01*
X341409Y533343D02*
Y538658D01*
Y533343D02*
X350071D01*
X341409Y538658D02*
X350071D01*
Y517343D02*
Y522657D01*
X341409Y517343D02*
Y522657D01*
Y517343D02*
X350071D01*
X341409Y522657D02*
X350071D01*
Y503342D02*
Y508658D01*
X341409Y503342D02*
Y508658D01*
Y503342D02*
X350071D01*
X341409Y508658D02*
X350071D01*
X350331Y487343D02*
Y492658D01*
X341669Y487343D02*
Y492658D01*
Y487343D02*
X350331D01*
X341669Y492658D02*
X350331D01*
X390071Y549342D02*
Y554658D01*
X381409Y549342D02*
Y554658D01*
Y549342D02*
X390071D01*
X381409Y554658D02*
X390071D01*
X109343Y595669D02*
X114657D01*
X109343Y604331D02*
X114657D01*
X109343Y595669D02*
Y604331D01*
X114657Y595669D02*
Y604331D01*
X109343Y636331D02*
X114657D01*
X109343Y627669D02*
X114657D01*
Y636331D01*
X109343Y627669D02*
Y636331D01*
X174134Y535343D02*
Y540658D01*
X165866Y535343D02*
Y540658D01*
Y535343D02*
X174134D01*
X165866Y540658D02*
X174134D01*
Y525343D02*
Y530657D01*
X165866Y525343D02*
Y530657D01*
Y525343D02*
X174134D01*
X165866Y530657D02*
X174134D01*
X205343Y519669D02*
Y528331D01*
X210658Y519669D02*
Y528331D01*
X205343Y519669D02*
X210658D01*
X205343Y528331D02*
X210658D01*
X174197Y507342D02*
Y512657D01*
X165929Y507342D02*
Y512657D01*
Y507342D02*
X174197D01*
X165929Y512657D02*
X174197D01*
X200658Y537669D02*
Y546331D01*
X195343Y537669D02*
Y546331D01*
X200658D01*
X195343Y537669D02*
X200658D01*
X174134Y497342D02*
Y502658D01*
X165866Y497342D02*
Y502658D01*
Y497342D02*
X174134D01*
X165866Y502658D02*
X174134D01*
Y545342D02*
Y550658D01*
X165866Y545342D02*
Y550658D01*
Y545342D02*
X174134D01*
X165866Y550658D02*
X174134D01*
Y555342D02*
Y560658D01*
X165866Y555342D02*
Y560658D01*
Y555342D02*
X174134D01*
X165866Y560658D02*
X174134D01*
X163732Y591079D02*
X172394D01*
X163732Y596394D02*
X172394D01*
Y591079D02*
Y596394D01*
X163732Y591079D02*
Y596394D01*
X177669Y572657D02*
X186331D01*
X177669Y567343D02*
X186331D01*
X177669D02*
Y572657D01*
X186331Y567343D02*
Y572657D01*
X163669Y579343D02*
X172331D01*
X163669Y584657D02*
X172331D01*
Y579343D02*
Y584657D01*
X163669Y579343D02*
Y584657D01*
X177669Y591079D02*
X186331D01*
X177669Y596394D02*
X186331D01*
Y591079D02*
Y596394D01*
X177669Y591079D02*
Y596394D01*
X163669Y572657D02*
X172331D01*
X163669Y567343D02*
X172331D01*
X163669D02*
Y572657D01*
X172331Y567343D02*
Y572657D01*
X165669Y603079D02*
X174331D01*
X165669Y608394D02*
X174331D01*
Y603079D02*
Y608394D01*
X165669Y603079D02*
Y608394D01*
X173669Y613079D02*
X182331D01*
X173669Y618394D02*
X182331D01*
Y613079D02*
Y618394D01*
X173669Y613079D02*
Y618394D01*
X105342Y572590D02*
X110658D01*
X105342Y563929D02*
X110658D01*
Y572590D01*
X105342Y563929D02*
Y572590D01*
X111669Y617343D02*
Y622657D01*
X120331Y617343D02*
Y622657D01*
X111669D02*
X120331D01*
X111669Y617343D02*
X120331D01*
Y609342D02*
Y614657D01*
X111669Y609342D02*
Y614657D01*
Y609342D02*
X120331D01*
X111669Y614657D02*
X120331D01*
X335669Y619343D02*
X344331D01*
X335669Y624657D02*
X344331D01*
Y619343D02*
Y624657D01*
X335669Y619343D02*
Y624657D01*
X254705Y372850D02*
X265295D01*
X254705D02*
Y379150D01*
X265295Y372850D02*
Y379150D01*
X254705D02*
X265295D01*
X323342Y367929D02*
Y376590D01*
X328658Y367929D02*
Y376590D01*
X323342Y367929D02*
X328658D01*
X323342Y376590D02*
X328658D01*
X311343Y351669D02*
X316657D01*
X311343Y360331D02*
X316657D01*
X311343Y351669D02*
Y360331D01*
X316657Y351669D02*
Y360331D01*
X399606Y437343D02*
Y442658D01*
X408268Y437343D02*
Y442658D01*
X399606D02*
X408268D01*
X399606Y437343D02*
X408268D01*
X206331Y433343D02*
Y438658D01*
X197669Y433343D02*
Y438658D01*
Y433343D02*
X206331D01*
X197669Y438658D02*
X206331D01*
X241669Y447342D02*
Y452658D01*
X250331Y447342D02*
Y452658D01*
X241669D02*
X250331D01*
X241669Y447342D02*
X250331D01*
X68268Y437343D02*
Y442658D01*
X59606Y437343D02*
Y442658D01*
Y437343D02*
X68268D01*
X59606Y442658D02*
X68268D01*
X364331Y425343D02*
Y430657D01*
X355669Y425343D02*
Y430657D01*
Y425343D02*
X364331D01*
X355669Y430657D02*
X364331D01*
X101606Y447342D02*
Y452658D01*
X110268Y447342D02*
Y452658D01*
X101606D02*
X110268D01*
X101606Y447342D02*
X110268D01*
X401803Y76657D02*
X410071D01*
X401803Y71342D02*
X410071D01*
X401803D02*
Y76657D01*
X410071Y71342D02*
Y76657D01*
X387343Y345732D02*
X392657D01*
X387343Y354394D02*
X392657D01*
X387343Y345732D02*
Y354394D01*
X392657Y345732D02*
Y354394D01*
X354705Y372850D02*
X365295D01*
X354705D02*
Y379150D01*
X365295Y372850D02*
Y379150D01*
X354705D02*
X365295D01*
X197343Y367669D02*
Y376331D01*
X202658Y367669D02*
Y376331D01*
X197343Y367669D02*
X202658D01*
X197343Y376331D02*
X202658D01*
X187343Y351732D02*
X192657D01*
X187343Y360394D02*
X192657D01*
X187343Y351732D02*
Y360394D01*
X192657Y351732D02*
Y360394D01*
X130705Y372850D02*
X141295D01*
X130705D02*
Y379150D01*
X141295Y372850D02*
Y379150D01*
X130705D02*
X141295D01*
X191342Y493669D02*
X196658D01*
X191342Y502331D02*
X196658D01*
X191342Y493669D02*
Y502331D01*
X196658Y493669D02*
Y502331D01*
X192425Y486098D02*
X195575D01*
X192425Y479799D02*
X195575D01*
Y486098D01*
X192425Y479799D02*
Y486098D01*
X199343Y493669D02*
X204658D01*
X199343Y502331D02*
X204658D01*
X199343Y493669D02*
Y502331D01*
X204658Y493669D02*
Y502331D01*
X181342Y493669D02*
Y502331D01*
X186658Y493669D02*
Y502331D01*
X181342Y493669D02*
X186658D01*
X181342Y502331D02*
X186658D01*
X66658Y351606D02*
Y360268D01*
X61343Y351606D02*
Y360268D01*
X66658D01*
X61343Y351606D02*
X66658D01*
X22197Y327343D02*
Y332658D01*
X13929Y327343D02*
Y332658D01*
Y327343D02*
X22197D01*
X13929Y332658D02*
X22197D01*
X71342Y376331D02*
X76657D01*
X71342Y367669D02*
X76657D01*
Y376331D01*
X71342Y367669D02*
Y376331D01*
X259201Y676811D02*
X273768D01*
X259201Y703189D02*
X273768D01*
Y676811D02*
Y703189D01*
X259201Y676811D02*
Y703189D01*
X245142Y699669D02*
Y708331D01*
X239827Y699669D02*
Y708331D01*
X245142D01*
X239827Y699669D02*
X245142D01*
X239039Y684988D02*
X245929D01*
X239039Y671012D02*
X245929D01*
Y684988D01*
X239039Y671012D02*
Y684988D01*
X219669Y673343D02*
Y678657D01*
X228331Y673343D02*
Y678657D01*
X219669D02*
X228331D01*
X219669Y673343D02*
X228331D01*
X211150Y674425D02*
Y677575D01*
X204850Y674425D02*
Y677575D01*
Y674425D02*
X211150D01*
X204850Y677575D02*
X211150D01*
X352189Y649843D02*
X367937D01*
X352189Y630158D02*
X367937D01*
X352189D02*
Y649843D01*
X367937Y630158D02*
Y649843D01*
X340394Y635343D02*
Y640658D01*
X331732Y635343D02*
Y640658D01*
Y635343D02*
X340394D01*
X331732Y640658D02*
X340394D01*
X353929Y619343D02*
X362197D01*
X353929Y624657D02*
X362197D01*
Y619343D02*
Y624657D01*
X353929Y619343D02*
Y624657D01*
X326720Y637669D02*
Y646331D01*
X321406Y637669D02*
Y646331D01*
X326720D01*
X321406Y637669D02*
X326720D01*
M02*
