G04*
G04 #@! TF.GenerationSoftware,Altium Limited,Altium Designer,23.3.1 (30)*
G04*
G04 Layer_Physical_Order=1*
G04 Layer_Color=255*
%FSLAX25Y25*%
%MOIN*%
G70*
G04*
G04 #@! TF.SameCoordinates,B9ADD834-6C2E-4723-A052-446894AFEB0A*
G04*
G04*
G04 #@! TF.FilePolarity,Positive*
G04*
G01*
G75*
%ADD13C,0.01000*%
%ADD16C,0.01500*%
%ADD21R,0.04331X0.02362*%
%ADD22O,0.01378X0.07284*%
%ADD23C,0.03000*%
%ADD24R,0.05709X0.04724*%
%ADD25R,0.05315X0.03543*%
%ADD26R,0.03543X0.05315*%
%ADD27R,0.05512X0.04134*%
%ADD28R,0.04134X0.05512*%
%ADD29R,0.04921X0.03740*%
%ADD30R,0.06901X0.01004*%
G04:AMPARAMS|DCode=31|XSize=69.01mil|YSize=10.04mil|CornerRadius=5.02mil|HoleSize=0mil|Usage=FLASHONLY|Rotation=0.000|XOffset=0mil|YOffset=0mil|HoleType=Round|Shape=RoundedRectangle|*
%AMROUNDEDRECTD31*
21,1,0.06901,0.00000,0,0,0.0*
21,1,0.05897,0.01004,0,0,0.0*
1,1,0.01004,0.02949,0.00000*
1,1,0.01004,-0.02949,0.00000*
1,1,0.01004,-0.02949,0.00000*
1,1,0.01004,0.02949,0.00000*
%
%ADD31ROUNDEDRECTD31*%
%ADD32R,0.06732X0.04000*%
%ADD33R,0.04724X0.05709*%
%ADD34R,0.03583X0.04803*%
%ADD35R,0.08000X0.04500*%
G04:AMPARAMS|DCode=36|XSize=53.36mil|YSize=22.14mil|CornerRadius=11.07mil|HoleSize=0mil|Usage=FLASHONLY|Rotation=180.000|XOffset=0mil|YOffset=0mil|HoleType=Round|Shape=RoundedRectangle|*
%AMROUNDEDRECTD36*
21,1,0.05336,0.00000,0,0,180.0*
21,1,0.03121,0.02214,0,0,180.0*
1,1,0.02214,-0.01561,0.00000*
1,1,0.02214,0.01561,0.00000*
1,1,0.02214,0.01561,0.00000*
1,1,0.02214,-0.01561,0.00000*
%
%ADD36ROUNDEDRECTD36*%
%ADD37R,0.05336X0.02214*%
G04:AMPARAMS|DCode=38|XSize=67.04mil|YSize=20.95mil|CornerRadius=10.48mil|HoleSize=0mil|Usage=FLASHONLY|Rotation=180.000|XOffset=0mil|YOffset=0mil|HoleType=Round|Shape=RoundedRectangle|*
%AMROUNDEDRECTD38*
21,1,0.06704,0.00000,0,0,180.0*
21,1,0.04609,0.02095,0,0,180.0*
1,1,0.02095,-0.02305,0.00000*
1,1,0.02095,0.02305,0.00000*
1,1,0.02095,0.02305,0.00000*
1,1,0.02095,-0.02305,0.00000*
%
%ADD38ROUNDEDRECTD38*%
%ADD39R,0.06704X0.02095*%
%ADD40R,0.13410X0.04560*%
%ADD41R,0.12400X0.07700*%
%ADD42R,0.03740X0.03543*%
%ADD43R,0.08465X0.12795*%
%ADD44R,0.08465X0.03937*%
%ADD45R,0.07087X0.05709*%
%ADD46R,0.03543X0.03740*%
%ADD47O,0.05709X0.02362*%
%ADD72C,0.00600*%
%ADD73C,0.03000*%
%ADD74C,0.02000*%
%ADD75C,0.04000*%
%ADD76C,0.07087*%
%ADD77C,0.07000*%
%ADD78C,0.14800*%
%ADD79C,0.11811*%
%ADD80C,0.15748*%
%ADD81C,0.02500*%
G36*
X144602Y627524D02*
Y575324D01*
X144102Y575116D01*
X141325Y577893D01*
Y625648D01*
X141225Y626156D01*
X140937Y626586D01*
X138991Y628532D01*
X138561Y628819D01*
X138054Y628920D01*
X136954D01*
X136462Y629412D01*
X136500Y629503D01*
Y630497D01*
X136119Y631416D01*
X135416Y632119D01*
X134497Y632500D01*
X133503D01*
X132584Y632119D01*
X131881Y631416D01*
X131500Y630497D01*
Y630274D01*
X115461D01*
Y631819D01*
X115461D01*
Y632181D01*
X115461D01*
Y633726D01*
X129051D01*
X129558Y633827D01*
X129988Y634114D01*
X133412Y637538D01*
X133503Y637500D01*
X134497D01*
X134588Y637538D01*
X144602Y627524D01*
D02*
G37*
G36*
X108539Y626079D02*
X115461D01*
Y627623D01*
X132299D01*
X132807Y627724D01*
X132866Y627764D01*
X133503Y627500D01*
X134497D01*
X134588Y627538D01*
X135468Y626657D01*
X135898Y626370D01*
X136405Y626269D01*
X137505D01*
X138674Y625100D01*
Y620729D01*
X138174Y620630D01*
X137908Y621275D01*
X137275Y621908D01*
X136448Y622250D01*
X135552D01*
X134725Y621908D01*
X134347Y621529D01*
X122807D01*
Y623756D01*
X116673D01*
Y616256D01*
X116673Y616244D01*
X116673Y615756D01*
X116673Y615744D01*
Y608244D01*
X122807D01*
Y610471D01*
X134347D01*
X134725Y610092D01*
X135552Y609750D01*
X136448D01*
X137275Y610092D01*
X137908Y610725D01*
X138174Y611370D01*
X138674Y611271D01*
Y599853D01*
X138213Y599662D01*
X136462Y601412D01*
X136500Y601503D01*
Y602497D01*
X136119Y603416D01*
X135416Y604119D01*
X134497Y604500D01*
X133503D01*
X132866Y604236D01*
X132807Y604276D01*
X132299Y604377D01*
X115461D01*
Y605921D01*
X110414D01*
X107035Y609300D01*
X106605Y609588D01*
X106098Y609689D01*
X105492D01*
Y612675D01*
X109193D01*
Y608244D01*
X115327D01*
Y615756D01*
X115327D01*
X115327Y616244D01*
X115327D01*
Y623756D01*
X109193D01*
Y621692D01*
X108693Y621485D01*
X105492Y624685D01*
Y628675D01*
X108539D01*
Y626079D01*
D02*
G37*
G36*
X138674Y619271D02*
Y612729D01*
X138174Y612630D01*
X137908Y613274D01*
X137275Y613907D01*
X136448Y614250D01*
X135552D01*
X134725Y613907D01*
X134347Y613529D01*
X122807D01*
Y615744D01*
X122807Y615756D01*
X122807Y616244D01*
X122807Y616256D01*
Y618471D01*
X134347D01*
X134725Y618092D01*
X135552Y617750D01*
X136448D01*
X137275Y618092D01*
X137908Y618725D01*
X138174Y619370D01*
X138674Y619271D01*
D02*
G37*
G36*
X452000Y408000D02*
X411705D01*
Y409461D01*
X396295D01*
Y408220D01*
X393705D01*
Y409461D01*
X382334D01*
Y410369D01*
X382179Y411149D01*
X381737Y411811D01*
X377606Y415942D01*
X376944Y416384D01*
X376164Y416539D01*
X372360D01*
X372116Y416588D01*
X367507D01*
X366708Y416429D01*
X366031Y415976D01*
X365578Y415299D01*
X365419Y414500D01*
X365430Y414447D01*
X364969Y414201D01*
X357592Y421578D01*
Y424342D01*
X358835D01*
Y431658D01*
X353291D01*
Y424342D01*
X354534D01*
Y420944D01*
X354650Y420359D01*
X354982Y419863D01*
X365459Y409385D01*
Y408000D01*
X350554D01*
X350287Y408500D01*
X350422Y408701D01*
X350481Y409000D01*
X346188D01*
Y409500D01*
D01*
Y409000D01*
X341896D01*
X341955Y408701D01*
X342090Y408500D01*
X341822Y408000D01*
X334163D01*
X314250Y427913D01*
Y428447D01*
X313908Y429275D01*
X313275Y429908D01*
X312448Y430250D01*
X311552D01*
X310725Y429908D01*
X310092Y429275D01*
X309750Y428447D01*
Y427553D01*
X310092Y426725D01*
X310725Y426092D01*
X311552Y425750D01*
X312087D01*
X329375Y408462D01*
X329184Y408000D01*
X295529D01*
Y419367D01*
X322374Y446211D01*
X379412D01*
X379563Y445711D01*
X379277Y445519D01*
X378811Y444822D01*
X378647Y444000D01*
X378811Y443178D01*
X379277Y442481D01*
X379974Y442015D01*
X380796Y441852D01*
X381888D01*
Y439177D01*
X382004Y438591D01*
X382335Y438095D01*
X384471Y435960D01*
Y433099D01*
X378295D01*
Y429529D01*
X366709D01*
Y431658D01*
X361165D01*
Y424342D01*
X366709D01*
Y426471D01*
X379756D01*
X380100Y426539D01*
X393705D01*
Y428290D01*
X396295D01*
Y426539D01*
X411705D01*
Y430936D01*
X418269Y437500D01*
X418497D01*
X419416Y437881D01*
X420119Y438584D01*
X420500Y439503D01*
Y440497D01*
X420119Y441416D01*
X419416Y442119D01*
X418497Y442500D01*
X417503D01*
X416584Y442119D01*
X415881Y441416D01*
X415500Y440497D01*
Y439503D01*
X415631Y439187D01*
X409542Y433099D01*
X396295D01*
Y431348D01*
X393705D01*
Y433099D01*
X387529D01*
Y436593D01*
X387413Y437179D01*
X387096Y437653D01*
X387141Y437873D01*
X387257Y438153D01*
X393311D01*
Y438730D01*
X397228D01*
Y436342D01*
X402772D01*
Y443657D01*
X397228D01*
Y441789D01*
X393311D01*
Y442367D01*
X385976D01*
Y439434D01*
X385514Y439243D01*
X384946Y439810D01*
Y442154D01*
X385436Y442481D01*
X385902Y443178D01*
X386065Y444000D01*
X385902Y444822D01*
X385436Y445519D01*
X385150Y445711D01*
X385301Y446211D01*
X386579D01*
X387261Y445755D01*
X388083Y445592D01*
X391204D01*
X392026Y445755D01*
X392723Y446221D01*
X393189Y446918D01*
X393353Y447740D01*
X393189Y448562D01*
X392723Y449259D01*
X392026Y449725D01*
X391204Y449889D01*
X388083D01*
X387261Y449725D01*
X386579Y449269D01*
X321740D01*
X321155Y449153D01*
X320659Y448822D01*
X292919Y421081D01*
X292587Y420585D01*
X292471Y420000D01*
Y408000D01*
X287529D01*
Y430000D01*
X287413Y430585D01*
X287081Y431081D01*
X280192Y437971D01*
X280399Y438471D01*
X298347D01*
X298726Y438093D01*
X299552Y437750D01*
X300448D01*
X301274Y438093D01*
X301907Y438726D01*
X302250Y439552D01*
Y440448D01*
X301907Y441274D01*
X301274Y441908D01*
X300448Y442250D01*
X299552D01*
X298726Y441908D01*
X298347Y441529D01*
X280633D01*
X251081Y471081D01*
X250585Y471413D01*
X250000Y471529D01*
X132633D01*
X132107Y472056D01*
X132353Y472517D01*
X132586Y472471D01*
X381366D01*
X406345Y447493D01*
Y443657D01*
X405102D01*
Y436342D01*
X410646D01*
Y443657D01*
X409403D01*
Y448126D01*
X409287Y448711D01*
X408955Y449207D01*
X383081Y475081D01*
X382585Y475413D01*
X382000Y475529D01*
X187222D01*
X187122Y476029D01*
X187275Y476092D01*
X187908Y476725D01*
X188250Y477553D01*
Y477993D01*
X188625Y478368D01*
X191130D01*
Y477126D01*
X196870D01*
Y482669D01*
X191130D01*
Y481427D01*
X187991D01*
X187406Y481311D01*
X186910Y480979D01*
X186181Y480250D01*
X185552D01*
X184725Y479908D01*
X184092Y479275D01*
X183750Y478447D01*
Y477553D01*
X184092Y476725D01*
X184725Y476092D01*
X184878Y476029D01*
X184778Y475529D01*
X133529D01*
Y519367D01*
X141043Y526880D01*
X145617D01*
X145627Y526878D01*
X151524D01*
X152110Y526995D01*
X152174Y527037D01*
X152674Y526770D01*
Y512555D01*
X152775Y512048D01*
X153063Y511618D01*
X162701Y501980D01*
Y496146D01*
X169425D01*
Y503854D01*
X164575D01*
X162784Y505646D01*
X162991Y506146D01*
X169488D01*
Y513854D01*
X164638D01*
X160318Y518175D01*
X160525Y518675D01*
X168143D01*
X168726Y518092D01*
X169552Y517750D01*
X170448D01*
X171274Y518092D01*
X171907Y518725D01*
X172250Y519553D01*
Y520447D01*
X171907Y521275D01*
X171274Y521908D01*
X170448Y522250D01*
X169552D01*
X168726Y521908D01*
X168143Y521325D01*
X160549D01*
X159326Y522549D01*
Y530000D01*
X159225Y530507D01*
X158937Y530937D01*
X155834Y534040D01*
X155404Y534328D01*
X155342Y534340D01*
X152971Y536712D01*
X152939Y536869D01*
X152673Y537268D01*
X152939Y537666D01*
X153056Y538252D01*
X152947Y538797D01*
X152951Y538859D01*
X153010Y538963D01*
X153632Y539048D01*
X162701Y529980D01*
Y524146D01*
X169425D01*
Y531854D01*
X164575D01*
X162784Y533646D01*
X162991Y534146D01*
X169425D01*
Y541854D01*
X162701D01*
Y539326D01*
X161445D01*
X156432Y544339D01*
X156623Y544801D01*
X162701D01*
Y544146D01*
X169425D01*
Y551854D01*
X164193D01*
X164002Y552316D01*
X164938Y553253D01*
X165225Y553683D01*
X165317Y554146D01*
X169425D01*
Y561854D01*
X162701D01*
Y556066D01*
X162675Y555938D01*
Y554739D01*
X157357Y549420D01*
X153463D01*
X153256Y549920D01*
X160937Y557601D01*
X161225Y558031D01*
X161326Y558539D01*
Y561451D01*
X162549Y562675D01*
X164411D01*
X164919Y562775D01*
X165349Y563063D01*
X168603Y566317D01*
X170465D01*
X170593Y566342D01*
X174709D01*
Y568675D01*
X175291D01*
Y566342D01*
X180835D01*
Y573658D01*
X175291D01*
Y571325D01*
X174709D01*
Y573658D01*
X169165D01*
Y568968D01*
X168054D01*
X167547Y568867D01*
X167335Y568725D01*
X166835Y568989D01*
Y569500D01*
X164063D01*
Y570000D01*
X163563D01*
Y573658D01*
X162185D01*
X161994Y574119D01*
X165000Y577126D01*
X165288Y577556D01*
X165389Y578063D01*
Y578342D01*
X166835D01*
Y585658D01*
X162185D01*
X161994Y586119D01*
X162549Y586674D01*
X169649D01*
X170156Y586775D01*
X170586Y587063D01*
X171466Y587943D01*
X171753Y588373D01*
X171854Y588880D01*
Y590079D01*
X174772D01*
Y592411D01*
X175291D01*
Y590079D01*
X180835D01*
Y597394D01*
X175291D01*
Y595062D01*
X174772D01*
Y597394D01*
X169228D01*
Y592393D01*
X169203Y592265D01*
Y589429D01*
X169099Y589326D01*
X162000D01*
X161493Y589225D01*
X161063Y588937D01*
X159063Y586937D01*
X158775Y586507D01*
X158675Y586000D01*
Y578549D01*
X156677Y576552D01*
X156215Y576743D01*
Y593950D01*
X156677Y594141D01*
X156726Y594093D01*
X157552Y593750D01*
X158087D01*
X159182Y592655D01*
X159678Y592323D01*
X160264Y592207D01*
X161354D01*
Y590079D01*
X166898D01*
Y597394D01*
X161354D01*
Y595369D01*
X160854Y595309D01*
X160250Y595913D01*
Y596448D01*
X159907Y597274D01*
X159274Y597907D01*
X158448Y598250D01*
X157552D01*
X156726Y597907D01*
X156677Y597859D01*
X156215Y598050D01*
Y602341D01*
X158285Y604411D01*
X163291D01*
Y602079D01*
X168835D01*
Y609394D01*
X163291D01*
Y607062D01*
X157736D01*
X157229Y606961D01*
X156799Y606673D01*
X153953Y603827D01*
X153825Y603637D01*
X153325Y603789D01*
Y605451D01*
X162285Y614411D01*
X171291D01*
Y612079D01*
X172738D01*
Y609394D01*
X171165D01*
Y602079D01*
X176709D01*
Y609394D01*
X175389D01*
Y612079D01*
X176835D01*
Y619394D01*
X171291D01*
Y617062D01*
X161736D01*
X161229Y616961D01*
X160799Y616674D01*
X151063Y606937D01*
X150775Y606507D01*
X150674Y606000D01*
Y580000D01*
X150775Y579493D01*
X151063Y579063D01*
X152464Y577661D01*
Y575419D01*
X151964Y575129D01*
X151524Y575216D01*
X147253D01*
Y628073D01*
X147152Y628580D01*
X146865Y629010D01*
X136462Y639412D01*
X136500Y639503D01*
Y640497D01*
X136119Y641416D01*
X135416Y642119D01*
X134497Y642500D01*
X133503D01*
X132584Y642119D01*
X131881Y641416D01*
X131500Y640497D01*
Y639503D01*
X131538Y639412D01*
X128502Y636377D01*
X115461D01*
Y637921D01*
X108539D01*
Y635010D01*
X105492D01*
Y636685D01*
X96760D01*
Y631325D01*
X94352D01*
X93844Y631225D01*
X93414Y630937D01*
X93063Y630586D01*
X92775Y630156D01*
X92674Y629648D01*
Y623697D01*
X92775Y623190D01*
X93063Y622760D01*
X96760Y619063D01*
Y615325D01*
X96000D01*
X95493Y615225D01*
X95063Y614937D01*
X93063Y612937D01*
X92775Y612507D01*
X92674Y612000D01*
Y609974D01*
X92775Y609467D01*
X93063Y609037D01*
X96734Y605366D01*
Y603889D01*
X96760Y603761D01*
Y599189D01*
X105492D01*
Y605189D01*
X99385D01*
Y605915D01*
X99284Y606422D01*
X99190Y606563D01*
X99457Y607063D01*
X102698D01*
X102826Y607037D01*
X105549D01*
X108539Y604047D01*
Y600181D01*
X108539D01*
Y599819D01*
X108539D01*
Y598274D01*
X105126D01*
X104619Y598173D01*
X104189Y597886D01*
X103618Y597315D01*
X96760D01*
Y591315D01*
X105492D01*
Y595440D01*
X105675Y595623D01*
X108539D01*
Y594079D01*
X113586D01*
X116602Y591063D01*
X117032Y590775D01*
X117539Y590674D01*
X131843D01*
X131881Y590584D01*
X132584Y589881D01*
X133503Y589500D01*
X134497D01*
X134675Y589038D01*
Y569533D01*
X134775Y569026D01*
X135063Y568596D01*
X144181Y559477D01*
X144213Y559319D01*
X144479Y558921D01*
X144213Y558523D01*
X144096Y557937D01*
X144213Y557351D01*
X144479Y556953D01*
X144213Y556555D01*
X144096Y555969D01*
X144213Y555382D01*
X144479Y554984D01*
X144213Y554586D01*
X144096Y554000D01*
X144213Y553414D01*
X144479Y553016D01*
X144213Y552618D01*
X144195Y552531D01*
X145310D01*
X145627Y552468D01*
X148576D01*
Y551595D01*
X145627D01*
X145310Y551532D01*
X144195D01*
X144213Y551445D01*
X144479Y551047D01*
X144213Y550649D01*
X144096Y550063D01*
X144213Y549477D01*
X144479Y549079D01*
X144213Y548680D01*
X144096Y548095D01*
X144213Y547508D01*
X144479Y547110D01*
X144213Y546712D01*
X144096Y546126D01*
X144213Y545540D01*
X144479Y545142D01*
X144213Y544743D01*
X144096Y544158D01*
X144213Y543571D01*
X144479Y543173D01*
X144213Y542775D01*
X144096Y542189D01*
X144106Y542136D01*
X143789Y541750D01*
X140743D01*
X140250Y542243D01*
Y542448D01*
X139908Y543274D01*
X139275Y543907D01*
X138448Y544250D01*
X137552D01*
X136725Y543907D01*
X136092Y543274D01*
X135750Y542448D01*
Y541552D01*
X136092Y540726D01*
X136725Y540093D01*
X137552Y539750D01*
X138417D01*
X139002Y539165D01*
X138087Y538250D01*
X137552D01*
X136725Y537908D01*
X136092Y537275D01*
X135750Y536447D01*
Y535553D01*
X136092Y534726D01*
X136725Y534093D01*
X137552Y533750D01*
X138448D01*
X139275Y534093D01*
X139908Y534726D01*
X140250Y535553D01*
Y536087D01*
X140885Y536723D01*
X143789D01*
X144106Y536336D01*
X144096Y536283D01*
X144213Y535697D01*
X144479Y535299D01*
X144213Y534901D01*
X144096Y534315D01*
X144213Y533729D01*
X144479Y533331D01*
X144213Y532933D01*
X144096Y532346D01*
X144106Y532294D01*
X143789Y531907D01*
X138378D01*
X137793Y531791D01*
X137296Y531459D01*
X126919Y521081D01*
X126587Y520585D01*
X126471Y520000D01*
Y474399D01*
X125971Y474192D01*
X123529Y476634D01*
Y526878D01*
X124949D01*
X125534Y526995D01*
X126031Y527327D01*
X126363Y527823D01*
X126480Y528409D01*
X126363Y528996D01*
X126097Y529394D01*
X126363Y529792D01*
X126480Y530378D01*
X126363Y530964D01*
X126097Y531362D01*
X126363Y531760D01*
X126480Y532346D01*
X126363Y532933D01*
X126097Y533331D01*
X126363Y533729D01*
X126480Y534315D01*
X126363Y534901D01*
X126097Y535299D01*
X126363Y535697D01*
X126480Y536283D01*
X126363Y536869D01*
X126097Y537268D01*
X126363Y537666D01*
X126480Y538252D01*
X126363Y538838D01*
X126097Y539236D01*
X126363Y539634D01*
X126480Y540220D01*
X126363Y540806D01*
X126097Y541205D01*
X126363Y541603D01*
X126480Y542189D01*
X126363Y542775D01*
X126097Y543173D01*
X126363Y543571D01*
X126480Y544158D01*
X126363Y544743D01*
X126097Y545142D01*
X126363Y545540D01*
X126480Y546126D01*
X126363Y546712D01*
X126097Y547110D01*
X126363Y547508D01*
X126480Y548095D01*
X126363Y548680D01*
X126097Y549079D01*
X126363Y549477D01*
X126480Y550063D01*
X126363Y550649D01*
X126097Y551047D01*
X126363Y551445D01*
X126480Y552032D01*
X126363Y552618D01*
X126097Y553016D01*
X126363Y553414D01*
X126480Y554000D01*
X126363Y554586D01*
X126097Y554984D01*
X126363Y555382D01*
X126480Y555969D01*
X126363Y556555D01*
X126097Y556953D01*
X126363Y557351D01*
X126480Y557937D01*
X126363Y558523D01*
X126097Y558921D01*
X126363Y559319D01*
X126480Y559905D01*
X126363Y560492D01*
X126097Y560890D01*
X126363Y561288D01*
X126480Y561874D01*
X126363Y562460D01*
X126097Y562858D01*
X126363Y563257D01*
X126480Y563842D01*
X126363Y564429D01*
X126097Y564827D01*
X126363Y565225D01*
X126480Y565811D01*
X126363Y566397D01*
X126097Y566795D01*
X126363Y567194D01*
X126480Y567779D01*
X126363Y568366D01*
X126097Y568764D01*
X126363Y569162D01*
X126480Y569748D01*
X126363Y570334D01*
X126097Y570732D01*
X126363Y571131D01*
X126480Y571716D01*
X126400Y572121D01*
X126451Y572183D01*
X126451D01*
Y575187D01*
X122902D01*
X122683Y575333D01*
X122000Y575469D01*
X115604D01*
X115603Y575469D01*
X114921Y575333D01*
X114342Y574947D01*
X114342Y574947D01*
X113179Y573784D01*
X111756D01*
Y575067D01*
X106767D01*
X104573Y577262D01*
X103994Y577648D01*
X103311Y577784D01*
X92000D01*
X91317Y577648D01*
X90738Y577262D01*
X87720Y574243D01*
X86598Y574543D01*
X85402D01*
X84246Y574234D01*
X83210Y573635D01*
X82364Y572790D01*
X81766Y571754D01*
X81457Y570598D01*
Y569402D01*
X81766Y568246D01*
X82364Y567210D01*
X83210Y566364D01*
X84246Y565766D01*
X85402Y565457D01*
X86598D01*
X87754Y565766D01*
X88790Y566364D01*
X89635Y567210D01*
X90234Y568246D01*
X90543Y569402D01*
Y570598D01*
X90243Y571720D01*
X92739Y574216D01*
X93249D01*
X93379Y573733D01*
X93210Y573635D01*
X92365Y572790D01*
X91766Y571754D01*
X91457Y570598D01*
Y569402D01*
X91766Y568246D01*
X92365Y567210D01*
X93210Y566364D01*
X94246Y565766D01*
X95402Y565457D01*
X96598D01*
X97754Y565766D01*
X98790Y566364D01*
X99635Y567210D01*
X100234Y568246D01*
X100543Y569402D01*
Y570598D01*
X100234Y571754D01*
X99635Y572790D01*
X98790Y573635D01*
X98621Y573733D01*
X98751Y574216D01*
X102572D01*
X104244Y572544D01*
Y568933D01*
X111756D01*
Y570216D01*
X113918D01*
X114601Y570352D01*
X115180Y570738D01*
X116343Y571901D01*
X117369D01*
X117520Y571716D01*
X117637Y571131D01*
X117903Y570732D01*
X117637Y570334D01*
X117520Y569748D01*
X117637Y569162D01*
X117903Y568764D01*
X117637Y568366D01*
X117520Y567779D01*
X117637Y567194D01*
X117903Y566795D01*
X117637Y566397D01*
X117520Y565811D01*
X117637Y565225D01*
X117903Y564827D01*
X117637Y564429D01*
X117520Y563842D01*
X117637Y563257D01*
X117903Y562858D01*
X117637Y562460D01*
X117520Y561874D01*
X117637Y561288D01*
X117903Y560890D01*
X117637Y560492D01*
X117520Y559905D01*
X117637Y559319D01*
X117903Y558921D01*
X117637Y558523D01*
X117520Y557937D01*
X117637Y557351D01*
X117903Y556953D01*
X117637Y556555D01*
X117520Y555969D01*
X117637Y555382D01*
X117903Y554984D01*
X117637Y554586D01*
X117520Y554000D01*
X117637Y553414D01*
X117903Y553016D01*
X117637Y552618D01*
X117520Y552032D01*
X117637Y551445D01*
X117903Y551047D01*
X117637Y550649D01*
X117520Y550063D01*
X117637Y549477D01*
X117903Y549079D01*
X117637Y548680D01*
X117520Y548095D01*
X117637Y547508D01*
X117903Y547110D01*
X117637Y546712D01*
X117520Y546126D01*
X117637Y545540D01*
X117903Y545142D01*
X117637Y544743D01*
X117520Y544158D01*
X117637Y543571D01*
X117903Y543173D01*
X117637Y542775D01*
X117520Y542189D01*
X117637Y541603D01*
X117903Y541205D01*
X117637Y540806D01*
X117520Y540220D01*
X117637Y539634D01*
X117903Y539236D01*
X117637Y538838D01*
X117520Y538252D01*
X117531Y538199D01*
X117213Y537813D01*
X116284D01*
X115698Y537696D01*
X115202Y537365D01*
X26919Y449081D01*
X26587Y448585D01*
X26471Y448000D01*
Y408000D01*
X0D01*
Y738000D01*
X452000D01*
Y408000D01*
D02*
G37*
G36*
X131500Y601503D02*
X131881Y600584D01*
X132584Y599881D01*
X133503Y599500D01*
X134497D01*
X134588Y599538D01*
X136674Y597451D01*
Y593383D01*
X136174Y593283D01*
X136119Y593416D01*
X135416Y594119D01*
X134497Y594500D01*
X133503D01*
X132584Y594119D01*
X131881Y593416D01*
X131843Y593326D01*
X118088D01*
X115461Y595953D01*
Y599819D01*
X115461D01*
Y600181D01*
X115461D01*
Y601726D01*
X131500D01*
Y601503D01*
D02*
G37*
G36*
X144181Y571288D02*
X144213Y571131D01*
X144479Y570732D01*
X144213Y570334D01*
X144096Y569748D01*
X144213Y569162D01*
X144479Y568764D01*
X144213Y568366D01*
X144096Y567779D01*
X144213Y567194D01*
X144479Y566795D01*
X144213Y566397D01*
X144125Y565958D01*
X143718Y565772D01*
X143615Y565761D01*
X139325Y570050D01*
Y575491D01*
X139787Y575682D01*
X144181Y571288D01*
D02*
G37*
G36*
X162764Y511980D02*
Y506373D01*
X162264Y506166D01*
X155325Y513104D01*
Y518765D01*
X155787Y518956D01*
X162764Y511980D01*
D02*
G37*
G36*
X118465Y526995D02*
X119052Y526878D01*
X120471D01*
Y476399D01*
X119971Y476192D01*
X117529Y478633D01*
Y526849D01*
X117992Y527311D01*
X118465Y526995D01*
D02*
G37*
G36*
X130471Y519601D02*
Y474586D01*
X130517Y474353D01*
X130056Y474107D01*
X129529Y474634D01*
Y519367D01*
X129971Y519808D01*
X130471Y519601D01*
D02*
G37*
G36*
X249808Y468029D02*
X249601Y467529D01*
X132633D01*
X132192Y467971D01*
X132399Y468471D01*
X249366D01*
X249808Y468029D01*
D02*
G37*
G36*
X128919Y462919D02*
X129415Y462587D01*
X130000Y462471D01*
X235303D01*
X243655Y454119D01*
X243463Y453657D01*
X239291D01*
Y451529D01*
X235668D01*
Y452107D01*
X228332D01*
Y447893D01*
X235668D01*
Y448471D01*
X239291D01*
Y446343D01*
X244835D01*
Y452286D01*
X245297Y452478D01*
X246698Y451076D01*
X247165Y450764D01*
Y446343D01*
X252709D01*
Y453657D01*
X248813D01*
X248665Y453687D01*
X248413D01*
X238091Y464009D01*
X238283Y464471D01*
X249366D01*
X284471Y429366D01*
Y408000D01*
X248039D01*
Y412901D01*
X253705D01*
Y419461D01*
X238295D01*
Y418220D01*
X235705D01*
Y419461D01*
X226917D01*
X226720Y419500D01*
X222000D01*
X215730Y425770D01*
X215592Y425976D01*
X214915Y426429D01*
X214116Y426588D01*
X209507D01*
X208708Y426429D01*
X208031Y425976D01*
X207578Y425299D01*
X207419Y424500D01*
X207430Y424447D01*
X206969Y424201D01*
X200864Y430306D01*
Y434728D01*
X200835Y434876D01*
Y439657D01*
X195291D01*
Y432342D01*
X197805D01*
Y429672D01*
X197922Y429087D01*
X198253Y428591D01*
X207459Y419385D01*
Y417452D01*
X216164D01*
Y418915D01*
X216626Y419107D01*
X219713Y416019D01*
X220295Y415630D01*
Y412901D01*
X235705D01*
Y414142D01*
X238295D01*
Y412901D01*
X243961D01*
Y408000D01*
X169529D01*
Y433366D01*
X192114Y455951D01*
X221768D01*
X221920Y455451D01*
X221633Y455259D01*
X221167Y454562D01*
X221004Y453740D01*
X221167Y452918D01*
X221633Y452221D01*
X222330Y451755D01*
X223152Y451592D01*
X223183D01*
Y443099D01*
X220295D01*
Y438702D01*
X219122Y437529D01*
X208709D01*
Y439657D01*
X203165D01*
Y432342D01*
X208709D01*
Y434471D01*
X219756D01*
X220341Y434587D01*
X220837Y434919D01*
X222458Y436539D01*
X235705D01*
Y438289D01*
X238295D01*
Y436539D01*
X253705D01*
Y438471D01*
X263994D01*
X264584Y437881D01*
X265503Y437500D01*
X266497D01*
X267416Y437881D01*
X268119Y438584D01*
X268500Y439503D01*
Y440497D01*
X268119Y441416D01*
X267416Y442119D01*
X266497Y442500D01*
X265503D01*
X264584Y442119D01*
X263994Y441529D01*
X253705D01*
Y443099D01*
X238295D01*
Y441348D01*
X235705D01*
Y443099D01*
X226242D01*
Y451592D01*
X226273D01*
X227096Y451755D01*
X227793Y452221D01*
X228258Y452918D01*
X228422Y453740D01*
X228258Y454562D01*
X227793Y455259D01*
X227506Y455451D01*
X227658Y455951D01*
X228935D01*
X229617Y455495D01*
X230439Y455332D01*
X233561D01*
X234383Y455495D01*
X235080Y455961D01*
X235545Y456658D01*
X235709Y457480D01*
X235545Y458302D01*
X235080Y458999D01*
X234383Y459465D01*
X233561Y459629D01*
X230439D01*
X229617Y459465D01*
X228935Y459010D01*
X191480D01*
X190895Y458893D01*
X190399Y458562D01*
X166919Y435081D01*
X166587Y434585D01*
X166471Y434000D01*
Y408000D01*
X143529D01*
Y446000D01*
X143413Y446585D01*
X143081Y447081D01*
X115529Y474634D01*
Y475654D01*
X115991Y475846D01*
X128919Y462919D01*
D02*
G37*
G36*
X112471Y526069D02*
Y474000D01*
X112587Y473415D01*
X112919Y472919D01*
X140471Y445366D01*
Y408000D01*
X110039D01*
Y410901D01*
X115705D01*
Y417461D01*
X100295D01*
Y416220D01*
X97705D01*
Y417461D01*
X86334D01*
Y421705D01*
X86179Y422485D01*
X85737Y423147D01*
X85737Y423147D01*
X80942Y427942D01*
X80280Y428384D01*
X79500Y428539D01*
X74360D01*
X74116Y428588D01*
X69507D01*
X68708Y428429D01*
X68031Y427976D01*
X67578Y427299D01*
X67419Y426500D01*
X67430Y426447D01*
X66969Y426201D01*
X61529Y431640D01*
Y436342D01*
X62772D01*
Y443657D01*
X57228D01*
Y436342D01*
X58471D01*
Y431007D01*
X58587Y430422D01*
X58919Y429926D01*
X67460Y421385D01*
Y419452D01*
X76164D01*
Y423548D01*
X69622D01*
X69208Y423962D01*
X69454Y424423D01*
X69507Y424412D01*
X74116D01*
X74360Y424461D01*
X78655D01*
X82256Y420860D01*
Y415461D01*
X82295Y415264D01*
Y410901D01*
X97705D01*
Y412142D01*
X100295D01*
Y410901D01*
X105961D01*
Y408000D01*
X37529D01*
Y449367D01*
X44374Y456211D01*
X81056D01*
X81279Y455711D01*
X81115Y455529D01*
X76000D01*
X75415Y455413D01*
X74919Y455081D01*
X66793Y446955D01*
X66461Y446459D01*
X66345Y445874D01*
Y443657D01*
X65102D01*
Y436342D01*
X70646D01*
Y438471D01*
X82295D01*
Y434539D01*
X97705D01*
Y436290D01*
X100295D01*
Y434539D01*
X115705D01*
Y436471D01*
X127994D01*
X128584Y435881D01*
X129503Y435500D01*
X130497D01*
X131416Y435881D01*
X132119Y436584D01*
X132500Y437503D01*
Y438497D01*
X132119Y439416D01*
X131416Y440119D01*
X130497Y440500D01*
X129503D01*
X128584Y440119D01*
X127994Y439529D01*
X115705D01*
Y441099D01*
X100295D01*
Y439348D01*
X97705D01*
Y441099D01*
X84449D01*
X83979Y441413D01*
X83394Y441529D01*
X70646D01*
Y443657D01*
X69403D01*
Y445240D01*
X76634Y452471D01*
X81292D01*
X81974Y452015D01*
X82796Y451852D01*
X85917D01*
X86739Y452015D01*
X87436Y452481D01*
X87902Y453178D01*
X88065Y454000D01*
X87902Y454822D01*
X87436Y455519D01*
X87150Y455711D01*
X87301Y456211D01*
X88579D01*
X89261Y455755D01*
X90083Y455592D01*
X93204D01*
X94026Y455755D01*
X94723Y456221D01*
X95189Y456918D01*
X95353Y457740D01*
X95189Y458562D01*
X94723Y459259D01*
X94026Y459725D01*
X93204Y459889D01*
X90083D01*
X89261Y459725D01*
X88579Y459270D01*
X43740D01*
X43155Y459153D01*
X42659Y458822D01*
X34919Y451081D01*
X34587Y450585D01*
X34471Y450000D01*
Y408000D01*
X29529D01*
Y447367D01*
X108049Y525886D01*
X108549Y525679D01*
Y453657D01*
X107102D01*
Y446343D01*
X112646D01*
Y453657D01*
X111199D01*
Y525451D01*
X112009Y526260D01*
X112471Y526069D01*
D02*
G37*
%LPC*%
G36*
X231082Y720543D02*
X229886D01*
X228731Y720234D01*
X227695Y719635D01*
X226849Y718790D01*
X226251Y717754D01*
X225941Y716598D01*
Y715402D01*
X226165Y714565D01*
X223640Y712039D01*
X180630D01*
X180120Y713271D01*
X179364Y714402D01*
X178402Y715364D01*
X177271Y716120D01*
X176014Y716640D01*
X174680Y716905D01*
X173320D01*
X171986Y716640D01*
X170729Y716120D01*
X169598Y715364D01*
X168636Y714402D01*
X167880Y713271D01*
X167370Y712039D01*
X164630D01*
X164120Y713271D01*
X163364Y714402D01*
X162402Y715364D01*
X161271Y716120D01*
X160014Y716640D01*
X158680Y716905D01*
X157320D01*
X155986Y716640D01*
X154729Y716120D01*
X153598Y715364D01*
X152636Y714402D01*
X151880Y713271D01*
X151360Y712014D01*
X151094Y710680D01*
Y709320D01*
X151360Y707986D01*
X151870Y706754D01*
X121155Y676039D01*
X102000D01*
X101220Y675884D01*
X100558Y675442D01*
X74558Y649442D01*
X74116Y648780D01*
X73961Y648000D01*
Y574069D01*
X73210Y573635D01*
X72364Y572790D01*
X71766Y571754D01*
X71457Y570598D01*
Y569402D01*
X71766Y568246D01*
X72364Y567210D01*
X73210Y566364D01*
X74246Y565766D01*
X75402Y565457D01*
X76598D01*
X77754Y565766D01*
X78790Y566364D01*
X79636Y567210D01*
X80234Y568246D01*
X80543Y569402D01*
Y570598D01*
X80234Y571754D01*
X79636Y572790D01*
X78790Y573635D01*
X78039Y574069D01*
Y647155D01*
X102845Y671961D01*
X122000D01*
X122780Y672116D01*
X123442Y672558D01*
X154754Y703870D01*
X155986Y703360D01*
X157320Y703094D01*
X158680D01*
X160014Y703360D01*
X161271Y703880D01*
X162402Y704636D01*
X163364Y705598D01*
X164120Y706729D01*
X164630Y707961D01*
X167370D01*
X167880Y706729D01*
X168636Y705598D01*
X169598Y704636D01*
X170729Y703880D01*
X171986Y703360D01*
X173320Y703094D01*
X174680D01*
X176014Y703360D01*
X177271Y703880D01*
X178402Y704636D01*
X179364Y705598D01*
X180120Y706729D01*
X180630Y707961D01*
X224484D01*
X225265Y708116D01*
X225926Y708558D01*
X226484Y709116D01*
X226849Y708790D01*
X226251Y707754D01*
X225941Y706598D01*
Y705402D01*
X226251Y704246D01*
X226849Y703210D01*
X227695Y702364D01*
X228731Y701766D01*
X229886Y701457D01*
X231082D01*
X231919Y701681D01*
X233600Y700000D01*
X233274Y699636D01*
X232238Y700234D01*
X231082Y700543D01*
X229886D01*
X228731Y700234D01*
X227695Y699636D01*
X226849Y698790D01*
X226251Y697754D01*
X225941Y696598D01*
Y695402D01*
X226251Y694246D01*
X226849Y693210D01*
X227695Y692365D01*
X228731Y691766D01*
X229886Y691457D01*
X231082D01*
X232238Y691766D01*
X233274Y692365D01*
X234120Y693210D01*
X234718Y694246D01*
X235028Y695402D01*
Y696598D01*
X234718Y697754D01*
X234120Y698790D01*
X234485Y699116D01*
X234783Y698818D01*
X235444Y698376D01*
X236224Y698221D01*
X238728D01*
Y697193D01*
X246240D01*
Y698221D01*
X249736D01*
Y696087D01*
X252929D01*
Y692969D01*
X249736D01*
Y687032D01*
X260201D01*
Y692969D01*
X257008D01*
Y696087D01*
X260201D01*
Y702024D01*
X252460D01*
X252280Y702144D01*
X251500Y702299D01*
X246240D01*
Y703327D01*
X238728D01*
Y702299D01*
X237069D01*
X234803Y704565D01*
X235028Y705402D01*
Y706598D01*
X234718Y707754D01*
X234120Y708790D01*
X233274Y709635D01*
X232238Y710234D01*
X231082Y710543D01*
X229886D01*
X228731Y710234D01*
X227695Y709635D01*
X227369Y710001D01*
X229049Y711681D01*
X229886Y711457D01*
X231082D01*
X232238Y711766D01*
X233274Y712364D01*
X234120Y713210D01*
X234718Y714246D01*
X235028Y715402D01*
Y716598D01*
X234718Y717754D01*
X234120Y718790D01*
X233274Y719635D01*
X232238Y720234D01*
X231082Y720543D01*
D02*
G37*
G36*
X248448Y716250D02*
X247552D01*
X246726Y715907D01*
X246093Y715274D01*
X245750Y714447D01*
Y713553D01*
X246064Y712794D01*
X244077Y710807D01*
X238728D01*
Y704673D01*
X246240D01*
Y708644D01*
X248794Y711199D01*
X249126Y711695D01*
X249199Y712061D01*
X249274Y712092D01*
X249907Y712725D01*
X250250Y713553D01*
Y714447D01*
X249907Y715274D01*
X249274Y715907D01*
X248448Y716250D01*
D02*
G37*
G36*
X126680Y716905D02*
X125320D01*
X123986Y716640D01*
X122729Y716120D01*
X121598Y715364D01*
X120636Y714402D01*
X119880Y713271D01*
X119360Y712014D01*
X119095Y710680D01*
Y709320D01*
X119360Y707986D01*
X119880Y706729D01*
X120636Y705598D01*
X121598Y704636D01*
X122729Y703880D01*
X123986Y703360D01*
X125320Y703094D01*
X126680D01*
X128014Y703360D01*
X129271Y703880D01*
X130402Y704636D01*
X131364Y705598D01*
X132120Y706729D01*
X132640Y707986D01*
X132905Y709320D01*
Y710680D01*
X132640Y712014D01*
X132120Y713271D01*
X131364Y714402D01*
X130402Y715364D01*
X129271Y716120D01*
X128014Y716640D01*
X126680Y716905D01*
D02*
G37*
G36*
X110680D02*
X109320D01*
X107986Y716640D01*
X106729Y716120D01*
X105598Y715364D01*
X104636Y714402D01*
X103880Y713271D01*
X103360Y712014D01*
X103094Y710680D01*
Y709320D01*
X103360Y707986D01*
X103880Y706729D01*
X104636Y705598D01*
X105598Y704636D01*
X106729Y703880D01*
X107986Y703360D01*
X109320Y703094D01*
X110680D01*
X112014Y703360D01*
X113271Y703880D01*
X114402Y704636D01*
X115364Y705598D01*
X116120Y706729D01*
X116640Y707986D01*
X116905Y709320D01*
Y710680D01*
X116640Y712014D01*
X116120Y713271D01*
X115364Y714402D01*
X114402Y715364D01*
X113271Y716120D01*
X112014Y716640D01*
X110680Y716905D01*
D02*
G37*
G36*
X241984Y687366D02*
X237941D01*
Y684012D01*
X241984D01*
Y687366D01*
D02*
G37*
G36*
X283232Y697398D02*
X272768D01*
Y682602D01*
X283232D01*
Y692471D01*
X284347D01*
X284471Y692347D01*
Y691653D01*
X284092Y691274D01*
X283750Y690448D01*
Y689552D01*
X284092Y688726D01*
X284471Y688347D01*
Y687653D01*
X284092Y687275D01*
X283750Y686447D01*
Y685553D01*
X284092Y684726D01*
X284725Y684093D01*
X285552Y683750D01*
X286448D01*
X287275Y684093D01*
X287908Y684726D01*
X288250Y685553D01*
Y686447D01*
X287908Y687275D01*
X287529Y687653D01*
Y688347D01*
X287908Y688726D01*
X288250Y689552D01*
Y690448D01*
X287908Y691274D01*
X287529Y691653D01*
Y692347D01*
X287908Y692726D01*
X288250Y693552D01*
Y694448D01*
X287908Y695274D01*
X287275Y695907D01*
X286448Y696250D01*
X285552D01*
X284725Y695907D01*
X284347Y695529D01*
X283232D01*
Y697398D01*
D02*
G37*
G36*
X260201Y683913D02*
X255469D01*
Y681445D01*
X260201D01*
Y683913D01*
D02*
G37*
G36*
X241984Y683012D02*
X237941D01*
Y679658D01*
X241984D01*
Y683012D01*
D02*
G37*
G36*
X260201Y680445D02*
X255469D01*
Y677976D01*
X260201D01*
Y680445D01*
D02*
G37*
G36*
X247028Y687366D02*
X242984D01*
Y683512D01*
Y679658D01*
X243423D01*
X243938Y679143D01*
X244765Y678590D01*
X245740Y678396D01*
X249736D01*
Y677976D01*
X254468D01*
Y680945D01*
Y683913D01*
X249736D01*
Y683494D01*
X247028D01*
Y687366D01*
D02*
G37*
G36*
X222835Y679658D02*
X217291D01*
Y677529D01*
X213823D01*
Y678870D01*
X208279D01*
Y673130D01*
X213823D01*
Y674471D01*
X217291D01*
Y672342D01*
X222835D01*
Y679658D01*
D02*
G37*
G36*
X207720Y678870D02*
X202177D01*
Y677529D01*
X197653D01*
X197274Y677908D01*
X196448Y678250D01*
X195552D01*
X194726Y677908D01*
X194093Y677275D01*
X193750Y676447D01*
Y675553D01*
X194093Y674725D01*
X194726Y674092D01*
X195552Y673750D01*
X196448D01*
X197274Y674092D01*
X197653Y674471D01*
X202177D01*
Y673130D01*
X207720D01*
Y678870D01*
D02*
G37*
G36*
X230709Y679658D02*
X228437D01*
Y676500D01*
X230709D01*
Y679658D01*
D02*
G37*
G36*
X227437D02*
X225165D01*
Y676500D01*
X227437D01*
Y679658D01*
D02*
G37*
G36*
X426680Y682590D02*
X426500D01*
Y676185D01*
X432905D01*
Y676365D01*
X432640Y677699D01*
X432120Y678956D01*
X431364Y680087D01*
X430402Y681049D01*
X429271Y681805D01*
X428014Y682325D01*
X426680Y682590D01*
D02*
G37*
G36*
X425500D02*
X425320D01*
X423986Y682325D01*
X422729Y681805D01*
X421598Y681049D01*
X420636Y680087D01*
X419880Y678956D01*
X419360Y677699D01*
X419095Y676365D01*
Y676185D01*
X425500D01*
Y682590D01*
D02*
G37*
G36*
X254984Y674499D02*
Y672500D01*
X256983D01*
X256604Y673416D01*
X255900Y674119D01*
X254984Y674499D01*
D02*
G37*
G36*
X253984Y674499D02*
X253068Y674119D01*
X252365Y673416D01*
X251985Y672500D01*
X253984D01*
Y674499D01*
D02*
G37*
G36*
X230709Y675500D02*
X228437D01*
Y672342D01*
X230709D01*
Y675500D01*
D02*
G37*
G36*
X227437D02*
X225165D01*
Y672342D01*
X227437D01*
Y675500D01*
D02*
G37*
G36*
X253984Y671500D02*
X251985D01*
X252365Y670584D01*
X253068Y669881D01*
X253984Y669501D01*
Y671500D01*
D02*
G37*
G36*
X256983D02*
X254984D01*
Y669501D01*
X255900Y669881D01*
X256604Y670584D01*
X256983Y671500D01*
D02*
G37*
G36*
X432905Y675185D02*
X426500D01*
Y668780D01*
X426680D01*
X428014Y669045D01*
X429271Y669565D01*
X430402Y670321D01*
X431364Y671283D01*
X432120Y672414D01*
X432640Y673671D01*
X432905Y675005D01*
Y675185D01*
D02*
G37*
G36*
X425500D02*
X419095D01*
Y675005D01*
X419360Y673671D01*
X419880Y672414D01*
X420636Y671283D01*
X421598Y670321D01*
X422729Y669565D01*
X423986Y669045D01*
X425320Y668780D01*
X425500D01*
Y675185D01*
D02*
G37*
G36*
X30680Y678905D02*
X29320D01*
X27986Y678640D01*
X26729Y678120D01*
X25598Y677364D01*
X24636Y676402D01*
X23880Y675271D01*
X23360Y674014D01*
X23095Y672680D01*
Y671320D01*
X23360Y669986D01*
X23880Y668729D01*
X24271Y668145D01*
X15063Y658937D01*
X14775Y658507D01*
X14674Y658000D01*
Y634000D01*
X14775Y633493D01*
X15063Y633063D01*
X29537Y618588D01*
X29500Y618497D01*
Y617503D01*
X29881Y616584D01*
X30584Y615881D01*
X31503Y615500D01*
X32497D01*
X33416Y615881D01*
X34119Y616584D01*
X34157Y616675D01*
X42508D01*
Y614937D01*
X51240D01*
Y620937D01*
X42508D01*
Y619325D01*
X34157D01*
X34119Y619416D01*
X33416Y620119D01*
X32497Y620500D01*
X31503D01*
X31412Y620462D01*
X17325Y634549D01*
Y657451D01*
X26145Y666271D01*
X26729Y665880D01*
X27986Y665360D01*
X29320Y665095D01*
X30680D01*
X32014Y665360D01*
X33271Y665880D01*
X34402Y666636D01*
X35364Y667598D01*
X36120Y668729D01*
X36640Y669986D01*
X36906Y671320D01*
Y672680D01*
X36640Y674014D01*
X36120Y675271D01*
X35364Y676402D01*
X34402Y677364D01*
X33271Y678120D01*
X32014Y678640D01*
X30680Y678905D01*
D02*
G37*
G36*
X247028Y676342D02*
X237941D01*
Y668634D01*
X240955D01*
Y665922D01*
X241071Y665336D01*
X241403Y664840D01*
X241763Y664480D01*
X241750Y664447D01*
Y663553D01*
X242092Y662725D01*
X242725Y662092D01*
X243552Y661750D01*
X244448D01*
X245274Y662092D01*
X245907Y662725D01*
X246250Y663553D01*
Y664447D01*
X245907Y665274D01*
X245274Y665907D01*
X244448Y666250D01*
X244319D01*
X244014Y666555D01*
Y668634D01*
X247028D01*
Y676342D01*
D02*
G37*
G36*
X356448Y656250D02*
X355552D01*
X354726Y655907D01*
X354093Y655274D01*
X353750Y654448D01*
Y653552D01*
X354086Y652741D01*
X351059Y649714D01*
X351008Y649724D01*
X347661D01*
X346810Y649555D01*
X346089Y649073D01*
X345607Y648351D01*
X345438Y647500D01*
X345607Y646649D01*
X346089Y645927D01*
X346810Y645445D01*
X347661Y645276D01*
X351008D01*
X351859Y645445D01*
X352580Y645927D01*
X353062Y646649D01*
X353232Y647500D01*
X353222Y647551D01*
X356794Y651124D01*
X357126Y651620D01*
X357215Y652068D01*
X357275Y652093D01*
X357908Y652726D01*
X358250Y653552D01*
Y654448D01*
X357908Y655274D01*
X357275Y655907D01*
X356448Y656250D01*
D02*
G37*
G36*
X426680Y662906D02*
X425320D01*
X423986Y662640D01*
X422729Y662120D01*
X421598Y661364D01*
X420636Y660402D01*
X419880Y659271D01*
X419360Y658014D01*
X419095Y656680D01*
Y655320D01*
X419360Y653986D01*
X419880Y652729D01*
X420636Y651598D01*
X421598Y650636D01*
X422729Y649880D01*
X423986Y649360D01*
X425320Y649094D01*
X426680D01*
X428014Y649360D01*
X429271Y649880D01*
X430402Y650636D01*
X431364Y651598D01*
X432120Y652729D01*
X432640Y653986D01*
X432905Y655320D01*
Y656680D01*
X432640Y658014D01*
X432120Y659271D01*
X431364Y660402D01*
X430402Y661364D01*
X429271Y662120D01*
X428014Y662640D01*
X426680Y662906D01*
D02*
G37*
G36*
X226598Y651543D02*
X226500D01*
Y647500D01*
X230543D01*
Y647598D01*
X230234Y648754D01*
X229636Y649790D01*
X228790Y650635D01*
X227754Y651234D01*
X226598Y651543D01*
D02*
G37*
G36*
X225500D02*
X225402D01*
X224246Y651234D01*
X223210Y650635D01*
X222364Y649790D01*
X221766Y648754D01*
X221457Y647598D01*
Y647500D01*
X225500D01*
Y651543D01*
D02*
G37*
G36*
X356448Y646250D02*
X355552D01*
X354726Y645907D01*
X354093Y645274D01*
X353750Y644448D01*
Y644319D01*
X353461Y644029D01*
X352609D01*
X352580Y644072D01*
X351859Y644555D01*
X351008Y644724D01*
X347661D01*
X346810Y644555D01*
X346089Y644072D01*
X345607Y643351D01*
X345438Y642500D01*
X345607Y641649D01*
X346089Y640928D01*
X346810Y640445D01*
X347661Y640276D01*
X351008D01*
X351859Y640445D01*
X352580Y640928D01*
X352609Y640971D01*
X354094D01*
X354679Y641087D01*
X355175Y641419D01*
X355520Y641763D01*
X355552Y641750D01*
X356448D01*
X357275Y642093D01*
X357908Y642726D01*
X358250Y643552D01*
Y644448D01*
X357908Y645274D01*
X357275Y645907D01*
X356448Y646250D01*
D02*
G37*
G36*
X324448Y654250D02*
X323552D01*
X322726Y653907D01*
X322093Y653274D01*
X321750Y652448D01*
Y651552D01*
X322093Y650726D01*
X322471Y650347D01*
Y648807D01*
X320307D01*
Y642673D01*
X327819D01*
Y648807D01*
X325529D01*
Y650347D01*
X325907Y650726D01*
X326250Y651552D01*
Y652448D01*
X325907Y653274D01*
X325274Y653907D01*
X324448Y654250D01*
D02*
G37*
G36*
X230543Y646500D02*
X226500D01*
Y642457D01*
X226598D01*
X227754Y642766D01*
X228790Y643364D01*
X229636Y644210D01*
X230234Y645246D01*
X230543Y646402D01*
Y646500D01*
D02*
G37*
G36*
X225500D02*
X221457D01*
Y646402D01*
X221766Y645246D01*
X222364Y644210D01*
X223210Y643364D01*
X224246Y642766D01*
X225402Y642457D01*
X225500D01*
Y646500D01*
D02*
G37*
G36*
X334898Y641657D02*
X329354D01*
Y639326D01*
X327819D01*
Y641327D01*
X320307D01*
Y639326D01*
X316220D01*
X316182Y639416D01*
X315479Y640119D01*
X314560Y640500D01*
X313566D01*
X312647Y640119D01*
X311944Y639416D01*
X311906Y639326D01*
X296000D01*
X295493Y639225D01*
X295063Y638937D01*
X248376Y592250D01*
X247552D01*
X246726Y591908D01*
X246093Y591274D01*
X245750Y590448D01*
Y589552D01*
X246093Y588726D01*
X246726Y588093D01*
X247552Y587750D01*
X248448D01*
X249274Y588093D01*
X249907Y588726D01*
X250250Y589552D01*
Y590376D01*
X296549Y636674D01*
X311906D01*
X311944Y636584D01*
X312647Y635881D01*
X313566Y635500D01*
X314560D01*
X315479Y635881D01*
X316182Y636584D01*
X316220Y636674D01*
X320307D01*
Y635193D01*
X327819D01*
Y636674D01*
X329354D01*
Y634342D01*
X334898D01*
Y641657D01*
D02*
G37*
G36*
X342772D02*
X337228D01*
Y634342D01*
X342772D01*
Y636174D01*
X345924D01*
X346089Y635927D01*
X346810Y635445D01*
X347661Y635276D01*
X351008D01*
X351859Y635445D01*
X352580Y635927D01*
X353062Y636649D01*
X353232Y637500D01*
X353062Y638351D01*
X352580Y639073D01*
X351859Y639555D01*
X351008Y639724D01*
X347661D01*
X346810Y639555D01*
X346089Y639073D01*
X345924Y638826D01*
X342772D01*
Y641657D01*
D02*
G37*
G36*
X226598Y641543D02*
X225402D01*
X224246Y641234D01*
X223210Y640635D01*
X222364Y639790D01*
X221766Y638754D01*
X221457Y637598D01*
Y636402D01*
X221766Y635246D01*
X222364Y634210D01*
X223210Y633364D01*
X224246Y632766D01*
X225402Y632457D01*
X226598D01*
X227754Y632766D01*
X228790Y633364D01*
X229636Y634210D01*
X230234Y635246D01*
X230543Y636402D01*
Y637598D01*
X230234Y638754D01*
X229636Y639790D01*
X228790Y640635D01*
X227754Y641234D01*
X226598Y641543D01*
D02*
G37*
G36*
X30680Y694906D02*
X29320D01*
X27986Y694640D01*
X26729Y694120D01*
X25598Y693364D01*
X24636Y692402D01*
X23880Y691271D01*
X23360Y690014D01*
X23095Y688680D01*
Y687320D01*
X23360Y685986D01*
X23880Y684729D01*
X24636Y683598D01*
X25598Y682636D01*
X26729Y681880D01*
X27986Y681360D01*
X29320Y681095D01*
X30680D01*
X32014Y681360D01*
X33271Y681880D01*
X33855Y682271D01*
X40674Y675451D01*
Y666549D01*
X29063Y654937D01*
X28775Y654507D01*
X28675Y654000D01*
Y636157D01*
X28584Y636119D01*
X27881Y635416D01*
X27500Y634497D01*
Y633503D01*
X27881Y632584D01*
X28584Y631881D01*
X29503Y631500D01*
X30497D01*
X31416Y631881D01*
X32119Y632584D01*
X32157Y632675D01*
X42508D01*
Y630685D01*
X51240D01*
Y636685D01*
X42508D01*
Y635325D01*
X32157D01*
X32119Y635416D01*
X31416Y636119D01*
X31326Y636157D01*
Y653451D01*
X42937Y665063D01*
X43225Y665493D01*
X43325Y666000D01*
Y676000D01*
X43225Y676507D01*
X42937Y676937D01*
X35729Y684145D01*
X36120Y684729D01*
X36640Y685986D01*
X36906Y687320D01*
Y688680D01*
X36640Y690014D01*
X36120Y691271D01*
X35364Y692402D01*
X34402Y693364D01*
X33271Y694120D01*
X32014Y694640D01*
X30680Y694906D01*
D02*
G37*
G36*
X372465Y649724D02*
X369118D01*
X368267Y649555D01*
X367546Y649073D01*
X367064Y648351D01*
X366894Y647500D01*
X367064Y646649D01*
X367546Y645927D01*
X368267Y645445D01*
X369118Y645276D01*
X372465D01*
X373316Y645445D01*
X374037Y645927D01*
X374202Y646174D01*
X392329D01*
X403126Y635378D01*
X403556Y635090D01*
X404063Y634990D01*
X404063Y634990D01*
X419223D01*
X419360Y634301D01*
X419880Y633044D01*
X420636Y631913D01*
X421598Y630951D01*
X422729Y630195D01*
X423986Y629675D01*
X425320Y629410D01*
X426680D01*
X428014Y629675D01*
X429271Y630195D01*
X430402Y630951D01*
X431364Y631913D01*
X432120Y633044D01*
X432640Y634301D01*
X432905Y635635D01*
Y636995D01*
X432640Y638329D01*
X432120Y639586D01*
X431364Y640717D01*
X430402Y641679D01*
X429271Y642435D01*
X428014Y642955D01*
X426680Y643221D01*
X425320D01*
X423986Y642955D01*
X422729Y642435D01*
X421598Y641679D01*
X420636Y640717D01*
X419880Y639586D01*
X419360Y638329D01*
X419223Y637640D01*
X404612D01*
X393815Y648437D01*
X393385Y648725D01*
X392878Y648826D01*
X374202D01*
X374037Y649073D01*
X373316Y649555D01*
X372465Y649724D01*
D02*
G37*
G36*
X51240Y628811D02*
X42508D01*
Y622811D01*
X51240D01*
Y628811D01*
D02*
G37*
G36*
X226598Y631543D02*
X225402D01*
X224246Y631234D01*
X223210Y630635D01*
X222364Y629790D01*
X221766Y628754D01*
X221457Y627598D01*
Y626402D01*
X221766Y625246D01*
X222364Y624210D01*
X223210Y623364D01*
X224246Y622766D01*
X225402Y622457D01*
X226598D01*
X227754Y622766D01*
X228790Y623364D01*
X229636Y624210D01*
X230234Y625246D01*
X230543Y626402D01*
Y627598D01*
X230234Y628754D01*
X229636Y629790D01*
X228790Y630635D01*
X227754Y631234D01*
X226598Y631543D01*
D02*
G37*
G36*
X351008Y634724D02*
X347661D01*
X346810Y634555D01*
X346089Y634072D01*
X345607Y633351D01*
X345438Y632500D01*
X345607Y631649D01*
X346089Y630928D01*
X346810Y630445D01*
X347550Y630298D01*
Y629023D01*
X344284Y625756D01*
X340673D01*
Y620767D01*
X339789Y619883D01*
X339327Y620074D01*
Y625756D01*
X333193D01*
Y623529D01*
X331653D01*
X331275Y623908D01*
X330448Y624250D01*
X329552D01*
X328726Y623908D01*
X328093Y623275D01*
X327750Y622447D01*
Y621553D01*
X328093Y620725D01*
X328726Y620092D01*
X329552Y619750D01*
X330448D01*
X331275Y620092D01*
X331653Y620471D01*
X333193D01*
Y618244D01*
X337001D01*
X337352Y617744D01*
X337317Y617649D01*
X336738Y617262D01*
X333719Y614243D01*
X332598Y614543D01*
X331402D01*
X330246Y614234D01*
X329210Y613635D01*
X328364Y612790D01*
X327766Y611754D01*
X327457Y610598D01*
Y609402D01*
X327766Y608246D01*
X328364Y607210D01*
X329210Y606364D01*
X330246Y605766D01*
X331402Y605457D01*
X332598D01*
X333754Y605766D01*
X334790Y606364D01*
X335635Y607210D01*
X336234Y608246D01*
X336543Y609402D01*
Y610598D01*
X336243Y611720D01*
X338816Y614293D01*
X339112Y614352D01*
X339691Y614738D01*
X343197Y618244D01*
X346807D01*
Y623233D01*
X350596Y627022D01*
X350596Y627022D01*
X350983Y627601D01*
X351119Y628284D01*
X351119Y628284D01*
Y630298D01*
X351859Y630445D01*
X352580Y630928D01*
X353062Y631649D01*
X353232Y632500D01*
X353062Y633351D01*
X352580Y634072D01*
X351859Y634555D01*
X351008Y634724D01*
D02*
G37*
G36*
X188448Y624250D02*
X187552D01*
X186725Y623908D01*
X186092Y623275D01*
X185856Y622704D01*
X182546Y619394D01*
X179165D01*
Y612079D01*
X184709D01*
Y617231D01*
X187323Y619845D01*
X187552Y619750D01*
X188448D01*
X189275Y620092D01*
X189908Y620725D01*
X190250Y621553D01*
Y622447D01*
X189908Y623275D01*
X189275Y623908D01*
X188448Y624250D01*
D02*
G37*
G36*
X51240Y613063D02*
X42508D01*
Y611326D01*
X34157D01*
X34119Y611416D01*
X33416Y612119D01*
X32497Y612500D01*
X31503D01*
X30584Y612119D01*
X29881Y611416D01*
X29500Y610497D01*
Y609503D01*
X29537Y609412D01*
X19063Y598937D01*
X18775Y598507D01*
X18675Y598000D01*
Y556000D01*
X18775Y555493D01*
X19063Y555063D01*
X26271Y547855D01*
X25880Y547271D01*
X25360Y546014D01*
X25095Y544680D01*
Y543320D01*
X25360Y541986D01*
X25880Y540729D01*
X26636Y539598D01*
X27598Y538636D01*
X28729Y537880D01*
X29986Y537360D01*
X31320Y537094D01*
X32680D01*
X34014Y537360D01*
X35271Y537880D01*
X36402Y538636D01*
X37364Y539598D01*
X38120Y540729D01*
X38640Y541986D01*
X38906Y543320D01*
Y544680D01*
X38640Y546014D01*
X38120Y547271D01*
X37364Y548402D01*
X36402Y549364D01*
X35271Y550120D01*
X34014Y550640D01*
X32680Y550906D01*
X31320D01*
X29986Y550640D01*
X28729Y550120D01*
X28145Y549729D01*
X21326Y556549D01*
Y597451D01*
X31412Y607538D01*
X31503Y607500D01*
X32497D01*
X33416Y607881D01*
X34119Y608584D01*
X34157Y608674D01*
X42508D01*
Y607063D01*
X51240D01*
Y613063D01*
D02*
G37*
G36*
X342598Y614543D02*
X342500D01*
Y610500D01*
X346543D01*
Y610598D01*
X346234Y611754D01*
X345636Y612790D01*
X344790Y613635D01*
X343754Y614234D01*
X342598Y614543D01*
D02*
G37*
G36*
X341500D02*
X341402D01*
X340246Y614234D01*
X339210Y613635D01*
X338365Y612790D01*
X337766Y611754D01*
X337457Y610598D01*
Y610500D01*
X341500D01*
Y614543D01*
D02*
G37*
G36*
X372465Y644724D02*
X369118D01*
X368267Y644555D01*
X367546Y644072D01*
X367064Y643351D01*
X366894Y642500D01*
X366952Y642209D01*
X353189Y628445D01*
X352901Y628015D01*
X352800Y627508D01*
Y625854D01*
X350764D01*
Y618146D01*
X357488D01*
Y625854D01*
X355451D01*
Y626959D01*
X366482Y637989D01*
X366943Y637743D01*
X366894Y637500D01*
X366952Y637209D01*
X361063Y631319D01*
X360775Y630889D01*
X360675Y630382D01*
Y625854D01*
X358638D01*
Y618146D01*
X365362D01*
Y625854D01*
X363326D01*
Y629833D01*
X366482Y632989D01*
X366943Y632743D01*
X366894Y632500D01*
X367064Y631649D01*
X367546Y630928D01*
X368267Y630445D01*
X369118Y630276D01*
X372465D01*
X372756Y630334D01*
X387397Y615693D01*
X387827Y615405D01*
X388335Y615304D01*
X419223D01*
X419360Y614616D01*
X419880Y613359D01*
X420636Y612228D01*
X421598Y611266D01*
X422729Y610510D01*
X423986Y609990D01*
X425320Y609724D01*
X426680D01*
X428014Y609990D01*
X429271Y610510D01*
X430402Y611266D01*
X431364Y612228D01*
X432120Y613359D01*
X432640Y614616D01*
X432905Y615950D01*
Y617310D01*
X432640Y618644D01*
X432120Y619901D01*
X431364Y621032D01*
X430402Y621994D01*
X429271Y622750D01*
X428014Y623270D01*
X426680Y623535D01*
X425320D01*
X423986Y623270D01*
X422729Y622750D01*
X421598Y621994D01*
X420636Y621032D01*
X419880Y619901D01*
X419360Y618644D01*
X419223Y617955D01*
X388884D01*
X374630Y632209D01*
X374688Y632500D01*
X374519Y633351D01*
X374037Y634072D01*
X373316Y634555D01*
X372465Y634724D01*
X369333D01*
X369067Y635193D01*
X369066Y635205D01*
X369118Y635276D01*
X372465D01*
X373316Y635445D01*
X374037Y635927D01*
X374519Y636649D01*
X374688Y637500D01*
X374519Y638351D01*
X374037Y639073D01*
X373316Y639555D01*
X372465Y639724D01*
X369333D01*
X369067Y640193D01*
X369066Y640205D01*
X369118Y640276D01*
X372465D01*
X373316Y640445D01*
X374037Y640928D01*
X374519Y641649D01*
X374688Y642500D01*
X374519Y643351D01*
X374037Y644072D01*
X373316Y644555D01*
X372465Y644724D01*
D02*
G37*
G36*
X226598Y616543D02*
X225402D01*
X224246Y616234D01*
X223210Y615635D01*
X222364Y614790D01*
X221766Y613754D01*
X221457Y612598D01*
Y611402D01*
X221766Y610246D01*
X222364Y609210D01*
X223210Y608364D01*
X224246Y607766D01*
X225402Y607457D01*
X226598D01*
X227754Y607766D01*
X228790Y608364D01*
X229636Y609210D01*
X230234Y610246D01*
X230543Y611402D01*
Y612598D01*
X230234Y613754D01*
X229636Y614790D01*
X228790Y615635D01*
X227754Y616234D01*
X226598Y616543D01*
D02*
G37*
G36*
X346543Y609500D02*
X342500D01*
Y605457D01*
X342598D01*
X343754Y605766D01*
X344790Y606364D01*
X345636Y607210D01*
X346234Y608246D01*
X346543Y609402D01*
Y609500D01*
D02*
G37*
G36*
X341500D02*
X337457D01*
Y609402D01*
X337766Y608246D01*
X338365Y607210D01*
X339210Y606364D01*
X340246Y605766D01*
X341402Y605457D01*
X341500D01*
Y609500D01*
D02*
G37*
G36*
X322598Y614543D02*
X321402D01*
X320246Y614234D01*
X319210Y613635D01*
X318365Y612790D01*
X317766Y611754D01*
X317457Y610598D01*
Y609402D01*
X317766Y608246D01*
X318365Y607210D01*
X319210Y606364D01*
X320246Y605766D01*
X321402Y605457D01*
X322598D01*
X323754Y605766D01*
X324790Y606364D01*
X325636Y607210D01*
X326234Y608246D01*
X326543Y609402D01*
Y610598D01*
X326234Y611754D01*
X325636Y612790D01*
X324790Y613635D01*
X323754Y614234D01*
X322598Y614543D01*
D02*
G37*
G36*
X51240Y605189D02*
X42508D01*
Y599189D01*
X51240D01*
Y605189D01*
D02*
G37*
G36*
X226598Y606543D02*
X225402D01*
X224246Y606234D01*
X223210Y605635D01*
X222364Y604790D01*
X221766Y603754D01*
X221457Y602598D01*
Y601402D01*
X221766Y600246D01*
X222364Y599210D01*
X223210Y598364D01*
X224246Y597766D01*
X225402Y597457D01*
X226598D01*
X227754Y597766D01*
X228790Y598364D01*
X229636Y599210D01*
X230234Y600246D01*
X230543Y601402D01*
Y602598D01*
X230234Y603754D01*
X229636Y604790D01*
X228790Y605635D01*
X227754Y606234D01*
X226598Y606543D01*
D02*
G37*
G36*
X51240Y597315D02*
X42508D01*
Y595326D01*
X34157D01*
X34119Y595416D01*
X33416Y596119D01*
X32497Y596500D01*
X31503D01*
X30584Y596119D01*
X29881Y595416D01*
X29500Y594497D01*
Y593503D01*
X29881Y592584D01*
X30584Y591881D01*
X30674Y591843D01*
Y566777D01*
X29986Y566640D01*
X28729Y566120D01*
X27598Y565364D01*
X26636Y564402D01*
X25880Y563271D01*
X25360Y562014D01*
X25095Y560680D01*
Y559320D01*
X25360Y557986D01*
X25880Y556729D01*
X26636Y555598D01*
X27598Y554636D01*
X28729Y553880D01*
X29986Y553360D01*
X31320Y553094D01*
X32680D01*
X34014Y553360D01*
X35271Y553880D01*
X36402Y554636D01*
X37364Y555598D01*
X38120Y556729D01*
X38640Y557986D01*
X38906Y559320D01*
Y560680D01*
X38640Y562014D01*
X38120Y563271D01*
X37364Y564402D01*
X36402Y565364D01*
X35271Y566120D01*
X34014Y566640D01*
X33325Y566777D01*
Y591843D01*
X33416Y591881D01*
X34119Y592584D01*
X34157Y592674D01*
X42508D01*
Y591315D01*
X51240D01*
Y597315D01*
D02*
G37*
G36*
X188709Y597394D02*
X186437D01*
Y594236D01*
X188709D01*
Y597394D01*
D02*
G37*
G36*
X185437D02*
X183165D01*
Y594236D01*
X185437D01*
Y597394D01*
D02*
G37*
G36*
X226598Y596543D02*
X226500D01*
Y592500D01*
X230543D01*
Y592598D01*
X230234Y593754D01*
X229636Y594790D01*
X228790Y595636D01*
X227754Y596234D01*
X226598Y596543D01*
D02*
G37*
G36*
X225500D02*
X225402D01*
X224246Y596234D01*
X223210Y595636D01*
X222364Y594790D01*
X221766Y593754D01*
X221457Y592598D01*
Y592500D01*
X225500D01*
Y596543D01*
D02*
G37*
G36*
X188709Y593236D02*
X186437D01*
Y590079D01*
X188709D01*
Y593236D01*
D02*
G37*
G36*
X185437D02*
X183165D01*
Y590079D01*
X185437D01*
Y593236D01*
D02*
G37*
G36*
X230543Y591500D02*
X226500D01*
Y587457D01*
X226598D01*
X227754Y587766D01*
X228790Y588365D01*
X229636Y589210D01*
X230234Y590246D01*
X230543Y591402D01*
Y591500D01*
D02*
G37*
G36*
X225500D02*
X221457D01*
Y591402D01*
X221766Y590246D01*
X222364Y589210D01*
X223210Y588365D01*
X224246Y587766D01*
X225402Y587457D01*
X225500D01*
Y591500D01*
D02*
G37*
G36*
X174709Y585658D02*
X172437D01*
Y582500D01*
X174709D01*
Y585658D01*
D02*
G37*
G36*
X171437D02*
X169165D01*
Y582500D01*
X171437D01*
Y585658D01*
D02*
G37*
G36*
X174709Y581500D02*
X172437D01*
Y578342D01*
X174709D01*
Y581500D01*
D02*
G37*
G36*
X171437D02*
X169165D01*
Y578342D01*
X171437D01*
Y581500D01*
D02*
G37*
G36*
X278448Y586250D02*
X277552D01*
X276726Y585908D01*
X276093Y585275D01*
X275750Y584447D01*
Y583553D01*
X276093Y582725D01*
X276471Y582347D01*
Y578807D01*
X273984D01*
Y572673D01*
X281496D01*
Y578807D01*
X279529D01*
Y582347D01*
X279907Y582725D01*
X280250Y583553D01*
Y584447D01*
X279907Y585275D01*
X279275Y585908D01*
X278448Y586250D01*
D02*
G37*
G36*
X284448Y572250D02*
X283552D01*
X282726Y571908D01*
X282092Y571275D01*
X281996Y571042D01*
X281496Y571141D01*
Y571327D01*
X273984D01*
Y569325D01*
X267897D01*
X267860Y569416D01*
X267156Y570119D01*
X266237Y570500D01*
X265243D01*
X264324Y570119D01*
X263621Y569416D01*
X263240Y568497D01*
Y567503D01*
X262778Y567325D01*
X257856D01*
X257275Y567907D01*
X256448Y568250D01*
X255552D01*
X254726Y567907D01*
X254093Y567275D01*
X253750Y566447D01*
Y565553D01*
X254093Y564725D01*
X254726Y564092D01*
X255552Y563750D01*
X256448D01*
X257275Y564092D01*
X257856Y564675D01*
X263740D01*
X264247Y564775D01*
X264677Y565063D01*
X265152Y565538D01*
X265243Y565500D01*
X266237D01*
X267156Y565881D01*
X267860Y566584D01*
X267897Y566675D01*
X273984D01*
Y565193D01*
X274045D01*
X274083Y564709D01*
X274083D01*
Y559165D01*
X281398D01*
Y564709D01*
X281398D01*
X281436Y565193D01*
X281496D01*
Y568859D01*
X281996Y568958D01*
X282092Y568725D01*
X282726Y568092D01*
X282828Y568050D01*
X282874Y567817D01*
X283206Y567320D01*
X284933Y565593D01*
Y560244D01*
X291067D01*
Y567756D01*
X287096D01*
X285972Y568880D01*
X286250Y569553D01*
Y570447D01*
X285908Y571275D01*
X285275Y571908D01*
X284448Y572250D01*
D02*
G37*
G36*
X166835Y573658D02*
X164563D01*
Y570500D01*
X166835D01*
Y573658D01*
D02*
G37*
G36*
X330338Y570543D02*
X330240D01*
Y566500D01*
X334283D01*
Y566598D01*
X333974Y567754D01*
X333376Y568790D01*
X332530Y569635D01*
X331494Y570234D01*
X330338Y570543D01*
D02*
G37*
G36*
X186448Y580250D02*
X185552D01*
X184725Y579908D01*
X184092Y579275D01*
X183750Y578447D01*
Y577553D01*
X184092Y576725D01*
X184471Y576347D01*
Y573658D01*
X183165D01*
Y566342D01*
X188709D01*
Y573658D01*
X187529D01*
Y576347D01*
X187908Y576725D01*
X188250Y577553D01*
Y578447D01*
X187908Y579275D01*
X187275Y579908D01*
X186448Y580250D01*
D02*
G37*
G36*
X334283Y565500D02*
X330240D01*
Y561457D01*
X330338D01*
X331494Y561766D01*
X332530Y562364D01*
X333376Y563210D01*
X333974Y564246D01*
X334283Y565402D01*
Y565500D01*
D02*
G37*
G36*
X326000Y595326D02*
X266000D01*
X265493Y595225D01*
X265063Y594937D01*
X220588Y550462D01*
X220497Y550500D01*
X219503D01*
X218584Y550119D01*
X217881Y549416D01*
X217843Y549326D01*
X208823D01*
X208316Y549225D01*
X207886Y548937D01*
X202157Y543209D01*
X201658Y543416D01*
X201658Y543561D01*
Y545437D01*
X198500D01*
Y543165D01*
X201255D01*
X201407Y543165D01*
X201614Y542665D01*
X199783Y540835D01*
X194343D01*
Y539326D01*
X177299D01*
Y541854D01*
X170575D01*
Y534146D01*
X177299D01*
Y536674D01*
X194343D01*
Y535291D01*
X201658D01*
Y538960D01*
X209372Y546674D01*
X217843D01*
X217881Y546584D01*
X218584Y545881D01*
X219503Y545500D01*
X220497D01*
X221416Y545881D01*
X222119Y546584D01*
X222500Y547503D01*
Y548497D01*
X222462Y548588D01*
X266549Y592674D01*
X325451D01*
X336674Y581451D01*
Y560549D01*
X321760Y545634D01*
X321472Y545204D01*
X321371Y544697D01*
Y536277D01*
X320871Y536010D01*
X320797Y536060D01*
X320638Y536091D01*
Y531516D01*
X319638D01*
Y536091D01*
X319479Y536060D01*
X319404Y536010D01*
X318904Y536277D01*
Y555030D01*
X325021Y561146D01*
X325308Y561576D01*
X325409Y562083D01*
Y563415D01*
X325909Y563549D01*
X326105Y563210D01*
X326951Y562364D01*
X327987Y561766D01*
X329142Y561457D01*
X329240D01*
Y566000D01*
Y570543D01*
X329142D01*
X327987Y570234D01*
X326951Y569635D01*
X326105Y568790D01*
X325909Y568451D01*
X325409Y568585D01*
Y573916D01*
X325308Y574424D01*
X325021Y574854D01*
X308937Y590937D01*
X308507Y591225D01*
X308000Y591326D01*
X274000D01*
X273493Y591225D01*
X273063Y590937D01*
X217063Y534937D01*
X216775Y534507D01*
X216674Y534000D01*
Y530157D01*
X216584Y530119D01*
X215881Y529416D01*
X215843Y529325D01*
X211658D01*
Y530709D01*
X204343D01*
Y529325D01*
X177299D01*
Y531854D01*
X170575D01*
Y524146D01*
X177299D01*
Y526675D01*
X204343D01*
Y525165D01*
X211658D01*
Y526675D01*
X215843D01*
X215881Y526584D01*
X216584Y525881D01*
X217503Y525500D01*
X218497D01*
X219416Y525881D01*
X220119Y526584D01*
X220500Y527503D01*
Y528497D01*
X220119Y529416D01*
X219416Y530119D01*
X219325Y530157D01*
Y533451D01*
X274549Y588674D01*
X307451D01*
X322758Y573368D01*
Y570081D01*
X322258Y569793D01*
X321494Y570234D01*
X320338Y570543D01*
X319142D01*
X318305Y570319D01*
X315182Y573442D01*
X314521Y573884D01*
X313740Y574039D01*
X302791D01*
X302011Y573884D01*
X301349Y573442D01*
X295663Y567756D01*
X292413D01*
Y560244D01*
X293933D01*
Y555921D01*
X293299D01*
Y551559D01*
X299178D01*
X299568Y551559D01*
X299788Y551443D01*
X299895Y551286D01*
X299987Y551104D01*
X299987D01*
X299962Y550979D01*
Y550648D01*
X297755Y548441D01*
X295174D01*
X290181Y553434D01*
Y555921D01*
X283850D01*
Y555388D01*
X281398D01*
Y556835D01*
X274083D01*
Y551291D01*
X278421D01*
X278628Y550791D01*
X278087Y550250D01*
X277552D01*
X276726Y549907D01*
X276093Y549274D01*
X275750Y548448D01*
Y547552D01*
X276093Y546726D01*
X276726Y546093D01*
X277552Y545750D01*
X278448D01*
X279275Y546093D01*
X279907Y546726D01*
X280250Y547552D01*
Y548087D01*
X280633Y548471D01*
X283850D01*
Y544079D01*
X285690D01*
Y538984D01*
X285791Y538477D01*
X286079Y538047D01*
X291538Y532588D01*
X291500Y532497D01*
Y531503D01*
X291881Y530584D01*
X292584Y529881D01*
X293503Y529500D01*
X294497D01*
X295416Y529881D01*
X296119Y530584D01*
X296157Y530675D01*
X303061D01*
Y528563D01*
X303192Y527904D01*
X303566Y527345D01*
X304124Y526972D01*
X304783Y526841D01*
X305443Y526972D01*
X305517Y527022D01*
X306017Y526755D01*
Y520657D01*
X306118Y520150D01*
X306405Y519720D01*
X307063Y519063D01*
X307493Y518775D01*
X308000Y518675D01*
X315271D01*
X315370Y518175D01*
X314725Y517907D01*
X314092Y517275D01*
X313750Y516447D01*
Y515553D01*
X314092Y514725D01*
X314725Y514092D01*
X315552Y513750D01*
X315607Y513464D01*
X315139Y513135D01*
X315020Y513159D01*
X314361Y513028D01*
X313802Y512655D01*
X313678D01*
X313120Y513028D01*
X312461Y513159D01*
X311802Y513028D01*
X311243Y512655D01*
X311119D01*
X310561Y513028D01*
X309902Y513159D01*
X309243Y513028D01*
X308684Y512655D01*
X308560D01*
X308001Y513028D01*
X307343Y513159D01*
X306683Y513028D01*
X306125Y512655D01*
X306001D01*
X305443Y513028D01*
X304783Y513159D01*
X304124Y513028D01*
X303566Y512655D01*
X303192Y512096D01*
X303061Y511437D01*
Y505532D01*
X303192Y504873D01*
X303566Y504314D01*
X304124Y503940D01*
X304783Y503809D01*
X305443Y503940D01*
X306001Y504314D01*
X306125D01*
X306683Y503940D01*
X307343Y503809D01*
X308001Y503940D01*
X308560Y504314D01*
X308684D01*
X309243Y503940D01*
X309902Y503809D01*
X310561Y503940D01*
X311119Y504314D01*
X311243D01*
X311802Y503940D01*
X312461Y503809D01*
X312796Y503876D01*
X313296Y503503D01*
Y501756D01*
X312673D01*
Y496768D01*
X310616Y494710D01*
X310167Y494969D01*
X310283Y495402D01*
Y496598D01*
X309974Y497754D01*
X309376Y498790D01*
X308530Y499636D01*
X307494Y500234D01*
X306338Y500543D01*
X305142D01*
X303987Y500234D01*
X302951Y499636D01*
X302105Y498790D01*
X301506Y497754D01*
X301197Y496598D01*
Y495402D01*
X301506Y494246D01*
X302105Y493210D01*
X302951Y492365D01*
X303987Y491766D01*
X305142Y491457D01*
X306338D01*
X306771Y491573D01*
X307030Y491124D01*
X305690Y489784D01*
X304479D01*
X299983Y494280D01*
X300283Y495402D01*
Y496598D01*
X299974Y497754D01*
X299376Y498790D01*
X298530Y499636D01*
X297494Y500234D01*
X296338Y500543D01*
X295142D01*
X293987Y500234D01*
X292951Y499636D01*
X292105Y498790D01*
X291507Y497754D01*
X291197Y496598D01*
Y495402D01*
X291507Y494246D01*
X292105Y493210D01*
X292951Y492365D01*
X293987Y491766D01*
X295142Y491457D01*
X296338D01*
X297460Y491757D01*
X302479Y486738D01*
X303057Y486351D01*
X303740Y486216D01*
X303740Y486216D01*
X306429D01*
X307112Y486351D01*
X307691Y486738D01*
X315197Y494244D01*
X318807D01*
Y501756D01*
X316865D01*
Y503442D01*
X317365Y503852D01*
X317579Y503809D01*
X318238Y503940D01*
X318796Y504314D01*
X318920D01*
X319479Y503940D01*
X320138Y503809D01*
X320797Y503940D01*
X321356Y504314D01*
X321479D01*
X322038Y503940D01*
X322697Y503809D01*
X323356Y503940D01*
X323915Y504314D01*
X324288Y504873D01*
X324419Y505532D01*
Y510996D01*
X326794Y513372D01*
X327126Y513868D01*
X327161Y514046D01*
X327274Y514092D01*
X327907Y514725D01*
X327959Y514850D01*
X328593Y515075D01*
X328675Y515031D01*
Y508215D01*
X328775Y507707D01*
X329063Y507277D01*
X342122Y494218D01*
X341931Y493756D01*
X341356D01*
X338317Y496794D01*
X338026Y496989D01*
X337908Y497274D01*
X337275Y497907D01*
X336448Y498250D01*
X335552D01*
X334725Y497907D01*
X334092Y497274D01*
X333750Y496448D01*
Y495552D01*
X334092Y494726D01*
X334725Y494093D01*
X335552Y493750D01*
X336448D01*
X336864Y493922D01*
X339193Y491593D01*
Y486244D01*
X345327D01*
Y490822D01*
X345713Y491140D01*
X345759Y491130D01*
X346673D01*
Y486244D01*
X352807D01*
Y488674D01*
X355031D01*
Y486342D01*
X360575D01*
Y493657D01*
X355031D01*
Y491326D01*
X352807D01*
Y493756D01*
X348101D01*
X347973Y493781D01*
X346308D01*
X331326Y508764D01*
Y516000D01*
X331225Y516507D01*
X330937Y516937D01*
X328063Y519812D01*
X328254Y520274D01*
X331852D01*
X341063Y511063D01*
X341493Y510775D01*
X342000Y510674D01*
X345451D01*
X346388Y509738D01*
Y507767D01*
X346413Y507639D01*
Y502244D01*
X352547D01*
Y504674D01*
X354969D01*
Y502343D01*
X360512D01*
Y509657D01*
X354969D01*
Y507326D01*
X352547D01*
Y509756D01*
X349039D01*
Y510287D01*
X349039Y510287D01*
X348938Y510794D01*
X348651Y511224D01*
X346937Y512937D01*
X346507Y513225D01*
X346000Y513326D01*
X342549D01*
X340092Y515782D01*
X340284Y516244D01*
X345067D01*
Y523756D01*
X341096D01*
X338141Y526711D01*
X338100Y526809D01*
X338378Y527224D01*
X344901D01*
X347870Y524256D01*
X347662Y523756D01*
X346413D01*
Y516244D01*
X352547D01*
Y518675D01*
X355031D01*
Y516342D01*
X360575D01*
Y523658D01*
X355031D01*
Y521325D01*
X352547D01*
Y523756D01*
X350806D01*
Y524520D01*
X350705Y525027D01*
X350418Y525457D01*
X347662Y528213D01*
X347853Y528675D01*
X348000D01*
X348507Y528775D01*
X348937Y529063D01*
X350418Y530543D01*
X350705Y530973D01*
X350806Y531480D01*
Y532244D01*
X352547D01*
Y534675D01*
X355031D01*
Y532342D01*
X360575D01*
Y539657D01*
X355031D01*
Y537325D01*
X352547D01*
Y539756D01*
X346413D01*
Y532244D01*
X347662D01*
X347870Y531744D01*
X347451Y531325D01*
X330000D01*
X329493Y531225D01*
X329063Y530937D01*
X325451Y527325D01*
X324503D01*
X324235Y527825D01*
X324288Y527904D01*
X324419Y528563D01*
Y534469D01*
X324288Y535127D01*
X324022Y535525D01*
Y544148D01*
X338937Y559063D01*
X339225Y559493D01*
X339325Y560000D01*
Y582000D01*
X339225Y582507D01*
X338937Y582937D01*
X326937Y594937D01*
X326507Y595225D01*
X326000Y595326D01*
D02*
G37*
G36*
X177299Y561854D02*
X174437D01*
Y558500D01*
X177299D01*
Y561854D01*
D02*
G37*
G36*
X173437D02*
X170575D01*
Y558500D01*
X173437D01*
Y561854D01*
D02*
G37*
G36*
X177299Y557500D02*
X174437D01*
Y554146D01*
X177299D01*
Y557500D01*
D02*
G37*
G36*
X173437D02*
X170575D01*
Y554146D01*
X173437D01*
Y557500D01*
D02*
G37*
G36*
X396448Y558250D02*
X395552D01*
X394725Y557907D01*
X394092Y557274D01*
X393750Y556448D01*
Y556314D01*
X393221Y555785D01*
X391047D01*
X390899Y555756D01*
X386413D01*
Y548244D01*
X392547D01*
Y552727D01*
X393855D01*
X394440Y552843D01*
X394936Y553174D01*
X395524Y553762D01*
X395552Y553750D01*
X396448D01*
X397274Y554093D01*
X397907Y554726D01*
X398250Y555552D01*
Y556448D01*
X397907Y557274D01*
X397274Y557907D01*
X396448Y558250D01*
D02*
G37*
G36*
X385067Y555756D02*
X382500D01*
Y552500D01*
X385067D01*
Y555756D01*
D02*
G37*
G36*
X381500D02*
X378933D01*
Y552500D01*
X381500D01*
Y555756D01*
D02*
G37*
G36*
X111756Y567587D02*
X104244D01*
Y561453D01*
X106471D01*
Y553653D01*
X106093Y553274D01*
X105750Y552448D01*
Y551552D01*
X106093Y550726D01*
X106726Y550093D01*
X107552Y549750D01*
X108448D01*
X109274Y550093D01*
X109907Y550726D01*
X110250Y551552D01*
Y552448D01*
X109907Y553274D01*
X109529Y553653D01*
Y561453D01*
X111756D01*
Y567587D01*
D02*
G37*
G36*
X177299Y551854D02*
X174437D01*
Y548500D01*
X177299D01*
Y551854D01*
D02*
G37*
G36*
X173437D02*
X170575D01*
Y548500D01*
X173437D01*
Y551854D01*
D02*
G37*
G36*
X385067Y551500D02*
X382500D01*
Y548244D01*
X385067D01*
Y551500D01*
D02*
G37*
G36*
X381500D02*
X378933D01*
Y548244D01*
X381500D01*
Y551500D01*
D02*
G37*
G36*
X201658Y548709D02*
X198500D01*
Y546437D01*
X201658D01*
Y548709D01*
D02*
G37*
G36*
X197500D02*
X194343D01*
Y546437D01*
X197500D01*
Y548709D01*
D02*
G37*
G36*
X177299Y547500D02*
X174437D01*
Y544146D01*
X177299D01*
Y547500D01*
D02*
G37*
G36*
X173437D02*
X170575D01*
Y544146D01*
X173437D01*
Y547500D01*
D02*
G37*
G36*
X197500Y545437D02*
X194343D01*
Y543165D01*
X197500D01*
Y545437D01*
D02*
G37*
G36*
X383398Y542709D02*
X376083D01*
Y539040D01*
X374368Y537325D01*
X368449D01*
Y539657D01*
X362906D01*
Y532342D01*
X368449D01*
Y534675D01*
X374917D01*
X375425Y534775D01*
X375609Y534899D01*
X376083Y534614D01*
X376083Y534439D01*
Y532563D01*
X379240D01*
Y534835D01*
X376494D01*
X376334Y534835D01*
X376127Y535335D01*
X377957Y537165D01*
X383398D01*
Y538612D01*
X396591D01*
X403697Y531506D01*
X403484Y531137D01*
X403177Y529992D01*
Y528808D01*
X403484Y527663D01*
X404076Y526637D01*
X404914Y525799D01*
X405940Y525207D01*
X407085Y524900D01*
X408270D01*
X409414Y525207D01*
X410440Y525799D01*
X411278Y526637D01*
X411870Y527663D01*
X412177Y528808D01*
Y529992D01*
X411870Y531137D01*
X411278Y532163D01*
X410440Y533001D01*
X409414Y533593D01*
X408270Y533900D01*
X407085D01*
X405940Y533593D01*
X405571Y533380D01*
X398077Y540874D01*
X397647Y541162D01*
X397140Y541262D01*
X383398D01*
Y542709D01*
D02*
G37*
G36*
X380240Y534835D02*
Y532563D01*
X383398D01*
Y534835D01*
X380240D01*
D02*
G37*
G36*
X336448Y544250D02*
X335552D01*
X334725Y543907D01*
X334092Y543274D01*
X333750Y542448D01*
Y541552D01*
X334092Y540726D01*
X334725Y540093D01*
X335552Y539750D01*
X336448D01*
X336680Y539846D01*
X338933Y537593D01*
Y532244D01*
X345067D01*
Y539756D01*
X341096D01*
X338141Y542711D01*
X337908Y543274D01*
X337275Y543907D01*
X336448Y544250D01*
D02*
G37*
G36*
X74098Y541043D02*
X72902D01*
X71746Y540734D01*
X70710Y540135D01*
X69864Y539290D01*
X69266Y538254D01*
X68957Y537098D01*
Y535902D01*
X69266Y534746D01*
X69864Y533710D01*
X70710Y532865D01*
X71746Y532266D01*
X72902Y531957D01*
X74098D01*
X75254Y532266D01*
X76290Y532865D01*
X77135Y533710D01*
X77734Y534746D01*
X78043Y535902D01*
Y537098D01*
X77734Y538254D01*
X77135Y539290D01*
X76290Y540135D01*
X75254Y540734D01*
X74098Y541043D01*
D02*
G37*
G36*
X383398Y531563D02*
X380240D01*
Y529291D01*
X383398D01*
Y531563D01*
D02*
G37*
G36*
X379240D02*
X376083D01*
Y529291D01*
X379240D01*
Y531563D01*
D02*
G37*
G36*
X396470Y533900D02*
X395285D01*
X394140Y533593D01*
X393114Y533001D01*
X392276Y532163D01*
X391684Y531137D01*
X391377Y529992D01*
Y528808D01*
X391684Y527663D01*
X392276Y526637D01*
X393114Y525799D01*
X393207Y525745D01*
X393078Y525262D01*
X383398D01*
Y526709D01*
X376083D01*
Y523040D01*
X374368Y521325D01*
X368449D01*
Y523658D01*
X362906D01*
Y516342D01*
X368449D01*
Y518675D01*
X374917D01*
X375425Y518775D01*
X375609Y518899D01*
X376083Y518614D01*
X376083Y518439D01*
Y516563D01*
X379240D01*
Y518835D01*
X376494D01*
X376334Y518835D01*
X376127Y519335D01*
X377957Y521165D01*
X383398D01*
Y522612D01*
X400791D01*
X403697Y519706D01*
X403484Y519337D01*
X403177Y518192D01*
Y517008D01*
X403484Y515863D01*
X404076Y514837D01*
X404914Y513999D01*
X405940Y513407D01*
X407085Y513100D01*
X408270D01*
X409414Y513407D01*
X410440Y513999D01*
X411278Y514837D01*
X411870Y515863D01*
X412177Y517008D01*
Y518192D01*
X411870Y519337D01*
X411278Y520363D01*
X410440Y521201D01*
X409414Y521793D01*
X408270Y522100D01*
X407085D01*
X405940Y521793D01*
X405571Y521580D01*
X402277Y524874D01*
X401847Y525162D01*
X401340Y525262D01*
X398677D01*
X398547Y525745D01*
X398640Y525799D01*
X399478Y526637D01*
X400070Y527663D01*
X400377Y528808D01*
Y529992D01*
X400070Y531137D01*
X399478Y532163D01*
X398640Y533001D01*
X397614Y533593D01*
X396470Y533900D01*
D02*
G37*
G36*
X74098Y531043D02*
X72902D01*
X71746Y530734D01*
X70710Y530135D01*
X69864Y529290D01*
X69266Y528254D01*
X68957Y527098D01*
Y525902D01*
X69266Y524746D01*
X69864Y523710D01*
X70710Y522864D01*
X71746Y522266D01*
X72902Y521957D01*
X74098D01*
X75254Y522266D01*
X76290Y522864D01*
X77135Y523710D01*
X77734Y524746D01*
X78043Y525902D01*
Y527098D01*
X77734Y528254D01*
X77135Y529290D01*
X76290Y530135D01*
X75254Y530734D01*
X74098Y531043D01*
D02*
G37*
G36*
X211658Y522835D02*
X208500D01*
Y520563D01*
X211658D01*
Y522835D01*
D02*
G37*
G36*
X207500D02*
X204343D01*
Y520563D01*
X207500D01*
Y522835D01*
D02*
G37*
G36*
X211658Y519563D02*
X208500D01*
Y517291D01*
X211658D01*
Y519563D01*
D02*
G37*
G36*
X207500D02*
X204343D01*
Y517291D01*
X207500D01*
Y519563D01*
D02*
G37*
G36*
X380240Y518835D02*
Y516563D01*
X383398D01*
Y518835D01*
X380240D01*
D02*
G37*
G36*
X383398Y515563D02*
X380240D01*
Y513291D01*
X383398D01*
Y515563D01*
D02*
G37*
G36*
X379240D02*
X376083D01*
Y513291D01*
X379240D01*
Y515563D01*
D02*
G37*
G36*
X425504Y529400D02*
X423850D01*
X422227Y529077D01*
X420698Y528444D01*
X419322Y527525D01*
X418153Y526355D01*
X417233Y524979D01*
X416600Y523450D01*
X416277Y521827D01*
Y520173D01*
X416600Y518550D01*
X417233Y517021D01*
X418153Y515645D01*
X419322Y514475D01*
X420698Y513556D01*
X422227Y512923D01*
X423850Y512600D01*
X425504D01*
X427127Y512923D01*
X428656Y513556D01*
X430032Y514475D01*
X431202Y515645D01*
X432121Y517021D01*
X432754Y518550D01*
X433077Y520173D01*
Y521827D01*
X432754Y523450D01*
X432121Y524979D01*
X431202Y526355D01*
X430032Y527525D01*
X428656Y528444D01*
X427127Y529077D01*
X425504Y529400D01*
D02*
G37*
G36*
X74098Y521043D02*
X72902D01*
X71746Y520734D01*
X70710Y520135D01*
X69864Y519290D01*
X69266Y518254D01*
X68957Y517098D01*
Y515902D01*
X69266Y514746D01*
X69864Y513710D01*
X70710Y512864D01*
X71746Y512266D01*
X72902Y511957D01*
X74098D01*
X75254Y512266D01*
X76290Y512864D01*
X77135Y513710D01*
X77734Y514746D01*
X78043Y515902D01*
Y517098D01*
X77734Y518254D01*
X77135Y519290D01*
X76290Y520135D01*
X75254Y520734D01*
X74098Y521043D01*
D02*
G37*
G36*
X242448Y540250D02*
X241552D01*
X240725Y539908D01*
X240092Y539275D01*
X239750Y538448D01*
Y537552D01*
X240092Y536726D01*
X240674Y536143D01*
Y530549D01*
X221451Y511326D01*
X177362D01*
Y513854D01*
X170638D01*
Y506146D01*
X177362D01*
Y508674D01*
X222000D01*
X222507Y508775D01*
X222937Y509063D01*
X242937Y529063D01*
X243225Y529493D01*
X243325Y530000D01*
Y536143D01*
X243907Y536726D01*
X244250Y537552D01*
Y538448D01*
X243907Y539275D01*
X243274Y539908D01*
X242448Y540250D01*
D02*
G37*
G36*
X210497Y506500D02*
X209503D01*
X208584Y506119D01*
X207881Y505416D01*
X207500Y504497D01*
Y503503D01*
X207058Y503263D01*
X205658D01*
Y504709D01*
X198343D01*
Y503263D01*
X197658D01*
Y504709D01*
X190342D01*
Y503263D01*
X187756D01*
Y504807D01*
X180244D01*
Y503066D01*
X177299D01*
Y503854D01*
X170575D01*
Y496146D01*
X177299D01*
Y500415D01*
X180244D01*
Y498673D01*
X187756D01*
Y500611D01*
X190342D01*
Y499165D01*
X197658D01*
Y500611D01*
X198343D01*
Y499165D01*
X205658D01*
Y500611D01*
X207937D01*
X208444Y500712D01*
X208874Y501000D01*
X209412Y501538D01*
X209503Y501500D01*
X210497D01*
X211416Y501881D01*
X212119Y502584D01*
X212157Y502674D01*
X232143D01*
X232726Y502093D01*
X233552Y501750D01*
X234448D01*
X235275Y502093D01*
X235908Y502726D01*
X236250Y503552D01*
Y504448D01*
X235908Y505274D01*
X235275Y505907D01*
X234448Y506250D01*
X233552D01*
X232726Y505907D01*
X232143Y505326D01*
X212157D01*
X212119Y505416D01*
X211416Y506119D01*
X210497Y506500D01*
D02*
G37*
G36*
X336448Y514250D02*
X335552D01*
X334725Y513907D01*
X334092Y513274D01*
X333750Y512448D01*
Y511552D01*
X334092Y510725D01*
X334725Y510092D01*
X335552Y509750D01*
X336448D01*
X336680Y509846D01*
X338933Y507593D01*
Y502244D01*
X345067D01*
Y509756D01*
X341096D01*
X338141Y512711D01*
X337908Y513274D01*
X337275Y513907D01*
X336448Y514250D01*
D02*
G37*
G36*
X396470Y522100D02*
X395285D01*
X394140Y521793D01*
X393114Y521201D01*
X392276Y520363D01*
X391684Y519337D01*
X391377Y518192D01*
Y517008D01*
X391684Y515863D01*
X392276Y514837D01*
X393114Y513999D01*
X393415Y513826D01*
X393281Y513326D01*
X386000D01*
X385493Y513225D01*
X385063Y512937D01*
X382860Y510734D01*
X381212D01*
X381084Y510709D01*
X376083D01*
Y507326D01*
X368386D01*
Y509657D01*
X362842D01*
Y502343D01*
X368386D01*
Y504674D01*
X376917D01*
X377425Y504775D01*
X377855Y505063D01*
X377957Y505165D01*
X383398D01*
Y508083D01*
X383409D01*
X383916Y508184D01*
X384346Y508471D01*
X386549Y510674D01*
X394751D01*
X394816Y510175D01*
X394140Y509993D01*
X393114Y509401D01*
X392276Y508563D01*
X391684Y507537D01*
X391377Y506392D01*
Y505208D01*
X391684Y504063D01*
X392276Y503037D01*
X393114Y502199D01*
X393761Y501826D01*
X393627Y501326D01*
X390689D01*
X390182Y501225D01*
X389752Y500937D01*
X381523Y492709D01*
X376083D01*
Y491262D01*
X368449D01*
Y493657D01*
X362906D01*
Y486342D01*
X368449D01*
Y488612D01*
X376083D01*
Y487165D01*
X383398D01*
Y490834D01*
X391238Y498674D01*
X393884D01*
X394122Y498221D01*
X394108Y498174D01*
X393114Y497601D01*
X392276Y496763D01*
X391684Y495737D01*
X391377Y494592D01*
Y493408D01*
X391684Y492263D01*
X392276Y491237D01*
X393114Y490399D01*
X394140Y489807D01*
X395285Y489500D01*
X396470D01*
X397614Y489807D01*
X398640Y490399D01*
X399478Y491237D01*
X400070Y492263D01*
X400377Y493408D01*
Y494592D01*
X400070Y495737D01*
X399478Y496763D01*
X398640Y497601D01*
X397647Y498174D01*
X397633Y498221D01*
X397870Y498674D01*
X401128D01*
X403697Y496106D01*
X403484Y495737D01*
X403177Y494592D01*
Y493408D01*
X403484Y492263D01*
X404076Y491237D01*
X404914Y490399D01*
X405940Y489807D01*
X407085Y489500D01*
X408270D01*
X409414Y489807D01*
X410440Y490399D01*
X411278Y491237D01*
X411870Y492263D01*
X412177Y493408D01*
Y494592D01*
X411870Y495737D01*
X411278Y496763D01*
X410440Y497601D01*
X409414Y498193D01*
X408270Y498500D01*
X407085D01*
X405940Y498193D01*
X405571Y497980D01*
X402614Y500937D01*
X402184Y501225D01*
X401677Y501326D01*
X398127D01*
X397993Y501826D01*
X398640Y502199D01*
X399478Y503037D01*
X400070Y504063D01*
X400377Y505208D01*
Y506392D01*
X400070Y507537D01*
X399478Y508563D01*
X398640Y509401D01*
X397614Y509993D01*
X396938Y510175D01*
X397004Y510674D01*
X400928D01*
X403697Y507906D01*
X403484Y507537D01*
X403177Y506392D01*
Y505208D01*
X403484Y504063D01*
X404076Y503037D01*
X404914Y502199D01*
X405940Y501607D01*
X407085Y501300D01*
X408270D01*
X409414Y501607D01*
X410440Y502199D01*
X411278Y503037D01*
X411870Y504063D01*
X412177Y505208D01*
Y506392D01*
X411870Y507537D01*
X411278Y508563D01*
X410440Y509401D01*
X409414Y509993D01*
X408270Y510300D01*
X407085D01*
X405940Y509993D01*
X405571Y509780D01*
X402414Y512937D01*
X401984Y513225D01*
X401477Y513326D01*
X398474D01*
X398340Y513826D01*
X398640Y513999D01*
X399478Y514837D01*
X400070Y515863D01*
X400377Y517008D01*
Y518192D01*
X400070Y519337D01*
X399478Y520363D01*
X398640Y521201D01*
X397614Y521793D01*
X396470Y522100D01*
D02*
G37*
G36*
X383398Y502835D02*
X380240D01*
Y500563D01*
X383398D01*
Y502835D01*
D02*
G37*
G36*
X379240D02*
X376083D01*
Y500563D01*
X379240D01*
Y502835D01*
D02*
G37*
G36*
X383398Y499563D02*
X380240D01*
Y497291D01*
X383398D01*
Y499563D01*
D02*
G37*
G36*
X379240D02*
X376083D01*
Y497291D01*
X379240D01*
Y499563D01*
D02*
G37*
G36*
X286338Y500543D02*
X286240D01*
Y496500D01*
X290283D01*
Y496598D01*
X289974Y497754D01*
X289376Y498790D01*
X288530Y499636D01*
X287494Y500234D01*
X286338Y500543D01*
D02*
G37*
G36*
X285240D02*
X285142D01*
X283986Y500234D01*
X282950Y499636D01*
X282105Y498790D01*
X281506Y497754D01*
X281197Y496598D01*
Y496500D01*
X285240D01*
Y500543D01*
D02*
G37*
G36*
X425504Y510900D02*
X423850D01*
X422227Y510577D01*
X420698Y509944D01*
X419322Y509025D01*
X418153Y507855D01*
X417233Y506479D01*
X416600Y504950D01*
X416277Y503327D01*
Y501673D01*
X416600Y500050D01*
X417233Y498521D01*
X418153Y497145D01*
X419322Y495975D01*
X420698Y495056D01*
X422227Y494423D01*
X423850Y494100D01*
X425504D01*
X427127Y494423D01*
X428656Y495056D01*
X430032Y495975D01*
X431202Y497145D01*
X432121Y498521D01*
X432754Y500050D01*
X433077Y501673D01*
Y503327D01*
X432754Y504950D01*
X432121Y506479D01*
X431202Y507855D01*
X430032Y509025D01*
X428656Y509944D01*
X427127Y510577D01*
X425504Y510900D01*
D02*
G37*
G36*
X290283Y495500D02*
X286240D01*
Y491457D01*
X286338D01*
X287494Y491766D01*
X288530Y492365D01*
X289376Y493210D01*
X289974Y494246D01*
X290283Y495402D01*
Y495500D01*
D02*
G37*
G36*
X285240D02*
X281197D01*
Y495402D01*
X281506Y494246D01*
X282105Y493210D01*
X282950Y492365D01*
X283986Y491766D01*
X285142Y491457D01*
X285240D01*
Y495500D01*
D02*
G37*
G36*
X326287Y501756D02*
X320153D01*
Y494244D01*
X324125D01*
X325800Y492568D01*
X325750Y492448D01*
Y491552D01*
X326093Y490726D01*
X326726Y490093D01*
X327552Y489750D01*
X328448D01*
X329275Y490093D01*
X329907Y490726D01*
X330250Y491552D01*
Y492448D01*
X329907Y493274D01*
X329275Y493907D01*
X328448Y494250D01*
X328444D01*
X326287Y496407D01*
Y501756D01*
D02*
G37*
G36*
X187756Y497327D02*
X180244D01*
Y492841D01*
X180215Y492693D01*
Y490778D01*
X179686Y490250D01*
X179552D01*
X178726Y489908D01*
X178093Y489275D01*
X177750Y488448D01*
Y487552D01*
X178093Y486726D01*
X178726Y486093D01*
X179552Y485750D01*
X180448D01*
X181274Y486093D01*
X181907Y486726D01*
X182250Y487552D01*
Y488448D01*
X182238Y488476D01*
X182826Y489064D01*
X183157Y489560D01*
X183273Y490145D01*
Y491193D01*
X187756D01*
Y497327D01*
D02*
G37*
G36*
X205658Y496835D02*
X198343D01*
Y491291D01*
X205658D01*
Y492534D01*
X207304D01*
X213750Y486087D01*
Y485553D01*
X214092Y484726D01*
X214725Y484093D01*
X215552Y483750D01*
X216448D01*
X217274Y484093D01*
X217908Y484726D01*
X218250Y485553D01*
Y486447D01*
X217908Y487275D01*
X217274Y487908D01*
X216448Y488250D01*
X215913D01*
X209018Y495144D01*
X208522Y495476D01*
X207937Y495592D01*
X205658D01*
Y496835D01*
D02*
G37*
G36*
X197658D02*
X190342D01*
Y491291D01*
X192675D01*
Y488772D01*
X191130D01*
Y483228D01*
X196870D01*
Y488772D01*
X195326D01*
Y491291D01*
X197658D01*
Y496835D01*
D02*
G37*
G36*
X383398Y484835D02*
X380240D01*
Y482563D01*
X383398D01*
Y484835D01*
D02*
G37*
G36*
X379240D02*
X376083D01*
Y482563D01*
X379240D01*
Y484835D01*
D02*
G37*
G36*
X383398Y481563D02*
X380240D01*
Y479291D01*
X383398D01*
Y481563D01*
D02*
G37*
G36*
X379240D02*
X376083D01*
Y479291D01*
X379240D01*
Y481563D01*
D02*
G37*
G36*
X20500Y430228D02*
Y428500D01*
X22228D01*
X21907Y429275D01*
X21274Y429908D01*
X20500Y430228D01*
D02*
G37*
G36*
X19500D02*
X18725Y429908D01*
X18092Y429275D01*
X17772Y428500D01*
X19500D01*
Y430228D01*
D02*
G37*
G36*
X22228Y427500D02*
X20500D01*
Y425772D01*
X21274Y426092D01*
X21907Y426725D01*
X22228Y427500D01*
D02*
G37*
G36*
X19500D02*
X17772D01*
X18092Y426725D01*
X18725Y426092D01*
X19500Y425772D01*
Y427500D01*
D02*
G37*
G36*
X304500Y416228D02*
Y414500D01*
X306228D01*
X305908Y415274D01*
X305275Y415907D01*
X304500Y416228D01*
D02*
G37*
G36*
X303500D02*
X302726Y415907D01*
X302093Y415274D01*
X301772Y414500D01*
X303500D01*
Y416228D01*
D02*
G37*
G36*
X346636Y424062D02*
X345741D01*
X344914Y423719D01*
X344281Y423086D01*
X343938Y422259D01*
Y421364D01*
X344281Y420537D01*
X344659Y420159D01*
Y416588D01*
X343884D01*
X343085Y416429D01*
X342408Y415976D01*
X341955Y415299D01*
X341796Y414500D01*
X341955Y413701D01*
X342408Y413024D01*
X343085Y412571D01*
X343884Y412412D01*
X348493D01*
X349292Y412571D01*
X349969Y413024D01*
X350422Y413701D01*
X350581Y414500D01*
X350422Y415299D01*
X349969Y415976D01*
X349292Y416429D01*
X348493Y416588D01*
X347718D01*
Y420159D01*
X348096Y420537D01*
X348438Y421364D01*
Y422259D01*
X348096Y423086D01*
X347463Y423719D01*
X346636Y424062D01*
D02*
G37*
G36*
X306228Y413500D02*
X304500D01*
Y411772D01*
X305275Y412092D01*
X305908Y412725D01*
X306228Y413500D01*
D02*
G37*
G36*
X303500D02*
X301772D01*
X302093Y412725D01*
X302726Y412092D01*
X303500Y411772D01*
Y413500D01*
D02*
G37*
G36*
X348493Y411588D02*
X346688D01*
Y410000D01*
X350481D01*
X350422Y410299D01*
X349969Y410976D01*
X349292Y411429D01*
X348493Y411588D01*
D02*
G37*
G36*
X345688D02*
X343884D01*
X343085Y411429D01*
X342408Y410976D01*
X341955Y410299D01*
X341896Y410000D01*
X345688D01*
Y411588D01*
D02*
G37*
%LPD*%
G36*
X306776Y569461D02*
X306105Y568790D01*
X305506Y567754D01*
X305197Y566598D01*
Y565402D01*
X305506Y564246D01*
X306105Y563210D01*
X306950Y562364D01*
X307986Y561766D01*
X309142Y561457D01*
X310338D01*
X311494Y561766D01*
X312530Y562364D01*
X313376Y563210D01*
X313974Y564246D01*
X314283Y565402D01*
Y566598D01*
X313974Y567754D01*
X313376Y568790D01*
X313741Y569116D01*
X315421Y567435D01*
X315197Y566598D01*
Y565402D01*
X315507Y564246D01*
X316105Y563210D01*
X316950Y562364D01*
X317986Y561766D01*
X319142Y561457D01*
X320338D01*
X321072Y561653D01*
X321330Y561205D01*
X316641Y556516D01*
X316354Y556086D01*
X316253Y555579D01*
Y536277D01*
X315753Y536010D01*
X315679Y536060D01*
X315020Y536191D01*
X314361Y536060D01*
X314132Y535907D01*
X313740Y535716D01*
X313348Y535907D01*
X313120Y536060D01*
X312461Y536191D01*
X311802Y536060D01*
X311573Y535907D01*
X311181Y535716D01*
X310789Y535907D01*
X310561Y536060D01*
X309902Y536191D01*
X309243Y536060D01*
X309014Y535907D01*
X308622Y535716D01*
X308230Y535907D01*
X308001Y536060D01*
X307343Y536191D01*
X306683Y536060D01*
X306609Y536010D01*
X306109Y536277D01*
Y538234D01*
X308937Y541063D01*
X309225Y541493D01*
X309326Y542000D01*
Y542701D01*
X311854D01*
Y549425D01*
X304146D01*
Y542701D01*
X306119D01*
X306326Y542201D01*
X303846Y539721D01*
X303559Y539291D01*
X303458Y538783D01*
Y535525D01*
X303192Y535127D01*
X303061Y534469D01*
Y533325D01*
X296157D01*
X296119Y533416D01*
X295416Y534119D01*
X294497Y534500D01*
X293503D01*
X293412Y534462D01*
X288341Y539533D01*
Y544079D01*
X290181D01*
Y549031D01*
X290643Y549223D01*
X293299Y546566D01*
Y544079D01*
X299630D01*
Y546566D01*
X302225Y549162D01*
X302512Y549592D01*
X302613Y550099D01*
Y550430D01*
X303684Y551501D01*
X304146Y551309D01*
Y550575D01*
X311854D01*
Y557299D01*
X304146D01*
Y555243D01*
X303738Y555162D01*
X303308Y554874D01*
X300351Y551916D01*
X300208Y551704D01*
X300064Y551598D01*
X299723Y551659D01*
X299630Y551872D01*
X299630Y552017D01*
X299630Y552017D01*
X299630Y552033D01*
Y555921D01*
X298012D01*
Y560244D01*
X298547D01*
Y564872D01*
X303636Y569961D01*
X306569D01*
X306776Y569461D01*
D02*
G37*
G36*
X333900Y526809D02*
X333750Y526447D01*
Y525553D01*
X334092Y524725D01*
X334725Y524092D01*
X335552Y523750D01*
X336448D01*
X336680Y523846D01*
X338933Y521593D01*
Y517595D01*
X338471Y517403D01*
X333338Y522537D01*
X332908Y522824D01*
X332401Y522925D01*
X329506D01*
X329299Y523425D01*
X333099Y527224D01*
X333622D01*
X333900Y526809D01*
D02*
G37*
%LPC*%
G36*
X188636Y432062D02*
X187741D01*
X186914Y431719D01*
X186281Y431086D01*
X185938Y430259D01*
Y429364D01*
X186281Y428537D01*
X186659Y428159D01*
Y426588D01*
X185884D01*
X185085Y426429D01*
X184408Y425976D01*
X183955Y425299D01*
X183796Y424500D01*
X183955Y423701D01*
X184408Y423024D01*
X185085Y422571D01*
X185884Y422412D01*
X190493D01*
X191292Y422571D01*
X191969Y423024D01*
X192422Y423701D01*
X192581Y424500D01*
X192422Y425299D01*
X191969Y425976D01*
X191292Y426429D01*
X190493Y426588D01*
X189718D01*
Y428159D01*
X190096Y428537D01*
X190438Y429364D01*
Y430259D01*
X190096Y431086D01*
X189463Y431719D01*
X188636Y432062D01*
D02*
G37*
G36*
X190493Y421588D02*
X188688D01*
Y420000D01*
X192481D01*
X192422Y420299D01*
X191969Y420976D01*
X191292Y421429D01*
X190493Y421588D01*
D02*
G37*
G36*
X187688D02*
X185884D01*
X185085Y421429D01*
X184408Y420976D01*
X183955Y420299D01*
X183896Y420000D01*
X187688D01*
Y421588D01*
D02*
G37*
G36*
X192481Y419000D02*
X188688D01*
Y417412D01*
X190493D01*
X191292Y417571D01*
X191969Y418024D01*
X192422Y418701D01*
X192481Y419000D01*
D02*
G37*
G36*
X187688D02*
X183896D01*
X183955Y418701D01*
X184408Y418024D01*
X185085Y417571D01*
X185884Y417412D01*
X187688D01*
Y419000D01*
D02*
G37*
G36*
X278500Y416228D02*
Y414500D01*
X280228D01*
X279907Y415274D01*
X279275Y415907D01*
X278500Y416228D01*
D02*
G37*
G36*
X277500D02*
X276726Y415907D01*
X276093Y415274D01*
X275772Y414500D01*
X277500D01*
Y416228D01*
D02*
G37*
G36*
X280228Y413500D02*
X278500D01*
Y411772D01*
X279275Y412092D01*
X279907Y412725D01*
X280228Y413500D01*
D02*
G37*
G36*
X277500D02*
X275772D01*
X276093Y412725D01*
X276726Y412092D01*
X277500Y411772D01*
Y413500D01*
D02*
G37*
G36*
X104772Y453657D02*
X99228D01*
Y451789D01*
X95311D01*
Y452367D01*
X87976D01*
Y448153D01*
X95311D01*
Y448731D01*
X99228D01*
Y446343D01*
X104772D01*
Y453657D01*
D02*
G37*
G36*
X48448Y434250D02*
X47552D01*
X46725Y433908D01*
X46093Y433275D01*
X45750Y432447D01*
Y431553D01*
X46093Y430725D01*
X46659Y430159D01*
Y428588D01*
X45884D01*
X45085Y428429D01*
X44408Y427976D01*
X43955Y427299D01*
X43796Y426500D01*
X43955Y425701D01*
X44408Y425024D01*
X45085Y424571D01*
X45884Y424412D01*
X50493D01*
X51292Y424571D01*
X51969Y425024D01*
X52422Y425701D01*
X52581Y426500D01*
X52422Y427299D01*
X51969Y427976D01*
X51292Y428429D01*
X50493Y428588D01*
X49718D01*
Y430536D01*
X49907Y430725D01*
X50250Y431553D01*
Y432447D01*
X49907Y433275D01*
X49275Y433908D01*
X48448Y434250D01*
D02*
G37*
G36*
X50493Y423588D02*
X48688D01*
Y422000D01*
X52481D01*
X52422Y422299D01*
X51969Y422976D01*
X51292Y423429D01*
X50493Y423588D01*
D02*
G37*
G36*
X47688D02*
X45884D01*
X45085Y423429D01*
X44408Y422976D01*
X43955Y422299D01*
X43896Y422000D01*
X47688D01*
Y423588D01*
D02*
G37*
G36*
X52481Y421000D02*
X48688D01*
Y419412D01*
X50493D01*
X51292Y419571D01*
X51969Y420024D01*
X52422Y420701D01*
X52481Y421000D01*
D02*
G37*
G36*
X47688D02*
X43896D01*
X43955Y420701D01*
X44408Y420024D01*
X45085Y419571D01*
X45884Y419412D01*
X47688D01*
Y421000D01*
D02*
G37*
G36*
X48500Y416228D02*
Y414500D01*
X50228D01*
X49907Y415274D01*
X49275Y415907D01*
X48500Y416228D01*
D02*
G37*
G36*
X47500D02*
X46725Y415907D01*
X46093Y415274D01*
X45772Y414500D01*
X47500D01*
Y416228D01*
D02*
G37*
G36*
X50228Y413500D02*
X48500D01*
Y411772D01*
X49275Y412092D01*
X49907Y412725D01*
X50228Y413500D01*
D02*
G37*
G36*
X47500D02*
X45772D01*
X46093Y412725D01*
X46725Y412092D01*
X47500Y411772D01*
Y413500D01*
D02*
G37*
%LPD*%
D13*
X324000Y645803D02*
Y652000D01*
Y645803D02*
X324063Y645740D01*
X330000Y622000D02*
X336260D01*
X354094Y642500D02*
X355594Y644000D01*
X349335Y642500D02*
X354094D01*
X355594Y644000D02*
X356000D01*
X351008Y647500D02*
X355713Y652205D01*
X349335Y647500D02*
X351008D01*
X355713Y652205D02*
Y653713D01*
X356000Y654000D01*
X211051Y676000D02*
X220063D01*
X242484Y665922D02*
Y672488D01*
Y665922D02*
X244000Y664406D01*
Y664000D02*
Y664406D01*
X196000Y676000D02*
X204949D01*
X243173Y707740D02*
X247713Y712280D01*
Y713713D01*
X248000Y714000D01*
X242484Y707740D02*
X243173D01*
X140252Y538252D02*
X148576D01*
X138000Y536000D02*
X140252Y538252D01*
X138330Y542000D02*
X140110Y540220D01*
X138000Y542000D02*
X138330D01*
X140110Y540220D02*
X148576D01*
X187028Y621713D02*
X187713D01*
X181937Y615736D02*
Y616622D01*
X187028Y621713D01*
X187713D02*
X188000Y622000D01*
X207937Y494063D02*
X216000Y486000D01*
X202000Y494063D02*
X207937D01*
X186000Y478000D02*
X186094D01*
X187991Y479898D02*
X194000D01*
X186094Y478000D02*
X187991Y479898D01*
X181744Y490145D02*
Y492693D01*
X183311Y494260D02*
X184000D01*
X181744Y492693D02*
X183311Y494260D01*
X180000Y488401D02*
X181744Y490145D01*
X180000Y488000D02*
Y488401D01*
X108000Y552000D02*
Y564520D01*
X119740Y612000D02*
X136000D01*
X119740Y620000D02*
X136000D01*
X158000Y596000D02*
X160264Y593736D01*
X164126D01*
X186000Y570063D02*
Y578000D01*
X185937Y570000D02*
X186000Y570063D01*
X327713Y492287D02*
Y492818D01*
X323220Y497311D02*
X327713Y492818D01*
X323220Y497311D02*
Y498000D01*
X327713Y492287D02*
X328000Y492000D01*
X336000Y496000D02*
X336287Y495713D01*
X337236D01*
X336000Y512000D02*
X336287Y511713D01*
X342000Y506000D02*
Y506689D01*
X336287Y511713D02*
X336976D01*
X342000Y506689D01*
X317579Y508484D02*
Y514015D01*
X320069Y508553D02*
X320138Y508484D01*
X320069Y508553D02*
Y515931D01*
X322697Y508484D02*
Y511437D01*
X325713Y514453D01*
X389480Y552000D02*
Y552689D01*
X395599Y556000D02*
X396000D01*
X393855Y554256D02*
X395599Y556000D01*
X391047Y554256D02*
X393855D01*
X389480Y552689D02*
X391047Y554256D01*
X284000Y570000D02*
X284287Y569713D01*
Y568402D02*
Y569713D01*
Y568402D02*
X288000Y564689D01*
Y564000D02*
Y564689D01*
X278000Y548000D02*
X280000Y550000D01*
X287016D01*
X277740Y575740D02*
X278000Y576000D01*
Y584000D01*
X336000Y542000D02*
X336287Y541713D01*
X336000Y526000D02*
X336287Y525713D01*
X336976D01*
X336287Y541713D02*
X336976D01*
X316000Y515594D02*
Y516000D01*
Y515594D02*
X317579Y514015D01*
X320000Y516000D02*
X320069Y515931D01*
X325713Y515713D02*
X326000Y516000D01*
X325713Y514453D02*
Y515713D01*
X342000Y520000D02*
Y520689D01*
X336976Y525713D02*
X342000Y520689D01*
Y536000D02*
Y536689D01*
X336976Y541713D02*
X342000Y536689D01*
X337236Y495713D02*
X342260Y490689D01*
Y490000D02*
Y490689D01*
X132586Y474000D02*
X382000D01*
X407874Y440000D02*
Y448126D01*
X382000Y474000D02*
X407874Y448126D01*
X286000Y690000D02*
Y694000D01*
X278000Y690000D02*
Y690268D01*
X281732Y694000D02*
X286000D01*
X278000Y690268D02*
X281732Y694000D01*
X286000Y686000D02*
Y690000D01*
X346188Y414500D02*
Y421812D01*
X188188Y424500D02*
Y429812D01*
X48188Y426500D02*
Y431812D01*
X312000Y428000D02*
X346000Y394000D01*
X132000Y474586D02*
Y520000D01*
Y474586D02*
X132586Y474000D01*
X128000D02*
Y520000D01*
X116000Y478000D02*
Y527482D01*
X114000Y474000D02*
Y527603D01*
X122000Y476000D02*
Y528409D01*
X114000Y527603D02*
X118277Y531880D01*
X119050Y530378D02*
X122000D01*
X118584Y529911D02*
X119050Y530378D01*
X118429Y529911D02*
X118584D01*
X116284Y536283D02*
X122000D01*
X119050Y532346D02*
X122000D01*
X118584Y531880D02*
X119050Y532346D01*
X118277Y531880D02*
X118584D01*
X116000Y527482D02*
X118429Y529911D01*
X140409Y528409D02*
X148576D01*
X138378Y530378D02*
X148576D01*
X132000Y520000D02*
X140409Y528409D01*
X128000Y520000D02*
X138378Y530378D01*
X128000Y474000D02*
X132000Y470000D01*
X250000D01*
X280000Y440000D01*
X300000D01*
X346000Y394000D02*
X376000D01*
X294000Y372063D02*
Y420000D01*
X321740Y447740D01*
X389644D01*
X376000Y394000D02*
X380000Y390000D01*
Y384000D02*
Y390000D01*
X336000Y376000D02*
X353563D01*
X370000Y384000D02*
X380000D01*
X366437Y380437D02*
X370000Y384000D01*
X366437Y376000D02*
Y380437D01*
X383827Y376000D02*
X390000Y369827D01*
X366437Y376000D02*
X383827D01*
X390000Y354000D02*
Y369827D01*
Y335250D02*
Y346126D01*
X122000Y476000D02*
X132000Y466000D01*
X250000D01*
X286000Y430000D01*
Y376000D02*
Y430000D01*
X116000Y478000D02*
X130000Y464000D01*
X235937D01*
X247779Y452157D02*
X248665D01*
X235937Y464000D02*
X247779Y452157D01*
X249937Y450000D02*
Y450886D01*
X248665Y452157D02*
X249937Y450886D01*
X389644Y440260D02*
X399740D01*
X400000Y440000D01*
X408425Y429819D02*
X417617Y439011D01*
Y439617D01*
X404000Y429819D02*
X408425D01*
X417617Y439617D02*
X418000Y440000D01*
X386000Y429819D02*
X404000D01*
X383417Y439177D02*
Y443439D01*
X382356Y444000D02*
X382856D01*
X386000Y429819D02*
Y436593D01*
X383417Y439177D02*
X386000Y436593D01*
X382856Y444000D02*
X383417Y443439D01*
X379756Y428000D02*
X381575Y429819D01*
X363937Y428000D02*
X379756D01*
X381575Y429819D02*
X386000D01*
X356063Y420944D02*
X367507Y409500D01*
X356063Y420944D02*
Y428000D01*
X367507Y409500D02*
X369812D01*
X294000Y372063D02*
X311842Y354221D01*
Y353335D02*
X313114Y352063D01*
X311842Y353335D02*
Y354221D01*
X313114Y352063D02*
X314000D01*
X302000Y376000D02*
X307004D01*
X316158Y366846D01*
X266437Y376000D02*
X286000D01*
X253043D02*
X253303Y375740D01*
X240000Y376000D02*
X253043D01*
X200000Y375740D02*
X223740D01*
X191480Y457480D02*
X232000D01*
X168000Y434000D02*
X191480Y457480D01*
X168000Y373240D02*
Y434000D01*
Y373240D02*
X189114Y352126D01*
X190000D01*
X174000Y376000D02*
X174287Y375713D01*
X189114Y360000D02*
X190000D01*
X174287Y374827D02*
X189114Y360000D01*
X174287Y374827D02*
Y375713D01*
X114000Y474000D02*
X142000Y446000D01*
Y390000D02*
Y446000D01*
X90000Y437819D02*
X108000D01*
X108181Y438000D01*
X114000Y376000D02*
X129563D01*
X74000Y375740D02*
X99740D01*
X130000Y376437D02*
Y390000D01*
X129563Y376000D02*
X130000Y376437D01*
X73311Y375740D02*
X74000D01*
X36000Y380000D02*
Y450000D01*
Y380000D02*
X61843Y354157D01*
X36000Y450000D02*
X43740Y457740D01*
X28000Y400000D02*
Y448000D01*
X116284Y536283D01*
X42000Y400000D02*
X49051D01*
X73311Y375740D01*
X43740Y457740D02*
X91644D01*
X67740Y375740D02*
X73311D01*
X142000Y376437D02*
X142437Y376000D01*
X142000Y376437D02*
Y390000D01*
X333074Y368520D02*
X333594Y368000D01*
X326000Y368520D02*
X333074D01*
X333594Y368000D02*
X334000D01*
X200260D02*
X208000D01*
X200000Y368260D02*
X200260Y368000D01*
X74260D02*
X82000D01*
X74000Y368260D02*
X74260Y368000D01*
X199335Y429672D02*
X209507Y419500D01*
X211812D01*
X198063Y436000D02*
X199335Y434728D01*
Y429672D02*
Y434728D01*
X226493Y439819D02*
X228000D01*
X223575D02*
X226493D01*
X205937Y436000D02*
X219756D01*
X223575Y439819D01*
X232000Y450000D02*
X242063D01*
X246181Y440000D02*
X266000D01*
X246000Y439819D02*
X246181Y440000D01*
X228000Y439819D02*
X246000D01*
X224713Y441599D02*
Y453740D01*
Y441599D02*
X226493Y439819D01*
X108181Y438000D02*
X130000D01*
X67874Y445874D02*
X76000Y454000D01*
X67874Y440000D02*
Y445874D01*
X76000Y454000D02*
X84356D01*
X91740Y450260D02*
X101740D01*
X102000Y450000D01*
X420000Y128000D02*
Y132000D01*
Y120000D02*
Y128000D01*
X326000Y376000D02*
X336000D01*
X409874Y74492D02*
X420000Y84618D01*
X409874Y74000D02*
Y74492D01*
X420000Y84618D02*
Y100700D01*
X314000Y341250D02*
Y352063D01*
X316158Y366846D02*
X325311Y376000D01*
X316158Y361209D02*
Y366846D01*
X325311Y376000D02*
X326000D01*
X314000Y359937D02*
X314886D01*
X316158Y361209D01*
X313114Y359937D02*
X314000D01*
X253303Y375740D02*
X253563Y376000D01*
X142437D02*
X160000D01*
X190000Y372000D02*
X193740Y375740D01*
X200000D01*
X190000Y360000D02*
Y372000D01*
Y341250D02*
Y352126D01*
X85575Y437819D02*
X90000D01*
X67874Y440000D02*
X83394D01*
X85575Y437819D01*
X63114Y352000D02*
X64000D01*
X61843Y353272D02*
X63114Y352000D01*
X61843Y353272D02*
Y354157D01*
X69507Y421500D02*
X71812D01*
X60000Y431007D02*
Y440000D01*
Y431007D02*
X69507Y421500D01*
X64000Y372000D02*
X67740Y375740D01*
X64000Y359874D02*
Y372000D01*
Y341250D02*
Y352000D01*
X12000Y369300D02*
Y384000D01*
Y350000D02*
X14126Y347874D01*
Y330000D02*
Y347874D01*
X22750Y330750D02*
X64000D01*
X22000Y330000D02*
X22750Y330750D01*
D16*
X349335Y628284D02*
Y632500D01*
X343740Y622000D02*
Y622689D01*
X349335Y628284D01*
X338000Y616000D02*
X338429D01*
X343740Y621311D02*
Y622000D01*
X338429Y616000D02*
X343740Y621311D01*
X332000Y610000D02*
X338000Y616000D01*
X108000Y572000D02*
X113918D01*
X115603Y573685D01*
X122000D01*
X92000Y576000D02*
X103311D01*
X107311Y572000D02*
X108000D01*
X103311Y576000D02*
X107311Y572000D01*
X86000Y570000D02*
X92000Y576000D01*
X315081Y498660D02*
Y508423D01*
Y498660D02*
X315740Y498000D01*
Y497311D02*
Y498000D01*
X315020Y508484D02*
X315081Y508423D01*
X295740Y496000D02*
X303740Y488000D01*
X306429D01*
X315740Y497311D01*
D21*
X296465Y553740D02*
D03*
Y546260D02*
D03*
X287016D02*
D03*
Y550000D02*
D03*
Y553740D02*
D03*
D22*
X322697Y531516D02*
D03*
X320138D02*
D03*
X317579D02*
D03*
X315020D02*
D03*
X312461D02*
D03*
X309902D02*
D03*
X307343D02*
D03*
X304783D02*
D03*
X322697Y508484D02*
D03*
X320138D02*
D03*
X317579D02*
D03*
X315020D02*
D03*
X312461D02*
D03*
X309902D02*
D03*
X307343D02*
D03*
X304783D02*
D03*
D23*
X294000Y532000D02*
D03*
X265740Y568000D02*
D03*
X220000Y548000D02*
D03*
X218000Y528000D02*
D03*
X32000Y618000D02*
D03*
Y610000D02*
D03*
X30000Y634000D02*
D03*
X32000Y594000D02*
D03*
X134000Y640000D02*
D03*
Y592000D02*
D03*
Y630000D02*
D03*
Y602000D02*
D03*
X142000Y390000D02*
D03*
X130000D02*
D03*
X210000Y504000D02*
D03*
X418000Y440000D02*
D03*
X380000Y384000D02*
D03*
X336000Y376000D02*
D03*
X12000Y384000D02*
D03*
X266000Y440000D02*
D03*
X130000Y438000D02*
D03*
X254484Y672000D02*
D03*
X314063Y638000D02*
D03*
D24*
X308000Y546063D02*
D03*
Y553937D02*
D03*
D25*
X277740Y561937D02*
D03*
Y554063D02*
D03*
X379740Y482063D02*
D03*
Y489937D02*
D03*
Y500063D02*
D03*
Y507937D02*
D03*
Y516063D02*
D03*
Y523937D02*
D03*
Y532063D02*
D03*
Y539937D02*
D03*
X208000Y520063D02*
D03*
Y527937D02*
D03*
X198000Y545937D02*
D03*
Y538063D02*
D03*
X314000Y352063D02*
D03*
Y359937D02*
D03*
X390000Y346126D02*
D03*
Y354000D02*
D03*
X190000Y352126D02*
D03*
Y360000D02*
D03*
X194000Y494063D02*
D03*
Y501937D02*
D03*
X202000Y494063D02*
D03*
Y501937D02*
D03*
X64000Y359874D02*
D03*
Y352000D02*
D03*
D26*
X357803Y490000D02*
D03*
X365677D02*
D03*
X357740Y506000D02*
D03*
X365614D02*
D03*
X357803Y520000D02*
D03*
X365677D02*
D03*
X357803Y536000D02*
D03*
X365677D02*
D03*
X172000Y593736D02*
D03*
X164126D02*
D03*
X178063Y570000D02*
D03*
X185937D02*
D03*
X171937Y582000D02*
D03*
X164063D02*
D03*
X185937Y593736D02*
D03*
X178063D02*
D03*
X164063Y570000D02*
D03*
X171937D02*
D03*
X173937Y605736D02*
D03*
X166063D02*
D03*
X181937Y615736D02*
D03*
X174063D02*
D03*
X400000Y440000D02*
D03*
X407874D02*
D03*
X205937Y436000D02*
D03*
X198063D02*
D03*
X242063Y450000D02*
D03*
X249937D02*
D03*
X67874Y440000D02*
D03*
X60000D02*
D03*
X363937Y428000D02*
D03*
X356063D02*
D03*
X102000Y450000D02*
D03*
X109874D02*
D03*
X220063Y676000D02*
D03*
X227937D02*
D03*
X340000Y638000D02*
D03*
X332126D02*
D03*
D27*
X277740Y568260D02*
D03*
Y575740D02*
D03*
X108000Y572000D02*
D03*
Y564520D02*
D03*
X326000Y368520D02*
D03*
Y376000D02*
D03*
X200000Y368260D02*
D03*
Y375740D02*
D03*
X184000Y494260D02*
D03*
Y501740D02*
D03*
X74000Y375740D02*
D03*
Y368260D02*
D03*
X242484Y707740D02*
D03*
Y700260D02*
D03*
X324063Y645740D02*
D03*
Y638260D02*
D03*
D28*
X288000Y564000D02*
D03*
X295480D02*
D03*
X315740Y498000D02*
D03*
X323220D02*
D03*
X349480Y536000D02*
D03*
X342000D02*
D03*
X349480Y520000D02*
D03*
X342000D02*
D03*
X349480Y506000D02*
D03*
X342000D02*
D03*
X349740Y490000D02*
D03*
X342260D02*
D03*
X389480Y552000D02*
D03*
X382000D02*
D03*
X112260Y620000D02*
D03*
X119740D02*
D03*
X119740Y612000D02*
D03*
X112260D02*
D03*
X343740Y622000D02*
D03*
X336260D02*
D03*
D29*
X112000Y596949D02*
D03*
Y603051D02*
D03*
Y635051D02*
D03*
Y628949D02*
D03*
D30*
X122000Y573685D02*
D03*
D31*
Y571716D02*
D03*
Y569748D02*
D03*
Y567779D02*
D03*
Y565811D02*
D03*
Y563842D02*
D03*
Y561874D02*
D03*
Y559905D02*
D03*
Y557937D02*
D03*
Y555969D02*
D03*
Y554000D02*
D03*
Y552032D02*
D03*
Y550063D02*
D03*
Y548095D02*
D03*
Y546126D02*
D03*
Y544158D02*
D03*
Y542189D02*
D03*
Y540220D02*
D03*
Y538252D02*
D03*
Y536283D02*
D03*
Y534315D02*
D03*
Y532346D02*
D03*
Y530378D02*
D03*
Y528409D02*
D03*
X148576D02*
D03*
Y530378D02*
D03*
Y532346D02*
D03*
Y534315D02*
D03*
Y536283D02*
D03*
Y538252D02*
D03*
Y540220D02*
D03*
Y542189D02*
D03*
Y544158D02*
D03*
Y546126D02*
D03*
Y548095D02*
D03*
Y550063D02*
D03*
Y552032D02*
D03*
Y554000D02*
D03*
Y555969D02*
D03*
Y557937D02*
D03*
Y559905D02*
D03*
Y561874D02*
D03*
Y563842D02*
D03*
Y565811D02*
D03*
Y567779D02*
D03*
Y569748D02*
D03*
Y571716D02*
D03*
Y573685D02*
D03*
D32*
X46874Y633685D02*
D03*
Y625811D02*
D03*
Y617937D02*
D03*
Y610063D02*
D03*
Y602189D02*
D03*
Y594315D02*
D03*
X101126D02*
D03*
Y602189D02*
D03*
Y610063D02*
D03*
Y617937D02*
D03*
Y625811D02*
D03*
Y633685D02*
D03*
D33*
X173937Y538000D02*
D03*
X166063D02*
D03*
X173937Y528000D02*
D03*
X166063D02*
D03*
X174000Y510000D02*
D03*
X166126D02*
D03*
X173937Y500000D02*
D03*
X166063D02*
D03*
X173937Y548000D02*
D03*
X166063D02*
D03*
X173937Y558000D02*
D03*
X166063D02*
D03*
X402000Y74000D02*
D03*
X409874D02*
D03*
X22000Y330000D02*
D03*
X14126D02*
D03*
X362000Y622000D02*
D03*
X354126D02*
D03*
D34*
X266437Y376000D02*
D03*
X253563D02*
D03*
X366437D02*
D03*
X353563D02*
D03*
X142437D02*
D03*
X129563D02*
D03*
D35*
X314000Y341250D02*
D03*
Y330750D02*
D03*
X390000Y335250D02*
D03*
Y324750D02*
D03*
X190000Y341250D02*
D03*
Y330750D02*
D03*
X64000D02*
D03*
Y341250D02*
D03*
D36*
X382356Y444000D02*
D03*
X389644Y447740D02*
D03*
X224713Y453740D02*
D03*
X232000Y457480D02*
D03*
X84356Y454000D02*
D03*
X91644Y457740D02*
D03*
D37*
X389644Y440260D02*
D03*
X232000Y450000D02*
D03*
X91644Y450260D02*
D03*
D38*
X188188Y419500D02*
D03*
Y424500D02*
D03*
X211812D02*
D03*
X48188Y421500D02*
D03*
Y426500D02*
D03*
X71812D02*
D03*
X346188Y409500D02*
D03*
Y414500D02*
D03*
X369812D02*
D03*
D39*
X211812Y419500D02*
D03*
X71812Y421500D02*
D03*
X369812Y409500D02*
D03*
D40*
X386000Y429819D02*
D03*
Y406181D02*
D03*
X404000Y429819D02*
D03*
Y406181D02*
D03*
X246000Y439819D02*
D03*
Y416181D02*
D03*
X228000Y439819D02*
D03*
Y416181D02*
D03*
X90000Y437819D02*
D03*
Y414181D02*
D03*
X108000Y437819D02*
D03*
Y414181D02*
D03*
D41*
X420000Y100700D02*
D03*
Y120000D02*
D03*
X12000Y369300D02*
D03*
Y350000D02*
D03*
D42*
X194000Y486000D02*
D03*
Y479898D02*
D03*
D43*
X278000Y690000D02*
D03*
D44*
X254969Y680945D02*
D03*
Y690000D02*
D03*
Y699055D02*
D03*
D45*
X242484Y683512D02*
D03*
Y672488D02*
D03*
D46*
X211051Y676000D02*
D03*
X204949D02*
D03*
D47*
X349335Y647500D02*
D03*
Y642500D02*
D03*
Y637500D02*
D03*
Y632500D02*
D03*
X370791Y647500D02*
D03*
Y642500D02*
D03*
Y637500D02*
D03*
Y632500D02*
D03*
D72*
X388335Y616630D02*
X426000D01*
X404063Y636315D02*
X426000D01*
X242000Y530000D02*
Y538000D01*
X222000Y510000D02*
X242000Y530000D01*
X174000Y510000D02*
X222000D01*
X248000Y590000D02*
X296000Y638000D01*
X314063D01*
X323803D01*
X324063Y638260D01*
X324323Y638000D01*
X332126D01*
X340000D02*
X340500Y637500D01*
X349335D01*
X370791Y647500D02*
X392878D01*
X404063Y636315D01*
X369118Y642500D02*
X370791D01*
X354126Y622000D02*
Y627508D01*
X369118Y642500D01*
X362000Y630382D02*
X369118Y637500D01*
X362000Y622000D02*
Y630382D01*
X369118Y637500D02*
X370791D01*
Y632500D02*
X372465D01*
X388335Y616630D01*
X198000Y538063D02*
X198886D01*
X208823Y548000D01*
X220000D01*
X210000Y504000D02*
X234000D01*
X30000Y688000D02*
X42000Y676000D01*
Y666000D02*
Y676000D01*
X30000Y654000D02*
X42000Y666000D01*
X30000Y634000D02*
Y654000D01*
X16000Y634000D02*
Y658000D01*
Y634000D02*
X32000Y618000D01*
X16000Y658000D02*
X30000Y672000D01*
Y634000D02*
X46559D01*
X46874Y633685D01*
X20000Y556000D02*
Y598000D01*
X32000Y610000D01*
X20000Y556000D02*
X32000Y544000D01*
Y560000D02*
Y594000D01*
Y618000D02*
X46811D01*
X46874Y617937D01*
X32000Y610000D02*
X46811D01*
X46874Y610063D01*
X46559Y594000D02*
X46874Y594315D01*
X32000Y594000D02*
X46559D01*
X173937Y605736D02*
X174063Y605862D01*
Y615736D01*
X151538Y569748D02*
Y569748D01*
X161736Y615736D02*
X174063D01*
X152000Y606000D02*
X161736Y615736D01*
X152000Y580000D02*
Y606000D01*
Y580000D02*
X153790Y578210D01*
Y572000D02*
Y578210D01*
X151538Y569748D02*
X153790Y572000D01*
X148576Y569748D02*
X151538D01*
X157736Y605736D02*
X166063D01*
X154890Y602890D02*
X157736Y605736D01*
X154890Y568890D02*
Y602890D01*
X153779Y567779D02*
X154890Y568890D01*
X148576Y567779D02*
X153779D01*
X134000Y640000D02*
X145927Y628073D01*
Y573872D02*
Y628073D01*
Y573872D02*
X146114Y573685D01*
X148576D01*
X134000Y630000D02*
X136405Y627595D01*
X138054D01*
X140000Y577344D02*
Y625648D01*
X138054Y627595D02*
X140000Y625648D01*
Y577344D02*
X145627Y571716D01*
X148576D01*
X138000Y569501D02*
Y598000D01*
X134000Y602000D02*
X138000Y598000D01*
X145627Y561874D02*
X148576D01*
X138000Y569501D02*
X145627Y561874D01*
X194000Y486000D02*
Y494063D01*
X132299Y603051D02*
X133351Y602000D01*
X112000Y603051D02*
X132299D01*
X133351Y602000D02*
X134000D01*
X112000Y635051D02*
X129051D01*
X134000Y640000D01*
X101126Y633685D02*
X110634D01*
X112000Y635051D01*
X133351Y630000D02*
X134000D01*
X112000Y628949D02*
X132299D01*
X133351Y630000D01*
X102492Y625811D02*
X108303Y620000D01*
X101126Y625811D02*
X102492D01*
X108303Y620000D02*
X112260D01*
X110949Y630000D02*
X112000Y628949D01*
X94000Y629648D02*
X94352Y630000D01*
X94000Y623697D02*
Y629648D01*
X94352Y630000D02*
X110949D01*
X99760Y617937D02*
X101126D01*
X94000Y623697D02*
X99760Y617937D01*
X101126Y610063D02*
X102826Y608363D01*
X106098D01*
X111409Y603051D01*
X112000D01*
X96000Y614000D02*
X110493D01*
X112260Y612000D02*
Y612233D01*
X110493Y614000D02*
X112260Y612233D01*
X94000Y612000D02*
X96000Y614000D01*
X94000Y609974D02*
Y612000D01*
Y609974D02*
X98060Y605915D01*
X99760Y602189D02*
X101126D01*
X98060Y603889D02*
X99760Y602189D01*
X98060Y603889D02*
Y605915D01*
X105126Y596949D02*
X112000D01*
X102492Y594315D02*
X105126Y596949D01*
X101126Y594315D02*
X102492D01*
X117539Y592000D02*
X134000D01*
X112591Y596949D02*
X117539Y592000D01*
X112000Y596949D02*
X112591D01*
X136000Y569533D02*
Y590000D01*
X134000Y592000D02*
X136000Y590000D01*
X145627Y559905D02*
X148576D01*
X136000Y569533D02*
X145627Y559905D01*
X172000Y593736D02*
X178063D01*
X170528Y592265D02*
X172000Y593736D01*
X170528Y588880D02*
Y592265D01*
X162000Y588000D02*
X169649D01*
X170528Y588880D01*
X160000Y586000D02*
X162000Y588000D01*
X160000Y578000D02*
Y586000D01*
X156000Y574000D02*
X160000Y578000D01*
X156000Y562413D02*
Y574000D01*
X151524Y557937D02*
X156000Y562413D01*
X148576Y557937D02*
X151524D01*
X153969Y555969D02*
X157984Y559984D01*
Y571984D02*
X164063Y578063D01*
X157984Y559984D02*
Y571984D01*
X164063Y578063D02*
Y582000D01*
X148607Y556000D02*
X148639Y555969D01*
X153969D01*
X148576D02*
X148607Y556000D01*
X160000Y558539D02*
Y562000D01*
X151524Y550063D02*
X160000Y558539D01*
X148576Y550063D02*
X151524D01*
X160000Y562000D02*
X162000Y564000D01*
X164411D01*
X170465Y567642D02*
X171937Y569114D01*
X168054Y567642D02*
X170465D01*
X164411Y564000D02*
X168054Y567642D01*
X171937Y569114D02*
Y570000D01*
X178063D01*
X197937Y538000D02*
X198000Y538063D01*
X173937Y538000D02*
X197937D01*
X173937Y528000D02*
X207937D01*
X208000Y528063D01*
X208063Y528000D02*
X218000D01*
X208000Y528063D02*
X208063Y528000D01*
X266000Y594000D02*
X326000D01*
X220000Y548000D02*
X266000Y594000D01*
X326000D02*
X338000Y582000D01*
Y560000D02*
Y582000D01*
X322697Y544697D02*
X338000Y560000D01*
X322697Y531516D02*
Y544697D01*
X218000Y528000D02*
Y534000D01*
X274000Y590000D01*
X308000D01*
X324083Y573916D01*
Y562083D02*
Y573916D01*
X317579Y555579D02*
X324083Y562083D01*
X317579Y531516D02*
Y555579D01*
X287016Y538984D02*
Y546260D01*
Y538984D02*
X294000Y532000D01*
X304783Y531641D02*
Y538783D01*
X304424Y532000D02*
X304783Y531641D01*
X294000Y532000D02*
X304424D01*
X304783Y531516D02*
Y531641D01*
X330000Y508215D02*
X345759Y492456D01*
X332401Y521599D02*
X342000Y512000D01*
X330000Y508215D02*
Y516000D01*
X342000Y512000D02*
X346000D01*
X347713Y510287D01*
X383409Y509409D02*
X386000Y512000D01*
X401477D02*
X407677Y505800D01*
X386000Y512000D02*
X401477D01*
X379740Y523937D02*
X401340D01*
X407677Y517600D01*
X397140Y539937D02*
X407677Y529400D01*
X379740Y539937D02*
X397140D01*
X365677Y520000D02*
X374917D01*
X365677Y536000D02*
X374917D01*
X378854Y539937D01*
Y523937D02*
X379740D01*
X374917Y520000D02*
X378854Y523937D01*
Y539937D02*
X379740D01*
X277740Y554063D02*
X286693D01*
X287016Y553740D01*
X263740Y566000D02*
X265740Y568000D01*
X256000Y566000D02*
X263740D01*
X277480Y568000D02*
X277740Y568260D01*
X265740Y568000D02*
X277480D01*
X277740Y561937D02*
Y568260D01*
X304246Y553937D02*
X308000D01*
X301288Y550099D02*
Y550979D01*
X296465Y546260D02*
X297449D01*
X295480D02*
X296465D01*
X294599Y547141D02*
X295480Y546260D01*
X294599Y547141D02*
Y547141D01*
X304783Y538783D02*
X308000Y542000D01*
X287016Y553740D02*
X288000D01*
X294599Y547141D01*
X301288Y550979D02*
X304246Y553937D01*
X297449Y546260D02*
X301288Y550099D01*
X308000Y542000D02*
Y546063D01*
X326000Y520000D02*
X330000Y516000D01*
X308000Y520000D02*
X326000D01*
X311501Y521599D02*
X332401D01*
X317024Y524000D02*
X328000D01*
X307343Y520657D02*
Y531516D01*
Y520657D02*
X308000Y520000D01*
X309902Y531516D02*
X310000Y531417D01*
X309902Y523198D02*
Y531319D01*
X310000Y531417D01*
X309902Y523198D02*
X311501Y521599D01*
X312461Y528563D02*
X317024Y524000D01*
X312461Y528563D02*
Y531516D01*
X315020Y528563D02*
Y531516D01*
Y528563D02*
X317583Y526000D01*
X326000D01*
X332550Y528550D02*
X345450D01*
X328000Y524000D02*
X332550Y528550D01*
X349480Y520000D02*
Y524520D01*
X345450Y528550D02*
X349480Y524520D01*
X326000Y526000D02*
X330000Y530000D01*
X348000D01*
X349480Y531480D01*
Y536000D01*
X357803D01*
X349480Y520000D02*
X357803D01*
X381212Y509409D02*
X383409D01*
X390689Y500000D02*
X401677D01*
X380626Y489937D02*
X390689Y500000D01*
X401677D02*
X407677Y494000D01*
X379740Y489937D02*
X380626D01*
X379740Y507937D02*
X381212Y509409D01*
X378854Y507937D02*
X379740D01*
X365614Y506000D02*
X376917D01*
X378854Y507937D01*
X365677Y490000D02*
X365740Y489937D01*
X379740D01*
X349740Y490000D02*
X357803D01*
X347713Y507767D02*
Y510287D01*
Y507767D02*
X349480Y506000D01*
X357740D01*
X345759Y492456D02*
X347973D01*
X349740Y490689D01*
Y490000D02*
Y490689D01*
X157905Y548095D02*
X164001Y554190D01*
Y555938D02*
X166063Y558000D01*
X164001Y554190D02*
Y555938D01*
X148576Y548095D02*
X157905D01*
X164189Y546126D02*
X166063Y548000D01*
X148576Y546126D02*
X164189D01*
X154738Y544158D02*
X160896Y538000D01*
X166063D01*
X148576Y544158D02*
X154738D01*
X152443Y542112D02*
X166063Y528492D01*
X148653Y542112D02*
X152443D01*
X166063Y528000D02*
Y528492D01*
X148576Y542189D02*
X148653Y542112D01*
X154705Y533103D02*
X154897D01*
X148576Y536283D02*
X151524D01*
X154705Y533103D01*
X154897D02*
X158000Y530000D01*
Y522000D02*
Y530000D01*
Y522000D02*
X160000Y520000D01*
X170000D01*
X156000Y520618D02*
Y529839D01*
X151524Y532346D02*
X154000Y529871D01*
X156000Y520618D02*
X166126Y510492D01*
X151524Y534315D02*
X156000Y529839D01*
X154000Y512555D02*
Y529871D01*
Y512555D02*
X166063Y500492D01*
X148576Y534315D02*
X151524D01*
X166126Y510000D02*
Y510492D01*
X148576Y532346D02*
X151524D01*
X166063Y500000D02*
Y500492D01*
X175677Y501740D02*
X184000D01*
X173937Y500000D02*
X175677Y501740D01*
X184197Y501937D02*
X194000D01*
X184000Y501740D02*
X184197Y501937D01*
X194000D02*
X202000D01*
X207937D02*
X210000Y504000D01*
X202000Y501937D02*
X207937D01*
X109874Y526000D02*
X118112Y534238D01*
X121923D01*
X122000Y534315D01*
X109874Y450000D02*
Y526000D01*
D73*
X245740Y680945D02*
X254969D01*
X243173Y683512D02*
X245740Y680945D01*
X242484Y683512D02*
X243173D01*
D74*
X302791Y572000D02*
X313740D01*
X295480Y564689D02*
X302791Y572000D01*
X313740D02*
X319740Y566000D01*
X295480Y564000D02*
X295972Y563508D01*
X295480Y564000D02*
Y564689D01*
X295972Y553921D02*
Y563508D01*
X296153Y553740D02*
X296465D01*
X295972Y553921D02*
X296153Y553740D01*
X254969Y690000D02*
Y699055D01*
X251500Y700260D02*
X252705Y699055D01*
X242484Y700260D02*
X251500D01*
X252705Y699055D02*
X254969D01*
X236224Y700260D02*
X242484D01*
X230484Y706000D02*
X236224Y700260D01*
X174000Y710000D02*
X224484D01*
X230484Y716000D01*
X158000Y710000D02*
X174000D01*
X102000Y674000D02*
X122000D01*
X158000Y710000D01*
X76000Y648000D02*
X102000Y674000D01*
X76000Y570000D02*
Y648000D01*
X390000Y335250D02*
X399250D01*
X404000Y340000D01*
Y406181D01*
X390000Y86492D02*
Y324750D01*
Y86492D02*
X402000Y74492D01*
Y74000D02*
Y74492D01*
X262750Y341250D02*
X314000D01*
X232000Y372000D02*
X262750Y341250D01*
X232000Y372000D02*
Y386000D01*
X246000Y400000D01*
Y416181D01*
X128750Y341250D02*
X190000D01*
X108000Y362000D02*
X128750Y341250D01*
X108000Y362000D02*
Y414181D01*
X91644Y450260D02*
X91740D01*
X386000Y406181D02*
X404000D01*
X376164Y414500D02*
X380295Y410369D01*
X369812Y414500D02*
X376164D01*
X380295Y407461D02*
Y410369D01*
Y407461D02*
X381575Y406181D01*
X386000D01*
X228000Y416181D02*
X246000D01*
X214116Y424500D02*
X221155Y417461D01*
X226720D02*
X228000Y416181D01*
X211812Y424500D02*
X214116D01*
X221155Y417461D02*
X226720D01*
X90000Y414181D02*
X108000D01*
X85575D02*
X90000D01*
X84295Y415461D02*
X85575Y414181D01*
X84295Y415461D02*
Y421705D01*
X79500Y426500D02*
X84295Y421705D01*
X71812Y426500D02*
X79500D01*
X314000Y309701D02*
Y330750D01*
X190000Y310350D02*
Y330750D01*
X64000Y310350D02*
Y330750D01*
D75*
X402000Y60000D02*
Y74000D01*
Y60000D02*
X428000Y34000D01*
D76*
X73500Y536500D02*
D03*
Y526500D02*
D03*
Y516500D02*
D03*
X226000Y647000D02*
D03*
Y637000D02*
D03*
Y627000D02*
D03*
Y612000D02*
D03*
Y602000D02*
D03*
Y592000D02*
D03*
X285740Y496000D02*
D03*
X295740D02*
D03*
X305740D02*
D03*
X309740Y566000D02*
D03*
X319740D02*
D03*
X329740D02*
D03*
X96000Y570000D02*
D03*
X86000D02*
D03*
X76000D02*
D03*
X322000Y610000D02*
D03*
X332000D02*
D03*
X342000D02*
D03*
X230484Y716000D02*
D03*
Y706000D02*
D03*
Y696000D02*
D03*
D77*
X395877Y494000D02*
D03*
Y505800D02*
D03*
X407677D02*
D03*
Y494000D02*
D03*
Y517600D02*
D03*
Y529400D02*
D03*
X395877D02*
D03*
Y517600D02*
D03*
D78*
X424677Y502500D02*
D03*
Y521000D02*
D03*
D79*
X30000Y688000D02*
D03*
Y672000D02*
D03*
X32000Y560000D02*
D03*
Y544000D02*
D03*
X110000Y710000D02*
D03*
X126000D02*
D03*
X174000D02*
D03*
X158000D02*
D03*
X428000Y34000D02*
D03*
X412000D02*
D03*
X426000Y616630D02*
D03*
Y675685D02*
D03*
Y656000D02*
D03*
Y636315D02*
D03*
D80*
X314000Y16000D02*
D03*
Y309701D02*
D03*
X190000Y16650D02*
D03*
Y310350D02*
D03*
X64000D02*
D03*
Y16650D02*
D03*
D81*
X278000Y414000D02*
D03*
X304000D02*
D03*
X48000D02*
D03*
X20000Y428000D02*
D03*
X242000Y538000D02*
D03*
X248000Y590000D02*
D03*
X234000Y504000D02*
D03*
X138000Y536000D02*
D03*
Y542000D02*
D03*
X108000Y552000D02*
D03*
X316000Y516000D02*
D03*
X278000Y584000D02*
D03*
X284000Y570000D02*
D03*
X278000Y548000D02*
D03*
X336000Y542000D02*
D03*
Y526000D02*
D03*
X320000Y516000D02*
D03*
X326000D02*
D03*
X396000Y556000D02*
D03*
X336000Y512000D02*
D03*
Y496000D02*
D03*
X256000Y566000D02*
D03*
X328000Y492000D02*
D03*
X170000Y520000D02*
D03*
X286000Y694000D02*
D03*
Y690000D02*
D03*
X136000Y612000D02*
D03*
Y620000D02*
D03*
X196000Y676000D02*
D03*
X244000Y664000D02*
D03*
X248000Y714000D02*
D03*
X286000Y686000D02*
D03*
X356000Y644000D02*
D03*
Y654000D02*
D03*
X324000Y652000D02*
D03*
X330000Y622000D02*
D03*
X188000D02*
D03*
X158000Y596000D02*
D03*
X186000Y578000D02*
D03*
X216000Y486000D02*
D03*
X180000Y488000D02*
D03*
X186000Y478000D02*
D03*
X48000Y432000D02*
D03*
X188188Y429812D02*
D03*
X346188Y421812D02*
D03*
X312000Y428000D02*
D03*
X300000Y440000D02*
D03*
X302000Y376000D02*
D03*
X286000D02*
D03*
X240000D02*
D03*
X223740Y375740D02*
D03*
X174000Y376000D02*
D03*
X160000D02*
D03*
X114000D02*
D03*
X99740Y375740D02*
D03*
X28000Y400000D02*
D03*
X42000D02*
D03*
X334000Y368000D02*
D03*
X208000D02*
D03*
X82000D02*
D03*
X420000Y132000D02*
D03*
Y128000D02*
D03*
M02*
