G04*
G04 #@! TF.GenerationSoftware,Altium Limited,Altium Designer,23.3.1 (30)*
G04*
G04 Layer_Color=16711935*
%FSLAX25Y25*%
%MOIN*%
G70*
G04*
G04 #@! TF.SameCoordinates,B9ADD834-6C2E-4723-A052-446894AFEB0A*
G04*
G04*
G04 #@! TF.FilePolarity,Negative*
G04*
G01*
G75*
%ADD66C,0.07887*%
%ADD67C,0.07800*%
%ADD68C,0.15600*%
%ADD69C,0.12611*%
%ADD70C,0.16548*%
%ADD71C,0.03300*%
D66*
X73500Y536500D02*
D03*
Y526500D02*
D03*
Y516500D02*
D03*
X226000Y647000D02*
D03*
Y637000D02*
D03*
Y627000D02*
D03*
Y612000D02*
D03*
Y602000D02*
D03*
Y592000D02*
D03*
X285740Y496000D02*
D03*
X295740D02*
D03*
X305740D02*
D03*
X309740Y566000D02*
D03*
X319740D02*
D03*
X329740D02*
D03*
X96000Y570000D02*
D03*
X86000D02*
D03*
X76000D02*
D03*
X322000Y610000D02*
D03*
X332000D02*
D03*
X342000D02*
D03*
X230484Y716000D02*
D03*
Y706000D02*
D03*
Y696000D02*
D03*
D67*
X395877Y494000D02*
D03*
Y505800D02*
D03*
X407677D02*
D03*
Y494000D02*
D03*
Y517600D02*
D03*
Y529400D02*
D03*
X395877D02*
D03*
Y517600D02*
D03*
D68*
X424677Y502500D02*
D03*
Y521000D02*
D03*
D69*
X30000Y688000D02*
D03*
Y672000D02*
D03*
X32000Y560000D02*
D03*
Y544000D02*
D03*
X110000Y710000D02*
D03*
X126000D02*
D03*
X174000D02*
D03*
X158000D02*
D03*
X428000Y34000D02*
D03*
X412000D02*
D03*
X426000Y616630D02*
D03*
Y675685D02*
D03*
Y656000D02*
D03*
Y636315D02*
D03*
D70*
X314000Y16000D02*
D03*
Y309701D02*
D03*
X190000Y16650D02*
D03*
Y310350D02*
D03*
X64000D02*
D03*
Y16650D02*
D03*
D71*
X278000Y414000D02*
D03*
X304000D02*
D03*
X48000D02*
D03*
X20000Y428000D02*
D03*
X242000Y538000D02*
D03*
X248000Y590000D02*
D03*
X234000Y504000D02*
D03*
X138000Y536000D02*
D03*
Y542000D02*
D03*
X108000Y552000D02*
D03*
X316000Y516000D02*
D03*
X278000Y584000D02*
D03*
X284000Y570000D02*
D03*
X278000Y548000D02*
D03*
X336000Y542000D02*
D03*
Y526000D02*
D03*
X320000Y516000D02*
D03*
X326000D02*
D03*
X396000Y556000D02*
D03*
X336000Y512000D02*
D03*
Y496000D02*
D03*
X256000Y566000D02*
D03*
X328000Y492000D02*
D03*
X170000Y520000D02*
D03*
X286000Y694000D02*
D03*
Y690000D02*
D03*
X136000Y612000D02*
D03*
Y620000D02*
D03*
X196000Y676000D02*
D03*
X244000Y664000D02*
D03*
X248000Y714000D02*
D03*
X286000Y686000D02*
D03*
X356000Y644000D02*
D03*
Y654000D02*
D03*
X324000Y652000D02*
D03*
X330000Y622000D02*
D03*
X188000D02*
D03*
X158000Y596000D02*
D03*
X186000Y578000D02*
D03*
X216000Y486000D02*
D03*
X180000Y488000D02*
D03*
X186000Y478000D02*
D03*
X48000Y432000D02*
D03*
X188188Y429812D02*
D03*
X346188Y421812D02*
D03*
X312000Y428000D02*
D03*
X300000Y440000D02*
D03*
X302000Y376000D02*
D03*
X286000D02*
D03*
X240000D02*
D03*
X223740Y375740D02*
D03*
X174000Y376000D02*
D03*
X160000D02*
D03*
X114000D02*
D03*
X99740Y375740D02*
D03*
X28000Y400000D02*
D03*
X42000D02*
D03*
X334000Y368000D02*
D03*
X208000D02*
D03*
X82000D02*
D03*
X420000Y132000D02*
D03*
Y128000D02*
D03*
M02*
