G04*
G04 #@! TF.GenerationSoftware,Altium Limited,Altium Designer,23.3.1 (30)*
G04*
G04 Layer_Color=32768*
%FSLAX25Y25*%
%MOIN*%
G70*
G04*
G04 #@! TF.SameCoordinates,B9ADD834-6C2E-4723-A052-446894AFEB0A*
G04*
G04*
G04 #@! TF.FilePolarity,Positive*
G04*
G01*
G75*
%ADD82C,0.00394*%
%ADD83C,0.00197*%
D82*
X291740Y548032D02*
Y551968D01*
X289772Y550000D02*
X293709D01*
X313740Y518032D02*
Y521969D01*
X311772Y520000D02*
X315709D01*
X308000Y548032D02*
Y551968D01*
X306031Y550000D02*
X309968D01*
X275772Y558000D02*
X279709D01*
X277740Y556032D02*
Y559969D01*
X361740Y488031D02*
Y491968D01*
X359772Y490000D02*
X363709D01*
X361677Y504032D02*
Y507969D01*
X359709Y506000D02*
X363646D01*
X361740Y518032D02*
Y521969D01*
X359772Y520000D02*
X363709D01*
X361740Y534031D02*
Y537968D01*
X359772Y536000D02*
X363709D01*
X377772Y486000D02*
X381709D01*
X379740Y484031D02*
Y487968D01*
X377772Y504000D02*
X381709D01*
X379740Y502032D02*
Y505969D01*
X377772Y520000D02*
X381709D01*
X379740Y518032D02*
Y521969D01*
X377772Y536000D02*
X381709D01*
X379740Y534031D02*
Y537968D01*
X277740Y570031D02*
Y573969D01*
X275772Y572000D02*
X279709D01*
X289772Y564000D02*
X293709D01*
X291740Y562032D02*
Y565969D01*
X317512Y498000D02*
X321449D01*
X319480Y496032D02*
Y499968D01*
X343772Y536000D02*
X347709D01*
X345740Y534031D02*
Y537968D01*
X343772Y520000D02*
X347709D01*
X345740Y518032D02*
Y521969D01*
X343772Y506000D02*
X347709D01*
X345740Y504032D02*
Y507969D01*
X344032Y490000D02*
X347969D01*
X346000Y488031D02*
Y491968D01*
X383772Y552000D02*
X387709D01*
X385740Y550032D02*
Y553968D01*
X112000Y598032D02*
Y601968D01*
X110031Y600000D02*
X113969D01*
X112000Y630031D02*
Y633968D01*
X110031Y632000D02*
X113969D01*
X168032Y538000D02*
X171968D01*
X170000Y536031D02*
Y539968D01*
X168032Y528000D02*
X171968D01*
X170000Y526031D02*
Y529969D01*
X206031Y524000D02*
X209968D01*
X208000Y522031D02*
Y525969D01*
X168095Y510000D02*
X172031D01*
X170063Y508032D02*
Y511969D01*
X196031Y542000D02*
X199969D01*
X198000Y540031D02*
Y543968D01*
X168032Y500000D02*
X171968D01*
X170000Y498032D02*
Y501968D01*
X168032Y548000D02*
X171968D01*
X170000Y546032D02*
Y549968D01*
X168032Y558000D02*
X171968D01*
X170000Y556032D02*
Y559969D01*
X168063Y591768D02*
Y595705D01*
X166095Y593736D02*
X170031D01*
X182000Y568032D02*
Y571969D01*
X180032Y570000D02*
X183968D01*
X168000Y580031D02*
Y583968D01*
X166032Y582000D02*
X169968D01*
X182000Y591768D02*
Y595705D01*
X180032Y593736D02*
X183968D01*
X168000Y568032D02*
Y571969D01*
X166032Y570000D02*
X169968D01*
X170000Y603768D02*
Y607705D01*
X168032Y605736D02*
X171968D01*
X178000Y613768D02*
Y617705D01*
X176031Y615736D02*
X179969D01*
X108000Y566291D02*
Y570228D01*
X106032Y568260D02*
X109968D01*
X114032Y620000D02*
X117968D01*
X116000Y618032D02*
Y621969D01*
X114032Y612000D02*
X117968D01*
X116000Y610032D02*
Y613969D01*
X340000Y620031D02*
Y623969D01*
X338032Y622000D02*
X341968D01*
X260000Y374031D02*
Y377969D01*
X258032Y376000D02*
X261968D01*
X324031Y372260D02*
X327969D01*
X326000Y370291D02*
Y374228D01*
X314000Y354031D02*
Y357968D01*
X312032Y356000D02*
X315968D01*
X401968Y440000D02*
X405905D01*
X403937Y438031D02*
Y441968D01*
X200031Y436000D02*
X203969D01*
X202000Y434031D02*
Y437968D01*
X244032Y450000D02*
X247969D01*
X246000Y448032D02*
Y451968D01*
X61968Y440000D02*
X65905D01*
X63937Y438031D02*
Y441968D01*
X358032Y428000D02*
X361968D01*
X360000Y426031D02*
Y429969D01*
X103969Y450000D02*
X107905D01*
X105937Y448032D02*
Y451968D01*
X405937Y72031D02*
Y75968D01*
X403968Y74000D02*
X407905D01*
X390000Y348095D02*
Y352031D01*
X388032Y350063D02*
X391968D01*
X360000Y374031D02*
Y377969D01*
X358032Y376000D02*
X361968D01*
X198031Y372000D02*
X201969D01*
X200000Y370031D02*
Y373969D01*
X190000Y354095D02*
Y358032D01*
X188031Y356063D02*
X191969D01*
X136000Y374031D02*
Y377969D01*
X134031Y376000D02*
X137969D01*
X194000Y496032D02*
Y499968D01*
X192032Y498000D02*
X195968D01*
X194000Y481374D02*
Y484524D01*
X192425Y482949D02*
X195575D01*
X202000Y496032D02*
Y499968D01*
X200031Y498000D02*
X203969D01*
X182032D02*
X185968D01*
X184000Y496032D02*
Y499968D01*
X62032Y355937D02*
X65969D01*
X64000Y353969D02*
Y357906D01*
X16094Y330000D02*
X20031D01*
X18063Y328031D02*
Y331968D01*
X74000Y370031D02*
Y373969D01*
X72031Y372000D02*
X75968D01*
X266484Y688031D02*
Y691968D01*
X264516Y690000D02*
X268453D01*
X240516Y704000D02*
X244453D01*
X242484Y702032D02*
Y705969D01*
Y676031D02*
Y679969D01*
X240516Y678000D02*
X244453D01*
X222031Y676000D02*
X225969D01*
X224000Y674031D02*
Y677969D01*
X206425Y676000D02*
X209575D01*
X208000Y674425D02*
Y677575D01*
X360063Y638031D02*
Y641968D01*
X358095Y640000D02*
X362032D01*
X334095Y638000D02*
X338032D01*
X336063Y636031D02*
Y639968D01*
X358063Y620031D02*
Y623969D01*
X356095Y622000D02*
X360032D01*
X322094Y642000D02*
X326031D01*
X324063Y640031D02*
Y643968D01*
D83*
X283866Y543110D02*
X299614D01*
X283866Y556890D02*
X299614D01*
Y543110D02*
Y556890D01*
X283866Y543110D02*
Y556890D01*
X301732Y537126D02*
X325748D01*
X301732Y502874D02*
X325748D01*
Y537126D01*
X301732Y502874D02*
Y537126D01*
X303079Y541732D02*
X312921D01*
X303079Y558268D02*
X312921D01*
X303079Y541732D02*
Y558268D01*
X312921Y541732D02*
Y558268D01*
X281480Y551307D02*
Y564693D01*
X274000Y551307D02*
Y564693D01*
X281480D01*
X274000Y551307D02*
X281480D01*
X355047Y493740D02*
X368433D01*
X355047Y486260D02*
X368433D01*
X355047D02*
Y493740D01*
X368433Y486260D02*
Y493740D01*
X354984Y509740D02*
X368370D01*
X354984Y502260D02*
X368370D01*
X354984D02*
Y509740D01*
X368370Y502260D02*
Y509740D01*
X355047Y523740D02*
X368433D01*
X355047Y516260D02*
X368433D01*
X355047D02*
Y523740D01*
X368433Y516260D02*
Y523740D01*
X355047Y539740D02*
X368433D01*
X355047Y532260D02*
X368433D01*
X355047D02*
Y539740D01*
X368433Y532260D02*
Y539740D01*
X376000Y479307D02*
Y492693D01*
X383480Y479307D02*
Y492693D01*
X376000Y479307D02*
X383480D01*
X376000Y492693D02*
X383480D01*
X376000Y497307D02*
Y510693D01*
X383480Y497307D02*
Y510693D01*
X376000Y497307D02*
X383480D01*
X376000Y510693D02*
X383480D01*
X376000Y513307D02*
Y526693D01*
X383480Y513307D02*
Y526693D01*
X376000Y513307D02*
X383480D01*
X376000Y526693D02*
X383480D01*
X376000Y529307D02*
Y542693D01*
X383480Y529307D02*
Y542693D01*
X376000Y529307D02*
X383480D01*
X376000Y542693D02*
X383480D01*
X274000Y565307D02*
X281480D01*
X274000Y578693D02*
X281480D01*
X274000Y565307D02*
Y578693D01*
X281480Y565307D02*
Y578693D01*
X285047Y560260D02*
Y567740D01*
X298433Y560260D02*
Y567740D01*
X285047D02*
X298433D01*
X285047Y560260D02*
X298433D01*
X312787Y494260D02*
Y501740D01*
X326173Y494260D02*
Y501740D01*
X312787D02*
X326173D01*
X312787Y494260D02*
X326173D01*
X352433Y532260D02*
Y539740D01*
X339047Y532260D02*
Y539740D01*
Y532260D02*
X352433D01*
X339047Y539740D02*
X352433D01*
Y516260D02*
Y523740D01*
X339047Y516260D02*
Y523740D01*
Y516260D02*
X352433D01*
X339047Y523740D02*
X352433D01*
Y502260D02*
Y509740D01*
X339047Y502260D02*
Y509740D01*
Y502260D02*
X352433D01*
X339047Y509740D02*
X352433D01*
X352693Y486260D02*
Y493740D01*
X339307Y486260D02*
Y493740D01*
Y486260D02*
X352693D01*
X339307Y493740D02*
X352693D01*
X392433Y548260D02*
Y555740D01*
X379047Y548260D02*
Y555740D01*
Y548260D02*
X392433D01*
X379047Y555740D02*
X392433D01*
X108850Y594685D02*
X115150D01*
X108850Y605315D02*
X115150D01*
X108850Y594685D02*
Y605315D01*
X115150Y594685D02*
Y605315D01*
X108850Y637315D02*
X115150D01*
X108850Y626685D02*
X115150D01*
Y637315D01*
X108850Y626685D02*
Y637315D01*
X178268Y533079D02*
Y542921D01*
X161732Y533079D02*
Y542921D01*
Y533079D02*
X178268D01*
X161732Y542921D02*
X178268D01*
Y523079D02*
Y532921D01*
X161732Y523079D02*
Y532921D01*
Y523079D02*
X178268D01*
X161732Y532921D02*
X178268D01*
X204260Y517307D02*
Y530693D01*
X211740Y517307D02*
Y530693D01*
X204260Y517307D02*
X211740D01*
X204260Y530693D02*
X211740D01*
X178331Y505079D02*
Y514921D01*
X161795Y505079D02*
Y514921D01*
Y505079D02*
X178331D01*
X161795Y514921D02*
X178331D01*
X201740Y535307D02*
Y548693D01*
X194260Y535307D02*
Y548693D01*
X201740D01*
X194260Y535307D02*
X201740D01*
X178268Y495079D02*
Y504921D01*
X161732Y495079D02*
Y504921D01*
Y495079D02*
X178268D01*
X161732Y504921D02*
X178268D01*
Y543079D02*
Y552921D01*
X161732Y543079D02*
Y552921D01*
Y543079D02*
X178268D01*
X161732Y552921D02*
X178268D01*
Y553079D02*
Y562921D01*
X161732Y553079D02*
Y562921D01*
Y553079D02*
X178268D01*
X161732Y562921D02*
X178268D01*
X161370Y589996D02*
X174756D01*
X161370Y597476D02*
X174756D01*
Y589996D02*
Y597476D01*
X161370Y589996D02*
Y597476D01*
X175307Y573740D02*
X188693D01*
X175307Y566260D02*
X188693D01*
X175307D02*
Y573740D01*
X188693Y566260D02*
Y573740D01*
X161307Y578260D02*
X174693D01*
X161307Y585740D02*
X174693D01*
Y578260D02*
Y585740D01*
X161307Y578260D02*
Y585740D01*
X175307Y589996D02*
X188693D01*
X175307Y597476D02*
X188693D01*
Y589996D02*
Y597476D01*
X175307Y589996D02*
Y597476D01*
X161307Y573740D02*
X174693D01*
X161307Y566260D02*
X174693D01*
X161307D02*
Y573740D01*
X174693Y566260D02*
Y573740D01*
X163307Y601996D02*
X176693D01*
X163307Y609476D02*
X176693D01*
Y601996D02*
Y609476D01*
X163307Y601996D02*
Y609476D01*
X171307Y611996D02*
X184693D01*
X171307Y619476D02*
X184693D01*
Y611996D02*
Y619476D01*
X171307Y611996D02*
Y619476D01*
X104260Y574953D02*
X111740D01*
X104260Y561567D02*
X111740D01*
Y574953D01*
X104260Y561567D02*
Y574953D01*
X109307Y616260D02*
Y623740D01*
X122693Y616260D02*
Y623740D01*
X109307D02*
X122693D01*
X109307Y616260D02*
X122693D01*
X122693Y608260D02*
Y615740D01*
X109307Y608260D02*
Y615740D01*
Y608260D02*
X122693D01*
X109307Y615740D02*
X122693D01*
X333307Y618260D02*
X346693D01*
X333307Y625740D02*
X346693D01*
Y618260D02*
Y625740D01*
X333307Y618260D02*
Y625740D01*
X251378Y372457D02*
X268622D01*
X251378D02*
Y379543D01*
X268622Y372457D02*
Y379543D01*
X251378D02*
X268622D01*
X322260Y365567D02*
Y378953D01*
X329740Y365567D02*
Y378953D01*
X322260Y365567D02*
X329740D01*
X322260Y378953D02*
X329740D01*
X310260Y349307D02*
X317740D01*
X310260Y362693D02*
X317740D01*
X310260Y349307D02*
Y362693D01*
X317740Y349307D02*
Y362693D01*
X397244Y436260D02*
Y443740D01*
X410630Y436260D02*
Y443740D01*
X397244D02*
X410630D01*
X397244Y436260D02*
X410630D01*
X208693Y432260D02*
Y439740D01*
X195307Y432260D02*
Y439740D01*
Y432260D02*
X208693D01*
X195307Y439740D02*
X208693D01*
X239307Y446260D02*
Y453740D01*
X252693Y446260D02*
Y453740D01*
X239307D02*
X252693D01*
X239307Y446260D02*
X252693D01*
X70630Y436260D02*
Y443740D01*
X57244Y436260D02*
Y443740D01*
Y436260D02*
X70630D01*
X57244Y443740D02*
X70630D01*
X366693Y424260D02*
Y431740D01*
X353307Y424260D02*
Y431740D01*
Y424260D02*
X366693D01*
X353307Y431740D02*
X366693D01*
X99244Y446260D02*
Y453740D01*
X112630Y446260D02*
Y453740D01*
X99244D02*
X112630D01*
X99244Y446260D02*
X112630D01*
X397669Y78921D02*
X414205D01*
X397669Y69079D02*
X414205D01*
X397669D02*
Y78921D01*
X414205Y69079D02*
Y78921D01*
X386260Y343370D02*
X393740D01*
X386260Y356756D02*
X393740D01*
X386260Y343370D02*
Y356756D01*
X393740Y343370D02*
Y356756D01*
X351378Y372457D02*
X368622D01*
X351378D02*
Y379543D01*
X368622Y372457D02*
Y379543D01*
X351378D02*
X368622D01*
X196260Y365307D02*
Y378693D01*
X203740Y365307D02*
Y378693D01*
X196260Y365307D02*
X203740D01*
X196260Y378693D02*
X203740D01*
X186260Y349370D02*
X193740D01*
X186260Y362756D02*
X193740D01*
X186260Y349370D02*
Y362756D01*
X193740Y349370D02*
Y362756D01*
X127378Y372457D02*
X144622D01*
X127378D02*
Y379543D01*
X144622Y372457D02*
Y379543D01*
X127378D02*
X144622D01*
X190260Y491307D02*
X197740D01*
X190260Y504693D02*
X197740D01*
X190260Y491307D02*
Y504693D01*
X197740Y491307D02*
Y504693D01*
X191047Y488854D02*
X196953D01*
X191047Y477043D02*
X196953D01*
Y488854D01*
X191047Y477043D02*
Y488854D01*
X198260Y491307D02*
X205740D01*
X198260Y504693D02*
X205740D01*
X198260Y491307D02*
Y504693D01*
X205740Y491307D02*
Y504693D01*
X180260Y491307D02*
Y504693D01*
X187740Y491307D02*
Y504693D01*
X180260Y491307D02*
X187740D01*
X180260Y504693D02*
X187740D01*
X67740Y349244D02*
Y362630D01*
X60260Y349244D02*
Y362630D01*
X67740D01*
X60260Y349244D02*
X67740D01*
X26331Y325079D02*
Y334921D01*
X9795Y325079D02*
Y334921D01*
Y325079D02*
X26331D01*
X9795Y334921D02*
X26331D01*
X70260Y378693D02*
X77740D01*
X70260Y365307D02*
X77740D01*
Y378693D01*
X70260Y365307D02*
Y378693D01*
X249752Y675827D02*
X283217D01*
X249752Y704173D02*
X283217D01*
Y675827D02*
Y704173D01*
X249752Y675827D02*
Y704173D01*
X246224Y697307D02*
Y710693D01*
X238744Y697307D02*
Y710693D01*
X246224D01*
X238744Y697307D02*
X246224D01*
X237957Y687449D02*
X247012D01*
X237957Y668551D02*
X247012D01*
Y687449D01*
X237957Y668551D02*
Y687449D01*
X217307Y672260D02*
Y679740D01*
X230693Y672260D02*
Y679740D01*
X217307D02*
X230693D01*
X217307Y672260D02*
X230693D01*
X213906Y673047D02*
Y678953D01*
X202095Y673047D02*
Y678953D01*
Y673047D02*
X213906D01*
X202095Y678953D02*
X213906D01*
X345496Y650827D02*
X374630D01*
X345496Y629173D02*
X374630D01*
X345496D02*
Y650827D01*
X374630Y629173D02*
Y650827D01*
X342756Y634260D02*
Y641740D01*
X329370Y634260D02*
Y641740D01*
Y634260D02*
X342756D01*
X329370Y641740D02*
X342756D01*
X349795Y617079D02*
X366331D01*
X349795Y626921D02*
X366331D01*
Y617079D02*
Y626921D01*
X349795Y617079D02*
Y626921D01*
X327803Y635307D02*
Y648693D01*
X320323Y635307D02*
Y648693D01*
X327803D01*
X320323Y635307D02*
X327803D01*
M02*
