G04*
G04 #@! TF.GenerationSoftware,Altium Limited,Altium Designer,23.1.1 (15)*
G04*
G04 Layer_Physical_Order=1*
G04 Layer_Color=255*
%FSLAX25Y25*%
%MOIN*%
G70*
G04*
G04 #@! TF.SameCoordinates,F8F85EFA-0F4A-4E32-949D-36CD74FFCFB1*
G04*
G04*
G04 #@! TF.FilePolarity,Positive*
G04*
G01*
G75*
%ADD13C,0.01000*%
%ADD18R,0.03543X0.05315*%
%ADD19R,0.01575X0.03543*%
%ADD20R,0.05315X0.03543*%
G04:AMPARAMS|DCode=21|XSize=65.3mil|YSize=24.68mil|CornerRadius=12.34mil|HoleSize=0mil|Usage=FLASHONLY|Rotation=180.000|XOffset=0mil|YOffset=0mil|HoleType=Round|Shape=RoundedRectangle|*
%AMROUNDEDRECTD21*
21,1,0.06530,0.00000,0,0,180.0*
21,1,0.04063,0.02468,0,0,180.0*
1,1,0.02468,-0.02031,0.00000*
1,1,0.02468,0.02031,0.00000*
1,1,0.02468,0.02031,0.00000*
1,1,0.02468,-0.02031,0.00000*
%
%ADD21ROUNDEDRECTD21*%
%ADD22R,0.06530X0.02468*%
%ADD23R,0.02362X0.05906*%
%ADD24C,0.03000*%
%ADD25R,0.02559X0.06102*%
%ADD26R,0.07087X0.05709*%
%ADD27R,0.05512X0.04134*%
%ADD28R,0.03543X0.03740*%
G04:AMPARAMS|DCode=29|XSize=25.59mil|YSize=47.24mil|CornerRadius=1.92mil|HoleSize=0mil|Usage=FLASHONLY|Rotation=90.000|XOffset=0mil|YOffset=0mil|HoleType=Round|Shape=RoundedRectangle|*
%AMROUNDEDRECTD29*
21,1,0.02559,0.04341,0,0,90.0*
21,1,0.02175,0.04724,0,0,90.0*
1,1,0.00384,0.02170,0.01088*
1,1,0.00384,0.02170,-0.01088*
1,1,0.00384,-0.02170,-0.01088*
1,1,0.00384,-0.02170,0.01088*
%
%ADD29ROUNDEDRECTD29*%
%ADD30R,0.03543X0.03150*%
%ADD31R,0.03740X0.03543*%
%ADD50C,0.04016*%
%ADD51C,0.06181*%
%ADD52R,0.06181X0.06181*%
%ADD53C,0.09488*%
%ADD59C,0.01500*%
%ADD60C,0.05984*%
%ADD61C,0.11457*%
%ADD62R,0.06024X0.06024*%
%ADD63C,0.06024*%
%ADD64C,0.07087*%
%ADD65C,0.05906*%
%ADD66R,0.05906X0.05906*%
%ADD67C,0.18898*%
%ADD68C,0.16929*%
%ADD69C,0.05000*%
G36*
X47000Y268000D02*
Y266000D01*
X33000Y252000D01*
X17000D01*
X15000Y254000D01*
Y260000D01*
X19000Y264000D01*
X31000D01*
X37000Y270000D01*
X45000D01*
X47000Y268000D01*
D02*
G37*
G36*
X69000Y265000D02*
Y254000D01*
X65574Y250574D01*
X65404Y250585D01*
X64675Y251145D01*
X63825Y251497D01*
X62913Y251617D01*
X62002Y251497D01*
X61152Y251145D01*
X60423Y250585D01*
X59863Y249856D01*
X59511Y249006D01*
X59391Y248095D01*
X59511Y247183D01*
X59863Y246333D01*
X60423Y245604D01*
X60434Y245434D01*
X49000Y234000D01*
X41000Y234000D01*
X33000Y242000D01*
X33000Y249000D01*
X54000Y270000D01*
X64000Y270000D01*
X69000Y265000D01*
D02*
G37*
G36*
X12000Y260000D02*
Y253000D01*
X15000Y250000D01*
X30000D01*
X31000Y249000D01*
Y243000D01*
X30000Y242000D01*
X27020D01*
Y242578D01*
X27950Y243508D01*
X29441D01*
X29831Y243586D01*
X30162Y243807D01*
X30383Y244137D01*
X30461Y244528D01*
X30383Y244918D01*
X30162Y245249D01*
X29831Y245469D01*
X29441Y245547D01*
X27528D01*
X27137Y245469D01*
X26807Y245249D01*
X25279Y243721D01*
X25058Y243390D01*
X24980Y243000D01*
Y242000D01*
X5000D01*
X4000Y243000D01*
Y260000D01*
X5000Y261000D01*
X11000D01*
X12000Y260000D01*
D02*
G37*
G36*
X249220Y253785D02*
Y252404D01*
X249578Y251070D01*
X250268Y249874D01*
X251245Y248898D01*
X252440Y248208D01*
X253774Y247850D01*
X255155D01*
X256489Y248208D01*
X257684Y248898D01*
X258661Y249874D01*
X259351Y251070D01*
X259555Y251832D01*
X260038Y251962D01*
X263000Y249000D01*
X293791D01*
Y244697D01*
X300697D01*
Y249000D01*
X309558D01*
X315980Y242578D01*
Y241980D01*
X311000Y237000D01*
X300697D01*
Y237699D01*
X300462Y238577D01*
X300007Y239364D01*
X299364Y240007D01*
X298577Y240461D01*
X297699Y240697D01*
X296790D01*
X295911Y240461D01*
X295124Y240007D01*
X294481Y239364D01*
X294027Y238577D01*
X293791Y237699D01*
Y237000D01*
X290000D01*
X267000Y214000D01*
X251000D01*
Y219000D01*
X256000Y224000D01*
Y227000D01*
X243000Y240000D01*
X238000Y245000D01*
Y247850D01*
X238226D01*
X239560Y248208D01*
X240755Y248898D01*
X241732Y249874D01*
X242422Y251070D01*
X242779Y252404D01*
Y253785D01*
X242945Y254000D01*
X249055D01*
X249220Y253785D01*
D02*
G37*
%LPC*%
G36*
X22500Y257039D02*
X21720Y256884D01*
X21058Y256442D01*
X20616Y255780D01*
X20461Y255000D01*
X20616Y254220D01*
X21058Y253558D01*
X21720Y253116D01*
X22500Y252961D01*
X23280Y253116D01*
X23942Y253558D01*
X24384Y254220D01*
X24539Y255000D01*
X24384Y255780D01*
X23942Y256442D01*
X23280Y256884D01*
X22500Y257039D01*
D02*
G37*
G36*
X54449Y260259D02*
X53228Y260138D01*
X52054Y259782D01*
X50972Y259204D01*
X50023Y258425D01*
X49245Y257477D01*
X48667Y256395D01*
X48311Y255221D01*
X48190Y254000D01*
X48311Y252779D01*
X48667Y251605D01*
X49245Y250523D01*
X50023Y249575D01*
X50972Y248796D01*
X52054Y248218D01*
X53228Y247862D01*
X54449Y247742D01*
X55670Y247862D01*
X56844Y248218D01*
X57926Y248796D01*
X58874Y249575D01*
X59653Y250523D01*
X60231Y251605D01*
X60587Y252779D01*
X60707Y254000D01*
X60587Y255221D01*
X60231Y256395D01*
X59653Y257477D01*
X58874Y258425D01*
X57926Y259204D01*
X56844Y259782D01*
X55670Y260138D01*
X54449Y260259D01*
D02*
G37*
G36*
X51102Y246951D02*
X50124Y246756D01*
X49294Y246202D01*
X48740Y245372D01*
X48545Y244394D01*
X48740Y243415D01*
X49294Y242586D01*
X50124Y242031D01*
X51102Y241837D01*
X52081Y242031D01*
X52911Y242586D01*
X53465Y243415D01*
X53659Y244394D01*
X53465Y245372D01*
X52911Y246202D01*
X52081Y246756D01*
X51102Y246951D01*
D02*
G37*
G36*
X20000Y247020D02*
X19610Y246942D01*
X19279Y246721D01*
X19058Y246390D01*
X18980Y246000D01*
X19058Y245610D01*
X19279Y245279D01*
X20752Y243807D01*
X21082Y243586D01*
X21472Y243508D01*
X21863Y243586D01*
X22193Y243807D01*
X22414Y244137D01*
X22492Y244528D01*
X22414Y244918D01*
X22193Y245249D01*
X20721Y246721D01*
X20390Y246942D01*
X20000Y247020D01*
D02*
G37*
G36*
X258310Y245996D02*
X257312D01*
X256390Y245614D01*
X255685Y244909D01*
X255303Y243987D01*
Y242989D01*
X255685Y242068D01*
X256390Y241362D01*
X257312Y240980D01*
X258310D01*
X259232Y241362D01*
X259937Y242068D01*
X260319Y242989D01*
Y243987D01*
X259937Y244909D01*
X259232Y245614D01*
X258310Y245996D01*
D02*
G37*
%LPD*%
D13*
X214000Y67126D02*
X226000D01*
X261126D01*
X285000Y91000D01*
Y156000D01*
X176185Y66185D02*
X182988D01*
X176000Y66000D02*
X176185Y66185D01*
X32000Y63000D02*
X46642D01*
X54500Y55142D01*
Y53370D02*
Y55142D01*
X73000Y151000D02*
X85000Y139000D01*
X47000Y151000D02*
X73000D01*
X68000Y145000D02*
X85000Y128000D01*
X49000Y145000D02*
X68000D01*
X35000Y131000D02*
X49000Y145000D01*
X35000Y101000D02*
Y131000D01*
X49000Y87000D02*
X62000D01*
X35000Y101000D02*
X49000Y87000D01*
X26000Y103000D02*
X46000Y83000D01*
X26000Y103000D02*
Y130000D01*
X47000Y151000D01*
X21000Y132000D02*
X43000Y154000D01*
X21000Y74000D02*
Y132000D01*
X46000Y83000D02*
X52668D01*
X58487Y77181D01*
X58720D02*
X59500Y76402D01*
X58487Y77181D02*
X58720D01*
X59500Y74630D02*
Y76402D01*
X43000Y154000D02*
X82000D01*
X85000Y151000D01*
X90000Y109000D02*
X95000Y114000D01*
X86500Y174120D02*
X95000Y165620D01*
Y114000D02*
Y165620D01*
X115000Y128000D02*
Y175439D01*
Y128000D02*
X124000Y119000D01*
X150000D01*
X115000Y175439D02*
X127000Y187439D01*
Y202843D02*
X148999Y224843D01*
X127000Y187439D02*
Y202843D01*
X101000Y181000D02*
X105000Y177000D01*
Y131000D02*
X122000Y114000D01*
X105000Y131000D02*
Y177000D01*
X86500Y174120D02*
Y188842D01*
X90000Y103000D02*
Y109000D01*
X79886Y199000D02*
X97000D01*
X101000Y181000D02*
Y195000D01*
X71500Y190614D02*
X79886Y199000D01*
X97000D02*
X101000Y195000D01*
X92414Y98000D02*
X95207Y100793D01*
Y108207D01*
X98000Y111000D01*
X91500Y178500D02*
Y188842D01*
X96500D02*
Y190614D01*
X91500Y178500D02*
X93000Y177000D01*
X98000Y111000D02*
X151000D01*
X142000Y54000D02*
X163126D01*
X71000Y92000D02*
X92000D01*
X60000Y103000D02*
X71000Y92000D01*
X171000Y54000D02*
Y66000D01*
X112000Y72000D02*
X165000D01*
X92000Y92000D02*
X112000Y72000D01*
X165000D02*
X171000Y66000D01*
X136189Y273000D02*
X260000D01*
X271000Y262000D02*
X310000D01*
X260000Y273000D02*
X271000Y262000D01*
X140354Y271000D02*
X258000D01*
X270000Y259000D02*
X309000D01*
X258000Y271000D02*
X270000Y259000D01*
X267522Y256478D02*
X307522D01*
X149165Y268000D02*
X256000D01*
X267522Y256478D01*
X254000Y265000D02*
X265000Y254000D01*
X151983Y265000D02*
X254000D01*
X265000Y254000D02*
X306000D01*
X285000Y156000D02*
X295358Y166358D01*
X308425D01*
X191000Y82000D02*
X198000Y75000D01*
X168000Y82000D02*
X191000D01*
X198000Y75000D02*
X203000D01*
X214000D01*
X219000Y71000D02*
X222000Y74000D01*
X235000Y164000D02*
X271000D01*
X295169Y188169D01*
X222000Y151000D02*
X235000Y164000D01*
X295169Y188169D02*
X308425D01*
X242000Y195000D02*
X249000Y188000D01*
X197000Y195000D02*
X242000D01*
X249000Y188000D02*
X250000D01*
X260000Y185000D02*
X274000Y199000D01*
X260000Y173000D02*
Y185000D01*
X274000Y199000D02*
X276000D01*
X53870Y74000D02*
X54500Y74630D01*
X43000Y74000D02*
X53870D01*
X275000Y73228D02*
X297244Y95473D01*
X275000Y65000D02*
Y73228D01*
X260398Y50398D02*
X275000Y65000D01*
X191691Y50398D02*
X260398D01*
X182988Y66185D02*
X184063Y67260D01*
X202866D01*
X202114Y67126D02*
X203000D01*
X200842Y65854D02*
X202114Y67126D01*
X202866Y67260D02*
X203000Y67126D01*
X191691Y57602D02*
X226000D01*
X170000Y75000D02*
X184835D01*
X142961Y102039D02*
X170000Y75000D01*
X191937Y71000D02*
X219000D01*
X163126Y54000D02*
Y66791D01*
X141000Y53000D02*
X142000Y52000D01*
X222000Y74000D02*
Y151000D01*
X95000Y80000D02*
X102000Y73000D01*
X68098Y80000D02*
X95000D01*
X64500Y76402D02*
X68098Y80000D01*
X59500Y74630D02*
X64500D01*
X151000Y111000D02*
X155000Y107000D01*
Y95000D02*
Y107000D01*
Y95000D02*
X168000Y82000D01*
X88000Y98000D02*
X92414D01*
X85000Y101000D02*
X88000Y98000D01*
X78674Y110000D02*
X85000Y103674D01*
X57000Y110000D02*
X78674D01*
X85000Y101000D02*
Y103674D01*
X50000Y103000D02*
X57000Y110000D01*
X140961Y102039D02*
X142961D01*
X140000Y103000D02*
X140961Y102039D01*
X171000Y54000D02*
X184000D01*
X160000Y76000D02*
Y79000D01*
X145000Y94000D02*
X160000Y79000D01*
X141000Y94000D02*
X145000D01*
X135000Y100000D02*
X141000Y94000D01*
X46000Y54000D02*
X52500Y47500D01*
X21000Y54000D02*
X46000D01*
X21000Y74000D02*
X32000Y63000D01*
X64500Y74630D02*
Y76402D01*
X97380Y95000D02*
X116443Y75937D01*
X70000Y103000D02*
X78000Y95000D01*
X97380D01*
X33000Y49000D02*
Y50126D01*
X43000Y19000D02*
Y39000D01*
X33000Y50126D02*
X33288D01*
X34560Y48854D01*
X33000Y49000D02*
X43000Y39000D01*
Y19000D02*
X48000Y14000D01*
X58548D01*
X60733Y14103D02*
X61724Y15094D01*
X58651Y14103D02*
X60733D01*
X58548Y14000D02*
X58651Y14103D01*
X106013Y15000D02*
X107189D01*
X96000Y13000D02*
X104013D01*
X89886Y19114D02*
X96000Y13000D01*
X104013D02*
X106013Y15000D01*
X89000Y49126D02*
X89886Y48240D01*
Y19114D02*
Y48240D01*
X152000Y75937D02*
Y80000D01*
X130000Y102000D02*
Y103000D01*
Y102000D02*
X152000Y80000D01*
X134000Y75937D02*
Y79000D01*
X110000Y103000D02*
X134000Y79000D01*
X124377Y76560D02*
Y78623D01*
X100000Y103000D02*
X124377Y78623D01*
Y76560D02*
X125000Y75937D01*
X143000D02*
Y79000D01*
X120000Y102000D02*
Y103000D01*
Y102000D02*
X143000Y79000D01*
Y75937D02*
X143886D01*
X116000D02*
X116443D01*
X33000Y58000D02*
X42000D01*
X26114Y64000D02*
X32114Y58000D01*
X21000Y64000D02*
X26114D01*
X32114Y58000D02*
X33000D01*
X70000Y46000D02*
X71082D01*
X78728Y47854D02*
X80000Y49126D01*
X72937Y47854D02*
X78728D01*
X71082Y46000D02*
X72937Y47854D01*
X69750Y46250D02*
Y53120D01*
Y46250D02*
X70000Y46000D01*
X69500Y53370D02*
X69750Y53120D01*
X48012Y45000D02*
X67414D01*
X42886Y50126D02*
X48012Y45000D01*
X42000Y50126D02*
X42886D01*
X69235Y45235D02*
X70000Y46000D01*
X67649Y45235D02*
X69235D01*
X67414Y45000D02*
X67649Y45235D01*
X52500Y47500D02*
X62500D01*
X64000Y49000D01*
Y52870D01*
X64500Y53370D01*
X69500Y51598D02*
Y53370D01*
X96000Y57000D02*
X102000Y63000D01*
X89000Y57000D02*
X96000D01*
X80000D02*
X89000D01*
X69500Y60500D02*
Y74630D01*
Y60500D02*
X77000Y53000D01*
X102000D01*
X54500Y53370D02*
X59500D01*
X41000Y180886D02*
X44000Y177886D01*
Y177000D02*
Y177886D01*
X41000Y180886D02*
Y193000D01*
X32000Y202000D02*
X41000Y193000D01*
X161150Y184299D02*
X162193D01*
X120000Y163000D02*
X126000Y157000D01*
X132000D01*
X135000Y160000D01*
X130000Y163000D02*
Y199000D01*
X137000Y206000D01*
X135000Y160000D02*
Y180000D01*
X136000Y181000D01*
X62913Y241913D02*
Y248095D01*
X39330Y229670D02*
X50670D01*
X62913Y241913D01*
X61500Y233500D02*
X68000Y240000D01*
X61500Y229157D02*
Y233500D01*
X18000Y205629D02*
X20000Y203629D01*
X12043Y231445D02*
X18000Y225488D01*
X20000Y202000D02*
Y203629D01*
X18000Y205629D02*
Y225488D01*
X158000Y227000D02*
X173000D01*
X158000D02*
Y227329D01*
Y226443D02*
Y227000D01*
X150859Y231274D02*
X151445Y231859D01*
X150859Y227131D02*
Y231274D01*
X151445Y231859D02*
X165229D01*
X180465Y247094D01*
X237000Y225000D02*
X238000Y226000D01*
X237000Y215937D02*
Y225000D01*
X316765Y142351D02*
X317000Y142586D01*
X315640Y139640D02*
X316765Y140765D01*
X306000Y254000D02*
X317000Y243000D01*
X316765Y140765D02*
Y142351D01*
X317000Y142586D02*
Y243000D01*
X325000Y128405D02*
Y243000D01*
X309000Y259000D02*
X325000Y243000D01*
X307522Y256478D02*
X321000Y243000D01*
Y134000D02*
Y243000D01*
X122000Y114000D02*
X158000D01*
X170000Y102000D01*
X136000Y181000D02*
X152921D01*
X137000Y206000D02*
X157850D01*
X264000Y179000D02*
X273000Y188000D01*
X147780Y191779D02*
X165220D01*
X140141Y184255D02*
X142157Y186272D01*
X179000Y213000D02*
X197000Y195000D01*
X197418Y198582D02*
X250418D01*
X179260Y216740D02*
X197418Y198582D01*
X201114Y208126D02*
X202000D01*
X194240Y215000D02*
X201114Y208126D01*
X194000Y215000D02*
X194240D01*
X135000Y105914D02*
X137086Y108000D01*
X145000D02*
X150000Y103000D01*
X137086Y108000D02*
X145000D01*
X135000Y100000D02*
Y105914D01*
X330000Y151000D02*
Y242000D01*
X310000Y262000D02*
X330000Y242000D01*
X309736Y122736D02*
X321000Y134000D01*
X308425Y111831D02*
X325000Y128405D01*
X308425Y122736D02*
X309736D01*
X123189Y253835D02*
X140354Y271000D01*
X141165Y260000D02*
X149165Y268000D01*
X146983Y260000D02*
X151983Y265000D01*
X123189Y260000D02*
X136189Y273000D01*
X123189Y248189D02*
Y253835D01*
X146811Y260000D02*
X146983D01*
X135000D02*
X141165D01*
X116000Y68063D02*
X117000Y67063D01*
X116000Y68063D02*
X125000D01*
X232000Y208000D02*
X236937D01*
X229000Y205000D02*
X232000Y208000D01*
X236937D02*
X237000Y208063D01*
X220707Y216000D02*
X221414D01*
X220000D02*
X220707D01*
X224707Y212000D01*
X289000Y212000D01*
X190000Y103000D02*
X209000Y122000D01*
Y180000D01*
X237000Y208063D02*
X245114D01*
X243843Y206791D02*
X245114Y208063D01*
X246000D01*
X245000Y226000D02*
X252000D01*
X245000Y216937D02*
X246000Y215937D01*
X244102Y226000D02*
X245000D01*
X246000Y208063D02*
X255000D01*
X145961Y184892D02*
X147158Y186089D01*
X154911D01*
X245000Y216937D02*
Y226000D01*
X220707Y217000D02*
Y231293D01*
X209102Y217272D02*
Y226000D01*
X202000Y217937D02*
Y227000D01*
X204157Y208126D02*
X211000D01*
X209102Y217272D02*
X210374Y216000D01*
X209102Y226000D02*
X216000D01*
X211000Y208126D02*
X220000D01*
X210374Y216000D02*
X211000D01*
X204157Y208126D02*
Y208586D01*
X213000Y247189D02*
Y247919D01*
Y239000D02*
Y247189D01*
X179102Y227000D02*
X188000D01*
X161000Y75937D02*
X161886D01*
X163157Y77209D01*
X161000Y68063D02*
X161854D01*
X163126Y66791D01*
X213000Y239000D02*
X220707Y231293D01*
X87114Y223000D02*
X91500Y227386D01*
X70886Y223000D02*
X87114D01*
X154911Y186089D02*
X155993D01*
X216000Y188000D02*
X237000Y167000D01*
X258000D01*
X140141Y184141D02*
Y184255D01*
X258000Y167000D02*
X264000Y173000D01*
Y179000D01*
X221260Y191740D02*
X242000Y171000D01*
X258000D02*
X260000Y173000D01*
X242000Y171000D02*
X258000D01*
X180000Y103000D02*
X198000Y121000D01*
Y180000D01*
X173807Y191740D02*
X221260D01*
X169000Y188000D02*
X216000D01*
X165220Y191779D02*
X169000Y188000D01*
X167063Y177063D02*
X173141Y183141D01*
X140000Y177063D02*
X167063D01*
X171000Y213000D02*
X179000D01*
X167260Y216740D02*
X171000Y213000D01*
X173807Y216740D02*
X179260D01*
X146740D02*
X162193D01*
X167260D01*
X142272Y186272D02*
X147780Y191779D01*
X142157Y186272D02*
X142272D01*
X152886Y180965D02*
X157965D01*
X160331Y183331D02*
Y183480D01*
X161150Y184299D01*
X157965Y180965D02*
X160331Y183331D01*
X155993Y186089D02*
X157904Y188000D01*
X148961Y184768D02*
Y184892D01*
X157904Y188000D02*
X162186D01*
X172669Y183480D02*
X173448Y184260D01*
X173807D01*
X152886Y180965D02*
X152921Y181000D01*
X157850Y206000D02*
X161110Y209260D01*
X289000Y212000D02*
X296000Y205000D01*
X166413Y201866D02*
X173807Y209260D01*
X172724D02*
X173807D01*
X139606Y202000D02*
X139740Y201866D01*
X147740D01*
X139740Y209740D02*
X146740Y216740D01*
X147000Y210480D02*
X147740Y209740D01*
X155000Y210000D02*
X158000Y213000D01*
X147740Y201866D02*
X166413D01*
X149480Y210000D02*
X155000D01*
X158000Y213000D02*
X162193D01*
X161110Y209260D02*
X162193D01*
X180000Y163000D02*
X180500Y163500D01*
X44937Y190000D02*
Y197805D01*
X42000Y200742D02*
X44937Y197805D01*
X42000Y200742D02*
Y202000D01*
X125000Y68063D02*
X134000D01*
X9488Y234976D02*
X20000D01*
X61500Y179500D02*
Y188842D01*
Y179500D02*
X62000Y179000D01*
X71500Y188842D02*
Y190614D01*
X129949Y103000D02*
X130000D01*
X152000Y68063D02*
X161000D01*
X143000D02*
X152000D01*
X134000D02*
X143000D01*
X152000Y75937D02*
X152886D01*
X9345Y234833D02*
X9488Y234976D01*
X9000Y234488D02*
X9488D01*
X9689D02*
X12043Y232134D01*
Y231445D02*
Y232134D01*
X53000Y211000D02*
Y218520D01*
X66500Y188842D02*
Y198189D01*
X53000Y211000D02*
X53689D01*
X66500Y198189D01*
X52000Y193874D02*
Y202520D01*
X53000Y203520D01*
X45937Y218114D02*
Y219000D01*
X33165Y205342D02*
X45937Y218114D01*
X33165Y203165D02*
Y205342D01*
X32000Y202000D02*
X33165Y203165D01*
X45937Y219000D02*
X52520D01*
X53000Y218520D01*
X66500Y227386D02*
Y229157D01*
Y227386D02*
X70886Y223000D01*
X53000Y218520D02*
X54567Y220087D01*
X59201D01*
X66500Y227386D01*
X56846Y229157D02*
X61500D01*
X53689Y226000D02*
X56846Y229157D01*
X53000Y226000D02*
X53689D01*
X44937Y190000D02*
X46209Y188728D01*
X30000Y185000D02*
X31272Y186272D01*
X34220D01*
X37063Y189114D01*
Y190000D01*
X20000Y202000D02*
X32000D01*
X20000D02*
X20630Y201370D01*
Y192272D02*
Y201370D01*
Y192272D02*
X21902Y191000D01*
X22000D01*
X29898D01*
X30000Y191102D01*
X14937Y189114D02*
Y190000D01*
Y189114D02*
X16209Y187843D01*
X18957D01*
X21902Y184898D01*
X22000D01*
X10000Y193823D02*
Y202000D01*
X7063Y190886D02*
X10000Y193823D01*
X7063Y190000D02*
Y190886D01*
X66500Y169500D02*
Y188842D01*
X60000Y163000D02*
X66500Y169500D01*
X91500Y227386D02*
Y229157D01*
X96500D01*
X61500Y188842D02*
Y190614D01*
X60819Y191295D02*
X61500Y190614D01*
X58778Y191295D02*
X60819D01*
X56199Y193874D02*
X58778Y191295D01*
X52000Y193874D02*
X56199D01*
X55169Y159831D02*
Y167831D01*
X52000Y171000D02*
Y186000D01*
Y171000D02*
X55169Y167831D01*
X57000Y158000D02*
X65000D01*
X55169Y159831D02*
X57000Y158000D01*
X65000D02*
X70000Y163000D01*
X91500Y188842D02*
X96500D01*
X27528Y244528D02*
X29441D01*
X26000Y243000D02*
X27528Y244528D01*
X26000Y229823D02*
Y243000D01*
X30937Y217114D02*
Y218000D01*
Y217114D02*
X36000Y212051D01*
Y212000D02*
Y212051D01*
X23063Y226000D02*
Y226886D01*
X26000Y229823D01*
X35000Y222949D02*
Y229000D01*
X31770Y230109D02*
X33891D01*
X35000Y229000D01*
X32000Y232586D02*
X32586Y232000D01*
X37000D02*
X39330Y229670D01*
X29441Y232438D02*
Y235472D01*
X32586Y232000D02*
X37000D01*
X29441Y232438D02*
X31770Y230109D01*
X32000Y232586D02*
Y235472D01*
X30937Y225114D02*
Y226000D01*
X28823Y223000D02*
X30937Y225114D01*
X27177Y223000D02*
X28823D01*
X23063Y218000D02*
Y218886D01*
X27177Y223000D01*
X38063Y219000D02*
Y219886D01*
X35000Y222949D02*
X38063Y219886D01*
X31937Y219000D02*
X38063D01*
X20000Y246000D02*
X21472Y244528D01*
D18*
X17000Y257000D02*
D03*
X9126D02*
D03*
X51874Y177000D02*
D03*
X44000D02*
D03*
X38063Y219000D02*
D03*
X45937D02*
D03*
X23063Y218000D02*
D03*
X30937D02*
D03*
X23063Y226000D02*
D03*
X30937D02*
D03*
X158000Y226443D02*
D03*
X150126D02*
D03*
X171000Y54000D02*
D03*
X163126D02*
D03*
X37063Y190000D02*
D03*
X44937D02*
D03*
X14937D02*
D03*
X7063D02*
D03*
D19*
X29441Y244528D02*
D03*
X34559D02*
D03*
Y235472D02*
D03*
X32000D02*
D03*
X29441D02*
D03*
D20*
X161000Y75937D02*
D03*
Y68063D02*
D03*
X152000Y75937D02*
D03*
Y68063D02*
D03*
X143000Y75937D02*
D03*
Y68063D02*
D03*
X134000Y75937D02*
D03*
Y68063D02*
D03*
X125000Y75937D02*
D03*
Y68063D02*
D03*
X116000Y75937D02*
D03*
Y68063D02*
D03*
X214000Y75000D02*
D03*
Y67126D02*
D03*
X80000Y57000D02*
D03*
Y49126D02*
D03*
X42000Y58000D02*
D03*
Y50126D02*
D03*
X33000D02*
D03*
Y58000D02*
D03*
X89000Y49126D02*
D03*
Y57000D02*
D03*
X256000Y215874D02*
D03*
Y208000D02*
D03*
X237000Y208063D02*
D03*
Y215937D02*
D03*
X246000D02*
D03*
Y208063D02*
D03*
X202000Y208126D02*
D03*
Y216000D02*
D03*
X211000D02*
D03*
Y208126D02*
D03*
X220000D02*
D03*
Y216000D02*
D03*
X140000Y177126D02*
D03*
Y185000D02*
D03*
X148000Y177126D02*
D03*
Y185000D02*
D03*
X139740Y201866D02*
D03*
Y209740D02*
D03*
X147740Y201866D02*
D03*
Y209740D02*
D03*
X203000Y75000D02*
D03*
Y67126D02*
D03*
X52000Y186000D02*
D03*
Y193874D02*
D03*
X119000Y210937D02*
D03*
Y203063D02*
D03*
X109000Y210937D02*
D03*
Y203063D02*
D03*
D21*
X184000Y54000D02*
D03*
X191691Y57602D02*
D03*
D22*
Y50398D02*
D03*
D23*
X61500Y188842D02*
D03*
X66500D02*
D03*
X71500D02*
D03*
X76500D02*
D03*
X81500D02*
D03*
X86500D02*
D03*
X91500D02*
D03*
X96500D02*
D03*
X61500Y229157D02*
D03*
X66500D02*
D03*
X71500D02*
D03*
X76500D02*
D03*
X81500D02*
D03*
X86500D02*
D03*
X91500D02*
D03*
X96500D02*
D03*
D24*
X22500Y255000D02*
D03*
X36000Y212000D02*
D03*
D25*
X69500Y74630D02*
D03*
X64500D02*
D03*
X59500D02*
D03*
X54500D02*
D03*
X69500Y53370D02*
D03*
X64500D02*
D03*
X59500D02*
D03*
X54500D02*
D03*
D26*
X20000Y246000D02*
D03*
Y234976D02*
D03*
X9000Y234488D02*
D03*
Y245512D02*
D03*
D27*
X43000Y236740D02*
D03*
Y229260D02*
D03*
X53000Y211000D02*
D03*
Y203520D02*
D03*
Y218520D02*
D03*
Y226000D02*
D03*
D28*
X244102Y226000D02*
D03*
X238000D02*
D03*
X209102D02*
D03*
X203000D02*
D03*
X173000Y227000D02*
D03*
X179102D02*
D03*
D29*
X173807Y191740D02*
D03*
Y184260D02*
D03*
X162193D02*
D03*
Y188000D02*
D03*
Y191740D02*
D03*
Y216740D02*
D03*
Y213000D02*
D03*
Y209260D02*
D03*
X173807D02*
D03*
Y216740D02*
D03*
D30*
X184063Y74740D02*
D03*
Y67260D02*
D03*
X191937Y71000D02*
D03*
D31*
X22000Y184898D02*
D03*
Y191000D02*
D03*
X30000Y185000D02*
D03*
Y191102D02*
D03*
D50*
X51102Y244394D02*
D03*
X98346D02*
D03*
X95378Y30512D02*
D03*
X130811D02*
D03*
X256276Y31606D02*
D03*
X232653D02*
D03*
X111378Y244488D02*
D03*
X158622D02*
D03*
X192276Y243394D02*
D03*
X168654D02*
D03*
X85347Y30606D02*
D03*
X49913D02*
D03*
X176811Y30701D02*
D03*
X141378D02*
D03*
X201189Y243488D02*
D03*
X224811D02*
D03*
X234189D02*
D03*
X257811D02*
D03*
X186913Y30606D02*
D03*
X222346D02*
D03*
D51*
X107189Y26811D02*
D03*
X119000D02*
D03*
X107189Y15000D02*
D03*
X244465Y27905D02*
D03*
X180465Y247094D02*
D03*
X61724Y15094D02*
D03*
X73535Y26906D02*
D03*
X61724D02*
D03*
X153189Y15189D02*
D03*
X165000Y27000D02*
D03*
X153189D02*
D03*
X213000Y247189D02*
D03*
X246000D02*
D03*
X198724Y26906D02*
D03*
X210535D02*
D03*
X198724Y15094D02*
D03*
D52*
X119000Y15000D02*
D03*
X244465Y16094D02*
D03*
X180465Y258906D02*
D03*
X73535Y15094D02*
D03*
X165000Y15189D02*
D03*
X213000Y259000D02*
D03*
X246000D02*
D03*
X210535Y15094D02*
D03*
D53*
X127465Y20906D02*
D03*
X98724D02*
D03*
X252929Y22000D02*
D03*
X236000D02*
D03*
X188929Y253000D02*
D03*
X172000D02*
D03*
X53260Y21000D02*
D03*
X82000D02*
D03*
X144724Y21094D02*
D03*
X173465D02*
D03*
X204535Y253095D02*
D03*
X221465D02*
D03*
X237535D02*
D03*
X254465D02*
D03*
X219000Y21000D02*
D03*
X190260D02*
D03*
D59*
X82000Y228000D02*
Y255370D01*
X78966Y233396D02*
Y255033D01*
X74922Y259078D02*
X78966Y255033D01*
X74922Y259078D02*
Y260121D01*
X76500Y229157D02*
X76931Y229589D01*
Y231360D01*
X78966Y233396D01*
X79801Y265000D02*
X100000D01*
X74922Y260121D02*
X79801Y265000D01*
X100000D02*
X106000Y259000D01*
X89656Y262500D02*
X98965D01*
X103500Y257964D01*
X87062Y259906D02*
X89656Y262500D01*
X86535Y259906D02*
X87062D01*
X82000Y255370D02*
X86535Y259906D01*
X103500Y242500D02*
X112750Y233250D01*
X106000Y243535D02*
X115250Y234285D01*
X103500Y242500D02*
Y257964D01*
X106000Y243535D02*
Y259000D01*
X112750Y226750D02*
Y233250D01*
X115250Y226750D02*
Y234285D01*
X109000Y223000D02*
X112750Y226750D01*
X115250Y212837D02*
X116129Y211959D01*
X115250Y226750D02*
X119000Y223000D01*
X117978Y202041D02*
X119000Y203063D01*
X109000D02*
X110022Y202041D01*
X115250Y194750D02*
X119000Y191000D01*
X115250Y194750D02*
Y201163D01*
X116129Y202041D02*
X117978D01*
X109000Y191000D02*
X112750Y194750D01*
Y201163D01*
X111871Y202041D02*
X112750Y201163D01*
X110022Y202041D02*
X111871D01*
X115250Y201163D02*
X116129Y202041D01*
X115250Y212837D02*
Y219250D01*
X119000Y223000D01*
X109000D02*
X112750Y219250D01*
X117978Y211959D02*
X119000Y210937D01*
X116129Y211959D02*
X117978D01*
X110022D02*
X111871D01*
X112750Y212837D01*
Y219250D01*
X109000Y210937D02*
X110022Y211959D01*
D60*
X62913Y259906D02*
D03*
X74724D02*
D03*
X86535D02*
D03*
X62913Y248095D02*
D03*
X74724D02*
D03*
X86535D02*
D03*
X123189Y260000D02*
D03*
X135000D02*
D03*
X146811D02*
D03*
X123189Y248189D02*
D03*
X135000D02*
D03*
X146811D02*
D03*
D61*
X54449Y254000D02*
D03*
X95000D02*
D03*
X114724Y254095D02*
D03*
X155276D02*
D03*
D62*
X50000Y103000D02*
D03*
Y163000D02*
D03*
D63*
X60000Y103000D02*
D03*
Y163000D02*
D03*
X70000Y103000D02*
D03*
Y163000D02*
D03*
X80000Y103000D02*
D03*
Y163000D02*
D03*
X90000Y103000D02*
D03*
Y163000D02*
D03*
X100000Y103000D02*
D03*
Y163000D02*
D03*
X110000Y103000D02*
D03*
Y163000D02*
D03*
X120000Y103000D02*
D03*
Y163000D02*
D03*
X130000Y103000D02*
D03*
Y163000D02*
D03*
X140000Y103000D02*
D03*
Y163000D02*
D03*
X150000Y103000D02*
D03*
Y163000D02*
D03*
X160000Y103000D02*
D03*
Y163000D02*
D03*
X170000Y103000D02*
D03*
Y163000D02*
D03*
X180000Y103000D02*
D03*
Y163000D02*
D03*
X190000Y103000D02*
D03*
Y163000D02*
D03*
D64*
X102000Y53000D02*
D03*
Y63000D02*
D03*
Y73000D02*
D03*
X21000Y54000D02*
D03*
Y64000D02*
D03*
Y74000D02*
D03*
X144000Y53000D02*
D03*
X134000D02*
D03*
X109000Y223000D02*
D03*
X119000D02*
D03*
X250000Y198000D02*
D03*
Y188000D02*
D03*
Y178000D02*
D03*
X119000Y191000D02*
D03*
X109000D02*
D03*
X226000Y67000D02*
D03*
Y57000D02*
D03*
X275000Y67000D02*
D03*
Y57000D02*
D03*
Y178000D02*
D03*
Y188000D02*
D03*
Y198000D02*
D03*
X42000Y202000D02*
D03*
X32000D02*
D03*
X10000D02*
D03*
X20000D02*
D03*
D65*
X297244Y226339D02*
D03*
Y215433D02*
D03*
Y237244D02*
D03*
Y204528D02*
D03*
Y193622D02*
D03*
Y182717D02*
D03*
Y171811D02*
D03*
Y160906D02*
D03*
Y150000D02*
D03*
Y139094D02*
D03*
Y128189D02*
D03*
Y117283D02*
D03*
Y106378D02*
D03*
Y95473D02*
D03*
Y84567D02*
D03*
Y73661D02*
D03*
Y62756D02*
D03*
Y51850D02*
D03*
X308425Y242697D02*
D03*
Y231791D02*
D03*
Y220886D02*
D03*
Y209980D02*
D03*
Y199075D02*
D03*
Y188169D02*
D03*
Y177264D02*
D03*
Y166358D02*
D03*
Y155453D02*
D03*
Y144547D02*
D03*
Y133642D02*
D03*
Y122736D02*
D03*
Y111831D02*
D03*
Y100925D02*
D03*
Y90020D02*
D03*
Y79114D02*
D03*
Y68209D02*
D03*
Y57303D02*
D03*
D66*
X297244Y248150D02*
D03*
D67*
X302835Y25000D02*
D03*
Y275000D02*
D03*
D68*
X275000D02*
D03*
X25000D02*
D03*
X275000Y25000D02*
D03*
X25000D02*
D03*
D69*
X176000Y66000D02*
D03*
X85000Y139000D02*
D03*
Y128000D02*
D03*
X49000Y145000D02*
D03*
X85000Y151000D02*
D03*
X62000Y87000D02*
D03*
X93000Y177000D02*
D03*
X43000Y74000D02*
D03*
X70000Y46000D02*
D03*
X68000Y240000D02*
D03*
X150000Y119000D02*
D03*
X194000Y215000D02*
D03*
X330000Y151000D02*
D03*
X316000Y140000D02*
D03*
X229000Y205000D02*
D03*
X209000Y180000D02*
D03*
X198000D02*
D03*
X252000Y226000D02*
D03*
X29000Y256000D02*
D03*
X216000Y226000D02*
D03*
X188000Y227000D02*
D03*
X154911Y186089D02*
D03*
X155000Y210000D02*
D03*
X62000Y179000D02*
D03*
X35000Y261000D02*
D03*
X40000Y266000D02*
D03*
M02*
