G04*
G04 #@! TF.GenerationSoftware,Altium Limited,Altium Designer,23.1.1 (15)*
G04*
G04 Layer_Color=8388736*
%FSLAX25Y25*%
%MOIN*%
G70*
G04*
G04 #@! TF.SameCoordinates,F8F85EFA-0F4A-4E32-949D-36CD74FFCFB1*
G04*
G04*
G04 #@! TF.FilePolarity,Negative*
G04*
G01*
G75*
G04:AMPARAMS|DCode=21|XSize=65.3mil|YSize=24.68mil|CornerRadius=12.34mil|HoleSize=0mil|Usage=FLASHONLY|Rotation=180.000|XOffset=0mil|YOffset=0mil|HoleType=Round|Shape=RoundedRectangle|*
%AMROUNDEDRECTD21*
21,1,0.06530,0.00000,0,0,180.0*
21,1,0.04063,0.02468,0,0,180.0*
1,1,0.02468,-0.02031,0.00000*
1,1,0.02468,0.02031,0.00000*
1,1,0.02468,0.02031,0.00000*
1,1,0.02468,-0.02031,0.00000*
%
%ADD21ROUNDEDRECTD21*%
%ADD22R,0.06530X0.02468*%
%ADD32R,0.04343X0.06115*%
%ADD33R,0.02375X0.04343*%
%ADD34R,0.06115X0.04343*%
%ADD35R,0.03162X0.06706*%
%ADD36C,0.03800*%
%ADD37R,0.03359X0.06902*%
%ADD38R,0.07887X0.06509*%
%ADD39R,0.06312X0.04934*%
%ADD40R,0.04343X0.04540*%
G04:AMPARAMS|DCode=41|XSize=33.59mil|YSize=55.24mil|CornerRadius=5.92mil|HoleSize=0mil|Usage=FLASHONLY|Rotation=90.000|XOffset=0mil|YOffset=0mil|HoleType=Round|Shape=RoundedRectangle|*
%AMROUNDEDRECTD41*
21,1,0.03359,0.04341,0,0,90.0*
21,1,0.02175,0.05524,0,0,90.0*
1,1,0.01184,0.02170,0.01088*
1,1,0.01184,0.02170,-0.01088*
1,1,0.01184,-0.02170,-0.01088*
1,1,0.01184,-0.02170,0.01088*
%
%ADD41ROUNDEDRECTD41*%
%ADD42R,0.04343X0.03950*%
%ADD43R,0.04540X0.04343*%
%ADD44C,0.06584*%
%ADD45C,0.12057*%
%ADD46C,0.04616*%
%ADD47R,0.06824X0.06824*%
%ADD48C,0.06824*%
%ADD49C,0.07887*%
%ADD50C,0.04016*%
%ADD51C,0.06181*%
%ADD52R,0.06181X0.06181*%
%ADD53C,0.09488*%
%ADD54C,0.06706*%
%ADD55R,0.06706X0.06706*%
%ADD56C,0.19698*%
%ADD57C,0.17729*%
%ADD58C,0.05800*%
D21*
X184000Y54000D02*
D03*
X191691Y57602D02*
D03*
D22*
Y50398D02*
D03*
D32*
X17000Y257000D02*
D03*
X9126D02*
D03*
X51874Y177000D02*
D03*
X44000D02*
D03*
X38063Y219000D02*
D03*
X45937D02*
D03*
X23063Y218000D02*
D03*
X30937D02*
D03*
X23063Y226000D02*
D03*
X30937D02*
D03*
X158000Y226443D02*
D03*
X150126D02*
D03*
X171000Y54000D02*
D03*
X163126D02*
D03*
X37063Y190000D02*
D03*
X44937D02*
D03*
X14937D02*
D03*
X7063D02*
D03*
D33*
X29441Y244528D02*
D03*
X34559D02*
D03*
Y235472D02*
D03*
X32000D02*
D03*
X29441D02*
D03*
D34*
X161000Y75937D02*
D03*
Y68063D02*
D03*
X152000Y75937D02*
D03*
Y68063D02*
D03*
X143000Y75937D02*
D03*
Y68063D02*
D03*
X134000Y75937D02*
D03*
Y68063D02*
D03*
X125000Y75937D02*
D03*
Y68063D02*
D03*
X116000Y75937D02*
D03*
Y68063D02*
D03*
X214000Y75000D02*
D03*
Y67126D02*
D03*
X80000Y57000D02*
D03*
Y49126D02*
D03*
X42000Y58000D02*
D03*
Y50126D02*
D03*
X33000D02*
D03*
Y58000D02*
D03*
X89000Y49126D02*
D03*
Y57000D02*
D03*
X256000Y215874D02*
D03*
Y208000D02*
D03*
X237000Y208063D02*
D03*
Y215937D02*
D03*
X246000D02*
D03*
Y208063D02*
D03*
X202000Y208126D02*
D03*
Y216000D02*
D03*
X211000D02*
D03*
Y208126D02*
D03*
X220000D02*
D03*
Y216000D02*
D03*
X140000Y177126D02*
D03*
Y185000D02*
D03*
X148000Y177126D02*
D03*
Y185000D02*
D03*
X139740Y201866D02*
D03*
Y209740D02*
D03*
X147740Y201866D02*
D03*
Y209740D02*
D03*
X203000Y75000D02*
D03*
Y67126D02*
D03*
X52000Y186000D02*
D03*
Y193874D02*
D03*
X119000Y210937D02*
D03*
Y203063D02*
D03*
X109000Y210937D02*
D03*
Y203063D02*
D03*
D35*
X61500Y188842D02*
D03*
X66500D02*
D03*
X71500D02*
D03*
X76500D02*
D03*
X81500D02*
D03*
X86500D02*
D03*
X91500D02*
D03*
X96500D02*
D03*
X61500Y229157D02*
D03*
X66500D02*
D03*
X71500D02*
D03*
X76500D02*
D03*
X81500D02*
D03*
X86500D02*
D03*
X91500D02*
D03*
X96500D02*
D03*
D36*
X22500Y255000D02*
D03*
X36000Y212000D02*
D03*
D37*
X69500Y74630D02*
D03*
X64500D02*
D03*
X59500D02*
D03*
X54500D02*
D03*
X69500Y53370D02*
D03*
X64500D02*
D03*
X59500D02*
D03*
X54500D02*
D03*
D38*
X20000Y246000D02*
D03*
Y234976D02*
D03*
X9000Y234488D02*
D03*
Y245512D02*
D03*
D39*
X43000Y236740D02*
D03*
Y229260D02*
D03*
X53000Y211000D02*
D03*
Y203520D02*
D03*
Y218520D02*
D03*
Y226000D02*
D03*
D40*
X244102Y226000D02*
D03*
X238000D02*
D03*
X209102D02*
D03*
X203000D02*
D03*
X173000Y227000D02*
D03*
X179102D02*
D03*
D41*
X173807Y191740D02*
D03*
Y184260D02*
D03*
X162193D02*
D03*
Y188000D02*
D03*
Y191740D02*
D03*
Y216740D02*
D03*
Y213000D02*
D03*
Y209260D02*
D03*
X173807D02*
D03*
Y216740D02*
D03*
D42*
X184063Y74740D02*
D03*
Y67260D02*
D03*
X191937Y71000D02*
D03*
D43*
X22000Y184898D02*
D03*
Y191000D02*
D03*
X30000Y185000D02*
D03*
Y191102D02*
D03*
D44*
X62913Y259906D02*
D03*
X74724D02*
D03*
X86535D02*
D03*
X62913Y248095D02*
D03*
X74724D02*
D03*
X86535D02*
D03*
X123189Y260000D02*
D03*
X135000D02*
D03*
X146811D02*
D03*
X123189Y248189D02*
D03*
X135000D02*
D03*
X146811D02*
D03*
D45*
X54449Y254000D02*
D03*
X95000D02*
D03*
X114724Y254095D02*
D03*
X155276D02*
D03*
D46*
X51102Y244394D02*
D03*
X98346D02*
D03*
X111378Y244488D02*
D03*
X158622D02*
D03*
D47*
X50000Y103000D02*
D03*
Y163000D02*
D03*
D48*
X60000Y103000D02*
D03*
Y163000D02*
D03*
X70000Y103000D02*
D03*
Y163000D02*
D03*
X80000Y103000D02*
D03*
Y163000D02*
D03*
X90000Y103000D02*
D03*
Y163000D02*
D03*
X100000Y103000D02*
D03*
Y163000D02*
D03*
X110000Y103000D02*
D03*
Y163000D02*
D03*
X120000Y103000D02*
D03*
Y163000D02*
D03*
X130000Y103000D02*
D03*
Y163000D02*
D03*
X140000Y103000D02*
D03*
Y163000D02*
D03*
X150000Y103000D02*
D03*
Y163000D02*
D03*
X160000Y103000D02*
D03*
Y163000D02*
D03*
X170000Y103000D02*
D03*
Y163000D02*
D03*
X180000Y103000D02*
D03*
Y163000D02*
D03*
X190000Y103000D02*
D03*
Y163000D02*
D03*
D49*
X102000Y53000D02*
D03*
Y63000D02*
D03*
Y73000D02*
D03*
X21000Y54000D02*
D03*
Y64000D02*
D03*
Y74000D02*
D03*
X144000Y53000D02*
D03*
X134000D02*
D03*
X109000Y223000D02*
D03*
X119000D02*
D03*
X250000Y198000D02*
D03*
Y188000D02*
D03*
Y178000D02*
D03*
X119000Y191000D02*
D03*
X109000D02*
D03*
X226000Y67000D02*
D03*
Y57000D02*
D03*
X275000Y67000D02*
D03*
Y57000D02*
D03*
Y178000D02*
D03*
Y188000D02*
D03*
Y198000D02*
D03*
X42000Y202000D02*
D03*
X32000D02*
D03*
X10000D02*
D03*
X20000D02*
D03*
D50*
X95378Y30512D02*
D03*
X130811D02*
D03*
X256276Y31606D02*
D03*
X232653D02*
D03*
X192276Y243394D02*
D03*
X168654D02*
D03*
X85347Y30606D02*
D03*
X49913D02*
D03*
X176811Y30701D02*
D03*
X141378D02*
D03*
X201189Y243488D02*
D03*
X224811D02*
D03*
X234189D02*
D03*
X257811D02*
D03*
X186913Y30606D02*
D03*
X222346D02*
D03*
D51*
X107189Y26811D02*
D03*
X119000D02*
D03*
X107189Y15000D02*
D03*
X244465Y27905D02*
D03*
X180465Y247094D02*
D03*
X61724Y15094D02*
D03*
X73535Y26906D02*
D03*
X61724D02*
D03*
X153189Y15189D02*
D03*
X165000Y27000D02*
D03*
X153189D02*
D03*
X213000Y247189D02*
D03*
X246000D02*
D03*
X198724Y26906D02*
D03*
X210535D02*
D03*
X198724Y15094D02*
D03*
D52*
X119000Y15000D02*
D03*
X244465Y16094D02*
D03*
X180465Y258906D02*
D03*
X73535Y15094D02*
D03*
X165000Y15189D02*
D03*
X213000Y259000D02*
D03*
X246000D02*
D03*
X210535Y15094D02*
D03*
D53*
X127465Y20906D02*
D03*
X98724D02*
D03*
X252929Y22000D02*
D03*
X236000D02*
D03*
X188929Y253000D02*
D03*
X172000D02*
D03*
X53260Y21000D02*
D03*
X82000D02*
D03*
X144724Y21094D02*
D03*
X173465D02*
D03*
X204535Y253095D02*
D03*
X221465D02*
D03*
X237535D02*
D03*
X254465D02*
D03*
X219000Y21000D02*
D03*
X190260D02*
D03*
D54*
X297244Y226339D02*
D03*
Y215433D02*
D03*
Y237244D02*
D03*
Y204528D02*
D03*
Y193622D02*
D03*
Y182717D02*
D03*
Y171811D02*
D03*
Y160906D02*
D03*
Y150000D02*
D03*
Y139094D02*
D03*
Y128189D02*
D03*
Y117283D02*
D03*
Y106378D02*
D03*
Y95473D02*
D03*
Y84567D02*
D03*
Y73661D02*
D03*
Y62756D02*
D03*
Y51850D02*
D03*
X308425Y242697D02*
D03*
Y231791D02*
D03*
Y220886D02*
D03*
Y209980D02*
D03*
Y199075D02*
D03*
Y188169D02*
D03*
Y177264D02*
D03*
Y166358D02*
D03*
Y155453D02*
D03*
Y144547D02*
D03*
Y133642D02*
D03*
Y122736D02*
D03*
Y111831D02*
D03*
Y100925D02*
D03*
Y90020D02*
D03*
Y79114D02*
D03*
Y68209D02*
D03*
Y57303D02*
D03*
D55*
X297244Y248150D02*
D03*
D56*
X302835Y25000D02*
D03*
Y275000D02*
D03*
D57*
X275000D02*
D03*
X25000D02*
D03*
X275000Y25000D02*
D03*
X25000D02*
D03*
D58*
X176000Y66000D02*
D03*
X85000Y139000D02*
D03*
Y128000D02*
D03*
X49000Y145000D02*
D03*
X85000Y151000D02*
D03*
X62000Y87000D02*
D03*
X93000Y177000D02*
D03*
X43000Y74000D02*
D03*
X70000Y46000D02*
D03*
X68000Y240000D02*
D03*
X150000Y119000D02*
D03*
X194000Y215000D02*
D03*
X330000Y151000D02*
D03*
X316000Y140000D02*
D03*
X229000Y205000D02*
D03*
X209000Y180000D02*
D03*
X198000D02*
D03*
X252000Y226000D02*
D03*
X29000Y256000D02*
D03*
X216000Y226000D02*
D03*
X188000Y227000D02*
D03*
X154911Y186089D02*
D03*
X155000Y210000D02*
D03*
X62000Y179000D02*
D03*
X35000Y261000D02*
D03*
X40000Y266000D02*
D03*
M02*
