G04*
G04 #@! TF.GenerationSoftware,Altium Limited,Altium Designer,21.7.2 (23)*
G04*
G04 Layer_Physical_Order=2*
G04 Layer_Color=16711680*
%FSLAX25Y25*%
%MOIN*%
G70*
G04*
G04 #@! TF.SameCoordinates,1753F5FE-5082-4D15-9E76-917EA7E0E8BB*
G04*
G04*
G04 #@! TF.FilePolarity,Positive*
G04*
G01*
G75*
%ADD12C,0.01000*%
%ADD17C,0.03000*%
%ADD77C,0.10000*%
%ADD78C,0.11811*%
%ADD80C,0.02500*%
%ADD92C,0.15748*%
%ADD93C,0.07000*%
%ADD94C,0.10158*%
%ADD95C,0.15000*%
%ADD96C,0.07874*%
%ADD97C,0.12598*%
%ADD98C,0.09449*%
%ADD99C,0.17323*%
%ADD100C,0.14800*%
%ADD101C,0.16929*%
G36*
X241339Y-203150D02*
X297889Y-269291D01*
Y-411579D01*
X97412D01*
X97365Y-411466D01*
X96802Y-410903D01*
X96067Y-410598D01*
X95271D01*
X94536Y-410903D01*
X93974Y-411466D01*
X93669Y-412201D01*
Y-412996D01*
X93974Y-413731D01*
X94536Y-414294D01*
X95271Y-414598D01*
X96067D01*
X96802Y-414294D01*
X97365Y-413731D01*
X97412Y-413618D01*
X297889D01*
Y-417878D01*
X151969D01*
X151578Y-417956D01*
X151248Y-418177D01*
X146574Y-422850D01*
X146461Y-422803D01*
X145665D01*
X144930Y-423108D01*
X144368Y-423670D01*
X144063Y-424405D01*
Y-425201D01*
X144368Y-425936D01*
X144930Y-426499D01*
X145043Y-426546D01*
Y-466113D01*
X90275Y-520882D01*
X90162Y-520835D01*
X89366D01*
X88631Y-521139D01*
X88068Y-521702D01*
X87764Y-522437D01*
Y-523233D01*
X88068Y-523968D01*
X88631Y-524530D01*
X89366Y-524835D01*
X90162D01*
X90897Y-524530D01*
X91459Y-523968D01*
X91764Y-523233D01*
Y-522437D01*
X91717Y-522324D01*
X146784Y-467256D01*
X147005Y-466926D01*
X147083Y-466535D01*
Y-426546D01*
X147196Y-426499D01*
X147758Y-425936D01*
X148063Y-425201D01*
Y-424405D01*
X148016Y-424292D01*
X152391Y-419917D01*
X297889D01*
Y-485201D01*
X240580D01*
X220851Y-465472D01*
X220898Y-465358D01*
Y-464563D01*
X220593Y-463828D01*
X220030Y-463265D01*
X219296Y-462961D01*
X218500D01*
X217765Y-463265D01*
X217202Y-463828D01*
X216898Y-464563D01*
Y-465358D01*
X217202Y-466093D01*
X217765Y-466656D01*
X218500Y-466961D01*
X219296D01*
X219409Y-466914D01*
X239437Y-486941D01*
X239767Y-487162D01*
X240158Y-487240D01*
X297889D01*
Y-524965D01*
X136388D01*
X136341Y-524851D01*
X135779Y-524289D01*
X135044Y-523984D01*
X134248D01*
X133513Y-524289D01*
X132950Y-524851D01*
X132646Y-525586D01*
Y-526382D01*
X132950Y-527117D01*
X133513Y-527680D01*
X134248Y-527984D01*
X135044D01*
X135779Y-527680D01*
X136341Y-527117D01*
X136388Y-527004D01*
X297889D01*
Y-604724D01*
X81890D01*
X8268Y-544488D01*
Y-324016D01*
X38189Y-294094D01*
X46457Y-27559D01*
X241339D01*
Y-203150D01*
D02*
G37*
G36*
X677165Y-31890D02*
Y-53937D01*
Y-66929D01*
Y-355561D01*
X676650Y-356077D01*
X676123Y-356989D01*
X675850Y-358007D01*
Y-359060D01*
X676123Y-360077D01*
X676650Y-360989D01*
X677165Y-361505D01*
Y-367361D01*
X676650Y-367877D01*
X676123Y-368789D01*
X675850Y-369807D01*
Y-370860D01*
X676123Y-371877D01*
X676650Y-372789D01*
X677165Y-373305D01*
Y-379161D01*
X676650Y-379677D01*
X676123Y-380589D01*
X675850Y-381607D01*
Y-382660D01*
X676123Y-383677D01*
X676650Y-384589D01*
X677165Y-385105D01*
Y-390961D01*
X676650Y-391477D01*
X676123Y-392389D01*
X675850Y-393407D01*
Y-394460D01*
X676123Y-395477D01*
X676650Y-396389D01*
X677165Y-396905D01*
Y-441339D01*
Y-465354D01*
Y-562992D01*
X565354D01*
X524803Y-603543D01*
X316142D01*
Y-527004D01*
X369685D01*
X370075Y-526926D01*
X370406Y-526705D01*
X382166Y-514945D01*
X382279Y-514992D01*
X383075D01*
X383810Y-514688D01*
X384373Y-514125D01*
X384420Y-514012D01*
X415354D01*
X415744Y-513934D01*
X416075Y-513713D01*
X418780Y-511008D01*
X418893Y-511055D01*
X419689D01*
X420424Y-510751D01*
X420987Y-510188D01*
X421291Y-509453D01*
Y-508657D01*
X420987Y-507922D01*
X420424Y-507360D01*
X419689Y-507055D01*
X418893D01*
X418158Y-507360D01*
X417596Y-507922D01*
X417291Y-508657D01*
Y-509453D01*
X417338Y-509566D01*
X414932Y-511973D01*
X384420D01*
X384373Y-511859D01*
X383810Y-511297D01*
X383075Y-510992D01*
X382279D01*
X381544Y-511297D01*
X380982Y-511859D01*
X380677Y-512594D01*
Y-513390D01*
X380724Y-513503D01*
X369263Y-524965D01*
X316142D01*
Y-487240D01*
X388415D01*
X388462Y-487353D01*
X389025Y-487916D01*
X389760Y-488221D01*
X390555D01*
X391290Y-487916D01*
X391853Y-487353D01*
X392158Y-486618D01*
Y-485823D01*
X391853Y-485088D01*
X391290Y-484525D01*
X390555Y-484221D01*
X389760D01*
X389025Y-484525D01*
X388462Y-485088D01*
X388415Y-485201D01*
X316142D01*
Y-452362D01*
Y-445669D01*
Y-419917D01*
X355512D01*
X355902Y-419840D01*
X356233Y-419619D01*
X364894Y-410957D01*
X365115Y-410626D01*
X365193Y-410236D01*
X365115Y-409846D01*
X364894Y-409515D01*
X364563Y-409294D01*
X364173Y-409217D01*
X363783Y-409294D01*
X363452Y-409515D01*
X355089Y-417878D01*
X316142D01*
Y-413618D01*
X351575D01*
X351965Y-413540D01*
X352296Y-413319D01*
X364843Y-400772D01*
X364956Y-400819D01*
X365752D01*
X366487Y-400514D01*
X367050Y-399952D01*
X367097Y-399838D01*
X410827D01*
X426347Y-415359D01*
Y-417918D01*
X426425Y-418308D01*
X426646Y-418639D01*
X432693Y-424686D01*
X432646Y-424799D01*
Y-425595D01*
X432950Y-426330D01*
X433513Y-426892D01*
X434248Y-427197D01*
X435043D01*
X435779Y-426892D01*
X436341Y-426330D01*
X436646Y-425595D01*
Y-424799D01*
X436341Y-424064D01*
X435779Y-423501D01*
X435665Y-423454D01*
Y-351603D01*
X441692Y-345576D01*
X442081Y-345895D01*
X441971Y-346059D01*
X441894Y-346449D01*
Y-460069D01*
X441781Y-460115D01*
X441218Y-460678D01*
X440913Y-461413D01*
Y-462209D01*
X441218Y-462944D01*
X441781Y-463507D01*
X442516Y-463811D01*
X443311D01*
X444046Y-463507D01*
X444609Y-462944D01*
X444656Y-462831D01*
X572231D01*
X572621Y-462753D01*
X572952Y-462532D01*
X652725Y-382759D01*
X664077D01*
X664323Y-383677D01*
X664850Y-384589D01*
X665594Y-385334D01*
X666506Y-385860D01*
X667524Y-386133D01*
X668577D01*
X669594Y-385860D01*
X670506Y-385334D01*
X671251Y-384589D01*
X671778Y-383677D01*
X672050Y-382660D01*
Y-381607D01*
X671778Y-380589D01*
X671251Y-379677D01*
X670506Y-378932D01*
X669594Y-378406D01*
X668577Y-378133D01*
X667524D01*
X666506Y-378406D01*
X665594Y-378932D01*
X664850Y-379677D01*
X664323Y-380589D01*
X664288Y-380720D01*
X652302D01*
X651912Y-380797D01*
X651581Y-381018D01*
X571808Y-460791D01*
X444656D01*
X444609Y-460678D01*
X444046Y-460115D01*
X443933Y-460069D01*
Y-346871D01*
X450071Y-340733D01*
X450292Y-340402D01*
X450370Y-340012D01*
Y-337941D01*
X450292Y-337551D01*
X450071Y-337220D01*
X448607Y-335755D01*
X448276Y-335534D01*
X447886Y-335457D01*
X443933D01*
Y-288611D01*
X451851Y-280693D01*
X451964Y-280740D01*
X452760D01*
X453495Y-280436D01*
X454058Y-279873D01*
X454362Y-279138D01*
Y-278342D01*
X454058Y-277607D01*
X453495Y-277045D01*
X452760Y-276740D01*
X451964D01*
X451229Y-277045D01*
X450667Y-277607D01*
X450362Y-278342D01*
Y-279138D01*
X450409Y-279251D01*
X442192Y-287468D01*
X441971Y-287799D01*
X441894Y-288189D01*
Y-335891D01*
X441971Y-336281D01*
X442192Y-336612D01*
X442778Y-337197D01*
X443109Y-337418D01*
X443499Y-337496D01*
X444849D01*
X445092Y-337996D01*
X444850Y-338579D01*
Y-339374D01*
X444897Y-339488D01*
X433925Y-350460D01*
X433704Y-350791D01*
X433626Y-351181D01*
Y-422082D01*
X433164Y-422273D01*
X428386Y-417496D01*
Y-414937D01*
X428309Y-414546D01*
X428088Y-414216D01*
X411970Y-398098D01*
X411639Y-397877D01*
X411249Y-397799D01*
X367097D01*
X367050Y-397686D01*
X366487Y-397123D01*
X365752Y-396819D01*
X364956D01*
X364221Y-397123D01*
X363659Y-397686D01*
X363354Y-398421D01*
Y-399217D01*
X363401Y-399330D01*
X351152Y-411579D01*
X316142D01*
Y-330709D01*
Y-327559D01*
X374410Y-286221D01*
X372886Y-175020D01*
X374410Y-26509D01*
X677165D01*
Y-31890D01*
D02*
G37*
%LPC*%
G36*
X219132Y-60209D02*
X217482D01*
X215864Y-60531D01*
X214340Y-61162D01*
X212969Y-62078D01*
X211803Y-63245D01*
X210886Y-64616D01*
X210255Y-66140D01*
X209933Y-67758D01*
Y-69407D01*
X210255Y-71025D01*
X210886Y-72549D01*
X211803Y-73921D01*
X212969Y-75087D01*
X214340Y-76004D01*
X215864Y-76635D01*
X217482Y-76957D01*
X219132D01*
X220750Y-76635D01*
X222274Y-76004D01*
X223645Y-75087D01*
X224812Y-73921D01*
X225728Y-72549D01*
X226359Y-71025D01*
X226681Y-69407D01*
Y-67758D01*
X226359Y-66140D01*
X225728Y-64616D01*
X224812Y-63245D01*
X223645Y-62078D01*
X222274Y-61162D01*
X220750Y-60531D01*
X219132Y-60209D01*
D02*
G37*
G36*
X130824Y-88870D02*
X129019D01*
X127249Y-89222D01*
X125582Y-89913D01*
X124081Y-90915D01*
X122805Y-92191D01*
X121802Y-93692D01*
X121112Y-95359D01*
X120760Y-97129D01*
Y-98934D01*
X121112Y-100704D01*
X121802Y-102371D01*
X122805Y-103872D01*
X124081Y-105148D01*
X125582Y-106150D01*
X127249Y-106841D01*
X129019Y-107193D01*
X130824D01*
X132594Y-106841D01*
X134261Y-106150D01*
X135761Y-105148D01*
X137037Y-103872D01*
X138040Y-102371D01*
X138731Y-100704D01*
X139083Y-98934D01*
Y-97129D01*
X138731Y-95359D01*
X138040Y-93692D01*
X137037Y-92191D01*
X135761Y-90915D01*
X134261Y-89913D01*
X132594Y-89222D01*
X130824Y-88870D01*
D02*
G37*
G36*
X218891Y-104146D02*
X217723D01*
X216595Y-104448D01*
X215583Y-105032D01*
X214757Y-105858D01*
X214172Y-106870D01*
X213870Y-107999D01*
Y-109167D01*
X214172Y-110295D01*
X214757Y-111307D01*
X215583Y-112133D01*
X216595Y-112717D01*
X217723Y-113020D01*
X218891D01*
X220020Y-112717D01*
X221031Y-112133D01*
X221858Y-111307D01*
X222442Y-110295D01*
X222744Y-109167D01*
Y-107999D01*
X222442Y-106870D01*
X221858Y-105858D01*
X221031Y-105032D01*
X220020Y-104448D01*
X218891Y-104146D01*
D02*
G37*
G36*
Y-134146D02*
X217723D01*
X216595Y-134448D01*
X215583Y-135032D01*
X214757Y-135858D01*
X214172Y-136870D01*
X213870Y-137998D01*
Y-139167D01*
X214172Y-140295D01*
X214757Y-141307D01*
X215583Y-142133D01*
X216595Y-142717D01*
X217723Y-143020D01*
X218891D01*
X220020Y-142717D01*
X221031Y-142133D01*
X221858Y-141307D01*
X222442Y-140295D01*
X222744Y-139167D01*
Y-137998D01*
X222442Y-136870D01*
X221858Y-135858D01*
X221031Y-135032D01*
X220020Y-134448D01*
X218891Y-134146D01*
D02*
G37*
G36*
Y-164146D02*
X217723D01*
X216595Y-164448D01*
X215583Y-165032D01*
X214757Y-165858D01*
X214172Y-166870D01*
X213870Y-167999D01*
Y-169167D01*
X214172Y-170295D01*
X214757Y-171307D01*
X215583Y-172133D01*
X216595Y-172717D01*
X217723Y-173020D01*
X218891D01*
X220020Y-172717D01*
X221031Y-172133D01*
X221858Y-171307D01*
X222442Y-170295D01*
X222744Y-169167D01*
Y-167999D01*
X222442Y-166870D01*
X221858Y-165858D01*
X221031Y-165032D01*
X220020Y-164448D01*
X218891Y-164146D01*
D02*
G37*
G36*
X130824Y-247138D02*
X129019D01*
X127249Y-247490D01*
X125582Y-248181D01*
X124081Y-249183D01*
X122805Y-250459D01*
X121802Y-251960D01*
X121112Y-253627D01*
X120760Y-255397D01*
Y-257202D01*
X121112Y-258972D01*
X121802Y-260639D01*
X122805Y-262139D01*
X124081Y-263415D01*
X125582Y-264418D01*
X127249Y-265109D01*
X129019Y-265461D01*
X130824D01*
X132594Y-265109D01*
X134261Y-264418D01*
X135761Y-263415D01*
X137037Y-262139D01*
X138040Y-260639D01*
X138731Y-258972D01*
X139083Y-257202D01*
Y-255397D01*
X138731Y-253627D01*
X138040Y-251960D01*
X137037Y-250459D01*
X135761Y-249183D01*
X134261Y-248181D01*
X132594Y-247490D01*
X130824Y-247138D01*
D02*
G37*
G36*
X285566Y-290094D02*
X284513D01*
X283495Y-290367D01*
X282583Y-290894D01*
X281839Y-291638D01*
X281312Y-292551D01*
X281039Y-293568D01*
Y-294621D01*
X281312Y-295638D01*
X281839Y-296551D01*
X282583Y-297295D01*
X283495Y-297822D01*
X284513Y-298095D01*
X285566D01*
X286583Y-297822D01*
X287495Y-297295D01*
X288240Y-296551D01*
X288767Y-295638D01*
X289039Y-294621D01*
Y-293568D01*
X288767Y-292551D01*
X288240Y-291638D01*
X287495Y-290894D01*
X286583Y-290367D01*
X285566Y-290094D01*
D02*
G37*
G36*
X157774Y-353437D02*
X156399D01*
X155070Y-353793D01*
X153879Y-354481D01*
X152906Y-355454D01*
X152218Y-356645D01*
X151862Y-357974D01*
Y-359349D01*
X152218Y-360678D01*
X152906Y-361869D01*
X153879Y-362842D01*
X155070Y-363530D01*
X156399Y-363886D01*
X157774D01*
X159103Y-363530D01*
X160294Y-362842D01*
X161267Y-361869D01*
X161955Y-360678D01*
X162311Y-359349D01*
Y-357974D01*
X161955Y-356645D01*
X161267Y-355454D01*
X160294Y-354481D01*
X159103Y-353793D01*
X157774Y-353437D01*
D02*
G37*
G36*
X98719D02*
X97344D01*
X96015Y-353793D01*
X94824Y-354481D01*
X93851Y-355454D01*
X93163Y-356645D01*
X92807Y-357974D01*
Y-359349D01*
X93163Y-360678D01*
X93851Y-361869D01*
X94824Y-362842D01*
X96015Y-363530D01*
X97344Y-363886D01*
X98719D01*
X100048Y-363530D01*
X101239Y-362842D01*
X102212Y-361869D01*
X102900Y-360678D01*
X103256Y-359349D01*
Y-357974D01*
X102900Y-356645D01*
X102212Y-355454D01*
X101239Y-354481D01*
X100048Y-353793D01*
X98719Y-353437D01*
D02*
G37*
G36*
X67205Y-362492D02*
X65866D01*
X64552Y-362753D01*
X63315Y-363266D01*
X62201Y-364010D01*
X61254Y-364957D01*
X60510Y-366071D01*
X59997Y-367308D01*
X59736Y-368622D01*
Y-369961D01*
X59997Y-371275D01*
X60510Y-372512D01*
X61254Y-373626D01*
X62201Y-374573D01*
X63315Y-375317D01*
X64552Y-375829D01*
X65866Y-376091D01*
X67205D01*
X68519Y-375829D01*
X69756Y-375317D01*
X70870Y-374573D01*
X71817Y-373626D01*
X72561Y-372512D01*
X73073Y-371275D01*
X73335Y-369961D01*
Y-368622D01*
X73073Y-367308D01*
X72561Y-366071D01*
X71817Y-364957D01*
X70870Y-364010D01*
X69756Y-363266D01*
X68519Y-362753D01*
X67205Y-362492D01*
D02*
G37*
G36*
X143701Y-388052D02*
X61417D01*
X60162Y-388175D01*
X58954Y-388542D01*
X57841Y-389136D01*
X56866Y-389937D01*
X32850Y-413953D01*
X32050Y-414928D01*
X31895Y-415217D01*
X30315D01*
X29059Y-415341D01*
X27852Y-415707D01*
X26739Y-416302D01*
X25764Y-417102D01*
X24963Y-418078D01*
X24368Y-419190D01*
X24002Y-420398D01*
X23878Y-421654D01*
X24002Y-422909D01*
X24368Y-424117D01*
X24963Y-425230D01*
X25764Y-426205D01*
X26739Y-427005D01*
X27852Y-427600D01*
X29059Y-427966D01*
X30315Y-428090D01*
X37402D01*
X38657Y-427966D01*
X39865Y-427600D01*
X40977Y-427005D01*
X41953Y-426205D01*
X42753Y-425230D01*
X43348Y-424117D01*
X43714Y-422909D01*
X43838Y-421654D01*
Y-421170D01*
X64083Y-400925D01*
X141035D01*
X145055Y-404945D01*
X146030Y-405745D01*
X147143Y-406340D01*
X148351Y-406706D01*
X149606Y-406830D01*
X150862Y-406706D01*
X152069Y-406340D01*
X153182Y-405745D01*
X154158Y-404945D01*
X154958Y-403970D01*
X155553Y-402857D01*
X155919Y-401649D01*
X156043Y-400394D01*
X155919Y-399138D01*
X155553Y-397931D01*
X154958Y-396818D01*
X154158Y-395842D01*
X148252Y-389937D01*
X147277Y-389136D01*
X146164Y-388542D01*
X144957Y-388175D01*
X143701Y-388052D01*
D02*
G37*
G36*
X30842Y-405842D02*
X29788D01*
X28771Y-406115D01*
X27859Y-406642D01*
X27114Y-407386D01*
X26588Y-408299D01*
X26315Y-409316D01*
Y-410369D01*
X26588Y-411386D01*
X27114Y-412299D01*
X27859Y-413043D01*
X28771Y-413570D01*
X29788Y-413842D01*
X30842D01*
X31859Y-413570D01*
X32771Y-413043D01*
X33516Y-412299D01*
X34042Y-411386D01*
X34315Y-410369D01*
Y-409316D01*
X34042Y-408299D01*
X33516Y-407386D01*
X32771Y-406642D01*
X31859Y-406115D01*
X30842Y-405842D01*
D02*
G37*
G36*
X67205Y-402650D02*
X65866D01*
X64552Y-402911D01*
X63315Y-403423D01*
X62201Y-404168D01*
X61254Y-405115D01*
X60510Y-406228D01*
X59997Y-407466D01*
X59736Y-408779D01*
Y-410118D01*
X59997Y-411432D01*
X60510Y-412669D01*
X61254Y-413783D01*
X62201Y-414730D01*
X63315Y-415474D01*
X64552Y-415987D01*
X65866Y-416248D01*
X67205D01*
X68519Y-415987D01*
X69756Y-415474D01*
X70870Y-414730D01*
X71817Y-413783D01*
X72561Y-412669D01*
X73073Y-411432D01*
X73335Y-410118D01*
Y-408779D01*
X73073Y-407466D01*
X72561Y-406228D01*
X71817Y-405115D01*
X70870Y-404168D01*
X69756Y-403423D01*
X68519Y-402911D01*
X67205Y-402650D01*
D02*
G37*
G36*
X109725Y-449500D02*
X108386D01*
X107072Y-449761D01*
X105834Y-450274D01*
X104721Y-451018D01*
X103774Y-451965D01*
X103030Y-453079D01*
X102517Y-454316D01*
X102256Y-455630D01*
Y-456969D01*
X102517Y-458283D01*
X103030Y-459520D01*
X103774Y-460633D01*
X104721Y-461581D01*
X105834Y-462325D01*
X107072Y-462837D01*
X108386Y-463098D01*
X109725D01*
X111038Y-462837D01*
X112276Y-462325D01*
X113389Y-461581D01*
X114336Y-460633D01*
X115080Y-459520D01*
X115593Y-458283D01*
X115854Y-456969D01*
Y-455630D01*
X115593Y-454316D01*
X115080Y-453079D01*
X114336Y-451965D01*
X113389Y-451018D01*
X112276Y-450274D01*
X111038Y-449761D01*
X109725Y-449500D01*
D02*
G37*
G36*
X29660Y-483795D02*
X28607D01*
X27590Y-484068D01*
X26678Y-484594D01*
X25933Y-485339D01*
X25407Y-486251D01*
X25134Y-487269D01*
Y-488322D01*
X25407Y-489339D01*
X25933Y-490251D01*
X26678Y-490996D01*
X27590Y-491523D01*
X28607Y-491795D01*
X29660D01*
X30678Y-491523D01*
X31590Y-490996D01*
X32335Y-490251D01*
X32861Y-489339D01*
X33134Y-488322D01*
Y-487269D01*
X32861Y-486251D01*
X32335Y-485339D01*
X31590Y-484594D01*
X30678Y-484068D01*
X29660Y-483795D01*
D02*
G37*
G36*
X110512Y-483752D02*
X109173D01*
X107859Y-484013D01*
X106622Y-484526D01*
X105508Y-485270D01*
X104561Y-486217D01*
X103817Y-487331D01*
X103305Y-488568D01*
X103043Y-489882D01*
Y-491221D01*
X103305Y-492534D01*
X103817Y-493772D01*
X104561Y-494885D01*
X105508Y-495832D01*
X106622Y-496577D01*
X107859Y-497089D01*
X109173Y-497350D01*
X110512D01*
X111826Y-497089D01*
X113063Y-496577D01*
X114177Y-495832D01*
X115124Y-494885D01*
X115868Y-493772D01*
X116380Y-492534D01*
X116642Y-491221D01*
Y-489882D01*
X116380Y-488568D01*
X115868Y-487331D01*
X115124Y-486217D01*
X114177Y-485270D01*
X113063Y-484526D01*
X111826Y-484013D01*
X110512Y-483752D01*
D02*
G37*
G36*
X29660Y-495606D02*
X28607D01*
X27590Y-495879D01*
X26678Y-496406D01*
X25933Y-497150D01*
X25407Y-498062D01*
X25134Y-499080D01*
Y-500133D01*
X25407Y-501150D01*
X25933Y-502062D01*
X26678Y-502807D01*
X27590Y-503334D01*
X28607Y-503606D01*
X29660D01*
X30678Y-503334D01*
X31590Y-502807D01*
X32335Y-502062D01*
X32861Y-501150D01*
X33134Y-500133D01*
Y-499080D01*
X32861Y-498062D01*
X32335Y-497150D01*
X31590Y-496406D01*
X30678Y-495879D01*
X29660Y-495606D01*
D02*
G37*
G36*
X67993Y-523122D02*
X66653D01*
X65340Y-523383D01*
X64102Y-523896D01*
X62989Y-524640D01*
X62041Y-525587D01*
X61298Y-526701D01*
X60785Y-527938D01*
X60524Y-529252D01*
Y-530591D01*
X60785Y-531905D01*
X61298Y-533142D01*
X62041Y-534256D01*
X62989Y-535203D01*
X64102Y-535947D01*
X65340Y-536459D01*
X66653Y-536721D01*
X67993D01*
X69306Y-536459D01*
X70543Y-535947D01*
X71657Y-535203D01*
X72604Y-534256D01*
X73348Y-533142D01*
X73861Y-531905D01*
X74122Y-530591D01*
Y-529252D01*
X73861Y-527938D01*
X73348Y-526701D01*
X72604Y-525587D01*
X71657Y-524640D01*
X70543Y-523896D01*
X69306Y-523383D01*
X67993Y-523122D01*
D02*
G37*
G36*
X133862Y-533039D02*
X133067D01*
X132332Y-533344D01*
X131769Y-533907D01*
X131465Y-534642D01*
Y-535437D01*
X131769Y-536172D01*
X132332Y-536735D01*
X133067Y-537039D01*
X133862D01*
X133976Y-536992D01*
X141011Y-544028D01*
X141342Y-544249D01*
X141732Y-544327D01*
X218336D01*
X218383Y-544440D01*
X218946Y-545003D01*
X219681Y-545307D01*
X220477D01*
X221212Y-545003D01*
X221774Y-544440D01*
X222079Y-543705D01*
Y-542909D01*
X221774Y-542174D01*
X221212Y-541612D01*
X220477Y-541307D01*
X219681D01*
X218946Y-541612D01*
X218383Y-542174D01*
X218336Y-542287D01*
X142155D01*
X135418Y-535550D01*
X135465Y-535437D01*
Y-534642D01*
X135160Y-533907D01*
X134598Y-533344D01*
X133862Y-533039D01*
D02*
G37*
G36*
X210530Y-560917D02*
X209155D01*
X207826Y-561273D01*
X206635Y-561961D01*
X205662Y-562934D01*
X204974Y-564125D01*
X204618Y-565454D01*
Y-566829D01*
X204974Y-568158D01*
X205662Y-569350D01*
X206635Y-570322D01*
X207826Y-571010D01*
X209155Y-571366D01*
X210530D01*
X211859Y-571010D01*
X213050Y-570322D01*
X214023Y-569350D01*
X214711Y-568158D01*
X215067Y-566829D01*
Y-565454D01*
X214711Y-564125D01*
X214023Y-562934D01*
X213050Y-561961D01*
X211859Y-561273D01*
X210530Y-560917D01*
D02*
G37*
G36*
X151475D02*
X150100D01*
X148771Y-561273D01*
X147580Y-561961D01*
X146607Y-562934D01*
X145919Y-564125D01*
X145563Y-565454D01*
Y-566829D01*
X145919Y-568158D01*
X146607Y-569350D01*
X147580Y-570322D01*
X148771Y-571010D01*
X150100Y-571366D01*
X151475D01*
X152804Y-571010D01*
X153995Y-570322D01*
X154968Y-569350D01*
X155656Y-568158D01*
X156012Y-566829D01*
Y-565454D01*
X155656Y-564125D01*
X154968Y-562934D01*
X153995Y-561961D01*
X152804Y-561273D01*
X151475Y-560917D01*
D02*
G37*
G36*
X67993Y-563279D02*
X66653D01*
X65340Y-563541D01*
X64102Y-564053D01*
X62989Y-564797D01*
X62041Y-565744D01*
X61298Y-566858D01*
X60785Y-568095D01*
X60524Y-569409D01*
Y-570748D01*
X60785Y-572062D01*
X61298Y-573299D01*
X62041Y-574413D01*
X62989Y-575360D01*
X64102Y-576104D01*
X65340Y-576617D01*
X66653Y-576878D01*
X67993D01*
X69306Y-576617D01*
X70543Y-576104D01*
X71657Y-575360D01*
X72604Y-574413D01*
X73348Y-573299D01*
X73861Y-572062D01*
X74122Y-570748D01*
Y-569409D01*
X73861Y-568095D01*
X73348Y-566858D01*
X72604Y-565744D01*
X71657Y-564797D01*
X70543Y-564053D01*
X69306Y-563541D01*
X67993Y-563279D01*
D02*
G37*
G36*
X640949Y-38157D02*
X640153D01*
X639418Y-38462D01*
X638856Y-39025D01*
X638551Y-39760D01*
Y-40555D01*
X638856Y-41290D01*
X639418Y-41853D01*
X639532Y-41900D01*
Y-85806D01*
X625126Y-100212D01*
X624904Y-100543D01*
X624827Y-100933D01*
Y-110345D01*
X623739Y-111433D01*
X623626Y-111386D01*
X622830D01*
X622095Y-111690D01*
X621533Y-112253D01*
X621228Y-112988D01*
Y-113784D01*
X621533Y-114519D01*
X622095Y-115081D01*
X622830Y-115386D01*
X623626D01*
X624361Y-115081D01*
X624924Y-114519D01*
X625228Y-113784D01*
Y-112988D01*
X625181Y-112875D01*
X626567Y-111489D01*
X626788Y-111158D01*
X626827Y-110965D01*
X627327Y-111014D01*
Y-113502D01*
X623660Y-117169D01*
X622363D01*
X621973Y-117246D01*
X621642Y-117467D01*
X618228Y-120882D01*
X618114Y-120835D01*
X617319D01*
X616584Y-121139D01*
X616021Y-121702D01*
X615717Y-122437D01*
Y-123232D01*
X616021Y-123968D01*
X616584Y-124530D01*
X617319Y-124835D01*
X618114D01*
X618849Y-124530D01*
X619412Y-123968D01*
X619717Y-123232D01*
Y-122437D01*
X619670Y-122324D01*
X622785Y-119208D01*
X624083D01*
X624473Y-119130D01*
X624804Y-118909D01*
X629067Y-114646D01*
X629288Y-114315D01*
X629366Y-113925D01*
Y-103711D01*
X629479Y-103664D01*
X630042Y-103101D01*
X630346Y-102366D01*
Y-101571D01*
X630042Y-100836D01*
X629479Y-100273D01*
X628897Y-100032D01*
X628715Y-99507D01*
X641272Y-86949D01*
X641493Y-86618D01*
X641571Y-86228D01*
Y-41900D01*
X641684Y-41853D01*
X642247Y-41290D01*
X642294Y-41177D01*
X651940D01*
X664582Y-53820D01*
X664535Y-53933D01*
Y-54729D01*
X664840Y-55464D01*
X665403Y-56026D01*
X666138Y-56331D01*
X666933D01*
X667668Y-56026D01*
X668231Y-55464D01*
X668535Y-54729D01*
Y-53933D01*
X668231Y-53198D01*
X667668Y-52635D01*
X666933Y-52331D01*
X666138D01*
X666024Y-52378D01*
X653083Y-39437D01*
X652752Y-39215D01*
X652362Y-39138D01*
X642294D01*
X642247Y-39025D01*
X641684Y-38462D01*
X640949Y-38157D01*
D02*
G37*
G36*
X409289Y-60209D02*
X407640D01*
X406022Y-60531D01*
X404498Y-61162D01*
X403126Y-62078D01*
X401960Y-63245D01*
X401044Y-64616D01*
X400412Y-66140D01*
X400091Y-67758D01*
Y-69407D01*
X400412Y-71025D01*
X401044Y-72549D01*
X401960Y-73921D01*
X403126Y-75087D01*
X404498Y-76004D01*
X406022Y-76635D01*
X407640Y-76957D01*
X409289D01*
X410907Y-76635D01*
X412431Y-76004D01*
X413803Y-75087D01*
X414969Y-73921D01*
X415885Y-72549D01*
X416517Y-71025D01*
X416839Y-69407D01*
Y-67758D01*
X416517Y-66140D01*
X415885Y-64616D01*
X414969Y-63245D01*
X413803Y-62078D01*
X412431Y-61162D01*
X410907Y-60531D01*
X409289Y-60209D01*
D02*
G37*
G36*
X560634Y-70047D02*
X559838D01*
X559103Y-70352D01*
X558541Y-70914D01*
X558236Y-71649D01*
Y-72445D01*
X558541Y-73180D01*
X559103Y-73743D01*
X559217Y-73790D01*
Y-87767D01*
X548543Y-98441D01*
X548429Y-98394D01*
X547634D01*
X546899Y-98698D01*
X546336Y-99261D01*
X546032Y-99996D01*
Y-100792D01*
X546336Y-101527D01*
X546899Y-102089D01*
X547634Y-102394D01*
X548429D01*
X549164Y-102089D01*
X549727Y-101527D01*
X550032Y-100792D01*
Y-99996D01*
X549985Y-99883D01*
X560957Y-88910D01*
X561178Y-88579D01*
X561256Y-88189D01*
Y-73790D01*
X561369Y-73743D01*
X561932Y-73180D01*
X562236Y-72445D01*
Y-71649D01*
X561932Y-70914D01*
X561369Y-70352D01*
X560634Y-70047D01*
D02*
G37*
G36*
X618902Y-101543D02*
X618106D01*
X617371Y-101848D01*
X616808Y-102410D01*
X616504Y-103146D01*
Y-103796D01*
X615807Y-104492D01*
X598593D01*
X598546Y-104379D01*
X597983Y-103816D01*
X597248Y-103512D01*
X596453D01*
X595717Y-103816D01*
X595155Y-104379D01*
X594850Y-105114D01*
Y-105910D01*
X594897Y-106023D01*
X589341Y-111579D01*
X584026D01*
X583979Y-111466D01*
X583416Y-110903D01*
X582681Y-110598D01*
X581886D01*
X581151Y-110903D01*
X580588Y-111466D01*
X580283Y-112201D01*
Y-112996D01*
X580588Y-113731D01*
X581151Y-114294D01*
X581886Y-114598D01*
X582681D01*
X583416Y-114294D01*
X583979Y-113731D01*
X584026Y-113618D01*
X589351D01*
X589558Y-114118D01*
X584617Y-119059D01*
X524044D01*
X516126Y-111141D01*
X516173Y-111028D01*
Y-110232D01*
X515869Y-109497D01*
X515306Y-108934D01*
X514571Y-108630D01*
X513775D01*
X513040Y-108934D01*
X512478Y-109497D01*
X512173Y-110232D01*
Y-111028D01*
X512478Y-111763D01*
X513040Y-112325D01*
X513775Y-112630D01*
X514571D01*
X514684Y-112583D01*
X522901Y-120800D01*
X523232Y-121021D01*
X523622Y-121098D01*
X585039D01*
X585430Y-121021D01*
X585760Y-120800D01*
X597571Y-108989D01*
X597792Y-108658D01*
X597870Y-108268D01*
Y-107254D01*
X597983Y-107207D01*
X598546Y-106645D01*
X598593Y-106531D01*
X616230D01*
X616620Y-106454D01*
X616951Y-106233D01*
X617777Y-105407D01*
X618106Y-105543D01*
X618902D01*
X619637Y-105239D01*
X620199Y-104676D01*
X620504Y-103941D01*
Y-103146D01*
X620199Y-102410D01*
X619637Y-101848D01*
X618902Y-101543D01*
D02*
G37*
G36*
X409049Y-104146D02*
X407880D01*
X406752Y-104448D01*
X405740Y-105032D01*
X404914Y-105858D01*
X404330Y-106870D01*
X404028Y-107999D01*
Y-109167D01*
X404330Y-110295D01*
X404914Y-111307D01*
X405740Y-112133D01*
X406752Y-112717D01*
X407880Y-113020D01*
X409049D01*
X410177Y-112717D01*
X411189Y-112133D01*
X412015Y-111307D01*
X412599Y-110295D01*
X412902Y-109167D01*
Y-107999D01*
X412599Y-106870D01*
X412015Y-105858D01*
X411189Y-105032D01*
X410177Y-104448D01*
X409049Y-104146D01*
D02*
G37*
G36*
Y-134146D02*
X407880D01*
X406752Y-134448D01*
X405740Y-135032D01*
X404914Y-135858D01*
X404330Y-136870D01*
X404028Y-137998D01*
Y-139167D01*
X404330Y-140295D01*
X404914Y-141307D01*
X405740Y-142133D01*
X406752Y-142717D01*
X407880Y-143020D01*
X409049D01*
X410177Y-142717D01*
X411189Y-142133D01*
X412015Y-141307D01*
X412599Y-140295D01*
X412902Y-139167D01*
Y-137998D01*
X412599Y-136870D01*
X412015Y-135858D01*
X411189Y-135032D01*
X410177Y-134448D01*
X409049Y-134146D01*
D02*
G37*
G36*
Y-164146D02*
X407880D01*
X406752Y-164448D01*
X405740Y-165032D01*
X404914Y-165858D01*
X404330Y-166870D01*
X404028Y-167999D01*
Y-169167D01*
X404330Y-170295D01*
X404914Y-171307D01*
X405740Y-172133D01*
X406752Y-172717D01*
X407880Y-173020D01*
X409049D01*
X410177Y-172717D01*
X411189Y-172133D01*
X412015Y-171307D01*
X412599Y-170295D01*
X412902Y-169167D01*
Y-167999D01*
X412599Y-166870D01*
X412015Y-165858D01*
X411189Y-165032D01*
X410177Y-164448D01*
X409049Y-164146D01*
D02*
G37*
G36*
X652309Y-185366D02*
X650840D01*
X649422Y-185746D01*
X648149Y-186481D01*
X647111Y-187520D01*
X646376Y-188792D01*
X645996Y-190210D01*
Y-191679D01*
X646376Y-193098D01*
X647111Y-194370D01*
X648149Y-195409D01*
X649422Y-196143D01*
X650840Y-196524D01*
X652309D01*
X653728Y-196143D01*
X655000Y-195409D01*
X656039Y-194370D01*
X656773Y-193098D01*
X657154Y-191679D01*
Y-190210D01*
X656773Y-188792D01*
X656039Y-187520D01*
X655000Y-186481D01*
X653728Y-185746D01*
X652309Y-185366D01*
D02*
G37*
G36*
X639790D02*
X638321D01*
X636902Y-185746D01*
X635630Y-186481D01*
X634591Y-187520D01*
X633856Y-188792D01*
X633476Y-190210D01*
Y-191679D01*
X633856Y-193098D01*
X634591Y-194370D01*
X635630Y-195409D01*
X636902Y-196143D01*
X638321Y-196524D01*
X639790D01*
X641208Y-196143D01*
X642481Y-195409D01*
X643519Y-194370D01*
X644254Y-193098D01*
X644634Y-191679D01*
Y-190210D01*
X644254Y-188792D01*
X643519Y-187520D01*
X642481Y-186481D01*
X641208Y-185746D01*
X639790Y-185366D01*
D02*
G37*
G36*
X593705Y-132646D02*
X592909D01*
X592174Y-132950D01*
X591612Y-133513D01*
X591307Y-134248D01*
Y-135044D01*
X591612Y-135779D01*
X592174Y-136341D01*
X592287Y-136388D01*
Y-169656D01*
X547989Y-213955D01*
X547656Y-213700D01*
X546318Y-213145D01*
X544882Y-212957D01*
X544882Y-212957D01*
X542520D01*
X541084Y-213145D01*
X539746Y-213700D01*
X538597Y-214581D01*
X537715Y-215730D01*
X537161Y-217068D01*
X536972Y-218504D01*
X537161Y-219940D01*
X537571Y-220929D01*
X496387Y-262113D01*
X496000Y-262692D01*
X495864Y-263375D01*
Y-343667D01*
X495193Y-344054D01*
X494448Y-344799D01*
X493921Y-345711D01*
X493649Y-346728D01*
Y-347365D01*
X493546D01*
X492863Y-347501D01*
X492284Y-347888D01*
X492284Y-347888D01*
X486482Y-353691D01*
X486095Y-354269D01*
X485959Y-354952D01*
Y-363158D01*
X486095Y-363841D01*
X486482Y-364420D01*
X495864Y-373803D01*
Y-377570D01*
X496000Y-378253D01*
X496387Y-378832D01*
X510549Y-392994D01*
X510549Y-392994D01*
X511128Y-393381D01*
X511811Y-393517D01*
X514516D01*
Y-409448D01*
X514651Y-410131D01*
X515038Y-410710D01*
X520331Y-416003D01*
Y-421048D01*
X515425Y-425953D01*
X515039Y-426532D01*
X514910Y-427181D01*
X513184Y-428907D01*
X512327Y-428677D01*
X511273D01*
X510256Y-428950D01*
X509344Y-429476D01*
X508599Y-430221D01*
X508073Y-431133D01*
X507800Y-432151D01*
Y-433204D01*
X508073Y-434221D01*
X508599Y-435133D01*
X509344Y-435878D01*
X510256Y-436405D01*
X511273Y-436677D01*
X512327D01*
X513344Y-436405D01*
X514256Y-435878D01*
X515001Y-435133D01*
X515527Y-434221D01*
X515800Y-433204D01*
Y-432151D01*
X515628Y-431509D01*
X517949Y-429189D01*
X517949Y-429189D01*
X518336Y-428610D01*
X518465Y-427960D01*
X523377Y-423048D01*
X523764Y-422470D01*
X523899Y-421787D01*
Y-415264D01*
X523764Y-414581D01*
X523377Y-414002D01*
X523377Y-414002D01*
X518084Y-408709D01*
Y-392678D01*
X518084Y-392678D01*
X517948Y-391995D01*
X517562Y-391416D01*
X517562Y-391416D01*
X516616Y-390471D01*
X516037Y-390084D01*
X515354Y-389948D01*
X512550D01*
X499433Y-376831D01*
Y-373064D01*
X499433Y-373064D01*
X499297Y-372381D01*
X498911Y-371802D01*
X498911Y-371802D01*
X489528Y-362419D01*
Y-355691D01*
X494285Y-350934D01*
X495754D01*
X495952Y-350894D01*
X496105Y-350982D01*
X497122Y-351255D01*
X498175D01*
X499193Y-350982D01*
X500105Y-350456D01*
X500850Y-349711D01*
X501376Y-348799D01*
X501649Y-347782D01*
Y-346728D01*
X501376Y-345711D01*
X500850Y-344799D01*
X500105Y-344054D01*
X499433Y-343667D01*
Y-264114D01*
X540094Y-223452D01*
X541084Y-223862D01*
X542520Y-224051D01*
X544882D01*
X546318Y-223862D01*
X547656Y-223308D01*
X548805Y-222427D01*
X549686Y-221278D01*
X550240Y-219940D01*
X550429Y-218504D01*
X550240Y-217068D01*
X549686Y-215730D01*
X549431Y-215397D01*
X594028Y-170800D01*
X594249Y-170469D01*
X594327Y-170079D01*
Y-136388D01*
X594440Y-136341D01*
X595003Y-135779D01*
X595307Y-135044D01*
Y-134248D01*
X595003Y-133513D01*
X594440Y-132950D01*
X593705Y-132646D01*
D02*
G37*
G36*
X651916Y-294421D02*
X650447D01*
X649028Y-294801D01*
X647756Y-295536D01*
X646717Y-296575D01*
X645983Y-297847D01*
X645602Y-299266D01*
Y-300734D01*
X645983Y-302153D01*
X646717Y-303425D01*
X647756Y-304464D01*
X649028Y-305199D01*
X650447Y-305579D01*
X651916D01*
X653334Y-305199D01*
X654606Y-304464D01*
X655645Y-303425D01*
X656380Y-302153D01*
X656760Y-300734D01*
Y-299266D01*
X656380Y-297847D01*
X655645Y-296575D01*
X654606Y-295536D01*
X653334Y-294801D01*
X651916Y-294421D01*
D02*
G37*
G36*
X639396D02*
X637927D01*
X636508Y-294801D01*
X635236Y-295536D01*
X634197Y-296575D01*
X633463Y-297847D01*
X633083Y-299266D01*
Y-300734D01*
X633463Y-302153D01*
X634197Y-303425D01*
X635236Y-304464D01*
X636508Y-305199D01*
X637927Y-305579D01*
X639396D01*
X640815Y-305199D01*
X642087Y-304464D01*
X643125Y-303425D01*
X643860Y-302153D01*
X644240Y-300734D01*
Y-299266D01*
X643860Y-297847D01*
X643125Y-296575D01*
X642087Y-295536D01*
X640815Y-294801D01*
X639396Y-294421D01*
D02*
G37*
G36*
X509975Y-343255D02*
X508922D01*
X507905Y-343528D01*
X506993Y-344054D01*
X506248Y-344799D01*
X505721Y-345711D01*
X505449Y-346728D01*
Y-347782D01*
X505721Y-348799D01*
X506248Y-349711D01*
X506993Y-350456D01*
X507905Y-350982D01*
X508922Y-351255D01*
X509975D01*
X510993Y-350982D01*
X511905Y-350456D01*
X512650Y-349711D01*
X513176Y-348799D01*
X513449Y-347782D01*
Y-346728D01*
X513176Y-345711D01*
X512650Y-344799D01*
X511905Y-344054D01*
X510993Y-343528D01*
X509975Y-343255D01*
D02*
G37*
G36*
X668577Y-354533D02*
X667524D01*
X666506Y-354806D01*
X665594Y-355332D01*
X664850Y-356077D01*
X664323Y-356989D01*
X664050Y-358007D01*
Y-359060D01*
X664323Y-360077D01*
X664850Y-360989D01*
X665594Y-361734D01*
X666506Y-362261D01*
X667524Y-362533D01*
X668577D01*
X669594Y-362261D01*
X670506Y-361734D01*
X671251Y-360989D01*
X671778Y-360077D01*
X672050Y-359060D01*
Y-358007D01*
X671778Y-356989D01*
X671251Y-356077D01*
X670506Y-355332D01*
X669594Y-354806D01*
X668577Y-354533D01*
D02*
G37*
G36*
X498175Y-355055D02*
X497122D01*
X496105Y-355328D01*
X495193Y-355854D01*
X494448Y-356599D01*
X493921Y-357511D01*
X493649Y-358528D01*
Y-359582D01*
X493921Y-360599D01*
X494448Y-361511D01*
X495193Y-362256D01*
X496105Y-362783D01*
X497122Y-363055D01*
X498175D01*
X499193Y-362783D01*
X500105Y-362256D01*
X500850Y-361511D01*
X501376Y-360599D01*
X501649Y-359582D01*
Y-358528D01*
X501376Y-357511D01*
X500850Y-356599D01*
X500105Y-355854D01*
X499193Y-355328D01*
X498175Y-355055D01*
D02*
G37*
G36*
X668577Y-366333D02*
X667524D01*
X666506Y-366606D01*
X665594Y-367132D01*
X664850Y-367877D01*
X664323Y-368789D01*
X664050Y-369807D01*
Y-370860D01*
X664323Y-371877D01*
X664850Y-372789D01*
X665594Y-373534D01*
X666506Y-374061D01*
X667524Y-374333D01*
X668577D01*
X669594Y-374061D01*
X670506Y-373534D01*
X671251Y-372789D01*
X671778Y-371877D01*
X672050Y-370860D01*
Y-369807D01*
X671778Y-368789D01*
X671251Y-367877D01*
X670506Y-367132D01*
X669594Y-366606D01*
X668577Y-366333D01*
D02*
G37*
G36*
Y-389933D02*
X667524D01*
X666506Y-390206D01*
X665594Y-390732D01*
X664850Y-391477D01*
X664323Y-392389D01*
X664050Y-393407D01*
Y-394460D01*
X664323Y-395477D01*
X664850Y-396389D01*
X665594Y-397134D01*
X666506Y-397660D01*
X667524Y-397933D01*
X668577D01*
X669594Y-397660D01*
X670506Y-397134D01*
X671251Y-396389D01*
X671778Y-395477D01*
X672050Y-394460D01*
Y-393407D01*
X671778Y-392389D01*
X671251Y-391477D01*
X670506Y-390732D01*
X669594Y-390206D01*
X668577Y-389933D01*
D02*
G37*
G36*
X512327Y-416877D02*
X511273D01*
X510256Y-417150D01*
X509344Y-417676D01*
X508599Y-418421D01*
X508073Y-419333D01*
X507800Y-420351D01*
Y-421404D01*
X508073Y-422421D01*
X508599Y-423333D01*
X509344Y-424078D01*
X510256Y-424605D01*
X511273Y-424877D01*
X512327D01*
X513344Y-424605D01*
X514256Y-424078D01*
X515001Y-423333D01*
X515527Y-422421D01*
X515800Y-421404D01*
Y-420351D01*
X515527Y-419333D01*
X515001Y-418421D01*
X514256Y-417676D01*
X513344Y-417150D01*
X512327Y-416877D01*
D02*
G37*
G36*
X348823Y-421228D02*
X348027D01*
X347292Y-421533D01*
X346730Y-422095D01*
X346425Y-422830D01*
Y-423626D01*
X346730Y-424361D01*
X347292Y-424924D01*
X347406Y-424971D01*
Y-428712D01*
X345393Y-430724D01*
X345280Y-430677D01*
X344484D01*
X343749Y-430982D01*
X343186Y-431544D01*
X342882Y-432279D01*
Y-433075D01*
X343186Y-433810D01*
X343749Y-434373D01*
X344484Y-434677D01*
X345280D01*
X346015Y-434373D01*
X346577Y-433810D01*
X346882Y-433075D01*
Y-432279D01*
X346835Y-432166D01*
X349146Y-429855D01*
X349367Y-429524D01*
X349445Y-429134D01*
Y-424971D01*
X349558Y-424924D01*
X350121Y-424361D01*
X350425Y-423626D01*
Y-422830D01*
X350121Y-422095D01*
X349558Y-421533D01*
X348823Y-421228D01*
D02*
G37*
G36*
X500527Y-428677D02*
X499473D01*
X498456Y-428950D01*
X497544Y-429476D01*
X496799Y-430221D01*
X496273Y-431133D01*
X496000Y-432151D01*
Y-433204D01*
X496273Y-434221D01*
X496799Y-435133D01*
X497544Y-435878D01*
X498456Y-436405D01*
X499473Y-436677D01*
X500527D01*
X501544Y-436405D01*
X502456Y-435878D01*
X503201Y-435133D01*
X503727Y-434221D01*
X504000Y-433204D01*
Y-432151D01*
X503727Y-431133D01*
X503201Y-430221D01*
X502456Y-429476D01*
X501544Y-428950D01*
X500527Y-428677D01*
D02*
G37*
G36*
X527596Y-268004D02*
X525947D01*
X524329Y-268326D01*
X522805Y-268957D01*
X521433Y-269873D01*
X520267Y-271040D01*
X519351Y-272411D01*
X518719Y-273935D01*
X518398Y-275553D01*
Y-277203D01*
X518719Y-278821D01*
X519351Y-280345D01*
X520267Y-281716D01*
X521433Y-282882D01*
X522805Y-283799D01*
X524329Y-284430D01*
X525752Y-284713D01*
Y-290538D01*
X525830Y-290928D01*
X526051Y-291259D01*
X534626Y-299834D01*
Y-438362D01*
X534425Y-438563D01*
X473484D01*
X473349Y-438237D01*
X472786Y-437675D01*
X472673Y-437628D01*
Y-436643D01*
X477099Y-432217D01*
X477320Y-431886D01*
X477397Y-431496D01*
Y-331270D01*
X477511Y-331223D01*
X478074Y-330661D01*
X478378Y-329925D01*
Y-329130D01*
X478074Y-328395D01*
X477511Y-327832D01*
X476776Y-327528D01*
X475980D01*
X475245Y-327832D01*
X474682Y-328395D01*
X474378Y-329130D01*
Y-329925D01*
X474682Y-330661D01*
X475245Y-331223D01*
X475358Y-331270D01*
Y-431074D01*
X470933Y-435499D01*
X470712Y-435830D01*
X470634Y-436221D01*
Y-437628D01*
X470521Y-437675D01*
X469958Y-438237D01*
X469654Y-438972D01*
Y-439768D01*
X469958Y-440503D01*
X470521Y-441066D01*
X471256Y-441370D01*
X472051D01*
X472786Y-441066D01*
X473250Y-440602D01*
X534847D01*
X535238Y-440525D01*
X535568Y-440304D01*
X536367Y-439505D01*
X536588Y-439175D01*
X536665Y-438784D01*
Y-299412D01*
X536588Y-299022D01*
X536367Y-298691D01*
X527791Y-290116D01*
Y-284713D01*
X529214Y-284430D01*
X530738Y-283799D01*
X532110Y-282882D01*
X533276Y-281716D01*
X534193Y-280345D01*
X534824Y-278821D01*
X535146Y-277203D01*
Y-275553D01*
X534824Y-273935D01*
X534193Y-272411D01*
X533276Y-271040D01*
X532110Y-269873D01*
X530738Y-268957D01*
X529214Y-268326D01*
X527596Y-268004D01*
D02*
G37*
G36*
X639120Y-463323D02*
X638067D01*
X637050Y-463595D01*
X636138Y-464122D01*
X635393Y-464867D01*
X634866Y-465779D01*
X634594Y-466796D01*
Y-467849D01*
X634866Y-468867D01*
X635393Y-469779D01*
X636138Y-470524D01*
X637050Y-471050D01*
X638067Y-471323D01*
X639120D01*
X640138Y-471050D01*
X641050Y-470524D01*
X641794Y-469779D01*
X642321Y-468867D01*
X642594Y-467849D01*
Y-466796D01*
X642321Y-465779D01*
X641794Y-464867D01*
X641050Y-464122D01*
X640138Y-463595D01*
X639120Y-463323D01*
D02*
G37*
G36*
Y-475123D02*
X638067D01*
X637050Y-475395D01*
X636138Y-475922D01*
X635393Y-476667D01*
X634866Y-477579D01*
X634594Y-478596D01*
Y-479649D01*
X634866Y-480667D01*
X635393Y-481579D01*
X636138Y-482324D01*
X637050Y-482850D01*
X638067Y-483123D01*
X639120D01*
X640138Y-482850D01*
X641050Y-482324D01*
X641794Y-481579D01*
X642321Y-480667D01*
X642594Y-479649D01*
Y-478596D01*
X642321Y-477579D01*
X641794Y-476667D01*
X641050Y-475922D01*
X640138Y-475395D01*
X639120Y-475123D01*
D02*
G37*
G36*
X512636Y-505012D02*
X510986D01*
X509368Y-505334D01*
X507844Y-505965D01*
X506473Y-506881D01*
X505306Y-508048D01*
X504390Y-509419D01*
X503759Y-510943D01*
X503437Y-512561D01*
Y-514211D01*
X503759Y-515828D01*
X504390Y-517352D01*
X505306Y-518724D01*
X506473Y-519890D01*
X507844Y-520807D01*
X509368Y-521438D01*
X510986Y-521760D01*
X512636D01*
X514254Y-521438D01*
X515778Y-520807D01*
X517149Y-519890D01*
X518316Y-518724D01*
X519232Y-517352D01*
X519863Y-515828D01*
X520185Y-514211D01*
Y-512561D01*
X519863Y-510943D01*
X519232Y-509419D01*
X518316Y-508048D01*
X517149Y-506881D01*
X515778Y-505965D01*
X514254Y-505334D01*
X512636Y-505012D01*
D02*
G37*
G36*
X650920Y-475123D02*
X649867D01*
X648850Y-475395D01*
X647938Y-475922D01*
X647193Y-476667D01*
X646666Y-477579D01*
X646394Y-478596D01*
Y-479649D01*
X646666Y-480667D01*
X647193Y-481579D01*
X647938Y-482324D01*
X648850Y-482850D01*
X649374Y-482991D01*
Y-518504D01*
X649452Y-518894D01*
X649673Y-519225D01*
X656315Y-525867D01*
X656268Y-525980D01*
Y-526776D01*
X656572Y-527511D01*
X657135Y-528074D01*
X657870Y-528378D01*
X658666D01*
X659401Y-528074D01*
X659963Y-527511D01*
X660268Y-526776D01*
Y-525980D01*
X659963Y-525245D01*
X659401Y-524682D01*
X658666Y-524378D01*
X657870D01*
X657757Y-524425D01*
X651413Y-518082D01*
Y-482991D01*
X651938Y-482850D01*
X652850Y-482324D01*
X653594Y-481579D01*
X654121Y-480667D01*
X654394Y-479649D01*
Y-478596D01*
X654121Y-477579D01*
X653594Y-476667D01*
X652850Y-475922D01*
X651938Y-475395D01*
X650920Y-475123D01*
D02*
G37*
%LPD*%
D12*
X471654Y-439370D02*
Y-436221D01*
X476378Y-431496D01*
Y-329528D01*
X535646Y-438784D02*
Y-299412D01*
X526772Y-290538D02*
X535646Y-299412D01*
X534847Y-439583D02*
X535646Y-438784D01*
X622363Y-118188D02*
X624083D01*
X628346Y-113925D01*
X617717Y-122835D02*
X622363Y-118188D01*
X628346Y-113925D02*
Y-101969D01*
X623228Y-113386D02*
X625846Y-110768D01*
Y-100933D01*
X640551Y-40157D02*
X652362D01*
X666535Y-54331D01*
X625846Y-100933D02*
X640551Y-86228D01*
Y-40157D01*
X616230Y-105512D02*
X618198Y-103543D01*
X582283Y-112598D02*
X589764D01*
X596850Y-105512D01*
X365354Y-398819D02*
X411249D01*
X427367Y-417918D02*
X434646Y-425197D01*
X427367Y-417918D02*
Y-414937D01*
X411249Y-398819D02*
X427367Y-414937D01*
X442913Y-335891D02*
Y-288189D01*
Y-335891D02*
X443499Y-336476D01*
X447886D02*
X449350Y-337941D01*
X442913Y-346449D02*
X449350Y-340012D01*
X442913Y-288189D02*
X452362Y-278740D01*
X443499Y-336476D02*
X447886D01*
X449350Y-340012D02*
Y-337941D01*
X442913Y-461811D02*
Y-346449D01*
X434646Y-351181D02*
X446850Y-338976D01*
X434646Y-425197D02*
Y-351181D01*
X95669Y-412598D02*
X351575D01*
X471654Y-439370D02*
X471866Y-439583D01*
X534847D01*
X596850Y-105512D02*
X616230D01*
X593307Y-170079D02*
Y-134646D01*
X544882Y-218504D02*
X593307Y-170079D01*
X348425Y-429134D02*
Y-423228D01*
X344882Y-432677D02*
X348425Y-429134D01*
X355512Y-418898D02*
X364173Y-410236D01*
X151969Y-418898D02*
X355512D01*
X146063Y-424803D02*
X151969Y-418898D01*
X548032Y-100394D02*
X560236Y-88189D01*
Y-72047D01*
X523622Y-120079D02*
X585039D01*
X596850Y-108268D02*
Y-105512D01*
X585039Y-120079D02*
X596850Y-108268D01*
X514173Y-110630D02*
X523622Y-120079D01*
X141732Y-543307D02*
X220079D01*
X133465Y-535039D02*
X141732Y-543307D01*
X146063Y-466535D02*
Y-424803D01*
X89764Y-522835D02*
X146063Y-466535D01*
X134646Y-525984D02*
X369685D01*
X382677Y-512992D01*
X351575Y-412598D02*
X365354Y-398819D01*
X667657Y-381739D02*
X668050Y-382133D01*
X652302Y-381739D02*
X667657D01*
X526772Y-290538D02*
Y-276378D01*
X650394Y-518504D02*
Y-479123D01*
Y-518504D02*
X658268Y-526378D01*
X572231Y-461811D02*
X652302Y-381739D01*
X442913Y-461811D02*
X572231D01*
X382677Y-512992D02*
X415354D01*
X419291Y-509055D01*
X240158Y-486221D02*
X390158D01*
X218898Y-464961D02*
X240158Y-486221D01*
D17*
X461417Y-521654D02*
D03*
X476378Y-329528D02*
D03*
X546063Y-360630D02*
D03*
X617717Y-122835D02*
D03*
X623228Y-113386D02*
D03*
X666535Y-54331D02*
D03*
X618504Y-103543D02*
D03*
X628346Y-101969D02*
D03*
X512992Y-77953D02*
D03*
X461885Y-382366D02*
D03*
X445413Y-318110D02*
D03*
X446850Y-338976D02*
D03*
X448425Y-289370D02*
D03*
X95669Y-412598D02*
D03*
X540945Y-220079D02*
D03*
X541823Y-215445D02*
D03*
X149213Y-396063D02*
D03*
X149606Y-400394D02*
D03*
X146063Y-398819D02*
D03*
X146850Y-403150D02*
D03*
X640551Y-40157D02*
D03*
X344882Y-432677D02*
D03*
X348425Y-423228D02*
D03*
X363779Y-468504D02*
D03*
X548032Y-100394D02*
D03*
X560236Y-72047D02*
D03*
X482283Y-211811D02*
D03*
X582283Y-112598D02*
D03*
X596850Y-105512D02*
D03*
X581496Y-143701D02*
D03*
X593307Y-134646D02*
D03*
X514173Y-110630D02*
D03*
X583465Y-78740D02*
D03*
X542520Y-141732D02*
D03*
X171653Y-455118D02*
D03*
X265354Y-392126D02*
D03*
X133465Y-535039D02*
D03*
X220079Y-543307D02*
D03*
X89764Y-522835D02*
D03*
X146063Y-424803D02*
D03*
X134646Y-525984D02*
D03*
X248425Y-516535D02*
D03*
X206693Y-429528D02*
D03*
X365354Y-398819D02*
D03*
X434646Y-425197D02*
D03*
X471654Y-439370D02*
D03*
X658268Y-526378D02*
D03*
X544882Y-218504D02*
D03*
X452362Y-278740D02*
D03*
X442913Y-461811D02*
D03*
X374803Y-575197D02*
D03*
X382677Y-512992D02*
D03*
X419291Y-509055D02*
D03*
X390158Y-486221D02*
D03*
X218898Y-464961D02*
D03*
X656693Y-503543D02*
D03*
X457874Y-449606D02*
D03*
X561417Y-432283D02*
D03*
X557874Y-372835D02*
D03*
X411417Y-311417D02*
D03*
X414173Y-351181D02*
D03*
X383465Y-348031D02*
D03*
X382677Y-379921D02*
D03*
X364173Y-410236D02*
D03*
X400394Y-430709D02*
D03*
X457480Y-483858D02*
D03*
X405512Y-487008D02*
D03*
X373622Y-516535D02*
D03*
D77*
X544882Y-218504D02*
X544882Y-218504D01*
X542520Y-218504D02*
X544882D01*
D78*
X143701Y-394488D02*
X149606Y-400394D01*
X61417Y-394488D02*
X143701D01*
X37402Y-418504D02*
X61417Y-394488D01*
X37402Y-421654D02*
Y-418504D01*
X30315Y-421654D02*
X37402D01*
D80*
X511937Y-432677D02*
X516687Y-427927D01*
Y-427215D02*
X522115Y-421787D01*
X516687Y-427927D02*
Y-427215D01*
X511800Y-432677D02*
X511937D01*
X516300Y-409448D02*
Y-392678D01*
X511811Y-391732D02*
X515354D01*
X497649Y-377570D02*
X511811Y-391732D01*
X515354D02*
X516300Y-392678D01*
X497649Y-377570D02*
Y-373064D01*
X487743Y-363158D02*
Y-354952D01*
X495754Y-349150D02*
X497649Y-347255D01*
X493546Y-349150D02*
X495754D01*
X487743Y-363158D02*
X497649Y-373064D01*
X487743Y-354952D02*
X493546Y-349150D01*
X497649Y-263375D02*
X542520Y-218504D01*
X522115Y-421787D02*
Y-415264D01*
X516300Y-409448D02*
X522115Y-415264D01*
X497649Y-347255D02*
Y-263375D01*
D92*
X526772Y-305906D02*
D03*
Y-276378D02*
D03*
X218307Y-68583D02*
D03*
Y-208583D02*
D03*
X408465Y-68583D02*
D03*
Y-208583D02*
D03*
X511811Y-513386D02*
D03*
Y-483858D02*
D03*
D93*
X29134Y-499606D02*
D03*
Y-487795D02*
D03*
X497649Y-359055D02*
D03*
Y-347255D02*
D03*
X509449Y-359055D02*
D03*
Y-347255D02*
D03*
X511800Y-420877D02*
D03*
Y-432677D02*
D03*
X500000Y-420877D02*
D03*
Y-432677D02*
D03*
X285039Y-294094D02*
D03*
X273228D02*
D03*
X638594Y-467323D02*
D03*
X650394D02*
D03*
X638594Y-479123D02*
D03*
X650394D02*
D03*
X29921Y-355906D02*
D03*
Y-367717D02*
D03*
X30315Y-421654D02*
D03*
Y-409842D02*
D03*
X668050Y-370333D02*
D03*
Y-358533D02*
D03*
X679850D02*
D03*
Y-370333D02*
D03*
Y-393933D02*
D03*
Y-382133D02*
D03*
X668050D02*
D03*
Y-393933D02*
D03*
D94*
X651575Y-161445D02*
D03*
X639055Y-190945D02*
D03*
Y-161445D02*
D03*
X651575Y-190945D02*
D03*
X651181Y-300000D02*
D03*
X638661Y-270500D02*
D03*
Y-300000D02*
D03*
X651181Y-270500D02*
D03*
D95*
X703268Y-142744D02*
D03*
Y-209646D02*
D03*
X702874Y-318701D02*
D03*
Y-251799D02*
D03*
D96*
X218307Y-108583D02*
D03*
Y-138583D02*
D03*
Y-168583D02*
D03*
X408465Y-108583D02*
D03*
Y-138583D02*
D03*
Y-168583D02*
D03*
D97*
X109843Y-490551D02*
D03*
X69685D02*
D03*
X66535Y-409449D02*
D03*
Y-369291D02*
D03*
X67323Y-529921D02*
D03*
Y-570079D02*
D03*
X109055Y-456299D02*
D03*
X68898D02*
D03*
D98*
X157087Y-358661D02*
D03*
X98032D02*
D03*
X150787Y-566142D02*
D03*
X209842D02*
D03*
D99*
X90551Y-98032D02*
D03*
X129921D02*
D03*
X90551Y-256299D02*
D03*
X129921D02*
D03*
D100*
X696850Y-366933D02*
D03*
Y-385433D02*
D03*
D101*
X21260Y-614567D02*
D03*
X692520Y-612992D02*
D03*
X20079Y-25591D02*
D03*
X693701Y-29134D02*
D03*
M02*
