G04*
G04 #@! TF.GenerationSoftware,Altium Limited,Altium Designer,21.9.2 (33)*
G04*
G04 Layer_Color=0*
%FSLAX25Y25*%
%MOIN*%
G70*
G04*
G04 #@! TF.SameCoordinates,20C0D9CC-F100-46A5-AC51-F6AD6B347EFB*
G04*
G04*
G04 #@! TF.FilePolarity,Positive*
G04*
G01*
G75*
%ADD12C,0.01000*%
%ADD15C,0.00500*%
%ADD17C,0.00600*%
D12*
Y0D02*
Y489500D01*
X700000D01*
Y0D02*
Y489500D01*
X0Y0D02*
X700000D01*
X712000Y6000D02*
X714000Y0D01*
X716000Y6000D01*
X714000Y489500D02*
X716000Y483500D01*
X712000D02*
X714000Y489500D01*
Y0D02*
Y222056D01*
Y264244D02*
Y489500D01*
X701500Y0D02*
X715000D01*
X701500Y489500D02*
X715000D01*
X0Y496500D02*
X6000Y498500D01*
X0Y496500D02*
X6000Y494500D01*
X694000D02*
X700000Y496500D01*
X694000Y498500D02*
X700000Y496500D01*
X0D02*
X700000D01*
X0D02*
X700000D01*
X0Y491000D02*
Y497500D01*
X700000Y491000D02*
Y497500D01*
X0Y0D02*
Y489500D01*
X700000D01*
Y0D02*
Y489500D01*
X0Y0D02*
X700000D01*
X712000Y6000D02*
X714000Y0D01*
X716000Y6000D01*
X714000Y489500D02*
X716000Y483500D01*
X712000D02*
X714000Y489500D01*
Y0D02*
Y222056D01*
Y264244D02*
Y489500D01*
X701500Y0D02*
X715000D01*
X701500Y489500D02*
X715000D01*
X0Y496500D02*
X6000Y498500D01*
X0Y496500D02*
X6000Y494500D01*
X694000D02*
X700000Y496500D01*
X694000Y498500D02*
X700000Y496500D01*
X0D02*
X700000D01*
X0D02*
X700000D01*
X0Y491000D02*
Y497500D01*
X700000Y491000D02*
Y497500D01*
D15*
X17504Y181004D02*
X90496D01*
Y378996D01*
X17504D02*
X90496D01*
X17504Y181004D02*
Y378996D01*
Y181004D02*
X90496D01*
Y378996D01*
X17504D02*
X90496D01*
X17504Y181004D02*
Y378996D01*
Y181004D02*
X90496D01*
Y378996D01*
X17504D02*
X90496D01*
X17504Y181004D02*
Y378996D01*
Y181004D02*
X90496D01*
Y378996D01*
X17504D02*
X90496D01*
X17504Y181004D02*
Y378996D01*
D17*
X717599Y226655D02*
X711601D01*
X714600Y223656D01*
Y227655D01*
X712601Y229654D02*
X711601Y230654D01*
Y232653D01*
X712601Y233653D01*
X713600D01*
X714600Y232653D01*
X715600Y233653D01*
X716599D01*
X717599Y232653D01*
Y230654D01*
X716599Y229654D01*
X715600D01*
X714600Y230654D01*
X713600Y229654D01*
X712601D01*
X714600Y230654D02*
Y232653D01*
X716599Y235652D02*
X717599Y236652D01*
Y238651D01*
X716599Y239651D01*
X712601D01*
X711601Y238651D01*
Y236652D01*
X712601Y235652D01*
X713600D01*
X714600Y236652D01*
Y239651D01*
X711601Y245649D02*
Y241651D01*
X714600D01*
X713600Y243650D01*
Y244650D01*
X714600Y245649D01*
X716599D01*
X717599Y244650D01*
Y242650D01*
X716599Y241651D01*
X717599Y247649D02*
X716599D01*
Y248648D01*
X717599D01*
Y247649D01*
X712601Y252647D02*
X711601Y253647D01*
Y255646D01*
X712601Y256646D01*
X716599D01*
X717599Y255646D01*
Y253647D01*
X716599Y252647D01*
X712601D01*
Y258645D02*
X711601Y259645D01*
Y261644D01*
X712601Y262644D01*
X716599D01*
X717599Y261644D01*
Y259645D01*
X716599Y258645D01*
X712601D01*
X328100Y504098D02*
X332099D01*
Y503098D01*
X328100Y499100D01*
Y498100D01*
X334098Y503098D02*
X335098Y504098D01*
X337097D01*
X338097Y503098D01*
Y499100D01*
X337097Y498100D01*
X335098D01*
X334098Y499100D01*
Y503098D01*
X340096D02*
X341096Y504098D01*
X343095D01*
X344095Y503098D01*
Y499100D01*
X343095Y498100D01*
X341096D01*
X340096Y499100D01*
Y503098D01*
X346094D02*
X347094Y504098D01*
X349093D01*
X350093Y503098D01*
Y499100D01*
X349093Y498100D01*
X347094D01*
X346094Y499100D01*
Y503098D01*
X352092Y498100D02*
Y499100D01*
X353092D01*
Y498100D01*
X352092D01*
X357091Y503098D02*
X358090Y504098D01*
X360090D01*
X361089Y503098D01*
Y499100D01*
X360090Y498100D01*
X358090D01*
X357091Y499100D01*
Y503098D01*
X363089D02*
X364088Y504098D01*
X366088D01*
X367087Y503098D01*
Y499100D01*
X366088Y498100D01*
X364088D01*
X363089Y499100D01*
Y503098D01*
X717599Y226655D02*
X711601D01*
X714600Y223656D01*
Y227655D01*
X712601Y229654D02*
X711601Y230654D01*
Y232653D01*
X712601Y233653D01*
X713600D01*
X714600Y232653D01*
X715600Y233653D01*
X716599D01*
X717599Y232653D01*
Y230654D01*
X716599Y229654D01*
X715600D01*
X714600Y230654D01*
X713600Y229654D01*
X712601D01*
X714600Y230654D02*
Y232653D01*
X716599Y235652D02*
X717599Y236652D01*
Y238651D01*
X716599Y239651D01*
X712601D01*
X711601Y238651D01*
Y236652D01*
X712601Y235652D01*
X713600D01*
X714600Y236652D01*
Y239651D01*
X711601Y245649D02*
Y241651D01*
X714600D01*
X713600Y243650D01*
Y244650D01*
X714600Y245649D01*
X716599D01*
X717599Y244650D01*
Y242650D01*
X716599Y241651D01*
X717599Y247649D02*
X716599D01*
Y248648D01*
X717599D01*
Y247649D01*
X712601Y252647D02*
X711601Y253647D01*
Y255646D01*
X712601Y256646D01*
X716599D01*
X717599Y255646D01*
Y253647D01*
X716599Y252647D01*
X712601D01*
Y258645D02*
X711601Y259645D01*
Y261644D01*
X712601Y262644D01*
X716599D01*
X717599Y261644D01*
Y259645D01*
X716599Y258645D01*
X712601D01*
X328100Y504098D02*
X332099D01*
Y503098D01*
X328100Y499100D01*
Y498100D01*
X334098Y503098D02*
X335098Y504098D01*
X337097D01*
X338097Y503098D01*
Y499100D01*
X337097Y498100D01*
X335098D01*
X334098Y499100D01*
Y503098D01*
X340096D02*
X341096Y504098D01*
X343095D01*
X344095Y503098D01*
Y499100D01*
X343095Y498100D01*
X341096D01*
X340096Y499100D01*
Y503098D01*
X346094D02*
X347094Y504098D01*
X349093D01*
X350093Y503098D01*
Y499100D01*
X349093Y498100D01*
X347094D01*
X346094Y499100D01*
Y503098D01*
X352092Y498100D02*
Y499100D01*
X353092D01*
Y498100D01*
X352092D01*
X357091Y503098D02*
X358090Y504098D01*
X360090D01*
X361089Y503098D01*
Y499100D01*
X360090Y498100D01*
X358090D01*
X357091Y499100D01*
Y503098D01*
X363089D02*
X364088Y504098D01*
X366088D01*
X367087Y503098D01*
Y499100D01*
X366088Y498100D01*
X364088D01*
X363089Y499100D01*
Y503098D01*
M02*
