G04*
G04 #@! TF.GenerationSoftware,Altium Limited,Altium Designer,21.9.2 (33)*
G04*
G04 Layer_Physical_Order=1*
G04 Layer_Color=255*
%FSLAX25Y25*%
%MOIN*%
G70*
G04*
G04 #@! TF.SameCoordinates,9896EB03-9A59-47DE-8884-05A29DE45AA4*
G04*
G04*
G04 #@! TF.FilePolarity,Positive*
G04*
G01*
G75*
%ADD13C,0.01000*%
%ADD15C,0.00500*%
%ADD17R,0.03543X0.05315*%
%ADD18R,0.02362X0.07874*%
%ADD19R,0.10827X0.06496*%
%ADD20R,0.07087X0.05709*%
%ADD21R,0.02362X0.03937*%
%ADD22R,0.12795X0.08661*%
%ADD23R,0.03543X0.03740*%
%ADD24R,0.09252X0.08268*%
%ADD25O,0.09252X0.08268*%
%ADD26C,0.03000*%
%ADD27R,0.15748X0.15158*%
%ADD28R,0.05512X0.05000*%
%ADD29R,0.18898X0.18583*%
%ADD30R,0.02362X0.05906*%
%ADD31R,0.05315X0.03543*%
%ADD32R,0.04134X0.05512*%
%ADD33R,0.08898X0.11024*%
%ADD34R,0.03543X0.01575*%
%ADD35R,0.33465X0.31496*%
%ADD36R,0.06693X0.10630*%
%ADD37R,0.10630X0.06693*%
%ADD38R,0.05512X0.04134*%
%ADD39R,0.05709X0.07087*%
%ADD78C,0.02500*%
%ADD79C,0.00800*%
%ADD80C,0.08000*%
%ADD81C,0.10000*%
%ADD82C,0.02000*%
%ADD83C,0.01500*%
%ADD84C,0.03000*%
%ADD85R,0.06299X0.06299*%
%ADD86C,0.06299*%
%ADD87C,0.07087*%
%ADD88C,0.10158*%
%ADD89C,0.15000*%
%ADD90C,0.06024*%
%ADD91R,0.06024X0.06024*%
%ADD92C,0.13000*%
%ADD93R,0.06299X0.06299*%
%ADD94C,0.05600*%
%ADD95C,0.07000*%
%ADD96C,0.14800*%
%ADD97C,0.16929*%
%ADD98C,0.08000*%
%ADD99C,0.05512*%
G36*
X464992Y482727D02*
X464992Y424219D01*
X463399Y422639D01*
X454005Y422715D01*
X452477Y424240D01*
X452143Y458151D01*
X447689Y462500D01*
X311333D01*
X302992Y452145D01*
Y421727D01*
X300492Y419227D01*
X290492D01*
X282492Y411227D01*
Y379227D01*
X279992Y376727D01*
X269492D01*
X267492Y378727D01*
X267492Y458227D01*
X261265Y464455D01*
X149720D01*
X128492Y442351D01*
Y423227D01*
X125492Y420227D01*
X94492D01*
X91992Y422727D01*
Y433490D01*
X110728Y452455D01*
Y476455D01*
X118848Y484575D01*
X137436D01*
X137640Y484075D01*
X136528Y482720D01*
X135609Y481000D01*
X135043Y479134D01*
X134851Y477193D01*
X135043Y475252D01*
X135609Y473386D01*
X136528Y471666D01*
X137765Y470159D01*
X139272Y468922D01*
X140992Y468002D01*
X142859Y467436D01*
X144799Y467245D01*
X146740Y467436D01*
X148606Y468002D01*
X150326Y468922D01*
X151833Y470159D01*
X153071Y471666D01*
X153990Y473386D01*
X154556Y475252D01*
X154747Y477193D01*
X154556Y479134D01*
X153990Y481000D01*
X153071Y482720D01*
X151958Y484075D01*
X152163Y484575D01*
X204337D01*
X204542Y484075D01*
X203429Y482720D01*
X202510Y481000D01*
X201944Y479134D01*
X201753Y477193D01*
X201944Y475252D01*
X202510Y473386D01*
X203429Y471666D01*
X204667Y470159D01*
X206174Y468922D01*
X207894Y468002D01*
X209760Y467436D01*
X211701Y467245D01*
X213642Y467436D01*
X215508Y468002D01*
X217228Y468922D01*
X218735Y470159D01*
X219972Y471666D01*
X220891Y473386D01*
X221458Y475252D01*
X221649Y477193D01*
X221458Y479134D01*
X220891Y481000D01*
X219972Y482720D01*
X218860Y484075D01*
X219064Y484575D01*
X313936D01*
X314140Y484075D01*
X313028Y482720D01*
X312109Y481000D01*
X311543Y479134D01*
X311351Y477193D01*
X311543Y475252D01*
X312109Y473386D01*
X313028Y471666D01*
X314265Y470159D01*
X315773Y468922D01*
X317492Y468002D01*
X319358Y467436D01*
X321299Y467245D01*
X323240Y467436D01*
X325106Y468002D01*
X326826Y468922D01*
X328333Y470159D01*
X329571Y471666D01*
X330490Y473386D01*
X331056Y475252D01*
X331247Y477193D01*
X331056Y479134D01*
X330490Y481000D01*
X329571Y482720D01*
X328458Y484075D01*
X328663Y484575D01*
X380837D01*
X381042Y484075D01*
X379929Y482720D01*
X379010Y481000D01*
X378444Y479134D01*
X378253Y477193D01*
X378444Y475252D01*
X379010Y473386D01*
X379929Y471666D01*
X381167Y470159D01*
X382674Y468922D01*
X384394Y468002D01*
X386260Y467436D01*
X388201Y467245D01*
X390142Y467436D01*
X392008Y468002D01*
X393728Y468922D01*
X395235Y470159D01*
X396472Y471666D01*
X397391Y473386D01*
X397957Y475252D01*
X398149Y477193D01*
X397957Y479134D01*
X397391Y481000D01*
X396472Y482720D01*
X395360Y484075D01*
X395564Y484575D01*
X463145D01*
X464992Y482727D01*
D02*
G37*
G36*
X264500Y455500D02*
Y441500D01*
X264000Y441000D01*
X263500Y441500D01*
X218500D01*
X202657Y425657D01*
Y409657D01*
X200000Y407000D01*
X182000D01*
Y407500D01*
X177500Y412000D01*
Y427500D01*
X170000Y435000D01*
X160000Y435000D01*
X153500Y428500D01*
Y424500D01*
X131000Y402000D01*
X113500D01*
X113000Y402500D01*
Y414500D01*
X114500Y416000D01*
X132000D01*
Y443000D01*
X151000Y462000D01*
X258000D01*
X264500Y455500D01*
D02*
G37*
G36*
X441534Y454762D02*
Y440762D01*
X441034Y440262D01*
X440534Y440762D01*
X395534D01*
X379691Y424919D01*
Y408919D01*
X377034Y406262D01*
X359034D01*
Y406762D01*
X354534Y411262D01*
Y426762D01*
X347034Y434262D01*
X337034Y434262D01*
X330534Y427762D01*
Y423762D01*
X308034Y401262D01*
X290534D01*
X290034Y401762D01*
Y413762D01*
X291859Y415587D01*
X301949D01*
Y415762D01*
X309034D01*
Y442262D01*
X326772Y460000D01*
X436297D01*
X441534Y454762D01*
D02*
G37*
G36*
X541250Y469262D02*
X542511Y468420D01*
X544313Y467673D01*
X546226Y467293D01*
X548176D01*
X550089Y467673D01*
X551890Y468420D01*
X553151Y469262D01*
X584238D01*
X601034Y452466D01*
Y442762D01*
X555034D01*
X539191Y426919D01*
Y410919D01*
X534772Y406500D01*
X518534D01*
X514034Y411000D01*
Y428762D01*
X506534Y436262D01*
X496534Y436262D01*
X490034Y429762D01*
Y425762D01*
X467534Y403262D01*
X450034D01*
X449534Y403762D01*
Y415762D01*
X451534Y417762D01*
X454051D01*
Y417287D01*
X464949D01*
Y417762D01*
X468534D01*
Y444262D01*
X493534Y469262D01*
X541250Y469262D01*
D02*
G37*
G36*
X435000Y430000D02*
Y418500D01*
X430500Y414000D01*
X405500D01*
X402876Y411376D01*
X402109D01*
Y410609D01*
X393500Y402000D01*
Y394001D01*
X385999Y386500D01*
X369203Y386500D01*
X369049Y386730D01*
X368255Y387261D01*
X367319Y387447D01*
X328819D01*
X328038Y387292D01*
X327883Y387261D01*
X327492Y387000D01*
X326000D01*
X325000Y388000D01*
Y399500D01*
X326000Y400500D01*
X375000D01*
X384000Y409500D01*
Y421500D01*
X395500Y433000D01*
X432500D01*
X435000Y430000D01*
D02*
G37*
G36*
X259000D02*
Y418500D01*
X254500Y414000D01*
X229500D01*
X220000Y404500D01*
X220000Y395000D01*
X211500Y386500D01*
X194358Y386500D01*
X194191Y386750D01*
X193397Y387280D01*
X192461Y387467D01*
X153961D01*
X153024Y387280D01*
X152604Y387000D01*
X150000D01*
X149000Y388000D01*
Y399500D01*
X154000Y404500D01*
X205500D01*
X208000Y407000D01*
X208000Y421500D01*
X219500Y433000D01*
X256500D01*
X259000Y430000D01*
D02*
G37*
G36*
X606500Y429000D02*
Y417500D01*
X602000Y413000D01*
X577000D01*
X575156Y411156D01*
X574293D01*
Y410293D01*
X569500Y405500D01*
X569500Y397500D01*
X557500Y385500D01*
X541848Y385500D01*
X541761Y385936D01*
X541230Y386730D01*
X540436Y387261D01*
X539500Y387447D01*
X501000D01*
X500064Y387261D01*
X499270Y386730D01*
X498794Y386254D01*
X498057D01*
Y386000D01*
X497500D01*
X496500Y387000D01*
Y398500D01*
X497500Y399500D01*
X534500D01*
X555500Y420500D01*
X567000Y432000D01*
X604000D01*
X606500Y429000D01*
D02*
G37*
G36*
X192461Y379020D02*
X177461Y364020D01*
X155961D01*
X151461Y368520D01*
X151461Y382520D01*
X153961Y385020D01*
X192461D01*
Y379020D01*
D02*
G37*
G36*
X539500Y379000D02*
X524500Y364000D01*
X503000D01*
X498500Y368500D01*
X498500Y382500D01*
X501000Y385000D01*
X539500D01*
Y379000D01*
D02*
G37*
G36*
X367319D02*
X352319Y364000D01*
X330819D01*
X326319Y368500D01*
X326319Y382500D01*
X328819Y385000D01*
X367319D01*
Y379000D01*
D02*
G37*
G36*
X110331Y288230D02*
X110374Y288016D01*
X110447Y287794D01*
X110550Y287563D01*
X110681Y287324D01*
X110842Y287076D01*
X111031Y286820D01*
X111250Y286555D01*
X111776Y286000D01*
X109816Y284000D01*
X111776Y282000D01*
X111250Y281445D01*
X111031Y281180D01*
X110842Y280924D01*
X110681Y280676D01*
X110550Y280437D01*
X110447Y280206D01*
X110374Y279984D01*
X110331Y279770D01*
X110316Y279565D01*
X109316D01*
X109301Y279770D01*
X109258Y279984D01*
X109185Y280206D01*
X109082Y280437D01*
X108951Y280676D01*
X108790Y280924D01*
X108601Y281180D01*
X108133Y281718D01*
X107856Y282000D01*
X109816Y284000D01*
X107856Y286000D01*
X108133Y286282D01*
X108601Y286820D01*
X108790Y287076D01*
X108951Y287324D01*
X109082Y287563D01*
X109185Y287794D01*
X109258Y288016D01*
X109301Y288230D01*
X109316Y288435D01*
X110316D01*
X110331Y288230D01*
D02*
G37*
G36*
X577000Y274500D02*
X559000Y256500D01*
Y223000D01*
X544000Y208500D01*
X532500Y195000D01*
X532470Y193305D01*
X532450Y193231D01*
Y192173D01*
X531982Y165474D01*
X530991Y164500D01*
X517000Y164500D01*
X515791Y163291D01*
X513551D01*
Y161051D01*
X506000Y153500D01*
X499500D01*
X496500Y156500D01*
Y160500D01*
X523450Y186950D01*
X523550D01*
Y198050D01*
X523500D01*
Y205500D01*
X533000Y215000D01*
Y297000D01*
X538500Y302500D01*
X577000D01*
Y274500D01*
D02*
G37*
G36*
X229961Y274520D02*
X211961Y256520D01*
Y223020D01*
X196961Y208520D01*
X185461Y195020D01*
X185463Y193444D01*
X185411Y193250D01*
Y191789D01*
X185465Y191586D01*
X185500Y166500D01*
X182993Y163993D01*
X169453Y164012D01*
X168232Y162791D01*
X165551D01*
Y160110D01*
X158961Y153520D01*
X152461D01*
X149461Y156520D01*
Y160520D01*
X176410Y186970D01*
X176510D01*
Y198069D01*
X176461D01*
Y205520D01*
X185961Y215020D01*
Y297020D01*
X191461Y302520D01*
X229961D01*
Y274520D01*
D02*
G37*
G36*
X404819Y274500D02*
X386819Y256500D01*
Y223000D01*
X371819Y208500D01*
X360319Y195000D01*
X360301Y193350D01*
X360269Y193231D01*
Y191769D01*
X360284Y191715D01*
X360005Y165495D01*
X359000Y164500D01*
X344819D01*
X343236Y162917D01*
X341051D01*
Y160732D01*
X333819Y153500D01*
X327319D01*
X324319Y156500D01*
Y160500D01*
X351268Y186950D01*
X351368D01*
Y198050D01*
X351319D01*
Y205500D01*
X360819Y215000D01*
Y297000D01*
X366319Y302500D01*
X404819D01*
Y274500D01*
D02*
G37*
G36*
X361629Y161508D02*
X362109Y161508D01*
X366103D01*
X366326Y161464D01*
X366344Y161451D01*
Y160273D01*
X376656D01*
Y161201D01*
X376674Y161213D01*
X376897Y161258D01*
X385658D01*
X385880Y161213D01*
X386014Y161124D01*
X386104Y160990D01*
X386148Y160767D01*
Y159920D01*
Y134488D01*
X400549Y120088D01*
X400609Y119787D01*
Y38317D01*
Y33661D01*
X404929Y28000D01*
X473500D01*
X477749Y32249D01*
X478219Y32219D01*
X479033Y31593D01*
X479982Y31200D01*
X481000Y31066D01*
X482018Y31200D01*
X482967Y31593D01*
X483781Y32219D01*
X484407Y33033D01*
X484800Y33982D01*
X484934Y35000D01*
X484800Y36018D01*
X484407Y36967D01*
X483781Y37782D01*
X483751Y38251D01*
X513500Y68000D01*
X522109Y75891D01*
Y128528D01*
X506609Y144028D01*
X501109D01*
X497109Y148028D01*
Y151225D01*
X498412Y152528D01*
X499262D01*
X499500Y152480D01*
X506000D01*
X506238Y152528D01*
X522109D01*
X525109Y156028D01*
Y161008D01*
X532166Y161008D01*
X532166Y161015D01*
X532587Y161284D01*
X533128Y161008D01*
X533609Y161008D01*
X557148Y161008D01*
X557648Y160508D01*
Y133988D01*
X572109Y119528D01*
Y18528D01*
X572000Y18419D01*
Y10000D01*
X564925Y2925D01*
X173075D01*
X162500Y13500D01*
Y35503D01*
X163000Y35837D01*
X163482Y35637D01*
X164500Y35503D01*
X165518Y35637D01*
X166467Y36030D01*
X167281Y36656D01*
X167907Y37470D01*
X168300Y38419D01*
X168434Y39437D01*
X168300Y40455D01*
X167907Y41404D01*
X167281Y42219D01*
X166467Y42844D01*
X165518Y43237D01*
X164500Y43371D01*
X163482Y43237D01*
X163000Y43037D01*
X162500Y43371D01*
Y53348D01*
X177961Y67259D01*
X177961Y125520D01*
X159461Y144020D01*
X153961D01*
X149961Y148020D01*
Y151136D01*
X151345Y152520D01*
X152362D01*
X152461Y152500D01*
X158961D01*
X159059Y152520D01*
X174961D01*
X177961Y156020D01*
Y161000D01*
X185018Y161000D01*
X185018Y161007D01*
X185439Y161276D01*
X185980Y161000D01*
X186461Y161000D01*
X210000Y161000D01*
X210500Y160500D01*
Y133980D01*
X224961Y119520D01*
Y30039D01*
X229500Y25500D01*
X307280D01*
X353609Y77498D01*
Y126028D01*
X335109Y144528D01*
X329609D01*
X325609Y148528D01*
Y151906D01*
X326540Y152837D01*
X326598Y152779D01*
X326929Y152558D01*
X327319Y152480D01*
X333819D01*
X334209Y152558D01*
X334540Y152779D01*
X334789Y153028D01*
X350609D01*
X353609Y156528D01*
Y161508D01*
X360666Y161508D01*
X360666Y161515D01*
X361087Y161784D01*
X361629Y161508D01*
D02*
G37*
G36*
X28000Y181000D02*
Y172000D01*
X30000Y170000D01*
X37500D01*
X42500Y165000D01*
Y151500D01*
X40000Y149000D01*
X31000D01*
X30000Y150000D01*
Y152500D01*
X28000Y154500D01*
X22500D01*
X19244Y157756D01*
Y158846D01*
X18500D01*
Y182500D01*
Y183500D01*
X19500Y184500D01*
X24500D01*
X28000Y181000D01*
D02*
G37*
G36*
X123961Y144520D02*
X123961Y137020D01*
X122961Y136020D01*
X118961D01*
X116961Y134020D01*
X111961Y129520D01*
X98961D01*
X97461Y131020D01*
X97461Y140020D01*
X99461Y142020D01*
X103461D01*
X106520Y145079D01*
X106807D01*
Y145366D01*
X109961Y148520D01*
X119961D01*
X123961Y144520D01*
D02*
G37*
G36*
X471000Y144500D02*
X471000Y137000D01*
X470000Y136000D01*
X466000D01*
X464000Y134000D01*
X459000Y129500D01*
X446000D01*
X444500Y131000D01*
X444500Y140000D01*
X446500Y142000D01*
X450500D01*
X453559Y145059D01*
X453847D01*
Y145346D01*
X457000Y148500D01*
X467000D01*
X471000Y144500D01*
D02*
G37*
G36*
X298819D02*
X298819Y137000D01*
X297819Y136000D01*
X293819D01*
X291819Y134000D01*
X286819Y129500D01*
X273819D01*
X272319Y131000D01*
X272319Y140000D01*
X274319Y142000D01*
X278319D01*
X281378Y145059D01*
X281665D01*
Y145346D01*
X284819Y148500D01*
X294819D01*
X298819Y144500D01*
D02*
G37*
G36*
X154253Y122020D02*
X154253Y122020D01*
X154254D01*
X154717Y121961D01*
X154751Y121954D01*
X155062Y121825D01*
X155342Y121639D01*
X155461Y121520D01*
X156461Y120520D01*
Y101520D01*
X155461Y100520D01*
X144461D01*
X140961Y104020D01*
Y118520D01*
X144461Y122020D01*
X154253D01*
X154253Y122020D01*
D02*
G37*
G36*
X501293Y122000D02*
X501293Y122000D01*
X501294D01*
X501756Y121941D01*
X501791Y121934D01*
X502102Y121806D01*
X502381Y121619D01*
X502500Y121500D01*
X503500Y120500D01*
Y101500D01*
X502500Y100500D01*
X491500D01*
X488000Y104000D01*
Y118500D01*
X491500Y122000D01*
X501293D01*
X501293Y122000D01*
D02*
G37*
G36*
X329112D02*
X329112Y122000D01*
X329112D01*
X329575Y121941D01*
X329610Y121934D01*
X329920Y121806D01*
X330200Y121619D01*
X330319Y121500D01*
X331319Y120500D01*
Y101500D01*
X330319Y100500D01*
X319319D01*
X315819Y104000D01*
Y118500D01*
X319319Y122000D01*
X329112D01*
X329112Y122000D01*
D02*
G37*
G36*
X129300Y135000D02*
X133500D01*
X135000Y133500D01*
Y127014D01*
X123380D01*
Y127000D01*
X121000D01*
X118000Y124000D01*
X118000Y110000D01*
X116520Y108520D01*
X116461D01*
Y108020D01*
X114961Y106520D01*
Y98520D01*
X112961Y96520D01*
X99961D01*
X97461Y99020D01*
Y108520D01*
Y111461D01*
X105500Y119500D01*
X114500Y128500D01*
Y129500D01*
X118000Y133000D01*
X121500D01*
X123925Y135425D01*
X124142D01*
Y135642D01*
X124500Y136000D01*
X126000Y137500D01*
X127300D01*
X129300Y135000D01*
D02*
G37*
G36*
X477013Y134827D02*
X480513D01*
X482013Y133327D01*
Y127000D01*
X467500D01*
X465013Y124513D01*
Y109827D01*
X463533Y108347D01*
X463500D01*
Y108000D01*
X462000Y106500D01*
Y98500D01*
X460000Y96500D01*
X447000D01*
X444500Y99000D01*
Y108347D01*
X444474D01*
Y111288D01*
X452513Y119327D01*
X461513Y128327D01*
Y129327D01*
X465013Y132827D01*
X468513D01*
X471092Y135406D01*
X471181D01*
Y135495D01*
X471513Y135827D01*
X472513Y136827D01*
Y137327D01*
X475013D01*
X477013Y134827D01*
D02*
G37*
G36*
X305013Y134327D02*
X308513D01*
X310013Y132827D01*
Y127000D01*
X296000D01*
X293013Y124013D01*
Y115256D01*
X292992D01*
Y109306D01*
X291533Y107847D01*
X291166D01*
X289819Y106500D01*
Y98500D01*
X287819Y96500D01*
X274819D01*
X272319Y99000D01*
Y108500D01*
X272474Y108655D01*
Y110788D01*
X280513Y118827D01*
X289513Y127827D01*
Y128827D01*
X293013Y132327D01*
X296513D01*
X299513Y135327D01*
X300513Y136327D01*
Y136827D01*
X303013D01*
X305013Y134327D01*
D02*
G37*
G36*
X142362Y73802D02*
X141866Y72942D01*
X141600Y71951D01*
Y70924D01*
X141866Y69932D01*
X142379Y69042D01*
X142500Y68922D01*
Y43573D01*
X142495Y43571D01*
X141605Y43058D01*
X140879Y42332D01*
X140366Y41442D01*
X140100Y40451D01*
Y39424D01*
X140366Y38432D01*
X140879Y37542D01*
X141605Y36816D01*
X142495Y36303D01*
X142500Y36301D01*
Y2925D01*
X114539D01*
X114388Y3425D01*
X115712Y4310D01*
X117091Y5689D01*
X118175Y7311D01*
X118921Y9112D01*
X119302Y11025D01*
Y12975D01*
X118921Y14888D01*
X118175Y16689D01*
X117091Y18311D01*
X115712Y19690D01*
X114091Y20773D01*
X112289Y21520D01*
X110377Y21900D01*
X108426D01*
X106514Y21520D01*
X104712Y20773D01*
X103091Y19690D01*
X101712Y18311D01*
X100628Y16689D01*
X99882Y14888D01*
X99502Y12975D01*
Y11025D01*
X99882Y9112D01*
X100628Y7311D01*
X101712Y5689D01*
X103091Y4310D01*
X104415Y3425D01*
X104264Y2925D01*
X85075D01*
X79000Y9000D01*
Y79000D01*
X83000Y83000D01*
X126985D01*
X127605Y82379D01*
X128495Y81866D01*
X129487Y81600D01*
X130513D01*
X131505Y81866D01*
X132395Y82379D01*
X133015Y83000D01*
X133900D01*
X142362Y73802D01*
D02*
G37*
G36*
X553705Y197148D02*
X598705Y152148D01*
X598705Y30628D01*
X583244D01*
X574705Y39168D01*
X574705Y134511D01*
X558031Y165129D01*
X536744D01*
Y177756D01*
X534681Y179819D01*
X534897Y192130D01*
X534893Y192151D01*
X534897Y192173D01*
Y193172D01*
X534917Y193262D01*
X534931Y194080D01*
X539674Y199648D01*
X551205D01*
X553705Y197148D01*
D02*
G37*
G36*
X381705Y196648D02*
X422961Y155392D01*
X422952Y155321D01*
X422180Y154548D01*
X421633Y153602D01*
X421350Y152546D01*
Y151454D01*
X421633Y150398D01*
X422180Y149452D01*
X422952Y148679D01*
X423898Y148133D01*
X424954Y147850D01*
X426046D01*
X426308Y147921D01*
X426705Y147616D01*
X426705Y30447D01*
X410926D01*
X403056Y38317D01*
Y119787D01*
X403009Y120023D01*
X403009Y120264D01*
X402949Y120565D01*
X402857Y120788D01*
X402810Y121024D01*
X402705Y121181D01*
Y134011D01*
X388595Y159920D01*
Y160767D01*
X388548Y161003D01*
Y161244D01*
X388504Y161467D01*
X388504Y161467D01*
Y161467D01*
X388412Y161690D01*
X388409Y161704D01*
X388401Y161715D01*
X388273Y162026D01*
X388139Y162349D01*
X388139Y162349D01*
X388139Y162349D01*
X388049Y162483D01*
X387374Y163158D01*
X387240Y163248D01*
X386893Y163392D01*
X386606Y163510D01*
X386594Y163518D01*
X386580Y163521D01*
X386358Y163613D01*
X386135Y163657D01*
X385894Y163657D01*
X385658Y163705D01*
X376897D01*
X376660Y163657D01*
X376419D01*
X376197Y163613D01*
X376197Y163613D01*
X376197D01*
X375974Y163521D01*
X375960Y163518D01*
X375949Y163511D01*
X375934Y163504D01*
X375719Y163462D01*
X375537Y163340D01*
X375315Y163248D01*
X375315Y163248D01*
X375315Y163248D01*
X375296Y163235D01*
X375126Y163065D01*
X375028Y163000D01*
X368196D01*
X368074Y163182D01*
X367874Y163316D01*
X367704Y163486D01*
X367685Y163498D01*
X367685Y163498D01*
X367685Y163498D01*
X367463Y163591D01*
X367281Y163712D01*
X367066Y163755D01*
X367051Y163761D01*
X367039Y163769D01*
X367026Y163772D01*
X366803Y163864D01*
X366803D01*
X366803Y163864D01*
X366581Y163908D01*
X366339D01*
X366103Y163955D01*
X366045D01*
X364744Y165256D01*
X364744Y177256D01*
X362600Y179400D01*
X362731Y191689D01*
X362716Y191768D01*
X362716Y191769D01*
Y193172D01*
X362748Y193324D01*
X362756Y194088D01*
X367067Y199148D01*
X379205D01*
X381705Y196648D01*
D02*
G37*
G36*
X207461Y195520D02*
X252461Y150520D01*
X252461Y29000D01*
X237000D01*
X228461Y37539D01*
X228461Y132882D01*
X211787Y163500D01*
X190500D01*
Y174480D01*
X187961Y177020D01*
Y194020D01*
X191961Y198020D01*
X204961D01*
X207461Y195520D01*
D02*
G37*
%LPC*%
G36*
X196513Y396400D02*
X195487D01*
X194495Y396134D01*
X193605Y395621D01*
X192879Y394895D01*
X192366Y394005D01*
X192100Y393013D01*
Y391987D01*
X192366Y390995D01*
X192879Y390105D01*
X193605Y389379D01*
X194495Y388866D01*
X195487Y388600D01*
X196513D01*
X197505Y388866D01*
X198395Y389379D01*
X199121Y390105D01*
X199634Y390995D01*
X199900Y391987D01*
Y393013D01*
X199634Y394005D01*
X199121Y394895D01*
X198395Y395621D01*
X197505Y396134D01*
X196513Y396400D01*
D02*
G37*
G36*
X550500Y88934D02*
X549482Y88800D01*
X548533Y88407D01*
X547718Y87782D01*
X547093Y86967D01*
X546700Y86018D01*
X546566Y85000D01*
X546700Y83982D01*
X547093Y83033D01*
X547718Y82218D01*
X548533Y81593D01*
X549482Y81200D01*
X550500Y81066D01*
X551518Y81200D01*
X552467Y81593D01*
X553281Y82218D01*
X553907Y83033D01*
X554300Y83982D01*
X554434Y85000D01*
X554300Y86018D01*
X553907Y86967D01*
X553281Y87782D01*
X552467Y88407D01*
X551518Y88800D01*
X550500Y88934D01*
D02*
G37*
G36*
X537500Y76434D02*
X536482Y76300D01*
X535533Y75907D01*
X534719Y75282D01*
X534093Y74467D01*
X533700Y73518D01*
X533566Y72500D01*
X533700Y71482D01*
X534093Y70533D01*
X534719Y69718D01*
X535533Y69093D01*
X536482Y68700D01*
X537500Y68566D01*
X538518Y68700D01*
X539467Y69093D01*
X540281Y69718D01*
X540907Y70533D01*
X541300Y71482D01*
X541434Y72500D01*
X541300Y73518D01*
X540907Y74467D01*
X540281Y75282D01*
X539467Y75907D01*
X538518Y76300D01*
X537500Y76434D01*
D02*
G37*
G36*
X563500Y54934D02*
X562482Y54800D01*
X561533Y54407D01*
X560718Y53781D01*
X560093Y52967D01*
X559700Y52018D01*
X559566Y51000D01*
X559700Y49982D01*
X560093Y49033D01*
X560718Y48219D01*
X561533Y47593D01*
X562482Y47200D01*
X563500Y47066D01*
X564518Y47200D01*
X565467Y47593D01*
X566282Y48219D01*
X566907Y49033D01*
X567300Y49982D01*
X567434Y51000D01*
X567300Y52018D01*
X566907Y52967D01*
X566282Y53781D01*
X565467Y54407D01*
X564518Y54800D01*
X563500Y54934D01*
D02*
G37*
G36*
X548000Y31434D02*
X546982Y31300D01*
X546033Y30907D01*
X545219Y30281D01*
X544593Y29467D01*
X544200Y28518D01*
X544066Y27500D01*
X544200Y26482D01*
X544593Y25533D01*
X545219Y24719D01*
X545752Y24309D01*
Y23691D01*
X545219Y23281D01*
X544593Y22467D01*
X544200Y21518D01*
X544066Y20500D01*
X544200Y19482D01*
X544593Y18533D01*
X545219Y17718D01*
X546033Y17093D01*
X546982Y16700D01*
X548000Y16566D01*
X549018Y16700D01*
X549967Y17093D01*
X550781Y17718D01*
X551407Y18533D01*
X551800Y19482D01*
X551934Y20500D01*
X551800Y21518D01*
X551407Y22467D01*
X550781Y23281D01*
X550248Y23691D01*
Y24309D01*
X550781Y24719D01*
X551407Y25533D01*
X551800Y26482D01*
X551934Y27500D01*
X551800Y28518D01*
X551407Y29467D01*
X550781Y30281D01*
X549967Y30907D01*
X549018Y31300D01*
X548000Y31434D01*
D02*
G37*
G36*
X504000Y29898D02*
X502295Y29764D01*
X500632Y29365D01*
X499052Y28710D01*
X497594Y27817D01*
X496294Y26706D01*
X495183Y25406D01*
X494290Y23948D01*
X493635Y22368D01*
X493236Y20705D01*
X493102Y19000D01*
X493236Y17295D01*
X493635Y15632D01*
X494290Y14052D01*
X495183Y12594D01*
X496294Y11294D01*
X497594Y10183D01*
X499052Y9290D01*
X500632Y8635D01*
X502295Y8236D01*
X504000Y8102D01*
X505705Y8236D01*
X507368Y8635D01*
X508948Y9290D01*
X510406Y10183D01*
X511706Y11294D01*
X512817Y12594D01*
X513710Y14052D01*
X514365Y15632D01*
X514764Y17295D01*
X514898Y19000D01*
X514764Y20705D01*
X514365Y22368D01*
X513710Y23948D01*
X512817Y25406D01*
X511706Y26706D01*
X510406Y27817D01*
X508948Y28710D01*
X507368Y29365D01*
X505705Y29764D01*
X504000Y29898D01*
D02*
G37*
G36*
X129013Y65837D02*
X127987D01*
X126995Y65571D01*
X126105Y65058D01*
X125379Y64332D01*
X124866Y63442D01*
X124600Y62450D01*
Y61424D01*
X124866Y60432D01*
X125379Y59542D01*
X126105Y58816D01*
X126995Y58303D01*
X127987Y58037D01*
X129013D01*
X130005Y58303D01*
X130895Y58816D01*
X131621Y59542D01*
X132134Y60432D01*
X132400Y61424D01*
Y62450D01*
X132134Y63442D01*
X131621Y64332D01*
X130895Y65058D01*
X130005Y65571D01*
X129013Y65837D01*
D02*
G37*
G36*
X124513Y43837D02*
X123487D01*
X122495Y43571D01*
X121605Y43058D01*
X120879Y42332D01*
X120366Y41442D01*
X120100Y40451D01*
Y39424D01*
X120366Y38432D01*
X120879Y37542D01*
X121605Y36816D01*
X122495Y36303D01*
X123487Y36037D01*
X124513D01*
X125505Y36303D01*
X126395Y36816D01*
X127121Y37542D01*
X127634Y38432D01*
X127900Y39424D01*
Y40451D01*
X127634Y41442D01*
X127121Y42332D01*
X126395Y43058D01*
X125505Y43571D01*
X124513Y43837D01*
D02*
G37*
%LPD*%
D13*
X40937Y407000D02*
X41000Y407063D01*
Y415000D01*
X33063Y398500D02*
Y407000D01*
X108000Y318740D02*
Y325000D01*
Y318740D02*
X108500Y318240D01*
X488469Y84500D02*
X497969Y94000D01*
X506000D01*
X479500Y84500D02*
X488469D01*
X484000Y149000D02*
X487000Y152000D01*
X471000D02*
X474000Y149000D01*
X480563Y353500D02*
X482063Y352000D01*
X475000Y353500D02*
X480563D01*
X475000Y356063D02*
X479000Y360063D01*
X475000Y353500D02*
Y356063D01*
X479000Y360063D02*
X492000D01*
X306756Y368000D02*
X306819Y367937D01*
X300000Y368000D02*
X306756D01*
X478937D02*
X479000Y367937D01*
X472000Y368000D02*
X478937D01*
X454500Y318240D02*
Y324500D01*
X310253Y303221D02*
X310532Y303500D01*
X318000D01*
X282500Y311760D02*
X295310D01*
X297570Y309500D02*
X298000D01*
X295310Y311760D02*
X297570Y309500D01*
X282379Y311639D02*
X282500Y311760D01*
X282379Y303221D02*
Y311639D01*
X282500Y319240D02*
Y325000D01*
X489740Y343000D02*
Y351803D01*
X489937Y352000D01*
X490000Y351937D02*
X490563Y352500D01*
X497000D01*
X303117Y357247D02*
X305933Y360063D01*
X303117Y353883D02*
Y357247D01*
X305933Y360063D02*
X319819D01*
X303117Y353883D02*
X306000Y351000D01*
X309063D01*
X310000Y334000D02*
Y341260D01*
X317437Y351500D02*
X322500D01*
X316937Y351000D02*
X317437Y351500D01*
X316937Y351000D02*
X317240Y350697D01*
Y341500D02*
Y350697D01*
X127500Y356483D02*
X131099Y360083D01*
X128086Y351000D02*
X135063D01*
X127500Y351586D02*
Y356483D01*
Y351586D02*
X128086Y351000D01*
X131099Y360083D02*
X131961D01*
X144961D01*
X144209Y351000D02*
X150500D01*
X143937Y350728D02*
X144209Y351000D01*
X142740Y350803D02*
X142937Y351000D01*
X142740Y342500D02*
Y350803D01*
X135657Y303520D02*
X143961D01*
X135337Y303200D02*
X135657Y303520D01*
X84287Y76213D02*
X90701D01*
X79000Y81500D02*
Y165500D01*
Y81500D02*
X84287Y76213D01*
X431500Y396740D02*
Y406500D01*
Y396740D02*
X432000Y396240D01*
X67512Y330500D02*
X78500D01*
X67000Y329988D02*
X67512Y330500D01*
X55500Y329988D02*
X67000D01*
Y341012D02*
Y349000D01*
X55500Y341012D02*
X67000D01*
X582039Y396500D02*
X588063D01*
X578740Y393201D02*
X582039Y396500D01*
X578740Y392413D02*
Y393201D01*
X603500Y396740D02*
Y407500D01*
X603260Y396500D02*
X603500Y396740D01*
X595937Y396500D02*
X603260D01*
X603000Y388760D02*
X603500Y389260D01*
X603000Y381000D02*
Y388760D01*
X593240Y381000D02*
X603000D01*
X593000Y381240D02*
X593240Y381000D01*
X585000Y381240D02*
X585260Y381500D01*
X585000Y373500D02*
Y381240D01*
X578740Y381587D02*
X585173D01*
X585260Y381500D01*
X317816Y192220D02*
X326253D01*
X142900Y192200D02*
X151337D01*
X48000Y253240D02*
X49060Y254300D01*
X474000Y140342D02*
Y149000D01*
Y133000D02*
Y140342D01*
X301819D02*
Y148181D01*
Y133000D02*
Y140342D01*
X126961Y140362D02*
Y147718D01*
Y133020D02*
Y140362D01*
X411362Y391413D02*
X415063Y395114D01*
X407240Y391413D02*
X411362D01*
X415063Y395114D02*
Y396000D01*
X422937D02*
X431760D01*
X432000Y396240D01*
Y381000D02*
Y388760D01*
X423240Y380500D02*
X423740Y381000D01*
X432000D01*
X416000Y372000D02*
Y380260D01*
X415760Y380500D02*
X416000Y380260D01*
X407240Y380587D02*
X415673D01*
X415760Y380500D01*
X239673Y380587D02*
X239760Y380500D01*
X230740Y380587D02*
X239673D01*
X254570Y388830D02*
X255500Y389760D01*
X248807Y385807D02*
X251830Y388830D01*
X248807Y382067D02*
Y385807D01*
X251830Y388830D02*
X254570D01*
X255500Y397240D02*
Y404500D01*
X247437Y397000D02*
X255260D01*
X255500Y397240D01*
X233000Y397000D02*
X239563D01*
X230882Y394882D02*
X233000Y397000D01*
X230740Y391413D02*
X230882Y391555D01*
Y394882D01*
X250500Y373000D02*
X250551Y373051D01*
X247240Y379811D02*
X250551Y376500D01*
Y373051D02*
Y376500D01*
X247240Y380500D02*
X248807Y382067D01*
X247240Y379811D02*
Y380500D01*
X239760Y376240D02*
X243000Y373000D01*
X239760Y376240D02*
Y380500D01*
X211961Y396665D02*
X214028D01*
X217858Y392835D01*
Y392642D02*
Y392835D01*
X218500Y392000D02*
X222919D01*
X217858Y392642D02*
X218500Y392000D01*
X217858Y381414D02*
X218444Y382000D01*
X222579D02*
X223260Y381319D01*
X211291Y377374D02*
X214028D01*
X217858Y381205D01*
Y381414D01*
X218444Y382000D02*
X222579D01*
X223260Y380587D02*
Y381319D01*
X386819Y377354D02*
X388886D01*
X392717Y381185D02*
Y381414D01*
X393302Y382000D01*
X399079D01*
X399760Y381319D01*
Y380587D02*
Y381319D01*
X388886Y377354D02*
X392717Y381185D01*
X386819Y396646D02*
X388886D01*
X394118Y391413D02*
X399000D01*
X388886Y396646D02*
X394118Y391413D01*
X559331Y377685D02*
X561398D01*
X565299Y381587D01*
X571260D01*
X561067Y396646D02*
X565299Y392413D01*
X559000Y396646D02*
X561067D01*
X565299Y392413D02*
X570500D01*
X207461Y373543D02*
X211291Y377374D01*
X70541Y415500D02*
X82000D01*
X108500Y389000D01*
X68541Y413500D02*
X70541Y415500D01*
X68000Y413500D02*
X68541D01*
X102000Y385500D02*
X108500Y379000D01*
X68500Y385500D02*
X102000D01*
X55500Y398500D02*
X68500Y385500D01*
X40937Y398500D02*
X55500D01*
X27000Y398000D02*
X32563D01*
X33063Y398500D01*
X48500Y189000D02*
Y196240D01*
X48760Y196500D01*
X48000Y197260D02*
X48760Y196500D01*
X56500Y189000D02*
Y195760D01*
X56000Y196260D02*
X56500Y195760D01*
X479500Y45524D02*
Y84500D01*
X456673Y80866D02*
X460307Y84500D01*
X456673Y80374D02*
Y80866D01*
X453500Y52331D02*
Y77201D01*
X460307Y84500D02*
X460799D01*
X453500Y77201D02*
X456673Y80374D01*
X453500Y52331D02*
X460307Y45524D01*
X460799D01*
X460650Y35650D02*
Y45374D01*
X460500Y35500D02*
X460650Y35650D01*
Y45374D02*
X460799Y45524D01*
X496449Y87000D02*
X496563Y86886D01*
Y78500D02*
Y86886D01*
X504500Y71000D02*
Y78563D01*
X504937Y79000D01*
X514500D01*
X479000Y140342D02*
Y152000D01*
X311819Y140342D02*
Y148731D01*
X314088Y151000D02*
X314500D01*
X311819Y148731D02*
X314088Y151000D01*
X299000D02*
X301819Y148181D01*
X125000Y149679D02*
X126961Y147718D01*
X125000Y149679D02*
Y150000D01*
X131961Y149961D02*
X132000Y150000D01*
X131961Y140362D02*
Y149961D01*
X136980Y140382D02*
Y147570D01*
X139410Y150000D02*
X139500D01*
X136980Y147570D02*
X139410Y150000D01*
X136961Y140362D02*
X136980Y140382D01*
X306909Y150909D02*
X307000Y151000D01*
X306909Y140433D02*
Y150909D01*
X306819Y140342D02*
X306909Y140433D01*
X484000Y140342D02*
Y149000D01*
X31500Y330000D02*
Y387500D01*
X18500Y400500D02*
X31500Y387500D01*
X55500Y254240D02*
Y261000D01*
X18500Y310500D02*
X51000D01*
X72500Y289000D01*
X18500Y320500D02*
X56000D01*
X84500Y292000D02*
X89000D01*
X56000Y320500D02*
X84500Y292000D01*
X11000Y323000D02*
X18500Y330500D01*
X11000Y286500D02*
X43000Y254500D01*
X11000Y286500D02*
Y323000D01*
X5000Y280500D02*
X28000Y257500D01*
X5000Y397000D02*
X18500Y410500D01*
X5000Y280500D02*
Y397000D01*
X140000Y378000D02*
X144961Y373039D01*
X140000Y378000D02*
Y399500D01*
X133500Y406000D02*
X140000Y399500D01*
X144961Y367957D02*
Y373039D01*
X492000Y367937D02*
Y393000D01*
X471253Y413747D02*
X492000Y393000D01*
X319819Y367937D02*
Y395181D01*
X306500Y408500D02*
X319819Y395181D01*
X23000Y246158D02*
Y253500D01*
X11500Y246000D02*
X17842D01*
X18000Y246158D01*
X28000D02*
Y257500D01*
X43000Y246158D02*
Y254500D01*
X22563Y188500D02*
X30000D01*
X28000Y235500D02*
Y246158D01*
X45500Y218000D02*
X66000D01*
X28000Y235500D02*
X45500Y218000D01*
X43000Y240500D02*
Y246158D01*
Y240500D02*
X47500Y236000D01*
X65500D01*
X15000Y188500D02*
Y194500D01*
Y188500D02*
X22437D01*
X22500Y188437D01*
X22563Y188500D01*
X15063Y172000D02*
Y176937D01*
X13063Y178937D02*
X15063Y176937D01*
X7000Y178937D02*
X13063D01*
X7000Y164937D02*
Y171063D01*
X18000Y205842D02*
X23000D01*
Y198500D02*
Y205842D01*
X12000Y205500D02*
X17658D01*
X18000Y205842D01*
X34500Y176012D02*
Y182500D01*
X33000Y136000D02*
Y136541D01*
X34500Y138041D02*
Y143988D01*
X33000Y136541D02*
X34500Y138041D01*
X24500Y137500D02*
X24740Y137740D01*
X17000Y137000D02*
Y144500D01*
X24500Y137000D02*
Y137500D01*
X9500Y164937D02*
X14063D01*
X16472Y157059D02*
Y162528D01*
X14063Y164937D02*
X16472Y162528D01*
X6500Y152000D02*
Y157063D01*
Y152000D02*
X14000Y144500D01*
X6500Y157063D02*
X10386D01*
X53863Y250933D02*
Y252244D01*
X56119Y254500D01*
X53000Y250071D02*
X53863Y250933D01*
X53000Y246158D02*
Y250071D01*
X56119Y254500D02*
X56740D01*
X48000Y246158D02*
Y253240D01*
Y254740D02*
Y261000D01*
X47760Y254500D02*
X48000Y254740D01*
X55500Y254240D02*
X55585Y254155D01*
X131504Y367500D02*
X131961Y367957D01*
X121000Y367500D02*
X131504D01*
X109816Y294316D02*
X115128Y299628D01*
X109816Y259784D02*
Y294316D01*
X115128Y299628D02*
Y302991D01*
X115337Y303200D01*
X109816Y259784D02*
X151400Y218200D01*
X482260Y335500D02*
Y343000D01*
X56500Y340240D02*
X56740Y340000D01*
X135500Y335000D02*
Y342260D01*
X309760Y341500D02*
X310000Y341260D01*
X14000Y144500D02*
X17260D01*
X24740D02*
X25528Y145287D01*
Y151941D01*
X10386Y157063D02*
X12949Y154500D01*
X16472D01*
X56240Y196500D02*
Y197189D01*
X48000Y197260D02*
Y205842D01*
X53000Y200429D02*
Y205842D01*
Y200429D02*
X56240Y197189D01*
X326253Y192220D02*
X326316Y192283D01*
X326256Y192000D02*
X326319Y192063D01*
X326316Y200157D02*
Y218220D01*
X382319Y354465D02*
X386819Y358965D01*
X290256Y303000D02*
X296819D01*
X290253Y291842D02*
Y303221D01*
X282132Y262404D02*
X326316Y218220D01*
X282135Y283500D02*
X290256Y291621D01*
X282135Y262184D02*
Y283500D01*
X296819Y303000D02*
X302382D01*
X115398Y303020D02*
X121961D01*
X121900Y303200D02*
X127463D01*
X151461Y199957D02*
Y218020D01*
X151398Y192020D02*
X151461Y192083D01*
X126961Y133020D02*
X129461Y130520D01*
X301819Y133000D02*
X304319Y130500D01*
X151337Y192200D02*
X151400Y192263D01*
X498437Y192000D02*
X498500Y192063D01*
X490000Y192000D02*
X498437D01*
X474000Y133000D02*
X476500Y130500D01*
X554500Y354465D02*
X559000Y358965D01*
X454316Y262184D02*
X498500Y218000D01*
Y199937D02*
Y218000D01*
X454316Y262184D02*
Y283500D01*
X462437Y291621D02*
Y303000D01*
X454316Y283500D02*
X462437Y291621D01*
X482937Y303500D02*
X491000D01*
X482437Y303000D02*
X482937Y303500D01*
X462437Y303000D02*
X469000D01*
X474563D01*
X-0Y487500D02*
X0Y0D01*
X-0Y487500D02*
X614500D01*
X614500Y0D01*
X0D02*
X614500D01*
D15*
X12004Y281504D02*
X84996D01*
Y479496D01*
X12004D02*
X84996D01*
X12004Y281504D02*
Y479496D01*
Y281504D02*
X84996D01*
Y479496D01*
X12004D02*
X84996D01*
X12004Y281504D02*
Y479496D01*
D17*
X33063Y407000D02*
D03*
X40937D02*
D03*
X33063Y398500D02*
D03*
X40937D02*
D03*
X482063Y352000D02*
D03*
X489937D02*
D03*
X239563Y397000D02*
D03*
X247437D02*
D03*
X496563Y78500D02*
D03*
X504437D02*
D03*
X415063Y396000D02*
D03*
X422937D02*
D03*
X15063Y172000D02*
D03*
X22937D02*
D03*
X595937Y396500D02*
D03*
X588063D02*
D03*
X454563Y303000D02*
D03*
X462437D02*
D03*
X482437D02*
D03*
X474563D02*
D03*
X282379Y303221D02*
D03*
X290253D02*
D03*
X310253D02*
D03*
X302379D02*
D03*
X107463Y303200D02*
D03*
X115337D02*
D03*
X135337D02*
D03*
X127463D02*
D03*
X508437Y103500D02*
D03*
X500563D02*
D03*
X336256D02*
D03*
X328382D02*
D03*
X316937Y351000D02*
D03*
X309063D02*
D03*
X161398Y103520D02*
D03*
X153524D02*
D03*
X142937Y351000D02*
D03*
X135063D02*
D03*
D18*
X484000Y140342D02*
D03*
X479000D02*
D03*
X474000D02*
D03*
X469000D02*
D03*
X484000Y120658D02*
D03*
X479000D02*
D03*
X474000D02*
D03*
X469000D02*
D03*
X311819Y140342D02*
D03*
X306819D02*
D03*
X301819D02*
D03*
X296819D02*
D03*
X311819Y120658D02*
D03*
X306819D02*
D03*
X301819D02*
D03*
X296819D02*
D03*
X136961Y140362D02*
D03*
X131961D02*
D03*
X126961D02*
D03*
X121961D02*
D03*
X136961Y120677D02*
D03*
X131961D02*
D03*
X126961D02*
D03*
X121961D02*
D03*
D19*
X476500Y130500D02*
D03*
X304319D02*
D03*
X129461Y130520D02*
D03*
D20*
X67000Y329988D02*
D03*
Y341012D02*
D03*
X55500D02*
D03*
Y329988D02*
D03*
X551000Y168024D02*
D03*
Y157000D02*
D03*
X535000Y392012D02*
D03*
Y380988D02*
D03*
X524500Y392012D02*
D03*
Y380988D02*
D03*
X504000Y381000D02*
D03*
Y392024D02*
D03*
X514000Y380988D02*
D03*
Y392012D02*
D03*
X382500Y166512D02*
D03*
Y155488D02*
D03*
X362819Y392012D02*
D03*
Y380988D02*
D03*
X352319Y392012D02*
D03*
Y380988D02*
D03*
X331819Y381000D02*
D03*
Y392024D02*
D03*
X341819Y380988D02*
D03*
Y392012D02*
D03*
X34500Y164988D02*
D03*
Y176012D02*
D03*
Y143988D02*
D03*
Y155012D02*
D03*
X206000Y168524D02*
D03*
Y157500D02*
D03*
X187961Y392032D02*
D03*
Y381008D02*
D03*
X177461Y392032D02*
D03*
Y381008D02*
D03*
X156961Y381020D02*
D03*
Y392043D02*
D03*
X166961Y381008D02*
D03*
Y392032D02*
D03*
D21*
X578740Y392413D02*
D03*
X575000D02*
D03*
X571260D02*
D03*
Y381587D02*
D03*
X578740D02*
D03*
X407240Y391413D02*
D03*
X403500D02*
D03*
X399760D02*
D03*
Y380587D02*
D03*
X407240D02*
D03*
X230740Y391413D02*
D03*
X227000D02*
D03*
X223260D02*
D03*
Y380587D02*
D03*
X230740D02*
D03*
D22*
X559000Y396646D02*
D03*
Y377354D02*
D03*
X386819Y396646D02*
D03*
Y377354D02*
D03*
X211961Y396665D02*
D03*
Y377374D02*
D03*
D23*
X502551Y87000D02*
D03*
X496449D02*
D03*
D24*
X460799Y84500D02*
D03*
D25*
Y45524D02*
D03*
X479500Y84500D02*
D03*
Y45524D02*
D03*
D26*
X504500Y71000D02*
D03*
X469000Y303000D02*
D03*
X296816Y303221D02*
D03*
X121900Y303200D02*
D03*
X475000Y353500D02*
D03*
X303117Y353883D02*
D03*
X14063Y164937D02*
D03*
X15000Y194500D02*
D03*
X127500Y351586D02*
D03*
X41000Y415000D02*
D03*
X108000Y325000D02*
D03*
X441000Y183000D02*
D03*
X464000Y173000D02*
D03*
X506000Y94000D02*
D03*
X487000Y152000D02*
D03*
X471000D02*
D03*
X300000Y368000D02*
D03*
X472000D02*
D03*
X464000Y310500D02*
D03*
X454500Y324500D02*
D03*
X318000Y303500D02*
D03*
X298000Y309500D02*
D03*
X282500Y325000D02*
D03*
X117500Y311000D02*
D03*
X497000Y352500D02*
D03*
X310000Y334000D02*
D03*
X322500Y351500D02*
D03*
X150500Y351000D02*
D03*
X111500Y187000D02*
D03*
X79000Y165500D02*
D03*
X601000Y7000D02*
D03*
X67000Y349000D02*
D03*
X603500Y407500D02*
D03*
X603000Y381000D02*
D03*
X575000Y398500D02*
D03*
X585000Y373500D02*
D03*
X403750Y397750D02*
D03*
X432000Y381000D02*
D03*
X416000Y372000D02*
D03*
X250500Y373000D02*
D03*
X243000D02*
D03*
X227500Y398000D02*
D03*
X548000Y20500D02*
D03*
Y27500D02*
D03*
X575000Y6000D02*
D03*
X27000Y398000D02*
D03*
X470000Y84500D02*
D03*
X248000Y90000D02*
D03*
X420000Y87500D02*
D03*
X297500Y92500D02*
D03*
X306000Y87500D02*
D03*
X48500Y189000D02*
D03*
X56500D02*
D03*
X102500Y92000D02*
D03*
X166000Y308000D02*
D03*
X106500Y264500D02*
D03*
X563500Y51000D02*
D03*
X603500Y48500D02*
D03*
X603707Y74357D02*
D03*
X566142Y132307D02*
D03*
X534500Y85000D02*
D03*
X550500D02*
D03*
X577500Y75000D02*
D03*
X603000Y106500D02*
D03*
X512500Y72500D02*
D03*
X537500D02*
D03*
X511500Y87000D02*
D03*
X514500Y79000D02*
D03*
X136610Y96909D02*
D03*
X281500Y95000D02*
D03*
X453000Y93500D02*
D03*
X479000Y152000D02*
D03*
X314500Y151000D02*
D03*
X299000D02*
D03*
X125000Y150000D02*
D03*
X132000D02*
D03*
X139500D02*
D03*
X307000Y151000D02*
D03*
X31500Y330000D02*
D03*
X145000Y384000D02*
D03*
X127295Y96122D02*
D03*
X130000Y85500D02*
D03*
X144000Y39937D02*
D03*
X164500Y39437D02*
D03*
X124000Y39937D02*
D03*
X145500Y71437D02*
D03*
X128500Y61937D02*
D03*
X157500Y65437D02*
D03*
X309500Y37500D02*
D03*
X289000Y38000D02*
D03*
X269000D02*
D03*
X290500Y69500D02*
D03*
X273500Y60000D02*
D03*
X302500Y63500D02*
D03*
X101961Y101520D02*
D03*
X440500Y35500D02*
D03*
X481000Y35000D02*
D03*
X474000Y61000D02*
D03*
X445000Y57500D02*
D03*
X460500Y35500D02*
D03*
X462000Y67000D02*
D03*
X72000Y262000D02*
D03*
X72500Y289000D02*
D03*
X89000Y292000D02*
D03*
X82000Y283000D02*
D03*
X79500Y262000D02*
D03*
X101000Y308500D02*
D03*
X29500Y415500D02*
D03*
X68000Y413500D02*
D03*
X250000Y293500D02*
D03*
X236500Y308500D02*
D03*
X169500Y313000D02*
D03*
X162000D02*
D03*
Y319000D02*
D03*
X169500D02*
D03*
X255500Y404500D02*
D03*
X275599Y392768D02*
D03*
Y386768D02*
D03*
X275534Y380623D02*
D03*
X263500Y422500D02*
D03*
X248000Y437571D02*
D03*
X173432Y340253D02*
D03*
X173408Y345889D02*
D03*
X196000Y392500D02*
D03*
X431500Y406500D02*
D03*
X23000Y253500D02*
D03*
X11500Y246000D02*
D03*
X30000Y188500D02*
D03*
X15000D02*
D03*
X23000Y198500D02*
D03*
X12000Y205500D02*
D03*
X34500Y182500D02*
D03*
X33000Y136000D02*
D03*
X17000Y137000D02*
D03*
X24500D02*
D03*
X48000Y261000D02*
D03*
X55500D02*
D03*
X121000Y367500D02*
D03*
X482260Y335500D02*
D03*
X135500Y335000D02*
D03*
X349158Y368933D02*
D03*
X336157Y369433D02*
D03*
X317819Y192000D02*
D03*
X143961Y303520D02*
D03*
X306819Y111500D02*
D03*
X276819Y101500D02*
D03*
X280658Y110433D02*
D03*
X105799Y110453D02*
D03*
X142961Y192020D02*
D03*
X174241Y368913D02*
D03*
X144461Y106020D02*
D03*
X131961Y111520D02*
D03*
X319319Y106000D02*
D03*
X154000Y371500D02*
D03*
X490000Y192000D02*
D03*
X467500Y93000D02*
D03*
X449000Y101500D02*
D03*
X453000Y110500D02*
D03*
X479000Y111500D02*
D03*
X491500Y106000D02*
D03*
X491000Y303500D02*
D03*
X521500Y369000D02*
D03*
X508500Y369500D02*
D03*
D27*
X582000Y421736D02*
D03*
Y451264D02*
D03*
X245000Y422236D02*
D03*
Y451764D02*
D03*
X421500Y451264D02*
D03*
Y421736D02*
D03*
D28*
X528094Y167961D02*
D03*
X519906D02*
D03*
X347406Y167587D02*
D03*
X355594D02*
D03*
X171906Y167461D02*
D03*
X180095D02*
D03*
D29*
X524000Y153000D02*
D03*
X351500Y152626D02*
D03*
X176000Y152500D02*
D03*
D30*
X53000Y246158D02*
D03*
X48000D02*
D03*
X43000D02*
D03*
X38000D02*
D03*
X33000D02*
D03*
X28000D02*
D03*
X23000D02*
D03*
X18000D02*
D03*
X53000Y205842D02*
D03*
X48000D02*
D03*
X43000D02*
D03*
X38000D02*
D03*
X33000D02*
D03*
X28000D02*
D03*
X23000D02*
D03*
X18000D02*
D03*
D31*
X55500Y169937D02*
D03*
Y162063D02*
D03*
X64500Y169937D02*
D03*
Y162063D02*
D03*
X7000Y171063D02*
D03*
Y178937D02*
D03*
X498500Y199937D02*
D03*
Y192063D02*
D03*
X326316Y200157D02*
D03*
Y192283D02*
D03*
X151400Y200137D02*
D03*
Y192263D02*
D03*
X462000Y153937D02*
D03*
Y146063D02*
D03*
X479000Y367937D02*
D03*
Y360063D02*
D03*
X492000D02*
D03*
Y367937D02*
D03*
X289819Y153937D02*
D03*
Y146063D02*
D03*
X306819Y367937D02*
D03*
Y360063D02*
D03*
X319819D02*
D03*
Y367937D02*
D03*
X7000Y164937D02*
D03*
Y157063D02*
D03*
X22500Y180563D02*
D03*
Y188437D02*
D03*
X114961Y153957D02*
D03*
Y146083D02*
D03*
X131961Y367957D02*
D03*
Y360083D02*
D03*
X144961D02*
D03*
Y367957D02*
D03*
D32*
X24740Y144500D02*
D03*
X17260D02*
D03*
X482260Y343000D02*
D03*
X489740D02*
D03*
X309760Y341500D02*
D03*
X317240D02*
D03*
X592740Y381500D02*
D03*
X585260D02*
D03*
X423240Y380500D02*
D03*
X415760D02*
D03*
X135260Y342500D02*
D03*
X142740D02*
D03*
X247240Y380500D02*
D03*
X239760D02*
D03*
X468240Y111500D02*
D03*
X460760D02*
D03*
X482740Y104000D02*
D03*
X475260D02*
D03*
X296059Y111500D02*
D03*
X288579D02*
D03*
X310559Y104000D02*
D03*
X303079D02*
D03*
X48760Y196500D02*
D03*
X56240D02*
D03*
X47760Y254500D02*
D03*
X55240D02*
D03*
X121201Y111520D02*
D03*
X113721D02*
D03*
X135701Y104020D02*
D03*
X128220D02*
D03*
D33*
X296500Y422098D02*
D03*
Y409500D02*
D03*
X459500Y411201D02*
D03*
Y423799D02*
D03*
X121000Y410201D02*
D03*
Y422799D02*
D03*
D34*
X16472Y157059D02*
D03*
Y154500D02*
D03*
Y151941D02*
D03*
X25528D02*
D03*
Y157059D02*
D03*
D35*
X554500Y285500D02*
D03*
Y354465D02*
D03*
X382319Y285500D02*
D03*
Y354465D02*
D03*
X207461Y285520D02*
D03*
Y354484D02*
D03*
D36*
X449500Y135626D02*
D03*
Y151374D02*
D03*
X277319Y135626D02*
D03*
Y151374D02*
D03*
X102461Y135646D02*
D03*
Y151394D02*
D03*
D37*
X497626Y117000D02*
D03*
X513374D02*
D03*
X325445D02*
D03*
X341193D02*
D03*
X150587Y117020D02*
D03*
X166335D02*
D03*
D38*
X603500Y389260D02*
D03*
Y396740D02*
D03*
X432000Y388760D02*
D03*
Y396240D02*
D03*
X454500Y318240D02*
D03*
Y310760D02*
D03*
X255500Y389760D02*
D03*
Y397240D02*
D03*
X282500Y319240D02*
D03*
Y311760D02*
D03*
X108500Y318240D02*
D03*
Y310760D02*
D03*
X540500Y158260D02*
D03*
Y165740D02*
D03*
X371500Y157260D02*
D03*
Y164740D02*
D03*
X194000Y159020D02*
D03*
Y166500D02*
D03*
D39*
X467512Y102500D02*
D03*
X456488D02*
D03*
X295331D02*
D03*
X284307D02*
D03*
X120472Y102520D02*
D03*
X109449D02*
D03*
D78*
X469000Y120658D02*
G03*
X468240Y118823I1834J-1834D01*
G01*
Y110000D02*
G03*
X467512Y108242I1758J-1758D01*
G01*
X296819Y120658D02*
G03*
X296059Y118823I1834J-1834D01*
G01*
Y110000D02*
G03*
X295331Y108242I1758J-1758D01*
G01*
X121961Y120677D02*
G03*
X121201Y118843I1834J-1834D01*
G01*
Y110020D02*
G03*
X120472Y108261I1758J-1758D01*
G01*
X468240Y110000D02*
Y111500D01*
Y118823D01*
X296059Y110000D02*
Y111500D01*
Y118823D01*
X467512Y102500D02*
Y108242D01*
X121201Y111520D02*
Y118843D01*
Y110020D02*
Y111520D01*
X295331Y102500D02*
Y108242D01*
X120472Y102520D02*
Y108261D01*
Y101831D02*
Y102520D01*
X470000Y84500D02*
Y84635D01*
X467500Y87135D02*
Y93000D01*
Y87135D02*
X470000Y84635D01*
X295325Y102494D02*
X295331Y102500D01*
X295325Y94810D02*
Y102494D01*
Y94810D02*
X297500Y92635D01*
Y92500D02*
Y92635D01*
X123541Y96218D02*
X127199D01*
X122077Y97682D02*
Y100915D01*
Y97682D02*
X123541Y96218D01*
X120472Y102520D02*
X122077Y100915D01*
X127199Y96218D02*
X127295Y96122D01*
X467512Y101000D02*
Y102500D01*
X467506Y100994D02*
X467512Y101000D01*
X467506Y93006D02*
Y100994D01*
X467500Y93000D02*
X467506Y93006D01*
D79*
X454563Y310697D02*
X454760Y310500D01*
X454500Y310760D02*
X454563Y310697D01*
X454760Y310500D02*
X464000D01*
X454563Y303000D02*
Y310697D01*
X107463Y303200D02*
X108500Y304237D01*
Y310760D01*
X108740Y311000D02*
X117500D01*
X108500Y310760D02*
X108740Y311000D01*
X592740Y381500D02*
X593000Y381240D01*
X575241Y393735D02*
Y395559D01*
X575000Y395800D02*
X575241Y395559D01*
X575000Y395800D02*
Y398500D01*
X403750Y390971D02*
Y397750D01*
Y390971D02*
X404150Y390572D01*
X227500Y390759D02*
Y398000D01*
X502551Y87000D02*
X511500D01*
D80*
X559000Y377354D02*
X559331Y377685D01*
X386819Y358965D02*
Y377354D01*
X559000Y358965D02*
Y377354D01*
D81*
X211961Y358984D02*
Y373543D01*
X207461Y354484D02*
X211961Y358984D01*
D82*
X297500Y92500D02*
X302309Y87691D01*
X305809D01*
X306000Y87500D01*
X127295Y96122D02*
X130000Y93416D01*
Y85500D02*
Y93416D01*
X454500Y469000D02*
X459500Y464000D01*
Y423799D02*
Y464000D01*
X24740Y137740D02*
Y144500D01*
X136768Y106754D02*
X136961Y106947D01*
X136768Y105776D02*
Y106754D01*
X135701Y104020D02*
Y104709D01*
X166335Y117020D02*
Y127646D01*
X154961Y139020D02*
X166335Y127646D01*
X165461Y116146D02*
X166335Y117020D01*
X165461Y108468D02*
Y116146D01*
X161398Y103520D02*
Y104405D01*
X165461Y108468D01*
X126961Y105968D02*
Y120677D01*
X128220Y104020D02*
Y104709D01*
X126961Y105968D02*
X128220Y104709D01*
X131961Y111520D02*
Y120677D01*
X146461Y150520D02*
X154961Y159020D01*
X146461Y132475D02*
Y150520D01*
X136961Y122975D02*
X146461Y132475D01*
X136961Y106947D02*
Y122975D01*
X135701Y104709D02*
X136768Y105776D01*
X311626Y106735D02*
X311819Y106928D01*
X311626Y105756D02*
Y106735D01*
X310559Y104000D02*
Y104689D01*
X341193Y117000D02*
Y127626D01*
X329819Y139000D02*
X341193Y127626D01*
X340319Y116126D02*
X341193Y117000D01*
X336256Y104386D02*
X340319Y108449D01*
Y116126D01*
X336256Y103500D02*
Y104386D01*
X301819Y105949D02*
Y120658D01*
X303079Y104000D02*
Y104689D01*
X301819Y105949D02*
X303079Y104689D01*
X306819Y111500D02*
Y120658D01*
X321319Y150500D02*
X329819Y159000D01*
X321319Y132455D02*
Y150500D01*
X311819Y122955D02*
X321319Y132455D01*
X311819Y106928D02*
Y122955D01*
X310559Y104689D02*
X311626Y105756D01*
X484000Y106928D02*
Y122955D01*
X483807Y106735D02*
X484000Y106928D01*
X482740Y104689D02*
X483807Y105756D01*
Y106735D01*
X493500Y150500D02*
X502000Y159000D01*
X493500Y132455D02*
Y150500D01*
X484000Y122955D02*
X493500Y132455D01*
X502000Y139000D02*
X513374Y127626D01*
Y117000D02*
Y127626D01*
X512500Y108449D02*
Y116126D01*
X513374Y117000D01*
X508437Y103500D02*
Y104386D01*
X512500Y108449D01*
X482740Y104000D02*
Y104689D01*
X479000Y111500D02*
Y120658D01*
X474000Y105949D02*
X475260Y104689D01*
X474000Y105949D02*
Y120658D01*
X475260Y104000D02*
Y104689D01*
D83*
X40650Y138013D02*
X49000Y146363D01*
Y164621D02*
X50379Y166000D01*
X46500Y147398D02*
Y165657D01*
X50592Y169749D02*
X55312D01*
X49000Y146363D02*
Y164621D01*
X50379Y166000D02*
X59677D01*
X46500Y165657D02*
X50592Y169749D01*
X59677Y166000D02*
X63614Y169937D01*
X38150Y139049D02*
X46500Y147398D01*
X55312Y169749D02*
X55500Y169937D01*
X63614D02*
X64500D01*
X34250Y191250D02*
Y202821D01*
Y191250D02*
X46622Y178878D01*
X36750Y192286D02*
X47658Y181378D01*
X36750Y192286D02*
Y202821D01*
X47658Y181378D02*
X54866D01*
X46622Y178878D02*
X53831D01*
X64057Y170380D02*
X64500Y169937D01*
X63478Y170959D02*
X64057Y170380D01*
X40650Y121450D02*
X45300Y116800D01*
X40650Y121450D02*
Y138013D01*
X38150Y121450D02*
Y139049D01*
X33500Y116800D02*
X38150Y121450D01*
X33000Y204071D02*
X34250Y202821D01*
X33000Y204071D02*
Y205842D01*
X36750Y202821D02*
X38000Y204071D01*
Y205842D01*
X55500Y169937D02*
X56522Y170959D01*
X57871D01*
X53831Y178878D02*
X58750Y173959D01*
X57871Y170959D02*
X58750Y171837D01*
X62129Y170959D02*
X63478D01*
X61250Y171837D02*
Y174994D01*
X54866Y181378D02*
X61250Y174994D01*
X58750Y171837D02*
Y173959D01*
X61250Y171837D02*
X62129Y170959D01*
X64500Y162063D02*
X65500Y161063D01*
Y152500D02*
Y161063D01*
X55500Y152500D02*
Y162063D01*
D84*
X339819Y192500D02*
X345819D01*
X327819Y180500D02*
X339819Y192500D01*
X152961Y180520D02*
X164961Y192520D01*
X114346Y153957D02*
X140909Y180520D01*
X164961Y192520D02*
X170961D01*
X140909Y180520D02*
X152961D01*
X113461Y153957D02*
X114346D01*
X101807D02*
X113461D01*
X100961Y152110D02*
X102807Y153957D01*
X100961Y151394D02*
Y152110D01*
X315768Y180500D02*
X327819D01*
X289205Y153937D02*
X315768Y180500D01*
X288319Y153937D02*
X289205D01*
X276665D02*
X288319D01*
X275819Y152091D02*
X277665Y153937D01*
X275819Y151374D02*
Y152091D01*
X487949Y180500D02*
X500000D01*
X460500Y153937D02*
X461386D01*
X487949Y180500D01*
X448846Y153937D02*
X460500D01*
X448000Y152091D02*
X449847Y153937D01*
X448000Y151374D02*
Y152091D01*
X500000Y180500D02*
X512000Y192500D01*
X518000D01*
D85*
X435500Y152000D02*
D03*
X518000Y192500D02*
D03*
X345819D02*
D03*
X170961Y192520D02*
D03*
D86*
X425500Y152000D02*
D03*
X415500D02*
D03*
X538000Y192500D02*
D03*
X528000D02*
D03*
X502000Y159000D02*
D03*
Y149000D02*
D03*
X365819Y192500D02*
D03*
X355819D02*
D03*
X329819Y159000D02*
D03*
Y149000D02*
D03*
X190961Y192520D02*
D03*
X180961D02*
D03*
X154961Y159020D02*
D03*
Y149020D02*
D03*
D87*
X108500Y379000D02*
D03*
Y389000D02*
D03*
X337000Y83500D02*
D03*
X347000D02*
D03*
X345500Y9500D02*
D03*
X335500D02*
D03*
X65500Y152500D02*
D03*
X55500D02*
D03*
X65500Y236000D02*
D03*
X75500D02*
D03*
X66000Y218000D02*
D03*
X76000D02*
D03*
D88*
X90701Y63693D02*
D03*
X61201Y76213D02*
D03*
X90701D02*
D03*
X61201Y63693D02*
D03*
X499000Y425500D02*
D03*
X528500Y412980D02*
D03*
X499000D02*
D03*
X528500Y425500D02*
D03*
X340000D02*
D03*
X369500Y412980D02*
D03*
X340000D02*
D03*
X369500Y425500D02*
D03*
X163500D02*
D03*
X193000Y412980D02*
D03*
X163500D02*
D03*
X193000Y425500D02*
D03*
D89*
X109402Y12000D02*
D03*
X42500D02*
D03*
X480299Y477193D02*
D03*
X547201D02*
D03*
X321299D02*
D03*
X388201D02*
D03*
X144799D02*
D03*
X211701D02*
D03*
D90*
X78500Y310500D02*
D03*
X18500D02*
D03*
X78500Y320500D02*
D03*
X18500D02*
D03*
X78500Y330500D02*
D03*
X18500D02*
D03*
X78500Y340500D02*
D03*
X18500D02*
D03*
X78500Y350500D02*
D03*
X18500D02*
D03*
X78500Y360500D02*
D03*
X18500D02*
D03*
X78500Y370500D02*
D03*
X18500D02*
D03*
X78500Y380500D02*
D03*
X18500D02*
D03*
X78500Y390500D02*
D03*
X18500D02*
D03*
X78500Y400500D02*
D03*
X18500D02*
D03*
X78500Y410500D02*
D03*
X18500D02*
D03*
X78500Y420500D02*
D03*
X18500D02*
D03*
X78500Y430500D02*
D03*
X18500D02*
D03*
X78500Y440500D02*
D03*
X18500D02*
D03*
D91*
X78500Y450500D02*
D03*
X18500D02*
D03*
D92*
X230461Y210520D02*
D03*
X130461D02*
D03*
X577500Y210500D02*
D03*
X477500D02*
D03*
X305319D02*
D03*
X405319D02*
D03*
D93*
X502000Y139000D02*
D03*
X329819D02*
D03*
X154961Y139020D02*
D03*
D94*
X454316Y283500D02*
D03*
X464158D02*
D03*
X474000D02*
D03*
X483842D02*
D03*
X282132Y283720D02*
D03*
X291974D02*
D03*
X301816D02*
D03*
X311658D02*
D03*
X109816Y284000D02*
D03*
X119658D02*
D03*
X129500D02*
D03*
X139342D02*
D03*
D95*
X33500Y105000D02*
D03*
Y116800D02*
D03*
X45300Y105000D02*
D03*
Y116800D02*
D03*
D96*
X16500Y110900D02*
D03*
D97*
X47000Y467000D02*
D03*
X15500Y17500D02*
D03*
X504000Y19000D02*
D03*
X599500Y473000D02*
D03*
D98*
X174000Y13500D02*
D03*
X135000D02*
D03*
Y27000D02*
D03*
X174000D02*
D03*
D99*
X586500Y38000D02*
D03*
X556972D02*
D03*
X414028D02*
D03*
X384500D02*
D03*
X240000Y37500D02*
D03*
X210472D02*
D03*
X586028Y116000D02*
D03*
X556500D02*
D03*
X413846D02*
D03*
X384319D02*
D03*
X238988Y116020D02*
D03*
X209461D02*
D03*
M02*
