G04*
G04 #@! TF.GenerationSoftware,Altium Limited,Altium Designer,21.9.2 (33)*
G04*
G04 Layer_Color=128*
%FSLAX25Y25*%
%MOIN*%
G70*
G04*
G04 #@! TF.SameCoordinates,2187BA10-C0C5-499C-AD3E-B80059DCE3BC*
G04*
G04*
G04 #@! TF.FilePolarity,Positive*
G04*
G01*
G75*
%ADD13C,0.01000*%
%ADD15C,0.00500*%
%ADD17R,0.03543X0.05315*%
%ADD20R,0.07087X0.05709*%
%ADD21R,0.02362X0.03937*%
%ADD26C,0.03000*%
%ADD31R,0.05315X0.03543*%
%ADD32R,0.04134X0.05512*%
%ADD33R,0.08898X0.11024*%
%ADD38R,0.05512X0.04134*%
%ADD39R,0.05709X0.07087*%
%ADD116R,0.02756X0.03937*%
%ADD117R,0.03937X0.02362*%
%ADD118R,0.21260X0.11417*%
%ADD119R,0.08661X0.08701*%
%ADD120R,0.06102X0.02559*%
%ADD121R,0.03543X0.02559*%
%ADD122R,0.19685X0.19685*%
%ADD123R,0.05315X0.01181*%
%ADD124R,0.09843X0.02756*%
%ADD125R,0.19685X0.19685*%
%ADD126R,0.03937X0.02756*%
D13*
X-0Y487500D02*
X0Y0D01*
X-0Y487500D02*
X614500D01*
X614500Y0D01*
X0D02*
X614500D01*
D15*
X12004Y281504D02*
X84996D01*
Y479496D01*
X12004D02*
X84996D01*
X12004Y281504D02*
Y479496D01*
Y281504D02*
X84996D01*
Y479496D01*
X12004D02*
X84996D01*
X12004Y281504D02*
Y479496D01*
D17*
X183532Y309000D02*
D03*
X175658D02*
D03*
X110063Y55374D02*
D03*
X117937D02*
D03*
X110063Y73874D02*
D03*
X117937D02*
D03*
X255063Y71937D02*
D03*
X262937D02*
D03*
X255063Y53437D02*
D03*
X262937D02*
D03*
X434437Y69437D02*
D03*
X426563D02*
D03*
X434437Y50937D02*
D03*
X426563D02*
D03*
X184032Y399500D02*
D03*
X176158D02*
D03*
X562063Y91500D02*
D03*
X569937D02*
D03*
X603437Y66500D02*
D03*
X595563D02*
D03*
X587063Y107000D02*
D03*
X594937D02*
D03*
X585437Y83000D02*
D03*
X577563D02*
D03*
X595563Y57500D02*
D03*
X603437D02*
D03*
D20*
X181095Y328988D02*
D03*
Y340012D02*
D03*
X164595D02*
D03*
Y328988D02*
D03*
X91500Y308488D02*
D03*
Y319512D02*
D03*
X67500Y438988D02*
D03*
Y450012D02*
D03*
X205095Y380988D02*
D03*
Y392012D02*
D03*
D21*
X281740Y89842D02*
D03*
X274260D02*
D03*
X281740Y78031D02*
D03*
X274260D02*
D03*
X278000Y89842D02*
D03*
X449500Y87343D02*
D03*
X445760Y75532D02*
D03*
X453240D02*
D03*
X445760Y87343D02*
D03*
X453240D02*
D03*
X299000Y56343D02*
D03*
X295260Y44532D02*
D03*
X302740D02*
D03*
X295260Y56343D02*
D03*
X302740D02*
D03*
X133000Y91780D02*
D03*
X129260Y79969D02*
D03*
X136740D02*
D03*
X129260Y91780D02*
D03*
X136740D02*
D03*
X154000Y58280D02*
D03*
X150260Y46468D02*
D03*
X157740D02*
D03*
X150260Y58280D02*
D03*
X157740D02*
D03*
X474240Y53843D02*
D03*
X466760D02*
D03*
X474240Y42031D02*
D03*
X466760D02*
D03*
X470500Y53843D02*
D03*
D26*
X232500Y375500D02*
D03*
X175500Y299500D02*
D03*
X522500Y58500D02*
D03*
X170095Y399000D02*
D03*
D31*
X452000Y147063D02*
D03*
Y154937D02*
D03*
X415000Y128063D02*
D03*
Y135937D02*
D03*
X423000Y128063D02*
D03*
Y135937D02*
D03*
X430500Y128063D02*
D03*
Y135937D02*
D03*
X438000Y128063D02*
D03*
Y135937D02*
D03*
X87500Y165563D02*
D03*
Y173437D02*
D03*
Y187937D02*
D03*
Y180063D02*
D03*
X579500Y99563D02*
D03*
Y107437D02*
D03*
X449000Y180063D02*
D03*
Y187937D02*
D03*
X432000Y181063D02*
D03*
Y188937D02*
D03*
X590500Y6563D02*
D03*
Y14437D02*
D03*
X526000Y117063D02*
D03*
Y124937D02*
D03*
X543500Y85063D02*
D03*
Y92937D02*
D03*
X145500Y89811D02*
D03*
Y81937D02*
D03*
X290500Y87874D02*
D03*
Y80000D02*
D03*
X312500Y53874D02*
D03*
Y46000D02*
D03*
X167500Y55811D02*
D03*
Y47937D02*
D03*
X462500Y76063D02*
D03*
Y83937D02*
D03*
X484000Y43500D02*
D03*
Y51374D02*
D03*
X99000Y173437D02*
D03*
Y165563D02*
D03*
X29500Y430437D02*
D03*
Y422563D02*
D03*
X68000Y428937D02*
D03*
Y421063D02*
D03*
X215500Y390937D02*
D03*
Y383063D02*
D03*
X528500Y92937D02*
D03*
Y85063D02*
D03*
D32*
X103240Y187000D02*
D03*
X95760D02*
D03*
X79740Y269000D02*
D03*
X72260D02*
D03*
X523760Y72500D02*
D03*
X531240D02*
D03*
X137740Y39874D02*
D03*
X130260D02*
D03*
X150260Y39374D02*
D03*
X157740D02*
D03*
X117740Y45874D02*
D03*
X110260D02*
D03*
X130760Y71374D02*
D03*
X138240D02*
D03*
X117240Y91874D02*
D03*
X109760D02*
D03*
X262240Y89937D02*
D03*
X254760D02*
D03*
X275760Y69437D02*
D03*
X283240D02*
D03*
X262740Y43937D02*
D03*
X255260D02*
D03*
X295260Y37437D02*
D03*
X302740D02*
D03*
X282740Y37937D02*
D03*
X275260D02*
D03*
X426260Y87437D02*
D03*
X433740D02*
D03*
X454740Y66937D02*
D03*
X447260D02*
D03*
X426760Y41437D02*
D03*
X434240D02*
D03*
X474240Y34937D02*
D03*
X466760D02*
D03*
X446760Y35437D02*
D03*
X454240D02*
D03*
X167335Y367000D02*
D03*
X159855D02*
D03*
D33*
X183095Y364799D02*
D03*
Y352201D02*
D03*
D38*
X555000Y27740D02*
D03*
Y20260D02*
D03*
X151095Y386240D02*
D03*
Y378760D02*
D03*
X196095Y388240D02*
D03*
Y380760D02*
D03*
D39*
X588512Y66500D02*
D03*
X577488D02*
D03*
D116*
X436055Y165535D02*
D03*
X440110Y174000D02*
D03*
X432000D02*
D03*
X448890Y173500D02*
D03*
X457000D02*
D03*
X452945Y165035D02*
D03*
X586890Y98500D02*
D03*
X595000D02*
D03*
X590945Y90035D02*
D03*
D117*
X574905Y12260D02*
D03*
Y19740D02*
D03*
X563095Y12260D02*
D03*
Y19740D02*
D03*
X574905Y16000D02*
D03*
X284413Y46697D02*
D03*
Y54177D02*
D03*
X273587D02*
D03*
Y50437D02*
D03*
Y46697D02*
D03*
X445087Y44197D02*
D03*
Y47937D02*
D03*
Y51677D02*
D03*
X455913D02*
D03*
Y44197D02*
D03*
X128587Y48634D02*
D03*
Y52374D02*
D03*
Y56114D02*
D03*
X139413D02*
D03*
Y48634D02*
D03*
D118*
X219095Y366595D02*
D03*
Y328405D02*
D03*
D119*
X543276Y104500D02*
D03*
X527724D02*
D03*
D120*
X552130Y66000D02*
D03*
Y61000D02*
D03*
Y56000D02*
D03*
Y51000D02*
D03*
X530870Y66000D02*
D03*
Y61000D02*
D03*
Y56000D02*
D03*
Y51000D02*
D03*
D121*
X109472Y63874D02*
D03*
X118528D02*
D03*
Y82874D02*
D03*
X109472D02*
D03*
X263528Y80937D02*
D03*
X254472D02*
D03*
Y61937D02*
D03*
X263528D02*
D03*
X425972Y78437D02*
D03*
X435028D02*
D03*
Y59437D02*
D03*
X425972D02*
D03*
D122*
X248000Y389071D02*
D03*
Y422929D02*
D03*
D123*
X72240Y276047D02*
D03*
Y278016D02*
D03*
Y279984D02*
D03*
Y281953D02*
D03*
Y283921D02*
D03*
X89760Y276047D02*
D03*
Y278016D02*
D03*
Y279984D02*
D03*
Y281953D02*
D03*
Y283921D02*
D03*
D124*
X185240Y391500D02*
D03*
Y386500D02*
D03*
Y381500D02*
D03*
Y376500D02*
D03*
X165949Y391500D02*
D03*
Y386500D02*
D03*
Y381500D02*
D03*
Y376500D02*
D03*
D125*
X201571Y294500D02*
D03*
X235429D02*
D03*
D126*
X545965Y120945D02*
D03*
X537500Y125000D02*
D03*
Y116890D02*
D03*
X569965Y103945D02*
D03*
X561500Y108000D02*
D03*
Y99890D02*
D03*
M02*
