G04*
G04 #@! TF.GenerationSoftware,Altium Limited,Altium Designer,21.9.2 (33)*
G04*
G04 Layer_Color=8421504*
%FSLAX25Y25*%
%MOIN*%
G70*
G04*
G04 #@! TF.SameCoordinates,B06A9D19-EDBD-4E7D-A5C2-52FB3366CB16*
G04*
G04*
G04 #@! TF.FilePolarity,Positive*
G04*
G01*
G75*
%ADD12C,0.01000*%
%ADD15C,0.00500*%
%ADD17R,0.04134X0.05512*%
%ADD18R,0.05709X0.07087*%
%ADD19R,0.01181X0.05315*%
%ADD20R,0.05315X0.03543*%
%ADD21R,0.02559X0.06102*%
%ADD22O,0.02362X0.05906*%
%ADD23C,0.03000*%
%ADD24R,0.03543X0.05315*%
%ADD25R,0.07087X0.05709*%
%ADD26R,0.05512X0.04134*%
%ADD27R,0.33465X0.31496*%
%ADD28R,0.09843X0.02756*%
%ADD29R,0.03150X0.03543*%
%ADD30R,0.08898X0.11024*%
%ADD31R,0.21260X0.11417*%
%ADD32R,0.19685X0.19685*%
%ADD33R,0.01575X0.03543*%
%ADD34R,0.06890X0.05709*%
%ADD35R,0.02362X0.07874*%
%ADD36R,0.11614X0.08858*%
%ADD37R,0.06693X0.10630*%
%ADD38R,0.10630X0.06693*%
%ADD39R,0.02362X0.05906*%
D12*
Y0D02*
Y489500D01*
X700000D01*
Y0D02*
Y489500D01*
X0Y0D02*
X700000D01*
D15*
X17504Y181004D02*
X90496D01*
Y378996D01*
X17504D02*
X90496D01*
X17504Y181004D02*
Y378996D01*
Y181004D02*
X90496D01*
Y378996D01*
X17504D02*
X90496D01*
X17504Y181004D02*
Y378996D01*
D17*
X25760Y101500D02*
D03*
X33240D02*
D03*
X489576Y404720D02*
D03*
X497056D02*
D03*
X322140Y404700D02*
D03*
X314660D02*
D03*
X661760Y404500D02*
D03*
X669240D02*
D03*
X62240Y100000D02*
D03*
X54760D02*
D03*
X62740Y158000D02*
D03*
X55260D02*
D03*
X558260Y102500D02*
D03*
X565740D02*
D03*
X620240Y156000D02*
D03*
X612760D02*
D03*
X543760Y110000D02*
D03*
X551240D02*
D03*
X273201Y156020D02*
D03*
X265721D02*
D03*
X211221Y102520D02*
D03*
X218701D02*
D03*
X196721Y110020D02*
D03*
X204201D02*
D03*
X448059Y156000D02*
D03*
X440579D02*
D03*
X386079Y102500D02*
D03*
X393559D02*
D03*
X371579Y110000D02*
D03*
X379059D02*
D03*
D18*
X17012Y77500D02*
D03*
X5988D02*
D03*
X158012Y450500D02*
D03*
X146988D02*
D03*
X94488Y380500D02*
D03*
X105512D02*
D03*
X105012Y370000D02*
D03*
X93988D02*
D03*
X55488Y90500D02*
D03*
X66512D02*
D03*
X54988Y167500D02*
D03*
X66012D02*
D03*
X5988Y67500D02*
D03*
X17012D02*
D03*
X612988Y165500D02*
D03*
X624012D02*
D03*
X539488Y101000D02*
D03*
X550512D02*
D03*
X265949Y165520D02*
D03*
X276972D02*
D03*
X192449Y101020D02*
D03*
X203472D02*
D03*
X440807Y165500D02*
D03*
X451831D02*
D03*
X367307Y101000D02*
D03*
X378331D02*
D03*
D19*
X123563Y149240D02*
D03*
X125531D02*
D03*
X127500D02*
D03*
X129469D02*
D03*
X131437D02*
D03*
X123563Y166760D02*
D03*
X125531D02*
D03*
X127500D02*
D03*
X129469D02*
D03*
X131437D02*
D03*
D20*
X119000Y93563D02*
D03*
Y101437D02*
D03*
X409316Y198658D02*
D03*
Y190784D02*
D03*
X234400Y198637D02*
D03*
Y190763D02*
D03*
X172461Y132083D02*
D03*
Y139957D02*
D03*
X347319Y132063D02*
D03*
Y139937D02*
D03*
X519500D02*
D03*
Y132063D02*
D03*
X581500Y198437D02*
D03*
Y190563D02*
D03*
X74500Y330874D02*
D03*
Y323000D02*
D03*
X14500Y108063D02*
D03*
Y115937D02*
D03*
X6500D02*
D03*
Y108063D02*
D03*
X37000Y81437D02*
D03*
Y73563D02*
D03*
X46000Y81437D02*
D03*
Y73563D02*
D03*
X10000Y38563D02*
D03*
Y46437D02*
D03*
X545000Y144563D02*
D03*
Y152437D02*
D03*
X562000Y358563D02*
D03*
Y366437D02*
D03*
X575000D02*
D03*
Y358563D02*
D03*
X227961Y366457D02*
D03*
Y358583D02*
D03*
X214961D02*
D03*
Y366457D02*
D03*
X197961Y144583D02*
D03*
Y152457D02*
D03*
X402819Y366437D02*
D03*
Y358563D02*
D03*
X389819D02*
D03*
Y366437D02*
D03*
X372819Y144563D02*
D03*
Y152437D02*
D03*
X34000Y322063D02*
D03*
Y329937D02*
D03*
D21*
X134000Y132630D02*
D03*
X129000D02*
D03*
X124000D02*
D03*
X119000D02*
D03*
X134000Y111370D02*
D03*
X129000D02*
D03*
X124000D02*
D03*
X119000D02*
D03*
X393316Y337850D02*
D03*
X388316D02*
D03*
X383316D02*
D03*
X378316D02*
D03*
X393316Y316590D02*
D03*
X388316D02*
D03*
X383316D02*
D03*
X378316D02*
D03*
X218400Y337830D02*
D03*
X213400D02*
D03*
X208400D02*
D03*
X203400D02*
D03*
X218400Y316570D02*
D03*
X213400D02*
D03*
X208400D02*
D03*
X203400D02*
D03*
X565500Y337630D02*
D03*
X560500D02*
D03*
X555500D02*
D03*
X550500D02*
D03*
X565500Y316370D02*
D03*
X560500D02*
D03*
X555500D02*
D03*
X550500D02*
D03*
D22*
X483816Y374590D02*
D03*
X488816D02*
D03*
X493816D02*
D03*
X498816D02*
D03*
X483816Y395850D02*
D03*
X488816D02*
D03*
X493816D02*
D03*
X498816D02*
D03*
X308900Y374570D02*
D03*
X313900D02*
D03*
X318900D02*
D03*
X323900D02*
D03*
X308900Y395830D02*
D03*
X313900D02*
D03*
X318900D02*
D03*
X323900D02*
D03*
X656000Y374370D02*
D03*
X661000D02*
D03*
X666000D02*
D03*
X671000D02*
D03*
X656000Y395630D02*
D03*
X661000D02*
D03*
X666000D02*
D03*
X671000D02*
D03*
D23*
X379816Y301720D02*
D03*
X388500Y309000D02*
D03*
X388316Y346220D02*
D03*
X108500Y111500D02*
D03*
X204900Y301700D02*
D03*
X214000Y310000D02*
D03*
X213400Y346200D02*
D03*
X523000Y125000D02*
D03*
X524500Y111500D02*
D03*
X552000Y301500D02*
D03*
X561000Y309000D02*
D03*
X560500Y346000D02*
D03*
X147000Y440500D02*
D03*
X4500Y30000D02*
D03*
X557000Y354000D02*
D03*
X209961Y354020D02*
D03*
X384819Y354000D02*
D03*
X177461Y111520D02*
D03*
X175961Y125020D02*
D03*
X352319Y111500D02*
D03*
X350819Y125000D02*
D03*
X160000Y486500D02*
D03*
X119000Y400000D02*
D03*
X16000Y88000D02*
D03*
D24*
X506879Y396220D02*
D03*
X514753D02*
D03*
X365379Y301720D02*
D03*
X373253D02*
D03*
X393253D02*
D03*
X385379D02*
D03*
X134437Y100500D02*
D03*
X126563D02*
D03*
X331963Y396200D02*
D03*
X339837D02*
D03*
X190463Y301700D02*
D03*
X198337D02*
D03*
X218337D02*
D03*
X210463D02*
D03*
X686937Y396000D02*
D03*
X679063D02*
D03*
X537563Y301500D02*
D03*
X545437D02*
D03*
X565437D02*
D03*
X557563D02*
D03*
X148437Y485000D02*
D03*
X140563D02*
D03*
X111937Y400000D02*
D03*
X104063D02*
D03*
X12437Y58000D02*
D03*
X4563D02*
D03*
X18937Y30500D02*
D03*
X11063D02*
D03*
X560063Y150000D02*
D03*
X567937D02*
D03*
X583563Y102000D02*
D03*
X591437D02*
D03*
X236524Y102020D02*
D03*
X244398D02*
D03*
X213024Y150020D02*
D03*
X220898D02*
D03*
X411382Y102000D02*
D03*
X419256D02*
D03*
X387882Y150000D02*
D03*
X395756D02*
D03*
D25*
X513816Y374709D02*
D03*
Y385732D02*
D03*
X338900Y374688D02*
D03*
Y385712D02*
D03*
X686000Y374488D02*
D03*
Y385512D02*
D03*
X111000Y464988D02*
D03*
Y476012D02*
D03*
X165000Y472012D02*
D03*
Y460988D02*
D03*
X597000Y390512D02*
D03*
Y379488D02*
D03*
X618000D02*
D03*
Y390512D02*
D03*
X587000Y390524D02*
D03*
Y379500D02*
D03*
X607500Y379488D02*
D03*
Y390512D02*
D03*
X249961Y390531D02*
D03*
Y379508D02*
D03*
X239961Y390543D02*
D03*
Y379520D02*
D03*
X260461Y379508D02*
D03*
Y390531D02*
D03*
X270961Y379508D02*
D03*
Y390531D02*
D03*
X424819Y390512D02*
D03*
Y379488D02*
D03*
X414819Y390524D02*
D03*
Y379500D02*
D03*
X435319Y379488D02*
D03*
Y390512D02*
D03*
X445819Y379488D02*
D03*
Y390512D02*
D03*
X73500Y351012D02*
D03*
Y339988D02*
D03*
Y221012D02*
D03*
Y209988D02*
D03*
D26*
X366816Y329961D02*
D03*
Y322480D02*
D03*
X401816Y323461D02*
D03*
Y315980D02*
D03*
X120000Y472240D02*
D03*
Y464760D02*
D03*
X138500Y153760D02*
D03*
Y161240D02*
D03*
X110500Y129740D02*
D03*
Y122260D02*
D03*
X191900Y329940D02*
D03*
Y322460D02*
D03*
X226900Y323440D02*
D03*
Y315960D02*
D03*
X539000Y329740D02*
D03*
Y322260D02*
D03*
X574000Y323240D02*
D03*
Y315760D02*
D03*
X31500Y45740D02*
D03*
Y38260D02*
D03*
D27*
X465319Y352965D02*
D03*
Y284000D02*
D03*
X290461Y284020D02*
D03*
Y352984D02*
D03*
X637500Y284000D02*
D03*
Y352965D02*
D03*
D28*
X130854Y475500D02*
D03*
Y470500D02*
D03*
Y465500D02*
D03*
Y460500D02*
D03*
X150146Y475500D02*
D03*
Y470500D02*
D03*
Y465500D02*
D03*
Y460500D02*
D03*
D29*
X185961Y124957D02*
D03*
X189701Y117083D02*
D03*
X182220D02*
D03*
X360819Y124937D02*
D03*
X364559Y117063D02*
D03*
X357079D02*
D03*
X529260D02*
D03*
X536740D02*
D03*
X533000Y124937D02*
D03*
D30*
X133000Y448799D02*
D03*
Y436201D02*
D03*
X554000Y422299D02*
D03*
Y409701D02*
D03*
X379500Y420598D02*
D03*
Y408000D02*
D03*
X204000Y421299D02*
D03*
Y408701D02*
D03*
D31*
X97000Y450595D02*
D03*
Y412405D02*
D03*
D32*
X156000Y423410D02*
D03*
Y389551D02*
D03*
X131000Y317571D02*
D03*
Y351429D02*
D03*
X195500Y474929D02*
D03*
Y441071D02*
D03*
D33*
X18941Y46528D02*
D03*
X24059D02*
D03*
Y37472D02*
D03*
X21500D02*
D03*
X18941D02*
D03*
D34*
X294961Y391032D02*
D03*
Y380008D02*
D03*
X469819Y391012D02*
D03*
Y379988D02*
D03*
X642000Y391012D02*
D03*
Y379988D02*
D03*
D35*
X567000Y138842D02*
D03*
X562000D02*
D03*
X557000D02*
D03*
X552000D02*
D03*
X567000Y119158D02*
D03*
X562000D02*
D03*
X557000D02*
D03*
X552000D02*
D03*
X219961Y138862D02*
D03*
X214961D02*
D03*
X209961D02*
D03*
X204961D02*
D03*
X219961Y119177D02*
D03*
X214961D02*
D03*
X209961D02*
D03*
X204961D02*
D03*
X394819Y138842D02*
D03*
X389819D02*
D03*
X384819D02*
D03*
X379819D02*
D03*
X394819Y119158D02*
D03*
X389819D02*
D03*
X384819D02*
D03*
X379819D02*
D03*
D36*
X559500Y129000D02*
D03*
X212461Y129020D02*
D03*
X387319Y129000D02*
D03*
D37*
X532500Y149874D02*
D03*
Y134126D02*
D03*
X185461Y149894D02*
D03*
Y134146D02*
D03*
X360319Y149874D02*
D03*
Y134126D02*
D03*
D38*
X596374Y115500D02*
D03*
X580626D02*
D03*
X249335Y115520D02*
D03*
X233587D02*
D03*
X424193Y115500D02*
D03*
X408445D02*
D03*
D39*
X24000Y109343D02*
D03*
X29000D02*
D03*
X34000D02*
D03*
X39000D02*
D03*
X44000D02*
D03*
X49000D02*
D03*
X54000D02*
D03*
X59000D02*
D03*
X24000Y149657D02*
D03*
X29000D02*
D03*
X34000D02*
D03*
X39000D02*
D03*
X44000D02*
D03*
X49000D02*
D03*
X54000D02*
D03*
X59000D02*
D03*
M02*
