G04*
G04 #@! TF.GenerationSoftware,Altium Limited,Altium Designer,21.9.2 (33)*
G04*
G04 Layer_Physical_Order=3*
G04 Layer_Color=128*
%FSLAX25Y25*%
%MOIN*%
G70*
G04*
G04 #@! TF.SameCoordinates,9896EB03-9A59-47DE-8884-05A29DE45AA4*
G04*
G04*
G04 #@! TF.FilePolarity,Negative*
G04*
G01*
G75*
%ADD13C,0.01000*%
%ADD15C,0.00500*%
%ADD67C,0.15800*%
%ADD74C,0.15600*%
%ADD98C,0.08000*%
%ADD100C,0.04000*%
%ADD101C,0.07937*%
%ADD103C,0.11795*%
%ADD105C,0.16500*%
%ADD106C,0.08016*%
G04:AMPARAMS|DCode=107|XSize=100.157mil|YSize=100.157mil|CornerRadius=0mil|HoleSize=0mil|Usage=FLASHONLY|Rotation=0.000|XOffset=0mil|YOffset=0mil|HoleType=Round|Shape=Relief|Width=10mil|Gap=10mil|Entries=4|*
%AMTHD107*
7,0,0,0.10016,0.08016,0.01000,45*
%
%ADD107THD107*%
%ADD109C,0.07300*%
G04:AMPARAMS|DCode=111|XSize=100mil|YSize=100mil|CornerRadius=0mil|HoleSize=0mil|Usage=FLASHONLY|Rotation=0.000|XOffset=0mil|YOffset=0mil|HoleType=Round|Shape=Relief|Width=10mil|Gap=10mil|Entries=4|*
%AMTHD111*
7,0,0,0.10000,0.08000,0.01000,45*
%
%ADD111THD111*%
%ADD112C,0.10300*%
G04:AMPARAMS|DCode=113|XSize=75mil|YSize=75mil|CornerRadius=0mil|HoleSize=0mil|Usage=FLASHONLY|Rotation=0.000|XOffset=0mil|YOffset=0mil|HoleType=Round|Shape=Relief|Width=10mil|Gap=10mil|Entries=4|*
%AMTHD113*
7,0,0,0.07500,0.05500,0.01000,45*
%
%ADD113THD113*%
%ADD114C,0.05500*%
%ADD115C,0.14500*%
D13*
X86500Y322500D02*
Y431000D01*
X82500Y435000D02*
X86500Y431000D01*
X72000Y435000D02*
X82500D01*
X67500Y439500D02*
X72000Y435000D01*
X67500Y439500D02*
Y454000D01*
X72000Y458500D02*
X91000D01*
X67500Y454000D02*
X72000Y458500D01*
X102500Y304500D02*
X112500Y314500D01*
X102500Y144500D02*
Y304500D01*
Y416500D02*
Y447000D01*
Y416500D02*
X119500Y399500D01*
X162500D01*
X182500Y379500D01*
Y305500D02*
Y379500D01*
X180500Y303500D02*
X182500Y305500D01*
X165000Y303500D02*
X180500D01*
X147000Y321500D02*
X165000Y303500D01*
X119500Y321500D02*
X147000D01*
X112500Y314500D02*
X119500Y321500D01*
X500Y176000D02*
X51000D01*
X63000Y188000D01*
Y201500D01*
X51500Y213000D02*
X63000Y201500D01*
X0Y213000D02*
X51500D01*
X-500Y152500D02*
X30500D01*
X51000Y132000D01*
Y93000D02*
Y132000D01*
X48000Y90000D02*
X51000Y93000D01*
X0Y90000D02*
X48000D01*
X102500Y144500D02*
X115500Y131500D01*
X91000Y458500D02*
X93750Y455750D01*
X100500Y81500D02*
X124500Y57500D01*
X460000D01*
X86500Y95500D02*
X100500Y81500D01*
X132000Y115000D02*
X450500D01*
X115500Y131500D02*
X132000Y115000D01*
X86500Y314000D02*
Y322500D01*
X94000Y455500D02*
X102500Y447000D01*
X86500Y314000D02*
X86500Y95500D01*
X93500Y456000D02*
X94000Y455500D01*
X477000Y74500D02*
Y98500D01*
X460500Y115000D02*
X477000Y98500D01*
X450500Y115000D02*
X460500D01*
X460000Y57500D02*
X477000Y74500D01*
X-0Y487500D02*
X0Y0D01*
X-0Y487500D02*
X614500D01*
X614500Y0D01*
X0D02*
X614500D01*
D15*
X12004Y281504D02*
X84996D01*
Y479496D01*
X12004D02*
X84996D01*
X12004Y281504D02*
Y479496D01*
Y281504D02*
X84996D01*
Y479496D01*
X12004D02*
X84996D01*
X12004Y281504D02*
Y479496D01*
D67*
X16500Y110900D02*
D03*
D74*
X47000Y467000D02*
D03*
X15500Y17500D02*
D03*
X504000Y19000D02*
D03*
X599500Y473000D02*
D03*
D98*
X33500Y105000D02*
D03*
Y116800D02*
D03*
X45300D02*
D03*
X586500Y38000D02*
D03*
X556972D02*
D03*
X414028D02*
D03*
X384500D02*
D03*
X240000Y37500D02*
D03*
X210472D02*
D03*
X586028Y116000D02*
D03*
X556500D02*
D03*
X413846D02*
D03*
X384319D02*
D03*
X238988Y116020D02*
D03*
X209461D02*
D03*
D100*
X-0Y6000D02*
G03*
X6000Y0I6000J-0D01*
G01*
X6500Y487500D02*
G03*
X-0Y481000I-0J-6500D01*
G01*
X614500Y481000D02*
G03*
X608000Y487500I-6500J0D01*
G01*
X608500Y0D02*
G03*
X614500Y6000I0J6000D01*
G01*
X-0Y6000D02*
Y481000D01*
X6500Y487500D02*
X608000Y487500D01*
X614500Y6000D02*
Y481000D01*
X6000Y0D02*
X608500D01*
D101*
X435500Y152000D02*
D03*
X425500D02*
D03*
X415500D02*
D03*
X108500Y379000D02*
D03*
Y389000D02*
D03*
X337000Y83500D02*
D03*
X347000D02*
D03*
X345500Y9500D02*
D03*
X335500D02*
D03*
X65500Y152500D02*
D03*
X55500D02*
D03*
X538000Y192500D02*
D03*
X528000D02*
D03*
X518000D02*
D03*
X502000Y159000D02*
D03*
Y149000D02*
D03*
Y139000D02*
D03*
X365819Y192500D02*
D03*
X355819D02*
D03*
X345819D02*
D03*
X329819Y159000D02*
D03*
Y149000D02*
D03*
Y139000D02*
D03*
X190961Y192520D02*
D03*
X180961D02*
D03*
X170961D02*
D03*
X154961Y159020D02*
D03*
Y149020D02*
D03*
Y139020D02*
D03*
X65500Y236000D02*
D03*
X75500D02*
D03*
X66000Y218000D02*
D03*
X76000D02*
D03*
D103*
X90701Y63693D02*
D03*
X61201Y76213D02*
D03*
X90701D02*
D03*
X61201Y63693D02*
D03*
X499000Y425500D02*
D03*
X528500Y412980D02*
D03*
X499000D02*
D03*
X528500Y425500D02*
D03*
X340000D02*
D03*
X369500Y412980D02*
D03*
X340000D02*
D03*
X369500Y425500D02*
D03*
X163500D02*
D03*
X193000Y412980D02*
D03*
X163500D02*
D03*
X193000Y425500D02*
D03*
D105*
X109402Y12000D02*
D03*
X42500D02*
D03*
X480299Y477193D02*
D03*
X547201D02*
D03*
X321299D02*
D03*
X388201D02*
D03*
X144799D02*
D03*
X211701D02*
D03*
D106*
X78500Y310500D02*
D03*
X18500D02*
D03*
Y320500D02*
D03*
X78500Y330500D02*
D03*
X18500D02*
D03*
X78500Y340500D02*
D03*
X18500D02*
D03*
X78500Y350500D02*
D03*
X18500D02*
D03*
X78500Y360500D02*
D03*
X18500D02*
D03*
X78500Y370500D02*
D03*
X18500D02*
D03*
X78500Y380500D02*
D03*
X18500D02*
D03*
X78500Y390500D02*
D03*
X18500D02*
D03*
X78500Y400500D02*
D03*
X18500D02*
D03*
X78500Y410500D02*
D03*
X18500D02*
D03*
X78500Y420500D02*
D03*
X18500D02*
D03*
X78500Y430500D02*
D03*
X18500D02*
D03*
X78500Y440500D02*
D03*
X18500D02*
D03*
Y450500D02*
D03*
D107*
X78500Y320500D02*
D03*
Y450500D02*
D03*
D109*
X454316Y283500D02*
D03*
X464158D02*
D03*
X474000D02*
D03*
X483842D02*
D03*
X282132Y283720D02*
D03*
X291974D02*
D03*
X301816D02*
D03*
X311658D02*
D03*
X109816Y284000D02*
D03*
X119658D02*
D03*
X129500D02*
D03*
X139342D02*
D03*
D111*
X45300Y105000D02*
D03*
D112*
X174000Y13500D02*
D03*
X135000D02*
D03*
Y27000D02*
D03*
X174000D02*
D03*
D113*
X318000Y303500D02*
D03*
X601000Y7000D02*
D03*
X585000Y373500D02*
D03*
X416000Y372000D02*
D03*
X243000Y373000D02*
D03*
X548000Y20500D02*
D03*
X470000Y84500D02*
D03*
X297500Y92500D02*
D03*
X306000Y87500D02*
D03*
X56500Y189000D02*
D03*
X166000Y308000D02*
D03*
X106500Y264500D02*
D03*
X603707Y74357D02*
D03*
X603000Y106500D02*
D03*
X537500Y72500D02*
D03*
X127295Y96122D02*
D03*
X130000Y85500D02*
D03*
X144000Y39937D02*
D03*
X289000Y38000D02*
D03*
X460500Y35500D02*
D03*
X72000Y262000D02*
D03*
X29500Y415500D02*
D03*
X68000Y413500D02*
D03*
X169500Y313000D02*
D03*
X162000D02*
D03*
Y319000D02*
D03*
X169500D02*
D03*
X30000Y188500D02*
D03*
X15000D02*
D03*
X24500Y137000D02*
D03*
X55500Y261000D02*
D03*
X143961Y303520D02*
D03*
X467500Y93000D02*
D03*
X491000Y303500D02*
D03*
D114*
X41000Y415000D02*
D03*
X108000Y325000D02*
D03*
X441000Y183000D02*
D03*
X464000Y173000D02*
D03*
X506000Y94000D02*
D03*
X487000Y152000D02*
D03*
X471000D02*
D03*
X300000Y368000D02*
D03*
X472000D02*
D03*
X464000Y310500D02*
D03*
X454500Y324500D02*
D03*
X298000Y309500D02*
D03*
X282500Y325000D02*
D03*
X117500Y311000D02*
D03*
X497000Y352500D02*
D03*
X310000Y334000D02*
D03*
X322500Y351500D02*
D03*
X150500Y351000D02*
D03*
X111500Y187000D02*
D03*
X79000Y165500D02*
D03*
X67000Y349000D02*
D03*
X603500Y407500D02*
D03*
X603000Y381000D02*
D03*
X575000Y398500D02*
D03*
X403750Y397750D02*
D03*
X432000Y381000D02*
D03*
X250500Y373000D02*
D03*
X227500Y398000D02*
D03*
X548000Y27500D02*
D03*
X575000Y6000D02*
D03*
X27000Y398000D02*
D03*
X248000Y90000D02*
D03*
X420000Y87500D02*
D03*
X48500Y189000D02*
D03*
X102500Y92000D02*
D03*
X563500Y51000D02*
D03*
X603500Y48500D02*
D03*
X566142Y132307D02*
D03*
X534500Y85000D02*
D03*
X550500D02*
D03*
X577500Y75000D02*
D03*
X512500Y72500D02*
D03*
X511500Y87000D02*
D03*
X514500Y79000D02*
D03*
X136610Y96909D02*
D03*
X281500Y95000D02*
D03*
X453000Y93500D02*
D03*
X479000Y152000D02*
D03*
X314500Y151000D02*
D03*
X299000D02*
D03*
X125000Y150000D02*
D03*
X132000D02*
D03*
X139500D02*
D03*
X307000Y151000D02*
D03*
X31500Y330000D02*
D03*
X145000Y384000D02*
D03*
X164500Y39437D02*
D03*
X124000Y39937D02*
D03*
X145500Y71437D02*
D03*
X128500Y61937D02*
D03*
X157500Y65437D02*
D03*
X309500Y37500D02*
D03*
X269000Y38000D02*
D03*
X290500Y69500D02*
D03*
X273500Y60000D02*
D03*
X302500Y63500D02*
D03*
X101961Y101520D02*
D03*
X440500Y35500D02*
D03*
X481000Y35000D02*
D03*
X474000Y61000D02*
D03*
X445000Y57500D02*
D03*
X462000Y67000D02*
D03*
X72500Y289000D02*
D03*
X89000Y292000D02*
D03*
X82000Y283000D02*
D03*
X79500Y262000D02*
D03*
X101000Y308500D02*
D03*
X250000Y293500D02*
D03*
X236500Y308500D02*
D03*
X255500Y404500D02*
D03*
X275599Y392768D02*
D03*
Y386768D02*
D03*
X275534Y380623D02*
D03*
X263500Y422500D02*
D03*
X248000Y437571D02*
D03*
X173432Y340253D02*
D03*
X173408Y345889D02*
D03*
X196000Y392500D02*
D03*
X431500Y406500D02*
D03*
X23000Y253500D02*
D03*
X11500Y246000D02*
D03*
X23000Y198500D02*
D03*
X12000Y205500D02*
D03*
X34500Y182500D02*
D03*
X33000Y136000D02*
D03*
X17000Y137000D02*
D03*
X48000Y261000D02*
D03*
X121000Y367500D02*
D03*
X482260Y335500D02*
D03*
X135500Y335000D02*
D03*
X349158Y368933D02*
D03*
X336157Y369433D02*
D03*
X317819Y192000D02*
D03*
X306819Y111500D02*
D03*
X276819Y101500D02*
D03*
X280658Y110433D02*
D03*
X105799Y110453D02*
D03*
X142961Y192020D02*
D03*
X174241Y368913D02*
D03*
X144461Y106020D02*
D03*
X131961Y111520D02*
D03*
X319319Y106000D02*
D03*
X154000Y371500D02*
D03*
X490000Y192000D02*
D03*
X449000Y101500D02*
D03*
X453000Y110500D02*
D03*
X479000Y111500D02*
D03*
X491500Y106000D02*
D03*
X521500Y369000D02*
D03*
X508500Y369500D02*
D03*
D115*
X230461Y210520D02*
D03*
X130461D02*
D03*
X577500Y210500D02*
D03*
X477500D02*
D03*
X305319D02*
D03*
X405319D02*
D03*
M02*
