G04*
G04 #@! TF.GenerationSoftware,Altium Limited,Altium Designer,21.9.2 (33)*
G04*
G04 Layer_Physical_Order=4*
G04 Layer_Color=16711680*
%FSLAX25Y25*%
%MOIN*%
G70*
G04*
G04 #@! TF.SameCoordinates,B06A9D19-EDBD-4E7D-A5C2-52FB3366CB16*
G04*
G04*
G04 #@! TF.FilePolarity,Positive*
G04*
G01*
G75*
%ADD12C,0.01000*%
%ADD15C,0.00500*%
%ADD23C,0.03000*%
%ADD81C,0.02000*%
%ADD82C,0.03000*%
%ADD84C,0.07087*%
%ADD85C,0.05600*%
%ADD86C,0.10158*%
%ADD87C,0.15000*%
%ADD88C,0.16929*%
%ADD89C,0.06024*%
%ADD90R,0.06024X0.06024*%
%ADD91C,0.07000*%
%ADD92C,0.14800*%
%ADD93C,0.04724*%
%ADD94C,0.13000*%
%ADD95R,0.06299X0.06299*%
%ADD96C,0.06299*%
%ADD97R,0.06299X0.06299*%
%ADD98C,0.08000*%
G36*
X39720Y43366D02*
X39015Y44000D01*
X40500Y45485D01*
X40506Y45465D01*
X40525Y45434D01*
X40557Y45392D01*
X40658Y45274D01*
X41014Y44901D01*
X41134Y44780D01*
X39720Y43366D01*
D02*
G37*
G36*
X66936Y45651D02*
X67142Y45877D01*
X67326Y46122D01*
X67487Y46386D01*
X67627Y46669D01*
X67744Y46971D01*
X67840Y47292D01*
X67913Y47632D01*
X67964Y47991D01*
X67993Y48368D01*
X68000Y48765D01*
X71465Y45300D01*
X71068Y45293D01*
X70691Y45264D01*
X70332Y45213D01*
X69992Y45140D01*
X69671Y45044D01*
X69369Y44927D01*
X69086Y44787D01*
X68822Y44626D01*
X68577Y44442D01*
X68350Y44236D01*
X66936Y45651D01*
D02*
G37*
G36*
X120000Y143314D02*
X120006Y143175D01*
X120022Y143039D01*
X120050Y142907D01*
X120088Y142778D01*
X120138Y142651D01*
X120198Y142529D01*
X120270Y142410D01*
X120352Y142294D01*
X120446Y142181D01*
X120550Y142071D01*
X118450D01*
X118554Y142181D01*
X118648Y142294D01*
X118730Y142410D01*
X118802Y142529D01*
X118862Y142651D01*
X118912Y142778D01*
X118950Y142907D01*
X118978Y143039D01*
X118994Y143175D01*
X119000Y143314D01*
X120000D01*
D02*
G37*
G36*
X112932Y151837D02*
X112937Y151697D01*
X112954Y151561D01*
X112983Y151429D01*
X113022Y151301D01*
X113074Y151177D01*
X113136Y151057D01*
X113210Y150941D01*
X113295Y150829D01*
X113392Y150722D01*
X113500Y150618D01*
X111402Y150522D01*
X111503Y150637D01*
X111593Y150755D01*
X111672Y150875D01*
X111741Y150998D01*
X111799Y151123D01*
X111847Y151251D01*
X111884Y151381D01*
X111910Y151514D01*
X111926Y151650D01*
X111932Y151788D01*
X112932Y151837D01*
D02*
G37*
G36*
X171471Y115737D02*
X171565Y115839D01*
X171650Y115947D01*
X171724Y116060D01*
X171788Y116179D01*
X171842Y116303D01*
X171886Y116432D01*
X171920Y116567D01*
X171944Y116708D01*
X171957Y116853D01*
X171961Y117005D01*
X173446Y115520D01*
X173294Y115516D01*
X173149Y115503D01*
X173008Y115479D01*
X172873Y115445D01*
X172744Y115401D01*
X172619Y115347D01*
X172501Y115283D01*
X172388Y115209D01*
X172280Y115124D01*
X172178Y115030D01*
X171471Y115737D01*
D02*
G37*
G36*
X27014Y209581D02*
X27032Y209290D01*
X27069Y208992D01*
X27124Y208711D01*
X27196Y208447D01*
X27285Y208201D01*
X27392Y207972D01*
X27517Y207760D01*
X27659Y207565D01*
X27819Y207388D01*
X27583Y207152D01*
X27591Y207139D01*
X27731Y206976D01*
X27024Y206269D01*
X26861Y206409D01*
X26667Y206535D01*
X26443Y206645D01*
X26189Y206740D01*
X25905Y206820D01*
X25590Y206884D01*
X25245Y206933D01*
X24465Y206985D01*
X24030Y206988D01*
X27012Y209970D01*
X27014Y209581D01*
D02*
G37*
G36*
X27024Y216268D02*
X26861Y216409D01*
X26667Y216535D01*
X26443Y216645D01*
X26189Y216740D01*
X25905Y216820D01*
X25590Y216884D01*
X25245Y216933D01*
X24465Y216985D01*
X24030Y216988D01*
X27012Y219970D01*
X27015Y219535D01*
X27067Y218755D01*
X27116Y218410D01*
X27180Y218095D01*
X27260Y217811D01*
X27355Y217557D01*
X27465Y217333D01*
X27591Y217139D01*
X27731Y216976D01*
X27024Y216268D01*
D02*
G37*
G36*
X97717Y168490D02*
X97819Y168395D01*
X97927Y168311D01*
X98040Y168237D01*
X98159Y168173D01*
X98283Y168119D01*
X98413Y168075D01*
X98547Y168041D01*
X98688Y168017D01*
X98834Y168003D01*
X98985Y168000D01*
X97500Y166515D01*
X97497Y166666D01*
X97483Y166812D01*
X97459Y166953D01*
X97425Y167087D01*
X97381Y167217D01*
X97327Y167341D01*
X97263Y167460D01*
X97189Y167573D01*
X97105Y167681D01*
X97010Y167783D01*
X97717Y168490D01*
D02*
G37*
G36*
X127490Y158283D02*
X127395Y158181D01*
X127311Y158073D01*
X127237Y157960D01*
X127173Y157841D01*
X127119Y157717D01*
X127075Y157588D01*
X127041Y157453D01*
X127017Y157312D01*
X127003Y157166D01*
X127000Y157015D01*
X125515Y158500D01*
X125666Y158503D01*
X125812Y158517D01*
X125953Y158541D01*
X126087Y158575D01*
X126217Y158619D01*
X126341Y158673D01*
X126460Y158737D01*
X126573Y158811D01*
X126681Y158896D01*
X126783Y158990D01*
X127490Y158283D01*
D02*
G37*
G36*
X127814Y175500D02*
X127675Y175495D01*
X127539Y175478D01*
X127407Y175451D01*
X127278Y175412D01*
X127152Y175363D01*
X127029Y175302D01*
X126909Y175231D01*
X126794Y175148D01*
X126681Y175055D01*
X126571Y174950D01*
Y177050D01*
X126681Y176945D01*
X126794Y176852D01*
X126909Y176769D01*
X127029Y176698D01*
X127152Y176637D01*
X127278Y176588D01*
X127407Y176549D01*
X127539Y176522D01*
X127675Y176505D01*
X127814Y176500D01*
Y175500D01*
D02*
G37*
G36*
X158485Y477500D02*
X158334Y477497D01*
X158188Y477483D01*
X158047Y477459D01*
X157913Y477425D01*
X157783Y477381D01*
X157659Y477327D01*
X157540Y477263D01*
X157427Y477189D01*
X157319Y477105D01*
X157217Y477010D01*
X156510Y477717D01*
X156605Y477819D01*
X156689Y477927D01*
X156763Y478040D01*
X156827Y478159D01*
X156881Y478283D01*
X156925Y478412D01*
X156959Y478547D01*
X156983Y478688D01*
X156997Y478834D01*
X157000Y478985D01*
X158485Y477500D01*
D02*
G37*
G36*
X127006Y412175D02*
X127022Y412039D01*
X127050Y411907D01*
X127088Y411777D01*
X127137Y411652D01*
X127198Y411529D01*
X127269Y411410D01*
X127352Y411294D01*
X127445Y411181D01*
X127550Y411071D01*
X125450D01*
X125555Y411181D01*
X125648Y411294D01*
X125731Y411410D01*
X125802Y411529D01*
X125863Y411652D01*
X125912Y411777D01*
X125951Y411907D01*
X125978Y412039D01*
X125995Y412175D01*
X126000Y412314D01*
X127000D01*
X127006Y412175D01*
D02*
G37*
G36*
X21012Y349000D02*
X21002Y349095D01*
X20972Y349180D01*
X20921Y349255D01*
X20850Y349320D01*
X20759Y349375D01*
X20648Y349420D01*
X20516Y349455D01*
X20365Y349480D01*
X20192Y349495D01*
X20000Y349500D01*
Y350500D01*
X20192Y350505D01*
X20365Y350520D01*
X20516Y350545D01*
X20648Y350580D01*
X20759Y350625D01*
X20850Y350680D01*
X20921Y350745D01*
X20972Y350820D01*
X21002Y350905D01*
X21012Y351000D01*
Y349000D01*
D02*
G37*
G36*
X23970Y336988D02*
X23535Y336985D01*
X22755Y336933D01*
X22410Y336884D01*
X22095Y336820D01*
X21811Y336740D01*
X21557Y336645D01*
X21333Y336535D01*
X21139Y336409D01*
X20976Y336268D01*
X20268Y336976D01*
X20409Y337139D01*
X20535Y337333D01*
X20645Y337557D01*
X20740Y337811D01*
X20820Y338095D01*
X20884Y338410D01*
X20933Y338755D01*
X20985Y339535D01*
X20988Y339970D01*
X23970Y336988D01*
D02*
G37*
G36*
X43929Y298950D02*
X43819Y299055D01*
X43707Y299148D01*
X43591Y299231D01*
X43471Y299302D01*
X43349Y299362D01*
X43222Y299412D01*
X43093Y299450D01*
X42961Y299478D01*
X42825Y299495D01*
X42686Y299500D01*
Y300500D01*
X42825Y300505D01*
X42961Y300522D01*
X43093Y300550D01*
X43222Y300588D01*
X43349Y300638D01*
X43471Y300698D01*
X43591Y300769D01*
X43707Y300852D01*
X43819Y300945D01*
X43929Y301050D01*
Y298950D01*
D02*
G37*
G36*
X86461Y301803D02*
X87049Y301288D01*
X87328Y301079D01*
X87596Y300902D01*
X87853Y300757D01*
X88100Y300645D01*
X88336Y300564D01*
X88562Y300516D01*
X88777Y300500D01*
Y299500D01*
X88562Y299484D01*
X88336Y299436D01*
X88100Y299355D01*
X87853Y299243D01*
X87596Y299098D01*
X87328Y298921D01*
X87049Y298712D01*
X86461Y298197D01*
X86151Y297892D01*
Y302108D01*
X86461Y301803D01*
D02*
G37*
G36*
X26461D02*
X27049Y301288D01*
X27328Y301079D01*
X27596Y300902D01*
X27853Y300757D01*
X28100Y300645D01*
X28336Y300564D01*
X28562Y300516D01*
X28777Y300500D01*
Y299500D01*
X28562Y299484D01*
X28336Y299436D01*
X28100Y299355D01*
X27853Y299243D01*
X27596Y299098D01*
X27328Y298921D01*
X27049Y298712D01*
X26461Y298197D01*
X26151Y297892D01*
Y302108D01*
X26461Y301803D01*
D02*
G37*
G36*
X86461Y291803D02*
X87049Y291288D01*
X87328Y291079D01*
X87596Y290902D01*
X87853Y290757D01*
X88100Y290645D01*
X88336Y290564D01*
X88562Y290516D01*
X88777Y290500D01*
Y289500D01*
X88562Y289484D01*
X88336Y289436D01*
X88100Y289355D01*
X87853Y289243D01*
X87596Y289098D01*
X87328Y288921D01*
X87049Y288712D01*
X86461Y288197D01*
X86151Y287892D01*
Y292108D01*
X86461Y291803D01*
D02*
G37*
G36*
Y281803D02*
X87049Y281288D01*
X87328Y281079D01*
X87596Y280902D01*
X87853Y280757D01*
X88100Y280645D01*
X88336Y280564D01*
X88562Y280516D01*
X88777Y280500D01*
Y279500D01*
X88562Y279484D01*
X88336Y279436D01*
X88100Y279355D01*
X87853Y279243D01*
X87596Y279098D01*
X87328Y278921D01*
X87049Y278712D01*
X86461Y278197D01*
X86151Y277892D01*
Y282108D01*
X86461Y281803D01*
D02*
G37*
G36*
Y271803D02*
X87049Y271288D01*
X87328Y271079D01*
X87596Y270902D01*
X87853Y270757D01*
X88100Y270645D01*
X88336Y270564D01*
X88562Y270516D01*
X88777Y270500D01*
Y269500D01*
X88562Y269484D01*
X88336Y269436D01*
X88100Y269355D01*
X87853Y269243D01*
X87596Y269098D01*
X87328Y268921D01*
X87049Y268712D01*
X86461Y268197D01*
X86151Y267892D01*
Y272108D01*
X86461Y271803D01*
D02*
G37*
G36*
Y251803D02*
X87049Y251288D01*
X87328Y251079D01*
X87596Y250902D01*
X87853Y250757D01*
X88100Y250645D01*
X88336Y250564D01*
X88562Y250516D01*
X88777Y250500D01*
Y249500D01*
X88562Y249484D01*
X88336Y249436D01*
X88100Y249355D01*
X87853Y249243D01*
X87596Y249098D01*
X87328Y248921D01*
X87049Y248712D01*
X86461Y248197D01*
X86151Y247892D01*
Y252108D01*
X86461Y251803D01*
D02*
G37*
G36*
X23970Y236988D02*
X23535Y236985D01*
X22755Y236933D01*
X22410Y236884D01*
X22095Y236820D01*
X21811Y236740D01*
X21557Y236645D01*
X21333Y236535D01*
X21139Y236409D01*
X20976Y236268D01*
X20268Y236976D01*
X20409Y237139D01*
X20535Y237333D01*
X20645Y237557D01*
X20740Y237811D01*
X20820Y238095D01*
X20884Y238410D01*
X20933Y238755D01*
X20985Y239535D01*
X20988Y239970D01*
X23970Y236988D01*
D02*
G37*
G36*
X340946Y412319D02*
X340852Y412207D01*
X340770Y412090D01*
X340698Y411971D01*
X340637Y411848D01*
X340588Y411723D01*
X340549Y411593D01*
X340522Y411461D01*
X340506Y411325D01*
X340500Y411186D01*
X339500D01*
X339494Y411325D01*
X339478Y411461D01*
X339451Y411593D01*
X339412Y411723D01*
X339363Y411848D01*
X339302Y411971D01*
X339230Y412090D01*
X339148Y412207D01*
X339054Y412319D01*
X338950Y412429D01*
X341050D01*
X340946Y412319D01*
D02*
G37*
G36*
X222819Y353895D02*
X222927Y353811D01*
X223040Y353737D01*
X223159Y353673D01*
X223283Y353619D01*
X223412Y353575D01*
X223547Y353541D01*
X223688Y353517D01*
X223834Y353503D01*
X223985Y353500D01*
X222500Y352015D01*
X222497Y352166D01*
X222483Y352312D01*
X222459Y352453D01*
X222425Y352588D01*
X222381Y352717D01*
X222327Y352841D01*
X222263Y352960D01*
X222189Y353073D01*
X222105Y353181D01*
X222010Y353283D01*
X222717Y353990D01*
X222819Y353895D01*
D02*
G37*
G36*
X380429Y307950D02*
X380319Y308054D01*
X380207Y308148D01*
X380090Y308230D01*
X379971Y308302D01*
X379849Y308363D01*
X379722Y308412D01*
X379593Y308451D01*
X379461Y308478D01*
X379325Y308494D01*
X379186Y308500D01*
Y309500D01*
X379325Y309506D01*
X379461Y309522D01*
X379593Y309549D01*
X379722Y309588D01*
X379849Y309637D01*
X379971Y309698D01*
X380090Y309770D01*
X380207Y309852D01*
X380319Y309946D01*
X380429Y310050D01*
Y307950D01*
D02*
G37*
G36*
X207485Y308000D02*
X207334Y307997D01*
X207188Y307983D01*
X207047Y307959D01*
X206912Y307925D01*
X206783Y307881D01*
X206659Y307827D01*
X206540Y307763D01*
X206427Y307689D01*
X206319Y307605D01*
X206217Y307510D01*
X205510Y308217D01*
X205605Y308319D01*
X205689Y308427D01*
X205763Y308540D01*
X205827Y308659D01*
X205881Y308783D01*
X205925Y308912D01*
X205959Y309047D01*
X205983Y309188D01*
X205997Y309334D01*
X206000Y309485D01*
X207485Y308000D01*
D02*
G37*
G36*
X222406Y158339D02*
X222313Y158226D01*
X222230Y158110D01*
X222159Y157991D01*
X222098Y157868D01*
X222049Y157742D01*
X222010Y157613D01*
X221983Y157480D01*
X221966Y157345D01*
X221961Y157205D01*
X220961D01*
X220955Y157345D01*
X220939Y157480D01*
X220911Y157613D01*
X220873Y157742D01*
X220823Y157868D01*
X220763Y157991D01*
X220691Y158110D01*
X220609Y158226D01*
X220515Y158339D01*
X220411Y158449D01*
X222511D01*
X222406Y158339D01*
D02*
G37*
G36*
X213906D02*
X213813Y158226D01*
X213730Y158110D01*
X213659Y157991D01*
X213598Y157868D01*
X213549Y157742D01*
X213510Y157613D01*
X213483Y157480D01*
X213466Y157345D01*
X213461Y157205D01*
X212461D01*
X212455Y157345D01*
X212439Y157480D01*
X212411Y157613D01*
X212373Y157742D01*
X212323Y157868D01*
X212263Y157991D01*
X212191Y158110D01*
X212109Y158226D01*
X212015Y158339D01*
X211911Y158449D01*
X214011D01*
X213906Y158339D01*
D02*
G37*
G36*
X388764Y158319D02*
X388671Y158206D01*
X388588Y158090D01*
X388517Y157971D01*
X388456Y157849D01*
X388407Y157722D01*
X388368Y157593D01*
X388341Y157461D01*
X388324Y157325D01*
X388319Y157186D01*
X387319D01*
X387313Y157325D01*
X387297Y157461D01*
X387269Y157593D01*
X387231Y157722D01*
X387181Y157849D01*
X387121Y157971D01*
X387049Y158090D01*
X386967Y158206D01*
X386873Y158319D01*
X386769Y158429D01*
X388869D01*
X388764Y158319D01*
D02*
G37*
G36*
X198451Y123302D02*
X198356Y123200D01*
X198272Y123093D01*
X198197Y122979D01*
X198133Y122861D01*
X198079Y122737D01*
X198035Y122607D01*
X198001Y122472D01*
X197978Y122332D01*
X197964Y122186D01*
X197960Y122035D01*
X196476Y123520D01*
X196627Y123523D01*
X196773Y123537D01*
X196913Y123561D01*
X197048Y123594D01*
X197178Y123638D01*
X197302Y123692D01*
X197420Y123757D01*
X197534Y123831D01*
X197641Y123915D01*
X197743Y124010D01*
X198451Y123302D01*
D02*
G37*
G36*
X373309Y123283D02*
X373214Y123181D01*
X373130Y123073D01*
X373056Y122960D01*
X372991Y122841D01*
X372937Y122717D01*
X372894Y122588D01*
X372860Y122453D01*
X372836Y122312D01*
X372822Y122166D01*
X372819Y122015D01*
X371334Y123500D01*
X371485Y123503D01*
X371631Y123517D01*
X371772Y123541D01*
X371906Y123575D01*
X372036Y123619D01*
X372160Y123673D01*
X372279Y123737D01*
X372392Y123811D01*
X372499Y123896D01*
X372602Y123990D01*
X373309Y123283D01*
D02*
G37*
G36*
X174641Y117965D02*
X174754Y117872D01*
X174870Y117789D01*
X174989Y117718D01*
X175112Y117657D01*
X175238Y117608D01*
X175367Y117569D01*
X175500Y117542D01*
X175636Y117525D01*
X175775Y117520D01*
Y116520D01*
X175636Y116514D01*
X175500Y116498D01*
X175367Y116470D01*
X175238Y116432D01*
X175112Y116382D01*
X174989Y116322D01*
X174870Y116250D01*
X174754Y116168D01*
X174641Y116074D01*
X174532Y115970D01*
Y118070D01*
X174641Y117965D01*
D02*
G37*
G36*
X349500Y117946D02*
X349612Y117852D01*
X349728Y117770D01*
X349848Y117698D01*
X349970Y117638D01*
X350096Y117588D01*
X350226Y117550D01*
X350358Y117522D01*
X350494Y117506D01*
X350633Y117500D01*
Y116500D01*
X350494Y116495D01*
X350358Y116478D01*
X350226Y116451D01*
X350096Y116412D01*
X349970Y116363D01*
X349848Y116302D01*
X349728Y116230D01*
X349612Y116148D01*
X349500Y116054D01*
X349390Y115950D01*
Y118050D01*
X349500Y117946D01*
D02*
G37*
G36*
X347248Y115950D02*
X347138Y116054D01*
X347025Y116148D01*
X346909Y116230D01*
X346790Y116302D01*
X346667Y116363D01*
X346541Y116412D01*
X346412Y116451D01*
X346280Y116478D01*
X346144Y116495D01*
X346005Y116500D01*
Y117500D01*
X346144Y117506D01*
X346280Y117522D01*
X346412Y117550D01*
X346541Y117588D01*
X346667Y117638D01*
X346790Y117698D01*
X346909Y117770D01*
X347025Y117852D01*
X347138Y117946D01*
X347248Y118050D01*
Y115950D01*
D02*
G37*
G36*
X395819Y157186D02*
X395813Y157325D01*
X395797Y157461D01*
X395769Y157593D01*
X395731Y157722D01*
X395681Y157849D01*
X395621Y157971D01*
X395549Y158090D01*
X395467Y158206D01*
X395373Y158319D01*
X395269Y158429D01*
X397369D01*
X397264Y158319D01*
X397171Y158206D01*
X397088Y158090D01*
X397017Y157971D01*
X396956Y157849D01*
X396907Y157722D01*
X396868Y157593D01*
X396841Y157461D01*
X396824Y157325D01*
X396819Y157186D01*
X395819D01*
D02*
G37*
G36*
X519217Y118990D02*
X519319Y118895D01*
X519427Y118811D01*
X519540Y118737D01*
X519659Y118673D01*
X519783Y118619D01*
X519912Y118575D01*
X520047Y118541D01*
X520188Y118517D01*
X520334Y118503D01*
X520485Y118500D01*
X519000Y117015D01*
X518997Y117166D01*
X518983Y117312D01*
X518959Y117453D01*
X518925Y117587D01*
X518881Y117717D01*
X518827Y117841D01*
X518763Y117960D01*
X518689Y118073D01*
X518605Y118181D01*
X518510Y118283D01*
X519217Y118990D01*
D02*
G37*
G36*
X522814Y116500D02*
X522675Y116495D01*
X522539Y116478D01*
X522407Y116451D01*
X522277Y116412D01*
X522152Y116363D01*
X522029Y116302D01*
X521910Y116230D01*
X521794Y116148D01*
X521681Y116054D01*
X521571Y115950D01*
Y118050D01*
X521681Y117946D01*
X521794Y117852D01*
X521910Y117770D01*
X522029Y117698D01*
X522152Y117638D01*
X522277Y117588D01*
X522407Y117550D01*
X522539Y117522D01*
X522675Y117506D01*
X522814Y117500D01*
Y116500D01*
D02*
G37*
G36*
X569446Y158319D02*
X569352Y158206D01*
X569270Y158090D01*
X569198Y157971D01*
X569137Y157849D01*
X569088Y157722D01*
X569050Y157593D01*
X569022Y157461D01*
X569005Y157325D01*
X569000Y157186D01*
X568000D01*
X567994Y157325D01*
X567978Y157461D01*
X567950Y157593D01*
X567912Y157722D01*
X567863Y157849D01*
X567802Y157971D01*
X567731Y158090D01*
X567648Y158206D01*
X567555Y158319D01*
X567450Y158429D01*
X569550D01*
X569446Y158319D01*
D02*
G37*
G36*
X560946D02*
X560852Y158206D01*
X560770Y158090D01*
X560698Y157971D01*
X560638Y157849D01*
X560588Y157722D01*
X560549Y157593D01*
X560522Y157461D01*
X560505Y157325D01*
X560500Y157186D01*
X559500D01*
X559494Y157325D01*
X559478Y157461D01*
X559450Y157593D01*
X559412Y157722D01*
X559363Y157849D01*
X559302Y157971D01*
X559231Y158090D01*
X559148Y158206D01*
X559055Y158319D01*
X558950Y158429D01*
X561050D01*
X560946Y158319D01*
D02*
G37*
G36*
X545490Y123283D02*
X545396Y123181D01*
X545311Y123073D01*
X545237Y122960D01*
X545173Y122841D01*
X545119Y122717D01*
X545075Y122588D01*
X545041Y122453D01*
X545017Y122312D01*
X545003Y122166D01*
X545000Y122015D01*
X543515Y123500D01*
X543666Y123503D01*
X543812Y123517D01*
X543953Y123541D01*
X544088Y123575D01*
X544217Y123619D01*
X544341Y123673D01*
X544460Y123737D01*
X544573Y123811D01*
X544681Y123896D01*
X544783Y123990D01*
X545490Y123283D01*
D02*
G37*
G36*
X400412Y348295D02*
X400517Y348199D01*
X400627Y348116D01*
X400739Y348047D01*
X400856Y347992D01*
X400976Y347951D01*
X401100Y347923D01*
X401228Y347910D01*
X401359Y347911D01*
X401493Y347926D01*
X401632Y347954D01*
X400539Y346161D01*
X400500Y346312D01*
X400405Y346597D01*
X400349Y346731D01*
X400286Y346858D01*
X400218Y346979D01*
X400145Y347095D01*
X400065Y347204D01*
X399979Y347308D01*
X399888Y347405D01*
X400412Y348295D01*
D02*
G37*
G36*
X514000Y407186D02*
X513995Y407325D01*
X513978Y407461D01*
X513950Y407593D01*
X513912Y407723D01*
X513863Y407849D01*
X513802Y407971D01*
X513730Y408090D01*
X513648Y408207D01*
X513554Y408319D01*
X513450Y408429D01*
X515550D01*
X515446Y408319D01*
X515352Y408207D01*
X515270Y408090D01*
X515198Y407971D01*
X515137Y407849D01*
X515088Y407723D01*
X515050Y407593D01*
X515022Y407461D01*
X515005Y407325D01*
X515000Y407186D01*
X514000D01*
D02*
G37*
G36*
X551186Y309500D02*
X551325Y309506D01*
X551461Y309522D01*
X551593Y309549D01*
X551722Y309588D01*
X551849Y309637D01*
X551971Y309698D01*
X552091Y309770D01*
X552207Y309852D01*
X552319Y309946D01*
X552429Y310050D01*
Y307950D01*
X552319Y308054D01*
X552207Y308148D01*
X552091Y308230D01*
X551971Y308302D01*
X551849Y308363D01*
X551722Y308412D01*
X551593Y308451D01*
X551461Y308478D01*
X551325Y308494D01*
X551186Y308500D01*
Y309500D01*
D02*
G37*
G36*
X569500Y345186D02*
X569494Y345325D01*
X569478Y345461D01*
X569451Y345593D01*
X569412Y345723D01*
X569362Y345848D01*
X569302Y345971D01*
X569231Y346091D01*
X569148Y346207D01*
X569055Y346319D01*
X568950Y346429D01*
X571050D01*
X570946Y346319D01*
X570852Y346207D01*
X570770Y346091D01*
X570698Y345971D01*
X570638Y345848D01*
X570588Y345723D01*
X570549Y345593D01*
X570522Y345461D01*
X570506Y345325D01*
X570500Y345186D01*
X569500D01*
D02*
G37*
G36*
X685205Y407412D02*
X685301Y407517D01*
X685384Y407626D01*
X685453Y407739D01*
X685508Y407856D01*
X685549Y407976D01*
X685576Y408100D01*
X685590Y408227D01*
X685589Y408359D01*
X685574Y408493D01*
X685546Y408632D01*
X687339Y407539D01*
X687187Y407500D01*
X686903Y407405D01*
X686769Y407349D01*
X686642Y407287D01*
X686520Y407219D01*
X686405Y407145D01*
X686296Y407065D01*
X686192Y406979D01*
X686095Y406888D01*
X685205Y407412D01*
D02*
G37*
D12*
X92330Y135289D02*
G03*
X93029Y135000I703J711D01*
G01*
X133500Y290000D02*
X200500Y357000D01*
X84000Y290000D02*
X133500D01*
X139000Y280000D02*
X206000Y347000D01*
X200500Y357000D02*
X219000D01*
X84000Y260000D02*
X136000D01*
X206250Y330250D02*
X341750D01*
X84000Y270000D02*
X138000D01*
X204000Y336000D01*
X84000Y280000D02*
X139000D01*
X136000Y260000D02*
X206250Y330250D01*
X82000Y183500D02*
X99000Y166500D01*
X85500Y191500D02*
X112432Y164568D01*
Y149500D02*
Y164568D01*
X50500Y183500D02*
X82000D01*
X24000Y210000D02*
X50500Y183500D01*
X16500Y211533D02*
Y232500D01*
Y191500D02*
Y211533D01*
X74060Y153560D02*
X92330Y135289D01*
X16500Y191500D02*
X54440Y153560D01*
X74060D01*
X93029Y135000D02*
X150000D01*
X66000Y107000D02*
X163441D01*
X173461Y117020D01*
X5500Y167500D02*
X66000Y107000D01*
X24500Y210000D02*
X27466Y207034D01*
X24000Y210000D02*
X24500D01*
X125500Y157000D02*
X169520Y201020D01*
X330020D01*
X24000Y300000D02*
X45000D01*
X24000Y220000D02*
X52500Y191500D01*
X85500D01*
X119500Y220500D02*
X190500Y291500D01*
X119500Y141000D02*
Y220500D01*
X67500Y126000D02*
X167500D01*
X11000Y182500D02*
X67500Y126000D01*
X167500D02*
X211000Y169500D01*
X173461Y117020D02*
X209428D01*
X224000Y390500D02*
X324500D01*
X133500Y300000D02*
X224000Y390500D01*
X84000Y300000D02*
X133500D01*
X330020Y201020D02*
X400500Y271500D01*
X197000Y182000D02*
X455500D01*
X275500Y169500D02*
X328000Y117000D01*
X455500Y182000D02*
X520500Y117000D01*
X328000D02*
X348319D01*
X150000Y135000D02*
X197000Y182000D01*
X211000Y169500D02*
X275500D01*
X400500Y271500D02*
Y283000D01*
X426500Y309000D01*
X553500D01*
X212000Y326000D02*
X553000D01*
X570000Y343000D01*
X125500Y176000D02*
X136500D01*
X269500Y309000D01*
X381500D01*
X190500Y291500D02*
Y292500D01*
X207500Y309500D01*
X5500Y167500D02*
Y337000D01*
X18500Y350000D01*
X16500Y232500D02*
X24000Y240000D01*
X11000Y182500D02*
Y327000D01*
X24000Y340000D01*
X18500Y350000D02*
X24000D01*
X324500Y390500D02*
X340000Y406000D01*
Y413500D01*
X219000Y357000D02*
X224000Y352000D01*
X206000Y347000D02*
X343000D01*
X359500Y363500D01*
X476000D01*
X514500Y402000D01*
Y409500D01*
X204000Y336000D02*
X339500D01*
X355500Y352000D01*
X396000D01*
X136000Y250000D02*
X212000Y326000D01*
X84000Y250000D02*
X136000D01*
X401500Y346500D02*
X402000D01*
X396000Y352000D02*
X401500Y346500D01*
X341750Y330250D02*
X351000Y339500D01*
X552000D01*
X577500Y365000D01*
X643000Y364500D02*
X687000Y408500D01*
Y409000D01*
X591871Y364500D02*
X643000D01*
X591371Y365000D02*
X591871Y364500D01*
X577500Y365000D02*
X591371D01*
X570000Y343000D02*
Y347500D01*
X126500Y410000D02*
Y447000D01*
X158500Y479000D01*
X221461Y129053D02*
Y159520D01*
X209428Y117020D02*
X221461Y129053D01*
X212961Y138520D02*
Y159520D01*
X196461Y122020D02*
X212961Y138520D01*
X396319Y129033D02*
Y159500D01*
X384286Y117000D02*
X396319Y129033D01*
X348319Y117000D02*
X384286D01*
X387819Y138500D02*
Y159500D01*
X371319Y122000D02*
X387819Y138500D01*
X520500Y117000D02*
X556467D01*
X568500Y129033D01*
Y159500D01*
X560000Y138500D02*
Y159500D01*
X543500Y122000D02*
X560000Y138500D01*
X0Y0D02*
Y489500D01*
X700000D01*
Y0D02*
Y489500D01*
X0Y0D02*
X700000D01*
D15*
X17504Y181004D02*
X90496D01*
Y378996D01*
X17504D02*
X90496D01*
X17504Y181004D02*
Y378996D01*
Y181004D02*
X90496D01*
Y378996D01*
X17504D02*
X90496D01*
X17504Y181004D02*
Y378996D01*
D23*
X206500Y147500D02*
D03*
X381000Y148500D02*
D03*
X553000Y149500D02*
D03*
X179461Y329000D02*
D03*
X99000Y166500D02*
D03*
X112500Y149500D02*
D03*
X72681Y159181D02*
D03*
X54931Y176931D02*
D03*
X141500Y111500D02*
D03*
X98500Y129500D02*
D03*
Y122500D02*
D03*
X129500Y141000D02*
D03*
X125500Y157000D02*
D03*
X146000Y152500D02*
D03*
X146500Y161000D02*
D03*
X19000Y101000D02*
D03*
X33000Y93500D02*
D03*
X18000Y149500D02*
D03*
X69000Y100000D02*
D03*
X73500Y90500D02*
D03*
X48000Y100000D02*
D03*
Y90500D02*
D03*
X6000Y85500D02*
D03*
X45000Y300000D02*
D03*
X6500Y101000D02*
D03*
X19500Y56500D02*
D03*
X39000Y45500D02*
D03*
Y38000D02*
D03*
X131000Y332000D02*
D03*
Y303500D02*
D03*
X114000Y318000D02*
D03*
X119500Y141000D02*
D03*
X553500Y309000D02*
D03*
X125500Y176000D02*
D03*
X381500Y309000D02*
D03*
X207500Y309500D02*
D03*
X73500Y167500D02*
D03*
X66500Y323000D02*
D03*
X42000Y322000D02*
D03*
X73500Y202000D02*
D03*
X172461Y151520D02*
D03*
X85000Y370500D02*
D03*
Y380500D02*
D03*
X340000Y413500D02*
D03*
X224000Y352000D02*
D03*
X514500Y409500D02*
D03*
X402000Y346500D02*
D03*
X375819Y349000D02*
D03*
X526500Y329000D02*
D03*
X236400Y323000D02*
D03*
X354319Y329000D02*
D03*
X411319Y323000D02*
D03*
X432158Y367433D02*
D03*
X419158Y367933D02*
D03*
X401819Y302000D02*
D03*
X400819Y190500D02*
D03*
X505569Y408931D02*
D03*
X389319Y376000D02*
D03*
X493819Y362500D02*
D03*
X513816Y362720D02*
D03*
X548000Y349000D02*
D03*
X200961Y349020D02*
D03*
X226961Y302020D02*
D03*
X687000Y409000D02*
D03*
X570000Y347500D02*
D03*
X145762Y371800D02*
D03*
X138500D02*
D03*
X130500D02*
D03*
Y380883D02*
D03*
Y389000D02*
D03*
X195500Y460000D02*
D03*
X211000Y475000D02*
D03*
X167500Y479500D02*
D03*
X102500Y476000D02*
D03*
X136500Y426000D02*
D03*
X131500D02*
D03*
X126500Y410000D02*
D03*
X158500Y479000D02*
D03*
X389819Y110000D02*
D03*
X378319Y91500D02*
D03*
X348319Y117000D02*
D03*
X359819Y100000D02*
D03*
X363657Y108933D02*
D03*
X184961Y100020D02*
D03*
X188799Y108953D02*
D03*
X203461Y81020D02*
D03*
X221461Y159520D02*
D03*
X212961D02*
D03*
X225961Y190520D02*
D03*
X338961Y362520D02*
D03*
X330653Y408910D02*
D03*
X314400Y413200D02*
D03*
X318961Y362520D02*
D03*
X214461Y376020D02*
D03*
X257242Y367413D02*
D03*
X203461Y91520D02*
D03*
X173461Y117020D02*
D03*
X196461Y122020D02*
D03*
X227461Y104520D02*
D03*
X214961Y110020D02*
D03*
X378319Y81000D02*
D03*
X396319Y159500D02*
D03*
X387819D02*
D03*
X371319Y122000D02*
D03*
X347319Y151500D02*
D03*
X402319Y104500D02*
D03*
X489316Y413221D02*
D03*
X244241Y367913D02*
D03*
X520500Y117000D02*
D03*
X519500Y151500D02*
D03*
X573000Y190500D02*
D03*
X568500Y159500D02*
D03*
X560000D02*
D03*
X543500Y122000D02*
D03*
X550500Y81000D02*
D03*
Y91500D02*
D03*
X532000Y100000D02*
D03*
X536000Y109000D02*
D03*
X562000Y110000D02*
D03*
X574500Y104500D02*
D03*
X583500Y323000D02*
D03*
X561500Y376000D02*
D03*
X574000Y302000D02*
D03*
X604500Y367500D02*
D03*
X591500Y368000D02*
D03*
X686000Y362500D02*
D03*
X666000D02*
D03*
X677753Y408710D02*
D03*
X661500Y413000D02*
D03*
D81*
X39000Y45500D02*
X42000Y42500D01*
X65200D01*
X71500Y48800D01*
D82*
X221961Y110020D02*
X227461Y104520D01*
X214961Y110020D02*
X221961D01*
X396819Y110000D02*
X402319Y104500D01*
X389819Y110000D02*
X396819D01*
X562000D02*
X569000D01*
X574500Y104500D01*
D84*
X72000Y120000D02*
D03*
X82000D02*
D03*
X72000Y138000D02*
D03*
X82000D02*
D03*
X488500Y424000D02*
D03*
X498500D02*
D03*
X311500Y423000D02*
D03*
X321500D02*
D03*
X675000Y422000D02*
D03*
X665000D02*
D03*
X540000Y10000D02*
D03*
X550000D02*
D03*
X539500Y47000D02*
D03*
X549500D02*
D03*
X47000Y64000D02*
D03*
X37000D02*
D03*
D85*
X394658Y282221D02*
D03*
X384816D02*
D03*
X374974D02*
D03*
X365132D02*
D03*
X219742Y282200D02*
D03*
X209900D02*
D03*
X200058D02*
D03*
X190216D02*
D03*
X566842Y282000D02*
D03*
X557000D02*
D03*
X547158D02*
D03*
X537316D02*
D03*
D86*
X599000Y426000D02*
D03*
X628500Y413480D02*
D03*
X599000D02*
D03*
X628500Y426000D02*
D03*
X423000Y425000D02*
D03*
X452500Y412480D02*
D03*
X423000D02*
D03*
X452500Y425000D02*
D03*
X246500D02*
D03*
X276000Y412480D02*
D03*
X246500D02*
D03*
X276000Y425000D02*
D03*
X119500Y67000D02*
D03*
X149000Y79520D02*
D03*
X119500D02*
D03*
X149000Y67000D02*
D03*
D87*
X580299Y477693D02*
D03*
X647201D02*
D03*
X404299Y476693D02*
D03*
X471201D02*
D03*
X227799D02*
D03*
X294701D02*
D03*
X100799Y15307D02*
D03*
X167701D02*
D03*
D88*
X17000Y470000D02*
D03*
X18500Y13500D02*
D03*
X587000Y17500D02*
D03*
X682500Y470000D02*
D03*
D89*
X84000Y210000D02*
D03*
X24000D02*
D03*
X84000Y220000D02*
D03*
X24000D02*
D03*
X84000Y230000D02*
D03*
X24000D02*
D03*
X84000Y240000D02*
D03*
X24000D02*
D03*
X84000Y250000D02*
D03*
X24000D02*
D03*
X84000Y260000D02*
D03*
X24000D02*
D03*
X84000Y270000D02*
D03*
X24000D02*
D03*
X84000Y280000D02*
D03*
X24000D02*
D03*
X84000Y290000D02*
D03*
X24000D02*
D03*
X84000Y300000D02*
D03*
X24000D02*
D03*
X84000Y310000D02*
D03*
X24000D02*
D03*
X84000Y320000D02*
D03*
X24000D02*
D03*
X84000Y330000D02*
D03*
X24000D02*
D03*
X84000Y340000D02*
D03*
X24000D02*
D03*
D90*
X84000Y350000D02*
D03*
X24000D02*
D03*
D91*
X59700Y48800D02*
D03*
X71500D02*
D03*
Y37000D02*
D03*
X59700D02*
D03*
D92*
X65600Y20000D02*
D03*
D93*
X292433Y40520D02*
D03*
X321961D02*
D03*
X639472Y40500D02*
D03*
X669000D02*
D03*
X321988Y114520D02*
D03*
X292461D02*
D03*
X496846Y114500D02*
D03*
X467319D02*
D03*
X467291Y40500D02*
D03*
X496819D02*
D03*
X669028Y114500D02*
D03*
X639500D02*
D03*
D94*
X313461Y209020D02*
D03*
X213461D02*
D03*
X488319Y209000D02*
D03*
X388319D02*
D03*
X660500D02*
D03*
X560500D02*
D03*
D95*
X585000Y137500D02*
D03*
X412819D02*
D03*
X237961Y137520D02*
D03*
D96*
X585000Y157500D02*
D03*
Y147500D02*
D03*
X611000Y191000D02*
D03*
X621000D02*
D03*
X237961Y147520D02*
D03*
X412819Y147500D02*
D03*
Y157500D02*
D03*
X448819Y191000D02*
D03*
X438819D02*
D03*
X237961Y157520D02*
D03*
X273961Y191020D02*
D03*
X263961D02*
D03*
D97*
X601000Y191000D02*
D03*
X428819D02*
D03*
X253961Y191020D02*
D03*
D98*
X248000Y29500D02*
D03*
X209000D02*
D03*
Y16000D02*
D03*
X248000D02*
D03*
M02*
