G04*
G04 #@! TF.GenerationSoftware,Altium Limited,Altium Designer,21.9.2 (33)*
G04*
G04 Layer_Color=8388736*
%FSLAX25Y25*%
%MOIN*%
G70*
G04*
G04 #@! TF.SameCoordinates,124C872B-156E-4B56-9EA0-D5D40F7013FE*
G04*
G04*
G04 #@! TF.FilePolarity,Negative*
G04*
G01*
G75*
%ADD13C,0.01000*%
%ADD15C,0.00500*%
%ADD40R,0.06115X0.04343*%
%ADD41R,0.04343X0.06115*%
%ADD42R,0.03162X0.08674*%
%ADD43R,0.11627X0.07296*%
%ADD44R,0.07887X0.06509*%
%ADD45R,0.03162X0.04737*%
%ADD46R,0.13595X0.09461*%
%ADD47R,0.04343X0.04540*%
%ADD48R,0.10052X0.09068*%
%ADD49O,0.10052X0.09068*%
%ADD50C,0.03800*%
%ADD51R,0.16548X0.15958*%
%ADD52R,0.06312X0.05800*%
%ADD53R,0.19698X0.19383*%
%ADD54R,0.03162X0.06706*%
%ADD55R,0.04934X0.06312*%
%ADD56R,0.09698X0.11824*%
%ADD57R,0.04343X0.02375*%
%ADD58R,0.34265X0.32296*%
%ADD59R,0.07493X0.11430*%
%ADD60R,0.11430X0.07493*%
%ADD61R,0.06312X0.04934*%
%ADD62R,0.06509X0.07887*%
%ADD63C,0.07887*%
%ADD64R,0.07099X0.07099*%
%ADD65C,0.07099*%
%ADD66C,0.10958*%
%ADD67C,0.15800*%
%ADD68C,0.06824*%
%ADD69R,0.06824X0.06824*%
%ADD70C,0.13800*%
%ADD71R,0.07099X0.07099*%
%ADD72C,0.06400*%
%ADD73C,0.07800*%
%ADD74C,0.15600*%
%ADD75C,0.17729*%
%ADD76C,0.08800*%
%ADD77C,0.06312*%
D13*
X-0Y487500D02*
X0Y0D01*
X-0Y487500D02*
X614500D01*
X614500Y0D01*
X0D02*
X614500D01*
D15*
X12004Y281504D02*
X84996D01*
Y479496D01*
X12004D02*
X84996D01*
X12004Y281504D02*
Y479496D01*
Y281504D02*
X84996D01*
Y479496D01*
X12004D02*
X84996D01*
X12004Y281504D02*
Y479496D01*
D40*
X29000Y369937D02*
D03*
Y362063D02*
D03*
X487000Y376937D02*
D03*
Y369063D02*
D03*
X55500Y169937D02*
D03*
Y162063D02*
D03*
X64500Y169937D02*
D03*
Y162063D02*
D03*
X7000Y171063D02*
D03*
Y178937D02*
D03*
X498500Y199937D02*
D03*
Y192063D02*
D03*
X326316Y200157D02*
D03*
Y192283D02*
D03*
X151400Y200137D02*
D03*
Y192263D02*
D03*
X462000Y153937D02*
D03*
Y146063D02*
D03*
X478000Y392937D02*
D03*
Y385063D02*
D03*
X487000D02*
D03*
Y392937D02*
D03*
X289819Y153937D02*
D03*
Y146063D02*
D03*
X303819Y392937D02*
D03*
Y385063D02*
D03*
X313000D02*
D03*
Y392937D02*
D03*
Y369063D02*
D03*
Y376937D02*
D03*
X7000Y164937D02*
D03*
Y157063D02*
D03*
X22500Y180563D02*
D03*
Y188437D02*
D03*
X114961Y153957D02*
D03*
Y146083D02*
D03*
X125000Y392937D02*
D03*
Y385063D02*
D03*
X134000D02*
D03*
Y392937D02*
D03*
Y369063D02*
D03*
Y376937D02*
D03*
D41*
X33063Y407000D02*
D03*
X40937D02*
D03*
X33063Y398500D02*
D03*
X40937D02*
D03*
X239563Y397000D02*
D03*
X247437D02*
D03*
X496563Y78500D02*
D03*
X504437D02*
D03*
X415063Y396000D02*
D03*
X422937D02*
D03*
X15063Y172000D02*
D03*
X22937D02*
D03*
X595937Y396500D02*
D03*
X588063D02*
D03*
X454563Y303000D02*
D03*
X462437D02*
D03*
X482437D02*
D03*
X474563D02*
D03*
X282379Y303221D02*
D03*
X290253D02*
D03*
X310253D02*
D03*
X302379D02*
D03*
X107463Y303200D02*
D03*
X115337D02*
D03*
X135337D02*
D03*
X127463D02*
D03*
X508437Y103500D02*
D03*
X500563D02*
D03*
X336256D02*
D03*
X328382D02*
D03*
X161398Y103520D02*
D03*
X153524D02*
D03*
D42*
X484000Y140342D02*
D03*
X479000D02*
D03*
X474000D02*
D03*
X469000D02*
D03*
X484000Y120658D02*
D03*
X479000D02*
D03*
X474000D02*
D03*
X469000D02*
D03*
X311819Y140342D02*
D03*
X306819D02*
D03*
X301819D02*
D03*
X296819D02*
D03*
X311819Y120658D02*
D03*
X306819D02*
D03*
X301819D02*
D03*
X296819D02*
D03*
X136961Y140362D02*
D03*
X131961D02*
D03*
X126961D02*
D03*
X121961D02*
D03*
X136961Y120677D02*
D03*
X131961D02*
D03*
X126961D02*
D03*
X121961D02*
D03*
D43*
X476500Y130500D02*
D03*
X304319D02*
D03*
X129461Y130520D02*
D03*
D44*
X67000Y329988D02*
D03*
Y341012D02*
D03*
X55500D02*
D03*
Y329988D02*
D03*
X551000Y168024D02*
D03*
Y157000D02*
D03*
X535000Y392012D02*
D03*
Y380988D02*
D03*
X524500Y392012D02*
D03*
Y380988D02*
D03*
X504000Y381000D02*
D03*
Y392024D02*
D03*
X514000Y380988D02*
D03*
Y392012D02*
D03*
X382500Y166512D02*
D03*
Y155488D02*
D03*
X362819Y392012D02*
D03*
Y380988D02*
D03*
X352319Y392012D02*
D03*
Y380988D02*
D03*
X331819Y381000D02*
D03*
Y392024D02*
D03*
X341819Y380988D02*
D03*
Y392012D02*
D03*
X34500Y164988D02*
D03*
Y176012D02*
D03*
Y143988D02*
D03*
Y155012D02*
D03*
X206000Y168524D02*
D03*
Y157500D02*
D03*
X187961Y392032D02*
D03*
Y381008D02*
D03*
X177461Y392032D02*
D03*
Y381008D02*
D03*
X156961Y381020D02*
D03*
Y392043D02*
D03*
X166961Y381008D02*
D03*
Y392032D02*
D03*
D45*
X578740Y392413D02*
D03*
X575000D02*
D03*
X571260D02*
D03*
Y381587D02*
D03*
X578740D02*
D03*
X407240Y391413D02*
D03*
X403500D02*
D03*
X399760D02*
D03*
Y380587D02*
D03*
X407240D02*
D03*
X230740Y391413D02*
D03*
X227000D02*
D03*
X223260D02*
D03*
Y380587D02*
D03*
X230740D02*
D03*
D46*
X559000Y396646D02*
D03*
Y377354D02*
D03*
X386819Y396646D02*
D03*
Y377354D02*
D03*
X211961Y396665D02*
D03*
Y377374D02*
D03*
D47*
X502551Y87000D02*
D03*
X496449D02*
D03*
D48*
X460799Y84500D02*
D03*
D49*
Y45524D02*
D03*
X479500Y84500D02*
D03*
Y45524D02*
D03*
D50*
X504500Y71000D02*
D03*
X469000Y303000D02*
D03*
X296816Y303221D02*
D03*
X121900Y303200D02*
D03*
X494000Y381000D02*
D03*
X321000D02*
D03*
X14063Y164937D02*
D03*
X15000Y194500D02*
D03*
X142000Y381000D02*
D03*
X29000Y350000D02*
D03*
X118000Y393000D02*
D03*
X173408Y345584D02*
D03*
X470000Y393000D02*
D03*
X41000Y415000D02*
D03*
X108000Y325000D02*
D03*
X441000Y183000D02*
D03*
X464000Y173000D02*
D03*
X506000Y94000D02*
D03*
X487000Y152000D02*
D03*
X471000D02*
D03*
X296000Y393000D02*
D03*
X464000Y310500D02*
D03*
X454500Y324500D02*
D03*
X318000Y303500D02*
D03*
X298000Y309500D02*
D03*
X282500Y325000D02*
D03*
X117500Y311000D02*
D03*
X487500Y362000D02*
D03*
X296000Y376000D02*
D03*
X313500Y363500D02*
D03*
X135000Y361500D02*
D03*
X111500Y187000D02*
D03*
X79000Y165500D02*
D03*
X601000Y7000D02*
D03*
X67000Y349000D02*
D03*
X603500Y407500D02*
D03*
X603000Y381000D02*
D03*
X575000Y398500D02*
D03*
X585000Y373500D02*
D03*
X403750Y397750D02*
D03*
X432000Y381000D02*
D03*
X416000Y372000D02*
D03*
X250500Y373000D02*
D03*
X243000D02*
D03*
X227500Y398000D02*
D03*
X548000Y20500D02*
D03*
Y27500D02*
D03*
X575000Y6000D02*
D03*
X27000Y398000D02*
D03*
X470000Y84500D02*
D03*
X248000Y90000D02*
D03*
X420000Y87500D02*
D03*
X297500Y92500D02*
D03*
X306000Y87500D02*
D03*
X48500Y189000D02*
D03*
X56500D02*
D03*
X102500Y92000D02*
D03*
X166000Y308000D02*
D03*
X106500Y264500D02*
D03*
X563500Y51000D02*
D03*
X603500Y48500D02*
D03*
X603707Y74357D02*
D03*
X566142Y132307D02*
D03*
X534500Y85000D02*
D03*
X550500D02*
D03*
X577500Y75000D02*
D03*
X603000Y106500D02*
D03*
X512500Y72500D02*
D03*
X537500D02*
D03*
X511500Y87000D02*
D03*
X514500Y79000D02*
D03*
X136610Y96909D02*
D03*
X281500Y95000D02*
D03*
X453000Y93500D02*
D03*
X479000Y152000D02*
D03*
X314500Y151000D02*
D03*
X299000D02*
D03*
X125000Y150000D02*
D03*
X132000D02*
D03*
X139500D02*
D03*
X307000Y151000D02*
D03*
X31500Y330000D02*
D03*
X127295Y96122D02*
D03*
X130000Y85500D02*
D03*
X144000Y39937D02*
D03*
X164500Y39437D02*
D03*
X124000Y39937D02*
D03*
X145500Y71437D02*
D03*
X128500Y61937D02*
D03*
X157500Y65437D02*
D03*
X309500Y37500D02*
D03*
X289000Y38000D02*
D03*
X269000D02*
D03*
X290500Y69500D02*
D03*
X273500Y60000D02*
D03*
X302500Y63500D02*
D03*
X101961Y101520D02*
D03*
X440500Y35500D02*
D03*
X481000Y35000D02*
D03*
X474000Y61000D02*
D03*
X445000Y57500D02*
D03*
X460500Y35500D02*
D03*
X462000Y67000D02*
D03*
X72000Y262000D02*
D03*
X72500Y289000D02*
D03*
X89000Y292000D02*
D03*
X82000Y283000D02*
D03*
X79500Y262000D02*
D03*
X101000Y308500D02*
D03*
X29500Y415500D02*
D03*
X68000Y413500D02*
D03*
X250000Y293500D02*
D03*
X236500Y308500D02*
D03*
X169500Y313000D02*
D03*
X162000D02*
D03*
Y319000D02*
D03*
X169500D02*
D03*
X255500Y404500D02*
D03*
X275599Y392768D02*
D03*
Y386768D02*
D03*
X275534Y380623D02*
D03*
X263500Y422500D02*
D03*
X248000Y437571D02*
D03*
X173432Y340253D02*
D03*
X196000Y392500D02*
D03*
X431500Y406500D02*
D03*
X23000Y253500D02*
D03*
X11500Y246000D02*
D03*
X30000Y188500D02*
D03*
X15000D02*
D03*
X23000Y198500D02*
D03*
X12000Y205500D02*
D03*
X34500Y182500D02*
D03*
X33000Y136000D02*
D03*
X17000Y137000D02*
D03*
X24500D02*
D03*
X48000Y261000D02*
D03*
X55500D02*
D03*
X470500Y376740D02*
D03*
X118000Y377000D02*
D03*
X349158Y368933D02*
D03*
X336157Y369433D02*
D03*
X317819Y192000D02*
D03*
X143961Y303520D02*
D03*
X306819Y111500D02*
D03*
X276819Y101500D02*
D03*
X280658Y110433D02*
D03*
X105799Y110453D02*
D03*
X142961Y192020D02*
D03*
X174241Y368913D02*
D03*
X144461Y106020D02*
D03*
X131961Y111520D02*
D03*
X319319Y106000D02*
D03*
X154000Y371500D02*
D03*
X490000Y192000D02*
D03*
X467500Y93000D02*
D03*
X449000Y101500D02*
D03*
X453000Y110500D02*
D03*
X479000Y111500D02*
D03*
X491500Y106000D02*
D03*
X491000Y303500D02*
D03*
X521500Y369000D02*
D03*
X508500Y369500D02*
D03*
D51*
X582000Y421736D02*
D03*
Y451264D02*
D03*
X245000Y422236D02*
D03*
Y451764D02*
D03*
X421500Y451264D02*
D03*
Y421736D02*
D03*
D52*
X528094Y167961D02*
D03*
X519906D02*
D03*
X347406Y167587D02*
D03*
X355594D02*
D03*
X171906Y167461D02*
D03*
X180095D02*
D03*
D53*
X524000Y153000D02*
D03*
X351500Y152626D02*
D03*
X176000Y152500D02*
D03*
D54*
X53000Y246158D02*
D03*
X48000D02*
D03*
X43000D02*
D03*
X38000D02*
D03*
X33000D02*
D03*
X28000D02*
D03*
X23000D02*
D03*
X18000D02*
D03*
X53000Y205842D02*
D03*
X48000D02*
D03*
X43000D02*
D03*
X38000D02*
D03*
X33000D02*
D03*
X28000D02*
D03*
X23000D02*
D03*
X18000D02*
D03*
D55*
X24740Y144500D02*
D03*
X17260D02*
D03*
X592740Y381500D02*
D03*
X585260D02*
D03*
X423240Y380500D02*
D03*
X415760D02*
D03*
X247240D02*
D03*
X239760D02*
D03*
X468240Y111500D02*
D03*
X460760D02*
D03*
X482740Y104000D02*
D03*
X475260D02*
D03*
X296059Y111500D02*
D03*
X288579D02*
D03*
X310559Y104000D02*
D03*
X303079D02*
D03*
X48760Y196500D02*
D03*
X56240D02*
D03*
X47760Y254500D02*
D03*
X55240D02*
D03*
X121201Y111520D02*
D03*
X113721D02*
D03*
X135701Y104020D02*
D03*
X128220D02*
D03*
D56*
X296500Y422098D02*
D03*
Y409500D02*
D03*
X459500Y411201D02*
D03*
Y423799D02*
D03*
X121000Y410201D02*
D03*
Y422799D02*
D03*
D57*
X16472Y157059D02*
D03*
Y154500D02*
D03*
Y151941D02*
D03*
X25528D02*
D03*
Y157059D02*
D03*
D58*
X554500Y285500D02*
D03*
Y354465D02*
D03*
X382319Y285500D02*
D03*
Y354465D02*
D03*
X207461Y285520D02*
D03*
Y354484D02*
D03*
D59*
X449500Y135626D02*
D03*
Y151374D02*
D03*
X277319Y135626D02*
D03*
Y151374D02*
D03*
X102461Y135646D02*
D03*
Y151394D02*
D03*
D60*
X497626Y117000D02*
D03*
X513374D02*
D03*
X325445D02*
D03*
X341193D02*
D03*
X150587Y117020D02*
D03*
X166335D02*
D03*
D61*
X603500Y389260D02*
D03*
Y396740D02*
D03*
X478000Y376740D02*
D03*
Y369260D02*
D03*
X432000Y388760D02*
D03*
Y396240D02*
D03*
X303500Y376240D02*
D03*
Y368760D02*
D03*
X454500Y318240D02*
D03*
Y310760D02*
D03*
X255500Y389760D02*
D03*
Y397240D02*
D03*
X282500Y319240D02*
D03*
Y311760D02*
D03*
X125500Y376740D02*
D03*
Y369260D02*
D03*
X108500Y318240D02*
D03*
Y310760D02*
D03*
X540500Y158260D02*
D03*
Y165740D02*
D03*
X371500Y157260D02*
D03*
Y164740D02*
D03*
X194000Y159020D02*
D03*
Y166500D02*
D03*
D62*
X467512Y102500D02*
D03*
X456488D02*
D03*
X295331D02*
D03*
X284307D02*
D03*
X120472Y102520D02*
D03*
X109449D02*
D03*
D63*
X137000Y334000D02*
D03*
X127000D02*
D03*
X337000Y83500D02*
D03*
X347000D02*
D03*
X345500Y9500D02*
D03*
X335500D02*
D03*
X65500Y152500D02*
D03*
X55500D02*
D03*
X65500Y236000D02*
D03*
X75500D02*
D03*
X66000Y218000D02*
D03*
X76000D02*
D03*
D64*
X435500Y152000D02*
D03*
X518000Y192500D02*
D03*
X345819D02*
D03*
X170961Y192520D02*
D03*
D65*
X425500Y152000D02*
D03*
X415500D02*
D03*
X538000Y192500D02*
D03*
X528000D02*
D03*
X502000Y159000D02*
D03*
Y149000D02*
D03*
X365819Y192500D02*
D03*
X355819D02*
D03*
X329819Y159000D02*
D03*
Y149000D02*
D03*
X190961Y192520D02*
D03*
X180961D02*
D03*
X154961Y159020D02*
D03*
Y149020D02*
D03*
D66*
X90701Y63693D02*
D03*
X61201Y76213D02*
D03*
X90701D02*
D03*
X61201Y63693D02*
D03*
X499000Y425500D02*
D03*
X528500Y412980D02*
D03*
X499000D02*
D03*
X528500Y425500D02*
D03*
X340000D02*
D03*
X369500Y412980D02*
D03*
X340000D02*
D03*
X369500Y425500D02*
D03*
X163500D02*
D03*
X193000Y412980D02*
D03*
X163500D02*
D03*
X193000Y425500D02*
D03*
D67*
X109402Y12000D02*
D03*
X42500D02*
D03*
X480299Y477193D02*
D03*
X547201D02*
D03*
X321299D02*
D03*
X388201D02*
D03*
X144799D02*
D03*
X211701D02*
D03*
D68*
X78500Y310500D02*
D03*
X18500D02*
D03*
X78500Y320500D02*
D03*
X18500D02*
D03*
X78500Y330500D02*
D03*
X18500D02*
D03*
X78500Y340500D02*
D03*
X18500D02*
D03*
X78500Y350500D02*
D03*
X18500D02*
D03*
X78500Y360500D02*
D03*
X18500D02*
D03*
X78500Y370500D02*
D03*
X18500D02*
D03*
X78500Y380500D02*
D03*
X18500D02*
D03*
X78500Y390500D02*
D03*
X18500D02*
D03*
X78500Y400500D02*
D03*
X18500D02*
D03*
X78500Y410500D02*
D03*
X18500D02*
D03*
X78500Y420500D02*
D03*
X18500D02*
D03*
X78500Y430500D02*
D03*
X18500D02*
D03*
X78500Y440500D02*
D03*
X18500D02*
D03*
D69*
X78500Y450500D02*
D03*
X18500D02*
D03*
D70*
X230461Y210520D02*
D03*
X130461D02*
D03*
X577500Y210500D02*
D03*
X477500D02*
D03*
X305319D02*
D03*
X405319D02*
D03*
D71*
X502000Y139000D02*
D03*
X329819D02*
D03*
X154961Y139020D02*
D03*
D72*
X454316Y283500D02*
D03*
X464158D02*
D03*
X474000D02*
D03*
X483842D02*
D03*
X282132Y283720D02*
D03*
X291974D02*
D03*
X301816D02*
D03*
X311658D02*
D03*
X109816Y284000D02*
D03*
X119658D02*
D03*
X129500D02*
D03*
X139342D02*
D03*
D73*
X33500Y105000D02*
D03*
Y116800D02*
D03*
X45300Y105000D02*
D03*
Y116800D02*
D03*
D74*
X16500Y110900D02*
D03*
D75*
X47000Y467000D02*
D03*
X15500Y17500D02*
D03*
X504000Y19000D02*
D03*
X599500Y473000D02*
D03*
D76*
X174000Y13500D02*
D03*
X135000D02*
D03*
Y27000D02*
D03*
X174000D02*
D03*
D77*
X586500Y38000D02*
D03*
X556972D02*
D03*
X414028D02*
D03*
X384500D02*
D03*
X240000Y37500D02*
D03*
X210472D02*
D03*
X586028Y116000D02*
D03*
X556500D02*
D03*
X413846D02*
D03*
X384319D02*
D03*
X238988Y116020D02*
D03*
X209461D02*
D03*
M02*
