G04*
G04 #@! TF.GenerationSoftware,Altium Limited,Altium Designer,21.9.2 (33)*
G04*
G04 Layer_Color=8421504*
%FSLAX25Y25*%
%MOIN*%
G70*
G04*
G04 #@! TF.SameCoordinates,2187BA10-C0C5-499C-AD3E-B80059DCE3BC*
G04*
G04*
G04 #@! TF.FilePolarity,Positive*
G04*
G01*
G75*
%ADD13C,0.01000*%
%ADD15C,0.00500*%
%ADD17R,0.03543X0.05315*%
%ADD18R,0.02362X0.07874*%
%ADD19R,0.10827X0.06496*%
%ADD20R,0.07087X0.05709*%
%ADD21R,0.02362X0.03937*%
%ADD22R,0.12795X0.08661*%
%ADD23R,0.03543X0.03740*%
%ADD24R,0.09252X0.08268*%
%ADD25O,0.09252X0.08268*%
%ADD26C,0.03000*%
%ADD27R,0.15748X0.15158*%
%ADD28R,0.05512X0.05000*%
%ADD29R,0.18898X0.18583*%
%ADD30R,0.02362X0.05906*%
%ADD31R,0.05315X0.03543*%
%ADD32R,0.04134X0.05512*%
%ADD33R,0.08898X0.11024*%
%ADD34R,0.03543X0.01575*%
%ADD35R,0.33465X0.31496*%
%ADD36R,0.06693X0.10630*%
%ADD37R,0.10630X0.06693*%
%ADD38R,0.05512X0.04134*%
%ADD39R,0.05709X0.07087*%
D13*
X-0Y487500D02*
X0Y0D01*
X-0Y487500D02*
X614500D01*
X614500Y0D01*
X0D02*
X614500D01*
D15*
X12004Y281504D02*
X84996D01*
Y479496D01*
X12004D02*
X84996D01*
X12004Y281504D02*
Y479496D01*
Y281504D02*
X84996D01*
Y479496D01*
X12004D02*
X84996D01*
X12004Y281504D02*
Y479496D01*
D17*
X482063Y352000D02*
D03*
X489937D02*
D03*
X40937Y398500D02*
D03*
X33063D02*
D03*
X239563Y397000D02*
D03*
X247437D02*
D03*
X496563Y78500D02*
D03*
X504437D02*
D03*
X415063Y396000D02*
D03*
X422937D02*
D03*
X15063Y172000D02*
D03*
X22937D02*
D03*
X595937Y396500D02*
D03*
X588063D02*
D03*
X454563Y303000D02*
D03*
X462437D02*
D03*
X482437D02*
D03*
X474563D02*
D03*
X282379Y303221D02*
D03*
X290253D02*
D03*
X310253D02*
D03*
X302379D02*
D03*
X107463Y303200D02*
D03*
X115337D02*
D03*
X135337D02*
D03*
X127463D02*
D03*
X508437Y103500D02*
D03*
X500563D02*
D03*
X336256D02*
D03*
X328382D02*
D03*
X316937Y351000D02*
D03*
X309063D02*
D03*
X161398Y103520D02*
D03*
X153524D02*
D03*
X142937Y351000D02*
D03*
X135063D02*
D03*
D18*
X484000Y140342D02*
D03*
X479000D02*
D03*
X474000D02*
D03*
X469000D02*
D03*
X484000Y120658D02*
D03*
X479000D02*
D03*
X474000D02*
D03*
X469000D02*
D03*
X311819Y140342D02*
D03*
X306819D02*
D03*
X301819D02*
D03*
X296819D02*
D03*
X311819Y120658D02*
D03*
X306819D02*
D03*
X301819D02*
D03*
X296819D02*
D03*
X136961Y140362D02*
D03*
X131961D02*
D03*
X126961D02*
D03*
X121961D02*
D03*
X136961Y120677D02*
D03*
X131961D02*
D03*
X126961D02*
D03*
X121961D02*
D03*
D19*
X476500Y130500D02*
D03*
X304319D02*
D03*
X129461Y130520D02*
D03*
D20*
X67000Y329988D02*
D03*
Y341012D02*
D03*
X55500D02*
D03*
Y329988D02*
D03*
X551000Y168024D02*
D03*
Y157000D02*
D03*
X535000Y392012D02*
D03*
Y380988D02*
D03*
X524500Y392012D02*
D03*
Y380988D02*
D03*
X504000Y381000D02*
D03*
Y392024D02*
D03*
X514000Y380988D02*
D03*
Y392012D02*
D03*
X382500Y166512D02*
D03*
Y155488D02*
D03*
X362819Y392012D02*
D03*
Y380988D02*
D03*
X352319Y392012D02*
D03*
Y380988D02*
D03*
X331819Y381000D02*
D03*
Y392024D02*
D03*
X341819Y380988D02*
D03*
Y392012D02*
D03*
X34500Y164988D02*
D03*
Y176012D02*
D03*
Y143988D02*
D03*
Y155012D02*
D03*
X206000Y168524D02*
D03*
Y157500D02*
D03*
X187961Y392032D02*
D03*
Y381008D02*
D03*
X177461Y392032D02*
D03*
Y381008D02*
D03*
X156961Y381020D02*
D03*
Y392043D02*
D03*
X166961Y381008D02*
D03*
Y392032D02*
D03*
D21*
X578740Y392413D02*
D03*
X575000D02*
D03*
X571260D02*
D03*
Y381587D02*
D03*
X578740D02*
D03*
X407240Y391413D02*
D03*
X403500D02*
D03*
X399760D02*
D03*
Y380587D02*
D03*
X407240D02*
D03*
X230740Y391413D02*
D03*
X227000D02*
D03*
X223260D02*
D03*
Y380587D02*
D03*
X230740D02*
D03*
D22*
X559000Y396646D02*
D03*
Y377354D02*
D03*
X386819Y396646D02*
D03*
Y377354D02*
D03*
X211961Y396665D02*
D03*
Y377374D02*
D03*
D23*
X502551Y87000D02*
D03*
X496449D02*
D03*
D24*
X460799Y84500D02*
D03*
D25*
Y45524D02*
D03*
X479500Y84500D02*
D03*
Y45524D02*
D03*
D26*
X504500Y71000D02*
D03*
X469000Y303000D02*
D03*
X296816Y303221D02*
D03*
X121900Y303200D02*
D03*
X475000Y353500D02*
D03*
X303117Y353883D02*
D03*
X14063Y164937D02*
D03*
X15000Y194500D02*
D03*
X127500Y351586D02*
D03*
D27*
X582000Y421736D02*
D03*
Y451264D02*
D03*
X245000Y422236D02*
D03*
Y451764D02*
D03*
X421500Y451264D02*
D03*
Y421736D02*
D03*
D28*
X528094Y167961D02*
D03*
X519906D02*
D03*
X347406Y167587D02*
D03*
X355594D02*
D03*
X171906Y167461D02*
D03*
X180095D02*
D03*
D29*
X524000Y153000D02*
D03*
X351500Y152626D02*
D03*
X176000Y152500D02*
D03*
D30*
X53000Y246158D02*
D03*
X48000D02*
D03*
X43000D02*
D03*
X38000D02*
D03*
X33000D02*
D03*
X28000D02*
D03*
X23000D02*
D03*
X18000D02*
D03*
X53000Y205842D02*
D03*
X48000D02*
D03*
X43000D02*
D03*
X38000D02*
D03*
X33000D02*
D03*
X28000D02*
D03*
X23000D02*
D03*
X18000D02*
D03*
D31*
X55500Y169937D02*
D03*
Y162063D02*
D03*
X64500Y169937D02*
D03*
Y162063D02*
D03*
X7000Y171063D02*
D03*
Y178937D02*
D03*
X498500Y199937D02*
D03*
Y192063D02*
D03*
X326316Y200157D02*
D03*
Y192283D02*
D03*
X151400Y200137D02*
D03*
Y192263D02*
D03*
X462000Y153937D02*
D03*
Y146063D02*
D03*
X479000Y367937D02*
D03*
Y360063D02*
D03*
X492000D02*
D03*
Y367937D02*
D03*
X289819Y153937D02*
D03*
Y146063D02*
D03*
X306819Y367937D02*
D03*
Y360063D02*
D03*
X319819D02*
D03*
Y367937D02*
D03*
X7000Y164937D02*
D03*
Y157063D02*
D03*
X22500Y180563D02*
D03*
Y188437D02*
D03*
X114961Y153957D02*
D03*
Y146083D02*
D03*
X131961Y367957D02*
D03*
Y360083D02*
D03*
X144961D02*
D03*
Y367957D02*
D03*
D32*
X24740Y144500D02*
D03*
X17260D02*
D03*
X482260Y343000D02*
D03*
X489740D02*
D03*
X309760Y341500D02*
D03*
X317240D02*
D03*
X592740Y381500D02*
D03*
X585260D02*
D03*
X423240Y380500D02*
D03*
X415760D02*
D03*
X135260Y342500D02*
D03*
X142740D02*
D03*
X247240Y380500D02*
D03*
X239760D02*
D03*
X468240Y111500D02*
D03*
X460760D02*
D03*
X482740Y104000D02*
D03*
X475260D02*
D03*
X296059Y111500D02*
D03*
X288579D02*
D03*
X310559Y104000D02*
D03*
X303079D02*
D03*
X48760Y196500D02*
D03*
X56240D02*
D03*
X47760Y254500D02*
D03*
X55240D02*
D03*
X121201Y111520D02*
D03*
X113721D02*
D03*
X135701Y104020D02*
D03*
X128220D02*
D03*
D33*
X296500Y422098D02*
D03*
Y409500D02*
D03*
X459500Y411201D02*
D03*
Y423799D02*
D03*
X121000Y410201D02*
D03*
Y422799D02*
D03*
D34*
X16472Y157059D02*
D03*
Y154500D02*
D03*
Y151941D02*
D03*
X25528D02*
D03*
Y157059D02*
D03*
D35*
X554500Y285500D02*
D03*
Y354465D02*
D03*
X382319Y285500D02*
D03*
Y354465D02*
D03*
X207461Y285520D02*
D03*
Y354484D02*
D03*
D36*
X449500Y135626D02*
D03*
Y151374D02*
D03*
X277319Y135626D02*
D03*
Y151374D02*
D03*
X102461Y135646D02*
D03*
Y151394D02*
D03*
D37*
X497626Y117000D02*
D03*
X513374D02*
D03*
X325445D02*
D03*
X341193D02*
D03*
X150587Y117020D02*
D03*
X166335D02*
D03*
D38*
X603500Y389260D02*
D03*
Y396740D02*
D03*
X432000Y388760D02*
D03*
Y396240D02*
D03*
X454500Y318240D02*
D03*
Y310760D02*
D03*
X255500Y389760D02*
D03*
Y397240D02*
D03*
X282500Y319240D02*
D03*
Y311760D02*
D03*
X108500Y318240D02*
D03*
Y310760D02*
D03*
X540500Y158260D02*
D03*
Y165740D02*
D03*
X371500Y157260D02*
D03*
Y164740D02*
D03*
X194000Y159020D02*
D03*
Y166500D02*
D03*
D39*
X467512Y102500D02*
D03*
X456488D02*
D03*
X295331D02*
D03*
X284307D02*
D03*
X120472Y102520D02*
D03*
X109449D02*
D03*
M02*
