G04*
G04 #@! TF.GenerationSoftware,Altium Limited,Altium Designer,21.9.2 (33)*
G04*
G04 Layer_Physical_Order=4*
G04 Layer_Color=16711680*
%FSLAX25Y25*%
%MOIN*%
G70*
G04*
G04 #@! TF.SameCoordinates,124C872B-156E-4B56-9EA0-D5D40F7013FE*
G04*
G04*
G04 #@! TF.FilePolarity,Positive*
G04*
G01*
G75*
%ADD13C,0.01000*%
%ADD15C,0.00500*%
%ADD17R,0.05315X0.03543*%
%ADD18R,0.03543X0.05315*%
%ADD21R,0.07087X0.05709*%
%ADD22R,0.02362X0.03937*%
%ADD27C,0.03000*%
%ADD32R,0.04134X0.05512*%
%ADD33R,0.08898X0.11024*%
%ADD38R,0.05512X0.04134*%
%ADD39R,0.05709X0.07087*%
%ADD81C,0.00800*%
%ADD83C,0.02000*%
%ADD85C,0.03000*%
%ADD86C,0.07087*%
%ADD87R,0.06299X0.06299*%
%ADD88C,0.06299*%
%ADD89C,0.10158*%
%ADD90C,0.15000*%
%ADD91C,0.06024*%
%ADD92R,0.06024X0.06024*%
%ADD93C,0.13000*%
%ADD94R,0.06299X0.06299*%
%ADD95C,0.05600*%
%ADD96C,0.07000*%
%ADD97C,0.14800*%
%ADD98C,0.16929*%
%ADD99C,0.08000*%
%ADD100C,0.05512*%
%ADD117R,0.02756X0.03937*%
%ADD118R,0.03937X0.02362*%
%ADD119R,0.21260X0.11417*%
%ADD120R,0.08661X0.08701*%
%ADD121R,0.06102X0.02559*%
%ADD122R,0.03543X0.02559*%
%ADD123R,0.19685X0.19685*%
%ADD124R,0.05315X0.01181*%
%ADD125R,0.09843X0.02756*%
%ADD126R,0.19685X0.19685*%
%ADD127R,0.03937X0.02756*%
%ADD128C,0.02300*%
G36*
X15512Y449500D02*
X15502Y449595D01*
X15472Y449680D01*
X15421Y449755D01*
X15350Y449820D01*
X15259Y449875D01*
X15148Y449920D01*
X15016Y449955D01*
X14864Y449980D01*
X14693Y449995D01*
X14500Y450000D01*
Y451000D01*
X14693Y451005D01*
X14864Y451020D01*
X15016Y451045D01*
X15148Y451080D01*
X15259Y451125D01*
X15350Y451180D01*
X15421Y451245D01*
X15472Y451320D01*
X15502Y451405D01*
X15512Y451500D01*
Y449500D01*
D02*
G37*
G36*
X75512Y448012D02*
X75492Y448202D01*
X75432Y448372D01*
X75331Y448522D01*
X75190Y448652D01*
X75009Y448762D01*
X74788Y448852D01*
X74526Y448922D01*
X74225Y448972D01*
X73883Y449002D01*
X73500Y449012D01*
Y451012D01*
X73883Y451022D01*
X74225Y451052D01*
X74526Y451102D01*
X74788Y451172D01*
X75009Y451262D01*
X75190Y451372D01*
X75331Y451502D01*
X75432Y451652D01*
X75492Y451822D01*
X75512Y452012D01*
Y448012D01*
D02*
G37*
G36*
X71039Y451822D02*
X71100Y451652D01*
X71200Y451502D01*
X71341Y451372D01*
X71522Y451262D01*
X71744Y451172D01*
X72005Y451102D01*
X72307Y451052D01*
X72649Y451022D01*
X73031Y451012D01*
Y449012D01*
X72649Y449002D01*
X72307Y448972D01*
X72005Y448922D01*
X71744Y448852D01*
X71522Y448762D01*
X71341Y448652D01*
X71200Y448522D01*
X71100Y448372D01*
X71039Y448202D01*
X71019Y448012D01*
Y452012D01*
X71039Y451822D01*
D02*
G37*
G36*
X71029Y441405D02*
X71060Y441320D01*
X71110Y441245D01*
X71181Y441180D01*
X71272Y441125D01*
X71384Y441080D01*
X71515Y441045D01*
X71667Y441020D01*
X71839Y441005D01*
X72031Y441000D01*
Y440000D01*
X71839Y439995D01*
X71667Y439980D01*
X71515Y439955D01*
X71384Y439920D01*
X71272Y439875D01*
X71181Y439820D01*
X71110Y439755D01*
X71060Y439680D01*
X71029Y439595D01*
X71019Y439500D01*
Y441500D01*
X71029Y441405D01*
D02*
G37*
G36*
X76349Y438392D02*
X76039Y438697D01*
X75451Y439212D01*
X75172Y439421D01*
X74904Y439598D01*
X74647Y439743D01*
X74400Y439855D01*
X74164Y439936D01*
X73938Y439984D01*
X73723Y440000D01*
Y441000D01*
X73938Y441016D01*
X74164Y441064D01*
X74400Y441145D01*
X74647Y441257D01*
X74904Y441402D01*
X75172Y441579D01*
X75451Y441788D01*
X76039Y442303D01*
X76349Y442608D01*
Y438392D01*
D02*
G37*
G36*
X18470Y437488D02*
X18035Y437485D01*
X17255Y437433D01*
X16910Y437384D01*
X16595Y437320D01*
X16311Y437240D01*
X16057Y437145D01*
X15833Y437035D01*
X15639Y436909D01*
X15476Y436768D01*
X14769Y437476D01*
X14909Y437639D01*
X15035Y437833D01*
X15145Y438057D01*
X15240Y438311D01*
X15320Y438595D01*
X15384Y438910D01*
X15433Y439255D01*
X15485Y440035D01*
X15488Y440470D01*
X18470Y437488D01*
D02*
G37*
G36*
X248945Y436390D02*
X248852Y436277D01*
X248769Y436161D01*
X248698Y436042D01*
X248638Y435919D01*
X248588Y435793D01*
X248550Y435664D01*
X248522Y435532D01*
X248505Y435396D01*
X248500Y435257D01*
X247500D01*
X247495Y435396D01*
X247478Y435532D01*
X247450Y435664D01*
X247412Y435793D01*
X247362Y435919D01*
X247302Y436042D01*
X247231Y436161D01*
X247148Y436277D01*
X247055Y436390D01*
X246950Y436500D01*
X249050D01*
X248945Y436390D01*
D02*
G37*
G36*
X248505Y433567D02*
X248520Y433395D01*
X248545Y433244D01*
X248580Y433112D01*
X248625Y433001D01*
X248680Y432910D01*
X248745Y432839D01*
X248820Y432788D01*
X248905Y432758D01*
X249000Y432748D01*
X247000D01*
X247095Y432758D01*
X247180Y432788D01*
X247255Y432839D01*
X247320Y432910D01*
X247375Y433001D01*
X247420Y433112D01*
X247455Y433244D01*
X247480Y433395D01*
X247495Y433567D01*
X247500Y433760D01*
X248500D01*
X248505Y433567D01*
D02*
G37*
G36*
X71645Y430000D02*
X71454Y429995D01*
X71283Y429980D01*
X71131Y429955D01*
X71000Y429920D01*
X70889Y429875D01*
X70798Y429820D01*
X70727Y429755D01*
X70676Y429680D01*
X70644Y429595D01*
X70634Y429500D01*
X70645Y430697D01*
X71645Y431000D01*
Y430000D01*
D02*
G37*
G36*
X26866Y429500D02*
X26856Y429595D01*
X26826Y429680D01*
X26775Y429755D01*
X26705Y429820D01*
X26614Y429875D01*
X26502Y429920D01*
X26371Y429955D01*
X26219Y429980D01*
X26047Y429995D01*
X25855Y430000D01*
Y431000D01*
X26047Y431005D01*
X26219Y431020D01*
X26371Y431045D01*
X26502Y431080D01*
X26614Y431125D01*
X26705Y431180D01*
X26775Y431245D01*
X26826Y431320D01*
X26856Y431405D01*
X26866Y431500D01*
Y429500D01*
D02*
G37*
G36*
X76349Y428392D02*
X76039Y428697D01*
X75451Y429212D01*
X75172Y429421D01*
X74904Y429598D01*
X74647Y429743D01*
X74400Y429855D01*
X74164Y429936D01*
X73938Y429984D01*
X73723Y430000D01*
Y431000D01*
X73938Y431016D01*
X74164Y431064D01*
X74400Y431145D01*
X74647Y431257D01*
X74904Y431402D01*
X75172Y431579D01*
X75451Y431788D01*
X76039Y432303D01*
X76349Y432608D01*
Y428392D01*
D02*
G37*
G36*
X20961Y432303D02*
X21549Y431788D01*
X21828Y431579D01*
X22096Y431402D01*
X22353Y431257D01*
X22600Y431145D01*
X22836Y431064D01*
X23062Y431016D01*
X23277Y431000D01*
Y430000D01*
X23062Y429984D01*
X22836Y429936D01*
X22600Y429855D01*
X22353Y429743D01*
X22096Y429598D01*
X21828Y429421D01*
X21549Y429212D01*
X20961Y428697D01*
X20651Y428392D01*
Y432608D01*
X20961Y432303D01*
D02*
G37*
G36*
X257829Y423405D02*
X257859Y423320D01*
X257910Y423245D01*
X257980Y423180D01*
X258071Y423125D01*
X258183Y423080D01*
X258314Y423045D01*
X258466Y423020D01*
X258638Y423005D01*
X258830Y423000D01*
Y422000D01*
X258638Y421995D01*
X258466Y421980D01*
X258314Y421955D01*
X258183Y421920D01*
X258071Y421875D01*
X257980Y421820D01*
X257910Y421755D01*
X257859Y421680D01*
X257829Y421595D01*
X257819Y421500D01*
Y423500D01*
X257829Y423405D01*
D02*
G37*
G36*
X262429Y421450D02*
X262319Y421555D01*
X262207Y421648D01*
X262090Y421731D01*
X261971Y421802D01*
X261848Y421863D01*
X261722Y421912D01*
X261593Y421950D01*
X261461Y421978D01*
X261325Y421994D01*
X261186Y422000D01*
Y423000D01*
X261325Y423005D01*
X261461Y423022D01*
X261593Y423049D01*
X261722Y423088D01*
X261848Y423138D01*
X261971Y423198D01*
X262090Y423270D01*
X262207Y423352D01*
X262319Y423446D01*
X262429Y423550D01*
Y421450D01*
D02*
G37*
G36*
X30405Y420805D02*
X30320Y420775D01*
X30245Y420724D01*
X30180Y420653D01*
X30125Y420562D01*
X30080Y420451D01*
X30045Y420320D01*
X30020Y420168D01*
X30005Y419996D01*
X30000Y419803D01*
X29000D01*
X28995Y419996D01*
X28980Y420168D01*
X28955Y420320D01*
X28920Y420451D01*
X28875Y420562D01*
X28820Y420653D01*
X28755Y420724D01*
X28680Y420775D01*
X28595Y420805D01*
X28500Y420815D01*
X30500D01*
X30405Y420805D01*
D02*
G37*
G36*
X68905Y419305D02*
X68820Y419275D01*
X68745Y419224D01*
X68680Y419153D01*
X68625Y419062D01*
X68580Y418951D01*
X68545Y418820D01*
X68520Y418668D01*
X68505Y418496D01*
X68500Y418303D01*
X67500D01*
X67495Y418496D01*
X67480Y418668D01*
X67455Y418820D01*
X67420Y418951D01*
X67375Y419062D01*
X67320Y419153D01*
X67255Y419224D01*
X67180Y419275D01*
X67095Y419305D01*
X67000Y419315D01*
X69000D01*
X68905Y419305D01*
D02*
G37*
G36*
X30005Y417675D02*
X30022Y417539D01*
X30049Y417407D01*
X30088Y417277D01*
X30138Y417151D01*
X30198Y417029D01*
X30270Y416910D01*
X30352Y416793D01*
X30446Y416681D01*
X30550Y416571D01*
X28450D01*
X28554Y416681D01*
X28648Y416793D01*
X28730Y416910D01*
X28802Y417029D01*
X28863Y417151D01*
X28912Y417277D01*
X28951Y417407D01*
X28978Y417539D01*
X28995Y417675D01*
X29000Y417814D01*
X30000D01*
X30005Y417675D01*
D02*
G37*
G36*
X68506Y415675D02*
X68522Y415539D01*
X68550Y415407D01*
X68588Y415277D01*
X68638Y415152D01*
X68698Y415029D01*
X68770Y414910D01*
X68852Y414793D01*
X68945Y414681D01*
X69050Y414571D01*
X66950D01*
X67054Y414681D01*
X67148Y414793D01*
X67230Y414910D01*
X67302Y415029D01*
X67362Y415152D01*
X67412Y415277D01*
X67450Y415407D01*
X67478Y415539D01*
X67494Y415675D01*
X67500Y415814D01*
X68500D01*
X68506Y415675D01*
D02*
G37*
G36*
X604005Y409675D02*
X604022Y409539D01*
X604049Y409407D01*
X604088Y409277D01*
X604138Y409152D01*
X604198Y409029D01*
X604270Y408910D01*
X604352Y408793D01*
X604446Y408681D01*
X604550Y408571D01*
X602450D01*
X602555Y408681D01*
X602648Y408793D01*
X602731Y408910D01*
X602802Y409029D01*
X602863Y409152D01*
X602912Y409277D01*
X602950Y409407D01*
X602978Y409539D01*
X602994Y409675D01*
X603000Y409814D01*
X604000D01*
X604005Y409675D01*
D02*
G37*
G36*
X432006Y408675D02*
X432022Y408539D01*
X432050Y408407D01*
X432088Y408278D01*
X432137Y408151D01*
X432198Y408029D01*
X432269Y407909D01*
X432352Y407793D01*
X432445Y407681D01*
X432550Y407571D01*
X430450D01*
X430554Y407681D01*
X430648Y407793D01*
X430730Y407909D01*
X430802Y408029D01*
X430863Y408151D01*
X430912Y408278D01*
X430950Y408407D01*
X430978Y408539D01*
X430995Y408675D01*
X431000Y408814D01*
X432000D01*
X432006Y408675D01*
D02*
G37*
G36*
X254429Y403450D02*
X254319Y403554D01*
X254207Y403648D01*
X254090Y403730D01*
X253971Y403802D01*
X253849Y403862D01*
X253723Y403912D01*
X253593Y403951D01*
X253461Y403978D01*
X253325Y403995D01*
X253186Y404000D01*
Y405000D01*
X253325Y405006D01*
X253461Y405022D01*
X253593Y405050D01*
X253723Y405088D01*
X253849Y405137D01*
X253971Y405198D01*
X254090Y405269D01*
X254207Y405352D01*
X254319Y405445D01*
X254429Y405550D01*
Y403450D01*
D02*
G37*
G36*
X82231Y403524D02*
X82091Y403361D01*
X81965Y403167D01*
X81855Y402943D01*
X81760Y402689D01*
X81680Y402405D01*
X81616Y402090D01*
X81567Y401745D01*
X81515Y400965D01*
X81512Y400530D01*
X78530Y403512D01*
X78965Y403515D01*
X79745Y403567D01*
X80090Y403616D01*
X80405Y403680D01*
X80689Y403760D01*
X80943Y403855D01*
X81167Y403965D01*
X81361Y404091D01*
X81524Y404232D01*
X82231Y403524D01*
D02*
G37*
G36*
X174398Y396891D02*
X174375Y397110D01*
X174306Y397305D01*
X174191Y397478D01*
X174030Y397627D01*
X173823Y397754D01*
X173570Y397857D01*
X173271Y397938D01*
X172926Y397995D01*
X172535Y398030D01*
X172098Y398041D01*
Y400341D01*
X172535Y400353D01*
X172926Y400387D01*
X173271Y400445D01*
X173570Y400525D01*
X173823Y400629D01*
X174030Y400755D01*
X174191Y400905D01*
X174306Y401077D01*
X174375Y401273D01*
X174398Y401491D01*
Y396891D01*
D02*
G37*
G36*
X227485Y396500D02*
X227334Y396497D01*
X227188Y396483D01*
X227047Y396459D01*
X226912Y396425D01*
X226783Y396381D01*
X226659Y396327D01*
X226540Y396263D01*
X226427Y396189D01*
X226319Y396105D01*
X226217Y396010D01*
X225510Y396717D01*
X225605Y396819D01*
X225689Y396927D01*
X225763Y397040D01*
X225827Y397159D01*
X225881Y397283D01*
X225925Y397412D01*
X225959Y397547D01*
X225983Y397688D01*
X225997Y397834D01*
X226000Y397985D01*
X227485Y396500D01*
D02*
G37*
G36*
X28503Y397834D02*
X28517Y397688D01*
X28541Y397547D01*
X28575Y397412D01*
X28619Y397283D01*
X28673Y397159D01*
X28737Y397040D01*
X28811Y396927D01*
X28896Y396819D01*
X28990Y396717D01*
X28283Y396010D01*
X28181Y396105D01*
X28073Y396189D01*
X27960Y396263D01*
X27841Y396327D01*
X27717Y396381D01*
X27588Y396425D01*
X27453Y396459D01*
X27312Y396483D01*
X27166Y396497D01*
X27015Y396500D01*
X28500Y397985D01*
X28503Y397834D01*
D02*
G37*
G36*
X26985Y396500D02*
X26834Y396497D01*
X26688Y396483D01*
X26547Y396459D01*
X26412Y396425D01*
X26283Y396381D01*
X26159Y396327D01*
X26040Y396263D01*
X25927Y396189D01*
X25819Y396105D01*
X25717Y396010D01*
X25010Y396717D01*
X25104Y396819D01*
X25189Y396927D01*
X25263Y397040D01*
X25327Y397159D01*
X25381Y397283D01*
X25425Y397412D01*
X25459Y397547D01*
X25483Y397688D01*
X25497Y397834D01*
X25500Y397985D01*
X26985Y396500D01*
D02*
G37*
G36*
X177802Y396831D02*
X177698Y396762D01*
X177606Y396648D01*
X177527Y396486D01*
X177460Y396280D01*
X177405Y396026D01*
X177363Y395727D01*
X177332Y395382D01*
X177308Y394554D01*
X175008D01*
X175002Y394991D01*
X174910Y396026D01*
X174855Y396280D01*
X174788Y396486D01*
X174709Y396648D01*
X174618Y396762D01*
X174514Y396831D01*
X174398Y396854D01*
X177918D01*
X177802Y396831D01*
D02*
G37*
G36*
X22582Y392875D02*
X22467Y392741D01*
X22352Y392569D01*
X22237Y392359D01*
X22122Y392110D01*
X21893Y391500D01*
X21778Y391138D01*
X21434Y389822D01*
X19236Y393420D01*
X19621Y393334D01*
X19982Y393274D01*
X20320Y393241D01*
X20636Y393235D01*
X20929Y393255D01*
X21198Y393302D01*
X21445Y393375D01*
X21669Y393476D01*
X21871Y393602D01*
X22049Y393756D01*
X22582Y392875D01*
D02*
G37*
G36*
X185647Y396834D02*
X185518Y396775D01*
X185404Y396674D01*
X185305Y396534D01*
X185222Y396355D01*
X185153Y396134D01*
X185100Y395875D01*
X185062Y395574D01*
X185039Y395234D01*
X185032Y394861D01*
X185042Y394484D01*
X185072Y394142D01*
X185122Y393840D01*
X185192Y393578D01*
X185282Y393357D01*
X185392Y393176D01*
X185522Y393035D01*
X185672Y392934D01*
X185842Y392874D01*
X186032Y392854D01*
X182032D01*
X182222Y392874D01*
X182392Y392934D01*
X182542Y393035D01*
X182672Y393176D01*
X182782Y393357D01*
X182872Y393578D01*
X182942Y393840D01*
X182992Y394142D01*
X183022Y394484D01*
X183032Y394861D01*
X183024Y395234D01*
X182964Y395875D01*
X182910Y396134D01*
X182842Y396355D01*
X182758Y396534D01*
X182660Y396674D01*
X182546Y396775D01*
X182416Y396834D01*
X182272Y396854D01*
X185792D01*
X185647Y396834D01*
D02*
G37*
G36*
X201575Y391500D02*
X201565Y391595D01*
X201535Y391680D01*
X201484Y391755D01*
X201414Y391820D01*
X201323Y391875D01*
X201211Y391920D01*
X201080Y391955D01*
X200928Y391980D01*
X200756Y391995D01*
X200564Y392000D01*
Y393000D01*
X200756Y393005D01*
X200928Y393020D01*
X201080Y393045D01*
X201211Y393080D01*
X201323Y393125D01*
X201414Y393180D01*
X201484Y393245D01*
X201535Y393320D01*
X201565Y393405D01*
X201575Y393500D01*
Y391500D01*
D02*
G37*
G36*
X197181Y393445D02*
X197293Y393352D01*
X197409Y393269D01*
X197529Y393198D01*
X197652Y393138D01*
X197777Y393088D01*
X197907Y393050D01*
X198039Y393022D01*
X198175Y393005D01*
X198314Y393000D01*
Y392000D01*
X198175Y391995D01*
X198039Y391978D01*
X197907Y391950D01*
X197777Y391912D01*
X197652Y391863D01*
X197529Y391802D01*
X197409Y391730D01*
X197293Y391648D01*
X197181Y391554D01*
X197071Y391450D01*
Y393550D01*
X197181Y393445D01*
D02*
G37*
G36*
X161040Y390500D02*
X161030Y390595D01*
X161000Y390680D01*
X160950Y390755D01*
X160880Y390820D01*
X160790Y390875D01*
X160680Y390920D01*
X160550Y390955D01*
X160400Y390980D01*
X160230Y390995D01*
X160040Y391000D01*
Y392000D01*
X160230Y392005D01*
X160400Y392020D01*
X160550Y392045D01*
X160680Y392080D01*
X160790Y392125D01*
X160880Y392180D01*
X160950Y392245D01*
X161000Y392320D01*
X161030Y392405D01*
X161040Y392500D01*
Y390500D01*
D02*
G37*
G36*
X196946Y391319D02*
X196852Y391207D01*
X196769Y391090D01*
X196698Y390971D01*
X196637Y390848D01*
X196588Y390722D01*
X196573Y390673D01*
X196580Y390647D01*
X196625Y390536D01*
X196680Y390445D01*
X196745Y390374D01*
X196820Y390324D01*
X196905Y390293D01*
X197000Y390283D01*
X196504D01*
X196500Y390186D01*
X195500D01*
X195496Y390283D01*
X195000D01*
X195095Y390293D01*
X195180Y390324D01*
X195255Y390374D01*
X195320Y390445D01*
X195375Y390536D01*
X195420Y390647D01*
X195427Y390673D01*
X195412Y390722D01*
X195362Y390848D01*
X195302Y390971D01*
X195230Y391090D01*
X195148Y391207D01*
X195054Y391319D01*
X194950Y391429D01*
X197050D01*
X196946Y391319D01*
D02*
G37*
G36*
X218144Y391842D02*
X218174Y391757D01*
X218225Y391682D01*
X218295Y391617D01*
X218387Y391562D01*
X218498Y391517D01*
X218629Y391482D01*
X218781Y391457D01*
X218953Y391442D01*
X219145Y391437D01*
Y390437D01*
X218953Y390432D01*
X218781Y390417D01*
X218629Y390392D01*
X218498Y390357D01*
X218387Y390312D01*
X218295Y390257D01*
X218225Y390192D01*
X218174Y390117D01*
X218144Y390032D01*
X218133Y389937D01*
Y391937D01*
X218144Y391842D01*
D02*
G37*
G36*
X212866Y389937D02*
X212856Y390032D01*
X212826Y390117D01*
X212775Y390192D01*
X212705Y390257D01*
X212614Y390312D01*
X212502Y390357D01*
X212371Y390392D01*
X212219Y390417D01*
X212047Y390432D01*
X211855Y390437D01*
Y391437D01*
X212047Y391442D01*
X212219Y391457D01*
X212371Y391482D01*
X212502Y391517D01*
X212614Y391562D01*
X212705Y391617D01*
X212775Y391682D01*
X212826Y391757D01*
X212856Y391842D01*
X212866Y391937D01*
Y389937D01*
D02*
G37*
G36*
X208624Y391842D02*
X208655Y391757D01*
X208705Y391682D01*
X208776Y391617D01*
X208867Y391562D01*
X208979Y391517D01*
X209110Y391482D01*
X209262Y391457D01*
X209434Y391442D01*
X209626Y391437D01*
Y390437D01*
X209434Y390432D01*
X209262Y390417D01*
X209110Y390392D01*
X208979Y390357D01*
X208867Y390312D01*
X208776Y390257D01*
X208705Y390192D01*
X208655Y390117D01*
X208624Y390032D01*
X208614Y389937D01*
Y391937D01*
X208624Y391842D01*
D02*
G37*
G36*
X193363Y387270D02*
X193353Y387360D01*
X193324Y387439D01*
X193275Y387510D01*
X193206Y387571D01*
X193117Y387623D01*
X193009Y387665D01*
X192882Y387698D01*
X192735Y387721D01*
X192568Y387735D01*
X192381Y387740D01*
Y388740D01*
X192568Y388745D01*
X192735Y388759D01*
X192882Y388782D01*
X193009Y388815D01*
X193117Y388858D01*
X193206Y388909D01*
X193275Y388970D01*
X193324Y389041D01*
X193353Y389121D01*
X193363Y389210D01*
Y387270D01*
D02*
G37*
G36*
X161040Y385500D02*
X161030Y385595D01*
X161000Y385680D01*
X160950Y385755D01*
X160880Y385820D01*
X160790Y385875D01*
X160680Y385920D01*
X160550Y385955D01*
X160400Y385980D01*
X160230Y385995D01*
X160040Y386000D01*
Y387000D01*
X160230Y387005D01*
X160400Y387020D01*
X160550Y387045D01*
X160680Y387080D01*
X160790Y387125D01*
X160880Y387180D01*
X160950Y387245D01*
X161000Y387320D01*
X161030Y387405D01*
X161040Y387500D01*
Y385500D01*
D02*
G37*
G36*
X153837Y387405D02*
X153867Y387320D01*
X153918Y387245D01*
X153989Y387180D01*
X154080Y387125D01*
X154191Y387080D01*
X154323Y387045D01*
X154474Y387020D01*
X154647Y387005D01*
X154839Y387000D01*
Y386000D01*
X154647Y385995D01*
X154474Y385980D01*
X154323Y385955D01*
X154191Y385920D01*
X154080Y385875D01*
X153989Y385820D01*
X153918Y385755D01*
X153867Y385680D01*
X153837Y385595D01*
X153827Y385500D01*
Y387500D01*
X153837Y387405D01*
D02*
G37*
G36*
X201564Y382379D02*
X201839Y382374D01*
Y379374D01*
X201564Y379371D01*
Y378146D01*
X201534Y378379D01*
X201444Y378588D01*
X201293Y378772D01*
X201083Y378932D01*
X200814Y379067D01*
X200483Y379177D01*
X200094Y379263D01*
X200015Y379274D01*
X199919Y379267D01*
X199589Y379207D01*
X199319Y379133D01*
X199109Y379046D01*
X198959Y378946D01*
X198869Y378832D01*
X198839Y378705D01*
Y379368D01*
X198564Y379374D01*
Y382374D01*
X198839Y382381D01*
Y382815D01*
X198869Y382731D01*
X198959Y382656D01*
X199109Y382590D01*
X199319Y382533D01*
X199589Y382484D01*
X199804Y382458D01*
X200094Y382505D01*
X200483Y382607D01*
X200814Y382738D01*
X201083Y382898D01*
X201293Y383088D01*
X201444Y383306D01*
X201534Y383554D01*
X201564Y383830D01*
Y382379D01*
D02*
G37*
G36*
X218168Y384707D02*
X218237Y384603D01*
X218353Y384512D01*
X218513Y384433D01*
X218721Y384365D01*
X218973Y384311D01*
X219272Y384268D01*
X219618Y384237D01*
X220445Y384213D01*
Y381913D01*
X220008Y381907D01*
X218973Y381816D01*
X218721Y381761D01*
X218513Y381694D01*
X218353Y381614D01*
X218237Y381523D01*
X218168Y381419D01*
X218145Y381303D01*
Y384823D01*
X218168Y384707D01*
D02*
G37*
G36*
X212855Y381303D02*
X212831Y381419D01*
X212762Y381523D01*
X212648Y381614D01*
X212487Y381694D01*
X212280Y381761D01*
X212027Y381816D01*
X211727Y381858D01*
X211383Y381889D01*
X210555Y381913D01*
Y384213D01*
X210992Y384219D01*
X212027Y384311D01*
X212280Y384365D01*
X212487Y384433D01*
X212648Y384512D01*
X212762Y384603D01*
X212831Y384707D01*
X212855Y384823D01*
Y381303D01*
D02*
G37*
G36*
X238181Y380763D02*
X238158Y380981D01*
X238089Y381177D01*
X237973Y381349D01*
X237812Y381499D01*
X237603Y381626D01*
X237349Y381729D01*
X237049Y381809D01*
X236702Y381867D01*
X236309Y381902D01*
X235870Y381913D01*
Y384213D01*
X236309Y384225D01*
X236702Y384259D01*
X237049Y384316D01*
X237349Y384397D01*
X237603Y384501D01*
X237812Y384627D01*
X237973Y384776D01*
X238089Y384949D01*
X238158Y385144D01*
X238181Y385363D01*
Y380763D01*
D02*
G37*
G36*
X154546Y380815D02*
X154351Y380613D01*
X154042Y380253D01*
X153929Y380094D01*
X153844Y379950D01*
X153786Y379820D01*
X153755Y379704D01*
X153751Y379603D01*
X153775Y379517D01*
X153827Y379444D01*
X152468Y380803D01*
X152541Y380751D01*
X152627Y380727D01*
X152728Y380731D01*
X152844Y380762D01*
X152974Y380820D01*
X153118Y380905D01*
X153277Y381018D01*
X153450Y381159D01*
X153839Y381522D01*
X154546Y380815D01*
D02*
G37*
G36*
X161040Y380500D02*
X161030Y380595D01*
X161000Y380680D01*
X160950Y380755D01*
X160880Y380820D01*
X160790Y380875D01*
X160680Y380920D01*
X160550Y380955D01*
X160400Y380980D01*
X160230Y380995D01*
X160040Y381000D01*
Y382000D01*
X160230Y382005D01*
X160400Y382020D01*
X160550Y382045D01*
X160680Y382080D01*
X160790Y382125D01*
X160880Y382180D01*
X160950Y382245D01*
X161000Y382320D01*
X161030Y382405D01*
X161040Y382500D01*
Y380500D01*
D02*
G37*
G36*
X193363Y379200D02*
X193339Y379418D01*
X193269Y379614D01*
X193153Y379786D01*
X192991Y379936D01*
X192783Y380063D01*
X192529Y380166D01*
X192228Y380246D01*
X191882Y380304D01*
X191490Y380339D01*
X191051Y380350D01*
Y382650D01*
X191488Y382652D01*
X193259Y382755D01*
X193328Y382784D01*
X193351Y382815D01*
X193363Y379200D01*
D02*
G37*
G36*
X76349Y378392D02*
X76039Y378697D01*
X75451Y379212D01*
X75172Y379421D01*
X74904Y379598D01*
X74647Y379743D01*
X74400Y379855D01*
X74164Y379936D01*
X73938Y379984D01*
X73723Y380000D01*
Y381000D01*
X73938Y381016D01*
X74164Y381064D01*
X74400Y381145D01*
X74647Y381257D01*
X74904Y381402D01*
X75172Y381579D01*
X75451Y381788D01*
X76039Y382303D01*
X76349Y382608D01*
Y378392D01*
D02*
G37*
G36*
X21515Y380035D02*
X21567Y379255D01*
X21616Y378910D01*
X21680Y378595D01*
X21760Y378311D01*
X21855Y378057D01*
X21965Y377833D01*
X22091Y377639D01*
X22231Y377476D01*
X21524Y376768D01*
X21361Y376909D01*
X21167Y377035D01*
X20943Y377145D01*
X20689Y377240D01*
X20405Y377320D01*
X20090Y377384D01*
X19745Y377433D01*
X18965Y377485D01*
X18530Y377488D01*
X21512Y380470D01*
X21515Y380035D01*
D02*
G37*
G36*
X259500Y394500D02*
X276500D01*
X279000Y392000D01*
Y380500D01*
X275000Y376500D01*
X258000D01*
X251500Y383000D01*
Y395500D01*
X255500Y398500D01*
X259500Y394500D01*
D02*
G37*
G36*
X164783Y375136D02*
X164698Y375106D01*
X164623Y375055D01*
X164558Y374984D01*
X164503Y374893D01*
X164458Y374782D01*
X164423Y374650D01*
X164398Y374498D01*
X164383Y374326D01*
X164378Y374134D01*
X163378D01*
X163373Y374326D01*
X163358Y374498D01*
X163333Y374650D01*
X163298Y374782D01*
X163253Y374893D01*
X163198Y374984D01*
X163133Y375055D01*
X163058Y375106D01*
X162973Y375136D01*
X162878Y375146D01*
X164878D01*
X164783Y375136D01*
D02*
G37*
G36*
X152929Y370450D02*
X152819Y370554D01*
X152707Y370648D01*
X152591Y370730D01*
X152471Y370802D01*
X152348Y370863D01*
X152223Y370912D01*
X152093Y370951D01*
X151961Y370978D01*
X151825Y370994D01*
X151686Y371000D01*
Y372000D01*
X151825Y372006D01*
X151961Y372022D01*
X152093Y372049D01*
X152223Y372088D01*
X152348Y372137D01*
X152471Y372198D01*
X152591Y372270D01*
X152707Y372352D01*
X152819Y372446D01*
X152929Y372550D01*
Y370450D01*
D02*
G37*
G36*
X162617Y369744D02*
X162417Y369538D01*
X162104Y369169D01*
X161990Y369006D01*
X161904Y368857D01*
X161846Y368723D01*
X161816Y368603D01*
X161815Y368497D01*
X161842Y368406D01*
X161898Y368330D01*
X160495Y369732D01*
X160572Y369676D01*
X160663Y369649D01*
X160769Y369651D01*
X160889Y369680D01*
X161023Y369738D01*
X161171Y369824D01*
X161334Y369938D01*
X161512Y370081D01*
X161910Y370451D01*
X162617Y369744D01*
D02*
G37*
G36*
X81343Y371529D02*
X81418Y371418D01*
X81506Y371320D01*
X81607Y371235D01*
X81722Y371163D01*
X81851Y371105D01*
X81993Y371059D01*
X82148Y371026D01*
X82317Y371006D01*
X82500Y371000D01*
Y370000D01*
X82317Y369993D01*
X82148Y369974D01*
X81993Y369941D01*
X81851Y369896D01*
X81722Y369837D01*
X81607Y369765D01*
X81506Y369680D01*
X81418Y369582D01*
X81343Y369471D01*
X81282Y369347D01*
Y371653D01*
X81343Y371529D01*
D02*
G37*
G36*
X75639Y364091D02*
X75833Y363965D01*
X76057Y363855D01*
X76311Y363760D01*
X76595Y363680D01*
X76910Y363616D01*
X77255Y363567D01*
X78035Y363515D01*
X78470Y363512D01*
X75488Y360530D01*
X75485Y360965D01*
X75433Y361745D01*
X75384Y362090D01*
X75320Y362405D01*
X75240Y362689D01*
X75145Y362943D01*
X75035Y363167D01*
X74909Y363361D01*
X74769Y363524D01*
X75476Y364231D01*
X75639Y364091D01*
D02*
G37*
G36*
X133929Y360450D02*
X133819Y360555D01*
X133706Y360648D01*
X133590Y360731D01*
X133471Y360802D01*
X133349Y360862D01*
X133222Y360912D01*
X133093Y360950D01*
X132961Y360978D01*
X132825Y360995D01*
X132686Y361000D01*
Y362000D01*
X132825Y362005D01*
X132961Y362022D01*
X133093Y362050D01*
X133222Y362088D01*
X133349Y362138D01*
X133471Y362198D01*
X133590Y362269D01*
X133706Y362352D01*
X133819Y362445D01*
X133929Y362550D01*
Y360450D01*
D02*
G37*
G36*
X194500Y374500D02*
X230000D01*
X231500Y373000D01*
Y361500D01*
X229500Y359500D01*
X189944D01*
Y360113D01*
X176246D01*
Y359500D01*
X168500D01*
X165000Y363000D01*
X165000Y370000D01*
X181000Y378500D01*
X190500D01*
X194500Y374500D01*
D02*
G37*
G36*
X81515Y350035D02*
X81567Y349255D01*
X81616Y348910D01*
X81680Y348595D01*
X81760Y348311D01*
X81855Y348057D01*
X81965Y347833D01*
X82091Y347639D01*
X82231Y347476D01*
X81524Y346768D01*
X81361Y346909D01*
X81167Y347035D01*
X80943Y347145D01*
X80689Y347240D01*
X80405Y347320D01*
X80090Y347384D01*
X79745Y347433D01*
X78965Y347485D01*
X78530Y347488D01*
X81512Y350470D01*
X81515Y350035D01*
D02*
G37*
G36*
X20961Y342303D02*
X21549Y341788D01*
X21828Y341579D01*
X22096Y341402D01*
X22353Y341257D01*
X22600Y341145D01*
X22836Y341064D01*
X23062Y341016D01*
X23277Y341000D01*
Y340000D01*
X23062Y339984D01*
X22836Y339936D01*
X22600Y339855D01*
X22353Y339743D01*
X22096Y339598D01*
X21828Y339421D01*
X21549Y339212D01*
X20961Y338697D01*
X20651Y338392D01*
Y342608D01*
X20961Y342303D01*
D02*
G37*
G36*
X78470Y337488D02*
X78035Y337485D01*
X77255Y337433D01*
X76910Y337384D01*
X76595Y337320D01*
X76311Y337240D01*
X76057Y337145D01*
X75833Y337035D01*
X75639Y336909D01*
X75476Y336769D01*
X74769Y337476D01*
X74909Y337639D01*
X75035Y337833D01*
X75145Y338057D01*
X75240Y338311D01*
X75320Y338595D01*
X75384Y338910D01*
X75433Y339255D01*
X75485Y340035D01*
X75488Y340470D01*
X78470Y337488D01*
D02*
G37*
G36*
X189000Y340500D02*
X184000Y335500D01*
X161000D01*
X159000Y337500D01*
Y341500D01*
X165500Y348000D01*
X173000D01*
X176500Y351500D01*
Y356000D01*
X177387Y356887D01*
X189000D01*
Y340500D01*
D02*
G37*
G36*
X32445Y328819D02*
X32352Y328707D01*
X32269Y328590D01*
X32198Y328471D01*
X32138Y328348D01*
X32088Y328222D01*
X32050Y328093D01*
X32022Y327961D01*
X32006Y327825D01*
X32000Y327686D01*
X31000D01*
X30994Y327825D01*
X30978Y327961D01*
X30950Y328093D01*
X30912Y328222D01*
X30863Y328348D01*
X30802Y328471D01*
X30731Y328590D01*
X30648Y328707D01*
X30555Y328819D01*
X30450Y328929D01*
X32550D01*
X32445Y328819D01*
D02*
G37*
G36*
X87981Y319500D02*
X87971Y319595D01*
X87940Y319680D01*
X87890Y319755D01*
X87819Y319820D01*
X87728Y319875D01*
X87616Y319920D01*
X87485Y319955D01*
X87333Y319980D01*
X87161Y319995D01*
X86969Y320000D01*
Y321000D01*
X87161Y321005D01*
X87333Y321020D01*
X87485Y321045D01*
X87616Y321080D01*
X87728Y321125D01*
X87819Y321180D01*
X87890Y321245D01*
X87940Y321320D01*
X87971Y321405D01*
X87981Y321500D01*
Y319500D01*
D02*
G37*
G36*
X80961Y322303D02*
X81549Y321788D01*
X81828Y321579D01*
X82096Y321402D01*
X82353Y321257D01*
X82600Y321145D01*
X82836Y321064D01*
X83062Y321016D01*
X83277Y321000D01*
Y320000D01*
X83062Y319984D01*
X82836Y319936D01*
X82600Y319855D01*
X82353Y319743D01*
X82096Y319598D01*
X81828Y319421D01*
X81549Y319212D01*
X80961Y318697D01*
X80651Y318392D01*
Y322608D01*
X80961Y322303D01*
D02*
G37*
G36*
X462819Y312396D02*
X462927Y312311D01*
X463040Y312237D01*
X463159Y312173D01*
X463283Y312119D01*
X463413Y312075D01*
X463547Y312041D01*
X463688Y312017D01*
X463834Y312003D01*
X463985Y312000D01*
X462500Y310515D01*
X462497Y310666D01*
X462483Y310812D01*
X462459Y310953D01*
X462425Y311087D01*
X462381Y311217D01*
X462327Y311341D01*
X462263Y311460D01*
X462189Y311573D01*
X462105Y311681D01*
X462010Y311783D01*
X462717Y312490D01*
X462819Y312396D01*
D02*
G37*
G36*
X118446Y309819D02*
X118352Y309707D01*
X118270Y309591D01*
X118198Y309471D01*
X118138Y309349D01*
X118088Y309223D01*
X118050Y309093D01*
X118022Y308961D01*
X118006Y308825D01*
X118000Y308686D01*
X117000D01*
X116995Y308825D01*
X116978Y308961D01*
X116951Y309093D01*
X116912Y309223D01*
X116862Y309349D01*
X116802Y309471D01*
X116730Y309591D01*
X116648Y309707D01*
X116554Y309819D01*
X116450Y309929D01*
X118550D01*
X118446Y309819D01*
D02*
G37*
G36*
X297985Y308000D02*
X297834Y307997D01*
X297688Y307983D01*
X297547Y307959D01*
X297412Y307925D01*
X297283Y307881D01*
X297159Y307827D01*
X297040Y307763D01*
X296927Y307689D01*
X296819Y307605D01*
X296717Y307510D01*
X296010Y308217D01*
X296105Y308319D01*
X296189Y308427D01*
X296263Y308540D01*
X296327Y308659D01*
X296381Y308783D01*
X296425Y308912D01*
X296459Y309047D01*
X296483Y309188D01*
X296497Y309334D01*
X296500Y309485D01*
X297985Y308000D01*
D02*
G37*
G36*
X95029Y309405D02*
X95060Y309320D01*
X95110Y309245D01*
X95181Y309180D01*
X95272Y309125D01*
X95384Y309080D01*
X95515Y309045D01*
X95667Y309020D01*
X95839Y309005D01*
X96031Y309000D01*
Y308000D01*
X95839Y307995D01*
X95667Y307980D01*
X95515Y307955D01*
X95384Y307920D01*
X95272Y307875D01*
X95181Y307820D01*
X95110Y307755D01*
X95060Y307680D01*
X95029Y307595D01*
X95019Y307500D01*
Y309500D01*
X95029Y309405D01*
D02*
G37*
G36*
X99929Y307450D02*
X99819Y307555D01*
X99707Y307648D01*
X99590Y307731D01*
X99471Y307802D01*
X99348Y307862D01*
X99222Y307912D01*
X99093Y307950D01*
X98961Y307978D01*
X98825Y307995D01*
X98686Y308000D01*
Y309000D01*
X98825Y309005D01*
X98961Y309022D01*
X99093Y309050D01*
X99222Y309088D01*
X99348Y309138D01*
X99471Y309198D01*
X99590Y309269D01*
X99707Y309352D01*
X99819Y309446D01*
X99929Y309550D01*
Y307450D01*
D02*
G37*
G36*
X237445Y307319D02*
X237352Y307207D01*
X237269Y307090D01*
X237198Y306971D01*
X237138Y306849D01*
X237088Y306722D01*
X237050Y306593D01*
X237022Y306461D01*
X237005Y306325D01*
X237000Y306186D01*
X236000D01*
X235995Y306325D01*
X235978Y306461D01*
X235950Y306593D01*
X235912Y306722D01*
X235862Y306849D01*
X235802Y306971D01*
X235731Y307090D01*
X235648Y307207D01*
X235555Y307319D01*
X235450Y307429D01*
X237550D01*
X237445Y307319D01*
D02*
G37*
G36*
X237005Y305138D02*
X237020Y304966D01*
X237045Y304814D01*
X237080Y304683D01*
X237125Y304572D01*
X237180Y304480D01*
X237245Y304410D01*
X237320Y304359D01*
X237405Y304329D01*
X237500Y304318D01*
X235500D01*
X235595Y304329D01*
X235680Y304359D01*
X235755Y304410D01*
X235820Y304480D01*
X235875Y304572D01*
X235920Y304683D01*
X235955Y304814D01*
X235980Y304966D01*
X235995Y305138D01*
X236000Y305330D01*
X237000D01*
X237005Y305138D01*
D02*
G37*
G36*
X178000Y318000D02*
Y304500D01*
X177000Y303500D01*
X165500D01*
X158000Y311000D01*
Y322000D01*
X158500Y322500D01*
X173500D01*
X178000Y318000D01*
D02*
G37*
G36*
X176711Y300405D02*
X176813Y300320D01*
X176923Y300245D01*
X177040Y300180D01*
X177166Y300125D01*
X177299Y300080D01*
X177441Y300045D01*
X177591Y300020D01*
X177748Y300005D01*
X177914Y300000D01*
Y299000D01*
X177748Y298995D01*
X177591Y298980D01*
X177441Y298955D01*
X177299Y298920D01*
X177166Y298875D01*
X177040Y298820D01*
X176923Y298755D01*
X176813Y298680D01*
X176711Y298595D01*
X176618Y298500D01*
Y300500D01*
X176711Y300405D01*
D02*
G37*
G36*
X245258Y294405D02*
X245288Y294320D01*
X245339Y294245D01*
X245410Y294180D01*
X245501Y294125D01*
X245612Y294080D01*
X245743Y294045D01*
X245895Y294020D01*
X246067Y294005D01*
X246260Y294000D01*
Y293000D01*
X246067Y292995D01*
X245895Y292980D01*
X245743Y292955D01*
X245612Y292920D01*
X245501Y292875D01*
X245410Y292820D01*
X245339Y292755D01*
X245288Y292680D01*
X245258Y292595D01*
X245248Y292500D01*
Y294500D01*
X245258Y294405D01*
D02*
G37*
G36*
X248929Y292450D02*
X248819Y292554D01*
X248707Y292648D01*
X248590Y292730D01*
X248471Y292802D01*
X248348Y292863D01*
X248222Y292912D01*
X248093Y292951D01*
X247961Y292978D01*
X247825Y292994D01*
X247686Y293000D01*
Y294000D01*
X247825Y294005D01*
X247961Y294022D01*
X248093Y294050D01*
X248222Y294088D01*
X248348Y294138D01*
X248471Y294198D01*
X248590Y294269D01*
X248707Y294352D01*
X248819Y294445D01*
X248929Y294550D01*
Y292450D01*
D02*
G37*
G36*
X90090Y290952D02*
X90008Y290826D01*
X89935Y290699D01*
X89872Y290570D01*
X89819Y290440D01*
X89775Y290309D01*
X89741Y290177D01*
X89717Y290043D01*
X89702Y289908D01*
X89697Y289772D01*
X88697Y289631D01*
X88692Y289772D01*
X88674Y289908D01*
X88644Y290039D01*
X88602Y290164D01*
X88548Y290284D01*
X88482Y290398D01*
X88405Y290507D01*
X88315Y290610D01*
X88214Y290708D01*
X88100Y290800D01*
X90182Y291076D01*
X90090Y290952D01*
D02*
G37*
G36*
X73506Y287888D02*
X73399Y287783D01*
X73303Y287675D01*
X73218Y287563D01*
X73144Y287446D01*
X73082Y287326D01*
X73031Y287202D01*
X72991Y287074D01*
X72963Y286942D01*
X72946Y286806D01*
X72940Y286666D01*
X71940Y286708D01*
X71935Y286847D01*
X71919Y286982D01*
X71892Y287115D01*
X71855Y287246D01*
X71807Y287373D01*
X71749Y287498D01*
X71679Y287621D01*
X71600Y287740D01*
X71509Y287857D01*
X71408Y287971D01*
X73506Y287888D01*
D02*
G37*
G36*
X89702Y285308D02*
X89718Y285136D01*
X89742Y284984D01*
X89777Y284852D01*
X89823Y284741D01*
X89877Y284650D01*
X89943Y284579D01*
X90017Y284528D01*
X90102Y284498D01*
X90197Y284488D01*
X88197D01*
X88292Y284498D01*
X88377Y284528D01*
X88453Y284579D01*
X88517Y284650D01*
X88573Y284741D01*
X88617Y284852D01*
X88652Y284984D01*
X88678Y285136D01*
X88692Y285308D01*
X88697Y285500D01*
X89697D01*
X89702Y285308D01*
D02*
G37*
G36*
X72945D02*
X72960Y285136D01*
X72985Y284984D01*
X73020Y284852D01*
X73065Y284741D01*
X73120Y284650D01*
X73185Y284579D01*
X73260Y284528D01*
X73345Y284498D01*
X73440Y284488D01*
X71440D01*
X71535Y284498D01*
X71620Y284528D01*
X71695Y284579D01*
X71760Y284650D01*
X71815Y284741D01*
X71860Y284852D01*
X71895Y284984D01*
X71920Y285136D01*
X71935Y285308D01*
X71940Y285500D01*
X72940D01*
X72945Y285308D01*
D02*
G37*
G36*
X83503Y282808D02*
X83515Y282639D01*
X83536Y282480D01*
X83566Y282330D01*
X83606Y282190D01*
X83654Y282058D01*
X83713Y281936D01*
X83780Y281823D01*
X83856Y281719D01*
X83942Y281624D01*
X83376Y281059D01*
X83281Y281144D01*
X83177Y281220D01*
X83064Y281288D01*
X82942Y281346D01*
X82810Y281394D01*
X82670Y281434D01*
X82520Y281464D01*
X82361Y281485D01*
X82192Y281497D01*
X82015Y281500D01*
X83500Y282985D01*
X83503Y282808D01*
D02*
G37*
G36*
X231000Y336000D02*
X233500Y333500D01*
Y319000D01*
X233000D01*
X214500Y300500D01*
Y288000D01*
X207500Y281000D01*
X187500D01*
X180000Y288500D01*
Y323000D01*
X178000Y325000D01*
X161000D01*
X160000Y324000D01*
X158000Y326000D01*
Y333000D01*
X159000Y334000D01*
X192500D01*
X194500Y336000D01*
X195000D01*
X219000Y336500D01*
X231000D01*
Y336000D01*
D02*
G37*
G36*
X90735Y275471D02*
X90650Y275440D01*
X90575Y275390D01*
X90510Y275319D01*
X90455Y275228D01*
X90410Y275116D01*
X90375Y274985D01*
X90350Y274833D01*
X90335Y274661D01*
X90330Y274469D01*
X89330D01*
X89325Y274661D01*
X89310Y274833D01*
X89285Y274985D01*
X89250Y275116D01*
X89205Y275228D01*
X89150Y275319D01*
X89085Y275390D01*
X89010Y275440D01*
X88925Y275471D01*
X88830Y275481D01*
X90830D01*
X90735Y275471D01*
D02*
G37*
G36*
X73165D02*
X73080Y275440D01*
X73005Y275390D01*
X72940Y275319D01*
X72885Y275228D01*
X72840Y275116D01*
X72805Y274985D01*
X72780Y274833D01*
X72765Y274661D01*
X72760Y274469D01*
X71760D01*
X71755Y274661D01*
X71740Y274833D01*
X71715Y274985D01*
X71680Y275116D01*
X71635Y275228D01*
X71580Y275319D01*
X71515Y275390D01*
X71440Y275440D01*
X71355Y275471D01*
X71260Y275481D01*
X73260D01*
X73165Y275471D01*
D02*
G37*
G36*
X72765Y272552D02*
X72780Y272380D01*
X72805Y272228D01*
X72840Y272096D01*
X72885Y271985D01*
X72940Y271894D01*
X73005Y271823D01*
X73080Y271772D01*
X73165Y271742D01*
X73260Y271732D01*
X71260D01*
X71355Y271742D01*
X71440Y271772D01*
X71515Y271823D01*
X71580Y271894D01*
X71635Y271985D01*
X71680Y272096D01*
X71715Y272228D01*
X71740Y272380D01*
X71755Y272552D01*
X71760Y272744D01*
X72760D01*
X72765Y272552D01*
D02*
G37*
G36*
X80405Y266258D02*
X80320Y266228D01*
X80245Y266177D01*
X80180Y266106D01*
X80125Y266015D01*
X80080Y265904D01*
X80045Y265772D01*
X80020Y265620D01*
X80005Y265448D01*
X80000Y265256D01*
X79000D01*
X78995Y265448D01*
X78980Y265620D01*
X78955Y265772D01*
X78920Y265904D01*
X78875Y266015D01*
X78820Y266106D01*
X78755Y266177D01*
X78680Y266228D01*
X78595Y266258D01*
X78500Y266268D01*
X80500D01*
X80405Y266258D01*
D02*
G37*
G36*
X72905D02*
X72820Y266228D01*
X72745Y266177D01*
X72680Y266106D01*
X72625Y266015D01*
X72580Y265904D01*
X72545Y265772D01*
X72520Y265620D01*
X72505Y265448D01*
X72500Y265256D01*
X71500D01*
X71495Y265448D01*
X71480Y265620D01*
X71455Y265772D01*
X71420Y265904D01*
X71375Y266015D01*
X71320Y266106D01*
X71255Y266177D01*
X71180Y266228D01*
X71095Y266258D01*
X71000Y266268D01*
X73000D01*
X72905Y266258D01*
D02*
G37*
G36*
X105429Y263450D02*
X105319Y263555D01*
X105207Y263648D01*
X105090Y263731D01*
X104971Y263802D01*
X104849Y263862D01*
X104722Y263912D01*
X104593Y263950D01*
X104461Y263978D01*
X104325Y263995D01*
X104186Y264000D01*
Y265000D01*
X104325Y265005D01*
X104461Y265022D01*
X104593Y265050D01*
X104722Y265088D01*
X104849Y265138D01*
X104971Y265198D01*
X105090Y265269D01*
X105207Y265352D01*
X105319Y265445D01*
X105429Y265550D01*
Y263450D01*
D02*
G37*
G36*
X80006Y264175D02*
X80022Y264039D01*
X80050Y263907D01*
X80088Y263777D01*
X80137Y263651D01*
X80198Y263529D01*
X80269Y263409D01*
X80352Y263293D01*
X80445Y263181D01*
X80550Y263071D01*
X78450D01*
X78554Y263181D01*
X78648Y263293D01*
X78730Y263409D01*
X78802Y263529D01*
X78863Y263651D01*
X78912Y263777D01*
X78951Y263907D01*
X78978Y264039D01*
X78995Y264175D01*
X79000Y264314D01*
X80000D01*
X80006Y264175D01*
D02*
G37*
G36*
X72505D02*
X72522Y264039D01*
X72549Y263907D01*
X72588Y263777D01*
X72637Y263651D01*
X72698Y263529D01*
X72769Y263409D01*
X72852Y263293D01*
X72945Y263181D01*
X73050Y263071D01*
X70950D01*
X71055Y263181D01*
X71148Y263293D01*
X71231Y263409D01*
X71302Y263529D01*
X71363Y263651D01*
X71412Y263777D01*
X71451Y263907D01*
X71478Y264039D01*
X71495Y264175D01*
X71500Y264314D01*
X72500D01*
X72505Y264175D01*
D02*
G37*
G36*
X451644Y188905D02*
X451674Y188820D01*
X451725Y188745D01*
X451795Y188680D01*
X451887Y188625D01*
X451998Y188580D01*
X452129Y188545D01*
X452281Y188520D01*
X452453Y188505D01*
X452645Y188500D01*
Y187500D01*
X452453Y187495D01*
X452281Y187480D01*
X452129Y187455D01*
X451998Y187420D01*
X451887Y187375D01*
X451795Y187320D01*
X451725Y187255D01*
X451674Y187180D01*
X451644Y187095D01*
X451634Y187000D01*
Y189000D01*
X451644Y188905D01*
D02*
G37*
G36*
X93705Y186937D02*
X93695Y187032D01*
X93665Y187117D01*
X93615Y187192D01*
X93545Y187257D01*
X93455Y187312D01*
X93345Y187357D01*
X93215Y187392D01*
X93065Y187417D01*
X92895Y187432D01*
X92705Y187437D01*
Y188437D01*
X92895Y188442D01*
X93065Y188457D01*
X93215Y188482D01*
X93345Y188517D01*
X93455Y188562D01*
X93545Y188617D01*
X93615Y188682D01*
X93665Y188757D01*
X93695Y188842D01*
X93705Y188937D01*
Y186937D01*
D02*
G37*
G36*
X90144Y188842D02*
X90174Y188757D01*
X90225Y188682D01*
X90295Y188617D01*
X90386Y188562D01*
X90498Y188517D01*
X90629Y188482D01*
X90781Y188457D01*
X90953Y188442D01*
X91145Y188437D01*
Y187437D01*
X90953Y187432D01*
X90781Y187417D01*
X90629Y187392D01*
X90498Y187357D01*
X90386Y187312D01*
X90295Y187257D01*
X90225Y187192D01*
X90174Y187117D01*
X90144Y187032D01*
X90134Y186937D01*
Y188937D01*
X90144Y188842D01*
D02*
G37*
G36*
X84866Y186937D02*
X84856Y187032D01*
X84826Y187117D01*
X84775Y187192D01*
X84705Y187257D01*
X84614Y187312D01*
X84502Y187357D01*
X84371Y187392D01*
X84219Y187417D01*
X84047Y187432D01*
X83855Y187437D01*
Y188437D01*
X84047Y188442D01*
X84219Y188457D01*
X84371Y188482D01*
X84502Y188517D01*
X84614Y188562D01*
X84705Y188617D01*
X84775Y188682D01*
X84826Y188757D01*
X84856Y188842D01*
X84866Y188937D01*
Y186937D01*
D02*
G37*
G36*
X105293Y187905D02*
X105324Y187820D01*
X105374Y187745D01*
X105445Y187680D01*
X105536Y187625D01*
X105647Y187580D01*
X105779Y187545D01*
X105931Y187520D01*
X106103Y187505D01*
X106295Y187500D01*
Y186500D01*
X106103Y186495D01*
X105931Y186480D01*
X105779Y186455D01*
X105647Y186420D01*
X105536Y186375D01*
X105445Y186320D01*
X105374Y186255D01*
X105324Y186180D01*
X105293Y186095D01*
X105283Y186000D01*
Y188000D01*
X105293Y187905D01*
D02*
G37*
G36*
X110429Y185950D02*
X110319Y186055D01*
X110206Y186148D01*
X110090Y186231D01*
X109971Y186302D01*
X109848Y186363D01*
X109722Y186412D01*
X109593Y186451D01*
X109461Y186478D01*
X109325Y186495D01*
X109186Y186500D01*
Y187500D01*
X109325Y187505D01*
X109461Y187522D01*
X109593Y187549D01*
X109722Y187588D01*
X109848Y187637D01*
X109971Y187698D01*
X110090Y187769D01*
X110206Y187852D01*
X110319Y187945D01*
X110429Y188050D01*
Y185950D01*
D02*
G37*
G36*
X102599Y184256D02*
X102522Y184313D01*
X102430Y184341D01*
X102324D01*
X102203Y184313D01*
X102069Y184256D01*
X101921Y184171D01*
X101758Y184058D01*
X101581Y183917D01*
X101185Y183549D01*
X100478Y184256D01*
X100676Y184461D01*
X100987Y184829D01*
X101100Y184992D01*
X101185Y185140D01*
X101242Y185274D01*
X101270Y185395D01*
Y185501D01*
X101242Y185592D01*
X101185Y185670D01*
X102599Y184256D01*
D02*
G37*
G36*
X441946Y181819D02*
X441852Y181707D01*
X441770Y181590D01*
X441698Y181471D01*
X441638Y181349D01*
X441588Y181222D01*
X441549Y181093D01*
X441522Y180961D01*
X441505Y180825D01*
X441500Y180686D01*
X440500D01*
X440494Y180825D01*
X440478Y180961D01*
X440450Y181093D01*
X440412Y181222D01*
X440363Y181349D01*
X440302Y181471D01*
X440231Y181590D01*
X440148Y181707D01*
X440055Y181819D01*
X439950Y181929D01*
X442050D01*
X441946Y181819D01*
D02*
G37*
G36*
X432905Y179293D02*
X432820Y179263D01*
X432745Y179213D01*
X432680Y179143D01*
X432625Y179053D01*
X432580Y178943D01*
X432545Y178813D01*
X432520Y178663D01*
X432505Y178493D01*
X432500Y178303D01*
X431500D01*
X431495Y178493D01*
X431480Y178663D01*
X431455Y178813D01*
X431420Y178943D01*
X431375Y179053D01*
X431320Y179143D01*
X431255Y179213D01*
X431180Y179263D01*
X431095Y179293D01*
X431000Y179303D01*
X433000D01*
X432905Y179293D01*
D02*
G37*
G36*
X449795Y178293D02*
X449710Y178263D01*
X449635Y178213D01*
X449570Y178143D01*
X449515Y178053D01*
X449470Y177943D01*
X449435Y177813D01*
X449410Y177663D01*
X449395Y177493D01*
X449390Y177303D01*
X448390D01*
X448385Y177493D01*
X448370Y177663D01*
X448345Y177813D01*
X448310Y177943D01*
X448265Y178053D01*
X448210Y178143D01*
X448145Y178213D01*
X448070Y178263D01*
X447985Y178293D01*
X447890Y178303D01*
X449890D01*
X449795Y178293D01*
D02*
G37*
G36*
X88405D02*
X88320Y178263D01*
X88245Y178213D01*
X88180Y178143D01*
X88125Y178053D01*
X88080Y177943D01*
X88045Y177813D01*
X88020Y177663D01*
X88005Y177493D01*
X88000Y177303D01*
X87000D01*
X86995Y177493D01*
X86980Y177663D01*
X86955Y177813D01*
X86920Y177943D01*
X86875Y178053D01*
X86820Y178143D01*
X86755Y178213D01*
X86680Y178263D01*
X86595Y178293D01*
X86500Y178303D01*
X88500D01*
X88405Y178293D01*
D02*
G37*
G36*
X440615Y176767D02*
X440630Y176596D01*
X440655Y176446D01*
X440690Y176316D01*
X440735Y176207D01*
X440790Y176117D01*
X440855Y176047D01*
X440930Y175996D01*
X441015Y175967D01*
X441110Y175956D01*
X439110D01*
X439205Y175967D01*
X439290Y175996D01*
X439365Y176047D01*
X439430Y176117D01*
X439485Y176207D01*
X439530Y176316D01*
X439565Y176446D01*
X439590Y176596D01*
X439605Y176767D01*
X439610Y176956D01*
X440610D01*
X440615Y176767D01*
D02*
G37*
G36*
X432505D02*
X432520Y176596D01*
X432545Y176446D01*
X432580Y176316D01*
X432625Y176207D01*
X432680Y176117D01*
X432745Y176047D01*
X432820Y175996D01*
X432905Y175967D01*
X433000Y175956D01*
X431000D01*
X431095Y175967D01*
X431180Y175996D01*
X431255Y176047D01*
X431320Y176117D01*
X431375Y176207D01*
X431420Y176316D01*
X431455Y176446D01*
X431480Y176596D01*
X431495Y176767D01*
X431500Y176956D01*
X432500D01*
X432505Y176767D01*
D02*
G37*
G36*
X449395Y176267D02*
X449410Y176096D01*
X449435Y175946D01*
X449470Y175817D01*
X449515Y175707D01*
X449570Y175617D01*
X449635Y175547D01*
X449710Y175496D01*
X449795Y175467D01*
X449890Y175457D01*
X447890D01*
X447985Y175467D01*
X448070Y175496D01*
X448145Y175547D01*
X448210Y175617D01*
X448265Y175707D01*
X448310Y175817D01*
X448345Y175946D01*
X448370Y176096D01*
X448385Y176267D01*
X448390Y176456D01*
X449390D01*
X449395Y176267D01*
D02*
G37*
G36*
X99505Y176007D02*
X99520Y175837D01*
X99545Y175687D01*
X99580Y175557D01*
X99625Y175447D01*
X99680Y175357D01*
X99745Y175287D01*
X99820Y175237D01*
X99905Y175207D01*
X100000Y175197D01*
X98000D01*
X98095Y175207D01*
X98180Y175237D01*
X98255Y175287D01*
X98320Y175357D01*
X98375Y175447D01*
X98420Y175557D01*
X98455Y175687D01*
X98480Y175837D01*
X98495Y176007D01*
X98500Y176197D01*
X99500D01*
X99505Y176007D01*
D02*
G37*
G36*
X88005D02*
X88020Y175837D01*
X88045Y175687D01*
X88080Y175557D01*
X88125Y175447D01*
X88180Y175357D01*
X88245Y175287D01*
X88320Y175237D01*
X88405Y175207D01*
X88500Y175197D01*
X86500D01*
X86595Y175207D01*
X86680Y175237D01*
X86755Y175287D01*
X86820Y175357D01*
X86875Y175447D01*
X86920Y175557D01*
X86955Y175687D01*
X86980Y175837D01*
X86995Y176007D01*
X87000Y176197D01*
X88000D01*
X88005Y176007D01*
D02*
G37*
G36*
X458364Y173905D02*
X458394Y173820D01*
X458445Y173745D01*
X458516Y173680D01*
X458607Y173625D01*
X458718Y173580D01*
X458850Y173545D01*
X459002Y173520D01*
X459174Y173505D01*
X459366Y173500D01*
Y172500D01*
X459174Y172495D01*
X459002Y172480D01*
X458850Y172455D01*
X458718Y172420D01*
X458607Y172375D01*
X458516Y172320D01*
X458445Y172255D01*
X458394Y172180D01*
X458364Y172095D01*
X458354Y172000D01*
Y174000D01*
X458364Y173905D01*
D02*
G37*
G36*
X462929Y171950D02*
X462819Y172055D01*
X462707Y172148D01*
X462591Y172231D01*
X462471Y172302D01*
X462349Y172362D01*
X462222Y172412D01*
X462093Y172450D01*
X461961Y172478D01*
X461825Y172494D01*
X461686Y172500D01*
Y173500D01*
X461825Y173505D01*
X461961Y173522D01*
X462093Y173549D01*
X462222Y173588D01*
X462349Y173637D01*
X462471Y173698D01*
X462591Y173769D01*
X462707Y173852D01*
X462819Y173945D01*
X462929Y174050D01*
Y171950D01*
D02*
G37*
G36*
X90143Y173451D02*
X90171Y173378D01*
X90218Y173314D01*
X90284Y173259D01*
X90368Y173212D01*
X90471Y173174D01*
X90593Y173144D01*
X90734Y173123D01*
X90893Y173110D01*
X91072Y173106D01*
Y172106D01*
X90893Y172101D01*
X90734Y172088D01*
X90593Y172067D01*
X90471Y172037D01*
X90368Y171999D01*
X90284Y171952D01*
X90218Y171897D01*
X90171Y171833D01*
X90143Y171760D01*
X90134Y171679D01*
Y173532D01*
X90143Y173451D01*
D02*
G37*
G36*
X96560Y167832D02*
X96927Y167521D01*
X97090Y167408D01*
X97238Y167323D01*
X97373Y167266D01*
X97493Y167238D01*
X97599D01*
X97691Y167266D01*
X97769Y167323D01*
X96355Y165908D01*
X96411Y165986D01*
X96439Y166078D01*
Y166184D01*
X96411Y166304D01*
X96355Y166439D01*
X96270Y166587D01*
X96157Y166750D01*
X96015Y166927D01*
X95647Y167323D01*
X96355Y168030D01*
X96560Y167832D01*
D02*
G37*
G36*
X451591Y164535D02*
X451581Y164630D01*
X451550Y164715D01*
X451500Y164790D01*
X451429Y164855D01*
X451338Y164910D01*
X451227Y164955D01*
X451095Y164990D01*
X450943Y165015D01*
X450771Y165030D01*
X450579Y165035D01*
Y166035D01*
X450771Y166040D01*
X450943Y166055D01*
X451095Y166080D01*
X451227Y166115D01*
X451338Y166160D01*
X451429Y166215D01*
X451500Y166280D01*
X451550Y166355D01*
X451581Y166440D01*
X451591Y166535D01*
Y164535D01*
D02*
G37*
G36*
X437419Y166440D02*
X437450Y166355D01*
X437500Y166280D01*
X437571Y166215D01*
X437662Y166160D01*
X437773Y166115D01*
X437905Y166080D01*
X438057Y166055D01*
X438229Y166040D01*
X438421Y166035D01*
Y165035D01*
X438229Y165030D01*
X438057Y165015D01*
X437905Y164990D01*
X437773Y164955D01*
X437662Y164910D01*
X437571Y164855D01*
X437500Y164790D01*
X437450Y164715D01*
X437419Y164630D01*
X437409Y164535D01*
Y166535D01*
X437419Y166440D01*
D02*
G37*
G36*
X84866Y164500D02*
X84856Y164595D01*
X84826Y164680D01*
X84775Y164755D01*
X84705Y164820D01*
X84614Y164875D01*
X84502Y164920D01*
X84371Y164955D01*
X84219Y164980D01*
X84047Y164995D01*
X83855Y165000D01*
Y166000D01*
X84047Y166005D01*
X84219Y166020D01*
X84371Y166045D01*
X84502Y166080D01*
X84614Y166125D01*
X84705Y166180D01*
X84775Y166245D01*
X84826Y166320D01*
X84856Y166405D01*
X84866Y166500D01*
Y164500D01*
D02*
G37*
G36*
X80181Y166446D02*
X80293Y166352D01*
X80409Y166270D01*
X80529Y166198D01*
X80651Y166138D01*
X80778Y166088D01*
X80907Y166050D01*
X81039Y166022D01*
X81175Y166006D01*
X81314Y166000D01*
Y165000D01*
X81175Y164995D01*
X81039Y164978D01*
X80907Y164951D01*
X80778Y164912D01*
X80651Y164863D01*
X80529Y164802D01*
X80409Y164731D01*
X80293Y164648D01*
X80181Y164555D01*
X80071Y164450D01*
Y166550D01*
X80181Y166446D01*
D02*
G37*
G36*
X436960Y163581D02*
X436875Y163550D01*
X436800Y163500D01*
X436735Y163429D01*
X436680Y163338D01*
X436635Y163227D01*
X436600Y163095D01*
X436575Y162943D01*
X436560Y162771D01*
X436555Y162579D01*
X435555D01*
X435550Y162771D01*
X435535Y162943D01*
X435510Y163095D01*
X435475Y163227D01*
X435430Y163338D01*
X435375Y163429D01*
X435310Y163500D01*
X435235Y163550D01*
X435150Y163581D01*
X435055Y163591D01*
X437055D01*
X436960Y163581D01*
D02*
G37*
G36*
X436560Y155945D02*
X436575Y155773D01*
X436600Y155622D01*
X436635Y155490D01*
X436680Y155379D01*
X436735Y155288D01*
X436800Y155217D01*
X436875Y155166D01*
X436960Y155136D01*
X437055Y155126D01*
X435055D01*
X435150Y155136D01*
X435235Y155166D01*
X435310Y155217D01*
X435375Y155288D01*
X435430Y155379D01*
X435475Y155490D01*
X435510Y155622D01*
X435535Y155773D01*
X435550Y155945D01*
X435555Y156138D01*
X436555D01*
X436560Y155945D01*
D02*
G37*
G36*
X450769Y153189D02*
X450692Y153245D01*
X450601Y153272D01*
X450495Y153271D01*
X450376Y153241D01*
X450241Y153183D01*
X450093Y153097D01*
X449930Y152983D01*
X449752Y152840D01*
X449355Y152470D01*
X448647Y153177D01*
X448847Y153384D01*
X449160Y153753D01*
X449274Y153916D01*
X449361Y154064D01*
X449418Y154199D01*
X449448Y154318D01*
X449449Y154424D01*
X449422Y154515D01*
X449367Y154592D01*
X450769Y153189D01*
D02*
G37*
G36*
X438636Y152905D02*
X438666Y152820D01*
X438717Y152745D01*
X438788Y152680D01*
X438879Y152625D01*
X438990Y152580D01*
X439121Y152545D01*
X439273Y152520D01*
X439445Y152505D01*
X439638Y152500D01*
Y151500D01*
X439445Y151495D01*
X439273Y151480D01*
X439121Y151455D01*
X438990Y151420D01*
X438879Y151375D01*
X438788Y151320D01*
X438717Y151255D01*
X438666Y151180D01*
X438636Y151095D01*
X438626Y151000D01*
Y153000D01*
X438636Y152905D01*
D02*
G37*
G36*
X478985Y150500D02*
X478834Y150497D01*
X478688Y150483D01*
X478547Y150459D01*
X478412Y150425D01*
X478283Y150381D01*
X478159Y150327D01*
X478040Y150263D01*
X477927Y150189D01*
X477819Y150104D01*
X477717Y150010D01*
X477010Y150717D01*
X477105Y150819D01*
X477189Y150927D01*
X477263Y151040D01*
X477327Y151159D01*
X477381Y151283D01*
X477425Y151412D01*
X477459Y151547D01*
X477483Y151688D01*
X477497Y151834D01*
X477500Y151985D01*
X478985Y150500D01*
D02*
G37*
G36*
X487946Y150819D02*
X487852Y150707D01*
X487770Y150591D01*
X487698Y150471D01*
X487638Y150348D01*
X487588Y150223D01*
X487549Y150093D01*
X487522Y149961D01*
X487505Y149825D01*
X487500Y149686D01*
X486500D01*
X486494Y149825D01*
X486478Y149961D01*
X486450Y150093D01*
X486412Y150223D01*
X486363Y150348D01*
X486302Y150471D01*
X486231Y150591D01*
X486148Y150707D01*
X486055Y150819D01*
X485950Y150929D01*
X488050D01*
X487946Y150819D01*
D02*
G37*
G36*
X307339Y149539D02*
X307188Y149500D01*
X306903Y149405D01*
X306769Y149349D01*
X306642Y149286D01*
X306521Y149218D01*
X306405Y149145D01*
X306296Y149065D01*
X306192Y148979D01*
X306095Y148888D01*
X305205Y149412D01*
X305301Y149517D01*
X305384Y149626D01*
X305453Y149739D01*
X305508Y149856D01*
X305549Y149976D01*
X305576Y150100D01*
X305590Y150227D01*
X305589Y150359D01*
X305574Y150493D01*
X305546Y150632D01*
X307339Y149539D01*
D02*
G37*
G36*
X455353Y148645D02*
X455161Y148447D01*
X454858Y148089D01*
X454747Y147928D01*
X454661Y147781D01*
X454603Y147645D01*
X454571Y147523D01*
X454565Y147413D01*
X454586Y147316D01*
X454634Y147231D01*
X453408Y148811D01*
X453477Y148747D01*
X453562Y148714D01*
X453663Y148711D01*
X453781Y148738D01*
X453914Y148795D01*
X454063Y148882D01*
X454229Y148999D01*
X454411Y149146D01*
X454823Y149530D01*
X455353Y148645D01*
D02*
G37*
G36*
X315445Y149819D02*
X315352Y149706D01*
X315269Y149591D01*
X315198Y149471D01*
X315138Y149348D01*
X315088Y149223D01*
X315050Y149093D01*
X315022Y148961D01*
X315005Y148825D01*
X315000Y148686D01*
X314000D01*
X313995Y148825D01*
X313978Y148961D01*
X313950Y149093D01*
X313912Y149223D01*
X313862Y149348D01*
X313802Y149471D01*
X313731Y149591D01*
X313648Y149706D01*
X313555Y149819D01*
X313450Y149929D01*
X315550D01*
X315445Y149819D01*
D02*
G37*
G36*
X139485Y148500D02*
X139334Y148497D01*
X139188Y148483D01*
X139047Y148459D01*
X138912Y148425D01*
X138783Y148381D01*
X138659Y148327D01*
X138540Y148263D01*
X138427Y148189D01*
X138319Y148105D01*
X138217Y148010D01*
X137510Y148717D01*
X137604Y148819D01*
X137689Y148927D01*
X137763Y149040D01*
X137827Y149159D01*
X137881Y149283D01*
X137925Y149413D01*
X137959Y149547D01*
X137983Y149688D01*
X137997Y149834D01*
X138000Y149985D01*
X139485Y148500D01*
D02*
G37*
G36*
X132946Y148819D02*
X132852Y148706D01*
X132770Y148591D01*
X132698Y148471D01*
X132638Y148348D01*
X132588Y148222D01*
X132550Y148093D01*
X132522Y147961D01*
X132506Y147825D01*
X132500Y147686D01*
X131500D01*
X131494Y147825D01*
X131478Y147961D01*
X131450Y148093D01*
X131412Y148222D01*
X131362Y148348D01*
X131302Y148471D01*
X131230Y148591D01*
X131148Y148706D01*
X131054Y148819D01*
X130950Y148929D01*
X133050D01*
X132946Y148819D01*
D02*
G37*
G36*
X424511Y140127D02*
X424603Y139167D01*
X424683Y138777D01*
X424786Y138447D01*
X424912Y138177D01*
X425061Y137967D01*
X425233Y137817D01*
X425428Y137727D01*
X425645Y137697D01*
X420355D01*
X420572Y137727D01*
X420767Y137817D01*
X420939Y137967D01*
X421088Y138177D01*
X421214Y138447D01*
X421317Y138777D01*
X421397Y139167D01*
X421454Y139617D01*
X421489Y140127D01*
X421500Y140697D01*
X424500D01*
X424511Y140127D01*
D02*
G37*
G36*
X421940Y134876D02*
X421805Y134982D01*
X421626Y135078D01*
X421402Y135162D01*
X421134Y135235D01*
X420820Y135297D01*
X420463Y135347D01*
X420366Y135355D01*
Y134937D01*
X420356Y135032D01*
X420326Y135117D01*
X420275Y135192D01*
X420205Y135257D01*
X420114Y135312D01*
X420002Y135357D01*
X419871Y135392D01*
X419845Y135396D01*
X419614Y135415D01*
X418618Y135436D01*
X418453Y135432D01*
X418281Y135417D01*
X418129Y135392D01*
X417998Y135357D01*
X417886Y135312D01*
X417795Y135257D01*
X417725Y135192D01*
X417674Y135117D01*
X417644Y135032D01*
X417633Y134937D01*
Y136937D01*
X417644Y136842D01*
X417674Y136757D01*
X417725Y136682D01*
X417795Y136617D01*
X417886Y136562D01*
X417998Y136517D01*
X418129Y136482D01*
X418281Y136457D01*
X418453Y136442D01*
X418628Y136437D01*
X419122Y136443D01*
X419978Y136511D01*
X420002Y136517D01*
X420114Y136562D01*
X420205Y136617D01*
X420275Y136682D01*
X420326Y136757D01*
X420356Y136842D01*
X420366Y136937D01*
Y136541D01*
X420820Y136577D01*
X421134Y136639D01*
X421402Y136712D01*
X421626Y136796D01*
X421805Y136892D01*
X421940Y136998D01*
Y134876D01*
D02*
G37*
G36*
X435366Y134937D02*
X435356Y135032D01*
X435326Y135117D01*
X435275Y135192D01*
X435205Y135257D01*
X435113Y135312D01*
X435002Y135357D01*
X434871Y135392D01*
X434719Y135417D01*
X434547Y135432D01*
X434354Y135437D01*
Y136437D01*
X434547Y136442D01*
X434719Y136457D01*
X434871Y136482D01*
X435002Y136517D01*
X435113Y136562D01*
X435205Y136617D01*
X435275Y136682D01*
X435326Y136757D01*
X435356Y136842D01*
X435366Y136937D01*
Y134937D01*
D02*
G37*
G36*
X433144Y136842D02*
X433174Y136757D01*
X433225Y136682D01*
X433295Y136617D01*
X433387Y136562D01*
X433498Y136517D01*
X433629Y136482D01*
X433781Y136457D01*
X433953Y136442D01*
X434145Y136437D01*
Y135437D01*
X433953Y135432D01*
X433781Y135417D01*
X433629Y135392D01*
X433498Y135357D01*
X433387Y135312D01*
X433295Y135257D01*
X433225Y135192D01*
X433174Y135117D01*
X433144Y135032D01*
X433134Y134937D01*
Y136937D01*
X433144Y136842D01*
D02*
G37*
G36*
X427867Y134937D02*
X427856Y135032D01*
X427826Y135117D01*
X427775Y135192D01*
X427705Y135257D01*
X427613Y135312D01*
X427502Y135357D01*
X427371Y135392D01*
X427219Y135417D01*
X427047Y135432D01*
X426855Y135437D01*
Y136437D01*
X427047Y136442D01*
X427219Y136457D01*
X427371Y136482D01*
X427502Y136517D01*
X427613Y136562D01*
X427705Y136617D01*
X427775Y136682D01*
X427826Y136757D01*
X427856Y136842D01*
X427867Y136937D01*
Y134937D01*
D02*
G37*
G36*
X425644Y136842D02*
X425674Y136757D01*
X425725Y136682D01*
X425795Y136617D01*
X425886Y136562D01*
X425998Y136517D01*
X426129Y136482D01*
X426281Y136457D01*
X426453Y136442D01*
X426646Y136437D01*
Y135437D01*
X426453Y135432D01*
X426281Y135417D01*
X426129Y135392D01*
X425998Y135357D01*
X425886Y135312D01*
X425795Y135257D01*
X425725Y135192D01*
X425674Y135117D01*
X425644Y135032D01*
X425633Y134937D01*
Y136937D01*
X425644Y136842D01*
D02*
G37*
G36*
X566244Y130810D02*
X566062Y130794D01*
X565729Y130739D01*
X565578Y130700D01*
X565436Y130653D01*
X565304Y130599D01*
X565182Y130538D01*
X565070Y130469D01*
X564967Y130393D01*
X564875Y130309D01*
X564263Y130829D01*
X564350Y130926D01*
X564427Y131031D01*
X564492Y131144D01*
X564547Y131266D01*
X564590Y131397D01*
X564623Y131535D01*
X564646Y131683D01*
X564657Y131838D01*
X564658Y132002D01*
X564647Y132175D01*
X566244Y130810D01*
D02*
G37*
G36*
X435355Y129571D02*
X436145Y129563D01*
Y126563D01*
X435575Y126560D01*
X435355Y126548D01*
Y126303D01*
X435324Y126353D01*
X435234Y126397D01*
X435084Y126436D01*
X434874Y126470D01*
X434605Y126498D01*
X434544Y126501D01*
X433416Y126436D01*
X433265Y126397D01*
X433176Y126353D01*
X433146Y126303D01*
Y126555D01*
X432354Y126563D01*
Y129563D01*
X432925Y129566D01*
X433146Y129578D01*
Y129823D01*
X433176Y129773D01*
X433265Y129729D01*
X433416Y129690D01*
X433626Y129657D01*
X433895Y129628D01*
X433956Y129625D01*
X435084Y129690D01*
X435234Y129729D01*
X435324Y129773D01*
X435355Y129823D01*
Y129571D01*
D02*
G37*
G36*
X427854D02*
X428646Y129563D01*
Y126563D01*
X428076Y126560D01*
X427854Y126548D01*
Y126303D01*
X427824Y126353D01*
X427735Y126397D01*
X427585Y126436D01*
X427375Y126470D01*
X427105Y126498D01*
X427044Y126501D01*
X425915Y126436D01*
X425766Y126397D01*
X425675Y126353D01*
X425645Y126303D01*
Y126555D01*
X424855Y126563D01*
Y129563D01*
X425424Y129566D01*
X425645Y129578D01*
Y129823D01*
X425675Y129773D01*
X425766Y129729D01*
X425915Y129690D01*
X426125Y129657D01*
X426396Y129628D01*
X426456Y129625D01*
X427585Y129690D01*
X427735Y129729D01*
X427824Y129773D01*
X427854Y129823D01*
Y129571D01*
D02*
G37*
G36*
X420355Y129566D02*
X420646Y129563D01*
Y126563D01*
X420355Y126562D01*
Y126303D01*
X420325Y126353D01*
X420234Y126397D01*
X420084Y126436D01*
X419874Y126470D01*
X419604Y126498D01*
X419268Y126514D01*
X417915Y126436D01*
X417766Y126397D01*
X417675Y126353D01*
X417646Y126303D01*
Y126560D01*
X417354Y126563D01*
Y129563D01*
X417646Y129564D01*
Y129823D01*
X417675Y129773D01*
X417766Y129729D01*
X417915Y129690D01*
X418125Y129657D01*
X418396Y129628D01*
X418732Y129612D01*
X420084Y129690D01*
X420234Y129729D01*
X420325Y129773D01*
X420355Y129823D01*
Y129566D01*
D02*
G37*
G36*
X526505Y127507D02*
X526520Y127337D01*
X526545Y127187D01*
X526580Y127057D01*
X526625Y126947D01*
X526680Y126857D01*
X526745Y126787D01*
X526820Y126737D01*
X526905Y126707D01*
X527000Y126697D01*
X525000D01*
X525095Y126707D01*
X525180Y126737D01*
X525255Y126787D01*
X525320Y126857D01*
X525375Y126947D01*
X525420Y127057D01*
X525455Y127187D01*
X525480Y127337D01*
X525495Y127507D01*
X525500Y127697D01*
X526500D01*
X526505Y127507D01*
D02*
G37*
G36*
X416597Y126315D02*
X416347Y126466D01*
X416058Y126535D01*
X415730Y126524D01*
X415364Y126432D01*
X414959Y126259D01*
X414515Y126005D01*
X414033Y125671D01*
X413512Y125256D01*
X412355Y124182D01*
X410233Y126303D01*
X410636Y126720D01*
X411315Y127511D01*
X411591Y127885D01*
X411824Y128244D01*
X412015Y128588D01*
X412164Y128919D01*
X412270Y129235D01*
X412333Y129536D01*
X412355Y129823D01*
X416597Y126315D01*
D02*
G37*
G36*
X539453Y125724D02*
X539477Y125656D01*
X539518Y125596D01*
X539574Y125544D01*
X539647Y125500D01*
X539737Y125464D01*
X539842Y125436D01*
X539964Y125416D01*
X540102Y125404D01*
X540257Y125400D01*
Y124600D01*
X540102Y124596D01*
X539964Y124584D01*
X539842Y124564D01*
X539737Y124536D01*
X539647Y124500D01*
X539574Y124456D01*
X539518Y124404D01*
X539477Y124344D01*
X539453Y124276D01*
X539444Y124200D01*
Y125800D01*
X539453Y125724D01*
D02*
G37*
G36*
X524748Y123179D02*
X524662Y123148D01*
X524587Y123097D01*
X524522Y123026D01*
X524468Y122934D01*
X524423Y122823D01*
X524388Y122692D01*
X524363Y122540D01*
X524347Y122369D01*
X524342Y122177D01*
X523343D01*
X523354Y123177D01*
X524843Y123189D01*
X524748Y123179D01*
D02*
G37*
G36*
X546870Y119581D02*
X546785Y119551D01*
X546710Y119500D01*
X546645Y119429D01*
X546590Y119338D01*
X546545Y119227D01*
X546510Y119095D01*
X546485Y118943D01*
X546470Y118771D01*
X546465Y118579D01*
X545465D01*
X545460Y118771D01*
X545445Y118943D01*
X545420Y119095D01*
X545385Y119227D01*
X545340Y119338D01*
X545285Y119429D01*
X545220Y119500D01*
X545145Y119551D01*
X545060Y119581D01*
X544965Y119591D01*
X546965D01*
X546870Y119581D01*
D02*
G37*
G36*
X535543Y115890D02*
X535534Y115985D01*
X535503Y116070D01*
X535454Y116145D01*
X535384Y116210D01*
X535293Y116265D01*
X535183Y116310D01*
X535053Y116345D01*
X534903Y116370D01*
X534733Y116385D01*
X534544Y116390D01*
Y117390D01*
X534733Y117395D01*
X534903Y117410D01*
X535053Y117435D01*
X535183Y117470D01*
X535293Y117515D01*
X535384Y117570D01*
X535454Y117635D01*
X535503Y117710D01*
X535534Y117795D01*
X535543Y117890D01*
Y115890D01*
D02*
G37*
G36*
X528644Y117795D02*
X528674Y117710D01*
X528725Y117635D01*
X528795Y117570D01*
X528887Y117515D01*
X528998Y117470D01*
X529129Y117435D01*
X529281Y117410D01*
X529453Y117395D01*
X529645Y117390D01*
Y116390D01*
X529453Y116385D01*
X529281Y116370D01*
X529129Y116345D01*
X528998Y116310D01*
X528887Y116265D01*
X528795Y116210D01*
X528725Y116145D01*
X528674Y116070D01*
X528644Y115985D01*
X528633Y115890D01*
Y117890D01*
X528644Y117795D01*
D02*
G37*
G36*
X584059Y114071D02*
X583766Y114361D01*
X583213Y114851D01*
X582954Y115050D01*
X582707Y115218D01*
X582472Y115355D01*
X582248Y115462D01*
X582036Y115539D01*
X581836Y115585D01*
X581647Y115600D01*
Y116400D01*
X581836Y116415D01*
X582036Y116461D01*
X582248Y116538D01*
X582472Y116645D01*
X582707Y116782D01*
X582954Y116951D01*
X583213Y117149D01*
X583766Y117639D01*
X584059Y117929D01*
Y114071D01*
D02*
G37*
G36*
X386383Y117848D02*
X386502Y117775D01*
X386643Y117710D01*
X386808Y117655D01*
X386997Y117607D01*
X387208Y117569D01*
X387442Y117539D01*
X387981Y117504D01*
X388284Y117500D01*
Y114500D01*
X387981Y114496D01*
X387208Y114431D01*
X386997Y114393D01*
X386808Y114346D01*
X386643Y114290D01*
X386502Y114225D01*
X386383Y114152D01*
X386287Y114071D01*
Y117929D01*
X386383Y117848D01*
D02*
G37*
G36*
X564022Y109366D02*
X563863Y109201D01*
X563611Y108905D01*
X563520Y108775D01*
X563450Y108656D01*
X563404Y108548D01*
X563380Y108453D01*
X563379Y108368D01*
X563401Y108296D01*
X563445Y108235D01*
X562325Y109354D01*
X562386Y109310D01*
X562459Y109289D01*
X562543Y109290D01*
X562639Y109313D01*
X562746Y109360D01*
X562865Y109429D01*
X562996Y109521D01*
X563138Y109635D01*
X563456Y109932D01*
X564022Y109366D01*
D02*
G37*
G36*
X576866Y106437D02*
X576856Y106532D01*
X576826Y106617D01*
X576775Y106692D01*
X576705Y106757D01*
X576614Y106812D01*
X576502Y106857D01*
X576371Y106892D01*
X576219Y106917D01*
X576047Y106932D01*
X575854Y106937D01*
Y107937D01*
X576047Y107942D01*
X576219Y107957D01*
X576371Y107982D01*
X576502Y108017D01*
X576614Y108062D01*
X576705Y108117D01*
X576775Y108182D01*
X576826Y108257D01*
X576856Y108342D01*
X576866Y108437D01*
Y106437D01*
D02*
G37*
G36*
X585303Y106000D02*
X585293Y106095D01*
X585263Y106180D01*
X585213Y106255D01*
X585143Y106320D01*
X585053Y106375D01*
X584943Y106420D01*
X584813Y106455D01*
X584663Y106480D01*
X584493Y106495D01*
X584303Y106500D01*
Y107500D01*
X584493Y107505D01*
X584663Y107520D01*
X584813Y107545D01*
X584943Y107580D01*
X585053Y107625D01*
X585143Y107680D01*
X585213Y107745D01*
X585263Y107820D01*
X585293Y107905D01*
X585303Y108000D01*
Y106000D01*
D02*
G37*
G36*
X582144Y107905D02*
X582174Y107820D01*
X582225Y107745D01*
X582295Y107680D01*
X582386Y107625D01*
X582498Y107580D01*
X582629Y107545D01*
X582781Y107520D01*
X582953Y107505D01*
X583146Y107500D01*
Y106500D01*
X582953Y106495D01*
X582781Y106480D01*
X582629Y106455D01*
X582498Y106420D01*
X582386Y106375D01*
X582295Y106320D01*
X582225Y106255D01*
X582174Y106180D01*
X582144Y106095D01*
X582133Y106000D01*
Y108000D01*
X582144Y107905D01*
D02*
G37*
G36*
X596695Y107405D02*
X596725Y107320D01*
X596776Y107245D01*
X596847Y107180D01*
X596938Y107125D01*
X597049Y107080D01*
X597181Y107045D01*
X597332Y107020D01*
X597504Y107005D01*
X597697Y107000D01*
Y106000D01*
X597504Y105995D01*
X597332Y105980D01*
X597181Y105955D01*
X597049Y105920D01*
X596938Y105875D01*
X596847Y105820D01*
X596776Y105755D01*
X596725Y105680D01*
X596695Y105595D01*
X596685Y105500D01*
Y107500D01*
X596695Y107405D01*
D02*
G37*
G36*
X601929Y105450D02*
X601819Y105554D01*
X601707Y105648D01*
X601590Y105730D01*
X601471Y105802D01*
X601348Y105862D01*
X601223Y105912D01*
X601093Y105950D01*
X600961Y105978D01*
X600825Y105994D01*
X600686Y106000D01*
Y107000D01*
X600825Y107006D01*
X600961Y107022D01*
X601093Y107050D01*
X601223Y107088D01*
X601348Y107138D01*
X601471Y107198D01*
X601590Y107270D01*
X601707Y107352D01*
X601819Y107446D01*
X601929Y107550D01*
Y105450D01*
D02*
G37*
G36*
X572628Y105311D02*
X572429Y105105D01*
X572116Y104736D01*
X572001Y104573D01*
X571915Y104424D01*
X571857Y104290D01*
X571828Y104170D01*
X571827Y104064D01*
X571854Y103973D01*
X571909Y103897D01*
X570507Y105299D01*
X570584Y105244D01*
X570675Y105216D01*
X570780Y105218D01*
X570900Y105247D01*
X571034Y105305D01*
X571183Y105391D01*
X571346Y105505D01*
X571523Y105648D01*
X571921Y106018D01*
X572628Y105311D01*
D02*
G37*
G36*
X595905Y104356D02*
X595820Y104326D01*
X595745Y104275D01*
X595680Y104205D01*
X595625Y104113D01*
X595580Y104002D01*
X595545Y103871D01*
X595520Y103719D01*
X595505Y103547D01*
X595500Y103355D01*
X594500D01*
X594495Y103547D01*
X594480Y103719D01*
X594455Y103871D01*
X594420Y104002D01*
X594375Y104113D01*
X594320Y104205D01*
X594255Y104275D01*
X594180Y104326D01*
X594095Y104356D01*
X594000Y104367D01*
X596000D01*
X595905Y104356D01*
D02*
G37*
G36*
X595505Y101267D02*
X595520Y101096D01*
X595545Y100946D01*
X595580Y100817D01*
X595625Y100707D01*
X595680Y100617D01*
X595745Y100547D01*
X595820Y100496D01*
X595905Y100467D01*
X596000Y100457D01*
X594000D01*
X594095Y100467D01*
X594180Y100496D01*
X594255Y100547D01*
X594320Y100617D01*
X594375Y100707D01*
X594420Y100817D01*
X594455Y100946D01*
X594480Y101096D01*
X594495Y101267D01*
X594500Y101456D01*
X595500D01*
X595505Y101267D01*
D02*
G37*
G36*
X544405Y100163D02*
X544320Y100133D01*
X544245Y100083D01*
X544180Y100012D01*
X544125Y99921D01*
X544080Y99809D01*
X544045Y99678D01*
X544020Y99526D01*
X544005Y99354D01*
X544000Y99162D01*
X543000D01*
X542995Y99354D01*
X542980Y99526D01*
X542955Y99678D01*
X542920Y99809D01*
X542875Y99921D01*
X542820Y100012D01*
X542755Y100083D01*
X542680Y100133D01*
X542595Y100163D01*
X542500Y100174D01*
X544500D01*
X544405Y100163D01*
D02*
G37*
G36*
X529405D02*
X529320Y100133D01*
X529245Y100083D01*
X529180Y100012D01*
X529125Y99921D01*
X529080Y99809D01*
X529045Y99678D01*
X529020Y99526D01*
X529005Y99354D01*
X529000Y99162D01*
X528000D01*
X527995Y99354D01*
X527980Y99526D01*
X527955Y99678D01*
X527920Y99809D01*
X527875Y99921D01*
X527820Y100012D01*
X527755Y100083D01*
X527680Y100133D01*
X527595Y100163D01*
X527500Y100174D01*
X529500D01*
X529405Y100163D01*
D02*
G37*
G36*
X582144Y99405D02*
X582175Y99320D01*
X582226Y99245D01*
X582297Y99180D01*
X582388Y99125D01*
X582500Y99080D01*
X582631Y99045D01*
X582782Y99020D01*
X582954Y99005D01*
X583146Y99000D01*
Y98000D01*
X582956Y97998D01*
X582506Y97969D01*
X582396Y97951D01*
X582305Y97929D01*
X582235Y97904D01*
X582186Y97874D01*
X582156Y97841D01*
X582146Y97803D01*
X582133Y99500D01*
X582144Y99405D01*
D02*
G37*
G36*
X562968Y98526D02*
X562883Y98495D01*
X562808Y98445D01*
X562743Y98374D01*
X562688Y98283D01*
X562643Y98172D01*
X562608Y98040D01*
X562583Y97888D01*
X562568Y97716D01*
X562563Y97524D01*
X561563D01*
X561558Y97716D01*
X561543Y97888D01*
X561518Y98040D01*
X561483Y98172D01*
X561438Y98283D01*
X561383Y98374D01*
X561318Y98445D01*
X561243Y98495D01*
X561158Y98526D01*
X561063Y98536D01*
X563063D01*
X562968Y98526D01*
D02*
G37*
G36*
X585536Y97500D02*
X585526Y97595D01*
X585495Y97680D01*
X585445Y97755D01*
X585374Y97820D01*
X585283Y97875D01*
X585172Y97920D01*
X585040Y97955D01*
X584888Y97980D01*
X584716Y97995D01*
X584524Y98000D01*
Y99000D01*
X584716Y99005D01*
X584888Y99020D01*
X585040Y99045D01*
X585172Y99080D01*
X585283Y99125D01*
X585374Y99180D01*
X585445Y99245D01*
X585495Y99320D01*
X585526Y99405D01*
X585536Y99500D01*
Y97500D01*
D02*
G37*
G36*
X506505Y96175D02*
X506522Y96039D01*
X506550Y95907D01*
X506588Y95777D01*
X506637Y95652D01*
X506698Y95529D01*
X506770Y95410D01*
X506852Y95293D01*
X506946Y95181D01*
X507050Y95071D01*
X504950D01*
X505055Y95181D01*
X505148Y95293D01*
X505231Y95410D01*
X505302Y95529D01*
X505363Y95652D01*
X505412Y95777D01*
X505450Y95907D01*
X505478Y96039D01*
X505494Y96175D01*
X505500Y96314D01*
X506500D01*
X506505Y96175D01*
D02*
G37*
G36*
X544005Y95507D02*
X544020Y95337D01*
X544045Y95187D01*
X544080Y95057D01*
X544125Y94947D01*
X544180Y94857D01*
X544245Y94787D01*
X544320Y94737D01*
X544405Y94707D01*
X544500Y94697D01*
X542500D01*
X542595Y94707D01*
X542680Y94737D01*
X542755Y94787D01*
X542820Y94857D01*
X542875Y94947D01*
X542920Y95057D01*
X542955Y95187D01*
X542980Y95337D01*
X542995Y95507D01*
X543000Y95697D01*
X544000D01*
X544005Y95507D01*
D02*
G37*
G36*
X529005D02*
X529020Y95337D01*
X529045Y95187D01*
X529080Y95057D01*
X529125Y94947D01*
X529180Y94857D01*
X529245Y94787D01*
X529320Y94737D01*
X529405Y94707D01*
X529500Y94697D01*
X527500D01*
X527595Y94707D01*
X527680Y94737D01*
X527755Y94787D01*
X527820Y94857D01*
X527875Y94947D01*
X527920Y95057D01*
X527955Y95187D01*
X527980Y95337D01*
X527995Y95507D01*
X528000Y95697D01*
X529000D01*
X529005Y95507D01*
D02*
G37*
G36*
X562568Y94953D02*
X562583Y94781D01*
X562608Y94629D01*
X562643Y94498D01*
X562688Y94387D01*
X562743Y94295D01*
X562808Y94225D01*
X562883Y94174D01*
X562968Y94144D01*
X563063Y94134D01*
X561063D01*
X561158Y94144D01*
X561243Y94174D01*
X561318Y94225D01*
X561383Y94295D01*
X561438Y94387D01*
X561483Y94498D01*
X561518Y94629D01*
X561543Y94781D01*
X561558Y94953D01*
X561563Y95145D01*
X562563D01*
X562568Y94953D01*
D02*
G37*
G36*
X468006Y95175D02*
X468022Y95039D01*
X468049Y94907D01*
X468088Y94778D01*
X468138Y94652D01*
X468198Y94529D01*
X468269Y94410D01*
X468352Y94293D01*
X468445Y94181D01*
X468550Y94071D01*
X466450D01*
X466554Y94181D01*
X466648Y94293D01*
X466730Y94410D01*
X466802Y94529D01*
X466862Y94652D01*
X466912Y94778D01*
X466951Y94907D01*
X466978Y95039D01*
X466994Y95175D01*
X467000Y95314D01*
X468000D01*
X468006Y95175D01*
D02*
G37*
G36*
X137633Y95792D02*
X137438Y95515D01*
X137359Y95380D01*
X137292Y95246D01*
X137238Y95114D01*
X137195Y94985D01*
X137164Y94857D01*
X137146Y94730D01*
X137140Y94606D01*
X136368Y94536D01*
X137140D01*
X137144Y94384D01*
X137156Y94248D01*
X137176Y94128D01*
X137204Y94024D01*
X137240Y93936D01*
X137284Y93864D01*
X137336Y93808D01*
X137396Y93768D01*
X137464Y93744D01*
X137540Y93736D01*
X135940D01*
X136016Y93744D01*
X136084Y93768D01*
X136144Y93808D01*
X136196Y93864D01*
X136240Y93936D01*
X136276Y94024D01*
X136304Y94128D01*
X136324Y94248D01*
X136336Y94384D01*
X136340Y94534D01*
X136333Y94664D01*
X136313Y94792D01*
X136279Y94918D01*
X136231Y95043D01*
X136169Y95165D01*
X136094Y95286D01*
X136005Y95405D01*
X135903Y95522D01*
X135787Y95637D01*
X135657Y95750D01*
X137749Y95933D01*
X137633Y95792D01*
D02*
G37*
G36*
X282516Y93876D02*
X282320Y93601D01*
X282241Y93466D01*
X282173Y93333D01*
X282118Y93202D01*
X282075Y93072D01*
X282045Y92944D01*
X282026Y92818D01*
X282020Y92693D01*
X281220Y92626D01*
X281213Y92756D01*
X281193Y92884D01*
X281159Y93011D01*
X281111Y93136D01*
X281050Y93259D01*
X280975Y93380D01*
X280886Y93500D01*
X280784Y93617D01*
X280668Y93734D01*
X280539Y93848D01*
X282632Y94016D01*
X282516Y93876D01*
D02*
G37*
G36*
X546144Y93842D02*
X546174Y93757D01*
X546225Y93682D01*
X546295Y93617D01*
X546386Y93562D01*
X546498Y93517D01*
X546629Y93482D01*
X546781Y93457D01*
X546953Y93442D01*
X547146Y93437D01*
Y92437D01*
X546953Y92432D01*
X546781Y92417D01*
X546629Y92392D01*
X546498Y92357D01*
X546386Y92312D01*
X546295Y92257D01*
X546225Y92192D01*
X546174Y92117D01*
X546144Y92032D01*
X546134Y91937D01*
Y93937D01*
X546144Y93842D01*
D02*
G37*
G36*
X282024Y92447D02*
X282036Y92311D01*
X282056Y92191D01*
X282084Y92087D01*
X282120Y91999D01*
X282164Y91927D01*
X282216Y91871D01*
X282276Y91831D01*
X282344Y91807D01*
X282420Y91799D01*
X280820D01*
X280896Y91807D01*
X280964Y91831D01*
X281024Y91871D01*
X281076Y91927D01*
X281120Y91999D01*
X281156Y92087D01*
X281184Y92191D01*
X281204Y92311D01*
X281216Y92447D01*
X281220Y92599D01*
X282020D01*
X282024Y92447D01*
D02*
G37*
G36*
X146005Y92378D02*
X146020Y92206D01*
X146045Y92055D01*
X146080Y91923D01*
X146125Y91812D01*
X146180Y91721D01*
X146245Y91650D01*
X146320Y91599D01*
X146405Y91569D01*
X146500Y91559D01*
X144500D01*
X144595Y91569D01*
X144680Y91599D01*
X144755Y91650D01*
X144820Y91721D01*
X144875Y91812D01*
X144920Y91923D01*
X144955Y92055D01*
X144980Y92206D01*
X144995Y92378D01*
X145000Y92571D01*
X146000D01*
X146005Y92378D01*
D02*
G37*
G36*
X107705Y91200D02*
X107697Y91276D01*
X107673Y91344D01*
X107633Y91404D01*
X107577Y91456D01*
X107505Y91500D01*
X107417Y91536D01*
X107313Y91564D01*
X107193Y91584D01*
X107057Y91596D01*
X106905Y91600D01*
Y92400D01*
X107057Y92404D01*
X107193Y92416D01*
X107313Y92436D01*
X107417Y92464D01*
X107505Y92500D01*
X107577Y92544D01*
X107633Y92596D01*
X107673Y92656D01*
X107697Y92724D01*
X107705Y92800D01*
Y91200D01*
D02*
G37*
G36*
X454016Y92376D02*
X453820Y92101D01*
X453741Y91966D01*
X453673Y91833D01*
X453618Y91702D01*
X453575Y91572D01*
X453545Y91444D01*
X453526Y91318D01*
X453520Y91193D01*
X452720Y91126D01*
X452713Y91256D01*
X452693Y91384D01*
X452659Y91511D01*
X452611Y91636D01*
X452550Y91759D01*
X452475Y91880D01*
X452386Y92000D01*
X452284Y92118D01*
X452169Y92234D01*
X452039Y92348D01*
X454132Y92516D01*
X454016Y92376D01*
D02*
G37*
G36*
X103699Y92927D02*
X103826Y92816D01*
X103954Y92718D01*
X104081Y92634D01*
X104208Y92563D01*
X104336Y92504D01*
X104463Y92458D01*
X104591Y92426D01*
X104718Y92406D01*
X104846Y92400D01*
Y91600D01*
X104718Y91593D01*
X104591Y91574D01*
X104463Y91541D01*
X104336Y91496D01*
X104208Y91438D01*
X104081Y91366D01*
X103954Y91281D01*
X103826Y91184D01*
X103699Y91074D01*
X103571Y90950D01*
Y93050D01*
X103699Y92927D01*
D02*
G37*
G36*
X128103Y90874D02*
X128093Y90969D01*
X128062Y91054D01*
X128012Y91129D01*
X127941Y91194D01*
X127850Y91249D01*
X127738Y91294D01*
X127607Y91329D01*
X127455Y91354D01*
X127283Y91369D01*
X127091Y91374D01*
Y92374D01*
X127283Y92379D01*
X127455Y92394D01*
X127607Y92419D01*
X127738Y92454D01*
X127850Y92499D01*
X127941Y92554D01*
X128012Y92619D01*
X128062Y92694D01*
X128093Y92779D01*
X128103Y92874D01*
Y90874D01*
D02*
G37*
G36*
X119293Y92779D02*
X119324Y92694D01*
X119374Y92619D01*
X119445Y92554D01*
X119536Y92499D01*
X119647Y92454D01*
X119779Y92419D01*
X119931Y92394D01*
X120103Y92379D01*
X120295Y92374D01*
Y91374D01*
X120103Y91369D01*
X119931Y91354D01*
X119779Y91329D01*
X119647Y91294D01*
X119536Y91249D01*
X119445Y91194D01*
X119374Y91129D01*
X119324Y91054D01*
X119293Y90969D01*
X119283Y90874D01*
Y92874D01*
X119293Y92779D01*
D02*
G37*
G36*
X560303Y90500D02*
X560293Y90595D01*
X560263Y90680D01*
X560213Y90755D01*
X560143Y90820D01*
X560053Y90875D01*
X559943Y90920D01*
X559813Y90955D01*
X559663Y90980D01*
X559493Y90995D01*
X559303Y91000D01*
Y92000D01*
X559493Y92005D01*
X559663Y92020D01*
X559813Y92045D01*
X559943Y92080D01*
X560053Y92125D01*
X560143Y92180D01*
X560213Y92245D01*
X560263Y92320D01*
X560293Y92405D01*
X560303Y92500D01*
Y90500D01*
D02*
G37*
G36*
X291005Y90441D02*
X291020Y90269D01*
X291045Y90118D01*
X291080Y89986D01*
X291125Y89875D01*
X291180Y89784D01*
X291245Y89713D01*
X291320Y89662D01*
X291405Y89632D01*
X291500Y89622D01*
X289500D01*
X289595Y89632D01*
X289680Y89662D01*
X289755Y89713D01*
X289820Y89784D01*
X289875Y89875D01*
X289920Y89986D01*
X289955Y90118D01*
X289980Y90269D01*
X289995Y90441D01*
X290000Y90634D01*
X291000D01*
X291005Y90441D01*
D02*
G37*
G36*
X453524Y89947D02*
X453536Y89811D01*
X453556Y89691D01*
X453584Y89587D01*
X453620Y89499D01*
X453664Y89427D01*
X453716Y89371D01*
X453776Y89331D01*
X453844Y89307D01*
X453920Y89299D01*
X452320D01*
X452396Y89307D01*
X452464Y89331D01*
X452524Y89371D01*
X452576Y89427D01*
X452620Y89499D01*
X452656Y89587D01*
X452684Y89691D01*
X452704Y89811D01*
X452716Y89947D01*
X452720Y90099D01*
X453520D01*
X453524Y89947D01*
D02*
G37*
G36*
X252705Y89200D02*
X252697Y89276D01*
X252673Y89344D01*
X252633Y89404D01*
X252577Y89456D01*
X252505Y89500D01*
X252417Y89536D01*
X252313Y89564D01*
X252193Y89584D01*
X252057Y89596D01*
X251905Y89600D01*
Y90400D01*
X252057Y90404D01*
X252193Y90416D01*
X252313Y90436D01*
X252417Y90464D01*
X252505Y90500D01*
X252577Y90544D01*
X252633Y90596D01*
X252673Y90656D01*
X252697Y90724D01*
X252705Y90800D01*
Y89200D01*
D02*
G37*
G36*
X571695Y90940D02*
X571725Y90855D01*
X571776Y90780D01*
X571847Y90715D01*
X571938Y90660D01*
X572049Y90615D01*
X572181Y90580D01*
X572332Y90555D01*
X572504Y90540D01*
X572697Y90535D01*
Y89535D01*
X572504Y89530D01*
X572332Y89515D01*
X572181Y89490D01*
X572049Y89455D01*
X571938Y89410D01*
X571847Y89355D01*
X571776Y89290D01*
X571725Y89215D01*
X571695Y89130D01*
X571685Y89035D01*
Y91035D01*
X571695Y90940D01*
D02*
G37*
G36*
X249199Y90926D02*
X249326Y90816D01*
X249453Y90719D01*
X249581Y90634D01*
X249708Y90562D01*
X249836Y90504D01*
X249963Y90459D01*
X250091Y90426D01*
X250218Y90407D01*
X250346Y90400D01*
Y89600D01*
X250218Y89593D01*
X250091Y89574D01*
X249963Y89542D01*
X249836Y89496D01*
X249708Y89438D01*
X249581Y89366D01*
X249453Y89281D01*
X249326Y89184D01*
X249199Y89073D01*
X249071Y88950D01*
Y91050D01*
X249199Y90926D01*
D02*
G37*
G36*
X273103Y88937D02*
X273093Y89032D01*
X273062Y89117D01*
X273012Y89192D01*
X272941Y89257D01*
X272850Y89312D01*
X272738Y89357D01*
X272607Y89392D01*
X272455Y89417D01*
X272283Y89432D01*
X272091Y89437D01*
Y90437D01*
X272283Y90442D01*
X272455Y90457D01*
X272607Y90482D01*
X272738Y90517D01*
X272850Y90562D01*
X272941Y90617D01*
X273012Y90682D01*
X273062Y90757D01*
X273093Y90842D01*
X273103Y90937D01*
Y88937D01*
D02*
G37*
G36*
X264293Y90842D02*
X264324Y90757D01*
X264374Y90682D01*
X264445Y90617D01*
X264536Y90562D01*
X264647Y90517D01*
X264779Y90482D01*
X264931Y90457D01*
X265103Y90442D01*
X265295Y90437D01*
Y89437D01*
X265103Y89432D01*
X264931Y89417D01*
X264779Y89392D01*
X264647Y89357D01*
X264536Y89312D01*
X264445Y89257D01*
X264374Y89192D01*
X264324Y89117D01*
X264293Y89032D01*
X264283Y88937D01*
Y90937D01*
X264293Y90842D01*
D02*
G37*
G36*
X133905Y89825D02*
X133820Y89795D01*
X133745Y89744D01*
X133680Y89673D01*
X133625Y89582D01*
X133580Y89471D01*
X133545Y89339D01*
X133520Y89187D01*
X133505Y89015D01*
X133500Y88823D01*
X132500D01*
X132495Y89015D01*
X132480Y89187D01*
X132455Y89339D01*
X132420Y89471D01*
X132375Y89582D01*
X132320Y89673D01*
X132255Y89744D01*
X132180Y89795D01*
X132095Y89825D01*
X132000Y89835D01*
X134000D01*
X133905Y89825D01*
D02*
G37*
G36*
X118145Y89132D02*
X118060Y89102D01*
X117985Y89051D01*
X117920Y88980D01*
X117865Y88889D01*
X117820Y88778D01*
X117785Y88646D01*
X117760Y88494D01*
X117745Y88322D01*
X117740Y88130D01*
X116740D01*
X116735Y88322D01*
X116720Y88494D01*
X116695Y88646D01*
X116660Y88778D01*
X116615Y88889D01*
X116560Y88980D01*
X116495Y89051D01*
X116420Y89102D01*
X116335Y89132D01*
X116240Y89142D01*
X118240D01*
X118145Y89132D01*
D02*
G37*
G36*
X570842Y88856D02*
X570757Y88826D01*
X570682Y88775D01*
X570617Y88705D01*
X570562Y88613D01*
X570517Y88502D01*
X570482Y88371D01*
X570457Y88219D01*
X570442Y88047D01*
X570437Y87854D01*
X569437D01*
X569432Y88047D01*
X569417Y88219D01*
X569392Y88371D01*
X569357Y88502D01*
X569312Y88613D01*
X569257Y88705D01*
X569192Y88775D01*
X569117Y88826D01*
X569032Y88856D01*
X568937Y88867D01*
X570937D01*
X570842Y88856D01*
D02*
G37*
G36*
X591850Y88081D02*
X591765Y88051D01*
X591690Y88000D01*
X591625Y87929D01*
X591570Y87838D01*
X591525Y87727D01*
X591490Y87595D01*
X591465Y87443D01*
X591450Y87271D01*
X591445Y87079D01*
X590445D01*
X590440Y87271D01*
X590425Y87443D01*
X590400Y87595D01*
X590365Y87727D01*
X590320Y87838D01*
X590265Y87929D01*
X590200Y88000D01*
X590125Y88051D01*
X590040Y88081D01*
X589945Y88091D01*
X591945D01*
X591850Y88081D01*
D02*
G37*
G36*
X278885Y87889D02*
X278813Y87861D01*
X278749Y87814D01*
X278694Y87748D01*
X278647Y87664D01*
X278608Y87560D01*
X278579Y87438D01*
X278557Y87298D01*
X278544Y87138D01*
X278540Y86960D01*
X277540D01*
X277536Y87138D01*
X277523Y87298D01*
X277502Y87438D01*
X277472Y87560D01*
X277434Y87664D01*
X277387Y87748D01*
X277331Y87814D01*
X277267Y87861D01*
X277195Y87889D01*
X277114Y87898D01*
X278966D01*
X278885Y87889D01*
D02*
G37*
G36*
X424205Y86700D02*
X424197Y86776D01*
X424173Y86844D01*
X424133Y86904D01*
X424077Y86956D01*
X424005Y87000D01*
X423917Y87036D01*
X423813Y87064D01*
X423693Y87084D01*
X423557Y87096D01*
X423405Y87100D01*
Y87900D01*
X423557Y87904D01*
X423693Y87916D01*
X423813Y87936D01*
X423917Y87964D01*
X424005Y88000D01*
X424077Y88044D01*
X424133Y88096D01*
X424173Y88156D01*
X424197Y88224D01*
X424205Y88300D01*
Y86700D01*
D02*
G37*
G36*
X421199Y88427D02*
X421326Y88316D01*
X421454Y88218D01*
X421581Y88134D01*
X421708Y88063D01*
X421836Y88004D01*
X421963Y87959D01*
X422091Y87926D01*
X422218Y87906D01*
X422346Y87900D01*
Y87100D01*
X422218Y87094D01*
X422091Y87074D01*
X421963Y87041D01*
X421836Y86996D01*
X421708Y86937D01*
X421581Y86866D01*
X421454Y86782D01*
X421326Y86684D01*
X421199Y86573D01*
X421071Y86450D01*
Y88550D01*
X421199Y88427D01*
D02*
G37*
G36*
X444603Y86437D02*
X444593Y86532D01*
X444562Y86617D01*
X444512Y86692D01*
X444441Y86757D01*
X444350Y86812D01*
X444238Y86857D01*
X444107Y86892D01*
X443955Y86917D01*
X443783Y86932D01*
X443591Y86937D01*
Y87937D01*
X443783Y87942D01*
X443955Y87957D01*
X444107Y87982D01*
X444238Y88017D01*
X444350Y88062D01*
X444441Y88117D01*
X444512Y88182D01*
X444562Y88257D01*
X444593Y88342D01*
X444603Y88437D01*
Y86437D01*
D02*
G37*
G36*
X435793Y88342D02*
X435824Y88257D01*
X435874Y88182D01*
X435945Y88117D01*
X436036Y88062D01*
X436147Y88017D01*
X436279Y87982D01*
X436431Y87957D01*
X436603Y87942D01*
X436795Y87937D01*
Y86937D01*
X436603Y86932D01*
X436431Y86917D01*
X436279Y86892D01*
X436147Y86857D01*
X436036Y86812D01*
X435945Y86757D01*
X435874Y86692D01*
X435824Y86617D01*
X435793Y86532D01*
X435783Y86437D01*
Y88437D01*
X435793Y88342D01*
D02*
G37*
G36*
X263145Y87195D02*
X263060Y87165D01*
X262985Y87114D01*
X262920Y87043D01*
X262865Y86952D01*
X262820Y86841D01*
X262785Y86709D01*
X262760Y86557D01*
X262745Y86385D01*
X262740Y86193D01*
X261740D01*
X261735Y86385D01*
X261720Y86557D01*
X261695Y86709D01*
X261660Y86841D01*
X261615Y86952D01*
X261560Y87043D01*
X261495Y87114D01*
X261420Y87165D01*
X261335Y87195D01*
X261240Y87205D01*
X263240D01*
X263145Y87195D01*
D02*
G37*
G36*
X463005Y86504D02*
X463020Y86332D01*
X463045Y86181D01*
X463080Y86049D01*
X463125Y85938D01*
X463180Y85847D01*
X463245Y85776D01*
X463320Y85725D01*
X463405Y85695D01*
X463500Y85685D01*
X461500D01*
X461595Y85695D01*
X461680Y85725D01*
X461755Y85776D01*
X461820Y85847D01*
X461875Y85938D01*
X461920Y86049D01*
X461955Y86181D01*
X461980Y86332D01*
X461995Y86504D01*
X462000Y86697D01*
X463000D01*
X463005Y86504D01*
D02*
G37*
G36*
X450405Y85388D02*
X450320Y85357D01*
X450245Y85307D01*
X450180Y85236D01*
X450125Y85145D01*
X450080Y85034D01*
X450045Y84902D01*
X450020Y84750D01*
X450005Y84578D01*
X450000Y84386D01*
X449000D01*
X448995Y84578D01*
X448980Y84750D01*
X448955Y84902D01*
X448920Y85034D01*
X448875Y85145D01*
X448820Y85236D01*
X448755Y85307D01*
X448680Y85357D01*
X448595Y85388D01*
X448500Y85398D01*
X450500D01*
X450405Y85388D01*
D02*
G37*
G36*
X584008Y86159D02*
X584369Y85853D01*
X584530Y85741D01*
X584678Y85656D01*
X584813Y85597D01*
X584935Y85566D01*
X585043Y85561D01*
X585139Y85584D01*
X585221Y85633D01*
X583689Y84361D01*
X583750Y84432D01*
X583782Y84519D01*
X583784Y84621D01*
X583757Y84739D01*
X583700Y84872D01*
X583613Y85022D01*
X583497Y85187D01*
X583351Y85367D01*
X582970Y85775D01*
X583807Y86353D01*
X584008Y86159D01*
D02*
G37*
G36*
X546142Y85787D02*
X546166Y85719D01*
X546207Y85659D01*
X546263Y85607D01*
X546337Y85563D01*
X546426Y85527D01*
X546531Y85499D01*
X546653Y85479D01*
X546791Y85467D01*
X546945Y85463D01*
Y84663D01*
X546791Y84659D01*
X546653Y84647D01*
X546531Y84627D01*
X546426Y84599D01*
X546337Y84563D01*
X546263Y84519D01*
X546207Y84467D01*
X546166Y84407D01*
X546142Y84339D01*
X546134Y84263D01*
Y85863D01*
X546142Y85787D01*
D02*
G37*
G36*
X118874Y84949D02*
X118889Y84777D01*
X118914Y84625D01*
X118949Y84494D01*
X118994Y84383D01*
X119049Y84291D01*
X119114Y84221D01*
X119189Y84170D01*
X119274Y84140D01*
X119369Y84130D01*
X117369D01*
X117464Y84140D01*
X117549Y84170D01*
X117624Y84221D01*
X117689Y84291D01*
X117744Y84383D01*
X117789Y84494D01*
X117824Y84625D01*
X117849Y84777D01*
X117864Y84949D01*
X117869Y85141D01*
X118869D01*
X118874Y84949D01*
D02*
G37*
G36*
X531144Y85905D02*
X531174Y85820D01*
X531225Y85745D01*
X531295Y85680D01*
X531387Y85625D01*
X531498Y85580D01*
X531629Y85545D01*
X531781Y85520D01*
X531953Y85505D01*
X532146Y85500D01*
Y84500D01*
X531953Y84495D01*
X531781Y84480D01*
X531629Y84455D01*
X531498Y84420D01*
X531387Y84375D01*
X531295Y84320D01*
X531225Y84255D01*
X531174Y84180D01*
X531144Y84095D01*
X531134Y84000D01*
Y86000D01*
X531144Y85905D01*
D02*
G37*
G36*
X549386Y83996D02*
X549265Y84123D01*
X549143Y84236D01*
X549021Y84336D01*
X548898Y84423D01*
X548773Y84496D01*
X548648Y84556D01*
X548522Y84603D01*
X548395Y84636D01*
X548267Y84656D01*
X548138Y84663D01*
X548173Y85463D01*
X548299Y85469D01*
X548426Y85488D01*
X548554Y85520D01*
X548683Y85564D01*
X548812Y85621D01*
X548943Y85690D01*
X549074Y85772D01*
X549206Y85867D01*
X549340Y85974D01*
X549474Y86094D01*
X549386Y83996D01*
D02*
G37*
G36*
X533429Y83950D02*
X533319Y84054D01*
X533207Y84148D01*
X533090Y84231D01*
X532971Y84302D01*
X532849Y84363D01*
X532723Y84412D01*
X532593Y84451D01*
X532461Y84478D01*
X532325Y84495D01*
X532186Y84500D01*
Y85500D01*
X532325Y85505D01*
X532461Y85522D01*
X532593Y85549D01*
X532723Y85588D01*
X532849Y85637D01*
X532971Y85698D01*
X533090Y85769D01*
X533207Y85852D01*
X533319Y85945D01*
X533429Y86050D01*
Y83950D01*
D02*
G37*
G36*
X434645Y84695D02*
X434560Y84665D01*
X434485Y84614D01*
X434420Y84543D01*
X434365Y84452D01*
X434320Y84341D01*
X434285Y84209D01*
X434260Y84057D01*
X434245Y83885D01*
X434240Y83693D01*
X433240D01*
X433235Y83885D01*
X433220Y84057D01*
X433195Y84209D01*
X433160Y84341D01*
X433115Y84452D01*
X433060Y84543D01*
X432995Y84614D01*
X432920Y84665D01*
X432835Y84695D01*
X432740Y84705D01*
X434740D01*
X434645Y84695D01*
D02*
G37*
G36*
X263874Y83012D02*
X263889Y82840D01*
X263914Y82688D01*
X263949Y82557D01*
X263994Y82446D01*
X264049Y82354D01*
X264114Y82284D01*
X264189Y82233D01*
X264274Y82203D01*
X264369Y82192D01*
X262369D01*
X262464Y82203D01*
X262549Y82233D01*
X262624Y82284D01*
X262689Y82354D01*
X262744Y82446D01*
X262789Y82557D01*
X262824Y82688D01*
X262849Y82840D01*
X262864Y83012D01*
X262869Y83205D01*
X263869D01*
X263874Y83012D01*
D02*
G37*
G36*
X587207Y83905D02*
X587237Y83820D01*
X587287Y83745D01*
X587357Y83680D01*
X587447Y83625D01*
X587557Y83580D01*
X587687Y83545D01*
X587837Y83520D01*
X588007Y83505D01*
X588197Y83500D01*
Y82500D01*
X588007Y82495D01*
X587837Y82480D01*
X587687Y82455D01*
X587557Y82420D01*
X587447Y82375D01*
X587357Y82320D01*
X587287Y82255D01*
X587237Y82180D01*
X587207Y82095D01*
X587197Y82000D01*
Y84000D01*
X587207Y83905D01*
D02*
G37*
G36*
X142867Y80937D02*
X142856Y81032D01*
X142826Y81117D01*
X142775Y81192D01*
X142705Y81257D01*
X142613Y81312D01*
X142502Y81357D01*
X142371Y81392D01*
X142219Y81417D01*
X142047Y81432D01*
X141855Y81437D01*
Y82437D01*
X142047Y82442D01*
X142219Y82457D01*
X142371Y82482D01*
X142502Y82517D01*
X142613Y82562D01*
X142705Y82617D01*
X142775Y82682D01*
X142826Y82757D01*
X142856Y82842D01*
X142867Y82937D01*
Y80937D01*
D02*
G37*
G36*
X119433Y81608D02*
X119348Y81578D01*
X119273Y81527D01*
X119208Y81457D01*
X119153Y81366D01*
X119108Y81254D01*
X119073Y81123D01*
X119048Y80971D01*
X119033Y80799D01*
X119028Y80607D01*
X118028D01*
X118023Y80799D01*
X118008Y80971D01*
X117983Y81123D01*
X117948Y81254D01*
X117903Y81366D01*
X117848Y81457D01*
X117783Y81527D01*
X117708Y81578D01*
X117623Y81608D01*
X117528Y81618D01*
X119528D01*
X119433Y81608D01*
D02*
G37*
G36*
X110968D02*
X110883Y81578D01*
X110808Y81527D01*
X110743Y81457D01*
X110688Y81366D01*
X110643Y81254D01*
X110608Y81123D01*
X110583Y80971D01*
X110568Y80799D01*
X110563Y80607D01*
X109563D01*
X109558Y80799D01*
X109543Y80971D01*
X109518Y81123D01*
X109483Y81254D01*
X109438Y81366D01*
X109383Y81457D01*
X109318Y81527D01*
X109243Y81578D01*
X109158Y81608D01*
X109063Y81618D01*
X111063D01*
X110968Y81608D01*
D02*
G37*
G36*
X435374Y80512D02*
X435389Y80340D01*
X435414Y80188D01*
X435449Y80057D01*
X435494Y79945D01*
X435549Y79855D01*
X435614Y79784D01*
X435689Y79733D01*
X435774Y79703D01*
X435869Y79693D01*
X433869D01*
X433964Y79703D01*
X434049Y79733D01*
X434124Y79784D01*
X434189Y79855D01*
X434244Y79945D01*
X434289Y80057D01*
X434324Y80188D01*
X434349Y80340D01*
X434364Y80512D01*
X434369Y80704D01*
X435369D01*
X435374Y80512D01*
D02*
G37*
G36*
X578224Y80358D02*
X578156Y80334D01*
X578096Y80293D01*
X578044Y80237D01*
X578000Y80164D01*
X577964Y80074D01*
X577936Y79969D01*
X577916Y79847D01*
X577904Y79709D01*
X577900Y79554D01*
X577100D01*
X577096Y79709D01*
X577084Y79847D01*
X577064Y79969D01*
X577036Y80074D01*
X577000Y80164D01*
X576956Y80237D01*
X576904Y80293D01*
X576844Y80334D01*
X576776Y80358D01*
X576700Y80366D01*
X578300D01*
X578224Y80358D01*
D02*
G37*
G36*
X287866Y79000D02*
X287856Y79095D01*
X287826Y79180D01*
X287775Y79255D01*
X287705Y79320D01*
X287614Y79375D01*
X287502Y79420D01*
X287371Y79455D01*
X287219Y79480D01*
X287047Y79495D01*
X286855Y79500D01*
Y80500D01*
X287047Y80505D01*
X287219Y80520D01*
X287371Y80545D01*
X287502Y80580D01*
X287614Y80625D01*
X287705Y80680D01*
X287775Y80745D01*
X287826Y80820D01*
X287856Y80905D01*
X287866Y81000D01*
Y79000D01*
D02*
G37*
G36*
X264433Y79671D02*
X264348Y79641D01*
X264273Y79590D01*
X264208Y79520D01*
X264153Y79428D01*
X264108Y79317D01*
X264073Y79186D01*
X264048Y79034D01*
X264033Y78862D01*
X264028Y78670D01*
X263028D01*
X263023Y78862D01*
X263008Y79034D01*
X262983Y79186D01*
X262948Y79317D01*
X262903Y79428D01*
X262848Y79520D01*
X262783Y79590D01*
X262708Y79641D01*
X262623Y79671D01*
X262528Y79681D01*
X264528D01*
X264433Y79671D01*
D02*
G37*
G36*
X255968D02*
X255883Y79641D01*
X255808Y79590D01*
X255743Y79520D01*
X255688Y79428D01*
X255643Y79317D01*
X255608Y79186D01*
X255583Y79034D01*
X255568Y78862D01*
X255563Y78670D01*
X254563D01*
X254558Y78862D01*
X254543Y79034D01*
X254518Y79186D01*
X254483Y79317D01*
X254438Y79428D01*
X254383Y79520D01*
X254318Y79590D01*
X254243Y79641D01*
X254158Y79671D01*
X254063Y79681D01*
X256063D01*
X255968Y79671D01*
D02*
G37*
G36*
X515681Y79945D02*
X515794Y79852D01*
X515909Y79769D01*
X516029Y79698D01*
X516152Y79637D01*
X516278Y79588D01*
X516407Y79549D01*
X516539Y79522D01*
X516675Y79505D01*
X516814Y79500D01*
Y78500D01*
X516675Y78495D01*
X516539Y78478D01*
X516407Y78451D01*
X516278Y78412D01*
X516152Y78363D01*
X516029Y78302D01*
X515909Y78231D01*
X515794Y78148D01*
X515681Y78054D01*
X515571Y77950D01*
Y80050D01*
X515681Y79945D01*
D02*
G37*
G36*
X129905Y78013D02*
X129820Y77982D01*
X129745Y77932D01*
X129680Y77861D01*
X129625Y77769D01*
X129580Y77658D01*
X129545Y77527D01*
X129520Y77375D01*
X129505Y77204D01*
X129500Y77012D01*
X128500D01*
X128496Y77202D01*
X128463Y77522D01*
X128435Y77652D01*
X128398Y77762D01*
X128353Y77852D01*
X128299Y77922D01*
X128238Y77972D01*
X128168Y78002D01*
X128091Y78012D01*
X130000Y78024D01*
X129905Y78013D01*
D02*
G37*
G36*
X118442Y77327D02*
X118457Y77155D01*
X118482Y77003D01*
X118517Y76872D01*
X118562Y76761D01*
X118617Y76669D01*
X118682Y76599D01*
X118757Y76548D01*
X118842Y76518D01*
X118937Y76508D01*
X116937D01*
X117032Y76518D01*
X117117Y76548D01*
X117192Y76599D01*
X117257Y76669D01*
X117312Y76761D01*
X117357Y76872D01*
X117392Y77003D01*
X117417Y77155D01*
X117432Y77327D01*
X117437Y77520D01*
X118437D01*
X118442Y77327D01*
D02*
G37*
G36*
X110568D02*
X110583Y77155D01*
X110608Y77003D01*
X110643Y76872D01*
X110688Y76761D01*
X110743Y76669D01*
X110808Y76599D01*
X110883Y76548D01*
X110968Y76518D01*
X111063Y76508D01*
X109063D01*
X109158Y76518D01*
X109243Y76548D01*
X109318Y76599D01*
X109383Y76669D01*
X109438Y76761D01*
X109483Y76872D01*
X109518Y77003D01*
X109543Y77155D01*
X109558Y77327D01*
X109563Y77520D01*
X110563D01*
X110568Y77327D01*
D02*
G37*
G36*
X435933Y77171D02*
X435848Y77141D01*
X435773Y77090D01*
X435708Y77020D01*
X435653Y76929D01*
X435608Y76817D01*
X435573Y76686D01*
X435548Y76534D01*
X435533Y76362D01*
X435528Y76170D01*
X434528D01*
X434523Y76362D01*
X434508Y76534D01*
X434483Y76686D01*
X434448Y76817D01*
X434403Y76929D01*
X434348Y77020D01*
X434283Y77090D01*
X434208Y77141D01*
X434123Y77171D01*
X434028Y77182D01*
X436028D01*
X435933Y77171D01*
D02*
G37*
G36*
X426877D02*
X426792Y77141D01*
X426717Y77090D01*
X426652Y77020D01*
X426597Y76929D01*
X426552Y76817D01*
X426517Y76686D01*
X426492Y76534D01*
X426477Y76362D01*
X426472Y76170D01*
X425472D01*
X425467Y76362D01*
X425452Y76534D01*
X425427Y76686D01*
X425392Y76817D01*
X425347Y76929D01*
X425292Y77020D01*
X425227Y77090D01*
X425152Y77141D01*
X425067Y77171D01*
X424972Y77182D01*
X426972D01*
X426877Y77171D01*
D02*
G37*
G36*
X577907Y77218D02*
X577926Y77091D01*
X577958Y76963D01*
X578004Y76836D01*
X578062Y76708D01*
X578134Y76581D01*
X578219Y76454D01*
X578316Y76326D01*
X578427Y76199D01*
X578550Y76071D01*
X576450D01*
X576574Y76199D01*
X576684Y76326D01*
X576782Y76454D01*
X576866Y76581D01*
X576937Y76708D01*
X576996Y76836D01*
X577041Y76963D01*
X577074Y77091D01*
X577094Y77218D01*
X577100Y77346D01*
X577900D01*
X577907Y77218D01*
D02*
G37*
G36*
X275165Y76077D02*
X275080Y76047D01*
X275005Y75996D01*
X274940Y75925D01*
X274885Y75834D01*
X274840Y75723D01*
X274805Y75591D01*
X274780Y75439D01*
X274765Y75267D01*
X274760Y75075D01*
X273760D01*
X273755Y75267D01*
X273740Y75439D01*
X273715Y75591D01*
X273680Y75723D01*
X273635Y75834D01*
X273580Y75925D01*
X273515Y75996D01*
X273440Y76047D01*
X273355Y76077D01*
X273260Y76087D01*
X275260D01*
X275165Y76077D01*
D02*
G37*
G36*
X459867Y75063D02*
X459856Y75158D01*
X459826Y75243D01*
X459775Y75318D01*
X459705Y75383D01*
X459614Y75438D01*
X459502Y75483D01*
X459371Y75518D01*
X459219Y75543D01*
X459047Y75558D01*
X458854Y75563D01*
Y76563D01*
X459047Y76568D01*
X459219Y76583D01*
X459371Y76608D01*
X459502Y76643D01*
X459614Y76688D01*
X459705Y76743D01*
X459775Y76808D01*
X459826Y76883D01*
X459856Y76968D01*
X459867Y77063D01*
Y75063D01*
D02*
G37*
G36*
X454407Y76968D02*
X454438Y76883D01*
X454488Y76808D01*
X454559Y76743D01*
X454650Y76688D01*
X454762Y76643D01*
X454893Y76608D01*
X455045Y76583D01*
X455217Y76568D01*
X455409Y76563D01*
Y75563D01*
X455217Y75558D01*
X455045Y75543D01*
X454893Y75518D01*
X454762Y75483D01*
X454650Y75438D01*
X454559Y75383D01*
X454488Y75318D01*
X454438Y75243D01*
X454407Y75158D01*
X454397Y75063D01*
Y77063D01*
X454407Y76968D01*
D02*
G37*
G36*
X263442Y75390D02*
X263457Y75218D01*
X263482Y75066D01*
X263517Y74935D01*
X263562Y74823D01*
X263617Y74732D01*
X263682Y74662D01*
X263757Y74611D01*
X263842Y74581D01*
X263937Y74571D01*
X261937D01*
X262032Y74581D01*
X262117Y74611D01*
X262192Y74662D01*
X262257Y74732D01*
X262312Y74823D01*
X262357Y74935D01*
X262392Y75066D01*
X262417Y75218D01*
X262432Y75390D01*
X262437Y75582D01*
X263437D01*
X263442Y75390D01*
D02*
G37*
G36*
X255568D02*
X255583Y75218D01*
X255608Y75066D01*
X255643Y74935D01*
X255688Y74823D01*
X255743Y74732D01*
X255808Y74662D01*
X255883Y74611D01*
X255968Y74581D01*
X256063Y74571D01*
X254063D01*
X254158Y74581D01*
X254243Y74611D01*
X254318Y74662D01*
X254383Y74732D01*
X254438Y74823D01*
X254483Y74935D01*
X254518Y75066D01*
X254543Y75218D01*
X254558Y75390D01*
X254563Y75582D01*
X255563D01*
X255568Y75390D01*
D02*
G37*
G36*
X129698Y74926D02*
X129713Y74755D01*
X129738Y74603D01*
X129773Y74472D01*
X129818Y74361D01*
X129873Y74270D01*
X129938Y74199D01*
X130013Y74148D01*
X130098Y74117D01*
X130193Y74106D01*
X128705Y74118D01*
X128703Y74128D01*
X128701Y74158D01*
X128694Y74608D01*
X128693Y75118D01*
X129693D01*
X129698Y74926D01*
D02*
G37*
G36*
X108315Y73500D02*
X108305Y73595D01*
X108275Y73680D01*
X108224Y73755D01*
X108153Y73820D01*
X108062Y73875D01*
X107951Y73920D01*
X107819Y73955D01*
X107668Y73980D01*
X107496Y73995D01*
X107303Y74000D01*
Y75000D01*
X107496Y75005D01*
X107668Y75020D01*
X107819Y75045D01*
X107951Y75080D01*
X108062Y75125D01*
X108153Y75180D01*
X108224Y75245D01*
X108275Y75320D01*
X108305Y75405D01*
X108315Y75500D01*
Y73500D01*
D02*
G37*
G36*
X578427Y73801D02*
X578316Y73674D01*
X578219Y73546D01*
X578134Y73419D01*
X578062Y73292D01*
X578004Y73164D01*
X577958Y73037D01*
X577926Y72909D01*
X577907Y72782D01*
X577900Y72654D01*
X577100D01*
X577094Y72782D01*
X577074Y72909D01*
X577041Y73037D01*
X576996Y73164D01*
X576937Y73292D01*
X576866Y73419D01*
X576782Y73546D01*
X576684Y73674D01*
X576574Y73801D01*
X576450Y73929D01*
X578550D01*
X578427Y73801D01*
D02*
G37*
G36*
X446405Y73576D02*
X446320Y73545D01*
X446245Y73495D01*
X446180Y73424D01*
X446125Y73332D01*
X446080Y73221D01*
X446045Y73090D01*
X446020Y72938D01*
X446005Y72767D01*
X446000Y72575D01*
X445000D01*
X444996Y72765D01*
X444963Y73085D01*
X444935Y73215D01*
X444898Y73325D01*
X444853Y73415D01*
X444800Y73485D01*
X444738Y73535D01*
X444668Y73565D01*
X444591Y73575D01*
X446500Y73587D01*
X446405Y73576D01*
D02*
G37*
G36*
X274765Y72989D02*
X274780Y72818D01*
X274805Y72666D01*
X274840Y72535D01*
X274885Y72424D01*
X274940Y72333D01*
X275005Y72262D01*
X275080Y72211D01*
X275165Y72180D01*
X275260Y72169D01*
X273705Y72181D01*
X273715Y72191D01*
X273725Y72221D01*
X273733Y72271D01*
X273740Y72341D01*
X273755Y72671D01*
X273760Y73181D01*
X274760D01*
X274765Y72989D01*
D02*
G37*
G36*
X434942Y72890D02*
X434957Y72718D01*
X434982Y72566D01*
X435017Y72435D01*
X435062Y72324D01*
X435117Y72232D01*
X435182Y72162D01*
X435257Y72111D01*
X435342Y72081D01*
X435437Y72070D01*
X433437D01*
X433532Y72081D01*
X433617Y72111D01*
X433692Y72162D01*
X433757Y72232D01*
X433812Y72324D01*
X433857Y72435D01*
X433892Y72566D01*
X433917Y72718D01*
X433932Y72890D01*
X433937Y73083D01*
X434937D01*
X434942Y72890D01*
D02*
G37*
G36*
X426477D02*
X426492Y72718D01*
X426517Y72566D01*
X426552Y72435D01*
X426597Y72324D01*
X426652Y72232D01*
X426717Y72162D01*
X426792Y72111D01*
X426877Y72081D01*
X426972Y72070D01*
X424972D01*
X425067Y72081D01*
X425152Y72111D01*
X425227Y72162D01*
X425292Y72232D01*
X425347Y72324D01*
X425392Y72435D01*
X425427Y72566D01*
X425452Y72718D01*
X425467Y72890D01*
X425472Y73083D01*
X426472D01*
X426477Y72890D01*
D02*
G37*
G36*
X604547Y73114D02*
X604431Y73028D01*
X604327Y72937D01*
X604236Y72838D01*
X604157Y72734D01*
X604089Y72623D01*
X604035Y72506D01*
X603992Y72383D01*
X603961Y72253D01*
X603943Y72117D01*
X603937Y71975D01*
X602937Y72170D01*
X602932Y72305D01*
X602919Y72439D01*
X602896Y72573D01*
X602864Y72706D01*
X602823Y72839D01*
X602773Y72971D01*
X602714Y73102D01*
X602645Y73233D01*
X602568Y73363D01*
X602481Y73492D01*
X604547Y73114D01*
D02*
G37*
G36*
X521717Y71700D02*
X521709Y71776D01*
X521684Y71844D01*
X521644Y71904D01*
X521587Y71956D01*
X521514Y72000D01*
X521425Y72036D01*
X521319Y72064D01*
X521197Y72084D01*
X521059Y72096D01*
X520905Y72100D01*
Y72900D01*
X521059Y72904D01*
X521197Y72916D01*
X521319Y72936D01*
X521425Y72964D01*
X521514Y73000D01*
X521587Y73044D01*
X521644Y73096D01*
X521684Y73156D01*
X521709Y73224D01*
X521717Y73300D01*
Y71700D01*
D02*
G37*
G36*
X533305Y73405D02*
X533335Y73320D01*
X533385Y73245D01*
X533455Y73180D01*
X533545Y73125D01*
X533655Y73080D01*
X533785Y73045D01*
X533935Y73020D01*
X534105Y73005D01*
X534295Y73000D01*
Y72000D01*
X534105Y71995D01*
X533935Y71980D01*
X533785Y71955D01*
X533655Y71920D01*
X533545Y71875D01*
X533455Y71820D01*
X533385Y71755D01*
X533335Y71680D01*
X533305Y71595D01*
X533295Y71500D01*
Y73500D01*
X533305Y73405D01*
D02*
G37*
G36*
X536429Y71450D02*
X536319Y71554D01*
X536206Y71648D01*
X536091Y71731D01*
X535971Y71802D01*
X535849Y71863D01*
X535722Y71912D01*
X535593Y71951D01*
X535461Y71978D01*
X535325Y71995D01*
X535186Y72000D01*
Y73000D01*
X535325Y73005D01*
X535461Y73022D01*
X535593Y73049D01*
X535722Y73088D01*
X535849Y73137D01*
X535971Y73198D01*
X536091Y73269D01*
X536206Y73352D01*
X536319Y73445D01*
X536429Y73550D01*
Y71450D01*
D02*
G37*
G36*
X513699Y73427D02*
X513826Y73316D01*
X513953Y73219D01*
X514081Y73134D01*
X514208Y73062D01*
X514336Y73004D01*
X514463Y72958D01*
X514591Y72926D01*
X514718Y72907D01*
X514846Y72900D01*
Y72100D01*
X514718Y72093D01*
X514591Y72074D01*
X514463Y72041D01*
X514336Y71996D01*
X514208Y71938D01*
X514081Y71866D01*
X513953Y71781D01*
X513826Y71684D01*
X513699Y71574D01*
X513571Y71450D01*
Y73550D01*
X513699Y73427D01*
D02*
G37*
G36*
X253315Y70937D02*
X253305Y71032D01*
X253275Y71117D01*
X253224Y71192D01*
X253153Y71257D01*
X253062Y71312D01*
X252951Y71357D01*
X252819Y71392D01*
X252668Y71417D01*
X252496Y71432D01*
X252303Y71437D01*
Y72437D01*
X252496Y72442D01*
X252668Y72457D01*
X252819Y72482D01*
X252951Y72517D01*
X253062Y72562D01*
X253153Y72617D01*
X253224Y72682D01*
X253275Y72757D01*
X253305Y72842D01*
X253315Y72937D01*
Y70937D01*
D02*
G37*
G36*
X140303Y72098D02*
X140327Y72030D01*
X140367Y71970D01*
X140423Y71918D01*
X140495Y71874D01*
X140583Y71838D01*
X140687Y71810D01*
X140807Y71790D01*
X140943Y71778D01*
X141095Y71774D01*
Y70974D01*
X140943Y70970D01*
X140807Y70958D01*
X140687Y70938D01*
X140583Y70910D01*
X140495Y70874D01*
X140423Y70830D01*
X140367Y70778D01*
X140327Y70718D01*
X140303Y70650D01*
X140295Y70574D01*
Y72174D01*
X140303Y72098D01*
D02*
G37*
G36*
X111405Y71230D02*
X111320Y71200D01*
X111245Y71149D01*
X111180Y71079D01*
X111125Y70987D01*
X111080Y70876D01*
X111045Y70745D01*
X111020Y70593D01*
X111005Y70421D01*
X111000Y70228D01*
X110000D01*
X109995Y70421D01*
X109980Y70593D01*
X109955Y70745D01*
X109920Y70876D01*
X109875Y70987D01*
X109820Y71079D01*
X109755Y71149D01*
X109680Y71200D01*
X109595Y71230D01*
X109500Y71241D01*
X111500D01*
X111405Y71230D01*
D02*
G37*
G36*
X577904Y70677D02*
X577916Y70539D01*
X577936Y70417D01*
X577964Y70312D01*
X578000Y70222D01*
X578044Y70149D01*
X578096Y70092D01*
X578156Y70052D01*
X578224Y70027D01*
X578300Y70019D01*
X576700D01*
X576776Y70027D01*
X576844Y70052D01*
X576904Y70092D01*
X576956Y70149D01*
X577000Y70222D01*
X577036Y70312D01*
X577064Y70417D01*
X577084Y70539D01*
X577096Y70677D01*
X577100Y70831D01*
X577900D01*
X577904Y70677D01*
D02*
G37*
G36*
X592061Y70031D02*
X591863Y69826D01*
X591552Y69459D01*
X591439Y69296D01*
X591354Y69147D01*
X591298Y69013D01*
X591269Y68893D01*
Y68787D01*
X591298Y68695D01*
X591354Y68617D01*
X589940Y70031D01*
X590018Y69975D01*
X590110Y69946D01*
X590216D01*
X590336Y69975D01*
X590470Y70031D01*
X590619Y70116D01*
X590781Y70229D01*
X590958Y70371D01*
X591354Y70738D01*
X592061Y70031D01*
D02*
G37*
G36*
X446198Y70489D02*
X446213Y70318D01*
X446238Y70166D01*
X446273Y70035D01*
X446318Y69924D01*
X446373Y69833D01*
X446438Y69762D01*
X446513Y69711D01*
X446598Y69680D01*
X446693Y69669D01*
X445205Y69681D01*
X445203Y69691D01*
X445201Y69721D01*
X445194Y70171D01*
X445193Y70681D01*
X446193D01*
X446198Y70489D01*
D02*
G37*
G36*
X603942Y69953D02*
X603957Y69781D01*
X603982Y69629D01*
X604017Y69498D01*
X604062Y69387D01*
X604117Y69295D01*
X604182Y69225D01*
X604257Y69174D01*
X604342Y69144D01*
X604437Y69134D01*
X602437D01*
X602532Y69144D01*
X602617Y69174D01*
X602692Y69225D01*
X602757Y69295D01*
X602812Y69387D01*
X602857Y69498D01*
X602892Y69629D01*
X602917Y69781D01*
X602932Y69953D01*
X602937Y70145D01*
X603937D01*
X603942Y69953D01*
D02*
G37*
G36*
X532145Y69758D02*
X532060Y69728D01*
X531985Y69677D01*
X531920Y69606D01*
X531865Y69515D01*
X531820Y69404D01*
X531785Y69272D01*
X531760Y69120D01*
X531745Y68948D01*
X531740Y68756D01*
X530740D01*
X530735Y68948D01*
X530720Y69120D01*
X530695Y69272D01*
X530660Y69404D01*
X530615Y69515D01*
X530560Y69606D01*
X530495Y69677D01*
X530420Y69728D01*
X530335Y69758D01*
X530240Y69768D01*
X532240D01*
X532145Y69758D01*
D02*
G37*
G36*
X285303Y70161D02*
X285327Y70093D01*
X285367Y70033D01*
X285423Y69981D01*
X285495Y69937D01*
X285583Y69901D01*
X285687Y69873D01*
X285807Y69853D01*
X285943Y69841D01*
X286095Y69837D01*
Y69037D01*
X285943Y69033D01*
X285807Y69021D01*
X285687Y69001D01*
X285583Y68973D01*
X285495Y68937D01*
X285423Y68893D01*
X285367Y68841D01*
X285327Y68781D01*
X285303Y68713D01*
X285295Y68637D01*
Y70237D01*
X285303Y70161D01*
D02*
G37*
G36*
X424815Y68437D02*
X424805Y68532D01*
X424775Y68617D01*
X424724Y68692D01*
X424653Y68757D01*
X424562Y68812D01*
X424451Y68857D01*
X424320Y68892D01*
X424168Y68917D01*
X423996Y68932D01*
X423803Y68937D01*
Y69937D01*
X423996Y69942D01*
X424168Y69957D01*
X424320Y69982D01*
X424451Y70017D01*
X424562Y70062D01*
X424653Y70117D01*
X424724Y70182D01*
X424775Y70257D01*
X424805Y70342D01*
X424815Y70437D01*
Y68437D01*
D02*
G37*
G36*
X256405Y69293D02*
X256320Y69263D01*
X256245Y69213D01*
X256180Y69142D01*
X256125Y69051D01*
X256080Y68939D01*
X256045Y68808D01*
X256020Y68656D01*
X256005Y68484D01*
X256000Y68291D01*
X255000D01*
X254995Y68484D01*
X254980Y68656D01*
X254955Y68808D01*
X254920Y68939D01*
X254875Y69051D01*
X254820Y69142D01*
X254755Y69213D01*
X254680Y69263D01*
X254595Y69293D01*
X254500Y69304D01*
X256500D01*
X256405Y69293D01*
D02*
G37*
G36*
X132758Y69967D02*
X132730Y69875D01*
Y69769D01*
X132758Y69648D01*
X132815Y69514D01*
X132900Y69366D01*
X133013Y69203D01*
X133154Y69026D01*
X133522Y68630D01*
X132815Y67923D01*
X132610Y68121D01*
X132242Y68432D01*
X132079Y68545D01*
X131931Y68630D01*
X131797Y68687D01*
X131676Y68715D01*
X131570D01*
X131478Y68687D01*
X131401Y68630D01*
X132815Y70044D01*
X132758Y69967D01*
D02*
G37*
G36*
X552635Y68075D02*
X552650Y67903D01*
X552675Y67751D01*
X552710Y67620D01*
X552755Y67509D01*
X552810Y67417D01*
X552875Y67347D01*
X552950Y67296D01*
X553035Y67266D01*
X553130Y67256D01*
X551130D01*
X551225Y67266D01*
X551310Y67296D01*
X551385Y67347D01*
X551450Y67417D01*
X551505Y67509D01*
X551550Y67620D01*
X551585Y67751D01*
X551610Y67903D01*
X551625Y68075D01*
X551630Y68268D01*
X552630D01*
X552635Y68075D01*
D02*
G37*
G36*
X531745D02*
X531760Y67903D01*
X531785Y67751D01*
X531820Y67620D01*
X531865Y67509D01*
X531920Y67417D01*
X531985Y67347D01*
X532060Y67296D01*
X532145Y67266D01*
X532240Y67256D01*
X530240D01*
X530335Y67266D01*
X530420Y67296D01*
X530495Y67347D01*
X530560Y67417D01*
X530615Y67509D01*
X530660Y67620D01*
X530695Y67751D01*
X530720Y67903D01*
X530735Y68075D01*
X530740Y68268D01*
X531740D01*
X531745Y68075D01*
D02*
G37*
G36*
X456803Y67661D02*
X456827Y67593D01*
X456867Y67533D01*
X456923Y67481D01*
X456995Y67437D01*
X457083Y67401D01*
X457187Y67373D01*
X457307Y67353D01*
X457443Y67341D01*
X457595Y67337D01*
Y66537D01*
X457443Y66533D01*
X457307Y66521D01*
X457187Y66501D01*
X457083Y66473D01*
X456995Y66437D01*
X456923Y66393D01*
X456867Y66341D01*
X456827Y66281D01*
X456803Y66213D01*
X456795Y66137D01*
Y67737D01*
X456803Y67661D01*
D02*
G37*
G36*
X427905Y66793D02*
X427820Y66763D01*
X427745Y66712D01*
X427680Y66642D01*
X427625Y66550D01*
X427580Y66439D01*
X427545Y66308D01*
X427520Y66156D01*
X427505Y65984D01*
X427500Y65791D01*
X426500D01*
X426495Y65984D01*
X426480Y66156D01*
X426455Y66308D01*
X426420Y66439D01*
X426375Y66550D01*
X426320Y66642D01*
X426255Y66712D01*
X426180Y66763D01*
X426095Y66793D01*
X426000Y66803D01*
X428000D01*
X427905Y66793D01*
D02*
G37*
G36*
X276665Y66695D02*
X276580Y66665D01*
X276505Y66614D01*
X276440Y66543D01*
X276385Y66452D01*
X276340Y66341D01*
X276305Y66209D01*
X276280Y66057D01*
X276265Y65885D01*
X276260Y65693D01*
X275260D01*
X275255Y65885D01*
X275240Y66057D01*
X275215Y66209D01*
X275180Y66341D01*
X275135Y66452D01*
X275080Y66543D01*
X275015Y66614D01*
X274940Y66665D01*
X274855Y66695D01*
X274760Y66705D01*
X276760D01*
X276665Y66695D01*
D02*
G37*
G36*
X593815Y65500D02*
X593805Y65595D01*
X593775Y65680D01*
X593724Y65755D01*
X593653Y65820D01*
X593562Y65875D01*
X593451Y65920D01*
X593320Y65955D01*
X593168Y65980D01*
X592996Y65995D01*
X592803Y66000D01*
Y67000D01*
X592996Y67005D01*
X593168Y67020D01*
X593320Y67045D01*
X593451Y67080D01*
X593562Y67125D01*
X593653Y67180D01*
X593724Y67245D01*
X593775Y67320D01*
X593805Y67405D01*
X593815Y67500D01*
Y65500D01*
D02*
G37*
G36*
X591364Y67405D02*
X591394Y67320D01*
X591444Y67245D01*
X591514Y67180D01*
X591604Y67125D01*
X591714Y67080D01*
X591844Y67045D01*
X591994Y67020D01*
X592164Y67005D01*
X592354Y67000D01*
Y66000D01*
X592164Y65995D01*
X591994Y65980D01*
X591844Y65955D01*
X591714Y65920D01*
X591604Y65875D01*
X591514Y65820D01*
X591444Y65755D01*
X591394Y65680D01*
X591364Y65595D01*
X591354Y65500D01*
Y67500D01*
X591364Y67405D01*
D02*
G37*
G36*
X109977Y65949D02*
X109992Y65777D01*
X110017Y65625D01*
X110052Y65494D01*
X110097Y65383D01*
X110152Y65292D01*
X110217Y65221D01*
X110292Y65170D01*
X110377Y65140D01*
X110472Y65130D01*
X108472D01*
X108567Y65140D01*
X108652Y65170D01*
X108727Y65221D01*
X108792Y65292D01*
X108847Y65383D01*
X108892Y65494D01*
X108927Y65625D01*
X108952Y65777D01*
X108967Y65949D01*
X108972Y66141D01*
X109972D01*
X109977Y65949D01*
D02*
G37*
G36*
X449258Y65530D02*
X449230Y65438D01*
Y65332D01*
X449258Y65211D01*
X449315Y65077D01*
X449400Y64929D01*
X449513Y64766D01*
X449654Y64589D01*
X450022Y64193D01*
X449315Y63486D01*
X449110Y63684D01*
X448742Y63995D01*
X448579Y64108D01*
X448431Y64193D01*
X448297Y64250D01*
X448176Y64278D01*
X448070D01*
X447978Y64250D01*
X447901Y64193D01*
X449315Y65607D01*
X449258Y65530D01*
D02*
G37*
G36*
X254977Y64012D02*
X254992Y63840D01*
X255017Y63688D01*
X255052Y63557D01*
X255097Y63446D01*
X255152Y63354D01*
X255217Y63284D01*
X255292Y63233D01*
X255377Y63203D01*
X255472Y63192D01*
X253472D01*
X253567Y63203D01*
X253652Y63233D01*
X253727Y63284D01*
X253792Y63354D01*
X253847Y63446D01*
X253892Y63557D01*
X253927Y63688D01*
X253952Y63840D01*
X253967Y64012D01*
X253972Y64205D01*
X254972D01*
X254977Y64012D01*
D02*
G37*
G36*
X158516Y64313D02*
X158320Y64038D01*
X158240Y63903D01*
X158173Y63770D01*
X158118Y63639D01*
X158075Y63509D01*
X158045Y63381D01*
X158026Y63255D01*
X158020Y63130D01*
X157220Y63063D01*
X157213Y63193D01*
X157193Y63321D01*
X157159Y63448D01*
X157111Y63573D01*
X157050Y63696D01*
X156975Y63817D01*
X156886Y63937D01*
X156784Y64055D01*
X156668Y64171D01*
X156539Y64285D01*
X158632Y64453D01*
X158516Y64313D01*
D02*
G37*
G36*
X596468Y63856D02*
X596383Y63826D01*
X596308Y63775D01*
X596243Y63705D01*
X596188Y63613D01*
X596143Y63502D01*
X596108Y63371D01*
X596083Y63219D01*
X596068Y63047D01*
X596063Y62854D01*
X595063D01*
X595058Y63047D01*
X595043Y63219D01*
X595018Y63371D01*
X594983Y63502D01*
X594938Y63613D01*
X594883Y63705D01*
X594818Y63775D01*
X594743Y63826D01*
X594658Y63856D01*
X594563Y63867D01*
X596563D01*
X596468Y63856D01*
D02*
G37*
G36*
X589417Y62971D02*
X589332Y62940D01*
X589257Y62890D01*
X589192Y62819D01*
X589137Y62728D01*
X589092Y62616D01*
X589057Y62485D01*
X589032Y62333D01*
X589017Y62161D01*
X589012Y61969D01*
X588012D01*
X588007Y62161D01*
X587992Y62333D01*
X587967Y62485D01*
X587932Y62616D01*
X587887Y62728D01*
X587832Y62819D01*
X587767Y62890D01*
X587692Y62940D01*
X587607Y62971D01*
X587512Y62981D01*
X589512D01*
X589417Y62971D01*
D02*
G37*
G36*
X118842Y62608D02*
X118757Y62578D01*
X118682Y62527D01*
X118617Y62457D01*
X118562Y62366D01*
X118517Y62254D01*
X118482Y62123D01*
X118457Y61971D01*
X118442Y61799D01*
X118437Y61607D01*
X117437D01*
X117432Y61799D01*
X117417Y61971D01*
X117392Y62123D01*
X117357Y62254D01*
X117312Y62366D01*
X117257Y62457D01*
X117192Y62527D01*
X117117Y62578D01*
X117032Y62608D01*
X116937Y62618D01*
X118937D01*
X118842Y62608D01*
D02*
G37*
G36*
X110377D02*
X110292Y62578D01*
X110217Y62527D01*
X110152Y62457D01*
X110097Y62366D01*
X110052Y62254D01*
X110017Y62123D01*
X109992Y61971D01*
X109977Y61799D01*
X109972Y61607D01*
X108972D01*
X108967Y61799D01*
X108952Y61971D01*
X108927Y62123D01*
X108892Y62254D01*
X108847Y62366D01*
X108792Y62457D01*
X108727Y62527D01*
X108652Y62578D01*
X108567Y62608D01*
X108472Y62618D01*
X110472D01*
X110377Y62608D01*
D02*
G37*
G36*
X303516Y62376D02*
X303320Y62101D01*
X303240Y61966D01*
X303173Y61833D01*
X303118Y61702D01*
X303075Y61572D01*
X303045Y61444D01*
X303026Y61318D01*
X303020Y61193D01*
X302220Y61126D01*
X302213Y61256D01*
X302193Y61384D01*
X302159Y61511D01*
X302111Y61636D01*
X302050Y61759D01*
X301975Y61880D01*
X301886Y62000D01*
X301784Y62117D01*
X301669Y62234D01*
X301539Y62348D01*
X303632Y62516D01*
X303516Y62376D01*
D02*
G37*
G36*
X426477Y61512D02*
X426492Y61340D01*
X426517Y61188D01*
X426552Y61057D01*
X426597Y60945D01*
X426652Y60855D01*
X426717Y60784D01*
X426792Y60733D01*
X426877Y60703D01*
X426972Y60693D01*
X424972D01*
X425067Y60703D01*
X425152Y60733D01*
X425227Y60784D01*
X425292Y60855D01*
X425347Y60945D01*
X425392Y61057D01*
X425427Y61188D01*
X425452Y61340D01*
X425467Y61512D01*
X425472Y61704D01*
X426472D01*
X426477Y61512D01*
D02*
G37*
G36*
X158024Y60884D02*
X158036Y60748D01*
X158056Y60628D01*
X158084Y60524D01*
X158120Y60436D01*
X158164Y60364D01*
X158216Y60308D01*
X158276Y60268D01*
X158344Y60244D01*
X158420Y60236D01*
X156820D01*
X156896Y60244D01*
X156964Y60268D01*
X157024Y60308D01*
X157076Y60364D01*
X157120Y60436D01*
X157156Y60524D01*
X157184Y60628D01*
X157204Y60748D01*
X157216Y60884D01*
X157220Y61036D01*
X158020D01*
X158024Y60884D01*
D02*
G37*
G36*
X154505Y61046D02*
X154520Y60876D01*
X154545Y60726D01*
X154580Y60596D01*
X154625Y60486D01*
X154680Y60396D01*
X154745Y60326D01*
X154820Y60276D01*
X154905Y60246D01*
X155000Y60236D01*
X153000D01*
X153095Y60246D01*
X153180Y60276D01*
X153255Y60326D01*
X153320Y60396D01*
X153375Y60486D01*
X153420Y60596D01*
X153455Y60726D01*
X153480Y60876D01*
X153495Y61046D01*
X153500Y61236D01*
X154500D01*
X154505Y61046D01*
D02*
G37*
G36*
X596068Y60953D02*
X596083Y60781D01*
X596108Y60629D01*
X596143Y60498D01*
X596188Y60387D01*
X596243Y60295D01*
X596308Y60225D01*
X596383Y60174D01*
X596468Y60144D01*
X596563Y60133D01*
X594563D01*
X594658Y60144D01*
X594743Y60174D01*
X594818Y60225D01*
X594883Y60295D01*
X594938Y60387D01*
X594983Y60498D01*
X595018Y60629D01*
X595043Y60781D01*
X595058Y60953D01*
X595063Y61146D01*
X596063D01*
X596068Y60953D01*
D02*
G37*
G36*
X555179Y61905D02*
X555209Y61820D01*
X555259Y61745D01*
X555329Y61680D01*
X555419Y61625D01*
X555529Y61580D01*
X555659Y61545D01*
X555809Y61520D01*
X555979Y61505D01*
X556169Y61500D01*
Y60500D01*
X555979Y60495D01*
X555809Y60480D01*
X555659Y60455D01*
X555529Y60420D01*
X555419Y60375D01*
X555329Y60320D01*
X555259Y60255D01*
X555209Y60180D01*
X555179Y60095D01*
X555169Y60000D01*
Y62000D01*
X555179Y61905D01*
D02*
G37*
G36*
X527843Y60000D02*
X527833Y60095D01*
X527802Y60180D01*
X527752Y60255D01*
X527681Y60320D01*
X527590Y60375D01*
X527479Y60420D01*
X527347Y60455D01*
X527195Y60480D01*
X527023Y60495D01*
X526831Y60500D01*
Y61500D01*
X527023Y61505D01*
X527195Y61520D01*
X527347Y61545D01*
X527479Y61580D01*
X527590Y61625D01*
X527681Y61680D01*
X527752Y61745D01*
X527802Y61820D01*
X527833Y61905D01*
X527843Y62000D01*
Y60000D01*
D02*
G37*
G36*
X524561Y59854D02*
X524447Y59733D01*
X524346Y59611D01*
X524258Y59487D01*
X524182Y59362D01*
X524120Y59236D01*
X524070Y59108D01*
X524033Y58979D01*
X524008Y58849D01*
X523997Y58717D01*
X523998Y58583D01*
X522583Y59998D01*
X522717Y59997D01*
X522849Y60008D01*
X522979Y60033D01*
X523108Y60070D01*
X523236Y60120D01*
X523362Y60182D01*
X523487Y60258D01*
X523611Y60346D01*
X523733Y60447D01*
X523853Y60561D01*
X524561Y59854D01*
D02*
G37*
G36*
X263842Y60671D02*
X263757Y60641D01*
X263682Y60590D01*
X263617Y60520D01*
X263562Y60429D01*
X263517Y60317D01*
X263482Y60186D01*
X263457Y60034D01*
X263442Y59862D01*
X263437Y59670D01*
X262437D01*
X262432Y59862D01*
X262417Y60034D01*
X262392Y60186D01*
X262357Y60317D01*
X262312Y60429D01*
X262257Y60520D01*
X262192Y60590D01*
X262117Y60641D01*
X262032Y60671D01*
X261937Y60681D01*
X263937D01*
X263842Y60671D01*
D02*
G37*
G36*
X255377D02*
X255292Y60641D01*
X255217Y60590D01*
X255152Y60520D01*
X255097Y60429D01*
X255052Y60317D01*
X255017Y60186D01*
X254992Y60034D01*
X254977Y59862D01*
X254972Y59670D01*
X253972D01*
X253967Y59862D01*
X253952Y60034D01*
X253927Y60186D01*
X253892Y60317D01*
X253847Y60429D01*
X253792Y60520D01*
X253727Y60590D01*
X253652Y60641D01*
X253567Y60671D01*
X253472Y60681D01*
X255472D01*
X255377Y60671D01*
D02*
G37*
G36*
X129492Y60792D02*
X129292Y60522D01*
X129211Y60389D01*
X129142Y60258D01*
X129086Y60127D01*
X129043Y59998D01*
X129012Y59870D01*
X128993Y59744D01*
X128987Y59618D01*
X128187Y59570D01*
X128180Y59699D01*
X128160Y59827D01*
X128126Y59954D01*
X128079Y60080D01*
X128018Y60204D01*
X127944Y60327D01*
X127857Y60449D01*
X127756Y60570D01*
X127641Y60689D01*
X127514Y60807D01*
X129610Y60928D01*
X129492Y60792D01*
D02*
G37*
G36*
X475016Y59876D02*
X474820Y59601D01*
X474741Y59466D01*
X474673Y59333D01*
X474618Y59202D01*
X474575Y59072D01*
X474545Y58944D01*
X474526Y58818D01*
X474520Y58693D01*
X473720Y58626D01*
X473713Y58756D01*
X473693Y58884D01*
X473659Y59011D01*
X473611Y59136D01*
X473550Y59259D01*
X473475Y59380D01*
X473386Y59500D01*
X473284Y59618D01*
X473169Y59734D01*
X473039Y59848D01*
X475132Y60016D01*
X475016Y59876D01*
D02*
G37*
G36*
X303024Y58947D02*
X303036Y58811D01*
X303056Y58691D01*
X303084Y58587D01*
X303120Y58499D01*
X303164Y58427D01*
X303216Y58371D01*
X303276Y58331D01*
X303344Y58307D01*
X303420Y58299D01*
X301820D01*
X301896Y58307D01*
X301964Y58331D01*
X302024Y58371D01*
X302076Y58427D01*
X302120Y58499D01*
X302156Y58587D01*
X302184Y58691D01*
X302204Y58811D01*
X302216Y58947D01*
X302220Y59099D01*
X303020D01*
X303024Y58947D01*
D02*
G37*
G36*
X299505Y59109D02*
X299520Y58939D01*
X299545Y58789D01*
X299580Y58659D01*
X299625Y58549D01*
X299680Y58459D01*
X299745Y58389D01*
X299820Y58339D01*
X299905Y58309D01*
X300000Y58299D01*
X298000D01*
X298095Y58309D01*
X298180Y58339D01*
X298255Y58389D01*
X298320Y58459D01*
X298375Y58549D01*
X298420Y58659D01*
X298455Y58789D01*
X298480Y58939D01*
X298495Y59109D01*
X298500Y59299D01*
X299500D01*
X299505Y59109D01*
D02*
G37*
G36*
X118442Y58827D02*
X118457Y58655D01*
X118482Y58503D01*
X118517Y58372D01*
X118562Y58261D01*
X118617Y58169D01*
X118682Y58099D01*
X118757Y58048D01*
X118842Y58018D01*
X118937Y58008D01*
X116937D01*
X117032Y58018D01*
X117117Y58048D01*
X117192Y58099D01*
X117257Y58169D01*
X117312Y58261D01*
X117357Y58372D01*
X117392Y58503D01*
X117417Y58655D01*
X117432Y58827D01*
X117437Y59020D01*
X118437D01*
X118442Y58827D01*
D02*
G37*
G36*
X110568D02*
X110583Y58655D01*
X110608Y58503D01*
X110643Y58372D01*
X110688Y58261D01*
X110743Y58169D01*
X110808Y58099D01*
X110883Y58048D01*
X110968Y58018D01*
X111063Y58008D01*
X109063D01*
X109158Y58018D01*
X109243Y58048D01*
X109318Y58099D01*
X109383Y58169D01*
X109438Y58261D01*
X109483Y58372D01*
X109518Y58503D01*
X109543Y58655D01*
X109558Y58827D01*
X109563Y59020D01*
X110563D01*
X110568Y58827D01*
D02*
G37*
G36*
X274492Y58855D02*
X274292Y58585D01*
X274211Y58452D01*
X274143Y58321D01*
X274086Y58190D01*
X274043Y58061D01*
X274011Y57933D01*
X273993Y57806D01*
X273987Y57681D01*
X273187Y57633D01*
X273180Y57762D01*
X273160Y57890D01*
X273126Y58017D01*
X273079Y58143D01*
X273018Y58267D01*
X272944Y58390D01*
X272857Y58512D01*
X272756Y58632D01*
X272641Y58752D01*
X272514Y58870D01*
X274610Y58991D01*
X274492Y58855D01*
D02*
G37*
G36*
X168005Y58378D02*
X168020Y58206D01*
X168045Y58055D01*
X168080Y57923D01*
X168125Y57812D01*
X168180Y57721D01*
X168245Y57650D01*
X168320Y57599D01*
X168405Y57569D01*
X168500Y57559D01*
X166500D01*
X166595Y57569D01*
X166680Y57599D01*
X166755Y57650D01*
X166820Y57721D01*
X166875Y57812D01*
X166920Y57923D01*
X166955Y58055D01*
X166980Y58206D01*
X166995Y58378D01*
X167000Y58571D01*
X168000D01*
X168005Y58378D01*
D02*
G37*
G36*
X521382Y57500D02*
X521288Y57595D01*
X521187Y57680D01*
X521077Y57755D01*
X520960Y57820D01*
X520834Y57875D01*
X520701Y57920D01*
X520559Y57955D01*
X520409Y57980D01*
X520252Y57995D01*
X520086Y58000D01*
Y59000D01*
X520252Y59005D01*
X520409Y59020D01*
X520559Y59045D01*
X520701Y59080D01*
X520834Y59125D01*
X520960Y59180D01*
X521077Y59245D01*
X521187Y59320D01*
X521288Y59405D01*
X521382Y59500D01*
Y57500D01*
D02*
G37*
G36*
X149103Y57279D02*
X149093Y57375D01*
X149062Y57459D01*
X149012Y57534D01*
X148941Y57600D01*
X148850Y57655D01*
X148738Y57700D01*
X148607Y57735D01*
X148455Y57759D01*
X148283Y57775D01*
X148091Y57780D01*
Y58780D01*
X148283Y58785D01*
X148455Y58799D01*
X148607Y58824D01*
X148738Y58859D01*
X148850Y58904D01*
X148941Y58960D01*
X149012Y59025D01*
X149062Y59100D01*
X149093Y59184D01*
X149103Y59280D01*
Y57279D01*
D02*
G37*
G36*
X128991Y57929D02*
X129003Y57791D01*
X129023Y57669D01*
X129051Y57564D01*
X129087Y57474D01*
X129131Y57401D01*
X129183Y57344D01*
X129243Y57304D01*
X129311Y57279D01*
X129387Y57271D01*
X127787D01*
X127863Y57279D01*
X127931Y57304D01*
X127991Y57344D01*
X128043Y57401D01*
X128087Y57474D01*
X128123Y57564D01*
X128151Y57669D01*
X128171Y57791D01*
X128183Y57929D01*
X128187Y58083D01*
X128987D01*
X128991Y57929D01*
D02*
G37*
G36*
X435342Y58171D02*
X435257Y58141D01*
X435182Y58090D01*
X435117Y58020D01*
X435062Y57929D01*
X435017Y57817D01*
X434982Y57686D01*
X434957Y57534D01*
X434942Y57362D01*
X434937Y57170D01*
X433937D01*
X433932Y57362D01*
X433917Y57534D01*
X433892Y57686D01*
X433857Y57817D01*
X433812Y57929D01*
X433757Y58020D01*
X433692Y58090D01*
X433617Y58141D01*
X433532Y58171D01*
X433437Y58182D01*
X435437D01*
X435342Y58171D01*
D02*
G37*
G36*
X426877D02*
X426792Y58141D01*
X426717Y58090D01*
X426652Y58020D01*
X426597Y57929D01*
X426552Y57817D01*
X426517Y57686D01*
X426492Y57534D01*
X426477Y57362D01*
X426472Y57170D01*
X425472D01*
X425467Y57362D01*
X425452Y57534D01*
X425427Y57686D01*
X425392Y57817D01*
X425347Y57929D01*
X425292Y58020D01*
X425227Y58090D01*
X425152Y58141D01*
X425067Y58171D01*
X424972Y58182D01*
X426972D01*
X426877Y58171D01*
D02*
G37*
G36*
X523405Y57288D02*
X523320Y57187D01*
X523245Y57077D01*
X523180Y56960D01*
X523125Y56834D01*
X523080Y56701D01*
X523045Y56559D01*
X523020Y56409D01*
X523005Y56252D01*
X523000Y56086D01*
X522000D01*
X521995Y56252D01*
X521980Y56409D01*
X521955Y56559D01*
X521920Y56701D01*
X521875Y56834D01*
X521820Y56960D01*
X521755Y57077D01*
X521680Y57187D01*
X521595Y57288D01*
X521500Y57382D01*
X523500D01*
X523405Y57288D01*
D02*
G37*
G36*
X263442Y56890D02*
X263457Y56718D01*
X263482Y56566D01*
X263517Y56435D01*
X263562Y56323D01*
X263617Y56232D01*
X263682Y56162D01*
X263757Y56111D01*
X263842Y56081D01*
X263937Y56071D01*
X261937D01*
X262032Y56081D01*
X262117Y56111D01*
X262192Y56162D01*
X262257Y56232D01*
X262312Y56323D01*
X262357Y56435D01*
X262392Y56566D01*
X262417Y56718D01*
X262432Y56890D01*
X262437Y57082D01*
X263437D01*
X263442Y56890D01*
D02*
G37*
G36*
X255568D02*
X255583Y56718D01*
X255608Y56566D01*
X255643Y56435D01*
X255688Y56323D01*
X255743Y56232D01*
X255808Y56162D01*
X255883Y56111D01*
X255968Y56081D01*
X256063Y56071D01*
X254063D01*
X254158Y56081D01*
X254243Y56111D01*
X254318Y56162D01*
X254383Y56232D01*
X254438Y56323D01*
X254483Y56435D01*
X254518Y56566D01*
X254543Y56718D01*
X254558Y56890D01*
X254563Y57082D01*
X255563D01*
X255568Y56890D01*
D02*
G37*
G36*
X474524Y56447D02*
X474536Y56311D01*
X474556Y56191D01*
X474584Y56087D01*
X474620Y55999D01*
X474664Y55927D01*
X474716Y55871D01*
X474776Y55831D01*
X474844Y55807D01*
X474920Y55799D01*
X473320D01*
X473396Y55807D01*
X473464Y55831D01*
X473524Y55871D01*
X473576Y55927D01*
X473620Y55999D01*
X473656Y56087D01*
X473684Y56191D01*
X473704Y56311D01*
X473716Y56447D01*
X473720Y56599D01*
X474520D01*
X474524Y56447D01*
D02*
G37*
G36*
X471005Y56609D02*
X471020Y56439D01*
X471045Y56289D01*
X471080Y56159D01*
X471125Y56049D01*
X471180Y55959D01*
X471245Y55889D01*
X471320Y55839D01*
X471405Y55809D01*
X471500Y55799D01*
X469500D01*
X469595Y55809D01*
X469680Y55839D01*
X469755Y55889D01*
X469820Y55959D01*
X469875Y56049D01*
X469920Y56159D01*
X469955Y56289D01*
X469980Y56439D01*
X469995Y56609D01*
X470000Y56799D01*
X471000D01*
X471005Y56609D01*
D02*
G37*
G36*
X315853Y55634D02*
X315653Y55427D01*
X315340Y55058D01*
X315226Y54895D01*
X315140Y54747D01*
X315082Y54613D01*
X315052Y54493D01*
X315051Y54387D01*
X315078Y54296D01*
X315134Y54220D01*
X313731Y55622D01*
X313808Y55566D01*
X313899Y55539D01*
X314004Y55540D01*
X314124Y55570D01*
X314259Y55628D01*
X314407Y55714D01*
X314570Y55828D01*
X314748Y55971D01*
X315145Y56341D01*
X315853Y55634D01*
D02*
G37*
G36*
X294103Y55343D02*
X294093Y55437D01*
X294062Y55523D01*
X294012Y55598D01*
X293941Y55663D01*
X293850Y55717D01*
X293738Y55762D01*
X293607Y55797D01*
X293455Y55822D01*
X293283Y55838D01*
X293091Y55843D01*
Y56842D01*
X293283Y56848D01*
X293455Y56862D01*
X293607Y56888D01*
X293738Y56923D01*
X293850Y56968D01*
X293941Y57023D01*
X294012Y57087D01*
X294062Y57162D01*
X294093Y57248D01*
X294103Y57342D01*
Y55343D01*
D02*
G37*
G36*
X273991Y55992D02*
X274003Y55854D01*
X274023Y55732D01*
X274051Y55627D01*
X274087Y55537D01*
X274131Y55464D01*
X274183Y55407D01*
X274243Y55367D01*
X274311Y55342D01*
X274387Y55334D01*
X272787D01*
X272863Y55342D01*
X272931Y55367D01*
X272991Y55407D01*
X273043Y55464D01*
X273087Y55537D01*
X273123Y55627D01*
X273151Y55732D01*
X273171Y55854D01*
X273183Y55992D01*
X273187Y56146D01*
X273987D01*
X273991Y55992D01*
D02*
G37*
G36*
X154905Y56325D02*
X154820Y56295D01*
X154745Y56244D01*
X154680Y56173D01*
X154625Y56082D01*
X154580Y55971D01*
X154545Y55839D01*
X154520Y55687D01*
X154505Y55515D01*
X154500Y55323D01*
X153500D01*
X153495Y55515D01*
X153480Y55687D01*
X153455Y55839D01*
X153420Y55971D01*
X153375Y56082D01*
X153320Y56173D01*
X153255Y56244D01*
X153180Y56295D01*
X153095Y56325D01*
X153000Y56335D01*
X155000D01*
X154905Y56325D01*
D02*
G37*
G36*
X445992Y56355D02*
X445792Y56085D01*
X445711Y55952D01*
X445643Y55821D01*
X445586Y55690D01*
X445543Y55561D01*
X445511Y55433D01*
X445493Y55307D01*
X445487Y55181D01*
X444687Y55133D01*
X444680Y55262D01*
X444660Y55390D01*
X444626Y55517D01*
X444579Y55643D01*
X444518Y55767D01*
X444444Y55890D01*
X444357Y56012D01*
X444256Y56133D01*
X444141Y56252D01*
X444014Y56370D01*
X446110Y56491D01*
X445992Y56355D01*
D02*
G37*
G36*
X141368Y57019D02*
X141398Y56934D01*
X141449Y56859D01*
X141520Y56794D01*
X141611Y56739D01*
X141722Y56694D01*
X141854Y56659D01*
X142006Y56634D01*
X142178Y56619D01*
X142370Y56614D01*
Y55614D01*
X142178Y55609D01*
X142006Y55594D01*
X141854Y55569D01*
X141722Y55534D01*
X141611Y55489D01*
X141520Y55434D01*
X141449Y55369D01*
X141398Y55294D01*
X141368Y55209D01*
X141358Y55114D01*
Y57114D01*
X141368Y57019D01*
D02*
G37*
G36*
X555179Y56905D02*
X555209Y56820D01*
X555259Y56745D01*
X555329Y56680D01*
X555419Y56625D01*
X555529Y56580D01*
X555659Y56545D01*
X555809Y56520D01*
X555979Y56505D01*
X556169Y56500D01*
Y55500D01*
X555979Y55495D01*
X555809Y55480D01*
X555659Y55455D01*
X555529Y55420D01*
X555419Y55375D01*
X555329Y55320D01*
X555259Y55255D01*
X555209Y55180D01*
X555179Y55095D01*
X555169Y55000D01*
Y57000D01*
X555179Y56905D01*
D02*
G37*
G36*
X549103Y55000D02*
X549093Y55095D01*
X549062Y55180D01*
X549012Y55255D01*
X548941Y55320D01*
X548850Y55375D01*
X548738Y55420D01*
X548607Y55455D01*
X548455Y55480D01*
X548283Y55495D01*
X548091Y55500D01*
Y56500D01*
X548283Y56505D01*
X548455Y56520D01*
X548607Y56545D01*
X548738Y56580D01*
X548850Y56625D01*
X548941Y56680D01*
X549012Y56745D01*
X549062Y56820D01*
X549093Y56905D01*
X549103Y57000D01*
Y55000D01*
D02*
G37*
G36*
X533919Y56905D02*
X533949Y56820D01*
X533999Y56745D01*
X534069Y56680D01*
X534159Y56625D01*
X534269Y56580D01*
X534399Y56545D01*
X534549Y56520D01*
X534719Y56505D01*
X534909Y56500D01*
Y55500D01*
X534719Y55495D01*
X534549Y55480D01*
X534399Y55455D01*
X534269Y55420D01*
X534159Y55375D01*
X534069Y55320D01*
X533999Y55255D01*
X533949Y55180D01*
X533919Y55095D01*
X533909Y55000D01*
Y57000D01*
X533919Y56905D01*
D02*
G37*
G36*
X119707Y56279D02*
X119737Y56194D01*
X119787Y56119D01*
X119857Y56054D01*
X119947Y55999D01*
X120057Y55954D01*
X120187Y55919D01*
X120337Y55894D01*
X120507Y55879D01*
X120697Y55874D01*
Y54874D01*
X120507Y54869D01*
X120337Y54854D01*
X120187Y54829D01*
X120057Y54794D01*
X119947Y54749D01*
X119857Y54694D01*
X119787Y54629D01*
X119737Y54554D01*
X119707Y54469D01*
X119697Y54374D01*
Y56374D01*
X119707Y56279D01*
D02*
G37*
G36*
X604161Y54858D02*
X604093Y54834D01*
X604033Y54793D01*
X603981Y54737D01*
X603937Y54663D01*
X603901Y54574D01*
X603873Y54469D01*
X603853Y54347D01*
X603841Y54209D01*
X603837Y54054D01*
X603037D01*
X603033Y54209D01*
X603021Y54347D01*
X603001Y54469D01*
X602973Y54574D01*
X602937Y54663D01*
X602893Y54737D01*
X602841Y54793D01*
X602781Y54834D01*
X602713Y54858D01*
X602637Y54866D01*
X604237D01*
X604161Y54858D01*
D02*
G37*
G36*
X434942Y54390D02*
X434957Y54218D01*
X434982Y54066D01*
X435017Y53935D01*
X435062Y53824D01*
X435117Y53732D01*
X435182Y53662D01*
X435257Y53611D01*
X435342Y53581D01*
X435437Y53570D01*
X433437D01*
X433532Y53581D01*
X433617Y53611D01*
X433692Y53662D01*
X433757Y53732D01*
X433812Y53824D01*
X433857Y53935D01*
X433892Y54066D01*
X433917Y54218D01*
X433932Y54390D01*
X433937Y54583D01*
X434937D01*
X434942Y54390D01*
D02*
G37*
G36*
X427068D02*
X427083Y54218D01*
X427108Y54066D01*
X427143Y53935D01*
X427188Y53824D01*
X427243Y53732D01*
X427308Y53662D01*
X427383Y53611D01*
X427468Y53581D01*
X427563Y53570D01*
X425563D01*
X425658Y53581D01*
X425743Y53611D01*
X425818Y53662D01*
X425883Y53732D01*
X425938Y53824D01*
X425983Y53935D01*
X426018Y54066D01*
X426043Y54218D01*
X426058Y54390D01*
X426063Y54583D01*
X427063D01*
X427068Y54390D01*
D02*
G37*
G36*
X299905Y54388D02*
X299820Y54357D01*
X299745Y54307D01*
X299680Y54236D01*
X299625Y54145D01*
X299580Y54034D01*
X299545Y53902D01*
X299520Y53750D01*
X299505Y53578D01*
X299500Y53386D01*
X298500D01*
X298495Y53578D01*
X298480Y53750D01*
X298455Y53902D01*
X298420Y54034D01*
X298375Y54145D01*
X298320Y54236D01*
X298255Y54307D01*
X298180Y54357D01*
X298095Y54388D01*
X298000Y54398D01*
X300000D01*
X299905Y54388D01*
D02*
G37*
G36*
X286368Y55082D02*
X286398Y54997D01*
X286449Y54922D01*
X286520Y54857D01*
X286611Y54802D01*
X286722Y54757D01*
X286854Y54722D01*
X287006Y54697D01*
X287178Y54682D01*
X287370Y54677D01*
Y53677D01*
X287178Y53672D01*
X287006Y53657D01*
X286854Y53632D01*
X286722Y53597D01*
X286611Y53552D01*
X286520Y53497D01*
X286449Y53432D01*
X286398Y53357D01*
X286368Y53272D01*
X286358Y53177D01*
Y55177D01*
X286368Y55082D01*
D02*
G37*
G36*
X484505Y53941D02*
X484520Y53769D01*
X484545Y53618D01*
X484580Y53486D01*
X484625Y53375D01*
X484680Y53284D01*
X484745Y53213D01*
X484820Y53162D01*
X484905Y53132D01*
X485000Y53122D01*
X483000D01*
X483095Y53132D01*
X483180Y53162D01*
X483255Y53213D01*
X483320Y53284D01*
X483375Y53375D01*
X483420Y53486D01*
X483455Y53618D01*
X483480Y53769D01*
X483495Y53941D01*
X483500Y54134D01*
X484500D01*
X484505Y53941D01*
D02*
G37*
G36*
X465603Y52842D02*
X465593Y52938D01*
X465562Y53022D01*
X465512Y53097D01*
X465441Y53162D01*
X465350Y53218D01*
X465238Y53263D01*
X465107Y53298D01*
X464955Y53322D01*
X464783Y53338D01*
X464591Y53342D01*
Y54343D01*
X464783Y54347D01*
X464955Y54362D01*
X465107Y54387D01*
X465238Y54422D01*
X465350Y54467D01*
X465441Y54523D01*
X465512Y54588D01*
X465562Y54663D01*
X465593Y54747D01*
X465603Y54843D01*
Y52842D01*
D02*
G37*
G36*
X445491Y53492D02*
X445503Y53354D01*
X445523Y53232D01*
X445551Y53127D01*
X445587Y53037D01*
X445631Y52964D01*
X445683Y52907D01*
X445743Y52867D01*
X445811Y52842D01*
X445887Y52834D01*
X444287D01*
X444363Y52842D01*
X444431Y52867D01*
X444491Y52907D01*
X444543Y52964D01*
X444587Y53037D01*
X444623Y53127D01*
X444651Y53232D01*
X444671Y53354D01*
X444683Y53492D01*
X444687Y53646D01*
X445487D01*
X445491Y53492D01*
D02*
G37*
G36*
X264707Y54342D02*
X264737Y54257D01*
X264787Y54182D01*
X264857Y54117D01*
X264947Y54062D01*
X265057Y54017D01*
X265187Y53982D01*
X265337Y53957D01*
X265507Y53942D01*
X265697Y53937D01*
Y52937D01*
X265507Y52932D01*
X265337Y52917D01*
X265187Y52892D01*
X265057Y52857D01*
X264947Y52812D01*
X264857Y52757D01*
X264787Y52692D01*
X264737Y52617D01*
X264707Y52532D01*
X264697Y52437D01*
Y54437D01*
X264707Y54342D01*
D02*
G37*
G36*
X118645Y52730D02*
X118560Y52700D01*
X118485Y52649D01*
X118420Y52579D01*
X118365Y52487D01*
X118320Y52376D01*
X118285Y52245D01*
X118260Y52093D01*
X118245Y51921D01*
X118240Y51728D01*
X117240D01*
X117235Y51921D01*
X117220Y52093D01*
X117195Y52245D01*
X117160Y52376D01*
X117115Y52487D01*
X117060Y52579D01*
X116995Y52649D01*
X116920Y52700D01*
X116835Y52730D01*
X116740Y52741D01*
X118740D01*
X118645Y52730D01*
D02*
G37*
G36*
X126630Y51374D02*
X126620Y51469D01*
X126590Y51554D01*
X126540Y51629D01*
X126470Y51694D01*
X126380Y51749D01*
X126270Y51794D01*
X126140Y51829D01*
X125990Y51854D01*
X125820Y51869D01*
X125630Y51874D01*
Y52874D01*
X125820Y52879D01*
X125990Y52894D01*
X126140Y52919D01*
X126270Y52954D01*
X126380Y52999D01*
X126470Y53054D01*
X126540Y53119D01*
X126590Y53194D01*
X126620Y53279D01*
X126630Y53374D01*
Y51374D01*
D02*
G37*
G36*
X471405Y51888D02*
X471320Y51858D01*
X471245Y51807D01*
X471180Y51736D01*
X471125Y51645D01*
X471080Y51534D01*
X471045Y51402D01*
X471020Y51250D01*
X471005Y51078D01*
X471000Y50886D01*
X470000D01*
X469995Y51078D01*
X469980Y51250D01*
X469955Y51402D01*
X469920Y51534D01*
X469875Y51645D01*
X469820Y51736D01*
X469755Y51807D01*
X469680Y51858D01*
X469595Y51888D01*
X469500Y51898D01*
X471500D01*
X471405Y51888D01*
D02*
G37*
G36*
X457868Y52582D02*
X457898Y52497D01*
X457949Y52422D01*
X458020Y52357D01*
X458111Y52302D01*
X458222Y52257D01*
X458354Y52222D01*
X458506Y52197D01*
X458678Y52182D01*
X458870Y52177D01*
Y51177D01*
X458678Y51172D01*
X458506Y51157D01*
X458354Y51132D01*
X458222Y51097D01*
X458111Y51052D01*
X458020Y50997D01*
X457949Y50932D01*
X457898Y50857D01*
X457868Y50772D01*
X457858Y50677D01*
Y52677D01*
X457868Y52582D01*
D02*
G37*
G36*
X555177Y51724D02*
X555201Y51656D01*
X555241Y51596D01*
X555297Y51544D01*
X555369Y51500D01*
X555457Y51464D01*
X555561Y51436D01*
X555681Y51416D01*
X555817Y51404D01*
X555969Y51400D01*
Y50600D01*
X555817Y50596D01*
X555681Y50584D01*
X555561Y50564D01*
X555457Y50536D01*
X555369Y50500D01*
X555297Y50456D01*
X555241Y50404D01*
X555201Y50344D01*
X555177Y50276D01*
X555169Y50200D01*
Y51800D01*
X555177Y51724D01*
D02*
G37*
G36*
X562429Y49950D02*
X562301Y50073D01*
X562174Y50184D01*
X562046Y50282D01*
X561919Y50366D01*
X561792Y50437D01*
X561664Y50496D01*
X561537Y50542D01*
X561409Y50574D01*
X561282Y50594D01*
X561154Y50600D01*
Y51400D01*
X561282Y51407D01*
X561409Y51426D01*
X561537Y51459D01*
X561664Y51504D01*
X561792Y51562D01*
X561919Y51634D01*
X562046Y51718D01*
X562174Y51816D01*
X562301Y51926D01*
X562429Y52050D01*
Y49950D01*
D02*
G37*
G36*
X436207Y51842D02*
X436237Y51757D01*
X436287Y51682D01*
X436357Y51617D01*
X436447Y51562D01*
X436557Y51517D01*
X436687Y51482D01*
X436837Y51457D01*
X437007Y51442D01*
X437197Y51437D01*
Y50437D01*
X437007Y50432D01*
X436837Y50417D01*
X436687Y50392D01*
X436557Y50357D01*
X436447Y50312D01*
X436357Y50257D01*
X436287Y50192D01*
X436237Y50117D01*
X436207Y50032D01*
X436197Y49937D01*
Y51937D01*
X436207Y51842D01*
D02*
G37*
G36*
X263645Y50793D02*
X263560Y50763D01*
X263485Y50713D01*
X263420Y50642D01*
X263365Y50551D01*
X263320Y50439D01*
X263285Y50308D01*
X263260Y50156D01*
X263245Y49984D01*
X263240Y49791D01*
X262240D01*
X262235Y49984D01*
X262220Y50156D01*
X262195Y50308D01*
X262160Y50439D01*
X262115Y50551D01*
X262060Y50642D01*
X261995Y50713D01*
X261920Y50763D01*
X261835Y50793D01*
X261740Y50804D01*
X263740D01*
X263645Y50793D01*
D02*
G37*
G36*
X603844Y50733D02*
X603864Y50605D01*
X603897Y50478D01*
X603944Y50352D01*
X604004Y50227D01*
X604077Y50102D01*
X604164Y49979D01*
X604264Y49857D01*
X604377Y49735D01*
X604504Y49614D01*
X602406Y49526D01*
X602526Y49660D01*
X602728Y49926D01*
X602810Y50057D01*
X602879Y50188D01*
X602936Y50317D01*
X602980Y50446D01*
X603012Y50574D01*
X603031Y50701D01*
X603037Y50827D01*
X603837Y50862D01*
X603844Y50733D01*
D02*
G37*
G36*
X271630Y49437D02*
X271620Y49532D01*
X271590Y49617D01*
X271540Y49692D01*
X271470Y49757D01*
X271380Y49812D01*
X271270Y49857D01*
X271140Y49892D01*
X270990Y49917D01*
X270820Y49932D01*
X270630Y49937D01*
Y50937D01*
X270820Y50942D01*
X270990Y50957D01*
X271140Y50982D01*
X271270Y51017D01*
X271380Y51062D01*
X271470Y51117D01*
X271540Y51182D01*
X271590Y51257D01*
X271620Y51342D01*
X271630Y51437D01*
Y49437D01*
D02*
G37*
G36*
X533853Y51069D02*
X533824Y50977D01*
Y50871D01*
X533853Y50751D01*
X533909Y50616D01*
X533994Y50468D01*
X534107Y50305D01*
X534249Y50128D01*
X534616Y49733D01*
X533909Y49025D01*
X533704Y49223D01*
X533336Y49534D01*
X533174Y49648D01*
X533025Y49733D01*
X532891Y49789D01*
X532771Y49817D01*
X532665D01*
X532573Y49789D01*
X532495Y49733D01*
X533909Y51147D01*
X533853Y51069D01*
D02*
G37*
G36*
X118245Y49426D02*
X118260Y49254D01*
X118285Y49102D01*
X118320Y48970D01*
X118365Y48859D01*
X118420Y48768D01*
X118485Y48697D01*
X118560Y48646D01*
X118645Y48616D01*
X118740Y48606D01*
X116740D01*
X116835Y48616D01*
X116920Y48646D01*
X116995Y48697D01*
X117060Y48768D01*
X117115Y48859D01*
X117160Y48970D01*
X117195Y49102D01*
X117220Y49254D01*
X117235Y49426D01*
X117240Y49618D01*
X118240D01*
X118245Y49426D01*
D02*
G37*
G36*
X435145Y48293D02*
X435060Y48263D01*
X434985Y48213D01*
X434920Y48142D01*
X434865Y48050D01*
X434820Y47939D01*
X434785Y47808D01*
X434760Y47656D01*
X434745Y47484D01*
X434740Y47291D01*
X433740D01*
X433735Y47484D01*
X433720Y47656D01*
X433695Y47808D01*
X433660Y47939D01*
X433615Y48050D01*
X433560Y48142D01*
X433495Y48213D01*
X433420Y48263D01*
X433335Y48293D01*
X433240Y48303D01*
X435240D01*
X435145Y48293D01*
D02*
G37*
G36*
X443130Y46937D02*
X443120Y47032D01*
X443090Y47117D01*
X443040Y47192D01*
X442970Y47257D01*
X442880Y47312D01*
X442770Y47357D01*
X442640Y47392D01*
X442490Y47417D01*
X442320Y47432D01*
X442130Y47437D01*
Y48437D01*
X442320Y48442D01*
X442490Y48457D01*
X442640Y48482D01*
X442770Y48517D01*
X442880Y48562D01*
X442970Y48617D01*
X443040Y48682D01*
X443090Y48757D01*
X443120Y48842D01*
X443130Y48937D01*
Y46937D01*
D02*
G37*
G36*
X164866D02*
X164856Y47032D01*
X164826Y47117D01*
X164775Y47192D01*
X164705Y47257D01*
X164613Y47312D01*
X164502Y47357D01*
X164371Y47392D01*
X164219Y47417D01*
X164047Y47432D01*
X163855Y47437D01*
Y48437D01*
X164047Y48442D01*
X164219Y48457D01*
X164371Y48482D01*
X164502Y48517D01*
X164613Y48562D01*
X164705Y48617D01*
X164775Y48682D01*
X164826Y48757D01*
X164856Y48842D01*
X164866Y48937D01*
Y46937D01*
D02*
G37*
G36*
X159909Y47437D02*
X159718Y47432D01*
X159546Y47417D01*
X159395Y47392D01*
X159264Y47357D01*
X159152Y47312D01*
X159061Y47257D01*
X158990Y47192D01*
X158939Y47117D01*
X158908Y47032D01*
X158897Y46937D01*
X158909Y48425D01*
X159909Y48437D01*
Y47437D01*
D02*
G37*
G36*
X263245Y47489D02*
X263260Y47317D01*
X263285Y47165D01*
X263320Y47033D01*
X263365Y46922D01*
X263420Y46831D01*
X263485Y46760D01*
X263560Y46709D01*
X263645Y46679D01*
X263740Y46669D01*
X261740D01*
X261835Y46679D01*
X261920Y46709D01*
X261995Y46760D01*
X262060Y46831D01*
X262115Y46922D01*
X262160Y47033D01*
X262195Y47165D01*
X262220Y47317D01*
X262235Y47489D01*
X262240Y47681D01*
X263240D01*
X263245Y47489D01*
D02*
G37*
G36*
X140318Y47467D02*
X140233Y47436D01*
X140158Y47386D01*
X140093Y47315D01*
X140038Y47224D01*
X139993Y47112D01*
X139958Y46981D01*
X139933Y46829D01*
X139918Y46657D01*
X139913Y46465D01*
X138913D01*
X138908Y46657D01*
X138893Y46829D01*
X138868Y46981D01*
X138833Y47112D01*
X138788Y47224D01*
X138733Y47315D01*
X138668Y47386D01*
X138593Y47436D01*
X138508Y47467D01*
X138413Y47477D01*
X140413D01*
X140318Y47467D01*
D02*
G37*
G36*
X281884Y48044D02*
X282110Y47849D01*
X282202Y47785D01*
X282280Y47743D01*
X282344Y47724D01*
X282393Y47726D01*
X282429Y47750D01*
X282450Y47797D01*
X282457Y47866D01*
Y45528D01*
X282446Y45638D01*
X282414Y45759D01*
X282361Y45891D01*
X282287Y46033D01*
X282192Y46187D01*
X282075Y46350D01*
X281778Y46710D01*
X281598Y46906D01*
X281396Y47113D01*
X281750Y48174D01*
X281884Y48044D01*
D02*
G37*
G36*
X309866Y45000D02*
X309856Y45095D01*
X309826Y45180D01*
X309775Y45255D01*
X309705Y45320D01*
X309613Y45375D01*
X309502Y45420D01*
X309371Y45455D01*
X309219Y45480D01*
X309047Y45495D01*
X308855Y45500D01*
Y46500D01*
X309047Y46505D01*
X309219Y46520D01*
X309371Y46545D01*
X309502Y46580D01*
X309613Y46625D01*
X309705Y46680D01*
X309775Y46745D01*
X309826Y46820D01*
X309856Y46905D01*
X309866Y47000D01*
Y45000D01*
D02*
G37*
G36*
X304909Y45500D02*
X304718Y45495D01*
X304546Y45480D01*
X304395Y45455D01*
X304263Y45420D01*
X304152Y45375D01*
X304061Y45320D01*
X303990Y45255D01*
X303939Y45180D01*
X303908Y45095D01*
X303897Y45000D01*
X303909Y46488D01*
X304909Y46500D01*
Y45500D01*
D02*
G37*
G36*
X285318Y45530D02*
X285233Y45499D01*
X285158Y45449D01*
X285093Y45378D01*
X285038Y45287D01*
X284993Y45175D01*
X284958Y45044D01*
X284933Y44892D01*
X284918Y44720D01*
X284913Y44528D01*
X283913D01*
X283908Y44720D01*
X283893Y44892D01*
X283868Y45044D01*
X283833Y45175D01*
X283788Y45287D01*
X283733Y45378D01*
X283668Y45449D01*
X283593Y45499D01*
X283579Y45505D01*
X283560Y45498D01*
X283485Y45447D01*
X283420Y45376D01*
X283365Y45284D01*
X283320Y45173D01*
X283285Y45042D01*
X283260Y44891D01*
X283245Y44719D01*
X283240Y44528D01*
X282240D01*
X282457Y45528D01*
X283440Y45537D01*
X283413Y45540D01*
X285413D01*
X285318Y45530D01*
D02*
G37*
G36*
X434745Y44989D02*
X434760Y44817D01*
X434785Y44665D01*
X434820Y44533D01*
X434865Y44422D01*
X434920Y44331D01*
X434985Y44260D01*
X435060Y44209D01*
X435145Y44179D01*
X435240Y44169D01*
X433240D01*
X433335Y44179D01*
X433420Y44209D01*
X433495Y44260D01*
X433560Y44331D01*
X433615Y44422D01*
X433660Y44533D01*
X433695Y44665D01*
X433720Y44817D01*
X433735Y44989D01*
X433740Y45181D01*
X434740D01*
X434745Y44989D01*
D02*
G37*
G36*
X151165Y44514D02*
X151080Y44484D01*
X151005Y44433D01*
X150940Y44362D01*
X150885Y44271D01*
X150840Y44160D01*
X150805Y44028D01*
X150780Y43876D01*
X150765Y43704D01*
X150760Y43512D01*
X149760D01*
X149755Y43704D01*
X149740Y43876D01*
X149715Y44028D01*
X149680Y44160D01*
X149635Y44271D01*
X149580Y44362D01*
X149515Y44433D01*
X149440Y44484D01*
X149355Y44514D01*
X149260Y44524D01*
X151260D01*
X151165Y44514D01*
D02*
G37*
G36*
X138308Y43426D02*
X138323Y43254D01*
X138348Y43102D01*
X138383Y42970D01*
X138428Y42859D01*
X138483Y42768D01*
X138548Y42697D01*
X138623Y42646D01*
X138708Y42616D01*
X138803Y42606D01*
X136803D01*
X136898Y42616D01*
X136983Y42646D01*
X137058Y42697D01*
X137123Y42768D01*
X137178Y42859D01*
X137223Y42970D01*
X137258Y43102D01*
X137283Y43254D01*
X137298Y43426D01*
X137303Y43618D01*
X138303D01*
X138308Y43426D01*
D02*
G37*
G36*
X481366Y42500D02*
X481356Y42595D01*
X481326Y42680D01*
X481275Y42755D01*
X481205Y42820D01*
X481113Y42875D01*
X481002Y42920D01*
X480871Y42955D01*
X480719Y42980D01*
X480547Y42995D01*
X480354Y43000D01*
Y44000D01*
X480547Y44005D01*
X480719Y44020D01*
X480871Y44045D01*
X481002Y44080D01*
X481113Y44125D01*
X481205Y44180D01*
X481275Y44245D01*
X481326Y44320D01*
X481356Y44405D01*
X481366Y44500D01*
Y42500D01*
D02*
G37*
G36*
X476409Y43000D02*
X476218Y42995D01*
X476046Y42980D01*
X475895Y42955D01*
X475764Y42920D01*
X475652Y42875D01*
X475561Y42820D01*
X475490Y42755D01*
X475439Y42680D01*
X475408Y42595D01*
X475397Y42500D01*
X475409Y43988D01*
X476409Y44000D01*
Y43000D01*
D02*
G37*
G36*
X111224Y43134D02*
X111156Y43110D01*
X111096Y43069D01*
X111044Y43012D01*
X111000Y42939D01*
X110964Y42850D01*
X110936Y42744D01*
X110916Y42622D01*
X110904Y42484D01*
X110900Y42330D01*
X110100D01*
X110096Y42484D01*
X110084Y42622D01*
X110064Y42744D01*
X110036Y42850D01*
X110000Y42939D01*
X109956Y43012D01*
X109904Y43069D01*
X109844Y43110D01*
X109776Y43134D01*
X109700Y43142D01*
X111300D01*
X111224Y43134D01*
D02*
G37*
G36*
X150765Y42926D02*
X150780Y42754D01*
X150805Y42602D01*
X150840Y42470D01*
X150885Y42359D01*
X150940Y42268D01*
X151005Y42197D01*
X151080Y42146D01*
X151165Y42116D01*
X151260Y42106D01*
X149260D01*
X149355Y42116D01*
X149440Y42146D01*
X149515Y42197D01*
X149580Y42268D01*
X149635Y42359D01*
X149680Y42470D01*
X149715Y42602D01*
X149740Y42754D01*
X149755Y42926D01*
X149760Y43118D01*
X150760D01*
X150765Y42926D01*
D02*
G37*
G36*
X456818Y43030D02*
X456733Y42999D01*
X456658Y42949D01*
X456593Y42878D01*
X456538Y42787D01*
X456493Y42675D01*
X456458Y42544D01*
X456433Y42392D01*
X456418Y42220D01*
X456413Y42028D01*
X455413D01*
X455408Y42220D01*
X455393Y42392D01*
X455368Y42544D01*
X455333Y42675D01*
X455288Y42787D01*
X455233Y42878D01*
X455168Y42949D01*
X455093Y42999D01*
X455008Y43030D01*
X454913Y43040D01*
X456913D01*
X456818Y43030D01*
D02*
G37*
G36*
X296165Y42577D02*
X296080Y42546D01*
X296005Y42496D01*
X295940Y42425D01*
X295885Y42334D01*
X295840Y42223D01*
X295805Y42091D01*
X295780Y41939D01*
X295765Y41767D01*
X295760Y41575D01*
X294760D01*
X294755Y41767D01*
X294740Y41939D01*
X294715Y42091D01*
X294680Y42223D01*
X294635Y42334D01*
X294580Y42425D01*
X294515Y42496D01*
X294440Y42546D01*
X294355Y42577D01*
X294260Y42587D01*
X296260D01*
X296165Y42577D01*
D02*
G37*
G36*
X284503Y41491D02*
X284527Y41171D01*
X284547Y41041D01*
X284574Y40931D01*
X284606Y40841D01*
X284645Y40771D01*
X284689Y40721D01*
X284739Y40691D01*
X284795Y40681D01*
X283697Y40674D01*
X283740Y40669D01*
X281740D01*
X281835Y40679D01*
X281920Y40709D01*
X281995Y40760D01*
X282060Y40831D01*
X282115Y40922D01*
X282160Y41033D01*
X282195Y41165D01*
X282220Y41317D01*
X282235Y41489D01*
X282240Y41681D01*
X283240D01*
X283245Y41489D01*
X283260Y41317D01*
X283285Y41165D01*
X283320Y41033D01*
X283365Y40922D01*
X283370Y40915D01*
X283375Y40924D01*
X283420Y41035D01*
X283455Y41166D01*
X283480Y41318D01*
X283495Y41489D01*
X283500Y41681D01*
X284500D01*
X284503Y41491D01*
D02*
G37*
G36*
X256224Y41197D02*
X256156Y41173D01*
X256096Y41132D01*
X256044Y41075D01*
X256000Y41002D01*
X255964Y40913D01*
X255936Y40807D01*
X255916Y40685D01*
X255904Y40547D01*
X255900Y40393D01*
X255100D01*
X255096Y40547D01*
X255084Y40685D01*
X255064Y40807D01*
X255036Y40913D01*
X255000Y41002D01*
X254956Y41075D01*
X254904Y41132D01*
X254844Y41173D01*
X254776Y41197D01*
X254700Y41205D01*
X256300D01*
X256224Y41197D01*
D02*
G37*
G36*
X295765Y40989D02*
X295780Y40817D01*
X295805Y40665D01*
X295840Y40533D01*
X295885Y40422D01*
X295940Y40331D01*
X296005Y40260D01*
X296080Y40209D01*
X296165Y40179D01*
X296260Y40169D01*
X294260D01*
X294355Y40179D01*
X294440Y40209D01*
X294515Y40260D01*
X294580Y40331D01*
X294635Y40422D01*
X294680Y40533D01*
X294715Y40665D01*
X294740Y40817D01*
X294755Y40989D01*
X294760Y41181D01*
X295760D01*
X295765Y40989D01*
D02*
G37*
G36*
X128205Y39137D02*
X128197Y39213D01*
X128173Y39281D01*
X128133Y39341D01*
X128077Y39393D01*
X128005Y39437D01*
X127917Y39473D01*
X127813Y39501D01*
X127693Y39521D01*
X127557Y39533D01*
X127405Y39537D01*
Y40337D01*
X127557Y40341D01*
X127693Y40353D01*
X127813Y40373D01*
X127917Y40401D01*
X128005Y40437D01*
X128077Y40481D01*
X128133Y40533D01*
X128173Y40593D01*
X128197Y40661D01*
X128205Y40737D01*
Y39137D01*
D02*
G37*
G36*
X467665Y40077D02*
X467580Y40047D01*
X467505Y39996D01*
X467440Y39925D01*
X467385Y39834D01*
X467340Y39723D01*
X467305Y39591D01*
X467280Y39439D01*
X467265Y39267D01*
X467260Y39075D01*
X466260D01*
X466255Y39267D01*
X466240Y39439D01*
X466215Y39591D01*
X466180Y39723D01*
X466135Y39834D01*
X466080Y39925D01*
X466015Y39996D01*
X465940Y40047D01*
X465855Y40077D01*
X465760Y40087D01*
X467760D01*
X467665Y40077D01*
D02*
G37*
G36*
X148217Y38937D02*
X148207Y39032D01*
X148176Y39117D01*
X148126Y39192D01*
X148055Y39257D01*
X147964Y39312D01*
X147853Y39357D01*
X147721Y39392D01*
X147569Y39417D01*
X147397Y39432D01*
X147205Y39437D01*
Y40437D01*
X147397Y40442D01*
X147569Y40457D01*
X147721Y40482D01*
X147853Y40517D01*
X147964Y40562D01*
X148055Y40617D01*
X148126Y40682D01*
X148176Y40757D01*
X148207Y40842D01*
X148217Y40937D01*
Y38937D01*
D02*
G37*
G36*
X139793Y40842D02*
X139824Y40757D01*
X139874Y40682D01*
X139945Y40617D01*
X140036Y40562D01*
X140147Y40517D01*
X140279Y40482D01*
X140431Y40457D01*
X140603Y40442D01*
X140795Y40437D01*
Y39437D01*
X140603Y39432D01*
X140431Y39417D01*
X140279Y39392D01*
X140147Y39357D01*
X140036Y39312D01*
X139945Y39257D01*
X139874Y39192D01*
X139824Y39117D01*
X139793Y39032D01*
X139783Y38937D01*
Y40937D01*
X139793Y40842D01*
D02*
G37*
G36*
X145181Y40883D02*
X145293Y40789D01*
X145410Y40707D01*
X145529Y40635D01*
X145651Y40574D01*
X145777Y40525D01*
X145907Y40486D01*
X146039Y40459D01*
X146175Y40442D01*
X146314Y40437D01*
Y39437D01*
X146175Y39432D01*
X146039Y39415D01*
X145907Y39388D01*
X145777Y39349D01*
X145651Y39299D01*
X145529Y39239D01*
X145410Y39167D01*
X145293Y39085D01*
X145181Y38991D01*
X145071Y38887D01*
Y40987D01*
X145181Y40883D01*
D02*
G37*
G36*
X142929Y38887D02*
X142819Y38991D01*
X142707Y39085D01*
X142590Y39167D01*
X142471Y39239D01*
X142349Y39299D01*
X142222Y39349D01*
X142093Y39388D01*
X141961Y39415D01*
X141825Y39432D01*
X141686Y39437D01*
Y40437D01*
X141825Y40442D01*
X141961Y40459D01*
X142093Y40486D01*
X142222Y40525D01*
X142349Y40574D01*
X142471Y40635D01*
X142590Y40707D01*
X142707Y40789D01*
X142819Y40883D01*
X142929Y40987D01*
Y38887D01*
D02*
G37*
G36*
X125199Y40863D02*
X125326Y40753D01*
X125453Y40655D01*
X125581Y40571D01*
X125708Y40499D01*
X125836Y40441D01*
X125963Y40396D01*
X126091Y40363D01*
X126218Y40343D01*
X126346Y40337D01*
Y39537D01*
X126218Y39531D01*
X126091Y39511D01*
X125963Y39478D01*
X125836Y39433D01*
X125708Y39375D01*
X125581Y39303D01*
X125453Y39219D01*
X125326Y39121D01*
X125199Y39011D01*
X125071Y38887D01*
Y40987D01*
X125199Y40863D01*
D02*
G37*
G36*
X122929Y38887D02*
X122801Y39011D01*
X122674Y39121D01*
X122547Y39219D01*
X122419Y39303D01*
X122292Y39375D01*
X122164Y39433D01*
X122037Y39478D01*
X121909Y39511D01*
X121782Y39531D01*
X121654Y39537D01*
Y40337D01*
X121782Y40343D01*
X121909Y40363D01*
X122037Y40396D01*
X122164Y40441D01*
X122292Y40499D01*
X122419Y40571D01*
X122547Y40655D01*
X122674Y40753D01*
X122801Y40863D01*
X122929Y40987D01*
Y38887D01*
D02*
G37*
G36*
X159803Y40161D02*
X159827Y40093D01*
X159867Y40033D01*
X159923Y39981D01*
X159995Y39937D01*
X160083Y39901D01*
X160187Y39873D01*
X160307Y39853D01*
X160443Y39841D01*
X160595Y39837D01*
Y39037D01*
X160443Y39033D01*
X160307Y39021D01*
X160187Y39001D01*
X160083Y38973D01*
X159995Y38937D01*
X159923Y38893D01*
X159867Y38841D01*
X159827Y38781D01*
X159803Y38713D01*
X159795Y38637D01*
Y40237D01*
X159803Y40161D01*
D02*
G37*
G36*
X163429Y38387D02*
X163301Y38511D01*
X163174Y38621D01*
X163047Y38719D01*
X162919Y38803D01*
X162792Y38875D01*
X162664Y38933D01*
X162537Y38978D01*
X162409Y39011D01*
X162282Y39031D01*
X162154Y39037D01*
Y39837D01*
X162282Y39843D01*
X162409Y39863D01*
X162537Y39895D01*
X162664Y39941D01*
X162792Y39999D01*
X162919Y40071D01*
X163047Y40156D01*
X163174Y40253D01*
X163301Y40363D01*
X163429Y40487D01*
Y38387D01*
D02*
G37*
G36*
X456003Y38991D02*
X456027Y38671D01*
X456047Y38541D01*
X456074Y38431D01*
X456106Y38341D01*
X456145Y38271D01*
X456189Y38221D01*
X456239Y38191D01*
X456295Y38181D01*
X454500Y38169D01*
X454595Y38180D01*
X454680Y38210D01*
X454755Y38261D01*
X454820Y38332D01*
X454875Y38424D01*
X454920Y38535D01*
X454955Y38666D01*
X454980Y38818D01*
X454995Y38989D01*
X455000Y39181D01*
X456000D01*
X456003Y38991D01*
D02*
G37*
G36*
X427724Y38697D02*
X427656Y38673D01*
X427596Y38632D01*
X427544Y38575D01*
X427500Y38502D01*
X427464Y38413D01*
X427436Y38307D01*
X427416Y38185D01*
X427404Y38047D01*
X427400Y37893D01*
X426600D01*
X426596Y38047D01*
X426584Y38185D01*
X426564Y38307D01*
X426536Y38413D01*
X426500Y38502D01*
X426456Y38575D01*
X426404Y38632D01*
X426344Y38673D01*
X426276Y38697D01*
X426200Y38705D01*
X427800D01*
X427724Y38697D01*
D02*
G37*
G36*
X467265Y38489D02*
X467280Y38317D01*
X467305Y38165D01*
X467340Y38033D01*
X467385Y37922D01*
X467440Y37831D01*
X467505Y37760D01*
X467580Y37709D01*
X467665Y37679D01*
X467760Y37669D01*
X465760D01*
X465855Y37679D01*
X465940Y37709D01*
X466015Y37760D01*
X466080Y37831D01*
X466135Y37922D01*
X466180Y38033D01*
X466215Y38165D01*
X466240Y38317D01*
X466255Y38489D01*
X466260Y38681D01*
X467260D01*
X467265Y38489D01*
D02*
G37*
G36*
X273205Y37200D02*
X273197Y37276D01*
X273173Y37344D01*
X273133Y37404D01*
X273077Y37456D01*
X273005Y37500D01*
X272917Y37536D01*
X272813Y37564D01*
X272693Y37584D01*
X272557Y37596D01*
X272405Y37600D01*
Y38400D01*
X272557Y38404D01*
X272693Y38416D01*
X272813Y38436D01*
X272917Y38464D01*
X273005Y38500D01*
X273077Y38544D01*
X273133Y38596D01*
X273173Y38656D01*
X273197Y38724D01*
X273205Y38800D01*
Y37200D01*
D02*
G37*
G36*
X293217Y37000D02*
X293207Y37095D01*
X293176Y37180D01*
X293126Y37255D01*
X293055Y37320D01*
X292964Y37375D01*
X292853Y37420D01*
X292721Y37455D01*
X292569Y37480D01*
X292397Y37495D01*
X292205Y37500D01*
Y38500D01*
X292397Y38505D01*
X292569Y38520D01*
X292721Y38545D01*
X292853Y38580D01*
X292964Y38625D01*
X293055Y38680D01*
X293126Y38745D01*
X293176Y38820D01*
X293207Y38905D01*
X293217Y39000D01*
Y37000D01*
D02*
G37*
G36*
X284793Y38905D02*
X284824Y38820D01*
X284874Y38745D01*
X284945Y38680D01*
X285036Y38625D01*
X285147Y38580D01*
X285279Y38545D01*
X285431Y38520D01*
X285603Y38505D01*
X285795Y38500D01*
Y37500D01*
X285603Y37495D01*
X285431Y37480D01*
X285279Y37455D01*
X285147Y37420D01*
X285036Y37375D01*
X284945Y37320D01*
X284874Y37255D01*
X284824Y37180D01*
X284793Y37095D01*
X284783Y37000D01*
Y39000D01*
X284793Y38905D01*
D02*
G37*
G36*
X290181Y38945D02*
X290293Y38852D01*
X290409Y38770D01*
X290529Y38698D01*
X290651Y38638D01*
X290777Y38588D01*
X290907Y38550D01*
X291039Y38522D01*
X291175Y38506D01*
X291314Y38500D01*
Y37500D01*
X291175Y37495D01*
X291039Y37478D01*
X290907Y37451D01*
X290777Y37412D01*
X290651Y37363D01*
X290529Y37302D01*
X290409Y37231D01*
X290293Y37148D01*
X290181Y37054D01*
X290071Y36950D01*
Y39050D01*
X290181Y38945D01*
D02*
G37*
G36*
X287929Y36950D02*
X287819Y37054D01*
X287707Y37148D01*
X287591Y37231D01*
X287471Y37302D01*
X287349Y37363D01*
X287223Y37412D01*
X287093Y37451D01*
X286961Y37478D01*
X286825Y37495D01*
X286686Y37500D01*
Y38500D01*
X286825Y38506D01*
X286961Y38522D01*
X287093Y38550D01*
X287223Y38588D01*
X287349Y38638D01*
X287471Y38698D01*
X287591Y38770D01*
X287707Y38852D01*
X287819Y38945D01*
X287929Y39050D01*
Y36950D01*
D02*
G37*
G36*
X270199Y38927D02*
X270326Y38816D01*
X270454Y38719D01*
X270581Y38634D01*
X270708Y38563D01*
X270836Y38504D01*
X270963Y38458D01*
X271091Y38426D01*
X271218Y38407D01*
X271346Y38400D01*
Y37600D01*
X271218Y37593D01*
X271091Y37574D01*
X270963Y37541D01*
X270836Y37496D01*
X270708Y37437D01*
X270581Y37366D01*
X270454Y37282D01*
X270326Y37184D01*
X270199Y37073D01*
X270071Y36950D01*
Y39050D01*
X270199Y38927D01*
D02*
G37*
G36*
X267929Y36950D02*
X267801Y37073D01*
X267674Y37184D01*
X267547Y37282D01*
X267419Y37366D01*
X267292Y37437D01*
X267164Y37496D01*
X267037Y37541D01*
X266909Y37574D01*
X266782Y37593D01*
X266654Y37600D01*
Y38400D01*
X266782Y38407D01*
X266909Y38426D01*
X267037Y38458D01*
X267164Y38504D01*
X267292Y38563D01*
X267419Y38634D01*
X267547Y38719D01*
X267674Y38816D01*
X267801Y38927D01*
X267929Y39050D01*
Y36950D01*
D02*
G37*
G36*
X304803Y38224D02*
X304827Y38156D01*
X304867Y38096D01*
X304923Y38044D01*
X304995Y38000D01*
X305083Y37964D01*
X305187Y37936D01*
X305307Y37916D01*
X305443Y37904D01*
X305595Y37900D01*
Y37100D01*
X305443Y37096D01*
X305307Y37084D01*
X305187Y37064D01*
X305083Y37036D01*
X304995Y37000D01*
X304923Y36956D01*
X304867Y36904D01*
X304827Y36844D01*
X304803Y36776D01*
X304795Y36700D01*
Y38300D01*
X304803Y38224D01*
D02*
G37*
G36*
X308429Y36450D02*
X308301Y36573D01*
X308174Y36684D01*
X308047Y36781D01*
X307919Y36866D01*
X307792Y36937D01*
X307664Y36996D01*
X307537Y37042D01*
X307409Y37074D01*
X307282Y37093D01*
X307154Y37100D01*
Y37900D01*
X307282Y37907D01*
X307409Y37926D01*
X307537Y37958D01*
X307664Y38004D01*
X307792Y38063D01*
X307919Y38134D01*
X308047Y38219D01*
X308174Y38316D01*
X308301Y38427D01*
X308429Y38550D01*
Y36450D01*
D02*
G37*
G36*
X444705Y34700D02*
X444697Y34776D01*
X444673Y34844D01*
X444633Y34904D01*
X444577Y34956D01*
X444505Y35000D01*
X444417Y35036D01*
X444313Y35064D01*
X444193Y35084D01*
X444057Y35096D01*
X443905Y35100D01*
Y35900D01*
X444057Y35904D01*
X444193Y35916D01*
X444313Y35936D01*
X444417Y35964D01*
X444505Y36000D01*
X444577Y36044D01*
X444633Y36096D01*
X444673Y36156D01*
X444697Y36224D01*
X444705Y36300D01*
Y34700D01*
D02*
G37*
G36*
X464717Y34500D02*
X464707Y34595D01*
X464676Y34680D01*
X464626Y34755D01*
X464555Y34820D01*
X464464Y34875D01*
X464353Y34920D01*
X464221Y34955D01*
X464069Y34980D01*
X463897Y34995D01*
X463705Y35000D01*
Y36000D01*
X463897Y36005D01*
X464069Y36020D01*
X464221Y36045D01*
X464353Y36080D01*
X464464Y36125D01*
X464555Y36180D01*
X464626Y36245D01*
X464676Y36320D01*
X464707Y36405D01*
X464717Y36500D01*
Y34500D01*
D02*
G37*
G36*
X456293Y36405D02*
X456324Y36320D01*
X456374Y36245D01*
X456445Y36180D01*
X456536Y36125D01*
X456647Y36080D01*
X456779Y36045D01*
X456931Y36020D01*
X457103Y36005D01*
X457295Y36000D01*
Y35000D01*
X457103Y34995D01*
X456931Y34980D01*
X456779Y34955D01*
X456647Y34920D01*
X456536Y34875D01*
X456445Y34820D01*
X456374Y34755D01*
X456324Y34680D01*
X456293Y34595D01*
X456283Y34500D01*
Y36500D01*
X456293Y36405D01*
D02*
G37*
G36*
X461681Y36446D02*
X461794Y36352D01*
X461909Y36270D01*
X462029Y36198D01*
X462151Y36138D01*
X462278Y36088D01*
X462407Y36050D01*
X462539Y36022D01*
X462675Y36005D01*
X462814Y36000D01*
Y35000D01*
X462675Y34995D01*
X462539Y34978D01*
X462407Y34951D01*
X462278Y34912D01*
X462151Y34863D01*
X462029Y34802D01*
X461909Y34730D01*
X461794Y34648D01*
X461681Y34554D01*
X461571Y34450D01*
Y36550D01*
X461681Y36446D01*
D02*
G37*
G36*
X459429Y34450D02*
X459319Y34554D01*
X459206Y34648D01*
X459091Y34730D01*
X458971Y34802D01*
X458848Y34863D01*
X458722Y34912D01*
X458593Y34951D01*
X458461Y34978D01*
X458325Y34995D01*
X458186Y35000D01*
Y36000D01*
X458325Y36005D01*
X458461Y36022D01*
X458593Y36050D01*
X458722Y36088D01*
X458848Y36138D01*
X458971Y36198D01*
X459091Y36270D01*
X459206Y36352D01*
X459319Y36446D01*
X459429Y36550D01*
Y34450D01*
D02*
G37*
G36*
X441699Y36426D02*
X441826Y36316D01*
X441954Y36219D01*
X442081Y36134D01*
X442208Y36062D01*
X442336Y36004D01*
X442463Y35958D01*
X442591Y35926D01*
X442718Y35906D01*
X442846Y35900D01*
Y35100D01*
X442718Y35094D01*
X442591Y35074D01*
X442463Y35041D01*
X442336Y34996D01*
X442208Y34938D01*
X442081Y34866D01*
X441954Y34782D01*
X441826Y34684D01*
X441699Y34574D01*
X441571Y34450D01*
Y36550D01*
X441699Y36426D01*
D02*
G37*
G36*
X439429Y34450D02*
X439301Y34574D01*
X439174Y34684D01*
X439046Y34782D01*
X438919Y34866D01*
X438792Y34938D01*
X438664Y34996D01*
X438537Y35041D01*
X438409Y35074D01*
X438282Y35094D01*
X438154Y35100D01*
Y35900D01*
X438282Y35906D01*
X438409Y35926D01*
X438537Y35958D01*
X438664Y36004D01*
X438792Y36062D01*
X438919Y36134D01*
X439046Y36219D01*
X439174Y36316D01*
X439301Y36426D01*
X439429Y36550D01*
Y34450D01*
D02*
G37*
G36*
X476303Y35724D02*
X476327Y35656D01*
X476367Y35596D01*
X476423Y35544D01*
X476495Y35500D01*
X476583Y35464D01*
X476687Y35436D01*
X476807Y35416D01*
X476943Y35404D01*
X477095Y35400D01*
Y34600D01*
X476943Y34596D01*
X476807Y34584D01*
X476687Y34564D01*
X476583Y34536D01*
X476495Y34500D01*
X476423Y34456D01*
X476367Y34404D01*
X476327Y34344D01*
X476303Y34276D01*
X476295Y34200D01*
Y35800D01*
X476303Y35724D01*
D02*
G37*
G36*
X479929Y33950D02*
X479801Y34073D01*
X479674Y34184D01*
X479546Y34282D01*
X479419Y34366D01*
X479292Y34438D01*
X479164Y34496D01*
X479037Y34541D01*
X478909Y34574D01*
X478782Y34593D01*
X478654Y34600D01*
Y35400D01*
X478782Y35407D01*
X478909Y35426D01*
X479037Y35458D01*
X479164Y35504D01*
X479292Y35563D01*
X479419Y35634D01*
X479546Y35719D01*
X479674Y35816D01*
X479801Y35926D01*
X479929Y36050D01*
Y33950D01*
D02*
G37*
G36*
X552268Y26700D02*
X552260Y26776D01*
X552236Y26844D01*
X552195Y26904D01*
X552138Y26956D01*
X552065Y27000D01*
X551976Y27036D01*
X551870Y27064D01*
X551748Y27084D01*
X551610Y27096D01*
X551456Y27100D01*
Y27900D01*
X551610Y27904D01*
X551748Y27916D01*
X551870Y27936D01*
X551976Y27964D01*
X552065Y28000D01*
X552138Y28044D01*
X552195Y28096D01*
X552236Y28156D01*
X552260Y28224D01*
X552268Y28300D01*
Y26700D01*
D02*
G37*
G36*
X549199Y28427D02*
X549326Y28316D01*
X549453Y28218D01*
X549581Y28134D01*
X549708Y28062D01*
X549836Y28004D01*
X549963Y27959D01*
X550091Y27926D01*
X550218Y27907D01*
X550346Y27900D01*
Y27100D01*
X550218Y27093D01*
X550091Y27074D01*
X549963Y27042D01*
X549836Y26996D01*
X549708Y26937D01*
X549581Y26866D01*
X549453Y26781D01*
X549326Y26684D01*
X549199Y26574D01*
X549071Y26450D01*
Y28550D01*
X549199Y28427D01*
D02*
G37*
G36*
X552268Y19500D02*
X552258Y19595D01*
X552228Y19680D01*
X552177Y19755D01*
X552106Y19820D01*
X552015Y19875D01*
X551904Y19920D01*
X551772Y19955D01*
X551620Y19980D01*
X551448Y19995D01*
X551256Y20000D01*
Y21000D01*
X551448Y21005D01*
X551620Y21020D01*
X551772Y21045D01*
X551904Y21080D01*
X552015Y21125D01*
X552106Y21180D01*
X552177Y21245D01*
X552228Y21320D01*
X552258Y21405D01*
X552268Y21500D01*
Y19500D01*
D02*
G37*
G36*
X549181Y21445D02*
X549294Y21352D01*
X549409Y21270D01*
X549529Y21198D01*
X549651Y21137D01*
X549778Y21088D01*
X549907Y21049D01*
X550039Y21022D01*
X550175Y21005D01*
X550314Y21000D01*
Y20000D01*
X550175Y19995D01*
X550039Y19978D01*
X549907Y19951D01*
X549778Y19912D01*
X549651Y19862D01*
X549529Y19802D01*
X549409Y19730D01*
X549294Y19648D01*
X549181Y19555D01*
X549071Y19450D01*
Y21550D01*
X549181Y21445D01*
D02*
G37*
G36*
X576872Y20645D02*
X576902Y20560D01*
X576952Y20485D01*
X577022Y20420D01*
X577112Y20365D01*
X577222Y20320D01*
X577352Y20285D01*
X577502Y20260D01*
X577672Y20245D01*
X577862Y20240D01*
Y19240D01*
X577672Y19235D01*
X577502Y19220D01*
X577352Y19195D01*
X577222Y19160D01*
X577112Y19115D01*
X577022Y19060D01*
X576952Y18995D01*
X576902Y18920D01*
X576872Y18835D01*
X576862Y18740D01*
Y20740D01*
X576872Y20645D01*
D02*
G37*
G36*
X561150Y18740D02*
X561140Y18835D01*
X561109Y18920D01*
X561059Y18995D01*
X560988Y19060D01*
X560897Y19115D01*
X560786Y19160D01*
X560654Y19195D01*
X560502Y19220D01*
X560330Y19235D01*
X560138Y19240D01*
Y20240D01*
X560330Y20245D01*
X560502Y20260D01*
X560654Y20285D01*
X560786Y20320D01*
X560897Y20365D01*
X560988Y20420D01*
X561059Y20485D01*
X561109Y20560D01*
X561140Y20645D01*
X561150Y20740D01*
Y18740D01*
D02*
G37*
G36*
X557742Y20645D02*
X557772Y20560D01*
X557823Y20485D01*
X557894Y20420D01*
X557985Y20365D01*
X558096Y20320D01*
X558228Y20285D01*
X558380Y20260D01*
X558552Y20245D01*
X558744Y20240D01*
Y19240D01*
X558552Y19235D01*
X558380Y19220D01*
X558228Y19195D01*
X558096Y19160D01*
X557985Y19115D01*
X557894Y19060D01*
X557823Y18995D01*
X557772Y18920D01*
X557742Y18835D01*
X557732Y18740D01*
Y20740D01*
X557742Y20645D01*
D02*
G37*
G36*
X329510Y19310D02*
X329540Y19140D01*
X329590Y18990D01*
X329660Y18860D01*
X329750Y18750D01*
X329860Y18660D01*
X329990Y18590D01*
X330140Y18540D01*
X330310Y18510D01*
X330500Y18500D01*
X329000Y17500D01*
X327500Y18500D01*
X327690Y18510D01*
X327860Y18540D01*
X328010Y18590D01*
X328140Y18660D01*
X328250Y18750D01*
X328340Y18860D01*
X328410Y18990D01*
X328460Y19140D01*
X328490Y19310D01*
X328500Y19500D01*
X329500D01*
X329510Y19310D01*
D02*
G37*
G36*
X572961Y15563D02*
X572950Y15658D01*
X572919Y15743D01*
X572868Y15818D01*
X572797Y15883D01*
X572706Y15938D01*
X572595Y15983D01*
X572464Y16018D01*
X572312Y16043D01*
X572141Y16058D01*
X571949Y16063D01*
Y17063D01*
X572139Y17064D01*
X572859Y17115D01*
X572909Y17131D01*
X572939Y17149D01*
X572949Y17169D01*
X572961Y15563D01*
D02*
G37*
G36*
X576872Y16905D02*
X576902Y16820D01*
X576952Y16745D01*
X577022Y16680D01*
X577112Y16625D01*
X577222Y16580D01*
X577352Y16545D01*
X577502Y16520D01*
X577672Y16505D01*
X577862Y16500D01*
Y15500D01*
X577672Y15495D01*
X577502Y15480D01*
X577352Y15455D01*
X577222Y15420D01*
X577112Y15375D01*
X577022Y15320D01*
X576952Y15255D01*
X576902Y15180D01*
X576872Y15095D01*
X576862Y15000D01*
Y17000D01*
X576872Y16905D01*
D02*
G37*
G36*
X587866Y13437D02*
X587856Y13532D01*
X587826Y13617D01*
X587775Y13692D01*
X587705Y13757D01*
X587613Y13812D01*
X587502Y13857D01*
X587371Y13892D01*
X587219Y13917D01*
X587047Y13932D01*
X586855Y13937D01*
Y14937D01*
X587047Y14942D01*
X587219Y14957D01*
X587371Y14982D01*
X587502Y15017D01*
X587613Y15062D01*
X587705Y15117D01*
X587775Y15182D01*
X587826Y15257D01*
X587856Y15342D01*
X587866Y15437D01*
Y13437D01*
D02*
G37*
G36*
X561150Y11260D02*
X561140Y11355D01*
X561109Y11440D01*
X561059Y11515D01*
X560988Y11580D01*
X560897Y11635D01*
X560786Y11680D01*
X560654Y11715D01*
X560502Y11740D01*
X560330Y11755D01*
X560138Y11760D01*
Y12760D01*
X560330Y12765D01*
X560502Y12780D01*
X560654Y12805D01*
X560786Y12840D01*
X560897Y12885D01*
X560988Y12940D01*
X561059Y13005D01*
X561109Y13080D01*
X561140Y13165D01*
X561150Y13260D01*
Y11260D01*
D02*
G37*
G36*
X575724Y11095D02*
X575656Y11070D01*
X575596Y11030D01*
X575544Y10973D01*
X575500Y10900D01*
X575464Y10810D01*
X575436Y10705D01*
X575416Y10583D01*
X575404Y10445D01*
X575400Y10291D01*
X574600D01*
X574596Y10445D01*
X574584Y10583D01*
X574564Y10705D01*
X574536Y10810D01*
X574500Y10900D01*
X574456Y10973D01*
X574404Y11030D01*
X574344Y11070D01*
X574276Y11095D01*
X574200Y11103D01*
X575800D01*
X575724Y11095D01*
D02*
G37*
G36*
X575407Y8218D02*
X575426Y8091D01*
X575458Y7963D01*
X575504Y7836D01*
X575562Y7708D01*
X575634Y7581D01*
X575718Y7453D01*
X575816Y7326D01*
X575926Y7199D01*
X576050Y7071D01*
X573950D01*
X574074Y7199D01*
X574184Y7326D01*
X574282Y7453D01*
X574366Y7581D01*
X574438Y7708D01*
X574496Y7836D01*
X574542Y7963D01*
X574574Y8091D01*
X574593Y8218D01*
X574600Y8346D01*
X575400D01*
X575407Y8218D01*
D02*
G37*
G36*
X491510Y8310D02*
X491540Y8140D01*
X491590Y7990D01*
X491660Y7860D01*
X491750Y7750D01*
X491860Y7660D01*
X491990Y7590D01*
X492140Y7540D01*
X492310Y7510D01*
X492500Y7500D01*
X491000Y6500D01*
X489500Y7500D01*
X489690Y7510D01*
X489860Y7540D01*
X490010Y7590D01*
X490140Y7660D01*
X490250Y7750D01*
X490340Y7860D01*
X490410Y7990D01*
X490460Y8140D01*
X490490Y8310D01*
X490500Y8500D01*
X491500D01*
X491510Y8310D01*
D02*
G37*
G36*
X593144Y7905D02*
X593174Y7820D01*
X593225Y7745D01*
X593295Y7680D01*
X593387Y7625D01*
X593498Y7580D01*
X593629Y7545D01*
X593781Y7520D01*
X593953Y7505D01*
X594145Y7500D01*
Y6500D01*
X593953Y6495D01*
X593781Y6480D01*
X593629Y6455D01*
X593498Y6420D01*
X593387Y6375D01*
X593295Y6320D01*
X593225Y6255D01*
X593174Y6180D01*
X593144Y6095D01*
X593133Y6000D01*
Y8000D01*
X593144Y7905D01*
D02*
G37*
G36*
X599929Y5950D02*
X599819Y6055D01*
X599707Y6148D01*
X599590Y6230D01*
X599471Y6302D01*
X599348Y6363D01*
X599223Y6412D01*
X599093Y6451D01*
X598961Y6478D01*
X598825Y6494D01*
X598686Y6500D01*
Y7500D01*
X598825Y7506D01*
X598961Y7522D01*
X599093Y7549D01*
X599223Y7588D01*
X599348Y7638D01*
X599471Y7698D01*
X599590Y7769D01*
X599707Y7852D01*
X599819Y7946D01*
X599929Y8050D01*
Y5950D01*
D02*
G37*
%LPC*%
G36*
X174755Y372813D02*
X173728D01*
X172736Y372547D01*
X171847Y372033D01*
X171121Y371307D01*
X170607Y370418D01*
X170342Y369426D01*
Y368399D01*
X170607Y367407D01*
X171121Y366518D01*
X171847Y365792D01*
X172736Y365278D01*
X173728Y365013D01*
X174755D01*
X175747Y365278D01*
X176636Y365792D01*
X177362Y366518D01*
X177876Y367407D01*
X178141Y368399D01*
Y369426D01*
X177876Y370418D01*
X177362Y371307D01*
X176636Y372033D01*
X175747Y372547D01*
X174755Y372813D01*
D02*
G37*
%LPD*%
D13*
X474000Y362000D02*
X487500D01*
X467500Y355500D02*
X474000Y362000D01*
X342914Y355500D02*
X467500D01*
X273226Y335226D02*
X301500Y363500D01*
X313500D01*
X107500Y361500D02*
X135000D01*
X78500Y390500D02*
X107500Y361500D01*
X145000Y374000D02*
Y385000D01*
Y374000D02*
X147500Y371500D01*
X145000Y385000D02*
X146240Y386240D01*
X147500Y371500D02*
X154000D01*
X142000Y367500D02*
X155500Y354000D01*
X142000Y367500D02*
Y390000D01*
X143500Y391500D01*
X146240Y386240D02*
X151095D01*
X239953Y277500D02*
X273226Y310774D01*
Y335226D01*
X78500Y370500D02*
X82500D01*
X175500Y277500D02*
X239953D01*
X82500Y370500D02*
X175500Y277500D01*
X88332Y172606D02*
X91072D01*
X87500Y173437D02*
X88332Y172606D01*
X91072D02*
X98114Y165563D01*
X451114Y154937D02*
X452000D01*
X448177Y152000D02*
X451114Y154937D01*
X435500Y152000D02*
X448177D01*
X452531Y146531D02*
X463000Y157000D01*
X448890Y179953D02*
X449000Y180063D01*
X448890Y173500D02*
Y179953D01*
X423886Y135937D02*
X425157D01*
X430500D01*
X423000D02*
X423886D01*
X415000D02*
X423000D01*
X430500D02*
X438000D01*
X340500Y232500D02*
X384063Y188937D01*
X432000D01*
X436055Y152555D02*
Y165535D01*
X435500Y152000D02*
X436055Y152555D01*
X452445Y165535D02*
X452945Y165035D01*
X436055Y165535D02*
X452445D01*
X432000Y174000D02*
Y181063D01*
X441000Y179459D02*
Y183000D01*
X440110Y174000D02*
Y178569D01*
X441000Y179459D01*
X457000Y173500D02*
X457500Y173000D01*
X464000D01*
X449000Y188000D02*
X487000D01*
X511414Y163586D01*
Y132000D02*
Y163586D01*
X511000Y132000D02*
X511414D01*
X500000Y121000D02*
X511000Y132000D01*
X500000Y71000D02*
Y121000D01*
Y71000D02*
X512500Y58500D01*
X522500D01*
X523842Y121173D02*
Y123665D01*
X525114Y124937D01*
X506000Y94000D02*
Y103331D01*
X523842Y121173D01*
X525114Y124937D02*
X526000D01*
X175000Y245000D02*
X477000D01*
X506750Y215250D01*
X170500Y249500D02*
X175000Y245000D01*
X506750Y181750D02*
X526000Y162500D01*
X506750Y181750D02*
Y215250D01*
X463000Y157000D02*
X481000D01*
X482750Y141750D02*
Y155250D01*
X481000Y157000D02*
X482750Y155250D01*
X467500Y126500D02*
X482750Y141750D01*
X487000Y135000D02*
Y152000D01*
X474000Y122000D02*
X487000Y135000D01*
X467500Y93000D02*
Y126500D01*
X462500Y83937D02*
Y135500D01*
X479000Y152000D01*
X474000Y93500D02*
Y122000D01*
Y93500D02*
X484000Y83500D01*
Y51374D02*
Y83500D01*
X310000Y193000D02*
X352000Y151000D01*
Y120000D02*
Y151000D01*
Y120000D02*
X402563Y69437D01*
X526000Y124937D02*
Y162500D01*
X19500Y370500D02*
X45500Y344500D01*
X18500Y370500D02*
X19500D01*
X45500Y344500D02*
X45500D01*
X18500Y380500D02*
X52000Y347000D01*
X611000Y40500D02*
Y232500D01*
X590240Y19740D02*
X611000Y40500D01*
X589500Y254000D02*
X611000Y232500D01*
X74000Y254000D02*
X589500D01*
X491000Y7000D02*
Y45000D01*
X488500Y47500D02*
X491000Y45000D01*
X473000Y47500D02*
X488500D01*
X491000Y7000D02*
X510740D01*
X516000Y12260D02*
X563095D01*
X510740Y7000D02*
X516000Y12260D01*
X449000Y7000D02*
X491000D01*
X329000Y18000D02*
X428500D01*
X438000Y8500D01*
X447500D01*
X449000Y7000D01*
X43000Y254000D02*
X53000Y244000D01*
X173172D01*
X184672Y232500D01*
X340500D01*
X55000Y249500D02*
X170500D01*
X43000Y254000D02*
Y264000D01*
X45500Y266500D01*
X64500Y226000D02*
X175000D01*
X208000Y193000D01*
X36500Y254000D02*
Y339500D01*
Y254000D02*
X64500Y226000D01*
X52000Y252500D02*
X55000Y249500D01*
X35500Y340500D02*
X36500Y339500D01*
X45500Y266500D02*
Y344500D01*
X103240Y186311D02*
Y187000D01*
X99000Y173437D02*
Y182071D01*
X103240Y186311D01*
X98114Y165563D02*
X99000D01*
X99063Y165500D01*
X79000D02*
X87437D01*
X87500Y165563D01*
Y173437D02*
Y180063D01*
X570555Y103945D02*
X574047Y107437D01*
X579500D01*
X569965Y103945D02*
X570555D01*
X579937Y107000D02*
X587063D01*
X579500Y107437D02*
X579937Y107000D01*
X595000Y106937D02*
X595437Y106500D01*
X594937Y107000D02*
X595000Y106937D01*
X595437Y106500D02*
X603000D01*
X595000Y98500D02*
Y106937D01*
X580563Y98500D02*
X586890D01*
X579500Y99563D02*
X580563Y98500D01*
X584165Y84272D02*
Y85287D01*
X579417Y90035D02*
X584165Y85287D01*
X571209Y90035D02*
X579417D01*
X584165Y84272D02*
X585437Y83000D01*
X590359D02*
X590945Y83586D01*
Y90035D01*
X585437Y83000D02*
X590359D01*
X595500Y94000D02*
X597000Y92500D01*
Y75677D02*
Y92500D01*
X578000Y94000D02*
X595500D01*
X588512Y67189D02*
X597000Y75677D01*
X78500Y400500D02*
X116000Y438000D01*
X201500D01*
X235000Y404500D02*
X255500D01*
X201500Y438000D02*
X235000Y404500D01*
X295500Y315000D02*
X459500D01*
X464000Y310500D01*
X248000Y259500D02*
X298000Y309500D01*
X97000Y259500D02*
X248000D01*
X95453Y281953D02*
X117500Y304000D01*
Y311000D01*
X299000Y326000D02*
X313414D01*
X245000Y272000D02*
X299000Y326000D01*
X313414D02*
X342914Y355500D01*
X94823Y187937D02*
X95760Y187000D01*
X73063Y187937D02*
X94823D01*
X55000Y206000D02*
X73063Y187937D01*
X103240Y187000D02*
X111500D01*
X44000Y186500D02*
X71000Y159500D01*
X137000D02*
X144000Y152500D01*
X71000Y159500D02*
X137000D01*
X590937Y7000D02*
X601000D01*
X590500Y6563D02*
X590937Y7000D01*
X574905Y16000D02*
X581236D01*
X582799Y14437D02*
X590500D01*
X581236Y16000D02*
X582799Y14437D01*
X603500Y422521D02*
X604000Y423021D01*
X603500Y407500D02*
Y422521D01*
X604000Y423021D02*
Y437500D01*
X215500Y390937D02*
X220437D01*
X227500Y398000D01*
X5500Y169000D02*
X83503Y90997D01*
X5500Y169000D02*
Y447000D01*
X209500Y18000D02*
X329000D01*
Y45414D01*
X175500Y52000D02*
X209500Y18000D01*
X474240Y42819D02*
X474921Y43500D01*
X470500Y50000D02*
X473000Y47500D01*
X474921Y43500D02*
X484000D01*
X474240Y42031D02*
Y42819D01*
X548000Y20500D02*
X554760D01*
X555000Y20260D01*
X555520Y19740D01*
X563095D01*
X536500Y32000D02*
X561914D01*
X563500Y30414D01*
X522500Y46000D02*
X536500Y32000D01*
X525000Y61000D02*
X530870D01*
X522500Y46000D02*
Y58500D01*
X525000Y61000D01*
X563500Y24500D02*
Y30414D01*
Y24500D02*
X571437Y16563D01*
X574342D02*
X574905Y16000D01*
X571437Y16563D02*
X574342D01*
X245000Y264500D02*
X295500Y315000D01*
X123500Y264500D02*
X245000D01*
X52000Y252500D02*
Y347000D01*
X59000Y269000D02*
Y366000D01*
Y269000D02*
X74000Y254000D01*
X574905Y19740D02*
X590240D01*
X27000Y398000D02*
X59000Y366000D01*
X19500Y390500D02*
X27000Y398000D01*
X18500Y390500D02*
X19500D01*
X137803Y44740D02*
X139413Y46350D01*
X137803Y39937D02*
Y44740D01*
X133000Y87500D02*
Y91780D01*
Y87500D02*
X134500Y86000D01*
X449500Y83000D02*
Y87343D01*
Y83000D02*
X452500Y80000D01*
X465831D01*
X175500Y299500D02*
X190500D01*
X191500Y298500D01*
X130760Y70685D02*
Y71374D01*
Y70685D02*
X134000Y67445D01*
X137945Y49315D02*
X138626Y48634D01*
X137945Y49315D02*
Y50102D01*
X134000Y54047D02*
Y67445D01*
X138626Y48634D02*
X139413D01*
X134000Y54047D02*
X137945Y50102D01*
X274260Y70937D02*
X275760Y69437D01*
X274000Y77772D02*
X274260Y77512D01*
Y70937D02*
Y77512D01*
X275760Y63461D02*
X278500Y60720D01*
X275760Y63461D02*
Y69437D01*
X278500Y50717D02*
Y60720D01*
X282740Y37937D02*
Y46476D01*
X278500Y50717D02*
X282740Y46476D01*
X109984Y278016D02*
X123500Y264500D01*
X98916D02*
X106500D01*
X89830Y273586D02*
X98916Y264500D01*
X89830Y273586D02*
Y275977D01*
X89760Y276047D02*
X89830Y275977D01*
X76198Y280302D02*
X97000Y259500D01*
X75436Y281875D02*
X76198Y281113D01*
Y280302D02*
Y281113D01*
X72318Y281875D02*
X75436D01*
X208000Y193000D02*
X310000D01*
X18500Y340500D02*
X35500D01*
X455126Y44197D02*
X455913D01*
X454445Y44878D02*
Y45665D01*
X452645Y47465D02*
Y60863D01*
X454445Y44878D02*
X455126Y44197D01*
X452645Y47465D02*
X454445Y45665D01*
X455913Y41913D02*
Y44197D01*
X447260Y66248D02*
Y66937D01*
Y66248D02*
X452645Y60863D01*
X552130Y61000D02*
X558500D01*
X566000Y68500D02*
Y95414D01*
X558500Y61000D02*
X566000Y68500D01*
X566586Y96000D02*
X576000D01*
X566000Y95414D02*
X566586Y96000D01*
X576000D02*
X578000Y94000D01*
X588512Y66500D02*
Y67189D01*
X569937Y64937D02*
Y91500D01*
X561000Y56000D02*
X569937Y64937D01*
Y91307D02*
X571209Y90035D01*
X537642Y46000D02*
X580000D01*
X588512Y54512D01*
X532642Y51000D02*
X537642Y46000D01*
X530870Y51000D02*
X532642D01*
X588512Y54512D02*
Y66500D01*
X595563D01*
Y57500D02*
Y66500D01*
X603437Y74087D02*
X603707Y74357D01*
X603437Y66500D02*
Y74087D01*
X552130Y56000D02*
X561000D01*
X530870D02*
X552130D01*
X526173Y116890D02*
X537500D01*
X526000Y117063D02*
X526173Y116890D01*
X560032Y100768D02*
X560910Y99890D01*
X560032Y100768D02*
Y101358D01*
X560910Y99890D02*
X561500D01*
X545965Y115425D02*
X560032Y101358D01*
X545965Y115425D02*
Y120945D01*
X543500Y92937D02*
Y104276D01*
X543276Y104500D02*
X543500Y104276D01*
X528500Y92937D02*
Y103724D01*
X527724Y104500D02*
X528500Y103724D01*
X528563Y85000D02*
X534500D01*
X528500Y85063D02*
X528563Y85000D01*
X543500Y92937D02*
X554063D01*
X555500Y91500D01*
X562063D01*
Y99327D01*
X561500Y99890D02*
X562063Y99327D01*
X530870Y66000D02*
X531240Y66370D01*
Y72500D01*
X537500D01*
X552130Y66000D02*
Y71370D01*
X544500Y79000D02*
X552130Y71370D01*
X514500Y79000D02*
X544500D01*
X324414Y50000D02*
X329000Y45414D01*
X155328Y52000D02*
X175500D01*
X154000Y53328D02*
X155328Y52000D01*
X134500Y86000D02*
X149000D01*
X154000Y81000D01*
Y58280D02*
Y81000D01*
Y53328D02*
Y58280D01*
X278000Y89842D02*
X278040Y89802D01*
Y86960D02*
X281000Y84000D01*
X278040Y86960D02*
Y89802D01*
X281000Y84000D02*
X296000D01*
X299000Y81000D01*
Y56343D02*
Y81000D01*
Y51500D02*
X300500Y50000D01*
X299000Y51500D02*
Y56343D01*
X300500Y50000D02*
X324414D01*
X470500Y53843D02*
Y75331D01*
Y50000D02*
Y53843D01*
X465831Y80000D02*
X470500Y75331D01*
X125086Y105500D02*
X135500D01*
X145500Y89811D02*
Y95500D01*
X135500Y105500D02*
X145500Y95500D01*
X314500Y128500D02*
X331000Y112000D01*
X314500Y128500D02*
Y151000D01*
X132000Y138500D02*
Y150000D01*
X124500Y131000D02*
X132000Y138500D01*
X137000Y127500D02*
Y147500D01*
X139500Y150000D01*
X124500Y106086D02*
X125086Y105500D01*
X124500Y106086D02*
Y131000D01*
X144000Y136000D02*
Y152500D01*
X137000Y127500D02*
X167500Y97000D01*
Y55811D02*
Y97000D01*
X44000Y186500D02*
Y187000D01*
X137921Y81937D02*
X145500D01*
X136740Y80756D02*
X137921Y81937D01*
X136740Y79969D02*
Y80756D01*
X290500Y134000D02*
X307000Y150500D01*
Y151000D01*
X290500Y87874D02*
Y134000D01*
X282921Y80000D02*
X290500D01*
X281740Y78819D02*
X282921Y80000D01*
X281740Y78031D02*
Y78819D01*
X453772Y76063D02*
X462500D01*
X453240Y75532D02*
X453772Y76063D01*
X312500Y53874D02*
X313386D01*
X331000Y71488D01*
Y112000D01*
X208063Y71937D02*
X255063D01*
X144000Y136000D02*
X208063Y71937D01*
X31500Y245368D02*
X55000Y221868D01*
Y206000D02*
Y221868D01*
X31500Y245368D02*
Y330000D01*
X143500Y391500D02*
X165949D01*
X155500Y337394D02*
Y354000D01*
Y337394D02*
X163906Y328988D01*
X164595D01*
X17000Y214000D02*
X44000Y187000D01*
X10500Y301500D02*
X17000Y295000D01*
Y214000D02*
Y295000D01*
X83503Y90997D02*
X93503D01*
X9000Y450500D02*
X18500D01*
X5500Y447000D02*
X9000Y450500D01*
X402563Y69437D02*
X426563D01*
X425972Y70028D02*
Y78437D01*
Y70028D02*
X426563Y69437D01*
X93503Y90997D02*
X101000Y83500D01*
X10500Y301500D02*
Y432500D01*
X18500Y440500D01*
X109437Y74500D02*
X110063Y73874D01*
X101000Y77500D02*
X104000Y74500D01*
X101000Y77500D02*
Y83500D01*
X104000Y74500D02*
X109437D01*
X150260Y39374D02*
X150260Y39374D01*
X150260Y39177D02*
Y39374D01*
X149697Y39937D02*
X150260Y39374D01*
X150260Y39177D02*
Y39374D01*
X150260Y39177D02*
X150260Y39177D01*
X144000Y39937D02*
X149697D01*
X137803D02*
X144000D01*
X137740Y39874D02*
X137803Y39937D01*
X129197Y71437D02*
X130697D01*
X130760Y71374D01*
X129197Y71437D02*
X129260Y71374D01*
X118369Y83032D02*
Y86568D01*
Y83032D02*
X118528Y82874D01*
X117240Y87697D02*
Y91874D01*
Y87697D02*
X118369Y86568D01*
X109472Y59965D02*
X110063Y59374D01*
Y55374D02*
Y59374D01*
X109472Y59965D02*
Y63874D01*
X117937Y63283D02*
X118528Y63874D01*
X117937Y55374D02*
Y63283D01*
X117740Y55177D02*
X117937Y55374D01*
X117740Y45874D02*
Y55177D01*
X110063Y73874D02*
Y82284D01*
Y73874D02*
X110500Y73437D01*
X109472Y82874D02*
X110063Y82284D01*
X110500Y67437D02*
Y73437D01*
X109472Y66409D02*
X110500Y67437D01*
X109472Y63874D02*
Y66409D01*
X118528Y78465D02*
Y82874D01*
X117937Y77874D02*
X118528Y78465D01*
X117937Y73874D02*
Y77874D01*
Y55374D02*
X121063D01*
X124063Y52374D02*
X128587D01*
X121063Y55374D02*
X124063Y52374D01*
X139413Y46350D02*
Y48634D01*
X150260Y39374D02*
Y46468D01*
X158421Y47937D02*
X167500D01*
X157740Y47256D02*
X158421Y47937D01*
X157740Y46468D02*
Y47256D01*
X146843Y58280D02*
X150260D01*
X144677Y56114D02*
X146843Y58280D01*
X139413Y56114D02*
X144677D01*
X129193Y72941D02*
X130697Y71437D01*
X129000Y75937D02*
X129193Y75744D01*
Y72941D02*
Y75744D01*
X129000Y79709D02*
X129260Y79969D01*
X129000Y75937D02*
Y79709D01*
X129165Y91874D02*
X129260Y91780D01*
X117240Y91874D02*
X129165D01*
X295260Y37240D02*
Y37437D01*
X289000Y38000D02*
X294697D01*
X295260Y37437D01*
X282803Y38000D02*
X289000D01*
X295260Y37437D02*
X295260Y37437D01*
X295260Y37240D02*
X295260Y37240D01*
X295260Y37240D02*
Y37437D01*
X282740Y37937D02*
X282803Y38000D01*
X263369Y81095D02*
Y84631D01*
Y81095D02*
X263528Y80937D01*
X262240Y85760D02*
Y89937D01*
Y85760D02*
X263369Y84631D01*
X262937Y61347D02*
X263528Y61937D01*
X262937Y53437D02*
Y61347D01*
X262740Y53240D02*
X262937Y53437D01*
X262740Y43937D02*
Y53240D01*
X255063Y53437D02*
Y57437D01*
X254472Y58028D02*
Y61937D01*
Y58028D02*
X255063Y57437D01*
X263528Y76528D02*
Y80937D01*
X262937Y75937D02*
X263528Y76528D01*
X262937Y71937D02*
Y75937D01*
X255063Y71937D02*
X255500Y71500D01*
Y65500D02*
Y71500D01*
X255063Y71937D02*
Y80347D01*
X254472Y64472D02*
X255500Y65500D01*
X254472Y61937D02*
Y64472D01*
Y80937D02*
X255063Y80347D01*
X284413Y44413D02*
Y46697D01*
X284000Y44000D02*
X284413Y44413D01*
X284000Y39197D02*
Y44000D01*
X282803Y38000D02*
X284000Y39197D01*
X262937Y53437D02*
X266063D01*
X269063Y50437D02*
X273587D01*
X266063Y53437D02*
X269063Y50437D01*
X291843Y56343D02*
X295260D01*
X289677Y54177D02*
X291843Y56343D01*
X284413Y54177D02*
X289677D01*
X303421Y46000D02*
X312500D01*
X302740Y44532D02*
Y45319D01*
X303421Y46000D01*
X295260Y37437D02*
Y44532D01*
X274165Y89937D02*
X274260Y89842D01*
X262240Y89937D02*
X274165D01*
X274000Y77772D02*
X274260Y78031D01*
X433740Y83260D02*
Y87437D01*
Y83260D02*
X434869Y82131D01*
Y78595D02*
Y82131D01*
Y78595D02*
X435028Y78437D01*
X433740Y87437D02*
X445665D01*
X445760Y87343D01*
X435028Y74028D02*
Y78437D01*
X434437Y73437D02*
X435028Y74028D01*
X434437Y69437D02*
Y73437D01*
X445697Y67000D02*
X447197D01*
X447260Y66937D01*
X445693Y68504D02*
X447197Y67000D01*
X445500Y71500D02*
Y75272D01*
X445760Y75532D01*
X445500Y71500D02*
X445693Y71307D01*
Y68504D02*
Y71307D01*
X466760Y34740D02*
Y34937D01*
X466760Y34740D02*
X466760Y34740D01*
X466197Y35500D02*
X466760Y34937D01*
X463343Y53843D02*
X466760D01*
Y34740D02*
Y34937D01*
Y34937D02*
X466760Y34937D01*
X466760Y34937D02*
Y42031D01*
X455913Y51677D02*
X461177D01*
X463343Y53843D01*
X455500Y41500D02*
X455913Y41913D01*
X434437Y50937D02*
X437563D01*
X434240Y41437D02*
Y50740D01*
X434437Y50937D01*
X437563D02*
X440563Y47937D01*
X445087D01*
X427000Y63000D02*
Y69000D01*
X426563Y69437D02*
X427000Y69000D01*
X445697Y67000D02*
X445760Y66937D01*
X454303Y35500D02*
X455500Y36697D01*
Y41500D01*
X460500Y35500D02*
X466197D01*
X454303D02*
X460500D01*
X454240Y35437D02*
X454303Y35500D01*
X434437Y50937D02*
Y58846D01*
X435028Y59437D01*
X426563Y50937D02*
Y54937D01*
X425972Y55528D02*
Y59437D01*
Y55528D02*
X426563Y54937D01*
X425972Y59437D02*
Y61972D01*
X427000Y63000D01*
X66086Y281586D02*
X67609Y280062D01*
X66086Y281586D02*
Y328086D01*
X67609Y280062D02*
X69765D01*
X66086Y328086D02*
X78500Y340500D01*
X72000Y268740D02*
X72260Y269000D01*
X72000Y262000D02*
Y268740D01*
X72440Y284012D02*
Y288940D01*
X72500Y289000D01*
X89197Y284474D02*
Y291803D01*
X89000Y292000D02*
X89197Y291803D01*
X88991Y284267D02*
X89197Y284474D01*
X78500Y340500D02*
Y340500D01*
X79500Y268760D02*
X79740Y269000D01*
X79500Y262000D02*
Y268760D01*
X72260Y269000D02*
Y276028D01*
X72240Y276047D02*
X72260Y276028D01*
X72240Y281953D02*
X72318Y281875D01*
X105500Y335500D02*
X169000Y272000D01*
X245000D01*
X91512Y308500D02*
X101000D01*
X91500Y308488D02*
X91512Y308500D01*
X90512Y320500D02*
X91500Y319512D01*
X78500Y320500D02*
X90512D01*
X29500Y415500D02*
Y422563D01*
X29437Y430500D02*
X29500Y430437D01*
X18500Y430500D02*
X29437D01*
X68000Y413500D02*
Y421063D01*
X235429Y294500D02*
X236429Y293500D01*
X250000D01*
X235429Y294500D02*
X236500Y295571D01*
Y308500D01*
X93500Y335500D02*
X105500D01*
X78500Y350500D02*
X93500Y335500D01*
X48000Y391000D02*
X78500Y360500D01*
X48000Y448500D02*
X65000Y465500D01*
X48000Y391000D02*
Y448500D01*
X63500Y457500D02*
X411500D01*
X431500Y437500D01*
X53500Y447500D02*
X63500Y457500D01*
X53500Y393500D02*
Y447500D01*
X65000Y465500D02*
X576000D01*
X53500Y393500D02*
X66500Y380500D01*
X78500D01*
X431500Y406500D02*
Y437500D01*
X576000Y465500D02*
X604000Y437500D01*
X67500Y438988D02*
X69012Y440500D01*
X78500D01*
X68000Y428937D02*
X68886D01*
X70449Y430500D02*
X78500D01*
X68886Y428937D02*
X70449Y430500D01*
X151095Y386240D02*
X151355Y386500D01*
X205095Y392012D02*
X206170Y390937D01*
X215500D01*
X185962Y387222D02*
X191363D01*
X192381Y388240D02*
X196095D01*
X185240Y386500D02*
X185962Y387222D01*
X191363D02*
X192381Y388240D01*
X248429Y422500D02*
X263500D01*
X248000Y422929D02*
Y437571D01*
Y422929D02*
X248429Y422500D01*
X151355Y386500D02*
X165949D01*
X151784Y378760D02*
X154524Y381500D01*
X151095Y378760D02*
X151784D01*
X154524Y381500D02*
X165949D01*
X164756Y376500D02*
X165949D01*
X163878Y371712D02*
Y375622D01*
X159855Y367689D02*
X163878Y371712D01*
Y375622D02*
X164756Y376500D01*
X159855Y367000D02*
Y367689D01*
X196000Y392500D02*
X204607D01*
X205095Y392012D01*
X196000Y388335D02*
Y392500D01*
Y388335D02*
X196095Y388240D01*
X-0Y487500D02*
X0Y0D01*
X-0Y487500D02*
X614500D01*
X614500Y0D01*
X0D02*
X614500D01*
D15*
X12004Y281504D02*
X84996D01*
Y479496D01*
X12004D02*
X84996D01*
X12004Y281504D02*
Y479496D01*
Y281504D02*
X84996D01*
Y479496D01*
X12004D02*
X84996D01*
X12004Y281504D02*
Y479496D01*
D17*
X452000Y147063D02*
D03*
Y154937D02*
D03*
X415000Y128063D02*
D03*
Y135937D02*
D03*
X423000Y128063D02*
D03*
Y135937D02*
D03*
X430500Y128063D02*
D03*
Y135937D02*
D03*
X438000Y128063D02*
D03*
Y135937D02*
D03*
X87500Y165563D02*
D03*
Y173437D02*
D03*
Y187937D02*
D03*
Y180063D02*
D03*
X579500Y99563D02*
D03*
Y107437D02*
D03*
X449000Y180063D02*
D03*
Y187937D02*
D03*
X432000Y181063D02*
D03*
Y188937D02*
D03*
X590500Y6563D02*
D03*
Y14437D02*
D03*
X526000Y117063D02*
D03*
Y124937D02*
D03*
X543500Y85063D02*
D03*
Y92937D02*
D03*
X145500Y89811D02*
D03*
Y81937D02*
D03*
X290500Y87874D02*
D03*
Y80000D02*
D03*
X312500Y53874D02*
D03*
Y46000D02*
D03*
X167500Y55811D02*
D03*
Y47937D02*
D03*
X462500Y76063D02*
D03*
Y83937D02*
D03*
X484000Y43500D02*
D03*
Y51374D02*
D03*
X99000Y173437D02*
D03*
Y165563D02*
D03*
X29500Y430437D02*
D03*
Y422563D02*
D03*
X68000Y428937D02*
D03*
Y421063D02*
D03*
X215500Y390937D02*
D03*
Y383063D02*
D03*
X528500Y92937D02*
D03*
Y85063D02*
D03*
D18*
X183532Y309000D02*
D03*
X175658D02*
D03*
X110063Y55374D02*
D03*
X117937D02*
D03*
X110063Y73874D02*
D03*
X117937D02*
D03*
X255063Y71937D02*
D03*
X262937D02*
D03*
X255063Y53437D02*
D03*
X262937D02*
D03*
X434437Y69437D02*
D03*
X426563D02*
D03*
X434437Y50937D02*
D03*
X426563D02*
D03*
X184032Y399500D02*
D03*
X176158D02*
D03*
X562063Y91500D02*
D03*
X569937D02*
D03*
X603437Y66500D02*
D03*
X595563D02*
D03*
X587063Y107000D02*
D03*
X594937D02*
D03*
X585437Y83000D02*
D03*
X577563D02*
D03*
X595563Y57500D02*
D03*
X603437D02*
D03*
D21*
X181095Y328988D02*
D03*
Y340012D02*
D03*
X164595D02*
D03*
Y328988D02*
D03*
X91500Y308488D02*
D03*
Y319512D02*
D03*
X67500Y438988D02*
D03*
Y450012D02*
D03*
X205095Y380988D02*
D03*
Y392012D02*
D03*
D22*
X281740Y89842D02*
D03*
X274260D02*
D03*
X281740Y78031D02*
D03*
X274260D02*
D03*
X278000Y89842D02*
D03*
X449500Y87343D02*
D03*
X445760Y75532D02*
D03*
X453240D02*
D03*
X445760Y87343D02*
D03*
X453240D02*
D03*
X299000Y56343D02*
D03*
X295260Y44532D02*
D03*
X302740D02*
D03*
X295260Y56343D02*
D03*
X302740D02*
D03*
X133000Y91780D02*
D03*
X129260Y79969D02*
D03*
X136740D02*
D03*
X129260Y91780D02*
D03*
X136740D02*
D03*
X154000Y58280D02*
D03*
X150260Y46468D02*
D03*
X157740D02*
D03*
X150260Y58280D02*
D03*
X157740D02*
D03*
X474240Y53843D02*
D03*
X466760D02*
D03*
X474240Y42031D02*
D03*
X466760D02*
D03*
X470500Y53843D02*
D03*
D27*
X232500Y375500D02*
D03*
X175500Y299500D02*
D03*
X522500Y58500D02*
D03*
X170095Y399000D02*
D03*
X29000Y350000D02*
D03*
X118000Y393000D02*
D03*
X173408Y345584D02*
D03*
X470000Y393000D02*
D03*
X41000Y415000D02*
D03*
X108000Y325000D02*
D03*
X441000Y183000D02*
D03*
X464000Y173000D02*
D03*
X506000Y94000D02*
D03*
X487000Y152000D02*
D03*
X471000D02*
D03*
X296000Y393000D02*
D03*
X464000Y310500D02*
D03*
X454500Y324500D02*
D03*
X318000Y303500D02*
D03*
X298000Y309500D02*
D03*
X282500Y325000D02*
D03*
X117500Y311000D02*
D03*
X487500Y362000D02*
D03*
X296000Y376000D02*
D03*
X313500Y363500D02*
D03*
X135000Y361500D02*
D03*
X111500Y187000D02*
D03*
X79000Y165500D02*
D03*
X601000Y7000D02*
D03*
X67000Y349000D02*
D03*
X603500Y407500D02*
D03*
X603000Y381000D02*
D03*
X575000Y398500D02*
D03*
X585000Y373500D02*
D03*
X403750Y397750D02*
D03*
X432000Y381000D02*
D03*
X416000Y372000D02*
D03*
X250500Y373000D02*
D03*
X243000D02*
D03*
X227500Y398000D02*
D03*
X548000Y20500D02*
D03*
Y27500D02*
D03*
X575000Y6000D02*
D03*
X27000Y398000D02*
D03*
X470000Y84500D02*
D03*
X248000Y90000D02*
D03*
X420000Y87500D02*
D03*
X297500Y92500D02*
D03*
X306000Y87500D02*
D03*
X48500Y189000D02*
D03*
X56500D02*
D03*
X102500Y92000D02*
D03*
X166000Y308000D02*
D03*
X106500Y264500D02*
D03*
X563500Y51000D02*
D03*
X603500Y48500D02*
D03*
X603707Y74357D02*
D03*
X566142Y132307D02*
D03*
X534500Y85000D02*
D03*
X550500D02*
D03*
X577500Y75000D02*
D03*
X603000Y106500D02*
D03*
X512500Y72500D02*
D03*
X537500D02*
D03*
X511500Y87000D02*
D03*
X514500Y79000D02*
D03*
X136610Y96909D02*
D03*
X281500Y95000D02*
D03*
X453000Y93500D02*
D03*
X479000Y152000D02*
D03*
X314500Y151000D02*
D03*
X299000D02*
D03*
X125000Y150000D02*
D03*
X132000D02*
D03*
X139500D02*
D03*
X307000Y151000D02*
D03*
X31500Y330000D02*
D03*
X127295Y96122D02*
D03*
X130000Y85500D02*
D03*
X144000Y39937D02*
D03*
X164500Y39437D02*
D03*
X124000Y39937D02*
D03*
X145500Y71437D02*
D03*
X128500Y61937D02*
D03*
X157500Y65437D02*
D03*
X309500Y37500D02*
D03*
X289000Y38000D02*
D03*
X269000D02*
D03*
X290500Y69500D02*
D03*
X273500Y60000D02*
D03*
X302500Y63500D02*
D03*
X101961Y101520D02*
D03*
X440500Y35500D02*
D03*
X481000Y35000D02*
D03*
X474000Y61000D02*
D03*
X445000Y57500D02*
D03*
X460500Y35500D02*
D03*
X462000Y67000D02*
D03*
X72000Y262000D02*
D03*
X72500Y289000D02*
D03*
X89000Y292000D02*
D03*
X82000Y283000D02*
D03*
X79500Y262000D02*
D03*
X101000Y308500D02*
D03*
X29500Y415500D02*
D03*
X68000Y413500D02*
D03*
X250000Y293500D02*
D03*
X236500Y308500D02*
D03*
X169500Y313000D02*
D03*
X162000D02*
D03*
Y319000D02*
D03*
X169500D02*
D03*
X255500Y404500D02*
D03*
X275599Y392768D02*
D03*
Y386768D02*
D03*
X275534Y380623D02*
D03*
X263500Y422500D02*
D03*
X248000Y437571D02*
D03*
X173432Y340253D02*
D03*
X196000Y392500D02*
D03*
X431500Y406500D02*
D03*
X23000Y253500D02*
D03*
X11500Y246000D02*
D03*
X30000Y188500D02*
D03*
X15000D02*
D03*
X23000Y198500D02*
D03*
X12000Y205500D02*
D03*
X34500Y182500D02*
D03*
X33000Y136000D02*
D03*
X17000Y137000D02*
D03*
X24500D02*
D03*
X48000Y261000D02*
D03*
X55500D02*
D03*
X470500Y376740D02*
D03*
X118000Y377000D02*
D03*
X349158Y368933D02*
D03*
X336157Y369433D02*
D03*
X317819Y192000D02*
D03*
X143961Y303520D02*
D03*
X306819Y111500D02*
D03*
X276819Y101500D02*
D03*
X280658Y110433D02*
D03*
X105799Y110453D02*
D03*
X142961Y192020D02*
D03*
X174241Y368913D02*
D03*
X144461Y106020D02*
D03*
X131961Y111520D02*
D03*
X319319Y106000D02*
D03*
X154000Y371500D02*
D03*
X490000Y192000D02*
D03*
X467500Y93000D02*
D03*
X449000Y101500D02*
D03*
X453000Y110500D02*
D03*
X479000Y111500D02*
D03*
X491500Y106000D02*
D03*
X491000Y303500D02*
D03*
X521500Y369000D02*
D03*
X508500Y369500D02*
D03*
D32*
X103240Y187000D02*
D03*
X95760D02*
D03*
X79740Y269000D02*
D03*
X72260D02*
D03*
X523760Y72500D02*
D03*
X531240D02*
D03*
X137740Y39874D02*
D03*
X130260D02*
D03*
X150260Y39374D02*
D03*
X157740D02*
D03*
X117740Y45874D02*
D03*
X110260D02*
D03*
X130760Y71374D02*
D03*
X138240D02*
D03*
X117240Y91874D02*
D03*
X109760D02*
D03*
X262240Y89937D02*
D03*
X254760D02*
D03*
X275760Y69437D02*
D03*
X283240D02*
D03*
X262740Y43937D02*
D03*
X255260D02*
D03*
X295260Y37437D02*
D03*
X302740D02*
D03*
X282740Y37937D02*
D03*
X275260D02*
D03*
X426260Y87437D02*
D03*
X433740D02*
D03*
X454740Y66937D02*
D03*
X447260D02*
D03*
X426760Y41437D02*
D03*
X434240D02*
D03*
X474240Y34937D02*
D03*
X466760D02*
D03*
X446760Y35437D02*
D03*
X454240D02*
D03*
X167335Y367000D02*
D03*
X159855D02*
D03*
D33*
X183095Y364799D02*
D03*
Y352201D02*
D03*
D38*
X555000Y27740D02*
D03*
Y20260D02*
D03*
X151095Y386240D02*
D03*
Y378760D02*
D03*
X196095Y388240D02*
D03*
Y380760D02*
D03*
D39*
X588512Y66500D02*
D03*
X577488D02*
D03*
D81*
X460437Y66937D02*
X461937D01*
X454740D02*
X460437D01*
X288937Y69437D02*
X290437D01*
X283240D02*
X288937D01*
X143937Y71374D02*
X145437D01*
X138240D02*
X143937D01*
X554760Y27500D02*
X555000Y27740D01*
X548000Y27500D02*
X554760D01*
X575000Y6000D02*
Y12165D01*
X574905Y12260D02*
X575000Y12165D01*
X254697Y90000D02*
X254760Y89937D01*
X248000Y90000D02*
X254697D01*
X426197Y87500D02*
X426260Y87437D01*
X420000Y87500D02*
X426197D01*
X109634Y92000D02*
X109760Y91874D01*
X102500Y92000D02*
X109634D01*
X89760Y278016D02*
X109984D01*
X89760Y281953D02*
X95453D01*
X577500Y66512D02*
Y75000D01*
X577488Y66500D02*
X577500Y66512D01*
X552130Y51000D02*
X563500D01*
X603437Y48563D02*
X603500Y48500D01*
X603437Y48563D02*
Y57500D01*
X566142Y132142D02*
Y132307D01*
X559000Y125000D02*
X566142Y132142D01*
X537500Y125000D02*
X559000D01*
X550437Y85063D02*
X550500Y85000D01*
X543500Y85063D02*
X550437D01*
X562090Y108000D02*
X570090Y116000D01*
X586028D01*
X561500Y108000D02*
X562090D01*
X577500Y82937D02*
X577563Y83000D01*
X577500Y75000D02*
Y82937D01*
X512500Y72500D02*
X523760D01*
X136610Y96909D02*
X136740Y96779D01*
Y91780D02*
Y96779D01*
X281620Y89963D02*
Y94880D01*
Y89963D02*
X281740Y89842D01*
X281500Y95000D02*
X281620Y94880D01*
X453120Y87463D02*
Y93380D01*
Y87463D02*
X453240Y87343D01*
X453000Y93500D02*
X453120Y93380D01*
X157803Y39437D02*
X164500D01*
X157740Y39374D02*
X157803Y39437D01*
X130197Y39937D02*
X130260Y39874D01*
X124000Y39937D02*
X130197D01*
X110500Y41437D02*
Y45634D01*
X112000Y39937D02*
X124000D01*
X110500Y41437D02*
X112000Y39937D01*
X110260Y45874D02*
X110500Y45634D01*
X143937Y71374D02*
X144000Y71437D01*
X128587Y56114D02*
Y61850D01*
X128500Y61937D02*
X128587Y61850D01*
X157620Y58400D02*
Y65317D01*
X157500Y65437D02*
X157620Y65317D01*
Y58400D02*
X157740Y58280D01*
X302803Y37500D02*
X309500D01*
X302740Y37437D02*
X302803Y37500D01*
X275197Y38000D02*
X275260Y37937D01*
X269000Y38000D02*
X275197D01*
X255260Y43937D02*
X255500Y43697D01*
Y39500D02*
Y43697D01*
X257000Y38000D02*
X269000D01*
X255500Y39500D02*
X257000Y38000D01*
X288937Y69437D02*
X289000Y69500D01*
X273500Y60000D02*
X273587Y59913D01*
Y54177D02*
Y59913D01*
X302500Y63500D02*
X302620Y63380D01*
Y56463D02*
X302740Y56343D01*
X302620Y56463D02*
Y63380D01*
X474120Y53963D02*
Y60880D01*
X474000Y61000D02*
X474120Y60880D01*
Y53963D02*
X474240Y53843D01*
X474303Y35000D02*
X481000D01*
X474240Y34937D02*
X474303Y35000D01*
X460437Y66937D02*
X460500Y67000D01*
X446697Y35500D02*
X446760Y35437D01*
X440500Y35500D02*
X446697D01*
X426760Y41437D02*
X427000Y41197D01*
Y37000D02*
Y41197D01*
X428500Y35500D02*
X440500D01*
X427000Y37000D02*
X428500Y35500D01*
X445000Y57500D02*
X445087Y57413D01*
Y51677D02*
Y57413D01*
X85016Y279984D02*
X89760D01*
X82000Y283000D02*
X85016Y279984D01*
D83*
X78012Y450012D02*
X78500Y450500D01*
X67500Y450012D02*
X78012D01*
X230750Y373750D02*
X232500Y375500D01*
X184032Y391878D02*
X184410Y391500D01*
X184032Y391878D02*
Y399500D01*
X184410Y391500D02*
X185240D01*
D85*
X414114Y128063D02*
X415000D01*
X384319Y116000D02*
X402051D01*
X414114Y128063D01*
X423000D02*
X430500D01*
X415000D02*
X423000D01*
X430500D02*
X438000D01*
X423000Y135937D02*
Y148607D01*
X425500Y151107D01*
Y152000D01*
X196209Y380874D02*
X204981D01*
X138961Y111520D02*
X144461Y106020D01*
X131961Y111520D02*
X138961D01*
X313819Y111500D02*
X319319Y106000D01*
X306819Y111500D02*
X313819D01*
X479000D02*
X486000D01*
X491500Y106000D01*
D86*
X137000Y334000D02*
D03*
X127000D02*
D03*
X337000Y83500D02*
D03*
X347000D02*
D03*
X345500Y9500D02*
D03*
X335500D02*
D03*
X65500Y152500D02*
D03*
X55500D02*
D03*
X65500Y236000D02*
D03*
X75500D02*
D03*
X66000Y218000D02*
D03*
X76000D02*
D03*
D87*
X435500Y152000D02*
D03*
X518000Y192500D02*
D03*
X345819D02*
D03*
X170961Y192520D02*
D03*
D88*
X425500Y152000D02*
D03*
X415500D02*
D03*
X538000Y192500D02*
D03*
X528000D02*
D03*
X502000Y159000D02*
D03*
Y149000D02*
D03*
X365819Y192500D02*
D03*
X355819D02*
D03*
X329819Y159000D02*
D03*
Y149000D02*
D03*
X190961Y192520D02*
D03*
X180961D02*
D03*
X154961Y159020D02*
D03*
Y149020D02*
D03*
D89*
X90701Y63693D02*
D03*
X61201Y76213D02*
D03*
X90701D02*
D03*
X61201Y63693D02*
D03*
X499000Y425500D02*
D03*
X528500Y412980D02*
D03*
X499000D02*
D03*
X528500Y425500D02*
D03*
X340000D02*
D03*
X369500Y412980D02*
D03*
X340000D02*
D03*
X369500Y425500D02*
D03*
X163500D02*
D03*
X193000Y412980D02*
D03*
X163500D02*
D03*
X193000Y425500D02*
D03*
D90*
X109402Y12000D02*
D03*
X42500D02*
D03*
X480299Y477193D02*
D03*
X547201D02*
D03*
X321299D02*
D03*
X388201D02*
D03*
X144799D02*
D03*
X211701D02*
D03*
D91*
X78500Y310500D02*
D03*
X18500D02*
D03*
X78500Y320500D02*
D03*
X18500D02*
D03*
X78500Y330500D02*
D03*
X18500D02*
D03*
X78500Y340500D02*
D03*
X18500D02*
D03*
X78500Y350500D02*
D03*
X18500D02*
D03*
X78500Y360500D02*
D03*
X18500D02*
D03*
X78500Y370500D02*
D03*
X18500D02*
D03*
X78500Y380500D02*
D03*
X18500D02*
D03*
X78500Y390500D02*
D03*
X18500D02*
D03*
X78500Y400500D02*
D03*
X18500D02*
D03*
X78500Y410500D02*
D03*
X18500D02*
D03*
X78500Y420500D02*
D03*
X18500D02*
D03*
X78500Y430500D02*
D03*
X18500D02*
D03*
X78500Y440500D02*
D03*
X18500D02*
D03*
D92*
X78500Y450500D02*
D03*
X18500D02*
D03*
D93*
X230461Y210520D02*
D03*
X130461D02*
D03*
X577500Y210500D02*
D03*
X477500D02*
D03*
X305319D02*
D03*
X405319D02*
D03*
D94*
X502000Y139000D02*
D03*
X329819D02*
D03*
X154961Y139020D02*
D03*
D95*
X454316Y283500D02*
D03*
X464158D02*
D03*
X474000D02*
D03*
X483842D02*
D03*
X282132Y283720D02*
D03*
X291974D02*
D03*
X301816D02*
D03*
X311658D02*
D03*
X109816Y284000D02*
D03*
X119658D02*
D03*
X129500D02*
D03*
X139342D02*
D03*
D96*
X33500Y105000D02*
D03*
Y116800D02*
D03*
X45300Y105000D02*
D03*
Y116800D02*
D03*
D97*
X16500Y110900D02*
D03*
D98*
X47000Y467000D02*
D03*
X15500Y17500D02*
D03*
X504000Y19000D02*
D03*
X599500Y473000D02*
D03*
D99*
X174000Y13500D02*
D03*
X135000D02*
D03*
Y27000D02*
D03*
X174000D02*
D03*
D100*
X586500Y38000D02*
D03*
X556972D02*
D03*
X414028D02*
D03*
X384500D02*
D03*
X240000Y37500D02*
D03*
X210472D02*
D03*
X586028Y116000D02*
D03*
X556500D02*
D03*
X413846D02*
D03*
X384319D02*
D03*
X238988Y116020D02*
D03*
X209461D02*
D03*
D117*
X436055Y165535D02*
D03*
X440110Y174000D02*
D03*
X432000D02*
D03*
X448890Y173500D02*
D03*
X457000D02*
D03*
X452945Y165035D02*
D03*
X586890Y98500D02*
D03*
X595000D02*
D03*
X590945Y90035D02*
D03*
D118*
X574905Y12260D02*
D03*
Y19740D02*
D03*
X563095Y12260D02*
D03*
Y19740D02*
D03*
X574905Y16000D02*
D03*
X284413Y46697D02*
D03*
Y54177D02*
D03*
X273587D02*
D03*
Y50437D02*
D03*
Y46697D02*
D03*
X445087Y44197D02*
D03*
Y47937D02*
D03*
Y51677D02*
D03*
X455913D02*
D03*
Y44197D02*
D03*
X128587Y48634D02*
D03*
Y52374D02*
D03*
Y56114D02*
D03*
X139413D02*
D03*
Y48634D02*
D03*
D119*
X219095Y366595D02*
D03*
Y328405D02*
D03*
D120*
X543276Y104500D02*
D03*
X527724D02*
D03*
D121*
X552130Y66000D02*
D03*
Y61000D02*
D03*
Y56000D02*
D03*
Y51000D02*
D03*
X530870Y66000D02*
D03*
Y61000D02*
D03*
Y56000D02*
D03*
Y51000D02*
D03*
D122*
X109472Y63874D02*
D03*
X118528D02*
D03*
Y82874D02*
D03*
X109472D02*
D03*
X263528Y80937D02*
D03*
X254472D02*
D03*
Y61937D02*
D03*
X263528D02*
D03*
X425972Y78437D02*
D03*
X435028D02*
D03*
Y59437D02*
D03*
X425972D02*
D03*
D123*
X248000Y389071D02*
D03*
Y422929D02*
D03*
D124*
X72240Y276047D02*
D03*
Y278016D02*
D03*
Y279984D02*
D03*
Y281953D02*
D03*
Y283921D02*
D03*
X89760Y276047D02*
D03*
Y278016D02*
D03*
Y279984D02*
D03*
Y281953D02*
D03*
Y283921D02*
D03*
D125*
X185240Y391500D02*
D03*
Y386500D02*
D03*
Y381500D02*
D03*
Y376500D02*
D03*
X165949Y391500D02*
D03*
Y386500D02*
D03*
Y381500D02*
D03*
Y376500D02*
D03*
D126*
X201571Y294500D02*
D03*
X235429D02*
D03*
D127*
X545965Y120945D02*
D03*
X537500Y125000D02*
D03*
Y116890D02*
D03*
X569965Y103945D02*
D03*
X561500Y108000D02*
D03*
Y99890D02*
D03*
D128*
X241992Y383063D02*
X248000Y389071D01*
X215500Y383063D02*
X241992D01*
X206799Y382693D02*
X209022D01*
X209392Y383063D01*
X215500D01*
X205095Y380988D02*
X206799Y382693D01*
X204981Y380874D02*
X205095Y380988D01*
X176158Y399500D02*
Y400386D01*
X185240Y381500D02*
X195355D01*
X177500D02*
X185240D01*
X195355D02*
X196095Y380760D01*
X196209Y380874D01*
X170286Y399191D02*
X175849D01*
X170095Y399000D02*
X170286Y399191D01*
X175849D02*
X176158Y399500D01*
Y382842D02*
X177500Y381500D01*
X176158Y382842D02*
Y399500D01*
M02*
