G04*
G04 #@! TF.GenerationSoftware,Altium Limited,Altium Designer,21.9.2 (33)*
G04*
G04 Layer_Physical_Order=3*
G04 Layer_Color=128*
%FSLAX25Y25*%
%MOIN*%
G70*
G04*
G04 #@! TF.SameCoordinates,20C0D9CC-F100-46A5-AC51-F6AD6B347EFB*
G04*
G04*
G04 #@! TF.FilePolarity,Negative*
G04*
G01*
G75*
%ADD12C,0.01000*%
%ADD15C,0.00500*%
%ADD17C,0.00600*%
%ADD67C,0.15800*%
%ADD72C,0.15600*%
%ADD99C,0.08000*%
%ADD100C,0.04000*%
%ADD101C,0.07937*%
%ADD104C,0.07300*%
%ADD106C,0.11795*%
%ADD107C,0.16500*%
%ADD108C,0.08016*%
G04:AMPARAMS|DCode=109|XSize=100.157mil|YSize=100.157mil|CornerRadius=0mil|HoleSize=0mil|Usage=FLASHONLY|Rotation=0.000|XOffset=0mil|YOffset=0mil|HoleType=Round|Shape=Relief|Width=10mil|Gap=10mil|Entries=4|*
%AMTHD109*
7,0,0,0.10016,0.08016,0.01000,45*
%
%ADD109THD109*%
%ADD111C,0.07150*%
%ADD114C,0.10300*%
G04:AMPARAMS|DCode=115|XSize=75mil|YSize=75mil|CornerRadius=0mil|HoleSize=0mil|Usage=FLASHONLY|Rotation=0.000|XOffset=0mil|YOffset=0mil|HoleType=Round|Shape=Relief|Width=10mil|Gap=10mil|Entries=4|*
%AMTHD115*
7,0,0,0.07500,0.05500,0.01000,45*
%
%ADD115THD115*%
%ADD116C,0.05500*%
%ADD117C,0.14500*%
D12*
X69000Y405000D02*
X144500D01*
X151500Y398000D01*
Y348000D02*
Y398000D01*
X139000Y335500D02*
X151500Y348000D01*
X89000Y1000D02*
Y96500D01*
X58500Y127000D02*
X89000Y96500D01*
X0Y127000D02*
X58500D01*
X65500Y400000D02*
Y401500D01*
X67000Y403000D01*
X65500Y343500D02*
Y400000D01*
X104000Y323000D02*
X104000Y61500D01*
X92000Y335000D02*
X104000Y323000D01*
X73500Y335000D02*
X92000D01*
X66000Y342500D02*
X73500Y335000D01*
X66000Y342500D02*
Y344500D01*
X560000Y73000D02*
Y97000D01*
X543500Y113500D02*
X560000Y97000D01*
X533500Y113500D02*
X543500D01*
X109500Y56000D02*
X543000D01*
X560000Y73000D01*
X169000Y113500D02*
X533500D01*
X139000Y335500D02*
X139000Y143500D01*
X169000Y113500D01*
X104000Y61500D02*
X109500Y56000D01*
X67000Y403000D02*
X69000Y405000D01*
X0Y0D02*
Y489500D01*
X700000D01*
Y0D02*
Y489500D01*
X0Y0D02*
X700000D01*
X712000Y6000D02*
X714000Y0D01*
X716000Y6000D01*
X714000Y489500D02*
X716000Y483500D01*
X712000D02*
X714000Y489500D01*
Y0D02*
Y222056D01*
Y264244D02*
Y489500D01*
X701500Y0D02*
X715000D01*
X701500Y489500D02*
X715000D01*
X0Y496500D02*
X6000Y498500D01*
X0Y496500D02*
X6000Y494500D01*
X694000D02*
X700000Y496500D01*
X694000Y498500D02*
X700000Y496500D01*
X0D02*
X700000D01*
X0D02*
X700000D01*
X0Y491000D02*
Y497500D01*
X700000Y491000D02*
Y497500D01*
D15*
X17504Y181004D02*
X90496D01*
Y378996D01*
X17504D02*
X90496D01*
X17504Y181004D02*
Y378996D01*
Y181004D02*
X90496D01*
Y378996D01*
X17504D02*
X90496D01*
X17504Y181004D02*
Y378996D01*
D17*
X717599Y226655D02*
X711601D01*
X714600Y223656D01*
Y227655D01*
X712601Y229654D02*
X711601Y230654D01*
Y232653D01*
X712601Y233653D01*
X713600D01*
X714600Y232653D01*
X715600Y233653D01*
X716599D01*
X717599Y232653D01*
Y230654D01*
X716599Y229654D01*
X715600D01*
X714600Y230654D01*
X713600Y229654D01*
X712601D01*
X714600Y230654D02*
Y232653D01*
X716599Y235652D02*
X717599Y236652D01*
Y238651D01*
X716599Y239651D01*
X712601D01*
X711601Y238651D01*
Y236652D01*
X712601Y235652D01*
X713600D01*
X714600Y236652D01*
Y239651D01*
X711601Y245649D02*
Y241651D01*
X714600D01*
X713600Y243650D01*
Y244650D01*
X714600Y245649D01*
X716599D01*
X717599Y244650D01*
Y242650D01*
X716599Y241651D01*
X717599Y247649D02*
X716599D01*
Y248648D01*
X717599D01*
Y247649D01*
X712601Y252647D02*
X711601Y253647D01*
Y255646D01*
X712601Y256646D01*
X716599D01*
X717599Y255646D01*
Y253647D01*
X716599Y252647D01*
X712601D01*
Y258645D02*
X711601Y259645D01*
Y261644D01*
X712601Y262644D01*
X716599D01*
X717599Y261644D01*
Y259645D01*
X716599Y258645D01*
X712601D01*
X328100Y504098D02*
X332099D01*
Y503098D01*
X328100Y499100D01*
Y498100D01*
X334098Y503098D02*
X335098Y504098D01*
X337097D01*
X338097Y503098D01*
Y499100D01*
X337097Y498100D01*
X335098D01*
X334098Y499100D01*
Y503098D01*
X340096D02*
X341096Y504098D01*
X343095D01*
X344095Y503098D01*
Y499100D01*
X343095Y498100D01*
X341096D01*
X340096Y499100D01*
Y503098D01*
X346094D02*
X347094Y504098D01*
X349093D01*
X350093Y503098D01*
Y499100D01*
X349093Y498100D01*
X347094D01*
X346094Y499100D01*
Y503098D01*
X352092Y498100D02*
Y499100D01*
X353092D01*
Y498100D01*
X352092D01*
X357091Y503098D02*
X358090Y504098D01*
X360090D01*
X361089Y503098D01*
Y499100D01*
X360090Y498100D01*
X358090D01*
X357091Y499100D01*
Y503098D01*
X363089D02*
X364088Y504098D01*
X366088D01*
X367087Y503098D01*
Y499100D01*
X366088Y498100D01*
X364088D01*
X363089Y499100D01*
Y503098D01*
D67*
X65600Y20000D02*
D03*
D72*
X17000Y470000D02*
D03*
X18500Y13500D02*
D03*
X587000Y17500D02*
D03*
X682500Y470000D02*
D03*
D99*
X59700Y48800D02*
D03*
X71500D02*
D03*
Y37000D02*
D03*
X59700D02*
D03*
D100*
X0Y0D02*
Y489500D01*
X700000D01*
Y0D02*
Y489500D01*
X0Y0D02*
X700000D01*
D101*
X72000Y120000D02*
D03*
X82000D02*
D03*
X72000Y138000D02*
D03*
X82000D02*
D03*
X488500Y424000D02*
D03*
X498500D02*
D03*
X311500Y423000D02*
D03*
X321500D02*
D03*
X675000Y422000D02*
D03*
X665000D02*
D03*
X540000Y10000D02*
D03*
X550000D02*
D03*
X539500Y47000D02*
D03*
X549500D02*
D03*
X47000Y64000D02*
D03*
X37000D02*
D03*
X585000Y137500D02*
D03*
Y157500D02*
D03*
Y147500D02*
D03*
X601000Y191000D02*
D03*
X611000D02*
D03*
X621000D02*
D03*
X237961Y147520D02*
D03*
X412819Y147500D02*
D03*
Y157500D02*
D03*
Y137500D02*
D03*
X448819Y191000D02*
D03*
X438819D02*
D03*
X428819D02*
D03*
X237961Y157520D02*
D03*
Y137520D02*
D03*
X273961Y191020D02*
D03*
X263961D02*
D03*
X253961D02*
D03*
D104*
X394658Y282221D02*
D03*
X384816D02*
D03*
X374974D02*
D03*
X365132D02*
D03*
X219742Y282200D02*
D03*
X209900D02*
D03*
X200058D02*
D03*
X190216D02*
D03*
X566842Y282000D02*
D03*
X557000D02*
D03*
X547158D02*
D03*
X537316D02*
D03*
D106*
X599000Y426000D02*
D03*
X628500Y413480D02*
D03*
X599000D02*
D03*
X628500Y426000D02*
D03*
X423000Y425000D02*
D03*
X452500Y412480D02*
D03*
X423000D02*
D03*
X452500Y425000D02*
D03*
X246500D02*
D03*
X276000Y412480D02*
D03*
X246500D02*
D03*
X276000Y425000D02*
D03*
X119500Y67000D02*
D03*
X149000Y79520D02*
D03*
X119500D02*
D03*
X149000Y67000D02*
D03*
D107*
X580299Y477693D02*
D03*
X647201D02*
D03*
X404299Y476693D02*
D03*
X471201D02*
D03*
X227799D02*
D03*
X294701D02*
D03*
X100799Y15307D02*
D03*
X167701D02*
D03*
D108*
X84000Y210000D02*
D03*
X24000D02*
D03*
Y220000D02*
D03*
X84000Y230000D02*
D03*
X24000D02*
D03*
X84000Y240000D02*
D03*
X24000D02*
D03*
X84000Y250000D02*
D03*
X24000D02*
D03*
X84000Y260000D02*
D03*
X24000D02*
D03*
X84000Y270000D02*
D03*
X24000D02*
D03*
X84000Y280000D02*
D03*
X24000D02*
D03*
X84000Y290000D02*
D03*
X24000D02*
D03*
X84000Y300000D02*
D03*
X24000D02*
D03*
X84000Y310000D02*
D03*
X24000D02*
D03*
X84000Y320000D02*
D03*
X24000D02*
D03*
X84000Y330000D02*
D03*
X24000D02*
D03*
X84000Y340000D02*
D03*
X24000D02*
D03*
Y350000D02*
D03*
D109*
X84000Y220000D02*
D03*
Y350000D02*
D03*
D111*
X292433Y40520D02*
D03*
X321961D02*
D03*
X639472Y40500D02*
D03*
X669000D02*
D03*
X321988Y114520D02*
D03*
X292461D02*
D03*
X496846Y114500D02*
D03*
X467319D02*
D03*
X467291Y40500D02*
D03*
X496819D02*
D03*
X669028Y114500D02*
D03*
X639500D02*
D03*
D114*
X248000Y29500D02*
D03*
X209000D02*
D03*
Y16000D02*
D03*
X248000D02*
D03*
D115*
X72681Y159181D02*
D03*
X98500Y129500D02*
D03*
X146500Y161000D02*
D03*
X33000Y93500D02*
D03*
X69000Y100000D02*
D03*
X73500Y90500D02*
D03*
X6500Y101000D02*
D03*
X19500Y56500D02*
D03*
X73500Y167500D02*
D03*
X66500Y323000D02*
D03*
X42000Y322000D02*
D03*
X172461Y151520D02*
D03*
X401819Y302000D02*
D03*
X505569Y408931D02*
D03*
X226961Y302020D02*
D03*
X145762Y371800D02*
D03*
X138500D02*
D03*
X130500D02*
D03*
Y380883D02*
D03*
Y389000D02*
D03*
X378319Y91500D02*
D03*
X203461Y81020D02*
D03*
X330653Y408910D02*
D03*
X203461Y91520D02*
D03*
X378319Y81000D02*
D03*
X347319Y151500D02*
D03*
X519500D02*
D03*
X550500Y81000D02*
D03*
Y91500D02*
D03*
X574000Y302000D02*
D03*
X677753Y408710D02*
D03*
D116*
X581500Y323000D02*
D03*
Y330760D02*
D03*
X234500Y331500D02*
D03*
Y323000D02*
D03*
X409500D02*
D03*
Y331000D02*
D03*
X233500Y351000D02*
D03*
X409000Y348000D02*
D03*
X580500D02*
D03*
X340000Y404000D02*
D03*
X173000Y472000D02*
D03*
X158500Y479000D02*
D03*
X206500Y147500D02*
D03*
X381000Y148500D02*
D03*
X553000Y149500D02*
D03*
X179461Y329000D02*
D03*
X99000Y166500D02*
D03*
X112500Y149500D02*
D03*
X54931Y176931D02*
D03*
X141500Y111500D02*
D03*
X98500Y122500D02*
D03*
X129500Y141000D02*
D03*
X125500Y157000D02*
D03*
X146000Y152500D02*
D03*
X19000Y101000D02*
D03*
X18000Y149500D02*
D03*
X48000Y100000D02*
D03*
Y90500D02*
D03*
X6000Y85500D02*
D03*
X45000Y300000D02*
D03*
X39000Y45500D02*
D03*
Y38000D02*
D03*
X131000Y332000D02*
D03*
Y303500D02*
D03*
X114000Y318000D02*
D03*
X119500Y141000D02*
D03*
X553500Y309000D02*
D03*
X125500Y176000D02*
D03*
X381500Y309000D02*
D03*
X207500Y309500D02*
D03*
X73500Y202000D02*
D03*
X85000Y370500D02*
D03*
Y380500D02*
D03*
X514500Y409500D02*
D03*
X375819Y349000D02*
D03*
X526500Y329000D02*
D03*
X354319D02*
D03*
X432158Y367433D02*
D03*
X419158Y367933D02*
D03*
X400819Y190500D02*
D03*
X389319Y376000D02*
D03*
X493819Y362500D02*
D03*
X513816Y362720D02*
D03*
X548000Y349000D02*
D03*
X200961Y349020D02*
D03*
X687000Y409000D02*
D03*
X195500Y460000D02*
D03*
X211000Y475000D02*
D03*
X102500Y476000D02*
D03*
X140000Y426000D02*
D03*
X131500D02*
D03*
X126500Y410000D02*
D03*
X389819Y110000D02*
D03*
X348319Y117000D02*
D03*
X359819Y100000D02*
D03*
X363657Y108933D02*
D03*
X184961Y100020D02*
D03*
X188799Y108953D02*
D03*
X221461Y159520D02*
D03*
X212961D02*
D03*
X225961Y190520D02*
D03*
X338961Y362520D02*
D03*
X314400Y413200D02*
D03*
X318961Y362520D02*
D03*
X214461Y376020D02*
D03*
X257242Y367413D02*
D03*
X173461Y117020D02*
D03*
X196461Y122020D02*
D03*
X227461Y104520D02*
D03*
X214961Y110020D02*
D03*
X396319Y159500D02*
D03*
X387819D02*
D03*
X371319Y122000D02*
D03*
X402319Y104500D02*
D03*
X489316Y413221D02*
D03*
X244241Y367913D02*
D03*
X520500Y117000D02*
D03*
X573000Y190500D02*
D03*
X568500Y159500D02*
D03*
X560000D02*
D03*
X543500Y122000D02*
D03*
X532000Y100000D02*
D03*
X536000Y109000D02*
D03*
X562000Y110000D02*
D03*
X574500Y104500D02*
D03*
X561500Y376000D02*
D03*
X604500Y367500D02*
D03*
X591500Y368000D02*
D03*
X686000Y362500D02*
D03*
X666000D02*
D03*
X661500Y413000D02*
D03*
D117*
X313461Y209020D02*
D03*
X213461D02*
D03*
X488319Y209000D02*
D03*
X388319D02*
D03*
X660500D02*
D03*
X560500D02*
D03*
M02*
