G04*
G04 #@! TF.GenerationSoftware,Altium Limited,Altium Designer,21.7.2 (23)*
G04*
G04 Layer_Color=8388736*
%FSLAX25Y25*%
%MOIN*%
G70*
G04*
G04 #@! TF.SameCoordinates,E30EF456-83D5-485C-94B1-8EC378115786*
G04*
G04*
G04 #@! TF.FilePolarity,Positive*
G04*
G01*
G75*
%ADD10C,0.01000*%
%ADD102C,0.00394*%
%ADD103C,0.00197*%
D10*
X188621Y-98032D02*
G03*
X188621Y-98032I-78400J0D01*
G01*
Y-256299D02*
G03*
X188621Y-256299I-78400J0D01*
G01*
X656496Y-115256D02*
X671063D01*
X656496D02*
Y-97736D01*
X671063D01*
Y-115256D02*
Y-97736D01*
X645866Y-115157D02*
Y-97638D01*
X631299D02*
X645866D01*
X631299Y-115157D02*
Y-97638D01*
Y-115157D02*
X645866D01*
X650197Y-35236D02*
X664764D01*
Y-52756D02*
Y-35236D01*
X650197Y-52756D02*
X664764D01*
X650197D02*
Y-35236D01*
X621063Y-51083D02*
Y-33563D01*
Y-51083D02*
X635630D01*
Y-33563D01*
X621063D02*
X635630D01*
X232677Y-358661D02*
Y-352362D01*
X257874D01*
Y-364469D02*
Y-352362D01*
X232677Y-364469D02*
X257874D01*
X232677D02*
Y-358661D01*
D102*
X262598Y-331496D02*
Y-327559D01*
X260630Y-329528D02*
X264567D01*
X195669Y-461811D02*
Y-457874D01*
X193701Y-459842D02*
X197638D01*
X224016Y-419291D02*
X227953D01*
X225984Y-421260D02*
Y-417323D01*
X511417Y-211024D02*
X515354D01*
X513386Y-212992D02*
Y-209055D01*
D103*
X247638Y-322244D02*
X277559D01*
X247638Y-336811D02*
X277559D01*
X247638D02*
Y-322244D01*
X277559Y-336811D02*
Y-322244D01*
X179134Y-469095D02*
X212205D01*
X179134Y-450591D02*
X212205D01*
Y-469095D02*
Y-450591D01*
X179134Y-469095D02*
Y-450591D01*
X209449Y-428543D02*
Y-410039D01*
X242520Y-428543D02*
Y-410039D01*
X209449D02*
X242520D01*
X209449Y-428543D02*
X242520D01*
X540354Y-233661D02*
Y-188386D01*
X486417Y-233661D02*
Y-188386D01*
Y-233661D02*
X540354D01*
X486417Y-188386D02*
X540354D01*
M02*
