G04*
G04 #@! TF.GenerationSoftware,Altium Limited,Altium Designer,21.7.2 (23)*
G04*
G04 Layer_Color=8388736*
%FSLAX25Y25*%
%MOIN*%
G70*
G04*
G04 #@! TF.SameCoordinates,E30EF456-83D5-485C-94B1-8EC378115786*
G04*
G04*
G04 #@! TF.FilePolarity,Negative*
G04*
G01*
G75*
%ADD42R,0.02454X0.03556*%
%ADD43R,0.10131X0.07532*%
%ADD44C,0.03800*%
%ADD45O,0.03556X0.08674*%
%ADD46R,0.05603X0.04383*%
%ADD47R,0.04343X0.06115*%
%ADD48R,0.01784X0.03556*%
%ADD49R,0.10446X0.10446*%
%ADD50R,0.03556X0.01784*%
%ADD51R,0.07690X0.06509*%
%ADD52R,0.06509X0.07690*%
%ADD53R,0.13595X0.09461*%
%ADD54O,0.08674X0.03556*%
%ADD55R,0.09461X0.13595*%
%ADD56R,0.04383X0.05603*%
%ADD57R,0.06115X0.04343*%
%ADD58R,0.04343X0.04540*%
%ADD59R,0.04540X0.04343*%
%ADD60R,0.03162X0.04737*%
%ADD61R,0.08517X0.13202*%
%ADD62R,0.06312X0.09068*%
%ADD63R,0.03950X0.04737*%
%ADD64R,0.17139X0.10642*%
%ADD65R,0.04934X0.06312*%
%ADD66R,0.06312X0.04934*%
%ADD67C,0.07800*%
%ADD68C,0.10958*%
%ADD69C,0.15800*%
%ADD70C,0.16548*%
%ADD71C,0.08674*%
%ADD72C,0.13398*%
%ADD73C,0.10249*%
%ADD74C,0.18123*%
%ADD75C,0.15600*%
%ADD76C,0.17729*%
D42*
X659941Y-101083D02*
D03*
X662500D02*
D03*
X665059D02*
D03*
X667618D02*
D03*
Y-112894D02*
D03*
X665059D02*
D03*
X659941D02*
D03*
X662500D02*
D03*
X637303Y-112795D02*
D03*
X634744D02*
D03*
X639862D02*
D03*
X642421D02*
D03*
Y-100984D02*
D03*
X639862D02*
D03*
X637303D02*
D03*
X634744D02*
D03*
X661319Y-49409D02*
D03*
X658760D02*
D03*
X656201D02*
D03*
X653642D02*
D03*
Y-37598D02*
D03*
X656201D02*
D03*
X661319D02*
D03*
X658760D02*
D03*
X629626Y-35925D02*
D03*
X632185D02*
D03*
X627067D02*
D03*
X624508D02*
D03*
Y-47736D02*
D03*
X627067D02*
D03*
X629626D02*
D03*
X632185D02*
D03*
D43*
X663779Y-108268D02*
D03*
X638583Y-108169D02*
D03*
X657480Y-42224D02*
D03*
X628346Y-40551D02*
D03*
D44*
X618504Y-89764D02*
D03*
X508661Y-149213D02*
D03*
X451968Y-84252D02*
D03*
X560236Y-66142D02*
D03*
X556693Y-114567D02*
D03*
X491339Y-138976D02*
D03*
X604331Y-144488D02*
D03*
X604724Y-103937D02*
D03*
X608661Y-310630D02*
D03*
X638189Y-348819D02*
D03*
X597047Y-49016D02*
D03*
X614173Y-195669D02*
D03*
X566535Y-499213D02*
D03*
X564567Y-96850D02*
D03*
X335039Y-551181D02*
D03*
X192913Y-420472D02*
D03*
X343307Y-421260D02*
D03*
X194488Y-390945D02*
D03*
X225984Y-464961D02*
D03*
X314961Y-472835D02*
D03*
X317717Y-285433D02*
D03*
X531496Y-354724D02*
D03*
X490945Y-552756D02*
D03*
X85039Y-425984D02*
D03*
X627165Y-435827D02*
D03*
X494882Y-453150D02*
D03*
X280709Y-506693D02*
D03*
X29134Y-462598D02*
D03*
X617717Y-122835D02*
D03*
X623228Y-113386D02*
D03*
X666535Y-54331D02*
D03*
X618504Y-103543D02*
D03*
X628346Y-101969D02*
D03*
X512992Y-77953D02*
D03*
X461885Y-382366D02*
D03*
X445413Y-318110D02*
D03*
X446850Y-338976D02*
D03*
X448425Y-289370D02*
D03*
X95669Y-412598D02*
D03*
X540945Y-220079D02*
D03*
X541823Y-215445D02*
D03*
X149213Y-396063D02*
D03*
X149606Y-400394D02*
D03*
X146063Y-398819D02*
D03*
X146850Y-403150D02*
D03*
X640551Y-40157D02*
D03*
X344882Y-432677D02*
D03*
X348425Y-423228D02*
D03*
X363779Y-468504D02*
D03*
X548032Y-100394D02*
D03*
X560236Y-72047D02*
D03*
X482283Y-211811D02*
D03*
X582283Y-112598D02*
D03*
X596850Y-105512D02*
D03*
X581496Y-143701D02*
D03*
X593307Y-134646D02*
D03*
X514173Y-110630D02*
D03*
X583465Y-78740D02*
D03*
X542520Y-141732D02*
D03*
X171653Y-455118D02*
D03*
X265354Y-392126D02*
D03*
X133465Y-535039D02*
D03*
X220079Y-543307D02*
D03*
X89764Y-522835D02*
D03*
X146063Y-424803D02*
D03*
X134646Y-525984D02*
D03*
X248425Y-516535D02*
D03*
X206693Y-429528D02*
D03*
X365354Y-398819D02*
D03*
X434646Y-425197D02*
D03*
X471654Y-439370D02*
D03*
X658268Y-526378D02*
D03*
X544882Y-218504D02*
D03*
X452362Y-278740D02*
D03*
X442913Y-461811D02*
D03*
X374803Y-575197D02*
D03*
X382677Y-512992D02*
D03*
X419291Y-509055D02*
D03*
X390158Y-486221D02*
D03*
X218898Y-464961D02*
D03*
X656693Y-503543D02*
D03*
X457874Y-449606D02*
D03*
X561417Y-432283D02*
D03*
X546063Y-360630D02*
D03*
X557874Y-372835D02*
D03*
X517323Y-354331D02*
D03*
X411417Y-311417D02*
D03*
X414173Y-351181D02*
D03*
X383465Y-348031D02*
D03*
X382677Y-379921D02*
D03*
X364173Y-410236D02*
D03*
X400394Y-430709D02*
D03*
X461417Y-521654D02*
D03*
X457480Y-483858D02*
D03*
X405512Y-487008D02*
D03*
X373622Y-516535D02*
D03*
D45*
X348031Y-492913D02*
D03*
X335433D02*
D03*
X326772D02*
D03*
X318110D02*
D03*
X348031Y-516535D02*
D03*
X335433Y-516535D02*
D03*
X326772D02*
D03*
X318110D02*
D03*
X350394Y-437402D02*
D03*
X337795D02*
D03*
X329134D02*
D03*
X320472D02*
D03*
X350394Y-461024D02*
D03*
X337795Y-461024D02*
D03*
X329134D02*
D03*
X320472D02*
D03*
X423228Y-374803D02*
D03*
X414567D02*
D03*
X405905D02*
D03*
X393307Y-374803D02*
D03*
X423228Y-398425D02*
D03*
X414567D02*
D03*
X405905D02*
D03*
X393307D02*
D03*
X394094Y-451968D02*
D03*
X406693D02*
D03*
X415354D02*
D03*
X424016D02*
D03*
X394094Y-428346D02*
D03*
X406693Y-428346D02*
D03*
X415354D02*
D03*
X424016D02*
D03*
D46*
X363779Y-495118D02*
D03*
Y-508032D02*
D03*
X367717Y-445905D02*
D03*
Y-458819D02*
D03*
X376378Y-536299D02*
D03*
Y-549213D02*
D03*
Y-417087D02*
D03*
Y-404173D02*
D03*
X363779Y-520709D02*
D03*
Y-533622D02*
D03*
D47*
X555905Y-107087D02*
D03*
X563779D02*
D03*
X140551Y-435433D02*
D03*
X132677D02*
D03*
X504724Y-117717D02*
D03*
X512598D02*
D03*
X521654Y-116535D02*
D03*
X529528D02*
D03*
X617717Y-115354D02*
D03*
X609842D02*
D03*
X618110Y-131890D02*
D03*
X610236D02*
D03*
X546457Y-107480D02*
D03*
X538583D02*
D03*
X461417Y-504331D02*
D03*
X453543D02*
D03*
X158661Y-374803D02*
D03*
X166535D02*
D03*
X236221Y-317323D02*
D03*
X228346D02*
D03*
X648032Y-525541D02*
D03*
X640158D02*
D03*
D48*
X586024Y-130709D02*
D03*
X589961D02*
D03*
X582087D02*
D03*
X587992D02*
D03*
X584055D02*
D03*
X580118D02*
D03*
X586024Y-115748D02*
D03*
X584055D02*
D03*
X580118D02*
D03*
X582087D02*
D03*
X587992D02*
D03*
X589961D02*
D03*
D49*
X585039Y-123228D02*
D03*
D50*
X592520Y-118307D02*
D03*
Y-120276D02*
D03*
Y-122244D02*
D03*
Y-124213D02*
D03*
Y-126181D02*
D03*
Y-128150D02*
D03*
X577559D02*
D03*
Y-126181D02*
D03*
Y-124213D02*
D03*
Y-122244D02*
D03*
Y-120276D02*
D03*
Y-118307D02*
D03*
D51*
X559842Y-120079D02*
D03*
Y-131102D02*
D03*
X393307Y-548819D02*
D03*
Y-537795D02*
D03*
X589370Y-92126D02*
D03*
Y-103150D02*
D03*
X574803Y-91732D02*
D03*
Y-102756D02*
D03*
X603150Y-354331D02*
D03*
Y-365354D02*
D03*
X571654Y-365748D02*
D03*
Y-354724D02*
D03*
X568110Y-438189D02*
D03*
Y-427165D02*
D03*
X598032D02*
D03*
Y-438189D02*
D03*
X483071Y-118110D02*
D03*
Y-129134D02*
D03*
D52*
X478346Y-80709D02*
D03*
X489370D02*
D03*
X431890Y-300787D02*
D03*
X442913D02*
D03*
X394882Y-347244D02*
D03*
X405905D02*
D03*
Y-476772D02*
D03*
X394882D02*
D03*
X637795Y-508268D02*
D03*
X648819D02*
D03*
X640551Y-543307D02*
D03*
X651575D02*
D03*
X431890Y-281496D02*
D03*
X442913D02*
D03*
X458661Y-403937D02*
D03*
X447638D02*
D03*
X247244Y-344882D02*
D03*
X236221D02*
D03*
D53*
X259055Y-527756D02*
D03*
Y-547047D02*
D03*
X277165Y-547441D02*
D03*
Y-528150D02*
D03*
D54*
X124016Y-552756D02*
D03*
Y-544095D02*
D03*
Y-535433D02*
D03*
X124016Y-522835D02*
D03*
X100394Y-552756D02*
D03*
Y-544095D02*
D03*
Y-535433D02*
D03*
Y-522835D02*
D03*
X153937Y-505118D02*
D03*
Y-513779D02*
D03*
Y-522441D02*
D03*
X153937Y-535039D02*
D03*
X177559Y-505118D02*
D03*
Y-513779D02*
D03*
Y-522441D02*
D03*
Y-535039D02*
D03*
X158268Y-392913D02*
D03*
Y-401575D02*
D03*
Y-410236D02*
D03*
X158268Y-422835D02*
D03*
X181890Y-392913D02*
D03*
Y-401575D02*
D03*
Y-410236D02*
D03*
Y-422835D02*
D03*
X99213Y-387795D02*
D03*
Y-396457D02*
D03*
Y-405118D02*
D03*
X99213Y-417717D02*
D03*
X122835Y-387795D02*
D03*
Y-396457D02*
D03*
Y-405118D02*
D03*
Y-417717D02*
D03*
D55*
X196457Y-357087D02*
D03*
X177165D02*
D03*
X234842Y-392520D02*
D03*
X254134D02*
D03*
D56*
X455905Y-420866D02*
D03*
X442992D02*
D03*
X410472Y-360630D02*
D03*
X423386D02*
D03*
X437087Y-520866D02*
D03*
X450000D02*
D03*
X402598Y-519291D02*
D03*
X415512D02*
D03*
X448032Y-331102D02*
D03*
X435118D02*
D03*
D57*
X547244Y-125197D02*
D03*
Y-133071D02*
D03*
X470866Y-323228D02*
D03*
Y-315354D02*
D03*
X210630Y-540551D02*
D03*
Y-532677D02*
D03*
X585827Y-364173D02*
D03*
Y-356299D02*
D03*
X582677Y-435039D02*
D03*
Y-427165D02*
D03*
X137008Y-572835D02*
D03*
Y-580709D02*
D03*
D58*
X467815Y-381890D02*
D03*
X473917D02*
D03*
X411909Y-300000D02*
D03*
X418012D02*
D03*
X380512Y-566535D02*
D03*
X386614D02*
D03*
X643307Y-496457D02*
D03*
X649409D02*
D03*
X509547Y-68110D02*
D03*
X515650D02*
D03*
D59*
X456299Y-287598D02*
D03*
Y-293701D02*
D03*
X557087Y-357283D02*
D03*
Y-363386D02*
D03*
X555512Y-428740D02*
D03*
Y-434842D02*
D03*
D60*
X448622Y-485827D02*
D03*
X441142D02*
D03*
X448622Y-474016D02*
D03*
X441142D02*
D03*
X444882Y-485827D02*
D03*
X449016Y-452362D02*
D03*
X441535D02*
D03*
X449016Y-440551D02*
D03*
X441535D02*
D03*
X445276Y-452362D02*
D03*
D61*
X252933Y-329528D02*
D03*
X272264D02*
D03*
D62*
X236614Y-358661D02*
D03*
X253937D02*
D03*
D63*
X208465Y-464843D02*
D03*
Y-454843D02*
D03*
X182874Y-464843D02*
D03*
Y-454843D02*
D03*
X213189Y-414291D02*
D03*
Y-424291D02*
D03*
X238779Y-414291D02*
D03*
Y-424291D02*
D03*
D64*
X530217Y-211024D02*
D03*
X496555D02*
D03*
D65*
X520866Y-105118D02*
D03*
X528346D02*
D03*
D66*
X510236Y-93701D02*
D03*
Y-101181D02*
D03*
D67*
X29134Y-499606D02*
D03*
Y-487795D02*
D03*
X497649Y-359055D02*
D03*
Y-347255D02*
D03*
X509449Y-359055D02*
D03*
Y-347255D02*
D03*
X511800Y-420877D02*
D03*
Y-432677D02*
D03*
X500000Y-420877D02*
D03*
Y-432677D02*
D03*
X285039Y-294094D02*
D03*
X273228D02*
D03*
X638594Y-467323D02*
D03*
X650394D02*
D03*
X638594Y-479123D02*
D03*
X650394D02*
D03*
X29921Y-355906D02*
D03*
Y-367717D02*
D03*
X30315Y-421654D02*
D03*
Y-409842D02*
D03*
X668050Y-370333D02*
D03*
Y-358533D02*
D03*
X679850D02*
D03*
Y-370333D02*
D03*
Y-393933D02*
D03*
Y-382133D02*
D03*
X668050D02*
D03*
Y-393933D02*
D03*
D68*
X651575Y-161445D02*
D03*
X639055Y-190945D02*
D03*
Y-161445D02*
D03*
X651575Y-190945D02*
D03*
X651181Y-300000D02*
D03*
X638661Y-270500D02*
D03*
Y-300000D02*
D03*
X651181Y-270500D02*
D03*
D69*
X703268Y-142744D02*
D03*
Y-209646D02*
D03*
X702874Y-318701D02*
D03*
Y-251799D02*
D03*
D70*
X218307Y-68583D02*
D03*
Y-208583D02*
D03*
X408465Y-68583D02*
D03*
Y-208583D02*
D03*
X511811Y-513386D02*
D03*
Y-483858D02*
D03*
X526772Y-276378D02*
D03*
Y-305906D02*
D03*
D71*
X218307Y-108583D02*
D03*
Y-138583D02*
D03*
Y-168583D02*
D03*
X408465Y-108583D02*
D03*
Y-138583D02*
D03*
Y-168583D02*
D03*
D72*
X109843Y-490551D02*
D03*
X69685D02*
D03*
X66535Y-409449D02*
D03*
Y-369291D02*
D03*
X67323Y-529921D02*
D03*
Y-570079D02*
D03*
X109055Y-456299D02*
D03*
X68898D02*
D03*
D73*
X157087Y-358661D02*
D03*
X98032D02*
D03*
X150787Y-566142D02*
D03*
X209842D02*
D03*
D74*
X90551Y-98032D02*
D03*
X129921D02*
D03*
X90551Y-256299D02*
D03*
X129921D02*
D03*
D75*
X696850Y-366933D02*
D03*
Y-385433D02*
D03*
D76*
X21260Y-614567D02*
D03*
X692520Y-612992D02*
D03*
X20079Y-25591D02*
D03*
X693701Y-29134D02*
D03*
M02*
