G04*
G04 #@! TF.GenerationSoftware,Altium Limited,Altium Designer,22.4.2 (48)*
G04*
G04 Layer_Physical_Order=1*
G04 Layer_Color=255*
%FSLAX25Y25*%
%MOIN*%
G70*
G04*
G04 #@! TF.SameCoordinates,340CD510-C2A3-4888-8477-CFC9A3A3E853*
G04*
G04*
G04 #@! TF.FilePolarity,Positive*
G04*
G01*
G75*
%ADD10C,0.01000*%
%ADD11C,0.00500*%
%ADD24C,0.16929*%
%ADD25C,0.08000*%
%ADD26C,0.07000*%
%ADD27C,0.15748*%
%ADD28C,0.10158*%
%ADD29C,0.15000*%
G36*
X490500Y366500D02*
Y256529D01*
X470783D01*
X469731Y257581D01*
X469235Y257913D01*
X468650Y258029D01*
X468064Y257913D01*
X467568Y257581D01*
X467237Y257085D01*
X467120Y256500D01*
X467237Y255915D01*
X467568Y255419D01*
X469068Y253919D01*
X469564Y253587D01*
X470150Y253471D01*
X490500D01*
Y210500D01*
X478500Y198500D01*
X414500D01*
X401500Y211500D01*
Y364500D01*
X410000Y373000D01*
X484000D01*
X490500Y366500D01*
D02*
G37*
G36*
X831500Y367000D02*
Y257029D01*
X811150D01*
X810564Y256913D01*
X810068Y256581D01*
X809737Y256085D01*
X809620Y255500D01*
X809737Y254915D01*
X810068Y254419D01*
X810564Y254087D01*
X811150Y253971D01*
X831500D01*
Y211000D01*
X819500Y199000D01*
X755500D01*
X742500Y212000D01*
Y365000D01*
X750726Y373225D01*
X825274D01*
X831500Y367000D01*
D02*
G37*
G36*
X67000Y289000D02*
Y242500D01*
X69500Y240000D01*
X87000D01*
X96000Y231000D01*
Y198000D01*
X88000Y190000D01*
X7000D01*
X2500Y194500D01*
Y290000D01*
X7000Y294500D01*
X61500D01*
X67000Y289000D01*
D02*
G37*
G36*
X157000Y364500D02*
Y257029D01*
X128650D01*
X128064Y256913D01*
X127568Y256581D01*
X127237Y256085D01*
X127120Y255500D01*
X127237Y254915D01*
X127568Y254419D01*
X128064Y254087D01*
X128650Y253971D01*
X157000D01*
Y198000D01*
X144000Y185000D01*
X114000D01*
X102500Y196500D01*
Y230500D01*
X91000Y242000D01*
X73500D01*
X70500Y245000D01*
Y365000D01*
X78000Y372500D01*
X149000D01*
X157000Y364500D01*
D02*
G37*
G36*
X1223000Y360500D02*
Y195000D01*
X1207500Y179500D01*
X1108500D01*
X1089000Y199000D01*
Y253971D01*
X1104850D01*
X1105436Y254087D01*
X1105932Y254419D01*
X1106263Y254915D01*
X1106380Y255500D01*
X1106263Y256085D01*
X1105932Y256581D01*
X1105436Y256913D01*
X1104850Y257029D01*
X1089000D01*
Y358500D01*
X1102500Y372000D01*
X1211500D01*
X1223000Y360500D01*
D02*
G37*
G36*
X1222500Y160000D02*
Y11000D01*
X1215500Y4000D01*
X1215000Y4500D01*
X1098500D01*
X1088500Y14500D01*
Y104971D01*
X1106350D01*
X1106936Y105087D01*
X1107432Y105419D01*
X1107763Y105915D01*
X1107880Y106500D01*
X1107763Y107085D01*
X1107432Y107581D01*
X1106936Y107913D01*
X1106350Y108029D01*
X1088500D01*
Y158000D01*
X1099000Y168000D01*
X1214500D01*
X1222500Y160000D01*
D02*
G37*
G36*
X492000Y172000D02*
Y108029D01*
X469650D01*
X469064Y107913D01*
X468568Y107581D01*
X468237Y107085D01*
X468120Y106500D01*
X468237Y105915D01*
X468568Y105419D01*
X469064Y105087D01*
X469650Y104971D01*
X492000D01*
Y16000D01*
X480000Y4000D01*
X416000D01*
X403000Y17000D01*
Y170000D01*
X411500Y178500D01*
X485500D01*
X492000Y172000D01*
D02*
G37*
G36*
X143000Y175000D02*
Y108029D01*
X130650D01*
X130064Y107913D01*
X129568Y107581D01*
X129237Y107085D01*
X129120Y106500D01*
X129237Y105915D01*
X129568Y105419D01*
X130064Y105087D01*
X130650Y104971D01*
X143000D01*
Y14500D01*
X132500Y4000D01*
X62500D01*
X54000Y12500D01*
Y176000D01*
X59000Y181000D01*
X137000D01*
X143000Y175000D01*
D02*
G37*
G36*
X832000Y170500D02*
Y108029D01*
X812650D01*
X812064Y107913D01*
X811568Y107581D01*
X811237Y107085D01*
X811120Y106500D01*
X811237Y105915D01*
X811568Y105419D01*
X812064Y105087D01*
X812650Y104971D01*
X832000D01*
Y14500D01*
X820000Y2500D01*
X756000D01*
X743000Y15500D01*
Y168500D01*
X751500Y177000D01*
X825500D01*
X832000Y170500D01*
D02*
G37*
%LPC*%
G36*
X19144Y230701D02*
X17470D01*
X15828Y230374D01*
X14281Y229733D01*
X12889Y228803D01*
X11705Y227619D01*
X10774Y226227D01*
X10134Y224680D01*
X9807Y223038D01*
Y221364D01*
X10134Y219721D01*
X10774Y218175D01*
X11705Y216782D01*
X12889Y215598D01*
X14281Y214668D01*
X15828Y214027D01*
X17470Y213701D01*
X19144D01*
X20786Y214027D01*
X22333Y214668D01*
X23726Y215598D01*
X24909Y216782D01*
X25840Y218175D01*
X26480Y219721D01*
X26807Y221364D01*
Y223038D01*
X26480Y224680D01*
X25840Y226227D01*
X24909Y227619D01*
X23726Y228803D01*
X22333Y229733D01*
X20786Y230374D01*
X19144Y230701D01*
D02*
G37*
%LPD*%
D10*
X843500Y106500D02*
X984400Y247400D01*
Y334200D01*
X812650Y106500D02*
X843500D01*
X996200Y191800D02*
Y334200D01*
Y191800D02*
X1081500Y106500D01*
X1106350D01*
X1034500Y346000D02*
X1051000Y329500D01*
X996000Y346000D02*
X1034500D01*
X1051000Y287500D02*
Y329500D01*
Y287500D02*
X1083000Y255500D01*
X1104850D01*
X984400Y346000D02*
Y354100D01*
X978000Y360500D02*
X984400Y354100D01*
X945000Y360500D02*
X978000D01*
X811150Y255500D02*
X840000D01*
X945000Y360500D01*
X954000Y355000D02*
X970000D01*
X838500Y239500D02*
X954000Y355000D01*
X970000D02*
X972600Y352400D01*
X838500Y203000D02*
Y239500D01*
X843000Y198000D02*
Y231571D01*
X950140Y338712D01*
X953512D02*
X960800Y346000D01*
X950140Y338712D02*
X953512D01*
X840000Y186000D02*
X960800Y306800D01*
Y334200D01*
X240000Y191000D02*
X836000D01*
X175500Y255500D02*
X240000Y191000D01*
X836000D02*
X843000Y198000D01*
X234500Y186000D02*
X840000D01*
X155000Y106500D02*
X234500Y186000D01*
X504000Y106500D02*
X578500Y181000D01*
X854000D02*
X972600Y299600D01*
X578500Y181000D02*
X854000D01*
X972600Y299600D02*
Y334200D01*
X560500Y196000D02*
X831500D01*
X838500Y203000D01*
X501500Y255000D02*
X560500Y196000D01*
X469650Y106500D02*
X504000D01*
X130650D02*
X155000D01*
X128650Y255500D02*
X175500D01*
X972600Y346000D02*
Y352400D01*
X470150Y255000D02*
X501500D01*
X468650Y256500D02*
X470150Y255000D01*
D11*
X500Y500D02*
X1325000D01*
X1325000Y375000D02*
X1325000Y500D01*
X500Y375000D02*
X1325000D01*
X500D02*
X500Y500D01*
D24*
X28500Y356500D02*
D03*
X1303500D02*
D03*
X1302500Y19000D02*
D03*
X28500D02*
D03*
D25*
X43000Y285000D02*
D03*
X82000D02*
D03*
Y271500D02*
D03*
X43000D02*
D03*
D26*
X949000Y330500D02*
D03*
X1008000D02*
D03*
X996000Y346000D02*
D03*
X996200Y334200D02*
D03*
X984400D02*
D03*
Y346000D02*
D03*
X972600D02*
D03*
X960800D02*
D03*
Y334200D02*
D03*
X972600D02*
D03*
D27*
X1207500Y35650D02*
D03*
Y329350D02*
D03*
X1104850Y255500D02*
D03*
X811150D02*
D03*
X812650Y106500D02*
D03*
X1106350D02*
D03*
X422350Y255500D02*
D03*
X128650D02*
D03*
X130650Y106500D02*
D03*
X424350D02*
D03*
X469650D02*
D03*
X763350D02*
D03*
X762350Y256500D02*
D03*
X468650D02*
D03*
D28*
X70000Y174000D02*
D03*
X82520Y203500D02*
D03*
Y174000D02*
D03*
X70000Y203500D02*
D03*
D29*
X18307Y155299D02*
D03*
Y222201D02*
D03*
M02*
