G04*
G04 #@! TF.GenerationSoftware,Altium Limited,Altium Designer,22.4.2 (48)*
G04*
G04 Layer_Color=16711935*
%FSLAX25Y25*%
%MOIN*%
G70*
G04*
G04 #@! TF.SameCoordinates,340CD510-C2A3-4888-8477-CFC9A3A3E853*
G04*
G04*
G04 #@! TF.FilePolarity,Negative*
G04*
G01*
G75*
%ADD11C,0.00500*%
%ADD18C,0.17729*%
%ADD19C,0.08800*%
%ADD20C,0.07800*%
%ADD21C,0.16548*%
%ADD22C,0.10958*%
%ADD23C,0.15800*%
D11*
X500Y500D02*
X1325000D01*
X1325000Y375000D02*
X1325000Y500D01*
X500Y375000D02*
X1325000D01*
X500D02*
X500Y500D01*
D18*
X28500Y356500D02*
D03*
X1303500D02*
D03*
X1302500Y19000D02*
D03*
X28500D02*
D03*
D19*
X43000Y285000D02*
D03*
X82000D02*
D03*
Y271500D02*
D03*
X43000D02*
D03*
D20*
X949000Y330500D02*
D03*
X1008000D02*
D03*
X996000Y346000D02*
D03*
X996200Y334200D02*
D03*
X984400D02*
D03*
Y346000D02*
D03*
X972600D02*
D03*
X960800D02*
D03*
Y334200D02*
D03*
X972600D02*
D03*
D21*
X1207500Y35650D02*
D03*
Y329350D02*
D03*
X1104850Y255500D02*
D03*
X811150D02*
D03*
X812650Y106500D02*
D03*
X1106350D02*
D03*
X422350Y255500D02*
D03*
X128650D02*
D03*
X130650Y106500D02*
D03*
X424350D02*
D03*
X469650D02*
D03*
X763350D02*
D03*
X762350Y256500D02*
D03*
X468650D02*
D03*
D22*
X70000Y174000D02*
D03*
X82520Y203500D02*
D03*
Y174000D02*
D03*
X70000Y203500D02*
D03*
D23*
X18307Y155299D02*
D03*
Y222201D02*
D03*
M02*
