G04*
G04 #@! TF.GenerationSoftware,Altium Limited,Altium Designer,22.4.2 (48)*
G04*
G04 Layer_Color=65535*
%FSLAX25Y25*%
%MOIN*%
G70*
G04*
G04 #@! TF.SameCoordinates,340CD510-C2A3-4888-8477-CFC9A3A3E853*
G04*
G04*
G04 #@! TF.FilePolarity,Positive*
G04*
G01*
G75*
%ADD10C,0.01000*%
%ADD11C,0.00500*%
%ADD12C,0.01500*%
%ADD13C,0.02500*%
%ADD14C,0.03500*%
%ADD15C,0.01250*%
%ADD16C,0.00750*%
%ADD17C,0.03937*%
G36*
X30725Y135895D02*
X31195D01*
Y135660D01*
X31665D01*
Y135425D01*
X32135D01*
Y135190D01*
X32370D01*
Y134955D01*
X32840D01*
Y134720D01*
X33310D01*
Y134485D01*
X33780D01*
Y134250D01*
X34250D01*
Y134015D01*
X34720D01*
Y133780D01*
X35190D01*
Y133545D01*
X35660D01*
Y133310D01*
X36130D01*
Y133075D01*
X36600D01*
Y132840D01*
X36835D01*
Y132605D01*
X37305D01*
Y132370D01*
X37775D01*
Y132135D01*
X38245D01*
Y131900D01*
X38715D01*
Y131665D01*
X39185D01*
Y131430D01*
X39655D01*
Y131195D01*
X40125D01*
Y130960D01*
X40595D01*
Y130725D01*
X41065D01*
Y130490D01*
X41300D01*
Y130255D01*
X41770D01*
Y130020D01*
X42240D01*
Y129785D01*
X42710D01*
Y129550D01*
X43180D01*
Y129315D01*
X43650D01*
Y129080D01*
X44120D01*
Y128845D01*
X44590D01*
Y128610D01*
X44825D01*
Y128375D01*
X45295D01*
Y128140D01*
X45765D01*
Y127905D01*
X46235D01*
Y127670D01*
X46705D01*
Y127435D01*
X47175D01*
Y127200D01*
X47410D01*
Y126965D01*
X47880D01*
Y126730D01*
X48115D01*
Y126495D01*
X48350D01*
Y126260D01*
X48585D01*
Y126025D01*
X48820D01*
Y125790D01*
X49055D01*
Y125555D01*
X49290D01*
Y125320D01*
X49525D01*
Y124850D01*
X49760D01*
Y124615D01*
X49995D01*
Y124145D01*
X50230D01*
Y123440D01*
X50465D01*
Y122735D01*
X50700D01*
Y121795D01*
X50935D01*
Y117565D01*
X50700D01*
Y117330D01*
X45530D01*
Y117095D01*
X39185D01*
Y116860D01*
X32840D01*
Y116625D01*
X30020D01*
Y123205D01*
X30255D01*
Y123440D01*
X30490D01*
Y123205D01*
X33780D01*
Y128140D01*
X33310D01*
Y128375D01*
X32840D01*
Y128610D01*
X32135D01*
Y128845D01*
X31665D01*
Y129080D01*
X31195D01*
Y129315D01*
X30725D01*
Y129550D01*
X30255D01*
Y129785D01*
X30020D01*
Y136130D01*
X30725D01*
Y135895D01*
D02*
G37*
G36*
X69068Y122716D02*
X68946D01*
Y122351D01*
X68824D01*
Y122108D01*
X68703D01*
Y121865D01*
X68581D01*
Y121743D01*
X68459D01*
Y121622D01*
X68216D01*
Y121500D01*
X67851D01*
Y121378D01*
X67243D01*
Y121500D01*
X66878D01*
Y121622D01*
X66757D01*
Y121743D01*
X66635D01*
Y121865D01*
X66514D01*
Y121986D01*
X66392D01*
Y122230D01*
X66270D01*
Y122108D01*
X66149D01*
Y121865D01*
X66027D01*
Y121743D01*
X65905D01*
Y121622D01*
X65784D01*
Y121500D01*
X65662D01*
Y121378D01*
X65419D01*
Y121257D01*
X64446D01*
Y121378D01*
X64203D01*
Y121500D01*
X63959D01*
Y121622D01*
X63838D01*
Y121743D01*
X63716D01*
Y121986D01*
X63595D01*
Y122230D01*
X63473D01*
Y122716D01*
X63351D01*
Y128432D01*
X69068D01*
Y122716D01*
D02*
G37*
G36*
X77216Y126973D02*
X77460D01*
Y126851D01*
X77581D01*
Y126730D01*
X77703D01*
Y126243D01*
X77581D01*
Y125878D01*
X77460D01*
Y125514D01*
X77338D01*
Y125149D01*
X77216D01*
Y124784D01*
X77095D01*
Y124419D01*
X76973D01*
Y124054D01*
X76851D01*
Y123568D01*
X76730D01*
Y123203D01*
X76608D01*
Y122838D01*
X76486D01*
Y122473D01*
X76365D01*
Y122108D01*
X76243D01*
Y121743D01*
X76122D01*
Y121378D01*
X76000D01*
Y121013D01*
X75878D01*
Y120649D01*
X75757D01*
Y120405D01*
X75635D01*
Y120284D01*
X75392D01*
Y120162D01*
X75027D01*
Y120284D01*
X74905D01*
Y120405D01*
X74784D01*
Y120527D01*
X74662D01*
Y121135D01*
X74784D01*
Y121500D01*
X74905D01*
Y121865D01*
X75027D01*
Y122230D01*
X75149D01*
Y122595D01*
X75270D01*
Y122959D01*
X75392D01*
Y123324D01*
X75513D01*
Y123811D01*
X75635D01*
Y124176D01*
X75757D01*
Y124540D01*
X75878D01*
Y124905D01*
X76000D01*
Y125270D01*
X76122D01*
Y125635D01*
X76243D01*
Y126000D01*
X76365D01*
Y126365D01*
X76486D01*
Y126730D01*
X76608D01*
Y126851D01*
X76730D01*
Y126973D01*
X76973D01*
Y127095D01*
X77216D01*
Y126973D01*
D02*
G37*
G36*
X88649Y120892D02*
X88770D01*
Y120770D01*
X88892D01*
Y120041D01*
X88770D01*
Y119919D01*
X88649D01*
Y119797D01*
X88527D01*
Y119554D01*
X88405D01*
Y119432D01*
X88284D01*
Y119311D01*
X88162D01*
Y119068D01*
X88041D01*
Y118946D01*
X87919D01*
Y118703D01*
X87797D01*
Y118581D01*
X87676D01*
Y118459D01*
X87554D01*
Y118216D01*
X87432D01*
Y118095D01*
X87311D01*
Y117973D01*
X87189D01*
Y117730D01*
X87068D01*
Y117608D01*
X86946D01*
Y117365D01*
X86824D01*
Y117243D01*
X86703D01*
Y117122D01*
X86581D01*
Y116878D01*
X86459D01*
Y116757D01*
X86338D01*
Y116635D01*
X86216D01*
Y116392D01*
X86095D01*
Y116270D01*
X85973D01*
Y116027D01*
X85851D01*
Y115905D01*
X85730D01*
Y115784D01*
X85608D01*
Y115541D01*
X85487D01*
Y115419D01*
X85365D01*
Y115297D01*
X85243D01*
Y115176D01*
X85122D01*
Y115054D01*
X84513D01*
Y115176D01*
X84392D01*
Y115297D01*
X84270D01*
Y116027D01*
X84392D01*
Y116149D01*
X84513D01*
Y116270D01*
X84635D01*
Y116514D01*
X84757D01*
Y116635D01*
X84878D01*
Y116757D01*
X85000D01*
Y117000D01*
X85122D01*
Y117122D01*
X85243D01*
Y117243D01*
X85365D01*
Y117487D01*
X85487D01*
Y117608D01*
X85608D01*
Y117851D01*
X85730D01*
Y117973D01*
X85851D01*
Y118095D01*
X85973D01*
Y118338D01*
X86095D01*
Y118459D01*
X86216D01*
Y118581D01*
X86338D01*
Y118824D01*
X86459D01*
Y118946D01*
X86581D01*
Y119189D01*
X86703D01*
Y119311D01*
X86824D01*
Y119432D01*
X86946D01*
Y119676D01*
X87068D01*
Y119797D01*
X87189D01*
Y119919D01*
X87311D01*
Y120162D01*
X87432D01*
Y120284D01*
X87554D01*
Y120527D01*
X87676D01*
Y120649D01*
X87797D01*
Y120770D01*
X87919D01*
Y120892D01*
X88041D01*
Y121013D01*
X88649D01*
Y120892D01*
D02*
G37*
G36*
X63473Y120527D02*
X63716D01*
Y120405D01*
X63959D01*
Y120284D01*
X64203D01*
Y120162D01*
X64446D01*
Y120041D01*
X64689D01*
Y119919D01*
X64932D01*
Y119797D01*
X65176D01*
Y119676D01*
X65419D01*
Y119554D01*
X65662D01*
Y119432D01*
X65905D01*
Y119311D01*
X66149D01*
Y119189D01*
X66392D01*
Y119068D01*
X66635D01*
Y118946D01*
X66878D01*
Y118824D01*
X67122D01*
Y118703D01*
X67365D01*
Y118581D01*
X67608D01*
Y118459D01*
X67851D01*
Y118338D01*
X68095D01*
Y118216D01*
X68338D01*
Y118095D01*
X68459D01*
Y117973D01*
X68703D01*
Y117851D01*
X68824D01*
Y117608D01*
X68946D01*
Y117365D01*
X69068D01*
Y116027D01*
X68946D01*
Y115784D01*
X68824D01*
Y115541D01*
X68703D01*
Y115419D01*
X68581D01*
Y115297D01*
X68338D01*
Y115176D01*
X68216D01*
Y115054D01*
X67973D01*
Y114932D01*
X67730D01*
Y114811D01*
X67487D01*
Y114689D01*
X67243D01*
Y114568D01*
X67000D01*
Y114446D01*
X66757D01*
Y114324D01*
X66514D01*
Y114203D01*
X66270D01*
Y114081D01*
X66027D01*
Y113960D01*
X65784D01*
Y113838D01*
X65540D01*
Y113716D01*
X65297D01*
Y113595D01*
X65054D01*
Y113473D01*
X64811D01*
Y113351D01*
X64568D01*
Y113230D01*
X64324D01*
Y113108D01*
X64081D01*
Y112987D01*
X63838D01*
Y112865D01*
X63595D01*
Y112743D01*
X63351D01*
Y113716D01*
X63595D01*
Y113838D01*
X63838D01*
Y113960D01*
X64081D01*
Y114081D01*
X64324D01*
Y114203D01*
X64568D01*
Y114324D01*
X64811D01*
Y114446D01*
X64932D01*
Y118946D01*
X64689D01*
Y119068D01*
X64446D01*
Y119189D01*
X64203D01*
Y119311D01*
X63959D01*
Y119432D01*
X63716D01*
Y119554D01*
X63473D01*
Y119676D01*
X63351D01*
Y120649D01*
X63473D01*
Y120527D01*
D02*
G37*
G36*
X97284Y111770D02*
X97527D01*
Y111649D01*
X97649D01*
Y111527D01*
X97770D01*
Y110919D01*
X97649D01*
Y110797D01*
X97527D01*
Y110676D01*
X97284D01*
Y110554D01*
X97162D01*
Y110432D01*
X97040D01*
Y110311D01*
X96797D01*
Y110189D01*
X96676D01*
Y110068D01*
X96554D01*
Y109946D01*
X96311D01*
Y109824D01*
X96189D01*
Y109703D01*
X95946D01*
Y109581D01*
X95824D01*
Y109459D01*
X95703D01*
Y109338D01*
X95460D01*
Y109216D01*
X95338D01*
Y109095D01*
X95216D01*
Y108973D01*
X94973D01*
Y108851D01*
X94851D01*
Y108730D01*
X94608D01*
Y108608D01*
X94486D01*
Y108486D01*
X94365D01*
Y108365D01*
X94122D01*
Y108243D01*
X94000D01*
Y108122D01*
X93878D01*
Y108000D01*
X93635D01*
Y107878D01*
X93514D01*
Y107757D01*
X93270D01*
Y107635D01*
X93149D01*
Y107513D01*
X93027D01*
Y107392D01*
X92784D01*
Y107270D01*
X92662D01*
Y107149D01*
X92054D01*
Y107270D01*
X91932D01*
Y107392D01*
X91811D01*
Y108122D01*
X91932D01*
Y108243D01*
X92054D01*
Y108365D01*
X92297D01*
Y108486D01*
X92419D01*
Y108608D01*
X92662D01*
Y108730D01*
X92784D01*
Y108851D01*
X92905D01*
Y108973D01*
X93149D01*
Y109095D01*
X93270D01*
Y109216D01*
X93392D01*
Y109338D01*
X93635D01*
Y109459D01*
X93757D01*
Y109581D01*
X94000D01*
Y109703D01*
X94122D01*
Y109824D01*
X94243D01*
Y109946D01*
X94486D01*
Y110068D01*
X94608D01*
Y110189D01*
X94730D01*
Y110311D01*
X94973D01*
Y110432D01*
X95095D01*
Y110554D01*
X95338D01*
Y110676D01*
X95460D01*
Y110797D01*
X95581D01*
Y110919D01*
X95824D01*
Y111040D01*
X95946D01*
Y111162D01*
X96068D01*
Y111284D01*
X96311D01*
Y111405D01*
X96432D01*
Y111527D01*
X96676D01*
Y111649D01*
X96797D01*
Y111770D01*
X97040D01*
Y111892D01*
X97284D01*
Y111770D01*
D02*
G37*
G36*
X30490Y115215D02*
X31430D01*
Y114980D01*
X32370D01*
Y114745D01*
X33310D01*
Y114510D01*
X34250D01*
Y114275D01*
X35425D01*
Y114040D01*
X36365D01*
Y113805D01*
X37305D01*
Y113570D01*
X38245D01*
Y113335D01*
X39185D01*
Y113100D01*
X40125D01*
Y112865D01*
X41065D01*
Y112630D01*
X42005D01*
Y112395D01*
X42945D01*
Y112160D01*
X43885D01*
Y111925D01*
X44825D01*
Y111690D01*
X45765D01*
Y111455D01*
X46705D01*
Y111220D01*
X47645D01*
Y110985D01*
X48585D01*
Y110750D01*
X49525D01*
Y110515D01*
X50700D01*
Y110280D01*
X50935D01*
Y104640D01*
X49995D01*
Y104875D01*
X49055D01*
Y105110D01*
X47880D01*
Y105345D01*
X46940D01*
Y105580D01*
X46000D01*
Y105815D01*
X45060D01*
Y106050D01*
X44120D01*
Y106285D01*
X43180D01*
Y106520D01*
X42240D01*
Y106755D01*
X41300D01*
Y106990D01*
X40360D01*
Y107225D01*
X39420D01*
Y107460D01*
X38480D01*
Y107695D01*
X37540D01*
Y107930D01*
X36600D01*
Y108165D01*
X35660D01*
Y108400D01*
X34720D01*
Y108635D01*
X33780D01*
Y108870D01*
X32840D01*
Y109105D01*
X31900D01*
Y109340D01*
X30960D01*
Y109575D01*
X30255D01*
Y109810D01*
X30020D01*
Y115215D01*
X30255D01*
Y115450D01*
X30490D01*
Y115215D01*
D02*
G37*
G36*
X69068Y106297D02*
X68946D01*
Y105811D01*
X68824D01*
Y105568D01*
X68703D01*
Y105324D01*
X68581D01*
Y105203D01*
X68459D01*
Y105081D01*
X68338D01*
Y104959D01*
X68216D01*
Y104838D01*
X68095D01*
Y104716D01*
X67851D01*
Y104595D01*
X67487D01*
Y104473D01*
X66878D01*
Y104351D01*
X65540D01*
Y104473D01*
X64932D01*
Y104595D01*
X64568D01*
Y104716D01*
X64324D01*
Y104838D01*
X64203D01*
Y104959D01*
X64081D01*
Y105081D01*
X63959D01*
Y105203D01*
X63838D01*
Y105324D01*
X63716D01*
Y105568D01*
X63595D01*
Y105811D01*
X63473D01*
Y106419D01*
X63351D01*
Y111770D01*
X69068D01*
Y106297D01*
D02*
G37*
G36*
X103000Y100216D02*
X103243D01*
Y99973D01*
X103365D01*
Y99608D01*
X103243D01*
Y99365D01*
X103122D01*
Y99243D01*
X103000D01*
Y99122D01*
X102514D01*
Y99000D01*
X102149D01*
Y98878D01*
X101784D01*
Y98757D01*
X101419D01*
Y98635D01*
X101054D01*
Y98514D01*
X100689D01*
Y98392D01*
X100324D01*
Y98270D01*
X99959D01*
Y98149D01*
X99595D01*
Y98027D01*
X99108D01*
Y97905D01*
X98743D01*
Y97784D01*
X98378D01*
Y97662D01*
X98014D01*
Y97540D01*
X97649D01*
Y97419D01*
X97405D01*
Y97297D01*
X96919D01*
Y97419D01*
X96676D01*
Y97540D01*
X96554D01*
Y97784D01*
X96432D01*
Y98027D01*
X96554D01*
Y98270D01*
X96676D01*
Y98392D01*
X96797D01*
Y98514D01*
X97162D01*
Y98635D01*
X97527D01*
Y98757D01*
X97892D01*
Y98878D01*
X98257D01*
Y99000D01*
X98622D01*
Y99122D01*
X98987D01*
Y99243D01*
X99351D01*
Y99365D01*
X99838D01*
Y99487D01*
X100203D01*
Y99608D01*
X100568D01*
Y99730D01*
X100932D01*
Y99851D01*
X101297D01*
Y99973D01*
X101662D01*
Y100095D01*
X102027D01*
Y100216D01*
X102392D01*
Y100338D01*
X103000D01*
Y100216D01*
D02*
G37*
G36*
X67000Y103257D02*
X67608D01*
Y103135D01*
X67851D01*
Y103014D01*
X68095D01*
Y102892D01*
X68216D01*
Y102770D01*
X68459D01*
Y102527D01*
X68581D01*
Y102405D01*
X68703D01*
Y102162D01*
X68824D01*
Y101919D01*
X68946D01*
Y101432D01*
X69068D01*
Y96203D01*
X68216D01*
Y101068D01*
X68095D01*
Y101554D01*
X67973D01*
Y101797D01*
X67851D01*
Y102041D01*
X67730D01*
Y102162D01*
X67487D01*
Y102284D01*
X67122D01*
Y102405D01*
X65297D01*
Y102284D01*
X64932D01*
Y102162D01*
X64811D01*
Y102041D01*
X64568D01*
Y101797D01*
X64446D01*
Y101554D01*
X64324D01*
Y101068D01*
X64203D01*
Y97054D01*
X66270D01*
Y96203D01*
X63351D01*
Y101311D01*
X63473D01*
Y101919D01*
X63595D01*
Y102162D01*
X63716D01*
Y102405D01*
X63838D01*
Y102527D01*
X63959D01*
Y102649D01*
X64081D01*
Y102770D01*
X64203D01*
Y102892D01*
X64324D01*
Y103014D01*
X64568D01*
Y103135D01*
X64811D01*
Y103257D01*
X65419D01*
Y103378D01*
X67000D01*
Y103257D01*
D02*
G37*
G36*
X32840Y106050D02*
X34015D01*
Y105815D01*
X34955D01*
Y105580D01*
X35895D01*
Y105345D01*
X36835D01*
Y105110D01*
X37775D01*
Y104875D01*
X38715D01*
Y104640D01*
X39655D01*
Y104405D01*
X40595D01*
Y104170D01*
X41535D01*
Y103935D01*
X42475D01*
Y103700D01*
X43415D01*
Y103465D01*
X44355D01*
Y103230D01*
X45530D01*
Y102995D01*
X46470D01*
Y102760D01*
X47410D01*
Y102525D01*
X48350D01*
Y102290D01*
X49290D01*
Y102055D01*
X50230D01*
Y101820D01*
X50700D01*
Y95945D01*
X50465D01*
Y96180D01*
X49525D01*
Y96415D01*
X48585D01*
Y96650D01*
X47645D01*
Y96885D01*
X46705D01*
Y97120D01*
X45765D01*
Y94770D01*
X45530D01*
Y95005D01*
X44590D01*
Y95240D01*
X43650D01*
Y95475D01*
X42710D01*
Y95710D01*
X42240D01*
Y97355D01*
Y97590D01*
Y98060D01*
X42005D01*
Y98295D01*
X41065D01*
Y98530D01*
X40125D01*
Y98765D01*
X39185D01*
Y99000D01*
X38245D01*
Y99235D01*
X37305D01*
Y99470D01*
X36365D01*
Y99705D01*
X35190D01*
Y99940D01*
X34015D01*
Y99705D01*
X33780D01*
Y99470D01*
X33545D01*
Y97825D01*
X33075D01*
Y98060D01*
X32135D01*
Y98295D01*
X31195D01*
Y98530D01*
X30255D01*
Y98765D01*
X30020D01*
Y104405D01*
X30255D01*
Y105110D01*
X30490D01*
Y105580D01*
X30725D01*
Y105815D01*
X30960D01*
Y106050D01*
X31665D01*
Y106285D01*
X32840D01*
Y106050D01*
D02*
G37*
G36*
X67122Y94986D02*
X67730D01*
Y94865D01*
X67973D01*
Y94743D01*
X68216D01*
Y94622D01*
X68338D01*
Y94500D01*
X68581D01*
Y94257D01*
X68703D01*
Y94135D01*
X68824D01*
Y93892D01*
X68946D01*
Y93770D01*
Y93649D01*
X69068D01*
Y93041D01*
X69189D01*
Y87932D01*
X68338D01*
Y92919D01*
X68216D01*
Y93405D01*
X68095D01*
Y93527D01*
X67973D01*
Y93770D01*
X67851D01*
Y93892D01*
X67608D01*
Y94014D01*
X67365D01*
Y94135D01*
X66757D01*
Y88054D01*
X65905D01*
Y94135D01*
X65297D01*
Y94014D01*
X65054D01*
Y93892D01*
X64811D01*
Y93770D01*
X64689D01*
Y93527D01*
X64568D01*
Y93284D01*
X64446D01*
Y92919D01*
X64324D01*
Y87932D01*
X63473D01*
Y93041D01*
X63595D01*
Y93649D01*
X63716D01*
Y93892D01*
X63838D01*
Y94135D01*
X63959D01*
Y94257D01*
X64081D01*
Y94378D01*
X64203D01*
Y94500D01*
X64324D01*
Y94622D01*
X64446D01*
Y94743D01*
X64689D01*
Y94865D01*
X64932D01*
Y94986D01*
X65540D01*
Y95108D01*
X67122D01*
Y94986D01*
D02*
G37*
G36*
X30490Y96415D02*
X31195D01*
Y96180D01*
X32135D01*
Y95945D01*
X33075D01*
Y95710D01*
X34250D01*
Y95475D01*
X35190D01*
Y95240D01*
X36130D01*
Y95005D01*
X37070D01*
Y94770D01*
X38010D01*
Y94535D01*
X38950D01*
Y94300D01*
X39890D01*
Y94065D01*
X40830D01*
Y93830D01*
X41770D01*
Y93595D01*
X42710D01*
Y93360D01*
X43650D01*
Y93125D01*
X44590D01*
Y92890D01*
X45530D01*
Y92655D01*
X45765D01*
Y87015D01*
X44825D01*
Y87250D01*
X43885D01*
Y87485D01*
X42945D01*
Y87720D01*
X42005D01*
Y87955D01*
X41065D01*
Y88190D01*
X40125D01*
Y88425D01*
X39185D01*
Y88660D01*
X38245D01*
Y88895D01*
X37305D01*
Y89130D01*
X36365D01*
Y89365D01*
X35425D01*
Y89600D01*
X34485D01*
Y89835D01*
X33545D01*
Y90070D01*
X32605D01*
Y90305D01*
X31665D01*
Y90540D01*
X30725D01*
Y90775D01*
X30020D01*
Y96415D01*
X30255D01*
Y96650D01*
X30490D01*
Y96415D01*
D02*
G37*
G36*
X104824Y87568D02*
X104946D01*
Y87446D01*
X105068D01*
Y86838D01*
X104946D01*
Y86716D01*
X104824D01*
Y86595D01*
X104581D01*
Y86473D01*
X98378D01*
Y86595D01*
X98135D01*
Y86716D01*
X98014D01*
Y86959D01*
X97892D01*
Y87324D01*
X98014D01*
Y87568D01*
X98257D01*
Y87689D01*
X104824D01*
Y87568D01*
D02*
G37*
G36*
X69189Y81000D02*
X69068D01*
Y80514D01*
X68946D01*
Y80270D01*
X68824D01*
Y80149D01*
X68703D01*
Y79905D01*
X68581D01*
Y79784D01*
X68338D01*
Y79662D01*
X68095D01*
Y79540D01*
X66757D01*
Y79662D01*
X66514D01*
Y79784D01*
X66392D01*
Y79905D01*
X66270D01*
Y80027D01*
X66149D01*
Y80270D01*
X66027D01*
Y80514D01*
X65784D01*
Y80270D01*
X65662D01*
Y80149D01*
X65540D01*
Y79905D01*
X65297D01*
Y79784D01*
X65054D01*
Y79662D01*
X63473D01*
Y80514D01*
X64689D01*
Y80635D01*
X65054D01*
Y80757D01*
X65176D01*
Y80878D01*
X65297D01*
Y81000D01*
X65419D01*
Y81365D01*
X65540D01*
Y85622D01*
X63473D01*
Y86595D01*
X69189D01*
Y81000D01*
D02*
G37*
G36*
X33310Y87250D02*
X34250D01*
Y87015D01*
X35425D01*
Y86780D01*
X36365D01*
Y86545D01*
X37305D01*
Y86310D01*
X38245D01*
Y86075D01*
X39185D01*
Y85840D01*
X40125D01*
Y85605D01*
X41065D01*
Y85370D01*
X42005D01*
Y85135D01*
X42945D01*
Y84900D01*
X43885D01*
Y84665D01*
X44825D01*
Y84430D01*
X45765D01*
Y81375D01*
Y81140D01*
Y78555D01*
X45060D01*
Y78790D01*
X44120D01*
Y79025D01*
X43180D01*
Y79260D01*
X42240D01*
Y79495D01*
X41300D01*
Y79730D01*
X40360D01*
Y79965D01*
X39420D01*
Y80200D01*
X38480D01*
Y80435D01*
X37540D01*
Y80670D01*
X36600D01*
Y80905D01*
X35660D01*
Y81140D01*
X34015D01*
Y80905D01*
X33780D01*
Y80435D01*
X33545D01*
Y79260D01*
X33780D01*
Y78790D01*
X34015D01*
Y78555D01*
X34250D01*
Y78320D01*
X34485D01*
Y78085D01*
X34955D01*
Y77850D01*
X35660D01*
Y77615D01*
X36600D01*
Y77380D01*
X37540D01*
Y77145D01*
X38480D01*
Y76910D01*
X39420D01*
Y76675D01*
X40360D01*
Y76440D01*
X41300D01*
Y76205D01*
X42240D01*
Y75970D01*
X43180D01*
Y75735D01*
X44120D01*
Y75500D01*
X45295D01*
Y75265D01*
X45765D01*
Y69390D01*
X45530D01*
Y69625D01*
X44590D01*
Y69860D01*
X43415D01*
Y70095D01*
X42475D01*
Y70330D01*
X41535D01*
Y70565D01*
X40595D01*
Y70800D01*
X39655D01*
Y71035D01*
X38715D01*
Y71270D01*
X37775D01*
Y71505D01*
X36835D01*
Y71740D01*
X35895D01*
Y71975D01*
X34955D01*
Y72210D01*
X34015D01*
Y72445D01*
X33075D01*
Y72680D01*
X32135D01*
Y72915D01*
X31195D01*
Y73150D01*
X30255D01*
Y73385D01*
X30020D01*
Y79025D01*
X30725D01*
Y78790D01*
X31665D01*
Y79025D01*
X31430D01*
Y79260D01*
X31195D01*
Y79495D01*
X30960D01*
Y79730D01*
X30725D01*
Y80200D01*
X30490D01*
Y80670D01*
X30255D01*
Y81140D01*
X30020D01*
Y81845D01*
X29785D01*
Y85370D01*
X30020D01*
Y85840D01*
X30255D01*
Y86310D01*
X30490D01*
Y86780D01*
X30725D01*
Y87015D01*
X31195D01*
Y87250D01*
X31900D01*
Y87485D01*
X33310D01*
Y87250D01*
D02*
G37*
G36*
X97040Y76865D02*
X97527D01*
Y76743D01*
X97892D01*
Y76622D01*
X98257D01*
Y76500D01*
X98622D01*
Y76378D01*
X98987D01*
Y76257D01*
X99351D01*
Y76135D01*
X99716D01*
Y76013D01*
X100081D01*
Y75892D01*
X100446D01*
Y75770D01*
X100811D01*
Y75649D01*
X101176D01*
Y75527D01*
X101541D01*
Y75405D01*
X102027D01*
Y75284D01*
X102392D01*
Y75162D01*
X102757D01*
Y75041D01*
X103000D01*
Y74919D01*
X103122D01*
Y74797D01*
X103243D01*
Y74189D01*
X103122D01*
Y74068D01*
X103000D01*
Y73946D01*
X102270D01*
Y74068D01*
X101784D01*
Y74189D01*
X101419D01*
Y74311D01*
X101054D01*
Y74432D01*
X100689D01*
Y74554D01*
X100324D01*
Y74676D01*
X99959D01*
Y74797D01*
X99595D01*
Y74919D01*
X99230D01*
Y75041D01*
X98865D01*
Y75162D01*
X98500D01*
Y75284D01*
X98135D01*
Y75405D01*
X97770D01*
Y75527D01*
X97284D01*
Y75649D01*
X96919D01*
Y75770D01*
X96676D01*
Y75892D01*
X96554D01*
Y76013D01*
X96432D01*
Y76257D01*
X96311D01*
Y76378D01*
X96432D01*
Y76743D01*
X96554D01*
Y76865D01*
X96919D01*
Y76986D01*
X97040D01*
Y76865D01*
D02*
G37*
G36*
X69189Y77351D02*
X65419D01*
Y77230D01*
X65054D01*
Y77108D01*
X64811D01*
Y76986D01*
X64689D01*
Y76865D01*
X64568D01*
Y76622D01*
X64446D01*
Y76013D01*
X64324D01*
Y75649D01*
Y75527D01*
Y71757D01*
X63473D01*
Y76257D01*
X63595D01*
Y76865D01*
X63716D01*
Y77230D01*
X63838D01*
Y77351D01*
X63959D01*
Y77595D01*
X64081D01*
Y77716D01*
X64203D01*
Y77838D01*
X64446D01*
Y77960D01*
X64689D01*
Y78081D01*
X65054D01*
Y78203D01*
X69189D01*
Y77351D01*
D02*
G37*
G36*
X67122Y71149D02*
X67608D01*
Y71027D01*
X67851D01*
Y70905D01*
X68095D01*
Y70784D01*
X68216D01*
Y70662D01*
X68338D01*
Y70540D01*
X68459D01*
Y70419D01*
X68581D01*
Y70297D01*
X68703D01*
Y70054D01*
X68824D01*
Y69811D01*
X68946D01*
Y69446D01*
X69068D01*
Y68959D01*
X69189D01*
Y65676D01*
X69068D01*
Y65189D01*
X68946D01*
Y64824D01*
X68824D01*
Y64581D01*
X68703D01*
Y64338D01*
X68581D01*
Y64216D01*
X68459D01*
Y64095D01*
X68338D01*
Y63973D01*
X68216D01*
Y63851D01*
X68095D01*
Y63730D01*
X67851D01*
Y63608D01*
X67608D01*
Y63486D01*
X67122D01*
Y63365D01*
X65540D01*
Y63486D01*
X65054D01*
Y63608D01*
X64811D01*
Y63730D01*
X64568D01*
Y63851D01*
X64446D01*
Y63973D01*
X64324D01*
Y64095D01*
X64203D01*
Y64216D01*
X64081D01*
Y64338D01*
X63959D01*
Y64581D01*
X63838D01*
Y64824D01*
X63716D01*
Y65189D01*
X63595D01*
Y65676D01*
X63473D01*
Y68959D01*
X63595D01*
Y69568D01*
X63716D01*
Y69811D01*
X63838D01*
Y70054D01*
X63959D01*
Y70297D01*
X64081D01*
Y70419D01*
X64203D01*
Y70540D01*
X64324D01*
Y70662D01*
X64446D01*
Y70784D01*
X64568D01*
Y70905D01*
X64811D01*
Y71027D01*
X65054D01*
Y71149D01*
X65540D01*
Y71270D01*
X67122D01*
Y71149D01*
D02*
G37*
G36*
X92541Y67014D02*
X92662D01*
Y66892D01*
X92784D01*
Y66770D01*
X93027D01*
Y66649D01*
X93149D01*
Y66527D01*
X93270D01*
Y66405D01*
X93514D01*
Y66284D01*
X93635D01*
Y66162D01*
X93878D01*
Y66040D01*
X94000D01*
Y65919D01*
X94122D01*
Y65797D01*
X94365D01*
Y65676D01*
X94486D01*
Y65554D01*
X94608D01*
Y65432D01*
X94851D01*
Y65311D01*
X94973D01*
Y65189D01*
X95216D01*
Y65068D01*
X95338D01*
Y64946D01*
X95460D01*
Y64824D01*
X95703D01*
Y64703D01*
X95824D01*
Y64581D01*
X95946D01*
Y64460D01*
X96189D01*
Y64338D01*
X96311D01*
Y64216D01*
X96554D01*
Y64095D01*
X96676D01*
Y63973D01*
X96797D01*
Y63851D01*
X97040D01*
Y63730D01*
X97162D01*
Y63608D01*
X97405D01*
Y63486D01*
X97527D01*
Y63122D01*
X97649D01*
Y63000D01*
X97527D01*
Y62635D01*
X97405D01*
Y62514D01*
X97040D01*
Y62392D01*
X96919D01*
Y62514D01*
X96554D01*
Y62635D01*
X96432D01*
Y62757D01*
X96311D01*
Y62878D01*
X96189D01*
Y63000D01*
X95946D01*
Y63122D01*
X95824D01*
Y63243D01*
X95581D01*
Y63365D01*
X95460D01*
Y63486D01*
X95338D01*
Y63608D01*
X95095D01*
Y63730D01*
X94973D01*
Y63851D01*
X94730D01*
Y63973D01*
X94608D01*
Y64095D01*
X94486D01*
Y64216D01*
X94243D01*
Y64338D01*
X94122D01*
Y64460D01*
X94000D01*
Y64581D01*
X93757D01*
Y64703D01*
X93635D01*
Y64824D01*
X93392D01*
Y64946D01*
X93270D01*
Y65068D01*
X93149D01*
Y65189D01*
X92905D01*
Y65311D01*
X92784D01*
Y65432D01*
X92662D01*
Y65554D01*
X92419D01*
Y65676D01*
X92297D01*
Y65797D01*
X92054D01*
Y65919D01*
X91932D01*
Y66040D01*
X91811D01*
Y66162D01*
X91689D01*
Y66284D01*
X91568D01*
Y66770D01*
X91689D01*
Y67014D01*
X91811D01*
Y67135D01*
X92541D01*
Y67014D01*
D02*
G37*
G36*
X31195Y70095D02*
X32135D01*
Y69860D01*
X33075D01*
Y69625D01*
X34015D01*
Y69390D01*
X34955D01*
Y69155D01*
X35895D01*
Y68920D01*
X36835D01*
Y68685D01*
X37775D01*
Y68450D01*
X38715D01*
Y68215D01*
X39655D01*
Y67980D01*
X40595D01*
Y67745D01*
X41535D01*
Y67510D01*
X42475D01*
Y67275D01*
X43415D01*
Y67040D01*
X44355D01*
Y66805D01*
X45530D01*
Y66570D01*
X45765D01*
Y60695D01*
X45530D01*
Y60930D01*
X44590D01*
Y61165D01*
X44120D01*
Y60930D01*
X44355D01*
Y60695D01*
X44590D01*
Y60460D01*
X44825D01*
Y60225D01*
X45060D01*
Y59990D01*
X45295D01*
Y59520D01*
X45530D01*
Y59050D01*
X45765D01*
Y58580D01*
X46000D01*
Y57875D01*
X46235D01*
Y54350D01*
X46000D01*
Y53645D01*
X45765D01*
Y53410D01*
X45530D01*
Y53175D01*
X45295D01*
Y52940D01*
X45060D01*
Y52705D01*
X44825D01*
Y52470D01*
X44120D01*
Y52000D01*
X44355D01*
Y51765D01*
X44590D01*
Y51530D01*
X44825D01*
Y51295D01*
X45060D01*
Y51060D01*
X45295D01*
Y50590D01*
X45530D01*
Y50120D01*
X45765D01*
Y49650D01*
X46000D01*
Y48710D01*
X46235D01*
Y45420D01*
X46000D01*
Y44715D01*
X45765D01*
Y44245D01*
X45530D01*
Y44010D01*
X45295D01*
Y43775D01*
X45060D01*
Y43540D01*
X44590D01*
Y43305D01*
X42240D01*
Y43540D01*
X41300D01*
Y43775D01*
X40360D01*
Y44010D01*
X39420D01*
Y44245D01*
X38480D01*
Y44480D01*
X37540D01*
Y44715D01*
X36600D01*
Y44950D01*
X35660D01*
Y45185D01*
X34720D01*
Y45420D01*
X33780D01*
Y45655D01*
X32840D01*
Y45890D01*
X32135D01*
Y46125D01*
X31900D01*
Y46360D01*
X31430D01*
Y46595D01*
X31195D01*
Y47065D01*
X30960D01*
Y47300D01*
X30725D01*
Y47770D01*
X30490D01*
Y48240D01*
X30255D01*
Y49180D01*
X30020D01*
Y52000D01*
X30255D01*
Y52235D01*
X30490D01*
Y52000D01*
X31430D01*
Y51765D01*
X32370D01*
Y51530D01*
X33310D01*
Y51295D01*
X34485D01*
Y51060D01*
X35425D01*
Y50825D01*
X36365D01*
Y50590D01*
X37305D01*
Y50355D01*
X38245D01*
Y50120D01*
X39185D01*
Y49885D01*
X40125D01*
Y49650D01*
X42005D01*
Y49885D01*
X42240D01*
Y50590D01*
X42475D01*
Y51060D01*
X42240D01*
Y52000D01*
X42005D01*
Y52235D01*
X41770D01*
Y52470D01*
X41535D01*
Y52705D01*
X41065D01*
Y52940D01*
X40360D01*
Y53175D01*
X39420D01*
Y53410D01*
X38480D01*
Y53645D01*
X37540D01*
Y53880D01*
X36600D01*
Y54115D01*
X35660D01*
Y54350D01*
X34720D01*
Y54585D01*
X33545D01*
Y54820D01*
X32605D01*
Y55055D01*
X31665D01*
Y55290D01*
X30725D01*
Y55525D01*
X30255D01*
Y55760D01*
X30020D01*
Y61165D01*
X30255D01*
Y61400D01*
X30490D01*
Y61165D01*
X31430D01*
Y60930D01*
X32370D01*
Y60695D01*
X33310D01*
Y60460D01*
X34250D01*
Y60225D01*
X35190D01*
Y59990D01*
X36130D01*
Y59755D01*
X37070D01*
Y59520D01*
X38010D01*
Y59285D01*
X38950D01*
Y59050D01*
X40125D01*
Y58815D01*
X41065D01*
Y58580D01*
X41535D01*
Y58815D01*
X42005D01*
Y59050D01*
X42240D01*
Y59755D01*
X42475D01*
Y60225D01*
X42240D01*
Y60930D01*
X42005D01*
Y61400D01*
X41770D01*
Y61635D01*
X41300D01*
Y61870D01*
X40830D01*
Y62105D01*
X39890D01*
Y62340D01*
X38950D01*
Y62575D01*
X38010D01*
Y62810D01*
X37070D01*
Y63045D01*
X36130D01*
Y63280D01*
X35190D01*
Y63515D01*
X34250D01*
Y63750D01*
X33310D01*
Y63985D01*
X32370D01*
Y64220D01*
X31430D01*
Y64455D01*
X30490D01*
Y64690D01*
X30020D01*
Y70330D01*
X31195D01*
Y70095D01*
D02*
G37*
G36*
X67122Y62270D02*
X67608D01*
Y62149D01*
X67851D01*
Y62027D01*
X68095D01*
Y61905D01*
X68216D01*
Y61784D01*
X68338D01*
Y61662D01*
X68459D01*
Y61541D01*
X68581D01*
Y61419D01*
X68703D01*
Y61176D01*
X68824D01*
Y60932D01*
X68946D01*
Y60568D01*
X69068D01*
Y60081D01*
X69189D01*
Y56797D01*
X69068D01*
Y56311D01*
X68946D01*
Y55946D01*
X68824D01*
Y55703D01*
X68703D01*
Y55459D01*
X68581D01*
Y55338D01*
X68459D01*
Y55216D01*
X68338D01*
Y55095D01*
X68216D01*
Y54973D01*
X68095D01*
Y54851D01*
X67851D01*
Y54730D01*
X67608D01*
Y54608D01*
X67122D01*
Y54487D01*
X65540D01*
Y54608D01*
X65054D01*
Y54730D01*
X64811D01*
Y54851D01*
X64568D01*
Y54973D01*
X64446D01*
Y55095D01*
X64324D01*
Y55216D01*
X64203D01*
Y55338D01*
X64081D01*
Y55459D01*
X63959D01*
Y55703D01*
X63838D01*
Y55946D01*
X63716D01*
Y56311D01*
X63595D01*
Y56797D01*
X63473D01*
Y60081D01*
X63595D01*
Y60689D01*
X63716D01*
Y60932D01*
X63838D01*
Y61176D01*
X63959D01*
Y61419D01*
X64081D01*
Y61541D01*
X64203D01*
Y61662D01*
X64324D01*
Y61784D01*
X64446D01*
Y61905D01*
X64568D01*
Y62027D01*
X64811D01*
Y62149D01*
X65054D01*
Y62270D01*
X65540D01*
Y62392D01*
X67122D01*
Y62270D01*
D02*
G37*
G36*
X71987Y120649D02*
X72473D01*
Y120527D01*
X72838D01*
Y120405D01*
X73203D01*
Y120284D01*
X73568D01*
Y120162D01*
X73811D01*
Y120041D01*
X74176D01*
Y119919D01*
X74541D01*
Y119797D01*
X74784D01*
Y119676D01*
X75149D01*
Y119554D01*
X75392D01*
Y119432D01*
X75757D01*
Y119311D01*
X76000D01*
Y119189D01*
X76243D01*
Y119068D01*
X76486D01*
Y118946D01*
X76730D01*
Y118824D01*
X77095D01*
Y118703D01*
X77338D01*
Y118581D01*
X77581D01*
Y118459D01*
X77824D01*
Y118338D01*
X78068D01*
Y118216D01*
X78189D01*
Y118095D01*
X78432D01*
Y117973D01*
X78676D01*
Y117851D01*
X78919D01*
Y117730D01*
X79162D01*
Y117608D01*
X79405D01*
Y117487D01*
X79527D01*
Y117365D01*
X79770D01*
Y117243D01*
X80014D01*
Y117122D01*
X80135D01*
Y117000D01*
X80378D01*
Y116878D01*
X80500D01*
Y116757D01*
X80743D01*
Y116635D01*
X80986D01*
Y116514D01*
X81108D01*
Y116392D01*
X81351D01*
Y116270D01*
X81473D01*
Y116149D01*
X81716D01*
Y116027D01*
X81838D01*
Y115905D01*
X81959D01*
Y115784D01*
X82203D01*
Y115662D01*
X82324D01*
Y115541D01*
X82568D01*
Y115419D01*
X82689D01*
Y115297D01*
X82811D01*
Y115176D01*
X83054D01*
Y115054D01*
X83176D01*
Y114932D01*
X83297D01*
Y114811D01*
X83540D01*
Y114689D01*
X83662D01*
Y114568D01*
X83784D01*
Y114446D01*
X83905D01*
Y114324D01*
X84149D01*
Y114203D01*
X84270D01*
Y114081D01*
X84392D01*
Y113960D01*
X84513D01*
Y113838D01*
X84635D01*
Y113716D01*
X84757D01*
Y113595D01*
X85000D01*
Y113473D01*
X85122D01*
Y113351D01*
X85243D01*
Y113230D01*
X85365D01*
Y113108D01*
X85487D01*
Y112987D01*
X85608D01*
Y112865D01*
X85730D01*
Y112743D01*
X85851D01*
Y112622D01*
X85973D01*
Y112500D01*
X86095D01*
Y112378D01*
X86216D01*
Y112257D01*
X86338D01*
Y112135D01*
X86459D01*
Y112013D01*
X86581D01*
Y111892D01*
X86703D01*
Y111770D01*
X86824D01*
Y111649D01*
X86946D01*
Y111527D01*
X87068D01*
Y111405D01*
X87189D01*
Y111284D01*
X87311D01*
Y111162D01*
X87432D01*
Y111040D01*
X87554D01*
Y110919D01*
X87676D01*
Y110797D01*
X87797D01*
Y110676D01*
X87919D01*
Y110554D01*
X88041D01*
Y110432D01*
X88162D01*
Y110311D01*
X88284D01*
Y110189D01*
X88405D01*
Y109946D01*
X88527D01*
Y109824D01*
X88649D01*
Y109703D01*
X88770D01*
Y109581D01*
X88892D01*
Y109459D01*
X89013D01*
Y109216D01*
X89135D01*
Y109095D01*
X89257D01*
Y108973D01*
X89378D01*
Y108851D01*
X89500D01*
Y108608D01*
X89622D01*
Y108486D01*
X89743D01*
Y108365D01*
X89865D01*
Y108122D01*
X89986D01*
Y108000D01*
X90108D01*
Y107878D01*
X90230D01*
Y107635D01*
X90351D01*
Y107513D01*
X90473D01*
Y107392D01*
X90595D01*
Y107149D01*
X90716D01*
Y107027D01*
X90838D01*
Y106784D01*
X90960D01*
Y106662D01*
X91081D01*
Y106419D01*
X91203D01*
Y106297D01*
X91324D01*
Y106054D01*
X91446D01*
Y105932D01*
X91568D01*
Y105689D01*
X91689D01*
Y105568D01*
X91811D01*
Y105324D01*
X91932D01*
Y105081D01*
X92054D01*
Y104959D01*
X92176D01*
Y104716D01*
X92297D01*
Y104473D01*
X92419D01*
Y104230D01*
X92541D01*
Y104108D01*
X92662D01*
Y103865D01*
X92784D01*
Y103622D01*
X92905D01*
Y103378D01*
X93027D01*
Y103135D01*
X93149D01*
Y102892D01*
X93270D01*
Y102649D01*
X93392D01*
Y102405D01*
X93514D01*
Y102162D01*
X93635D01*
Y101919D01*
X93757D01*
Y101676D01*
X93878D01*
Y101311D01*
X94000D01*
Y101068D01*
X94122D01*
Y100824D01*
X94243D01*
Y100460D01*
X94365D01*
Y100216D01*
X94486D01*
Y99851D01*
X94608D01*
Y99608D01*
X94730D01*
Y99243D01*
X94851D01*
Y98878D01*
X94973D01*
Y98635D01*
X95095D01*
Y98270D01*
X95216D01*
Y97905D01*
X95338D01*
Y97419D01*
X95460D01*
Y97054D01*
X95581D01*
Y96689D01*
X95703D01*
Y96203D01*
X95824D01*
Y95716D01*
X95946D01*
Y95230D01*
X96068D01*
Y94743D01*
X96189D01*
Y94135D01*
X96311D01*
Y93527D01*
X96432D01*
Y92797D01*
X96554D01*
Y92068D01*
X96676D01*
Y91095D01*
X96797D01*
Y89878D01*
X96919D01*
Y84284D01*
X96797D01*
Y83068D01*
X96676D01*
Y82095D01*
X96554D01*
Y81365D01*
X96432D01*
Y80635D01*
X96311D01*
Y80027D01*
X96189D01*
Y79419D01*
X96068D01*
Y78932D01*
X95946D01*
Y78446D01*
X95824D01*
Y77960D01*
X95703D01*
Y77473D01*
X95581D01*
Y77108D01*
X95460D01*
Y76743D01*
X95338D01*
Y76257D01*
X95216D01*
Y75892D01*
X95095D01*
Y75527D01*
X94973D01*
Y75284D01*
X94851D01*
Y74919D01*
X94730D01*
Y74554D01*
X94608D01*
Y74311D01*
X94486D01*
Y73946D01*
X94365D01*
Y73703D01*
X94243D01*
Y73338D01*
X94122D01*
Y73095D01*
X94000D01*
Y72851D01*
X93878D01*
Y72487D01*
X93757D01*
Y72243D01*
X93635D01*
Y72000D01*
X93514D01*
Y71757D01*
X93392D01*
Y71513D01*
X93270D01*
Y71270D01*
X93149D01*
Y71027D01*
X93027D01*
Y70784D01*
X92905D01*
Y70540D01*
X92784D01*
Y70297D01*
X92662D01*
Y70054D01*
X92541D01*
Y69932D01*
X92419D01*
Y69689D01*
X92297D01*
Y69446D01*
X92176D01*
Y69203D01*
X92054D01*
Y69081D01*
X91932D01*
Y68838D01*
X91811D01*
Y68595D01*
X91689D01*
Y68473D01*
X91568D01*
Y68230D01*
X91446D01*
Y68108D01*
X91324D01*
Y67865D01*
X91203D01*
Y67743D01*
X91081D01*
Y67500D01*
X90960D01*
Y67378D01*
X90838D01*
Y67135D01*
X90716D01*
Y67014D01*
X90595D01*
Y66770D01*
X90473D01*
Y66649D01*
X90351D01*
Y66527D01*
X90230D01*
Y66284D01*
X90108D01*
Y66162D01*
X89986D01*
Y66040D01*
X89865D01*
Y65797D01*
X89743D01*
Y65676D01*
X89622D01*
Y65554D01*
X89500D01*
Y65311D01*
X89378D01*
Y65189D01*
X89257D01*
Y65068D01*
X89135D01*
Y64946D01*
X89013D01*
Y64703D01*
X88892D01*
Y64581D01*
X88770D01*
Y64460D01*
X88649D01*
Y64338D01*
X88527D01*
Y64216D01*
X88405D01*
Y63973D01*
X88284D01*
Y63851D01*
X88162D01*
Y63730D01*
X88041D01*
Y63608D01*
X87919D01*
Y63486D01*
X87797D01*
Y63365D01*
X87676D01*
Y63243D01*
X87554D01*
Y63122D01*
X87432D01*
Y63000D01*
X87311D01*
Y62878D01*
X87189D01*
Y62757D01*
X87068D01*
Y62635D01*
X86946D01*
Y62514D01*
X86824D01*
Y62392D01*
X86703D01*
Y62270D01*
X86581D01*
Y62149D01*
X86459D01*
Y62027D01*
X86338D01*
Y61905D01*
X86216D01*
Y61784D01*
X86095D01*
Y61662D01*
X85973D01*
Y61541D01*
X85851D01*
Y61419D01*
X85730D01*
Y61297D01*
X85608D01*
Y61176D01*
X85487D01*
Y61054D01*
X85365D01*
Y60932D01*
X85243D01*
Y60811D01*
X85122D01*
Y60689D01*
X85000D01*
Y60568D01*
X84757D01*
Y60446D01*
X84635D01*
Y60324D01*
X84513D01*
Y60203D01*
X84392D01*
Y60081D01*
X84270D01*
Y59960D01*
X84149D01*
Y59838D01*
X83905D01*
Y59716D01*
X83784D01*
Y59595D01*
X83662D01*
Y59473D01*
X83540D01*
Y59351D01*
X83297D01*
Y59230D01*
X83176D01*
Y59108D01*
X83054D01*
Y58987D01*
X82811D01*
Y58865D01*
X82689D01*
Y58743D01*
X82568D01*
Y58622D01*
X82324D01*
Y58500D01*
X82203D01*
Y58378D01*
X81959D01*
Y58257D01*
X81838D01*
Y58135D01*
X81716D01*
Y58013D01*
X81473D01*
Y57892D01*
X81351D01*
Y57770D01*
X81108D01*
Y57649D01*
X80986D01*
Y57527D01*
X80743D01*
Y57405D01*
X80500D01*
Y57284D01*
X80378D01*
Y57162D01*
X80135D01*
Y57041D01*
X80014D01*
Y56919D01*
X79770D01*
Y56797D01*
X79527D01*
Y56676D01*
X79284D01*
Y56554D01*
X79162D01*
Y56432D01*
X78919D01*
Y56311D01*
X78676D01*
Y56189D01*
X78432D01*
Y56068D01*
X78189D01*
Y55946D01*
X78068D01*
Y55824D01*
X77824D01*
Y55703D01*
X77581D01*
Y55581D01*
X77338D01*
Y55459D01*
X77095D01*
Y55338D01*
X76730D01*
Y55216D01*
X76486D01*
Y55095D01*
X76243D01*
Y54973D01*
X76000D01*
Y54851D01*
X75757D01*
Y54730D01*
X75392D01*
Y54608D01*
X75149D01*
Y54487D01*
X74784D01*
Y54365D01*
X74541D01*
Y54243D01*
X74176D01*
Y54122D01*
X73811D01*
Y54000D01*
X73568D01*
Y53878D01*
X73203D01*
Y53757D01*
X72838D01*
Y53635D01*
X72473D01*
Y53513D01*
X71987D01*
Y53392D01*
X71500D01*
Y120770D01*
X71987D01*
Y120649D01*
D02*
G37*
G36*
X84878Y59230D02*
X85000D01*
Y59108D01*
X85122D01*
Y58987D01*
X85243D01*
Y58743D01*
X85365D01*
Y58622D01*
X85487D01*
Y58378D01*
X85608D01*
Y58257D01*
X85730D01*
Y58135D01*
X85851D01*
Y57892D01*
X85973D01*
Y57770D01*
X86095D01*
Y57649D01*
X86216D01*
Y57405D01*
X86338D01*
Y57284D01*
X86459D01*
Y57041D01*
X86581D01*
Y56919D01*
X86703D01*
Y56797D01*
X86824D01*
Y56554D01*
X86946D01*
Y56432D01*
X87068D01*
Y56311D01*
X87189D01*
Y56068D01*
X87311D01*
Y55946D01*
X87432D01*
Y55703D01*
X87554D01*
Y55581D01*
X87676D01*
Y55459D01*
X87797D01*
Y55216D01*
X87919D01*
Y55095D01*
X88041D01*
Y54973D01*
X88162D01*
Y54730D01*
X88284D01*
Y54608D01*
X88405D01*
Y54487D01*
X88527D01*
Y54243D01*
X88649D01*
Y53635D01*
X88527D01*
Y53513D01*
X88405D01*
Y53392D01*
X88162D01*
Y53270D01*
X88041D01*
Y53392D01*
X87676D01*
Y53513D01*
X87554D01*
Y53757D01*
X87432D01*
Y53878D01*
X87311D01*
Y54000D01*
X87189D01*
Y54243D01*
X87068D01*
Y54365D01*
X86946D01*
Y54487D01*
X86824D01*
Y54730D01*
X86703D01*
Y54851D01*
X86581D01*
Y55095D01*
X86459D01*
Y55216D01*
X86338D01*
Y55338D01*
X86216D01*
Y55581D01*
X86095D01*
Y55703D01*
X85973D01*
Y55824D01*
X85851D01*
Y56068D01*
X85730D01*
Y56189D01*
X85608D01*
Y56432D01*
X85487D01*
Y56554D01*
X85365D01*
Y56676D01*
X85243D01*
Y56919D01*
X85122D01*
Y57041D01*
X85000D01*
Y57162D01*
X84878D01*
Y57405D01*
X84757D01*
Y57527D01*
X84635D01*
Y57770D01*
X84513D01*
Y57892D01*
X84392D01*
Y58013D01*
X84270D01*
Y58257D01*
X84149D01*
Y58378D01*
X84027D01*
Y59108D01*
X84149D01*
Y59230D01*
X84270D01*
Y59351D01*
X84878D01*
Y59230D01*
D02*
G37*
G36*
X75149Y53878D02*
X75392D01*
Y53635D01*
X75513D01*
Y53392D01*
X75635D01*
Y53027D01*
X75757D01*
Y52662D01*
X75878D01*
Y52176D01*
X76000D01*
Y51811D01*
X76122D01*
Y51446D01*
X76243D01*
Y51081D01*
X76365D01*
Y50716D01*
X76486D01*
Y50351D01*
X76608D01*
Y49986D01*
X76730D01*
Y49622D01*
X76851D01*
Y49257D01*
X76973D01*
Y48892D01*
X77095D01*
Y48527D01*
X77216D01*
Y48162D01*
X77338D01*
Y47311D01*
X77216D01*
Y47189D01*
X76973D01*
Y47068D01*
X76608D01*
Y47189D01*
X76365D01*
Y47311D01*
X76243D01*
Y47554D01*
X76122D01*
Y48041D01*
X76000D01*
Y48405D01*
X75878D01*
Y48770D01*
X75757D01*
Y49135D01*
X75635D01*
Y49500D01*
X75513D01*
Y49865D01*
X75392D01*
Y50230D01*
X75270D01*
Y50595D01*
X75149D01*
Y50959D01*
X75027D01*
Y51324D01*
X74905D01*
Y51689D01*
X74784D01*
Y52054D01*
X74662D01*
Y52419D01*
X74541D01*
Y52905D01*
X74419D01*
Y53149D01*
X74297D01*
Y53513D01*
X74419D01*
Y53757D01*
X74541D01*
Y53878D01*
X74784D01*
Y54000D01*
X75149D01*
Y53878D01*
D02*
G37*
G36*
X69189Y47797D02*
X69068D01*
Y47311D01*
X68946D01*
Y47068D01*
X68824D01*
Y46824D01*
X68703D01*
Y46703D01*
X68581D01*
Y46581D01*
X68459D01*
Y46459D01*
X68216D01*
Y46338D01*
X67973D01*
Y46216D01*
X66757D01*
Y46338D01*
X66514D01*
Y46459D01*
X66270D01*
Y46581D01*
X66149D01*
Y46703D01*
X66027D01*
Y46824D01*
X65905D01*
Y46946D01*
X65784D01*
Y47189D01*
X65662D01*
Y47432D01*
X65540D01*
Y48284D01*
X65419D01*
Y52297D01*
X63473D01*
Y53270D01*
X69189D01*
Y47797D01*
D02*
G37*
%LPC*%
G36*
X38245Y126260D02*
X37775D01*
Y122970D01*
X38950D01*
Y122735D01*
X43415D01*
Y122500D01*
X46000D01*
Y122735D01*
X45530D01*
Y122970D01*
X44825D01*
Y123205D01*
X44355D01*
Y123440D01*
X43885D01*
Y123675D01*
X43415D01*
Y123910D01*
X42945D01*
Y124145D01*
X42240D01*
Y124380D01*
X41770D01*
Y124615D01*
X41300D01*
Y124850D01*
X40830D01*
Y125085D01*
X40360D01*
Y125320D01*
X39655D01*
Y125555D01*
X39185D01*
Y125790D01*
X38715D01*
Y126025D01*
X38245D01*
Y126260D01*
D02*
G37*
G36*
X68216Y127581D02*
X66757D01*
Y127460D01*
X66635D01*
Y123081D01*
X66757D01*
Y122595D01*
X66878D01*
Y122473D01*
X67000D01*
Y122351D01*
X67243D01*
Y122230D01*
X67608D01*
Y122351D01*
X67973D01*
Y122473D01*
X68095D01*
Y122716D01*
X68216D01*
Y127581D01*
D02*
G37*
G36*
X65784D02*
X65176D01*
Y127460D01*
X64203D01*
Y122716D01*
X64324D01*
Y122473D01*
X64446D01*
Y122351D01*
X64568D01*
Y122230D01*
X64811D01*
Y122108D01*
X65176D01*
Y122230D01*
X65540D01*
Y122351D01*
X65662D01*
Y122473D01*
X65784D01*
Y122838D01*
X65905D01*
Y127460D01*
X65784D01*
Y127581D01*
D02*
G37*
G36*
X65905Y118459D02*
X65662D01*
Y114932D01*
X66027D01*
Y115054D01*
X66270D01*
Y115176D01*
X66514D01*
Y115297D01*
X66757D01*
Y115419D01*
X67000D01*
Y115541D01*
X67243D01*
Y115662D01*
X67487D01*
Y115784D01*
X67730D01*
Y115905D01*
X67851D01*
Y116027D01*
X68095D01*
Y116149D01*
X68216D01*
Y116392D01*
X68338D01*
Y117000D01*
X68216D01*
Y117243D01*
X68095D01*
Y117365D01*
X67851D01*
Y117487D01*
X67608D01*
Y117608D01*
X67365D01*
Y117730D01*
X67122D01*
Y117851D01*
X66878D01*
Y117973D01*
X66635D01*
Y118095D01*
X66392D01*
Y118216D01*
X66149D01*
Y118338D01*
X65905D01*
Y118459D01*
D02*
G37*
G36*
X68216Y110797D02*
X64203D01*
Y106784D01*
X64324D01*
Y106176D01*
X64446D01*
Y105932D01*
X64568D01*
Y105811D01*
X64689D01*
Y105689D01*
X64811D01*
Y105568D01*
X64932D01*
Y105446D01*
X65297D01*
Y105324D01*
X67122D01*
Y105446D01*
X67487D01*
Y105568D01*
X67608D01*
Y105689D01*
X67730D01*
Y105811D01*
X67851D01*
Y105932D01*
X67973D01*
Y106176D01*
X68095D01*
Y106662D01*
X68216D01*
Y110797D01*
D02*
G37*
G36*
X68338Y85622D02*
X66270D01*
Y81243D01*
X66392D01*
Y80878D01*
X66514D01*
Y80757D01*
X66635D01*
Y80635D01*
X66757D01*
Y80514D01*
X67122D01*
Y80392D01*
X67608D01*
Y80514D01*
X67973D01*
Y80635D01*
X68095D01*
Y80757D01*
X68216D01*
Y81000D01*
X68338D01*
Y85622D01*
D02*
G37*
G36*
X67122Y70297D02*
X65540D01*
Y70176D01*
X65176D01*
Y70054D01*
X65054D01*
Y69932D01*
X64811D01*
Y69811D01*
X64689D01*
Y69568D01*
X64568D01*
Y69324D01*
X64446D01*
Y68838D01*
X64324D01*
Y67743D01*
X64203D01*
Y67014D01*
X64324D01*
Y65797D01*
X64446D01*
Y65311D01*
X64568D01*
Y65068D01*
X64689D01*
Y64946D01*
X64811D01*
Y64824D01*
X64932D01*
Y64703D01*
X65054D01*
Y64581D01*
X65176D01*
Y64460D01*
X65540D01*
Y64338D01*
X67122D01*
Y64460D01*
X67487D01*
Y64581D01*
X67608D01*
Y64703D01*
X67851D01*
Y64946D01*
X67973D01*
Y65068D01*
X68095D01*
Y65311D01*
X68216D01*
Y65676D01*
X68338D01*
Y66649D01*
X68459D01*
Y67865D01*
X68338D01*
Y68959D01*
X68216D01*
Y69324D01*
X68095D01*
Y69568D01*
X67973D01*
Y69811D01*
X67851D01*
Y69932D01*
X67608D01*
Y70054D01*
X67487D01*
Y70176D01*
X67122D01*
Y70297D01*
D02*
G37*
G36*
Y61419D02*
X65540D01*
Y61297D01*
X65176D01*
Y61176D01*
X65054D01*
Y61054D01*
X64811D01*
Y60932D01*
X64689D01*
Y60689D01*
X64568D01*
Y60446D01*
X64446D01*
Y59960D01*
X64324D01*
Y58865D01*
X64203D01*
Y58135D01*
X64324D01*
Y56919D01*
X64446D01*
Y56432D01*
X64568D01*
Y56189D01*
X64689D01*
Y56068D01*
X64811D01*
Y55946D01*
X64932D01*
Y55824D01*
X65054D01*
Y55703D01*
X65176D01*
Y55581D01*
X65540D01*
Y55459D01*
X67122D01*
Y55581D01*
X67487D01*
Y55703D01*
X67608D01*
Y55824D01*
X67851D01*
Y56068D01*
X67973D01*
Y56189D01*
X68095D01*
Y56432D01*
X68216D01*
Y56797D01*
X68338D01*
Y57770D01*
X68459D01*
Y58987D01*
X68338D01*
Y60081D01*
X68216D01*
Y60446D01*
X68095D01*
Y60689D01*
X67973D01*
Y60932D01*
X67851D01*
Y61054D01*
X67608D01*
Y61176D01*
X67487D01*
Y61297D01*
X67122D01*
Y61419D01*
D02*
G37*
G36*
X76122Y80878D02*
X76000D01*
Y80757D01*
X76122D01*
Y80635D01*
X76243D01*
Y80514D01*
X76365D01*
Y80392D01*
X76486D01*
Y80270D01*
X76608D01*
Y80149D01*
X76730D01*
Y80027D01*
X76851D01*
Y79905D01*
X76973D01*
Y79784D01*
X77095D01*
Y79662D01*
X77216D01*
Y79419D01*
X77338D01*
Y79297D01*
X77460D01*
Y79176D01*
X77581D01*
Y78932D01*
X77703D01*
Y78811D01*
X77824D01*
Y78689D01*
X77946D01*
Y78446D01*
X78068D01*
Y78324D01*
X78189D01*
Y78081D01*
X78311D01*
Y77838D01*
X78432D01*
Y77716D01*
X78554D01*
Y77473D01*
X78676D01*
Y77230D01*
X78797D01*
Y76986D01*
X78919D01*
Y76743D01*
X79040D01*
Y76500D01*
X79162D01*
Y76257D01*
X79284D01*
Y76013D01*
X79405D01*
Y75770D01*
X79527D01*
Y75405D01*
X79649D01*
Y75162D01*
X79770D01*
Y74797D01*
X79892D01*
Y74432D01*
X80014D01*
Y74068D01*
X80135D01*
Y73703D01*
X80257D01*
Y73338D01*
X80378D01*
Y72851D01*
X80500D01*
Y72365D01*
X80622D01*
Y71878D01*
X80743D01*
Y71392D01*
X80865D01*
Y70784D01*
X80986D01*
Y70176D01*
X81108D01*
Y69446D01*
X81230D01*
Y68716D01*
X81351D01*
Y67865D01*
X81473D01*
Y67135D01*
X81595D01*
Y66162D01*
X81716D01*
Y65189D01*
X81838D01*
Y63851D01*
X81959D01*
Y61176D01*
X82081D01*
Y62757D01*
X82203D01*
Y66405D01*
X82081D01*
Y67987D01*
X81959D01*
Y69081D01*
X81838D01*
Y69932D01*
X81716D01*
Y70784D01*
X81595D01*
Y71392D01*
X81473D01*
Y72000D01*
X81351D01*
Y72608D01*
X81230D01*
Y73095D01*
X81108D01*
Y73581D01*
X80986D01*
Y74068D01*
X80865D01*
Y74432D01*
X80743D01*
Y74797D01*
X80622D01*
Y75162D01*
X80500D01*
Y75405D01*
X80378D01*
Y75770D01*
X80257D01*
Y76013D01*
X80135D01*
Y76257D01*
X80014D01*
Y76500D01*
X79892D01*
Y76743D01*
X79770D01*
Y76986D01*
X79649D01*
Y77108D01*
X79527D01*
Y77351D01*
X79405D01*
Y77473D01*
X79284D01*
Y77716D01*
X79162D01*
Y77838D01*
X79040D01*
Y77960D01*
X78919D01*
Y78203D01*
X78797D01*
Y78324D01*
X78676D01*
Y78446D01*
X78554D01*
Y78568D01*
X78432D01*
Y78689D01*
X78311D01*
Y78811D01*
X78189D01*
Y78932D01*
X78068D01*
Y79054D01*
X77946D01*
Y79176D01*
X77824D01*
Y79297D01*
X77703D01*
Y79419D01*
X77581D01*
Y79540D01*
X77460D01*
Y79662D01*
X77338D01*
Y79784D01*
X77216D01*
Y79905D01*
X77095D01*
Y80027D01*
X76973D01*
Y80149D01*
X76851D01*
Y80270D01*
X76730D01*
Y80392D01*
X76608D01*
Y80514D01*
X76365D01*
Y80635D01*
X76243D01*
Y80757D01*
X76122D01*
Y80878D01*
D02*
G37*
G36*
X79892Y112987D02*
X78432D01*
Y112865D01*
X78068D01*
Y112743D01*
X77824D01*
Y112622D01*
X77703D01*
Y112500D01*
X77460D01*
Y112378D01*
X77338D01*
Y112257D01*
X77216D01*
Y112135D01*
X77095D01*
Y112013D01*
X76973D01*
Y111770D01*
X76851D01*
Y111649D01*
X76730D01*
Y111405D01*
X76608D01*
Y111284D01*
X76486D01*
Y111040D01*
X76365D01*
Y110797D01*
X76243D01*
Y110554D01*
X76122D01*
Y110311D01*
X76000D01*
Y109946D01*
X75878D01*
Y109703D01*
X75757D01*
Y109338D01*
X75635D01*
Y108973D01*
X75513D01*
Y108608D01*
X75392D01*
Y108122D01*
X75270D01*
Y107635D01*
X75149D01*
Y107149D01*
X75027D01*
Y106541D01*
X74905D01*
Y105932D01*
X74784D01*
Y105203D01*
X74662D01*
Y104473D01*
X74541D01*
Y103500D01*
X74419D01*
Y102405D01*
X74297D01*
Y101189D01*
X74176D01*
Y99487D01*
X74054D01*
Y96932D01*
X73932D01*
Y91460D01*
X74054D01*
Y88784D01*
X74176D01*
Y87568D01*
X74297D01*
Y86595D01*
X74419D01*
Y85865D01*
X74541D01*
Y85257D01*
X74662D01*
Y84649D01*
X74784D01*
Y84162D01*
X74905D01*
Y83676D01*
X75027D01*
Y83189D01*
X75149D01*
Y82703D01*
X75270D01*
Y82338D01*
X75392D01*
Y81973D01*
X75513D01*
Y81608D01*
X75635D01*
Y81243D01*
X75757D01*
Y81000D01*
X75878D01*
Y82095D01*
X75757D01*
Y85378D01*
X75635D01*
Y90973D01*
X75757D01*
Y94743D01*
X75878D01*
Y97054D01*
X76000D01*
Y98878D01*
X76122D01*
Y100216D01*
X76243D01*
Y101311D01*
X76365D01*
Y102284D01*
X76486D01*
Y103135D01*
X76608D01*
Y103865D01*
X76730D01*
Y104473D01*
X76851D01*
Y105081D01*
X76973D01*
Y105568D01*
X77095D01*
Y106054D01*
X77216D01*
Y106419D01*
X77338D01*
Y106784D01*
X77460D01*
Y107149D01*
X77581D01*
Y107392D01*
X77703D01*
Y107635D01*
X77824D01*
Y107878D01*
X77946D01*
Y108000D01*
X78068D01*
Y108243D01*
X78189D01*
Y108365D01*
X78311D01*
Y108486D01*
X78432D01*
Y108608D01*
X78554D01*
Y108730D01*
X78676D01*
Y108851D01*
X79040D01*
Y108973D01*
X79892D01*
Y108851D01*
X80135D01*
Y108730D01*
X80257D01*
Y108608D01*
X80500D01*
Y108486D01*
X80622D01*
Y108365D01*
X80743D01*
Y108122D01*
X80865D01*
Y108000D01*
X80986D01*
Y107757D01*
X81108D01*
Y107635D01*
X81230D01*
Y107392D01*
X81351D01*
Y107149D01*
X81473D01*
Y106784D01*
X81595D01*
Y106541D01*
X81716D01*
Y106176D01*
X81838D01*
Y105811D01*
X81959D01*
Y105446D01*
X82081D01*
Y104959D01*
X82203D01*
Y104473D01*
X82324D01*
Y103987D01*
X82446D01*
Y103378D01*
X82568D01*
Y102770D01*
X82689D01*
Y102041D01*
X82811D01*
Y101189D01*
X82932D01*
Y100338D01*
X83054D01*
Y99243D01*
X83176D01*
Y98149D01*
X83297D01*
Y96689D01*
X83419D01*
Y94865D01*
X83540D01*
Y92432D01*
X83662D01*
Y87203D01*
X83784D01*
Y83919D01*
X83662D01*
Y78203D01*
X83540D01*
Y75162D01*
X83419D01*
Y72851D01*
X83297D01*
Y70905D01*
X83176D01*
Y69324D01*
X83054D01*
Y67743D01*
X82932D01*
Y66405D01*
X82811D01*
Y65189D01*
X82689D01*
Y64095D01*
X82568D01*
Y63122D01*
X82446D01*
Y62270D01*
X82324D01*
Y61419D01*
X82203D01*
Y60811D01*
X82324D01*
Y61297D01*
X82446D01*
Y61784D01*
X82568D01*
Y62270D01*
X82689D01*
Y62878D01*
X82811D01*
Y63365D01*
X82932D01*
Y63973D01*
X83054D01*
Y64703D01*
X83176D01*
Y65311D01*
X83297D01*
Y66040D01*
X83419D01*
Y66770D01*
X83540D01*
Y67622D01*
X83662D01*
Y68473D01*
X83784D01*
Y69324D01*
X83905D01*
Y70176D01*
X84027D01*
Y71270D01*
X84149D01*
Y72243D01*
X84270D01*
Y73338D01*
X84392D01*
Y74554D01*
X84513D01*
Y75892D01*
X84635D01*
Y77351D01*
X84757D01*
Y78932D01*
X84878D01*
Y80392D01*
X85000D01*
Y81000D01*
X85122D01*
Y81243D01*
X85243D01*
Y81486D01*
X85365D01*
Y81730D01*
X85487D01*
Y81851D01*
X85608D01*
Y82095D01*
X85730D01*
Y82216D01*
X85851D01*
Y82338D01*
X85973D01*
Y82459D01*
X86095D01*
Y82581D01*
X86216D01*
Y82703D01*
X86338D01*
Y82824D01*
X86459D01*
Y82946D01*
X86703D01*
Y83068D01*
X86946D01*
Y83189D01*
X87068D01*
Y83311D01*
X87189D01*
Y83432D01*
X87311D01*
Y83554D01*
X87432D01*
Y83676D01*
X87554D01*
Y83797D01*
X87676D01*
Y84040D01*
X87797D01*
Y84162D01*
X87919D01*
Y84284D01*
X88041D01*
Y84527D01*
X88162D01*
Y84770D01*
X88284D01*
Y85014D01*
X88405D01*
Y85257D01*
X88527D01*
Y85500D01*
X88649D01*
Y85865D01*
X88770D01*
Y86108D01*
X88892D01*
Y86473D01*
X89013D01*
Y86959D01*
X89135D01*
Y87324D01*
X89257D01*
Y87932D01*
X89378D01*
Y88541D01*
X89500D01*
Y89757D01*
X89622D01*
Y90973D01*
X89500D01*
Y92189D01*
X89378D01*
Y92797D01*
X89257D01*
Y93284D01*
X89135D01*
Y93649D01*
X89013D01*
Y94014D01*
X88892D01*
Y94257D01*
X88770D01*
Y94622D01*
X88649D01*
Y94743D01*
X88527D01*
Y94986D01*
X88405D01*
Y95230D01*
X88284D01*
Y95351D01*
X88162D01*
Y95473D01*
X88041D01*
Y95595D01*
X87919D01*
Y95716D01*
X87797D01*
Y95838D01*
X87676D01*
Y95960D01*
X87554D01*
Y96081D01*
X87311D01*
Y96203D01*
X87068D01*
Y96324D01*
X86703D01*
Y96446D01*
X86581D01*
Y96568D01*
X86338D01*
Y96689D01*
X86216D01*
Y96811D01*
X86095D01*
Y96932D01*
X85851D01*
Y97176D01*
X85730D01*
Y97297D01*
X85608D01*
Y97419D01*
X85487D01*
Y97540D01*
X85365D01*
Y97784D01*
X85243D01*
Y97905D01*
X85122D01*
Y98149D01*
X85000D01*
Y98878D01*
X84878D01*
Y100216D01*
X84757D01*
Y101432D01*
X84635D01*
Y102405D01*
X84513D01*
Y103257D01*
X84392D01*
Y103987D01*
X84270D01*
Y104716D01*
X84149D01*
Y105324D01*
X84027D01*
Y105932D01*
X83905D01*
Y106419D01*
X83784D01*
Y106905D01*
X83662D01*
Y107392D01*
X83540D01*
Y107878D01*
X83419D01*
Y108243D01*
X83297D01*
Y108608D01*
X83176D01*
Y108973D01*
X83054D01*
Y109216D01*
X82932D01*
Y109581D01*
X82811D01*
Y109824D01*
X82689D01*
Y110189D01*
X82568D01*
Y110432D01*
X82446D01*
Y110554D01*
X82324D01*
Y110797D01*
X82203D01*
Y111040D01*
X82081D01*
Y111162D01*
X81959D01*
Y111405D01*
X81838D01*
Y111527D01*
X81716D01*
Y111649D01*
X81595D01*
Y111892D01*
X81473D01*
Y112013D01*
X81351D01*
Y112135D01*
X81230D01*
Y112257D01*
X81108D01*
Y112378D01*
X80865D01*
Y112500D01*
X80743D01*
Y112622D01*
X80500D01*
Y112743D01*
X80257D01*
Y112865D01*
X79892D01*
Y112987D01*
D02*
G37*
G36*
X82203Y60689D02*
X82081D01*
Y60324D01*
X82203D01*
Y60689D01*
D02*
G37*
%LPD*%
G36*
X86459Y95230D02*
X86703D01*
Y95108D01*
X86946D01*
Y94986D01*
X87189D01*
Y94865D01*
X87311D01*
Y94743D01*
X87432D01*
Y94622D01*
X87554D01*
Y94500D01*
X87676D01*
Y94378D01*
X87797D01*
Y94135D01*
X87919D01*
Y94014D01*
X88041D01*
Y93770D01*
X88162D01*
Y93527D01*
X88284D01*
Y93284D01*
X88405D01*
Y92919D01*
X88527D01*
Y92554D01*
X88649D01*
Y91946D01*
X88770D01*
Y90973D01*
X88892D01*
Y89635D01*
X88770D01*
Y88662D01*
X88649D01*
Y87932D01*
X88527D01*
Y87446D01*
X88405D01*
Y86959D01*
X88284D01*
Y86595D01*
X88162D01*
Y86230D01*
X88041D01*
Y85987D01*
X87919D01*
Y85622D01*
X87797D01*
Y85378D01*
X87676D01*
Y85135D01*
X87554D01*
Y84892D01*
X87432D01*
Y84770D01*
X87311D01*
Y84527D01*
X87189D01*
Y84405D01*
X87068D01*
Y84162D01*
X86946D01*
Y84040D01*
X86824D01*
Y83919D01*
X86703D01*
Y83797D01*
X86581D01*
Y83676D01*
X86338D01*
Y83554D01*
X86095D01*
Y83432D01*
X85122D01*
Y86108D01*
X85243D01*
Y94378D01*
X85122D01*
Y95351D01*
X86459D01*
Y95230D01*
D02*
G37*
%LPC*%
G36*
X68338Y52297D02*
X66270D01*
Y47919D01*
X66392D01*
Y47554D01*
X66514D01*
Y47432D01*
X66635D01*
Y47311D01*
X66878D01*
Y47189D01*
X67243D01*
Y47068D01*
X67365D01*
Y47189D01*
X67851D01*
Y47311D01*
X67973D01*
Y47432D01*
X68095D01*
Y47554D01*
X68216D01*
Y47797D01*
X68338D01*
Y52297D01*
D02*
G37*
%LPD*%
D10*
X40311Y356500D02*
G03*
X40311Y356500I-11811J0D01*
G01*
X1315311D02*
G03*
X1315311Y356500I-11811J0D01*
G01*
X1314311Y19000D02*
G03*
X1314311Y19000I-11811J0D01*
G01*
X40311D02*
G03*
X40311Y19000I-11811J0D01*
G01*
X93500Y277625D02*
Y286250D01*
Y271750D02*
Y277625D01*
X31500Y281750D02*
Y292000D01*
Y265000D02*
Y275250D01*
X93500Y286250D02*
Y292000D01*
Y265000D02*
Y271750D01*
X63000Y265000D02*
X93500D01*
X31500Y275250D02*
Y281750D01*
Y292000D02*
X93500D01*
X31500Y265000D02*
X63000D01*
X944200Y325000D02*
Y357000D01*
Y325000D02*
X1013200D01*
X944200Y357000D02*
X1013200D01*
Y325000D02*
Y357000D01*
X12933Y145461D02*
X90567D01*
X89067Y143461D02*
X89307Y143701D01*
X90807Y145701D02*
Y232701D01*
X12433Y232709D02*
X90307D01*
X1049000Y358500D02*
Y363498D01*
X1051499D01*
X1052332Y362665D01*
Y360999D01*
X1051499Y360166D01*
X1049000D01*
X1053998Y358500D02*
X1055665D01*
X1054831D01*
Y361832D01*
X1053998D01*
X1058164Y358500D02*
Y361832D01*
X1060663D01*
X1061496Y360999D01*
Y358500D01*
X1063995D02*
X1065661D01*
X1066494Y359333D01*
Y360999D01*
X1065661Y361832D01*
X1063995D01*
X1063162Y360999D01*
Y359333D01*
X1063995Y358500D01*
X1068161Y361832D02*
Y359333D01*
X1068993Y358500D01*
X1071493D01*
Y361832D01*
X1073992Y362665D02*
Y361832D01*
X1073159D01*
X1074825D01*
X1073992D01*
Y359333D01*
X1074825Y358500D01*
X1060332Y345000D02*
X1057000D01*
X1060332Y348332D01*
Y349165D01*
X1059499Y349998D01*
X1057833D01*
X1057000Y349165D01*
X1069000D02*
X1069833Y349998D01*
X1071499D01*
X1072332Y349165D01*
Y348332D01*
X1071499Y347499D01*
X1070666D01*
X1071499D01*
X1072332Y346666D01*
Y345833D01*
X1071499Y345000D01*
X1069833D01*
X1069000Y345833D01*
X1072332Y337998D02*
X1070666Y337165D01*
X1069000Y335499D01*
Y333833D01*
X1069833Y333000D01*
X1071499D01*
X1072332Y333833D01*
Y334666D01*
X1071499Y335499D01*
X1069000D01*
X1042500Y345000D02*
X1044166D01*
X1043333D01*
Y349998D01*
X1042500Y349165D01*
X1082999Y345500D02*
Y350498D01*
X1080500Y347999D01*
X1083832D01*
X1084832Y337998D02*
X1081500D01*
Y335499D01*
X1083166Y336332D01*
X1083999D01*
X1084832Y335499D01*
Y333833D01*
X1083999Y333000D01*
X1082333D01*
X1081500Y333833D01*
X931500Y369164D02*
Y365832D01*
X933166Y364166D01*
X934832Y365832D01*
Y369164D01*
X937331Y364166D02*
X938998D01*
X939831Y364999D01*
Y366665D01*
X938998Y367498D01*
X937331D01*
X936498Y366665D01*
Y364999D01*
X937331Y364166D01*
X941497D02*
X943163D01*
X942330D01*
Y369164D01*
X941497D01*
X946495Y368331D02*
Y367498D01*
X945662D01*
X947328D01*
X946495D01*
Y364999D01*
X947328Y364166D01*
X950661Y367498D02*
X952327D01*
X953160Y366665D01*
Y364166D01*
X950661D01*
X949827Y364999D01*
X950661Y365832D01*
X953160D01*
X956492Y362500D02*
X957325D01*
X958158Y363333D01*
Y367498D01*
X955659D01*
X954826Y366665D01*
Y364999D01*
X955659Y364166D01*
X958158D01*
X962323D02*
X960657D01*
X959824Y364999D01*
Y366665D01*
X960657Y367498D01*
X962323D01*
X963156Y366665D01*
Y365832D01*
X959824D01*
X969821Y369164D02*
X973153D01*
X971487D01*
Y364166D01*
X975652Y367498D02*
X977318D01*
X978152Y366665D01*
Y364166D01*
X975652D01*
X974819Y364999D01*
X975652Y365832D01*
X978152D01*
X979818Y362500D02*
Y367498D01*
X982317D01*
X983150Y366665D01*
Y364999D01*
X982317Y364166D01*
X979818D01*
X993147Y368331D02*
X992314Y369164D01*
X990648D01*
X989814Y368331D01*
Y364999D01*
X990648Y364166D01*
X992314D01*
X993147Y364999D01*
X995646Y364166D02*
X997312D01*
X998145Y364999D01*
Y366665D01*
X997312Y367498D01*
X995646D01*
X994813Y366665D01*
Y364999D01*
X995646Y364166D01*
X999811D02*
Y367498D01*
X1002310D01*
X1003144Y366665D01*
Y364166D01*
X1004810D02*
Y367498D01*
X1007309D01*
X1008142Y366665D01*
Y364166D01*
X1012307D02*
X1010641D01*
X1009808Y364999D01*
Y366665D01*
X1010641Y367498D01*
X1012307D01*
X1013140Y366665D01*
Y365832D01*
X1009808D01*
X1018139Y367498D02*
X1015639D01*
X1014806Y366665D01*
Y364999D01*
X1015639Y364166D01*
X1018139D01*
X1020638Y368331D02*
Y367498D01*
X1019805D01*
X1021471D01*
X1020638D01*
Y364999D01*
X1021471Y364166D01*
X1024803D02*
X1026469D01*
X1027302Y364999D01*
Y366665D01*
X1026469Y367498D01*
X1024803D01*
X1023970Y366665D01*
Y364999D01*
X1024803Y364166D01*
X1028968Y367498D02*
Y364166D01*
Y365832D01*
X1029801Y366665D01*
X1030634Y367498D01*
X1031468D01*
X1057000Y337998D02*
X1060332D01*
Y337165D01*
X1057000Y333833D01*
Y333000D01*
X1038999Y337498D02*
X1037333D01*
X1036500Y336665D01*
Y333333D01*
X1037333Y332500D01*
X1038999D01*
X1039832Y333333D01*
Y336665D01*
X1038999Y337498D01*
X1041498D02*
Y333333D01*
X1042331Y332500D01*
X1043998D01*
X1044831Y333333D01*
Y337498D01*
X1046497D02*
X1049829D01*
X1048163D01*
Y332500D01*
X23502Y334001D02*
Y339999D01*
X25502Y338000D01*
X27501Y339999D01*
Y334001D01*
X29500Y339999D02*
Y334001D01*
Y337000D01*
X33499D01*
Y339999D01*
Y334001D01*
X35498D02*
X37498D01*
X36498D01*
Y339999D01*
X35498Y338999D01*
X1296003Y333001D02*
Y338999D01*
X1298002Y337000D01*
X1300001Y338999D01*
Y333001D01*
X1302001Y338999D02*
Y333001D01*
Y336000D01*
X1305999D01*
Y338999D01*
Y333001D01*
X1311997D02*
X1307999D01*
X1311997Y337000D01*
Y337999D01*
X1310998Y338999D01*
X1308998D01*
X1307999Y337999D01*
X1291200Y34300D02*
Y40298D01*
X1293199Y38299D01*
X1295199Y40298D01*
Y34300D01*
X1297198Y40298D02*
Y34300D01*
Y37299D01*
X1301197D01*
Y40298D01*
Y34300D01*
X1303196Y39298D02*
X1304196Y40298D01*
X1306195D01*
X1307195Y39298D01*
Y38299D01*
X1306195Y37299D01*
X1305196D01*
X1306195D01*
X1307195Y36299D01*
Y35300D01*
X1306195Y34300D01*
X1304196D01*
X1303196Y35300D01*
X17200Y34300D02*
Y40298D01*
X19199Y38299D01*
X21199Y40298D01*
Y34300D01*
X23198Y40298D02*
Y34300D01*
Y37299D01*
X27197D01*
Y40298D01*
Y34300D01*
X32195D02*
Y40298D01*
X29196Y37299D01*
X33195D01*
X35999Y301498D02*
X32000D01*
Y298499D01*
X33999D01*
X32000D01*
Y295500D01*
X37998D02*
X39997D01*
X38998D01*
Y301498D01*
X37998Y300498D01*
X1154000Y352999D02*
X1152001D01*
X1153001D01*
Y348001D01*
X1152001Y347001D01*
X1151001D01*
X1150002Y348001D01*
X1158999Y347001D02*
Y352999D01*
X1156000Y350000D01*
X1159998D01*
X833000Y327499D02*
X831001D01*
X832001D01*
Y322501D01*
X831001Y321501D01*
X830001D01*
X829002Y322501D01*
X835000Y326499D02*
X835999Y327499D01*
X837999D01*
X838998Y326499D01*
Y325500D01*
X837999Y324500D01*
X836999D01*
X837999D01*
X838998Y323500D01*
Y322501D01*
X837999Y321501D01*
X835999D01*
X835000Y322501D01*
X1084500Y37999D02*
X1082501D01*
X1083501D01*
Y33001D01*
X1082501Y32001D01*
X1081501D01*
X1080502Y33001D01*
X1090498Y37999D02*
X1086500D01*
Y35000D01*
X1088499Y36000D01*
X1089499D01*
X1090498Y35000D01*
Y33001D01*
X1089499Y32001D01*
X1087499D01*
X1086500Y33001D01*
X153000Y330499D02*
X151001D01*
X152000D01*
Y325501D01*
X151001Y324501D01*
X150001D01*
X149001Y325501D01*
X154999Y324501D02*
X156999D01*
X155999D01*
Y330499D01*
X154999Y329499D01*
X7300Y236200D02*
Y242198D01*
X10299D01*
X11299Y241198D01*
Y239199D01*
X10299Y238199D01*
X7300D01*
X13298Y236200D02*
X15297D01*
X14298D01*
Y242198D01*
X13298Y241198D01*
X398500Y35999D02*
X396501D01*
X397501D01*
Y31001D01*
X396501Y30001D01*
X395501D01*
X394502Y31001D01*
X400500Y35999D02*
X404498D01*
Y34999D01*
X400500Y31001D01*
Y30001D01*
X737500Y38499D02*
X735501D01*
X736501D01*
Y33501D01*
X735501Y32501D01*
X734501D01*
X733502Y33501D01*
X743498Y38499D02*
X741499Y37499D01*
X739500Y35500D01*
Y33501D01*
X740499Y32501D01*
X742499D01*
X743498Y33501D01*
Y34500D01*
X742499Y35500D01*
X739500D01*
X492000Y330999D02*
X490001D01*
X491001D01*
Y326001D01*
X490001Y325001D01*
X489001D01*
X488002Y326001D01*
X497998Y325001D02*
X494000D01*
X497998Y329000D01*
Y329999D01*
X496999Y330999D01*
X494999D01*
X494000Y329999D01*
D11*
X1033500Y341500D02*
X1087500D01*
X1077000Y330000D02*
Y353000D01*
X1065000Y330000D02*
Y353000D01*
X1052500Y330000D02*
Y353000D01*
X1033500D02*
X1087500D01*
Y330000D02*
Y353000D01*
X1033500Y330000D02*
X1087500D01*
X1033500D02*
Y353000D01*
X500Y500D02*
X1325000D01*
X1325000Y375000D02*
X1325000Y500D01*
X500Y375000D02*
X1325000D01*
X500D02*
X500Y500D01*
D12*
X1225216Y27283D02*
X1263996D01*
X1151004D02*
X1189783D01*
X1225216Y337717D02*
X1263996D01*
X1151004D02*
X1189783D01*
X1263996Y27283D02*
Y337717D01*
X1151004Y27283D02*
Y337717D01*
X1113216Y273217D02*
Y311996D01*
Y199004D02*
Y237784D01*
X802783Y273217D02*
Y311996D01*
Y199004D02*
Y237784D01*
Y311996D02*
X1113216D01*
X802783Y199004D02*
X1113216D01*
X804284Y50004D02*
Y88784D01*
Y124216D02*
Y162996D01*
X1114717Y50004D02*
Y88784D01*
Y124216D02*
Y162996D01*
X804284Y50004D02*
X1114717D01*
X804284Y162996D02*
X1114717D01*
X430717Y273217D02*
Y311996D01*
Y199004D02*
Y237784D01*
X120283Y273217D02*
Y311996D01*
Y199004D02*
Y237784D01*
Y311996D02*
X430717D01*
X120283Y199004D02*
X430717D01*
X122283Y50004D02*
Y88784D01*
Y124216D02*
Y162996D01*
X432717Y50004D02*
Y88784D01*
Y124216D02*
Y162996D01*
X122283Y50004D02*
X432717D01*
X122283Y162996D02*
X432717D01*
X461283Y50004D02*
Y88784D01*
Y124216D02*
Y162996D01*
X771716Y50004D02*
Y88784D01*
Y124216D02*
Y162996D01*
X461283Y50004D02*
X771716D01*
X461283Y162996D02*
X771716D01*
X770716Y274217D02*
Y312996D01*
Y200004D02*
Y238784D01*
X460284Y274217D02*
Y312996D01*
Y200004D02*
Y238784D01*
Y312996D02*
X770716D01*
X460284Y200004D02*
X770716D01*
D13*
X71000Y155747D02*
X82663D01*
X70000Y219247D02*
X81663D01*
X75831Y225079D02*
Y213416D01*
D14*
X465000Y328331D02*
X476663D01*
X470831Y334163D02*
Y322500D01*
X419500Y34332D02*
X431163D01*
X425331Y40163D02*
Y28500D01*
X123000Y327831D02*
X134663D01*
X128831Y333663D02*
Y322000D01*
X758500Y35331D02*
X770163D01*
X764331Y41163D02*
Y29500D01*
X1104500Y35331D02*
X1116163D01*
X1110332Y41163D02*
Y29500D01*
X1131000Y354331D02*
X1142663D01*
X1136831Y360163D02*
Y348500D01*
X807000Y325331D02*
X818663D01*
X812831Y331163D02*
Y319500D01*
D15*
X126750Y359747D02*
Y352249D01*
X130499D01*
X131748Y353499D01*
Y354748D01*
X130499Y355998D01*
X126750D01*
X130499D01*
X131748Y357248D01*
Y358497D01*
X130499Y359747D01*
X126750D01*
X135497Y357248D02*
X137996D01*
X139246Y355998D01*
Y352249D01*
X135497D01*
X134248Y353499D01*
X135497Y354748D01*
X139246D01*
X141745Y352249D02*
Y357248D01*
X145494D01*
X146744Y355998D01*
Y352249D01*
X149243D02*
Y359747D01*
Y354748D02*
X152991Y357248D01*
X149243Y354748D02*
X152991Y352249D01*
X169236Y358497D02*
X167987Y359747D01*
X165488D01*
X164238Y358497D01*
Y357248D01*
X165488Y355998D01*
X167987D01*
X169236Y354748D01*
Y353499D01*
X167987Y352249D01*
X165488D01*
X164238Y353499D01*
X172985Y358497D02*
Y357248D01*
X171736D01*
X174235D01*
X172985D01*
Y353499D01*
X174235Y352249D01*
X177983Y357248D02*
Y352249D01*
Y354748D01*
X179233Y355998D01*
X180483Y357248D01*
X181732D01*
X185481Y352249D02*
X187980D01*
X186731D01*
Y357248D01*
X185481D01*
X191729Y352249D02*
Y357248D01*
X195478D01*
X196727Y355998D01*
Y352249D01*
X201726Y349750D02*
X202975D01*
X204225Y351000D01*
Y357248D01*
X200476D01*
X199227Y355998D01*
Y353499D01*
X200476Y352249D01*
X204225D01*
X214222Y359747D02*
Y352249D01*
X217971D01*
X219220Y353499D01*
Y354748D01*
X217971Y355998D01*
X214222D01*
X217971D01*
X219220Y357248D01*
Y358497D01*
X217971Y359747D01*
X214222D01*
X222969Y357248D02*
X225468D01*
X226718Y355998D01*
Y352249D01*
X222969D01*
X221719Y353499D01*
X222969Y354748D01*
X226718D01*
X229217Y352249D02*
Y357248D01*
X232966D01*
X234215Y355998D01*
Y352249D01*
X236715D02*
Y359747D01*
Y354748D02*
X240463Y357248D01*
X236715Y354748D02*
X240463Y352249D01*
X251710Y359747D02*
Y352249D01*
X267954D02*
X262956D01*
X267954Y357248D01*
Y358497D01*
X266705Y359747D01*
X264206D01*
X262956Y358497D01*
X275452Y359747D02*
X272953Y358497D01*
X270454Y355998D01*
Y353499D01*
X271703Y352249D01*
X274202D01*
X275452Y353499D01*
Y354748D01*
X274202Y355998D01*
X270454D01*
X282950Y359747D02*
X277951D01*
Y355998D01*
X280450Y357248D01*
X281700D01*
X282950Y355998D01*
Y353499D01*
X281700Y352249D01*
X279201D01*
X277951Y353499D01*
X290447Y359747D02*
X285449D01*
Y355998D01*
X287948Y357248D01*
X289198D01*
X290447Y355998D01*
Y353499D01*
X289198Y352249D01*
X286698D01*
X285449Y353499D01*
X292946Y358497D02*
X294196Y359747D01*
X296695D01*
X297945Y358497D01*
Y353499D01*
X296695Y352249D01*
X294196D01*
X292946Y353499D01*
Y358497D01*
X307942Y359747D02*
Y352249D01*
Y354748D01*
X312940Y359747D01*
X309191Y355998D01*
X312940Y352249D01*
X320438D02*
X315439D01*
X320438Y357248D01*
Y358497D01*
X319188Y359747D01*
X316689D01*
X315439Y358497D01*
X335433D02*
X334183Y359747D01*
X331684D01*
X330434Y358497D01*
Y353499D01*
X331684Y352249D01*
X334183D01*
X335433Y353499D01*
X341681Y352249D02*
X339181D01*
X337932Y353499D01*
Y355998D01*
X339181Y357248D01*
X341681D01*
X342930Y355998D01*
Y354748D01*
X337932D01*
X345429Y352249D02*
X347929D01*
X346679D01*
Y359747D01*
X345429D01*
X351677Y352249D02*
X354177D01*
X352927D01*
Y359747D01*
X351677D01*
X365423D02*
Y352249D01*
X376669Y359747D02*
Y352249D01*
X381668D01*
X384167Y357248D02*
Y353499D01*
X385417Y352249D01*
X389165D01*
Y357248D01*
X396663D02*
X392914D01*
X391665Y355998D01*
Y353499D01*
X392914Y352249D01*
X396663D01*
X400412Y357248D02*
X402911D01*
X404160Y355998D01*
Y352249D01*
X400412D01*
X399162Y353499D01*
X400412Y354748D01*
X404160D01*
X406660Y352249D02*
X410408D01*
X411658Y353499D01*
X410408Y354748D01*
X407909D01*
X406660Y355998D01*
X407909Y357248D01*
X411658D01*
X429152Y352249D02*
Y359747D01*
X431652Y357248D01*
X434151Y359747D01*
Y352249D01*
X437900Y357248D02*
X440399D01*
X441648Y355998D01*
Y352249D01*
X437900D01*
X436650Y353499D01*
X437900Y354748D01*
X441648D01*
X449146Y359747D02*
Y352249D01*
X445397D01*
X444147Y353499D01*
Y355998D01*
X445397Y357248D01*
X449146D01*
X456643Y359747D02*
Y352249D01*
X452895D01*
X451645Y353499D01*
Y355998D01*
X452895Y357248D01*
X456643D01*
X460392Y352249D02*
X462891D01*
X464141Y353499D01*
Y355998D01*
X462891Y357248D01*
X460392D01*
X459143Y355998D01*
Y353499D01*
X460392Y352249D01*
X466640Y357248D02*
X471639Y352249D01*
X469139Y354748D01*
X471639Y357248D01*
X466640Y352249D01*
D16*
X928751Y352251D02*
Y356749D01*
X931001D01*
X931750Y355999D01*
Y354500D01*
X931001Y353750D01*
X928751D01*
X936249Y352251D02*
X933250D01*
X936249Y355250D01*
Y355999D01*
X935499Y356749D01*
X934000D01*
X933250Y355999D01*
D17*
X1207500Y83945D02*
Y94441D01*
Y257174D02*
Y267669D01*
X1202252Y262421D02*
X1212748D01*
X1056555Y255500D02*
X1046059D01*
X883326Y255500D02*
X872831D01*
X878079Y250252D02*
Y260748D01*
X860945Y106500D02*
X871441D01*
X1034174D02*
X1044669D01*
X1039421Y111748D02*
Y101252D01*
X374055Y255500D02*
X363559D01*
X200826Y255500D02*
X190331D01*
X195579Y250252D02*
Y260748D01*
X178945Y106500D02*
X189441D01*
X352174D02*
X362669D01*
X357421Y111748D02*
Y101252D01*
X517945Y106500D02*
X528441D01*
X691174D02*
X701669D01*
X696421Y111748D02*
Y101252D01*
X714055Y256500D02*
X703559D01*
X540826Y256500D02*
X530331D01*
X535579Y251252D02*
Y261748D01*
M02*
