G04*
G04 #@! TF.GenerationSoftware,Altium Limited,Altium Designer,22.4.2 (48)*
G04*
G04 Layer_Physical_Order=2*
G04 Layer_Color=16711680*
%FSLAX25Y25*%
%MOIN*%
G70*
G04*
G04 #@! TF.SameCoordinates,340CD510-C2A3-4888-8477-CFC9A3A3E853*
G04*
G04*
G04 #@! TF.FilePolarity,Positive*
G04*
G01*
G75*
%ADD11C,0.00500*%
%ADD24C,0.16929*%
%ADD25C,0.08000*%
%ADD26C,0.07000*%
%ADD27C,0.15748*%
%ADD28C,0.10158*%
%ADD29C,0.15000*%
G36*
X1323225Y2275D02*
X2275D01*
X2274Y373225D01*
X1323225D01*
Y2275D01*
D02*
G37*
%LPC*%
G36*
X996592Y350500D02*
X995408D01*
X994263Y350193D01*
X993237Y349601D01*
X992399Y348763D01*
X991807Y347737D01*
X991500Y346592D01*
Y345408D01*
X991807Y344263D01*
X992399Y343237D01*
X993237Y342399D01*
X994263Y341807D01*
X995408Y341500D01*
X996592D01*
X997737Y341807D01*
X998763Y342399D01*
X999601Y343237D01*
X1000193Y344263D01*
X1000500Y345408D01*
Y346592D01*
X1000193Y347737D01*
X999601Y348763D01*
X998763Y349601D01*
X997737Y350193D01*
X996592Y350500D01*
D02*
G37*
G36*
X984992D02*
X983808D01*
X982663Y350193D01*
X981637Y349601D01*
X980799Y348763D01*
X980207Y347737D01*
X979900Y346592D01*
Y345408D01*
X980207Y344263D01*
X980799Y343237D01*
X981637Y342399D01*
X982663Y341807D01*
X983808Y341500D01*
X984992D01*
X986137Y341807D01*
X987163Y342399D01*
X988001Y343237D01*
X988593Y344263D01*
X988900Y345408D01*
Y346592D01*
X988593Y347737D01*
X988001Y348763D01*
X987163Y349601D01*
X986137Y350193D01*
X984992Y350500D01*
D02*
G37*
G36*
X973192D02*
X972008D01*
X970863Y350193D01*
X969837Y349601D01*
X968999Y348763D01*
X968407Y347737D01*
X968100Y346592D01*
Y345408D01*
X968407Y344263D01*
X968999Y343237D01*
X969837Y342399D01*
X970863Y341807D01*
X972008Y341500D01*
X973192D01*
X974337Y341807D01*
X975363Y342399D01*
X976201Y343237D01*
X976793Y344263D01*
X977100Y345408D01*
Y346592D01*
X976793Y347737D01*
X976201Y348763D01*
X975363Y349601D01*
X974337Y350193D01*
X973192Y350500D01*
D02*
G37*
G36*
X961392D02*
X960208D01*
X959063Y350193D01*
X958037Y349601D01*
X957199Y348763D01*
X956607Y347737D01*
X956300Y346592D01*
Y345408D01*
X956607Y344263D01*
X957199Y343237D01*
X958037Y342399D01*
X959063Y341807D01*
X960208Y341500D01*
X961392D01*
X962537Y341807D01*
X963563Y342399D01*
X964401Y343237D01*
X964993Y344263D01*
X965300Y345408D01*
Y346592D01*
X964993Y347737D01*
X964401Y348763D01*
X963563Y349601D01*
X962537Y350193D01*
X961392Y350500D01*
D02*
G37*
G36*
X996792Y338700D02*
X995608D01*
X994463Y338393D01*
X993437Y337801D01*
X992599Y336963D01*
X992007Y335937D01*
X991700Y334792D01*
Y333608D01*
X992007Y332463D01*
X992599Y331437D01*
X993437Y330599D01*
X994463Y330007D01*
X995608Y329700D01*
X996792D01*
X997937Y330007D01*
X998963Y330599D01*
X999801Y331437D01*
X1000393Y332463D01*
X1000700Y333608D01*
Y334792D01*
X1000393Y335937D01*
X999801Y336963D01*
X998963Y337801D01*
X997937Y338393D01*
X996792Y338700D01*
D02*
G37*
G36*
X984992D02*
X983808D01*
X982663Y338393D01*
X981637Y337801D01*
X980799Y336963D01*
X980207Y335937D01*
X979900Y334792D01*
Y333608D01*
X980207Y332463D01*
X980799Y331437D01*
X981637Y330599D01*
X982663Y330007D01*
X983808Y329700D01*
X984992D01*
X986137Y330007D01*
X987163Y330599D01*
X988001Y331437D01*
X988593Y332463D01*
X988900Y333608D01*
Y334792D01*
X988593Y335937D01*
X988001Y336963D01*
X987163Y337801D01*
X986137Y338393D01*
X984992Y338700D01*
D02*
G37*
G36*
X973192D02*
X972008D01*
X970863Y338393D01*
X969837Y337801D01*
X968999Y336963D01*
X968407Y335937D01*
X968100Y334792D01*
Y333608D01*
X968407Y332463D01*
X968999Y331437D01*
X969837Y330599D01*
X970863Y330007D01*
X972008Y329700D01*
X973192D01*
X974337Y330007D01*
X975363Y330599D01*
X976201Y331437D01*
X976793Y332463D01*
X977100Y333608D01*
Y334792D01*
X976793Y335937D01*
X976201Y336963D01*
X975363Y337801D01*
X974337Y338393D01*
X973192Y338700D01*
D02*
G37*
G36*
X961392D02*
X960208D01*
X959063Y338393D01*
X958037Y337801D01*
X957199Y336963D01*
X956607Y335937D01*
X956300Y334792D01*
Y333608D01*
X956607Y332463D01*
X957199Y331437D01*
X958037Y330599D01*
X959063Y330007D01*
X960208Y329700D01*
X961392D01*
X962537Y330007D01*
X963563Y330599D01*
X964401Y331437D01*
X964993Y332463D01*
X965300Y333608D01*
Y334792D01*
X964993Y335937D01*
X964401Y336963D01*
X963563Y337801D01*
X962537Y338393D01*
X961392Y338700D01*
D02*
G37*
G36*
X1208374Y338224D02*
X1206626D01*
X1204912Y337883D01*
X1203297Y337214D01*
X1201843Y336243D01*
X1200607Y335007D01*
X1199636Y333554D01*
X1198967Y331939D01*
X1198626Y330224D01*
Y328476D01*
X1198967Y326762D01*
X1199636Y325147D01*
X1200607Y323693D01*
X1201843Y322458D01*
X1203297Y321486D01*
X1204912Y320817D01*
X1206626Y320476D01*
X1208374D01*
X1210089Y320817D01*
X1211703Y321486D01*
X1213157Y322458D01*
X1214393Y323693D01*
X1215364Y325147D01*
X1216033Y326762D01*
X1216374Y328476D01*
Y330224D01*
X1216033Y331939D01*
X1215364Y333554D01*
X1214393Y335007D01*
X1213157Y336243D01*
X1211703Y337214D01*
X1210089Y337883D01*
X1208374Y338224D01*
D02*
G37*
G36*
X82658Y290000D02*
X81342D01*
X80070Y289659D01*
X78930Y289001D01*
X77999Y288070D01*
X77341Y286930D01*
X77000Y285658D01*
Y284342D01*
X77341Y283070D01*
X77999Y281930D01*
X78930Y280999D01*
X80070Y280341D01*
X81342Y280000D01*
X82658D01*
X83930Y280341D01*
X85070Y280999D01*
X86001Y281930D01*
X86659Y283070D01*
X87000Y284342D01*
Y285658D01*
X86659Y286930D01*
X86001Y288070D01*
X85070Y289001D01*
X83930Y289659D01*
X82658Y290000D01*
D02*
G37*
G36*
X43658D02*
X42342D01*
X41070Y289659D01*
X39930Y289001D01*
X38999Y288070D01*
X38341Y286930D01*
X38000Y285658D01*
Y284342D01*
X38341Y283070D01*
X38999Y281930D01*
X39930Y280999D01*
X41070Y280341D01*
X42342Y280000D01*
X43658D01*
X44930Y280341D01*
X46070Y280999D01*
X47001Y281930D01*
X47659Y283070D01*
X48000Y284342D01*
Y285658D01*
X47659Y286930D01*
X47001Y288070D01*
X46070Y289001D01*
X44930Y289659D01*
X43658Y290000D01*
D02*
G37*
G36*
X82658Y276500D02*
X81342D01*
X80070Y276159D01*
X78930Y275501D01*
X77999Y274570D01*
X77341Y273430D01*
X77000Y272158D01*
Y270842D01*
X77341Y269570D01*
X77999Y268430D01*
X78930Y267499D01*
X80070Y266841D01*
X81342Y266500D01*
X82658D01*
X83930Y266841D01*
X85070Y267499D01*
X86001Y268430D01*
X86659Y269570D01*
X87000Y270842D01*
Y272158D01*
X86659Y273430D01*
X86001Y274570D01*
X85070Y275501D01*
X83930Y276159D01*
X82658Y276500D01*
D02*
G37*
G36*
X43658D02*
X42342D01*
X41070Y276159D01*
X39930Y275501D01*
X38999Y274570D01*
X38341Y273430D01*
X38000Y272158D01*
Y270842D01*
X38341Y269570D01*
X38999Y268430D01*
X39930Y267499D01*
X41070Y266841D01*
X42342Y266500D01*
X43658D01*
X44930Y266841D01*
X46070Y267499D01*
X47001Y268430D01*
X47659Y269570D01*
X48000Y270842D01*
Y272158D01*
X47659Y273430D01*
X47001Y274570D01*
X46070Y275501D01*
X44930Y276159D01*
X43658Y276500D01*
D02*
G37*
G36*
X763224Y265374D02*
X761476D01*
X759762Y265033D01*
X758147Y264364D01*
X756694Y263393D01*
X755457Y262157D01*
X754486Y260703D01*
X753817Y259088D01*
X753476Y257374D01*
Y255626D01*
X753817Y253911D01*
X754486Y252297D01*
X755457Y250843D01*
X756694Y249607D01*
X758147Y248636D01*
X759762Y247967D01*
X761476Y247626D01*
X763224D01*
X764939Y247967D01*
X766554Y248636D01*
X768007Y249607D01*
X769243Y250843D01*
X770214Y252297D01*
X770883Y253911D01*
X771224Y255626D01*
Y257374D01*
X770883Y259088D01*
X770214Y260703D01*
X769243Y262157D01*
X768007Y263393D01*
X766554Y264364D01*
X764939Y265033D01*
X763224Y265374D01*
D02*
G37*
G36*
X469524D02*
X467776D01*
X466061Y265033D01*
X464446Y264364D01*
X462993Y263393D01*
X461757Y262157D01*
X460786Y260703D01*
X460117Y259088D01*
X459776Y257374D01*
Y255626D01*
X460117Y253911D01*
X460786Y252297D01*
X461757Y250843D01*
X462993Y249607D01*
X464446Y248636D01*
X466061Y247967D01*
X467776Y247626D01*
X469524D01*
X471238Y247967D01*
X472853Y248636D01*
X474306Y249607D01*
X475542Y250843D01*
X476514Y252297D01*
X477183Y253911D01*
X477524Y255626D01*
Y257374D01*
X477183Y259088D01*
X476514Y260703D01*
X475542Y262157D01*
X474306Y263393D01*
X472853Y264364D01*
X471238Y265033D01*
X469524Y265374D01*
D02*
G37*
G36*
X1105724Y264374D02*
X1103976D01*
X1102262Y264033D01*
X1100647Y263364D01*
X1099193Y262393D01*
X1097958Y261157D01*
X1096986Y259703D01*
X1096317Y258088D01*
X1095976Y256374D01*
Y254626D01*
X1096317Y252911D01*
X1096986Y251297D01*
X1097958Y249843D01*
X1099193Y248607D01*
X1100647Y247636D01*
X1102262Y246967D01*
X1103976Y246626D01*
X1105724D01*
X1107439Y246967D01*
X1109054Y247636D01*
X1110507Y248607D01*
X1111743Y249843D01*
X1112714Y251297D01*
X1113383Y252911D01*
X1113724Y254626D01*
Y256374D01*
X1113383Y258088D01*
X1112714Y259703D01*
X1111743Y261157D01*
X1110507Y262393D01*
X1109054Y263364D01*
X1107439Y264033D01*
X1105724Y264374D01*
D02*
G37*
G36*
X812024D02*
X810276D01*
X808561Y264033D01*
X806946Y263364D01*
X805493Y262393D01*
X804257Y261157D01*
X803286Y259703D01*
X802617Y258088D01*
X802276Y256374D01*
Y254626D01*
X802617Y252911D01*
X803286Y251297D01*
X804257Y249843D01*
X805493Y248607D01*
X806946Y247636D01*
X808561Y246967D01*
X810276Y246626D01*
X812024D01*
X813738Y246967D01*
X815353Y247636D01*
X816807Y248607D01*
X818042Y249843D01*
X819014Y251297D01*
X819683Y252911D01*
X820024Y254626D01*
Y256374D01*
X819683Y258088D01*
X819014Y259703D01*
X818042Y261157D01*
X816807Y262393D01*
X815353Y263364D01*
X813738Y264033D01*
X812024Y264374D01*
D02*
G37*
G36*
X423224D02*
X421476D01*
X419762Y264033D01*
X418147Y263364D01*
X416693Y262393D01*
X415457Y261157D01*
X414486Y259703D01*
X413817Y258088D01*
X413476Y256374D01*
Y254626D01*
X413817Y252911D01*
X414486Y251297D01*
X415457Y249843D01*
X416693Y248607D01*
X418147Y247636D01*
X419762Y246967D01*
X421476Y246626D01*
X423224D01*
X424939Y246967D01*
X426554Y247636D01*
X428007Y248607D01*
X429243Y249843D01*
X430214Y251297D01*
X430883Y252911D01*
X431224Y254626D01*
Y256374D01*
X430883Y258088D01*
X430214Y259703D01*
X429243Y261157D01*
X428007Y262393D01*
X426554Y263364D01*
X424939Y264033D01*
X423224Y264374D01*
D02*
G37*
G36*
X129524D02*
X127776D01*
X126061Y264033D01*
X124446Y263364D01*
X122993Y262393D01*
X121757Y261157D01*
X120786Y259703D01*
X120117Y258088D01*
X119776Y256374D01*
Y254626D01*
X120117Y252911D01*
X120786Y251297D01*
X121757Y249843D01*
X122993Y248607D01*
X124446Y247636D01*
X126061Y246967D01*
X127776Y246626D01*
X129524D01*
X131238Y246967D01*
X132853Y247636D01*
X134307Y248607D01*
X135543Y249843D01*
X136514Y251297D01*
X137183Y252911D01*
X137524Y254626D01*
Y256374D01*
X137183Y258088D01*
X136514Y259703D01*
X135543Y261157D01*
X134307Y262393D01*
X132853Y263364D01*
X131238Y264033D01*
X129524Y264374D01*
D02*
G37*
G36*
X83118Y209579D02*
X81921D01*
X80747Y209345D01*
X79640Y208887D01*
X78645Y208222D01*
X77798Y207375D01*
X77133Y206379D01*
X76674Y205273D01*
X76515Y204470D01*
X76005D01*
X75845Y205273D01*
X75387Y206379D01*
X74722Y207375D01*
X73875Y208222D01*
X72879Y208887D01*
X71773Y209345D01*
X70599Y209579D01*
X69401D01*
X68227Y209345D01*
X67121Y208887D01*
X66125Y208222D01*
X65278Y207375D01*
X64613Y206379D01*
X64155Y205273D01*
X63921Y204099D01*
Y202901D01*
X64155Y201727D01*
X64613Y200621D01*
X65278Y199625D01*
X66125Y198778D01*
X67121Y198113D01*
X68227Y197655D01*
X69401Y197421D01*
X70599D01*
X71773Y197655D01*
X72879Y198113D01*
X73875Y198778D01*
X74722Y199625D01*
X75387Y200621D01*
X75845Y201727D01*
X76005Y202530D01*
X76515D01*
X76674Y201727D01*
X77133Y200621D01*
X77798Y199625D01*
X78645Y198778D01*
X79640Y198113D01*
X80747Y197655D01*
X81921Y197421D01*
X83118D01*
X84293Y197655D01*
X85399Y198113D01*
X86395Y198778D01*
X87241Y199625D01*
X87907Y200621D01*
X88365Y201727D01*
X88598Y202901D01*
Y204099D01*
X88365Y205273D01*
X87907Y206379D01*
X87241Y207375D01*
X86395Y208222D01*
X85399Y208887D01*
X84293Y209345D01*
X83118Y209579D01*
D02*
G37*
G36*
Y180079D02*
X81921D01*
X80747Y179845D01*
X79640Y179387D01*
X78645Y178722D01*
X77798Y177875D01*
X77133Y176879D01*
X76674Y175773D01*
X76515Y174970D01*
X76005D01*
X75845Y175773D01*
X75387Y176879D01*
X74722Y177875D01*
X73875Y178722D01*
X72879Y179387D01*
X71773Y179845D01*
X70599Y180079D01*
X69401D01*
X68227Y179845D01*
X67121Y179387D01*
X66125Y178722D01*
X65278Y177875D01*
X64613Y176879D01*
X64155Y175773D01*
X63921Y174599D01*
Y173401D01*
X64155Y172227D01*
X64613Y171121D01*
X65278Y170125D01*
X66125Y169278D01*
X67121Y168613D01*
X68227Y168155D01*
X69401Y167921D01*
X70599D01*
X71773Y168155D01*
X72879Y168613D01*
X73875Y169278D01*
X74722Y170125D01*
X75387Y171121D01*
X75845Y172227D01*
X76005Y173030D01*
X76515D01*
X76674Y172227D01*
X77133Y171121D01*
X77798Y170125D01*
X78645Y169278D01*
X79640Y168613D01*
X80747Y168155D01*
X81921Y167921D01*
X83118D01*
X84293Y168155D01*
X85399Y168613D01*
X86395Y169278D01*
X87241Y170125D01*
X87907Y171121D01*
X88365Y172227D01*
X88598Y173401D01*
Y174599D01*
X88365Y175773D01*
X87907Y176879D01*
X87241Y177875D01*
X86395Y178722D01*
X85399Y179387D01*
X84293Y179845D01*
X83118Y180079D01*
D02*
G37*
G36*
X1107224Y115374D02*
X1105476D01*
X1103762Y115033D01*
X1102147Y114364D01*
X1100694Y113393D01*
X1099457Y112157D01*
X1098486Y110703D01*
X1097817Y109088D01*
X1097476Y107374D01*
Y105626D01*
X1097817Y103912D01*
X1098486Y102297D01*
X1099457Y100843D01*
X1100694Y99607D01*
X1102147Y98636D01*
X1103762Y97967D01*
X1105476Y97626D01*
X1107224D01*
X1108939Y97967D01*
X1110554Y98636D01*
X1112007Y99607D01*
X1113243Y100843D01*
X1114214Y102297D01*
X1114883Y103912D01*
X1115224Y105626D01*
Y107374D01*
X1114883Y109088D01*
X1114214Y110703D01*
X1113243Y112157D01*
X1112007Y113393D01*
X1110554Y114364D01*
X1108939Y115033D01*
X1107224Y115374D01*
D02*
G37*
G36*
X813524D02*
X811776D01*
X810061Y115033D01*
X808446Y114364D01*
X806993Y113393D01*
X805757Y112157D01*
X804786Y110703D01*
X804117Y109088D01*
X803776Y107374D01*
Y105626D01*
X804117Y103912D01*
X804786Y102297D01*
X805757Y100843D01*
X806993Y99607D01*
X808446Y98636D01*
X810061Y97967D01*
X811776Y97626D01*
X813524D01*
X815238Y97967D01*
X816853Y98636D01*
X818307Y99607D01*
X819543Y100843D01*
X820514Y102297D01*
X821183Y103912D01*
X821524Y105626D01*
Y107374D01*
X821183Y109088D01*
X820514Y110703D01*
X819543Y112157D01*
X818307Y113393D01*
X816853Y114364D01*
X815238Y115033D01*
X813524Y115374D01*
D02*
G37*
G36*
X764224D02*
X762476D01*
X760762Y115033D01*
X759147Y114364D01*
X757693Y113393D01*
X756458Y112157D01*
X755486Y110703D01*
X754817Y109088D01*
X754476Y107374D01*
Y105626D01*
X754817Y103912D01*
X755486Y102297D01*
X756458Y100843D01*
X757693Y99607D01*
X759147Y98636D01*
X760762Y97967D01*
X762476Y97626D01*
X764224D01*
X765939Y97967D01*
X767554Y98636D01*
X769007Y99607D01*
X770243Y100843D01*
X771214Y102297D01*
X771883Y103912D01*
X772224Y105626D01*
Y107374D01*
X771883Y109088D01*
X771214Y110703D01*
X770243Y112157D01*
X769007Y113393D01*
X767554Y114364D01*
X765939Y115033D01*
X764224Y115374D01*
D02*
G37*
G36*
X470524D02*
X468776D01*
X467061Y115033D01*
X465446Y114364D01*
X463993Y113393D01*
X462757Y112157D01*
X461786Y110703D01*
X461117Y109088D01*
X460776Y107374D01*
Y105626D01*
X461117Y103912D01*
X461786Y102297D01*
X462757Y100843D01*
X463993Y99607D01*
X465446Y98636D01*
X467061Y97967D01*
X468776Y97626D01*
X470524D01*
X472238Y97967D01*
X473853Y98636D01*
X475307Y99607D01*
X476543Y100843D01*
X477514Y102297D01*
X478183Y103912D01*
X478524Y105626D01*
Y107374D01*
X478183Y109088D01*
X477514Y110703D01*
X476543Y112157D01*
X475307Y113393D01*
X473853Y114364D01*
X472238Y115033D01*
X470524Y115374D01*
D02*
G37*
G36*
X425224D02*
X423476D01*
X421762Y115033D01*
X420147Y114364D01*
X418693Y113393D01*
X417457Y112157D01*
X416486Y110703D01*
X415817Y109088D01*
X415476Y107374D01*
Y105626D01*
X415817Y103912D01*
X416486Y102297D01*
X417457Y100843D01*
X418693Y99607D01*
X420147Y98636D01*
X421762Y97967D01*
X423476Y97626D01*
X425224D01*
X426939Y97967D01*
X428554Y98636D01*
X430007Y99607D01*
X431243Y100843D01*
X432214Y102297D01*
X432883Y103912D01*
X433224Y105626D01*
Y107374D01*
X432883Y109088D01*
X432214Y110703D01*
X431243Y112157D01*
X430007Y113393D01*
X428554Y114364D01*
X426939Y115033D01*
X425224Y115374D01*
D02*
G37*
G36*
X131524D02*
X129776D01*
X128061Y115033D01*
X126446Y114364D01*
X124993Y113393D01*
X123757Y112157D01*
X122786Y110703D01*
X122117Y109088D01*
X121776Y107374D01*
Y105626D01*
X122117Y103912D01*
X122786Y102297D01*
X123757Y100843D01*
X124993Y99607D01*
X126446Y98636D01*
X128061Y97967D01*
X129776Y97626D01*
X131524D01*
X133238Y97967D01*
X134853Y98636D01*
X136307Y99607D01*
X137542Y100843D01*
X138514Y102297D01*
X139183Y103912D01*
X139524Y105626D01*
Y107374D01*
X139183Y109088D01*
X138514Y110703D01*
X137542Y112157D01*
X136307Y113393D01*
X134853Y114364D01*
X133238Y115033D01*
X131524Y115374D01*
D02*
G37*
G36*
X1208374Y44524D02*
X1206626D01*
X1204912Y44183D01*
X1203297Y43514D01*
X1201843Y42542D01*
X1200607Y41306D01*
X1199636Y39853D01*
X1198967Y38238D01*
X1198626Y36524D01*
Y34776D01*
X1198967Y33061D01*
X1199636Y31446D01*
X1200607Y29993D01*
X1201843Y28757D01*
X1203297Y27786D01*
X1204912Y27117D01*
X1206626Y26776D01*
X1208374D01*
X1210089Y27117D01*
X1211703Y27786D01*
X1213157Y28757D01*
X1214393Y29993D01*
X1215364Y31446D01*
X1216033Y33061D01*
X1216374Y34776D01*
Y36524D01*
X1216033Y38238D01*
X1215364Y39853D01*
X1214393Y41306D01*
X1213157Y42542D01*
X1211703Y43514D01*
X1210089Y44183D01*
X1208374Y44524D01*
D02*
G37*
%LPD*%
D11*
X500Y500D02*
X1325000D01*
X1325000Y375000D02*
X1325000Y500D01*
X500Y375000D02*
X1325000D01*
X500D02*
X500Y500D01*
D24*
X28500Y356500D02*
D03*
X1303500D02*
D03*
X1302500Y19000D02*
D03*
X28500D02*
D03*
D25*
X43000Y285000D02*
D03*
X82000D02*
D03*
Y271500D02*
D03*
X43000D02*
D03*
D26*
X949000Y330500D02*
D03*
X1008000D02*
D03*
X996000Y346000D02*
D03*
X996200Y334200D02*
D03*
X984400D02*
D03*
Y346000D02*
D03*
X972600D02*
D03*
X960800D02*
D03*
Y334200D02*
D03*
X972600D02*
D03*
D27*
X1207500Y35650D02*
D03*
Y329350D02*
D03*
X1104850Y255500D02*
D03*
X811150D02*
D03*
X812650Y106500D02*
D03*
X1106350D02*
D03*
X422350Y255500D02*
D03*
X128650D02*
D03*
X130650Y106500D02*
D03*
X424350D02*
D03*
X469650D02*
D03*
X763350D02*
D03*
X762350Y256500D02*
D03*
X468650D02*
D03*
D28*
X70000Y174000D02*
D03*
X82520Y203500D02*
D03*
Y174000D02*
D03*
X70000Y203500D02*
D03*
D29*
X18307Y155299D02*
D03*
Y222201D02*
D03*
M02*
